<?xml version="1.0" encoding="UTF-8" standalone="no"?>
<!DOCTYPE svg PUBLIC "-//W3C//DTD SVG 1.1//EN"
 "http://www.w3.org/Graphics/SVG/1.1/DTD/svg11.dtd">
<!-- Generated by graphviz version 2.43.0 (0)
 -->
<!-- Title: accelerometerdatamessage.cpp Pages: 1 -->
<svg width="479pt" height="308pt"
 viewBox="0.00 0.00 478.50 308.00" xmlns="http://www.w3.org/2000/svg" xmlns:xlink="http://www.w3.org/1999/xlink">
<g id="graph0" class="graph" transform="scale(1 1) rotate(0) translate(4 304)">
<title>accelerometerdatamessage.cpp</title>
<!-- Node1 -->
<g id="node1" class="node">
<title>Node1</title>
<g id="a_node1"><a xlink:title=" ">
<polygon fill="#bfbfbf" stroke="black" points="160.5,-280.5 160.5,-299.5 333.5,-299.5 333.5,-280.5 160.5,-280.5"/>
<text text-anchor="middle" x="247" y="-287.5" font-family="Helvetica,sans-Serif" font-size="10.00">accelerometerdatamessage.cpp</text>
</a>
</g>
</g>
<!-- Node2 -->
<g id="node2" class="node">
<title>Node2</title>
<g id="a_node2"><a xlink:href="accelerometerdatamessage_8h.html" target="_top" xlink:title=" ">
<polygon fill="none" stroke="black" points="0,-224.5 0,-243.5 162,-243.5 162,-224.5 0,-224.5"/>
<text text-anchor="middle" x="81" y="-231.5" font-family="Helvetica,sans-Serif" font-size="10.00">accelerometerdatamessage.h</text>
</a>
</g>
</g>
<!-- Node1&#45;&gt;Node2 -->
<g id="edge1" class="edge">
<title>Node1&#45;&gt;Node2</title>
<path fill="none" stroke="midnightblue" d="M220.7,-280.44C192.65,-271.32 148.06,-256.81 116.82,-246.65"/>
<polygon fill="midnightblue" stroke="midnightblue" points="117.77,-243.28 107.18,-243.52 115.61,-249.94 117.77,-243.28"/>
</g>
<!-- Node7 -->
<g id="node7" class="node">
<title>Node7</title>
<g id="a_node7"><a xlink:title=" ">
<polygon fill="none" stroke="#bfbfbf" points="156,-56.5 156,-75.5 212,-75.5 212,-56.5 156,-56.5"/>
<text text-anchor="middle" x="184" y="-63.5" font-family="Helvetica,sans-Serif" font-size="10.00">QDebug</text>
</a>
</g>
</g>
<!-- Node1&#45;&gt;Node7 -->
<g id="edge9" class="edge">
<title>Node1&#45;&gt;Node7</title>
<path fill="none" stroke="midnightblue" d="M237.4,-280.37C228.73,-271.98 216.39,-258.43 210,-244 186.14,-190.15 183.36,-118.95 183.53,-85.66"/>
<polygon fill="midnightblue" stroke="midnightblue" points="187.03,-85.6 183.68,-75.55 180.03,-85.5 187.03,-85.6"/>
</g>
<!-- Node8 -->
<g id="node8" class="node">
<title>Node8</title>
<g id="a_node8"><a xlink:title=" ">
<polygon fill="none" stroke="#bfbfbf" points="218.5,-224.5 218.5,-243.5 391.5,-243.5 391.5,-224.5 218.5,-224.5"/>
<text text-anchor="middle" x="305" y="-231.5" font-family="Helvetica,sans-Serif" font-size="10.00">accelerometerdatamessage_p.h</text>
</a>
</g>
</g>
<!-- Node1&#45;&gt;Node8 -->
<g id="edge8" class="edge">
<title>Node1&#45;&gt;Node8</title>
<path fill="none" stroke="midnightblue" d="M256.32,-280.32C264.89,-272.34 277.81,-260.31 288.19,-250.65"/>
<polygon fill="midnightblue" stroke="midnightblue" points="290.58,-253.21 295.51,-243.83 285.81,-248.09 290.58,-253.21"/>
</g>
<!-- Node9 -->
<g id="node9" class="node">
<title>Node9</title>
<g id="a_node9"><a xlink:title=" ">
<polygon fill="none" stroke="#bfbfbf" points="409.5,-224.5 409.5,-243.5 470.5,-243.5 470.5,-224.5 409.5,-224.5"/>
<text text-anchor="middle" x="440" y="-231.5" font-family="Helvetica,sans-Serif" font-size="10.00">QtEndian</text>
</a>
</g>
</g>
<!-- Node1&#45;&gt;Node9 -->
<g id="edge10" class="edge">
<title>Node1&#45;&gt;Node9</title>
<path fill="none" stroke="midnightblue" d="M277.58,-280.44C310.61,-271.2 363.39,-256.44 399.77,-246.26"/>
<polygon fill="midnightblue" stroke="midnightblue" points="400.87,-249.58 409.56,-243.52 398.99,-242.84 400.87,-249.58"/>
</g>
<!-- Node3 -->
<g id="node3" class="node">
<title>Node3</title>
<g id="a_node3"><a xlink:href="fitdatamessage_8h_source.html" target="_top" xlink:title=" ">
<polygon fill="none" stroke="black" points="30.5,-168.5 30.5,-187.5 131.5,-187.5 131.5,-168.5 30.5,-168.5"/>
<text text-anchor="middle" x="81" y="-175.5" font-family="Helvetica,sans-Serif" font-size="10.00">fitdatamessage.h</text>
</a>
</g>
</g>
<!-- Node2&#45;&gt;Node3 -->
<g id="edge2" class="edge">
<title>Node2&#45;&gt;Node3</title>
<path fill="none" stroke="midnightblue" d="M81,-224.08C81,-217.01 81,-206.86 81,-197.99"/>
<polygon fill="midnightblue" stroke="midnightblue" points="84.5,-197.75 81,-187.75 77.5,-197.75 84.5,-197.75"/>
</g>
<!-- Node4 -->
<g id="node4" class="node">
<title>Node4</title>
<g id="a_node4"><a xlink:href="QtFit__global_8h_source.html" target="_top" xlink:title=" ">
<polygon fill="none" stroke="black" points="49,-56.5 49,-75.5 133,-75.5 133,-56.5 49,-56.5"/>
<text text-anchor="middle" x="91" y="-63.5" font-family="Helvetica,sans-Serif" font-size="10.00">QtFit_global.h</text>
</a>
</g>
</g>
<!-- Node3&#45;&gt;Node4 -->
<g id="edge3" class="edge">
<title>Node3&#45;&gt;Node4</title>
<path fill="none" stroke="midnightblue" d="M81.78,-168.37C83.4,-150.62 87.12,-109.67 89.31,-85.6"/>
<polygon fill="midnightblue" stroke="midnightblue" points="92.8,-85.87 90.22,-75.59 85.83,-85.23 92.8,-85.87"/>
</g>
<!-- Node6 -->
<g id="node6" class="node">
<title>Node6</title>
<g id="a_node6"><a xlink:href="types_8h.html" target="_top" xlink:title="Types defined by the ANT+ FIT SDK.">
<polygon fill="none" stroke="black" points="108.5,-112.5 108.5,-131.5 161.5,-131.5 161.5,-112.5 108.5,-112.5"/>
<text text-anchor="middle" x="135" y="-119.5" font-family="Helvetica,sans-Serif" font-size="10.00">types.h</text>
</a>
</g>
</g>
<!-- Node3&#45;&gt;Node6 -->
<g id="edge5" class="edge">
<title>Node3&#45;&gt;Node6</title>
<path fill="none" stroke="midnightblue" d="M89.92,-168.08C97.78,-160.22 109.43,-148.57 118.92,-139.08"/>
<polygon fill="midnightblue" stroke="midnightblue" points="121.65,-141.3 126.25,-131.75 116.7,-136.35 121.65,-141.3"/>
</g>
<!-- Node5 -->
<g id="node5" class="node">
<title>Node5</title>
<g id="a_node5"><a xlink:title=" ">
<polygon fill="none" stroke="#bfbfbf" points="61.5,-0.5 61.5,-19.5 120.5,-19.5 120.5,-0.5 61.5,-0.5"/>
<text text-anchor="middle" x="91" y="-7.5" font-family="Helvetica,sans-Serif" font-size="10.00">QtGlobal</text>
</a>
</g>
</g>
<!-- Node4&#45;&gt;Node5 -->
<g id="edge4" class="edge">
<title>Node4&#45;&gt;Node5</title>
<path fill="none" stroke="midnightblue" d="M91,-56.08C91,-49.01 91,-38.86 91,-29.99"/>
<polygon fill="midnightblue" stroke="midnightblue" points="94.5,-29.75 91,-19.75 87.5,-29.75 94.5,-29.75"/>
</g>
<!-- Node6&#45;&gt;Node4 -->
<g id="edge6" class="edge">
<title>Node6&#45;&gt;Node4</title>
<path fill="none" stroke="midnightblue" d="M127.73,-112.08C121.46,-104.38 112.21,-93.03 104.57,-83.65"/>
<polygon fill="midnightblue" stroke="midnightblue" points="107.16,-81.29 98.13,-75.75 101.73,-85.71 107.16,-81.29"/>
</g>
<!-- Node6&#45;&gt;Node7 -->
<g id="edge7" class="edge">
<title>Node6&#45;&gt;Node7</title>
<path fill="none" stroke="midnightblue" d="M143.09,-112.08C150.16,-104.3 160.59,-92.8 169.15,-83.37"/>
<polygon fill="midnightblue" stroke="midnightblue" points="171.93,-85.51 176.06,-75.75 166.75,-80.8 171.93,-85.51"/>
</g>
</g>
</svg>
