<?xml version="1.0" encoding="UTF-8" standalone="no"?>
<!DOCTYPE svg PUBLIC "-//W3C//DTD SVG 1.1//EN"
 "http://www.w3.org/Graphics/SVG/1.1/DTD/svg11.dtd">
<!-- Generated by graphviz version 2.43.0 (0)
 -->
<!-- Title: accelerometerdatamessage.cpp Pages: 1 -->
<svg width="362pt" height="308pt"
 viewBox="0.00 0.00 361.50 308.00" xmlns="http://www.w3.org/2000/svg" xmlns:xlink="http://www.w3.org/1999/xlink">
<g id="graph0" class="graph" transform="scale(1 1) rotate(0) translate(4 304)">
<title>accelerometerdatamessage.cpp</title>
<!-- Node1 -->
<g id="node1" class="node">
<title>Node1</title>
<g id="a_node1"><a xlink:title=" ">
<polygon fill="#bfbfbf" stroke="black" points="87.5,-280.5 87.5,-299.5 260.5,-299.5 260.5,-280.5 87.5,-280.5"/>
<text text-anchor="middle" x="174" y="-287.5" font-family="Helvetica,sans-Serif" font-size="10.00">accelerometerdatamessage.cpp</text>
</a>
</g>
</g>
<!-- Node2 -->
<g id="node2" class="node">
<title>Node2</title>
<g id="a_node2"><a xlink:href="accelerometerdatamessage_8h.html" target="_top" xlink:title=" ">
<polygon fill="none" stroke="black" points="0,-224.5 0,-243.5 162,-243.5 162,-224.5 0,-224.5"/>
<text text-anchor="middle" x="81" y="-231.5" font-family="Helvetica,sans-Serif" font-size="10.00">accelerometerdatamessage.h</text>
</a>
</g>
</g>
<!-- Node1&#45;&gt;Node2 -->
<g id="edge1" class="edge">
<title>Node1&#45;&gt;Node2</title>
<path fill="none" stroke="midnightblue" d="M159.06,-280.32C144.41,-271.82 121.87,-258.73 104.76,-248.8"/>
<polygon fill="midnightblue" stroke="midnightblue" points="106.31,-245.65 95.9,-243.65 102.8,-251.7 106.31,-245.65"/>
</g>
<!-- Node7 -->
<g id="node7" class="node">
<title>Node7</title>
<g id="a_node7"><a xlink:title=" ">
<polygon fill="none" stroke="#bfbfbf" points="180.5,-224.5 180.5,-243.5 353.5,-243.5 353.5,-224.5 180.5,-224.5"/>
<text text-anchor="middle" x="267" y="-231.5" font-family="Helvetica,sans-Serif" font-size="10.00">accelerometerdatamessage_p.h</text>
</a>
</g>
</g>
<!-- Node1&#45;&gt;Node7 -->
<g id="edge7" class="edge">
<title>Node1&#45;&gt;Node7</title>
<path fill="none" stroke="midnightblue" d="M188.94,-280.32C203.59,-271.82 226.13,-258.73 243.24,-248.8"/>
<polygon fill="midnightblue" stroke="midnightblue" points="245.2,-251.7 252.1,-243.65 241.69,-245.65 245.2,-251.7"/>
</g>
<!-- Node3 -->
<g id="node3" class="node">
<title>Node3</title>
<g id="a_node3"><a xlink:href="fitdatamessage_8h_source.html" target="_top" xlink:title=" ">
<polygon fill="none" stroke="black" points="30.5,-168.5 30.5,-187.5 131.5,-187.5 131.5,-168.5 30.5,-168.5"/>
<text text-anchor="middle" x="81" y="-175.5" font-family="Helvetica,sans-Serif" font-size="10.00">fitdatamessage.h</text>
</a>
</g>
</g>
<!-- Node2&#45;&gt;Node3 -->
<g id="edge2" class="edge">
<title>Node2&#45;&gt;Node3</title>
<path fill="none" stroke="midnightblue" d="M81,-224.08C81,-217.01 81,-206.86 81,-197.99"/>
<polygon fill="midnightblue" stroke="midnightblue" points="84.5,-197.75 81,-187.75 77.5,-197.75 84.5,-197.75"/>
</g>
<!-- Node4 -->
<g id="node4" class="node">
<title>Node4</title>
<g id="a_node4"><a xlink:href="QtFit__global_8h_source.html" target="_top" xlink:title=" ">
<polygon fill="none" stroke="black" points="39,-56.5 39,-75.5 123,-75.5 123,-56.5 39,-56.5"/>
<text text-anchor="middle" x="81" y="-63.5" font-family="Helvetica,sans-Serif" font-size="10.00">QtFit_global.h</text>
</a>
</g>
</g>
<!-- Node3&#45;&gt;Node4 -->
<g id="edge3" class="edge">
<title>Node3&#45;&gt;Node4</title>
<path fill="none" stroke="midnightblue" d="M79.26,-168.42C77.53,-159.4 74.99,-144.77 74,-132 72.8,-116.42 74.91,-98.8 77.12,-85.84"/>
<polygon fill="midnightblue" stroke="midnightblue" points="80.6,-86.29 79.01,-75.82 73.72,-84.99 80.6,-86.29"/>
</g>
<!-- Node6 -->
<g id="node6" class="node">
<title>Node6</title>
<g id="a_node6"><a xlink:href="types_8h.html" target="_top" xlink:title="Types defined by the ANT+ FIT SDK.">
<polygon fill="none" stroke="black" points="82.5,-112.5 82.5,-131.5 135.5,-131.5 135.5,-112.5 82.5,-112.5"/>
<text text-anchor="middle" x="109" y="-119.5" font-family="Helvetica,sans-Serif" font-size="10.00">types.h</text>
</a>
</g>
</g>
<!-- Node3&#45;&gt;Node6 -->
<g id="edge5" class="edge">
<title>Node3&#45;&gt;Node6</title>
<path fill="none" stroke="midnightblue" d="M85.62,-168.08C89.46,-160.69 95.02,-149.95 99.76,-140.81"/>
<polygon fill="midnightblue" stroke="midnightblue" points="102.97,-142.24 104.46,-131.75 96.75,-139.02 102.97,-142.24"/>
</g>
<!-- Node5 -->
<g id="node5" class="node">
<title>Node5</title>
<g id="a_node5"><a xlink:title=" ">
<polygon fill="none" stroke="#bfbfbf" points="51.5,-0.5 51.5,-19.5 110.5,-19.5 110.5,-0.5 51.5,-0.5"/>
<text text-anchor="middle" x="81" y="-7.5" font-family="Helvetica,sans-Serif" font-size="10.00">QtGlobal</text>
</a>
</g>
</g>
<!-- Node4&#45;&gt;Node5 -->
<g id="edge4" class="edge">
<title>Node4&#45;&gt;Node5</title>
<path fill="none" stroke="midnightblue" d="M81,-56.08C81,-49.01 81,-38.86 81,-29.99"/>
<polygon fill="midnightblue" stroke="midnightblue" points="84.5,-29.75 81,-19.75 77.5,-29.75 84.5,-29.75"/>
</g>
<!-- Node6&#45;&gt;Node4 -->
<g id="edge6" class="edge">
<title>Node6&#45;&gt;Node4</title>
<path fill="none" stroke="midnightblue" d="M104.38,-112.08C100.54,-104.69 94.98,-93.95 90.24,-84.81"/>
<polygon fill="midnightblue" stroke="midnightblue" points="93.25,-83.02 85.54,-75.75 87.03,-86.24 93.25,-83.02"/>
</g>
</g>
</svg>
