<?xml version="1.0" encoding="UTF-8" standalone="no"?>
<!DOCTYPE svg PUBLIC "-//W3C//DTD SVG 1.1//EN"
 "http://www.w3.org/Graphics/SVG/1.1/DTD/svg11.dtd">
<!-- Generated by graphviz version 2.43.0 (0)
 -->
<!-- Title: activitymessage.cpp Pages: 1 -->
<svg width="375pt" height="308pt"
 viewBox="0.00 0.00 374.50 308.00" xmlns="http://www.w3.org/2000/svg" xmlns:xlink="http://www.w3.org/1999/xlink">
<g id="graph0" class="graph" transform="scale(1 1) rotate(0) translate(4 304)">
<title>activitymessage.cpp</title>
<!-- Node1 -->
<g id="node1" class="node">
<title>Node1</title>
<g id="a_node1"><a xlink:title=" ">
<polygon fill="#bfbfbf" stroke="black" points="125,-280.5 125,-299.5 243,-299.5 243,-280.5 125,-280.5"/>
<text text-anchor="middle" x="184" y="-287.5" font-family="Helvetica,sans-Serif" font-size="10.00">activitymessage.cpp</text>
</a>
</g>
</g>
<!-- Node2 -->
<g id="node2" class="node">
<title>Node2</title>
<g id="a_node2"><a xlink:href="activitymessage_8h.html" target="_top" xlink:title=" ">
<polygon fill="none" stroke="black" points="5.5,-224.5 5.5,-243.5 112.5,-243.5 112.5,-224.5 5.5,-224.5"/>
<text text-anchor="middle" x="59" y="-231.5" font-family="Helvetica,sans-Serif" font-size="10.00">activitymessage.h</text>
</a>
</g>
</g>
<!-- Node1&#45;&gt;Node2 -->
<g id="edge1" class="edge">
<title>Node1&#45;&gt;Node2</title>
<path fill="none" stroke="midnightblue" d="M164.19,-280.44C143.71,-271.6 111.52,-257.69 88.14,-247.59"/>
<polygon fill="midnightblue" stroke="midnightblue" points="89.28,-244.27 78.71,-243.52 86.51,-250.7 89.28,-244.27"/>
</g>
<!-- Node7 -->
<g id="node7" class="node">
<title>Node7</title>
<g id="a_node7"><a xlink:title=" ">
<polygon fill="none" stroke="#bfbfbf" points="107,-56.5 107,-75.5 163,-75.5 163,-56.5 107,-56.5"/>
<text text-anchor="middle" x="135" y="-63.5" font-family="Helvetica,sans-Serif" font-size="10.00">QDebug</text>
</a>
</g>
</g>
<!-- Node1&#45;&gt;Node7 -->
<g id="edge9" class="edge">
<title>Node1&#45;&gt;Node7</title>
<path fill="none" stroke="midnightblue" d="M178.26,-280.44C172.67,-271.68 164.39,-257.47 160,-244 141.92,-188.55 136.91,-119.13 135.53,-86.13"/>
<polygon fill="midnightblue" stroke="midnightblue" points="139.01,-85.59 135.16,-75.71 132.02,-85.83 139.01,-85.59"/>
</g>
<!-- Node8 -->
<g id="node8" class="node">
<title>Node8</title>
<g id="a_node8"><a xlink:title=" ">
<polygon fill="none" stroke="#bfbfbf" points="169,-224.5 169,-243.5 287,-243.5 287,-224.5 169,-224.5"/>
<text text-anchor="middle" x="228" y="-231.5" font-family="Helvetica,sans-Serif" font-size="10.00">activitymessage_p.h</text>
</a>
</g>
</g>
<!-- Node1&#45;&gt;Node8 -->
<g id="edge8" class="edge">
<title>Node1&#45;&gt;Node8</title>
<path fill="none" stroke="midnightblue" d="M191.27,-280.08C197.54,-272.38 206.79,-261.03 214.43,-251.65"/>
<polygon fill="midnightblue" stroke="midnightblue" points="217.27,-253.71 220.87,-243.75 211.84,-249.29 217.27,-253.71"/>
</g>
<!-- Node9 -->
<g id="node9" class="node">
<title>Node9</title>
<g id="a_node9"><a xlink:title=" ">
<polygon fill="none" stroke="#bfbfbf" points="305.5,-224.5 305.5,-243.5 366.5,-243.5 366.5,-224.5 305.5,-224.5"/>
<text text-anchor="middle" x="336" y="-231.5" font-family="Helvetica,sans-Serif" font-size="10.00">QtEndian</text>
</a>
</g>
</g>
<!-- Node1&#45;&gt;Node9 -->
<g id="edge10" class="edge">
<title>Node1&#45;&gt;Node9</title>
<path fill="none" stroke="midnightblue" d="M208.08,-280.44C233.54,-271.4 273.89,-257.06 302.46,-246.92"/>
<polygon fill="midnightblue" stroke="midnightblue" points="303.78,-250.16 312.03,-243.52 301.43,-243.57 303.78,-250.16"/>
</g>
<!-- Node3 -->
<g id="node3" class="node">
<title>Node3</title>
<g id="a_node3"><a xlink:href="fitdatamessage_8h_source.html" target="_top" xlink:title=" ">
<polygon fill="none" stroke="black" points="8.5,-168.5 8.5,-187.5 109.5,-187.5 109.5,-168.5 8.5,-168.5"/>
<text text-anchor="middle" x="59" y="-175.5" font-family="Helvetica,sans-Serif" font-size="10.00">fitdatamessage.h</text>
</a>
</g>
</g>
<!-- Node2&#45;&gt;Node3 -->
<g id="edge2" class="edge">
<title>Node2&#45;&gt;Node3</title>
<path fill="none" stroke="midnightblue" d="M59,-224.08C59,-217.01 59,-206.86 59,-197.99"/>
<polygon fill="midnightblue" stroke="midnightblue" points="62.5,-197.75 59,-187.75 55.5,-197.75 62.5,-197.75"/>
</g>
<!-- Node4 -->
<g id="node4" class="node">
<title>Node4</title>
<g id="a_node4"><a xlink:href="QtFit__global_8h_source.html" target="_top" xlink:title=" ">
<polygon fill="none" stroke="black" points="0,-56.5 0,-75.5 84,-75.5 84,-56.5 0,-56.5"/>
<text text-anchor="middle" x="42" y="-63.5" font-family="Helvetica,sans-Serif" font-size="10.00">QtFit_global.h</text>
</a>
</g>
</g>
<!-- Node3&#45;&gt;Node4 -->
<g id="edge3" class="edge">
<title>Node3&#45;&gt;Node4</title>
<path fill="none" stroke="midnightblue" d="M57.08,-168.41C55.11,-159.38 52.06,-144.74 50,-132 47.51,-116.55 45.38,-98.92 43.95,-85.92"/>
<polygon fill="midnightblue" stroke="midnightblue" points="47.42,-85.43 42.88,-75.86 40.46,-86.18 47.42,-85.43"/>
</g>
<!-- Node6 -->
<g id="node6" class="node">
<title>Node6</title>
<g id="a_node6"><a xlink:href="types_8h.html" target="_top" xlink:title="Types defined by the ANT+ FIT SDK.">
<polygon fill="none" stroke="black" points="59.5,-112.5 59.5,-131.5 112.5,-131.5 112.5,-112.5 59.5,-112.5"/>
<text text-anchor="middle" x="86" y="-119.5" font-family="Helvetica,sans-Serif" font-size="10.00">types.h</text>
</a>
</g>
</g>
<!-- Node3&#45;&gt;Node6 -->
<g id="edge5" class="edge">
<title>Node3&#45;&gt;Node6</title>
<path fill="none" stroke="midnightblue" d="M63.46,-168.08C67.15,-160.69 72.52,-149.95 77.09,-140.81"/>
<polygon fill="midnightblue" stroke="midnightblue" points="80.28,-142.26 81.62,-131.75 74.02,-139.13 80.28,-142.26"/>
</g>
<!-- Node5 -->
<g id="node5" class="node">
<title>Node5</title>
<g id="a_node5"><a xlink:title=" ">
<polygon fill="none" stroke="#bfbfbf" points="12.5,-0.5 12.5,-19.5 71.5,-19.5 71.5,-0.5 12.5,-0.5"/>
<text text-anchor="middle" x="42" y="-7.5" font-family="Helvetica,sans-Serif" font-size="10.00">QtGlobal</text>
</a>
</g>
</g>
<!-- Node4&#45;&gt;Node5 -->
<g id="edge4" class="edge">
<title>Node4&#45;&gt;Node5</title>
<path fill="none" stroke="midnightblue" d="M42,-56.08C42,-49.01 42,-38.86 42,-29.99"/>
<polygon fill="midnightblue" stroke="midnightblue" points="45.5,-29.75 42,-19.75 38.5,-29.75 45.5,-29.75"/>
</g>
<!-- Node6&#45;&gt;Node4 -->
<g id="edge6" class="edge">
<title>Node6&#45;&gt;Node4</title>
<path fill="none" stroke="midnightblue" d="M78.73,-112.08C72.46,-104.38 63.21,-93.03 55.57,-83.65"/>
<polygon fill="midnightblue" stroke="midnightblue" points="58.16,-81.29 49.13,-75.75 52.73,-85.71 58.16,-81.29"/>
</g>
<!-- Node6&#45;&gt;Node7 -->
<g id="edge7" class="edge">
<title>Node6&#45;&gt;Node7</title>
<path fill="none" stroke="midnightblue" d="M94.09,-112.08C101.16,-104.3 111.59,-92.8 120.15,-83.37"/>
<polygon fill="midnightblue" stroke="midnightblue" points="122.93,-85.51 127.06,-75.75 117.75,-80.8 122.93,-85.51"/>
</g>
</g>
</svg>
