<?xml version="1.0" encoding="UTF-8" standalone="no"?>
<!DOCTYPE svg PUBLIC "-//W3C//DTD SVG 1.1//EN"
 "http://www.w3.org/Graphics/SVG/1.1/DTD/svg11.dtd">
<!-- Generated by graphviz version 2.43.0 (0)
 -->
<!-- Title: activitymessage.cpp Pages: 1 -->
<svg width="393pt" height="308pt"
 viewBox="0.00 0.00 393.00 308.00" xmlns="http://www.w3.org/2000/svg" xmlns:xlink="http://www.w3.org/1999/xlink">
<g id="graph0" class="graph" transform="scale(1 1) rotate(0) translate(4 304)">
<title>activitymessage.cpp</title>
<!-- Node1 -->
<g id="node1" class="node">
<title>Node1</title>
<g id="a_node1"><a xlink:title=" ">
<polygon fill="#bfbfbf" stroke="black" points="143.5,-280.5 143.5,-299.5 261.5,-299.5 261.5,-280.5 143.5,-280.5"/>
<text text-anchor="middle" x="202.5" y="-287.5" font-family="Helvetica,sans-Serif" font-size="10.00">activitymessage.cpp</text>
</a>
</g>
</g>
<!-- Node2 -->
<g id="node2" class="node">
<title>Node2</title>
<g id="a_node2"><a xlink:href="activitymessage_8h.html" target="_top" xlink:title=" ">
<polygon fill="none" stroke="black" points="18,-224.5 18,-243.5 125,-243.5 125,-224.5 18,-224.5"/>
<text text-anchor="middle" x="71.5" y="-231.5" font-family="Helvetica,sans-Serif" font-size="10.00">activitymessage.h</text>
</a>
</g>
</g>
<!-- Node1&#45;&gt;Node2 -->
<g id="edge1" class="edge">
<title>Node1&#45;&gt;Node2</title>
<path fill="none" stroke="midnightblue" d="M181.74,-280.44C160.18,-271.56 126.24,-257.56 101.71,-247.45"/>
<polygon fill="midnightblue" stroke="midnightblue" points="102.74,-244.09 92.16,-243.52 100.07,-250.56 102.74,-244.09"/>
</g>
<!-- Node7 -->
<g id="node7" class="node">
<title>Node7</title>
<g id="a_node7"><a xlink:title=" ">
<polygon fill="none" stroke="#bfbfbf" points="125.5,-56.5 125.5,-75.5 181.5,-75.5 181.5,-56.5 125.5,-56.5"/>
<text text-anchor="middle" x="153.5" y="-63.5" font-family="Helvetica,sans-Serif" font-size="10.00">QDebug</text>
</a>
</g>
</g>
<!-- Node1&#45;&gt;Node7 -->
<g id="edge9" class="edge">
<title>Node1&#45;&gt;Node7</title>
<path fill="none" stroke="midnightblue" d="M196.76,-280.44C191.17,-271.68 182.89,-257.47 178.5,-244 160.42,-188.55 155.41,-119.13 154.03,-86.13"/>
<polygon fill="midnightblue" stroke="midnightblue" points="157.51,-85.59 153.66,-75.71 150.52,-85.83 157.51,-85.59"/>
</g>
<!-- Node8 -->
<g id="node8" class="node">
<title>Node8</title>
<g id="a_node8"><a xlink:title=" ">
<polygon fill="none" stroke="#bfbfbf" points="187.5,-224.5 187.5,-243.5 305.5,-243.5 305.5,-224.5 187.5,-224.5"/>
<text text-anchor="middle" x="246.5" y="-231.5" font-family="Helvetica,sans-Serif" font-size="10.00">activitymessage_p.h</text>
</a>
</g>
</g>
<!-- Node1&#45;&gt;Node8 -->
<g id="edge8" class="edge">
<title>Node1&#45;&gt;Node8</title>
<path fill="none" stroke="midnightblue" d="M209.77,-280.08C216.04,-272.38 225.29,-261.03 232.93,-251.65"/>
<polygon fill="midnightblue" stroke="midnightblue" points="235.77,-253.71 239.37,-243.75 230.34,-249.29 235.77,-253.71"/>
</g>
<!-- Node9 -->
<g id="node9" class="node">
<title>Node9</title>
<g id="a_node9"><a xlink:title=" ">
<polygon fill="none" stroke="#bfbfbf" points="324,-224.5 324,-243.5 385,-243.5 385,-224.5 324,-224.5"/>
<text text-anchor="middle" x="354.5" y="-231.5" font-family="Helvetica,sans-Serif" font-size="10.00">QtEndian</text>
</a>
</g>
</g>
<!-- Node1&#45;&gt;Node9 -->
<g id="edge10" class="edge">
<title>Node1&#45;&gt;Node9</title>
<path fill="none" stroke="midnightblue" d="M226.58,-280.44C252.04,-271.4 292.39,-257.06 320.96,-246.92"/>
<polygon fill="midnightblue" stroke="midnightblue" points="322.28,-250.16 330.53,-243.52 319.93,-243.57 322.28,-250.16"/>
</g>
<!-- Node3 -->
<g id="node3" class="node">
<title>Node3</title>
<g id="a_node3"><a xlink:href="abstractdatamessage_8h_source.html" target="_top" xlink:title=" ">
<polygon fill="none" stroke="black" points="0,-168.5 0,-187.5 131,-187.5 131,-168.5 0,-168.5"/>
<text text-anchor="middle" x="65.5" y="-175.5" font-family="Helvetica,sans-Serif" font-size="10.00">abstractdatamessage.h</text>
</a>
</g>
</g>
<!-- Node2&#45;&gt;Node3 -->
<g id="edge2" class="edge">
<title>Node2&#45;&gt;Node3</title>
<path fill="none" stroke="midnightblue" d="M70.51,-224.08C69.71,-216.93 68.57,-206.64 67.58,-197.69"/>
<polygon fill="midnightblue" stroke="midnightblue" points="71.06,-197.3 66.47,-187.75 64.1,-198.08 71.06,-197.3"/>
</g>
<!-- Node4 -->
<g id="node4" class="node">
<title>Node4</title>
<g id="a_node4"><a xlink:href="QtFit__global_8h_source.html" target="_top" xlink:title=" ">
<polygon fill="none" stroke="black" points="18.5,-56.5 18.5,-75.5 102.5,-75.5 102.5,-56.5 18.5,-56.5"/>
<text text-anchor="middle" x="60.5" y="-63.5" font-family="Helvetica,sans-Serif" font-size="10.00">QtFit_global.h</text>
</a>
</g>
</g>
<!-- Node3&#45;&gt;Node4 -->
<g id="edge3" class="edge">
<title>Node3&#45;&gt;Node4</title>
<path fill="none" stroke="midnightblue" d="M65.11,-168.37C64.3,-150.62 62.44,-109.67 61.35,-85.6"/>
<polygon fill="midnightblue" stroke="midnightblue" points="64.84,-85.42 60.89,-75.59 57.85,-85.74 64.84,-85.42"/>
</g>
<!-- Node6 -->
<g id="node6" class="node">
<title>Node6</title>
<g id="a_node6"><a xlink:href="types_8h.html" target="_top" xlink:title="Types defined by the ANT+ FIT SDK.">
<polygon fill="none" stroke="black" points="78,-112.5 78,-131.5 131,-131.5 131,-112.5 78,-112.5"/>
<text text-anchor="middle" x="104.5" y="-119.5" font-family="Helvetica,sans-Serif" font-size="10.00">types.h</text>
</a>
</g>
</g>
<!-- Node3&#45;&gt;Node6 -->
<g id="edge5" class="edge">
<title>Node3&#45;&gt;Node6</title>
<path fill="none" stroke="midnightblue" d="M71.94,-168.08C77.45,-160.46 85.53,-149.26 92.26,-139.94"/>
<polygon fill="midnightblue" stroke="midnightblue" points="95.16,-141.91 98.18,-131.75 89.49,-137.81 95.16,-141.91"/>
</g>
<!-- Node5 -->
<g id="node5" class="node">
<title>Node5</title>
<g id="a_node5"><a xlink:title=" ">
<polygon fill="none" stroke="#bfbfbf" points="31,-0.5 31,-19.5 90,-19.5 90,-0.5 31,-0.5"/>
<text text-anchor="middle" x="60.5" y="-7.5" font-family="Helvetica,sans-Serif" font-size="10.00">QtGlobal</text>
</a>
</g>
</g>
<!-- Node4&#45;&gt;Node5 -->
<g id="edge4" class="edge">
<title>Node4&#45;&gt;Node5</title>
<path fill="none" stroke="midnightblue" d="M60.5,-56.08C60.5,-49.01 60.5,-38.86 60.5,-29.99"/>
<polygon fill="midnightblue" stroke="midnightblue" points="64,-29.75 60.5,-19.75 57,-29.75 64,-29.75"/>
</g>
<!-- Node6&#45;&gt;Node4 -->
<g id="edge6" class="edge">
<title>Node6&#45;&gt;Node4</title>
<path fill="none" stroke="midnightblue" d="M97.23,-112.08C90.96,-104.38 81.71,-93.03 74.07,-83.65"/>
<polygon fill="midnightblue" stroke="midnightblue" points="76.66,-81.29 67.63,-75.75 71.23,-85.71 76.66,-81.29"/>
</g>
<!-- Node6&#45;&gt;Node7 -->
<g id="edge7" class="edge">
<title>Node6&#45;&gt;Node7</title>
<path fill="none" stroke="midnightblue" d="M112.59,-112.08C119.66,-104.3 130.09,-92.8 138.65,-83.37"/>
<polygon fill="midnightblue" stroke="midnightblue" points="141.43,-85.51 145.56,-75.75 136.25,-80.8 141.43,-85.51"/>
</g>
</g>
</svg>
