<?xml version="1.0" encoding="UTF-8" standalone="no"?>
<!DOCTYPE svg PUBLIC "-//W3C//DTD SVG 1.1//EN"
 "http://www.w3.org/Graphics/SVG/1.1/DTD/svg11.dtd">
<!-- Generated by graphviz version 2.43.0 (0)
 -->
<!-- Title: antchannelidmessage.cpp Pages: 1 -->
<svg width="457pt" height="308pt"
 viewBox="0.00 0.00 457.00 308.00" xmlns="http://www.w3.org/2000/svg" xmlns:xlink="http://www.w3.org/1999/xlink">
<g id="graph0" class="graph" transform="scale(1 1) rotate(0) translate(4 304)">
<title>antchannelidmessage.cpp</title>
<!-- Node1 -->
<g id="node1" class="node">
<title>Node1</title>
<g id="a_node1"><a xlink:title=" ">
<polygon fill="#bfbfbf" stroke="black" points="210.5,-280.5 210.5,-299.5 354.5,-299.5 354.5,-280.5 210.5,-280.5"/>
<text text-anchor="middle" x="282.5" y="-287.5" font-family="Helvetica,sans-Serif" font-size="10.00">antchannelidmessage.cpp</text>
</a>
</g>
</g>
<!-- Node2 -->
<g id="node2" class="node">
<title>Node2</title>
<g id="a_node2"><a xlink:href="antchannelidmessage_8h.html" target="_top" xlink:title=" ">
<polygon fill="none" stroke="black" points="0,-224.5 0,-243.5 133,-243.5 133,-224.5 0,-224.5"/>
<text text-anchor="middle" x="66.5" y="-231.5" font-family="Helvetica,sans-Serif" font-size="10.00">antchannelidmessage.h</text>
</a>
</g>
</g>
<!-- Node1&#45;&gt;Node2 -->
<g id="edge1" class="edge">
<title>Node1&#45;&gt;Node2</title>
<path fill="none" stroke="midnightblue" d="M248.27,-280.44C210.99,-271.12 151.23,-256.18 110.49,-246"/>
<polygon fill="midnightblue" stroke="midnightblue" points="111.12,-242.55 100.57,-243.52 109.42,-249.34 111.12,-242.55"/>
</g>
<!-- Node7 -->
<g id="node7" class="node">
<title>Node7</title>
<g id="a_node7"><a xlink:title=" ">
<polygon fill="none" stroke="#bfbfbf" points="151.5,-224.5 151.5,-243.5 295.5,-243.5 295.5,-224.5 151.5,-224.5"/>
<text text-anchor="middle" x="223.5" y="-231.5" font-family="Helvetica,sans-Serif" font-size="10.00">antchannelidmessage_p.h</text>
</a>
</g>
</g>
<!-- Node1&#45;&gt;Node7 -->
<g id="edge7" class="edge">
<title>Node1&#45;&gt;Node7</title>
<path fill="none" stroke="midnightblue" d="M273.02,-280.32C264.3,-272.34 251.16,-260.31 240.6,-250.65"/>
<polygon fill="midnightblue" stroke="midnightblue" points="242.89,-248 233.15,-243.83 238.17,-253.17 242.89,-248"/>
</g>
<!-- Node8 -->
<g id="node8" class="node">
<title>Node8</title>
<g id="a_node8"><a xlink:title=" ">
<polygon fill="none" stroke="#bfbfbf" points="313.5,-224.5 313.5,-243.5 369.5,-243.5 369.5,-224.5 313.5,-224.5"/>
<text text-anchor="middle" x="341.5" y="-231.5" font-family="Helvetica,sans-Serif" font-size="10.00">QDebug</text>
</a>
</g>
</g>
<!-- Node1&#45;&gt;Node8 -->
<g id="edge8" class="edge">
<title>Node1&#45;&gt;Node8</title>
<path fill="none" stroke="midnightblue" d="M291.98,-280.32C300.7,-272.34 313.84,-260.31 324.4,-250.65"/>
<polygon fill="midnightblue" stroke="midnightblue" points="326.83,-253.17 331.85,-243.83 322.11,-248 326.83,-253.17"/>
</g>
<!-- Node9 -->
<g id="node9" class="node">
<title>Node9</title>
<g id="a_node9"><a xlink:title=" ">
<polygon fill="none" stroke="#bfbfbf" points="388,-224.5 388,-243.5 449,-243.5 449,-224.5 388,-224.5"/>
<text text-anchor="middle" x="418.5" y="-231.5" font-family="Helvetica,sans-Serif" font-size="10.00">QtEndian</text>
</a>
</g>
</g>
<!-- Node1&#45;&gt;Node9 -->
<g id="edge9" class="edge">
<title>Node1&#45;&gt;Node9</title>
<path fill="none" stroke="midnightblue" d="M304.05,-280.44C326.53,-271.52 361.99,-257.44 387.48,-247.32"/>
<polygon fill="midnightblue" stroke="midnightblue" points="389.05,-250.46 397.05,-243.52 386.47,-243.95 389.05,-250.46"/>
</g>
<!-- Node3 -->
<g id="node3" class="node">
<title>Node3</title>
<g id="a_node3"><a xlink:href="fitdatamessage_8h_source.html" target="_top" xlink:title=" ">
<polygon fill="none" stroke="black" points="16,-168.5 16,-187.5 117,-187.5 117,-168.5 16,-168.5"/>
<text text-anchor="middle" x="66.5" y="-175.5" font-family="Helvetica,sans-Serif" font-size="10.00">fitdatamessage.h</text>
</a>
</g>
</g>
<!-- Node2&#45;&gt;Node3 -->
<g id="edge2" class="edge">
<title>Node2&#45;&gt;Node3</title>
<path fill="none" stroke="midnightblue" d="M66.5,-224.08C66.5,-217.01 66.5,-206.86 66.5,-197.99"/>
<polygon fill="midnightblue" stroke="midnightblue" points="70,-197.75 66.5,-187.75 63,-197.75 70,-197.75"/>
</g>
<!-- Node4 -->
<g id="node4" class="node">
<title>Node4</title>
<g id="a_node4"><a xlink:href="QtFit__global_8h_source.html" target="_top" xlink:title=" ">
<polygon fill="none" stroke="black" points="24.5,-56.5 24.5,-75.5 108.5,-75.5 108.5,-56.5 24.5,-56.5"/>
<text text-anchor="middle" x="66.5" y="-63.5" font-family="Helvetica,sans-Serif" font-size="10.00">QtFit_global.h</text>
</a>
</g>
</g>
<!-- Node3&#45;&gt;Node4 -->
<g id="edge3" class="edge">
<title>Node3&#45;&gt;Node4</title>
<path fill="none" stroke="midnightblue" d="M64.76,-168.42C63.03,-159.4 60.49,-144.77 59.5,-132 58.3,-116.42 60.41,-98.8 62.62,-85.84"/>
<polygon fill="midnightblue" stroke="midnightblue" points="66.1,-86.29 64.51,-75.82 59.22,-84.99 66.1,-86.29"/>
</g>
<!-- Node6 -->
<g id="node6" class="node">
<title>Node6</title>
<g id="a_node6"><a xlink:href="types_8h.html" target="_top" xlink:title="Types defined by the ANT+ FIT SDK.">
<polygon fill="none" stroke="black" points="68,-112.5 68,-131.5 121,-131.5 121,-112.5 68,-112.5"/>
<text text-anchor="middle" x="94.5" y="-119.5" font-family="Helvetica,sans-Serif" font-size="10.00">types.h</text>
</a>
</g>
</g>
<!-- Node3&#45;&gt;Node6 -->
<g id="edge5" class="edge">
<title>Node3&#45;&gt;Node6</title>
<path fill="none" stroke="midnightblue" d="M71.12,-168.08C74.96,-160.69 80.52,-149.95 85.26,-140.81"/>
<polygon fill="midnightblue" stroke="midnightblue" points="88.47,-142.24 89.96,-131.75 82.25,-139.02 88.47,-142.24"/>
</g>
<!-- Node5 -->
<g id="node5" class="node">
<title>Node5</title>
<g id="a_node5"><a xlink:title=" ">
<polygon fill="none" stroke="#bfbfbf" points="37,-0.5 37,-19.5 96,-19.5 96,-0.5 37,-0.5"/>
<text text-anchor="middle" x="66.5" y="-7.5" font-family="Helvetica,sans-Serif" font-size="10.00">QtGlobal</text>
</a>
</g>
</g>
<!-- Node4&#45;&gt;Node5 -->
<g id="edge4" class="edge">
<title>Node4&#45;&gt;Node5</title>
<path fill="none" stroke="midnightblue" d="M66.5,-56.08C66.5,-49.01 66.5,-38.86 66.5,-29.99"/>
<polygon fill="midnightblue" stroke="midnightblue" points="70,-29.75 66.5,-19.75 63,-29.75 70,-29.75"/>
</g>
<!-- Node6&#45;&gt;Node4 -->
<g id="edge6" class="edge">
<title>Node6&#45;&gt;Node4</title>
<path fill="none" stroke="midnightblue" d="M89.88,-112.08C86.04,-104.69 80.48,-93.95 75.74,-84.81"/>
<polygon fill="midnightblue" stroke="midnightblue" points="78.75,-83.02 71.04,-75.75 72.53,-86.24 78.75,-83.02"/>
</g>
</g>
</svg>
