<?xml version="1.0" encoding="UTF-8" standalone="no"?>
<!DOCTYPE svg PUBLIC "-//W3C//DTD SVG 1.1//EN"
 "http://www.w3.org/Graphics/SVG/1.1/DTD/svg11.dtd">
<!-- Generated by graphviz version 2.43.0 (0)
 -->
<!-- Title: antchannelidmessage.cpp Pages: 1 -->
<svg width="421pt" height="308pt"
 viewBox="0.00 0.00 421.00 308.00" xmlns="http://www.w3.org/2000/svg" xmlns:xlink="http://www.w3.org/1999/xlink">
<g id="graph0" class="graph" transform="scale(1 1) rotate(0) translate(4 304)">
<title>antchannelidmessage.cpp</title>
<!-- Node1 -->
<g id="node1" class="node">
<title>Node1</title>
<g id="a_node1"><a xlink:title="Defines the AntChannelIdMessage, and AntChannelIdMessagePrivate classes.">
<polygon fill="#bfbfbf" stroke="black" points="139.5,-280.5 139.5,-299.5 283.5,-299.5 283.5,-280.5 139.5,-280.5"/>
<text text-anchor="middle" x="211.5" y="-287.5" font-family="Helvetica,sans-Serif" font-size="10.00">antchannelidmessage.cpp</text>
</a>
</g>
</g>
<!-- Node2 -->
<g id="node2" class="node">
<title>Node2</title>
<g id="a_node2"><a xlink:href="antchannelidmessage_8h.html" target="_top" xlink:title="Declares the AntChannelIdMessage class.">
<polygon fill="none" stroke="black" points="0,-224.5 0,-243.5 133,-243.5 133,-224.5 0,-224.5"/>
<text text-anchor="middle" x="66.5" y="-231.5" font-family="Helvetica,sans-Serif" font-size="10.00">antchannelidmessage.h</text>
</a>
</g>
</g>
<!-- Node1&#45;&gt;Node2 -->
<g id="edge1" class="edge">
<title>Node1&#45;&gt;Node2</title>
<path fill="none" stroke="midnightblue" d="M188.52,-280.44C164.34,-271.44 126.08,-257.19 98.85,-247.05"/>
<polygon fill="midnightblue" stroke="midnightblue" points="99.96,-243.73 89.37,-243.52 97.52,-250.29 99.96,-243.73"/>
</g>
<!-- Node7 -->
<g id="node7" class="node">
<title>Node7</title>
<g id="a_node7"><a xlink:title=" ">
<polygon fill="none" stroke="#bfbfbf" points="127.5,-56.5 127.5,-75.5 183.5,-75.5 183.5,-56.5 127.5,-56.5"/>
<text text-anchor="middle" x="155.5" y="-63.5" font-family="Helvetica,sans-Serif" font-size="10.00">QDebug</text>
</a>
</g>
</g>
<!-- Node1&#45;&gt;Node7 -->
<g id="edge9" class="edge">
<title>Node1&#45;&gt;Node7</title>
<path fill="none" stroke="midnightblue" d="M203.74,-280.4C196.48,-271.83 185.95,-257.97 180.5,-244 159.22,-189.43 155.73,-119.11 155.36,-85.93"/>
<polygon fill="midnightblue" stroke="midnightblue" points="158.86,-85.82 155.34,-75.83 151.86,-85.84 158.86,-85.82"/>
</g>
<!-- Node8 -->
<g id="node8" class="node">
<title>Node8</title>
<g id="a_node8"><a xlink:title=" ">
<polygon fill="none" stroke="#bfbfbf" points="189.5,-224.5 189.5,-243.5 333.5,-243.5 333.5,-224.5 189.5,-224.5"/>
<text text-anchor="middle" x="261.5" y="-231.5" font-family="Helvetica,sans-Serif" font-size="10.00">antchannelidmessage_p.h</text>
</a>
</g>
</g>
<!-- Node1&#45;&gt;Node8 -->
<g id="edge8" class="edge">
<title>Node1&#45;&gt;Node8</title>
<path fill="none" stroke="midnightblue" d="M219.76,-280.08C226.96,-272.3 237.61,-260.8 246.35,-251.37"/>
<polygon fill="midnightblue" stroke="midnightblue" points="249.17,-253.47 253.4,-243.75 244.03,-248.71 249.17,-253.47"/>
</g>
<!-- Node9 -->
<g id="node9" class="node">
<title>Node9</title>
<g id="a_node9"><a xlink:title=" ">
<polygon fill="none" stroke="#bfbfbf" points="352,-224.5 352,-243.5 413,-243.5 413,-224.5 352,-224.5"/>
<text text-anchor="middle" x="382.5" y="-231.5" font-family="Helvetica,sans-Serif" font-size="10.00">QtEndian</text>
</a>
</g>
</g>
<!-- Node1&#45;&gt;Node9 -->
<g id="edge10" class="edge">
<title>Node1&#45;&gt;Node9</title>
<path fill="none" stroke="midnightblue" d="M238.6,-280.44C267.49,-271.32 313.42,-256.81 345.61,-246.65"/>
<polygon fill="midnightblue" stroke="midnightblue" points="347.05,-249.87 355.53,-243.52 344.94,-243.19 347.05,-249.87"/>
</g>
<!-- Node3 -->
<g id="node3" class="node">
<title>Node3</title>
<g id="a_node3"><a xlink:href="abstractdatamessage_8h.html" target="_top" xlink:title="Declares the AbstractDataMessage class.">
<polygon fill="none" stroke="black" points="1,-168.5 1,-187.5 132,-187.5 132,-168.5 1,-168.5"/>
<text text-anchor="middle" x="66.5" y="-175.5" font-family="Helvetica,sans-Serif" font-size="10.00">abstractdatamessage.h</text>
</a>
</g>
</g>
<!-- Node2&#45;&gt;Node3 -->
<g id="edge2" class="edge">
<title>Node2&#45;&gt;Node3</title>
<path fill="none" stroke="midnightblue" d="M66.5,-224.08C66.5,-217.01 66.5,-206.86 66.5,-197.99"/>
<polygon fill="midnightblue" stroke="midnightblue" points="70,-197.75 66.5,-187.75 63,-197.75 70,-197.75"/>
</g>
<!-- Node4 -->
<g id="node4" class="node">
<title>Node4</title>
<g id="a_node4"><a xlink:href="QtFit__global_8h.html" target="_top" xlink:title="Global QtFit library macros.">
<polygon fill="none" stroke="black" points="20.5,-56.5 20.5,-75.5 104.5,-75.5 104.5,-56.5 20.5,-56.5"/>
<text text-anchor="middle" x="62.5" y="-63.5" font-family="Helvetica,sans-Serif" font-size="10.00">QtFit_global.h</text>
</a>
</g>
</g>
<!-- Node3&#45;&gt;Node4 -->
<g id="edge3" class="edge">
<title>Node3&#45;&gt;Node4</title>
<path fill="none" stroke="midnightblue" d="M66.19,-168.37C65.54,-150.62 64.05,-109.67 63.18,-85.6"/>
<polygon fill="midnightblue" stroke="midnightblue" points="66.67,-85.46 62.81,-75.59 59.68,-85.71 66.67,-85.46"/>
</g>
<!-- Node6 -->
<g id="node6" class="node">
<title>Node6</title>
<g id="a_node6"><a xlink:href="types_8h.html" target="_top" xlink:title="Types defined by the ANT+ FIT SDK.">
<polygon fill="none" stroke="black" points="80,-112.5 80,-131.5 133,-131.5 133,-112.5 80,-112.5"/>
<text text-anchor="middle" x="106.5" y="-119.5" font-family="Helvetica,sans-Serif" font-size="10.00">types.h</text>
</a>
</g>
</g>
<!-- Node3&#45;&gt;Node6 -->
<g id="edge5" class="edge">
<title>Node3&#45;&gt;Node6</title>
<path fill="none" stroke="midnightblue" d="M73.11,-168.08C78.76,-160.46 87.04,-149.26 93.95,-139.94"/>
<polygon fill="midnightblue" stroke="midnightblue" points="96.88,-141.87 100.02,-131.75 91.25,-137.7 96.88,-141.87"/>
</g>
<!-- Node5 -->
<g id="node5" class="node">
<title>Node5</title>
<g id="a_node5"><a xlink:title=" ">
<polygon fill="none" stroke="#bfbfbf" points="33,-0.5 33,-19.5 92,-19.5 92,-0.5 33,-0.5"/>
<text text-anchor="middle" x="62.5" y="-7.5" font-family="Helvetica,sans-Serif" font-size="10.00">QtGlobal</text>
</a>
</g>
</g>
<!-- Node4&#45;&gt;Node5 -->
<g id="edge4" class="edge">
<title>Node4&#45;&gt;Node5</title>
<path fill="none" stroke="midnightblue" d="M62.5,-56.08C62.5,-49.01 62.5,-38.86 62.5,-29.99"/>
<polygon fill="midnightblue" stroke="midnightblue" points="66,-29.75 62.5,-19.75 59,-29.75 66,-29.75"/>
</g>
<!-- Node6&#45;&gt;Node4 -->
<g id="edge6" class="edge">
<title>Node6&#45;&gt;Node4</title>
<path fill="none" stroke="midnightblue" d="M99.23,-112.08C92.96,-104.38 83.71,-93.03 76.07,-83.65"/>
<polygon fill="midnightblue" stroke="midnightblue" points="78.66,-81.29 69.63,-75.75 73.23,-85.71 78.66,-81.29"/>
</g>
<!-- Node6&#45;&gt;Node7 -->
<g id="edge7" class="edge">
<title>Node6&#45;&gt;Node7</title>
<path fill="none" stroke="midnightblue" d="M114.59,-112.08C121.66,-104.3 132.09,-92.8 140.65,-83.37"/>
<polygon fill="midnightblue" stroke="midnightblue" points="143.43,-85.51 147.56,-75.75 138.25,-80.8 143.43,-85.51"/>
</g>
</g>
</svg>
