<?xml version="1.0" encoding="UTF-8" standalone="no"?>
<!DOCTYPE svg PUBLIC "-//W3C//DTD SVG 1.1//EN"
 "http://www.w3.org/Graphics/SVG/1.1/DTD/svg11.dtd">
<!-- Generated by graphviz version 2.43.0 (0)
 -->
<!-- Title: aviationattitudemessage.cpp Pages: 1 -->
<svg width="487pt" height="308pt"
 viewBox="0.00 0.00 486.50 308.00" xmlns="http://www.w3.org/2000/svg" xmlns:xlink="http://www.w3.org/1999/xlink">
<g id="graph0" class="graph" transform="scale(1 1) rotate(0) translate(4 304)">
<title>aviationattitudemessage.cpp</title>
<!-- Node1 -->
<g id="node1" class="node">
<title>Node1</title>
<g id="a_node1"><a xlink:title=" ">
<polygon fill="#bfbfbf" stroke="black" points="228.5,-280.5 228.5,-299.5 387.5,-299.5 387.5,-280.5 228.5,-280.5"/>
<text text-anchor="middle" x="308" y="-287.5" font-family="Helvetica,sans-Serif" font-size="10.00">aviationattitudemessage.cpp</text>
</a>
</g>
</g>
<!-- Node2 -->
<g id="node2" class="node">
<title>Node2</title>
<g id="a_node2"><a xlink:href="aviationattitudemessage_8h.html" target="_top" xlink:title=" ">
<polygon fill="none" stroke="black" points="0,-224.5 0,-243.5 148,-243.5 148,-224.5 0,-224.5"/>
<text text-anchor="middle" x="74" y="-231.5" font-family="Helvetica,sans-Serif" font-size="10.00">aviationattitudemessage.h</text>
</a>
</g>
</g>
<!-- Node1&#45;&gt;Node2 -->
<g id="edge1" class="edge">
<title>Node1&#45;&gt;Node2</title>
<path fill="none" stroke="midnightblue" d="M270.92,-280.44C230.27,-271.06 164.97,-255.99 120.82,-245.8"/>
<polygon fill="midnightblue" stroke="midnightblue" points="121.44,-242.35 110.9,-243.52 119.86,-249.18 121.44,-242.35"/>
</g>
<!-- Node7 -->
<g id="node7" class="node">
<title>Node7</title>
<g id="a_node7"><a xlink:title=" ">
<polygon fill="none" stroke="#bfbfbf" points="166.5,-224.5 166.5,-243.5 325.5,-243.5 325.5,-224.5 166.5,-224.5"/>
<text text-anchor="middle" x="246" y="-231.5" font-family="Helvetica,sans-Serif" font-size="10.00">aviationattitudemessage_p.h</text>
</a>
</g>
</g>
<!-- Node1&#45;&gt;Node7 -->
<g id="edge7" class="edge">
<title>Node1&#45;&gt;Node7</title>
<path fill="none" stroke="midnightblue" d="M298.04,-280.32C288.87,-272.34 275.06,-260.31 263.97,-250.65"/>
<polygon fill="midnightblue" stroke="midnightblue" points="265.98,-247.76 256.14,-243.83 261.38,-253.04 265.98,-247.76"/>
</g>
<!-- Node8 -->
<g id="node8" class="node">
<title>Node8</title>
<g id="a_node8"><a xlink:title=" ">
<polygon fill="none" stroke="#bfbfbf" points="343,-224.5 343,-243.5 399,-243.5 399,-224.5 343,-224.5"/>
<text text-anchor="middle" x="371" y="-231.5" font-family="Helvetica,sans-Serif" font-size="10.00">QDebug</text>
</a>
</g>
</g>
<!-- Node1&#45;&gt;Node8 -->
<g id="edge8" class="edge">
<title>Node1&#45;&gt;Node8</title>
<path fill="none" stroke="midnightblue" d="M318.12,-280.32C327.53,-272.26 341.74,-260.08 353.07,-250.37"/>
<polygon fill="midnightblue" stroke="midnightblue" points="355.38,-253 360.69,-243.83 350.82,-247.68 355.38,-253"/>
</g>
<!-- Node9 -->
<g id="node9" class="node">
<title>Node9</title>
<g id="a_node9"><a xlink:title=" ">
<polygon fill="none" stroke="#bfbfbf" points="417.5,-224.5 417.5,-243.5 478.5,-243.5 478.5,-224.5 417.5,-224.5"/>
<text text-anchor="middle" x="448" y="-231.5" font-family="Helvetica,sans-Serif" font-size="10.00">QtEndian</text>
</a>
</g>
</g>
<!-- Node1&#45;&gt;Node9 -->
<g id="edge9" class="edge">
<title>Node1&#45;&gt;Node9</title>
<path fill="none" stroke="midnightblue" d="M330.18,-280.44C353.43,-271.48 390.15,-257.31 416.42,-247.18"/>
<polygon fill="midnightblue" stroke="midnightblue" points="417.85,-250.38 425.92,-243.52 415.33,-243.85 417.85,-250.38"/>
</g>
<!-- Node3 -->
<g id="node3" class="node">
<title>Node3</title>
<g id="a_node3"><a xlink:href="fitdatamessage_8h_source.html" target="_top" xlink:title=" ">
<polygon fill="none" stroke="black" points="23.5,-168.5 23.5,-187.5 124.5,-187.5 124.5,-168.5 23.5,-168.5"/>
<text text-anchor="middle" x="74" y="-175.5" font-family="Helvetica,sans-Serif" font-size="10.00">fitdatamessage.h</text>
</a>
</g>
</g>
<!-- Node2&#45;&gt;Node3 -->
<g id="edge2" class="edge">
<title>Node2&#45;&gt;Node3</title>
<path fill="none" stroke="midnightblue" d="M74,-224.08C74,-217.01 74,-206.86 74,-197.99"/>
<polygon fill="midnightblue" stroke="midnightblue" points="77.5,-197.75 74,-187.75 70.5,-197.75 77.5,-197.75"/>
</g>
<!-- Node4 -->
<g id="node4" class="node">
<title>Node4</title>
<g id="a_node4"><a xlink:href="QtFit__global_8h_source.html" target="_top" xlink:title=" ">
<polygon fill="none" stroke="black" points="32,-56.5 32,-75.5 116,-75.5 116,-56.5 32,-56.5"/>
<text text-anchor="middle" x="74" y="-63.5" font-family="Helvetica,sans-Serif" font-size="10.00">QtFit_global.h</text>
</a>
</g>
</g>
<!-- Node3&#45;&gt;Node4 -->
<g id="edge3" class="edge">
<title>Node3&#45;&gt;Node4</title>
<path fill="none" stroke="midnightblue" d="M72.26,-168.42C70.53,-159.4 67.99,-144.77 67,-132 65.8,-116.42 67.91,-98.8 70.12,-85.84"/>
<polygon fill="midnightblue" stroke="midnightblue" points="73.6,-86.29 72.01,-75.82 66.72,-84.99 73.6,-86.29"/>
</g>
<!-- Node6 -->
<g id="node6" class="node">
<title>Node6</title>
<g id="a_node6"><a xlink:href="types_8h.html" target="_top" xlink:title="Types defined by the ANT+ FIT SDK.">
<polygon fill="none" stroke="black" points="75.5,-112.5 75.5,-131.5 128.5,-131.5 128.5,-112.5 75.5,-112.5"/>
<text text-anchor="middle" x="102" y="-119.5" font-family="Helvetica,sans-Serif" font-size="10.00">types.h</text>
</a>
</g>
</g>
<!-- Node3&#45;&gt;Node6 -->
<g id="edge5" class="edge">
<title>Node3&#45;&gt;Node6</title>
<path fill="none" stroke="midnightblue" d="M78.62,-168.08C82.46,-160.69 88.02,-149.95 92.76,-140.81"/>
<polygon fill="midnightblue" stroke="midnightblue" points="95.97,-142.24 97.46,-131.75 89.75,-139.02 95.97,-142.24"/>
</g>
<!-- Node5 -->
<g id="node5" class="node">
<title>Node5</title>
<g id="a_node5"><a xlink:title=" ">
<polygon fill="none" stroke="#bfbfbf" points="44.5,-0.5 44.5,-19.5 103.5,-19.5 103.5,-0.5 44.5,-0.5"/>
<text text-anchor="middle" x="74" y="-7.5" font-family="Helvetica,sans-Serif" font-size="10.00">QtGlobal</text>
</a>
</g>
</g>
<!-- Node4&#45;&gt;Node5 -->
<g id="edge4" class="edge">
<title>Node4&#45;&gt;Node5</title>
<path fill="none" stroke="midnightblue" d="M74,-56.08C74,-49.01 74,-38.86 74,-29.99"/>
<polygon fill="midnightblue" stroke="midnightblue" points="77.5,-29.75 74,-19.75 70.5,-29.75 77.5,-29.75"/>
</g>
<!-- Node6&#45;&gt;Node4 -->
<g id="edge6" class="edge">
<title>Node6&#45;&gt;Node4</title>
<path fill="none" stroke="midnightblue" d="M97.38,-112.08C93.54,-104.69 87.98,-93.95 83.24,-84.81"/>
<polygon fill="midnightblue" stroke="midnightblue" points="86.25,-83.02 78.54,-75.75 80.03,-86.24 86.25,-83.02"/>
</g>
</g>
</svg>
