<?xml version="1.0" encoding="UTF-8" standalone="no"?>
<!DOCTYPE svg PUBLIC "-//W3C//DTD SVG 1.1//EN"
 "http://www.w3.org/Graphics/SVG/1.1/DTD/svg11.dtd">
<!-- Generated by graphviz version 2.43.0 (0)
 -->
<!-- Title: aviationattitudemessage.cpp Pages: 1 -->
<svg width="450pt" height="308pt"
 viewBox="0.00 0.00 449.50 308.00" xmlns="http://www.w3.org/2000/svg" xmlns:xlink="http://www.w3.org/1999/xlink">
<g id="graph0" class="graph" transform="scale(1 1) rotate(0) translate(4 304)">
<title>aviationattitudemessage.cpp</title>
<!-- Node1 -->
<g id="node1" class="node">
<title>Node1</title>
<g id="a_node1"><a xlink:title=" ">
<polygon fill="#bfbfbf" stroke="black" points="149.5,-280.5 149.5,-299.5 308.5,-299.5 308.5,-280.5 149.5,-280.5"/>
<text text-anchor="middle" x="229" y="-287.5" font-family="Helvetica,sans-Serif" font-size="10.00">aviationattitudemessage.cpp</text>
</a>
</g>
</g>
<!-- Node2 -->
<g id="node2" class="node">
<title>Node2</title>
<g id="a_node2"><a xlink:href="aviationattitudemessage_8h.html" target="_top" xlink:title=" ">
<polygon fill="none" stroke="black" points="0,-224.5 0,-243.5 148,-243.5 148,-224.5 0,-224.5"/>
<text text-anchor="middle" x="74" y="-231.5" font-family="Helvetica,sans-Serif" font-size="10.00">aviationattitudemessage.h</text>
</a>
</g>
</g>
<!-- Node1&#45;&gt;Node2 -->
<g id="edge1" class="edge">
<title>Node1&#45;&gt;Node2</title>
<path fill="none" stroke="midnightblue" d="M204.44,-280.44C178.48,-271.4 137.33,-257.06 108.2,-246.92"/>
<polygon fill="midnightblue" stroke="midnightblue" points="109.04,-243.5 98.45,-243.52 106.74,-250.11 109.04,-243.5"/>
</g>
<!-- Node7 -->
<g id="node7" class="node">
<title>Node7</title>
<g id="a_node7"><a xlink:title=" ">
<polygon fill="none" stroke="#bfbfbf" points="142,-56.5 142,-75.5 198,-75.5 198,-56.5 142,-56.5"/>
<text text-anchor="middle" x="170" y="-63.5" font-family="Helvetica,sans-Serif" font-size="10.00">QDebug</text>
</a>
</g>
</g>
<!-- Node1&#45;&gt;Node7 -->
<g id="edge9" class="edge">
<title>Node1&#45;&gt;Node7</title>
<path fill="none" stroke="midnightblue" d="M220.17,-280.22C212.2,-271.73 200.86,-258.11 195,-244 172.42,-189.65 169.58,-118.69 169.62,-85.56"/>
<polygon fill="midnightblue" stroke="midnightblue" points="173.12,-85.54 169.73,-75.5 166.12,-85.47 173.12,-85.54"/>
</g>
<!-- Node8 -->
<g id="node8" class="node">
<title>Node8</title>
<g id="a_node8"><a xlink:title=" ">
<polygon fill="none" stroke="#bfbfbf" points="203.5,-224.5 203.5,-243.5 362.5,-243.5 362.5,-224.5 203.5,-224.5"/>
<text text-anchor="middle" x="283" y="-231.5" font-family="Helvetica,sans-Serif" font-size="10.00">aviationattitudemessage_p.h</text>
</a>
</g>
</g>
<!-- Node1&#45;&gt;Node8 -->
<g id="edge8" class="edge">
<title>Node1&#45;&gt;Node8</title>
<path fill="none" stroke="midnightblue" d="M237.92,-280.08C245.78,-272.22 257.43,-260.57 266.92,-251.08"/>
<polygon fill="midnightblue" stroke="midnightblue" points="269.65,-253.3 274.25,-243.75 264.7,-248.35 269.65,-253.3"/>
</g>
<!-- Node9 -->
<g id="node9" class="node">
<title>Node9</title>
<g id="a_node9"><a xlink:title=" ">
<polygon fill="none" stroke="#bfbfbf" points="380.5,-224.5 380.5,-243.5 441.5,-243.5 441.5,-224.5 380.5,-224.5"/>
<text text-anchor="middle" x="411" y="-231.5" font-family="Helvetica,sans-Serif" font-size="10.00">QtEndian</text>
</a>
</g>
</g>
<!-- Node1&#45;&gt;Node9 -->
<g id="edge10" class="edge">
<title>Node1&#45;&gt;Node9</title>
<path fill="none" stroke="midnightblue" d="M257.84,-280.44C288.86,-271.24 338.33,-256.56 372.62,-246.39"/>
<polygon fill="midnightblue" stroke="midnightblue" points="373.71,-249.72 382.3,-243.52 371.71,-243.01 373.71,-249.72"/>
</g>
<!-- Node3 -->
<g id="node3" class="node">
<title>Node3</title>
<g id="a_node3"><a xlink:href="abstractdatamessage_8h_source.html" target="_top" xlink:title=" ">
<polygon fill="none" stroke="black" points="8.5,-168.5 8.5,-187.5 139.5,-187.5 139.5,-168.5 8.5,-168.5"/>
<text text-anchor="middle" x="74" y="-175.5" font-family="Helvetica,sans-Serif" font-size="10.00">abstractdatamessage.h</text>
</a>
</g>
</g>
<!-- Node2&#45;&gt;Node3 -->
<g id="edge2" class="edge">
<title>Node2&#45;&gt;Node3</title>
<path fill="none" stroke="midnightblue" d="M74,-224.08C74,-217.01 74,-206.86 74,-197.99"/>
<polygon fill="midnightblue" stroke="midnightblue" points="77.5,-197.75 74,-187.75 70.5,-197.75 77.5,-197.75"/>
</g>
<!-- Node4 -->
<g id="node4" class="node">
<title>Node4</title>
<g id="a_node4"><a xlink:href="QtFit__global_8h_source.html" target="_top" xlink:title=" ">
<polygon fill="none" stroke="black" points="35,-56.5 35,-75.5 119,-75.5 119,-56.5 35,-56.5"/>
<text text-anchor="middle" x="77" y="-63.5" font-family="Helvetica,sans-Serif" font-size="10.00">QtFit_global.h</text>
</a>
</g>
</g>
<!-- Node3&#45;&gt;Node4 -->
<g id="edge3" class="edge">
<title>Node3&#45;&gt;Node4</title>
<path fill="none" stroke="midnightblue" d="M74.24,-168.37C74.72,-150.62 75.84,-109.67 76.49,-85.6"/>
<polygon fill="midnightblue" stroke="midnightblue" points="79.99,-85.68 76.77,-75.59 72.99,-85.49 79.99,-85.68"/>
</g>
<!-- Node6 -->
<g id="node6" class="node">
<title>Node6</title>
<g id="a_node6"><a xlink:href="types_8h.html" target="_top" xlink:title="Types defined by the ANT+ FIT SDK.">
<polygon fill="none" stroke="black" points="94.5,-112.5 94.5,-131.5 147.5,-131.5 147.5,-112.5 94.5,-112.5"/>
<text text-anchor="middle" x="121" y="-119.5" font-family="Helvetica,sans-Serif" font-size="10.00">types.h</text>
</a>
</g>
</g>
<!-- Node3&#45;&gt;Node6 -->
<g id="edge5" class="edge">
<title>Node3&#45;&gt;Node6</title>
<path fill="none" stroke="midnightblue" d="M81.76,-168.08C88.54,-160.3 98.54,-148.8 106.76,-139.37"/>
<polygon fill="midnightblue" stroke="midnightblue" points="109.46,-141.59 113.38,-131.75 104.18,-137 109.46,-141.59"/>
</g>
<!-- Node5 -->
<g id="node5" class="node">
<title>Node5</title>
<g id="a_node5"><a xlink:title=" ">
<polygon fill="none" stroke="#bfbfbf" points="47.5,-0.5 47.5,-19.5 106.5,-19.5 106.5,-0.5 47.5,-0.5"/>
<text text-anchor="middle" x="77" y="-7.5" font-family="Helvetica,sans-Serif" font-size="10.00">QtGlobal</text>
</a>
</g>
</g>
<!-- Node4&#45;&gt;Node5 -->
<g id="edge4" class="edge">
<title>Node4&#45;&gt;Node5</title>
<path fill="none" stroke="midnightblue" d="M77,-56.08C77,-49.01 77,-38.86 77,-29.99"/>
<polygon fill="midnightblue" stroke="midnightblue" points="80.5,-29.75 77,-19.75 73.5,-29.75 80.5,-29.75"/>
</g>
<!-- Node6&#45;&gt;Node4 -->
<g id="edge6" class="edge">
<title>Node6&#45;&gt;Node4</title>
<path fill="none" stroke="midnightblue" d="M113.73,-112.08C107.46,-104.38 98.21,-93.03 90.57,-83.65"/>
<polygon fill="midnightblue" stroke="midnightblue" points="93.16,-81.29 84.13,-75.75 87.73,-85.71 93.16,-81.29"/>
</g>
<!-- Node6&#45;&gt;Node7 -->
<g id="edge7" class="edge">
<title>Node6&#45;&gt;Node7</title>
<path fill="none" stroke="midnightblue" d="M129.09,-112.08C136.16,-104.3 146.59,-92.8 155.15,-83.37"/>
<polygon fill="midnightblue" stroke="midnightblue" points="157.93,-85.51 162.06,-75.75 152.75,-80.8 157.93,-85.51"/>
</g>
</g>
</svg>
