<?xml version="1.0" encoding="UTF-8" standalone="no"?>
<!DOCTYPE svg PUBLIC "-//W3C//DTD SVG 1.1//EN"
 "http://www.w3.org/Graphics/SVG/1.1/DTD/svg11.dtd">
<!-- Generated by graphviz version 2.43.0 (0)
 -->
<!-- Title: barometerdatamessage.h Pages: 1 -->
<svg width="169pt" height="252pt"
 viewBox="0.00 0.00 168.50 252.00" xmlns="http://www.w3.org/2000/svg" xmlns:xlink="http://www.w3.org/1999/xlink">
<g id="graph0" class="graph" transform="scale(1 1) rotate(0) translate(4 248)">
<title>barometerdatamessage.h</title>
<!-- Node1 -->
<g id="node1" class="node">
<title>Node1</title>
<g id="a_node1"><a xlink:title=" ">
<polygon fill="#bfbfbf" stroke="black" points="0,-224.5 0,-243.5 143,-243.5 143,-224.5 0,-224.5"/>
<text text-anchor="middle" x="71.5" y="-231.5" font-family="Helvetica,sans-Serif" font-size="10.00">barometerdatamessage.h</text>
</a>
</g>
</g>
<!-- Node2 -->
<g id="node2" class="node">
<title>Node2</title>
<g id="a_node2"><a xlink:href="abstractdatamessage_8h_source.html" target="_top" xlink:title=" ">
<polygon fill="none" stroke="black" points="6,-168.5 6,-187.5 137,-187.5 137,-168.5 6,-168.5"/>
<text text-anchor="middle" x="71.5" y="-175.5" font-family="Helvetica,sans-Serif" font-size="10.00">abstractdatamessage.h</text>
</a>
</g>
</g>
<!-- Node1&#45;&gt;Node2 -->
<g id="edge1" class="edge">
<title>Node1&#45;&gt;Node2</title>
<path fill="none" stroke="midnightblue" d="M71.5,-224.08C71.5,-217.01 71.5,-206.86 71.5,-197.99"/>
<polygon fill="midnightblue" stroke="midnightblue" points="75,-197.75 71.5,-187.75 68,-197.75 75,-197.75"/>
</g>
<!-- Node3 -->
<g id="node3" class="node">
<title>Node3</title>
<g id="a_node3"><a xlink:href="QtFit__global_8h_source.html" target="_top" xlink:title=" ">
<polygon fill="none" stroke="black" points="2.5,-56.5 2.5,-75.5 86.5,-75.5 86.5,-56.5 2.5,-56.5"/>
<text text-anchor="middle" x="44.5" y="-63.5" font-family="Helvetica,sans-Serif" font-size="10.00">QtFit_global.h</text>
</a>
</g>
</g>
<!-- Node2&#45;&gt;Node3 -->
<g id="edge2" class="edge">
<title>Node2&#45;&gt;Node3</title>
<path fill="none" stroke="midnightblue" d="M69.38,-168.37C65.02,-150.62 54.97,-109.67 49.06,-85.6"/>
<polygon fill="midnightblue" stroke="midnightblue" points="52.39,-84.47 46.61,-75.59 45.59,-86.14 52.39,-84.47"/>
</g>
<!-- Node5 -->
<g id="node5" class="node">
<title>Node5</title>
<g id="a_node5"><a xlink:href="types_8h.html" target="_top" xlink:title="Types defined by the ANT+ FIT SDK.">
<polygon fill="none" stroke="black" points="73,-112.5 73,-131.5 126,-131.5 126,-112.5 73,-112.5"/>
<text text-anchor="middle" x="99.5" y="-119.5" font-family="Helvetica,sans-Serif" font-size="10.00">types.h</text>
</a>
</g>
</g>
<!-- Node2&#45;&gt;Node5 -->
<g id="edge4" class="edge">
<title>Node2&#45;&gt;Node5</title>
<path fill="none" stroke="midnightblue" d="M76.12,-168.08C79.96,-160.69 85.52,-149.95 90.26,-140.81"/>
<polygon fill="midnightblue" stroke="midnightblue" points="93.47,-142.24 94.96,-131.75 87.25,-139.02 93.47,-142.24"/>
</g>
<!-- Node4 -->
<g id="node4" class="node">
<title>Node4</title>
<g id="a_node4"><a xlink:title=" ">
<polygon fill="none" stroke="#bfbfbf" points="15,-0.5 15,-19.5 74,-19.5 74,-0.5 15,-0.5"/>
<text text-anchor="middle" x="44.5" y="-7.5" font-family="Helvetica,sans-Serif" font-size="10.00">QtGlobal</text>
</a>
</g>
</g>
<!-- Node3&#45;&gt;Node4 -->
<g id="edge3" class="edge">
<title>Node3&#45;&gt;Node4</title>
<path fill="none" stroke="midnightblue" d="M44.5,-56.08C44.5,-49.01 44.5,-38.86 44.5,-29.99"/>
<polygon fill="midnightblue" stroke="midnightblue" points="48,-29.75 44.5,-19.75 41,-29.75 48,-29.75"/>
</g>
<!-- Node5&#45;&gt;Node3 -->
<g id="edge5" class="edge">
<title>Node5&#45;&gt;Node3</title>
<path fill="none" stroke="midnightblue" d="M90.42,-112.08C82.33,-104.14 70.3,-92.34 60.59,-82.8"/>
<polygon fill="midnightblue" stroke="midnightblue" points="63,-80.26 53.41,-75.75 58.1,-85.25 63,-80.26"/>
</g>
<!-- Node6 -->
<g id="node6" class="node">
<title>Node6</title>
<g id="a_node6"><a xlink:title=" ">
<polygon fill="none" stroke="#bfbfbf" points="104.5,-56.5 104.5,-75.5 160.5,-75.5 160.5,-56.5 104.5,-56.5"/>
<text text-anchor="middle" x="132.5" y="-63.5" font-family="Helvetica,sans-Serif" font-size="10.00">QDebug</text>
</a>
</g>
</g>
<!-- Node5&#45;&gt;Node6 -->
<g id="edge6" class="edge">
<title>Node5&#45;&gt;Node6</title>
<path fill="none" stroke="midnightblue" d="M104.95,-112.08C109.51,-104.61 116.17,-93.72 121.79,-84.52"/>
<polygon fill="midnightblue" stroke="midnightblue" points="124.92,-86.11 127.15,-75.75 118.95,-82.46 124.92,-86.11"/>
</g>
</g>
</svg>
