<?xml version="1.0" encoding="UTF-8" standalone="no"?>
<!DOCTYPE svg PUBLIC "-//W3C//DTD SVG 1.1//EN"
 "http://www.w3.org/Graphics/SVG/1.1/DTD/svg11.dtd">
<!-- Generated by graphviz version 2.43.0 (0)
 -->
<!-- Title: bikeprofilemessage.cpp Pages: 1 -->
<svg width="397pt" height="308pt"
 viewBox="0.00 0.00 397.00 308.00" xmlns="http://www.w3.org/2000/svg" xmlns:xlink="http://www.w3.org/1999/xlink">
<g id="graph0" class="graph" transform="scale(1 1) rotate(0) translate(4 304)">
<title>bikeprofilemessage.cpp</title>
<!-- Node1 -->
<g id="node1" class="node">
<title>Node1</title>
<g id="a_node1"><a xlink:title=" ">
<polygon fill="#bfbfbf" stroke="black" points="130.5,-280.5 130.5,-299.5 262.5,-299.5 262.5,-280.5 130.5,-280.5"/>
<text text-anchor="middle" x="196.5" y="-287.5" font-family="Helvetica,sans-Serif" font-size="10.00">bikeprofilemessage.cpp</text>
</a>
</g>
</g>
<!-- Node2 -->
<g id="node2" class="node">
<title>Node2</title>
<g id="a_node2"><a xlink:href="bikeprofilemessage_8h.html" target="_top" xlink:title=" ">
<polygon fill="none" stroke="black" points="0,-224.5 0,-243.5 121,-243.5 121,-224.5 0,-224.5"/>
<text text-anchor="middle" x="60.5" y="-231.5" font-family="Helvetica,sans-Serif" font-size="10.00">bikeprofilemessage.h</text>
</a>
</g>
</g>
<!-- Node1&#45;&gt;Node2 -->
<g id="edge1" class="edge">
<title>Node1&#45;&gt;Node2</title>
<path fill="none" stroke="midnightblue" d="M174.95,-280.44C152.47,-271.52 117.01,-257.44 91.52,-247.32"/>
<polygon fill="midnightblue" stroke="midnightblue" points="92.53,-243.95 81.95,-243.52 89.95,-250.46 92.53,-243.95"/>
</g>
<!-- Node7 -->
<g id="node7" class="node">
<title>Node7</title>
<g id="a_node7"><a xlink:title=" ">
<polygon fill="none" stroke="#bfbfbf" points="115.5,-56.5 115.5,-75.5 171.5,-75.5 171.5,-56.5 115.5,-56.5"/>
<text text-anchor="middle" x="143.5" y="-63.5" font-family="Helvetica,sans-Serif" font-size="10.00">QDebug</text>
</a>
</g>
</g>
<!-- Node1&#45;&gt;Node7 -->
<g id="edge9" class="edge">
<title>Node1&#45;&gt;Node7</title>
<path fill="none" stroke="midnightblue" d="M189.51,-280.27C182.97,-271.6 173.46,-257.66 168.5,-244 148.5,-188.94 144.4,-118.86 143.63,-85.83"/>
<polygon fill="midnightblue" stroke="midnightblue" points="147.13,-85.72 143.47,-75.78 140.13,-85.83 147.13,-85.72"/>
</g>
<!-- Node8 -->
<g id="node8" class="node">
<title>Node8</title>
<g id="a_node8"><a xlink:title=" ">
<polygon fill="none" stroke="#bfbfbf" points="177.5,-224.5 177.5,-243.5 309.5,-243.5 309.5,-224.5 177.5,-224.5"/>
<text text-anchor="middle" x="243.5" y="-231.5" font-family="Helvetica,sans-Serif" font-size="10.00">bikeprofilemessage_p.h</text>
</a>
</g>
</g>
<!-- Node1&#45;&gt;Node8 -->
<g id="edge8" class="edge">
<title>Node1&#45;&gt;Node8</title>
<path fill="none" stroke="midnightblue" d="M204.26,-280.08C211.04,-272.3 221.04,-260.8 229.26,-251.37"/>
<polygon fill="midnightblue" stroke="midnightblue" points="231.96,-253.59 235.88,-243.75 226.68,-249 231.96,-253.59"/>
</g>
<!-- Node9 -->
<g id="node9" class="node">
<title>Node9</title>
<g id="a_node9"><a xlink:title=" ">
<polygon fill="none" stroke="#bfbfbf" points="328,-224.5 328,-243.5 389,-243.5 389,-224.5 328,-224.5"/>
<text text-anchor="middle" x="358.5" y="-231.5" font-family="Helvetica,sans-Serif" font-size="10.00">QtEndian</text>
</a>
</g>
</g>
<!-- Node1&#45;&gt;Node9 -->
<g id="edge10" class="edge">
<title>Node1&#45;&gt;Node9</title>
<path fill="none" stroke="midnightblue" d="M222.17,-280.44C249.42,-271.36 292.68,-256.94 323.15,-246.78"/>
<polygon fill="midnightblue" stroke="midnightblue" points="324.57,-250 332.95,-243.52 322.36,-243.36 324.57,-250"/>
</g>
<!-- Node3 -->
<g id="node3" class="node">
<title>Node3</title>
<g id="a_node3"><a xlink:href="fitdatamessage_8h_source.html" target="_top" xlink:title=" ">
<polygon fill="none" stroke="black" points="10,-168.5 10,-187.5 111,-187.5 111,-168.5 10,-168.5"/>
<text text-anchor="middle" x="60.5" y="-175.5" font-family="Helvetica,sans-Serif" font-size="10.00">fitdatamessage.h</text>
</a>
</g>
</g>
<!-- Node2&#45;&gt;Node3 -->
<g id="edge2" class="edge">
<title>Node2&#45;&gt;Node3</title>
<path fill="none" stroke="midnightblue" d="M60.5,-224.08C60.5,-217.01 60.5,-206.86 60.5,-197.99"/>
<polygon fill="midnightblue" stroke="midnightblue" points="64,-197.75 60.5,-187.75 57,-197.75 64,-197.75"/>
</g>
<!-- Node4 -->
<g id="node4" class="node">
<title>Node4</title>
<g id="a_node4"><a xlink:href="QtFit__global_8h_source.html" target="_top" xlink:title=" ">
<polygon fill="none" stroke="black" points="8.5,-56.5 8.5,-75.5 92.5,-75.5 92.5,-56.5 8.5,-56.5"/>
<text text-anchor="middle" x="50.5" y="-63.5" font-family="Helvetica,sans-Serif" font-size="10.00">QtFit_global.h</text>
</a>
</g>
</g>
<!-- Node3&#45;&gt;Node4 -->
<g id="edge3" class="edge">
<title>Node3&#45;&gt;Node4</title>
<path fill="none" stroke="midnightblue" d="M59.72,-168.37C58.1,-150.62 54.38,-109.67 52.19,-85.6"/>
<polygon fill="midnightblue" stroke="midnightblue" points="55.67,-85.23 51.28,-75.59 48.7,-85.87 55.67,-85.23"/>
</g>
<!-- Node6 -->
<g id="node6" class="node">
<title>Node6</title>
<g id="a_node6"><a xlink:href="types_8h.html" target="_top" xlink:title="Types defined by the ANT+ FIT SDK.">
<polygon fill="none" stroke="black" points="68,-112.5 68,-131.5 121,-131.5 121,-112.5 68,-112.5"/>
<text text-anchor="middle" x="94.5" y="-119.5" font-family="Helvetica,sans-Serif" font-size="10.00">types.h</text>
</a>
</g>
</g>
<!-- Node3&#45;&gt;Node6 -->
<g id="edge5" class="edge">
<title>Node3&#45;&gt;Node6</title>
<path fill="none" stroke="midnightblue" d="M66.11,-168.08C70.87,-160.53 77.82,-149.49 83.65,-140.23"/>
<polygon fill="midnightblue" stroke="midnightblue" points="86.62,-142.08 88.99,-131.75 80.7,-138.35 86.62,-142.08"/>
</g>
<!-- Node5 -->
<g id="node5" class="node">
<title>Node5</title>
<g id="a_node5"><a xlink:title=" ">
<polygon fill="none" stroke="#bfbfbf" points="21,-0.5 21,-19.5 80,-19.5 80,-0.5 21,-0.5"/>
<text text-anchor="middle" x="50.5" y="-7.5" font-family="Helvetica,sans-Serif" font-size="10.00">QtGlobal</text>
</a>
</g>
</g>
<!-- Node4&#45;&gt;Node5 -->
<g id="edge4" class="edge">
<title>Node4&#45;&gt;Node5</title>
<path fill="none" stroke="midnightblue" d="M50.5,-56.08C50.5,-49.01 50.5,-38.86 50.5,-29.99"/>
<polygon fill="midnightblue" stroke="midnightblue" points="54,-29.75 50.5,-19.75 47,-29.75 54,-29.75"/>
</g>
<!-- Node6&#45;&gt;Node4 -->
<g id="edge6" class="edge">
<title>Node6&#45;&gt;Node4</title>
<path fill="none" stroke="midnightblue" d="M87.23,-112.08C80.96,-104.38 71.71,-93.03 64.07,-83.65"/>
<polygon fill="midnightblue" stroke="midnightblue" points="66.66,-81.29 57.63,-75.75 61.23,-85.71 66.66,-81.29"/>
</g>
<!-- Node6&#45;&gt;Node7 -->
<g id="edge7" class="edge">
<title>Node6&#45;&gt;Node7</title>
<path fill="none" stroke="midnightblue" d="M102.59,-112.08C109.66,-104.3 120.09,-92.8 128.65,-83.37"/>
<polygon fill="midnightblue" stroke="midnightblue" points="131.43,-85.51 135.56,-75.75 126.25,-80.8 131.43,-85.51"/>
</g>
</g>
</svg>
