<?xml version="1.0" encoding="UTF-8" standalone="no"?>
<!DOCTYPE svg PUBLIC "-//W3C//DTD SVG 1.1//EN"
 "http://www.w3.org/Graphics/SVG/1.1/DTD/svg11.dtd">
<!-- Generated by graphviz version 2.43.0 (0)
 -->
<!-- Title: bloodpressuremessage.cpp Pages: 1 -->
<svg width="432pt" height="308pt"
 viewBox="0.00 0.00 432.00 308.00" xmlns="http://www.w3.org/2000/svg" xmlns:xlink="http://www.w3.org/1999/xlink">
<g id="graph0" class="graph" transform="scale(1 1) rotate(0) translate(4 304)">
<title>bloodpressuremessage.cpp</title>
<!-- Node1 -->
<g id="node1" class="node">
<title>Node1</title>
<g id="a_node1"><a xlink:title=" ">
<polygon fill="#bfbfbf" stroke="black" points="143.5,-280.5 143.5,-299.5 293.5,-299.5 293.5,-280.5 143.5,-280.5"/>
<text text-anchor="middle" x="218.5" y="-287.5" font-family="Helvetica,sans-Serif" font-size="10.00">bloodpressuremessage.cpp</text>
</a>
</g>
</g>
<!-- Node2 -->
<g id="node2" class="node">
<title>Node2</title>
<g id="a_node2"><a xlink:href="bloodpressuremessage_8h.html" target="_top" xlink:title=" ">
<polygon fill="none" stroke="black" points="0,-224.5 0,-243.5 139,-243.5 139,-224.5 0,-224.5"/>
<text text-anchor="middle" x="69.5" y="-231.5" font-family="Helvetica,sans-Serif" font-size="10.00">bloodpressuremessage.h</text>
</a>
</g>
</g>
<!-- Node1&#45;&gt;Node2 -->
<g id="edge1" class="edge">
<title>Node1&#45;&gt;Node2</title>
<path fill="none" stroke="midnightblue" d="M194.89,-280.44C170.04,-271.44 130.73,-257.19 102.75,-247.05"/>
<polygon fill="midnightblue" stroke="midnightblue" points="103.59,-243.63 93,-243.52 101.21,-250.21 103.59,-243.63"/>
</g>
<!-- Node7 -->
<g id="node7" class="node">
<title>Node7</title>
<g id="a_node7"><a xlink:title=" ">
<polygon fill="none" stroke="#bfbfbf" points="133.5,-56.5 133.5,-75.5 189.5,-75.5 189.5,-56.5 133.5,-56.5"/>
<text text-anchor="middle" x="161.5" y="-63.5" font-family="Helvetica,sans-Serif" font-size="10.00">QDebug</text>
</a>
</g>
</g>
<!-- Node1&#45;&gt;Node7 -->
<g id="edge9" class="edge">
<title>Node1&#45;&gt;Node7</title>
<path fill="none" stroke="midnightblue" d="M210.49,-280.45C202.98,-271.91 192.11,-258.07 186.5,-244 164.81,-189.59 161.52,-119.19 161.28,-85.96"/>
<polygon fill="midnightblue" stroke="midnightblue" points="164.78,-85.85 161.3,-75.85 157.78,-85.84 164.78,-85.85"/>
</g>
<!-- Node8 -->
<g id="node8" class="node">
<title>Node8</title>
<g id="a_node8"><a xlink:title=" ">
<polygon fill="none" stroke="#bfbfbf" points="195.5,-224.5 195.5,-243.5 345.5,-243.5 345.5,-224.5 195.5,-224.5"/>
<text text-anchor="middle" x="270.5" y="-231.5" font-family="Helvetica,sans-Serif" font-size="10.00">bloodpressuremessage_p.h</text>
</a>
</g>
</g>
<!-- Node1&#45;&gt;Node8 -->
<g id="edge8" class="edge">
<title>Node1&#45;&gt;Node8</title>
<path fill="none" stroke="midnightblue" d="M227.09,-280.08C234.66,-272.22 245.88,-260.57 255.01,-251.08"/>
<polygon fill="midnightblue" stroke="midnightblue" points="257.66,-253.38 262.07,-243.75 252.62,-248.53 257.66,-253.38"/>
</g>
<!-- Node9 -->
<g id="node9" class="node">
<title>Node9</title>
<g id="a_node9"><a xlink:title=" ">
<polygon fill="none" stroke="#bfbfbf" points="363,-224.5 363,-243.5 424,-243.5 424,-224.5 363,-224.5"/>
<text text-anchor="middle" x="393.5" y="-231.5" font-family="Helvetica,sans-Serif" font-size="10.00">QtEndian</text>
</a>
</g>
</g>
<!-- Node1&#45;&gt;Node9 -->
<g id="edge10" class="edge">
<title>Node1&#45;&gt;Node9</title>
<path fill="none" stroke="midnightblue" d="M246.23,-280.44C275.93,-271.28 323.22,-256.69 356.17,-246.52"/>
<polygon fill="midnightblue" stroke="midnightblue" points="357.38,-249.81 365.9,-243.52 355.31,-243.12 357.38,-249.81"/>
</g>
<!-- Node3 -->
<g id="node3" class="node">
<title>Node3</title>
<g id="a_node3"><a xlink:href="fitdatamessage_8h_source.html" target="_top" xlink:title=" ">
<polygon fill="none" stroke="black" points="19,-168.5 19,-187.5 120,-187.5 120,-168.5 19,-168.5"/>
<text text-anchor="middle" x="69.5" y="-175.5" font-family="Helvetica,sans-Serif" font-size="10.00">fitdatamessage.h</text>
</a>
</g>
</g>
<!-- Node2&#45;&gt;Node3 -->
<g id="edge2" class="edge">
<title>Node2&#45;&gt;Node3</title>
<path fill="none" stroke="midnightblue" d="M69.5,-224.08C69.5,-217.01 69.5,-206.86 69.5,-197.99"/>
<polygon fill="midnightblue" stroke="midnightblue" points="73,-197.75 69.5,-187.75 66,-197.75 73,-197.75"/>
</g>
<!-- Node4 -->
<g id="node4" class="node">
<title>Node4</title>
<g id="a_node4"><a xlink:href="QtFit__global_8h_source.html" target="_top" xlink:title=" ">
<polygon fill="none" stroke="black" points="26.5,-56.5 26.5,-75.5 110.5,-75.5 110.5,-56.5 26.5,-56.5"/>
<text text-anchor="middle" x="68.5" y="-63.5" font-family="Helvetica,sans-Serif" font-size="10.00">QtFit_global.h</text>
</a>
</g>
</g>
<!-- Node3&#45;&gt;Node4 -->
<g id="edge3" class="edge">
<title>Node3&#45;&gt;Node4</title>
<path fill="none" stroke="midnightblue" d="M69.42,-168.37C69.26,-150.62 68.89,-109.67 68.67,-85.6"/>
<polygon fill="midnightblue" stroke="midnightblue" points="72.17,-85.56 68.58,-75.59 65.17,-85.62 72.17,-85.56"/>
</g>
<!-- Node6 -->
<g id="node6" class="node">
<title>Node6</title>
<g id="a_node6"><a xlink:href="types_8h.html" target="_top" xlink:title="Types defined by the ANT+ FIT SDK.">
<polygon fill="none" stroke="black" points="86,-112.5 86,-131.5 139,-131.5 139,-112.5 86,-112.5"/>
<text text-anchor="middle" x="112.5" y="-119.5" font-family="Helvetica,sans-Serif" font-size="10.00">types.h</text>
</a>
</g>
</g>
<!-- Node3&#45;&gt;Node6 -->
<g id="edge5" class="edge">
<title>Node3&#45;&gt;Node6</title>
<path fill="none" stroke="midnightblue" d="M76.6,-168.08C82.74,-160.38 91.77,-149.03 99.24,-139.65"/>
<polygon fill="midnightblue" stroke="midnightblue" points="102.04,-141.75 105.53,-131.75 96.56,-137.39 102.04,-141.75"/>
</g>
<!-- Node5 -->
<g id="node5" class="node">
<title>Node5</title>
<g id="a_node5"><a xlink:title=" ">
<polygon fill="none" stroke="#bfbfbf" points="39,-0.5 39,-19.5 98,-19.5 98,-0.5 39,-0.5"/>
<text text-anchor="middle" x="68.5" y="-7.5" font-family="Helvetica,sans-Serif" font-size="10.00">QtGlobal</text>
</a>
</g>
</g>
<!-- Node4&#45;&gt;Node5 -->
<g id="edge4" class="edge">
<title>Node4&#45;&gt;Node5</title>
<path fill="none" stroke="midnightblue" d="M68.5,-56.08C68.5,-49.01 68.5,-38.86 68.5,-29.99"/>
<polygon fill="midnightblue" stroke="midnightblue" points="72,-29.75 68.5,-19.75 65,-29.75 72,-29.75"/>
</g>
<!-- Node6&#45;&gt;Node4 -->
<g id="edge6" class="edge">
<title>Node6&#45;&gt;Node4</title>
<path fill="none" stroke="midnightblue" d="M105.23,-112.08C98.96,-104.38 89.71,-93.03 82.07,-83.65"/>
<polygon fill="midnightblue" stroke="midnightblue" points="84.66,-81.29 75.63,-75.75 79.23,-85.71 84.66,-81.29"/>
</g>
<!-- Node6&#45;&gt;Node7 -->
<g id="edge7" class="edge">
<title>Node6&#45;&gt;Node7</title>
<path fill="none" stroke="midnightblue" d="M120.59,-112.08C127.66,-104.3 138.09,-92.8 146.65,-83.37"/>
<polygon fill="midnightblue" stroke="midnightblue" points="149.43,-85.51 153.56,-75.75 144.25,-80.8 149.43,-85.51"/>
</g>
</g>
</svg>
