<?xml version="1.0" encoding="UTF-8" standalone="no"?>
<!DOCTYPE svg PUBLIC "-//W3C//DTD SVG 1.1//EN"
 "http://www.w3.org/Graphics/SVG/1.1/DTD/svg11.dtd">
<!-- Generated by graphviz version 2.43.0 (0)
 -->
<!-- Title: bloodpressuremessage.cpp Pages: 1 -->
<svg width="469pt" height="308pt"
 viewBox="0.00 0.00 469.00 308.00" xmlns="http://www.w3.org/2000/svg" xmlns:xlink="http://www.w3.org/1999/xlink">
<g id="graph0" class="graph" transform="scale(1 1) rotate(0) translate(4 304)">
<title>bloodpressuremessage.cpp</title>
<!-- Node1 -->
<g id="node1" class="node">
<title>Node1</title>
<g id="a_node1"><a xlink:title=" ">
<polygon fill="#bfbfbf" stroke="black" points="217.5,-280.5 217.5,-299.5 367.5,-299.5 367.5,-280.5 217.5,-280.5"/>
<text text-anchor="middle" x="292.5" y="-287.5" font-family="Helvetica,sans-Serif" font-size="10.00">bloodpressuremessage.cpp</text>
</a>
</g>
</g>
<!-- Node2 -->
<g id="node2" class="node">
<title>Node2</title>
<g id="a_node2"><a xlink:href="bloodpressuremessage_8h.html" target="_top" xlink:title=" ">
<polygon fill="none" stroke="black" points="0,-224.5 0,-243.5 139,-243.5 139,-224.5 0,-224.5"/>
<text text-anchor="middle" x="69.5" y="-231.5" font-family="Helvetica,sans-Serif" font-size="10.00">bloodpressuremessage.h</text>
</a>
</g>
</g>
<!-- Node1&#45;&gt;Node2 -->
<g id="edge1" class="edge">
<title>Node1&#45;&gt;Node2</title>
<path fill="none" stroke="midnightblue" d="M257.16,-280.44C218.59,-271.1 156.72,-256.12 114.65,-245.93"/>
<polygon fill="midnightblue" stroke="midnightblue" points="115.21,-242.47 104.67,-243.52 113.57,-249.27 115.21,-242.47"/>
</g>
<!-- Node7 -->
<g id="node7" class="node">
<title>Node7</title>
<g id="a_node7"><a xlink:title=" ">
<polygon fill="none" stroke="#bfbfbf" points="157.5,-224.5 157.5,-243.5 307.5,-243.5 307.5,-224.5 157.5,-224.5"/>
<text text-anchor="middle" x="232.5" y="-231.5" font-family="Helvetica,sans-Serif" font-size="10.00">bloodpressuremessage_p.h</text>
</a>
</g>
</g>
<!-- Node1&#45;&gt;Node7 -->
<g id="edge7" class="edge">
<title>Node1&#45;&gt;Node7</title>
<path fill="none" stroke="midnightblue" d="M282.86,-280.32C273.99,-272.34 260.63,-260.31 249.89,-250.65"/>
<polygon fill="midnightblue" stroke="midnightblue" points="252.09,-247.92 242.32,-243.83 247.41,-253.13 252.09,-247.92"/>
</g>
<!-- Node8 -->
<g id="node8" class="node">
<title>Node8</title>
<g id="a_node8"><a xlink:title=" ">
<polygon fill="none" stroke="#bfbfbf" points="325.5,-224.5 325.5,-243.5 381.5,-243.5 381.5,-224.5 325.5,-224.5"/>
<text text-anchor="middle" x="353.5" y="-231.5" font-family="Helvetica,sans-Serif" font-size="10.00">QDebug</text>
</a>
</g>
</g>
<!-- Node1&#45;&gt;Node8 -->
<g id="edge8" class="edge">
<title>Node1&#45;&gt;Node8</title>
<path fill="none" stroke="midnightblue" d="M302.3,-280.32C311.32,-272.34 324.91,-260.31 335.82,-250.65"/>
<polygon fill="midnightblue" stroke="midnightblue" points="338.35,-253.08 343.52,-243.83 333.71,-247.84 338.35,-253.08"/>
</g>
<!-- Node9 -->
<g id="node9" class="node">
<title>Node9</title>
<g id="a_node9"><a xlink:title=" ">
<polygon fill="none" stroke="#bfbfbf" points="400,-224.5 400,-243.5 461,-243.5 461,-224.5 400,-224.5"/>
<text text-anchor="middle" x="430.5" y="-231.5" font-family="Helvetica,sans-Serif" font-size="10.00">QtEndian</text>
</a>
</g>
</g>
<!-- Node1&#45;&gt;Node9 -->
<g id="edge9" class="edge">
<title>Node1&#45;&gt;Node9</title>
<path fill="none" stroke="midnightblue" d="M314.37,-280.44C337.28,-271.48 373.48,-257.31 399.37,-247.18"/>
<polygon fill="midnightblue" stroke="midnightblue" points="400.7,-250.42 408.74,-243.52 398.15,-243.9 400.7,-250.42"/>
</g>
<!-- Node3 -->
<g id="node3" class="node">
<title>Node3</title>
<g id="a_node3"><a xlink:href="fitdatamessage_8h_source.html" target="_top" xlink:title=" ">
<polygon fill="none" stroke="black" points="19,-168.5 19,-187.5 120,-187.5 120,-168.5 19,-168.5"/>
<text text-anchor="middle" x="69.5" y="-175.5" font-family="Helvetica,sans-Serif" font-size="10.00">fitdatamessage.h</text>
</a>
</g>
</g>
<!-- Node2&#45;&gt;Node3 -->
<g id="edge2" class="edge">
<title>Node2&#45;&gt;Node3</title>
<path fill="none" stroke="midnightblue" d="M69.5,-224.08C69.5,-217.01 69.5,-206.86 69.5,-197.99"/>
<polygon fill="midnightblue" stroke="midnightblue" points="73,-197.75 69.5,-187.75 66,-197.75 73,-197.75"/>
</g>
<!-- Node4 -->
<g id="node4" class="node">
<title>Node4</title>
<g id="a_node4"><a xlink:href="QtFit__global_8h_source.html" target="_top" xlink:title=" ">
<polygon fill="none" stroke="black" points="27.5,-56.5 27.5,-75.5 111.5,-75.5 111.5,-56.5 27.5,-56.5"/>
<text text-anchor="middle" x="69.5" y="-63.5" font-family="Helvetica,sans-Serif" font-size="10.00">QtFit_global.h</text>
</a>
</g>
</g>
<!-- Node3&#45;&gt;Node4 -->
<g id="edge3" class="edge">
<title>Node3&#45;&gt;Node4</title>
<path fill="none" stroke="midnightblue" d="M67.76,-168.42C66.03,-159.4 63.49,-144.77 62.5,-132 61.3,-116.42 63.41,-98.8 65.62,-85.84"/>
<polygon fill="midnightblue" stroke="midnightblue" points="69.1,-86.29 67.51,-75.82 62.22,-84.99 69.1,-86.29"/>
</g>
<!-- Node6 -->
<g id="node6" class="node">
<title>Node6</title>
<g id="a_node6"><a xlink:href="types_8h.html" target="_top" xlink:title="Types defined by the ANT+ FIT SDK.">
<polygon fill="none" stroke="black" points="71,-112.5 71,-131.5 124,-131.5 124,-112.5 71,-112.5"/>
<text text-anchor="middle" x="97.5" y="-119.5" font-family="Helvetica,sans-Serif" font-size="10.00">types.h</text>
</a>
</g>
</g>
<!-- Node3&#45;&gt;Node6 -->
<g id="edge5" class="edge">
<title>Node3&#45;&gt;Node6</title>
<path fill="none" stroke="midnightblue" d="M74.12,-168.08C77.96,-160.69 83.52,-149.95 88.26,-140.81"/>
<polygon fill="midnightblue" stroke="midnightblue" points="91.47,-142.24 92.96,-131.75 85.25,-139.02 91.47,-142.24"/>
</g>
<!-- Node5 -->
<g id="node5" class="node">
<title>Node5</title>
<g id="a_node5"><a xlink:title=" ">
<polygon fill="none" stroke="#bfbfbf" points="40,-0.5 40,-19.5 99,-19.5 99,-0.5 40,-0.5"/>
<text text-anchor="middle" x="69.5" y="-7.5" font-family="Helvetica,sans-Serif" font-size="10.00">QtGlobal</text>
</a>
</g>
</g>
<!-- Node4&#45;&gt;Node5 -->
<g id="edge4" class="edge">
<title>Node4&#45;&gt;Node5</title>
<path fill="none" stroke="midnightblue" d="M69.5,-56.08C69.5,-49.01 69.5,-38.86 69.5,-29.99"/>
<polygon fill="midnightblue" stroke="midnightblue" points="73,-29.75 69.5,-19.75 66,-29.75 73,-29.75"/>
</g>
<!-- Node6&#45;&gt;Node4 -->
<g id="edge6" class="edge">
<title>Node6&#45;&gt;Node4</title>
<path fill="none" stroke="midnightblue" d="M92.88,-112.08C89.04,-104.69 83.48,-93.95 78.74,-84.81"/>
<polygon fill="midnightblue" stroke="midnightblue" points="81.75,-83.02 74.04,-75.75 75.53,-86.24 81.75,-83.02"/>
</g>
</g>
</svg>
