<?xml version="1.0" encoding="UTF-8" standalone="no"?>
<!DOCTYPE svg PUBLIC "-//W3C//DTD SVG 1.1//EN"
 "http://www.w3.org/Graphics/SVG/1.1/DTD/svg11.dtd">
<!-- Generated by graphviz version 2.43.0 (0)
 -->
<!-- Title: bloodpressuremessage.cpp Pages: 1 -->
<svg width="316pt" height="308pt"
 viewBox="0.00 0.00 315.50 308.00" xmlns="http://www.w3.org/2000/svg" xmlns:xlink="http://www.w3.org/1999/xlink">
<g id="graph0" class="graph" transform="scale(1 1) rotate(0) translate(4 304)">
<title>bloodpressuremessage.cpp</title>
<!-- Node1 -->
<g id="node1" class="node">
<title>Node1</title>
<g id="a_node1"><a xlink:title=" ">
<polygon fill="#bfbfbf" stroke="black" points="75.5,-280.5 75.5,-299.5 225.5,-299.5 225.5,-280.5 75.5,-280.5"/>
<text text-anchor="middle" x="150.5" y="-287.5" font-family="Helvetica,sans-Serif" font-size="10.00">bloodpressuremessage.cpp</text>
</a>
</g>
</g>
<!-- Node2 -->
<g id="node2" class="node">
<title>Node2</title>
<g id="a_node2"><a xlink:href="bloodpressuremessage_8h.html" target="_top" xlink:title=" ">
<polygon fill="none" stroke="black" points="0,-224.5 0,-243.5 139,-243.5 139,-224.5 0,-224.5"/>
<text text-anchor="middle" x="69.5" y="-231.5" font-family="Helvetica,sans-Serif" font-size="10.00">bloodpressuremessage.h</text>
</a>
</g>
</g>
<!-- Node1&#45;&gt;Node2 -->
<g id="edge1" class="edge">
<title>Node1&#45;&gt;Node2</title>
<path fill="none" stroke="midnightblue" d="M137.49,-280.32C124.97,-271.98 105.82,-259.21 91.03,-249.35"/>
<polygon fill="midnightblue" stroke="midnightblue" points="92.74,-246.29 82.48,-243.65 88.86,-252.11 92.74,-246.29"/>
</g>
<!-- Node7 -->
<g id="node7" class="node">
<title>Node7</title>
<g id="a_node7"><a xlink:title=" ">
<polygon fill="none" stroke="#bfbfbf" points="157.5,-224.5 157.5,-243.5 307.5,-243.5 307.5,-224.5 157.5,-224.5"/>
<text text-anchor="middle" x="232.5" y="-231.5" font-family="Helvetica,sans-Serif" font-size="10.00">bloodpressuremessage_p.h</text>
</a>
</g>
</g>
<!-- Node1&#45;&gt;Node7 -->
<g id="edge7" class="edge">
<title>Node1&#45;&gt;Node7</title>
<path fill="none" stroke="midnightblue" d="M163.67,-280.32C176.35,-271.98 195.73,-259.21 210.71,-249.35"/>
<polygon fill="midnightblue" stroke="midnightblue" points="212.93,-252.08 219.36,-243.65 209.08,-246.23 212.93,-252.08"/>
</g>
<!-- Node3 -->
<g id="node3" class="node">
<title>Node3</title>
<g id="a_node3"><a xlink:href="fitdatamessage_8h_source.html" target="_top" xlink:title=" ">
<polygon fill="none" stroke="black" points="19,-168.5 19,-187.5 120,-187.5 120,-168.5 19,-168.5"/>
<text text-anchor="middle" x="69.5" y="-175.5" font-family="Helvetica,sans-Serif" font-size="10.00">fitdatamessage.h</text>
</a>
</g>
</g>
<!-- Node2&#45;&gt;Node3 -->
<g id="edge2" class="edge">
<title>Node2&#45;&gt;Node3</title>
<path fill="none" stroke="midnightblue" d="M69.5,-224.08C69.5,-217.01 69.5,-206.86 69.5,-197.99"/>
<polygon fill="midnightblue" stroke="midnightblue" points="73,-197.75 69.5,-187.75 66,-197.75 73,-197.75"/>
</g>
<!-- Node4 -->
<g id="node4" class="node">
<title>Node4</title>
<g id="a_node4"><a xlink:href="QtFit__global_8h_source.html" target="_top" xlink:title=" ">
<polygon fill="none" stroke="black" points="27.5,-56.5 27.5,-75.5 111.5,-75.5 111.5,-56.5 27.5,-56.5"/>
<text text-anchor="middle" x="69.5" y="-63.5" font-family="Helvetica,sans-Serif" font-size="10.00">QtFit_global.h</text>
</a>
</g>
</g>
<!-- Node3&#45;&gt;Node4 -->
<g id="edge3" class="edge">
<title>Node3&#45;&gt;Node4</title>
<path fill="none" stroke="midnightblue" d="M67.76,-168.42C66.03,-159.4 63.49,-144.77 62.5,-132 61.3,-116.42 63.41,-98.8 65.62,-85.84"/>
<polygon fill="midnightblue" stroke="midnightblue" points="69.1,-86.29 67.51,-75.82 62.22,-84.99 69.1,-86.29"/>
</g>
<!-- Node6 -->
<g id="node6" class="node">
<title>Node6</title>
<g id="a_node6"><a xlink:href="types_8h.html" target="_top" xlink:title="Types defined by the ANT+ FIT SDK.">
<polygon fill="none" stroke="black" points="71,-112.5 71,-131.5 124,-131.5 124,-112.5 71,-112.5"/>
<text text-anchor="middle" x="97.5" y="-119.5" font-family="Helvetica,sans-Serif" font-size="10.00">types.h</text>
</a>
</g>
</g>
<!-- Node3&#45;&gt;Node6 -->
<g id="edge5" class="edge">
<title>Node3&#45;&gt;Node6</title>
<path fill="none" stroke="midnightblue" d="M74.12,-168.08C77.96,-160.69 83.52,-149.95 88.26,-140.81"/>
<polygon fill="midnightblue" stroke="midnightblue" points="91.47,-142.24 92.96,-131.75 85.25,-139.02 91.47,-142.24"/>
</g>
<!-- Node5 -->
<g id="node5" class="node">
<title>Node5</title>
<g id="a_node5"><a xlink:title=" ">
<polygon fill="none" stroke="#bfbfbf" points="40,-0.5 40,-19.5 99,-19.5 99,-0.5 40,-0.5"/>
<text text-anchor="middle" x="69.5" y="-7.5" font-family="Helvetica,sans-Serif" font-size="10.00">QtGlobal</text>
</a>
</g>
</g>
<!-- Node4&#45;&gt;Node5 -->
<g id="edge4" class="edge">
<title>Node4&#45;&gt;Node5</title>
<path fill="none" stroke="midnightblue" d="M69.5,-56.08C69.5,-49.01 69.5,-38.86 69.5,-29.99"/>
<polygon fill="midnightblue" stroke="midnightblue" points="73,-29.75 69.5,-19.75 66,-29.75 73,-29.75"/>
</g>
<!-- Node6&#45;&gt;Node4 -->
<g id="edge6" class="edge">
<title>Node6&#45;&gt;Node4</title>
<path fill="none" stroke="midnightblue" d="M92.88,-112.08C89.04,-104.69 83.48,-93.95 78.74,-84.81"/>
<polygon fill="midnightblue" stroke="midnightblue" points="81.75,-83.02 74.04,-75.75 75.53,-86.24 81.75,-83.02"/>
</g>
</g>
</svg>
