<?xml version="1.0" encoding="UTF-8" standalone="no"?>
<!DOCTYPE svg PUBLIC "-//W3C//DTD SVG 1.1//EN"
 "http://www.w3.org/Graphics/SVG/1.1/DTD/svg11.dtd">
<!-- Generated by graphviz version 2.43.0 (0)
 -->
<!-- Title: bloodpressuremessage.h Pages: 1 -->
<svg width="294pt" height="84pt"
 viewBox="0.00 0.00 294.00 84.00" xmlns="http://www.w3.org/2000/svg" xmlns:xlink="http://www.w3.org/1999/xlink">
<g id="graph0" class="graph" transform="scale(1 1) rotate(0) translate(4 80)">
<title>bloodpressuremessage.h</title>
<!-- Node1 -->
<g id="node1" class="node">
<title>Node1</title>
<g id="a_node1"><a xlink:title="Declares the BloodPressureMessage class.">
<polygon fill="#bfbfbf" stroke="black" points="81.5,-56.5 81.5,-75.5 220.5,-75.5 220.5,-56.5 81.5,-56.5"/>
<text text-anchor="middle" x="151" y="-63.5" font-family="Helvetica,sans-Serif" font-size="10.00">bloodpressuremessage.h</text>
</a>
</g>
</g>
<!-- Node2 -->
<g id="node2" class="node">
<title>Node2</title>
<g id="a_node2"><a xlink:href="bloodpressuremessage_8cpp.html" target="_top" xlink:title="Defines the BloodPressureMessage, and BloodPressureMessagePrivate classes.">
<polygon fill="none" stroke="black" points="0,-0.5 0,-19.5 150,-19.5 150,-0.5 0,-0.5"/>
<text text-anchor="middle" x="75" y="-7.5" font-family="Helvetica,sans-Serif" font-size="10.00">bloodpressuremessage.cpp</text>
</a>
</g>
</g>
<!-- Node1&#45;&gt;Node2 -->
<g id="edge1" class="edge">
<title>Node1&#45;&gt;Node2</title>
<path fill="none" stroke="midnightblue" d="M130.42,-50.38C116.69,-40.62 99.07,-28.11 87.43,-19.83"/>
<polygon fill="midnightblue" stroke="midnightblue" points="128.61,-53.38 138.79,-56.32 132.66,-47.68 128.61,-53.38"/>
</g>
<!-- Node3 -->
<g id="node3" class="node">
<title>Node3</title>
<g id="a_node3"><a xlink:href="fitdatamessages_8cpp.html" target="_top" xlink:title="Provides the AbstractDataMessage::fromData implementation.">
<polygon fill="none" stroke="black" points="168,-0.5 168,-19.5 286,-19.5 286,-0.5 168,-0.5"/>
<text text-anchor="middle" x="227" y="-7.5" font-family="Helvetica,sans-Serif" font-size="10.00">fitdatamessages.cpp</text>
</a>
</g>
</g>
<!-- Node1&#45;&gt;Node3 -->
<g id="edge2" class="edge">
<title>Node1&#45;&gt;Node3</title>
<path fill="none" stroke="midnightblue" d="M171.58,-50.38C185.31,-40.62 202.93,-28.11 214.57,-19.83"/>
<polygon fill="midnightblue" stroke="midnightblue" points="169.34,-47.68 163.21,-56.32 173.39,-53.38 169.34,-47.68"/>
</g>
</g>
</svg>
