<?xml version="1.0" encoding="UTF-8" standalone="no"?>
<!DOCTYPE svg PUBLIC "-//W3C//DTD SVG 1.1//EN"
 "http://www.w3.org/Graphics/SVG/1.1/DTD/svg11.dtd">
<!-- Generated by graphviz version 2.43.0 (0)
 -->
<!-- Title: cadencezonemessage.cpp Pages: 1 -->
<svg width="423pt" height="308pt"
 viewBox="0.00 0.00 422.50 308.00" xmlns="http://www.w3.org/2000/svg" xmlns:xlink="http://www.w3.org/1999/xlink">
<g id="graph0" class="graph" transform="scale(1 1) rotate(0) translate(4 304)">
<title>cadencezonemessage.cpp</title>
<!-- Node1 -->
<g id="node1" class="node">
<title>Node1</title>
<g id="a_node1"><a xlink:title=" ">
<polygon fill="#bfbfbf" stroke="black" points="139.5,-280.5 139.5,-299.5 284.5,-299.5 284.5,-280.5 139.5,-280.5"/>
<text text-anchor="middle" x="212" y="-287.5" font-family="Helvetica,sans-Serif" font-size="10.00">cadencezonemessage.cpp</text>
</a>
</g>
</g>
<!-- Node2 -->
<g id="node2" class="node">
<title>Node2</title>
<g id="a_node2"><a xlink:href="cadencezonemessage_8h.html" target="_top" xlink:title=" ">
<polygon fill="none" stroke="black" points="0,-224.5 0,-243.5 134,-243.5 134,-224.5 0,-224.5"/>
<text text-anchor="middle" x="67" y="-231.5" font-family="Helvetica,sans-Serif" font-size="10.00">cadencezonemessage.h</text>
</a>
</g>
</g>
<!-- Node1&#45;&gt;Node2 -->
<g id="edge1" class="edge">
<title>Node1&#45;&gt;Node2</title>
<path fill="none" stroke="midnightblue" d="M189.02,-280.44C164.84,-271.44 126.58,-257.19 99.35,-247.05"/>
<polygon fill="midnightblue" stroke="midnightblue" points="100.46,-243.73 89.87,-243.52 98.02,-250.29 100.46,-243.73"/>
</g>
<!-- Node7 -->
<g id="node7" class="node">
<title>Node7</title>
<g id="a_node7"><a xlink:title=" ">
<polygon fill="none" stroke="#bfbfbf" points="128,-56.5 128,-75.5 184,-75.5 184,-56.5 128,-56.5"/>
<text text-anchor="middle" x="156" y="-63.5" font-family="Helvetica,sans-Serif" font-size="10.00">QDebug</text>
</a>
</g>
</g>
<!-- Node1&#45;&gt;Node7 -->
<g id="edge9" class="edge">
<title>Node1&#45;&gt;Node7</title>
<path fill="none" stroke="midnightblue" d="M204.52,-280.35C197.5,-271.74 187.32,-257.85 182,-244 160.97,-189.28 156.82,-119.03 156.09,-85.9"/>
<polygon fill="midnightblue" stroke="midnightblue" points="159.58,-85.77 155.95,-75.81 152.59,-85.86 159.58,-85.77"/>
</g>
<!-- Node8 -->
<g id="node8" class="node">
<title>Node8</title>
<g id="a_node8"><a xlink:title=" ">
<polygon fill="none" stroke="#bfbfbf" points="190.5,-224.5 190.5,-243.5 335.5,-243.5 335.5,-224.5 190.5,-224.5"/>
<text text-anchor="middle" x="263" y="-231.5" font-family="Helvetica,sans-Serif" font-size="10.00">cadencezonemessage_p.h</text>
</a>
</g>
</g>
<!-- Node1&#45;&gt;Node8 -->
<g id="edge8" class="edge">
<title>Node1&#45;&gt;Node8</title>
<path fill="none" stroke="midnightblue" d="M220.42,-280.08C227.85,-272.22 238.85,-260.57 247.81,-251.08"/>
<polygon fill="midnightblue" stroke="midnightblue" points="250.41,-253.42 254.74,-243.75 245.32,-248.62 250.41,-253.42"/>
</g>
<!-- Node9 -->
<g id="node9" class="node">
<title>Node9</title>
<g id="a_node9"><a xlink:title=" ">
<polygon fill="none" stroke="#bfbfbf" points="353.5,-224.5 353.5,-243.5 414.5,-243.5 414.5,-224.5 353.5,-224.5"/>
<text text-anchor="middle" x="384" y="-231.5" font-family="Helvetica,sans-Serif" font-size="10.00">QtEndian</text>
</a>
</g>
</g>
<!-- Node1&#45;&gt;Node9 -->
<g id="edge10" class="edge">
<title>Node1&#45;&gt;Node9</title>
<path fill="none" stroke="midnightblue" d="M239.25,-280.44C268.44,-271.28 314.92,-256.69 347.31,-246.52"/>
<polygon fill="midnightblue" stroke="midnightblue" points="348.38,-249.85 356.87,-243.52 346.28,-243.17 348.38,-249.85"/>
</g>
<!-- Node3 -->
<g id="node3" class="node">
<title>Node3</title>
<g id="a_node3"><a xlink:href="abstractdatamessage_8h_source.html" target="_top" xlink:title=" ">
<polygon fill="none" stroke="black" points="1.5,-168.5 1.5,-187.5 132.5,-187.5 132.5,-168.5 1.5,-168.5"/>
<text text-anchor="middle" x="67" y="-175.5" font-family="Helvetica,sans-Serif" font-size="10.00">abstractdatamessage.h</text>
</a>
</g>
</g>
<!-- Node2&#45;&gt;Node3 -->
<g id="edge2" class="edge">
<title>Node2&#45;&gt;Node3</title>
<path fill="none" stroke="midnightblue" d="M67,-224.08C67,-217.01 67,-206.86 67,-197.99"/>
<polygon fill="midnightblue" stroke="midnightblue" points="70.5,-197.75 67,-187.75 63.5,-197.75 70.5,-197.75"/>
</g>
<!-- Node4 -->
<g id="node4" class="node">
<title>Node4</title>
<g id="a_node4"><a xlink:href="QtFit__global_8h_source.html" target="_top" xlink:title=" ">
<polygon fill="none" stroke="black" points="21,-56.5 21,-75.5 105,-75.5 105,-56.5 21,-56.5"/>
<text text-anchor="middle" x="63" y="-63.5" font-family="Helvetica,sans-Serif" font-size="10.00">QtFit_global.h</text>
</a>
</g>
</g>
<!-- Node3&#45;&gt;Node4 -->
<g id="edge3" class="edge">
<title>Node3&#45;&gt;Node4</title>
<path fill="none" stroke="midnightblue" d="M66.69,-168.37C66.04,-150.62 64.55,-109.67 63.68,-85.6"/>
<polygon fill="midnightblue" stroke="midnightblue" points="67.17,-85.46 63.31,-75.59 60.18,-85.71 67.17,-85.46"/>
</g>
<!-- Node6 -->
<g id="node6" class="node">
<title>Node6</title>
<g id="a_node6"><a xlink:href="types_8h.html" target="_top" xlink:title="Types defined by the ANT+ FIT SDK.">
<polygon fill="none" stroke="black" points="80.5,-112.5 80.5,-131.5 133.5,-131.5 133.5,-112.5 80.5,-112.5"/>
<text text-anchor="middle" x="107" y="-119.5" font-family="Helvetica,sans-Serif" font-size="10.00">types.h</text>
</a>
</g>
</g>
<!-- Node3&#45;&gt;Node6 -->
<g id="edge5" class="edge">
<title>Node3&#45;&gt;Node6</title>
<path fill="none" stroke="midnightblue" d="M73.61,-168.08C79.26,-160.46 87.54,-149.26 94.45,-139.94"/>
<polygon fill="midnightblue" stroke="midnightblue" points="97.38,-141.87 100.52,-131.75 91.75,-137.7 97.38,-141.87"/>
</g>
<!-- Node5 -->
<g id="node5" class="node">
<title>Node5</title>
<g id="a_node5"><a xlink:title=" ">
<polygon fill="none" stroke="#bfbfbf" points="33.5,-0.5 33.5,-19.5 92.5,-19.5 92.5,-0.5 33.5,-0.5"/>
<text text-anchor="middle" x="63" y="-7.5" font-family="Helvetica,sans-Serif" font-size="10.00">QtGlobal</text>
</a>
</g>
</g>
<!-- Node4&#45;&gt;Node5 -->
<g id="edge4" class="edge">
<title>Node4&#45;&gt;Node5</title>
<path fill="none" stroke="midnightblue" d="M63,-56.08C63,-49.01 63,-38.86 63,-29.99"/>
<polygon fill="midnightblue" stroke="midnightblue" points="66.5,-29.75 63,-19.75 59.5,-29.75 66.5,-29.75"/>
</g>
<!-- Node6&#45;&gt;Node4 -->
<g id="edge6" class="edge">
<title>Node6&#45;&gt;Node4</title>
<path fill="none" stroke="midnightblue" d="M99.73,-112.08C93.46,-104.38 84.21,-93.03 76.57,-83.65"/>
<polygon fill="midnightblue" stroke="midnightblue" points="79.16,-81.29 70.13,-75.75 73.73,-85.71 79.16,-81.29"/>
</g>
<!-- Node6&#45;&gt;Node7 -->
<g id="edge7" class="edge">
<title>Node6&#45;&gt;Node7</title>
<path fill="none" stroke="midnightblue" d="M115.09,-112.08C122.16,-104.3 132.59,-92.8 141.15,-83.37"/>
<polygon fill="midnightblue" stroke="midnightblue" points="143.93,-85.51 148.06,-75.75 138.75,-80.8 143.93,-85.51"/>
</g>
</g>
</svg>
