<?xml version="1.0" encoding="UTF-8" standalone="no"?>
<!DOCTYPE svg PUBLIC "-//W3C//DTD SVG 1.1//EN"
 "http://www.w3.org/Graphics/SVG/1.1/DTD/svg11.dtd">
<!-- Generated by graphviz version 2.43.0 (0)
 -->
<!-- Title: cameraeventmessage.h Pages: 1 -->
<svg width="290pt" height="84pt"
 viewBox="0.00 0.00 290.00 84.00" xmlns="http://www.w3.org/2000/svg" xmlns:xlink="http://www.w3.org/1999/xlink">
<g id="graph0" class="graph" transform="scale(1 1) rotate(0) translate(4 80)">
<title>cameraeventmessage.h</title>
<!-- Node1 -->
<g id="node1" class="node">
<title>Node1</title>
<g id="a_node1"><a xlink:title=" ">
<polygon fill="#bfbfbf" stroke="black" points="81,-56.5 81,-75.5 215,-75.5 215,-56.5 81,-56.5"/>
<text text-anchor="middle" x="148" y="-63.5" font-family="Helvetica,sans-Serif" font-size="10.00">cameraeventmessage.h</text>
</a>
</g>
</g>
<!-- Node2 -->
<g id="node2" class="node">
<title>Node2</title>
<g id="a_node2"><a xlink:href="cameraeventmessage_8cpp.html" target="_top" xlink:title=" ">
<polygon fill="none" stroke="black" points="0,-0.5 0,-19.5 146,-19.5 146,-0.5 0,-0.5"/>
<text text-anchor="middle" x="73" y="-7.5" font-family="Helvetica,sans-Serif" font-size="10.00">cameraeventmessage.cpp</text>
</a>
</g>
</g>
<!-- Node1&#45;&gt;Node2 -->
<g id="edge1" class="edge">
<title>Node1&#45;&gt;Node2</title>
<path fill="none" stroke="midnightblue" d="M127.69,-50.38C114.14,-40.62 96.76,-28.11 85.27,-19.83"/>
<polygon fill="midnightblue" stroke="midnightblue" points="125.79,-53.32 135.95,-56.32 129.88,-47.64 125.79,-53.32"/>
</g>
<!-- Node3 -->
<g id="node3" class="node">
<title>Node3</title>
<g id="a_node3"><a xlink:href="fitdatamessages_8cpp.html" target="_top" xlink:title="Provides the AbstractDataMessage::fromData implementation.">
<polygon fill="none" stroke="black" points="164,-0.5 164,-19.5 282,-19.5 282,-0.5 164,-0.5"/>
<text text-anchor="middle" x="223" y="-7.5" font-family="Helvetica,sans-Serif" font-size="10.00">fitdatamessages.cpp</text>
</a>
</g>
</g>
<!-- Node1&#45;&gt;Node3 -->
<g id="edge2" class="edge">
<title>Node1&#45;&gt;Node3</title>
<path fill="none" stroke="midnightblue" d="M168.31,-50.38C181.86,-40.62 199.24,-28.11 210.73,-19.83"/>
<polygon fill="midnightblue" stroke="midnightblue" points="166.12,-47.64 160.05,-56.32 170.21,-53.32 166.12,-47.64"/>
</g>
</g>
</svg>
