<?xml version="1.0" encoding="UTF-8" standalone="no"?>
<!DOCTYPE svg PUBLIC "-//W3C//DTD SVG 1.1//EN"
 "http://www.w3.org/Graphics/SVG/1.1/DTD/svg11.dtd">
<!-- Generated by graphviz version 2.43.0 (0)
 -->
<!-- Title: FitDataMessage::isNull Pages: 1 -->
<svg width="353pt" height="66pt"
 viewBox="0.00 0.00 353.00 66.00" xmlns="http://www.w3.org/2000/svg" xmlns:xlink="http://www.w3.org/1999/xlink">
<g id="graph0" class="graph" transform="scale(1 1) rotate(0) translate(4 62)">
<title>FitDataMessage::isNull</title>
<!-- Node1 -->
<g id="node1" class="node">
<title>Node1</title>
<g id="a_node1"><a xlink:title="Returns true if this is not a valid data message, otherwise false.">
<polygon fill="#bfbfbf" stroke="black" points="216,-19.5 216,-38.5 345,-38.5 345,-19.5 216,-19.5"/>
<text text-anchor="middle" x="280.5" y="-26.5" font-family="Helvetica,sans-Serif" font-size="10.00">FitDataMessage::isNull</text>
</a>
</g>
</g>
<!-- Node2 -->
<g id="node2" class="node">
<title>Node2</title>
<g id="a_node2"><a xlink:href="classFitDataMessage.html#a46dd90c4c2605fe62601279c92779d99" target="_top" xlink:title="Copies a FitDataMessage.">
<polygon fill="none" stroke="black" points="0,-38.5 0,-57.5 180,-57.5 180,-38.5 0,-38.5"/>
<text text-anchor="middle" x="90" y="-45.5" font-family="Helvetica,sans-Serif" font-size="10.00">FitDataMessage::FitDataMessage</text>
</a>
</g>
</g>
<!-- Node1&#45;&gt;Node2 -->
<g id="edge1" class="edge">
<title>Node1&#45;&gt;Node2</title>
<path fill="none" stroke="midnightblue" d="M205.78,-36.43C197.34,-37.28 188.67,-38.16 180.05,-39.02"/>
<polygon fill="midnightblue" stroke="midnightblue" points="206.35,-39.89 215.95,-35.41 205.64,-32.93 206.35,-39.89"/>
</g>
<!-- Node3 -->
<g id="node3" class="node">
<title>Node3</title>
<g id="a_node3"><a xlink:href="classFitDataMessage.html#a7546b9d7d9696f6095592380afd9c680" target="_top" xlink:title="Assigns a FitDataMessage to this one.">
<polygon fill="none" stroke="black" points="14.5,-0.5 14.5,-19.5 165.5,-19.5 165.5,-0.5 14.5,-0.5"/>
<text text-anchor="middle" x="90" y="-7.5" font-family="Helvetica,sans-Serif" font-size="10.00">FitDataMessage::operator=</text>
</a>
</g>
</g>
<!-- Node1&#45;&gt;Node3 -->
<g id="edge2" class="edge">
<title>Node1&#45;&gt;Node3</title>
<path fill="none" stroke="midnightblue" d="M205.96,-21.59C192.74,-20.25 178.94,-18.86 165.68,-17.53"/>
<polygon fill="midnightblue" stroke="midnightblue" points="205.64,-25.07 215.95,-22.59 206.35,-18.11 205.64,-25.07"/>
</g>
</g>
</svg>
