<?xml version="1.0" encoding="UTF-8" standalone="no"?>
<!DOCTYPE svg PUBLIC "-//W3C//DTD SVG 1.1//EN"
 "http://www.w3.org/Graphics/SVG/1.1/DTD/svg11.dtd">
<!-- Generated by graphviz version 2.43.0 (0)
 -->
<!-- Title: climbpromessage.cpp Pages: 1 -->
<svg width="381pt" height="308pt"
 viewBox="0.00 0.00 381.00 308.00" xmlns="http://www.w3.org/2000/svg" xmlns:xlink="http://www.w3.org/1999/xlink">
<g id="graph0" class="graph" transform="scale(1 1) rotate(0) translate(4 304)">
<title>climbpromessage.cpp</title>
<!-- Node1 -->
<g id="node1" class="node">
<title>Node1</title>
<g id="a_node1"><a xlink:title=" ">
<polygon fill="#bfbfbf" stroke="black" points="124.5,-280.5 124.5,-299.5 248.5,-299.5 248.5,-280.5 124.5,-280.5"/>
<text text-anchor="middle" x="186.5" y="-287.5" font-family="Helvetica,sans-Serif" font-size="10.00">climbpromessage.cpp</text>
</a>
</g>
</g>
<!-- Node2 -->
<g id="node2" class="node">
<title>Node2</title>
<g id="a_node2"><a xlink:href="climbpromessage_8h.html" target="_top" xlink:title=" ">
<polygon fill="none" stroke="black" points="0,-224.5 0,-243.5 113,-243.5 113,-224.5 0,-224.5"/>
<text text-anchor="middle" x="56.5" y="-231.5" font-family="Helvetica,sans-Serif" font-size="10.00">climbpromessage.h</text>
</a>
</g>
</g>
<!-- Node1&#45;&gt;Node2 -->
<g id="edge1" class="edge">
<title>Node1&#45;&gt;Node2</title>
<path fill="none" stroke="midnightblue" d="M165.9,-280.44C144.51,-271.56 110.82,-257.56 86.48,-247.45"/>
<polygon fill="midnightblue" stroke="midnightblue" points="87.58,-244.12 77,-243.52 84.89,-250.58 87.58,-244.12"/>
</g>
<!-- Node7 -->
<g id="node7" class="node">
<title>Node7</title>
<g id="a_node7"><a xlink:title=" ">
<polygon fill="none" stroke="#bfbfbf" points="107.5,-56.5 107.5,-75.5 163.5,-75.5 163.5,-56.5 107.5,-56.5"/>
<text text-anchor="middle" x="135.5" y="-63.5" font-family="Helvetica,sans-Serif" font-size="10.00">QDebug</text>
</a>
</g>
</g>
<!-- Node1&#45;&gt;Node7 -->
<g id="edge9" class="edge">
<title>Node1&#45;&gt;Node7</title>
<path fill="none" stroke="midnightblue" d="M180.03,-280.19C173.96,-271.46 165.15,-257.48 160.5,-244 141.4,-188.63 136.88,-118.69 135.82,-85.76"/>
<polygon fill="midnightblue" stroke="midnightblue" points="139.31,-85.66 135.57,-75.75 132.32,-85.83 139.31,-85.66"/>
</g>
<!-- Node8 -->
<g id="node8" class="node">
<title>Node8</title>
<g id="a_node8"><a xlink:title=" ">
<polygon fill="none" stroke="#bfbfbf" points="169.5,-224.5 169.5,-243.5 293.5,-243.5 293.5,-224.5 169.5,-224.5"/>
<text text-anchor="middle" x="231.5" y="-231.5" font-family="Helvetica,sans-Serif" font-size="10.00">climbpromessage_p.h</text>
</a>
</g>
</g>
<!-- Node1&#45;&gt;Node8 -->
<g id="edge8" class="edge">
<title>Node1&#45;&gt;Node8</title>
<path fill="none" stroke="midnightblue" d="M193.93,-280.08C200.35,-272.38 209.81,-261.03 217.62,-251.65"/>
<polygon fill="midnightblue" stroke="midnightblue" points="220.49,-253.67 224.21,-243.75 215.12,-249.19 220.49,-253.67"/>
</g>
<!-- Node9 -->
<g id="node9" class="node">
<title>Node9</title>
<g id="a_node9"><a xlink:title=" ">
<polygon fill="none" stroke="#bfbfbf" points="312,-224.5 312,-243.5 373,-243.5 373,-224.5 312,-224.5"/>
<text text-anchor="middle" x="342.5" y="-231.5" font-family="Helvetica,sans-Serif" font-size="10.00">QtEndian</text>
</a>
</g>
</g>
<!-- Node1&#45;&gt;Node9 -->
<g id="edge10" class="edge">
<title>Node1&#45;&gt;Node9</title>
<path fill="none" stroke="midnightblue" d="M211.22,-280.44C237.35,-271.4 278.76,-257.06 308.08,-246.92"/>
<polygon fill="midnightblue" stroke="midnightblue" points="309.59,-250.1 317.9,-243.52 307.3,-243.48 309.59,-250.1"/>
</g>
<!-- Node3 -->
<g id="node3" class="node">
<title>Node3</title>
<g id="a_node3"><a xlink:href="fitdatamessage_8h_source.html" target="_top" xlink:title=" ">
<polygon fill="none" stroke="black" points="6,-168.5 6,-187.5 107,-187.5 107,-168.5 6,-168.5"/>
<text text-anchor="middle" x="56.5" y="-175.5" font-family="Helvetica,sans-Serif" font-size="10.00">fitdatamessage.h</text>
</a>
</g>
</g>
<!-- Node2&#45;&gt;Node3 -->
<g id="edge2" class="edge">
<title>Node2&#45;&gt;Node3</title>
<path fill="none" stroke="midnightblue" d="M56.5,-224.08C56.5,-217.01 56.5,-206.86 56.5,-197.99"/>
<polygon fill="midnightblue" stroke="midnightblue" points="60,-197.75 56.5,-187.75 53,-197.75 60,-197.75"/>
</g>
<!-- Node4 -->
<g id="node4" class="node">
<title>Node4</title>
<g id="a_node4"><a xlink:href="QtFit__global_8h_source.html" target="_top" xlink:title=" ">
<polygon fill="none" stroke="black" points="0.5,-56.5 0.5,-75.5 84.5,-75.5 84.5,-56.5 0.5,-56.5"/>
<text text-anchor="middle" x="42.5" y="-63.5" font-family="Helvetica,sans-Serif" font-size="10.00">QtFit_global.h</text>
</a>
</g>
</g>
<!-- Node3&#45;&gt;Node4 -->
<g id="edge3" class="edge">
<title>Node3&#45;&gt;Node4</title>
<path fill="none" stroke="midnightblue" d="M55.32,-168.38C54.1,-159.32 52.12,-144.66 50.5,-132 48.51,-116.47 46.35,-98.85 44.77,-85.87"/>
<polygon fill="midnightblue" stroke="midnightblue" points="48.23,-85.34 43.56,-75.83 41.28,-86.18 48.23,-85.34"/>
</g>
<!-- Node6 -->
<g id="node6" class="node">
<title>Node6</title>
<g id="a_node6"><a xlink:href="types_8h.html" target="_top" xlink:title="Types defined by the ANT+ FIT SDK.">
<polygon fill="none" stroke="black" points="60,-112.5 60,-131.5 113,-131.5 113,-112.5 60,-112.5"/>
<text text-anchor="middle" x="86.5" y="-119.5" font-family="Helvetica,sans-Serif" font-size="10.00">types.h</text>
</a>
</g>
</g>
<!-- Node3&#45;&gt;Node6 -->
<g id="edge5" class="edge">
<title>Node3&#45;&gt;Node6</title>
<path fill="none" stroke="midnightblue" d="M61.45,-168.08C65.6,-160.61 71.65,-149.72 76.77,-140.52"/>
<polygon fill="midnightblue" stroke="midnightblue" points="79.84,-142.19 81.64,-131.75 73.72,-138.79 79.84,-142.19"/>
</g>
<!-- Node5 -->
<g id="node5" class="node">
<title>Node5</title>
<g id="a_node5"><a xlink:title=" ">
<polygon fill="none" stroke="#bfbfbf" points="13,-0.5 13,-19.5 72,-19.5 72,-0.5 13,-0.5"/>
<text text-anchor="middle" x="42.5" y="-7.5" font-family="Helvetica,sans-Serif" font-size="10.00">QtGlobal</text>
</a>
</g>
</g>
<!-- Node4&#45;&gt;Node5 -->
<g id="edge4" class="edge">
<title>Node4&#45;&gt;Node5</title>
<path fill="none" stroke="midnightblue" d="M42.5,-56.08C42.5,-49.01 42.5,-38.86 42.5,-29.99"/>
<polygon fill="midnightblue" stroke="midnightblue" points="46,-29.75 42.5,-19.75 39,-29.75 46,-29.75"/>
</g>
<!-- Node6&#45;&gt;Node4 -->
<g id="edge6" class="edge">
<title>Node6&#45;&gt;Node4</title>
<path fill="none" stroke="midnightblue" d="M79.23,-112.08C72.96,-104.38 63.71,-93.03 56.07,-83.65"/>
<polygon fill="midnightblue" stroke="midnightblue" points="58.66,-81.29 49.63,-75.75 53.23,-85.71 58.66,-81.29"/>
</g>
<!-- Node6&#45;&gt;Node7 -->
<g id="edge7" class="edge">
<title>Node6&#45;&gt;Node7</title>
<path fill="none" stroke="midnightblue" d="M94.59,-112.08C101.66,-104.3 112.09,-92.8 120.65,-83.37"/>
<polygon fill="midnightblue" stroke="midnightblue" points="123.43,-85.51 127.56,-75.75 118.25,-80.8 123.43,-85.51"/>
</g>
</g>
</svg>
