<?xml version="1.0" encoding="UTF-8" standalone="no"?>
<!DOCTYPE svg PUBLIC "-//W3C//DTD SVG 1.1//EN"
 "http://www.w3.org/Graphics/SVG/1.1/DTD/svg11.dtd">
<!-- Generated by graphviz version 2.43.0 (0)
 -->
<!-- Title: climbpromessage.cpp Pages: 1 -->
<svg width="417pt" height="308pt"
 viewBox="0.00 0.00 417.00 308.00" xmlns="http://www.w3.org/2000/svg" xmlns:xlink="http://www.w3.org/1999/xlink">
<g id="graph0" class="graph" transform="scale(1 1) rotate(0) translate(4 304)">
<title>climbpromessage.cpp</title>
<!-- Node1 -->
<g id="node1" class="node">
<title>Node1</title>
<g id="a_node1"><a xlink:title=" ">
<polygon fill="#bfbfbf" stroke="black" points="185.5,-280.5 185.5,-299.5 309.5,-299.5 309.5,-280.5 185.5,-280.5"/>
<text text-anchor="middle" x="247.5" y="-287.5" font-family="Helvetica,sans-Serif" font-size="10.00">climbpromessage.cpp</text>
</a>
</g>
</g>
<!-- Node2 -->
<g id="node2" class="node">
<title>Node2</title>
<g id="a_node2"><a xlink:href="climbpromessage_8h.html" target="_top" xlink:title=" ">
<polygon fill="none" stroke="black" points="0,-224.5 0,-243.5 113,-243.5 113,-224.5 0,-224.5"/>
<text text-anchor="middle" x="56.5" y="-231.5" font-family="Helvetica,sans-Serif" font-size="10.00">climbpromessage.h</text>
</a>
</g>
</g>
<!-- Node1&#45;&gt;Node2 -->
<g id="edge1" class="edge">
<title>Node1&#45;&gt;Node2</title>
<path fill="none" stroke="midnightblue" d="M217.24,-280.44C184.54,-271.2 132.32,-256.44 96.32,-246.26"/>
<polygon fill="midnightblue" stroke="midnightblue" points="97.2,-242.87 86.62,-243.52 95.29,-249.61 97.2,-242.87"/>
</g>
<!-- Node7 -->
<g id="node7" class="node">
<title>Node7</title>
<g id="a_node7"><a xlink:title=" ">
<polygon fill="none" stroke="#bfbfbf" points="131.5,-224.5 131.5,-243.5 255.5,-243.5 255.5,-224.5 131.5,-224.5"/>
<text text-anchor="middle" x="193.5" y="-231.5" font-family="Helvetica,sans-Serif" font-size="10.00">climbpromessage_p.h</text>
</a>
</g>
</g>
<!-- Node1&#45;&gt;Node7 -->
<g id="edge7" class="edge">
<title>Node1&#45;&gt;Node7</title>
<path fill="none" stroke="midnightblue" d="M238.58,-280.08C230.72,-272.22 219.07,-260.57 209.58,-251.08"/>
<polygon fill="midnightblue" stroke="midnightblue" points="211.8,-248.35 202.25,-243.75 206.85,-253.3 211.8,-248.35"/>
</g>
<!-- Node8 -->
<g id="node8" class="node">
<title>Node8</title>
<g id="a_node8"><a xlink:title=" ">
<polygon fill="none" stroke="#bfbfbf" points="273.5,-224.5 273.5,-243.5 329.5,-243.5 329.5,-224.5 273.5,-224.5"/>
<text text-anchor="middle" x="301.5" y="-231.5" font-family="Helvetica,sans-Serif" font-size="10.00">QDebug</text>
</a>
</g>
</g>
<!-- Node1&#45;&gt;Node8 -->
<g id="edge8" class="edge">
<title>Node1&#45;&gt;Node8</title>
<path fill="none" stroke="midnightblue" d="M256.42,-280.08C264.28,-272.22 275.93,-260.57 285.42,-251.08"/>
<polygon fill="midnightblue" stroke="midnightblue" points="288.15,-253.3 292.75,-243.75 283.2,-248.35 288.15,-253.3"/>
</g>
<!-- Node9 -->
<g id="node9" class="node">
<title>Node9</title>
<g id="a_node9"><a xlink:title=" ">
<polygon fill="none" stroke="#bfbfbf" points="348,-224.5 348,-243.5 409,-243.5 409,-224.5 348,-224.5"/>
<text text-anchor="middle" x="378.5" y="-231.5" font-family="Helvetica,sans-Serif" font-size="10.00">QtEndian</text>
</a>
</g>
</g>
<!-- Node1&#45;&gt;Node9 -->
<g id="edge9" class="edge">
<title>Node1&#45;&gt;Node9</title>
<path fill="none" stroke="midnightblue" d="M268.26,-280.44C289.82,-271.56 323.76,-257.56 348.29,-247.45"/>
<polygon fill="midnightblue" stroke="midnightblue" points="349.93,-250.56 357.84,-243.52 347.26,-244.09 349.93,-250.56"/>
</g>
<!-- Node3 -->
<g id="node3" class="node">
<title>Node3</title>
<g id="a_node3"><a xlink:href="fitdatamessage_8h_source.html" target="_top" xlink:title=" ">
<polygon fill="none" stroke="black" points="6,-168.5 6,-187.5 107,-187.5 107,-168.5 6,-168.5"/>
<text text-anchor="middle" x="56.5" y="-175.5" font-family="Helvetica,sans-Serif" font-size="10.00">fitdatamessage.h</text>
</a>
</g>
</g>
<!-- Node2&#45;&gt;Node3 -->
<g id="edge2" class="edge">
<title>Node2&#45;&gt;Node3</title>
<path fill="none" stroke="midnightblue" d="M56.5,-224.08C56.5,-217.01 56.5,-206.86 56.5,-197.99"/>
<polygon fill="midnightblue" stroke="midnightblue" points="60,-197.75 56.5,-187.75 53,-197.75 60,-197.75"/>
</g>
<!-- Node4 -->
<g id="node4" class="node">
<title>Node4</title>
<g id="a_node4"><a xlink:href="QtFit__global_8h_source.html" target="_top" xlink:title=" ">
<polygon fill="none" stroke="black" points="14.5,-56.5 14.5,-75.5 98.5,-75.5 98.5,-56.5 14.5,-56.5"/>
<text text-anchor="middle" x="56.5" y="-63.5" font-family="Helvetica,sans-Serif" font-size="10.00">QtFit_global.h</text>
</a>
</g>
</g>
<!-- Node3&#45;&gt;Node4 -->
<g id="edge3" class="edge">
<title>Node3&#45;&gt;Node4</title>
<path fill="none" stroke="midnightblue" d="M54.76,-168.42C53.03,-159.4 50.49,-144.77 49.5,-132 48.3,-116.42 50.41,-98.8 52.62,-85.84"/>
<polygon fill="midnightblue" stroke="midnightblue" points="56.1,-86.29 54.51,-75.82 49.22,-84.99 56.1,-86.29"/>
</g>
<!-- Node6 -->
<g id="node6" class="node">
<title>Node6</title>
<g id="a_node6"><a xlink:href="types_8h.html" target="_top" xlink:title="Types defined by the ANT+ FIT SDK.">
<polygon fill="none" stroke="black" points="58,-112.5 58,-131.5 111,-131.5 111,-112.5 58,-112.5"/>
<text text-anchor="middle" x="84.5" y="-119.5" font-family="Helvetica,sans-Serif" font-size="10.00">types.h</text>
</a>
</g>
</g>
<!-- Node3&#45;&gt;Node6 -->
<g id="edge5" class="edge">
<title>Node3&#45;&gt;Node6</title>
<path fill="none" stroke="midnightblue" d="M61.12,-168.08C64.96,-160.69 70.52,-149.95 75.26,-140.81"/>
<polygon fill="midnightblue" stroke="midnightblue" points="78.47,-142.24 79.96,-131.75 72.25,-139.02 78.47,-142.24"/>
</g>
<!-- Node5 -->
<g id="node5" class="node">
<title>Node5</title>
<g id="a_node5"><a xlink:title=" ">
<polygon fill="none" stroke="#bfbfbf" points="27,-0.5 27,-19.5 86,-19.5 86,-0.5 27,-0.5"/>
<text text-anchor="middle" x="56.5" y="-7.5" font-family="Helvetica,sans-Serif" font-size="10.00">QtGlobal</text>
</a>
</g>
</g>
<!-- Node4&#45;&gt;Node5 -->
<g id="edge4" class="edge">
<title>Node4&#45;&gt;Node5</title>
<path fill="none" stroke="midnightblue" d="M56.5,-56.08C56.5,-49.01 56.5,-38.86 56.5,-29.99"/>
<polygon fill="midnightblue" stroke="midnightblue" points="60,-29.75 56.5,-19.75 53,-29.75 60,-29.75"/>
</g>
<!-- Node6&#45;&gt;Node4 -->
<g id="edge6" class="edge">
<title>Node6&#45;&gt;Node4</title>
<path fill="none" stroke="midnightblue" d="M79.88,-112.08C76.04,-104.69 70.48,-93.95 65.74,-84.81"/>
<polygon fill="midnightblue" stroke="midnightblue" points="68.75,-83.02 61.04,-75.75 62.53,-86.24 68.75,-83.02"/>
</g>
</g>
</svg>
