<?xml version="1.0" encoding="UTF-8" standalone="no"?>
<!DOCTYPE svg PUBLIC "-//W3C//DTD SVG 1.1//EN"
 "http://www.w3.org/Graphics/SVG/1.1/DTD/svg11.dtd">
<!-- Generated by graphviz version 2.43.0 (0)
 -->
<!-- Title: connectivitymessage.cpp Pages: 1 -->
<svg width="415pt" height="308pt"
 viewBox="0.00 0.00 414.50 308.00" xmlns="http://www.w3.org/2000/svg" xmlns:xlink="http://www.w3.org/1999/xlink">
<g id="graph0" class="graph" transform="scale(1 1) rotate(0) translate(4 304)">
<title>connectivitymessage.cpp</title>
<!-- Node1 -->
<g id="node1" class="node">
<title>Node1</title>
<g id="a_node1"><a xlink:title=" ">
<polygon fill="#bfbfbf" stroke="black" points="136.5,-280.5 136.5,-299.5 277.5,-299.5 277.5,-280.5 136.5,-280.5"/>
<text text-anchor="middle" x="207" y="-287.5" font-family="Helvetica,sans-Serif" font-size="10.00">connectivitymessage.cpp</text>
</a>
</g>
</g>
<!-- Node2 -->
<g id="node2" class="node">
<title>Node2</title>
<g id="a_node2"><a xlink:href="connectivitymessage_8h.html" target="_top" xlink:title=" ">
<polygon fill="none" stroke="black" points="0,-224.5 0,-243.5 130,-243.5 130,-224.5 0,-224.5"/>
<text text-anchor="middle" x="65" y="-231.5" font-family="Helvetica,sans-Serif" font-size="10.00">connectivitymessage.h</text>
</a>
</g>
</g>
<!-- Node1&#45;&gt;Node2 -->
<g id="edge1" class="edge">
<title>Node1&#45;&gt;Node2</title>
<path fill="none" stroke="midnightblue" d="M184.5,-280.44C160.92,-271.48 123.68,-257.31 97.04,-247.18"/>
<polygon fill="midnightblue" stroke="midnightblue" points="97.99,-243.8 87.4,-243.52 95.5,-250.34 97.99,-243.8"/>
</g>
<!-- Node7 -->
<g id="node7" class="node">
<title>Node7</title>
<g id="a_node7"><a xlink:title=" ">
<polygon fill="none" stroke="#bfbfbf" points="124,-56.5 124,-75.5 180,-75.5 180,-56.5 124,-56.5"/>
<text text-anchor="middle" x="152" y="-63.5" font-family="Helvetica,sans-Serif" font-size="10.00">QDebug</text>
</a>
</g>
</g>
<!-- Node1&#45;&gt;Node7 -->
<g id="edge9" class="edge">
<title>Node1&#45;&gt;Node7</title>
<path fill="none" stroke="midnightblue" d="M199.77,-280.31C193,-271.67 183.16,-257.75 178,-244 157.4,-189.12 153.04,-118.95 152.17,-85.87"/>
<polygon fill="midnightblue" stroke="midnightblue" points="155.67,-85.73 151.99,-75.8 148.67,-85.86 155.67,-85.73"/>
</g>
<!-- Node8 -->
<g id="node8" class="node">
<title>Node8</title>
<g id="a_node8"><a xlink:title=" ">
<polygon fill="none" stroke="#bfbfbf" points="186.5,-224.5 186.5,-243.5 327.5,-243.5 327.5,-224.5 186.5,-224.5"/>
<text text-anchor="middle" x="257" y="-231.5" font-family="Helvetica,sans-Serif" font-size="10.00">connectivitymessage_p.h</text>
</a>
</g>
</g>
<!-- Node1&#45;&gt;Node8 -->
<g id="edge8" class="edge">
<title>Node1&#45;&gt;Node8</title>
<path fill="none" stroke="midnightblue" d="M215.26,-280.08C222.46,-272.3 233.11,-260.8 241.85,-251.37"/>
<polygon fill="midnightblue" stroke="midnightblue" points="244.67,-253.47 248.9,-243.75 239.53,-248.71 244.67,-253.47"/>
</g>
<!-- Node9 -->
<g id="node9" class="node">
<title>Node9</title>
<g id="a_node9"><a xlink:title=" ">
<polygon fill="none" stroke="#bfbfbf" points="345.5,-224.5 345.5,-243.5 406.5,-243.5 406.5,-224.5 345.5,-224.5"/>
<text text-anchor="middle" x="376" y="-231.5" font-family="Helvetica,sans-Serif" font-size="10.00">QtEndian</text>
</a>
</g>
</g>
<!-- Node1&#45;&gt;Node9 -->
<g id="edge10" class="edge">
<title>Node1&#45;&gt;Node9</title>
<path fill="none" stroke="midnightblue" d="M233.78,-280.44C262.33,-271.32 307.73,-256.81 339.54,-246.65"/>
<polygon fill="midnightblue" stroke="midnightblue" points="340.89,-249.89 349.35,-243.52 338.76,-243.23 340.89,-249.89"/>
</g>
<!-- Node3 -->
<g id="node3" class="node">
<title>Node3</title>
<g id="a_node3"><a xlink:href="fitdatamessage_8h_source.html" target="_top" xlink:title=" ">
<polygon fill="none" stroke="black" points="14.5,-168.5 14.5,-187.5 115.5,-187.5 115.5,-168.5 14.5,-168.5"/>
<text text-anchor="middle" x="65" y="-175.5" font-family="Helvetica,sans-Serif" font-size="10.00">fitdatamessage.h</text>
</a>
</g>
</g>
<!-- Node2&#45;&gt;Node3 -->
<g id="edge2" class="edge">
<title>Node2&#45;&gt;Node3</title>
<path fill="none" stroke="midnightblue" d="M65,-224.08C65,-217.01 65,-206.86 65,-197.99"/>
<polygon fill="midnightblue" stroke="midnightblue" points="68.5,-197.75 65,-187.75 61.5,-197.75 68.5,-197.75"/>
</g>
<!-- Node4 -->
<g id="node4" class="node">
<title>Node4</title>
<g id="a_node4"><a xlink:href="QtFit__global_8h_source.html" target="_top" xlink:title=" ">
<polygon fill="none" stroke="black" points="17,-56.5 17,-75.5 101,-75.5 101,-56.5 17,-56.5"/>
<text text-anchor="middle" x="59" y="-63.5" font-family="Helvetica,sans-Serif" font-size="10.00">QtFit_global.h</text>
</a>
</g>
</g>
<!-- Node3&#45;&gt;Node4 -->
<g id="edge3" class="edge">
<title>Node3&#45;&gt;Node4</title>
<path fill="none" stroke="midnightblue" d="M64.53,-168.37C63.56,-150.62 61.33,-109.67 60.01,-85.6"/>
<polygon fill="midnightblue" stroke="midnightblue" points="63.51,-85.39 59.47,-75.59 56.52,-85.77 63.51,-85.39"/>
</g>
<!-- Node6 -->
<g id="node6" class="node">
<title>Node6</title>
<g id="a_node6"><a xlink:href="types_8h.html" target="_top" xlink:title="Types defined by the ANT+ FIT SDK.">
<polygon fill="none" stroke="black" points="76.5,-112.5 76.5,-131.5 129.5,-131.5 129.5,-112.5 76.5,-112.5"/>
<text text-anchor="middle" x="103" y="-119.5" font-family="Helvetica,sans-Serif" font-size="10.00">types.h</text>
</a>
</g>
</g>
<!-- Node3&#45;&gt;Node6 -->
<g id="edge5" class="edge">
<title>Node3&#45;&gt;Node6</title>
<path fill="none" stroke="midnightblue" d="M71.27,-168.08C76.64,-160.46 84.52,-149.26 91.08,-139.94"/>
<polygon fill="midnightblue" stroke="midnightblue" points="93.95,-141.94 96.84,-131.75 88.22,-137.91 93.95,-141.94"/>
</g>
<!-- Node5 -->
<g id="node5" class="node">
<title>Node5</title>
<g id="a_node5"><a xlink:title=" ">
<polygon fill="none" stroke="#bfbfbf" points="29.5,-0.5 29.5,-19.5 88.5,-19.5 88.5,-0.5 29.5,-0.5"/>
<text text-anchor="middle" x="59" y="-7.5" font-family="Helvetica,sans-Serif" font-size="10.00">QtGlobal</text>
</a>
</g>
</g>
<!-- Node4&#45;&gt;Node5 -->
<g id="edge4" class="edge">
<title>Node4&#45;&gt;Node5</title>
<path fill="none" stroke="midnightblue" d="M59,-56.08C59,-49.01 59,-38.86 59,-29.99"/>
<polygon fill="midnightblue" stroke="midnightblue" points="62.5,-29.75 59,-19.75 55.5,-29.75 62.5,-29.75"/>
</g>
<!-- Node6&#45;&gt;Node4 -->
<g id="edge6" class="edge">
<title>Node6&#45;&gt;Node4</title>
<path fill="none" stroke="midnightblue" d="M95.73,-112.08C89.46,-104.38 80.21,-93.03 72.57,-83.65"/>
<polygon fill="midnightblue" stroke="midnightblue" points="75.16,-81.29 66.13,-75.75 69.73,-85.71 75.16,-81.29"/>
</g>
<!-- Node6&#45;&gt;Node7 -->
<g id="edge7" class="edge">
<title>Node6&#45;&gt;Node7</title>
<path fill="none" stroke="midnightblue" d="M111.09,-112.08C118.16,-104.3 128.59,-92.8 137.15,-83.37"/>
<polygon fill="midnightblue" stroke="midnightblue" points="139.93,-85.51 144.06,-75.75 134.75,-80.8 139.93,-85.51"/>
</g>
</g>
</svg>
