<?xml version="1.0" encoding="UTF-8" standalone="no"?>
<!DOCTYPE svg PUBLIC "-//W3C//DTD SVG 1.1//EN"
 "http://www.w3.org/Graphics/SVG/1.1/DTD/svg11.dtd">
<!-- Generated by graphviz version 2.43.0 (0)
 -->
<!-- Title: coursemessage.h Pages: 1 -->
<svg width="114pt" height="252pt"
 viewBox="0.00 0.00 113.50 252.00" xmlns="http://www.w3.org/2000/svg" xmlns:xlink="http://www.w3.org/1999/xlink">
<g id="graph0" class="graph" transform="scale(1 1) rotate(0) translate(4 248)">
<title>coursemessage.h</title>
<!-- Node1 -->
<g id="node1" class="node">
<title>Node1</title>
<g id="a_node1"><a xlink:title=" ">
<polygon fill="#bfbfbf" stroke="black" points="0,-224.5 0,-243.5 102,-243.5 102,-224.5 0,-224.5"/>
<text text-anchor="middle" x="51" y="-231.5" font-family="Helvetica,sans-Serif" font-size="10.00">coursemessage.h</text>
</a>
</g>
</g>
<!-- Node2 -->
<g id="node2" class="node">
<title>Node2</title>
<g id="a_node2"><a xlink:href="fitdatamessage_8h_source.html" target="_top" xlink:title=" ">
<polygon fill="none" stroke="black" points="0.5,-168.5 0.5,-187.5 101.5,-187.5 101.5,-168.5 0.5,-168.5"/>
<text text-anchor="middle" x="51" y="-175.5" font-family="Helvetica,sans-Serif" font-size="10.00">fitdatamessage.h</text>
</a>
</g>
</g>
<!-- Node1&#45;&gt;Node2 -->
<g id="edge1" class="edge">
<title>Node1&#45;&gt;Node2</title>
<path fill="none" stroke="midnightblue" d="M51,-224.08C51,-217.01 51,-206.86 51,-197.99"/>
<polygon fill="midnightblue" stroke="midnightblue" points="54.5,-197.75 51,-187.75 47.5,-197.75 54.5,-197.75"/>
</g>
<!-- Node3 -->
<g id="node3" class="node">
<title>Node3</title>
<g id="a_node3"><a xlink:href="QtFit__global_8h_source.html" target="_top" xlink:title=" ">
<polygon fill="none" stroke="black" points="9,-56.5 9,-75.5 93,-75.5 93,-56.5 9,-56.5"/>
<text text-anchor="middle" x="51" y="-63.5" font-family="Helvetica,sans-Serif" font-size="10.00">QtFit_global.h</text>
</a>
</g>
</g>
<!-- Node2&#45;&gt;Node3 -->
<g id="edge2" class="edge">
<title>Node2&#45;&gt;Node3</title>
<path fill="none" stroke="midnightblue" d="M49.26,-168.42C47.53,-159.4 44.99,-144.77 44,-132 42.8,-116.42 44.91,-98.8 47.12,-85.84"/>
<polygon fill="midnightblue" stroke="midnightblue" points="50.6,-86.29 49.01,-75.82 43.72,-84.99 50.6,-86.29"/>
</g>
<!-- Node5 -->
<g id="node5" class="node">
<title>Node5</title>
<g id="a_node5"><a xlink:href="types_8h.html" target="_top" xlink:title="Types defined by the ANT+ FIT SDK.">
<polygon fill="none" stroke="black" points="52.5,-112.5 52.5,-131.5 105.5,-131.5 105.5,-112.5 52.5,-112.5"/>
<text text-anchor="middle" x="79" y="-119.5" font-family="Helvetica,sans-Serif" font-size="10.00">types.h</text>
</a>
</g>
</g>
<!-- Node2&#45;&gt;Node5 -->
<g id="edge4" class="edge">
<title>Node2&#45;&gt;Node5</title>
<path fill="none" stroke="midnightblue" d="M55.62,-168.08C59.46,-160.69 65.02,-149.95 69.76,-140.81"/>
<polygon fill="midnightblue" stroke="midnightblue" points="72.97,-142.24 74.46,-131.75 66.75,-139.02 72.97,-142.24"/>
</g>
<!-- Node4 -->
<g id="node4" class="node">
<title>Node4</title>
<g id="a_node4"><a xlink:title=" ">
<polygon fill="none" stroke="#bfbfbf" points="21.5,-0.5 21.5,-19.5 80.5,-19.5 80.5,-0.5 21.5,-0.5"/>
<text text-anchor="middle" x="51" y="-7.5" font-family="Helvetica,sans-Serif" font-size="10.00">QtGlobal</text>
</a>
</g>
</g>
<!-- Node3&#45;&gt;Node4 -->
<g id="edge3" class="edge">
<title>Node3&#45;&gt;Node4</title>
<path fill="none" stroke="midnightblue" d="M51,-56.08C51,-49.01 51,-38.86 51,-29.99"/>
<polygon fill="midnightblue" stroke="midnightblue" points="54.5,-29.75 51,-19.75 47.5,-29.75 54.5,-29.75"/>
</g>
<!-- Node5&#45;&gt;Node3 -->
<g id="edge5" class="edge">
<title>Node5&#45;&gt;Node3</title>
<path fill="none" stroke="midnightblue" d="M74.38,-112.08C70.54,-104.69 64.98,-93.95 60.24,-84.81"/>
<polygon fill="midnightblue" stroke="midnightblue" points="63.25,-83.02 55.54,-75.75 57.03,-86.24 63.25,-83.02"/>
</g>
</g>
</svg>
