<?xml version="1.0" encoding="UTF-8" standalone="no"?>
<!DOCTYPE svg PUBLIC "-//W3C//DTD SVG 1.1//EN"
 "http://www.w3.org/Graphics/SVG/1.1/DTD/svg11.dtd">
<!-- Generated by graphviz version 2.43.0 (0)
 -->
<!-- Title: coursepointmessage.cpp Pages: 1 -->
<svg width="409pt" height="308pt"
 viewBox="0.00 0.00 409.00 308.00" xmlns="http://www.w3.org/2000/svg" xmlns:xlink="http://www.w3.org/1999/xlink">
<g id="graph0" class="graph" transform="scale(1 1) rotate(0) translate(4 304)">
<title>coursepointmessage.cpp</title>
<!-- Node1 -->
<g id="node1" class="node">
<title>Node1</title>
<g id="a_node1"><a xlink:title=" ">
<polygon fill="#bfbfbf" stroke="black" points="134.5,-280.5 134.5,-299.5 272.5,-299.5 272.5,-280.5 134.5,-280.5"/>
<text text-anchor="middle" x="203.5" y="-287.5" font-family="Helvetica,sans-Serif" font-size="10.00">coursepointmessage.cpp</text>
</a>
</g>
</g>
<!-- Node2 -->
<g id="node2" class="node">
<title>Node2</title>
<g id="a_node2"><a xlink:href="coursepointmessage_8h.html" target="_top" xlink:title=" ">
<polygon fill="none" stroke="black" points="0,-224.5 0,-243.5 127,-243.5 127,-224.5 0,-224.5"/>
<text text-anchor="middle" x="63.5" y="-231.5" font-family="Helvetica,sans-Serif" font-size="10.00">coursepointmessage.h</text>
</a>
</g>
</g>
<!-- Node1&#45;&gt;Node2 -->
<g id="edge1" class="edge">
<title>Node1&#45;&gt;Node2</title>
<path fill="none" stroke="midnightblue" d="M181.32,-280.44C158.07,-271.48 121.35,-257.31 95.08,-247.18"/>
<polygon fill="midnightblue" stroke="midnightblue" points="96.17,-243.85 85.58,-243.52 93.65,-250.38 96.17,-243.85"/>
</g>
<!-- Node7 -->
<g id="node7" class="node">
<title>Node7</title>
<g id="a_node7"><a xlink:title=" ">
<polygon fill="none" stroke="#bfbfbf" points="121.5,-56.5 121.5,-75.5 177.5,-75.5 177.5,-56.5 121.5,-56.5"/>
<text text-anchor="middle" x="149.5" y="-63.5" font-family="Helvetica,sans-Serif" font-size="10.00">QDebug</text>
</a>
</g>
</g>
<!-- Node1&#45;&gt;Node7 -->
<g id="edge9" class="edge">
<title>Node1&#45;&gt;Node7</title>
<path fill="none" stroke="midnightblue" d="M196.26,-280.32C189.47,-271.68 179.62,-257.76 174.5,-244 154.06,-189.1 150.17,-118.94 149.54,-85.86"/>
<polygon fill="midnightblue" stroke="midnightblue" points="153.04,-85.76 149.43,-75.8 146.04,-85.83 153.04,-85.76"/>
</g>
<!-- Node8 -->
<g id="node8" class="node">
<title>Node8</title>
<g id="a_node8"><a xlink:title=" ">
<polygon fill="none" stroke="#bfbfbf" points="183.5,-224.5 183.5,-243.5 321.5,-243.5 321.5,-224.5 183.5,-224.5"/>
<text text-anchor="middle" x="252.5" y="-231.5" font-family="Helvetica,sans-Serif" font-size="10.00">coursepointmessage_p.h</text>
</a>
</g>
</g>
<!-- Node1&#45;&gt;Node8 -->
<g id="edge8" class="edge">
<title>Node1&#45;&gt;Node8</title>
<path fill="none" stroke="midnightblue" d="M211.59,-280.08C218.66,-272.3 229.09,-260.8 237.65,-251.37"/>
<polygon fill="midnightblue" stroke="midnightblue" points="240.43,-253.51 244.56,-243.75 235.25,-248.8 240.43,-253.51"/>
</g>
<!-- Node9 -->
<g id="node9" class="node">
<title>Node9</title>
<g id="a_node9"><a xlink:title=" ">
<polygon fill="none" stroke="#bfbfbf" points="340,-224.5 340,-243.5 401,-243.5 401,-224.5 340,-224.5"/>
<text text-anchor="middle" x="370.5" y="-231.5" font-family="Helvetica,sans-Serif" font-size="10.00">QtEndian</text>
</a>
</g>
</g>
<!-- Node1&#45;&gt;Node9 -->
<g id="edge10" class="edge">
<title>Node1&#45;&gt;Node9</title>
<path fill="none" stroke="midnightblue" d="M229.96,-280.44C258.18,-271.32 303.04,-256.81 334.47,-246.65"/>
<polygon fill="midnightblue" stroke="midnightblue" points="335.72,-249.92 344.16,-243.52 333.57,-243.26 335.72,-249.92"/>
</g>
<!-- Node3 -->
<g id="node3" class="node">
<title>Node3</title>
<g id="a_node3"><a xlink:href="fitdatamessage_8h_source.html" target="_top" xlink:title=" ">
<polygon fill="none" stroke="black" points="13,-168.5 13,-187.5 114,-187.5 114,-168.5 13,-168.5"/>
<text text-anchor="middle" x="63.5" y="-175.5" font-family="Helvetica,sans-Serif" font-size="10.00">fitdatamessage.h</text>
</a>
</g>
</g>
<!-- Node2&#45;&gt;Node3 -->
<g id="edge2" class="edge">
<title>Node2&#45;&gt;Node3</title>
<path fill="none" stroke="midnightblue" d="M63.5,-224.08C63.5,-217.01 63.5,-206.86 63.5,-197.99"/>
<polygon fill="midnightblue" stroke="midnightblue" points="67,-197.75 63.5,-187.75 60,-197.75 67,-197.75"/>
</g>
<!-- Node4 -->
<g id="node4" class="node">
<title>Node4</title>
<g id="a_node4"><a xlink:href="QtFit__global_8h_source.html" target="_top" xlink:title=" ">
<polygon fill="none" stroke="black" points="14.5,-56.5 14.5,-75.5 98.5,-75.5 98.5,-56.5 14.5,-56.5"/>
<text text-anchor="middle" x="56.5" y="-63.5" font-family="Helvetica,sans-Serif" font-size="10.00">QtFit_global.h</text>
</a>
</g>
</g>
<!-- Node3&#45;&gt;Node4 -->
<g id="edge3" class="edge">
<title>Node3&#45;&gt;Node4</title>
<path fill="none" stroke="midnightblue" d="M62.95,-168.37C61.82,-150.62 59.22,-109.67 57.68,-85.6"/>
<polygon fill="midnightblue" stroke="midnightblue" points="61.17,-85.35 57.05,-75.59 54.19,-85.79 61.17,-85.35"/>
</g>
<!-- Node6 -->
<g id="node6" class="node">
<title>Node6</title>
<g id="a_node6"><a xlink:href="types_8h.html" target="_top" xlink:title="Types defined by the ANT+ FIT SDK.">
<polygon fill="none" stroke="black" points="74,-112.5 74,-131.5 127,-131.5 127,-112.5 74,-112.5"/>
<text text-anchor="middle" x="100.5" y="-119.5" font-family="Helvetica,sans-Serif" font-size="10.00">types.h</text>
</a>
</g>
</g>
<!-- Node3&#45;&gt;Node6 -->
<g id="edge5" class="edge">
<title>Node3&#45;&gt;Node6</title>
<path fill="none" stroke="midnightblue" d="M69.61,-168.08C74.78,-160.53 82.35,-149.49 88.69,-140.23"/>
<polygon fill="midnightblue" stroke="midnightblue" points="91.74,-141.98 94.5,-131.75 85.96,-138.02 91.74,-141.98"/>
</g>
<!-- Node5 -->
<g id="node5" class="node">
<title>Node5</title>
<g id="a_node5"><a xlink:title=" ">
<polygon fill="none" stroke="#bfbfbf" points="27,-0.5 27,-19.5 86,-19.5 86,-0.5 27,-0.5"/>
<text text-anchor="middle" x="56.5" y="-7.5" font-family="Helvetica,sans-Serif" font-size="10.00">QtGlobal</text>
</a>
</g>
</g>
<!-- Node4&#45;&gt;Node5 -->
<g id="edge4" class="edge">
<title>Node4&#45;&gt;Node5</title>
<path fill="none" stroke="midnightblue" d="M56.5,-56.08C56.5,-49.01 56.5,-38.86 56.5,-29.99"/>
<polygon fill="midnightblue" stroke="midnightblue" points="60,-29.75 56.5,-19.75 53,-29.75 60,-29.75"/>
</g>
<!-- Node6&#45;&gt;Node4 -->
<g id="edge6" class="edge">
<title>Node6&#45;&gt;Node4</title>
<path fill="none" stroke="midnightblue" d="M93.23,-112.08C86.96,-104.38 77.71,-93.03 70.07,-83.65"/>
<polygon fill="midnightblue" stroke="midnightblue" points="72.66,-81.29 63.63,-75.75 67.23,-85.71 72.66,-81.29"/>
</g>
<!-- Node6&#45;&gt;Node7 -->
<g id="edge7" class="edge">
<title>Node6&#45;&gt;Node7</title>
<path fill="none" stroke="midnightblue" d="M108.59,-112.08C115.66,-104.3 126.09,-92.8 134.65,-83.37"/>
<polygon fill="midnightblue" stroke="midnightblue" points="137.43,-85.51 141.56,-75.75 132.25,-80.8 137.43,-85.51"/>
</g>
</g>
</svg>
