<?xml version="1.0" encoding="UTF-8" standalone="no"?>
<!DOCTYPE svg PUBLIC "-//W3C//DTD SVG 1.1//EN"
 "http://www.w3.org/Graphics/SVG/1.1/DTD/svg11.dtd">
<!-- Generated by graphviz version 2.43.0 (0)
 -->
<!-- Title: coursepointmessage.cpp Pages: 1 -->
<svg width="292pt" height="308pt"
 viewBox="0.00 0.00 291.50 308.00" xmlns="http://www.w3.org/2000/svg" xmlns:xlink="http://www.w3.org/1999/xlink">
<g id="graph0" class="graph" transform="scale(1 1) rotate(0) translate(4 304)">
<title>coursepointmessage.cpp</title>
<!-- Node1 -->
<g id="node1" class="node">
<title>Node1</title>
<g id="a_node1"><a xlink:title=" ">
<polygon fill="#bfbfbf" stroke="black" points="69.5,-280.5 69.5,-299.5 207.5,-299.5 207.5,-280.5 69.5,-280.5"/>
<text text-anchor="middle" x="138.5" y="-287.5" font-family="Helvetica,sans-Serif" font-size="10.00">coursepointmessage.cpp</text>
</a>
</g>
</g>
<!-- Node2 -->
<g id="node2" class="node">
<title>Node2</title>
<g id="a_node2"><a xlink:href="coursepointmessage_8h.html" target="_top" xlink:title=" ">
<polygon fill="none" stroke="black" points="0,-224.5 0,-243.5 127,-243.5 127,-224.5 0,-224.5"/>
<text text-anchor="middle" x="63.5" y="-231.5" font-family="Helvetica,sans-Serif" font-size="10.00">coursepointmessage.h</text>
</a>
</g>
</g>
<!-- Node1&#45;&gt;Node2 -->
<g id="edge1" class="edge">
<title>Node1&#45;&gt;Node2</title>
<path fill="none" stroke="midnightblue" d="M126.45,-280.32C115.04,-272.11 97.67,-259.6 84.07,-249.81"/>
<polygon fill="midnightblue" stroke="midnightblue" points="85.93,-246.84 75.77,-243.83 81.84,-252.52 85.93,-246.84"/>
</g>
<!-- Node7 -->
<g id="node7" class="node">
<title>Node7</title>
<g id="a_node7"><a xlink:title=" ">
<polygon fill="none" stroke="#bfbfbf" points="145.5,-224.5 145.5,-243.5 283.5,-243.5 283.5,-224.5 145.5,-224.5"/>
<text text-anchor="middle" x="214.5" y="-231.5" font-family="Helvetica,sans-Serif" font-size="10.00">coursepointmessage_p.h</text>
</a>
</g>
</g>
<!-- Node1&#45;&gt;Node7 -->
<g id="edge7" class="edge">
<title>Node1&#45;&gt;Node7</title>
<path fill="none" stroke="midnightblue" d="M150.71,-280.32C162.28,-272.11 179.88,-259.6 193.66,-249.81"/>
<polygon fill="midnightblue" stroke="midnightblue" points="195.94,-252.48 202.07,-243.83 191.89,-246.77 195.94,-252.48"/>
</g>
<!-- Node3 -->
<g id="node3" class="node">
<title>Node3</title>
<g id="a_node3"><a xlink:href="fitdatamessage_8h_source.html" target="_top" xlink:title=" ">
<polygon fill="none" stroke="black" points="13,-168.5 13,-187.5 114,-187.5 114,-168.5 13,-168.5"/>
<text text-anchor="middle" x="63.5" y="-175.5" font-family="Helvetica,sans-Serif" font-size="10.00">fitdatamessage.h</text>
</a>
</g>
</g>
<!-- Node2&#45;&gt;Node3 -->
<g id="edge2" class="edge">
<title>Node2&#45;&gt;Node3</title>
<path fill="none" stroke="midnightblue" d="M63.5,-224.08C63.5,-217.01 63.5,-206.86 63.5,-197.99"/>
<polygon fill="midnightblue" stroke="midnightblue" points="67,-197.75 63.5,-187.75 60,-197.75 67,-197.75"/>
</g>
<!-- Node4 -->
<g id="node4" class="node">
<title>Node4</title>
<g id="a_node4"><a xlink:href="QtFit__global_8h_source.html" target="_top" xlink:title=" ">
<polygon fill="none" stroke="black" points="21.5,-56.5 21.5,-75.5 105.5,-75.5 105.5,-56.5 21.5,-56.5"/>
<text text-anchor="middle" x="63.5" y="-63.5" font-family="Helvetica,sans-Serif" font-size="10.00">QtFit_global.h</text>
</a>
</g>
</g>
<!-- Node3&#45;&gt;Node4 -->
<g id="edge3" class="edge">
<title>Node3&#45;&gt;Node4</title>
<path fill="none" stroke="midnightblue" d="M61.76,-168.42C60.03,-159.4 57.49,-144.77 56.5,-132 55.3,-116.42 57.41,-98.8 59.62,-85.84"/>
<polygon fill="midnightblue" stroke="midnightblue" points="63.1,-86.29 61.51,-75.82 56.22,-84.99 63.1,-86.29"/>
</g>
<!-- Node6 -->
<g id="node6" class="node">
<title>Node6</title>
<g id="a_node6"><a xlink:href="types_8h.html" target="_top" xlink:title="Types defined by the ANT+ FIT SDK.">
<polygon fill="none" stroke="black" points="65,-112.5 65,-131.5 118,-131.5 118,-112.5 65,-112.5"/>
<text text-anchor="middle" x="91.5" y="-119.5" font-family="Helvetica,sans-Serif" font-size="10.00">types.h</text>
</a>
</g>
</g>
<!-- Node3&#45;&gt;Node6 -->
<g id="edge5" class="edge">
<title>Node3&#45;&gt;Node6</title>
<path fill="none" stroke="midnightblue" d="M68.12,-168.08C71.96,-160.69 77.52,-149.95 82.26,-140.81"/>
<polygon fill="midnightblue" stroke="midnightblue" points="85.47,-142.24 86.96,-131.75 79.25,-139.02 85.47,-142.24"/>
</g>
<!-- Node5 -->
<g id="node5" class="node">
<title>Node5</title>
<g id="a_node5"><a xlink:title=" ">
<polygon fill="none" stroke="#bfbfbf" points="34,-0.5 34,-19.5 93,-19.5 93,-0.5 34,-0.5"/>
<text text-anchor="middle" x="63.5" y="-7.5" font-family="Helvetica,sans-Serif" font-size="10.00">QtGlobal</text>
</a>
</g>
</g>
<!-- Node4&#45;&gt;Node5 -->
<g id="edge4" class="edge">
<title>Node4&#45;&gt;Node5</title>
<path fill="none" stroke="midnightblue" d="M63.5,-56.08C63.5,-49.01 63.5,-38.86 63.5,-29.99"/>
<polygon fill="midnightblue" stroke="midnightblue" points="67,-29.75 63.5,-19.75 60,-29.75 67,-29.75"/>
</g>
<!-- Node6&#45;&gt;Node4 -->
<g id="edge6" class="edge">
<title>Node6&#45;&gt;Node4</title>
<path fill="none" stroke="midnightblue" d="M86.88,-112.08C83.04,-104.69 77.48,-93.95 72.74,-84.81"/>
<polygon fill="midnightblue" stroke="midnightblue" points="75.75,-83.02 68.04,-75.75 69.53,-86.24 75.75,-83.02"/>
</g>
</g>
</svg>
