<?xml version="1.0" encoding="UTF-8" standalone="no"?>
<!DOCTYPE svg PUBLIC "-//W3C//DTD SVG 1.1//EN"
 "http://www.w3.org/Graphics/SVG/1.1/DTD/svg11.dtd">
<!-- Generated by graphviz version 2.43.0 (0)
 -->
<!-- Title: developerdataidmessage.cpp Pages: 1 -->
<svg width="336pt" height="308pt"
 viewBox="0.00 0.00 336.00 308.00" xmlns="http://www.w3.org/2000/svg" xmlns:xlink="http://www.w3.org/1999/xlink">
<g id="graph0" class="graph" transform="scale(1 1) rotate(0) translate(4 304)">
<title>developerdataidmessage.cpp</title>
<!-- Node1 -->
<g id="node1" class="node">
<title>Node1</title>
<g id="a_node1"><a xlink:title=" ">
<polygon fill="#bfbfbf" stroke="black" points="80,-280.5 80,-299.5 241,-299.5 241,-280.5 80,-280.5"/>
<text text-anchor="middle" x="160.5" y="-287.5" font-family="Helvetica,sans-Serif" font-size="10.00">developerdataidmessage.cpp</text>
</a>
</g>
</g>
<!-- Node2 -->
<g id="node2" class="node">
<title>Node2</title>
<g id="a_node2"><a xlink:href="developerdataidmessage_8h.html" target="_top" xlink:title=" ">
<polygon fill="none" stroke="black" points="0,-224.5 0,-243.5 149,-243.5 149,-224.5 0,-224.5"/>
<text text-anchor="middle" x="74.5" y="-231.5" font-family="Helvetica,sans-Serif" font-size="10.00">developerdataidmessage.h</text>
</a>
</g>
</g>
<!-- Node1&#45;&gt;Node2 -->
<g id="edge1" class="edge">
<title>Node1&#45;&gt;Node2</title>
<path fill="none" stroke="midnightblue" d="M146.68,-280.32C133.27,-271.9 112.68,-258.97 96.91,-249.07"/>
<polygon fill="midnightblue" stroke="midnightblue" points="98.61,-246.01 88.28,-243.65 94.89,-251.94 98.61,-246.01"/>
</g>
<!-- Node7 -->
<g id="node7" class="node">
<title>Node7</title>
<g id="a_node7"><a xlink:title=" ">
<polygon fill="none" stroke="#bfbfbf" points="167,-224.5 167,-243.5 328,-243.5 328,-224.5 167,-224.5"/>
<text text-anchor="middle" x="247.5" y="-231.5" font-family="Helvetica,sans-Serif" font-size="10.00">developerdataidmessage_p.h</text>
</a>
</g>
</g>
<!-- Node1&#45;&gt;Node7 -->
<g id="edge7" class="edge">
<title>Node1&#45;&gt;Node7</title>
<path fill="none" stroke="midnightblue" d="M174.48,-280.32C188.05,-271.9 208.88,-258.97 224.82,-249.07"/>
<polygon fill="midnightblue" stroke="midnightblue" points="226.91,-251.9 233.56,-243.65 223.21,-245.95 226.91,-251.9"/>
</g>
<!-- Node3 -->
<g id="node3" class="node">
<title>Node3</title>
<g id="a_node3"><a xlink:href="fitdatamessage_8h_source.html" target="_top" xlink:title=" ">
<polygon fill="none" stroke="black" points="24,-168.5 24,-187.5 125,-187.5 125,-168.5 24,-168.5"/>
<text text-anchor="middle" x="74.5" y="-175.5" font-family="Helvetica,sans-Serif" font-size="10.00">fitdatamessage.h</text>
</a>
</g>
</g>
<!-- Node2&#45;&gt;Node3 -->
<g id="edge2" class="edge">
<title>Node2&#45;&gt;Node3</title>
<path fill="none" stroke="midnightblue" d="M74.5,-224.08C74.5,-217.01 74.5,-206.86 74.5,-197.99"/>
<polygon fill="midnightblue" stroke="midnightblue" points="78,-197.75 74.5,-187.75 71,-197.75 78,-197.75"/>
</g>
<!-- Node4 -->
<g id="node4" class="node">
<title>Node4</title>
<g id="a_node4"><a xlink:href="QtFit__global_8h_source.html" target="_top" xlink:title=" ">
<polygon fill="none" stroke="black" points="32.5,-56.5 32.5,-75.5 116.5,-75.5 116.5,-56.5 32.5,-56.5"/>
<text text-anchor="middle" x="74.5" y="-63.5" font-family="Helvetica,sans-Serif" font-size="10.00">QtFit_global.h</text>
</a>
</g>
</g>
<!-- Node3&#45;&gt;Node4 -->
<g id="edge3" class="edge">
<title>Node3&#45;&gt;Node4</title>
<path fill="none" stroke="midnightblue" d="M72.76,-168.42C71.03,-159.4 68.49,-144.77 67.5,-132 66.3,-116.42 68.41,-98.8 70.62,-85.84"/>
<polygon fill="midnightblue" stroke="midnightblue" points="74.1,-86.29 72.51,-75.82 67.22,-84.99 74.1,-86.29"/>
</g>
<!-- Node6 -->
<g id="node6" class="node">
<title>Node6</title>
<g id="a_node6"><a xlink:href="types_8h.html" target="_top" xlink:title="Types defined by the ANT+ FIT SDK.">
<polygon fill="none" stroke="black" points="76,-112.5 76,-131.5 129,-131.5 129,-112.5 76,-112.5"/>
<text text-anchor="middle" x="102.5" y="-119.5" font-family="Helvetica,sans-Serif" font-size="10.00">types.h</text>
</a>
</g>
</g>
<!-- Node3&#45;&gt;Node6 -->
<g id="edge5" class="edge">
<title>Node3&#45;&gt;Node6</title>
<path fill="none" stroke="midnightblue" d="M79.12,-168.08C82.96,-160.69 88.52,-149.95 93.26,-140.81"/>
<polygon fill="midnightblue" stroke="midnightblue" points="96.47,-142.24 97.96,-131.75 90.25,-139.02 96.47,-142.24"/>
</g>
<!-- Node5 -->
<g id="node5" class="node">
<title>Node5</title>
<g id="a_node5"><a xlink:title=" ">
<polygon fill="none" stroke="#bfbfbf" points="45,-0.5 45,-19.5 104,-19.5 104,-0.5 45,-0.5"/>
<text text-anchor="middle" x="74.5" y="-7.5" font-family="Helvetica,sans-Serif" font-size="10.00">QtGlobal</text>
</a>
</g>
</g>
<!-- Node4&#45;&gt;Node5 -->
<g id="edge4" class="edge">
<title>Node4&#45;&gt;Node5</title>
<path fill="none" stroke="midnightblue" d="M74.5,-56.08C74.5,-49.01 74.5,-38.86 74.5,-29.99"/>
<polygon fill="midnightblue" stroke="midnightblue" points="78,-29.75 74.5,-19.75 71,-29.75 78,-29.75"/>
</g>
<!-- Node6&#45;&gt;Node4 -->
<g id="edge6" class="edge">
<title>Node6&#45;&gt;Node4</title>
<path fill="none" stroke="midnightblue" d="M97.88,-112.08C94.04,-104.69 88.48,-93.95 83.74,-84.81"/>
<polygon fill="midnightblue" stroke="midnightblue" points="86.75,-83.02 79.04,-75.75 80.53,-86.24 86.75,-83.02"/>
</g>
</g>
</svg>
