<?xml version="1.0" encoding="UTF-8" standalone="no"?>
<!DOCTYPE svg PUBLIC "-//W3C//DTD SVG 1.1//EN"
 "http://www.w3.org/Graphics/SVG/1.1/DTD/svg11.dtd">
<!-- Generated by graphviz version 2.43.0 (0)
 -->
<!-- Title: developerdataidmessage.cpp Pages: 1 -->
<svg width="453pt" height="308pt"
 viewBox="0.00 0.00 453.00 308.00" xmlns="http://www.w3.org/2000/svg" xmlns:xlink="http://www.w3.org/1999/xlink">
<g id="graph0" class="graph" transform="scale(1 1) rotate(0) translate(4 304)">
<title>developerdataidmessage.cpp</title>
<!-- Node1 -->
<g id="node1" class="node">
<title>Node1</title>
<g id="a_node1"><a xlink:title=" ">
<polygon fill="#bfbfbf" stroke="black" points="150,-280.5 150,-299.5 311,-299.5 311,-280.5 150,-280.5"/>
<text text-anchor="middle" x="230.5" y="-287.5" font-family="Helvetica,sans-Serif" font-size="10.00">developerdataidmessage.cpp</text>
</a>
</g>
</g>
<!-- Node2 -->
<g id="node2" class="node">
<title>Node2</title>
<g id="a_node2"><a xlink:href="developerdataidmessage_8h.html" target="_top" xlink:title=" ">
<polygon fill="none" stroke="black" points="0,-224.5 0,-243.5 149,-243.5 149,-224.5 0,-224.5"/>
<text text-anchor="middle" x="74.5" y="-231.5" font-family="Helvetica,sans-Serif" font-size="10.00">developerdataidmessage.h</text>
</a>
</g>
</g>
<!-- Node1&#45;&gt;Node2 -->
<g id="edge1" class="edge">
<title>Node1&#45;&gt;Node2</title>
<path fill="none" stroke="midnightblue" d="M205.78,-280.44C179.65,-271.4 138.24,-257.06 108.92,-246.92"/>
<polygon fill="midnightblue" stroke="midnightblue" points="109.7,-243.48 99.1,-243.52 107.41,-250.1 109.7,-243.48"/>
</g>
<!-- Node7 -->
<g id="node7" class="node">
<title>Node7</title>
<g id="a_node7"><a xlink:title=" ">
<polygon fill="none" stroke="#bfbfbf" points="142.5,-56.5 142.5,-75.5 198.5,-75.5 198.5,-56.5 142.5,-56.5"/>
<text text-anchor="middle" x="170.5" y="-63.5" font-family="Helvetica,sans-Serif" font-size="10.00">QDebug</text>
</a>
</g>
</g>
<!-- Node1&#45;&gt;Node7 -->
<g id="edge9" class="edge">
<title>Node1&#45;&gt;Node7</title>
<path fill="none" stroke="midnightblue" d="M221.69,-280.22C213.73,-271.72 202.4,-258.09 196.5,-244 173.76,-189.67 170.44,-118.7 170.25,-85.56"/>
<polygon fill="midnightblue" stroke="midnightblue" points="173.75,-85.52 170.29,-75.51 166.75,-85.49 173.75,-85.52"/>
</g>
<!-- Node8 -->
<g id="node8" class="node">
<title>Node8</title>
<g id="a_node8"><a xlink:title=" ">
<polygon fill="none" stroke="#bfbfbf" points="205,-224.5 205,-243.5 366,-243.5 366,-224.5 205,-224.5"/>
<text text-anchor="middle" x="285.5" y="-231.5" font-family="Helvetica,sans-Serif" font-size="10.00">developerdataidmessage_p.h</text>
</a>
</g>
</g>
<!-- Node1&#45;&gt;Node8 -->
<g id="edge8" class="edge">
<title>Node1&#45;&gt;Node8</title>
<path fill="none" stroke="midnightblue" d="M239.58,-280.08C247.67,-272.14 259.7,-260.34 269.41,-250.8"/>
<polygon fill="midnightblue" stroke="midnightblue" points="271.9,-253.25 276.59,-243.75 267,-248.26 271.9,-253.25"/>
</g>
<!-- Node9 -->
<g id="node9" class="node">
<title>Node9</title>
<g id="a_node9"><a xlink:title=" ">
<polygon fill="none" stroke="#bfbfbf" points="384,-224.5 384,-243.5 445,-243.5 445,-224.5 384,-224.5"/>
<text text-anchor="middle" x="414.5" y="-231.5" font-family="Helvetica,sans-Serif" font-size="10.00">QtEndian</text>
</a>
</g>
</g>
<!-- Node1&#45;&gt;Node9 -->
<g id="edge10" class="edge">
<title>Node1&#45;&gt;Node9</title>
<path fill="none" stroke="midnightblue" d="M259.66,-280.44C291.01,-271.24 341.03,-256.56 375.7,-246.39"/>
<polygon fill="midnightblue" stroke="midnightblue" points="376.87,-249.69 385.48,-243.52 374.9,-242.97 376.87,-249.69"/>
</g>
<!-- Node3 -->
<g id="node3" class="node">
<title>Node3</title>
<g id="a_node3"><a xlink:href="fitdatamessage_8h_source.html" target="_top" xlink:title=" ">
<polygon fill="none" stroke="black" points="24,-168.5 24,-187.5 125,-187.5 125,-168.5 24,-168.5"/>
<text text-anchor="middle" x="74.5" y="-175.5" font-family="Helvetica,sans-Serif" font-size="10.00">fitdatamessage.h</text>
</a>
</g>
</g>
<!-- Node2&#45;&gt;Node3 -->
<g id="edge2" class="edge">
<title>Node2&#45;&gt;Node3</title>
<path fill="none" stroke="midnightblue" d="M74.5,-224.08C74.5,-217.01 74.5,-206.86 74.5,-197.99"/>
<polygon fill="midnightblue" stroke="midnightblue" points="78,-197.75 74.5,-187.75 71,-197.75 78,-197.75"/>
</g>
<!-- Node4 -->
<g id="node4" class="node">
<title>Node4</title>
<g id="a_node4"><a xlink:href="QtFit__global_8h_source.html" target="_top" xlink:title=" ">
<polygon fill="none" stroke="black" points="35.5,-56.5 35.5,-75.5 119.5,-75.5 119.5,-56.5 35.5,-56.5"/>
<text text-anchor="middle" x="77.5" y="-63.5" font-family="Helvetica,sans-Serif" font-size="10.00">QtFit_global.h</text>
</a>
</g>
</g>
<!-- Node3&#45;&gt;Node4 -->
<g id="edge3" class="edge">
<title>Node3&#45;&gt;Node4</title>
<path fill="none" stroke="midnightblue" d="M74.74,-168.37C75.22,-150.62 76.34,-109.67 76.99,-85.6"/>
<polygon fill="midnightblue" stroke="midnightblue" points="80.49,-85.68 77.27,-75.59 73.49,-85.49 80.49,-85.68"/>
</g>
<!-- Node6 -->
<g id="node6" class="node">
<title>Node6</title>
<g id="a_node6"><a xlink:href="types_8h.html" target="_top" xlink:title="Types defined by the ANT+ FIT SDK.">
<polygon fill="none" stroke="black" points="95,-112.5 95,-131.5 148,-131.5 148,-112.5 95,-112.5"/>
<text text-anchor="middle" x="121.5" y="-119.5" font-family="Helvetica,sans-Serif" font-size="10.00">types.h</text>
</a>
</g>
</g>
<!-- Node3&#45;&gt;Node6 -->
<g id="edge5" class="edge">
<title>Node3&#45;&gt;Node6</title>
<path fill="none" stroke="midnightblue" d="M82.26,-168.08C89.04,-160.3 99.04,-148.8 107.26,-139.37"/>
<polygon fill="midnightblue" stroke="midnightblue" points="109.96,-141.59 113.88,-131.75 104.68,-137 109.96,-141.59"/>
</g>
<!-- Node5 -->
<g id="node5" class="node">
<title>Node5</title>
<g id="a_node5"><a xlink:title=" ">
<polygon fill="none" stroke="#bfbfbf" points="48,-0.5 48,-19.5 107,-19.5 107,-0.5 48,-0.5"/>
<text text-anchor="middle" x="77.5" y="-7.5" font-family="Helvetica,sans-Serif" font-size="10.00">QtGlobal</text>
</a>
</g>
</g>
<!-- Node4&#45;&gt;Node5 -->
<g id="edge4" class="edge">
<title>Node4&#45;&gt;Node5</title>
<path fill="none" stroke="midnightblue" d="M77.5,-56.08C77.5,-49.01 77.5,-38.86 77.5,-29.99"/>
<polygon fill="midnightblue" stroke="midnightblue" points="81,-29.75 77.5,-19.75 74,-29.75 81,-29.75"/>
</g>
<!-- Node6&#45;&gt;Node4 -->
<g id="edge6" class="edge">
<title>Node6&#45;&gt;Node4</title>
<path fill="none" stroke="midnightblue" d="M114.23,-112.08C107.96,-104.38 98.71,-93.03 91.07,-83.65"/>
<polygon fill="midnightblue" stroke="midnightblue" points="93.66,-81.29 84.63,-75.75 88.23,-85.71 93.66,-81.29"/>
</g>
<!-- Node6&#45;&gt;Node7 -->
<g id="edge7" class="edge">
<title>Node6&#45;&gt;Node7</title>
<path fill="none" stroke="midnightblue" d="M129.59,-112.08C136.66,-104.3 147.09,-92.8 155.65,-83.37"/>
<polygon fill="midnightblue" stroke="midnightblue" points="158.43,-85.51 162.56,-75.75 153.25,-80.8 158.43,-85.51"/>
</g>
</g>
</svg>
