<?xml version="1.0" encoding="UTF-8" standalone="no"?>
<!DOCTYPE svg PUBLIC "-//W3C//DTD SVG 1.1//EN"
 "http://www.w3.org/Graphics/SVG/1.1/DTD/svg11.dtd">
<!-- Generated by graphviz version 2.43.0 (0)
 -->
<!-- Title: deviceinfomessage.cpp Pages: 1 -->
<svg width="280pt" height="308pt"
 viewBox="0.00 0.00 279.50 308.00" xmlns="http://www.w3.org/2000/svg" xmlns:xlink="http://www.w3.org/1999/xlink">
<g id="graph0" class="graph" transform="scale(1 1) rotate(0) translate(4 304)">
<title>deviceinfomessage.cpp</title>
<!-- Node1 -->
<g id="node1" class="node">
<title>Node1</title>
<g id="a_node1"><a xlink:title=" ">
<polygon fill="#bfbfbf" stroke="black" points="66.5,-280.5 66.5,-299.5 198.5,-299.5 198.5,-280.5 66.5,-280.5"/>
<text text-anchor="middle" x="132.5" y="-287.5" font-family="Helvetica,sans-Serif" font-size="10.00">deviceinfomessage.cpp</text>
</a>
</g>
</g>
<!-- Node2 -->
<g id="node2" class="node">
<title>Node2</title>
<g id="a_node2"><a xlink:href="deviceinfomessage_8h.html" target="_top" xlink:title=" ">
<polygon fill="none" stroke="black" points="0,-224.5 0,-243.5 121,-243.5 121,-224.5 0,-224.5"/>
<text text-anchor="middle" x="60.5" y="-231.5" font-family="Helvetica,sans-Serif" font-size="10.00">deviceinfomessage.h</text>
</a>
</g>
</g>
<!-- Node1&#45;&gt;Node2 -->
<g id="edge1" class="edge">
<title>Node1&#45;&gt;Node2</title>
<path fill="none" stroke="midnightblue" d="M120.93,-280.32C110.08,-272.18 93.62,-259.84 80.62,-250.09"/>
<polygon fill="midnightblue" stroke="midnightblue" points="82.38,-247.03 72.28,-243.83 78.18,-252.63 82.38,-247.03"/>
</g>
<!-- Node7 -->
<g id="node7" class="node">
<title>Node7</title>
<g id="a_node7"><a xlink:title=" ">
<polygon fill="none" stroke="#bfbfbf" points="139.5,-224.5 139.5,-243.5 271.5,-243.5 271.5,-224.5 139.5,-224.5"/>
<text text-anchor="middle" x="205.5" y="-231.5" font-family="Helvetica,sans-Serif" font-size="10.00">deviceinfomessage_p.h</text>
</a>
</g>
</g>
<!-- Node1&#45;&gt;Node7 -->
<g id="edge7" class="edge">
<title>Node1&#45;&gt;Node7</title>
<path fill="none" stroke="midnightblue" d="M144.23,-280.32C155.34,-272.11 172.24,-259.6 185.48,-249.81"/>
<polygon fill="midnightblue" stroke="midnightblue" points="187.6,-252.59 193.56,-243.83 183.44,-246.97 187.6,-252.59"/>
</g>
<!-- Node3 -->
<g id="node3" class="node">
<title>Node3</title>
<g id="a_node3"><a xlink:href="fitdatamessage_8h_source.html" target="_top" xlink:title=" ">
<polygon fill="none" stroke="black" points="10,-168.5 10,-187.5 111,-187.5 111,-168.5 10,-168.5"/>
<text text-anchor="middle" x="60.5" y="-175.5" font-family="Helvetica,sans-Serif" font-size="10.00">fitdatamessage.h</text>
</a>
</g>
</g>
<!-- Node2&#45;&gt;Node3 -->
<g id="edge2" class="edge">
<title>Node2&#45;&gt;Node3</title>
<path fill="none" stroke="midnightblue" d="M60.5,-224.08C60.5,-217.01 60.5,-206.86 60.5,-197.99"/>
<polygon fill="midnightblue" stroke="midnightblue" points="64,-197.75 60.5,-187.75 57,-197.75 64,-197.75"/>
</g>
<!-- Node4 -->
<g id="node4" class="node">
<title>Node4</title>
<g id="a_node4"><a xlink:href="QtFit__global_8h_source.html" target="_top" xlink:title=" ">
<polygon fill="none" stroke="black" points="18.5,-56.5 18.5,-75.5 102.5,-75.5 102.5,-56.5 18.5,-56.5"/>
<text text-anchor="middle" x="60.5" y="-63.5" font-family="Helvetica,sans-Serif" font-size="10.00">QtFit_global.h</text>
</a>
</g>
</g>
<!-- Node3&#45;&gt;Node4 -->
<g id="edge3" class="edge">
<title>Node3&#45;&gt;Node4</title>
<path fill="none" stroke="midnightblue" d="M58.76,-168.42C57.03,-159.4 54.49,-144.77 53.5,-132 52.3,-116.42 54.41,-98.8 56.62,-85.84"/>
<polygon fill="midnightblue" stroke="midnightblue" points="60.1,-86.29 58.51,-75.82 53.22,-84.99 60.1,-86.29"/>
</g>
<!-- Node6 -->
<g id="node6" class="node">
<title>Node6</title>
<g id="a_node6"><a xlink:href="types_8h.html" target="_top" xlink:title="Types defined by the ANT+ FIT SDK.">
<polygon fill="none" stroke="black" points="62,-112.5 62,-131.5 115,-131.5 115,-112.5 62,-112.5"/>
<text text-anchor="middle" x="88.5" y="-119.5" font-family="Helvetica,sans-Serif" font-size="10.00">types.h</text>
</a>
</g>
</g>
<!-- Node3&#45;&gt;Node6 -->
<g id="edge5" class="edge">
<title>Node3&#45;&gt;Node6</title>
<path fill="none" stroke="midnightblue" d="M65.12,-168.08C68.96,-160.69 74.52,-149.95 79.26,-140.81"/>
<polygon fill="midnightblue" stroke="midnightblue" points="82.47,-142.24 83.96,-131.75 76.25,-139.02 82.47,-142.24"/>
</g>
<!-- Node5 -->
<g id="node5" class="node">
<title>Node5</title>
<g id="a_node5"><a xlink:title=" ">
<polygon fill="none" stroke="#bfbfbf" points="31,-0.5 31,-19.5 90,-19.5 90,-0.5 31,-0.5"/>
<text text-anchor="middle" x="60.5" y="-7.5" font-family="Helvetica,sans-Serif" font-size="10.00">QtGlobal</text>
</a>
</g>
</g>
<!-- Node4&#45;&gt;Node5 -->
<g id="edge4" class="edge">
<title>Node4&#45;&gt;Node5</title>
<path fill="none" stroke="midnightblue" d="M60.5,-56.08C60.5,-49.01 60.5,-38.86 60.5,-29.99"/>
<polygon fill="midnightblue" stroke="midnightblue" points="64,-29.75 60.5,-19.75 57,-29.75 64,-29.75"/>
</g>
<!-- Node6&#45;&gt;Node4 -->
<g id="edge6" class="edge">
<title>Node6&#45;&gt;Node4</title>
<path fill="none" stroke="midnightblue" d="M83.88,-112.08C80.04,-104.69 74.48,-93.95 69.74,-84.81"/>
<polygon fill="midnightblue" stroke="midnightblue" points="72.75,-83.02 65.04,-75.75 66.53,-86.24 72.75,-83.02"/>
</g>
</g>
</svg>
