<?xml version="1.0" encoding="UTF-8" standalone="no"?>
<!DOCTYPE svg PUBLIC "-//W3C//DTD SVG 1.1//EN"
 "http://www.w3.org/Graphics/SVG/1.1/DTD/svg11.dtd">
<!-- Generated by graphviz version 2.43.0 (0)
 -->
<!-- Title: devicesettingsmessage.h Pages: 1 -->
<svg width="168pt" height="252pt"
 viewBox="0.00 0.00 167.50 252.00" xmlns="http://www.w3.org/2000/svg" xmlns:xlink="http://www.w3.org/1999/xlink">
<g id="graph0" class="graph" transform="scale(1 1) rotate(0) translate(4 248)">
<title>devicesettingsmessage.h</title>
<!-- Node1 -->
<g id="node1" class="node">
<title>Node1</title>
<g id="a_node1"><a xlink:title=" ">
<polygon fill="#bfbfbf" stroke="black" points="0,-224.5 0,-243.5 141,-243.5 141,-224.5 0,-224.5"/>
<text text-anchor="middle" x="70.5" y="-231.5" font-family="Helvetica,sans-Serif" font-size="10.00">devicesettingsmessage.h</text>
</a>
</g>
</g>
<!-- Node2 -->
<g id="node2" class="node">
<title>Node2</title>
<g id="a_node2"><a xlink:href="fitdatamessage_8h_source.html" target="_top" xlink:title=" ">
<polygon fill="none" stroke="black" points="20,-168.5 20,-187.5 121,-187.5 121,-168.5 20,-168.5"/>
<text text-anchor="middle" x="70.5" y="-175.5" font-family="Helvetica,sans-Serif" font-size="10.00">fitdatamessage.h</text>
</a>
</g>
</g>
<!-- Node1&#45;&gt;Node2 -->
<g id="edge1" class="edge">
<title>Node1&#45;&gt;Node2</title>
<path fill="none" stroke="midnightblue" d="M70.5,-224.08C70.5,-217.01 70.5,-206.86 70.5,-197.99"/>
<polygon fill="midnightblue" stroke="midnightblue" points="74,-197.75 70.5,-187.75 67,-197.75 74,-197.75"/>
</g>
<!-- Node3 -->
<g id="node3" class="node">
<title>Node3</title>
<g id="a_node3"><a xlink:href="QtFit__global_8h_source.html" target="_top" xlink:title=" ">
<polygon fill="none" stroke="black" points="1.5,-56.5 1.5,-75.5 85.5,-75.5 85.5,-56.5 1.5,-56.5"/>
<text text-anchor="middle" x="43.5" y="-63.5" font-family="Helvetica,sans-Serif" font-size="10.00">QtFit_global.h</text>
</a>
</g>
</g>
<!-- Node2&#45;&gt;Node3 -->
<g id="edge2" class="edge">
<title>Node2&#45;&gt;Node3</title>
<path fill="none" stroke="midnightblue" d="M68.38,-168.37C64.02,-150.62 53.97,-109.67 48.06,-85.6"/>
<polygon fill="midnightblue" stroke="midnightblue" points="51.39,-84.47 45.61,-75.59 44.59,-86.14 51.39,-84.47"/>
</g>
<!-- Node5 -->
<g id="node5" class="node">
<title>Node5</title>
<g id="a_node5"><a xlink:href="types_8h.html" target="_top" xlink:title="Types defined by the ANT+ FIT SDK.">
<polygon fill="none" stroke="black" points="72,-112.5 72,-131.5 125,-131.5 125,-112.5 72,-112.5"/>
<text text-anchor="middle" x="98.5" y="-119.5" font-family="Helvetica,sans-Serif" font-size="10.00">types.h</text>
</a>
</g>
</g>
<!-- Node2&#45;&gt;Node5 -->
<g id="edge4" class="edge">
<title>Node2&#45;&gt;Node5</title>
<path fill="none" stroke="midnightblue" d="M75.12,-168.08C78.96,-160.69 84.52,-149.95 89.26,-140.81"/>
<polygon fill="midnightblue" stroke="midnightblue" points="92.47,-142.24 93.96,-131.75 86.25,-139.02 92.47,-142.24"/>
</g>
<!-- Node4 -->
<g id="node4" class="node">
<title>Node4</title>
<g id="a_node4"><a xlink:title=" ">
<polygon fill="none" stroke="#bfbfbf" points="14,-0.5 14,-19.5 73,-19.5 73,-0.5 14,-0.5"/>
<text text-anchor="middle" x="43.5" y="-7.5" font-family="Helvetica,sans-Serif" font-size="10.00">QtGlobal</text>
</a>
</g>
</g>
<!-- Node3&#45;&gt;Node4 -->
<g id="edge3" class="edge">
<title>Node3&#45;&gt;Node4</title>
<path fill="none" stroke="midnightblue" d="M43.5,-56.08C43.5,-49.01 43.5,-38.86 43.5,-29.99"/>
<polygon fill="midnightblue" stroke="midnightblue" points="47,-29.75 43.5,-19.75 40,-29.75 47,-29.75"/>
</g>
<!-- Node5&#45;&gt;Node3 -->
<g id="edge5" class="edge">
<title>Node5&#45;&gt;Node3</title>
<path fill="none" stroke="midnightblue" d="M89.42,-112.08C81.33,-104.14 69.3,-92.34 59.59,-82.8"/>
<polygon fill="midnightblue" stroke="midnightblue" points="62,-80.26 52.41,-75.75 57.1,-85.25 62,-80.26"/>
</g>
<!-- Node6 -->
<g id="node6" class="node">
<title>Node6</title>
<g id="a_node6"><a xlink:title=" ">
<polygon fill="none" stroke="#bfbfbf" points="103.5,-56.5 103.5,-75.5 159.5,-75.5 159.5,-56.5 103.5,-56.5"/>
<text text-anchor="middle" x="131.5" y="-63.5" font-family="Helvetica,sans-Serif" font-size="10.00">QDebug</text>
</a>
</g>
</g>
<!-- Node5&#45;&gt;Node6 -->
<g id="edge6" class="edge">
<title>Node5&#45;&gt;Node6</title>
<path fill="none" stroke="midnightblue" d="M103.95,-112.08C108.51,-104.61 115.17,-93.72 120.79,-84.52"/>
<polygon fill="midnightblue" stroke="midnightblue" points="123.92,-86.11 126.15,-75.75 117.95,-82.46 123.92,-86.11"/>
</g>
</g>
</svg>
