<?xml version="1.0" encoding="UTF-8" standalone="no"?>
<!DOCTYPE svg PUBLIC "-//W3C//DTD SVG 1.1//EN"
 "http://www.w3.org/Graphics/SVG/1.1/DTD/svg11.dtd">
<!-- Generated by graphviz version 2.43.0 (0)
 -->
<!-- Title: divealarmmessage.h Pages: 1 -->
<svg width="127pt" height="252pt"
 viewBox="0.00 0.00 127.00 252.00" xmlns="http://www.w3.org/2000/svg" xmlns:xlink="http://www.w3.org/1999/xlink">
<g id="graph0" class="graph" transform="scale(1 1) rotate(0) translate(4 248)">
<title>divealarmmessage.h</title>
<!-- Node1 -->
<g id="node1" class="node">
<title>Node1</title>
<g id="a_node1"><a xlink:title=" ">
<polygon fill="#bfbfbf" stroke="black" points="0,-224.5 0,-243.5 119,-243.5 119,-224.5 0,-224.5"/>
<text text-anchor="middle" x="59.5" y="-231.5" font-family="Helvetica,sans-Serif" font-size="10.00">divealarmmessage.h</text>
</a>
</g>
</g>
<!-- Node2 -->
<g id="node2" class="node">
<title>Node2</title>
<g id="a_node2"><a xlink:href="fitdatamessage_8h_source.html" target="_top" xlink:title=" ">
<polygon fill="none" stroke="black" points="9,-168.5 9,-187.5 110,-187.5 110,-168.5 9,-168.5"/>
<text text-anchor="middle" x="59.5" y="-175.5" font-family="Helvetica,sans-Serif" font-size="10.00">fitdatamessage.h</text>
</a>
</g>
</g>
<!-- Node1&#45;&gt;Node2 -->
<g id="edge1" class="edge">
<title>Node1&#45;&gt;Node2</title>
<path fill="none" stroke="midnightblue" d="M59.5,-224.08C59.5,-217.01 59.5,-206.86 59.5,-197.99"/>
<polygon fill="midnightblue" stroke="midnightblue" points="63,-197.75 59.5,-187.75 56,-197.75 63,-197.75"/>
</g>
<!-- Node3 -->
<g id="node3" class="node">
<title>Node3</title>
<g id="a_node3"><a xlink:href="QtFit__global_8h_source.html" target="_top" xlink:title=" ">
<polygon fill="none" stroke="black" points="17.5,-56.5 17.5,-75.5 101.5,-75.5 101.5,-56.5 17.5,-56.5"/>
<text text-anchor="middle" x="59.5" y="-63.5" font-family="Helvetica,sans-Serif" font-size="10.00">QtFit_global.h</text>
</a>
</g>
</g>
<!-- Node2&#45;&gt;Node3 -->
<g id="edge2" class="edge">
<title>Node2&#45;&gt;Node3</title>
<path fill="none" stroke="midnightblue" d="M57.76,-168.42C56.03,-159.4 53.49,-144.77 52.5,-132 51.3,-116.42 53.41,-98.8 55.62,-85.84"/>
<polygon fill="midnightblue" stroke="midnightblue" points="59.1,-86.29 57.51,-75.82 52.22,-84.99 59.1,-86.29"/>
</g>
<!-- Node5 -->
<g id="node5" class="node">
<title>Node5</title>
<g id="a_node5"><a xlink:href="types_8h.html" target="_top" xlink:title="Types defined by the ANT+ FIT SDK.">
<polygon fill="none" stroke="black" points="61,-112.5 61,-131.5 114,-131.5 114,-112.5 61,-112.5"/>
<text text-anchor="middle" x="87.5" y="-119.5" font-family="Helvetica,sans-Serif" font-size="10.00">types.h</text>
</a>
</g>
</g>
<!-- Node2&#45;&gt;Node5 -->
<g id="edge4" class="edge">
<title>Node2&#45;&gt;Node5</title>
<path fill="none" stroke="midnightblue" d="M64.12,-168.08C67.96,-160.69 73.52,-149.95 78.26,-140.81"/>
<polygon fill="midnightblue" stroke="midnightblue" points="81.47,-142.24 82.96,-131.75 75.25,-139.02 81.47,-142.24"/>
</g>
<!-- Node4 -->
<g id="node4" class="node">
<title>Node4</title>
<g id="a_node4"><a xlink:title=" ">
<polygon fill="none" stroke="#bfbfbf" points="30,-0.5 30,-19.5 89,-19.5 89,-0.5 30,-0.5"/>
<text text-anchor="middle" x="59.5" y="-7.5" font-family="Helvetica,sans-Serif" font-size="10.00">QtGlobal</text>
</a>
</g>
</g>
<!-- Node3&#45;&gt;Node4 -->
<g id="edge3" class="edge">
<title>Node3&#45;&gt;Node4</title>
<path fill="none" stroke="midnightblue" d="M59.5,-56.08C59.5,-49.01 59.5,-38.86 59.5,-29.99"/>
<polygon fill="midnightblue" stroke="midnightblue" points="63,-29.75 59.5,-19.75 56,-29.75 63,-29.75"/>
</g>
<!-- Node5&#45;&gt;Node3 -->
<g id="edge5" class="edge">
<title>Node5&#45;&gt;Node3</title>
<path fill="none" stroke="midnightblue" d="M82.88,-112.08C79.04,-104.69 73.48,-93.95 68.74,-84.81"/>
<polygon fill="midnightblue" stroke="midnightblue" points="71.75,-83.02 64.04,-75.75 65.53,-86.24 71.75,-83.02"/>
</g>
</g>
</svg>
