<?xml version="1.0" encoding="UTF-8" standalone="no"?>
<!DOCTYPE svg PUBLIC "-//W3C//DTD SVG 1.1//EN"
 "http://www.w3.org/Graphics/SVG/1.1/DTD/svg11.dtd">
<!-- Generated by graphviz version 2.43.0 (0)
 -->
<!-- Title: divesummarymessage.cpp Pages: 1 -->
<svg width="429pt" height="308pt"
 viewBox="0.00 0.00 429.00 308.00" xmlns="http://www.w3.org/2000/svg" xmlns:xlink="http://www.w3.org/1999/xlink">
<g id="graph0" class="graph" transform="scale(1 1) rotate(0) translate(4 304)">
<title>divesummarymessage.cpp</title>
<!-- Node1 -->
<g id="node1" class="node">
<title>Node1</title>
<g id="a_node1"><a xlink:title="Defines the DiveSummaryMessage, and DiveSummaryMessagePrivate classes.">
<polygon fill="#bfbfbf" stroke="black" points="142,-280.5 142,-299.5 291,-299.5 291,-280.5 142,-280.5"/>
<text text-anchor="middle" x="216.5" y="-287.5" font-family="Helvetica,sans-Serif" font-size="10.00">divesummarymessage.cpp</text>
</a>
</g>
</g>
<!-- Node2 -->
<g id="node2" class="node">
<title>Node2</title>
<g id="a_node2"><a xlink:href="divesummarymessage_8h.html" target="_top" xlink:title="Declares the DiveSummaryMessage class.">
<polygon fill="none" stroke="black" points="0,-224.5 0,-243.5 137,-243.5 137,-224.5 0,-224.5"/>
<text text-anchor="middle" x="68.5" y="-231.5" font-family="Helvetica,sans-Serif" font-size="10.00">divesummarymessage.h</text>
</a>
</g>
</g>
<!-- Node1&#45;&gt;Node2 -->
<g id="edge1" class="edge">
<title>Node1&#45;&gt;Node2</title>
<path fill="none" stroke="midnightblue" d="M193.05,-280.44C168.37,-271.44 129.31,-257.19 101.52,-247.05"/>
<polygon fill="midnightblue" stroke="midnightblue" points="102.44,-243.66 91.84,-243.52 100.04,-250.23 102.44,-243.66"/>
</g>
<!-- Node7 -->
<g id="node7" class="node">
<title>Node7</title>
<g id="a_node7"><a xlink:title=" ">
<polygon fill="none" stroke="#bfbfbf" points="131.5,-56.5 131.5,-75.5 187.5,-75.5 187.5,-56.5 131.5,-56.5"/>
<text text-anchor="middle" x="159.5" y="-63.5" font-family="Helvetica,sans-Serif" font-size="10.00">QDebug</text>
</a>
</g>
</g>
<!-- Node1&#45;&gt;Node7 -->
<g id="edge9" class="edge">
<title>Node1&#45;&gt;Node7</title>
<path fill="none" stroke="midnightblue" d="M208.49,-280.45C200.98,-271.91 190.11,-258.07 184.5,-244 162.81,-189.59 159.52,-119.19 159.28,-85.96"/>
<polygon fill="midnightblue" stroke="midnightblue" points="162.78,-85.85 159.3,-75.85 155.78,-85.84 162.78,-85.85"/>
</g>
<!-- Node8 -->
<g id="node8" class="node">
<title>Node8</title>
<g id="a_node8"><a xlink:title=" ">
<polygon fill="none" stroke="#bfbfbf" points="193,-224.5 193,-243.5 342,-243.5 342,-224.5 193,-224.5"/>
<text text-anchor="middle" x="267.5" y="-231.5" font-family="Helvetica,sans-Serif" font-size="10.00">divesummarymessage_p.h</text>
</a>
</g>
</g>
<!-- Node1&#45;&gt;Node8 -->
<g id="edge8" class="edge">
<title>Node1&#45;&gt;Node8</title>
<path fill="none" stroke="midnightblue" d="M224.92,-280.08C232.35,-272.22 243.35,-260.57 252.31,-251.08"/>
<polygon fill="midnightblue" stroke="midnightblue" points="254.91,-253.42 259.24,-243.75 249.82,-248.62 254.91,-253.42"/>
</g>
<!-- Node9 -->
<g id="node9" class="node">
<title>Node9</title>
<g id="a_node9"><a xlink:title=" ">
<polygon fill="none" stroke="#bfbfbf" points="360,-224.5 360,-243.5 421,-243.5 421,-224.5 360,-224.5"/>
<text text-anchor="middle" x="390.5" y="-231.5" font-family="Helvetica,sans-Serif" font-size="10.00">QtEndian</text>
</a>
</g>
</g>
<!-- Node1&#45;&gt;Node9 -->
<g id="edge10" class="edge">
<title>Node1&#45;&gt;Node9</title>
<path fill="none" stroke="midnightblue" d="M244.07,-280.44C273.6,-271.28 320.62,-256.69 353.38,-246.52"/>
<polygon fill="midnightblue" stroke="midnightblue" points="354.54,-249.82 363.06,-243.52 352.47,-243.14 354.54,-249.82"/>
</g>
<!-- Node3 -->
<g id="node3" class="node">
<title>Node3</title>
<g id="a_node3"><a xlink:href="abstractdatamessage_8h.html" target="_top" xlink:title="Declares the AbstractDataMessage class.">
<polygon fill="none" stroke="black" points="3,-168.5 3,-187.5 134,-187.5 134,-168.5 3,-168.5"/>
<text text-anchor="middle" x="68.5" y="-175.5" font-family="Helvetica,sans-Serif" font-size="10.00">abstractdatamessage.h</text>
</a>
</g>
</g>
<!-- Node2&#45;&gt;Node3 -->
<g id="edge2" class="edge">
<title>Node2&#45;&gt;Node3</title>
<path fill="none" stroke="midnightblue" d="M68.5,-224.08C68.5,-217.01 68.5,-206.86 68.5,-197.99"/>
<polygon fill="midnightblue" stroke="midnightblue" points="72,-197.75 68.5,-187.75 65,-197.75 72,-197.75"/>
</g>
<!-- Node4 -->
<g id="node4" class="node">
<title>Node4</title>
<g id="a_node4"><a xlink:href="QtFit__global_8h.html" target="_top" xlink:title="Global QtFit library macros.">
<polygon fill="none" stroke="black" points="24.5,-56.5 24.5,-75.5 108.5,-75.5 108.5,-56.5 24.5,-56.5"/>
<text text-anchor="middle" x="66.5" y="-63.5" font-family="Helvetica,sans-Serif" font-size="10.00">QtFit_global.h</text>
</a>
</g>
</g>
<!-- Node3&#45;&gt;Node4 -->
<g id="edge3" class="edge">
<title>Node3&#45;&gt;Node4</title>
<path fill="none" stroke="midnightblue" d="M68.34,-168.37C68.02,-150.62 67.28,-109.67 66.84,-85.6"/>
<polygon fill="midnightblue" stroke="midnightblue" points="70.34,-85.53 66.66,-75.59 63.34,-85.65 70.34,-85.53"/>
</g>
<!-- Node6 -->
<g id="node6" class="node">
<title>Node6</title>
<g id="a_node6"><a xlink:href="types_8h.html" target="_top" xlink:title="Types defined by the ANT+ FIT SDK.">
<polygon fill="none" stroke="black" points="84,-112.5 84,-131.5 137,-131.5 137,-112.5 84,-112.5"/>
<text text-anchor="middle" x="110.5" y="-119.5" font-family="Helvetica,sans-Serif" font-size="10.00">types.h</text>
</a>
</g>
</g>
<!-- Node3&#45;&gt;Node6 -->
<g id="edge5" class="edge">
<title>Node3&#45;&gt;Node6</title>
<path fill="none" stroke="midnightblue" d="M75.44,-168.08C81.43,-160.38 90.25,-149.03 97.55,-139.65"/>
<polygon fill="midnightblue" stroke="midnightblue" points="100.32,-141.79 103.69,-131.75 94.79,-137.5 100.32,-141.79"/>
</g>
<!-- Node5 -->
<g id="node5" class="node">
<title>Node5</title>
<g id="a_node5"><a xlink:title=" ">
<polygon fill="none" stroke="#bfbfbf" points="37,-0.5 37,-19.5 96,-19.5 96,-0.5 37,-0.5"/>
<text text-anchor="middle" x="66.5" y="-7.5" font-family="Helvetica,sans-Serif" font-size="10.00">QtGlobal</text>
</a>
</g>
</g>
<!-- Node4&#45;&gt;Node5 -->
<g id="edge4" class="edge">
<title>Node4&#45;&gt;Node5</title>
<path fill="none" stroke="midnightblue" d="M66.5,-56.08C66.5,-49.01 66.5,-38.86 66.5,-29.99"/>
<polygon fill="midnightblue" stroke="midnightblue" points="70,-29.75 66.5,-19.75 63,-29.75 70,-29.75"/>
</g>
<!-- Node6&#45;&gt;Node4 -->
<g id="edge6" class="edge">
<title>Node6&#45;&gt;Node4</title>
<path fill="none" stroke="midnightblue" d="M103.23,-112.08C96.96,-104.38 87.71,-93.03 80.07,-83.65"/>
<polygon fill="midnightblue" stroke="midnightblue" points="82.66,-81.29 73.63,-75.75 77.23,-85.71 82.66,-81.29"/>
</g>
<!-- Node6&#45;&gt;Node7 -->
<g id="edge7" class="edge">
<title>Node6&#45;&gt;Node7</title>
<path fill="none" stroke="midnightblue" d="M118.59,-112.08C125.66,-104.3 136.09,-92.8 144.65,-83.37"/>
<polygon fill="midnightblue" stroke="midnightblue" points="147.43,-85.51 151.56,-75.75 142.25,-80.8 147.43,-85.51"/>
</g>
</g>
</svg>
