<?xml version="1.0" encoding="UTF-8" standalone="no"?>
<!DOCTYPE svg PUBLIC "-//W3C//DTD SVG 1.1//EN"
 "http://www.w3.org/Graphics/SVG/1.1/DTD/svg11.dtd">
<!-- Generated by graphviz version 2.43.0 (0)
 -->
<!-- Title: exddataconceptconfigurationmessage.cpp Pages: 1 -->
<svg width="615pt" height="308pt"
 viewBox="0.00 0.00 614.50 308.00" xmlns="http://www.w3.org/2000/svg" xmlns:xlink="http://www.w3.org/1999/xlink">
<g id="graph0" class="graph" transform="scale(1 1) rotate(0) translate(4 304)">
<title>exddataconceptconfigurationmessage.cpp</title>
<!-- Node1 -->
<g id="node1" class="node">
<title>Node1</title>
<g id="a_node1"><a xlink:title=" ">
<polygon fill="#bfbfbf" stroke="black" points="308.5,-280.5 308.5,-299.5 531.5,-299.5 531.5,-280.5 308.5,-280.5"/>
<text text-anchor="middle" x="420" y="-287.5" font-family="Helvetica,sans-Serif" font-size="10.00">exddataconceptconfigurationmessage.cpp</text>
</a>
</g>
</g>
<!-- Node2 -->
<g id="node2" class="node">
<title>Node2</title>
<g id="a_node2"><a xlink:href="exddataconceptconfigurationmessage_8h.html" target="_top" xlink:title=" ">
<polygon fill="none" stroke="black" points="0,-224.5 0,-243.5 212,-243.5 212,-224.5 0,-224.5"/>
<text text-anchor="middle" x="106" y="-231.5" font-family="Helvetica,sans-Serif" font-size="10.00">exddataconceptconfigurationmessage.h</text>
</a>
</g>
</g>
<!-- Node1&#45;&gt;Node2 -->
<g id="edge1" class="edge">
<title>Node1&#45;&gt;Node2</title>
<path fill="none" stroke="midnightblue" d="M370.25,-280.44C314.67,-270.89 224.74,-255.42 165.48,-245.23"/>
<polygon fill="midnightblue" stroke="midnightblue" points="165.97,-241.76 155.52,-243.52 164.78,-248.66 165.97,-241.76"/>
</g>
<!-- Node7 -->
<g id="node7" class="node">
<title>Node7</title>
<g id="a_node7"><a xlink:title=" ">
<polygon fill="none" stroke="#bfbfbf" points="229.5,-224.5 229.5,-243.5 452.5,-243.5 452.5,-224.5 229.5,-224.5"/>
<text text-anchor="middle" x="341" y="-231.5" font-family="Helvetica,sans-Serif" font-size="10.00">exddataconceptconfigurationmessage_p.h</text>
</a>
</g>
</g>
<!-- Node1&#45;&gt;Node7 -->
<g id="edge7" class="edge">
<title>Node1&#45;&gt;Node7</title>
<path fill="none" stroke="midnightblue" d="M407.31,-280.32C395.1,-271.98 376.42,-259.21 362,-249.35"/>
<polygon fill="midnightblue" stroke="midnightblue" points="363.89,-246.41 353.66,-243.65 359.94,-252.19 363.89,-246.41"/>
</g>
<!-- Node8 -->
<g id="node8" class="node">
<title>Node8</title>
<g id="a_node8"><a xlink:title=" ">
<polygon fill="none" stroke="#bfbfbf" points="471,-224.5 471,-243.5 527,-243.5 527,-224.5 471,-224.5"/>
<text text-anchor="middle" x="499" y="-231.5" font-family="Helvetica,sans-Serif" font-size="10.00">QDebug</text>
</a>
</g>
</g>
<!-- Node1&#45;&gt;Node8 -->
<g id="edge8" class="edge">
<title>Node1&#45;&gt;Node8</title>
<path fill="none" stroke="midnightblue" d="M432.69,-280.32C444.9,-271.98 463.58,-259.21 478,-249.35"/>
<polygon fill="midnightblue" stroke="midnightblue" points="480.06,-252.19 486.34,-243.65 476.11,-246.41 480.06,-252.19"/>
</g>
<!-- Node9 -->
<g id="node9" class="node">
<title>Node9</title>
<g id="a_node9"><a xlink:title=" ">
<polygon fill="none" stroke="#bfbfbf" points="545.5,-224.5 545.5,-243.5 606.5,-243.5 606.5,-224.5 545.5,-224.5"/>
<text text-anchor="middle" x="576" y="-231.5" font-family="Helvetica,sans-Serif" font-size="10.00">QtEndian</text>
</a>
</g>
</g>
<!-- Node1&#45;&gt;Node9 -->
<g id="edge9" class="edge">
<title>Node1&#45;&gt;Node9</title>
<path fill="none" stroke="midnightblue" d="M444.72,-280.44C470.85,-271.4 512.26,-257.06 541.58,-246.92"/>
<polygon fill="midnightblue" stroke="midnightblue" points="543.09,-250.1 551.4,-243.52 540.8,-243.48 543.09,-250.1"/>
</g>
<!-- Node3 -->
<g id="node3" class="node">
<title>Node3</title>
<g id="a_node3"><a xlink:href="fitdatamessage_8h_source.html" target="_top" xlink:title=" ">
<polygon fill="none" stroke="black" points="55.5,-168.5 55.5,-187.5 156.5,-187.5 156.5,-168.5 55.5,-168.5"/>
<text text-anchor="middle" x="106" y="-175.5" font-family="Helvetica,sans-Serif" font-size="10.00">fitdatamessage.h</text>
</a>
</g>
</g>
<!-- Node2&#45;&gt;Node3 -->
<g id="edge2" class="edge">
<title>Node2&#45;&gt;Node3</title>
<path fill="none" stroke="midnightblue" d="M106,-224.08C106,-217.01 106,-206.86 106,-197.99"/>
<polygon fill="midnightblue" stroke="midnightblue" points="109.5,-197.75 106,-187.75 102.5,-197.75 109.5,-197.75"/>
</g>
<!-- Node4 -->
<g id="node4" class="node">
<title>Node4</title>
<g id="a_node4"><a xlink:href="QtFit__global_8h_source.html" target="_top" xlink:title=" ">
<polygon fill="none" stroke="black" points="64,-56.5 64,-75.5 148,-75.5 148,-56.5 64,-56.5"/>
<text text-anchor="middle" x="106" y="-63.5" font-family="Helvetica,sans-Serif" font-size="10.00">QtFit_global.h</text>
</a>
</g>
</g>
<!-- Node3&#45;&gt;Node4 -->
<g id="edge3" class="edge">
<title>Node3&#45;&gt;Node4</title>
<path fill="none" stroke="midnightblue" d="M104.26,-168.42C102.53,-159.4 99.99,-144.77 99,-132 97.8,-116.42 99.91,-98.8 102.12,-85.84"/>
<polygon fill="midnightblue" stroke="midnightblue" points="105.6,-86.29 104.01,-75.82 98.72,-84.99 105.6,-86.29"/>
</g>
<!-- Node6 -->
<g id="node6" class="node">
<title>Node6</title>
<g id="a_node6"><a xlink:href="types_8h.html" target="_top" xlink:title="Types defined by the ANT+ FIT SDK.">
<polygon fill="none" stroke="black" points="107.5,-112.5 107.5,-131.5 160.5,-131.5 160.5,-112.5 107.5,-112.5"/>
<text text-anchor="middle" x="134" y="-119.5" font-family="Helvetica,sans-Serif" font-size="10.00">types.h</text>
</a>
</g>
</g>
<!-- Node3&#45;&gt;Node6 -->
<g id="edge5" class="edge">
<title>Node3&#45;&gt;Node6</title>
<path fill="none" stroke="midnightblue" d="M110.62,-168.08C114.46,-160.69 120.02,-149.95 124.76,-140.81"/>
<polygon fill="midnightblue" stroke="midnightblue" points="127.97,-142.24 129.46,-131.75 121.75,-139.02 127.97,-142.24"/>
</g>
<!-- Node5 -->
<g id="node5" class="node">
<title>Node5</title>
<g id="a_node5"><a xlink:title=" ">
<polygon fill="none" stroke="#bfbfbf" points="76.5,-0.5 76.5,-19.5 135.5,-19.5 135.5,-0.5 76.5,-0.5"/>
<text text-anchor="middle" x="106" y="-7.5" font-family="Helvetica,sans-Serif" font-size="10.00">QtGlobal</text>
</a>
</g>
</g>
<!-- Node4&#45;&gt;Node5 -->
<g id="edge4" class="edge">
<title>Node4&#45;&gt;Node5</title>
<path fill="none" stroke="midnightblue" d="M106,-56.08C106,-49.01 106,-38.86 106,-29.99"/>
<polygon fill="midnightblue" stroke="midnightblue" points="109.5,-29.75 106,-19.75 102.5,-29.75 109.5,-29.75"/>
</g>
<!-- Node6&#45;&gt;Node4 -->
<g id="edge6" class="edge">
<title>Node6&#45;&gt;Node4</title>
<path fill="none" stroke="midnightblue" d="M129.38,-112.08C125.54,-104.69 119.98,-93.95 115.24,-84.81"/>
<polygon fill="midnightblue" stroke="midnightblue" points="118.25,-83.02 110.54,-75.75 112.03,-86.24 118.25,-83.02"/>
</g>
</g>
</svg>
