<?xml version="1.0" encoding="UTF-8" standalone="no"?>
<!DOCTYPE svg PUBLIC "-//W3C//DTD SVG 1.1//EN"
 "http://www.w3.org/Graphics/SVG/1.1/DTD/svg11.dtd">
<!-- Generated by graphviz version 2.43.0 (0)
 -->
<!-- Title: exddatafieldconfigurationmessage.cpp Pages: 1 -->
<svg width="580pt" height="308pt"
 viewBox="0.00 0.00 579.50 308.00" xmlns="http://www.w3.org/2000/svg" xmlns:xlink="http://www.w3.org/1999/xlink">
<g id="graph0" class="graph" transform="scale(1 1) rotate(0) translate(4 304)">
<title>exddatafieldconfigurationmessage.cpp</title>
<!-- Node1 -->
<g id="node1" class="node">
<title>Node1</title>
<g id="a_node1"><a xlink:title=" ">
<polygon fill="#bfbfbf" stroke="black" points="286,-280.5 286,-299.5 492,-299.5 492,-280.5 286,-280.5"/>
<text text-anchor="middle" x="389" y="-287.5" font-family="Helvetica,sans-Serif" font-size="10.00">exddatafieldconfigurationmessage.cpp</text>
</a>
</g>
</g>
<!-- Node2 -->
<g id="node2" class="node">
<title>Node2</title>
<g id="a_node2"><a xlink:href="exddatafieldconfigurationmessage_8h.html" target="_top" xlink:title=" ">
<polygon fill="none" stroke="black" points="0,-224.5 0,-243.5 194,-243.5 194,-224.5 0,-224.5"/>
<text text-anchor="middle" x="97" y="-231.5" font-family="Helvetica,sans-Serif" font-size="10.00">exddatafieldconfigurationmessage.h</text>
</a>
</g>
</g>
<!-- Node1&#45;&gt;Node2 -->
<g id="edge1" class="edge">
<title>Node1&#45;&gt;Node2</title>
<path fill="none" stroke="midnightblue" d="M342.73,-280.44C291.26,-270.92 208.11,-255.55 153,-245.36"/>
<polygon fill="midnightblue" stroke="midnightblue" points="153.52,-241.89 143.05,-243.52 152.25,-248.78 153.52,-241.89"/>
</g>
<!-- Node7 -->
<g id="node7" class="node">
<title>Node7</title>
<g id="a_node7"><a xlink:title=" ">
<polygon fill="none" stroke="#bfbfbf" points="212,-224.5 212,-243.5 418,-243.5 418,-224.5 212,-224.5"/>
<text text-anchor="middle" x="315" y="-231.5" font-family="Helvetica,sans-Serif" font-size="10.00">exddatafieldconfigurationmessage_p.h</text>
</a>
</g>
</g>
<!-- Node1&#45;&gt;Node7 -->
<g id="edge7" class="edge">
<title>Node1&#45;&gt;Node7</title>
<path fill="none" stroke="midnightblue" d="M377.11,-280.32C365.85,-272.11 348.71,-259.6 335.29,-249.81"/>
<polygon fill="midnightblue" stroke="midnightblue" points="337.25,-246.9 327.11,-243.83 333.12,-252.56 337.25,-246.9"/>
</g>
<!-- Node8 -->
<g id="node8" class="node">
<title>Node8</title>
<g id="a_node8"><a xlink:title=" ">
<polygon fill="none" stroke="#bfbfbf" points="436,-224.5 436,-243.5 492,-243.5 492,-224.5 436,-224.5"/>
<text text-anchor="middle" x="464" y="-231.5" font-family="Helvetica,sans-Serif" font-size="10.00">QDebug</text>
</a>
</g>
</g>
<!-- Node1&#45;&gt;Node8 -->
<g id="edge8" class="edge">
<title>Node1&#45;&gt;Node8</title>
<path fill="none" stroke="midnightblue" d="M401.05,-280.32C412.46,-272.11 429.83,-259.6 443.43,-249.81"/>
<polygon fill="midnightblue" stroke="midnightblue" points="445.66,-252.52 451.73,-243.83 441.57,-246.84 445.66,-252.52"/>
</g>
<!-- Node9 -->
<g id="node9" class="node">
<title>Node9</title>
<g id="a_node9"><a xlink:title=" ">
<polygon fill="none" stroke="#bfbfbf" points="510.5,-224.5 510.5,-243.5 571.5,-243.5 571.5,-224.5 510.5,-224.5"/>
<text text-anchor="middle" x="541" y="-231.5" font-family="Helvetica,sans-Serif" font-size="10.00">QtEndian</text>
</a>
</g>
</g>
<!-- Node1&#45;&gt;Node9 -->
<g id="edge9" class="edge">
<title>Node1&#45;&gt;Node9</title>
<path fill="none" stroke="midnightblue" d="M413.08,-280.44C438.54,-271.4 478.89,-257.06 507.46,-246.92"/>
<polygon fill="midnightblue" stroke="midnightblue" points="508.78,-250.16 517.03,-243.52 506.43,-243.57 508.78,-250.16"/>
</g>
<!-- Node3 -->
<g id="node3" class="node">
<title>Node3</title>
<g id="a_node3"><a xlink:href="fitdatamessage_8h_source.html" target="_top" xlink:title=" ">
<polygon fill="none" stroke="black" points="46.5,-168.5 46.5,-187.5 147.5,-187.5 147.5,-168.5 46.5,-168.5"/>
<text text-anchor="middle" x="97" y="-175.5" font-family="Helvetica,sans-Serif" font-size="10.00">fitdatamessage.h</text>
</a>
</g>
</g>
<!-- Node2&#45;&gt;Node3 -->
<g id="edge2" class="edge">
<title>Node2&#45;&gt;Node3</title>
<path fill="none" stroke="midnightblue" d="M97,-224.08C97,-217.01 97,-206.86 97,-197.99"/>
<polygon fill="midnightblue" stroke="midnightblue" points="100.5,-197.75 97,-187.75 93.5,-197.75 100.5,-197.75"/>
</g>
<!-- Node4 -->
<g id="node4" class="node">
<title>Node4</title>
<g id="a_node4"><a xlink:href="QtFit__global_8h_source.html" target="_top" xlink:title=" ">
<polygon fill="none" stroke="black" points="55,-56.5 55,-75.5 139,-75.5 139,-56.5 55,-56.5"/>
<text text-anchor="middle" x="97" y="-63.5" font-family="Helvetica,sans-Serif" font-size="10.00">QtFit_global.h</text>
</a>
</g>
</g>
<!-- Node3&#45;&gt;Node4 -->
<g id="edge3" class="edge">
<title>Node3&#45;&gt;Node4</title>
<path fill="none" stroke="midnightblue" d="M95.26,-168.42C93.53,-159.4 90.99,-144.77 90,-132 88.8,-116.42 90.91,-98.8 93.12,-85.84"/>
<polygon fill="midnightblue" stroke="midnightblue" points="96.6,-86.29 95.01,-75.82 89.72,-84.99 96.6,-86.29"/>
</g>
<!-- Node6 -->
<g id="node6" class="node">
<title>Node6</title>
<g id="a_node6"><a xlink:href="types_8h.html" target="_top" xlink:title="Types defined by the ANT+ FIT SDK.">
<polygon fill="none" stroke="black" points="98.5,-112.5 98.5,-131.5 151.5,-131.5 151.5,-112.5 98.5,-112.5"/>
<text text-anchor="middle" x="125" y="-119.5" font-family="Helvetica,sans-Serif" font-size="10.00">types.h</text>
</a>
</g>
</g>
<!-- Node3&#45;&gt;Node6 -->
<g id="edge5" class="edge">
<title>Node3&#45;&gt;Node6</title>
<path fill="none" stroke="midnightblue" d="M101.62,-168.08C105.46,-160.69 111.02,-149.95 115.76,-140.81"/>
<polygon fill="midnightblue" stroke="midnightblue" points="118.97,-142.24 120.46,-131.75 112.75,-139.02 118.97,-142.24"/>
</g>
<!-- Node5 -->
<g id="node5" class="node">
<title>Node5</title>
<g id="a_node5"><a xlink:title=" ">
<polygon fill="none" stroke="#bfbfbf" points="67.5,-0.5 67.5,-19.5 126.5,-19.5 126.5,-0.5 67.5,-0.5"/>
<text text-anchor="middle" x="97" y="-7.5" font-family="Helvetica,sans-Serif" font-size="10.00">QtGlobal</text>
</a>
</g>
</g>
<!-- Node4&#45;&gt;Node5 -->
<g id="edge4" class="edge">
<title>Node4&#45;&gt;Node5</title>
<path fill="none" stroke="midnightblue" d="M97,-56.08C97,-49.01 97,-38.86 97,-29.99"/>
<polygon fill="midnightblue" stroke="midnightblue" points="100.5,-29.75 97,-19.75 93.5,-29.75 100.5,-29.75"/>
</g>
<!-- Node6&#45;&gt;Node4 -->
<g id="edge6" class="edge">
<title>Node6&#45;&gt;Node4</title>
<path fill="none" stroke="midnightblue" d="M120.38,-112.08C116.54,-104.69 110.98,-93.95 106.24,-84.81"/>
<polygon fill="midnightblue" stroke="midnightblue" points="109.25,-83.02 101.54,-75.75 103.03,-86.24 109.25,-83.02"/>
</g>
</g>
</svg>
