<?xml version="1.0" encoding="UTF-8" standalone="no"?>
<!DOCTYPE svg PUBLIC "-//W3C//DTD SVG 1.1//EN"
 "http://www.w3.org/Graphics/SVG/1.1/DTD/svg11.dtd">
<!-- Generated by graphviz version 2.43.0 (0)
 -->
<!-- Title: exdscreenconfigurationmessage.cpp Pages: 1 -->
<svg width="522pt" height="308pt"
 viewBox="0.00 0.00 521.50 308.00" xmlns="http://www.w3.org/2000/svg" xmlns:xlink="http://www.w3.org/1999/xlink">
<g id="graph0" class="graph" transform="scale(1 1) rotate(0) translate(4 304)">
<title>exdscreenconfigurationmessage.cpp</title>
<!-- Node1 -->
<g id="node1" class="node">
<title>Node1</title>
<g id="a_node1"><a xlink:title=" ">
<polygon fill="#bfbfbf" stroke="black" points="176.5,-280.5 176.5,-299.5 371.5,-299.5 371.5,-280.5 176.5,-280.5"/>
<text text-anchor="middle" x="274" y="-287.5" font-family="Helvetica,sans-Serif" font-size="10.00">exdscreenconfigurationmessage.cpp</text>
</a>
</g>
</g>
<!-- Node2 -->
<g id="node2" class="node">
<title>Node2</title>
<g id="a_node2"><a xlink:href="exdscreenconfigurationmessage_8h.html" target="_top" xlink:title=" ">
<polygon fill="none" stroke="black" points="0,-224.5 0,-243.5 184,-243.5 184,-224.5 0,-224.5"/>
<text text-anchor="middle" x="92" y="-231.5" font-family="Helvetica,sans-Serif" font-size="10.00">exdscreenconfigurationmessage.h</text>
</a>
</g>
</g>
<!-- Node1&#45;&gt;Node2 -->
<g id="edge1" class="edge">
<title>Node1&#45;&gt;Node2</title>
<path fill="none" stroke="midnightblue" d="M245.16,-280.44C214.14,-271.24 164.67,-256.56 130.38,-246.39"/>
<polygon fill="midnightblue" stroke="midnightblue" points="131.29,-243.01 120.7,-243.52 129.29,-249.72 131.29,-243.01"/>
</g>
<!-- Node7 -->
<g id="node7" class="node">
<title>Node7</title>
<g id="a_node7"><a xlink:title=" ">
<polygon fill="none" stroke="#bfbfbf" points="176,-56.5 176,-75.5 232,-75.5 232,-56.5 176,-56.5"/>
<text text-anchor="middle" x="204" y="-63.5" font-family="Helvetica,sans-Serif" font-size="10.00">QDebug</text>
</a>
</g>
</g>
<!-- Node1&#45;&gt;Node7 -->
<g id="edge9" class="edge">
<title>Node1&#45;&gt;Node7</title>
<path fill="none" stroke="midnightblue" d="M262.46,-280.37C252.41,-272.18 238.34,-258.93 231,-244 204.99,-191.1 202.7,-119.44 203.26,-85.85"/>
<polygon fill="midnightblue" stroke="midnightblue" points="206.76,-85.74 203.54,-75.65 199.77,-85.55 206.76,-85.74"/>
</g>
<!-- Node8 -->
<g id="node8" class="node">
<title>Node8</title>
<g id="a_node8"><a xlink:title=" ">
<polygon fill="none" stroke="#bfbfbf" points="239.5,-224.5 239.5,-243.5 434.5,-243.5 434.5,-224.5 239.5,-224.5"/>
<text text-anchor="middle" x="337" y="-231.5" font-family="Helvetica,sans-Serif" font-size="10.00">exdscreenconfigurationmessage_p.h</text>
</a>
</g>
</g>
<!-- Node1&#45;&gt;Node8 -->
<g id="edge8" class="edge">
<title>Node1&#45;&gt;Node8</title>
<path fill="none" stroke="midnightblue" d="M284.12,-280.32C293.53,-272.26 307.74,-260.08 319.07,-250.37"/>
<polygon fill="midnightblue" stroke="midnightblue" points="321.38,-253 326.69,-243.83 316.82,-247.68 321.38,-253"/>
</g>
<!-- Node9 -->
<g id="node9" class="node">
<title>Node9</title>
<g id="a_node9"><a xlink:title=" ">
<polygon fill="none" stroke="#bfbfbf" points="452.5,-224.5 452.5,-243.5 513.5,-243.5 513.5,-224.5 452.5,-224.5"/>
<text text-anchor="middle" x="483" y="-231.5" font-family="Helvetica,sans-Serif" font-size="10.00">QtEndian</text>
</a>
</g>
</g>
<!-- Node1&#45;&gt;Node9 -->
<g id="edge10" class="edge">
<title>Node1&#45;&gt;Node9</title>
<path fill="none" stroke="midnightblue" d="M307.12,-280.44C343.86,-270.95 403.15,-255.63 442.6,-245.44"/>
<polygon fill="midnightblue" stroke="midnightblue" points="443.61,-248.79 452.42,-242.9 441.86,-242.01 443.61,-248.79"/>
</g>
<!-- Node3 -->
<g id="node3" class="node">
<title>Node3</title>
<g id="a_node3"><a xlink:href="fitdatamessage_8h_source.html" target="_top" xlink:title=" ">
<polygon fill="none" stroke="black" points="46.5,-168.5 46.5,-187.5 147.5,-187.5 147.5,-168.5 46.5,-168.5"/>
<text text-anchor="middle" x="97" y="-175.5" font-family="Helvetica,sans-Serif" font-size="10.00">fitdatamessage.h</text>
</a>
</g>
</g>
<!-- Node2&#45;&gt;Node3 -->
<g id="edge2" class="edge">
<title>Node2&#45;&gt;Node3</title>
<path fill="none" stroke="midnightblue" d="M92.83,-224.08C93.48,-217.01 94.42,-206.86 95.24,-197.99"/>
<polygon fill="midnightblue" stroke="midnightblue" points="98.75,-198.03 96.19,-187.75 91.78,-197.39 98.75,-198.03"/>
</g>
<!-- Node4 -->
<g id="node4" class="node">
<title>Node4</title>
<g id="a_node4"><a xlink:href="QtFit__global_8h_source.html" target="_top" xlink:title=" ">
<polygon fill="none" stroke="black" points="66,-56.5 66,-75.5 150,-75.5 150,-56.5 66,-56.5"/>
<text text-anchor="middle" x="108" y="-63.5" font-family="Helvetica,sans-Serif" font-size="10.00">QtFit_global.h</text>
</a>
</g>
</g>
<!-- Node3&#45;&gt;Node4 -->
<g id="edge3" class="edge">
<title>Node3&#45;&gt;Node4</title>
<path fill="none" stroke="midnightblue" d="M97.86,-168.37C99.64,-150.62 103.73,-109.67 106.14,-85.6"/>
<polygon fill="midnightblue" stroke="midnightblue" points="109.63,-85.89 107.14,-75.59 102.66,-85.19 109.63,-85.89"/>
</g>
<!-- Node6 -->
<g id="node6" class="node">
<title>Node6</title>
<g id="a_node6"><a xlink:href="types_8h.html" target="_top" xlink:title="Types defined by the ANT+ FIT SDK.">
<polygon fill="none" stroke="black" points="125.5,-112.5 125.5,-131.5 178.5,-131.5 178.5,-112.5 125.5,-112.5"/>
<text text-anchor="middle" x="152" y="-119.5" font-family="Helvetica,sans-Serif" font-size="10.00">types.h</text>
</a>
</g>
</g>
<!-- Node3&#45;&gt;Node6 -->
<g id="edge5" class="edge">
<title>Node3&#45;&gt;Node6</title>
<path fill="none" stroke="midnightblue" d="M106.08,-168.08C114.17,-160.14 126.2,-148.34 135.91,-138.8"/>
<polygon fill="midnightblue" stroke="midnightblue" points="138.4,-141.25 143.09,-131.75 133.5,-136.26 138.4,-141.25"/>
</g>
<!-- Node5 -->
<g id="node5" class="node">
<title>Node5</title>
<g id="a_node5"><a xlink:title=" ">
<polygon fill="none" stroke="#bfbfbf" points="78.5,-0.5 78.5,-19.5 137.5,-19.5 137.5,-0.5 78.5,-0.5"/>
<text text-anchor="middle" x="108" y="-7.5" font-family="Helvetica,sans-Serif" font-size="10.00">QtGlobal</text>
</a>
</g>
</g>
<!-- Node4&#45;&gt;Node5 -->
<g id="edge4" class="edge">
<title>Node4&#45;&gt;Node5</title>
<path fill="none" stroke="midnightblue" d="M108,-56.08C108,-49.01 108,-38.86 108,-29.99"/>
<polygon fill="midnightblue" stroke="midnightblue" points="111.5,-29.75 108,-19.75 104.5,-29.75 111.5,-29.75"/>
</g>
<!-- Node6&#45;&gt;Node4 -->
<g id="edge6" class="edge">
<title>Node6&#45;&gt;Node4</title>
<path fill="none" stroke="midnightblue" d="M144.73,-112.08C138.46,-104.38 129.21,-93.03 121.57,-83.65"/>
<polygon fill="midnightblue" stroke="midnightblue" points="124.16,-81.29 115.13,-75.75 118.73,-85.71 124.16,-81.29"/>
</g>
<!-- Node6&#45;&gt;Node7 -->
<g id="edge7" class="edge">
<title>Node6&#45;&gt;Node7</title>
<path fill="none" stroke="midnightblue" d="M160.59,-112.08C168.16,-104.22 179.38,-92.57 188.51,-83.08"/>
<polygon fill="midnightblue" stroke="midnightblue" points="191.16,-85.38 195.57,-75.75 186.12,-80.53 191.16,-85.38"/>
</g>
</g>
</svg>
