<?xml version="1.0" encoding="UTF-8" standalone="no"?>
<!DOCTYPE svg PUBLIC "-//W3C//DTD SVG 1.1//EN"
 "http://www.w3.org/Graphics/SVG/1.1/DTD/svg11.dtd">
<!-- Generated by graphviz version 2.43.0 (0)
 -->
<!-- Title: exdscreenconfigurationmessage.h Pages: 1 -->
<svg width="192pt" height="252pt"
 viewBox="0.00 0.00 192.00 252.00" xmlns="http://www.w3.org/2000/svg" xmlns:xlink="http://www.w3.org/1999/xlink">
<g id="graph0" class="graph" transform="scale(1 1) rotate(0) translate(4 248)">
<title>exdscreenconfigurationmessage.h</title>
<!-- Node1 -->
<g id="node1" class="node">
<title>Node1</title>
<g id="a_node1"><a xlink:title=" ">
<polygon fill="#bfbfbf" stroke="black" points="0,-224.5 0,-243.5 184,-243.5 184,-224.5 0,-224.5"/>
<text text-anchor="middle" x="92" y="-231.5" font-family="Helvetica,sans-Serif" font-size="10.00">exdscreenconfigurationmessage.h</text>
</a>
</g>
</g>
<!-- Node2 -->
<g id="node2" class="node">
<title>Node2</title>
<g id="a_node2"><a xlink:href="fitdatamessage_8h_source.html" target="_top" xlink:title=" ">
<polygon fill="none" stroke="black" points="41.5,-168.5 41.5,-187.5 142.5,-187.5 142.5,-168.5 41.5,-168.5"/>
<text text-anchor="middle" x="92" y="-175.5" font-family="Helvetica,sans-Serif" font-size="10.00">fitdatamessage.h</text>
</a>
</g>
</g>
<!-- Node1&#45;&gt;Node2 -->
<g id="edge1" class="edge">
<title>Node1&#45;&gt;Node2</title>
<path fill="none" stroke="midnightblue" d="M92,-224.08C92,-217.01 92,-206.86 92,-197.99"/>
<polygon fill="midnightblue" stroke="midnightblue" points="95.5,-197.75 92,-187.75 88.5,-197.75 95.5,-197.75"/>
</g>
<!-- Node3 -->
<g id="node3" class="node">
<title>Node3</title>
<g id="a_node3"><a xlink:href="QtFit__global_8h_source.html" target="_top" xlink:title=" ">
<polygon fill="none" stroke="black" points="23,-56.5 23,-75.5 107,-75.5 107,-56.5 23,-56.5"/>
<text text-anchor="middle" x="65" y="-63.5" font-family="Helvetica,sans-Serif" font-size="10.00">QtFit_global.h</text>
</a>
</g>
</g>
<!-- Node2&#45;&gt;Node3 -->
<g id="edge2" class="edge">
<title>Node2&#45;&gt;Node3</title>
<path fill="none" stroke="midnightblue" d="M89.88,-168.37C85.52,-150.62 75.47,-109.67 69.56,-85.6"/>
<polygon fill="midnightblue" stroke="midnightblue" points="72.89,-84.47 67.11,-75.59 66.09,-86.14 72.89,-84.47"/>
</g>
<!-- Node5 -->
<g id="node5" class="node">
<title>Node5</title>
<g id="a_node5"><a xlink:href="types_8h.html" target="_top" xlink:title="Types defined by the ANT+ FIT SDK.">
<polygon fill="none" stroke="black" points="93.5,-112.5 93.5,-131.5 146.5,-131.5 146.5,-112.5 93.5,-112.5"/>
<text text-anchor="middle" x="120" y="-119.5" font-family="Helvetica,sans-Serif" font-size="10.00">types.h</text>
</a>
</g>
</g>
<!-- Node2&#45;&gt;Node5 -->
<g id="edge4" class="edge">
<title>Node2&#45;&gt;Node5</title>
<path fill="none" stroke="midnightblue" d="M96.62,-168.08C100.46,-160.69 106.02,-149.95 110.76,-140.81"/>
<polygon fill="midnightblue" stroke="midnightblue" points="113.97,-142.24 115.46,-131.75 107.75,-139.02 113.97,-142.24"/>
</g>
<!-- Node4 -->
<g id="node4" class="node">
<title>Node4</title>
<g id="a_node4"><a xlink:title=" ">
<polygon fill="none" stroke="#bfbfbf" points="35.5,-0.5 35.5,-19.5 94.5,-19.5 94.5,-0.5 35.5,-0.5"/>
<text text-anchor="middle" x="65" y="-7.5" font-family="Helvetica,sans-Serif" font-size="10.00">QtGlobal</text>
</a>
</g>
</g>
<!-- Node3&#45;&gt;Node4 -->
<g id="edge3" class="edge">
<title>Node3&#45;&gt;Node4</title>
<path fill="none" stroke="midnightblue" d="M65,-56.08C65,-49.01 65,-38.86 65,-29.99"/>
<polygon fill="midnightblue" stroke="midnightblue" points="68.5,-29.75 65,-19.75 61.5,-29.75 68.5,-29.75"/>
</g>
<!-- Node5&#45;&gt;Node3 -->
<g id="edge5" class="edge">
<title>Node5&#45;&gt;Node3</title>
<path fill="none" stroke="midnightblue" d="M110.92,-112.08C102.83,-104.14 90.8,-92.34 81.09,-82.8"/>
<polygon fill="midnightblue" stroke="midnightblue" points="83.5,-80.26 73.91,-75.75 78.6,-85.25 83.5,-80.26"/>
</g>
<!-- Node6 -->
<g id="node6" class="node">
<title>Node6</title>
<g id="a_node6"><a xlink:title=" ">
<polygon fill="none" stroke="#bfbfbf" points="125,-56.5 125,-75.5 181,-75.5 181,-56.5 125,-56.5"/>
<text text-anchor="middle" x="153" y="-63.5" font-family="Helvetica,sans-Serif" font-size="10.00">QDebug</text>
</a>
</g>
</g>
<!-- Node5&#45;&gt;Node6 -->
<g id="edge6" class="edge">
<title>Node5&#45;&gt;Node6</title>
<path fill="none" stroke="midnightblue" d="M125.45,-112.08C130.01,-104.61 136.67,-93.72 142.29,-84.52"/>
<polygon fill="midnightblue" stroke="midnightblue" points="145.42,-86.11 147.65,-75.75 139.45,-82.46 145.42,-86.11"/>
</g>
</g>
</svg>
