<?xml version="1.0" encoding="UTF-8" standalone="no"?>
<!DOCTYPE svg PUBLIC "-//W3C//DTD SVG 1.1//EN"
 "http://www.w3.org/Graphics/SVG/1.1/DTD/svg11.dtd">
<!-- Generated by graphviz version 2.43.0 (0)
 -->
<!-- Title: exercisetitlemessage.cpp Pages: 1 -->
<svg width="298pt" height="308pt"
 viewBox="0.00 0.00 297.50 308.00" xmlns="http://www.w3.org/2000/svg" xmlns:xlink="http://www.w3.org/1999/xlink">
<g id="graph0" class="graph" transform="scale(1 1) rotate(0) translate(4 304)">
<title>exercisetitlemessage.cpp</title>
<!-- Node1 -->
<g id="node1" class="node">
<title>Node1</title>
<g id="a_node1"><a xlink:title=" ">
<polygon fill="#bfbfbf" stroke="black" points="71.5,-280.5 71.5,-299.5 212.5,-299.5 212.5,-280.5 71.5,-280.5"/>
<text text-anchor="middle" x="142" y="-287.5" font-family="Helvetica,sans-Serif" font-size="10.00">exercisetitlemessage.cpp</text>
</a>
</g>
</g>
<!-- Node2 -->
<g id="node2" class="node">
<title>Node2</title>
<g id="a_node2"><a xlink:href="exercisetitlemessage_8h.html" target="_top" xlink:title=" ">
<polygon fill="none" stroke="black" points="0,-224.5 0,-243.5 130,-243.5 130,-224.5 0,-224.5"/>
<text text-anchor="middle" x="65" y="-231.5" font-family="Helvetica,sans-Serif" font-size="10.00">exercisetitlemessage.h</text>
</a>
</g>
</g>
<!-- Node1&#45;&gt;Node2 -->
<g id="edge1" class="edge">
<title>Node1&#45;&gt;Node2</title>
<path fill="none" stroke="midnightblue" d="M129.63,-280.32C117.84,-272.06 99.87,-259.45 85.86,-249.63"/>
<polygon fill="midnightblue" stroke="midnightblue" points="87.54,-246.53 77.34,-243.65 83.52,-252.26 87.54,-246.53"/>
</g>
<!-- Node7 -->
<g id="node7" class="node">
<title>Node7</title>
<g id="a_node7"><a xlink:title=" ">
<polygon fill="none" stroke="#bfbfbf" points="148.5,-224.5 148.5,-243.5 289.5,-243.5 289.5,-224.5 148.5,-224.5"/>
<text text-anchor="middle" x="219" y="-231.5" font-family="Helvetica,sans-Serif" font-size="10.00">exercisetitlemessage_p.h</text>
</a>
</g>
</g>
<!-- Node1&#45;&gt;Node7 -->
<g id="edge7" class="edge">
<title>Node1&#45;&gt;Node7</title>
<path fill="none" stroke="midnightblue" d="M154.37,-280.32C166.16,-272.06 184.13,-259.45 198.14,-249.63"/>
<polygon fill="midnightblue" stroke="midnightblue" points="200.48,-252.26 206.66,-243.65 196.46,-246.53 200.48,-252.26"/>
</g>
<!-- Node3 -->
<g id="node3" class="node">
<title>Node3</title>
<g id="a_node3"><a xlink:href="fitdatamessage_8h_source.html" target="_top" xlink:title=" ">
<polygon fill="none" stroke="black" points="14.5,-168.5 14.5,-187.5 115.5,-187.5 115.5,-168.5 14.5,-168.5"/>
<text text-anchor="middle" x="65" y="-175.5" font-family="Helvetica,sans-Serif" font-size="10.00">fitdatamessage.h</text>
</a>
</g>
</g>
<!-- Node2&#45;&gt;Node3 -->
<g id="edge2" class="edge">
<title>Node2&#45;&gt;Node3</title>
<path fill="none" stroke="midnightblue" d="M65,-224.08C65,-217.01 65,-206.86 65,-197.99"/>
<polygon fill="midnightblue" stroke="midnightblue" points="68.5,-197.75 65,-187.75 61.5,-197.75 68.5,-197.75"/>
</g>
<!-- Node4 -->
<g id="node4" class="node">
<title>Node4</title>
<g id="a_node4"><a xlink:href="QtFit__global_8h_source.html" target="_top" xlink:title=" ">
<polygon fill="none" stroke="black" points="23,-56.5 23,-75.5 107,-75.5 107,-56.5 23,-56.5"/>
<text text-anchor="middle" x="65" y="-63.5" font-family="Helvetica,sans-Serif" font-size="10.00">QtFit_global.h</text>
</a>
</g>
</g>
<!-- Node3&#45;&gt;Node4 -->
<g id="edge3" class="edge">
<title>Node3&#45;&gt;Node4</title>
<path fill="none" stroke="midnightblue" d="M63.26,-168.42C61.53,-159.4 58.99,-144.77 58,-132 56.8,-116.42 58.91,-98.8 61.12,-85.84"/>
<polygon fill="midnightblue" stroke="midnightblue" points="64.6,-86.29 63.01,-75.82 57.72,-84.99 64.6,-86.29"/>
</g>
<!-- Node6 -->
<g id="node6" class="node">
<title>Node6</title>
<g id="a_node6"><a xlink:href="types_8h.html" target="_top" xlink:title="Types defined by the ANT+ FIT SDK.">
<polygon fill="none" stroke="black" points="66.5,-112.5 66.5,-131.5 119.5,-131.5 119.5,-112.5 66.5,-112.5"/>
<text text-anchor="middle" x="93" y="-119.5" font-family="Helvetica,sans-Serif" font-size="10.00">types.h</text>
</a>
</g>
</g>
<!-- Node3&#45;&gt;Node6 -->
<g id="edge5" class="edge">
<title>Node3&#45;&gt;Node6</title>
<path fill="none" stroke="midnightblue" d="M69.62,-168.08C73.46,-160.69 79.02,-149.95 83.76,-140.81"/>
<polygon fill="midnightblue" stroke="midnightblue" points="86.97,-142.24 88.46,-131.75 80.75,-139.02 86.97,-142.24"/>
</g>
<!-- Node5 -->
<g id="node5" class="node">
<title>Node5</title>
<g id="a_node5"><a xlink:title=" ">
<polygon fill="none" stroke="#bfbfbf" points="35.5,-0.5 35.5,-19.5 94.5,-19.5 94.5,-0.5 35.5,-0.5"/>
<text text-anchor="middle" x="65" y="-7.5" font-family="Helvetica,sans-Serif" font-size="10.00">QtGlobal</text>
</a>
</g>
</g>
<!-- Node4&#45;&gt;Node5 -->
<g id="edge4" class="edge">
<title>Node4&#45;&gt;Node5</title>
<path fill="none" stroke="midnightblue" d="M65,-56.08C65,-49.01 65,-38.86 65,-29.99"/>
<polygon fill="midnightblue" stroke="midnightblue" points="68.5,-29.75 65,-19.75 61.5,-29.75 68.5,-29.75"/>
</g>
<!-- Node6&#45;&gt;Node4 -->
<g id="edge6" class="edge">
<title>Node6&#45;&gt;Node4</title>
<path fill="none" stroke="midnightblue" d="M88.38,-112.08C84.54,-104.69 78.98,-93.95 74.24,-84.81"/>
<polygon fill="midnightblue" stroke="midnightblue" points="77.25,-83.02 69.54,-75.75 71.03,-86.24 77.25,-83.02"/>
</g>
</g>
</svg>
