<?xml version="1.0" encoding="UTF-8" standalone="no"?>
<!DOCTYPE svg PUBLIC "-//W3C//DTD SVG 1.1//EN"
 "http://www.w3.org/Graphics/SVG/1.1/DTD/svg11.dtd">
<!-- Generated by graphviz version 2.43.0 (0)
 -->
<!-- Title: fielddescriptionmessage.cpp Pages: 1 -->
<svg width="481pt" height="308pt"
 viewBox="0.00 0.00 481.00 308.00" xmlns="http://www.w3.org/2000/svg" xmlns:xlink="http://www.w3.org/1999/xlink">
<g id="graph0" class="graph" transform="scale(1 1) rotate(0) translate(4 304)">
<title>fielddescriptionmessage.cpp</title>
<!-- Node1 -->
<g id="node1" class="node">
<title>Node1</title>
<g id="a_node1"><a xlink:title=" ">
<polygon fill="#bfbfbf" stroke="black" points="225.5,-280.5 225.5,-299.5 381.5,-299.5 381.5,-280.5 225.5,-280.5"/>
<text text-anchor="middle" x="303.5" y="-287.5" font-family="Helvetica,sans-Serif" font-size="10.00">fielddescriptionmessage.cpp</text>
</a>
</g>
</g>
<!-- Node2 -->
<g id="node2" class="node">
<title>Node2</title>
<g id="a_node2"><a xlink:href="fielddescriptionmessage_8h.html" target="_top" xlink:title=" ">
<polygon fill="none" stroke="black" points="0,-224.5 0,-243.5 145,-243.5 145,-224.5 0,-224.5"/>
<text text-anchor="middle" x="72.5" y="-231.5" font-family="Helvetica,sans-Serif" font-size="10.00">fielddescriptionmessage.h</text>
</a>
</g>
</g>
<!-- Node1&#45;&gt;Node2 -->
<g id="edge1" class="edge">
<title>Node1&#45;&gt;Node2</title>
<path fill="none" stroke="midnightblue" d="M266.9,-280.44C226.77,-271.06 162.3,-255.99 118.72,-245.8"/>
<polygon fill="midnightblue" stroke="midnightblue" points="119.47,-242.38 108.93,-243.52 117.87,-249.2 119.47,-242.38"/>
</g>
<!-- Node7 -->
<g id="node7" class="node">
<title>Node7</title>
<g id="a_node7"><a xlink:title=" ">
<polygon fill="none" stroke="#bfbfbf" points="163.5,-224.5 163.5,-243.5 319.5,-243.5 319.5,-224.5 163.5,-224.5"/>
<text text-anchor="middle" x="241.5" y="-231.5" font-family="Helvetica,sans-Serif" font-size="10.00">fielddescriptionmessage_p.h</text>
</a>
</g>
</g>
<!-- Node1&#45;&gt;Node7 -->
<g id="edge7" class="edge">
<title>Node1&#45;&gt;Node7</title>
<path fill="none" stroke="midnightblue" d="M293.54,-280.32C284.37,-272.34 270.56,-260.31 259.47,-250.65"/>
<polygon fill="midnightblue" stroke="midnightblue" points="261.48,-247.76 251.64,-243.83 256.88,-253.04 261.48,-247.76"/>
</g>
<!-- Node8 -->
<g id="node8" class="node">
<title>Node8</title>
<g id="a_node8"><a xlink:title=" ">
<polygon fill="none" stroke="#bfbfbf" points="337.5,-224.5 337.5,-243.5 393.5,-243.5 393.5,-224.5 337.5,-224.5"/>
<text text-anchor="middle" x="365.5" y="-231.5" font-family="Helvetica,sans-Serif" font-size="10.00">QDebug</text>
</a>
</g>
</g>
<!-- Node1&#45;&gt;Node8 -->
<g id="edge8" class="edge">
<title>Node1&#45;&gt;Node8</title>
<path fill="none" stroke="midnightblue" d="M313.46,-280.32C322.63,-272.34 336.44,-260.31 347.53,-250.65"/>
<polygon fill="midnightblue" stroke="midnightblue" points="350.12,-253.04 355.36,-243.83 345.52,-247.76 350.12,-253.04"/>
</g>
<!-- Node9 -->
<g id="node9" class="node">
<title>Node9</title>
<g id="a_node9"><a xlink:title=" ">
<polygon fill="none" stroke="#bfbfbf" points="412,-224.5 412,-243.5 473,-243.5 473,-224.5 412,-224.5"/>
<text text-anchor="middle" x="442.5" y="-231.5" font-family="Helvetica,sans-Serif" font-size="10.00">QtEndian</text>
</a>
</g>
</g>
<!-- Node1&#45;&gt;Node9 -->
<g id="edge9" class="edge">
<title>Node1&#45;&gt;Node9</title>
<path fill="none" stroke="midnightblue" d="M325.52,-280.44C348.6,-271.48 385.06,-257.31 411.14,-247.18"/>
<polygon fill="midnightblue" stroke="midnightblue" points="412.52,-250.4 420.58,-243.52 409.99,-243.88 412.52,-250.4"/>
</g>
<!-- Node3 -->
<g id="node3" class="node">
<title>Node3</title>
<g id="a_node3"><a xlink:href="fitdatamessage_8h_source.html" target="_top" xlink:title=" ">
<polygon fill="none" stroke="black" points="22,-168.5 22,-187.5 123,-187.5 123,-168.5 22,-168.5"/>
<text text-anchor="middle" x="72.5" y="-175.5" font-family="Helvetica,sans-Serif" font-size="10.00">fitdatamessage.h</text>
</a>
</g>
</g>
<!-- Node2&#45;&gt;Node3 -->
<g id="edge2" class="edge">
<title>Node2&#45;&gt;Node3</title>
<path fill="none" stroke="midnightblue" d="M72.5,-224.08C72.5,-217.01 72.5,-206.86 72.5,-197.99"/>
<polygon fill="midnightblue" stroke="midnightblue" points="76,-197.75 72.5,-187.75 69,-197.75 76,-197.75"/>
</g>
<!-- Node4 -->
<g id="node4" class="node">
<title>Node4</title>
<g id="a_node4"><a xlink:href="QtFit__global_8h_source.html" target="_top" xlink:title=" ">
<polygon fill="none" stroke="black" points="30.5,-56.5 30.5,-75.5 114.5,-75.5 114.5,-56.5 30.5,-56.5"/>
<text text-anchor="middle" x="72.5" y="-63.5" font-family="Helvetica,sans-Serif" font-size="10.00">QtFit_global.h</text>
</a>
</g>
</g>
<!-- Node3&#45;&gt;Node4 -->
<g id="edge3" class="edge">
<title>Node3&#45;&gt;Node4</title>
<path fill="none" stroke="midnightblue" d="M70.76,-168.42C69.03,-159.4 66.49,-144.77 65.5,-132 64.3,-116.42 66.41,-98.8 68.62,-85.84"/>
<polygon fill="midnightblue" stroke="midnightblue" points="72.1,-86.29 70.51,-75.82 65.22,-84.99 72.1,-86.29"/>
</g>
<!-- Node6 -->
<g id="node6" class="node">
<title>Node6</title>
<g id="a_node6"><a xlink:href="types_8h.html" target="_top" xlink:title="Types defined by the ANT+ FIT SDK.">
<polygon fill="none" stroke="black" points="74,-112.5 74,-131.5 127,-131.5 127,-112.5 74,-112.5"/>
<text text-anchor="middle" x="100.5" y="-119.5" font-family="Helvetica,sans-Serif" font-size="10.00">types.h</text>
</a>
</g>
</g>
<!-- Node3&#45;&gt;Node6 -->
<g id="edge5" class="edge">
<title>Node3&#45;&gt;Node6</title>
<path fill="none" stroke="midnightblue" d="M77.12,-168.08C80.96,-160.69 86.52,-149.95 91.26,-140.81"/>
<polygon fill="midnightblue" stroke="midnightblue" points="94.47,-142.24 95.96,-131.75 88.25,-139.02 94.47,-142.24"/>
</g>
<!-- Node5 -->
<g id="node5" class="node">
<title>Node5</title>
<g id="a_node5"><a xlink:title=" ">
<polygon fill="none" stroke="#bfbfbf" points="43,-0.5 43,-19.5 102,-19.5 102,-0.5 43,-0.5"/>
<text text-anchor="middle" x="72.5" y="-7.5" font-family="Helvetica,sans-Serif" font-size="10.00">QtGlobal</text>
</a>
</g>
</g>
<!-- Node4&#45;&gt;Node5 -->
<g id="edge4" class="edge">
<title>Node4&#45;&gt;Node5</title>
<path fill="none" stroke="midnightblue" d="M72.5,-56.08C72.5,-49.01 72.5,-38.86 72.5,-29.99"/>
<polygon fill="midnightblue" stroke="midnightblue" points="76,-29.75 72.5,-19.75 69,-29.75 76,-29.75"/>
</g>
<!-- Node6&#45;&gt;Node4 -->
<g id="edge6" class="edge">
<title>Node6&#45;&gt;Node4</title>
<path fill="none" stroke="midnightblue" d="M95.88,-112.08C92.04,-104.69 86.48,-93.95 81.74,-84.81"/>
<polygon fill="midnightblue" stroke="midnightblue" points="84.75,-83.02 77.04,-75.75 78.53,-86.24 84.75,-83.02"/>
</g>
</g>
</svg>
