<?xml version="1.0" encoding="UTF-8" standalone="no"?>
<!DOCTYPE svg PUBLIC "-//W3C//DTD SVG 1.1//EN"
 "http://www.w3.org/Graphics/SVG/1.1/DTD/svg11.dtd">
<!-- Generated by graphviz version 2.43.0 (0)
 -->
<!-- Title: fieldcapabilitiesmessage.h Pages: 1 -->
<svg width="171pt" height="252pt"
 viewBox="0.00 0.00 170.50 252.00" xmlns="http://www.w3.org/2000/svg" xmlns:xlink="http://www.w3.org/1999/xlink">
<g id="graph0" class="graph" transform="scale(1 1) rotate(0) translate(4 248)">
<title>fieldcapabilitiesmessage.h</title>
<!-- Node1 -->
<g id="node1" class="node">
<title>Node1</title>
<g id="a_node1"><a xlink:title=" ">
<polygon fill="#bfbfbf" stroke="black" points="0,-224.5 0,-243.5 147,-243.5 147,-224.5 0,-224.5"/>
<text text-anchor="middle" x="73.5" y="-231.5" font-family="Helvetica,sans-Serif" font-size="10.00">fieldcapabilitiesmessage.h</text>
</a>
</g>
</g>
<!-- Node2 -->
<g id="node2" class="node">
<title>Node2</title>
<g id="a_node2"><a xlink:href="abstractdatamessage_8h_source.html" target="_top" xlink:title=" ">
<polygon fill="none" stroke="black" points="8,-168.5 8,-187.5 139,-187.5 139,-168.5 8,-168.5"/>
<text text-anchor="middle" x="73.5" y="-175.5" font-family="Helvetica,sans-Serif" font-size="10.00">abstractdatamessage.h</text>
</a>
</g>
</g>
<!-- Node1&#45;&gt;Node2 -->
<g id="edge1" class="edge">
<title>Node1&#45;&gt;Node2</title>
<path fill="none" stroke="midnightblue" d="M73.5,-224.08C73.5,-217.01 73.5,-206.86 73.5,-197.99"/>
<polygon fill="midnightblue" stroke="midnightblue" points="77,-197.75 73.5,-187.75 70,-197.75 77,-197.75"/>
</g>
<!-- Node3 -->
<g id="node3" class="node">
<title>Node3</title>
<g id="a_node3"><a xlink:href="QtFit__global_8h_source.html" target="_top" xlink:title=" ">
<polygon fill="none" stroke="black" points="4.5,-56.5 4.5,-75.5 88.5,-75.5 88.5,-56.5 4.5,-56.5"/>
<text text-anchor="middle" x="46.5" y="-63.5" font-family="Helvetica,sans-Serif" font-size="10.00">QtFit_global.h</text>
</a>
</g>
</g>
<!-- Node2&#45;&gt;Node3 -->
<g id="edge2" class="edge">
<title>Node2&#45;&gt;Node3</title>
<path fill="none" stroke="midnightblue" d="M71.38,-168.37C67.02,-150.62 56.97,-109.67 51.06,-85.6"/>
<polygon fill="midnightblue" stroke="midnightblue" points="54.39,-84.47 48.61,-75.59 47.59,-86.14 54.39,-84.47"/>
</g>
<!-- Node5 -->
<g id="node5" class="node">
<title>Node5</title>
<g id="a_node5"><a xlink:href="types_8h.html" target="_top" xlink:title="Types defined by the ANT+ FIT SDK.">
<polygon fill="none" stroke="black" points="75,-112.5 75,-131.5 128,-131.5 128,-112.5 75,-112.5"/>
<text text-anchor="middle" x="101.5" y="-119.5" font-family="Helvetica,sans-Serif" font-size="10.00">types.h</text>
</a>
</g>
</g>
<!-- Node2&#45;&gt;Node5 -->
<g id="edge4" class="edge">
<title>Node2&#45;&gt;Node5</title>
<path fill="none" stroke="midnightblue" d="M78.12,-168.08C81.96,-160.69 87.52,-149.95 92.26,-140.81"/>
<polygon fill="midnightblue" stroke="midnightblue" points="95.47,-142.24 96.96,-131.75 89.25,-139.02 95.47,-142.24"/>
</g>
<!-- Node4 -->
<g id="node4" class="node">
<title>Node4</title>
<g id="a_node4"><a xlink:title=" ">
<polygon fill="none" stroke="#bfbfbf" points="17,-0.5 17,-19.5 76,-19.5 76,-0.5 17,-0.5"/>
<text text-anchor="middle" x="46.5" y="-7.5" font-family="Helvetica,sans-Serif" font-size="10.00">QtGlobal</text>
</a>
</g>
</g>
<!-- Node3&#45;&gt;Node4 -->
<g id="edge3" class="edge">
<title>Node3&#45;&gt;Node4</title>
<path fill="none" stroke="midnightblue" d="M46.5,-56.08C46.5,-49.01 46.5,-38.86 46.5,-29.99"/>
<polygon fill="midnightblue" stroke="midnightblue" points="50,-29.75 46.5,-19.75 43,-29.75 50,-29.75"/>
</g>
<!-- Node5&#45;&gt;Node3 -->
<g id="edge5" class="edge">
<title>Node5&#45;&gt;Node3</title>
<path fill="none" stroke="midnightblue" d="M92.42,-112.08C84.33,-104.14 72.3,-92.34 62.59,-82.8"/>
<polygon fill="midnightblue" stroke="midnightblue" points="65,-80.26 55.41,-75.75 60.1,-85.25 65,-80.26"/>
</g>
<!-- Node6 -->
<g id="node6" class="node">
<title>Node6</title>
<g id="a_node6"><a xlink:title=" ">
<polygon fill="none" stroke="#bfbfbf" points="106.5,-56.5 106.5,-75.5 162.5,-75.5 162.5,-56.5 106.5,-56.5"/>
<text text-anchor="middle" x="134.5" y="-63.5" font-family="Helvetica,sans-Serif" font-size="10.00">QDebug</text>
</a>
</g>
</g>
<!-- Node5&#45;&gt;Node6 -->
<g id="edge6" class="edge">
<title>Node5&#45;&gt;Node6</title>
<path fill="none" stroke="midnightblue" d="M106.95,-112.08C111.51,-104.61 118.17,-93.72 123.79,-84.52"/>
<polygon fill="midnightblue" stroke="midnightblue" points="126.92,-86.11 129.15,-75.75 120.95,-82.46 126.92,-86.11"/>
</g>
</g>
</svg>
