<?xml version="1.0" encoding="UTF-8" standalone="no"?>
<!DOCTYPE svg PUBLIC "-//W3C//DTD SVG 1.1//EN"
 "http://www.w3.org/Graphics/SVG/1.1/DTD/svg11.dtd">
<!-- Generated by graphviz version 2.43.0 (0)
 -->
<!-- Title: fielddescriptionmessage.cpp Pages: 1 -->
<svg width="445pt" height="308pt"
 viewBox="0.00 0.00 445.00 308.00" xmlns="http://www.w3.org/2000/svg" xmlns:xlink="http://www.w3.org/1999/xlink">
<g id="graph0" class="graph" transform="scale(1 1) rotate(0) translate(4 304)">
<title>fielddescriptionmessage.cpp</title>
<!-- Node1 -->
<g id="node1" class="node">
<title>Node1</title>
<g id="a_node1"><a xlink:title=" ">
<polygon fill="#bfbfbf" stroke="black" points="148.5,-280.5 148.5,-299.5 304.5,-299.5 304.5,-280.5 148.5,-280.5"/>
<text text-anchor="middle" x="226.5" y="-287.5" font-family="Helvetica,sans-Serif" font-size="10.00">fielddescriptionmessage.cpp</text>
</a>
</g>
</g>
<!-- Node2 -->
<g id="node2" class="node">
<title>Node2</title>
<g id="a_node2"><a xlink:href="fielddescriptionmessage_8h.html" target="_top" xlink:title=" ">
<polygon fill="none" stroke="black" points="0,-224.5 0,-243.5 145,-243.5 145,-224.5 0,-224.5"/>
<text text-anchor="middle" x="72.5" y="-231.5" font-family="Helvetica,sans-Serif" font-size="10.00">fielddescriptionmessage.h</text>
</a>
</g>
</g>
<!-- Node1&#45;&gt;Node2 -->
<g id="edge1" class="edge">
<title>Node1&#45;&gt;Node2</title>
<path fill="none" stroke="midnightblue" d="M202.1,-280.44C176.3,-271.4 135.42,-257.06 106.48,-246.92"/>
<polygon fill="midnightblue" stroke="midnightblue" points="107.38,-243.52 96.79,-243.52 105.07,-250.13 107.38,-243.52"/>
</g>
<!-- Node7 -->
<g id="node7" class="node">
<title>Node7</title>
<g id="a_node7"><a xlink:title=" ">
<polygon fill="none" stroke="#bfbfbf" points="139.5,-56.5 139.5,-75.5 195.5,-75.5 195.5,-56.5 139.5,-56.5"/>
<text text-anchor="middle" x="167.5" y="-63.5" font-family="Helvetica,sans-Serif" font-size="10.00">QDebug</text>
</a>
</g>
</g>
<!-- Node1&#45;&gt;Node7 -->
<g id="edge9" class="edge">
<title>Node1&#45;&gt;Node7</title>
<path fill="none" stroke="midnightblue" d="M217.67,-280.22C209.7,-271.73 198.36,-258.11 192.5,-244 169.92,-189.65 167.08,-118.69 167.12,-85.56"/>
<polygon fill="midnightblue" stroke="midnightblue" points="170.62,-85.54 167.23,-75.5 163.62,-85.47 170.62,-85.54"/>
</g>
<!-- Node8 -->
<g id="node8" class="node">
<title>Node8</title>
<g id="a_node8"><a xlink:title=" ">
<polygon fill="none" stroke="#bfbfbf" points="201.5,-224.5 201.5,-243.5 357.5,-243.5 357.5,-224.5 201.5,-224.5"/>
<text text-anchor="middle" x="279.5" y="-231.5" font-family="Helvetica,sans-Serif" font-size="10.00">fielddescriptionmessage_p.h</text>
</a>
</g>
</g>
<!-- Node1&#45;&gt;Node8 -->
<g id="edge8" class="edge">
<title>Node1&#45;&gt;Node8</title>
<path fill="none" stroke="midnightblue" d="M235.25,-280.08C242.97,-272.22 254.4,-260.57 263.72,-251.08"/>
<polygon fill="midnightblue" stroke="midnightblue" points="266.4,-253.34 270.91,-243.75 261.41,-248.44 266.4,-253.34"/>
</g>
<!-- Node9 -->
<g id="node9" class="node">
<title>Node9</title>
<g id="a_node9"><a xlink:title=" ">
<polygon fill="none" stroke="#bfbfbf" points="376,-224.5 376,-243.5 437,-243.5 437,-224.5 376,-224.5"/>
<text text-anchor="middle" x="406.5" y="-231.5" font-family="Helvetica,sans-Serif" font-size="10.00">QtEndian</text>
</a>
</g>
</g>
<!-- Node1&#45;&gt;Node9 -->
<g id="edge10" class="edge">
<title>Node1&#45;&gt;Node9</title>
<path fill="none" stroke="midnightblue" d="M255.02,-280.44C285.57,-271.28 334.21,-256.69 368.1,-246.52"/>
<polygon fill="midnightblue" stroke="midnightblue" points="369.54,-249.74 378.11,-243.52 367.53,-243.04 369.54,-249.74"/>
</g>
<!-- Node3 -->
<g id="node3" class="node">
<title>Node3</title>
<g id="a_node3"><a xlink:href="fitdatamessage_8h_source.html" target="_top" xlink:title=" ">
<polygon fill="none" stroke="black" points="22,-168.5 22,-187.5 123,-187.5 123,-168.5 22,-168.5"/>
<text text-anchor="middle" x="72.5" y="-175.5" font-family="Helvetica,sans-Serif" font-size="10.00">fitdatamessage.h</text>
</a>
</g>
</g>
<!-- Node2&#45;&gt;Node3 -->
<g id="edge2" class="edge">
<title>Node2&#45;&gt;Node3</title>
<path fill="none" stroke="midnightblue" d="M72.5,-224.08C72.5,-217.01 72.5,-206.86 72.5,-197.99"/>
<polygon fill="midnightblue" stroke="midnightblue" points="76,-197.75 72.5,-187.75 69,-197.75 76,-197.75"/>
</g>
<!-- Node4 -->
<g id="node4" class="node">
<title>Node4</title>
<g id="a_node4"><a xlink:href="QtFit__global_8h_source.html" target="_top" xlink:title=" ">
<polygon fill="none" stroke="black" points="32.5,-56.5 32.5,-75.5 116.5,-75.5 116.5,-56.5 32.5,-56.5"/>
<text text-anchor="middle" x="74.5" y="-63.5" font-family="Helvetica,sans-Serif" font-size="10.00">QtFit_global.h</text>
</a>
</g>
</g>
<!-- Node3&#45;&gt;Node4 -->
<g id="edge3" class="edge">
<title>Node3&#45;&gt;Node4</title>
<path fill="none" stroke="midnightblue" d="M72.66,-168.37C72.98,-150.62 73.72,-109.67 74.16,-85.6"/>
<polygon fill="midnightblue" stroke="midnightblue" points="77.66,-85.65 74.34,-75.59 70.66,-85.53 77.66,-85.65"/>
</g>
<!-- Node6 -->
<g id="node6" class="node">
<title>Node6</title>
<g id="a_node6"><a xlink:href="types_8h.html" target="_top" xlink:title="Types defined by the ANT+ FIT SDK.">
<polygon fill="none" stroke="black" points="92,-112.5 92,-131.5 145,-131.5 145,-112.5 92,-112.5"/>
<text text-anchor="middle" x="118.5" y="-119.5" font-family="Helvetica,sans-Serif" font-size="10.00">types.h</text>
</a>
</g>
</g>
<!-- Node3&#45;&gt;Node6 -->
<g id="edge5" class="edge">
<title>Node3&#45;&gt;Node6</title>
<path fill="none" stroke="midnightblue" d="M80.1,-168.08C86.73,-160.3 96.52,-148.8 104.56,-139.37"/>
<polygon fill="midnightblue" stroke="midnightblue" points="107.23,-141.63 111.05,-131.75 101.9,-137.09 107.23,-141.63"/>
</g>
<!-- Node5 -->
<g id="node5" class="node">
<title>Node5</title>
<g id="a_node5"><a xlink:title=" ">
<polygon fill="none" stroke="#bfbfbf" points="45,-0.5 45,-19.5 104,-19.5 104,-0.5 45,-0.5"/>
<text text-anchor="middle" x="74.5" y="-7.5" font-family="Helvetica,sans-Serif" font-size="10.00">QtGlobal</text>
</a>
</g>
</g>
<!-- Node4&#45;&gt;Node5 -->
<g id="edge4" class="edge">
<title>Node4&#45;&gt;Node5</title>
<path fill="none" stroke="midnightblue" d="M74.5,-56.08C74.5,-49.01 74.5,-38.86 74.5,-29.99"/>
<polygon fill="midnightblue" stroke="midnightblue" points="78,-29.75 74.5,-19.75 71,-29.75 78,-29.75"/>
</g>
<!-- Node6&#45;&gt;Node4 -->
<g id="edge6" class="edge">
<title>Node6&#45;&gt;Node4</title>
<path fill="none" stroke="midnightblue" d="M111.23,-112.08C104.96,-104.38 95.71,-93.03 88.07,-83.65"/>
<polygon fill="midnightblue" stroke="midnightblue" points="90.66,-81.29 81.63,-75.75 85.23,-85.71 90.66,-81.29"/>
</g>
<!-- Node6&#45;&gt;Node7 -->
<g id="edge7" class="edge">
<title>Node6&#45;&gt;Node7</title>
<path fill="none" stroke="midnightblue" d="M126.59,-112.08C133.66,-104.3 144.09,-92.8 152.65,-83.37"/>
<polygon fill="midnightblue" stroke="midnightblue" points="155.43,-85.51 159.56,-75.75 150.25,-80.8 155.43,-85.51"/>
</g>
</g>
</svg>
