<?xml version="1.0" encoding="UTF-8" standalone="no"?>
<!DOCTYPE svg PUBLIC "-//W3C//DTD SVG 1.1//EN"
 "http://www.w3.org/Graphics/SVG/1.1/DTD/svg11.dtd">
<!-- Generated by graphviz version 2.43.0 (0)
 -->
<!-- Title: filecreatormessage.cpp Pages: 1 -->
<svg width="430pt" height="308pt"
 viewBox="0.00 0.00 430.00 308.00" xmlns="http://www.w3.org/2000/svg" xmlns:xlink="http://www.w3.org/1999/xlink">
<g id="graph0" class="graph" transform="scale(1 1) rotate(0) translate(4 304)">
<title>filecreatormessage.cpp</title>
<!-- Node1 -->
<g id="node1" class="node">
<title>Node1</title>
<g id="a_node1"><a xlink:title=" ">
<polygon fill="#bfbfbf" stroke="black" points="193,-280.5 193,-299.5 324,-299.5 324,-280.5 193,-280.5"/>
<text text-anchor="middle" x="258.5" y="-287.5" font-family="Helvetica,sans-Serif" font-size="10.00">filecreatormessage.cpp</text>
</a>
</g>
</g>
<!-- Node2 -->
<g id="node2" class="node">
<title>Node2</title>
<g id="a_node2"><a xlink:href="filecreatormessage_8h.html" target="_top" xlink:title=" ">
<polygon fill="none" stroke="black" points="0,-224.5 0,-243.5 119,-243.5 119,-224.5 0,-224.5"/>
<text text-anchor="middle" x="59.5" y="-231.5" font-family="Helvetica,sans-Serif" font-size="10.00">filecreatormessage.h</text>
</a>
</g>
</g>
<!-- Node1&#45;&gt;Node2 -->
<g id="edge1" class="edge">
<title>Node1&#45;&gt;Node2</title>
<path fill="none" stroke="midnightblue" d="M226.97,-280.44C192.91,-271.2 138.49,-256.44 100.98,-246.26"/>
<polygon fill="midnightblue" stroke="midnightblue" points="101.45,-242.76 90.88,-243.52 99.62,-249.51 101.45,-242.76"/>
</g>
<!-- Node7 -->
<g id="node7" class="node">
<title>Node7</title>
<g id="a_node7"><a xlink:title=" ">
<polygon fill="none" stroke="#bfbfbf" points="137,-224.5 137,-243.5 268,-243.5 268,-224.5 137,-224.5"/>
<text text-anchor="middle" x="202.5" y="-231.5" font-family="Helvetica,sans-Serif" font-size="10.00">filecreatormessage_p.h</text>
</a>
</g>
</g>
<!-- Node1&#45;&gt;Node7 -->
<g id="edge7" class="edge">
<title>Node1&#45;&gt;Node7</title>
<path fill="none" stroke="midnightblue" d="M249.5,-280.32C241.31,-272.42 228.99,-260.55 219.03,-250.94"/>
<polygon fill="midnightblue" stroke="midnightblue" points="221.29,-248.26 211.66,-243.83 216.43,-253.29 221.29,-248.26"/>
</g>
<!-- Node8 -->
<g id="node8" class="node">
<title>Node8</title>
<g id="a_node8"><a xlink:title=" ">
<polygon fill="none" stroke="#bfbfbf" points="286.5,-224.5 286.5,-243.5 342.5,-243.5 342.5,-224.5 286.5,-224.5"/>
<text text-anchor="middle" x="314.5" y="-231.5" font-family="Helvetica,sans-Serif" font-size="10.00">QDebug</text>
</a>
</g>
</g>
<!-- Node1&#45;&gt;Node8 -->
<g id="edge8" class="edge">
<title>Node1&#45;&gt;Node8</title>
<path fill="none" stroke="midnightblue" d="M267.5,-280.32C275.69,-272.42 288.01,-260.55 297.97,-250.94"/>
<polygon fill="midnightblue" stroke="midnightblue" points="300.57,-253.29 305.34,-243.83 295.71,-248.26 300.57,-253.29"/>
</g>
<!-- Node9 -->
<g id="node9" class="node">
<title>Node9</title>
<g id="a_node9"><a xlink:title=" ">
<polygon fill="none" stroke="#bfbfbf" points="361,-224.5 361,-243.5 422,-243.5 422,-224.5 361,-224.5"/>
<text text-anchor="middle" x="391.5" y="-231.5" font-family="Helvetica,sans-Serif" font-size="10.00">QtEndian</text>
</a>
</g>
</g>
<!-- Node1&#45;&gt;Node9 -->
<g id="edge9" class="edge">
<title>Node1&#45;&gt;Node9</title>
<path fill="none" stroke="midnightblue" d="M279.57,-280.44C301.56,-271.52 336.23,-257.44 361.16,-247.32"/>
<polygon fill="midnightblue" stroke="midnightblue" points="362.58,-250.52 370.52,-243.52 359.94,-244.04 362.58,-250.52"/>
</g>
<!-- Node3 -->
<g id="node3" class="node">
<title>Node3</title>
<g id="a_node3"><a xlink:href="fitdatamessage_8h_source.html" target="_top" xlink:title=" ">
<polygon fill="none" stroke="black" points="9,-168.5 9,-187.5 110,-187.5 110,-168.5 9,-168.5"/>
<text text-anchor="middle" x="59.5" y="-175.5" font-family="Helvetica,sans-Serif" font-size="10.00">fitdatamessage.h</text>
</a>
</g>
</g>
<!-- Node2&#45;&gt;Node3 -->
<g id="edge2" class="edge">
<title>Node2&#45;&gt;Node3</title>
<path fill="none" stroke="midnightblue" d="M59.5,-224.08C59.5,-217.01 59.5,-206.86 59.5,-197.99"/>
<polygon fill="midnightblue" stroke="midnightblue" points="63,-197.75 59.5,-187.75 56,-197.75 63,-197.75"/>
</g>
<!-- Node4 -->
<g id="node4" class="node">
<title>Node4</title>
<g id="a_node4"><a xlink:href="QtFit__global_8h_source.html" target="_top" xlink:title=" ">
<polygon fill="none" stroke="black" points="17.5,-56.5 17.5,-75.5 101.5,-75.5 101.5,-56.5 17.5,-56.5"/>
<text text-anchor="middle" x="59.5" y="-63.5" font-family="Helvetica,sans-Serif" font-size="10.00">QtFit_global.h</text>
</a>
</g>
</g>
<!-- Node3&#45;&gt;Node4 -->
<g id="edge3" class="edge">
<title>Node3&#45;&gt;Node4</title>
<path fill="none" stroke="midnightblue" d="M57.76,-168.42C56.03,-159.4 53.49,-144.77 52.5,-132 51.3,-116.42 53.41,-98.8 55.62,-85.84"/>
<polygon fill="midnightblue" stroke="midnightblue" points="59.1,-86.29 57.51,-75.82 52.22,-84.99 59.1,-86.29"/>
</g>
<!-- Node6 -->
<g id="node6" class="node">
<title>Node6</title>
<g id="a_node6"><a xlink:href="types_8h.html" target="_top" xlink:title="Types defined by the ANT+ FIT SDK.">
<polygon fill="none" stroke="black" points="61,-112.5 61,-131.5 114,-131.5 114,-112.5 61,-112.5"/>
<text text-anchor="middle" x="87.5" y="-119.5" font-family="Helvetica,sans-Serif" font-size="10.00">types.h</text>
</a>
</g>
</g>
<!-- Node3&#45;&gt;Node6 -->
<g id="edge5" class="edge">
<title>Node3&#45;&gt;Node6</title>
<path fill="none" stroke="midnightblue" d="M64.12,-168.08C67.96,-160.69 73.52,-149.95 78.26,-140.81"/>
<polygon fill="midnightblue" stroke="midnightblue" points="81.47,-142.24 82.96,-131.75 75.25,-139.02 81.47,-142.24"/>
</g>
<!-- Node5 -->
<g id="node5" class="node">
<title>Node5</title>
<g id="a_node5"><a xlink:title=" ">
<polygon fill="none" stroke="#bfbfbf" points="30,-0.5 30,-19.5 89,-19.5 89,-0.5 30,-0.5"/>
<text text-anchor="middle" x="59.5" y="-7.5" font-family="Helvetica,sans-Serif" font-size="10.00">QtGlobal</text>
</a>
</g>
</g>
<!-- Node4&#45;&gt;Node5 -->
<g id="edge4" class="edge">
<title>Node4&#45;&gt;Node5</title>
<path fill="none" stroke="midnightblue" d="M59.5,-56.08C59.5,-49.01 59.5,-38.86 59.5,-29.99"/>
<polygon fill="midnightblue" stroke="midnightblue" points="63,-29.75 59.5,-19.75 56,-29.75 63,-29.75"/>
</g>
<!-- Node6&#45;&gt;Node4 -->
<g id="edge6" class="edge">
<title>Node6&#45;&gt;Node4</title>
<path fill="none" stroke="midnightblue" d="M82.88,-112.08C79.04,-104.69 73.48,-93.95 68.74,-84.81"/>
<polygon fill="midnightblue" stroke="midnightblue" points="71.75,-83.02 64.04,-75.75 65.53,-86.24 71.75,-83.02"/>
</g>
</g>
</svg>
