<?xml version="1.0" encoding="UTF-8" standalone="no"?>
<!DOCTYPE svg PUBLIC "-//W3C//DTD SVG 1.1//EN"
 "http://www.w3.org/Graphics/SVG/1.1/DTD/svg11.dtd">
<!-- Generated by graphviz version 2.43.0 (0)
 -->
<!-- Title: filecreatormessage.cpp Pages: 1 -->
<svg width="394pt" height="308pt"
 viewBox="0.00 0.00 394.00 308.00" xmlns="http://www.w3.org/2000/svg" xmlns:xlink="http://www.w3.org/1999/xlink">
<g id="graph0" class="graph" transform="scale(1 1) rotate(0) translate(4 304)">
<title>filecreatormessage.cpp</title>
<!-- Node1 -->
<g id="node1" class="node">
<title>Node1</title>
<g id="a_node1"><a xlink:title=" ">
<polygon fill="#bfbfbf" stroke="black" points="129,-280.5 129,-299.5 260,-299.5 260,-280.5 129,-280.5"/>
<text text-anchor="middle" x="194.5" y="-287.5" font-family="Helvetica,sans-Serif" font-size="10.00">filecreatormessage.cpp</text>
</a>
</g>
</g>
<!-- Node2 -->
<g id="node2" class="node">
<title>Node2</title>
<g id="a_node2"><a xlink:href="filecreatormessage_8h.html" target="_top" xlink:title=" ">
<polygon fill="none" stroke="black" points="0,-224.5 0,-243.5 119,-243.5 119,-224.5 0,-224.5"/>
<text text-anchor="middle" x="59.5" y="-231.5" font-family="Helvetica,sans-Serif" font-size="10.00">filecreatormessage.h</text>
</a>
</g>
</g>
<!-- Node1&#45;&gt;Node2 -->
<g id="edge1" class="edge">
<title>Node1&#45;&gt;Node2</title>
<path fill="none" stroke="midnightblue" d="M173.11,-280.44C150.79,-271.52 115.6,-257.44 90.29,-247.32"/>
<polygon fill="midnightblue" stroke="midnightblue" points="91.38,-243.98 80.79,-243.52 88.78,-250.48 91.38,-243.98"/>
</g>
<!-- Node7 -->
<g id="node7" class="node">
<title>Node7</title>
<g id="a_node7"><a xlink:title=" ">
<polygon fill="none" stroke="#bfbfbf" points="113.5,-56.5 113.5,-75.5 169.5,-75.5 169.5,-56.5 113.5,-56.5"/>
<text text-anchor="middle" x="141.5" y="-63.5" font-family="Helvetica,sans-Serif" font-size="10.00">QDebug</text>
</a>
</g>
</g>
<!-- Node1&#45;&gt;Node7 -->
<g id="edge9" class="edge">
<title>Node1&#45;&gt;Node7</title>
<path fill="none" stroke="midnightblue" d="M187.79,-280.23C181.49,-271.52 172.34,-257.56 167.5,-244 147.78,-188.79 143,-118.78 141.86,-85.8"/>
<polygon fill="midnightblue" stroke="midnightblue" points="145.35,-85.67 141.58,-75.76 138.36,-85.86 145.35,-85.67"/>
</g>
<!-- Node8 -->
<g id="node8" class="node">
<title>Node8</title>
<g id="a_node8"><a xlink:title=" ">
<polygon fill="none" stroke="#bfbfbf" points="176,-224.5 176,-243.5 307,-243.5 307,-224.5 176,-224.5"/>
<text text-anchor="middle" x="241.5" y="-231.5" font-family="Helvetica,sans-Serif" font-size="10.00">filecreatormessage_p.h</text>
</a>
</g>
</g>
<!-- Node1&#45;&gt;Node8 -->
<g id="edge8" class="edge">
<title>Node1&#45;&gt;Node8</title>
<path fill="none" stroke="midnightblue" d="M202.26,-280.08C209.04,-272.3 219.04,-260.8 227.26,-251.37"/>
<polygon fill="midnightblue" stroke="midnightblue" points="229.96,-253.59 233.88,-243.75 224.68,-249 229.96,-253.59"/>
</g>
<!-- Node9 -->
<g id="node9" class="node">
<title>Node9</title>
<g id="a_node9"><a xlink:title=" ">
<polygon fill="none" stroke="#bfbfbf" points="325,-224.5 325,-243.5 386,-243.5 386,-224.5 325,-224.5"/>
<text text-anchor="middle" x="355.5" y="-231.5" font-family="Helvetica,sans-Serif" font-size="10.00">QtEndian</text>
</a>
</g>
</g>
<!-- Node1&#45;&gt;Node9 -->
<g id="edge10" class="edge">
<title>Node1&#45;&gt;Node9</title>
<path fill="none" stroke="midnightblue" d="M220.01,-280.44C247.1,-271.36 290.09,-256.94 320.37,-246.78"/>
<polygon fill="midnightblue" stroke="midnightblue" points="321.74,-250.01 330.11,-243.52 319.51,-243.38 321.74,-250.01"/>
</g>
<!-- Node3 -->
<g id="node3" class="node">
<title>Node3</title>
<g id="a_node3"><a xlink:href="fitdatamessage_8h_source.html" target="_top" xlink:title=" ">
<polygon fill="none" stroke="black" points="9,-168.5 9,-187.5 110,-187.5 110,-168.5 9,-168.5"/>
<text text-anchor="middle" x="59.5" y="-175.5" font-family="Helvetica,sans-Serif" font-size="10.00">fitdatamessage.h</text>
</a>
</g>
</g>
<!-- Node2&#45;&gt;Node3 -->
<g id="edge2" class="edge">
<title>Node2&#45;&gt;Node3</title>
<path fill="none" stroke="midnightblue" d="M59.5,-224.08C59.5,-217.01 59.5,-206.86 59.5,-197.99"/>
<polygon fill="midnightblue" stroke="midnightblue" points="63,-197.75 59.5,-187.75 56,-197.75 63,-197.75"/>
</g>
<!-- Node4 -->
<g id="node4" class="node">
<title>Node4</title>
<g id="a_node4"><a xlink:href="QtFit__global_8h_source.html" target="_top" xlink:title=" ">
<polygon fill="none" stroke="black" points="6.5,-56.5 6.5,-75.5 90.5,-75.5 90.5,-56.5 6.5,-56.5"/>
<text text-anchor="middle" x="48.5" y="-63.5" font-family="Helvetica,sans-Serif" font-size="10.00">QtFit_global.h</text>
</a>
</g>
</g>
<!-- Node3&#45;&gt;Node4 -->
<g id="edge3" class="edge">
<title>Node3&#45;&gt;Node4</title>
<path fill="none" stroke="midnightblue" d="M58.64,-168.37C56.86,-150.62 52.77,-109.67 50.36,-85.6"/>
<polygon fill="midnightblue" stroke="midnightblue" points="53.84,-85.19 49.36,-75.59 46.87,-85.89 53.84,-85.19"/>
</g>
<!-- Node6 -->
<g id="node6" class="node">
<title>Node6</title>
<g id="a_node6"><a xlink:href="types_8h.html" target="_top" xlink:title="Types defined by the ANT+ FIT SDK.">
<polygon fill="none" stroke="black" points="66,-112.5 66,-131.5 119,-131.5 119,-112.5 66,-112.5"/>
<text text-anchor="middle" x="92.5" y="-119.5" font-family="Helvetica,sans-Serif" font-size="10.00">types.h</text>
</a>
</g>
</g>
<!-- Node3&#45;&gt;Node6 -->
<g id="edge5" class="edge">
<title>Node3&#45;&gt;Node6</title>
<path fill="none" stroke="midnightblue" d="M64.95,-168.08C69.51,-160.61 76.17,-149.72 81.79,-140.52"/>
<polygon fill="midnightblue" stroke="midnightblue" points="84.92,-142.11 87.15,-131.75 78.95,-138.46 84.92,-142.11"/>
</g>
<!-- Node5 -->
<g id="node5" class="node">
<title>Node5</title>
<g id="a_node5"><a xlink:title=" ">
<polygon fill="none" stroke="#bfbfbf" points="19,-0.5 19,-19.5 78,-19.5 78,-0.5 19,-0.5"/>
<text text-anchor="middle" x="48.5" y="-7.5" font-family="Helvetica,sans-Serif" font-size="10.00">QtGlobal</text>
</a>
</g>
</g>
<!-- Node4&#45;&gt;Node5 -->
<g id="edge4" class="edge">
<title>Node4&#45;&gt;Node5</title>
<path fill="none" stroke="midnightblue" d="M48.5,-56.08C48.5,-49.01 48.5,-38.86 48.5,-29.99"/>
<polygon fill="midnightblue" stroke="midnightblue" points="52,-29.75 48.5,-19.75 45,-29.75 52,-29.75"/>
</g>
<!-- Node6&#45;&gt;Node4 -->
<g id="edge6" class="edge">
<title>Node6&#45;&gt;Node4</title>
<path fill="none" stroke="midnightblue" d="M85.23,-112.08C78.96,-104.38 69.71,-93.03 62.07,-83.65"/>
<polygon fill="midnightblue" stroke="midnightblue" points="64.66,-81.29 55.63,-75.75 59.23,-85.71 64.66,-81.29"/>
</g>
<!-- Node6&#45;&gt;Node7 -->
<g id="edge7" class="edge">
<title>Node6&#45;&gt;Node7</title>
<path fill="none" stroke="midnightblue" d="M100.59,-112.08C107.66,-104.3 118.09,-92.8 126.65,-83.37"/>
<polygon fill="midnightblue" stroke="midnightblue" points="129.43,-85.51 133.56,-75.75 124.25,-80.8 129.43,-85.51"/>
</g>
</g>
</svg>
