<?xml version="1.0" encoding="UTF-8" standalone="no"?>
<!DOCTYPE svg PUBLIC "-//W3C//DTD SVG 1.1//EN"
 "http://www.w3.org/Graphics/SVG/1.1/DTD/svg11.dtd">
<!-- Generated by graphviz version 2.43.0 (0)
 -->
<!-- Title: fitdatamessages.cpp Pages: 1 -->
<svg width="247pt" height="308pt"
 viewBox="0.00 0.00 246.52 308.00" xmlns="http://www.w3.org/2000/svg" xmlns:xlink="http://www.w3.org/1999/xlink">
<g id="graph0" class="graph" transform="scale(1 1) rotate(0) translate(4 304)">
<title>fitdatamessages.cpp</title>
<!-- Node1 -->
<g id="node1" class="node">
<title>Node1</title>
<g id="a_node1"><a xlink:title=" ">
<polygon fill="#bfbfbf" stroke="black" points="10.52,-280.5 10.52,-299.5 128.52,-299.5 128.52,-280.5 10.52,-280.5"/>
<text text-anchor="middle" x="69.52" y="-287.5" font-family="Helvetica,sans-Serif" font-size="10.00">fitdatamessages.cpp</text>
</a>
</g>
</g>
<!-- Node2 -->
<g id="node2" class="node">
<title>Node2</title>
<g id="a_node2"><a xlink:href="fitdatamessage_8h_source.html" target="_top" xlink:title=" ">
<polygon fill="none" stroke="black" points="37.02,-168.5 37.02,-187.5 138.02,-187.5 138.02,-168.5 37.02,-168.5"/>
<text text-anchor="middle" x="87.52" y="-175.5" font-family="Helvetica,sans-Serif" font-size="10.00">fitdatamessage.h</text>
</a>
</g>
</g>
<!-- Node1&#45;&gt;Node2 -->
<g id="edge1" class="edge">
<title>Node1&#45;&gt;Node2</title>
<path fill="none" stroke="midnightblue" d="M48.7,-280.46C24.39,-269.16 -10.77,-247.87 3.52,-224 12.67,-208.72 28.98,-198.33 44.81,-191.43"/>
<polygon fill="midnightblue" stroke="midnightblue" points="46.53,-194.51 54.53,-187.56 43.95,-188 46.53,-194.51"/>
</g>
<!-- Node6 -->
<g id="node6" class="node">
<title>Node6</title>
<g id="a_node6"><a xlink:title=" ">
<polygon fill="none" stroke="#bfbfbf" points="13.02,-224.5 13.02,-243.5 126.02,-243.5 126.02,-224.5 13.02,-224.5"/>
<text text-anchor="middle" x="69.52" y="-231.5" font-family="Helvetica,sans-Serif" font-size="10.00">fitdatamessage_p.h</text>
</a>
</g>
</g>
<!-- Node1&#45;&gt;Node6 -->
<g id="edge6" class="edge">
<title>Node1&#45;&gt;Node6</title>
<path fill="none" stroke="midnightblue" d="M69.52,-280.08C69.52,-273.01 69.52,-262.86 69.52,-253.99"/>
<polygon fill="midnightblue" stroke="midnightblue" points="73.02,-253.75 69.52,-243.75 66.02,-253.75 73.02,-253.75"/>
</g>
<!-- Node7 -->
<g id="node7" class="node">
<title>Node7</title>
<g id="a_node7"><a xlink:href="fileidmessage_8h_source.html" target="_top" xlink:title=" ">
<polygon fill="none" stroke="black" points="144.52,-224.5 144.52,-243.5 238.52,-243.5 238.52,-224.5 144.52,-224.5"/>
<text text-anchor="middle" x="191.52" y="-231.5" font-family="Helvetica,sans-Serif" font-size="10.00">fileidmessage.h</text>
</a>
</g>
</g>
<!-- Node1&#45;&gt;Node7 -->
<g id="edge7" class="edge">
<title>Node1&#45;&gt;Node7</title>
<path fill="none" stroke="midnightblue" d="M88.85,-280.44C108.84,-271.6 140.26,-257.69 163.08,-247.59"/>
<polygon fill="midnightblue" stroke="midnightblue" points="164.55,-250.76 172.28,-243.52 161.72,-244.36 164.55,-250.76"/>
</g>
<!-- Node3 -->
<g id="node3" class="node">
<title>Node3</title>
<g id="a_node3"><a xlink:href="QtFit__global_8h_source.html" target="_top" xlink:title=" ">
<polygon fill="none" stroke="black" points="45.52,-56.5 45.52,-75.5 129.52,-75.5 129.52,-56.5 45.52,-56.5"/>
<text text-anchor="middle" x="87.52" y="-63.5" font-family="Helvetica,sans-Serif" font-size="10.00">QtFit_global.h</text>
</a>
</g>
</g>
<!-- Node2&#45;&gt;Node3 -->
<g id="edge2" class="edge">
<title>Node2&#45;&gt;Node3</title>
<path fill="none" stroke="midnightblue" d="M85.78,-168.42C84.05,-159.4 81.51,-144.77 80.52,-132 79.31,-116.42 81.43,-98.8 83.64,-85.84"/>
<polygon fill="midnightblue" stroke="midnightblue" points="87.12,-86.29 85.53,-75.82 80.24,-84.99 87.12,-86.29"/>
</g>
<!-- Node5 -->
<g id="node5" class="node">
<title>Node5</title>
<g id="a_node5"><a xlink:href="types_8h.html" target="_top" xlink:title="Types defined by the ANT+ FIT SDK.">
<polygon fill="none" stroke="black" points="89.02,-112.5 89.02,-131.5 142.02,-131.5 142.02,-112.5 89.02,-112.5"/>
<text text-anchor="middle" x="115.52" y="-119.5" font-family="Helvetica,sans-Serif" font-size="10.00">types.h</text>
</a>
</g>
</g>
<!-- Node2&#45;&gt;Node5 -->
<g id="edge4" class="edge">
<title>Node2&#45;&gt;Node5</title>
<path fill="none" stroke="midnightblue" d="M92.14,-168.08C95.97,-160.69 101.54,-149.95 106.28,-140.81"/>
<polygon fill="midnightblue" stroke="midnightblue" points="109.48,-142.24 110.98,-131.75 103.27,-139.02 109.48,-142.24"/>
</g>
<!-- Node4 -->
<g id="node4" class="node">
<title>Node4</title>
<g id="a_node4"><a xlink:title=" ">
<polygon fill="none" stroke="#bfbfbf" points="58.02,-0.5 58.02,-19.5 117.02,-19.5 117.02,-0.5 58.02,-0.5"/>
<text text-anchor="middle" x="87.52" y="-7.5" font-family="Helvetica,sans-Serif" font-size="10.00">QtGlobal</text>
</a>
</g>
</g>
<!-- Node3&#45;&gt;Node4 -->
<g id="edge3" class="edge">
<title>Node3&#45;&gt;Node4</title>
<path fill="none" stroke="midnightblue" d="M87.52,-56.08C87.52,-49.01 87.52,-38.86 87.52,-29.99"/>
<polygon fill="midnightblue" stroke="midnightblue" points="91.02,-29.75 87.52,-19.75 84.02,-29.75 91.02,-29.75"/>
</g>
<!-- Node5&#45;&gt;Node3 -->
<g id="edge5" class="edge">
<title>Node5&#45;&gt;Node3</title>
<path fill="none" stroke="midnightblue" d="M110.89,-112.08C107.06,-104.69 101.49,-93.95 96.75,-84.81"/>
<polygon fill="midnightblue" stroke="midnightblue" points="99.77,-83.02 92.06,-75.75 93.55,-86.24 99.77,-83.02"/>
</g>
<!-- Node7&#45;&gt;Node2 -->
<g id="edge8" class="edge">
<title>Node7&#45;&gt;Node2</title>
<path fill="none" stroke="midnightblue" d="M174.81,-224.32C158.21,-215.7 132.52,-202.36 113.3,-192.39"/>
<polygon fill="midnightblue" stroke="midnightblue" points="114.67,-189.16 104.19,-187.65 111.45,-195.37 114.67,-189.16"/>
</g>
</g>
</svg>
