<?xml version="1.0" encoding="UTF-8" standalone="no"?>
<!DOCTYPE svg PUBLIC "-//W3C//DTD SVG 1.1//EN"
 "http://www.w3.org/Graphics/SVG/1.1/DTD/svg11.dtd">
<!-- Generated by graphviz version 2.43.0 (0)
 -->
<!-- Title: fitstreamreader.cpp Pages: 1 -->
<svg width="590pt" height="308pt"
 viewBox="0.00 0.00 590.00 308.00" xmlns="http://www.w3.org/2000/svg" xmlns:xlink="http://www.w3.org/1999/xlink">
<g id="graph0" class="graph" transform="scale(1 1) rotate(0) translate(4 304)">
<title>fitstreamreader.cpp</title>
<!-- Node1 -->
<g id="node1" class="node">
<title>Node1</title>
<g id="a_node1"><a xlink:title="Defines the FitStreamReader, and FitStreamReaderPrivate classes.">
<polygon fill="#bfbfbf" stroke="black" points="244.5,-280.5 244.5,-299.5 356.5,-299.5 356.5,-280.5 244.5,-280.5"/>
<text text-anchor="middle" x="300.5" y="-287.5" font-family="Helvetica,sans-Serif" font-size="10.00">fitstreamreader.cpp</text>
</a>
</g>
</g>
<!-- Node2 -->
<g id="node2" class="node">
<title>Node2</title>
<g id="a_node2"><a xlink:href="abstractdatamessage_8h.html" target="_top" xlink:title="Declares the AbstractDataMessage class.">
<polygon fill="none" stroke="black" points="0,-168.5 0,-187.5 131,-187.5 131,-168.5 0,-168.5"/>
<text text-anchor="middle" x="65.5" y="-175.5" font-family="Helvetica,sans-Serif" font-size="10.00">abstractdatamessage.h</text>
</a>
</g>
</g>
<!-- Node1&#45;&gt;Node2 -->
<g id="edge1" class="edge">
<title>Node1&#45;&gt;Node2</title>
<path fill="none" stroke="midnightblue" d="M253.55,-280.49C221.81,-273.53 179.63,-261.87 145.5,-244 120.89,-231.11 96.71,-209.95 81.48,-195.29"/>
<polygon fill="midnightblue" stroke="midnightblue" points="83.58,-192.44 74,-187.91 78.66,-197.42 83.58,-192.44"/>
</g>
<!-- Node6 -->
<g id="node6" class="node">
<title>Node6</title>
<g id="a_node6"><a xlink:title=" ">
<polygon fill="none" stroke="#bfbfbf" points="125.5,-56.5 125.5,-75.5 181.5,-75.5 181.5,-56.5 125.5,-56.5"/>
<text text-anchor="middle" x="153.5" y="-63.5" font-family="Helvetica,sans-Serif" font-size="10.00">QDebug</text>
</a>
</g>
</g>
<!-- Node1&#45;&gt;Node6 -->
<g id="edge12" class="edge">
<title>Node1&#45;&gt;Node6</title>
<path fill="none" stroke="midnightblue" d="M244.45,-281.31C220.62,-275.14 194.66,-264.03 178.5,-244 141.03,-197.56 145.74,-121.04 150.41,-85.81"/>
<polygon fill="midnightblue" stroke="midnightblue" points="153.93,-85.96 151.93,-75.56 147,-84.93 153.93,-85.96"/>
</g>
<!-- Node7 -->
<g id="node7" class="node">
<title>Node7</title>
<g id="a_node7"><a xlink:href="fitstreamreader_8h.html" target="_top" xlink:title="Declares the FitStreamReader class.">
<polygon fill="none" stroke="black" points="188,-224.5 188,-243.5 289,-243.5 289,-224.5 188,-224.5"/>
<text text-anchor="middle" x="238.5" y="-231.5" font-family="Helvetica,sans-Serif" font-size="10.00">fitstreamreader.h</text>
</a>
</g>
</g>
<!-- Node1&#45;&gt;Node7 -->
<g id="edge7" class="edge">
<title>Node1&#45;&gt;Node7</title>
<path fill="none" stroke="midnightblue" d="M290.54,-280.32C281.37,-272.34 267.56,-260.31 256.47,-250.65"/>
<polygon fill="midnightblue" stroke="midnightblue" points="258.48,-247.76 248.64,-243.83 253.88,-253.04 258.48,-247.76"/>
</g>
<!-- Node10 -->
<g id="node10" class="node">
<title>Node10</title>
<g id="a_node10"><a xlink:title=" ">
<polygon fill="none" stroke="#bfbfbf" points="307,-224.5 307,-243.5 420,-243.5 420,-224.5 307,-224.5"/>
<text text-anchor="middle" x="363.5" y="-231.5" font-family="Helvetica,sans-Serif" font-size="10.00">fitstreamreader_p.h</text>
</a>
</g>
</g>
<!-- Node1&#45;&gt;Node10 -->
<g id="edge11" class="edge">
<title>Node1&#45;&gt;Node10</title>
<path fill="none" stroke="midnightblue" d="M310.62,-280.32C320.03,-272.26 334.24,-260.08 345.57,-250.37"/>
<polygon fill="midnightblue" stroke="midnightblue" points="347.88,-253 353.19,-243.83 343.32,-247.68 347.88,-253"/>
</g>
<!-- Node11 -->
<g id="node11" class="node">
<title>Node11</title>
<g id="a_node11"><a xlink:title=" ">
<polygon fill="none" stroke="#bfbfbf" points="438.5,-224.5 438.5,-243.5 502.5,-243.5 502.5,-224.5 438.5,-224.5"/>
<text text-anchor="middle" x="470.5" y="-231.5" font-family="Helvetica,sans-Serif" font-size="10.00">QBitArray</text>
</a>
</g>
</g>
<!-- Node1&#45;&gt;Node11 -->
<g id="edge13" class="edge">
<title>Node1&#45;&gt;Node11</title>
<path fill="none" stroke="midnightblue" d="M327.44,-280.44C356.16,-271.32 401.83,-256.81 433.82,-246.65"/>
<polygon fill="midnightblue" stroke="midnightblue" points="435.22,-249.88 443.69,-243.52 433.1,-243.21 435.22,-249.88"/>
</g>
<!-- Node12 -->
<g id="node12" class="node">
<title>Node12</title>
<g id="a_node12"><a xlink:title=" ">
<polygon fill="none" stroke="#bfbfbf" points="521,-224.5 521,-243.5 582,-243.5 582,-224.5 521,-224.5"/>
<text text-anchor="middle" x="551.5" y="-231.5" font-family="Helvetica,sans-Serif" font-size="10.00">QtEndian</text>
</a>
</g>
</g>
<!-- Node1&#45;&gt;Node12 -->
<g id="edge14" class="edge">
<title>Node1&#45;&gt;Node12</title>
<path fill="none" stroke="midnightblue" d="M341.37,-280.42C381.82,-271.91 445.78,-258.35 510.9,-244.11"/>
<polygon fill="midnightblue" stroke="midnightblue" points="511.91,-247.47 520.93,-241.91 510.42,-240.64 511.91,-247.47"/>
</g>
<!-- Node3 -->
<g id="node3" class="node">
<title>Node3</title>
<g id="a_node3"><a xlink:href="QtFit__global_8h.html" target="_top" xlink:title="Global QtFit library macros.">
<polygon fill="none" stroke="black" points="18.5,-56.5 18.5,-75.5 102.5,-75.5 102.5,-56.5 18.5,-56.5"/>
<text text-anchor="middle" x="60.5" y="-63.5" font-family="Helvetica,sans-Serif" font-size="10.00">QtFit_global.h</text>
</a>
</g>
</g>
<!-- Node2&#45;&gt;Node3 -->
<g id="edge2" class="edge">
<title>Node2&#45;&gt;Node3</title>
<path fill="none" stroke="midnightblue" d="M65.11,-168.37C64.3,-150.62 62.44,-109.67 61.35,-85.6"/>
<polygon fill="midnightblue" stroke="midnightblue" points="64.84,-85.42 60.89,-75.59 57.85,-85.74 64.84,-85.42"/>
</g>
<!-- Node5 -->
<g id="node5" class="node">
<title>Node5</title>
<g id="a_node5"><a xlink:href="types_8h.html" target="_top" xlink:title="Types defined by the ANT+ FIT SDK.">
<polygon fill="none" stroke="black" points="78,-112.5 78,-131.5 131,-131.5 131,-112.5 78,-112.5"/>
<text text-anchor="middle" x="104.5" y="-119.5" font-family="Helvetica,sans-Serif" font-size="10.00">types.h</text>
</a>
</g>
</g>
<!-- Node2&#45;&gt;Node5 -->
<g id="edge4" class="edge">
<title>Node2&#45;&gt;Node5</title>
<path fill="none" stroke="midnightblue" d="M71.94,-168.08C77.45,-160.46 85.53,-149.26 92.26,-139.94"/>
<polygon fill="midnightblue" stroke="midnightblue" points="95.16,-141.91 98.18,-131.75 89.49,-137.81 95.16,-141.91"/>
</g>
<!-- Node4 -->
<g id="node4" class="node">
<title>Node4</title>
<g id="a_node4"><a xlink:title=" ">
<polygon fill="none" stroke="#bfbfbf" points="31,-0.5 31,-19.5 90,-19.5 90,-0.5 31,-0.5"/>
<text text-anchor="middle" x="60.5" y="-7.5" font-family="Helvetica,sans-Serif" font-size="10.00">QtGlobal</text>
</a>
</g>
</g>
<!-- Node3&#45;&gt;Node4 -->
<g id="edge3" class="edge">
<title>Node3&#45;&gt;Node4</title>
<path fill="none" stroke="midnightblue" d="M60.5,-56.08C60.5,-49.01 60.5,-38.86 60.5,-29.99"/>
<polygon fill="midnightblue" stroke="midnightblue" points="64,-29.75 60.5,-19.75 57,-29.75 64,-29.75"/>
</g>
<!-- Node5&#45;&gt;Node3 -->
<g id="edge5" class="edge">
<title>Node5&#45;&gt;Node3</title>
<path fill="none" stroke="midnightblue" d="M97.23,-112.08C90.96,-104.38 81.71,-93.03 74.07,-83.65"/>
<polygon fill="midnightblue" stroke="midnightblue" points="76.66,-81.29 67.63,-75.75 71.23,-85.71 76.66,-81.29"/>
</g>
<!-- Node5&#45;&gt;Node6 -->
<g id="edge6" class="edge">
<title>Node5&#45;&gt;Node6</title>
<path fill="none" stroke="midnightblue" d="M112.59,-112.08C119.66,-104.3 130.09,-92.8 138.65,-83.37"/>
<polygon fill="midnightblue" stroke="midnightblue" points="141.43,-85.51 145.56,-75.75 136.25,-80.8 141.43,-85.51"/>
</g>
<!-- Node7&#45;&gt;Node2 -->
<g id="edge8" class="edge">
<title>Node7&#45;&gt;Node2</title>
<path fill="none" stroke="midnightblue" d="M211.09,-224.44C181.73,-215.28 134.98,-200.69 102.4,-190.52"/>
<polygon fill="midnightblue" stroke="midnightblue" points="103.37,-187.16 92.78,-187.52 101.29,-193.84 103.37,-187.16"/>
</g>
<!-- Node8 -->
<g id="node8" class="node">
<title>Node8</title>
<g id="a_node8"><a xlink:title=" ">
<polygon fill="none" stroke="#bfbfbf" points="196.5,-168.5 196.5,-187.5 264.5,-187.5 264.5,-168.5 196.5,-168.5"/>
<text text-anchor="middle" x="230.5" y="-175.5" font-family="Helvetica,sans-Serif" font-size="10.00">QIODevice</text>
</a>
</g>
</g>
<!-- Node7&#45;&gt;Node8 -->
<g id="edge9" class="edge">
<title>Node7&#45;&gt;Node8</title>
<path fill="none" stroke="midnightblue" d="M237.18,-224.08C236.12,-216.93 234.59,-206.64 233.27,-197.69"/>
<polygon fill="midnightblue" stroke="midnightblue" points="236.72,-197.13 231.8,-187.75 229.8,-198.16 236.72,-197.13"/>
</g>
<!-- Node9 -->
<g id="node9" class="node">
<title>Node9</title>
<g id="a_node9"><a xlink:title=" ">
<polygon fill="none" stroke="#bfbfbf" points="283,-168.5 283,-187.5 382,-187.5 382,-168.5 283,-168.5"/>
<text text-anchor="middle" x="332.5" y="-175.5" font-family="Helvetica,sans-Serif" font-size="10.00">QVersionNumber</text>
</a>
</g>
</g>
<!-- Node7&#45;&gt;Node9 -->
<g id="edge10" class="edge">
<title>Node7&#45;&gt;Node9</title>
<path fill="none" stroke="midnightblue" d="M253.6,-224.32C268.4,-215.82 291.19,-202.73 308.48,-192.8"/>
<polygon fill="midnightblue" stroke="midnightblue" points="310.51,-195.67 317.43,-187.65 307.02,-189.6 310.51,-195.67"/>
</g>
</g>
</svg>
