<?xml version="1.0" encoding="UTF-8" standalone="no"?>
<!DOCTYPE svg PUBLIC "-//W3C//DTD SVG 1.1//EN"
 "http://www.w3.org/Graphics/SVG/1.1/DTD/svg11.dtd">
<!-- Generated by graphviz version 2.43.0 (0)
 -->
<!-- Title: gyroscopedatamessage.cpp Pages: 1 -->
<svg width="476pt" height="308pt"
 viewBox="0.00 0.00 475.50 308.00" xmlns="http://www.w3.org/2000/svg" xmlns:xlink="http://www.w3.org/1999/xlink">
<g id="graph0" class="graph" transform="scale(1 1) rotate(0) translate(4 304)">
<title>gyroscopedatamessage.cpp</title>
<!-- Node1 -->
<g id="node1" class="node">
<title>Node1</title>
<g id="a_node1"><a xlink:title=" ">
<polygon fill="#bfbfbf" stroke="black" points="221.5,-280.5 221.5,-299.5 374.5,-299.5 374.5,-280.5 221.5,-280.5"/>
<text text-anchor="middle" x="298" y="-287.5" font-family="Helvetica,sans-Serif" font-size="10.00">gyroscopedatamessage.cpp</text>
</a>
</g>
</g>
<!-- Node2 -->
<g id="node2" class="node">
<title>Node2</title>
<g id="a_node2"><a xlink:href="gyroscopedatamessage_8h.html" target="_top" xlink:title=" ">
<polygon fill="none" stroke="black" points="0,-224.5 0,-243.5 142,-243.5 142,-224.5 0,-224.5"/>
<text text-anchor="middle" x="71" y="-231.5" font-family="Helvetica,sans-Serif" font-size="10.00">gyroscopedatamessage.h</text>
</a>
</g>
</g>
<!-- Node1&#45;&gt;Node2 -->
<g id="edge1" class="edge">
<title>Node1&#45;&gt;Node2</title>
<path fill="none" stroke="midnightblue" d="M262.03,-280.44C222.68,-271.08 159.51,-256.06 116.69,-245.87"/>
<polygon fill="midnightblue" stroke="midnightblue" points="117.34,-242.43 106.8,-243.52 115.72,-249.24 117.34,-242.43"/>
</g>
<!-- Node7 -->
<g id="node7" class="node">
<title>Node7</title>
<g id="a_node7"><a xlink:title=" ">
<polygon fill="none" stroke="#bfbfbf" points="160.5,-224.5 160.5,-243.5 313.5,-243.5 313.5,-224.5 160.5,-224.5"/>
<text text-anchor="middle" x="237" y="-231.5" font-family="Helvetica,sans-Serif" font-size="10.00">gyroscopedatamessage_p.h</text>
</a>
</g>
</g>
<!-- Node1&#45;&gt;Node7 -->
<g id="edge7" class="edge">
<title>Node1&#45;&gt;Node7</title>
<path fill="none" stroke="midnightblue" d="M288.2,-280.32C279.18,-272.34 265.59,-260.31 254.68,-250.65"/>
<polygon fill="midnightblue" stroke="midnightblue" points="256.79,-247.84 246.98,-243.83 252.15,-253.08 256.79,-247.84"/>
</g>
<!-- Node8 -->
<g id="node8" class="node">
<title>Node8</title>
<g id="a_node8"><a xlink:title=" ">
<polygon fill="none" stroke="#bfbfbf" points="332,-224.5 332,-243.5 388,-243.5 388,-224.5 332,-224.5"/>
<text text-anchor="middle" x="360" y="-231.5" font-family="Helvetica,sans-Serif" font-size="10.00">QDebug</text>
</a>
</g>
</g>
<!-- Node1&#45;&gt;Node8 -->
<g id="edge8" class="edge">
<title>Node1&#45;&gt;Node8</title>
<path fill="none" stroke="midnightblue" d="M307.96,-280.32C317.13,-272.34 330.94,-260.31 342.03,-250.65"/>
<polygon fill="midnightblue" stroke="midnightblue" points="344.62,-253.04 349.86,-243.83 340.02,-247.76 344.62,-253.04"/>
</g>
<!-- Node9 -->
<g id="node9" class="node">
<title>Node9</title>
<g id="a_node9"><a xlink:title=" ">
<polygon fill="none" stroke="#bfbfbf" points="406.5,-224.5 406.5,-243.5 467.5,-243.5 467.5,-224.5 406.5,-224.5"/>
<text text-anchor="middle" x="437" y="-231.5" font-family="Helvetica,sans-Serif" font-size="10.00">QtEndian</text>
</a>
</g>
</g>
<!-- Node1&#45;&gt;Node9 -->
<g id="edge9" class="edge">
<title>Node1&#45;&gt;Node9</title>
<path fill="none" stroke="midnightblue" d="M320.02,-280.44C343.1,-271.48 379.56,-257.31 405.64,-247.18"/>
<polygon fill="midnightblue" stroke="midnightblue" points="407.02,-250.4 415.08,-243.52 404.49,-243.88 407.02,-250.4"/>
</g>
<!-- Node3 -->
<g id="node3" class="node">
<title>Node3</title>
<g id="a_node3"><a xlink:href="fitdatamessage_8h_source.html" target="_top" xlink:title=" ">
<polygon fill="none" stroke="black" points="20.5,-168.5 20.5,-187.5 121.5,-187.5 121.5,-168.5 20.5,-168.5"/>
<text text-anchor="middle" x="71" y="-175.5" font-family="Helvetica,sans-Serif" font-size="10.00">fitdatamessage.h</text>
</a>
</g>
</g>
<!-- Node2&#45;&gt;Node3 -->
<g id="edge2" class="edge">
<title>Node2&#45;&gt;Node3</title>
<path fill="none" stroke="midnightblue" d="M71,-224.08C71,-217.01 71,-206.86 71,-197.99"/>
<polygon fill="midnightblue" stroke="midnightblue" points="74.5,-197.75 71,-187.75 67.5,-197.75 74.5,-197.75"/>
</g>
<!-- Node4 -->
<g id="node4" class="node">
<title>Node4</title>
<g id="a_node4"><a xlink:href="QtFit__global_8h_source.html" target="_top" xlink:title=" ">
<polygon fill="none" stroke="black" points="29,-56.5 29,-75.5 113,-75.5 113,-56.5 29,-56.5"/>
<text text-anchor="middle" x="71" y="-63.5" font-family="Helvetica,sans-Serif" font-size="10.00">QtFit_global.h</text>
</a>
</g>
</g>
<!-- Node3&#45;&gt;Node4 -->
<g id="edge3" class="edge">
<title>Node3&#45;&gt;Node4</title>
<path fill="none" stroke="midnightblue" d="M69.26,-168.42C67.53,-159.4 64.99,-144.77 64,-132 62.8,-116.42 64.91,-98.8 67.12,-85.84"/>
<polygon fill="midnightblue" stroke="midnightblue" points="70.6,-86.29 69.01,-75.82 63.72,-84.99 70.6,-86.29"/>
</g>
<!-- Node6 -->
<g id="node6" class="node">
<title>Node6</title>
<g id="a_node6"><a xlink:href="types_8h.html" target="_top" xlink:title="Types defined by the ANT+ FIT SDK.">
<polygon fill="none" stroke="black" points="72.5,-112.5 72.5,-131.5 125.5,-131.5 125.5,-112.5 72.5,-112.5"/>
<text text-anchor="middle" x="99" y="-119.5" font-family="Helvetica,sans-Serif" font-size="10.00">types.h</text>
</a>
</g>
</g>
<!-- Node3&#45;&gt;Node6 -->
<g id="edge5" class="edge">
<title>Node3&#45;&gt;Node6</title>
<path fill="none" stroke="midnightblue" d="M75.62,-168.08C79.46,-160.69 85.02,-149.95 89.76,-140.81"/>
<polygon fill="midnightblue" stroke="midnightblue" points="92.97,-142.24 94.46,-131.75 86.75,-139.02 92.97,-142.24"/>
</g>
<!-- Node5 -->
<g id="node5" class="node">
<title>Node5</title>
<g id="a_node5"><a xlink:title=" ">
<polygon fill="none" stroke="#bfbfbf" points="41.5,-0.5 41.5,-19.5 100.5,-19.5 100.5,-0.5 41.5,-0.5"/>
<text text-anchor="middle" x="71" y="-7.5" font-family="Helvetica,sans-Serif" font-size="10.00">QtGlobal</text>
</a>
</g>
</g>
<!-- Node4&#45;&gt;Node5 -->
<g id="edge4" class="edge">
<title>Node4&#45;&gt;Node5</title>
<path fill="none" stroke="midnightblue" d="M71,-56.08C71,-49.01 71,-38.86 71,-29.99"/>
<polygon fill="midnightblue" stroke="midnightblue" points="74.5,-29.75 71,-19.75 67.5,-29.75 74.5,-29.75"/>
</g>
<!-- Node6&#45;&gt;Node4 -->
<g id="edge6" class="edge">
<title>Node6&#45;&gt;Node4</title>
<path fill="none" stroke="midnightblue" d="M94.38,-112.08C90.54,-104.69 84.98,-93.95 80.24,-84.81"/>
<polygon fill="midnightblue" stroke="midnightblue" points="83.25,-83.02 75.54,-75.75 77.03,-86.24 83.25,-83.02"/>
</g>
</g>
</svg>
