<?xml version="1.0" encoding="UTF-8" standalone="no"?>
<!DOCTYPE svg PUBLIC "-//W3C//DTD SVG 1.1//EN"
 "http://www.w3.org/Graphics/SVG/1.1/DTD/svg11.dtd">
<!-- Generated by graphviz version 2.43.0 (0)
 -->
<!-- Title: hrmessage.cpp Pages: 1 -->
<svg width="366pt" height="308pt"
 viewBox="0.00 0.00 366.00 308.00" xmlns="http://www.w3.org/2000/svg" xmlns:xlink="http://www.w3.org/1999/xlink">
<g id="graph0" class="graph" transform="scale(1 1) rotate(0) translate(4 304)">
<title>hrmessage.cpp</title>
<!-- Node1 -->
<g id="node1" class="node">
<title>Node1</title>
<g id="a_node1"><a xlink:title=" ">
<polygon fill="#bfbfbf" stroke="black" points="151,-280.5 151,-299.5 242,-299.5 242,-280.5 151,-280.5"/>
<text text-anchor="middle" x="196.5" y="-287.5" font-family="Helvetica,sans-Serif" font-size="10.00">hrmessage.cpp</text>
</a>
</g>
</g>
<!-- Node2 -->
<g id="node2" class="node">
<title>Node2</title>
<g id="a_node2"><a xlink:href="hrmessage_8h.html" target="_top" xlink:title=" ">
<polygon fill="none" stroke="black" points="38.5,-224.5 38.5,-243.5 118.5,-243.5 118.5,-224.5 38.5,-224.5"/>
<text text-anchor="middle" x="78.5" y="-231.5" font-family="Helvetica,sans-Serif" font-size="10.00">hrmessage.h</text>
</a>
</g>
</g>
<!-- Node1&#45;&gt;Node2 -->
<g id="edge1" class="edge">
<title>Node1&#45;&gt;Node2</title>
<path fill="none" stroke="midnightblue" d="M177.8,-280.44C158.56,-271.64 128.35,-257.81 106.3,-247.72"/>
<polygon fill="midnightblue" stroke="midnightblue" points="107.66,-244.5 97.11,-243.52 104.75,-250.86 107.66,-244.5"/>
</g>
<!-- Node7 -->
<g id="node7" class="node">
<title>Node7</title>
<g id="a_node7"><a xlink:title=" ">
<polygon fill="none" stroke="#bfbfbf" points="125.5,-56.5 125.5,-75.5 181.5,-75.5 181.5,-56.5 125.5,-56.5"/>
<text text-anchor="middle" x="153.5" y="-63.5" font-family="Helvetica,sans-Serif" font-size="10.00">QDebug</text>
</a>
</g>
</g>
<!-- Node1&#45;&gt;Node7 -->
<g id="edge9" class="edge">
<title>Node1&#45;&gt;Node7</title>
<path fill="none" stroke="midnightblue" d="M192.27,-280.25C188.13,-271.33 181.97,-257.01 178.5,-244 163.48,-187.65 157.04,-118.65 154.68,-85.94"/>
<polygon fill="midnightblue" stroke="midnightblue" points="158.15,-85.36 153.98,-75.62 151.16,-85.83 158.15,-85.36"/>
</g>
<!-- Node8 -->
<g id="node8" class="node">
<title>Node8</title>
<g id="a_node8"><a xlink:title=" ">
<polygon fill="none" stroke="#bfbfbf" points="188,-224.5 188,-243.5 279,-243.5 279,-224.5 188,-224.5"/>
<text text-anchor="middle" x="233.5" y="-231.5" font-family="Helvetica,sans-Serif" font-size="10.00">hrmessage_p.h</text>
</a>
</g>
</g>
<!-- Node1&#45;&gt;Node8 -->
<g id="edge8" class="edge">
<title>Node1&#45;&gt;Node8</title>
<path fill="none" stroke="midnightblue" d="M202.61,-280.08C207.78,-272.53 215.35,-261.49 221.69,-252.23"/>
<polygon fill="midnightblue" stroke="midnightblue" points="224.74,-253.98 227.5,-243.75 218.96,-250.02 224.74,-253.98"/>
</g>
<!-- Node9 -->
<g id="node9" class="node">
<title>Node9</title>
<g id="a_node9"><a xlink:title=" ">
<polygon fill="none" stroke="#bfbfbf" points="297,-224.5 297,-243.5 358,-243.5 358,-224.5 297,-224.5"/>
<text text-anchor="middle" x="327.5" y="-231.5" font-family="Helvetica,sans-Serif" font-size="10.00">QtEndian</text>
</a>
</g>
</g>
<!-- Node1&#45;&gt;Node9 -->
<g id="edge10" class="edge">
<title>Node1&#45;&gt;Node9</title>
<path fill="none" stroke="midnightblue" d="M217.26,-280.44C238.82,-271.56 272.76,-257.56 297.29,-247.45"/>
<polygon fill="midnightblue" stroke="midnightblue" points="298.93,-250.56 306.84,-243.52 296.26,-244.09 298.93,-250.56"/>
</g>
<!-- Node3 -->
<g id="node3" class="node">
<title>Node3</title>
<g id="a_node3"><a xlink:href="abstractdatamessage_8h_source.html" target="_top" xlink:title=" ">
<polygon fill="none" stroke="black" points="0,-168.5 0,-187.5 131,-187.5 131,-168.5 0,-168.5"/>
<text text-anchor="middle" x="65.5" y="-175.5" font-family="Helvetica,sans-Serif" font-size="10.00">abstractdatamessage.h</text>
</a>
</g>
</g>
<!-- Node2&#45;&gt;Node3 -->
<g id="edge2" class="edge">
<title>Node2&#45;&gt;Node3</title>
<path fill="none" stroke="midnightblue" d="M76.35,-224.08C74.63,-216.93 72.15,-206.64 70,-197.69"/>
<polygon fill="midnightblue" stroke="midnightblue" points="73.35,-196.65 67.61,-187.75 66.54,-198.29 73.35,-196.65"/>
</g>
<!-- Node4 -->
<g id="node4" class="node">
<title>Node4</title>
<g id="a_node4"><a xlink:href="QtFit__global_8h_source.html" target="_top" xlink:title=" ">
<polygon fill="none" stroke="black" points="18.5,-56.5 18.5,-75.5 102.5,-75.5 102.5,-56.5 18.5,-56.5"/>
<text text-anchor="middle" x="60.5" y="-63.5" font-family="Helvetica,sans-Serif" font-size="10.00">QtFit_global.h</text>
</a>
</g>
</g>
<!-- Node3&#45;&gt;Node4 -->
<g id="edge3" class="edge">
<title>Node3&#45;&gt;Node4</title>
<path fill="none" stroke="midnightblue" d="M65.11,-168.37C64.3,-150.62 62.44,-109.67 61.35,-85.6"/>
<polygon fill="midnightblue" stroke="midnightblue" points="64.84,-85.42 60.89,-75.59 57.85,-85.74 64.84,-85.42"/>
</g>
<!-- Node6 -->
<g id="node6" class="node">
<title>Node6</title>
<g id="a_node6"><a xlink:href="types_8h.html" target="_top" xlink:title="Types defined by the ANT+ FIT SDK.">
<polygon fill="none" stroke="black" points="78,-112.5 78,-131.5 131,-131.5 131,-112.5 78,-112.5"/>
<text text-anchor="middle" x="104.5" y="-119.5" font-family="Helvetica,sans-Serif" font-size="10.00">types.h</text>
</a>
</g>
</g>
<!-- Node3&#45;&gt;Node6 -->
<g id="edge5" class="edge">
<title>Node3&#45;&gt;Node6</title>
<path fill="none" stroke="midnightblue" d="M71.94,-168.08C77.45,-160.46 85.53,-149.26 92.26,-139.94"/>
<polygon fill="midnightblue" stroke="midnightblue" points="95.16,-141.91 98.18,-131.75 89.49,-137.81 95.16,-141.91"/>
</g>
<!-- Node5 -->
<g id="node5" class="node">
<title>Node5</title>
<g id="a_node5"><a xlink:title=" ">
<polygon fill="none" stroke="#bfbfbf" points="31,-0.5 31,-19.5 90,-19.5 90,-0.5 31,-0.5"/>
<text text-anchor="middle" x="60.5" y="-7.5" font-family="Helvetica,sans-Serif" font-size="10.00">QtGlobal</text>
</a>
</g>
</g>
<!-- Node4&#45;&gt;Node5 -->
<g id="edge4" class="edge">
<title>Node4&#45;&gt;Node5</title>
<path fill="none" stroke="midnightblue" d="M60.5,-56.08C60.5,-49.01 60.5,-38.86 60.5,-29.99"/>
<polygon fill="midnightblue" stroke="midnightblue" points="64,-29.75 60.5,-19.75 57,-29.75 64,-29.75"/>
</g>
<!-- Node6&#45;&gt;Node4 -->
<g id="edge6" class="edge">
<title>Node6&#45;&gt;Node4</title>
<path fill="none" stroke="midnightblue" d="M97.23,-112.08C90.96,-104.38 81.71,-93.03 74.07,-83.65"/>
<polygon fill="midnightblue" stroke="midnightblue" points="76.66,-81.29 67.63,-75.75 71.23,-85.71 76.66,-81.29"/>
</g>
<!-- Node6&#45;&gt;Node7 -->
<g id="edge7" class="edge">
<title>Node6&#45;&gt;Node7</title>
<path fill="none" stroke="midnightblue" d="M112.59,-112.08C119.66,-104.3 130.09,-92.8 138.65,-83.37"/>
<polygon fill="midnightblue" stroke="midnightblue" points="141.43,-85.51 145.56,-75.75 136.25,-80.8 141.43,-85.51"/>
</g>
</g>
</svg>
