<?xml version="1.0" encoding="UTF-8" standalone="no"?>
<!DOCTYPE svg PUBLIC "-//W3C//DTD SVG 1.1//EN"
 "http://www.w3.org/Graphics/SVG/1.1/DTD/svg11.dtd">
<!-- Generated by graphviz version 2.43.0 (0)
 -->
<!-- Title: hrmprofilemessage.cpp Pages: 1 -->
<svg width="406pt" height="308pt"
 viewBox="0.00 0.00 406.00 308.00" xmlns="http://www.w3.org/2000/svg" xmlns:xlink="http://www.w3.org/1999/xlink">
<g id="graph0" class="graph" transform="scale(1 1) rotate(0) translate(4 304)">
<title>hrmprofilemessage.cpp</title>
<!-- Node1 -->
<g id="node1" class="node">
<title>Node1</title>
<g id="a_node1"><a xlink:title="Defines the HrmProfileMessage, and HrmProfileMessagePrivate classes.">
<polygon fill="#bfbfbf" stroke="black" points="141,-280.5 141,-299.5 272,-299.5 272,-280.5 141,-280.5"/>
<text text-anchor="middle" x="206.5" y="-287.5" font-family="Helvetica,sans-Serif" font-size="10.00">hrmprofilemessage.cpp</text>
</a>
</g>
</g>
<!-- Node2 -->
<g id="node2" class="node">
<title>Node2</title>
<g id="a_node2"><a xlink:href="hrmprofilemessage_8h.html" target="_top" xlink:title="Declares the HrmProfileMessage class.">
<polygon fill="none" stroke="black" points="8.5,-224.5 8.5,-243.5 128.5,-243.5 128.5,-224.5 8.5,-224.5"/>
<text text-anchor="middle" x="68.5" y="-231.5" font-family="Helvetica,sans-Serif" font-size="10.00">hrmprofilemessage.h</text>
</a>
</g>
</g>
<!-- Node1&#45;&gt;Node2 -->
<g id="edge1" class="edge">
<title>Node1&#45;&gt;Node2</title>
<path fill="none" stroke="midnightblue" d="M184.63,-280.44C161.72,-271.48 125.52,-257.31 99.63,-247.18"/>
<polygon fill="midnightblue" stroke="midnightblue" points="100.85,-243.9 90.26,-243.52 98.3,-250.42 100.85,-243.9"/>
</g>
<!-- Node7 -->
<g id="node7" class="node">
<title>Node7</title>
<g id="a_node7"><a xlink:title=" ">
<polygon fill="none" stroke="#bfbfbf" points="125.5,-56.5 125.5,-75.5 181.5,-75.5 181.5,-56.5 125.5,-56.5"/>
<text text-anchor="middle" x="153.5" y="-63.5" font-family="Helvetica,sans-Serif" font-size="10.00">QDebug</text>
</a>
</g>
</g>
<!-- Node1&#45;&gt;Node7 -->
<g id="edge9" class="edge">
<title>Node1&#45;&gt;Node7</title>
<path fill="none" stroke="midnightblue" d="M199.79,-280.23C193.49,-271.52 184.34,-257.56 179.5,-244 159.78,-188.79 155,-118.78 153.86,-85.8"/>
<polygon fill="midnightblue" stroke="midnightblue" points="157.35,-85.67 153.58,-75.76 150.36,-85.86 157.35,-85.67"/>
</g>
<!-- Node8 -->
<g id="node8" class="node">
<title>Node8</title>
<g id="a_node8"><a xlink:title=" ">
<polygon fill="none" stroke="#bfbfbf" points="188,-224.5 188,-243.5 319,-243.5 319,-224.5 188,-224.5"/>
<text text-anchor="middle" x="253.5" y="-231.5" font-family="Helvetica,sans-Serif" font-size="10.00">hrmprofilemessage_p.h</text>
</a>
</g>
</g>
<!-- Node1&#45;&gt;Node8 -->
<g id="edge8" class="edge">
<title>Node1&#45;&gt;Node8</title>
<path fill="none" stroke="midnightblue" d="M214.26,-280.08C221.04,-272.3 231.04,-260.8 239.26,-251.37"/>
<polygon fill="midnightblue" stroke="midnightblue" points="241.96,-253.59 245.88,-243.75 236.68,-249 241.96,-253.59"/>
</g>
<!-- Node9 -->
<g id="node9" class="node">
<title>Node9</title>
<g id="a_node9"><a xlink:title=" ">
<polygon fill="none" stroke="#bfbfbf" points="337,-224.5 337,-243.5 398,-243.5 398,-224.5 337,-224.5"/>
<text text-anchor="middle" x="367.5" y="-231.5" font-family="Helvetica,sans-Serif" font-size="10.00">QtEndian</text>
</a>
</g>
</g>
<!-- Node1&#45;&gt;Node9 -->
<g id="edge10" class="edge">
<title>Node1&#45;&gt;Node9</title>
<path fill="none" stroke="midnightblue" d="M232.01,-280.44C259.1,-271.36 302.09,-256.94 332.37,-246.78"/>
<polygon fill="midnightblue" stroke="midnightblue" points="333.74,-250.01 342.11,-243.52 331.51,-243.38 333.74,-250.01"/>
</g>
<!-- Node3 -->
<g id="node3" class="node">
<title>Node3</title>
<g id="a_node3"><a xlink:href="abstractdatamessage_8h.html" target="_top" xlink:title="Declares the AbstractDataMessage class.">
<polygon fill="none" stroke="black" points="0,-168.5 0,-187.5 131,-187.5 131,-168.5 0,-168.5"/>
<text text-anchor="middle" x="65.5" y="-175.5" font-family="Helvetica,sans-Serif" font-size="10.00">abstractdatamessage.h</text>
</a>
</g>
</g>
<!-- Node2&#45;&gt;Node3 -->
<g id="edge2" class="edge">
<title>Node2&#45;&gt;Node3</title>
<path fill="none" stroke="midnightblue" d="M68,-224.08C67.61,-217.01 67.05,-206.86 66.55,-197.99"/>
<polygon fill="midnightblue" stroke="midnightblue" points="70.04,-197.54 65.99,-187.75 63.05,-197.93 70.04,-197.54"/>
</g>
<!-- Node4 -->
<g id="node4" class="node">
<title>Node4</title>
<g id="a_node4"><a xlink:href="QtFit__global_8h.html" target="_top" xlink:title="Global QtFit library macros.">
<polygon fill="none" stroke="black" points="18.5,-56.5 18.5,-75.5 102.5,-75.5 102.5,-56.5 18.5,-56.5"/>
<text text-anchor="middle" x="60.5" y="-63.5" font-family="Helvetica,sans-Serif" font-size="10.00">QtFit_global.h</text>
</a>
</g>
</g>
<!-- Node3&#45;&gt;Node4 -->
<g id="edge3" class="edge">
<title>Node3&#45;&gt;Node4</title>
<path fill="none" stroke="midnightblue" d="M65.11,-168.37C64.3,-150.62 62.44,-109.67 61.35,-85.6"/>
<polygon fill="midnightblue" stroke="midnightblue" points="64.84,-85.42 60.89,-75.59 57.85,-85.74 64.84,-85.42"/>
</g>
<!-- Node6 -->
<g id="node6" class="node">
<title>Node6</title>
<g id="a_node6"><a xlink:href="types_8h.html" target="_top" xlink:title="Types defined by the ANT+ FIT SDK.">
<polygon fill="none" stroke="black" points="78,-112.5 78,-131.5 131,-131.5 131,-112.5 78,-112.5"/>
<text text-anchor="middle" x="104.5" y="-119.5" font-family="Helvetica,sans-Serif" font-size="10.00">types.h</text>
</a>
</g>
</g>
<!-- Node3&#45;&gt;Node6 -->
<g id="edge5" class="edge">
<title>Node3&#45;&gt;Node6</title>
<path fill="none" stroke="midnightblue" d="M71.94,-168.08C77.45,-160.46 85.53,-149.26 92.26,-139.94"/>
<polygon fill="midnightblue" stroke="midnightblue" points="95.16,-141.91 98.18,-131.75 89.49,-137.81 95.16,-141.91"/>
</g>
<!-- Node5 -->
<g id="node5" class="node">
<title>Node5</title>
<g id="a_node5"><a xlink:title=" ">
<polygon fill="none" stroke="#bfbfbf" points="31,-0.5 31,-19.5 90,-19.5 90,-0.5 31,-0.5"/>
<text text-anchor="middle" x="60.5" y="-7.5" font-family="Helvetica,sans-Serif" font-size="10.00">QtGlobal</text>
</a>
</g>
</g>
<!-- Node4&#45;&gt;Node5 -->
<g id="edge4" class="edge">
<title>Node4&#45;&gt;Node5</title>
<path fill="none" stroke="midnightblue" d="M60.5,-56.08C60.5,-49.01 60.5,-38.86 60.5,-29.99"/>
<polygon fill="midnightblue" stroke="midnightblue" points="64,-29.75 60.5,-19.75 57,-29.75 64,-29.75"/>
</g>
<!-- Node6&#45;&gt;Node4 -->
<g id="edge6" class="edge">
<title>Node6&#45;&gt;Node4</title>
<path fill="none" stroke="midnightblue" d="M97.23,-112.08C90.96,-104.38 81.71,-93.03 74.07,-83.65"/>
<polygon fill="midnightblue" stroke="midnightblue" points="76.66,-81.29 67.63,-75.75 71.23,-85.71 76.66,-81.29"/>
</g>
<!-- Node6&#45;&gt;Node7 -->
<g id="edge7" class="edge">
<title>Node6&#45;&gt;Node7</title>
<path fill="none" stroke="midnightblue" d="M112.59,-112.08C119.66,-104.3 130.09,-92.8 138.65,-83.37"/>
<polygon fill="midnightblue" stroke="midnightblue" points="141.43,-85.51 145.56,-75.75 136.25,-80.8 141.43,-85.51"/>
</g>
</g>
</svg>
