<?xml version="1.0" encoding="UTF-8" standalone="no"?>
<!DOCTYPE svg PUBLIC "-//W3C//DTD SVG 1.1//EN"
 "http://www.w3.org/Graphics/SVG/1.1/DTD/svg11.dtd">
<!-- Generated by graphviz version 2.43.0 (0)
 -->
<!-- Title: hrmprofilemessage.h Pages: 1 -->
<svg width="276pt" height="84pt"
 viewBox="0.00 0.00 275.50 84.00" xmlns="http://www.w3.org/2000/svg" xmlns:xlink="http://www.w3.org/1999/xlink">
<g id="graph0" class="graph" transform="scale(1 1) rotate(0) translate(4 80)">
<title>hrmprofilemessage.h</title>
<!-- Node1 -->
<g id="node1" class="node">
<title>Node1</title>
<g id="a_node1"><a xlink:title=" ">
<polygon fill="#bfbfbf" stroke="black" points="70,-56.5 70,-75.5 190,-75.5 190,-56.5 70,-56.5"/>
<text text-anchor="middle" x="130" y="-63.5" font-family="Helvetica,sans-Serif" font-size="10.00">hrmprofilemessage.h</text>
</a>
</g>
</g>
<!-- Node2 -->
<g id="node2" class="node">
<title>Node2</title>
<g id="a_node2"><a xlink:href="fitdatamessages_8cpp.html" target="_top" xlink:title="Provides the AbstractDataMessage::fromData implementation.">
<polygon fill="none" stroke="black" points="0,-0.5 0,-19.5 118,-19.5 118,-0.5 0,-0.5"/>
<text text-anchor="middle" x="59" y="-7.5" font-family="Helvetica,sans-Serif" font-size="10.00">fitdatamessages.cpp</text>
</a>
</g>
</g>
<!-- Node1&#45;&gt;Node2 -->
<g id="edge1" class="edge">
<title>Node1&#45;&gt;Node2</title>
<path fill="none" stroke="midnightblue" d="M110.41,-50.1C97.63,-40.38 81.39,-28.03 70.61,-19.83"/>
<polygon fill="midnightblue" stroke="midnightblue" points="108.51,-53.06 118.59,-56.32 112.75,-47.48 108.51,-53.06"/>
</g>
<!-- Node3 -->
<g id="node3" class="node">
<title>Node3</title>
<g id="a_node3"><a xlink:href="hrmprofilemessage_8cpp.html" target="_top" xlink:title=" ">
<polygon fill="none" stroke="black" points="136.5,-0.5 136.5,-19.5 267.5,-19.5 267.5,-0.5 136.5,-0.5"/>
<text text-anchor="middle" x="202" y="-7.5" font-family="Helvetica,sans-Serif" font-size="10.00">hrmprofilemessage.cpp</text>
</a>
</g>
</g>
<!-- Node1&#45;&gt;Node3 -->
<g id="edge2" class="edge">
<title>Node1&#45;&gt;Node3</title>
<path fill="none" stroke="midnightblue" d="M149.87,-50.1C162.82,-40.38 179.3,-28.03 190.22,-19.83"/>
<polygon fill="midnightblue" stroke="midnightblue" points="147.47,-47.52 141.57,-56.32 151.67,-53.12 147.47,-47.52"/>
</g>
</g>
</svg>
