<?xml version="1.0" encoding="UTF-8" standalone="no"?>
<!DOCTYPE svg PUBLIC "-//W3C//DTD SVG 1.1//EN"
 "http://www.w3.org/Graphics/SVG/1.1/DTD/svg11.dtd">
<!-- Generated by graphviz version 2.43.0 (0)
 -->
<!-- Title: hrzonemessage.cpp Pages: 1 -->
<svg width="397pt" height="308pt"
 viewBox="0.00 0.00 397.00 308.00" xmlns="http://www.w3.org/2000/svg" xmlns:xlink="http://www.w3.org/1999/xlink">
<g id="graph0" class="graph" transform="scale(1 1) rotate(0) translate(4 304)">
<title>hrzonemessage.cpp</title>
<!-- Node1 -->
<g id="node1" class="node">
<title>Node1</title>
<g id="a_node1"><a xlink:title=" ">
<polygon fill="#bfbfbf" stroke="black" points="172.5,-280.5 172.5,-299.5 286.5,-299.5 286.5,-280.5 172.5,-280.5"/>
<text text-anchor="middle" x="229.5" y="-287.5" font-family="Helvetica,sans-Serif" font-size="10.00">hrzonemessage.cpp</text>
</a>
</g>
</g>
<!-- Node2 -->
<g id="node2" class="node">
<title>Node2</title>
<g id="a_node2"><a xlink:href="hrzonemessage_8h.html" target="_top" xlink:title=" ">
<polygon fill="none" stroke="black" points="0,-224.5 0,-243.5 103,-243.5 103,-224.5 0,-224.5"/>
<text text-anchor="middle" x="51.5" y="-231.5" font-family="Helvetica,sans-Serif" font-size="10.00">hrzonemessage.h</text>
</a>
</g>
</g>
<!-- Node1&#45;&gt;Node2 -->
<g id="edge1" class="edge">
<title>Node1&#45;&gt;Node2</title>
<path fill="none" stroke="midnightblue" d="M201.3,-280.44C171.09,-271.28 122.99,-256.69 89.47,-246.52"/>
<polygon fill="midnightblue" stroke="midnightblue" points="90.16,-243.07 79.57,-243.52 88.13,-249.77 90.16,-243.07"/>
</g>
<!-- Node7 -->
<g id="node7" class="node">
<title>Node7</title>
<g id="a_node7"><a xlink:title=" ">
<polygon fill="none" stroke="#bfbfbf" points="121.5,-224.5 121.5,-243.5 235.5,-243.5 235.5,-224.5 121.5,-224.5"/>
<text text-anchor="middle" x="178.5" y="-231.5" font-family="Helvetica,sans-Serif" font-size="10.00">hrzonemessage_p.h</text>
</a>
</g>
</g>
<!-- Node1&#45;&gt;Node7 -->
<g id="edge7" class="edge">
<title>Node1&#45;&gt;Node7</title>
<path fill="none" stroke="midnightblue" d="M221.08,-280.08C213.65,-272.22 202.65,-260.57 193.69,-251.08"/>
<polygon fill="midnightblue" stroke="midnightblue" points="196.18,-248.62 186.76,-243.75 191.09,-253.42 196.18,-248.62"/>
</g>
<!-- Node8 -->
<g id="node8" class="node">
<title>Node8</title>
<g id="a_node8"><a xlink:title=" ">
<polygon fill="none" stroke="#bfbfbf" points="253.5,-224.5 253.5,-243.5 309.5,-243.5 309.5,-224.5 253.5,-224.5"/>
<text text-anchor="middle" x="281.5" y="-231.5" font-family="Helvetica,sans-Serif" font-size="10.00">QDebug</text>
</a>
</g>
</g>
<!-- Node1&#45;&gt;Node8 -->
<g id="edge8" class="edge">
<title>Node1&#45;&gt;Node8</title>
<path fill="none" stroke="midnightblue" d="M238.09,-280.08C245.66,-272.22 256.88,-260.57 266.01,-251.08"/>
<polygon fill="midnightblue" stroke="midnightblue" points="268.66,-253.38 273.07,-243.75 263.62,-248.53 268.66,-253.38"/>
</g>
<!-- Node9 -->
<g id="node9" class="node">
<title>Node9</title>
<g id="a_node9"><a xlink:title=" ">
<polygon fill="none" stroke="#bfbfbf" points="328,-224.5 328,-243.5 389,-243.5 389,-224.5 328,-224.5"/>
<text text-anchor="middle" x="358.5" y="-231.5" font-family="Helvetica,sans-Serif" font-size="10.00">QtEndian</text>
</a>
</g>
</g>
<!-- Node1&#45;&gt;Node9 -->
<g id="edge9" class="edge">
<title>Node1&#45;&gt;Node9</title>
<path fill="none" stroke="midnightblue" d="M249.94,-280.44C271.17,-271.56 304.6,-257.56 328.75,-247.45"/>
<polygon fill="midnightblue" stroke="midnightblue" points="330.28,-250.61 338.16,-243.52 327.58,-244.15 330.28,-250.61"/>
</g>
<!-- Node3 -->
<g id="node3" class="node">
<title>Node3</title>
<g id="a_node3"><a xlink:href="fitdatamessage_8h_source.html" target="_top" xlink:title=" ">
<polygon fill="none" stroke="black" points="1,-168.5 1,-187.5 102,-187.5 102,-168.5 1,-168.5"/>
<text text-anchor="middle" x="51.5" y="-175.5" font-family="Helvetica,sans-Serif" font-size="10.00">fitdatamessage.h</text>
</a>
</g>
</g>
<!-- Node2&#45;&gt;Node3 -->
<g id="edge2" class="edge">
<title>Node2&#45;&gt;Node3</title>
<path fill="none" stroke="midnightblue" d="M51.5,-224.08C51.5,-217.01 51.5,-206.86 51.5,-197.99"/>
<polygon fill="midnightblue" stroke="midnightblue" points="55,-197.75 51.5,-187.75 48,-197.75 55,-197.75"/>
</g>
<!-- Node4 -->
<g id="node4" class="node">
<title>Node4</title>
<g id="a_node4"><a xlink:href="QtFit__global_8h_source.html" target="_top" xlink:title=" ">
<polygon fill="none" stroke="black" points="9.5,-56.5 9.5,-75.5 93.5,-75.5 93.5,-56.5 9.5,-56.5"/>
<text text-anchor="middle" x="51.5" y="-63.5" font-family="Helvetica,sans-Serif" font-size="10.00">QtFit_global.h</text>
</a>
</g>
</g>
<!-- Node3&#45;&gt;Node4 -->
<g id="edge3" class="edge">
<title>Node3&#45;&gt;Node4</title>
<path fill="none" stroke="midnightblue" d="M49.76,-168.42C48.03,-159.4 45.49,-144.77 44.5,-132 43.3,-116.42 45.41,-98.8 47.62,-85.84"/>
<polygon fill="midnightblue" stroke="midnightblue" points="51.1,-86.29 49.51,-75.82 44.22,-84.99 51.1,-86.29"/>
</g>
<!-- Node6 -->
<g id="node6" class="node">
<title>Node6</title>
<g id="a_node6"><a xlink:href="types_8h.html" target="_top" xlink:title="Types defined by the ANT+ FIT SDK.">
<polygon fill="none" stroke="black" points="53,-112.5 53,-131.5 106,-131.5 106,-112.5 53,-112.5"/>
<text text-anchor="middle" x="79.5" y="-119.5" font-family="Helvetica,sans-Serif" font-size="10.00">types.h</text>
</a>
</g>
</g>
<!-- Node3&#45;&gt;Node6 -->
<g id="edge5" class="edge">
<title>Node3&#45;&gt;Node6</title>
<path fill="none" stroke="midnightblue" d="M56.12,-168.08C59.96,-160.69 65.52,-149.95 70.26,-140.81"/>
<polygon fill="midnightblue" stroke="midnightblue" points="73.47,-142.24 74.96,-131.75 67.25,-139.02 73.47,-142.24"/>
</g>
<!-- Node5 -->
<g id="node5" class="node">
<title>Node5</title>
<g id="a_node5"><a xlink:title=" ">
<polygon fill="none" stroke="#bfbfbf" points="22,-0.5 22,-19.5 81,-19.5 81,-0.5 22,-0.5"/>
<text text-anchor="middle" x="51.5" y="-7.5" font-family="Helvetica,sans-Serif" font-size="10.00">QtGlobal</text>
</a>
</g>
</g>
<!-- Node4&#45;&gt;Node5 -->
<g id="edge4" class="edge">
<title>Node4&#45;&gt;Node5</title>
<path fill="none" stroke="midnightblue" d="M51.5,-56.08C51.5,-49.01 51.5,-38.86 51.5,-29.99"/>
<polygon fill="midnightblue" stroke="midnightblue" points="55,-29.75 51.5,-19.75 48,-29.75 55,-29.75"/>
</g>
<!-- Node6&#45;&gt;Node4 -->
<g id="edge6" class="edge">
<title>Node6&#45;&gt;Node4</title>
<path fill="none" stroke="midnightblue" d="M74.88,-112.08C71.04,-104.69 65.48,-93.95 60.74,-84.81"/>
<polygon fill="midnightblue" stroke="midnightblue" points="63.75,-83.02 56.04,-75.75 57.53,-86.24 63.75,-83.02"/>
</g>
</g>
</svg>
