<?xml version="1.0" encoding="UTF-8" standalone="no"?>
<!DOCTYPE svg PUBLIC "-//W3C//DTD SVG 1.1//EN"
 "http://www.w3.org/Graphics/SVG/1.1/DTD/svg11.dtd">
<!-- Generated by graphviz version 2.43.0 (0)
 -->
<!-- Title: lapmessage.cpp Pages: 1 -->
<svg width="353pt" height="308pt"
 viewBox="0.00 0.00 352.50 308.00" xmlns="http://www.w3.org/2000/svg" xmlns:xlink="http://www.w3.org/1999/xlink">
<g id="graph0" class="graph" transform="scale(1 1) rotate(0) translate(4 304)">
<title>lapmessage.cpp</title>
<!-- Node1 -->
<g id="node1" class="node">
<title>Node1</title>
<g id="a_node1"><a xlink:title=" ">
<polygon fill="#bfbfbf" stroke="black" points="131,-280.5 131,-299.5 227,-299.5 227,-280.5 131,-280.5"/>
<text text-anchor="middle" x="179" y="-287.5" font-family="Helvetica,sans-Serif" font-size="10.00">lapmessage.cpp</text>
</a>
</g>
</g>
<!-- Node2 -->
<g id="node2" class="node">
<title>Node2</title>
<g id="a_node2"><a xlink:href="lapmessage_8h.html" target="_top" xlink:title=" ">
<polygon fill="none" stroke="black" points="23.5,-224.5 23.5,-243.5 108.5,-243.5 108.5,-224.5 23.5,-224.5"/>
<text text-anchor="middle" x="66" y="-231.5" font-family="Helvetica,sans-Serif" font-size="10.00">lapmessage.h</text>
</a>
</g>
</g>
<!-- Node1&#45;&gt;Node2 -->
<g id="edge1" class="edge">
<title>Node1&#45;&gt;Node2</title>
<path fill="none" stroke="midnightblue" d="M161.09,-280.44C142.75,-271.68 113.99,-257.94 92.91,-247.86"/>
<polygon fill="midnightblue" stroke="midnightblue" points="94.35,-244.67 83.82,-243.52 91.33,-250.99 94.35,-244.67"/>
</g>
<!-- Node7 -->
<g id="node7" class="node">
<title>Node7</title>
<g id="a_node7"><a xlink:title=" ">
<polygon fill="none" stroke="#bfbfbf" points="107,-56.5 107,-75.5 163,-75.5 163,-56.5 107,-56.5"/>
<text text-anchor="middle" x="135" y="-63.5" font-family="Helvetica,sans-Serif" font-size="10.00">QDebug</text>
</a>
</g>
</g>
<!-- Node1&#45;&gt;Node7 -->
<g id="edge9" class="edge">
<title>Node1&#45;&gt;Node7</title>
<path fill="none" stroke="midnightblue" d="M174.51,-280.28C170.14,-271.39 163.62,-257.08 160,-244 144.45,-187.79 138.26,-118.73 136.06,-85.97"/>
<polygon fill="midnightblue" stroke="midnightblue" points="139.54,-85.4 135.43,-75.63 132.55,-85.83 139.54,-85.4"/>
</g>
<!-- Node8 -->
<g id="node8" class="node">
<title>Node8</title>
<g id="a_node8"><a xlink:title=" ">
<polygon fill="none" stroke="#bfbfbf" points="169,-224.5 169,-243.5 265,-243.5 265,-224.5 169,-224.5"/>
<text text-anchor="middle" x="217" y="-231.5" font-family="Helvetica,sans-Serif" font-size="10.00">lapmessage_p.h</text>
</a>
</g>
</g>
<!-- Node1&#45;&gt;Node8 -->
<g id="edge8" class="edge">
<title>Node1&#45;&gt;Node8</title>
<path fill="none" stroke="midnightblue" d="M185.27,-280.08C190.64,-272.46 198.52,-261.26 205.08,-251.94"/>
<polygon fill="midnightblue" stroke="midnightblue" points="207.95,-253.94 210.84,-243.75 202.22,-249.91 207.95,-253.94"/>
</g>
<!-- Node9 -->
<g id="node9" class="node">
<title>Node9</title>
<g id="a_node9"><a xlink:title=" ">
<polygon fill="none" stroke="#bfbfbf" points="283.5,-224.5 283.5,-243.5 344.5,-243.5 344.5,-224.5 283.5,-224.5"/>
<text text-anchor="middle" x="314" y="-231.5" font-family="Helvetica,sans-Serif" font-size="10.00">QtEndian</text>
</a>
</g>
</g>
<!-- Node1&#45;&gt;Node9 -->
<g id="edge10" class="edge">
<title>Node1&#45;&gt;Node9</title>
<path fill="none" stroke="midnightblue" d="M200.39,-280.44C222.71,-271.52 257.9,-257.44 283.21,-247.32"/>
<polygon fill="midnightblue" stroke="midnightblue" points="284.72,-250.48 292.71,-243.52 282.12,-243.98 284.72,-250.48"/>
</g>
<!-- Node3 -->
<g id="node3" class="node">
<title>Node3</title>
<g id="a_node3"><a xlink:href="fitdatamessage_8h_source.html" target="_top" xlink:title=" ">
<polygon fill="none" stroke="black" points="11.5,-168.5 11.5,-187.5 112.5,-187.5 112.5,-168.5 11.5,-168.5"/>
<text text-anchor="middle" x="62" y="-175.5" font-family="Helvetica,sans-Serif" font-size="10.00">fitdatamessage.h</text>
</a>
</g>
</g>
<!-- Node2&#45;&gt;Node3 -->
<g id="edge2" class="edge">
<title>Node2&#45;&gt;Node3</title>
<path fill="none" stroke="midnightblue" d="M65.34,-224.08C64.82,-217.01 64.06,-206.86 63.41,-197.99"/>
<polygon fill="midnightblue" stroke="midnightblue" points="66.88,-197.47 62.65,-187.75 59.9,-197.98 66.88,-197.47"/>
</g>
<!-- Node4 -->
<g id="node4" class="node">
<title>Node4</title>
<g id="a_node4"><a xlink:href="QtFit__global_8h_source.html" target="_top" xlink:title=" ">
<polygon fill="none" stroke="black" points="0,-56.5 0,-75.5 84,-75.5 84,-56.5 0,-56.5"/>
<text text-anchor="middle" x="42" y="-63.5" font-family="Helvetica,sans-Serif" font-size="10.00">QtFit_global.h</text>
</a>
</g>
</g>
<!-- Node3&#45;&gt;Node4 -->
<g id="edge3" class="edge">
<title>Node3&#45;&gt;Node4</title>
<path fill="none" stroke="midnightblue" d="M59.34,-168.46C56.64,-159.46 52.49,-144.86 50,-132 47.02,-116.63 44.93,-99 43.64,-85.97"/>
<polygon fill="midnightblue" stroke="midnightblue" points="47.11,-85.53 42.7,-75.89 40.14,-86.17 47.11,-85.53"/>
</g>
<!-- Node6 -->
<g id="node6" class="node">
<title>Node6</title>
<g id="a_node6"><a xlink:href="types_8h.html" target="_top" xlink:title="Types defined by the ANT+ FIT SDK.">
<polygon fill="none" stroke="black" points="59.5,-112.5 59.5,-131.5 112.5,-131.5 112.5,-112.5 59.5,-112.5"/>
<text text-anchor="middle" x="86" y="-119.5" font-family="Helvetica,sans-Serif" font-size="10.00">types.h</text>
</a>
</g>
</g>
<!-- Node3&#45;&gt;Node6 -->
<g id="edge5" class="edge">
<title>Node3&#45;&gt;Node6</title>
<path fill="none" stroke="midnightblue" d="M65.96,-168.08C69.21,-160.77 73.92,-150.18 77.95,-141.1"/>
<polygon fill="midnightblue" stroke="midnightblue" points="81.25,-142.31 82.11,-131.75 74.85,-139.47 81.25,-142.31"/>
</g>
<!-- Node5 -->
<g id="node5" class="node">
<title>Node5</title>
<g id="a_node5"><a xlink:title=" ">
<polygon fill="none" stroke="#bfbfbf" points="12.5,-0.5 12.5,-19.5 71.5,-19.5 71.5,-0.5 12.5,-0.5"/>
<text text-anchor="middle" x="42" y="-7.5" font-family="Helvetica,sans-Serif" font-size="10.00">QtGlobal</text>
</a>
</g>
</g>
<!-- Node4&#45;&gt;Node5 -->
<g id="edge4" class="edge">
<title>Node4&#45;&gt;Node5</title>
<path fill="none" stroke="midnightblue" d="M42,-56.08C42,-49.01 42,-38.86 42,-29.99"/>
<polygon fill="midnightblue" stroke="midnightblue" points="45.5,-29.75 42,-19.75 38.5,-29.75 45.5,-29.75"/>
</g>
<!-- Node6&#45;&gt;Node4 -->
<g id="edge6" class="edge">
<title>Node6&#45;&gt;Node4</title>
<path fill="none" stroke="midnightblue" d="M78.73,-112.08C72.46,-104.38 63.21,-93.03 55.57,-83.65"/>
<polygon fill="midnightblue" stroke="midnightblue" points="58.16,-81.29 49.13,-75.75 52.73,-85.71 58.16,-81.29"/>
</g>
<!-- Node6&#45;&gt;Node7 -->
<g id="edge7" class="edge">
<title>Node6&#45;&gt;Node7</title>
<path fill="none" stroke="midnightblue" d="M94.09,-112.08C101.16,-104.3 111.59,-92.8 120.15,-83.37"/>
<polygon fill="midnightblue" stroke="midnightblue" points="122.93,-85.51 127.06,-75.75 117.75,-80.8 122.93,-85.51"/>
</g>
</g>
</svg>
