<?xml version="1.0" encoding="UTF-8" standalone="no"?>
<!DOCTYPE svg PUBLIC "-//W3C//DTD SVG 1.1//EN"
 "http://www.w3.org/Graphics/SVG/1.1/DTD/svg11.dtd">
<!-- Generated by graphviz version 2.43.0 (0)
 -->
<!-- Title: lengthmessage.cpp Pages: 1 -->
<svg width="393pt" height="308pt"
 viewBox="0.00 0.00 393.00 308.00" xmlns="http://www.w3.org/2000/svg" xmlns:xlink="http://www.w3.org/1999/xlink">
<g id="graph0" class="graph" transform="scale(1 1) rotate(0) translate(4 304)">
<title>lengthmessage.cpp</title>
<!-- Node1 -->
<g id="node1" class="node">
<title>Node1</title>
<g id="a_node1"><a xlink:title=" ">
<polygon fill="#bfbfbf" stroke="black" points="170.5,-280.5 170.5,-299.5 282.5,-299.5 282.5,-280.5 170.5,-280.5"/>
<text text-anchor="middle" x="226.5" y="-287.5" font-family="Helvetica,sans-Serif" font-size="10.00">lengthmessage.cpp</text>
</a>
</g>
</g>
<!-- Node2 -->
<g id="node2" class="node">
<title>Node2</title>
<g id="a_node2"><a xlink:href="lengthmessage_8h.html" target="_top" xlink:title=" ">
<polygon fill="none" stroke="black" points="0,-224.5 0,-243.5 101,-243.5 101,-224.5 0,-224.5"/>
<text text-anchor="middle" x="50.5" y="-231.5" font-family="Helvetica,sans-Serif" font-size="10.00">lengthmessage.h</text>
</a>
</g>
</g>
<!-- Node1&#45;&gt;Node2 -->
<g id="edge1" class="edge">
<title>Node1&#45;&gt;Node2</title>
<path fill="none" stroke="midnightblue" d="M198.61,-280.44C168.75,-271.28 121.19,-256.69 88.04,-246.52"/>
<polygon fill="midnightblue" stroke="midnightblue" points="88.84,-243.1 78.26,-243.52 86.79,-249.8 88.84,-243.1"/>
</g>
<!-- Node7 -->
<g id="node7" class="node">
<title>Node7</title>
<g id="a_node7"><a xlink:title=" ">
<polygon fill="none" stroke="#bfbfbf" points="119.5,-224.5 119.5,-243.5 231.5,-243.5 231.5,-224.5 119.5,-224.5"/>
<text text-anchor="middle" x="175.5" y="-231.5" font-family="Helvetica,sans-Serif" font-size="10.00">lengthmessage_p.h</text>
</a>
</g>
</g>
<!-- Node1&#45;&gt;Node7 -->
<g id="edge7" class="edge">
<title>Node1&#45;&gt;Node7</title>
<path fill="none" stroke="midnightblue" d="M218.08,-280.08C210.65,-272.22 199.65,-260.57 190.69,-251.08"/>
<polygon fill="midnightblue" stroke="midnightblue" points="193.18,-248.62 183.76,-243.75 188.09,-253.42 193.18,-248.62"/>
</g>
<!-- Node8 -->
<g id="node8" class="node">
<title>Node8</title>
<g id="a_node8"><a xlink:title=" ">
<polygon fill="none" stroke="#bfbfbf" points="249.5,-224.5 249.5,-243.5 305.5,-243.5 305.5,-224.5 249.5,-224.5"/>
<text text-anchor="middle" x="277.5" y="-231.5" font-family="Helvetica,sans-Serif" font-size="10.00">QDebug</text>
</a>
</g>
</g>
<!-- Node1&#45;&gt;Node8 -->
<g id="edge8" class="edge">
<title>Node1&#45;&gt;Node8</title>
<path fill="none" stroke="midnightblue" d="M234.92,-280.08C242.35,-272.22 253.35,-260.57 262.31,-251.08"/>
<polygon fill="midnightblue" stroke="midnightblue" points="264.91,-253.42 269.24,-243.75 259.82,-248.62 264.91,-253.42"/>
</g>
<!-- Node9 -->
<g id="node9" class="node">
<title>Node9</title>
<g id="a_node9"><a xlink:title=" ">
<polygon fill="none" stroke="#bfbfbf" points="324,-224.5 324,-243.5 385,-243.5 385,-224.5 324,-224.5"/>
<text text-anchor="middle" x="354.5" y="-231.5" font-family="Helvetica,sans-Serif" font-size="10.00">QtEndian</text>
</a>
</g>
</g>
<!-- Node1&#45;&gt;Node9 -->
<g id="edge9" class="edge">
<title>Node1&#45;&gt;Node9</title>
<path fill="none" stroke="midnightblue" d="M246.78,-280.44C267.85,-271.56 301.02,-257.56 324.99,-247.45"/>
<polygon fill="midnightblue" stroke="midnightblue" points="326.46,-250.63 334.31,-243.52 323.74,-244.18 326.46,-250.63"/>
</g>
<!-- Node3 -->
<g id="node3" class="node">
<title>Node3</title>
<g id="a_node3"><a xlink:href="fitdatamessage_8h_source.html" target="_top" xlink:title=" ">
<polygon fill="none" stroke="black" points="0,-168.5 0,-187.5 101,-187.5 101,-168.5 0,-168.5"/>
<text text-anchor="middle" x="50.5" y="-175.5" font-family="Helvetica,sans-Serif" font-size="10.00">fitdatamessage.h</text>
</a>
</g>
</g>
<!-- Node2&#45;&gt;Node3 -->
<g id="edge2" class="edge">
<title>Node2&#45;&gt;Node3</title>
<path fill="none" stroke="midnightblue" d="M50.5,-224.08C50.5,-217.01 50.5,-206.86 50.5,-197.99"/>
<polygon fill="midnightblue" stroke="midnightblue" points="54,-197.75 50.5,-187.75 47,-197.75 54,-197.75"/>
</g>
<!-- Node4 -->
<g id="node4" class="node">
<title>Node4</title>
<g id="a_node4"><a xlink:href="QtFit__global_8h_source.html" target="_top" xlink:title=" ">
<polygon fill="none" stroke="black" points="8.5,-56.5 8.5,-75.5 92.5,-75.5 92.5,-56.5 8.5,-56.5"/>
<text text-anchor="middle" x="50.5" y="-63.5" font-family="Helvetica,sans-Serif" font-size="10.00">QtFit_global.h</text>
</a>
</g>
</g>
<!-- Node3&#45;&gt;Node4 -->
<g id="edge3" class="edge">
<title>Node3&#45;&gt;Node4</title>
<path fill="none" stroke="midnightblue" d="M48.76,-168.42C47.03,-159.4 44.49,-144.77 43.5,-132 42.3,-116.42 44.41,-98.8 46.62,-85.84"/>
<polygon fill="midnightblue" stroke="midnightblue" points="50.1,-86.29 48.51,-75.82 43.22,-84.99 50.1,-86.29"/>
</g>
<!-- Node6 -->
<g id="node6" class="node">
<title>Node6</title>
<g id="a_node6"><a xlink:href="types_8h.html" target="_top" xlink:title="Types defined by the ANT+ FIT SDK.">
<polygon fill="none" stroke="black" points="52,-112.5 52,-131.5 105,-131.5 105,-112.5 52,-112.5"/>
<text text-anchor="middle" x="78.5" y="-119.5" font-family="Helvetica,sans-Serif" font-size="10.00">types.h</text>
</a>
</g>
</g>
<!-- Node3&#45;&gt;Node6 -->
<g id="edge5" class="edge">
<title>Node3&#45;&gt;Node6</title>
<path fill="none" stroke="midnightblue" d="M55.12,-168.08C58.96,-160.69 64.52,-149.95 69.26,-140.81"/>
<polygon fill="midnightblue" stroke="midnightblue" points="72.47,-142.24 73.96,-131.75 66.25,-139.02 72.47,-142.24"/>
</g>
<!-- Node5 -->
<g id="node5" class="node">
<title>Node5</title>
<g id="a_node5"><a xlink:title=" ">
<polygon fill="none" stroke="#bfbfbf" points="21,-0.5 21,-19.5 80,-19.5 80,-0.5 21,-0.5"/>
<text text-anchor="middle" x="50.5" y="-7.5" font-family="Helvetica,sans-Serif" font-size="10.00">QtGlobal</text>
</a>
</g>
</g>
<!-- Node4&#45;&gt;Node5 -->
<g id="edge4" class="edge">
<title>Node4&#45;&gt;Node5</title>
<path fill="none" stroke="midnightblue" d="M50.5,-56.08C50.5,-49.01 50.5,-38.86 50.5,-29.99"/>
<polygon fill="midnightblue" stroke="midnightblue" points="54,-29.75 50.5,-19.75 47,-29.75 54,-29.75"/>
</g>
<!-- Node6&#45;&gt;Node4 -->
<g id="edge6" class="edge">
<title>Node6&#45;&gt;Node4</title>
<path fill="none" stroke="midnightblue" d="M73.88,-112.08C70.04,-104.69 64.48,-93.95 59.74,-84.81"/>
<polygon fill="midnightblue" stroke="midnightblue" points="62.75,-83.02 55.04,-75.75 56.53,-86.24 62.75,-83.02"/>
</g>
</g>
</svg>
