<?xml version="1.0" encoding="UTF-8" standalone="no"?>
<!DOCTYPE svg PUBLIC "-//W3C//DTD SVG 1.1//EN"
 "http://www.w3.org/Graphics/SVG/1.1/DTD/svg11.dtd">
<!-- Generated by graphviz version 2.43.0 (0)
 -->
<!-- Title: magnetometerdatamessage.cpp Pages: 1 -->
<svg width="484pt" height="308pt"
 viewBox="0.00 0.00 483.50 308.00" xmlns="http://www.w3.org/2000/svg" xmlns:xlink="http://www.w3.org/1999/xlink">
<g id="graph0" class="graph" transform="scale(1 1) rotate(0) translate(4 304)">
<title>magnetometerdatamessage.cpp</title>
<!-- Node1 -->
<g id="node1" class="node">
<title>Node1</title>
<g id="a_node1"><a xlink:title=" ">
<polygon fill="#bfbfbf" stroke="black" points="162,-280.5 162,-299.5 338,-299.5 338,-280.5 162,-280.5"/>
<text text-anchor="middle" x="250" y="-287.5" font-family="Helvetica,sans-Serif" font-size="10.00">magnetometerdatamessage.cpp</text>
</a>
</g>
</g>
<!-- Node2 -->
<g id="node2" class="node">
<title>Node2</title>
<g id="a_node2"><a xlink:href="magnetometerdatamessage_8h.html" target="_top" xlink:title=" ">
<polygon fill="none" stroke="black" points="0,-224.5 0,-243.5 164,-243.5 164,-224.5 0,-224.5"/>
<text text-anchor="middle" x="82" y="-231.5" font-family="Helvetica,sans-Serif" font-size="10.00">magnetometerdatamessage.h</text>
</a>
</g>
</g>
<!-- Node1&#45;&gt;Node2 -->
<g id="edge1" class="edge">
<title>Node1&#45;&gt;Node2</title>
<path fill="none" stroke="midnightblue" d="M223.38,-280.44C194.99,-271.32 149.86,-256.81 118.25,-246.65"/>
<polygon fill="midnightblue" stroke="midnightblue" points="119.09,-243.24 108.5,-243.52 116.94,-249.91 119.09,-243.24"/>
</g>
<!-- Node7 -->
<g id="node7" class="node">
<title>Node7</title>
<g id="a_node7"><a xlink:title=" ">
<polygon fill="none" stroke="#bfbfbf" points="158,-56.5 158,-75.5 214,-75.5 214,-56.5 158,-56.5"/>
<text text-anchor="middle" x="186" y="-63.5" font-family="Helvetica,sans-Serif" font-size="10.00">QDebug</text>
</a>
</g>
</g>
<!-- Node1&#45;&gt;Node7 -->
<g id="edge9" class="edge">
<title>Node1&#45;&gt;Node7</title>
<path fill="none" stroke="midnightblue" d="M239.86,-280.48C230.7,-272.18 217.68,-258.68 211,-244 186.62,-190.44 184.64,-119.1 185.25,-85.72"/>
<polygon fill="midnightblue" stroke="midnightblue" points="188.76,-85.68 185.55,-75.58 181.76,-85.48 188.76,-85.68"/>
</g>
<!-- Node8 -->
<g id="node8" class="node">
<title>Node8</title>
<g id="a_node8"><a xlink:title=" ">
<polygon fill="none" stroke="#bfbfbf" points="220,-224.5 220,-243.5 396,-243.5 396,-224.5 220,-224.5"/>
<text text-anchor="middle" x="308" y="-231.5" font-family="Helvetica,sans-Serif" font-size="10.00">magnetometerdatamessage_p.h</text>
</a>
</g>
</g>
<!-- Node1&#45;&gt;Node8 -->
<g id="edge8" class="edge">
<title>Node1&#45;&gt;Node8</title>
<path fill="none" stroke="midnightblue" d="M259.32,-280.32C267.89,-272.34 280.81,-260.31 291.19,-250.65"/>
<polygon fill="midnightblue" stroke="midnightblue" points="293.58,-253.21 298.51,-243.83 288.81,-248.09 293.58,-253.21"/>
</g>
<!-- Node9 -->
<g id="node9" class="node">
<title>Node9</title>
<g id="a_node9"><a xlink:title=" ">
<polygon fill="none" stroke="#bfbfbf" points="414.5,-224.5 414.5,-243.5 475.5,-243.5 475.5,-224.5 414.5,-224.5"/>
<text text-anchor="middle" x="445" y="-231.5" font-family="Helvetica,sans-Serif" font-size="10.00">QtEndian</text>
</a>
</g>
</g>
<!-- Node1&#45;&gt;Node9 -->
<g id="edge10" class="edge">
<title>Node1&#45;&gt;Node9</title>
<path fill="none" stroke="midnightblue" d="M280.9,-280.44C314.27,-271.2 367.59,-256.44 404.35,-246.26"/>
<polygon fill="midnightblue" stroke="midnightblue" points="405.54,-249.56 414.25,-243.52 403.67,-242.81 405.54,-249.56"/>
</g>
<!-- Node3 -->
<g id="node3" class="node">
<title>Node3</title>
<g id="a_node3"><a xlink:href="abstractdatamessage_8h_source.html" target="_top" xlink:title=" ">
<polygon fill="none" stroke="black" points="16.5,-168.5 16.5,-187.5 147.5,-187.5 147.5,-168.5 16.5,-168.5"/>
<text text-anchor="middle" x="82" y="-175.5" font-family="Helvetica,sans-Serif" font-size="10.00">abstractdatamessage.h</text>
</a>
</g>
</g>
<!-- Node2&#45;&gt;Node3 -->
<g id="edge2" class="edge">
<title>Node2&#45;&gt;Node3</title>
<path fill="none" stroke="midnightblue" d="M82,-224.08C82,-217.01 82,-206.86 82,-197.99"/>
<polygon fill="midnightblue" stroke="midnightblue" points="85.5,-197.75 82,-187.75 78.5,-197.75 85.5,-197.75"/>
</g>
<!-- Node4 -->
<g id="node4" class="node">
<title>Node4</title>
<g id="a_node4"><a xlink:href="QtFit__global_8h_source.html" target="_top" xlink:title=" ">
<polygon fill="none" stroke="black" points="51,-56.5 51,-75.5 135,-75.5 135,-56.5 51,-56.5"/>
<text text-anchor="middle" x="93" y="-63.5" font-family="Helvetica,sans-Serif" font-size="10.00">QtFit_global.h</text>
</a>
</g>
</g>
<!-- Node3&#45;&gt;Node4 -->
<g id="edge3" class="edge">
<title>Node3&#45;&gt;Node4</title>
<path fill="none" stroke="midnightblue" d="M82.86,-168.37C84.64,-150.62 88.73,-109.67 91.14,-85.6"/>
<polygon fill="midnightblue" stroke="midnightblue" points="94.63,-85.89 92.14,-75.59 87.66,-85.19 94.63,-85.89"/>
</g>
<!-- Node6 -->
<g id="node6" class="node">
<title>Node6</title>
<g id="a_node6"><a xlink:href="types_8h.html" target="_top" xlink:title="Types defined by the ANT+ FIT SDK.">
<polygon fill="none" stroke="black" points="110.5,-112.5 110.5,-131.5 163.5,-131.5 163.5,-112.5 110.5,-112.5"/>
<text text-anchor="middle" x="137" y="-119.5" font-family="Helvetica,sans-Serif" font-size="10.00">types.h</text>
</a>
</g>
</g>
<!-- Node3&#45;&gt;Node6 -->
<g id="edge5" class="edge">
<title>Node3&#45;&gt;Node6</title>
<path fill="none" stroke="midnightblue" d="M91.08,-168.08C99.17,-160.14 111.2,-148.34 120.91,-138.8"/>
<polygon fill="midnightblue" stroke="midnightblue" points="123.4,-141.25 128.09,-131.75 118.5,-136.26 123.4,-141.25"/>
</g>
<!-- Node5 -->
<g id="node5" class="node">
<title>Node5</title>
<g id="a_node5"><a xlink:title=" ">
<polygon fill="none" stroke="#bfbfbf" points="63.5,-0.5 63.5,-19.5 122.5,-19.5 122.5,-0.5 63.5,-0.5"/>
<text text-anchor="middle" x="93" y="-7.5" font-family="Helvetica,sans-Serif" font-size="10.00">QtGlobal</text>
</a>
</g>
</g>
<!-- Node4&#45;&gt;Node5 -->
<g id="edge4" class="edge">
<title>Node4&#45;&gt;Node5</title>
<path fill="none" stroke="midnightblue" d="M93,-56.08C93,-49.01 93,-38.86 93,-29.99"/>
<polygon fill="midnightblue" stroke="midnightblue" points="96.5,-29.75 93,-19.75 89.5,-29.75 96.5,-29.75"/>
</g>
<!-- Node6&#45;&gt;Node4 -->
<g id="edge6" class="edge">
<title>Node6&#45;&gt;Node4</title>
<path fill="none" stroke="midnightblue" d="M129.73,-112.08C123.46,-104.38 114.21,-93.03 106.57,-83.65"/>
<polygon fill="midnightblue" stroke="midnightblue" points="109.16,-81.29 100.13,-75.75 103.73,-85.71 109.16,-81.29"/>
</g>
<!-- Node6&#45;&gt;Node7 -->
<g id="edge7" class="edge">
<title>Node6&#45;&gt;Node7</title>
<path fill="none" stroke="midnightblue" d="M145.09,-112.08C152.16,-104.3 162.59,-92.8 171.15,-83.37"/>
<polygon fill="midnightblue" stroke="midnightblue" points="173.93,-85.51 178.06,-75.75 168.75,-80.8 173.93,-85.51"/>
</g>
</g>
</svg>
