<?xml version="1.0" encoding="UTF-8" standalone="no"?>
<!DOCTYPE svg PUBLIC "-//W3C//DTD SVG 1.1//EN"
 "http://www.w3.org/Graphics/SVG/1.1/DTD/svg11.dtd">
<!-- Generated by graphviz version 2.43.0 (0)
 -->
<!-- Title: mesgcapabilitiesmessage.cpp Pages: 1 -->
<svg width="461pt" height="308pt"
 viewBox="0.00 0.00 461.00 308.00" xmlns="http://www.w3.org/2000/svg" xmlns:xlink="http://www.w3.org/1999/xlink">
<g id="graph0" class="graph" transform="scale(1 1) rotate(0) translate(4 304)">
<title>mesgcapabilitiesmessage.cpp</title>
<!-- Node1 -->
<g id="node1" class="node">
<title>Node1</title>
<g id="a_node1"><a xlink:title=" ">
<polygon fill="#bfbfbf" stroke="black" points="154.5,-280.5 154.5,-299.5 318.5,-299.5 318.5,-280.5 154.5,-280.5"/>
<text text-anchor="middle" x="236.5" y="-287.5" font-family="Helvetica,sans-Serif" font-size="10.00">mesgcapabilitiesmessage.cpp</text>
</a>
</g>
</g>
<!-- Node2 -->
<g id="node2" class="node">
<title>Node2</title>
<g id="a_node2"><a xlink:href="mesgcapabilitiesmessage_8h.html" target="_top" xlink:title=" ">
<polygon fill="none" stroke="black" points="0,-224.5 0,-243.5 153,-243.5 153,-224.5 0,-224.5"/>
<text text-anchor="middle" x="76.5" y="-231.5" font-family="Helvetica,sans-Serif" font-size="10.00">mesgcapabilitiesmessage.h</text>
</a>
</g>
</g>
<!-- Node1&#45;&gt;Node2 -->
<g id="edge1" class="edge">
<title>Node1&#45;&gt;Node2</title>
<path fill="none" stroke="midnightblue" d="M211.15,-280.44C184.23,-271.36 141.5,-256.94 111.41,-246.78"/>
<polygon fill="midnightblue" stroke="midnightblue" points="112.33,-243.4 101.73,-243.52 110.09,-250.03 112.33,-243.4"/>
</g>
<!-- Node7 -->
<g id="node7" class="node">
<title>Node7</title>
<g id="a_node7"><a xlink:title=" ">
<polygon fill="none" stroke="#bfbfbf" points="147.5,-56.5 147.5,-75.5 203.5,-75.5 203.5,-56.5 147.5,-56.5"/>
<text text-anchor="middle" x="175.5" y="-63.5" font-family="Helvetica,sans-Serif" font-size="10.00">QDebug</text>
</a>
</g>
</g>
<!-- Node1&#45;&gt;Node7 -->
<g id="edge9" class="edge">
<title>Node1&#45;&gt;Node7</title>
<path fill="none" stroke="midnightblue" d="M227.14,-280.32C218.7,-271.91 206.69,-258.33 200.5,-244 177.17,-189.97 174.69,-118.86 174.97,-85.62"/>
<polygon fill="midnightblue" stroke="midnightblue" points="178.47,-85.6 175.15,-75.54 171.47,-85.47 178.47,-85.6"/>
</g>
<!-- Node8 -->
<g id="node8" class="node">
<title>Node8</title>
<g id="a_node8"><a xlink:title=" ">
<polygon fill="none" stroke="#bfbfbf" points="209.5,-224.5 209.5,-243.5 373.5,-243.5 373.5,-224.5 209.5,-224.5"/>
<text text-anchor="middle" x="291.5" y="-231.5" font-family="Helvetica,sans-Serif" font-size="10.00">mesgcapabilitiesmessage_p.h</text>
</a>
</g>
</g>
<!-- Node1&#45;&gt;Node8 -->
<g id="edge8" class="edge">
<title>Node1&#45;&gt;Node8</title>
<path fill="none" stroke="midnightblue" d="M245.58,-280.08C253.67,-272.14 265.7,-260.34 275.41,-250.8"/>
<polygon fill="midnightblue" stroke="midnightblue" points="277.9,-253.25 282.59,-243.75 273,-248.26 277.9,-253.25"/>
</g>
<!-- Node9 -->
<g id="node9" class="node">
<title>Node9</title>
<g id="a_node9"><a xlink:title=" ">
<polygon fill="none" stroke="#bfbfbf" points="392,-224.5 392,-243.5 453,-243.5 453,-224.5 392,-224.5"/>
<text text-anchor="middle" x="422.5" y="-231.5" font-family="Helvetica,sans-Serif" font-size="10.00">QtEndian</text>
</a>
</g>
</g>
<!-- Node1&#45;&gt;Node9 -->
<g id="edge10" class="edge">
<title>Node1&#45;&gt;Node9</title>
<path fill="none" stroke="midnightblue" d="M265.97,-280.44C297.67,-271.24 348.23,-256.56 383.27,-246.39"/>
<polygon fill="midnightblue" stroke="midnightblue" points="384.54,-249.67 393.17,-243.52 382.59,-242.94 384.54,-249.67"/>
</g>
<!-- Node3 -->
<g id="node3" class="node">
<title>Node3</title>
<g id="a_node3"><a xlink:href="abstractdatamessage_8h_source.html" target="_top" xlink:title=" ">
<polygon fill="none" stroke="black" points="11,-168.5 11,-187.5 142,-187.5 142,-168.5 11,-168.5"/>
<text text-anchor="middle" x="76.5" y="-175.5" font-family="Helvetica,sans-Serif" font-size="10.00">abstractdatamessage.h</text>
</a>
</g>
</g>
<!-- Node2&#45;&gt;Node3 -->
<g id="edge2" class="edge">
<title>Node2&#45;&gt;Node3</title>
<path fill="none" stroke="midnightblue" d="M76.5,-224.08C76.5,-217.01 76.5,-206.86 76.5,-197.99"/>
<polygon fill="midnightblue" stroke="midnightblue" points="80,-197.75 76.5,-187.75 73,-197.75 80,-197.75"/>
</g>
<!-- Node4 -->
<g id="node4" class="node">
<title>Node4</title>
<g id="a_node4"><a xlink:href="QtFit__global_8h_source.html" target="_top" xlink:title=" ">
<polygon fill="none" stroke="black" points="40.5,-56.5 40.5,-75.5 124.5,-75.5 124.5,-56.5 40.5,-56.5"/>
<text text-anchor="middle" x="82.5" y="-63.5" font-family="Helvetica,sans-Serif" font-size="10.00">QtFit_global.h</text>
</a>
</g>
</g>
<!-- Node3&#45;&gt;Node4 -->
<g id="edge3" class="edge">
<title>Node3&#45;&gt;Node4</title>
<path fill="none" stroke="midnightblue" d="M76.97,-168.37C77.94,-150.62 80.17,-109.67 81.49,-85.6"/>
<polygon fill="midnightblue" stroke="midnightblue" points="84.98,-85.77 82.03,-75.59 77.99,-85.39 84.98,-85.77"/>
</g>
<!-- Node6 -->
<g id="node6" class="node">
<title>Node6</title>
<g id="a_node6"><a xlink:href="types_8h.html" target="_top" xlink:title="Types defined by the ANT+ FIT SDK.">
<polygon fill="none" stroke="black" points="100,-112.5 100,-131.5 153,-131.5 153,-112.5 100,-112.5"/>
<text text-anchor="middle" x="126.5" y="-119.5" font-family="Helvetica,sans-Serif" font-size="10.00">types.h</text>
</a>
</g>
</g>
<!-- Node3&#45;&gt;Node6 -->
<g id="edge5" class="edge">
<title>Node3&#45;&gt;Node6</title>
<path fill="none" stroke="midnightblue" d="M84.76,-168.08C91.96,-160.3 102.61,-148.8 111.35,-139.37"/>
<polygon fill="midnightblue" stroke="midnightblue" points="114.17,-141.47 118.4,-131.75 109.03,-136.71 114.17,-141.47"/>
</g>
<!-- Node5 -->
<g id="node5" class="node">
<title>Node5</title>
<g id="a_node5"><a xlink:title=" ">
<polygon fill="none" stroke="#bfbfbf" points="53,-0.5 53,-19.5 112,-19.5 112,-0.5 53,-0.5"/>
<text text-anchor="middle" x="82.5" y="-7.5" font-family="Helvetica,sans-Serif" font-size="10.00">QtGlobal</text>
</a>
</g>
</g>
<!-- Node4&#45;&gt;Node5 -->
<g id="edge4" class="edge">
<title>Node4&#45;&gt;Node5</title>
<path fill="none" stroke="midnightblue" d="M82.5,-56.08C82.5,-49.01 82.5,-38.86 82.5,-29.99"/>
<polygon fill="midnightblue" stroke="midnightblue" points="86,-29.75 82.5,-19.75 79,-29.75 86,-29.75"/>
</g>
<!-- Node6&#45;&gt;Node4 -->
<g id="edge6" class="edge">
<title>Node6&#45;&gt;Node4</title>
<path fill="none" stroke="midnightblue" d="M119.23,-112.08C112.96,-104.38 103.71,-93.03 96.07,-83.65"/>
<polygon fill="midnightblue" stroke="midnightblue" points="98.66,-81.29 89.63,-75.75 93.23,-85.71 98.66,-81.29"/>
</g>
<!-- Node6&#45;&gt;Node7 -->
<g id="edge7" class="edge">
<title>Node6&#45;&gt;Node7</title>
<path fill="none" stroke="midnightblue" d="M134.59,-112.08C141.66,-104.3 152.09,-92.8 160.65,-83.37"/>
<polygon fill="midnightblue" stroke="midnightblue" points="163.43,-85.51 167.56,-75.75 158.25,-80.8 163.43,-85.51"/>
</g>
</g>
</svg>
