<?xml version="1.0" encoding="UTF-8" standalone="no"?>
<!DOCTYPE svg PUBLIC "-//W3C//DTD SVG 1.1//EN"
 "http://www.w3.org/Graphics/SVG/1.1/DTD/svg11.dtd">
<!-- Generated by graphviz version 2.43.0 (0)
 -->
<!-- Title: mesgcapabilitiesmessage.cpp Pages: 1 -->
<svg width="344pt" height="308pt"
 viewBox="0.00 0.00 343.50 308.00" xmlns="http://www.w3.org/2000/svg" xmlns:xlink="http://www.w3.org/1999/xlink">
<g id="graph0" class="graph" transform="scale(1 1) rotate(0) translate(4 304)">
<title>mesgcapabilitiesmessage.cpp</title>
<!-- Node1 -->
<g id="node1" class="node">
<title>Node1</title>
<g id="a_node1"><a xlink:title=" ">
<polygon fill="#bfbfbf" stroke="black" points="82.5,-280.5 82.5,-299.5 246.5,-299.5 246.5,-280.5 82.5,-280.5"/>
<text text-anchor="middle" x="164.5" y="-287.5" font-family="Helvetica,sans-Serif" font-size="10.00">mesgcapabilitiesmessage.cpp</text>
</a>
</g>
</g>
<!-- Node2 -->
<g id="node2" class="node">
<title>Node2</title>
<g id="a_node2"><a xlink:href="mesgcapabilitiesmessage_8h.html" target="_top" xlink:title=" ">
<polygon fill="none" stroke="black" points="0,-224.5 0,-243.5 153,-243.5 153,-224.5 0,-224.5"/>
<text text-anchor="middle" x="76.5" y="-231.5" font-family="Helvetica,sans-Serif" font-size="10.00">mesgcapabilitiesmessage.h</text>
</a>
</g>
</g>
<!-- Node1&#45;&gt;Node2 -->
<g id="edge1" class="edge">
<title>Node1&#45;&gt;Node2</title>
<path fill="none" stroke="midnightblue" d="M150.36,-280.32C136.63,-271.9 115.56,-258.97 99.44,-249.07"/>
<polygon fill="midnightblue" stroke="midnightblue" points="100.96,-245.9 90.6,-243.65 97.3,-251.87 100.96,-245.9"/>
</g>
<!-- Node7 -->
<g id="node7" class="node">
<title>Node7</title>
<g id="a_node7"><a xlink:title=" ">
<polygon fill="none" stroke="#bfbfbf" points="171.5,-224.5 171.5,-243.5 335.5,-243.5 335.5,-224.5 171.5,-224.5"/>
<text text-anchor="middle" x="253.5" y="-231.5" font-family="Helvetica,sans-Serif" font-size="10.00">mesgcapabilitiesmessage_p.h</text>
</a>
</g>
</g>
<!-- Node1&#45;&gt;Node7 -->
<g id="edge7" class="edge">
<title>Node1&#45;&gt;Node7</title>
<path fill="none" stroke="midnightblue" d="M178.8,-280.32C192.68,-271.9 213.99,-258.97 230.3,-249.07"/>
<polygon fill="midnightblue" stroke="midnightblue" points="232.5,-251.83 239.24,-243.65 228.87,-245.85 232.5,-251.83"/>
</g>
<!-- Node3 -->
<g id="node3" class="node">
<title>Node3</title>
<g id="a_node3"><a xlink:href="fitdatamessage_8h_source.html" target="_top" xlink:title=" ">
<polygon fill="none" stroke="black" points="26,-168.5 26,-187.5 127,-187.5 127,-168.5 26,-168.5"/>
<text text-anchor="middle" x="76.5" y="-175.5" font-family="Helvetica,sans-Serif" font-size="10.00">fitdatamessage.h</text>
</a>
</g>
</g>
<!-- Node2&#45;&gt;Node3 -->
<g id="edge2" class="edge">
<title>Node2&#45;&gt;Node3</title>
<path fill="none" stroke="midnightblue" d="M76.5,-224.08C76.5,-217.01 76.5,-206.86 76.5,-197.99"/>
<polygon fill="midnightblue" stroke="midnightblue" points="80,-197.75 76.5,-187.75 73,-197.75 80,-197.75"/>
</g>
<!-- Node4 -->
<g id="node4" class="node">
<title>Node4</title>
<g id="a_node4"><a xlink:href="QtFit__global_8h_source.html" target="_top" xlink:title=" ">
<polygon fill="none" stroke="black" points="34.5,-56.5 34.5,-75.5 118.5,-75.5 118.5,-56.5 34.5,-56.5"/>
<text text-anchor="middle" x="76.5" y="-63.5" font-family="Helvetica,sans-Serif" font-size="10.00">QtFit_global.h</text>
</a>
</g>
</g>
<!-- Node3&#45;&gt;Node4 -->
<g id="edge3" class="edge">
<title>Node3&#45;&gt;Node4</title>
<path fill="none" stroke="midnightblue" d="M74.76,-168.42C73.03,-159.4 70.49,-144.77 69.5,-132 68.3,-116.42 70.41,-98.8 72.62,-85.84"/>
<polygon fill="midnightblue" stroke="midnightblue" points="76.1,-86.29 74.51,-75.82 69.22,-84.99 76.1,-86.29"/>
</g>
<!-- Node6 -->
<g id="node6" class="node">
<title>Node6</title>
<g id="a_node6"><a xlink:href="types_8h.html" target="_top" xlink:title="Types defined by the ANT+ FIT SDK.">
<polygon fill="none" stroke="black" points="78,-112.5 78,-131.5 131,-131.5 131,-112.5 78,-112.5"/>
<text text-anchor="middle" x="104.5" y="-119.5" font-family="Helvetica,sans-Serif" font-size="10.00">types.h</text>
</a>
</g>
</g>
<!-- Node3&#45;&gt;Node6 -->
<g id="edge5" class="edge">
<title>Node3&#45;&gt;Node6</title>
<path fill="none" stroke="midnightblue" d="M81.12,-168.08C84.96,-160.69 90.52,-149.95 95.26,-140.81"/>
<polygon fill="midnightblue" stroke="midnightblue" points="98.47,-142.24 99.96,-131.75 92.25,-139.02 98.47,-142.24"/>
</g>
<!-- Node5 -->
<g id="node5" class="node">
<title>Node5</title>
<g id="a_node5"><a xlink:title=" ">
<polygon fill="none" stroke="#bfbfbf" points="47,-0.5 47,-19.5 106,-19.5 106,-0.5 47,-0.5"/>
<text text-anchor="middle" x="76.5" y="-7.5" font-family="Helvetica,sans-Serif" font-size="10.00">QtGlobal</text>
</a>
</g>
</g>
<!-- Node4&#45;&gt;Node5 -->
<g id="edge4" class="edge">
<title>Node4&#45;&gt;Node5</title>
<path fill="none" stroke="midnightblue" d="M76.5,-56.08C76.5,-49.01 76.5,-38.86 76.5,-29.99"/>
<polygon fill="midnightblue" stroke="midnightblue" points="80,-29.75 76.5,-19.75 73,-29.75 80,-29.75"/>
</g>
<!-- Node6&#45;&gt;Node4 -->
<g id="edge6" class="edge">
<title>Node6&#45;&gt;Node4</title>
<path fill="none" stroke="midnightblue" d="M99.88,-112.08C96.04,-104.69 90.48,-93.95 85.74,-84.81"/>
<polygon fill="midnightblue" stroke="midnightblue" points="88.75,-83.02 81.04,-75.75 82.53,-86.24 88.75,-83.02"/>
</g>
</g>
</svg>
