<?xml version="1.0" encoding="UTF-8" standalone="no"?>
<!DOCTYPE svg PUBLIC "-//W3C//DTD SVG 1.1//EN"
 "http://www.w3.org/Graphics/SVG/1.1/DTD/svg11.dtd">
<!-- Generated by graphviz version 2.43.0 (0)
 -->
<!-- Title: monitoringmessage.cpp Pages: 1 -->
<svg width="401pt" height="308pt"
 viewBox="0.00 0.00 401.00 308.00" xmlns="http://www.w3.org/2000/svg" xmlns:xlink="http://www.w3.org/1999/xlink">
<g id="graph0" class="graph" transform="scale(1 1) rotate(0) translate(4 304)">
<title>monitoringmessage.cpp</title>
<!-- Node1 -->
<g id="node1" class="node">
<title>Node1</title>
<g id="a_node1"><a xlink:title=" ">
<polygon fill="#bfbfbf" stroke="black" points="131.5,-280.5 131.5,-299.5 265.5,-299.5 265.5,-280.5 131.5,-280.5"/>
<text text-anchor="middle" x="198.5" y="-287.5" font-family="Helvetica,sans-Serif" font-size="10.00">monitoringmessage.cpp</text>
</a>
</g>
</g>
<!-- Node2 -->
<g id="node2" class="node">
<title>Node2</title>
<g id="a_node2"><a xlink:href="monitoringmessage_8h.html" target="_top" xlink:title=" ">
<polygon fill="none" stroke="black" points="0,-224.5 0,-243.5 123,-243.5 123,-224.5 0,-224.5"/>
<text text-anchor="middle" x="61.5" y="-231.5" font-family="Helvetica,sans-Serif" font-size="10.00">monitoringmessage.h</text>
</a>
</g>
</g>
<!-- Node1&#45;&gt;Node2 -->
<g id="edge1" class="edge">
<title>Node1&#45;&gt;Node2</title>
<path fill="none" stroke="midnightblue" d="M176.79,-280.44C154.15,-271.52 118.43,-257.44 92.75,-247.32"/>
<polygon fill="midnightblue" stroke="midnightblue" points="93.69,-243.93 83.11,-243.52 91.13,-250.44 93.69,-243.93"/>
</g>
<!-- Node7 -->
<g id="node7" class="node">
<title>Node7</title>
<g id="a_node7"><a xlink:title=" ">
<polygon fill="none" stroke="#bfbfbf" points="117.5,-56.5 117.5,-75.5 173.5,-75.5 173.5,-56.5 117.5,-56.5"/>
<text text-anchor="middle" x="145.5" y="-63.5" font-family="Helvetica,sans-Serif" font-size="10.00">QDebug</text>
</a>
</g>
</g>
<!-- Node1&#45;&gt;Node7 -->
<g id="edge9" class="edge">
<title>Node1&#45;&gt;Node7</title>
<path fill="none" stroke="midnightblue" d="M191.51,-280.27C184.97,-271.6 175.46,-257.66 170.5,-244 150.5,-188.94 146.4,-118.86 145.63,-85.83"/>
<polygon fill="midnightblue" stroke="midnightblue" points="149.13,-85.72 145.47,-75.78 142.13,-85.83 149.13,-85.72"/>
</g>
<!-- Node8 -->
<g id="node8" class="node">
<title>Node8</title>
<g id="a_node8"><a xlink:title=" ">
<polygon fill="none" stroke="#bfbfbf" points="179.5,-224.5 179.5,-243.5 313.5,-243.5 313.5,-224.5 179.5,-224.5"/>
<text text-anchor="middle" x="246.5" y="-231.5" font-family="Helvetica,sans-Serif" font-size="10.00">monitoringmessage_p.h</text>
</a>
</g>
</g>
<!-- Node1&#45;&gt;Node8 -->
<g id="edge8" class="edge">
<title>Node1&#45;&gt;Node8</title>
<path fill="none" stroke="midnightblue" d="M206.43,-280.08C213.35,-272.3 223.57,-260.8 231.95,-251.37"/>
<polygon fill="midnightblue" stroke="midnightblue" points="234.69,-253.55 238.72,-243.75 229.46,-248.9 234.69,-253.55"/>
</g>
<!-- Node9 -->
<g id="node9" class="node">
<title>Node9</title>
<g id="a_node9"><a xlink:title=" ">
<polygon fill="none" stroke="#bfbfbf" points="332,-224.5 332,-243.5 393,-243.5 393,-224.5 332,-224.5"/>
<text text-anchor="middle" x="362.5" y="-231.5" font-family="Helvetica,sans-Serif" font-size="10.00">QtEndian</text>
</a>
</g>
</g>
<!-- Node1&#45;&gt;Node9 -->
<g id="edge10" class="edge">
<title>Node1&#45;&gt;Node9</title>
<path fill="none" stroke="midnightblue" d="M224.49,-280.44C252.2,-271.32 296.25,-256.81 327.12,-246.65"/>
<polygon fill="midnightblue" stroke="midnightblue" points="328.23,-249.97 336.64,-243.52 326.04,-243.32 328.23,-249.97"/>
</g>
<!-- Node3 -->
<g id="node3" class="node">
<title>Node3</title>
<g id="a_node3"><a xlink:href="fitdatamessage_8h_source.html" target="_top" xlink:title=" ">
<polygon fill="none" stroke="black" points="11,-168.5 11,-187.5 112,-187.5 112,-168.5 11,-168.5"/>
<text text-anchor="middle" x="61.5" y="-175.5" font-family="Helvetica,sans-Serif" font-size="10.00">fitdatamessage.h</text>
</a>
</g>
</g>
<!-- Node2&#45;&gt;Node3 -->
<g id="edge2" class="edge">
<title>Node2&#45;&gt;Node3</title>
<path fill="none" stroke="midnightblue" d="M61.5,-224.08C61.5,-217.01 61.5,-206.86 61.5,-197.99"/>
<polygon fill="midnightblue" stroke="midnightblue" points="65,-197.75 61.5,-187.75 58,-197.75 65,-197.75"/>
</g>
<!-- Node4 -->
<g id="node4" class="node">
<title>Node4</title>
<g id="a_node4"><a xlink:href="QtFit__global_8h_source.html" target="_top" xlink:title=" ">
<polygon fill="none" stroke="black" points="10.5,-56.5 10.5,-75.5 94.5,-75.5 94.5,-56.5 10.5,-56.5"/>
<text text-anchor="middle" x="52.5" y="-63.5" font-family="Helvetica,sans-Serif" font-size="10.00">QtFit_global.h</text>
</a>
</g>
</g>
<!-- Node3&#45;&gt;Node4 -->
<g id="edge3" class="edge">
<title>Node3&#45;&gt;Node4</title>
<path fill="none" stroke="midnightblue" d="M60.79,-168.37C59.34,-150.62 55.99,-109.67 54.02,-85.6"/>
<polygon fill="midnightblue" stroke="midnightblue" points="57.51,-85.27 53.2,-75.59 50.53,-85.84 57.51,-85.27"/>
</g>
<!-- Node6 -->
<g id="node6" class="node">
<title>Node6</title>
<g id="a_node6"><a xlink:href="types_8h.html" target="_top" xlink:title="Types defined by the ANT+ FIT SDK.">
<polygon fill="none" stroke="black" points="70,-112.5 70,-131.5 123,-131.5 123,-112.5 70,-112.5"/>
<text text-anchor="middle" x="96.5" y="-119.5" font-family="Helvetica,sans-Serif" font-size="10.00">types.h</text>
</a>
</g>
</g>
<!-- Node3&#45;&gt;Node6 -->
<g id="edge5" class="edge">
<title>Node3&#45;&gt;Node6</title>
<path fill="none" stroke="midnightblue" d="M67.28,-168.08C72.17,-160.53 79.33,-149.49 85.33,-140.23"/>
<polygon fill="midnightblue" stroke="midnightblue" points="88.33,-142.05 90.83,-131.75 82.45,-138.24 88.33,-142.05"/>
</g>
<!-- Node5 -->
<g id="node5" class="node">
<title>Node5</title>
<g id="a_node5"><a xlink:title=" ">
<polygon fill="none" stroke="#bfbfbf" points="23,-0.5 23,-19.5 82,-19.5 82,-0.5 23,-0.5"/>
<text text-anchor="middle" x="52.5" y="-7.5" font-family="Helvetica,sans-Serif" font-size="10.00">QtGlobal</text>
</a>
</g>
</g>
<!-- Node4&#45;&gt;Node5 -->
<g id="edge4" class="edge">
<title>Node4&#45;&gt;Node5</title>
<path fill="none" stroke="midnightblue" d="M52.5,-56.08C52.5,-49.01 52.5,-38.86 52.5,-29.99"/>
<polygon fill="midnightblue" stroke="midnightblue" points="56,-29.75 52.5,-19.75 49,-29.75 56,-29.75"/>
</g>
<!-- Node6&#45;&gt;Node4 -->
<g id="edge6" class="edge">
<title>Node6&#45;&gt;Node4</title>
<path fill="none" stroke="midnightblue" d="M89.23,-112.08C82.96,-104.38 73.71,-93.03 66.07,-83.65"/>
<polygon fill="midnightblue" stroke="midnightblue" points="68.66,-81.29 59.63,-75.75 63.23,-85.71 68.66,-81.29"/>
</g>
<!-- Node6&#45;&gt;Node7 -->
<g id="edge7" class="edge">
<title>Node6&#45;&gt;Node7</title>
<path fill="none" stroke="midnightblue" d="M104.59,-112.08C111.66,-104.3 122.09,-92.8 130.65,-83.37"/>
<polygon fill="midnightblue" stroke="midnightblue" points="133.43,-85.51 137.56,-75.75 128.25,-80.8 133.43,-85.51"/>
</g>
</g>
</svg>
