<?xml version="1.0" encoding="UTF-8" standalone="no"?>
<!DOCTYPE svg PUBLIC "-//W3C//DTD SVG 1.1//EN"
 "http://www.w3.org/Graphics/SVG/1.1/DTD/svg11.dtd">
<!-- Generated by graphviz version 2.43.0 (0)
 -->
<!-- Title: obdiidatamessage.h Pages: 1 -->
<svg width="124pt" height="252pt"
 viewBox="0.00 0.00 124.00 252.00" xmlns="http://www.w3.org/2000/svg" xmlns:xlink="http://www.w3.org/1999/xlink">
<g id="graph0" class="graph" transform="scale(1 1) rotate(0) translate(4 248)">
<title>obdiidatamessage.h</title>
<!-- Node1 -->
<g id="node1" class="node">
<title>Node1</title>
<g id="a_node1"><a xlink:title=" ">
<polygon fill="#bfbfbf" stroke="black" points="0,-224.5 0,-243.5 116,-243.5 116,-224.5 0,-224.5"/>
<text text-anchor="middle" x="58" y="-231.5" font-family="Helvetica,sans-Serif" font-size="10.00">obdiidatamessage.h</text>
</a>
</g>
</g>
<!-- Node2 -->
<g id="node2" class="node">
<title>Node2</title>
<g id="a_node2"><a xlink:href="fitdatamessage_8h_source.html" target="_top" xlink:title=" ">
<polygon fill="none" stroke="black" points="7.5,-168.5 7.5,-187.5 108.5,-187.5 108.5,-168.5 7.5,-168.5"/>
<text text-anchor="middle" x="58" y="-175.5" font-family="Helvetica,sans-Serif" font-size="10.00">fitdatamessage.h</text>
</a>
</g>
</g>
<!-- Node1&#45;&gt;Node2 -->
<g id="edge1" class="edge">
<title>Node1&#45;&gt;Node2</title>
<path fill="none" stroke="midnightblue" d="M58,-224.08C58,-217.01 58,-206.86 58,-197.99"/>
<polygon fill="midnightblue" stroke="midnightblue" points="61.5,-197.75 58,-187.75 54.5,-197.75 61.5,-197.75"/>
</g>
<!-- Node3 -->
<g id="node3" class="node">
<title>Node3</title>
<g id="a_node3"><a xlink:href="QtFit__global_8h_source.html" target="_top" xlink:title=" ">
<polygon fill="none" stroke="black" points="16,-56.5 16,-75.5 100,-75.5 100,-56.5 16,-56.5"/>
<text text-anchor="middle" x="58" y="-63.5" font-family="Helvetica,sans-Serif" font-size="10.00">QtFit_global.h</text>
</a>
</g>
</g>
<!-- Node2&#45;&gt;Node3 -->
<g id="edge2" class="edge">
<title>Node2&#45;&gt;Node3</title>
<path fill="none" stroke="midnightblue" d="M56.26,-168.42C54.53,-159.4 51.99,-144.77 51,-132 49.8,-116.42 51.91,-98.8 54.12,-85.84"/>
<polygon fill="midnightblue" stroke="midnightblue" points="57.6,-86.29 56.01,-75.82 50.72,-84.99 57.6,-86.29"/>
</g>
<!-- Node5 -->
<g id="node5" class="node">
<title>Node5</title>
<g id="a_node5"><a xlink:href="types_8h.html" target="_top" xlink:title="Types defined by the ANT+ FIT SDK.">
<polygon fill="none" stroke="black" points="59.5,-112.5 59.5,-131.5 112.5,-131.5 112.5,-112.5 59.5,-112.5"/>
<text text-anchor="middle" x="86" y="-119.5" font-family="Helvetica,sans-Serif" font-size="10.00">types.h</text>
</a>
</g>
</g>
<!-- Node2&#45;&gt;Node5 -->
<g id="edge4" class="edge">
<title>Node2&#45;&gt;Node5</title>
<path fill="none" stroke="midnightblue" d="M62.62,-168.08C66.46,-160.69 72.02,-149.95 76.76,-140.81"/>
<polygon fill="midnightblue" stroke="midnightblue" points="79.97,-142.24 81.46,-131.75 73.75,-139.02 79.97,-142.24"/>
</g>
<!-- Node4 -->
<g id="node4" class="node">
<title>Node4</title>
<g id="a_node4"><a xlink:title=" ">
<polygon fill="none" stroke="#bfbfbf" points="28.5,-0.5 28.5,-19.5 87.5,-19.5 87.5,-0.5 28.5,-0.5"/>
<text text-anchor="middle" x="58" y="-7.5" font-family="Helvetica,sans-Serif" font-size="10.00">QtGlobal</text>
</a>
</g>
</g>
<!-- Node3&#45;&gt;Node4 -->
<g id="edge3" class="edge">
<title>Node3&#45;&gt;Node4</title>
<path fill="none" stroke="midnightblue" d="M58,-56.08C58,-49.01 58,-38.86 58,-29.99"/>
<polygon fill="midnightblue" stroke="midnightblue" points="61.5,-29.75 58,-19.75 54.5,-29.75 61.5,-29.75"/>
</g>
<!-- Node5&#45;&gt;Node3 -->
<g id="edge5" class="edge">
<title>Node5&#45;&gt;Node3</title>
<path fill="none" stroke="midnightblue" d="M81.38,-112.08C77.54,-104.69 71.98,-93.95 67.24,-84.81"/>
<polygon fill="midnightblue" stroke="midnightblue" points="70.25,-83.02 62.54,-75.75 64.03,-86.24 70.25,-83.02"/>
</g>
</g>
</svg>
