<?xml version="1.0" encoding="UTF-8" standalone="no"?>
<!DOCTYPE svg PUBLIC "-//W3C//DTD SVG 1.1//EN"
 "http://www.w3.org/Graphics/SVG/1.1/DTD/svg11.dtd">
<!-- Generated by graphviz version 2.43.0 (0)
 -->
<!-- Title: ohrsettingsmessage.cpp Pages: 1 -->
<svg width="405pt" height="308pt"
 viewBox="0.00 0.00 405.00 308.00" xmlns="http://www.w3.org/2000/svg" xmlns:xlink="http://www.w3.org/1999/xlink">
<g id="graph0" class="graph" transform="scale(1 1) rotate(0) translate(4 304)">
<title>ohrsettingsmessage.cpp</title>
<!-- Node1 -->
<g id="node1" class="node">
<title>Node1</title>
<g id="a_node1"><a xlink:title=" ">
<polygon fill="#bfbfbf" stroke="black" points="133.5,-280.5 133.5,-299.5 269.5,-299.5 269.5,-280.5 133.5,-280.5"/>
<text text-anchor="middle" x="201.5" y="-287.5" font-family="Helvetica,sans-Serif" font-size="10.00">ohrsettingsmessage.cpp</text>
</a>
</g>
</g>
<!-- Node2 -->
<g id="node2" class="node">
<title>Node2</title>
<g id="a_node2"><a xlink:href="ohrsettingsmessage_8h.html" target="_top" xlink:title=" ">
<polygon fill="none" stroke="black" points="0,-224.5 0,-243.5 125,-243.5 125,-224.5 0,-224.5"/>
<text text-anchor="middle" x="62.5" y="-231.5" font-family="Helvetica,sans-Serif" font-size="10.00">ohrsettingsmessage.h</text>
</a>
</g>
</g>
<!-- Node1&#45;&gt;Node2 -->
<g id="edge1" class="edge">
<title>Node1&#45;&gt;Node2</title>
<path fill="none" stroke="midnightblue" d="M179.48,-280.44C156.4,-271.48 119.94,-257.31 93.86,-247.18"/>
<polygon fill="midnightblue" stroke="midnightblue" points="95.01,-243.88 84.42,-243.52 92.48,-250.4 95.01,-243.88"/>
</g>
<!-- Node7 -->
<g id="node7" class="node">
<title>Node7</title>
<g id="a_node7"><a xlink:title=" ">
<polygon fill="none" stroke="#bfbfbf" points="119.5,-56.5 119.5,-75.5 175.5,-75.5 175.5,-56.5 119.5,-56.5"/>
<text text-anchor="middle" x="147.5" y="-63.5" font-family="Helvetica,sans-Serif" font-size="10.00">QDebug</text>
</a>
</g>
</g>
<!-- Node1&#45;&gt;Node7 -->
<g id="edge9" class="edge">
<title>Node1&#45;&gt;Node7</title>
<path fill="none" stroke="midnightblue" d="M194.26,-280.32C187.47,-271.68 177.62,-257.76 172.5,-244 152.06,-189.1 148.17,-118.94 147.54,-85.86"/>
<polygon fill="midnightblue" stroke="midnightblue" points="151.04,-85.76 147.43,-75.8 144.04,-85.83 151.04,-85.76"/>
</g>
<!-- Node8 -->
<g id="node8" class="node">
<title>Node8</title>
<g id="a_node8"><a xlink:title=" ">
<polygon fill="none" stroke="#bfbfbf" points="181.5,-224.5 181.5,-243.5 317.5,-243.5 317.5,-224.5 181.5,-224.5"/>
<text text-anchor="middle" x="249.5" y="-231.5" font-family="Helvetica,sans-Serif" font-size="10.00">ohrsettingsmessage_p.h</text>
</a>
</g>
</g>
<!-- Node1&#45;&gt;Node8 -->
<g id="edge8" class="edge">
<title>Node1&#45;&gt;Node8</title>
<path fill="none" stroke="midnightblue" d="M209.43,-280.08C216.35,-272.3 226.57,-260.8 234.95,-251.37"/>
<polygon fill="midnightblue" stroke="midnightblue" points="237.69,-253.55 241.72,-243.75 232.46,-248.9 237.69,-253.55"/>
</g>
<!-- Node9 -->
<g id="node9" class="node">
<title>Node9</title>
<g id="a_node9"><a xlink:title=" ">
<polygon fill="none" stroke="#bfbfbf" points="336,-224.5 336,-243.5 397,-243.5 397,-224.5 336,-224.5"/>
<text text-anchor="middle" x="366.5" y="-231.5" font-family="Helvetica,sans-Serif" font-size="10.00">QtEndian</text>
</a>
</g>
</g>
<!-- Node1&#45;&gt;Node9 -->
<g id="edge10" class="edge">
<title>Node1&#45;&gt;Node9</title>
<path fill="none" stroke="midnightblue" d="M227.64,-280.44C255.52,-271.32 299.85,-256.81 330.9,-246.65"/>
<polygon fill="midnightblue" stroke="midnightblue" points="332.06,-249.95 340.48,-243.52 329.88,-243.3 332.06,-249.95"/>
</g>
<!-- Node3 -->
<g id="node3" class="node">
<title>Node3</title>
<g id="a_node3"><a xlink:href="fitdatamessage_8h_source.html" target="_top" xlink:title=" ">
<polygon fill="none" stroke="black" points="12,-168.5 12,-187.5 113,-187.5 113,-168.5 12,-168.5"/>
<text text-anchor="middle" x="62.5" y="-175.5" font-family="Helvetica,sans-Serif" font-size="10.00">fitdatamessage.h</text>
</a>
</g>
</g>
<!-- Node2&#45;&gt;Node3 -->
<g id="edge2" class="edge">
<title>Node2&#45;&gt;Node3</title>
<path fill="none" stroke="midnightblue" d="M62.5,-224.08C62.5,-217.01 62.5,-206.86 62.5,-197.99"/>
<polygon fill="midnightblue" stroke="midnightblue" points="66,-197.75 62.5,-187.75 59,-197.75 66,-197.75"/>
</g>
<!-- Node4 -->
<g id="node4" class="node">
<title>Node4</title>
<g id="a_node4"><a xlink:href="QtFit__global_8h_source.html" target="_top" xlink:title=" ">
<polygon fill="none" stroke="black" points="12.5,-56.5 12.5,-75.5 96.5,-75.5 96.5,-56.5 12.5,-56.5"/>
<text text-anchor="middle" x="54.5" y="-63.5" font-family="Helvetica,sans-Serif" font-size="10.00">QtFit_global.h</text>
</a>
</g>
</g>
<!-- Node3&#45;&gt;Node4 -->
<g id="edge3" class="edge">
<title>Node3&#45;&gt;Node4</title>
<path fill="none" stroke="midnightblue" d="M61.87,-168.37C60.58,-150.62 57.6,-109.67 55.85,-85.6"/>
<polygon fill="midnightblue" stroke="midnightblue" points="59.34,-85.31 55.12,-75.59 52.36,-85.82 59.34,-85.31"/>
</g>
<!-- Node6 -->
<g id="node6" class="node">
<title>Node6</title>
<g id="a_node6"><a xlink:href="types_8h.html" target="_top" xlink:title="Types defined by the ANT+ FIT SDK.">
<polygon fill="none" stroke="black" points="72,-112.5 72,-131.5 125,-131.5 125,-112.5 72,-112.5"/>
<text text-anchor="middle" x="98.5" y="-119.5" font-family="Helvetica,sans-Serif" font-size="10.00">types.h</text>
</a>
</g>
</g>
<!-- Node3&#45;&gt;Node6 -->
<g id="edge5" class="edge">
<title>Node3&#45;&gt;Node6</title>
<path fill="none" stroke="midnightblue" d="M68.44,-168.08C73.48,-160.53 80.84,-149.49 87.01,-140.23"/>
<polygon fill="midnightblue" stroke="midnightblue" points="90.03,-142.01 92.67,-131.75 84.21,-138.13 90.03,-142.01"/>
</g>
<!-- Node5 -->
<g id="node5" class="node">
<title>Node5</title>
<g id="a_node5"><a xlink:title=" ">
<polygon fill="none" stroke="#bfbfbf" points="25,-0.5 25,-19.5 84,-19.5 84,-0.5 25,-0.5"/>
<text text-anchor="middle" x="54.5" y="-7.5" font-family="Helvetica,sans-Serif" font-size="10.00">QtGlobal</text>
</a>
</g>
</g>
<!-- Node4&#45;&gt;Node5 -->
<g id="edge4" class="edge">
<title>Node4&#45;&gt;Node5</title>
<path fill="none" stroke="midnightblue" d="M54.5,-56.08C54.5,-49.01 54.5,-38.86 54.5,-29.99"/>
<polygon fill="midnightblue" stroke="midnightblue" points="58,-29.75 54.5,-19.75 51,-29.75 58,-29.75"/>
</g>
<!-- Node6&#45;&gt;Node4 -->
<g id="edge6" class="edge">
<title>Node6&#45;&gt;Node4</title>
<path fill="none" stroke="midnightblue" d="M91.23,-112.08C84.96,-104.38 75.71,-93.03 68.07,-83.65"/>
<polygon fill="midnightblue" stroke="midnightblue" points="70.66,-81.29 61.63,-75.75 65.23,-85.71 70.66,-81.29"/>
</g>
<!-- Node6&#45;&gt;Node7 -->
<g id="edge7" class="edge">
<title>Node6&#45;&gt;Node7</title>
<path fill="none" stroke="midnightblue" d="M106.59,-112.08C113.66,-104.3 124.09,-92.8 132.65,-83.37"/>
<polygon fill="midnightblue" stroke="midnightblue" points="135.43,-85.51 139.56,-75.75 130.25,-80.8 135.43,-85.51"/>
</g>
</g>
</svg>
