<?xml version="1.0" encoding="UTF-8" standalone="no"?>
<!DOCTYPE svg PUBLIC "-//W3C//DTD SVG 1.1//EN"
 "http://www.w3.org/Graphics/SVG/1.1/DTD/svg11.dtd">
<!-- Generated by graphviz version 2.43.0 (0)
 -->
<!-- Title: onedsensorcalibrationmessage.cpp Pages: 1 -->
<svg width="511pt" height="308pt"
 viewBox="0.00 0.00 510.50 308.00" xmlns="http://www.w3.org/2000/svg" xmlns:xlink="http://www.w3.org/1999/xlink">
<g id="graph0" class="graph" transform="scale(1 1) rotate(0) translate(4 304)">
<title>onedsensorcalibrationmessage.cpp</title>
<!-- Node1 -->
<g id="node1" class="node">
<title>Node1</title>
<g id="a_node1"><a xlink:title=" ">
<polygon fill="#bfbfbf" stroke="black" points="172.5,-280.5 172.5,-299.5 361.5,-299.5 361.5,-280.5 172.5,-280.5"/>
<text text-anchor="middle" x="267" y="-287.5" font-family="Helvetica,sans-Serif" font-size="10.00">onedsensorcalibrationmessage.cpp</text>
</a>
</g>
</g>
<!-- Node2 -->
<g id="node2" class="node">
<title>Node2</title>
<g id="a_node2"><a xlink:href="onedsensorcalibrationmessage_8h.html" target="_top" xlink:title=" ">
<polygon fill="none" stroke="black" points="0,-224.5 0,-243.5 178,-243.5 178,-224.5 0,-224.5"/>
<text text-anchor="middle" x="89" y="-231.5" font-family="Helvetica,sans-Serif" font-size="10.00">onedsensorcalibrationmessage.h</text>
</a>
</g>
</g>
<!-- Node1&#45;&gt;Node2 -->
<g id="edge1" class="edge">
<title>Node1&#45;&gt;Node2</title>
<path fill="none" stroke="midnightblue" d="M238.8,-280.44C208.59,-271.28 160.49,-256.69 126.97,-246.52"/>
<polygon fill="midnightblue" stroke="midnightblue" points="127.66,-243.07 117.07,-243.52 125.63,-249.77 127.66,-243.07"/>
</g>
<!-- Node7 -->
<g id="node7" class="node">
<title>Node7</title>
<g id="a_node7"><a xlink:title=" ">
<polygon fill="none" stroke="#bfbfbf" points="171,-56.5 171,-75.5 227,-75.5 227,-56.5 171,-56.5"/>
<text text-anchor="middle" x="199" y="-63.5" font-family="Helvetica,sans-Serif" font-size="10.00">QDebug</text>
</a>
</g>
</g>
<!-- Node1&#45;&gt;Node7 -->
<g id="edge9" class="edge">
<title>Node1&#45;&gt;Node7</title>
<path fill="none" stroke="midnightblue" d="M256,-280.26C246.42,-271.99 233.01,-258.69 226,-244 200.62,-190.8 198.02,-119.29 198.39,-85.79"/>
<polygon fill="midnightblue" stroke="midnightblue" points="201.89,-85.69 198.6,-75.62 194.89,-85.54 201.89,-85.69"/>
</g>
<!-- Node8 -->
<g id="node8" class="node">
<title>Node8</title>
<g id="a_node8"><a xlink:title=" ">
<polygon fill="none" stroke="#bfbfbf" points="234.5,-224.5 234.5,-243.5 423.5,-243.5 423.5,-224.5 234.5,-224.5"/>
<text text-anchor="middle" x="329" y="-231.5" font-family="Helvetica,sans-Serif" font-size="10.00">onedsensorcalibrationmessage_p.h</text>
</a>
</g>
</g>
<!-- Node1&#45;&gt;Node8 -->
<g id="edge8" class="edge">
<title>Node1&#45;&gt;Node8</title>
<path fill="none" stroke="midnightblue" d="M276.96,-280.32C286.13,-272.34 299.94,-260.31 311.03,-250.65"/>
<polygon fill="midnightblue" stroke="midnightblue" points="313.62,-253.04 318.86,-243.83 309.02,-247.76 313.62,-253.04"/>
</g>
<!-- Node9 -->
<g id="node9" class="node">
<title>Node9</title>
<g id="a_node9"><a xlink:title=" ">
<polygon fill="none" stroke="#bfbfbf" points="441.5,-224.5 441.5,-243.5 502.5,-243.5 502.5,-224.5 441.5,-224.5"/>
<text text-anchor="middle" x="472" y="-231.5" font-family="Helvetica,sans-Serif" font-size="10.00">QtEndian</text>
</a>
</g>
</g>
<!-- Node1&#45;&gt;Node9 -->
<g id="edge10" class="edge">
<title>Node1&#45;&gt;Node9</title>
<path fill="none" stroke="midnightblue" d="M299.48,-280.44C335.24,-271.03 392.77,-255.87 431.45,-245.68"/>
<polygon fill="midnightblue" stroke="midnightblue" points="432.56,-249.01 441.34,-243.08 430.78,-242.24 432.56,-249.01"/>
</g>
<!-- Node3 -->
<g id="node3" class="node">
<title>Node3</title>
<g id="a_node3"><a xlink:href="fitdatamessage_8h_source.html" target="_top" xlink:title=" ">
<polygon fill="none" stroke="black" points="42.5,-168.5 42.5,-187.5 143.5,-187.5 143.5,-168.5 42.5,-168.5"/>
<text text-anchor="middle" x="93" y="-175.5" font-family="Helvetica,sans-Serif" font-size="10.00">fitdatamessage.h</text>
</a>
</g>
</g>
<!-- Node2&#45;&gt;Node3 -->
<g id="edge2" class="edge">
<title>Node2&#45;&gt;Node3</title>
<path fill="none" stroke="midnightblue" d="M89.66,-224.08C90.18,-217.01 90.94,-206.86 91.59,-197.99"/>
<polygon fill="midnightblue" stroke="midnightblue" points="95.1,-197.98 92.35,-187.75 88.12,-197.47 95.1,-197.98"/>
</g>
<!-- Node4 -->
<g id="node4" class="node">
<title>Node4</title>
<g id="a_node4"><a xlink:href="QtFit__global_8h_source.html" target="_top" xlink:title=" ">
<polygon fill="none" stroke="black" points="62,-56.5 62,-75.5 146,-75.5 146,-56.5 62,-56.5"/>
<text text-anchor="middle" x="104" y="-63.5" font-family="Helvetica,sans-Serif" font-size="10.00">QtFit_global.h</text>
</a>
</g>
</g>
<!-- Node3&#45;&gt;Node4 -->
<g id="edge3" class="edge">
<title>Node3&#45;&gt;Node4</title>
<path fill="none" stroke="midnightblue" d="M93.86,-168.37C95.64,-150.62 99.73,-109.67 102.14,-85.6"/>
<polygon fill="midnightblue" stroke="midnightblue" points="105.63,-85.89 103.14,-75.59 98.66,-85.19 105.63,-85.89"/>
</g>
<!-- Node6 -->
<g id="node6" class="node">
<title>Node6</title>
<g id="a_node6"><a xlink:href="types_8h.html" target="_top" xlink:title="Types defined by the ANT+ FIT SDK.">
<polygon fill="none" stroke="black" points="121.5,-112.5 121.5,-131.5 174.5,-131.5 174.5,-112.5 121.5,-112.5"/>
<text text-anchor="middle" x="148" y="-119.5" font-family="Helvetica,sans-Serif" font-size="10.00">types.h</text>
</a>
</g>
</g>
<!-- Node3&#45;&gt;Node6 -->
<g id="edge5" class="edge">
<title>Node3&#45;&gt;Node6</title>
<path fill="none" stroke="midnightblue" d="M102.08,-168.08C110.17,-160.14 122.2,-148.34 131.91,-138.8"/>
<polygon fill="midnightblue" stroke="midnightblue" points="134.4,-141.25 139.09,-131.75 129.5,-136.26 134.4,-141.25"/>
</g>
<!-- Node5 -->
<g id="node5" class="node">
<title>Node5</title>
<g id="a_node5"><a xlink:title=" ">
<polygon fill="none" stroke="#bfbfbf" points="74.5,-0.5 74.5,-19.5 133.5,-19.5 133.5,-0.5 74.5,-0.5"/>
<text text-anchor="middle" x="104" y="-7.5" font-family="Helvetica,sans-Serif" font-size="10.00">QtGlobal</text>
</a>
</g>
</g>
<!-- Node4&#45;&gt;Node5 -->
<g id="edge4" class="edge">
<title>Node4&#45;&gt;Node5</title>
<path fill="none" stroke="midnightblue" d="M104,-56.08C104,-49.01 104,-38.86 104,-29.99"/>
<polygon fill="midnightblue" stroke="midnightblue" points="107.5,-29.75 104,-19.75 100.5,-29.75 107.5,-29.75"/>
</g>
<!-- Node6&#45;&gt;Node4 -->
<g id="edge6" class="edge">
<title>Node6&#45;&gt;Node4</title>
<path fill="none" stroke="midnightblue" d="M140.73,-112.08C134.46,-104.38 125.21,-93.03 117.57,-83.65"/>
<polygon fill="midnightblue" stroke="midnightblue" points="120.16,-81.29 111.13,-75.75 114.73,-85.71 120.16,-81.29"/>
</g>
<!-- Node6&#45;&gt;Node7 -->
<g id="edge7" class="edge">
<title>Node6&#45;&gt;Node7</title>
<path fill="none" stroke="midnightblue" d="M156.42,-112.08C163.85,-104.22 174.85,-92.57 183.81,-83.08"/>
<polygon fill="midnightblue" stroke="midnightblue" points="186.41,-85.42 190.74,-75.75 181.32,-80.62 186.41,-85.42"/>
</g>
</g>
</svg>
