<?xml version="1.0" encoding="UTF-8" standalone="no"?>
<!DOCTYPE svg PUBLIC "-//W3C//DTD SVG 1.1//EN"
 "http://www.w3.org/Graphics/SVG/1.1/DTD/svg11.dtd">
<!-- Generated by graphviz version 2.43.0 (0)
 -->
<!-- Title: onedsensorcalibrationmessage.cpp Pages: 1 -->
<svg width="394pt" height="308pt"
 viewBox="0.00 0.00 393.50 308.00" xmlns="http://www.w3.org/2000/svg" xmlns:xlink="http://www.w3.org/1999/xlink">
<g id="graph0" class="graph" transform="scale(1 1) rotate(0) translate(4 304)">
<title>onedsensorcalibrationmessage.cpp</title>
<!-- Node1 -->
<g id="node1" class="node">
<title>Node1</title>
<g id="a_node1"><a xlink:title=" ">
<polygon fill="#bfbfbf" stroke="black" points="95.5,-280.5 95.5,-299.5 284.5,-299.5 284.5,-280.5 95.5,-280.5"/>
<text text-anchor="middle" x="190" y="-287.5" font-family="Helvetica,sans-Serif" font-size="10.00">onedsensorcalibrationmessage.cpp</text>
</a>
</g>
</g>
<!-- Node2 -->
<g id="node2" class="node">
<title>Node2</title>
<g id="a_node2"><a xlink:href="onedsensorcalibrationmessage_8h.html" target="_top" xlink:title=" ">
<polygon fill="none" stroke="black" points="0,-224.5 0,-243.5 178,-243.5 178,-224.5 0,-224.5"/>
<text text-anchor="middle" x="89" y="-231.5" font-family="Helvetica,sans-Serif" font-size="10.00">onedsensorcalibrationmessage.h</text>
</a>
</g>
</g>
<!-- Node1&#45;&gt;Node2 -->
<g id="edge1" class="edge">
<title>Node1&#45;&gt;Node2</title>
<path fill="none" stroke="midnightblue" d="M173.77,-280.32C157.65,-271.7 132.7,-258.36 114.04,-248.39"/>
<polygon fill="midnightblue" stroke="midnightblue" points="115.66,-245.28 105.19,-243.65 112.36,-251.46 115.66,-245.28"/>
</g>
<!-- Node7 -->
<g id="node7" class="node">
<title>Node7</title>
<g id="a_node7"><a xlink:title=" ">
<polygon fill="none" stroke="#bfbfbf" points="196.5,-224.5 196.5,-243.5 385.5,-243.5 385.5,-224.5 196.5,-224.5"/>
<text text-anchor="middle" x="291" y="-231.5" font-family="Helvetica,sans-Serif" font-size="10.00">onedsensorcalibrationmessage_p.h</text>
</a>
</g>
</g>
<!-- Node1&#45;&gt;Node7 -->
<g id="edge7" class="edge">
<title>Node1&#45;&gt;Node7</title>
<path fill="none" stroke="midnightblue" d="M206.23,-280.32C222.35,-271.7 247.3,-258.36 265.96,-248.39"/>
<polygon fill="midnightblue" stroke="midnightblue" points="267.64,-251.46 274.81,-243.65 264.34,-245.28 267.64,-251.46"/>
</g>
<!-- Node3 -->
<g id="node3" class="node">
<title>Node3</title>
<g id="a_node3"><a xlink:href="fitdatamessage_8h_source.html" target="_top" xlink:title=" ">
<polygon fill="none" stroke="black" points="38.5,-168.5 38.5,-187.5 139.5,-187.5 139.5,-168.5 38.5,-168.5"/>
<text text-anchor="middle" x="89" y="-175.5" font-family="Helvetica,sans-Serif" font-size="10.00">fitdatamessage.h</text>
</a>
</g>
</g>
<!-- Node2&#45;&gt;Node3 -->
<g id="edge2" class="edge">
<title>Node2&#45;&gt;Node3</title>
<path fill="none" stroke="midnightblue" d="M89,-224.08C89,-217.01 89,-206.86 89,-197.99"/>
<polygon fill="midnightblue" stroke="midnightblue" points="92.5,-197.75 89,-187.75 85.5,-197.75 92.5,-197.75"/>
</g>
<!-- Node4 -->
<g id="node4" class="node">
<title>Node4</title>
<g id="a_node4"><a xlink:href="QtFit__global_8h_source.html" target="_top" xlink:title=" ">
<polygon fill="none" stroke="black" points="47,-56.5 47,-75.5 131,-75.5 131,-56.5 47,-56.5"/>
<text text-anchor="middle" x="89" y="-63.5" font-family="Helvetica,sans-Serif" font-size="10.00">QtFit_global.h</text>
</a>
</g>
</g>
<!-- Node3&#45;&gt;Node4 -->
<g id="edge3" class="edge">
<title>Node3&#45;&gt;Node4</title>
<path fill="none" stroke="midnightblue" d="M87.26,-168.42C85.53,-159.4 82.99,-144.77 82,-132 80.8,-116.42 82.91,-98.8 85.12,-85.84"/>
<polygon fill="midnightblue" stroke="midnightblue" points="88.6,-86.29 87.01,-75.82 81.72,-84.99 88.6,-86.29"/>
</g>
<!-- Node6 -->
<g id="node6" class="node">
<title>Node6</title>
<g id="a_node6"><a xlink:href="types_8h.html" target="_top" xlink:title="Types defined by the ANT+ FIT SDK.">
<polygon fill="none" stroke="black" points="90.5,-112.5 90.5,-131.5 143.5,-131.5 143.5,-112.5 90.5,-112.5"/>
<text text-anchor="middle" x="117" y="-119.5" font-family="Helvetica,sans-Serif" font-size="10.00">types.h</text>
</a>
</g>
</g>
<!-- Node3&#45;&gt;Node6 -->
<g id="edge5" class="edge">
<title>Node3&#45;&gt;Node6</title>
<path fill="none" stroke="midnightblue" d="M93.62,-168.08C97.46,-160.69 103.02,-149.95 107.76,-140.81"/>
<polygon fill="midnightblue" stroke="midnightblue" points="110.97,-142.24 112.46,-131.75 104.75,-139.02 110.97,-142.24"/>
</g>
<!-- Node5 -->
<g id="node5" class="node">
<title>Node5</title>
<g id="a_node5"><a xlink:title=" ">
<polygon fill="none" stroke="#bfbfbf" points="59.5,-0.5 59.5,-19.5 118.5,-19.5 118.5,-0.5 59.5,-0.5"/>
<text text-anchor="middle" x="89" y="-7.5" font-family="Helvetica,sans-Serif" font-size="10.00">QtGlobal</text>
</a>
</g>
</g>
<!-- Node4&#45;&gt;Node5 -->
<g id="edge4" class="edge">
<title>Node4&#45;&gt;Node5</title>
<path fill="none" stroke="midnightblue" d="M89,-56.08C89,-49.01 89,-38.86 89,-29.99"/>
<polygon fill="midnightblue" stroke="midnightblue" points="92.5,-29.75 89,-19.75 85.5,-29.75 92.5,-29.75"/>
</g>
<!-- Node6&#45;&gt;Node4 -->
<g id="edge6" class="edge">
<title>Node6&#45;&gt;Node4</title>
<path fill="none" stroke="midnightblue" d="M112.38,-112.08C108.54,-104.69 102.98,-93.95 98.24,-84.81"/>
<polygon fill="midnightblue" stroke="midnightblue" points="101.25,-83.02 93.54,-75.75 95.03,-86.24 101.25,-83.02"/>
</g>
</g>
</svg>
