<?xml version="1.0" encoding="UTF-8" standalone="no"?>
<!DOCTYPE svg PUBLIC "-//W3C//DTD SVG 1.1//EN"
 "http://www.w3.org/Graphics/SVG/1.1/DTD/svg11.dtd">
<!-- Generated by graphviz version 2.43.0 (0)
 -->
<!-- Title: segmentleaderboardentrymessage.cpp Pages: 1 -->
<svg width="432pt" height="308pt"
 viewBox="0.00 0.00 431.50 308.00" xmlns="http://www.w3.org/2000/svg" xmlns:xlink="http://www.w3.org/1999/xlink">
<g id="graph0" class="graph" transform="scale(1 1) rotate(0) translate(4 304)">
<title>segmentleaderboardentrymessage.cpp</title>
<!-- Node1 -->
<g id="node1" class="node">
<title>Node1</title>
<g id="a_node1"><a xlink:title=" ">
<polygon fill="#bfbfbf" stroke="black" points="104.5,-280.5 104.5,-299.5 312.5,-299.5 312.5,-280.5 104.5,-280.5"/>
<text text-anchor="middle" x="208.5" y="-287.5" font-family="Helvetica,sans-Serif" font-size="10.00">segmentleaderboardentrymessage.cpp</text>
</a>
</g>
</g>
<!-- Node2 -->
<g id="node2" class="node">
<title>Node2</title>
<g id="a_node2"><a xlink:href="segmentleaderboardentrymessage_8h.html" target="_top" xlink:title=" ">
<polygon fill="none" stroke="black" points="0,-224.5 0,-243.5 197,-243.5 197,-224.5 0,-224.5"/>
<text text-anchor="middle" x="98.5" y="-231.5" font-family="Helvetica,sans-Serif" font-size="10.00">segmentleaderboardentrymessage.h</text>
</a>
</g>
</g>
<!-- Node1&#45;&gt;Node2 -->
<g id="edge1" class="edge">
<title>Node1&#45;&gt;Node2</title>
<path fill="none" stroke="midnightblue" d="M190.83,-280.32C173.11,-271.62 145.6,-258.12 125.21,-248.11"/>
<polygon fill="midnightblue" stroke="midnightblue" points="126.65,-244.92 116.13,-243.65 123.56,-251.2 126.65,-244.92"/>
</g>
<!-- Node7 -->
<g id="node7" class="node">
<title>Node7</title>
<g id="a_node7"><a xlink:title=" ">
<polygon fill="none" stroke="#bfbfbf" points="215.5,-224.5 215.5,-243.5 423.5,-243.5 423.5,-224.5 215.5,-224.5"/>
<text text-anchor="middle" x="319.5" y="-231.5" font-family="Helvetica,sans-Serif" font-size="10.00">segmentleaderboardentrymessage_p.h</text>
</a>
</g>
</g>
<!-- Node1&#45;&gt;Node7 -->
<g id="edge7" class="edge">
<title>Node1&#45;&gt;Node7</title>
<path fill="none" stroke="midnightblue" d="M226.33,-280.32C244.22,-271.62 271.98,-258.12 292.55,-248.11"/>
<polygon fill="midnightblue" stroke="midnightblue" points="294.25,-251.18 301.71,-243.65 291.19,-244.88 294.25,-251.18"/>
</g>
<!-- Node3 -->
<g id="node3" class="node">
<title>Node3</title>
<g id="a_node3"><a xlink:href="fitdatamessage_8h_source.html" target="_top" xlink:title=" ">
<polygon fill="none" stroke="black" points="48,-168.5 48,-187.5 149,-187.5 149,-168.5 48,-168.5"/>
<text text-anchor="middle" x="98.5" y="-175.5" font-family="Helvetica,sans-Serif" font-size="10.00">fitdatamessage.h</text>
</a>
</g>
</g>
<!-- Node2&#45;&gt;Node3 -->
<g id="edge2" class="edge">
<title>Node2&#45;&gt;Node3</title>
<path fill="none" stroke="midnightblue" d="M98.5,-224.08C98.5,-217.01 98.5,-206.86 98.5,-197.99"/>
<polygon fill="midnightblue" stroke="midnightblue" points="102,-197.75 98.5,-187.75 95,-197.75 102,-197.75"/>
</g>
<!-- Node4 -->
<g id="node4" class="node">
<title>Node4</title>
<g id="a_node4"><a xlink:href="QtFit__global_8h_source.html" target="_top" xlink:title=" ">
<polygon fill="none" stroke="black" points="56.5,-56.5 56.5,-75.5 140.5,-75.5 140.5,-56.5 56.5,-56.5"/>
<text text-anchor="middle" x="98.5" y="-63.5" font-family="Helvetica,sans-Serif" font-size="10.00">QtFit_global.h</text>
</a>
</g>
</g>
<!-- Node3&#45;&gt;Node4 -->
<g id="edge3" class="edge">
<title>Node3&#45;&gt;Node4</title>
<path fill="none" stroke="midnightblue" d="M96.76,-168.42C95.03,-159.4 92.49,-144.77 91.5,-132 90.3,-116.42 92.41,-98.8 94.62,-85.84"/>
<polygon fill="midnightblue" stroke="midnightblue" points="98.1,-86.29 96.51,-75.82 91.22,-84.99 98.1,-86.29"/>
</g>
<!-- Node6 -->
<g id="node6" class="node">
<title>Node6</title>
<g id="a_node6"><a xlink:href="types_8h.html" target="_top" xlink:title="Types defined by the ANT+ FIT SDK.">
<polygon fill="none" stroke="black" points="100,-112.5 100,-131.5 153,-131.5 153,-112.5 100,-112.5"/>
<text text-anchor="middle" x="126.5" y="-119.5" font-family="Helvetica,sans-Serif" font-size="10.00">types.h</text>
</a>
</g>
</g>
<!-- Node3&#45;&gt;Node6 -->
<g id="edge5" class="edge">
<title>Node3&#45;&gt;Node6</title>
<path fill="none" stroke="midnightblue" d="M103.12,-168.08C106.96,-160.69 112.52,-149.95 117.26,-140.81"/>
<polygon fill="midnightblue" stroke="midnightblue" points="120.47,-142.24 121.96,-131.75 114.25,-139.02 120.47,-142.24"/>
</g>
<!-- Node5 -->
<g id="node5" class="node">
<title>Node5</title>
<g id="a_node5"><a xlink:title=" ">
<polygon fill="none" stroke="#bfbfbf" points="69,-0.5 69,-19.5 128,-19.5 128,-0.5 69,-0.5"/>
<text text-anchor="middle" x="98.5" y="-7.5" font-family="Helvetica,sans-Serif" font-size="10.00">QtGlobal</text>
</a>
</g>
</g>
<!-- Node4&#45;&gt;Node5 -->
<g id="edge4" class="edge">
<title>Node4&#45;&gt;Node5</title>
<path fill="none" stroke="midnightblue" d="M98.5,-56.08C98.5,-49.01 98.5,-38.86 98.5,-29.99"/>
<polygon fill="midnightblue" stroke="midnightblue" points="102,-29.75 98.5,-19.75 95,-29.75 102,-29.75"/>
</g>
<!-- Node6&#45;&gt;Node4 -->
<g id="edge6" class="edge">
<title>Node6&#45;&gt;Node4</title>
<path fill="none" stroke="midnightblue" d="M121.88,-112.08C118.04,-104.69 112.48,-93.95 107.74,-84.81"/>
<polygon fill="midnightblue" stroke="midnightblue" points="110.75,-83.02 103.04,-75.75 104.53,-86.24 110.75,-83.02"/>
</g>
</g>
</svg>
