<?xml version="1.0" encoding="UTF-8" standalone="no"?>
<!DOCTYPE svg PUBLIC "-//W3C//DTD SVG 1.1//EN"
 "http://www.w3.org/Graphics/SVG/1.1/DTD/svg11.dtd">
<!-- Generated by graphviz version 2.43.0 (0)
 -->
<!-- Title: segmentlapmessage.cpp Pages: 1 -->
<svg width="411pt" height="308pt"
 viewBox="0.00 0.00 410.50 308.00" xmlns="http://www.w3.org/2000/svg" xmlns:xlink="http://www.w3.org/1999/xlink">
<g id="graph0" class="graph" transform="scale(1 1) rotate(0) translate(4 304)">
<title>segmentlapmessage.cpp</title>
<!-- Node1 -->
<g id="node1" class="node">
<title>Node1</title>
<g id="a_node1"><a xlink:title=" ">
<polygon fill="#bfbfbf" stroke="black" points="135.5,-280.5 135.5,-299.5 274.5,-299.5 274.5,-280.5 135.5,-280.5"/>
<text text-anchor="middle" x="205" y="-287.5" font-family="Helvetica,sans-Serif" font-size="10.00">segmentlapmessage.cpp</text>
</a>
</g>
</g>
<!-- Node2 -->
<g id="node2" class="node">
<title>Node2</title>
<g id="a_node2"><a xlink:href="segmentlapmessage_8h.html" target="_top" xlink:title=" ">
<polygon fill="none" stroke="black" points="0,-224.5 0,-243.5 128,-243.5 128,-224.5 0,-224.5"/>
<text text-anchor="middle" x="64" y="-231.5" font-family="Helvetica,sans-Serif" font-size="10.00">segmentlapmessage.h</text>
</a>
</g>
</g>
<!-- Node1&#45;&gt;Node2 -->
<g id="edge1" class="edge">
<title>Node1&#45;&gt;Node2</title>
<path fill="none" stroke="midnightblue" d="M182.66,-280.44C159.25,-271.48 122.26,-257.31 95.81,-247.18"/>
<polygon fill="midnightblue" stroke="midnightblue" points="96.83,-243.82 86.24,-243.52 94.32,-250.36 96.83,-243.82"/>
</g>
<!-- Node7 -->
<g id="node7" class="node">
<title>Node7</title>
<g id="a_node7"><a xlink:title=" ">
<polygon fill="none" stroke="#bfbfbf" points="122,-56.5 122,-75.5 178,-75.5 178,-56.5 122,-56.5"/>
<text text-anchor="middle" x="150" y="-63.5" font-family="Helvetica,sans-Serif" font-size="10.00">QDebug</text>
</a>
</g>
</g>
<!-- Node1&#45;&gt;Node7 -->
<g id="edge9" class="edge">
<title>Node1&#45;&gt;Node7</title>
<path fill="none" stroke="midnightblue" d="M197.77,-280.31C191,-271.67 181.16,-257.75 176,-244 155.4,-189.12 151.04,-118.95 150.17,-85.87"/>
<polygon fill="midnightblue" stroke="midnightblue" points="153.67,-85.73 149.99,-75.8 146.67,-85.86 153.67,-85.73"/>
</g>
<!-- Node8 -->
<g id="node8" class="node">
<title>Node8</title>
<g id="a_node8"><a xlink:title=" ">
<polygon fill="none" stroke="#bfbfbf" points="184.5,-224.5 184.5,-243.5 323.5,-243.5 323.5,-224.5 184.5,-224.5"/>
<text text-anchor="middle" x="254" y="-231.5" font-family="Helvetica,sans-Serif" font-size="10.00">segmentlapmessage_p.h</text>
</a>
</g>
</g>
<!-- Node1&#45;&gt;Node8 -->
<g id="edge8" class="edge">
<title>Node1&#45;&gt;Node8</title>
<path fill="none" stroke="midnightblue" d="M213.09,-280.08C220.16,-272.3 230.59,-260.8 239.15,-251.37"/>
<polygon fill="midnightblue" stroke="midnightblue" points="241.93,-253.51 246.06,-243.75 236.75,-248.8 241.93,-253.51"/>
</g>
<!-- Node9 -->
<g id="node9" class="node">
<title>Node9</title>
<g id="a_node9"><a xlink:title=" ">
<polygon fill="none" stroke="#bfbfbf" points="341.5,-224.5 341.5,-243.5 402.5,-243.5 402.5,-224.5 341.5,-224.5"/>
<text text-anchor="middle" x="372" y="-231.5" font-family="Helvetica,sans-Serif" font-size="10.00">QtEndian</text>
</a>
</g>
</g>
<!-- Node1&#45;&gt;Node9 -->
<g id="edge10" class="edge">
<title>Node1&#45;&gt;Node9</title>
<path fill="none" stroke="midnightblue" d="M231.46,-280.44C259.68,-271.32 304.54,-256.81 335.97,-246.65"/>
<polygon fill="midnightblue" stroke="midnightblue" points="337.22,-249.92 345.66,-243.52 335.07,-243.26 337.22,-249.92"/>
</g>
<!-- Node3 -->
<g id="node3" class="node">
<title>Node3</title>
<g id="a_node3"><a xlink:href="fitdatamessage_8h_source.html" target="_top" xlink:title=" ">
<polygon fill="none" stroke="black" points="13.5,-168.5 13.5,-187.5 114.5,-187.5 114.5,-168.5 13.5,-168.5"/>
<text text-anchor="middle" x="64" y="-175.5" font-family="Helvetica,sans-Serif" font-size="10.00">fitdatamessage.h</text>
</a>
</g>
</g>
<!-- Node2&#45;&gt;Node3 -->
<g id="edge2" class="edge">
<title>Node2&#45;&gt;Node3</title>
<path fill="none" stroke="midnightblue" d="M64,-224.08C64,-217.01 64,-206.86 64,-197.99"/>
<polygon fill="midnightblue" stroke="midnightblue" points="67.5,-197.75 64,-187.75 60.5,-197.75 67.5,-197.75"/>
</g>
<!-- Node4 -->
<g id="node4" class="node">
<title>Node4</title>
<g id="a_node4"><a xlink:href="QtFit__global_8h_source.html" target="_top" xlink:title=" ">
<polygon fill="none" stroke="black" points="15,-56.5 15,-75.5 99,-75.5 99,-56.5 15,-56.5"/>
<text text-anchor="middle" x="57" y="-63.5" font-family="Helvetica,sans-Serif" font-size="10.00">QtFit_global.h</text>
</a>
</g>
</g>
<!-- Node3&#45;&gt;Node4 -->
<g id="edge3" class="edge">
<title>Node3&#45;&gt;Node4</title>
<path fill="none" stroke="midnightblue" d="M63.45,-168.37C62.32,-150.62 59.72,-109.67 58.18,-85.6"/>
<polygon fill="midnightblue" stroke="midnightblue" points="61.67,-85.35 57.55,-75.59 54.69,-85.79 61.67,-85.35"/>
</g>
<!-- Node6 -->
<g id="node6" class="node">
<title>Node6</title>
<g id="a_node6"><a xlink:href="types_8h.html" target="_top" xlink:title="Types defined by the ANT+ FIT SDK.">
<polygon fill="none" stroke="black" points="74.5,-112.5 74.5,-131.5 127.5,-131.5 127.5,-112.5 74.5,-112.5"/>
<text text-anchor="middle" x="101" y="-119.5" font-family="Helvetica,sans-Serif" font-size="10.00">types.h</text>
</a>
</g>
</g>
<!-- Node3&#45;&gt;Node6 -->
<g id="edge5" class="edge">
<title>Node3&#45;&gt;Node6</title>
<path fill="none" stroke="midnightblue" d="M70.11,-168.08C75.28,-160.53 82.85,-149.49 89.19,-140.23"/>
<polygon fill="midnightblue" stroke="midnightblue" points="92.24,-141.98 95,-131.75 86.46,-138.02 92.24,-141.98"/>
</g>
<!-- Node5 -->
<g id="node5" class="node">
<title>Node5</title>
<g id="a_node5"><a xlink:title=" ">
<polygon fill="none" stroke="#bfbfbf" points="27.5,-0.5 27.5,-19.5 86.5,-19.5 86.5,-0.5 27.5,-0.5"/>
<text text-anchor="middle" x="57" y="-7.5" font-family="Helvetica,sans-Serif" font-size="10.00">QtGlobal</text>
</a>
</g>
</g>
<!-- Node4&#45;&gt;Node5 -->
<g id="edge4" class="edge">
<title>Node4&#45;&gt;Node5</title>
<path fill="none" stroke="midnightblue" d="M57,-56.08C57,-49.01 57,-38.86 57,-29.99"/>
<polygon fill="midnightblue" stroke="midnightblue" points="60.5,-29.75 57,-19.75 53.5,-29.75 60.5,-29.75"/>
</g>
<!-- Node6&#45;&gt;Node4 -->
<g id="edge6" class="edge">
<title>Node6&#45;&gt;Node4</title>
<path fill="none" stroke="midnightblue" d="M93.73,-112.08C87.46,-104.38 78.21,-93.03 70.57,-83.65"/>
<polygon fill="midnightblue" stroke="midnightblue" points="73.16,-81.29 64.13,-75.75 67.73,-85.71 73.16,-81.29"/>
</g>
<!-- Node6&#45;&gt;Node7 -->
<g id="edge7" class="edge">
<title>Node6&#45;&gt;Node7</title>
<path fill="none" stroke="midnightblue" d="M109.09,-112.08C116.16,-104.3 126.59,-92.8 135.15,-83.37"/>
<polygon fill="midnightblue" stroke="midnightblue" points="137.93,-85.51 142.06,-75.75 132.75,-80.8 137.93,-85.51"/>
</g>
</g>
</svg>
