<?xml version="1.0" encoding="UTF-8" standalone="no"?>
<!DOCTYPE svg PUBLIC "-//W3C//DTD SVG 1.1//EN"
 "http://www.w3.org/Graphics/SVG/1.1/DTD/svg11.dtd">
<!-- Generated by graphviz version 2.43.0 (0)
 -->
<!-- Title: softwaremessage.cpp Pages: 1 -->
<svg width="416pt" height="308pt"
 viewBox="0.00 0.00 415.50 308.00" xmlns="http://www.w3.org/2000/svg" xmlns:xlink="http://www.w3.org/1999/xlink">
<g id="graph0" class="graph" transform="scale(1 1) rotate(0) translate(4 304)">
<title>softwaremessage.cpp</title>
<!-- Node1 -->
<g id="node1" class="node">
<title>Node1</title>
<g id="a_node1"><a xlink:title=" ">
<polygon fill="#bfbfbf" stroke="black" points="184.5,-280.5 184.5,-299.5 307.5,-299.5 307.5,-280.5 184.5,-280.5"/>
<text text-anchor="middle" x="246" y="-287.5" font-family="Helvetica,sans-Serif" font-size="10.00">softwaremessage.cpp</text>
</a>
</g>
</g>
<!-- Node2 -->
<g id="node2" class="node">
<title>Node2</title>
<g id="a_node2"><a xlink:href="softwaremessage_8h.html" target="_top" xlink:title=" ">
<polygon fill="none" stroke="black" points="0,-224.5 0,-243.5 112,-243.5 112,-224.5 0,-224.5"/>
<text text-anchor="middle" x="56" y="-231.5" font-family="Helvetica,sans-Serif" font-size="10.00">softwaremessage.h</text>
</a>
</g>
</g>
<!-- Node1&#45;&gt;Node2 -->
<g id="edge1" class="edge">
<title>Node1&#45;&gt;Node2</title>
<path fill="none" stroke="midnightblue" d="M215.89,-280.44C183.37,-271.2 131.42,-256.44 95.61,-246.26"/>
<polygon fill="midnightblue" stroke="midnightblue" points="96.54,-242.88 85.97,-243.52 94.63,-249.62 96.54,-242.88"/>
</g>
<!-- Node7 -->
<g id="node7" class="node">
<title>Node7</title>
<g id="a_node7"><a xlink:title=" ">
<polygon fill="none" stroke="#bfbfbf" points="130.5,-224.5 130.5,-243.5 253.5,-243.5 253.5,-224.5 130.5,-224.5"/>
<text text-anchor="middle" x="192" y="-231.5" font-family="Helvetica,sans-Serif" font-size="10.00">softwaremessage_p.h</text>
</a>
</g>
</g>
<!-- Node1&#45;&gt;Node7 -->
<g id="edge7" class="edge">
<title>Node1&#45;&gt;Node7</title>
<path fill="none" stroke="midnightblue" d="M237.08,-280.08C229.22,-272.22 217.57,-260.57 208.08,-251.08"/>
<polygon fill="midnightblue" stroke="midnightblue" points="210.3,-248.35 200.75,-243.75 205.35,-253.3 210.3,-248.35"/>
</g>
<!-- Node8 -->
<g id="node8" class="node">
<title>Node8</title>
<g id="a_node8"><a xlink:title=" ">
<polygon fill="none" stroke="#bfbfbf" points="272,-224.5 272,-243.5 328,-243.5 328,-224.5 272,-224.5"/>
<text text-anchor="middle" x="300" y="-231.5" font-family="Helvetica,sans-Serif" font-size="10.00">QDebug</text>
</a>
</g>
</g>
<!-- Node1&#45;&gt;Node8 -->
<g id="edge8" class="edge">
<title>Node1&#45;&gt;Node8</title>
<path fill="none" stroke="midnightblue" d="M254.92,-280.08C262.78,-272.22 274.43,-260.57 283.92,-251.08"/>
<polygon fill="midnightblue" stroke="midnightblue" points="286.65,-253.3 291.25,-243.75 281.7,-248.35 286.65,-253.3"/>
</g>
<!-- Node9 -->
<g id="node9" class="node">
<title>Node9</title>
<g id="a_node9"><a xlink:title=" ">
<polygon fill="none" stroke="#bfbfbf" points="346.5,-224.5 346.5,-243.5 407.5,-243.5 407.5,-224.5 346.5,-224.5"/>
<text text-anchor="middle" x="377" y="-231.5" font-family="Helvetica,sans-Serif" font-size="10.00">QtEndian</text>
</a>
</g>
</g>
<!-- Node1&#45;&gt;Node9 -->
<g id="edge9" class="edge">
<title>Node1&#45;&gt;Node9</title>
<path fill="none" stroke="midnightblue" d="M266.76,-280.44C288.32,-271.56 322.26,-257.56 346.79,-247.45"/>
<polygon fill="midnightblue" stroke="midnightblue" points="348.43,-250.56 356.34,-243.52 345.76,-244.09 348.43,-250.56"/>
</g>
<!-- Node3 -->
<g id="node3" class="node">
<title>Node3</title>
<g id="a_node3"><a xlink:href="fitdatamessage_8h_source.html" target="_top" xlink:title=" ">
<polygon fill="none" stroke="black" points="5.5,-168.5 5.5,-187.5 106.5,-187.5 106.5,-168.5 5.5,-168.5"/>
<text text-anchor="middle" x="56" y="-175.5" font-family="Helvetica,sans-Serif" font-size="10.00">fitdatamessage.h</text>
</a>
</g>
</g>
<!-- Node2&#45;&gt;Node3 -->
<g id="edge2" class="edge">
<title>Node2&#45;&gt;Node3</title>
<path fill="none" stroke="midnightblue" d="M56,-224.08C56,-217.01 56,-206.86 56,-197.99"/>
<polygon fill="midnightblue" stroke="midnightblue" points="59.5,-197.75 56,-187.75 52.5,-197.75 59.5,-197.75"/>
</g>
<!-- Node4 -->
<g id="node4" class="node">
<title>Node4</title>
<g id="a_node4"><a xlink:href="QtFit__global_8h_source.html" target="_top" xlink:title=" ">
<polygon fill="none" stroke="black" points="14,-56.5 14,-75.5 98,-75.5 98,-56.5 14,-56.5"/>
<text text-anchor="middle" x="56" y="-63.5" font-family="Helvetica,sans-Serif" font-size="10.00">QtFit_global.h</text>
</a>
</g>
</g>
<!-- Node3&#45;&gt;Node4 -->
<g id="edge3" class="edge">
<title>Node3&#45;&gt;Node4</title>
<path fill="none" stroke="midnightblue" d="M54.26,-168.42C52.53,-159.4 49.99,-144.77 49,-132 47.8,-116.42 49.91,-98.8 52.12,-85.84"/>
<polygon fill="midnightblue" stroke="midnightblue" points="55.6,-86.29 54.01,-75.82 48.72,-84.99 55.6,-86.29"/>
</g>
<!-- Node6 -->
<g id="node6" class="node">
<title>Node6</title>
<g id="a_node6"><a xlink:href="types_8h.html" target="_top" xlink:title="Types defined by the ANT+ FIT SDK.">
<polygon fill="none" stroke="black" points="57.5,-112.5 57.5,-131.5 110.5,-131.5 110.5,-112.5 57.5,-112.5"/>
<text text-anchor="middle" x="84" y="-119.5" font-family="Helvetica,sans-Serif" font-size="10.00">types.h</text>
</a>
</g>
</g>
<!-- Node3&#45;&gt;Node6 -->
<g id="edge5" class="edge">
<title>Node3&#45;&gt;Node6</title>
<path fill="none" stroke="midnightblue" d="M60.62,-168.08C64.46,-160.69 70.02,-149.95 74.76,-140.81"/>
<polygon fill="midnightblue" stroke="midnightblue" points="77.97,-142.24 79.46,-131.75 71.75,-139.02 77.97,-142.24"/>
</g>
<!-- Node5 -->
<g id="node5" class="node">
<title>Node5</title>
<g id="a_node5"><a xlink:title=" ">
<polygon fill="none" stroke="#bfbfbf" points="26.5,-0.5 26.5,-19.5 85.5,-19.5 85.5,-0.5 26.5,-0.5"/>
<text text-anchor="middle" x="56" y="-7.5" font-family="Helvetica,sans-Serif" font-size="10.00">QtGlobal</text>
</a>
</g>
</g>
<!-- Node4&#45;&gt;Node5 -->
<g id="edge4" class="edge">
<title>Node4&#45;&gt;Node5</title>
<path fill="none" stroke="midnightblue" d="M56,-56.08C56,-49.01 56,-38.86 56,-29.99"/>
<polygon fill="midnightblue" stroke="midnightblue" points="59.5,-29.75 56,-19.75 52.5,-29.75 59.5,-29.75"/>
</g>
<!-- Node6&#45;&gt;Node4 -->
<g id="edge6" class="edge">
<title>Node6&#45;&gt;Node4</title>
<path fill="none" stroke="midnightblue" d="M79.38,-112.08C75.54,-104.69 69.98,-93.95 65.24,-84.81"/>
<polygon fill="midnightblue" stroke="midnightblue" points="68.25,-83.02 60.54,-75.75 62.03,-86.24 68.25,-83.02"/>
</g>
</g>
</svg>
