<?xml version="1.0" encoding="UTF-8" standalone="no"?>
<!DOCTYPE svg PUBLIC "-//W3C//DTD SVG 1.1//EN"
 "http://www.w3.org/Graphics/SVG/1.1/DTD/svg11.dtd">
<!-- Generated by graphviz version 2.43.0 (0)
 -->
<!-- Title: stresslevelmessage.cpp Pages: 1 -->
<svg width="437pt" height="308pt"
 viewBox="0.00 0.00 437.00 308.00" xmlns="http://www.w3.org/2000/svg" xmlns:xlink="http://www.w3.org/1999/xlink">
<g id="graph0" class="graph" transform="scale(1 1) rotate(0) translate(4 304)">
<title>stresslevelmessage.cpp</title>
<!-- Node1 -->
<g id="node1" class="node">
<title>Node1</title>
<g id="a_node1"><a xlink:title=" ">
<polygon fill="#bfbfbf" stroke="black" points="197.5,-280.5 197.5,-299.5 331.5,-299.5 331.5,-280.5 197.5,-280.5"/>
<text text-anchor="middle" x="264.5" y="-287.5" font-family="Helvetica,sans-Serif" font-size="10.00">stresslevelmessage.cpp</text>
</a>
</g>
</g>
<!-- Node2 -->
<g id="node2" class="node">
<title>Node2</title>
<g id="a_node2"><a xlink:href="stresslevelmessage_8h.html" target="_top" xlink:title=" ">
<polygon fill="none" stroke="black" points="0,-224.5 0,-243.5 123,-243.5 123,-224.5 0,-224.5"/>
<text text-anchor="middle" x="61.5" y="-231.5" font-family="Helvetica,sans-Serif" font-size="10.00">stresslevelmessage.h</text>
</a>
</g>
</g>
<!-- Node1&#45;&gt;Node2 -->
<g id="edge1" class="edge">
<title>Node1&#45;&gt;Node2</title>
<path fill="none" stroke="midnightblue" d="M232.33,-280.44C197.44,-271.16 141.61,-256.31 103.33,-246.13"/>
<polygon fill="midnightblue" stroke="midnightblue" points="104.08,-242.7 93.52,-243.52 102.28,-249.47 104.08,-242.7"/>
</g>
<!-- Node7 -->
<g id="node7" class="node">
<title>Node7</title>
<g id="a_node7"><a xlink:title=" ">
<polygon fill="none" stroke="#bfbfbf" points="141.5,-224.5 141.5,-243.5 275.5,-243.5 275.5,-224.5 141.5,-224.5"/>
<text text-anchor="middle" x="208.5" y="-231.5" font-family="Helvetica,sans-Serif" font-size="10.00">stresslevelmessage_p.h</text>
</a>
</g>
</g>
<!-- Node1&#45;&gt;Node7 -->
<g id="edge7" class="edge">
<title>Node1&#45;&gt;Node7</title>
<path fill="none" stroke="midnightblue" d="M255.5,-280.32C247.31,-272.42 234.99,-260.55 225.03,-250.94"/>
<polygon fill="midnightblue" stroke="midnightblue" points="227.29,-248.26 217.66,-243.83 222.43,-253.29 227.29,-248.26"/>
</g>
<!-- Node8 -->
<g id="node8" class="node">
<title>Node8</title>
<g id="a_node8"><a xlink:title=" ">
<polygon fill="none" stroke="#bfbfbf" points="293.5,-224.5 293.5,-243.5 349.5,-243.5 349.5,-224.5 293.5,-224.5"/>
<text text-anchor="middle" x="321.5" y="-231.5" font-family="Helvetica,sans-Serif" font-size="10.00">QDebug</text>
</a>
</g>
</g>
<!-- Node1&#45;&gt;Node8 -->
<g id="edge8" class="edge">
<title>Node1&#45;&gt;Node8</title>
<path fill="none" stroke="midnightblue" d="M273.66,-280.32C282,-272.42 294.53,-260.55 304.68,-250.94"/>
<polygon fill="midnightblue" stroke="midnightblue" points="307.32,-253.25 312.18,-243.83 302.51,-248.17 307.32,-253.25"/>
</g>
<!-- Node9 -->
<g id="node9" class="node">
<title>Node9</title>
<g id="a_node9"><a xlink:title=" ">
<polygon fill="none" stroke="#bfbfbf" points="368,-224.5 368,-243.5 429,-243.5 429,-224.5 368,-224.5"/>
<text text-anchor="middle" x="398.5" y="-231.5" font-family="Helvetica,sans-Serif" font-size="10.00">QtEndian</text>
</a>
</g>
</g>
<!-- Node1&#45;&gt;Node9 -->
<g id="edge9" class="edge">
<title>Node1&#45;&gt;Node9</title>
<path fill="none" stroke="midnightblue" d="M285.73,-280.44C307.88,-271.52 342.82,-257.44 367.94,-247.32"/>
<polygon fill="midnightblue" stroke="midnightblue" points="369.4,-250.5 377.37,-243.52 366.78,-244.01 369.4,-250.5"/>
</g>
<!-- Node3 -->
<g id="node3" class="node">
<title>Node3</title>
<g id="a_node3"><a xlink:href="fitdatamessage_8h_source.html" target="_top" xlink:title=" ">
<polygon fill="none" stroke="black" points="11,-168.5 11,-187.5 112,-187.5 112,-168.5 11,-168.5"/>
<text text-anchor="middle" x="61.5" y="-175.5" font-family="Helvetica,sans-Serif" font-size="10.00">fitdatamessage.h</text>
</a>
</g>
</g>
<!-- Node2&#45;&gt;Node3 -->
<g id="edge2" class="edge">
<title>Node2&#45;&gt;Node3</title>
<path fill="none" stroke="midnightblue" d="M61.5,-224.08C61.5,-217.01 61.5,-206.86 61.5,-197.99"/>
<polygon fill="midnightblue" stroke="midnightblue" points="65,-197.75 61.5,-187.75 58,-197.75 65,-197.75"/>
</g>
<!-- Node4 -->
<g id="node4" class="node">
<title>Node4</title>
<g id="a_node4"><a xlink:href="QtFit__global_8h_source.html" target="_top" xlink:title=" ">
<polygon fill="none" stroke="black" points="19.5,-56.5 19.5,-75.5 103.5,-75.5 103.5,-56.5 19.5,-56.5"/>
<text text-anchor="middle" x="61.5" y="-63.5" font-family="Helvetica,sans-Serif" font-size="10.00">QtFit_global.h</text>
</a>
</g>
</g>
<!-- Node3&#45;&gt;Node4 -->
<g id="edge3" class="edge">
<title>Node3&#45;&gt;Node4</title>
<path fill="none" stroke="midnightblue" d="M59.76,-168.42C58.03,-159.4 55.49,-144.77 54.5,-132 53.3,-116.42 55.41,-98.8 57.62,-85.84"/>
<polygon fill="midnightblue" stroke="midnightblue" points="61.1,-86.29 59.51,-75.82 54.22,-84.99 61.1,-86.29"/>
</g>
<!-- Node6 -->
<g id="node6" class="node">
<title>Node6</title>
<g id="a_node6"><a xlink:href="types_8h.html" target="_top" xlink:title="Types defined by the ANT+ FIT SDK.">
<polygon fill="none" stroke="black" points="63,-112.5 63,-131.5 116,-131.5 116,-112.5 63,-112.5"/>
<text text-anchor="middle" x="89.5" y="-119.5" font-family="Helvetica,sans-Serif" font-size="10.00">types.h</text>
</a>
</g>
</g>
<!-- Node3&#45;&gt;Node6 -->
<g id="edge5" class="edge">
<title>Node3&#45;&gt;Node6</title>
<path fill="none" stroke="midnightblue" d="M66.12,-168.08C69.96,-160.69 75.52,-149.95 80.26,-140.81"/>
<polygon fill="midnightblue" stroke="midnightblue" points="83.47,-142.24 84.96,-131.75 77.25,-139.02 83.47,-142.24"/>
</g>
<!-- Node5 -->
<g id="node5" class="node">
<title>Node5</title>
<g id="a_node5"><a xlink:title=" ">
<polygon fill="none" stroke="#bfbfbf" points="32,-0.5 32,-19.5 91,-19.5 91,-0.5 32,-0.5"/>
<text text-anchor="middle" x="61.5" y="-7.5" font-family="Helvetica,sans-Serif" font-size="10.00">QtGlobal</text>
</a>
</g>
</g>
<!-- Node4&#45;&gt;Node5 -->
<g id="edge4" class="edge">
<title>Node4&#45;&gt;Node5</title>
<path fill="none" stroke="midnightblue" d="M61.5,-56.08C61.5,-49.01 61.5,-38.86 61.5,-29.99"/>
<polygon fill="midnightblue" stroke="midnightblue" points="65,-29.75 61.5,-19.75 58,-29.75 65,-29.75"/>
</g>
<!-- Node6&#45;&gt;Node4 -->
<g id="edge6" class="edge">
<title>Node6&#45;&gt;Node4</title>
<path fill="none" stroke="midnightblue" d="M84.88,-112.08C81.04,-104.69 75.48,-93.95 70.74,-84.81"/>
<polygon fill="midnightblue" stroke="midnightblue" points="73.75,-83.02 66.04,-75.75 67.53,-86.24 73.75,-83.02"/>
</g>
</g>
</svg>
