<?xml version="1.0" encoding="UTF-8" standalone="no"?>
<!DOCTYPE svg PUBLIC "-//W3C//DTD SVG 1.1//EN"
 "http://www.w3.org/Graphics/SVG/1.1/DTD/svg11.dtd">
<!-- Generated by graphviz version 2.43.0 (0)
 -->
<!-- Title: threedsensorcalibrationmessage.cpp Pages: 1 -->
<svg width="562pt" height="308pt"
 viewBox="0.00 0.00 562.00 308.00" xmlns="http://www.w3.org/2000/svg" xmlns:xlink="http://www.w3.org/1999/xlink">
<g id="graph0" class="graph" transform="scale(1 1) rotate(0) translate(4 304)">
<title>threedsensorcalibrationmessage.cpp</title>
<!-- Node1 -->
<g id="node1" class="node">
<title>Node1</title>
<g id="a_node1"><a xlink:title=" ">
<polygon fill="#bfbfbf" stroke="black" points="275,-280.5 275,-299.5 472,-299.5 472,-280.5 275,-280.5"/>
<text text-anchor="middle" x="373.5" y="-287.5" font-family="Helvetica,sans-Serif" font-size="10.00">threedsensorcalibrationmessage.cpp</text>
</a>
</g>
</g>
<!-- Node2 -->
<g id="node2" class="node">
<title>Node2</title>
<g id="a_node2"><a xlink:href="threedsensorcalibrationmessage_8h.html" target="_top" xlink:title=" ">
<polygon fill="none" stroke="black" points="0,-224.5 0,-243.5 185,-243.5 185,-224.5 0,-224.5"/>
<text text-anchor="middle" x="92.5" y="-231.5" font-family="Helvetica,sans-Serif" font-size="10.00">threedsensorcalibrationmessage.h</text>
</a>
</g>
</g>
<!-- Node1&#45;&gt;Node2 -->
<g id="edge1" class="edge">
<title>Node1&#45;&gt;Node2</title>
<path fill="none" stroke="midnightblue" d="M328.97,-280.44C279.54,-270.94 199.75,-255.61 146.72,-245.42"/>
<polygon fill="midnightblue" stroke="midnightblue" points="147.3,-241.97 136.82,-243.52 145.98,-248.84 147.3,-241.97"/>
</g>
<!-- Node7 -->
<g id="node7" class="node">
<title>Node7</title>
<g id="a_node7"><a xlink:title=" ">
<polygon fill="none" stroke="#bfbfbf" points="203,-224.5 203,-243.5 400,-243.5 400,-224.5 203,-224.5"/>
<text text-anchor="middle" x="301.5" y="-231.5" font-family="Helvetica,sans-Serif" font-size="10.00">threedsensorcalibrationmessage_p.h</text>
</a>
</g>
</g>
<!-- Node1&#45;&gt;Node7 -->
<g id="edge7" class="edge">
<title>Node1&#45;&gt;Node7</title>
<path fill="none" stroke="midnightblue" d="M361.93,-280.32C351.08,-272.18 334.62,-259.84 321.62,-250.09"/>
<polygon fill="midnightblue" stroke="midnightblue" points="323.38,-247.03 313.28,-243.83 319.18,-252.63 323.38,-247.03"/>
</g>
<!-- Node8 -->
<g id="node8" class="node">
<title>Node8</title>
<g id="a_node8"><a xlink:title=" ">
<polygon fill="none" stroke="#bfbfbf" points="418.5,-224.5 418.5,-243.5 474.5,-243.5 474.5,-224.5 418.5,-224.5"/>
<text text-anchor="middle" x="446.5" y="-231.5" font-family="Helvetica,sans-Serif" font-size="10.00">QDebug</text>
</a>
</g>
</g>
<!-- Node1&#45;&gt;Node8 -->
<g id="edge8" class="edge">
<title>Node1&#45;&gt;Node8</title>
<path fill="none" stroke="midnightblue" d="M385.23,-280.32C396.34,-272.11 413.24,-259.6 426.48,-249.81"/>
<polygon fill="midnightblue" stroke="midnightblue" points="428.6,-252.59 434.56,-243.83 424.44,-246.97 428.6,-252.59"/>
</g>
<!-- Node9 -->
<g id="node9" class="node">
<title>Node9</title>
<g id="a_node9"><a xlink:title=" ">
<polygon fill="none" stroke="#bfbfbf" points="493,-224.5 493,-243.5 554,-243.5 554,-224.5 493,-224.5"/>
<text text-anchor="middle" x="523.5" y="-231.5" font-family="Helvetica,sans-Serif" font-size="10.00">QtEndian</text>
</a>
</g>
</g>
<!-- Node1&#45;&gt;Node9 -->
<g id="edge9" class="edge">
<title>Node1&#45;&gt;Node9</title>
<path fill="none" stroke="midnightblue" d="M397.27,-280.44C422.39,-271.4 462.21,-257.06 490.4,-246.92"/>
<polygon fill="midnightblue" stroke="midnightblue" points="491.62,-250.2 499.84,-243.52 489.25,-243.61 491.62,-250.2"/>
</g>
<!-- Node3 -->
<g id="node3" class="node">
<title>Node3</title>
<g id="a_node3"><a xlink:href="fitdatamessage_8h_source.html" target="_top" xlink:title=" ">
<polygon fill="none" stroke="black" points="42,-168.5 42,-187.5 143,-187.5 143,-168.5 42,-168.5"/>
<text text-anchor="middle" x="92.5" y="-175.5" font-family="Helvetica,sans-Serif" font-size="10.00">fitdatamessage.h</text>
</a>
</g>
</g>
<!-- Node2&#45;&gt;Node3 -->
<g id="edge2" class="edge">
<title>Node2&#45;&gt;Node3</title>
<path fill="none" stroke="midnightblue" d="M92.5,-224.08C92.5,-217.01 92.5,-206.86 92.5,-197.99"/>
<polygon fill="midnightblue" stroke="midnightblue" points="96,-197.75 92.5,-187.75 89,-197.75 96,-197.75"/>
</g>
<!-- Node4 -->
<g id="node4" class="node">
<title>Node4</title>
<g id="a_node4"><a xlink:href="QtFit__global_8h_source.html" target="_top" xlink:title=" ">
<polygon fill="none" stroke="black" points="50.5,-56.5 50.5,-75.5 134.5,-75.5 134.5,-56.5 50.5,-56.5"/>
<text text-anchor="middle" x="92.5" y="-63.5" font-family="Helvetica,sans-Serif" font-size="10.00">QtFit_global.h</text>
</a>
</g>
</g>
<!-- Node3&#45;&gt;Node4 -->
<g id="edge3" class="edge">
<title>Node3&#45;&gt;Node4</title>
<path fill="none" stroke="midnightblue" d="M90.76,-168.42C89.03,-159.4 86.49,-144.77 85.5,-132 84.3,-116.42 86.41,-98.8 88.62,-85.84"/>
<polygon fill="midnightblue" stroke="midnightblue" points="92.1,-86.29 90.51,-75.82 85.22,-84.99 92.1,-86.29"/>
</g>
<!-- Node6 -->
<g id="node6" class="node">
<title>Node6</title>
<g id="a_node6"><a xlink:href="types_8h.html" target="_top" xlink:title="Types defined by the ANT+ FIT SDK.">
<polygon fill="none" stroke="black" points="94,-112.5 94,-131.5 147,-131.5 147,-112.5 94,-112.5"/>
<text text-anchor="middle" x="120.5" y="-119.5" font-family="Helvetica,sans-Serif" font-size="10.00">types.h</text>
</a>
</g>
</g>
<!-- Node3&#45;&gt;Node6 -->
<g id="edge5" class="edge">
<title>Node3&#45;&gt;Node6</title>
<path fill="none" stroke="midnightblue" d="M97.12,-168.08C100.96,-160.69 106.52,-149.95 111.26,-140.81"/>
<polygon fill="midnightblue" stroke="midnightblue" points="114.47,-142.24 115.96,-131.75 108.25,-139.02 114.47,-142.24"/>
</g>
<!-- Node5 -->
<g id="node5" class="node">
<title>Node5</title>
<g id="a_node5"><a xlink:title=" ">
<polygon fill="none" stroke="#bfbfbf" points="63,-0.5 63,-19.5 122,-19.5 122,-0.5 63,-0.5"/>
<text text-anchor="middle" x="92.5" y="-7.5" font-family="Helvetica,sans-Serif" font-size="10.00">QtGlobal</text>
</a>
</g>
</g>
<!-- Node4&#45;&gt;Node5 -->
<g id="edge4" class="edge">
<title>Node4&#45;&gt;Node5</title>
<path fill="none" stroke="midnightblue" d="M92.5,-56.08C92.5,-49.01 92.5,-38.86 92.5,-29.99"/>
<polygon fill="midnightblue" stroke="midnightblue" points="96,-29.75 92.5,-19.75 89,-29.75 96,-29.75"/>
</g>
<!-- Node6&#45;&gt;Node4 -->
<g id="edge6" class="edge">
<title>Node6&#45;&gt;Node4</title>
<path fill="none" stroke="midnightblue" d="M115.88,-112.08C112.04,-104.69 106.48,-93.95 101.74,-84.81"/>
<polygon fill="midnightblue" stroke="midnightblue" points="104.75,-83.02 97.04,-75.75 98.53,-86.24 104.75,-83.02"/>
</g>
</g>
</svg>
