<?xml version="1.0" encoding="UTF-8" standalone="no"?>
<!DOCTYPE svg PUBLIC "-//W3C//DTD SVG 1.1//EN"
 "http://www.w3.org/Graphics/SVG/1.1/DTD/svg11.dtd">
<!-- Generated by graphviz version 2.43.0 (0)
 -->
<!-- Title: threedsensorcalibrationmessage.cpp Pages: 1 -->
<svg width="525pt" height="308pt"
 viewBox="0.00 0.00 525.00 308.00" xmlns="http://www.w3.org/2000/svg" xmlns:xlink="http://www.w3.org/1999/xlink">
<g id="graph0" class="graph" transform="scale(1 1) rotate(0) translate(4 304)">
<title>threedsensorcalibrationmessage.cpp</title>
<!-- Node1 -->
<g id="node1" class="node">
<title>Node1</title>
<g id="a_node1"><a xlink:title="Defines the ThreeDSensorCalibrationMessage, and ThreeDSensorCalibrationMessagePrivate classes.">
<polygon fill="#bfbfbf" stroke="black" points="177,-280.5 177,-299.5 374,-299.5 374,-280.5 177,-280.5"/>
<text text-anchor="middle" x="275.5" y="-287.5" font-family="Helvetica,sans-Serif" font-size="10.00">threedsensorcalibrationmessage.cpp</text>
</a>
</g>
</g>
<!-- Node2 -->
<g id="node2" class="node">
<title>Node2</title>
<g id="a_node2"><a xlink:href="threedsensorcalibrationmessage_8h.html" target="_top" xlink:title="Declares the ThreeDSensorCalibrationMessage class.">
<polygon fill="none" stroke="black" points="0,-224.5 0,-243.5 185,-243.5 185,-224.5 0,-224.5"/>
<text text-anchor="middle" x="92.5" y="-231.5" font-family="Helvetica,sans-Serif" font-size="10.00">threedsensorcalibrationmessage.h</text>
</a>
</g>
</g>
<!-- Node1&#45;&gt;Node2 -->
<g id="edge1" class="edge">
<title>Node1&#45;&gt;Node2</title>
<path fill="none" stroke="midnightblue" d="M246.5,-280.44C215.32,-271.24 165.57,-256.56 131.09,-246.39"/>
<polygon fill="midnightblue" stroke="midnightblue" points="131.94,-242.99 121.36,-243.52 129.96,-249.7 131.94,-242.99"/>
</g>
<!-- Node7 -->
<g id="node7" class="node">
<title>Node7</title>
<g id="a_node7"><a xlink:title=" ">
<polygon fill="none" stroke="#bfbfbf" points="176.5,-56.5 176.5,-75.5 232.5,-75.5 232.5,-56.5 176.5,-56.5"/>
<text text-anchor="middle" x="204.5" y="-63.5" font-family="Helvetica,sans-Serif" font-size="10.00">QDebug</text>
</a>
</g>
</g>
<!-- Node1&#45;&gt;Node7 -->
<g id="edge9" class="edge">
<title>Node1&#45;&gt;Node7</title>
<path fill="none" stroke="midnightblue" d="M263.98,-280.36C253.95,-272.17 239.88,-258.91 232.5,-244 206.32,-191.13 203.56,-119.46 203.89,-85.86"/>
<polygon fill="midnightblue" stroke="midnightblue" points="207.39,-85.72 204.1,-75.65 200.4,-85.58 207.39,-85.72"/>
</g>
<!-- Node8 -->
<g id="node8" class="node">
<title>Node8</title>
<g id="a_node8"><a xlink:title=" ">
<polygon fill="none" stroke="#bfbfbf" points="241,-224.5 241,-243.5 438,-243.5 438,-224.5 241,-224.5"/>
<text text-anchor="middle" x="339.5" y="-231.5" font-family="Helvetica,sans-Serif" font-size="10.00">threedsensorcalibrationmessage_p.h</text>
</a>
</g>
</g>
<!-- Node1&#45;&gt;Node8 -->
<g id="edge8" class="edge">
<title>Node1&#45;&gt;Node8</title>
<path fill="none" stroke="midnightblue" d="M285.78,-280.32C295.34,-272.26 309.78,-260.08 321.28,-250.37"/>
<polygon fill="midnightblue" stroke="midnightblue" points="323.64,-252.96 329.03,-243.83 319.13,-247.61 323.64,-252.96"/>
</g>
<!-- Node9 -->
<g id="node9" class="node">
<title>Node9</title>
<g id="a_node9"><a xlink:title=" ">
<polygon fill="none" stroke="#bfbfbf" points="456,-224.5 456,-243.5 517,-243.5 517,-224.5 456,-224.5"/>
<text text-anchor="middle" x="486.5" y="-231.5" font-family="Helvetica,sans-Serif" font-size="10.00">QtEndian</text>
</a>
</g>
</g>
<!-- Node1&#45;&gt;Node9 -->
<g id="edge10" class="edge">
<title>Node1&#45;&gt;Node9</title>
<path fill="none" stroke="midnightblue" d="M308.93,-280.44C346.13,-270.92 406.23,-255.54 446.05,-245.35"/>
<polygon fill="midnightblue" stroke="midnightblue" points="447.14,-248.69 455.96,-242.82 445.41,-241.9 447.14,-248.69"/>
</g>
<!-- Node3 -->
<g id="node3" class="node">
<title>Node3</title>
<g id="a_node3"><a xlink:href="abstractdatamessage_8h.html" target="_top" xlink:title="Declares the AbstractDataMessage class.">
<polygon fill="none" stroke="black" points="32,-168.5 32,-187.5 163,-187.5 163,-168.5 32,-168.5"/>
<text text-anchor="middle" x="97.5" y="-175.5" font-family="Helvetica,sans-Serif" font-size="10.00">abstractdatamessage.h</text>
</a>
</g>
</g>
<!-- Node2&#45;&gt;Node3 -->
<g id="edge2" class="edge">
<title>Node2&#45;&gt;Node3</title>
<path fill="none" stroke="midnightblue" d="M93.33,-224.08C93.98,-217.01 94.92,-206.86 95.74,-197.99"/>
<polygon fill="midnightblue" stroke="midnightblue" points="99.25,-198.03 96.69,-187.75 92.28,-197.39 99.25,-198.03"/>
</g>
<!-- Node4 -->
<g id="node4" class="node">
<title>Node4</title>
<g id="a_node4"><a xlink:href="QtFit__global_8h.html" target="_top" xlink:title="Global QtFit library macros.">
<polygon fill="none" stroke="black" points="66.5,-56.5 66.5,-75.5 150.5,-75.5 150.5,-56.5 66.5,-56.5"/>
<text text-anchor="middle" x="108.5" y="-63.5" font-family="Helvetica,sans-Serif" font-size="10.00">QtFit_global.h</text>
</a>
</g>
</g>
<!-- Node3&#45;&gt;Node4 -->
<g id="edge3" class="edge">
<title>Node3&#45;&gt;Node4</title>
<path fill="none" stroke="midnightblue" d="M98.36,-168.37C100.14,-150.62 104.23,-109.67 106.64,-85.6"/>
<polygon fill="midnightblue" stroke="midnightblue" points="110.13,-85.89 107.64,-75.59 103.16,-85.19 110.13,-85.89"/>
</g>
<!-- Node6 -->
<g id="node6" class="node">
<title>Node6</title>
<g id="a_node6"><a xlink:href="types_8h.html" target="_top" xlink:title="Types defined by the ANT+ FIT SDK.">
<polygon fill="none" stroke="black" points="126,-112.5 126,-131.5 179,-131.5 179,-112.5 126,-112.5"/>
<text text-anchor="middle" x="152.5" y="-119.5" font-family="Helvetica,sans-Serif" font-size="10.00">types.h</text>
</a>
</g>
</g>
<!-- Node3&#45;&gt;Node6 -->
<g id="edge5" class="edge">
<title>Node3&#45;&gt;Node6</title>
<path fill="none" stroke="midnightblue" d="M106.58,-168.08C114.67,-160.14 126.7,-148.34 136.41,-138.8"/>
<polygon fill="midnightblue" stroke="midnightblue" points="138.9,-141.25 143.59,-131.75 134,-136.26 138.9,-141.25"/>
</g>
<!-- Node5 -->
<g id="node5" class="node">
<title>Node5</title>
<g id="a_node5"><a xlink:title=" ">
<polygon fill="none" stroke="#bfbfbf" points="79,-0.5 79,-19.5 138,-19.5 138,-0.5 79,-0.5"/>
<text text-anchor="middle" x="108.5" y="-7.5" font-family="Helvetica,sans-Serif" font-size="10.00">QtGlobal</text>
</a>
</g>
</g>
<!-- Node4&#45;&gt;Node5 -->
<g id="edge4" class="edge">
<title>Node4&#45;&gt;Node5</title>
<path fill="none" stroke="midnightblue" d="M108.5,-56.08C108.5,-49.01 108.5,-38.86 108.5,-29.99"/>
<polygon fill="midnightblue" stroke="midnightblue" points="112,-29.75 108.5,-19.75 105,-29.75 112,-29.75"/>
</g>
<!-- Node6&#45;&gt;Node4 -->
<g id="edge6" class="edge">
<title>Node6&#45;&gt;Node4</title>
<path fill="none" stroke="midnightblue" d="M145.23,-112.08C138.96,-104.38 129.71,-93.03 122.07,-83.65"/>
<polygon fill="midnightblue" stroke="midnightblue" points="124.66,-81.29 115.63,-75.75 119.23,-85.71 124.66,-81.29"/>
</g>
<!-- Node6&#45;&gt;Node7 -->
<g id="edge7" class="edge">
<title>Node6&#45;&gt;Node7</title>
<path fill="none" stroke="midnightblue" d="M161.09,-112.08C168.66,-104.22 179.88,-92.57 189.01,-83.08"/>
<polygon fill="midnightblue" stroke="midnightblue" points="191.66,-85.38 196.07,-75.75 186.62,-80.53 191.66,-85.38"/>
</g>
</g>
</svg>
