<?xml version="1.0" encoding="UTF-8" standalone="no"?>
<!DOCTYPE svg PUBLIC "-//W3C//DTD SVG 1.1//EN"
 "http://www.w3.org/Graphics/SVG/1.1/DTD/svg11.dtd">
<!-- Generated by graphviz version 2.43.0 (0)
 -->
<!-- Title: timestampcorrelationmessage.h Pages: 1 -->
<svg width="332pt" height="84pt"
 viewBox="0.00 0.00 331.50 84.00" xmlns="http://www.w3.org/2000/svg" xmlns:xlink="http://www.w3.org/1999/xlink">
<g id="graph0" class="graph" transform="scale(1 1) rotate(0) translate(4 80)">
<title>timestampcorrelationmessage.h</title>
<!-- Node1 -->
<g id="node1" class="node">
<title>Node1</title>
<g id="a_node1"><a xlink:title=" ">
<polygon fill="#bfbfbf" stroke="black" points="56,-56.5 56,-75.5 232,-75.5 232,-56.5 56,-56.5"/>
<text text-anchor="middle" x="144" y="-63.5" font-family="Helvetica,sans-Serif" font-size="10.00">timestampcorrelationmessage.h</text>
</a>
</g>
</g>
<!-- Node2 -->
<g id="node2" class="node">
<title>Node2</title>
<g id="a_node2"><a xlink:href="fitdatamessages_8cpp.html" target="_top" xlink:title="Provides the AbstractDataMessage::fromData implementation.">
<polygon fill="none" stroke="black" points="0,-0.5 0,-19.5 118,-19.5 118,-0.5 0,-0.5"/>
<text text-anchor="middle" x="59" y="-7.5" font-family="Helvetica,sans-Serif" font-size="10.00">fitdatamessages.cpp</text>
</a>
</g>
</g>
<!-- Node1&#45;&gt;Node2 -->
<g id="edge1" class="edge">
<title>Node1&#45;&gt;Node2</title>
<path fill="none" stroke="midnightblue" d="M121.81,-50.9C106.22,-41 85.87,-28.07 72.62,-19.65"/>
<polygon fill="midnightblue" stroke="midnightblue" points="120.03,-53.92 130.34,-56.32 123.78,-48.01 120.03,-53.92"/>
</g>
<!-- Node3 -->
<g id="node3" class="node">
<title>Node3</title>
<g id="a_node3"><a xlink:href="timestampcorrelationmessage_8cpp.html" target="_top" xlink:title=" ">
<polygon fill="none" stroke="black" points="136.5,-0.5 136.5,-19.5 323.5,-19.5 323.5,-0.5 136.5,-0.5"/>
<text text-anchor="middle" x="230" y="-7.5" font-family="Helvetica,sans-Serif" font-size="10.00">timestampcorrelationmessage.cpp</text>
</a>
</g>
</g>
<!-- Node1&#45;&gt;Node3 -->
<g id="edge2" class="edge">
<title>Node1&#45;&gt;Node3</title>
<path fill="none" stroke="midnightblue" d="M166.45,-50.9C182.22,-41 202.81,-28.07 216.22,-19.65"/>
<polygon fill="midnightblue" stroke="midnightblue" points="164.43,-48.04 157.82,-56.32 168.15,-53.97 164.43,-48.04"/>
</g>
</g>
</svg>
