<?xml version="1.0" encoding="UTF-8" standalone="no"?>
<!DOCTYPE svg PUBLIC "-//W3C//DTD SVG 1.1//EN"
 "http://www.w3.org/Graphics/SVG/1.1/DTD/svg11.dtd">
<!-- Generated by graphviz version 2.43.0 (0)
 -->
<!-- Title: timestampcorrelationmessage.cpp Pages: 1 -->
<svg width="389pt" height="308pt"
 viewBox="0.00 0.00 388.50 308.00" xmlns="http://www.w3.org/2000/svg" xmlns:xlink="http://www.w3.org/1999/xlink">
<g id="graph0" class="graph" transform="scale(1 1) rotate(0) translate(4 304)">
<title>timestampcorrelationmessage.cpp</title>
<!-- Node1 -->
<g id="node1" class="node">
<title>Node1</title>
<g id="a_node1"><a xlink:title=" ">
<polygon fill="#bfbfbf" stroke="black" points="93.5,-280.5 93.5,-299.5 280.5,-299.5 280.5,-280.5 93.5,-280.5"/>
<text text-anchor="middle" x="187" y="-287.5" font-family="Helvetica,sans-Serif" font-size="10.00">timestampcorrelationmessage.cpp</text>
</a>
</g>
</g>
<!-- Node2 -->
<g id="node2" class="node">
<title>Node2</title>
<g id="a_node2"><a xlink:href="timestampcorrelationmessage_8h.html" target="_top" xlink:title=" ">
<polygon fill="none" stroke="black" points="0,-224.5 0,-243.5 176,-243.5 176,-224.5 0,-224.5"/>
<text text-anchor="middle" x="88" y="-231.5" font-family="Helvetica,sans-Serif" font-size="10.00">timestampcorrelationmessage.h</text>
</a>
</g>
</g>
<!-- Node1&#45;&gt;Node2 -->
<g id="edge1" class="edge">
<title>Node1&#45;&gt;Node2</title>
<path fill="none" stroke="midnightblue" d="M171.09,-280.32C155.36,-271.74 131.06,-258.49 112.79,-248.52"/>
<polygon fill="midnightblue" stroke="midnightblue" points="114.32,-245.37 103.87,-243.65 110.97,-251.52 114.32,-245.37"/>
</g>
<!-- Node7 -->
<g id="node7" class="node">
<title>Node7</title>
<g id="a_node7"><a xlink:title=" ">
<polygon fill="none" stroke="#bfbfbf" points="193.5,-224.5 193.5,-243.5 380.5,-243.5 380.5,-224.5 193.5,-224.5"/>
<text text-anchor="middle" x="287" y="-231.5" font-family="Helvetica,sans-Serif" font-size="10.00">timestampcorrelationmessage_p.h</text>
</a>
</g>
</g>
<!-- Node1&#45;&gt;Node7 -->
<g id="edge7" class="edge">
<title>Node1&#45;&gt;Node7</title>
<path fill="none" stroke="midnightblue" d="M203.07,-280.32C218.96,-271.74 243.51,-258.49 261.96,-248.52"/>
<polygon fill="midnightblue" stroke="midnightblue" points="263.84,-251.49 270.97,-243.65 260.51,-245.33 263.84,-251.49"/>
</g>
<!-- Node3 -->
<g id="node3" class="node">
<title>Node3</title>
<g id="a_node3"><a xlink:href="fitdatamessage_8h_source.html" target="_top" xlink:title=" ">
<polygon fill="none" stroke="black" points="37.5,-168.5 37.5,-187.5 138.5,-187.5 138.5,-168.5 37.5,-168.5"/>
<text text-anchor="middle" x="88" y="-175.5" font-family="Helvetica,sans-Serif" font-size="10.00">fitdatamessage.h</text>
</a>
</g>
</g>
<!-- Node2&#45;&gt;Node3 -->
<g id="edge2" class="edge">
<title>Node2&#45;&gt;Node3</title>
<path fill="none" stroke="midnightblue" d="M88,-224.08C88,-217.01 88,-206.86 88,-197.99"/>
<polygon fill="midnightblue" stroke="midnightblue" points="91.5,-197.75 88,-187.75 84.5,-197.75 91.5,-197.75"/>
</g>
<!-- Node4 -->
<g id="node4" class="node">
<title>Node4</title>
<g id="a_node4"><a xlink:href="QtFit__global_8h_source.html" target="_top" xlink:title=" ">
<polygon fill="none" stroke="black" points="46,-56.5 46,-75.5 130,-75.5 130,-56.5 46,-56.5"/>
<text text-anchor="middle" x="88" y="-63.5" font-family="Helvetica,sans-Serif" font-size="10.00">QtFit_global.h</text>
</a>
</g>
</g>
<!-- Node3&#45;&gt;Node4 -->
<g id="edge3" class="edge">
<title>Node3&#45;&gt;Node4</title>
<path fill="none" stroke="midnightblue" d="M86.26,-168.42C84.53,-159.4 81.99,-144.77 81,-132 79.8,-116.42 81.91,-98.8 84.12,-85.84"/>
<polygon fill="midnightblue" stroke="midnightblue" points="87.6,-86.29 86.01,-75.82 80.72,-84.99 87.6,-86.29"/>
</g>
<!-- Node6 -->
<g id="node6" class="node">
<title>Node6</title>
<g id="a_node6"><a xlink:href="types_8h.html" target="_top" xlink:title="Types defined by the ANT+ FIT SDK.">
<polygon fill="none" stroke="black" points="89.5,-112.5 89.5,-131.5 142.5,-131.5 142.5,-112.5 89.5,-112.5"/>
<text text-anchor="middle" x="116" y="-119.5" font-family="Helvetica,sans-Serif" font-size="10.00">types.h</text>
</a>
</g>
</g>
<!-- Node3&#45;&gt;Node6 -->
<g id="edge5" class="edge">
<title>Node3&#45;&gt;Node6</title>
<path fill="none" stroke="midnightblue" d="M92.62,-168.08C96.46,-160.69 102.02,-149.95 106.76,-140.81"/>
<polygon fill="midnightblue" stroke="midnightblue" points="109.97,-142.24 111.46,-131.75 103.75,-139.02 109.97,-142.24"/>
</g>
<!-- Node5 -->
<g id="node5" class="node">
<title>Node5</title>
<g id="a_node5"><a xlink:title=" ">
<polygon fill="none" stroke="#bfbfbf" points="58.5,-0.5 58.5,-19.5 117.5,-19.5 117.5,-0.5 58.5,-0.5"/>
<text text-anchor="middle" x="88" y="-7.5" font-family="Helvetica,sans-Serif" font-size="10.00">QtGlobal</text>
</a>
</g>
</g>
<!-- Node4&#45;&gt;Node5 -->
<g id="edge4" class="edge">
<title>Node4&#45;&gt;Node5</title>
<path fill="none" stroke="midnightblue" d="M88,-56.08C88,-49.01 88,-38.86 88,-29.99"/>
<polygon fill="midnightblue" stroke="midnightblue" points="91.5,-29.75 88,-19.75 84.5,-29.75 91.5,-29.75"/>
</g>
<!-- Node6&#45;&gt;Node4 -->
<g id="edge6" class="edge">
<title>Node6&#45;&gt;Node4</title>
<path fill="none" stroke="midnightblue" d="M111.38,-112.08C107.54,-104.69 101.98,-93.95 97.24,-84.81"/>
<polygon fill="midnightblue" stroke="midnightblue" points="100.25,-83.02 92.54,-75.75 94.03,-86.24 100.25,-83.02"/>
</g>
</g>
</svg>
