<?xml version="1.0" encoding="UTF-8" standalone="no"?>
<!DOCTYPE svg PUBLIC "-//W3C//DTD SVG 1.1//EN"
 "http://www.w3.org/Graphics/SVG/1.1/DTD/svg11.dtd">
<!-- Generated by graphviz version 2.43.0 (0)
 -->
<!-- Title: timestampcorrelationmessage.cpp Pages: 1 -->
<svg width="506pt" height="308pt"
 viewBox="0.00 0.00 505.50 308.00" xmlns="http://www.w3.org/2000/svg" xmlns:xlink="http://www.w3.org/1999/xlink">
<g id="graph0" class="graph" transform="scale(1 1) rotate(0) translate(4 304)">
<title>timestampcorrelationmessage.cpp</title>
<!-- Node1 -->
<g id="node1" class="node">
<title>Node1</title>
<g id="a_node1"><a xlink:title=" ">
<polygon fill="#bfbfbf" stroke="black" points="170.5,-280.5 170.5,-299.5 357.5,-299.5 357.5,-280.5 170.5,-280.5"/>
<text text-anchor="middle" x="264" y="-287.5" font-family="Helvetica,sans-Serif" font-size="10.00">timestampcorrelationmessage.cpp</text>
</a>
</g>
</g>
<!-- Node2 -->
<g id="node2" class="node">
<title>Node2</title>
<g id="a_node2"><a xlink:href="timestampcorrelationmessage_8h.html" target="_top" xlink:title=" ">
<polygon fill="none" stroke="black" points="0,-224.5 0,-243.5 176,-243.5 176,-224.5 0,-224.5"/>
<text text-anchor="middle" x="88" y="-231.5" font-family="Helvetica,sans-Serif" font-size="10.00">timestampcorrelationmessage.h</text>
</a>
</g>
</g>
<!-- Node1&#45;&gt;Node2 -->
<g id="edge1" class="edge">
<title>Node1&#45;&gt;Node2</title>
<path fill="none" stroke="midnightblue" d="M236.11,-280.44C206.25,-271.28 158.69,-256.69 125.54,-246.52"/>
<polygon fill="midnightblue" stroke="midnightblue" points="126.34,-243.1 115.76,-243.52 124.29,-249.8 126.34,-243.1"/>
</g>
<!-- Node7 -->
<g id="node7" class="node">
<title>Node7</title>
<g id="a_node7"><a xlink:title=" ">
<polygon fill="none" stroke="#bfbfbf" points="169,-56.5 169,-75.5 225,-75.5 225,-56.5 169,-56.5"/>
<text text-anchor="middle" x="197" y="-63.5" font-family="Helvetica,sans-Serif" font-size="10.00">QDebug</text>
</a>
</g>
</g>
<!-- Node1&#45;&gt;Node7 -->
<g id="edge9" class="edge">
<title>Node1&#45;&gt;Node7</title>
<path fill="none" stroke="midnightblue" d="M252.98,-280.27C243.39,-272.01 229.97,-258.71 223,-244 197.79,-190.77 195.66,-119.27 196.25,-85.78"/>
<polygon fill="midnightblue" stroke="midnightblue" points="199.76,-85.71 196.54,-75.62 192.76,-85.51 199.76,-85.71"/>
</g>
<!-- Node8 -->
<g id="node8" class="node">
<title>Node8</title>
<g id="a_node8"><a xlink:title=" ">
<polygon fill="none" stroke="#bfbfbf" points="231.5,-224.5 231.5,-243.5 418.5,-243.5 418.5,-224.5 231.5,-224.5"/>
<text text-anchor="middle" x="325" y="-231.5" font-family="Helvetica,sans-Serif" font-size="10.00">timestampcorrelationmessage_p.h</text>
</a>
</g>
</g>
<!-- Node1&#45;&gt;Node8 -->
<g id="edge8" class="edge">
<title>Node1&#45;&gt;Node8</title>
<path fill="none" stroke="midnightblue" d="M273.8,-280.32C282.82,-272.34 296.41,-260.31 307.32,-250.65"/>
<polygon fill="midnightblue" stroke="midnightblue" points="309.85,-253.08 315.02,-243.83 305.21,-247.84 309.85,-253.08"/>
</g>
<!-- Node9 -->
<g id="node9" class="node">
<title>Node9</title>
<g id="a_node9"><a xlink:title=" ">
<polygon fill="none" stroke="#bfbfbf" points="436.5,-224.5 436.5,-243.5 497.5,-243.5 497.5,-224.5 436.5,-224.5"/>
<text text-anchor="middle" x="467" y="-231.5" font-family="Helvetica,sans-Serif" font-size="10.00">QtEndian</text>
</a>
</g>
</g>
<!-- Node1&#45;&gt;Node9 -->
<g id="edge10" class="edge">
<title>Node1&#45;&gt;Node9</title>
<path fill="none" stroke="midnightblue" d="M296.17,-280.44C331.47,-271.05 388.21,-255.96 426.51,-245.77"/>
<polygon fill="midnightblue" stroke="midnightblue" points="427.55,-249.12 436.31,-243.16 425.75,-242.35 427.55,-249.12"/>
</g>
<!-- Node3 -->
<g id="node3" class="node">
<title>Node3</title>
<g id="a_node3"><a xlink:href="fitdatamessage_8h_source.html" target="_top" xlink:title=" ">
<polygon fill="none" stroke="black" points="40.5,-168.5 40.5,-187.5 141.5,-187.5 141.5,-168.5 40.5,-168.5"/>
<text text-anchor="middle" x="91" y="-175.5" font-family="Helvetica,sans-Serif" font-size="10.00">fitdatamessage.h</text>
</a>
</g>
</g>
<!-- Node2&#45;&gt;Node3 -->
<g id="edge2" class="edge">
<title>Node2&#45;&gt;Node3</title>
<path fill="none" stroke="midnightblue" d="M88.5,-224.08C88.89,-217.01 89.45,-206.86 89.95,-197.99"/>
<polygon fill="midnightblue" stroke="midnightblue" points="93.45,-197.93 90.51,-187.75 86.46,-197.54 93.45,-197.93"/>
</g>
<!-- Node4 -->
<g id="node4" class="node">
<title>Node4</title>
<g id="a_node4"><a xlink:href="QtFit__global_8h_source.html" target="_top" xlink:title=" ">
<polygon fill="none" stroke="black" points="60,-56.5 60,-75.5 144,-75.5 144,-56.5 60,-56.5"/>
<text text-anchor="middle" x="102" y="-63.5" font-family="Helvetica,sans-Serif" font-size="10.00">QtFit_global.h</text>
</a>
</g>
</g>
<!-- Node3&#45;&gt;Node4 -->
<g id="edge3" class="edge">
<title>Node3&#45;&gt;Node4</title>
<path fill="none" stroke="midnightblue" d="M91.86,-168.37C93.64,-150.62 97.73,-109.67 100.14,-85.6"/>
<polygon fill="midnightblue" stroke="midnightblue" points="103.63,-85.89 101.14,-75.59 96.66,-85.19 103.63,-85.89"/>
</g>
<!-- Node6 -->
<g id="node6" class="node">
<title>Node6</title>
<g id="a_node6"><a xlink:href="types_8h.html" target="_top" xlink:title="Types defined by the ANT+ FIT SDK.">
<polygon fill="none" stroke="black" points="119.5,-112.5 119.5,-131.5 172.5,-131.5 172.5,-112.5 119.5,-112.5"/>
<text text-anchor="middle" x="146" y="-119.5" font-family="Helvetica,sans-Serif" font-size="10.00">types.h</text>
</a>
</g>
</g>
<!-- Node3&#45;&gt;Node6 -->
<g id="edge5" class="edge">
<title>Node3&#45;&gt;Node6</title>
<path fill="none" stroke="midnightblue" d="M100.08,-168.08C108.17,-160.14 120.2,-148.34 129.91,-138.8"/>
<polygon fill="midnightblue" stroke="midnightblue" points="132.4,-141.25 137.09,-131.75 127.5,-136.26 132.4,-141.25"/>
</g>
<!-- Node5 -->
<g id="node5" class="node">
<title>Node5</title>
<g id="a_node5"><a xlink:title=" ">
<polygon fill="none" stroke="#bfbfbf" points="72.5,-0.5 72.5,-19.5 131.5,-19.5 131.5,-0.5 72.5,-0.5"/>
<text text-anchor="middle" x="102" y="-7.5" font-family="Helvetica,sans-Serif" font-size="10.00">QtGlobal</text>
</a>
</g>
</g>
<!-- Node4&#45;&gt;Node5 -->
<g id="edge4" class="edge">
<title>Node4&#45;&gt;Node5</title>
<path fill="none" stroke="midnightblue" d="M102,-56.08C102,-49.01 102,-38.86 102,-29.99"/>
<polygon fill="midnightblue" stroke="midnightblue" points="105.5,-29.75 102,-19.75 98.5,-29.75 105.5,-29.75"/>
</g>
<!-- Node6&#45;&gt;Node4 -->
<g id="edge6" class="edge">
<title>Node6&#45;&gt;Node4</title>
<path fill="none" stroke="midnightblue" d="M138.73,-112.08C132.46,-104.38 123.21,-93.03 115.57,-83.65"/>
<polygon fill="midnightblue" stroke="midnightblue" points="118.16,-81.29 109.13,-75.75 112.73,-85.71 118.16,-81.29"/>
</g>
<!-- Node6&#45;&gt;Node7 -->
<g id="edge7" class="edge">
<title>Node6&#45;&gt;Node7</title>
<path fill="none" stroke="midnightblue" d="M154.42,-112.08C161.85,-104.22 172.85,-92.57 181.81,-83.08"/>
<polygon fill="midnightblue" stroke="midnightblue" points="184.41,-85.42 188.74,-75.75 179.32,-80.62 184.41,-85.42"/>
</g>
</g>
</svg>
