<?xml version="1.0" encoding="UTF-8" standalone="no"?>
<!DOCTYPE svg PUBLIC "-//W3C//DTD SVG 1.1//EN"
 "http://www.w3.org/Graphics/SVG/1.1/DTD/svg11.dtd">
<!-- Generated by graphviz version 2.43.0 (0)
 -->
<!-- Title: types.h Pages: 1 -->
<svg width="260pt" height="196pt"
 viewBox="0.00 0.00 259.50 196.00" xmlns="http://www.w3.org/2000/svg" xmlns:xlink="http://www.w3.org/1999/xlink">
<g id="graph0" class="graph" transform="scale(1 1) rotate(0) translate(4 192)">
<title>types.h</title>
<!-- Node1 -->
<g id="node1" class="node">
<title>Node1</title>
<g id="a_node1"><a xlink:title="Types defined by the ANT+ FIT SDK.">
<polygon fill="#bfbfbf" stroke="black" points="95.5,-168.5 95.5,-187.5 148.5,-187.5 148.5,-168.5 95.5,-168.5"/>
<text text-anchor="middle" x="122" y="-175.5" font-family="Helvetica,sans-Serif" font-size="10.00">types.h</text>
</a>
</g>
</g>
<!-- Node2 -->
<g id="node2" class="node">
<title>Node2</title>
<g id="a_node2"><a xlink:href="fitdatamessage_8h_source.html" target="_top" xlink:title=" ">
<polygon fill="none" stroke="black" points="71.5,-112.5 71.5,-131.5 172.5,-131.5 172.5,-112.5 71.5,-112.5"/>
<text text-anchor="middle" x="122" y="-119.5" font-family="Helvetica,sans-Serif" font-size="10.00">fitdatamessage.h</text>
</a>
</g>
</g>
<!-- Node1&#45;&gt;Node2 -->
<g id="edge1" class="edge">
<title>Node1&#45;&gt;Node2</title>
<path fill="none" stroke="midnightblue" d="M122,-157.8C122,-148.91 122,-138.78 122,-131.75"/>
<polygon fill="midnightblue" stroke="midnightblue" points="118.5,-158.08 122,-168.08 125.5,-158.08 118.5,-158.08"/>
</g>
<!-- Node3 -->
<g id="node3" class="node">
<title>Node3</title>
<g id="a_node3"><a xlink:href="fileidmessage_8h_source.html" target="_top" xlink:title=" ">
<polygon fill="none" stroke="black" points="0,-56.5 0,-75.5 94,-75.5 94,-56.5 0,-56.5"/>
<text text-anchor="middle" x="47" y="-63.5" font-family="Helvetica,sans-Serif" font-size="10.00">fileidmessage.h</text>
</a>
</g>
</g>
<!-- Node2&#45;&gt;Node3 -->
<g id="edge2" class="edge">
<title>Node2&#45;&gt;Node3</title>
<path fill="none" stroke="midnightblue" d="M101.69,-106.38C88.14,-96.62 70.76,-84.11 59.27,-75.83"/>
<polygon fill="midnightblue" stroke="midnightblue" points="99.79,-109.32 109.95,-112.32 103.88,-103.64 99.79,-109.32"/>
</g>
<!-- Node4 -->
<g id="node4" class="node">
<title>Node4</title>
<g id="a_node4"><a xlink:href="fitdatamessages_8cpp.html" target="_top" xlink:title=" ">
<polygon fill="none" stroke="black" points="25,-0.5 25,-19.5 143,-19.5 143,-0.5 25,-0.5"/>
<text text-anchor="middle" x="84" y="-7.5" font-family="Helvetica,sans-Serif" font-size="10.00">fitdatamessages.cpp</text>
</a>
</g>
</g>
<!-- Node2&#45;&gt;Node4 -->
<g id="edge4" class="edge">
<title>Node2&#45;&gt;Node4</title>
<path fill="none" stroke="midnightblue" d="M117.28,-102.78C113.73,-89.65 108.54,-71.58 103,-56 98.39,-43.06 92.01,-28.47 87.94,-19.51"/>
<polygon fill="midnightblue" stroke="midnightblue" points="113.9,-103.71 119.85,-112.49 120.67,-101.92 113.9,-103.71"/>
</g>
<!-- Node5 -->
<g id="node5" class="node">
<title>Node5</title>
<g id="a_node5"><a xlink:href="fitstreamreader_8h_source.html" target="_top" xlink:title=" ">
<polygon fill="none" stroke="black" points="150.5,-56.5 150.5,-75.5 251.5,-75.5 251.5,-56.5 150.5,-56.5"/>
<text text-anchor="middle" x="201" y="-63.5" font-family="Helvetica,sans-Serif" font-size="10.00">fitstreamreader.h</text>
</a>
</g>
</g>
<!-- Node2&#45;&gt;Node5 -->
<g id="edge5" class="edge">
<title>Node2&#45;&gt;Node5</title>
<path fill="none" stroke="midnightblue" d="M143.03,-106.62C157.47,-96.76 176.14,-83.99 188.34,-75.65"/>
<polygon fill="midnightblue" stroke="midnightblue" points="140.97,-103.79 134.69,-112.32 144.92,-109.57 140.97,-103.79"/>
</g>
<!-- Node3&#45;&gt;Node4 -->
<g id="edge3" class="edge">
<title>Node3&#45;&gt;Node4</title>
<path fill="none" stroke="midnightblue" d="M58.95,-47.57C65.31,-38.27 72.87,-27.25 78,-19.75"/>
<polygon fill="midnightblue" stroke="midnightblue" points="55.87,-45.86 53.11,-56.08 61.65,-49.81 55.87,-45.86"/>
</g>
</g>
</svg>
