<?xml version="1.0" encoding="UTF-8" standalone="no"?>
<!DOCTYPE svg PUBLIC "-//W3C//DTD SVG 1.1//EN"
 "http://www.w3.org/Graphics/SVG/1.1/DTD/svg11.dtd">
<!-- Generated by graphviz version 2.43.0 (0)
 -->
<!-- Title: types.h Pages: 1 -->
<svg width="222pt" height="140pt"
 viewBox="0.00 0.00 221.50 140.00" xmlns="http://www.w3.org/2000/svg" xmlns:xlink="http://www.w3.org/1999/xlink">
<g id="graph0" class="graph" transform="scale(1 1) rotate(0) translate(4 136)">
<title>types.h</title>
<!-- Node1 -->
<g id="node1" class="node">
<title>Node1</title>
<g id="a_node1"><a xlink:title="Types defined by the ANT+ FIT SDK.">
<polygon fill="#bfbfbf" stroke="black" points="78.5,-112.5 78.5,-131.5 131.5,-131.5 131.5,-112.5 78.5,-112.5"/>
<text text-anchor="middle" x="105" y="-119.5" font-family="Helvetica,sans-Serif" font-size="10.00">types.h</text>
</a>
</g>
</g>
<!-- Node2 -->
<g id="node2" class="node">
<title>Node2</title>
<g id="a_node2"><a xlink:href="fitdatamessage_8h_source.html" target="_top" xlink:title=" ">
<polygon fill="none" stroke="black" points="54.5,-56.5 54.5,-75.5 155.5,-75.5 155.5,-56.5 54.5,-56.5"/>
<text text-anchor="middle" x="105" y="-63.5" font-family="Helvetica,sans-Serif" font-size="10.00">fitdatamessage.h</text>
</a>
</g>
</g>
<!-- Node1&#45;&gt;Node2 -->
<g id="edge1" class="edge">
<title>Node1&#45;&gt;Node2</title>
<path fill="none" stroke="midnightblue" d="M105,-101.8C105,-92.91 105,-82.78 105,-75.75"/>
<polygon fill="midnightblue" stroke="midnightblue" points="101.5,-102.08 105,-112.08 108.5,-102.08 101.5,-102.08"/>
</g>
<!-- Node3 -->
<g id="node3" class="node">
<title>Node3</title>
<g id="a_node3"><a xlink:href="fileidmessage_8h_source.html" target="_top" xlink:title=" ">
<polygon fill="none" stroke="black" points="0,-0.5 0,-19.5 94,-19.5 94,-0.5 0,-0.5"/>
<text text-anchor="middle" x="47" y="-7.5" font-family="Helvetica,sans-Serif" font-size="10.00">fileidmessage.h</text>
</a>
</g>
</g>
<!-- Node2&#45;&gt;Node3 -->
<g id="edge2" class="edge">
<title>Node2&#45;&gt;Node3</title>
<path fill="none" stroke="midnightblue" d="M88.09,-49.25C77.8,-39.67 65.03,-27.79 56.49,-19.83"/>
<polygon fill="midnightblue" stroke="midnightblue" points="85.98,-52.07 95.68,-56.32 90.75,-46.95 85.98,-52.07"/>
</g>
<!-- Node4 -->
<g id="node4" class="node">
<title>Node4</title>
<g id="a_node4"><a xlink:href="fitstreamreader_8h_source.html" target="_top" xlink:title=" ">
<polygon fill="none" stroke="black" points="112.5,-0.5 112.5,-19.5 213.5,-19.5 213.5,-0.5 112.5,-0.5"/>
<text text-anchor="middle" x="163" y="-7.5" font-family="Helvetica,sans-Serif" font-size="10.00">fitstreamreader.h</text>
</a>
</g>
</g>
<!-- Node2&#45;&gt;Node4 -->
<g id="edge3" class="edge">
<title>Node2&#45;&gt;Node4</title>
<path fill="none" stroke="midnightblue" d="M121.91,-49.25C132.2,-39.67 144.97,-27.79 153.51,-19.83"/>
<polygon fill="midnightblue" stroke="midnightblue" points="119.25,-46.95 114.32,-56.32 124.02,-52.07 119.25,-46.95"/>
</g>
</g>
</svg>
