<?xml version="1.0" encoding="UTF-8" standalone="no"?>
<!DOCTYPE svg PUBLIC "-//W3C//DTD SVG 1.1//EN"
 "http://www.w3.org/Graphics/SVG/1.1/DTD/svg11.dtd">
<!-- Generated by graphviz version 2.43.0 (0)
 -->
<!-- Title: videoclipmessage.cpp Pages: 1 -->
<svg width="420pt" height="308pt"
 viewBox="0.00 0.00 419.50 308.00" xmlns="http://www.w3.org/2000/svg" xmlns:xlink="http://www.w3.org/1999/xlink">
<g id="graph0" class="graph" transform="scale(1 1) rotate(0) translate(4 304)">
<title>videoclipmessage.cpp</title>
<!-- Node1 -->
<g id="node1" class="node">
<title>Node1</title>
<g id="a_node1"><a xlink:title=" ">
<polygon fill="#bfbfbf" stroke="black" points="186.5,-280.5 186.5,-299.5 311.5,-299.5 311.5,-280.5 186.5,-280.5"/>
<text text-anchor="middle" x="249" y="-287.5" font-family="Helvetica,sans-Serif" font-size="10.00">videoclipmessage.cpp</text>
</a>
</g>
</g>
<!-- Node2 -->
<g id="node2" class="node">
<title>Node2</title>
<g id="a_node2"><a xlink:href="videoclipmessage_8h.html" target="_top" xlink:title=" ">
<polygon fill="none" stroke="black" points="0,-224.5 0,-243.5 114,-243.5 114,-224.5 0,-224.5"/>
<text text-anchor="middle" x="57" y="-231.5" font-family="Helvetica,sans-Serif" font-size="10.00">videoclipmessage.h</text>
</a>
</g>
</g>
<!-- Node1&#45;&gt;Node2 -->
<g id="edge1" class="edge">
<title>Node1&#45;&gt;Node2</title>
<path fill="none" stroke="midnightblue" d="M218.58,-280.44C185.72,-271.2 133.22,-256.44 97.03,-246.26"/>
<polygon fill="midnightblue" stroke="midnightblue" points="97.85,-242.85 87.28,-243.52 95.96,-249.59 97.85,-242.85"/>
</g>
<!-- Node7 -->
<g id="node7" class="node">
<title>Node7</title>
<g id="a_node7"><a xlink:title=" ">
<polygon fill="none" stroke="#bfbfbf" points="132.5,-224.5 132.5,-243.5 257.5,-243.5 257.5,-224.5 132.5,-224.5"/>
<text text-anchor="middle" x="195" y="-231.5" font-family="Helvetica,sans-Serif" font-size="10.00">videoclipmessage_p.h</text>
</a>
</g>
</g>
<!-- Node1&#45;&gt;Node7 -->
<g id="edge7" class="edge">
<title>Node1&#45;&gt;Node7</title>
<path fill="none" stroke="midnightblue" d="M240.08,-280.08C232.22,-272.22 220.57,-260.57 211.08,-251.08"/>
<polygon fill="midnightblue" stroke="midnightblue" points="213.3,-248.35 203.75,-243.75 208.35,-253.3 213.3,-248.35"/>
</g>
<!-- Node8 -->
<g id="node8" class="node">
<title>Node8</title>
<g id="a_node8"><a xlink:title=" ">
<polygon fill="none" stroke="#bfbfbf" points="276,-224.5 276,-243.5 332,-243.5 332,-224.5 276,-224.5"/>
<text text-anchor="middle" x="304" y="-231.5" font-family="Helvetica,sans-Serif" font-size="10.00">QDebug</text>
</a>
</g>
</g>
<!-- Node1&#45;&gt;Node8 -->
<g id="edge8" class="edge">
<title>Node1&#45;&gt;Node8</title>
<path fill="none" stroke="midnightblue" d="M258.08,-280.08C266.17,-272.14 278.2,-260.34 287.91,-250.8"/>
<polygon fill="midnightblue" stroke="midnightblue" points="290.4,-253.25 295.09,-243.75 285.5,-248.26 290.4,-253.25"/>
</g>
<!-- Node9 -->
<g id="node9" class="node">
<title>Node9</title>
<g id="a_node9"><a xlink:title=" ">
<polygon fill="none" stroke="#bfbfbf" points="350.5,-224.5 350.5,-243.5 411.5,-243.5 411.5,-224.5 350.5,-224.5"/>
<text text-anchor="middle" x="381" y="-231.5" font-family="Helvetica,sans-Serif" font-size="10.00">QtEndian</text>
</a>
</g>
</g>
<!-- Node1&#45;&gt;Node9 -->
<g id="edge9" class="edge">
<title>Node1&#45;&gt;Node9</title>
<path fill="none" stroke="midnightblue" d="M269.92,-280.44C291.74,-271.52 326.15,-257.44 350.89,-247.32"/>
<polygon fill="midnightblue" stroke="midnightblue" points="352.25,-250.54 360.18,-243.52 349.6,-244.06 352.25,-250.54"/>
</g>
<!-- Node3 -->
<g id="node3" class="node">
<title>Node3</title>
<g id="a_node3"><a xlink:href="fitdatamessage_8h_source.html" target="_top" xlink:title=" ">
<polygon fill="none" stroke="black" points="6.5,-168.5 6.5,-187.5 107.5,-187.5 107.5,-168.5 6.5,-168.5"/>
<text text-anchor="middle" x="57" y="-175.5" font-family="Helvetica,sans-Serif" font-size="10.00">fitdatamessage.h</text>
</a>
</g>
</g>
<!-- Node2&#45;&gt;Node3 -->
<g id="edge2" class="edge">
<title>Node2&#45;&gt;Node3</title>
<path fill="none" stroke="midnightblue" d="M57,-224.08C57,-217.01 57,-206.86 57,-197.99"/>
<polygon fill="midnightblue" stroke="midnightblue" points="60.5,-197.75 57,-187.75 53.5,-197.75 60.5,-197.75"/>
</g>
<!-- Node4 -->
<g id="node4" class="node">
<title>Node4</title>
<g id="a_node4"><a xlink:href="QtFit__global_8h_source.html" target="_top" xlink:title=" ">
<polygon fill="none" stroke="black" points="15,-56.5 15,-75.5 99,-75.5 99,-56.5 15,-56.5"/>
<text text-anchor="middle" x="57" y="-63.5" font-family="Helvetica,sans-Serif" font-size="10.00">QtFit_global.h</text>
</a>
</g>
</g>
<!-- Node3&#45;&gt;Node4 -->
<g id="edge3" class="edge">
<title>Node3&#45;&gt;Node4</title>
<path fill="none" stroke="midnightblue" d="M55.26,-168.42C53.53,-159.4 50.99,-144.77 50,-132 48.8,-116.42 50.91,-98.8 53.12,-85.84"/>
<polygon fill="midnightblue" stroke="midnightblue" points="56.6,-86.29 55.01,-75.82 49.72,-84.99 56.6,-86.29"/>
</g>
<!-- Node6 -->
<g id="node6" class="node">
<title>Node6</title>
<g id="a_node6"><a xlink:href="types_8h.html" target="_top" xlink:title="Types defined by the ANT+ FIT SDK.">
<polygon fill="none" stroke="black" points="58.5,-112.5 58.5,-131.5 111.5,-131.5 111.5,-112.5 58.5,-112.5"/>
<text text-anchor="middle" x="85" y="-119.5" font-family="Helvetica,sans-Serif" font-size="10.00">types.h</text>
</a>
</g>
</g>
<!-- Node3&#45;&gt;Node6 -->
<g id="edge5" class="edge">
<title>Node3&#45;&gt;Node6</title>
<path fill="none" stroke="midnightblue" d="M61.62,-168.08C65.46,-160.69 71.02,-149.95 75.76,-140.81"/>
<polygon fill="midnightblue" stroke="midnightblue" points="78.97,-142.24 80.46,-131.75 72.75,-139.02 78.97,-142.24"/>
</g>
<!-- Node5 -->
<g id="node5" class="node">
<title>Node5</title>
<g id="a_node5"><a xlink:title=" ">
<polygon fill="none" stroke="#bfbfbf" points="27.5,-0.5 27.5,-19.5 86.5,-19.5 86.5,-0.5 27.5,-0.5"/>
<text text-anchor="middle" x="57" y="-7.5" font-family="Helvetica,sans-Serif" font-size="10.00">QtGlobal</text>
</a>
</g>
</g>
<!-- Node4&#45;&gt;Node5 -->
<g id="edge4" class="edge">
<title>Node4&#45;&gt;Node5</title>
<path fill="none" stroke="midnightblue" d="M57,-56.08C57,-49.01 57,-38.86 57,-29.99"/>
<polygon fill="midnightblue" stroke="midnightblue" points="60.5,-29.75 57,-19.75 53.5,-29.75 60.5,-29.75"/>
</g>
<!-- Node6&#45;&gt;Node4 -->
<g id="edge6" class="edge">
<title>Node6&#45;&gt;Node4</title>
<path fill="none" stroke="midnightblue" d="M80.38,-112.08C76.54,-104.69 70.98,-93.95 66.24,-84.81"/>
<polygon fill="midnightblue" stroke="midnightblue" points="69.25,-83.02 61.54,-75.75 63.03,-86.24 69.25,-83.02"/>
</g>
</g>
</svg>
