<?xml version="1.0" encoding="UTF-8" standalone="no"?>
<!DOCTYPE svg PUBLIC "-//W3C//DTD SVG 1.1//EN"
 "http://www.w3.org/Graphics/SVG/1.1/DTD/svg11.dtd">
<!-- Generated by graphviz version 2.43.0 (0)
 -->
<!-- Title: videodescriptionmessage.cpp Pages: 1 -->
<svg width="457pt" height="308pt"
 viewBox="0.00 0.00 457.00 308.00" xmlns="http://www.w3.org/2000/svg" xmlns:xlink="http://www.w3.org/1999/xlink">
<g id="graph0" class="graph" transform="scale(1 1) rotate(0) translate(4 304)">
<title>videodescriptionmessage.cpp</title>
<!-- Node1 -->
<g id="node1" class="node">
<title>Node1</title>
<g id="a_node1"><a xlink:title="Defines the VideoDescriptionMessage, and VideoDescriptionMessagePrivate classes.">
<polygon fill="#bfbfbf" stroke="black" points="152.5,-280.5 152.5,-299.5 314.5,-299.5 314.5,-280.5 152.5,-280.5"/>
<text text-anchor="middle" x="233.5" y="-287.5" font-family="Helvetica,sans-Serif" font-size="10.00">videodescriptionmessage.cpp</text>
</a>
</g>
</g>
<!-- Node2 -->
<g id="node2" class="node">
<title>Node2</title>
<g id="a_node2"><a xlink:href="videodescriptionmessage_8h.html" target="_top" xlink:title="Declares the VideoDescriptionMessage class.">
<polygon fill="none" stroke="black" points="0,-224.5 0,-243.5 151,-243.5 151,-224.5 0,-224.5"/>
<text text-anchor="middle" x="75.5" y="-231.5" font-family="Helvetica,sans-Serif" font-size="10.00">videodescriptionmessage.h</text>
</a>
</g>
</g>
<!-- Node1&#45;&gt;Node2 -->
<g id="edge1" class="edge">
<title>Node1&#45;&gt;Node2</title>
<path fill="none" stroke="midnightblue" d="M208.46,-280.44C181.88,-271.36 139.69,-256.94 109.98,-246.78"/>
<polygon fill="midnightblue" stroke="midnightblue" points="111.01,-243.44 100.42,-243.52 108.75,-250.06 111.01,-243.44"/>
</g>
<!-- Node7 -->
<g id="node7" class="node">
<title>Node7</title>
<g id="a_node7"><a xlink:title=" ">
<polygon fill="none" stroke="#bfbfbf" points="145.5,-56.5 145.5,-75.5 201.5,-75.5 201.5,-56.5 145.5,-56.5"/>
<text text-anchor="middle" x="173.5" y="-63.5" font-family="Helvetica,sans-Serif" font-size="10.00">QDebug</text>
</a>
</g>
</g>
<!-- Node1&#45;&gt;Node7 -->
<g id="edge9" class="edge">
<title>Node1&#45;&gt;Node7</title>
<path fill="none" stroke="midnightblue" d="M224.41,-280.27C216.2,-271.82 204.52,-258.22 198.5,-244 175.54,-189.81 172.88,-118.77 173.04,-85.59"/>
<polygon fill="midnightblue" stroke="midnightblue" points="176.54,-85.57 173.19,-75.52 169.54,-85.47 176.54,-85.57"/>
</g>
<!-- Node8 -->
<g id="node8" class="node">
<title>Node8</title>
<g id="a_node8"><a xlink:title=" ">
<polygon fill="none" stroke="#bfbfbf" points="207.5,-224.5 207.5,-243.5 369.5,-243.5 369.5,-224.5 207.5,-224.5"/>
<text text-anchor="middle" x="288.5" y="-231.5" font-family="Helvetica,sans-Serif" font-size="10.00">videodescriptionmessage_p.h</text>
</a>
</g>
</g>
<!-- Node1&#45;&gt;Node8 -->
<g id="edge8" class="edge">
<title>Node1&#45;&gt;Node8</title>
<path fill="none" stroke="midnightblue" d="M242.58,-280.08C250.67,-272.14 262.7,-260.34 272.41,-250.8"/>
<polygon fill="midnightblue" stroke="midnightblue" points="274.9,-253.25 279.59,-243.75 270,-248.26 274.9,-253.25"/>
</g>
<!-- Node9 -->
<g id="node9" class="node">
<title>Node9</title>
<g id="a_node9"><a xlink:title=" ">
<polygon fill="none" stroke="#bfbfbf" points="388,-224.5 388,-243.5 449,-243.5 449,-224.5 388,-224.5"/>
<text text-anchor="middle" x="418.5" y="-231.5" font-family="Helvetica,sans-Serif" font-size="10.00">QtEndian</text>
</a>
</g>
</g>
<!-- Node1&#45;&gt;Node9 -->
<g id="edge10" class="edge">
<title>Node1&#45;&gt;Node9</title>
<path fill="none" stroke="midnightblue" d="M262.81,-280.44C294.34,-271.24 344.63,-256.56 379.49,-246.39"/>
<polygon fill="midnightblue" stroke="midnightblue" points="380.7,-249.68 389.32,-243.52 378.74,-242.96 380.7,-249.68"/>
</g>
<!-- Node3 -->
<g id="node3" class="node">
<title>Node3</title>
<g id="a_node3"><a xlink:href="abstractdatamessage_8h.html" target="_top" xlink:title="Declares the AbstractDataMessage class.">
<polygon fill="none" stroke="black" points="10,-168.5 10,-187.5 141,-187.5 141,-168.5 10,-168.5"/>
<text text-anchor="middle" x="75.5" y="-175.5" font-family="Helvetica,sans-Serif" font-size="10.00">abstractdatamessage.h</text>
</a>
</g>
</g>
<!-- Node2&#45;&gt;Node3 -->
<g id="edge2" class="edge">
<title>Node2&#45;&gt;Node3</title>
<path fill="none" stroke="midnightblue" d="M75.5,-224.08C75.5,-217.01 75.5,-206.86 75.5,-197.99"/>
<polygon fill="midnightblue" stroke="midnightblue" points="79,-197.75 75.5,-187.75 72,-197.75 79,-197.75"/>
</g>
<!-- Node4 -->
<g id="node4" class="node">
<title>Node4</title>
<g id="a_node4"><a xlink:href="QtFit__global_8h.html" target="_top" xlink:title="Global QtFit library macros.">
<polygon fill="none" stroke="black" points="38.5,-56.5 38.5,-75.5 122.5,-75.5 122.5,-56.5 38.5,-56.5"/>
<text text-anchor="middle" x="80.5" y="-63.5" font-family="Helvetica,sans-Serif" font-size="10.00">QtFit_global.h</text>
</a>
</g>
</g>
<!-- Node3&#45;&gt;Node4 -->
<g id="edge3" class="edge">
<title>Node3&#45;&gt;Node4</title>
<path fill="none" stroke="midnightblue" d="M75.89,-168.37C76.7,-150.62 78.56,-109.67 79.65,-85.6"/>
<polygon fill="midnightblue" stroke="midnightblue" points="83.15,-85.74 80.11,-75.59 76.16,-85.42 83.15,-85.74"/>
</g>
<!-- Node6 -->
<g id="node6" class="node">
<title>Node6</title>
<g id="a_node6"><a xlink:href="types_8h.html" target="_top" xlink:title="Types defined by the ANT+ FIT SDK.">
<polygon fill="none" stroke="black" points="98,-112.5 98,-131.5 151,-131.5 151,-112.5 98,-112.5"/>
<text text-anchor="middle" x="124.5" y="-119.5" font-family="Helvetica,sans-Serif" font-size="10.00">types.h</text>
</a>
</g>
</g>
<!-- Node3&#45;&gt;Node6 -->
<g id="edge5" class="edge">
<title>Node3&#45;&gt;Node6</title>
<path fill="none" stroke="midnightblue" d="M83.59,-168.08C90.66,-160.3 101.09,-148.8 109.65,-139.37"/>
<polygon fill="midnightblue" stroke="midnightblue" points="112.43,-141.51 116.56,-131.75 107.25,-136.8 112.43,-141.51"/>
</g>
<!-- Node5 -->
<g id="node5" class="node">
<title>Node5</title>
<g id="a_node5"><a xlink:title=" ">
<polygon fill="none" stroke="#bfbfbf" points="51,-0.5 51,-19.5 110,-19.5 110,-0.5 51,-0.5"/>
<text text-anchor="middle" x="80.5" y="-7.5" font-family="Helvetica,sans-Serif" font-size="10.00">QtGlobal</text>
</a>
</g>
</g>
<!-- Node4&#45;&gt;Node5 -->
<g id="edge4" class="edge">
<title>Node4&#45;&gt;Node5</title>
<path fill="none" stroke="midnightblue" d="M80.5,-56.08C80.5,-49.01 80.5,-38.86 80.5,-29.99"/>
<polygon fill="midnightblue" stroke="midnightblue" points="84,-29.75 80.5,-19.75 77,-29.75 84,-29.75"/>
</g>
<!-- Node6&#45;&gt;Node4 -->
<g id="edge6" class="edge">
<title>Node6&#45;&gt;Node4</title>
<path fill="none" stroke="midnightblue" d="M117.23,-112.08C110.96,-104.38 101.71,-93.03 94.07,-83.65"/>
<polygon fill="midnightblue" stroke="midnightblue" points="96.66,-81.29 87.63,-75.75 91.23,-85.71 96.66,-81.29"/>
</g>
<!-- Node6&#45;&gt;Node7 -->
<g id="edge7" class="edge">
<title>Node6&#45;&gt;Node7</title>
<path fill="none" stroke="midnightblue" d="M132.59,-112.08C139.66,-104.3 150.09,-92.8 158.65,-83.37"/>
<polygon fill="midnightblue" stroke="midnightblue" points="161.43,-85.51 165.56,-75.75 156.25,-80.8 161.43,-85.51"/>
</g>
</g>
</svg>
