<?xml version="1.0" encoding="UTF-8" standalone="no"?>
<!DOCTYPE svg PUBLIC "-//W3C//DTD SVG 1.1//EN"
 "http://www.w3.org/Graphics/SVG/1.1/DTD/svg11.dtd">
<!-- Generated by graphviz version 2.43.0 (0)
 -->
<!-- Title: videotitlemessage.cpp Pages: 1 -->
<svg width="424pt" height="308pt"
 viewBox="0.00 0.00 423.50 308.00" xmlns="http://www.w3.org/2000/svg" xmlns:xlink="http://www.w3.org/1999/xlink">
<g id="graph0" class="graph" transform="scale(1 1) rotate(0) translate(4 304)">
<title>videotitlemessage.cpp</title>
<!-- Node1 -->
<g id="node1" class="node">
<title>Node1</title>
<g id="a_node1"><a xlink:title=" ">
<polygon fill="#bfbfbf" stroke="black" points="189,-280.5 189,-299.5 317,-299.5 317,-280.5 189,-280.5"/>
<text text-anchor="middle" x="253" y="-287.5" font-family="Helvetica,sans-Serif" font-size="10.00">videotitlemessage.cpp</text>
</a>
</g>
</g>
<!-- Node2 -->
<g id="node2" class="node">
<title>Node2</title>
<g id="a_node2"><a xlink:href="videotitlemessage_8h.html" target="_top" xlink:title=" ">
<polygon fill="none" stroke="black" points="0,-224.5 0,-243.5 116,-243.5 116,-224.5 0,-224.5"/>
<text text-anchor="middle" x="58" y="-231.5" font-family="Helvetica,sans-Serif" font-size="10.00">videotitlemessage.h</text>
</a>
</g>
</g>
<!-- Node1&#45;&gt;Node2 -->
<g id="edge1" class="edge">
<title>Node1&#45;&gt;Node2</title>
<path fill="none" stroke="midnightblue" d="M222.1,-280.44C188.73,-271.2 135.41,-256.44 98.65,-246.26"/>
<polygon fill="midnightblue" stroke="midnightblue" points="99.33,-242.81 88.75,-243.52 97.46,-249.56 99.33,-242.81"/>
</g>
<!-- Node7 -->
<g id="node7" class="node">
<title>Node7</title>
<g id="a_node7"><a xlink:title=" ">
<polygon fill="none" stroke="#bfbfbf" points="134,-224.5 134,-243.5 262,-243.5 262,-224.5 134,-224.5"/>
<text text-anchor="middle" x="198" y="-231.5" font-family="Helvetica,sans-Serif" font-size="10.00">videotitlemessage_p.h</text>
</a>
</g>
</g>
<!-- Node1&#45;&gt;Node7 -->
<g id="edge7" class="edge">
<title>Node1&#45;&gt;Node7</title>
<path fill="none" stroke="midnightblue" d="M243.92,-280.08C235.83,-272.14 223.8,-260.34 214.09,-250.8"/>
<polygon fill="midnightblue" stroke="midnightblue" points="216.5,-248.26 206.91,-243.75 211.6,-253.25 216.5,-248.26"/>
</g>
<!-- Node8 -->
<g id="node8" class="node">
<title>Node8</title>
<g id="a_node8"><a xlink:title=" ">
<polygon fill="none" stroke="#bfbfbf" points="280,-224.5 280,-243.5 336,-243.5 336,-224.5 280,-224.5"/>
<text text-anchor="middle" x="308" y="-231.5" font-family="Helvetica,sans-Serif" font-size="10.00">QDebug</text>
</a>
</g>
</g>
<!-- Node1&#45;&gt;Node8 -->
<g id="edge8" class="edge">
<title>Node1&#45;&gt;Node8</title>
<path fill="none" stroke="midnightblue" d="M262.08,-280.08C270.17,-272.14 282.2,-260.34 291.91,-250.8"/>
<polygon fill="midnightblue" stroke="midnightblue" points="294.4,-253.25 299.09,-243.75 289.5,-248.26 294.4,-253.25"/>
</g>
<!-- Node9 -->
<g id="node9" class="node">
<title>Node9</title>
<g id="a_node9"><a xlink:title=" ">
<polygon fill="none" stroke="#bfbfbf" points="354.5,-224.5 354.5,-243.5 415.5,-243.5 415.5,-224.5 354.5,-224.5"/>
<text text-anchor="middle" x="385" y="-231.5" font-family="Helvetica,sans-Serif" font-size="10.00">QtEndian</text>
</a>
</g>
</g>
<!-- Node1&#45;&gt;Node9 -->
<g id="edge9" class="edge">
<title>Node1&#45;&gt;Node9</title>
<path fill="none" stroke="midnightblue" d="M273.92,-280.44C295.74,-271.52 330.15,-257.44 354.89,-247.32"/>
<polygon fill="midnightblue" stroke="midnightblue" points="356.25,-250.54 364.18,-243.52 353.6,-244.06 356.25,-250.54"/>
</g>
<!-- Node3 -->
<g id="node3" class="node">
<title>Node3</title>
<g id="a_node3"><a xlink:href="fitdatamessage_8h_source.html" target="_top" xlink:title=" ">
<polygon fill="none" stroke="black" points="7.5,-168.5 7.5,-187.5 108.5,-187.5 108.5,-168.5 7.5,-168.5"/>
<text text-anchor="middle" x="58" y="-175.5" font-family="Helvetica,sans-Serif" font-size="10.00">fitdatamessage.h</text>
</a>
</g>
</g>
<!-- Node2&#45;&gt;Node3 -->
<g id="edge2" class="edge">
<title>Node2&#45;&gt;Node3</title>
<path fill="none" stroke="midnightblue" d="M58,-224.08C58,-217.01 58,-206.86 58,-197.99"/>
<polygon fill="midnightblue" stroke="midnightblue" points="61.5,-197.75 58,-187.75 54.5,-197.75 61.5,-197.75"/>
</g>
<!-- Node4 -->
<g id="node4" class="node">
<title>Node4</title>
<g id="a_node4"><a xlink:href="QtFit__global_8h_source.html" target="_top" xlink:title=" ">
<polygon fill="none" stroke="black" points="16,-56.5 16,-75.5 100,-75.5 100,-56.5 16,-56.5"/>
<text text-anchor="middle" x="58" y="-63.5" font-family="Helvetica,sans-Serif" font-size="10.00">QtFit_global.h</text>
</a>
</g>
</g>
<!-- Node3&#45;&gt;Node4 -->
<g id="edge3" class="edge">
<title>Node3&#45;&gt;Node4</title>
<path fill="none" stroke="midnightblue" d="M56.26,-168.42C54.53,-159.4 51.99,-144.77 51,-132 49.8,-116.42 51.91,-98.8 54.12,-85.84"/>
<polygon fill="midnightblue" stroke="midnightblue" points="57.6,-86.29 56.01,-75.82 50.72,-84.99 57.6,-86.29"/>
</g>
<!-- Node6 -->
<g id="node6" class="node">
<title>Node6</title>
<g id="a_node6"><a xlink:href="types_8h.html" target="_top" xlink:title="Types defined by the ANT+ FIT SDK.">
<polygon fill="none" stroke="black" points="59.5,-112.5 59.5,-131.5 112.5,-131.5 112.5,-112.5 59.5,-112.5"/>
<text text-anchor="middle" x="86" y="-119.5" font-family="Helvetica,sans-Serif" font-size="10.00">types.h</text>
</a>
</g>
</g>
<!-- Node3&#45;&gt;Node6 -->
<g id="edge5" class="edge">
<title>Node3&#45;&gt;Node6</title>
<path fill="none" stroke="midnightblue" d="M62.62,-168.08C66.46,-160.69 72.02,-149.95 76.76,-140.81"/>
<polygon fill="midnightblue" stroke="midnightblue" points="79.97,-142.24 81.46,-131.75 73.75,-139.02 79.97,-142.24"/>
</g>
<!-- Node5 -->
<g id="node5" class="node">
<title>Node5</title>
<g id="a_node5"><a xlink:title=" ">
<polygon fill="none" stroke="#bfbfbf" points="28.5,-0.5 28.5,-19.5 87.5,-19.5 87.5,-0.5 28.5,-0.5"/>
<text text-anchor="middle" x="58" y="-7.5" font-family="Helvetica,sans-Serif" font-size="10.00">QtGlobal</text>
</a>
</g>
</g>
<!-- Node4&#45;&gt;Node5 -->
<g id="edge4" class="edge">
<title>Node4&#45;&gt;Node5</title>
<path fill="none" stroke="midnightblue" d="M58,-56.08C58,-49.01 58,-38.86 58,-29.99"/>
<polygon fill="midnightblue" stroke="midnightblue" points="61.5,-29.75 58,-19.75 54.5,-29.75 61.5,-29.75"/>
</g>
<!-- Node6&#45;&gt;Node4 -->
<g id="edge6" class="edge">
<title>Node6&#45;&gt;Node4</title>
<path fill="none" stroke="midnightblue" d="M81.38,-112.08C77.54,-104.69 71.98,-93.95 67.24,-84.81"/>
<polygon fill="midnightblue" stroke="midnightblue" points="70.25,-83.02 62.54,-75.75 64.03,-86.24 70.25,-83.02"/>
</g>
</g>
</svg>
