<?xml version="1.0" encoding="UTF-8" standalone="no"?>
<!DOCTYPE svg PUBLIC "-//W3C//DTD SVG 1.1//EN"
 "http://www.w3.org/Graphics/SVG/1.1/DTD/svg11.dtd">
<!-- Generated by graphviz version 2.43.0 (0)
 -->
<!-- Title: videodescriptionmessage.h Pages: 1 -->
<svg width="159pt" height="252pt"
 viewBox="0.00 0.00 159.00 252.00" xmlns="http://www.w3.org/2000/svg" xmlns:xlink="http://www.w3.org/1999/xlink">
<g id="graph0" class="graph" transform="scale(1 1) rotate(0) translate(4 248)">
<title>videodescriptionmessage.h</title>
<!-- Node1 -->
<g id="node1" class="node">
<title>Node1</title>
<g id="a_node1"><a xlink:title=" ">
<polygon fill="#bfbfbf" stroke="black" points="0,-224.5 0,-243.5 151,-243.5 151,-224.5 0,-224.5"/>
<text text-anchor="middle" x="75.5" y="-231.5" font-family="Helvetica,sans-Serif" font-size="10.00">videodescriptionmessage.h</text>
</a>
</g>
</g>
<!-- Node2 -->
<g id="node2" class="node">
<title>Node2</title>
<g id="a_node2"><a xlink:href="fitdatamessage_8h_source.html" target="_top" xlink:title=" ">
<polygon fill="none" stroke="black" points="25,-168.5 25,-187.5 126,-187.5 126,-168.5 25,-168.5"/>
<text text-anchor="middle" x="75.5" y="-175.5" font-family="Helvetica,sans-Serif" font-size="10.00">fitdatamessage.h</text>
</a>
</g>
</g>
<!-- Node1&#45;&gt;Node2 -->
<g id="edge1" class="edge">
<title>Node1&#45;&gt;Node2</title>
<path fill="none" stroke="midnightblue" d="M75.5,-224.08C75.5,-217.01 75.5,-206.86 75.5,-197.99"/>
<polygon fill="midnightblue" stroke="midnightblue" points="79,-197.75 75.5,-187.75 72,-197.75 79,-197.75"/>
</g>
<!-- Node3 -->
<g id="node3" class="node">
<title>Node3</title>
<g id="a_node3"><a xlink:href="QtFit__global_8h_source.html" target="_top" xlink:title=" ">
<polygon fill="none" stroke="black" points="33.5,-56.5 33.5,-75.5 117.5,-75.5 117.5,-56.5 33.5,-56.5"/>
<text text-anchor="middle" x="75.5" y="-63.5" font-family="Helvetica,sans-Serif" font-size="10.00">QtFit_global.h</text>
</a>
</g>
</g>
<!-- Node2&#45;&gt;Node3 -->
<g id="edge2" class="edge">
<title>Node2&#45;&gt;Node3</title>
<path fill="none" stroke="midnightblue" d="M73.76,-168.42C72.03,-159.4 69.49,-144.77 68.5,-132 67.3,-116.42 69.41,-98.8 71.62,-85.84"/>
<polygon fill="midnightblue" stroke="midnightblue" points="75.1,-86.29 73.51,-75.82 68.22,-84.99 75.1,-86.29"/>
</g>
<!-- Node5 -->
<g id="node5" class="node">
<title>Node5</title>
<g id="a_node5"><a xlink:href="types_8h.html" target="_top" xlink:title="Types defined by the ANT+ FIT SDK.">
<polygon fill="none" stroke="black" points="77,-112.5 77,-131.5 130,-131.5 130,-112.5 77,-112.5"/>
<text text-anchor="middle" x="103.5" y="-119.5" font-family="Helvetica,sans-Serif" font-size="10.00">types.h</text>
</a>
</g>
</g>
<!-- Node2&#45;&gt;Node5 -->
<g id="edge4" class="edge">
<title>Node2&#45;&gt;Node5</title>
<path fill="none" stroke="midnightblue" d="M80.12,-168.08C83.96,-160.69 89.52,-149.95 94.26,-140.81"/>
<polygon fill="midnightblue" stroke="midnightblue" points="97.47,-142.24 98.96,-131.75 91.25,-139.02 97.47,-142.24"/>
</g>
<!-- Node4 -->
<g id="node4" class="node">
<title>Node4</title>
<g id="a_node4"><a xlink:title=" ">
<polygon fill="none" stroke="#bfbfbf" points="46,-0.5 46,-19.5 105,-19.5 105,-0.5 46,-0.5"/>
<text text-anchor="middle" x="75.5" y="-7.5" font-family="Helvetica,sans-Serif" font-size="10.00">QtGlobal</text>
</a>
</g>
</g>
<!-- Node3&#45;&gt;Node4 -->
<g id="edge3" class="edge">
<title>Node3&#45;&gt;Node4</title>
<path fill="none" stroke="midnightblue" d="M75.5,-56.08C75.5,-49.01 75.5,-38.86 75.5,-29.99"/>
<polygon fill="midnightblue" stroke="midnightblue" points="79,-29.75 75.5,-19.75 72,-29.75 79,-29.75"/>
</g>
<!-- Node5&#45;&gt;Node3 -->
<g id="edge5" class="edge">
<title>Node5&#45;&gt;Node3</title>
<path fill="none" stroke="midnightblue" d="M98.88,-112.08C95.04,-104.69 89.48,-93.95 84.74,-84.81"/>
<polygon fill="midnightblue" stroke="midnightblue" points="87.75,-83.02 80.04,-75.75 81.53,-86.24 87.75,-83.02"/>
</g>
</g>
</svg>
