<?xml version="1.0" encoding="UTF-8" standalone="no"?>
<!DOCTYPE svg PUBLIC "-//W3C//DTD SVG 1.1//EN"
 "http://www.w3.org/Graphics/SVG/1.1/DTD/svg11.dtd">
<!-- Generated by graphviz version 2.43.0 (0)
 -->
<!-- Title: watchfacesettingsmessage.cpp Pages: 1 -->
<svg width="356pt" height="308pt"
 viewBox="0.00 0.00 355.50 308.00" xmlns="http://www.w3.org/2000/svg" xmlns:xlink="http://www.w3.org/1999/xlink">
<g id="graph0" class="graph" transform="scale(1 1) rotate(0) translate(4 304)">
<title>watchfacesettingsmessage.cpp</title>
<!-- Node1 -->
<g id="node1" class="node">
<title>Node1</title>
<g id="a_node1"><a xlink:title=" ">
<polygon fill="#bfbfbf" stroke="black" points="85.5,-280.5 85.5,-299.5 255.5,-299.5 255.5,-280.5 85.5,-280.5"/>
<text text-anchor="middle" x="170.5" y="-287.5" font-family="Helvetica,sans-Serif" font-size="10.00">watchfacesettingsmessage.cpp</text>
</a>
</g>
</g>
<!-- Node2 -->
<g id="node2" class="node">
<title>Node2</title>
<g id="a_node2"><a xlink:href="watchfacesettingsmessage_8h.html" target="_top" xlink:title=" ">
<polygon fill="none" stroke="black" points="0,-224.5 0,-243.5 159,-243.5 159,-224.5 0,-224.5"/>
<text text-anchor="middle" x="79.5" y="-231.5" font-family="Helvetica,sans-Serif" font-size="10.00">watchfacesettingsmessage.h</text>
</a>
</g>
</g>
<!-- Node1&#45;&gt;Node2 -->
<g id="edge1" class="edge">
<title>Node1&#45;&gt;Node2</title>
<path fill="none" stroke="midnightblue" d="M155.88,-280.32C141.55,-271.82 119.49,-258.73 102.75,-248.8"/>
<polygon fill="midnightblue" stroke="midnightblue" points="104.47,-245.75 94.08,-243.65 100.9,-251.77 104.47,-245.75"/>
</g>
<!-- Node7 -->
<g id="node7" class="node">
<title>Node7</title>
<g id="a_node7"><a xlink:title=" ">
<polygon fill="none" stroke="#bfbfbf" points="177.5,-224.5 177.5,-243.5 347.5,-243.5 347.5,-224.5 177.5,-224.5"/>
<text text-anchor="middle" x="262.5" y="-231.5" font-family="Helvetica,sans-Serif" font-size="10.00">watchfacesettingsmessage_p.h</text>
</a>
</g>
</g>
<!-- Node1&#45;&gt;Node7 -->
<g id="edge7" class="edge">
<title>Node1&#45;&gt;Node7</title>
<path fill="none" stroke="midnightblue" d="M185.28,-280.32C199.77,-271.82 222.07,-258.73 238.99,-248.8"/>
<polygon fill="midnightblue" stroke="midnightblue" points="240.9,-251.74 247.76,-243.65 237.36,-245.7 240.9,-251.74"/>
</g>
<!-- Node3 -->
<g id="node3" class="node">
<title>Node3</title>
<g id="a_node3"><a xlink:href="fitdatamessage_8h_source.html" target="_top" xlink:title=" ">
<polygon fill="none" stroke="black" points="29,-168.5 29,-187.5 130,-187.5 130,-168.5 29,-168.5"/>
<text text-anchor="middle" x="79.5" y="-175.5" font-family="Helvetica,sans-Serif" font-size="10.00">fitdatamessage.h</text>
</a>
</g>
</g>
<!-- Node2&#45;&gt;Node3 -->
<g id="edge2" class="edge">
<title>Node2&#45;&gt;Node3</title>
<path fill="none" stroke="midnightblue" d="M79.5,-224.08C79.5,-217.01 79.5,-206.86 79.5,-197.99"/>
<polygon fill="midnightblue" stroke="midnightblue" points="83,-197.75 79.5,-187.75 76,-197.75 83,-197.75"/>
</g>
<!-- Node4 -->
<g id="node4" class="node">
<title>Node4</title>
<g id="a_node4"><a xlink:href="QtFit__global_8h_source.html" target="_top" xlink:title=" ">
<polygon fill="none" stroke="black" points="37.5,-56.5 37.5,-75.5 121.5,-75.5 121.5,-56.5 37.5,-56.5"/>
<text text-anchor="middle" x="79.5" y="-63.5" font-family="Helvetica,sans-Serif" font-size="10.00">QtFit_global.h</text>
</a>
</g>
</g>
<!-- Node3&#45;&gt;Node4 -->
<g id="edge3" class="edge">
<title>Node3&#45;&gt;Node4</title>
<path fill="none" stroke="midnightblue" d="M77.76,-168.42C76.03,-159.4 73.49,-144.77 72.5,-132 71.3,-116.42 73.41,-98.8 75.62,-85.84"/>
<polygon fill="midnightblue" stroke="midnightblue" points="79.1,-86.29 77.51,-75.82 72.22,-84.99 79.1,-86.29"/>
</g>
<!-- Node6 -->
<g id="node6" class="node">
<title>Node6</title>
<g id="a_node6"><a xlink:href="types_8h.html" target="_top" xlink:title="Types defined by the ANT+ FIT SDK.">
<polygon fill="none" stroke="black" points="81,-112.5 81,-131.5 134,-131.5 134,-112.5 81,-112.5"/>
<text text-anchor="middle" x="107.5" y="-119.5" font-family="Helvetica,sans-Serif" font-size="10.00">types.h</text>
</a>
</g>
</g>
<!-- Node3&#45;&gt;Node6 -->
<g id="edge5" class="edge">
<title>Node3&#45;&gt;Node6</title>
<path fill="none" stroke="midnightblue" d="M84.12,-168.08C87.96,-160.69 93.52,-149.95 98.26,-140.81"/>
<polygon fill="midnightblue" stroke="midnightblue" points="101.47,-142.24 102.96,-131.75 95.25,-139.02 101.47,-142.24"/>
</g>
<!-- Node5 -->
<g id="node5" class="node">
<title>Node5</title>
<g id="a_node5"><a xlink:title=" ">
<polygon fill="none" stroke="#bfbfbf" points="50,-0.5 50,-19.5 109,-19.5 109,-0.5 50,-0.5"/>
<text text-anchor="middle" x="79.5" y="-7.5" font-family="Helvetica,sans-Serif" font-size="10.00">QtGlobal</text>
</a>
</g>
</g>
<!-- Node4&#45;&gt;Node5 -->
<g id="edge4" class="edge">
<title>Node4&#45;&gt;Node5</title>
<path fill="none" stroke="midnightblue" d="M79.5,-56.08C79.5,-49.01 79.5,-38.86 79.5,-29.99"/>
<polygon fill="midnightblue" stroke="midnightblue" points="83,-29.75 79.5,-19.75 76,-29.75 83,-29.75"/>
</g>
<!-- Node6&#45;&gt;Node4 -->
<g id="edge6" class="edge">
<title>Node6&#45;&gt;Node4</title>
<path fill="none" stroke="midnightblue" d="M102.88,-112.08C99.04,-104.69 93.48,-93.95 88.74,-84.81"/>
<polygon fill="midnightblue" stroke="midnightblue" points="91.75,-83.02 84.04,-75.75 85.53,-86.24 91.75,-83.02"/>
</g>
</g>
</svg>
