<?xml version="1.0" encoding="UTF-8" standalone="no"?>
<!DOCTYPE svg PUBLIC "-//W3C//DTD SVG 1.1//EN"
 "http://www.w3.org/Graphics/SVG/1.1/DTD/svg11.dtd">
<!-- Generated by graphviz version 2.43.0 (0)
 -->
<!-- Title: watchfacesettingsmessage.cpp Pages: 1 -->
<svg width="472pt" height="308pt"
 viewBox="0.00 0.00 472.00 308.00" xmlns="http://www.w3.org/2000/svg" xmlns:xlink="http://www.w3.org/1999/xlink">
<g id="graph0" class="graph" transform="scale(1 1) rotate(0) translate(4 304)">
<title>watchfacesettingsmessage.cpp</title>
<!-- Node1 -->
<g id="node1" class="node">
<title>Node1</title>
<g id="a_node1"><a xlink:title=" ">
<polygon fill="#bfbfbf" stroke="black" points="157.5,-280.5 157.5,-299.5 327.5,-299.5 327.5,-280.5 157.5,-280.5"/>
<text text-anchor="middle" x="242.5" y="-287.5" font-family="Helvetica,sans-Serif" font-size="10.00">watchfacesettingsmessage.cpp</text>
</a>
</g>
</g>
<!-- Node2 -->
<g id="node2" class="node">
<title>Node2</title>
<g id="a_node2"><a xlink:href="watchfacesettingsmessage_8h.html" target="_top" xlink:title=" ">
<polygon fill="none" stroke="black" points="0,-224.5 0,-243.5 159,-243.5 159,-224.5 0,-224.5"/>
<text text-anchor="middle" x="79.5" y="-231.5" font-family="Helvetica,sans-Serif" font-size="10.00">watchfacesettingsmessage.h</text>
</a>
</g>
</g>
<!-- Node1&#45;&gt;Node2 -->
<g id="edge1" class="edge">
<title>Node1&#45;&gt;Node2</title>
<path fill="none" stroke="midnightblue" d="M216.67,-280.44C189.25,-271.36 145.72,-256.94 115.07,-246.78"/>
<polygon fill="midnightblue" stroke="midnightblue" points="115.8,-243.34 105.21,-243.52 113.6,-249.98 115.8,-243.34"/>
</g>
<!-- Node7 -->
<g id="node7" class="node">
<title>Node7</title>
<g id="a_node7"><a xlink:title=" ">
<polygon fill="none" stroke="#bfbfbf" points="152.5,-56.5 152.5,-75.5 208.5,-75.5 208.5,-56.5 152.5,-56.5"/>
<text text-anchor="middle" x="180.5" y="-63.5" font-family="Helvetica,sans-Serif" font-size="10.00">QDebug</text>
</a>
</g>
</g>
<!-- Node1&#45;&gt;Node7 -->
<g id="edge9" class="edge">
<title>Node1&#45;&gt;Node7</title>
<path fill="none" stroke="midnightblue" d="M232.88,-280.38C224.2,-271.99 211.85,-258.44 205.5,-244 181.81,-190.12 179.5,-118.94 179.89,-85.65"/>
<polygon fill="midnightblue" stroke="midnightblue" points="183.4,-85.63 180.11,-75.55 176.4,-85.47 183.4,-85.63"/>
</g>
<!-- Node8 -->
<g id="node8" class="node">
<title>Node8</title>
<g id="a_node8"><a xlink:title=" ">
<polygon fill="none" stroke="#bfbfbf" points="214.5,-224.5 214.5,-243.5 384.5,-243.5 384.5,-224.5 214.5,-224.5"/>
<text text-anchor="middle" x="299.5" y="-231.5" font-family="Helvetica,sans-Serif" font-size="10.00">watchfacesettingsmessage_p.h</text>
</a>
</g>
</g>
<!-- Node1&#45;&gt;Node8 -->
<g id="edge8" class="edge">
<title>Node1&#45;&gt;Node8</title>
<path fill="none" stroke="midnightblue" d="M251.66,-280.32C260,-272.42 272.53,-260.55 282.68,-250.94"/>
<polygon fill="midnightblue" stroke="midnightblue" points="285.32,-253.25 290.18,-243.83 280.51,-248.17 285.32,-253.25"/>
</g>
<!-- Node9 -->
<g id="node9" class="node">
<title>Node9</title>
<g id="a_node9"><a xlink:title=" ">
<polygon fill="none" stroke="#bfbfbf" points="403,-224.5 403,-243.5 464,-243.5 464,-224.5 403,-224.5"/>
<text text-anchor="middle" x="433.5" y="-231.5" font-family="Helvetica,sans-Serif" font-size="10.00">QtEndian</text>
</a>
</g>
</g>
<!-- Node1&#45;&gt;Node9 -->
<g id="edge10" class="edge">
<title>Node1&#45;&gt;Node9</title>
<path fill="none" stroke="midnightblue" d="M272.76,-280.44C305.46,-271.2 357.68,-256.44 393.68,-246.26"/>
<polygon fill="midnightblue" stroke="midnightblue" points="394.71,-249.61 403.38,-243.52 392.8,-242.87 394.71,-249.61"/>
</g>
<!-- Node3 -->
<g id="node3" class="node">
<title>Node3</title>
<g id="a_node3"><a xlink:href="abstractdatamessage_8h_source.html" target="_top" xlink:title=" ">
<polygon fill="none" stroke="black" points="14,-168.5 14,-187.5 145,-187.5 145,-168.5 14,-168.5"/>
<text text-anchor="middle" x="79.5" y="-175.5" font-family="Helvetica,sans-Serif" font-size="10.00">abstractdatamessage.h</text>
</a>
</g>
</g>
<!-- Node2&#45;&gt;Node3 -->
<g id="edge2" class="edge">
<title>Node2&#45;&gt;Node3</title>
<path fill="none" stroke="midnightblue" d="M79.5,-224.08C79.5,-217.01 79.5,-206.86 79.5,-197.99"/>
<polygon fill="midnightblue" stroke="midnightblue" points="83,-197.75 79.5,-187.75 76,-197.75 83,-197.75"/>
</g>
<!-- Node4 -->
<g id="node4" class="node">
<title>Node4</title>
<g id="a_node4"><a xlink:href="QtFit__global_8h_source.html" target="_top" xlink:title=" ">
<polygon fill="none" stroke="black" points="45.5,-56.5 45.5,-75.5 129.5,-75.5 129.5,-56.5 45.5,-56.5"/>
<text text-anchor="middle" x="87.5" y="-63.5" font-family="Helvetica,sans-Serif" font-size="10.00">QtFit_global.h</text>
</a>
</g>
</g>
<!-- Node3&#45;&gt;Node4 -->
<g id="edge3" class="edge">
<title>Node3&#45;&gt;Node4</title>
<path fill="none" stroke="midnightblue" d="M80.13,-168.37C81.42,-150.62 84.4,-109.67 86.15,-85.6"/>
<polygon fill="midnightblue" stroke="midnightblue" points="89.64,-85.82 86.88,-75.59 82.66,-85.31 89.64,-85.82"/>
</g>
<!-- Node6 -->
<g id="node6" class="node">
<title>Node6</title>
<g id="a_node6"><a xlink:href="types_8h.html" target="_top" xlink:title="Types defined by the ANT+ FIT SDK.">
<polygon fill="none" stroke="black" points="105,-112.5 105,-131.5 158,-131.5 158,-112.5 105,-112.5"/>
<text text-anchor="middle" x="131.5" y="-119.5" font-family="Helvetica,sans-Serif" font-size="10.00">types.h</text>
</a>
</g>
</g>
<!-- Node3&#45;&gt;Node6 -->
<g id="edge5" class="edge">
<title>Node3&#45;&gt;Node6</title>
<path fill="none" stroke="midnightblue" d="M88.09,-168.08C95.66,-160.22 106.88,-148.57 116.01,-139.08"/>
<polygon fill="midnightblue" stroke="midnightblue" points="118.66,-141.38 123.07,-131.75 113.62,-136.53 118.66,-141.38"/>
</g>
<!-- Node5 -->
<g id="node5" class="node">
<title>Node5</title>
<g id="a_node5"><a xlink:title=" ">
<polygon fill="none" stroke="#bfbfbf" points="58,-0.5 58,-19.5 117,-19.5 117,-0.5 58,-0.5"/>
<text text-anchor="middle" x="87.5" y="-7.5" font-family="Helvetica,sans-Serif" font-size="10.00">QtGlobal</text>
</a>
</g>
</g>
<!-- Node4&#45;&gt;Node5 -->
<g id="edge4" class="edge">
<title>Node4&#45;&gt;Node5</title>
<path fill="none" stroke="midnightblue" d="M87.5,-56.08C87.5,-49.01 87.5,-38.86 87.5,-29.99"/>
<polygon fill="midnightblue" stroke="midnightblue" points="91,-29.75 87.5,-19.75 84,-29.75 91,-29.75"/>
</g>
<!-- Node6&#45;&gt;Node4 -->
<g id="edge6" class="edge">
<title>Node6&#45;&gt;Node4</title>
<path fill="none" stroke="midnightblue" d="M124.23,-112.08C117.96,-104.38 108.71,-93.03 101.07,-83.65"/>
<polygon fill="midnightblue" stroke="midnightblue" points="103.66,-81.29 94.63,-75.75 98.23,-85.71 103.66,-81.29"/>
</g>
<!-- Node6&#45;&gt;Node7 -->
<g id="edge7" class="edge">
<title>Node6&#45;&gt;Node7</title>
<path fill="none" stroke="midnightblue" d="M139.59,-112.08C146.66,-104.3 157.09,-92.8 165.65,-83.37"/>
<polygon fill="midnightblue" stroke="midnightblue" points="168.43,-85.51 172.56,-75.75 163.25,-80.8 168.43,-85.51"/>
</g>
</g>
</svg>
