<?xml version="1.0" encoding="UTF-8" standalone="no"?>
<!DOCTYPE svg PUBLIC "-//W3C//DTD SVG 1.1//EN"
 "http://www.w3.org/Graphics/SVG/1.1/DTD/svg11.dtd">
<!-- Generated by graphviz version 2.43.0 (0)
 -->
<!-- Title: weatherconditionsmessage.cpp Pages: 1 -->
<svg width="358pt" height="308pt"
 viewBox="0.00 0.00 357.50 308.00" xmlns="http://www.w3.org/2000/svg" xmlns:xlink="http://www.w3.org/1999/xlink">
<g id="graph0" class="graph" transform="scale(1 1) rotate(0) translate(4 304)">
<title>weatherconditionsmessage.cpp</title>
<!-- Node1 -->
<g id="node1" class="node">
<title>Node1</title>
<g id="a_node1"><a xlink:title=" ">
<polygon fill="#bfbfbf" stroke="black" points="86.5,-280.5 86.5,-299.5 257.5,-299.5 257.5,-280.5 86.5,-280.5"/>
<text text-anchor="middle" x="172" y="-287.5" font-family="Helvetica,sans-Serif" font-size="10.00">weatherconditionsmessage.cpp</text>
</a>
</g>
</g>
<!-- Node2 -->
<g id="node2" class="node">
<title>Node2</title>
<g id="a_node2"><a xlink:href="weatherconditionsmessage_8h.html" target="_top" xlink:title=" ">
<polygon fill="none" stroke="black" points="0,-224.5 0,-243.5 160,-243.5 160,-224.5 0,-224.5"/>
<text text-anchor="middle" x="80" y="-231.5" font-family="Helvetica,sans-Serif" font-size="10.00">weatherconditionsmessage.h</text>
</a>
</g>
</g>
<!-- Node1&#45;&gt;Node2 -->
<g id="edge1" class="edge">
<title>Node1&#45;&gt;Node2</title>
<path fill="none" stroke="midnightblue" d="M157.22,-280.32C142.73,-271.82 120.43,-258.73 103.51,-248.8"/>
<polygon fill="midnightblue" stroke="midnightblue" points="105.14,-245.7 94.74,-243.65 101.6,-251.74 105.14,-245.7"/>
</g>
<!-- Node7 -->
<g id="node7" class="node">
<title>Node7</title>
<g id="a_node7"><a xlink:title=" ">
<polygon fill="none" stroke="#bfbfbf" points="178.5,-224.5 178.5,-243.5 349.5,-243.5 349.5,-224.5 178.5,-224.5"/>
<text text-anchor="middle" x="264" y="-231.5" font-family="Helvetica,sans-Serif" font-size="10.00">weatherconditionsmessage_p.h</text>
</a>
</g>
</g>
<!-- Node1&#45;&gt;Node7 -->
<g id="edge7" class="edge">
<title>Node1&#45;&gt;Node7</title>
<path fill="none" stroke="midnightblue" d="M186.78,-280.32C201.27,-271.82 223.57,-258.73 240.49,-248.8"/>
<polygon fill="midnightblue" stroke="midnightblue" points="242.4,-251.74 249.26,-243.65 238.86,-245.7 242.4,-251.74"/>
</g>
<!-- Node3 -->
<g id="node3" class="node">
<title>Node3</title>
<g id="a_node3"><a xlink:href="fitdatamessage_8h_source.html" target="_top" xlink:title=" ">
<polygon fill="none" stroke="black" points="29.5,-168.5 29.5,-187.5 130.5,-187.5 130.5,-168.5 29.5,-168.5"/>
<text text-anchor="middle" x="80" y="-175.5" font-family="Helvetica,sans-Serif" font-size="10.00">fitdatamessage.h</text>
</a>
</g>
</g>
<!-- Node2&#45;&gt;Node3 -->
<g id="edge2" class="edge">
<title>Node2&#45;&gt;Node3</title>
<path fill="none" stroke="midnightblue" d="M80,-224.08C80,-217.01 80,-206.86 80,-197.99"/>
<polygon fill="midnightblue" stroke="midnightblue" points="83.5,-197.75 80,-187.75 76.5,-197.75 83.5,-197.75"/>
</g>
<!-- Node4 -->
<g id="node4" class="node">
<title>Node4</title>
<g id="a_node4"><a xlink:href="QtFit__global_8h_source.html" target="_top" xlink:title=" ">
<polygon fill="none" stroke="black" points="38,-56.5 38,-75.5 122,-75.5 122,-56.5 38,-56.5"/>
<text text-anchor="middle" x="80" y="-63.5" font-family="Helvetica,sans-Serif" font-size="10.00">QtFit_global.h</text>
</a>
</g>
</g>
<!-- Node3&#45;&gt;Node4 -->
<g id="edge3" class="edge">
<title>Node3&#45;&gt;Node4</title>
<path fill="none" stroke="midnightblue" d="M78.26,-168.42C76.53,-159.4 73.99,-144.77 73,-132 71.8,-116.42 73.91,-98.8 76.12,-85.84"/>
<polygon fill="midnightblue" stroke="midnightblue" points="79.6,-86.29 78.01,-75.82 72.72,-84.99 79.6,-86.29"/>
</g>
<!-- Node6 -->
<g id="node6" class="node">
<title>Node6</title>
<g id="a_node6"><a xlink:href="types_8h.html" target="_top" xlink:title="Types defined by the ANT+ FIT SDK.">
<polygon fill="none" stroke="black" points="81.5,-112.5 81.5,-131.5 134.5,-131.5 134.5,-112.5 81.5,-112.5"/>
<text text-anchor="middle" x="108" y="-119.5" font-family="Helvetica,sans-Serif" font-size="10.00">types.h</text>
</a>
</g>
</g>
<!-- Node3&#45;&gt;Node6 -->
<g id="edge5" class="edge">
<title>Node3&#45;&gt;Node6</title>
<path fill="none" stroke="midnightblue" d="M84.62,-168.08C88.46,-160.69 94.02,-149.95 98.76,-140.81"/>
<polygon fill="midnightblue" stroke="midnightblue" points="101.97,-142.24 103.46,-131.75 95.75,-139.02 101.97,-142.24"/>
</g>
<!-- Node5 -->
<g id="node5" class="node">
<title>Node5</title>
<g id="a_node5"><a xlink:title=" ">
<polygon fill="none" stroke="#bfbfbf" points="50.5,-0.5 50.5,-19.5 109.5,-19.5 109.5,-0.5 50.5,-0.5"/>
<text text-anchor="middle" x="80" y="-7.5" font-family="Helvetica,sans-Serif" font-size="10.00">QtGlobal</text>
</a>
</g>
</g>
<!-- Node4&#45;&gt;Node5 -->
<g id="edge4" class="edge">
<title>Node4&#45;&gt;Node5</title>
<path fill="none" stroke="midnightblue" d="M80,-56.08C80,-49.01 80,-38.86 80,-29.99"/>
<polygon fill="midnightblue" stroke="midnightblue" points="83.5,-29.75 80,-19.75 76.5,-29.75 83.5,-29.75"/>
</g>
<!-- Node6&#45;&gt;Node4 -->
<g id="edge6" class="edge">
<title>Node6&#45;&gt;Node4</title>
<path fill="none" stroke="midnightblue" d="M103.38,-112.08C99.54,-104.69 93.98,-93.95 89.24,-84.81"/>
<polygon fill="midnightblue" stroke="midnightblue" points="92.25,-83.02 84.54,-75.75 86.03,-86.24 92.25,-83.02"/>
</g>
</g>
</svg>
