<?xml version="1.0" encoding="UTF-8" standalone="no"?>
<!DOCTYPE svg PUBLIC "-//W3C//DTD SVG 1.1//EN"
 "http://www.w3.org/Graphics/SVG/1.1/DTD/svg11.dtd">
<!-- Generated by graphviz version 2.43.0 (0)
 -->
<!-- Title: weatheralertmessage.cpp Pages: 1 -->
<svg width="419pt" height="308pt"
 viewBox="0.00 0.00 418.50 308.00" xmlns="http://www.w3.org/2000/svg" xmlns:xlink="http://www.w3.org/1999/xlink">
<g id="graph0" class="graph" transform="scale(1 1) rotate(0) translate(4 304)">
<title>weatheralertmessage.cpp</title>
<!-- Node1 -->
<g id="node1" class="node">
<title>Node1</title>
<g id="a_node1"><a xlink:title="Defines the WeatherAlertMessage, and WeatherAlertMessagePrivate classes.">
<polygon fill="#bfbfbf" stroke="black" points="138.5,-280.5 138.5,-299.5 281.5,-299.5 281.5,-280.5 138.5,-280.5"/>
<text text-anchor="middle" x="210" y="-287.5" font-family="Helvetica,sans-Serif" font-size="10.00">weatheralertmessage.cpp</text>
</a>
</g>
</g>
<!-- Node2 -->
<g id="node2" class="node">
<title>Node2</title>
<g id="a_node2"><a xlink:href="weatheralertmessage_8h.html" target="_top" xlink:title="Declares the WeatherAlertMessage class.">
<polygon fill="none" stroke="black" points="0,-224.5 0,-243.5 132,-243.5 132,-224.5 0,-224.5"/>
<text text-anchor="middle" x="66" y="-231.5" font-family="Helvetica,sans-Serif" font-size="10.00">weatheralertmessage.h</text>
</a>
</g>
</g>
<!-- Node1&#45;&gt;Node2 -->
<g id="edge1" class="edge">
<title>Node1&#45;&gt;Node2</title>
<path fill="none" stroke="midnightblue" d="M187.18,-280.44C163.17,-271.44 125.17,-257.19 98.13,-247.05"/>
<polygon fill="midnightblue" stroke="midnightblue" points="99.3,-243.75 88.71,-243.52 96.84,-250.3 99.3,-243.75"/>
</g>
<!-- Node7 -->
<g id="node7" class="node">
<title>Node7</title>
<g id="a_node7"><a xlink:title=" ">
<polygon fill="none" stroke="#bfbfbf" points="126,-56.5 126,-75.5 182,-75.5 182,-56.5 126,-56.5"/>
<text text-anchor="middle" x="154" y="-63.5" font-family="Helvetica,sans-Serif" font-size="10.00">QDebug</text>
</a>
</g>
</g>
<!-- Node1&#45;&gt;Node7 -->
<g id="edge9" class="edge">
<title>Node1&#45;&gt;Node7</title>
<path fill="none" stroke="midnightblue" d="M202.52,-280.35C195.5,-271.74 185.32,-257.85 180,-244 158.97,-189.28 154.82,-119.03 154.09,-85.9"/>
<polygon fill="midnightblue" stroke="midnightblue" points="157.58,-85.77 153.95,-75.81 150.59,-85.86 157.58,-85.77"/>
</g>
<!-- Node8 -->
<g id="node8" class="node">
<title>Node8</title>
<g id="a_node8"><a xlink:title=" ">
<polygon fill="none" stroke="#bfbfbf" points="188.5,-224.5 188.5,-243.5 331.5,-243.5 331.5,-224.5 188.5,-224.5"/>
<text text-anchor="middle" x="260" y="-231.5" font-family="Helvetica,sans-Serif" font-size="10.00">weatheralertmessage_p.h</text>
</a>
</g>
</g>
<!-- Node1&#45;&gt;Node8 -->
<g id="edge8" class="edge">
<title>Node1&#45;&gt;Node8</title>
<path fill="none" stroke="midnightblue" d="M218.26,-280.08C225.46,-272.3 236.11,-260.8 244.85,-251.37"/>
<polygon fill="midnightblue" stroke="midnightblue" points="247.67,-253.47 251.9,-243.75 242.53,-248.71 247.67,-253.47"/>
</g>
<!-- Node9 -->
<g id="node9" class="node">
<title>Node9</title>
<g id="a_node9"><a xlink:title=" ">
<polygon fill="none" stroke="#bfbfbf" points="349.5,-224.5 349.5,-243.5 410.5,-243.5 410.5,-224.5 349.5,-224.5"/>
<text text-anchor="middle" x="380" y="-231.5" font-family="Helvetica,sans-Serif" font-size="10.00">QtEndian</text>
</a>
</g>
</g>
<!-- Node1&#45;&gt;Node9 -->
<g id="edge10" class="edge">
<title>Node1&#45;&gt;Node9</title>
<path fill="none" stroke="midnightblue" d="M236.94,-280.44C265.66,-271.32 311.33,-256.81 343.32,-246.65"/>
<polygon fill="midnightblue" stroke="midnightblue" points="344.72,-249.88 353.19,-243.52 342.6,-243.21 344.72,-249.88"/>
</g>
<!-- Node3 -->
<g id="node3" class="node">
<title>Node3</title>
<g id="a_node3"><a xlink:href="abstractdatamessage_8h.html" target="_top" xlink:title="Declares the AbstractDataMessage class.">
<polygon fill="none" stroke="black" points="0.5,-168.5 0.5,-187.5 131.5,-187.5 131.5,-168.5 0.5,-168.5"/>
<text text-anchor="middle" x="66" y="-175.5" font-family="Helvetica,sans-Serif" font-size="10.00">abstractdatamessage.h</text>
</a>
</g>
</g>
<!-- Node2&#45;&gt;Node3 -->
<g id="edge2" class="edge">
<title>Node2&#45;&gt;Node3</title>
<path fill="none" stroke="midnightblue" d="M66,-224.08C66,-217.01 66,-206.86 66,-197.99"/>
<polygon fill="midnightblue" stroke="midnightblue" points="69.5,-197.75 66,-187.75 62.5,-197.75 69.5,-197.75"/>
</g>
<!-- Node4 -->
<g id="node4" class="node">
<title>Node4</title>
<g id="a_node4"><a xlink:href="QtFit__global_8h.html" target="_top" xlink:title="Global QtFit library macros.">
<polygon fill="none" stroke="black" points="19,-56.5 19,-75.5 103,-75.5 103,-56.5 19,-56.5"/>
<text text-anchor="middle" x="61" y="-63.5" font-family="Helvetica,sans-Serif" font-size="10.00">QtFit_global.h</text>
</a>
</g>
</g>
<!-- Node3&#45;&gt;Node4 -->
<g id="edge3" class="edge">
<title>Node3&#45;&gt;Node4</title>
<path fill="none" stroke="midnightblue" d="M65.61,-168.37C64.8,-150.62 62.94,-109.67 61.85,-85.6"/>
<polygon fill="midnightblue" stroke="midnightblue" points="65.34,-85.42 61.39,-75.59 58.35,-85.74 65.34,-85.42"/>
</g>
<!-- Node6 -->
<g id="node6" class="node">
<title>Node6</title>
<g id="a_node6"><a xlink:href="types_8h.html" target="_top" xlink:title="Types defined by the ANT+ FIT SDK.">
<polygon fill="none" stroke="black" points="78.5,-112.5 78.5,-131.5 131.5,-131.5 131.5,-112.5 78.5,-112.5"/>
<text text-anchor="middle" x="105" y="-119.5" font-family="Helvetica,sans-Serif" font-size="10.00">types.h</text>
</a>
</g>
</g>
<!-- Node3&#45;&gt;Node6 -->
<g id="edge5" class="edge">
<title>Node3&#45;&gt;Node6</title>
<path fill="none" stroke="midnightblue" d="M72.44,-168.08C77.95,-160.46 86.03,-149.26 92.76,-139.94"/>
<polygon fill="midnightblue" stroke="midnightblue" points="95.66,-141.91 98.68,-131.75 89.99,-137.81 95.66,-141.91"/>
</g>
<!-- Node5 -->
<g id="node5" class="node">
<title>Node5</title>
<g id="a_node5"><a xlink:title=" ">
<polygon fill="none" stroke="#bfbfbf" points="31.5,-0.5 31.5,-19.5 90.5,-19.5 90.5,-0.5 31.5,-0.5"/>
<text text-anchor="middle" x="61" y="-7.5" font-family="Helvetica,sans-Serif" font-size="10.00">QtGlobal</text>
</a>
</g>
</g>
<!-- Node4&#45;&gt;Node5 -->
<g id="edge4" class="edge">
<title>Node4&#45;&gt;Node5</title>
<path fill="none" stroke="midnightblue" d="M61,-56.08C61,-49.01 61,-38.86 61,-29.99"/>
<polygon fill="midnightblue" stroke="midnightblue" points="64.5,-29.75 61,-19.75 57.5,-29.75 64.5,-29.75"/>
</g>
<!-- Node6&#45;&gt;Node4 -->
<g id="edge6" class="edge">
<title>Node6&#45;&gt;Node4</title>
<path fill="none" stroke="midnightblue" d="M97.73,-112.08C91.46,-104.38 82.21,-93.03 74.57,-83.65"/>
<polygon fill="midnightblue" stroke="midnightblue" points="77.16,-81.29 68.13,-75.75 71.73,-85.71 77.16,-81.29"/>
</g>
<!-- Node6&#45;&gt;Node7 -->
<g id="edge7" class="edge">
<title>Node6&#45;&gt;Node7</title>
<path fill="none" stroke="midnightblue" d="M113.09,-112.08C120.16,-104.3 130.59,-92.8 139.15,-83.37"/>
<polygon fill="midnightblue" stroke="midnightblue" points="141.93,-85.51 146.06,-75.75 136.75,-80.8 141.93,-85.51"/>
</g>
</g>
</svg>
