<?xml version="1.0" encoding="UTF-8" standalone="no"?>
<!DOCTYPE svg PUBLIC "-//W3C//DTD SVG 1.1//EN"
 "http://www.w3.org/Graphics/SVG/1.1/DTD/svg11.dtd">
<!-- Generated by graphviz version 2.43.0 (0)
 -->
<!-- Title: weatherconditionsmessage.cpp Pages: 1 -->
<svg width="475pt" height="308pt"
 viewBox="0.00 0.00 474.50 308.00" xmlns="http://www.w3.org/2000/svg" xmlns:xlink="http://www.w3.org/1999/xlink">
<g id="graph0" class="graph" transform="scale(1 1) rotate(0) translate(4 304)">
<title>weatherconditionsmessage.cpp</title>
<!-- Node1 -->
<g id="node1" class="node">
<title>Node1</title>
<g id="a_node1"><a xlink:title=" ">
<polygon fill="#bfbfbf" stroke="black" points="159.5,-280.5 159.5,-299.5 330.5,-299.5 330.5,-280.5 159.5,-280.5"/>
<text text-anchor="middle" x="245" y="-287.5" font-family="Helvetica,sans-Serif" font-size="10.00">weatherconditionsmessage.cpp</text>
</a>
</g>
</g>
<!-- Node2 -->
<g id="node2" class="node">
<title>Node2</title>
<g id="a_node2"><a xlink:href="weatherconditionsmessage_8h.html" target="_top" xlink:title=" ">
<polygon fill="none" stroke="black" points="0,-224.5 0,-243.5 160,-243.5 160,-224.5 0,-224.5"/>
<text text-anchor="middle" x="80" y="-231.5" font-family="Helvetica,sans-Serif" font-size="10.00">weatherconditionsmessage.h</text>
</a>
</g>
</g>
<!-- Node1&#45;&gt;Node2 -->
<g id="edge1" class="edge">
<title>Node1&#45;&gt;Node2</title>
<path fill="none" stroke="midnightblue" d="M218.86,-280.44C190.98,-271.32 146.65,-256.81 115.6,-246.65"/>
<polygon fill="midnightblue" stroke="midnightblue" points="116.62,-243.3 106.02,-243.52 114.44,-249.95 116.62,-243.3"/>
</g>
<!-- Node7 -->
<g id="node7" class="node">
<title>Node7</title>
<g id="a_node7"><a xlink:title=" ">
<polygon fill="none" stroke="#bfbfbf" points="154,-56.5 154,-75.5 210,-75.5 210,-56.5 154,-56.5"/>
<text text-anchor="middle" x="182" y="-63.5" font-family="Helvetica,sans-Serif" font-size="10.00">QDebug</text>
</a>
</g>
</g>
<!-- Node1&#45;&gt;Node7 -->
<g id="edge9" class="edge">
<title>Node1&#45;&gt;Node7</title>
<path fill="none" stroke="midnightblue" d="M235.4,-280.37C226.73,-271.98 214.39,-258.43 208,-244 184.14,-190.15 181.36,-118.95 181.53,-85.66"/>
<polygon fill="midnightblue" stroke="midnightblue" points="185.03,-85.6 181.68,-75.55 178.03,-85.5 185.03,-85.6"/>
</g>
<!-- Node8 -->
<g id="node8" class="node">
<title>Node8</title>
<g id="a_node8"><a xlink:title=" ">
<polygon fill="none" stroke="#bfbfbf" points="216.5,-224.5 216.5,-243.5 387.5,-243.5 387.5,-224.5 216.5,-224.5"/>
<text text-anchor="middle" x="302" y="-231.5" font-family="Helvetica,sans-Serif" font-size="10.00">weatherconditionsmessage_p.h</text>
</a>
</g>
</g>
<!-- Node1&#45;&gt;Node8 -->
<g id="edge8" class="edge">
<title>Node1&#45;&gt;Node8</title>
<path fill="none" stroke="midnightblue" d="M254.16,-280.32C262.5,-272.42 275.03,-260.55 285.18,-250.94"/>
<polygon fill="midnightblue" stroke="midnightblue" points="287.82,-253.25 292.68,-243.83 283.01,-248.17 287.82,-253.25"/>
</g>
<!-- Node9 -->
<g id="node9" class="node">
<title>Node9</title>
<g id="a_node9"><a xlink:title=" ">
<polygon fill="none" stroke="#bfbfbf" points="405.5,-224.5 405.5,-243.5 466.5,-243.5 466.5,-224.5 405.5,-224.5"/>
<text text-anchor="middle" x="436" y="-231.5" font-family="Helvetica,sans-Serif" font-size="10.00">QtEndian</text>
</a>
</g>
</g>
<!-- Node1&#45;&gt;Node9 -->
<g id="edge10" class="edge">
<title>Node1&#45;&gt;Node9</title>
<path fill="none" stroke="midnightblue" d="M275.26,-280.44C307.96,-271.2 360.18,-256.44 396.18,-246.26"/>
<polygon fill="midnightblue" stroke="midnightblue" points="397.21,-249.61 405.88,-243.52 395.3,-242.87 397.21,-249.61"/>
</g>
<!-- Node3 -->
<g id="node3" class="node">
<title>Node3</title>
<g id="a_node3"><a xlink:href="fitdatamessage_8h_source.html" target="_top" xlink:title=" ">
<polygon fill="none" stroke="black" points="29.5,-168.5 29.5,-187.5 130.5,-187.5 130.5,-168.5 29.5,-168.5"/>
<text text-anchor="middle" x="80" y="-175.5" font-family="Helvetica,sans-Serif" font-size="10.00">fitdatamessage.h</text>
</a>
</g>
</g>
<!-- Node2&#45;&gt;Node3 -->
<g id="edge2" class="edge">
<title>Node2&#45;&gt;Node3</title>
<path fill="none" stroke="midnightblue" d="M80,-224.08C80,-217.01 80,-206.86 80,-197.99"/>
<polygon fill="midnightblue" stroke="midnightblue" points="83.5,-197.75 80,-187.75 76.5,-197.75 83.5,-197.75"/>
</g>
<!-- Node4 -->
<g id="node4" class="node">
<title>Node4</title>
<g id="a_node4"><a xlink:href="QtFit__global_8h_source.html" target="_top" xlink:title=" ">
<polygon fill="none" stroke="black" points="47,-56.5 47,-75.5 131,-75.5 131,-56.5 47,-56.5"/>
<text text-anchor="middle" x="89" y="-63.5" font-family="Helvetica,sans-Serif" font-size="10.00">QtFit_global.h</text>
</a>
</g>
</g>
<!-- Node3&#45;&gt;Node4 -->
<g id="edge3" class="edge">
<title>Node3&#45;&gt;Node4</title>
<path fill="none" stroke="midnightblue" d="M80.71,-168.37C82.16,-150.62 85.51,-109.67 87.48,-85.6"/>
<polygon fill="midnightblue" stroke="midnightblue" points="90.97,-85.84 88.3,-75.59 83.99,-85.27 90.97,-85.84"/>
</g>
<!-- Node6 -->
<g id="node6" class="node">
<title>Node6</title>
<g id="a_node6"><a xlink:href="types_8h.html" target="_top" xlink:title="Types defined by the ANT+ FIT SDK.">
<polygon fill="none" stroke="black" points="106.5,-112.5 106.5,-131.5 159.5,-131.5 159.5,-112.5 106.5,-112.5"/>
<text text-anchor="middle" x="133" y="-119.5" font-family="Helvetica,sans-Serif" font-size="10.00">types.h</text>
</a>
</g>
</g>
<!-- Node3&#45;&gt;Node6 -->
<g id="edge5" class="edge">
<title>Node3&#45;&gt;Node6</title>
<path fill="none" stroke="midnightblue" d="M88.75,-168.08C96.47,-160.22 107.9,-148.57 117.22,-139.08"/>
<polygon fill="midnightblue" stroke="midnightblue" points="119.9,-141.34 124.41,-131.75 114.91,-136.44 119.9,-141.34"/>
</g>
<!-- Node5 -->
<g id="node5" class="node">
<title>Node5</title>
<g id="a_node5"><a xlink:title=" ">
<polygon fill="none" stroke="#bfbfbf" points="59.5,-0.5 59.5,-19.5 118.5,-19.5 118.5,-0.5 59.5,-0.5"/>
<text text-anchor="middle" x="89" y="-7.5" font-family="Helvetica,sans-Serif" font-size="10.00">QtGlobal</text>
</a>
</g>
</g>
<!-- Node4&#45;&gt;Node5 -->
<g id="edge4" class="edge">
<title>Node4&#45;&gt;Node5</title>
<path fill="none" stroke="midnightblue" d="M89,-56.08C89,-49.01 89,-38.86 89,-29.99"/>
<polygon fill="midnightblue" stroke="midnightblue" points="92.5,-29.75 89,-19.75 85.5,-29.75 92.5,-29.75"/>
</g>
<!-- Node6&#45;&gt;Node4 -->
<g id="edge6" class="edge">
<title>Node6&#45;&gt;Node4</title>
<path fill="none" stroke="midnightblue" d="M125.73,-112.08C119.46,-104.38 110.21,-93.03 102.57,-83.65"/>
<polygon fill="midnightblue" stroke="midnightblue" points="105.16,-81.29 96.13,-75.75 99.73,-85.71 105.16,-81.29"/>
</g>
<!-- Node6&#45;&gt;Node7 -->
<g id="edge7" class="edge">
<title>Node6&#45;&gt;Node7</title>
<path fill="none" stroke="midnightblue" d="M141.09,-112.08C148.16,-104.3 158.59,-92.8 167.15,-83.37"/>
<polygon fill="midnightblue" stroke="midnightblue" points="169.93,-85.51 174.06,-75.75 164.75,-80.8 169.93,-85.51"/>
</g>
</g>
</svg>
