<?xml version="1.0" encoding="UTF-8" standalone="no"?>
<!DOCTYPE svg PUBLIC "-//W3C//DTD SVG 1.1//EN"
 "http://www.w3.org/Graphics/SVG/1.1/DTD/svg11.dtd">
<!-- Generated by graphviz version 2.43.0 (0)
 -->
<!-- Title: weatheralertmessage.cpp Pages: 1 -->
<svg width="456pt" height="308pt"
 viewBox="0.00 0.00 455.50 308.00" xmlns="http://www.w3.org/2000/svg" xmlns:xlink="http://www.w3.org/1999/xlink">
<g id="graph0" class="graph" transform="scale(1 1) rotate(0) translate(4 304)">
<title>weatheralertmessage.cpp</title>
<!-- Node1 -->
<g id="node1" class="node">
<title>Node1</title>
<g id="a_node1"><a xlink:title=" ">
<polygon fill="#bfbfbf" stroke="black" points="209.5,-280.5 209.5,-299.5 352.5,-299.5 352.5,-280.5 209.5,-280.5"/>
<text text-anchor="middle" x="281" y="-287.5" font-family="Helvetica,sans-Serif" font-size="10.00">weatheralertmessage.cpp</text>
</a>
</g>
</g>
<!-- Node2 -->
<g id="node2" class="node">
<title>Node2</title>
<g id="a_node2"><a xlink:href="weatheralertmessage_8h.html" target="_top" xlink:title=" ">
<polygon fill="none" stroke="black" points="0,-224.5 0,-243.5 132,-243.5 132,-224.5 0,-224.5"/>
<text text-anchor="middle" x="66" y="-231.5" font-family="Helvetica,sans-Serif" font-size="10.00">weatheralertmessage.h</text>
</a>
</g>
</g>
<!-- Node1&#45;&gt;Node2 -->
<g id="edge1" class="edge">
<title>Node1&#45;&gt;Node2</title>
<path fill="none" stroke="midnightblue" d="M246.93,-280.44C209.82,-271.12 150.34,-256.18 109.79,-246"/>
<polygon fill="midnightblue" stroke="midnightblue" points="110.46,-242.56 99.91,-243.52 108.75,-249.35 110.46,-242.56"/>
</g>
<!-- Node7 -->
<g id="node7" class="node">
<title>Node7</title>
<g id="a_node7"><a xlink:title=" ">
<polygon fill="none" stroke="#bfbfbf" points="150.5,-224.5 150.5,-243.5 293.5,-243.5 293.5,-224.5 150.5,-224.5"/>
<text text-anchor="middle" x="222" y="-231.5" font-family="Helvetica,sans-Serif" font-size="10.00">weatheralertmessage_p.h</text>
</a>
</g>
</g>
<!-- Node1&#45;&gt;Node7 -->
<g id="edge7" class="edge">
<title>Node1&#45;&gt;Node7</title>
<path fill="none" stroke="midnightblue" d="M271.52,-280.32C262.8,-272.34 249.66,-260.31 239.1,-250.65"/>
<polygon fill="midnightblue" stroke="midnightblue" points="241.39,-248 231.65,-243.83 236.67,-253.17 241.39,-248"/>
</g>
<!-- Node8 -->
<g id="node8" class="node">
<title>Node8</title>
<g id="a_node8"><a xlink:title=" ">
<polygon fill="none" stroke="#bfbfbf" points="312,-224.5 312,-243.5 368,-243.5 368,-224.5 312,-224.5"/>
<text text-anchor="middle" x="340" y="-231.5" font-family="Helvetica,sans-Serif" font-size="10.00">QDebug</text>
</a>
</g>
</g>
<!-- Node1&#45;&gt;Node8 -->
<g id="edge8" class="edge">
<title>Node1&#45;&gt;Node8</title>
<path fill="none" stroke="midnightblue" d="M290.48,-280.32C299.2,-272.34 312.34,-260.31 322.9,-250.65"/>
<polygon fill="midnightblue" stroke="midnightblue" points="325.33,-253.17 330.35,-243.83 320.61,-248 325.33,-253.17"/>
</g>
<!-- Node9 -->
<g id="node9" class="node">
<title>Node9</title>
<g id="a_node9"><a xlink:title=" ">
<polygon fill="none" stroke="#bfbfbf" points="386.5,-224.5 386.5,-243.5 447.5,-243.5 447.5,-224.5 386.5,-224.5"/>
<text text-anchor="middle" x="417" y="-231.5" font-family="Helvetica,sans-Serif" font-size="10.00">QtEndian</text>
</a>
</g>
</g>
<!-- Node1&#45;&gt;Node9 -->
<g id="edge9" class="edge">
<title>Node1&#45;&gt;Node9</title>
<path fill="none" stroke="midnightblue" d="M302.55,-280.44C325.03,-271.52 360.49,-257.44 385.98,-247.32"/>
<polygon fill="midnightblue" stroke="midnightblue" points="387.55,-250.46 395.55,-243.52 384.97,-243.95 387.55,-250.46"/>
</g>
<!-- Node3 -->
<g id="node3" class="node">
<title>Node3</title>
<g id="a_node3"><a xlink:href="fitdatamessage_8h_source.html" target="_top" xlink:title=" ">
<polygon fill="none" stroke="black" points="15.5,-168.5 15.5,-187.5 116.5,-187.5 116.5,-168.5 15.5,-168.5"/>
<text text-anchor="middle" x="66" y="-175.5" font-family="Helvetica,sans-Serif" font-size="10.00">fitdatamessage.h</text>
</a>
</g>
</g>
<!-- Node2&#45;&gt;Node3 -->
<g id="edge2" class="edge">
<title>Node2&#45;&gt;Node3</title>
<path fill="none" stroke="midnightblue" d="M66,-224.08C66,-217.01 66,-206.86 66,-197.99"/>
<polygon fill="midnightblue" stroke="midnightblue" points="69.5,-197.75 66,-187.75 62.5,-197.75 69.5,-197.75"/>
</g>
<!-- Node4 -->
<g id="node4" class="node">
<title>Node4</title>
<g id="a_node4"><a xlink:href="QtFit__global_8h_source.html" target="_top" xlink:title=" ">
<polygon fill="none" stroke="black" points="24,-56.5 24,-75.5 108,-75.5 108,-56.5 24,-56.5"/>
<text text-anchor="middle" x="66" y="-63.5" font-family="Helvetica,sans-Serif" font-size="10.00">QtFit_global.h</text>
</a>
</g>
</g>
<!-- Node3&#45;&gt;Node4 -->
<g id="edge3" class="edge">
<title>Node3&#45;&gt;Node4</title>
<path fill="none" stroke="midnightblue" d="M64.26,-168.42C62.53,-159.4 59.99,-144.77 59,-132 57.8,-116.42 59.91,-98.8 62.12,-85.84"/>
<polygon fill="midnightblue" stroke="midnightblue" points="65.6,-86.29 64.01,-75.82 58.72,-84.99 65.6,-86.29"/>
</g>
<!-- Node6 -->
<g id="node6" class="node">
<title>Node6</title>
<g id="a_node6"><a xlink:href="types_8h.html" target="_top" xlink:title="Types defined by the ANT+ FIT SDK.">
<polygon fill="none" stroke="black" points="67.5,-112.5 67.5,-131.5 120.5,-131.5 120.5,-112.5 67.5,-112.5"/>
<text text-anchor="middle" x="94" y="-119.5" font-family="Helvetica,sans-Serif" font-size="10.00">types.h</text>
</a>
</g>
</g>
<!-- Node3&#45;&gt;Node6 -->
<g id="edge5" class="edge">
<title>Node3&#45;&gt;Node6</title>
<path fill="none" stroke="midnightblue" d="M70.62,-168.08C74.46,-160.69 80.02,-149.95 84.76,-140.81"/>
<polygon fill="midnightblue" stroke="midnightblue" points="87.97,-142.24 89.46,-131.75 81.75,-139.02 87.97,-142.24"/>
</g>
<!-- Node5 -->
<g id="node5" class="node">
<title>Node5</title>
<g id="a_node5"><a xlink:title=" ">
<polygon fill="none" stroke="#bfbfbf" points="36.5,-0.5 36.5,-19.5 95.5,-19.5 95.5,-0.5 36.5,-0.5"/>
<text text-anchor="middle" x="66" y="-7.5" font-family="Helvetica,sans-Serif" font-size="10.00">QtGlobal</text>
</a>
</g>
</g>
<!-- Node4&#45;&gt;Node5 -->
<g id="edge4" class="edge">
<title>Node4&#45;&gt;Node5</title>
<path fill="none" stroke="midnightblue" d="M66,-56.08C66,-49.01 66,-38.86 66,-29.99"/>
<polygon fill="midnightblue" stroke="midnightblue" points="69.5,-29.75 66,-19.75 62.5,-29.75 69.5,-29.75"/>
</g>
<!-- Node6&#45;&gt;Node4 -->
<g id="edge6" class="edge">
<title>Node6&#45;&gt;Node4</title>
<path fill="none" stroke="midnightblue" d="M89.38,-112.08C85.54,-104.69 79.98,-93.95 75.24,-84.81"/>
<polygon fill="midnightblue" stroke="midnightblue" points="78.25,-83.02 70.54,-75.75 72.03,-86.24 78.25,-83.02"/>
</g>
</g>
</svg>
