<?xml version="1.0" encoding="UTF-8" standalone="no"?>
<!DOCTYPE svg PUBLIC "-//W3C//DTD SVG 1.1//EN"
 "http://www.w3.org/Graphics/SVG/1.1/DTD/svg11.dtd">
<!-- Generated by graphviz version 2.43.0 (0)
 -->
<!-- Title: workoutsessionmessage.cpp Pages: 1 -->
<svg width="447pt" height="308pt"
 viewBox="0.00 0.00 446.50 308.00" xmlns="http://www.w3.org/2000/svg" xmlns:xlink="http://www.w3.org/1999/xlink">
<g id="graph0" class="graph" transform="scale(1 1) rotate(0) translate(4 304)">
<title>workoutsessionmessage.cpp</title>
<!-- Node1 -->
<g id="node1" class="node">
<title>Node1</title>
<g id="a_node1"><a xlink:title="Defines the WorkoutSessionMessage, and WorkoutSessionMessagePrivate classes.">
<polygon fill="#bfbfbf" stroke="black" points="148.5,-280.5 148.5,-299.5 305.5,-299.5 305.5,-280.5 148.5,-280.5"/>
<text text-anchor="middle" x="227" y="-287.5" font-family="Helvetica,sans-Serif" font-size="10.00">workoutsessionmessage.cpp</text>
</a>
</g>
</g>
<!-- Node2 -->
<g id="node2" class="node">
<title>Node2</title>
<g id="a_node2"><a xlink:href="workoutsessionmessage_8h.html" target="_top" xlink:title="Declares the WorkoutSessionMessage class.">
<polygon fill="none" stroke="black" points="0,-224.5 0,-243.5 146,-243.5 146,-224.5 0,-224.5"/>
<text text-anchor="middle" x="73" y="-231.5" font-family="Helvetica,sans-Serif" font-size="10.00">workoutsessionmessage.h</text>
</a>
</g>
</g>
<!-- Node1&#45;&gt;Node2 -->
<g id="edge1" class="edge">
<title>Node1&#45;&gt;Node2</title>
<path fill="none" stroke="midnightblue" d="M202.6,-280.44C176.8,-271.4 135.92,-257.06 106.98,-246.92"/>
<polygon fill="midnightblue" stroke="midnightblue" points="107.88,-243.52 97.29,-243.52 105.57,-250.13 107.88,-243.52"/>
</g>
<!-- Node7 -->
<g id="node7" class="node">
<title>Node7</title>
<g id="a_node7"><a xlink:title=" ">
<polygon fill="none" stroke="#bfbfbf" points="140,-56.5 140,-75.5 196,-75.5 196,-56.5 140,-56.5"/>
<text text-anchor="middle" x="168" y="-63.5" font-family="Helvetica,sans-Serif" font-size="10.00">QDebug</text>
</a>
</g>
</g>
<!-- Node1&#45;&gt;Node7 -->
<g id="edge9" class="edge">
<title>Node1&#45;&gt;Node7</title>
<path fill="none" stroke="midnightblue" d="M218.75,-280.49C211.02,-271.98 199.81,-258.16 194,-244 171.75,-189.76 168.18,-119.29 167.83,-86"/>
<polygon fill="midnightblue" stroke="midnightblue" points="171.33,-85.86 167.82,-75.86 164.33,-85.87 171.33,-85.86"/>
</g>
<!-- Node8 -->
<g id="node8" class="node">
<title>Node8</title>
<g id="a_node8"><a xlink:title=" ">
<polygon fill="none" stroke="#bfbfbf" points="202.5,-224.5 202.5,-243.5 359.5,-243.5 359.5,-224.5 202.5,-224.5"/>
<text text-anchor="middle" x="281" y="-231.5" font-family="Helvetica,sans-Serif" font-size="10.00">workoutsessionmessage_p.h</text>
</a>
</g>
</g>
<!-- Node1&#45;&gt;Node8 -->
<g id="edge8" class="edge">
<title>Node1&#45;&gt;Node8</title>
<path fill="none" stroke="midnightblue" d="M235.92,-280.08C243.78,-272.22 255.43,-260.57 264.92,-251.08"/>
<polygon fill="midnightblue" stroke="midnightblue" points="267.65,-253.3 272.25,-243.75 262.7,-248.35 267.65,-253.3"/>
</g>
<!-- Node9 -->
<g id="node9" class="node">
<title>Node9</title>
<g id="a_node9"><a xlink:title=" ">
<polygon fill="none" stroke="#bfbfbf" points="377.5,-224.5 377.5,-243.5 438.5,-243.5 438.5,-224.5 377.5,-224.5"/>
<text text-anchor="middle" x="408" y="-231.5" font-family="Helvetica,sans-Serif" font-size="10.00">QtEndian</text>
</a>
</g>
</g>
<!-- Node1&#45;&gt;Node9 -->
<g id="edge10" class="edge">
<title>Node1&#45;&gt;Node9</title>
<path fill="none" stroke="midnightblue" d="M255.68,-280.44C286.53,-271.24 335.73,-256.56 369.83,-246.39"/>
<polygon fill="midnightblue" stroke="midnightblue" points="370.87,-249.73 379.45,-243.52 368.87,-243.02 370.87,-249.73"/>
</g>
<!-- Node3 -->
<g id="node3" class="node">
<title>Node3</title>
<g id="a_node3"><a xlink:href="abstractdatamessage_8h.html" target="_top" xlink:title="Declares the AbstractDataMessage class.">
<polygon fill="none" stroke="black" points="7.5,-168.5 7.5,-187.5 138.5,-187.5 138.5,-168.5 7.5,-168.5"/>
<text text-anchor="middle" x="73" y="-175.5" font-family="Helvetica,sans-Serif" font-size="10.00">abstractdatamessage.h</text>
</a>
</g>
</g>
<!-- Node2&#45;&gt;Node3 -->
<g id="edge2" class="edge">
<title>Node2&#45;&gt;Node3</title>
<path fill="none" stroke="midnightblue" d="M73,-224.08C73,-217.01 73,-206.86 73,-197.99"/>
<polygon fill="midnightblue" stroke="midnightblue" points="76.5,-197.75 73,-187.75 69.5,-197.75 76.5,-197.75"/>
</g>
<!-- Node4 -->
<g id="node4" class="node">
<title>Node4</title>
<g id="a_node4"><a xlink:href="QtFit__global_8h.html" target="_top" xlink:title="Global QtFit library macros.">
<polygon fill="none" stroke="black" points="33,-56.5 33,-75.5 117,-75.5 117,-56.5 33,-56.5"/>
<text text-anchor="middle" x="75" y="-63.5" font-family="Helvetica,sans-Serif" font-size="10.00">QtFit_global.h</text>
</a>
</g>
</g>
<!-- Node3&#45;&gt;Node4 -->
<g id="edge3" class="edge">
<title>Node3&#45;&gt;Node4</title>
<path fill="none" stroke="midnightblue" d="M73.16,-168.37C73.48,-150.62 74.22,-109.67 74.66,-85.6"/>
<polygon fill="midnightblue" stroke="midnightblue" points="78.16,-85.65 74.84,-75.59 71.16,-85.53 78.16,-85.65"/>
</g>
<!-- Node6 -->
<g id="node6" class="node">
<title>Node6</title>
<g id="a_node6"><a xlink:href="types_8h.html" target="_top" xlink:title="Types defined by the ANT+ FIT SDK.">
<polygon fill="none" stroke="black" points="92.5,-112.5 92.5,-131.5 145.5,-131.5 145.5,-112.5 92.5,-112.5"/>
<text text-anchor="middle" x="119" y="-119.5" font-family="Helvetica,sans-Serif" font-size="10.00">types.h</text>
</a>
</g>
</g>
<!-- Node3&#45;&gt;Node6 -->
<g id="edge5" class="edge">
<title>Node3&#45;&gt;Node6</title>
<path fill="none" stroke="midnightblue" d="M80.6,-168.08C87.23,-160.3 97.02,-148.8 105.06,-139.37"/>
<polygon fill="midnightblue" stroke="midnightblue" points="107.73,-141.63 111.55,-131.75 102.4,-137.09 107.73,-141.63"/>
</g>
<!-- Node5 -->
<g id="node5" class="node">
<title>Node5</title>
<g id="a_node5"><a xlink:title=" ">
<polygon fill="none" stroke="#bfbfbf" points="45.5,-0.5 45.5,-19.5 104.5,-19.5 104.5,-0.5 45.5,-0.5"/>
<text text-anchor="middle" x="75" y="-7.5" font-family="Helvetica,sans-Serif" font-size="10.00">QtGlobal</text>
</a>
</g>
</g>
<!-- Node4&#45;&gt;Node5 -->
<g id="edge4" class="edge">
<title>Node4&#45;&gt;Node5</title>
<path fill="none" stroke="midnightblue" d="M75,-56.08C75,-49.01 75,-38.86 75,-29.99"/>
<polygon fill="midnightblue" stroke="midnightblue" points="78.5,-29.75 75,-19.75 71.5,-29.75 78.5,-29.75"/>
</g>
<!-- Node6&#45;&gt;Node4 -->
<g id="edge6" class="edge">
<title>Node6&#45;&gt;Node4</title>
<path fill="none" stroke="midnightblue" d="M111.73,-112.08C105.46,-104.38 96.21,-93.03 88.57,-83.65"/>
<polygon fill="midnightblue" stroke="midnightblue" points="91.16,-81.29 82.13,-75.75 85.73,-85.71 91.16,-81.29"/>
</g>
<!-- Node6&#45;&gt;Node7 -->
<g id="edge7" class="edge">
<title>Node6&#45;&gt;Node7</title>
<path fill="none" stroke="midnightblue" d="M127.09,-112.08C134.16,-104.3 144.59,-92.8 153.15,-83.37"/>
<polygon fill="midnightblue" stroke="midnightblue" points="155.93,-85.51 160.06,-75.75 150.75,-80.8 155.93,-85.51"/>
</g>
</g>
</svg>
