<?xml version="1.0" encoding="UTF-8" standalone="no"?>
<!DOCTYPE svg PUBLIC "-//W3C//DTD SVG 1.1//EN"
 "http://www.w3.org/Graphics/SVG/1.1/DTD/svg11.dtd">
<!-- Generated by graphviz version 2.43.0 (0)
 -->
<!-- Title: abstractdatamessage.cpp Pages: 1 -->
<svg width="324pt" height="308pt"
 viewBox="0.00 0.00 323.78 308.00" xmlns="http://www.w3.org/2000/svg" xmlns:xlink="http://www.w3.org/1999/xlink">
<g id="graph0" class="graph" transform="scale(1 1) rotate(0) translate(4 304)">
<title>abstractdatamessage.cpp</title>
<!-- Node1 -->
<g id="node1" class="node">
<title>Node1</title>
<g id="a_node1"><a xlink:title="Defines the AbstractDataMessage, and AbstractDataMessagePrivate classes.">
<polygon fill="#bfbfbf" stroke="black" points="131,-280.5 131,-299.5 274,-299.5 274,-280.5 131,-280.5"/>
<text text-anchor="middle" x="202.5" y="-287.5" font-family="Helvetica,sans-Serif" font-size="10.00">abstractdatamessage.cpp</text>
</a>
</g>
</g>
<!-- Node2 -->
<g id="node2" class="node">
<title>Node2</title>
<g id="a_node2"><a xlink:href="abstractdatamessage_8h.html" target="_top" xlink:title="Declares the AbstractDataMessage class.">
<polygon fill="none" stroke="black" points="0,-168.5 0,-187.5 131,-187.5 131,-168.5 0,-168.5"/>
<text text-anchor="middle" x="65.5" y="-175.5" font-family="Helvetica,sans-Serif" font-size="10.00">abstractdatamessage.h</text>
</a>
</g>
</g>
<!-- Node1&#45;&gt;Node2 -->
<g id="edge1" class="edge">
<title>Node1&#45;&gt;Node2</title>
<path fill="none" stroke="midnightblue" d="M182.65,-280.4C165.46,-272.41 140.46,-259.44 121.5,-244 104.26,-229.96 88.08,-210.19 77.59,-196.15"/>
<polygon fill="midnightblue" stroke="midnightblue" points="80.28,-193.89 71.56,-187.86 74.62,-198.01 80.28,-193.89"/>
</g>
<!-- Node6 -->
<g id="node6" class="node">
<title>Node6</title>
<g id="a_node6"><a xlink:title=" ">
<polygon fill="none" stroke="#bfbfbf" points="256.5,-56.5 256.5,-75.5 312.5,-75.5 312.5,-56.5 256.5,-56.5"/>
<text text-anchor="middle" x="284.5" y="-63.5" font-family="Helvetica,sans-Serif" font-size="10.00">QDebug</text>
</a>
</g>
</g>
<!-- Node1&#45;&gt;Node6 -->
<g id="edge13" class="edge">
<title>Node1&#45;&gt;Node6</title>
<path fill="none" stroke="midnightblue" d="M227.97,-280.39C245.75,-273.19 268.83,-261.3 283.5,-244 322.02,-198.58 319.92,-170.02 306.5,-112 304.27,-102.36 299.68,-92.41 295.26,-84.31"/>
<polygon fill="midnightblue" stroke="midnightblue" points="298.2,-82.4 290.14,-75.52 292.15,-85.92 298.2,-82.4"/>
</g>
<!-- Node7 -->
<g id="node7" class="node">
<title>Node7</title>
<g id="a_node7"><a xlink:href="abstractdatamessage__p_8h.html" target="_top" xlink:title="Declares the AbstractDataMessagePrivate class.">
<polygon fill="none" stroke="black" points="131,-224.5 131,-243.5 274,-243.5 274,-224.5 131,-224.5"/>
<text text-anchor="middle" x="202.5" y="-231.5" font-family="Helvetica,sans-Serif" font-size="10.00">abstractdatamessage_p.h</text>
</a>
</g>
</g>
<!-- Node1&#45;&gt;Node7 -->
<g id="edge7" class="edge">
<title>Node1&#45;&gt;Node7</title>
<path fill="none" stroke="midnightblue" d="M202.5,-280.08C202.5,-273.01 202.5,-262.86 202.5,-253.99"/>
<polygon fill="midnightblue" stroke="midnightblue" points="206,-253.75 202.5,-243.75 199,-253.75 206,-253.75"/>
</g>
<!-- Node3 -->
<g id="node3" class="node">
<title>Node3</title>
<g id="a_node3"><a xlink:href="QtFit__global_8h.html" target="_top" xlink:title="Global QtFit library macros.">
<polygon fill="none" stroke="black" points="114.5,-56.5 114.5,-75.5 198.5,-75.5 198.5,-56.5 114.5,-56.5"/>
<text text-anchor="middle" x="156.5" y="-63.5" font-family="Helvetica,sans-Serif" font-size="10.00">QtFit_global.h</text>
</a>
</g>
</g>
<!-- Node2&#45;&gt;Node3 -->
<g id="edge2" class="edge">
<title>Node2&#45;&gt;Node3</title>
<path fill="none" stroke="midnightblue" d="M72.64,-168.37C87.79,-150.05 123.37,-107.05 142.96,-83.36"/>
<polygon fill="midnightblue" stroke="midnightblue" points="145.72,-85.53 149.39,-75.59 140.32,-81.07 145.72,-85.53"/>
</g>
<!-- Node5 -->
<g id="node5" class="node">
<title>Node5</title>
<g id="a_node5"><a xlink:href="types_8h.html" target="_top" xlink:title="Types defined by the ANT+ FIT SDK.">
<polygon fill="none" stroke="black" points="185,-112.5 185,-131.5 238,-131.5 238,-112.5 185,-112.5"/>
<text text-anchor="middle" x="211.5" y="-119.5" font-family="Helvetica,sans-Serif" font-size="10.00">types.h</text>
</a>
</g>
</g>
<!-- Node2&#45;&gt;Node5 -->
<g id="edge4" class="edge">
<title>Node2&#45;&gt;Node5</title>
<path fill="none" stroke="midnightblue" d="M88.63,-168.44C112.98,-159.44 151.51,-145.19 178.92,-135.05"/>
<polygon fill="midnightblue" stroke="midnightblue" points="180.31,-138.27 188.47,-131.52 177.88,-131.7 180.31,-138.27"/>
</g>
<!-- Node4 -->
<g id="node4" class="node">
<title>Node4</title>
<g id="a_node4"><a xlink:title=" ">
<polygon fill="none" stroke="#bfbfbf" points="127,-0.5 127,-19.5 186,-19.5 186,-0.5 127,-0.5"/>
<text text-anchor="middle" x="156.5" y="-7.5" font-family="Helvetica,sans-Serif" font-size="10.00">QtGlobal</text>
</a>
</g>
</g>
<!-- Node3&#45;&gt;Node4 -->
<g id="edge3" class="edge">
<title>Node3&#45;&gt;Node4</title>
<path fill="none" stroke="midnightblue" d="M156.5,-56.08C156.5,-49.01 156.5,-38.86 156.5,-29.99"/>
<polygon fill="midnightblue" stroke="midnightblue" points="160,-29.75 156.5,-19.75 153,-29.75 160,-29.75"/>
</g>
<!-- Node5&#45;&gt;Node3 -->
<g id="edge5" class="edge">
<title>Node5&#45;&gt;Node3</title>
<path fill="none" stroke="midnightblue" d="M202.42,-112.08C194.33,-104.14 182.3,-92.34 172.59,-82.8"/>
<polygon fill="midnightblue" stroke="midnightblue" points="175,-80.26 165.41,-75.75 170.1,-85.25 175,-80.26"/>
</g>
<!-- Node5&#45;&gt;Node6 -->
<g id="edge6" class="edge">
<title>Node5&#45;&gt;Node6</title>
<path fill="none" stroke="midnightblue" d="M223.23,-112.32C234.34,-104.11 251.24,-91.6 264.48,-81.81"/>
<polygon fill="midnightblue" stroke="midnightblue" points="266.6,-84.59 272.56,-75.83 262.44,-78.97 266.6,-84.59"/>
</g>
<!-- Node7&#45;&gt;Node3 -->
<g id="edge8" class="edge">
<title>Node7&#45;&gt;Node3</title>
<path fill="none" stroke="midnightblue" d="M200.03,-224.08C192.79,-197.95 171.52,-121.21 161.65,-85.58"/>
<polygon fill="midnightblue" stroke="midnightblue" points="164.92,-84.27 158.87,-75.57 158.17,-86.14 164.92,-84.27"/>
</g>
<!-- Node7&#45;&gt;Node5 -->
<g id="edge9" class="edge">
<title>Node7&#45;&gt;Node5</title>
<path fill="none" stroke="midnightblue" d="M203.21,-224.37C204.66,-206.62 208.01,-165.67 209.98,-141.6"/>
<polygon fill="midnightblue" stroke="midnightblue" points="213.47,-141.84 210.8,-131.59 206.49,-141.27 213.47,-141.84"/>
</g>
<!-- Node8 -->
<g id="node8" class="node">
<title>Node8</title>
<g id="a_node8"><a xlink:href="types__p_8h.html" target="_top" xlink:title="Internal types used by QtFit classes.">
<polygon fill="none" stroke="black" points="230.5,-168.5 230.5,-187.5 294.5,-187.5 294.5,-168.5 230.5,-168.5"/>
<text text-anchor="middle" x="262.5" y="-175.5" font-family="Helvetica,sans-Serif" font-size="10.00">types_p.h</text>
</a>
</g>
</g>
<!-- Node7&#45;&gt;Node8 -->
<g id="edge10" class="edge">
<title>Node7&#45;&gt;Node8</title>
<path fill="none" stroke="midnightblue" d="M212.14,-224.32C221.01,-216.34 234.37,-204.31 245.11,-194.65"/>
<polygon fill="midnightblue" stroke="midnightblue" points="247.59,-197.13 252.68,-187.83 242.91,-191.92 247.59,-197.13"/>
</g>
<!-- Node8&#45;&gt;Node5 -->
<g id="edge11" class="edge">
<title>Node8&#45;&gt;Node5</title>
<path fill="none" stroke="midnightblue" d="M254.08,-168.08C246.65,-160.22 235.65,-148.57 226.69,-139.08"/>
<polygon fill="midnightblue" stroke="midnightblue" points="229.18,-136.62 219.76,-131.75 224.09,-141.42 229.18,-136.62"/>
</g>
<!-- Node9 -->
<g id="node9" class="node">
<title>Node9</title>
<g id="a_node9"><a xlink:title=" ">
<polygon fill="none" stroke="#bfbfbf" points="256,-112.5 256,-131.5 297,-131.5 297,-112.5 256,-112.5"/>
<text text-anchor="middle" x="276.5" y="-119.5" font-family="Helvetica,sans-Serif" font-size="10.00">QList</text>
</a>
</g>
</g>
<!-- Node8&#45;&gt;Node9 -->
<g id="edge12" class="edge">
<title>Node8&#45;&gt;Node9</title>
<path fill="none" stroke="midnightblue" d="M264.81,-168.08C266.67,-160.93 269.34,-150.64 271.65,-141.69"/>
<polygon fill="midnightblue" stroke="midnightblue" points="275.11,-142.31 274.23,-131.75 268.33,-140.55 275.11,-142.31"/>
</g>
</g>
</svg>
