<?xml version="1.0" encoding="UTF-8" standalone="no"?>
<!DOCTYPE svg PUBLIC "-//W3C//DTD SVG 1.1//EN"
 "http://www.w3.org/Graphics/SVG/1.1/DTD/svg11.dtd">
<!-- Generated by graphviz version 2.43.0 (0)
 -->
<!-- Title: accelerometerdatamessage.cpp Pages: 1 -->
<svg width="480pt" height="364pt"
 viewBox="0.00 0.00 479.50 364.00" xmlns="http://www.w3.org/2000/svg" xmlns:xlink="http://www.w3.org/1999/xlink">
<g id="graph0" class="graph" transform="scale(1 1) rotate(0) translate(4 360)">
<title>accelerometerdatamessage.cpp</title>
<!-- Node1 -->
<g id="node1" class="node">
<title>Node1</title>
<g id="a_node1"><a xlink:title=" ">
<polygon fill="#bfbfbf" stroke="black" points="237.5,-336.5 237.5,-355.5 410.5,-355.5 410.5,-336.5 237.5,-336.5"/>
<text text-anchor="middle" x="324" y="-343.5" font-family="Helvetica,sans-Serif" font-size="10.00">accelerometerdatamessage.cpp</text>
</a>
</g>
</g>
<!-- Node2 -->
<g id="node2" class="node">
<title>Node2</title>
<g id="a_node2"><a xlink:href="accelerometerdatamessage_8h.html" target="_top" xlink:title=" ">
<polygon fill="none" stroke="black" points="0,-280.5 0,-299.5 162,-299.5 162,-280.5 0,-280.5"/>
<text text-anchor="middle" x="81" y="-287.5" font-family="Helvetica,sans-Serif" font-size="10.00">accelerometerdatamessage.h</text>
</a>
</g>
</g>
<!-- Node1&#45;&gt;Node2 -->
<g id="edge1" class="edge">
<title>Node1&#45;&gt;Node2</title>
<path fill="none" stroke="midnightblue" d="M285.5,-336.44C243.19,-327.04 175.18,-311.93 129.33,-301.74"/>
<polygon fill="midnightblue" stroke="midnightblue" points="129.85,-298.27 119.32,-299.52 128.33,-305.1 129.85,-298.27"/>
</g>
<!-- Node7 -->
<g id="node7" class="node">
<title>Node7</title>
<g id="a_node7"><a xlink:title=" ">
<polygon fill="none" stroke="#bfbfbf" points="313,-56.5 313,-75.5 369,-75.5 369,-56.5 313,-56.5"/>
<text text-anchor="middle" x="341" y="-63.5" font-family="Helvetica,sans-Serif" font-size="10.00">QDebug</text>
</a>
</g>
</g>
<!-- Node1&#45;&gt;Node7 -->
<g id="edge15" class="edge">
<title>Node1&#45;&gt;Node7</title>
<path fill="none" stroke="midnightblue" d="M333.67,-336.25C342.49,-327.77 355.28,-314.16 363,-300 377.41,-273.58 382,-265.1 382,-235 382,-235 382,-235 382,-177 382,-142.52 364.09,-105.56 351.94,-84.47"/>
<polygon fill="midnightblue" stroke="midnightblue" points="354.84,-82.49 346.7,-75.71 348.84,-86.09 354.84,-82.49"/>
</g>
<!-- Node8 -->
<g id="node8" class="node">
<title>Node8</title>
<g id="a_node8"><a xlink:href="accelerometerdatamessage__p_8h.html" target="_top" xlink:title=" ">
<polygon fill="none" stroke="black" points="180.5,-280.5 180.5,-299.5 353.5,-299.5 353.5,-280.5 180.5,-280.5"/>
<text text-anchor="middle" x="267" y="-287.5" font-family="Helvetica,sans-Serif" font-size="10.00">accelerometerdatamessage_p.h</text>
</a>
</g>
</g>
<!-- Node1&#45;&gt;Node8 -->
<g id="edge8" class="edge">
<title>Node1&#45;&gt;Node8</title>
<path fill="none" stroke="midnightblue" d="M314.84,-336.32C306.5,-328.42 293.97,-316.55 283.82,-306.94"/>
<polygon fill="midnightblue" stroke="midnightblue" points="285.99,-304.17 276.32,-299.83 281.18,-309.25 285.99,-304.17"/>
</g>
<!-- Node12 -->
<g id="node12" class="node">
<title>Node12</title>
<g id="a_node12"><a xlink:title=" ">
<polygon fill="none" stroke="#bfbfbf" points="410.5,-280.5 410.5,-299.5 471.5,-299.5 471.5,-280.5 410.5,-280.5"/>
<text text-anchor="middle" x="441" y="-287.5" font-family="Helvetica,sans-Serif" font-size="10.00">QtEndian</text>
</a>
</g>
</g>
<!-- Node1&#45;&gt;Node12 -->
<g id="edge16" class="edge">
<title>Node1&#45;&gt;Node12</title>
<path fill="none" stroke="midnightblue" d="M342.54,-336.44C361.62,-327.64 391.57,-313.81 413.44,-303.72"/>
<polygon fill="midnightblue" stroke="midnightblue" points="414.93,-306.88 422.55,-299.52 412,-300.53 414.93,-306.88"/>
</g>
<!-- Node3 -->
<g id="node3" class="node">
<title>Node3</title>
<g id="a_node3"><a xlink:href="abstractdatamessage_8h_source.html" target="_top" xlink:title=" ">
<polygon fill="none" stroke="black" points="50.5,-168.5 50.5,-187.5 181.5,-187.5 181.5,-168.5 50.5,-168.5"/>
<text text-anchor="middle" x="116" y="-175.5" font-family="Helvetica,sans-Serif" font-size="10.00">abstractdatamessage.h</text>
</a>
</g>
</g>
<!-- Node2&#45;&gt;Node3 -->
<g id="edge2" class="edge">
<title>Node2&#45;&gt;Node3</title>
<path fill="none" stroke="midnightblue" d="M83.75,-280.37C89.42,-262.54 102.54,-221.3 110.19,-197.27"/>
<polygon fill="midnightblue" stroke="midnightblue" points="113.57,-198.18 113.27,-187.59 106.9,-196.06 113.57,-198.18"/>
</g>
<!-- Node4 -->
<g id="node4" class="node">
<title>Node4</title>
<g id="a_node4"><a xlink:href="QtFit__global_8h_source.html" target="_top" xlink:title=" ">
<polygon fill="none" stroke="black" points="168,-56.5 168,-75.5 252,-75.5 252,-56.5 168,-56.5"/>
<text text-anchor="middle" x="210" y="-63.5" font-family="Helvetica,sans-Serif" font-size="10.00">QtFit_global.h</text>
</a>
</g>
</g>
<!-- Node3&#45;&gt;Node4 -->
<g id="edge3" class="edge">
<title>Node3&#45;&gt;Node4</title>
<path fill="none" stroke="midnightblue" d="M123.38,-168.37C139.03,-150.05 175.78,-107.05 196.02,-83.36"/>
<polygon fill="midnightblue" stroke="midnightblue" points="198.82,-85.47 202.66,-75.59 193.5,-80.92 198.82,-85.47"/>
</g>
<!-- Node6 -->
<g id="node6" class="node">
<title>Node6</title>
<g id="a_node6"><a xlink:href="types_8h.html" target="_top" xlink:title="Types defined by the ANT+ FIT SDK.">
<polygon fill="none" stroke="black" points="238.5,-112.5 238.5,-131.5 291.5,-131.5 291.5,-112.5 238.5,-112.5"/>
<text text-anchor="middle" x="265" y="-119.5" font-family="Helvetica,sans-Serif" font-size="10.00">types.h</text>
</a>
</g>
</g>
<!-- Node3&#45;&gt;Node6 -->
<g id="edge5" class="edge">
<title>Node3&#45;&gt;Node6</title>
<path fill="none" stroke="midnightblue" d="M139.61,-168.44C164.46,-159.44 203.77,-145.19 231.75,-135.05"/>
<polygon fill="midnightblue" stroke="midnightblue" points="233.29,-138.21 241.5,-131.52 230.91,-131.63 233.29,-138.21"/>
</g>
<!-- Node5 -->
<g id="node5" class="node">
<title>Node5</title>
<g id="a_node5"><a xlink:title=" ">
<polygon fill="none" stroke="#bfbfbf" points="180.5,-0.5 180.5,-19.5 239.5,-19.5 239.5,-0.5 180.5,-0.5"/>
<text text-anchor="middle" x="210" y="-7.5" font-family="Helvetica,sans-Serif" font-size="10.00">QtGlobal</text>
</a>
</g>
</g>
<!-- Node4&#45;&gt;Node5 -->
<g id="edge4" class="edge">
<title>Node4&#45;&gt;Node5</title>
<path fill="none" stroke="midnightblue" d="M210,-56.08C210,-49.01 210,-38.86 210,-29.99"/>
<polygon fill="midnightblue" stroke="midnightblue" points="213.5,-29.75 210,-19.75 206.5,-29.75 213.5,-29.75"/>
</g>
<!-- Node6&#45;&gt;Node4 -->
<g id="edge6" class="edge">
<title>Node6&#45;&gt;Node4</title>
<path fill="none" stroke="midnightblue" d="M255.92,-112.08C247.83,-104.14 235.8,-92.34 226.09,-82.8"/>
<polygon fill="midnightblue" stroke="midnightblue" points="228.5,-80.26 218.91,-75.75 223.6,-85.25 228.5,-80.26"/>
</g>
<!-- Node6&#45;&gt;Node7 -->
<g id="edge7" class="edge">
<title>Node6&#45;&gt;Node7</title>
<path fill="none" stroke="midnightblue" d="M277.21,-112.32C288.78,-104.11 306.38,-91.6 320.16,-81.81"/>
<polygon fill="midnightblue" stroke="midnightblue" points="322.44,-84.48 328.57,-75.83 318.39,-78.77 322.44,-84.48"/>
</g>
<!-- Node9 -->
<g id="node9" class="node">
<title>Node9</title>
<g id="a_node9"><a xlink:href="abstractdatamessage__p_8h_source.html" target="_top" xlink:title=" ">
<polygon fill="none" stroke="black" points="192.5,-224.5 192.5,-243.5 335.5,-243.5 335.5,-224.5 192.5,-224.5"/>
<text text-anchor="middle" x="264" y="-231.5" font-family="Helvetica,sans-Serif" font-size="10.00">abstractdatamessage_p.h</text>
</a>
</g>
</g>
<!-- Node8&#45;&gt;Node9 -->
<g id="edge9" class="edge">
<title>Node8&#45;&gt;Node9</title>
<path fill="none" stroke="midnightblue" d="M266.5,-280.08C266.11,-273.01 265.55,-262.86 265.05,-253.99"/>
<polygon fill="midnightblue" stroke="midnightblue" points="268.54,-253.54 264.49,-243.75 261.55,-253.93 268.54,-253.54"/>
</g>
<!-- Node9&#45;&gt;Node4 -->
<g id="edge10" class="edge">
<title>Node9&#45;&gt;Node4</title>
<path fill="none" stroke="midnightblue" d="M260.86,-224.4C254.55,-207.03 240,-166.47 229,-132 224.03,-116.42 218.85,-98.59 215.16,-85.55"/>
<polygon fill="midnightblue" stroke="midnightblue" points="218.52,-84.56 212.44,-75.87 211.78,-86.45 218.52,-84.56"/>
</g>
<!-- Node9&#45;&gt;Node6 -->
<g id="edge11" class="edge">
<title>Node9&#45;&gt;Node6</title>
<path fill="none" stroke="midnightblue" d="M264.08,-224.37C264.24,-206.62 264.61,-165.67 264.83,-141.6"/>
<polygon fill="midnightblue" stroke="midnightblue" points="268.33,-141.62 264.92,-131.59 261.33,-141.56 268.33,-141.62"/>
</g>
<!-- Node10 -->
<g id="node10" class="node">
<title>Node10</title>
<g id="a_node10"><a xlink:href="types__p_8h_source.html" target="_top" xlink:title=" ">
<polygon fill="none" stroke="black" points="290,-168.5 290,-187.5 354,-187.5 354,-168.5 290,-168.5"/>
<text text-anchor="middle" x="322" y="-175.5" font-family="Helvetica,sans-Serif" font-size="10.00">types_p.h</text>
</a>
</g>
</g>
<!-- Node9&#45;&gt;Node10 -->
<g id="edge12" class="edge">
<title>Node9&#45;&gt;Node10</title>
<path fill="none" stroke="midnightblue" d="M273.32,-224.32C281.89,-216.34 294.81,-204.31 305.19,-194.65"/>
<polygon fill="midnightblue" stroke="midnightblue" points="307.58,-197.21 312.51,-187.83 302.81,-192.09 307.58,-197.21"/>
</g>
<!-- Node10&#45;&gt;Node6 -->
<g id="edge13" class="edge">
<title>Node10&#45;&gt;Node6</title>
<path fill="none" stroke="midnightblue" d="M312.84,-168.32C304.5,-160.42 291.97,-148.55 281.82,-138.94"/>
<polygon fill="midnightblue" stroke="midnightblue" points="283.99,-136.17 274.32,-131.83 279.18,-141.25 283.99,-136.17"/>
</g>
<!-- Node11 -->
<g id="node11" class="node">
<title>Node11</title>
<g id="a_node11"><a xlink:title=" ">
<polygon fill="none" stroke="#bfbfbf" points="309.5,-112.5 309.5,-131.5 350.5,-131.5 350.5,-112.5 309.5,-112.5"/>
<text text-anchor="middle" x="330" y="-119.5" font-family="Helvetica,sans-Serif" font-size="10.00">QList</text>
</a>
</g>
</g>
<!-- Node10&#45;&gt;Node11 -->
<g id="edge14" class="edge">
<title>Node10&#45;&gt;Node11</title>
<path fill="none" stroke="midnightblue" d="M323.32,-168.08C324.38,-160.93 325.91,-150.64 327.23,-141.69"/>
<polygon fill="midnightblue" stroke="midnightblue" points="330.7,-142.16 328.7,-131.75 323.78,-141.13 330.7,-142.16"/>
</g>
</g>
</svg>
