<?xml version="1.0" encoding="UTF-8" standalone="no"?>
<!DOCTYPE svg PUBLIC "-//W3C//DTD SVG 1.1//EN"
 "http://www.w3.org/Graphics/SVG/1.1/DTD/svg11.dtd">
<!-- Generated by graphviz version 2.43.0 (0)
 -->
<!-- Title: accelerometerdatamessage.cpp Pages: 1 -->
<svg width="383pt" height="364pt"
 viewBox="0.00 0.00 383.00 364.00" xmlns="http://www.w3.org/2000/svg" xmlns:xlink="http://www.w3.org/1999/xlink">
<g id="graph0" class="graph" transform="scale(1 1) rotate(0) translate(4 360)">
<title>accelerometerdatamessage.cpp</title>
<!-- Node1 -->
<g id="node1" class="node">
<title>Node1</title>
<g id="a_node1"><a xlink:title=" ">
<polygon fill="#bfbfbf" stroke="black" points="153,-336.5 153,-355.5 326,-355.5 326,-336.5 153,-336.5"/>
<text text-anchor="middle" x="239.5" y="-343.5" font-family="Helvetica,sans-Serif" font-size="10.00">accelerometerdatamessage.cpp</text>
</a>
</g>
</g>
<!-- Node2 -->
<g id="node2" class="node">
<title>Node2</title>
<g id="a_node2"><a xlink:href="accelerometerdatamessage_8h.html" target="_top" xlink:title=" ">
<polygon fill="none" stroke="black" points="141.5,-224.5 141.5,-243.5 303.5,-243.5 303.5,-224.5 141.5,-224.5"/>
<text text-anchor="middle" x="222.5" y="-231.5" font-family="Helvetica,sans-Serif" font-size="10.00">accelerometerdatamessage.h</text>
</a>
</g>
</g>
<!-- Node1&#45;&gt;Node2 -->
<g id="edge1" class="edge">
<title>Node1&#45;&gt;Node2</title>
<path fill="none" stroke="midnightblue" d="M237.58,-336.41C235.61,-327.38 232.56,-312.74 230.5,-300 228.01,-284.55 225.88,-266.92 224.45,-253.92"/>
<polygon fill="midnightblue" stroke="midnightblue" points="227.92,-253.43 223.38,-243.86 220.96,-254.18 227.92,-253.43"/>
</g>
<!-- Node7 -->
<g id="node7" class="node">
<title>Node7</title>
<g id="a_node7"><a xlink:href="accelerometerdatamessage__p_8h.html" target="_top" xlink:title=" ">
<polygon fill="none" stroke="black" points="0,-280.5 0,-299.5 173,-299.5 173,-280.5 0,-280.5"/>
<text text-anchor="middle" x="86.5" y="-287.5" font-family="Helvetica,sans-Serif" font-size="10.00">accelerometerdatamessage_p.h</text>
</a>
</g>
</g>
<!-- Node1&#45;&gt;Node7 -->
<g id="edge7" class="edge">
<title>Node1&#45;&gt;Node7</title>
<path fill="none" stroke="midnightblue" d="M215.26,-336.44C189.63,-327.4 149.01,-313.06 120.26,-302.92"/>
<polygon fill="midnightblue" stroke="midnightblue" points="121.22,-299.54 110.63,-299.52 118.89,-306.15 121.22,-299.54"/>
</g>
<!-- Node11 -->
<g id="node11" class="node">
<title>Node11</title>
<g id="a_node11"><a xlink:title=" ">
<polygon fill="none" stroke="#bfbfbf" points="239.5,-280.5 239.5,-299.5 295.5,-299.5 295.5,-280.5 239.5,-280.5"/>
<text text-anchor="middle" x="267.5" y="-287.5" font-family="Helvetica,sans-Serif" font-size="10.00">QDebug</text>
</a>
</g>
</g>
<!-- Node1&#45;&gt;Node11 -->
<g id="edge14" class="edge">
<title>Node1&#45;&gt;Node11</title>
<path fill="none" stroke="midnightblue" d="M244.12,-336.08C247.96,-328.69 253.52,-317.95 258.26,-308.81"/>
<polygon fill="midnightblue" stroke="midnightblue" points="261.47,-310.24 262.96,-299.75 255.25,-307.02 261.47,-310.24"/>
</g>
<!-- Node12 -->
<g id="node12" class="node">
<title>Node12</title>
<g id="a_node12"><a xlink:title=" ">
<polygon fill="none" stroke="#bfbfbf" points="314,-280.5 314,-299.5 375,-299.5 375,-280.5 314,-280.5"/>
<text text-anchor="middle" x="344.5" y="-287.5" font-family="Helvetica,sans-Serif" font-size="10.00">QtEndian</text>
</a>
</g>
</g>
<!-- Node1&#45;&gt;Node12 -->
<g id="edge15" class="edge">
<title>Node1&#45;&gt;Node12</title>
<path fill="none" stroke="midnightblue" d="M256.37,-336.32C273.21,-327.66 299.31,-314.24 318.74,-304.25"/>
<polygon fill="midnightblue" stroke="midnightblue" points="320.38,-307.34 327.67,-299.65 317.18,-301.12 320.38,-307.34"/>
</g>
<!-- Node3 -->
<g id="node3" class="node">
<title>Node3</title>
<g id="a_node3"><a xlink:href="fitdatamessage_8h.html" target="_top" xlink:title=" ">
<polygon fill="none" stroke="black" points="164,-168.5 164,-187.5 265,-187.5 265,-168.5 164,-168.5"/>
<text text-anchor="middle" x="214.5" y="-175.5" font-family="Helvetica,sans-Serif" font-size="10.00">fitdatamessage.h</text>
</a>
</g>
</g>
<!-- Node2&#45;&gt;Node3 -->
<g id="edge2" class="edge">
<title>Node2&#45;&gt;Node3</title>
<path fill="none" stroke="midnightblue" d="M221.18,-224.08C220.12,-216.93 218.59,-206.64 217.27,-197.69"/>
<polygon fill="midnightblue" stroke="midnightblue" points="220.72,-197.13 215.8,-187.75 213.8,-198.16 220.72,-197.13"/>
</g>
<!-- Node4 -->
<g id="node4" class="node">
<title>Node4</title>
<g id="a_node4"><a xlink:href="QtFit__global_8h.html" target="_top" xlink:title=" ">
<polygon fill="none" stroke="black" points="95.5,-56.5 95.5,-75.5 179.5,-75.5 179.5,-56.5 95.5,-56.5"/>
<text text-anchor="middle" x="137.5" y="-63.5" font-family="Helvetica,sans-Serif" font-size="10.00">QtFit_global.h</text>
</a>
</g>
</g>
<!-- Node3&#45;&gt;Node4 -->
<g id="edge3" class="edge">
<title>Node3&#45;&gt;Node4</title>
<path fill="none" stroke="midnightblue" d="M209.49,-168.39C202.04,-155.75 187.43,-131.56 173.5,-112 166.61,-102.32 158.36,-91.94 151.51,-83.59"/>
<polygon fill="midnightblue" stroke="midnightblue" points="154.06,-81.19 144.97,-75.74 148.68,-85.66 154.06,-81.19"/>
</g>
<!-- Node6 -->
<g id="node6" class="node">
<title>Node6</title>
<g id="a_node6"><a xlink:href="types_8h.html" target="_top" xlink:title="Types defined by the ANT+ FIT SDK.">
<polygon fill="none" stroke="black" points="111,-112.5 111,-131.5 164,-131.5 164,-112.5 111,-112.5"/>
<text text-anchor="middle" x="137.5" y="-119.5" font-family="Helvetica,sans-Serif" font-size="10.00">types.h</text>
</a>
</g>
</g>
<!-- Node3&#45;&gt;Node6 -->
<g id="edge5" class="edge">
<title>Node3&#45;&gt;Node6</title>
<path fill="none" stroke="midnightblue" d="M202.13,-168.32C190.34,-160.06 172.37,-147.45 158.36,-137.63"/>
<polygon fill="midnightblue" stroke="midnightblue" points="160.04,-134.53 149.84,-131.65 156.02,-140.26 160.04,-134.53"/>
</g>
<!-- Node5 -->
<g id="node5" class="node">
<title>Node5</title>
<g id="a_node5"><a xlink:title=" ">
<polygon fill="none" stroke="#bfbfbf" points="108,-0.5 108,-19.5 167,-19.5 167,-0.5 108,-0.5"/>
<text text-anchor="middle" x="137.5" y="-7.5" font-family="Helvetica,sans-Serif" font-size="10.00">QtGlobal</text>
</a>
</g>
</g>
<!-- Node4&#45;&gt;Node5 -->
<g id="edge4" class="edge">
<title>Node4&#45;&gt;Node5</title>
<path fill="none" stroke="midnightblue" d="M137.5,-56.08C137.5,-49.01 137.5,-38.86 137.5,-29.99"/>
<polygon fill="midnightblue" stroke="midnightblue" points="141,-29.75 137.5,-19.75 134,-29.75 141,-29.75"/>
</g>
<!-- Node6&#45;&gt;Node4 -->
<g id="edge6" class="edge">
<title>Node6&#45;&gt;Node4</title>
<path fill="none" stroke="midnightblue" d="M137.5,-112.08C137.5,-105.01 137.5,-94.86 137.5,-85.99"/>
<polygon fill="midnightblue" stroke="midnightblue" points="141,-85.75 137.5,-75.75 134,-85.75 141,-85.75"/>
</g>
<!-- Node8 -->
<g id="node8" class="node">
<title>Node8</title>
<g id="a_node8"><a xlink:href="fitdatamessage__p_8h.html" target="_top" xlink:title=" ">
<polygon fill="none" stroke="black" points="10,-224.5 10,-243.5 123,-243.5 123,-224.5 10,-224.5"/>
<text text-anchor="middle" x="66.5" y="-231.5" font-family="Helvetica,sans-Serif" font-size="10.00">fitdatamessage_p.h</text>
</a>
</g>
</g>
<!-- Node7&#45;&gt;Node8 -->
<g id="edge8" class="edge">
<title>Node7&#45;&gt;Node8</title>
<path fill="none" stroke="midnightblue" d="M83.2,-280.08C80.52,-272.85 76.65,-262.41 73.31,-253.4"/>
<polygon fill="midnightblue" stroke="midnightblue" points="76.5,-251.91 69.74,-243.75 69.93,-254.34 76.5,-251.91"/>
</g>
<!-- Node8&#45;&gt;Node4 -->
<g id="edge9" class="edge">
<title>Node8&#45;&gt;Node4</title>
<path fill="none" stroke="midnightblue" d="M57.75,-224.29C49.94,-215.84 39.05,-202.25 34.5,-188 28.26,-168.45 36.77,-119.78 42.5,-112 54.1,-96.26 72.64,-85.81 90.27,-78.98"/>
<polygon fill="midnightblue" stroke="midnightblue" points="91.67,-82.2 99.92,-75.55 89.32,-75.6 91.67,-82.2"/>
</g>
<!-- Node8&#45;&gt;Node6 -->
<g id="edge10" class="edge">
<title>Node8&#45;&gt;Node6</title>
<path fill="none" stroke="midnightblue" d="M79.33,-224.45C90.61,-216.31 106.72,-203.09 116.5,-188 125.67,-173.85 131.14,-155.37 134.18,-141.73"/>
<polygon fill="midnightblue" stroke="midnightblue" points="137.67,-142.11 136.19,-131.61 130.81,-140.74 137.67,-142.11"/>
</g>
<!-- Node9 -->
<g id="node9" class="node">
<title>Node9</title>
<g id="a_node9"><a xlink:href="types__p_8h.html" target="_top" xlink:title=" ">
<polygon fill="none" stroke="black" points="43.5,-168.5 43.5,-187.5 107.5,-187.5 107.5,-168.5 43.5,-168.5"/>
<text text-anchor="middle" x="75.5" y="-175.5" font-family="Helvetica,sans-Serif" font-size="10.00">types_p.h</text>
</a>
</g>
</g>
<!-- Node8&#45;&gt;Node9 -->
<g id="edge11" class="edge">
<title>Node8&#45;&gt;Node9</title>
<path fill="none" stroke="midnightblue" d="M67.99,-224.08C69.18,-216.93 70.89,-206.64 72.38,-197.69"/>
<polygon fill="midnightblue" stroke="midnightblue" points="75.85,-198.19 74.04,-187.75 68.95,-197.04 75.85,-198.19"/>
</g>
<!-- Node9&#45;&gt;Node6 -->
<g id="edge12" class="edge">
<title>Node9&#45;&gt;Node6</title>
<path fill="none" stroke="midnightblue" d="M85.46,-168.32C94.63,-160.34 108.44,-148.31 119.53,-138.65"/>
<polygon fill="midnightblue" stroke="midnightblue" points="122.12,-141.04 127.36,-131.83 117.52,-135.76 122.12,-141.04"/>
</g>
<!-- Node10 -->
<g id="node10" class="node">
<title>Node10</title>
<g id="a_node10"><a xlink:title=" ">
<polygon fill="none" stroke="#bfbfbf" points="52,-112.5 52,-131.5 93,-131.5 93,-112.5 52,-112.5"/>
<text text-anchor="middle" x="72.5" y="-119.5" font-family="Helvetica,sans-Serif" font-size="10.00">QList</text>
</a>
</g>
</g>
<!-- Node9&#45;&gt;Node10 -->
<g id="edge13" class="edge">
<title>Node9&#45;&gt;Node10</title>
<path fill="none" stroke="midnightblue" d="M75,-168.08C74.61,-161.01 74.05,-150.86 73.55,-141.99"/>
<polygon fill="midnightblue" stroke="midnightblue" points="77.04,-141.54 72.99,-131.75 70.05,-141.93 77.04,-141.54"/>
</g>
</g>
</svg>
