<?xml version="1.0" encoding="UTF-8" standalone="no"?>
<!DOCTYPE svg PUBLIC "-//W3C//DTD SVG 1.1//EN"
 "http://www.w3.org/Graphics/SVG/1.1/DTD/svg11.dtd">
<!-- Generated by graphviz version 2.43.0 (0)
 -->
<!-- Title: accelerometerdatamessage_p.h Pages: 1 -->
<svg width="189pt" height="308pt"
 viewBox="0.00 0.00 189.00 308.00" xmlns="http://www.w3.org/2000/svg" xmlns:xlink="http://www.w3.org/1999/xlink">
<g id="graph0" class="graph" transform="scale(1 1) rotate(0) translate(4 304)">
<title>accelerometerdatamessage_p.h</title>
<!-- Node1 -->
<g id="node1" class="node">
<title>Node1</title>
<g id="a_node1"><a xlink:title=" ">
<polygon fill="#bfbfbf" stroke="black" points="0,-280.5 0,-299.5 173,-299.5 173,-280.5 0,-280.5"/>
<text text-anchor="middle" x="86.5" y="-287.5" font-family="Helvetica,sans-Serif" font-size="10.00">accelerometerdatamessage_p.h</text>
</a>
</g>
</g>
<!-- Node2 -->
<g id="node2" class="node">
<title>Node2</title>
<g id="a_node2"><a xlink:href="fitdatamessage__p_8h.html" target="_top" xlink:title=" ">
<polygon fill="none" stroke="black" points="30,-224.5 30,-243.5 143,-243.5 143,-224.5 30,-224.5"/>
<text text-anchor="middle" x="86.5" y="-231.5" font-family="Helvetica,sans-Serif" font-size="10.00">fitdatamessage_p.h</text>
</a>
</g>
</g>
<!-- Node1&#45;&gt;Node2 -->
<g id="edge1" class="edge">
<title>Node1&#45;&gt;Node2</title>
<path fill="none" stroke="midnightblue" d="M86.5,-280.08C86.5,-273.01 86.5,-262.86 86.5,-253.99"/>
<polygon fill="midnightblue" stroke="midnightblue" points="90,-253.75 86.5,-243.75 83,-253.75 90,-253.75"/>
</g>
<!-- Node3 -->
<g id="node3" class="node">
<title>Node3</title>
<g id="a_node3"><a xlink:href="QtFit__global_8h.html" target="_top" xlink:title=" ">
<polygon fill="none" stroke="black" points="25.5,-56.5 25.5,-75.5 109.5,-75.5 109.5,-56.5 25.5,-56.5"/>
<text text-anchor="middle" x="67.5" y="-63.5" font-family="Helvetica,sans-Serif" font-size="10.00">QtFit_global.h</text>
</a>
</g>
</g>
<!-- Node2&#45;&gt;Node3 -->
<g id="edge2" class="edge">
<title>Node2&#45;&gt;Node3</title>
<path fill="none" stroke="midnightblue" d="M82.65,-224.32C74.32,-204.61 55.72,-154.88 59.5,-112 60.28,-103.2 61.89,-93.54 63.47,-85.43"/>
<polygon fill="midnightblue" stroke="midnightblue" points="66.91,-86.07 65.51,-75.57 60.06,-84.65 66.91,-86.07"/>
</g>
<!-- Node5 -->
<g id="node5" class="node">
<title>Node5</title>
<g id="a_node5"><a xlink:href="types_8h.html" target="_top" xlink:title="Types defined by the ANT+ FIT SDK.">
<polygon fill="none" stroke="black" points="69,-112.5 69,-131.5 122,-131.5 122,-112.5 69,-112.5"/>
<text text-anchor="middle" x="95.5" y="-119.5" font-family="Helvetica,sans-Serif" font-size="10.00">types.h</text>
</a>
</g>
</g>
<!-- Node2&#45;&gt;Node5 -->
<g id="edge4" class="edge">
<title>Node2&#45;&gt;Node5</title>
<path fill="none" stroke="midnightblue" d="M87.21,-224.37C88.66,-206.62 92.01,-165.67 93.98,-141.6"/>
<polygon fill="midnightblue" stroke="midnightblue" points="97.47,-141.84 94.8,-131.59 90.49,-141.27 97.47,-141.84"/>
</g>
<!-- Node6 -->
<g id="node6" class="node">
<title>Node6</title>
<g id="a_node6"><a xlink:href="types__p_8h.html" target="_top" xlink:title=" ">
<polygon fill="none" stroke="black" points="114.5,-168.5 114.5,-187.5 178.5,-187.5 178.5,-168.5 114.5,-168.5"/>
<text text-anchor="middle" x="146.5" y="-175.5" font-family="Helvetica,sans-Serif" font-size="10.00">types_p.h</text>
</a>
</g>
</g>
<!-- Node2&#45;&gt;Node6 -->
<g id="edge6" class="edge">
<title>Node2&#45;&gt;Node6</title>
<path fill="none" stroke="midnightblue" d="M96.14,-224.32C105.01,-216.34 118.37,-204.31 129.11,-194.65"/>
<polygon fill="midnightblue" stroke="midnightblue" points="131.59,-197.13 136.68,-187.83 126.91,-191.92 131.59,-197.13"/>
</g>
<!-- Node4 -->
<g id="node4" class="node">
<title>Node4</title>
<g id="a_node4"><a xlink:title=" ">
<polygon fill="none" stroke="#bfbfbf" points="38,-0.5 38,-19.5 97,-19.5 97,-0.5 38,-0.5"/>
<text text-anchor="middle" x="67.5" y="-7.5" font-family="Helvetica,sans-Serif" font-size="10.00">QtGlobal</text>
</a>
</g>
</g>
<!-- Node3&#45;&gt;Node4 -->
<g id="edge3" class="edge">
<title>Node3&#45;&gt;Node4</title>
<path fill="none" stroke="midnightblue" d="M67.5,-56.08C67.5,-49.01 67.5,-38.86 67.5,-29.99"/>
<polygon fill="midnightblue" stroke="midnightblue" points="71,-29.75 67.5,-19.75 64,-29.75 71,-29.75"/>
</g>
<!-- Node5&#45;&gt;Node3 -->
<g id="edge5" class="edge">
<title>Node5&#45;&gt;Node3</title>
<path fill="none" stroke="midnightblue" d="M90.88,-112.08C87.04,-104.69 81.48,-93.95 76.74,-84.81"/>
<polygon fill="midnightblue" stroke="midnightblue" points="79.75,-83.02 72.04,-75.75 73.53,-86.24 79.75,-83.02"/>
</g>
<!-- Node6&#45;&gt;Node5 -->
<g id="edge7" class="edge">
<title>Node6&#45;&gt;Node5</title>
<path fill="none" stroke="midnightblue" d="M138.08,-168.08C130.65,-160.22 119.65,-148.57 110.69,-139.08"/>
<polygon fill="midnightblue" stroke="midnightblue" points="113.18,-136.62 103.76,-131.75 108.09,-141.42 113.18,-136.62"/>
</g>
<!-- Node7 -->
<g id="node7" class="node">
<title>Node7</title>
<g id="a_node7"><a xlink:title=" ">
<polygon fill="none" stroke="#bfbfbf" points="140,-112.5 140,-131.5 181,-131.5 181,-112.5 140,-112.5"/>
<text text-anchor="middle" x="160.5" y="-119.5" font-family="Helvetica,sans-Serif" font-size="10.00">QList</text>
</a>
</g>
</g>
<!-- Node6&#45;&gt;Node7 -->
<g id="edge8" class="edge">
<title>Node6&#45;&gt;Node7</title>
<path fill="none" stroke="midnightblue" d="M148.81,-168.08C150.67,-160.93 153.34,-150.64 155.65,-141.69"/>
<polygon fill="midnightblue" stroke="midnightblue" points="159.11,-142.31 158.23,-131.75 152.33,-140.55 159.11,-142.31"/>
</g>
</g>
</svg>
