<?xml version="1.0" encoding="UTF-8" standalone="no"?>
<!DOCTYPE svg PUBLIC "-//W3C//DTD SVG 1.1//EN"
 "http://www.w3.org/Graphics/SVG/1.1/DTD/svg11.dtd">
<!-- Generated by graphviz version 2.43.0 (0)
 -->
<!-- Title: accelerometerdatamessage.cpp Pages: 1 -->
<svg width="362pt" height="364pt"
 viewBox="0.00 0.00 361.50 364.00" xmlns="http://www.w3.org/2000/svg" xmlns:xlink="http://www.w3.org/1999/xlink">
<g id="graph0" class="graph" transform="scale(1 1) rotate(0) translate(4 360)">
<title>accelerometerdatamessage.cpp</title>
<!-- Node1 -->
<g id="node1" class="node">
<title>Node1</title>
<g id="a_node1"><a xlink:title=" ">
<polygon fill="#bfbfbf" stroke="black" points="93,-336.5 93,-355.5 266,-355.5 266,-336.5 93,-336.5"/>
<text text-anchor="middle" x="179.5" y="-343.5" font-family="Helvetica,sans-Serif" font-size="10.00">accelerometerdatamessage.cpp</text>
</a>
</g>
</g>
<!-- Node2 -->
<g id="node2" class="node">
<title>Node2</title>
<g id="a_node2"><a xlink:href="accelerometerdatamessage_8h.html" target="_top" xlink:title=" ">
<polygon fill="none" stroke="black" points="191.5,-280.5 191.5,-299.5 353.5,-299.5 353.5,-280.5 191.5,-280.5"/>
<text text-anchor="middle" x="272.5" y="-287.5" font-family="Helvetica,sans-Serif" font-size="10.00">accelerometerdatamessage.h</text>
</a>
</g>
</g>
<!-- Node1&#45;&gt;Node2 -->
<g id="edge1" class="edge">
<title>Node1&#45;&gt;Node2</title>
<path fill="none" stroke="midnightblue" d="M194.44,-336.32C209.09,-327.82 231.63,-314.73 248.74,-304.8"/>
<polygon fill="midnightblue" stroke="midnightblue" points="250.7,-307.7 257.6,-299.65 247.19,-301.65 250.7,-307.7"/>
</g>
<!-- Node7 -->
<g id="node7" class="node">
<title>Node7</title>
<g id="a_node7"><a xlink:href="accelerometerdatamessage__p_8h.html" target="_top" xlink:title=" ">
<polygon fill="none" stroke="black" points="0,-280.5 0,-299.5 173,-299.5 173,-280.5 0,-280.5"/>
<text text-anchor="middle" x="86.5" y="-287.5" font-family="Helvetica,sans-Serif" font-size="10.00">accelerometerdatamessage_p.h</text>
</a>
</g>
</g>
<!-- Node1&#45;&gt;Node7 -->
<g id="edge7" class="edge">
<title>Node1&#45;&gt;Node7</title>
<path fill="none" stroke="midnightblue" d="M164.56,-336.32C149.91,-327.82 127.37,-314.73 110.26,-304.8"/>
<polygon fill="midnightblue" stroke="midnightblue" points="111.81,-301.65 101.4,-299.65 108.3,-307.7 111.81,-301.65"/>
</g>
<!-- Node3 -->
<g id="node3" class="node">
<title>Node3</title>
<g id="a_node3"><a xlink:href="fitdatamessage_8h.html" target="_top" xlink:title=" ">
<polygon fill="none" stroke="black" points="210,-168.5 210,-187.5 311,-187.5 311,-168.5 210,-168.5"/>
<text text-anchor="middle" x="260.5" y="-175.5" font-family="Helvetica,sans-Serif" font-size="10.00">fitdatamessage.h</text>
</a>
</g>
</g>
<!-- Node2&#45;&gt;Node3 -->
<g id="edge2" class="edge">
<title>Node2&#45;&gt;Node3</title>
<path fill="none" stroke="midnightblue" d="M271.56,-280.37C269.62,-262.62 265.15,-221.67 262.53,-197.6"/>
<polygon fill="midnightblue" stroke="midnightblue" points="266,-197.15 261.44,-187.59 259.04,-197.91 266,-197.15"/>
</g>
<!-- Node4 -->
<g id="node4" class="node">
<title>Node4</title>
<g id="a_node4"><a xlink:href="QtFit__global_8h.html" target="_top" xlink:title=" ">
<polygon fill="none" stroke="black" points="141.5,-56.5 141.5,-75.5 225.5,-75.5 225.5,-56.5 141.5,-56.5"/>
<text text-anchor="middle" x="183.5" y="-63.5" font-family="Helvetica,sans-Serif" font-size="10.00">QtFit_global.h</text>
</a>
</g>
</g>
<!-- Node3&#45;&gt;Node4 -->
<g id="edge3" class="edge">
<title>Node3&#45;&gt;Node4</title>
<path fill="none" stroke="midnightblue" d="M255.49,-168.39C248.04,-155.75 233.43,-131.56 219.5,-112 212.61,-102.32 204.36,-91.94 197.51,-83.59"/>
<polygon fill="midnightblue" stroke="midnightblue" points="200.06,-81.19 190.97,-75.74 194.68,-85.66 200.06,-81.19"/>
</g>
<!-- Node6 -->
<g id="node6" class="node">
<title>Node6</title>
<g id="a_node6"><a xlink:href="types_8h.html" target="_top" xlink:title="Types defined by the ANT+ FIT SDK.">
<polygon fill="none" stroke="black" points="157,-112.5 157,-131.5 210,-131.5 210,-112.5 157,-112.5"/>
<text text-anchor="middle" x="183.5" y="-119.5" font-family="Helvetica,sans-Serif" font-size="10.00">types.h</text>
</a>
</g>
</g>
<!-- Node3&#45;&gt;Node6 -->
<g id="edge5" class="edge">
<title>Node3&#45;&gt;Node6</title>
<path fill="none" stroke="midnightblue" d="M248.13,-168.32C236.34,-160.06 218.37,-147.45 204.36,-137.63"/>
<polygon fill="midnightblue" stroke="midnightblue" points="206.04,-134.53 195.84,-131.65 202.02,-140.26 206.04,-134.53"/>
</g>
<!-- Node5 -->
<g id="node5" class="node">
<title>Node5</title>
<g id="a_node5"><a xlink:title=" ">
<polygon fill="none" stroke="#bfbfbf" points="154,-0.5 154,-19.5 213,-19.5 213,-0.5 154,-0.5"/>
<text text-anchor="middle" x="183.5" y="-7.5" font-family="Helvetica,sans-Serif" font-size="10.00">QtGlobal</text>
</a>
</g>
</g>
<!-- Node4&#45;&gt;Node5 -->
<g id="edge4" class="edge">
<title>Node4&#45;&gt;Node5</title>
<path fill="none" stroke="midnightblue" d="M183.5,-56.08C183.5,-49.01 183.5,-38.86 183.5,-29.99"/>
<polygon fill="midnightblue" stroke="midnightblue" points="187,-29.75 183.5,-19.75 180,-29.75 187,-29.75"/>
</g>
<!-- Node6&#45;&gt;Node4 -->
<g id="edge6" class="edge">
<title>Node6&#45;&gt;Node4</title>
<path fill="none" stroke="midnightblue" d="M183.5,-112.08C183.5,-105.01 183.5,-94.86 183.5,-85.99"/>
<polygon fill="midnightblue" stroke="midnightblue" points="187,-85.75 183.5,-75.75 180,-85.75 187,-85.75"/>
</g>
<!-- Node8 -->
<g id="node8" class="node">
<title>Node8</title>
<g id="a_node8"><a xlink:href="fitdatamessage__p_8h.html" target="_top" xlink:title=" ">
<polygon fill="none" stroke="black" points="53,-224.5 53,-243.5 166,-243.5 166,-224.5 53,-224.5"/>
<text text-anchor="middle" x="109.5" y="-231.5" font-family="Helvetica,sans-Serif" font-size="10.00">fitdatamessage_p.h</text>
</a>
</g>
</g>
<!-- Node7&#45;&gt;Node8 -->
<g id="edge8" class="edge">
<title>Node7&#45;&gt;Node8</title>
<path fill="none" stroke="midnightblue" d="M90.3,-280.08C93.41,-272.77 97.92,-262.18 101.79,-253.1"/>
<polygon fill="midnightblue" stroke="midnightblue" points="105.07,-254.32 105.77,-243.75 98.63,-251.58 105.07,-254.32"/>
</g>
<!-- Node8&#45;&gt;Node4 -->
<g id="edge9" class="edge">
<title>Node8&#45;&gt;Node4</title>
<path fill="none" stroke="midnightblue" d="M101.83,-224.46C94.72,-215.93 84.65,-202.09 80.5,-188 74.61,-167.98 83.76,-118.44 88.5,-112 100.1,-96.26 118.64,-85.81 136.27,-78.98"/>
<polygon fill="midnightblue" stroke="midnightblue" points="137.67,-82.2 145.92,-75.55 135.32,-75.6 137.67,-82.2"/>
</g>
<!-- Node8&#45;&gt;Node6 -->
<g id="edge10" class="edge">
<title>Node8&#45;&gt;Node6</title>
<path fill="none" stroke="midnightblue" d="M123.58,-224.3C135.53,-216.25 152.3,-203.25 162.5,-188 171.88,-173.99 177.32,-155.49 180.3,-141.81"/>
<polygon fill="midnightblue" stroke="midnightblue" points="183.8,-142.14 182.26,-131.66 176.93,-140.81 183.8,-142.14"/>
</g>
<!-- Node9 -->
<g id="node9" class="node">
<title>Node9</title>
<g id="a_node9"><a xlink:href="types__p_8h.html" target="_top" xlink:title=" ">
<polygon fill="none" stroke="black" points="89.5,-168.5 89.5,-187.5 153.5,-187.5 153.5,-168.5 89.5,-168.5"/>
<text text-anchor="middle" x="121.5" y="-175.5" font-family="Helvetica,sans-Serif" font-size="10.00">types_p.h</text>
</a>
</g>
</g>
<!-- Node8&#45;&gt;Node9 -->
<g id="edge11" class="edge">
<title>Node8&#45;&gt;Node9</title>
<path fill="none" stroke="midnightblue" d="M111.48,-224.08C113.07,-216.93 115.36,-206.64 117.35,-197.69"/>
<polygon fill="midnightblue" stroke="midnightblue" points="120.8,-198.27 119.56,-187.75 113.97,-196.75 120.8,-198.27"/>
</g>
<!-- Node9&#45;&gt;Node6 -->
<g id="edge12" class="edge">
<title>Node9&#45;&gt;Node6</title>
<path fill="none" stroke="midnightblue" d="M131.46,-168.32C140.63,-160.34 154.44,-148.31 165.53,-138.65"/>
<polygon fill="midnightblue" stroke="midnightblue" points="168.12,-141.04 173.36,-131.83 163.52,-135.76 168.12,-141.04"/>
</g>
<!-- Node10 -->
<g id="node10" class="node">
<title>Node10</title>
<g id="a_node10"><a xlink:title=" ">
<polygon fill="none" stroke="#bfbfbf" points="98,-112.5 98,-131.5 139,-131.5 139,-112.5 98,-112.5"/>
<text text-anchor="middle" x="118.5" y="-119.5" font-family="Helvetica,sans-Serif" font-size="10.00">QList</text>
</a>
</g>
</g>
<!-- Node9&#45;&gt;Node10 -->
<g id="edge13" class="edge">
<title>Node9&#45;&gt;Node10</title>
<path fill="none" stroke="midnightblue" d="M121,-168.08C120.61,-161.01 120.05,-150.86 119.55,-141.99"/>
<polygon fill="midnightblue" stroke="midnightblue" points="123.04,-141.54 118.99,-131.75 116.05,-141.93 123.04,-141.54"/>
</g>
</g>
</svg>
