<?xml version="1.0" encoding="UTF-8" standalone="no"?>
<!DOCTYPE svg PUBLIC "-//W3C//DTD SVG 1.1//EN"
 "http://www.w3.org/Graphics/SVG/1.1/DTD/svg11.dtd">
<!-- Generated by graphviz version 2.43.0 (0)
 -->
<!-- Title: antchannelidmessage.cpp Pages: 1 -->
<svg width="421pt" height="364pt"
 viewBox="0.00 0.00 421.00 364.00" xmlns="http://www.w3.org/2000/svg" xmlns:xlink="http://www.w3.org/1999/xlink">
<g id="graph0" class="graph" transform="scale(1 1) rotate(0) translate(4 360)">
<title>antchannelidmessage.cpp</title>
<!-- Node1 -->
<g id="node1" class="node">
<title>Node1</title>
<g id="a_node1"><a xlink:title=" ">
<polygon fill="#bfbfbf" stroke="black" points="201.5,-336.5 201.5,-355.5 345.5,-355.5 345.5,-336.5 201.5,-336.5"/>
<text text-anchor="middle" x="273.5" y="-343.5" font-family="Helvetica,sans-Serif" font-size="10.00">antchannelidmessage.cpp</text>
</a>
</g>
</g>
<!-- Node2 -->
<g id="node2" class="node">
<title>Node2</title>
<g id="a_node2"><a xlink:href="antchannelidmessage_8h.html" target="_top" xlink:title=" ">
<polygon fill="none" stroke="black" points="0,-280.5 0,-299.5 133,-299.5 133,-280.5 0,-280.5"/>
<text text-anchor="middle" x="66.5" y="-287.5" font-family="Helvetica,sans-Serif" font-size="10.00">antchannelidmessage.h</text>
</a>
</g>
</g>
<!-- Node1&#45;&gt;Node2 -->
<g id="edge1" class="edge">
<title>Node1&#45;&gt;Node2</title>
<path fill="none" stroke="midnightblue" d="M240.7,-336.44C205.12,-327.16 148.19,-312.31 109.15,-302.13"/>
<polygon fill="midnightblue" stroke="midnightblue" points="109.71,-298.65 99.15,-299.52 107.94,-305.43 109.71,-298.65"/>
</g>
<!-- Node7 -->
<g id="node7" class="node">
<title>Node7</title>
<g id="a_node7"><a xlink:title=" ">
<polygon fill="none" stroke="#bfbfbf" points="254.5,-56.5 254.5,-75.5 310.5,-75.5 310.5,-56.5 254.5,-56.5"/>
<text text-anchor="middle" x="282.5" y="-63.5" font-family="Helvetica,sans-Serif" font-size="10.00">QDebug</text>
</a>
</g>
</g>
<!-- Node1&#45;&gt;Node7 -->
<g id="edge15" class="edge">
<title>Node1&#45;&gt;Node7</title>
<path fill="none" stroke="midnightblue" d="M280.82,-336.22C287.76,-327.51 298.06,-313.54 304.5,-300 317.42,-272.82 323.5,-265.1 323.5,-235 323.5,-235 323.5,-235 323.5,-177 323.5,-142.52 305.59,-105.56 293.44,-84.47"/>
<polygon fill="midnightblue" stroke="midnightblue" points="296.34,-82.49 288.2,-75.71 290.34,-86.09 296.34,-82.49"/>
</g>
<!-- Node8 -->
<g id="node8" class="node">
<title>Node8</title>
<g id="a_node8"><a xlink:href="antchannelidmessage__p_8h.html" target="_top" xlink:title=" ">
<polygon fill="none" stroke="black" points="151.5,-280.5 151.5,-299.5 295.5,-299.5 295.5,-280.5 151.5,-280.5"/>
<text text-anchor="middle" x="223.5" y="-287.5" font-family="Helvetica,sans-Serif" font-size="10.00">antchannelidmessage_p.h</text>
</a>
</g>
</g>
<!-- Node1&#45;&gt;Node8 -->
<g id="edge8" class="edge">
<title>Node1&#45;&gt;Node8</title>
<path fill="none" stroke="midnightblue" d="M265.24,-336.08C258.04,-328.3 247.39,-316.8 238.65,-307.37"/>
<polygon fill="midnightblue" stroke="midnightblue" points="240.97,-304.71 231.6,-299.75 235.83,-309.47 240.97,-304.71"/>
</g>
<!-- Node12 -->
<g id="node12" class="node">
<title>Node12</title>
<g id="a_node12"><a xlink:title=" ">
<polygon fill="none" stroke="#bfbfbf" points="352,-280.5 352,-299.5 413,-299.5 413,-280.5 352,-280.5"/>
<text text-anchor="middle" x="382.5" y="-287.5" font-family="Helvetica,sans-Serif" font-size="10.00">QtEndian</text>
</a>
</g>
</g>
<!-- Node1&#45;&gt;Node12 -->
<g id="edge16" class="edge">
<title>Node1&#45;&gt;Node12</title>
<path fill="none" stroke="midnightblue" d="M291.01,-336.32C308.57,-327.62 335.83,-314.12 356.03,-304.11"/>
<polygon fill="midnightblue" stroke="midnightblue" points="357.62,-307.23 365.03,-299.65 354.52,-300.96 357.62,-307.23"/>
</g>
<!-- Node3 -->
<g id="node3" class="node">
<title>Node3</title>
<g id="a_node3"><a xlink:href="fitdatamessage_8h.html" target="_top" xlink:title=" ">
<polygon fill="none" stroke="black" points="22,-168.5 22,-187.5 123,-187.5 123,-168.5 22,-168.5"/>
<text text-anchor="middle" x="72.5" y="-175.5" font-family="Helvetica,sans-Serif" font-size="10.00">fitdatamessage.h</text>
</a>
</g>
</g>
<!-- Node2&#45;&gt;Node3 -->
<g id="edge2" class="edge">
<title>Node2&#45;&gt;Node3</title>
<path fill="none" stroke="midnightblue" d="M66.97,-280.37C67.94,-262.62 70.17,-221.67 71.49,-197.6"/>
<polygon fill="midnightblue" stroke="midnightblue" points="74.98,-197.77 72.03,-187.59 67.99,-197.39 74.98,-197.77"/>
</g>
<!-- Node4 -->
<g id="node4" class="node">
<title>Node4</title>
<g id="a_node4"><a xlink:href="QtFit__global_8h.html" target="_top" xlink:title=" ">
<polygon fill="none" stroke="black" points="109.5,-56.5 109.5,-75.5 193.5,-75.5 193.5,-56.5 109.5,-56.5"/>
<text text-anchor="middle" x="151.5" y="-63.5" font-family="Helvetica,sans-Serif" font-size="10.00">QtFit_global.h</text>
</a>
</g>
</g>
<!-- Node3&#45;&gt;Node4 -->
<g id="edge3" class="edge">
<title>Node3&#45;&gt;Node4</title>
<path fill="none" stroke="midnightblue" d="M78.7,-168.37C91.74,-150.22 122.2,-107.8 139.3,-83.99"/>
<polygon fill="midnightblue" stroke="midnightblue" points="142.34,-85.76 145.33,-75.59 136.65,-81.67 142.34,-85.76"/>
</g>
<!-- Node6 -->
<g id="node6" class="node">
<title>Node6</title>
<g id="a_node6"><a xlink:href="types_8h.html" target="_top" xlink:title="Types defined by the ANT+ FIT SDK.">
<polygon fill="none" stroke="black" points="180,-112.5 180,-131.5 233,-131.5 233,-112.5 180,-112.5"/>
<text text-anchor="middle" x="206.5" y="-119.5" font-family="Helvetica,sans-Serif" font-size="10.00">types.h</text>
</a>
</g>
</g>
<!-- Node3&#45;&gt;Node6 -->
<g id="edge5" class="edge">
<title>Node3&#45;&gt;Node6</title>
<path fill="none" stroke="midnightblue" d="M93.73,-168.44C115.88,-159.52 150.82,-145.44 175.94,-135.32"/>
<polygon fill="midnightblue" stroke="midnightblue" points="177.4,-138.5 185.37,-131.52 174.78,-132.01 177.4,-138.5"/>
</g>
<!-- Node5 -->
<g id="node5" class="node">
<title>Node5</title>
<g id="a_node5"><a xlink:title=" ">
<polygon fill="none" stroke="#bfbfbf" points="122,-0.5 122,-19.5 181,-19.5 181,-0.5 122,-0.5"/>
<text text-anchor="middle" x="151.5" y="-7.5" font-family="Helvetica,sans-Serif" font-size="10.00">QtGlobal</text>
</a>
</g>
</g>
<!-- Node4&#45;&gt;Node5 -->
<g id="edge4" class="edge">
<title>Node4&#45;&gt;Node5</title>
<path fill="none" stroke="midnightblue" d="M151.5,-56.08C151.5,-49.01 151.5,-38.86 151.5,-29.99"/>
<polygon fill="midnightblue" stroke="midnightblue" points="155,-29.75 151.5,-19.75 148,-29.75 155,-29.75"/>
</g>
<!-- Node6&#45;&gt;Node4 -->
<g id="edge6" class="edge">
<title>Node6&#45;&gt;Node4</title>
<path fill="none" stroke="midnightblue" d="M197.42,-112.08C189.33,-104.14 177.3,-92.34 167.59,-82.8"/>
<polygon fill="midnightblue" stroke="midnightblue" points="170,-80.26 160.41,-75.75 165.1,-85.25 170,-80.26"/>
</g>
<!-- Node6&#45;&gt;Node7 -->
<g id="edge7" class="edge">
<title>Node6&#45;&gt;Node7</title>
<path fill="none" stroke="midnightblue" d="M218.71,-112.32C230.28,-104.11 247.88,-91.6 261.66,-81.81"/>
<polygon fill="midnightblue" stroke="midnightblue" points="263.94,-84.48 270.07,-75.83 259.89,-78.77 263.94,-84.48"/>
</g>
<!-- Node9 -->
<g id="node9" class="node">
<title>Node9</title>
<g id="a_node9"><a xlink:href="fitdatamessage__p_8h.html" target="_top" xlink:title=" ">
<polygon fill="none" stroke="black" points="157,-224.5 157,-243.5 270,-243.5 270,-224.5 157,-224.5"/>
<text text-anchor="middle" x="213.5" y="-231.5" font-family="Helvetica,sans-Serif" font-size="10.00">fitdatamessage_p.h</text>
</a>
</g>
</g>
<!-- Node8&#45;&gt;Node9 -->
<g id="edge9" class="edge">
<title>Node8&#45;&gt;Node9</title>
<path fill="none" stroke="midnightblue" d="M221.85,-280.08C220.52,-272.93 218.62,-262.64 216.96,-253.69"/>
<polygon fill="midnightblue" stroke="midnightblue" points="220.38,-252.95 215.12,-243.75 213.5,-254.22 220.38,-252.95"/>
</g>
<!-- Node9&#45;&gt;Node4 -->
<g id="edge10" class="edge">
<title>Node9&#45;&gt;Node4</title>
<path fill="none" stroke="midnightblue" d="M209.47,-224.49C201.41,-207.28 183.01,-166.99 170.5,-132 164.93,-116.43 159.75,-98.35 156.21,-85.22"/>
<polygon fill="midnightblue" stroke="midnightblue" points="159.58,-84.29 153.65,-75.52 152.81,-86.08 159.58,-84.29"/>
</g>
<!-- Node9&#45;&gt;Node6 -->
<g id="edge11" class="edge">
<title>Node9&#45;&gt;Node6</title>
<path fill="none" stroke="midnightblue" d="M212.95,-224.37C211.82,-206.62 209.22,-165.67 207.68,-141.6"/>
<polygon fill="midnightblue" stroke="midnightblue" points="211.17,-141.35 207.05,-131.59 204.19,-141.79 211.17,-141.35"/>
</g>
<!-- Node10 -->
<g id="node10" class="node">
<title>Node10</title>
<g id="a_node10"><a xlink:href="types__p_8h.html" target="_top" xlink:title=" ">
<polygon fill="none" stroke="black" points="231.5,-168.5 231.5,-187.5 295.5,-187.5 295.5,-168.5 231.5,-168.5"/>
<text text-anchor="middle" x="263.5" y="-175.5" font-family="Helvetica,sans-Serif" font-size="10.00">types_p.h</text>
</a>
</g>
</g>
<!-- Node9&#45;&gt;Node10 -->
<g id="edge12" class="edge">
<title>Node9&#45;&gt;Node10</title>
<path fill="none" stroke="midnightblue" d="M221.76,-224.08C228.96,-216.3 239.61,-204.8 248.35,-195.37"/>
<polygon fill="midnightblue" stroke="midnightblue" points="251.17,-197.47 255.4,-187.75 246.03,-192.71 251.17,-197.47"/>
</g>
<!-- Node10&#45;&gt;Node6 -->
<g id="edge13" class="edge">
<title>Node10&#45;&gt;Node6</title>
<path fill="none" stroke="midnightblue" d="M254.34,-168.32C246,-160.42 233.47,-148.55 223.32,-138.94"/>
<polygon fill="midnightblue" stroke="midnightblue" points="225.49,-136.17 215.82,-131.83 220.68,-141.25 225.49,-136.17"/>
</g>
<!-- Node11 -->
<g id="node11" class="node">
<title>Node11</title>
<g id="a_node11"><a xlink:title=" ">
<polygon fill="none" stroke="#bfbfbf" points="251,-112.5 251,-131.5 292,-131.5 292,-112.5 251,-112.5"/>
<text text-anchor="middle" x="271.5" y="-119.5" font-family="Helvetica,sans-Serif" font-size="10.00">QList</text>
</a>
</g>
</g>
<!-- Node10&#45;&gt;Node11 -->
<g id="edge14" class="edge">
<title>Node10&#45;&gt;Node11</title>
<path fill="none" stroke="midnightblue" d="M264.82,-168.08C265.88,-160.93 267.41,-150.64 268.73,-141.69"/>
<polygon fill="midnightblue" stroke="midnightblue" points="272.2,-142.16 270.2,-131.75 265.28,-141.13 272.2,-142.16"/>
</g>
</g>
</svg>
