<?xml version="1.0" encoding="UTF-8" standalone="no"?>
<!DOCTYPE svg PUBLIC "-//W3C//DTD SVG 1.1//EN"
 "http://www.w3.org/Graphics/SVG/1.1/DTD/svg11.dtd">
<!-- Generated by graphviz version 2.43.0 (0)
 -->
<!-- Title: antchannelidmessage.cpp Pages: 1 -->
<svg width="304pt" height="364pt"
 viewBox="0.00 0.00 303.50 364.00" xmlns="http://www.w3.org/2000/svg" xmlns:xlink="http://www.w3.org/1999/xlink">
<g id="graph0" class="graph" transform="scale(1 1) rotate(0) translate(4 360)">
<title>antchannelidmessage.cpp</title>
<!-- Node1 -->
<g id="node1" class="node">
<title>Node1</title>
<g id="a_node1"><a xlink:title=" ">
<polygon fill="#bfbfbf" stroke="black" points="78,-336.5 78,-355.5 222,-355.5 222,-336.5 78,-336.5"/>
<text text-anchor="middle" x="150" y="-343.5" font-family="Helvetica,sans-Serif" font-size="10.00">antchannelidmessage.cpp</text>
</a>
</g>
</g>
<!-- Node2 -->
<g id="node2" class="node">
<title>Node2</title>
<g id="a_node2"><a xlink:href="antchannelidmessage_8h.html" target="_top" xlink:title=" ">
<polygon fill="none" stroke="black" points="162.5,-280.5 162.5,-299.5 295.5,-299.5 295.5,-280.5 162.5,-280.5"/>
<text text-anchor="middle" x="229" y="-287.5" font-family="Helvetica,sans-Serif" font-size="10.00">antchannelidmessage.h</text>
</a>
</g>
</g>
<!-- Node1&#45;&gt;Node2 -->
<g id="edge1" class="edge">
<title>Node1&#45;&gt;Node2</title>
<path fill="none" stroke="midnightblue" d="M162.69,-336.32C174.9,-327.98 193.58,-315.21 208,-305.35"/>
<polygon fill="midnightblue" stroke="midnightblue" points="210.06,-308.19 216.34,-299.65 206.11,-302.41 210.06,-308.19"/>
</g>
<!-- Node7 -->
<g id="node7" class="node">
<title>Node7</title>
<g id="a_node7"><a xlink:href="antchannelidmessage__p_8h.html" target="_top" xlink:title=" ">
<polygon fill="none" stroke="black" points="0,-280.5 0,-299.5 144,-299.5 144,-280.5 0,-280.5"/>
<text text-anchor="middle" x="72" y="-287.5" font-family="Helvetica,sans-Serif" font-size="10.00">antchannelidmessage_p.h</text>
</a>
</g>
</g>
<!-- Node1&#45;&gt;Node7 -->
<g id="edge7" class="edge">
<title>Node1&#45;&gt;Node7</title>
<path fill="none" stroke="midnightblue" d="M137.47,-336.32C125.41,-327.98 106.97,-315.21 92.73,-305.35"/>
<polygon fill="midnightblue" stroke="midnightblue" points="94.72,-302.47 84.5,-299.65 90.73,-308.22 94.72,-302.47"/>
</g>
<!-- Node3 -->
<g id="node3" class="node">
<title>Node3</title>
<g id="a_node3"><a xlink:href="fitdatamessage_8h.html" target="_top" xlink:title=" ">
<polygon fill="none" stroke="black" points="173.5,-168.5 173.5,-187.5 274.5,-187.5 274.5,-168.5 173.5,-168.5"/>
<text text-anchor="middle" x="224" y="-175.5" font-family="Helvetica,sans-Serif" font-size="10.00">fitdatamessage.h</text>
</a>
</g>
</g>
<!-- Node2&#45;&gt;Node3 -->
<g id="edge2" class="edge">
<title>Node2&#45;&gt;Node3</title>
<path fill="none" stroke="midnightblue" d="M228.61,-280.37C227.8,-262.62 225.94,-221.67 224.85,-197.6"/>
<polygon fill="midnightblue" stroke="midnightblue" points="228.34,-197.42 224.39,-187.59 221.35,-197.74 228.34,-197.42"/>
</g>
<!-- Node4 -->
<g id="node4" class="node">
<title>Node4</title>
<g id="a_node4"><a xlink:href="QtFit__global_8h.html" target="_top" xlink:title=" ">
<polygon fill="none" stroke="black" points="105,-56.5 105,-75.5 189,-75.5 189,-56.5 105,-56.5"/>
<text text-anchor="middle" x="147" y="-63.5" font-family="Helvetica,sans-Serif" font-size="10.00">QtFit_global.h</text>
</a>
</g>
</g>
<!-- Node3&#45;&gt;Node4 -->
<g id="edge3" class="edge">
<title>Node3&#45;&gt;Node4</title>
<path fill="none" stroke="midnightblue" d="M218.99,-168.39C211.54,-155.75 196.93,-131.56 183,-112 176.11,-102.32 167.86,-91.94 161.01,-83.59"/>
<polygon fill="midnightblue" stroke="midnightblue" points="163.56,-81.19 154.47,-75.74 158.18,-85.66 163.56,-81.19"/>
</g>
<!-- Node6 -->
<g id="node6" class="node">
<title>Node6</title>
<g id="a_node6"><a xlink:href="types_8h.html" target="_top" xlink:title="Types defined by the ANT+ FIT SDK.">
<polygon fill="none" stroke="black" points="120.5,-112.5 120.5,-131.5 173.5,-131.5 173.5,-112.5 120.5,-112.5"/>
<text text-anchor="middle" x="147" y="-119.5" font-family="Helvetica,sans-Serif" font-size="10.00">types.h</text>
</a>
</g>
</g>
<!-- Node3&#45;&gt;Node6 -->
<g id="edge5" class="edge">
<title>Node3&#45;&gt;Node6</title>
<path fill="none" stroke="midnightblue" d="M211.63,-168.32C199.84,-160.06 181.87,-147.45 167.86,-137.63"/>
<polygon fill="midnightblue" stroke="midnightblue" points="169.54,-134.53 159.34,-131.65 165.52,-140.26 169.54,-134.53"/>
</g>
<!-- Node5 -->
<g id="node5" class="node">
<title>Node5</title>
<g id="a_node5"><a xlink:title=" ">
<polygon fill="none" stroke="#bfbfbf" points="117.5,-0.5 117.5,-19.5 176.5,-19.5 176.5,-0.5 117.5,-0.5"/>
<text text-anchor="middle" x="147" y="-7.5" font-family="Helvetica,sans-Serif" font-size="10.00">QtGlobal</text>
</a>
</g>
</g>
<!-- Node4&#45;&gt;Node5 -->
<g id="edge4" class="edge">
<title>Node4&#45;&gt;Node5</title>
<path fill="none" stroke="midnightblue" d="M147,-56.08C147,-49.01 147,-38.86 147,-29.99"/>
<polygon fill="midnightblue" stroke="midnightblue" points="150.5,-29.75 147,-19.75 143.5,-29.75 150.5,-29.75"/>
</g>
<!-- Node6&#45;&gt;Node4 -->
<g id="edge6" class="edge">
<title>Node6&#45;&gt;Node4</title>
<path fill="none" stroke="midnightblue" d="M147,-112.08C147,-105.01 147,-94.86 147,-85.99"/>
<polygon fill="midnightblue" stroke="midnightblue" points="150.5,-85.75 147,-75.75 143.5,-85.75 150.5,-85.75"/>
</g>
<!-- Node8 -->
<g id="node8" class="node">
<title>Node8</title>
<g id="a_node8"><a xlink:href="fitdatamessage__p_8h.html" target="_top" xlink:title=" ">
<polygon fill="none" stroke="black" points="24.5,-224.5 24.5,-243.5 137.5,-243.5 137.5,-224.5 24.5,-224.5"/>
<text text-anchor="middle" x="81" y="-231.5" font-family="Helvetica,sans-Serif" font-size="10.00">fitdatamessage_p.h</text>
</a>
</g>
</g>
<!-- Node7&#45;&gt;Node8 -->
<g id="edge8" class="edge">
<title>Node7&#45;&gt;Node8</title>
<path fill="none" stroke="midnightblue" d="M73.49,-280.08C74.68,-272.93 76.39,-262.64 77.88,-253.69"/>
<polygon fill="midnightblue" stroke="midnightblue" points="81.35,-254.19 79.54,-243.75 74.45,-253.04 81.35,-254.19"/>
</g>
<!-- Node8&#45;&gt;Node4 -->
<g id="edge9" class="edge">
<title>Node8&#45;&gt;Node4</title>
<path fill="none" stroke="midnightblue" d="M70.56,-224.24C61.58,-215.97 49.25,-202.66 44,-188 37.24,-169.15 44.82,-121.75 52,-112 63.6,-96.26 82.14,-85.81 99.77,-78.98"/>
<polygon fill="midnightblue" stroke="midnightblue" points="101.17,-82.2 109.42,-75.55 98.82,-75.6 101.17,-82.2"/>
</g>
<!-- Node8&#45;&gt;Node6 -->
<g id="edge10" class="edge">
<title>Node8&#45;&gt;Node6</title>
<path fill="none" stroke="midnightblue" d="M92.12,-224.5C102.26,-216.2 117.01,-202.7 126,-188 134.8,-173.62 140.3,-155.16 143.46,-141.59"/>
<polygon fill="midnightblue" stroke="midnightblue" points="146.94,-142.05 145.57,-131.54 140.09,-140.6 146.94,-142.05"/>
</g>
<!-- Node9 -->
<g id="node9" class="node">
<title>Node9</title>
<g id="a_node9"><a xlink:href="types__p_8h.html" target="_top" xlink:title=" ">
<polygon fill="none" stroke="black" points="53,-168.5 53,-187.5 117,-187.5 117,-168.5 53,-168.5"/>
<text text-anchor="middle" x="85" y="-175.5" font-family="Helvetica,sans-Serif" font-size="10.00">types_p.h</text>
</a>
</g>
</g>
<!-- Node8&#45;&gt;Node9 -->
<g id="edge11" class="edge">
<title>Node8&#45;&gt;Node9</title>
<path fill="none" stroke="midnightblue" d="M81.66,-224.08C82.18,-217.01 82.94,-206.86 83.59,-197.99"/>
<polygon fill="midnightblue" stroke="midnightblue" points="87.1,-197.98 84.35,-187.75 80.12,-197.47 87.1,-197.98"/>
</g>
<!-- Node9&#45;&gt;Node6 -->
<g id="edge12" class="edge">
<title>Node9&#45;&gt;Node6</title>
<path fill="none" stroke="midnightblue" d="M94.96,-168.32C104.13,-160.34 117.94,-148.31 129.03,-138.65"/>
<polygon fill="midnightblue" stroke="midnightblue" points="131.62,-141.04 136.86,-131.83 127.02,-135.76 131.62,-141.04"/>
</g>
<!-- Node10 -->
<g id="node10" class="node">
<title>Node10</title>
<g id="a_node10"><a xlink:title=" ">
<polygon fill="none" stroke="#bfbfbf" points="61.5,-112.5 61.5,-131.5 102.5,-131.5 102.5,-112.5 61.5,-112.5"/>
<text text-anchor="middle" x="82" y="-119.5" font-family="Helvetica,sans-Serif" font-size="10.00">QList</text>
</a>
</g>
</g>
<!-- Node9&#45;&gt;Node10 -->
<g id="edge13" class="edge">
<title>Node9&#45;&gt;Node10</title>
<path fill="none" stroke="midnightblue" d="M84.5,-168.08C84.11,-161.01 83.55,-150.86 83.05,-141.99"/>
<polygon fill="midnightblue" stroke="midnightblue" points="86.54,-141.54 82.49,-131.75 79.55,-141.93 86.54,-141.54"/>
</g>
</g>
</svg>
