<?xml version="1.0" encoding="UTF-8" standalone="no"?>
<!DOCTYPE svg PUBLIC "-//W3C//DTD SVG 1.1//EN"
 "http://www.w3.org/Graphics/SVG/1.1/DTD/svg11.dtd">
<!-- Generated by graphviz version 2.43.0 (0)
 -->
<!-- Title: antrxmessage.cpp Pages: 1 -->
<svg width="252pt" height="364pt"
 viewBox="0.00 0.00 252.00 364.00" xmlns="http://www.w3.org/2000/svg" xmlns:xlink="http://www.w3.org/1999/xlink">
<g id="graph0" class="graph" transform="scale(1 1) rotate(0) translate(4 360)">
<title>antrxmessage.cpp</title>
<!-- Node1 -->
<g id="node1" class="node">
<title>Node1</title>
<g id="a_node1"><a xlink:title=" ">
<polygon fill="#bfbfbf" stroke="black" points="72,-336.5 72,-355.5 179,-355.5 179,-336.5 72,-336.5"/>
<text text-anchor="middle" x="125.5" y="-343.5" font-family="Helvetica,sans-Serif" font-size="10.00">antrxmessage.cpp</text>
</a>
</g>
</g>
<!-- Node2 -->
<g id="node2" class="node">
<title>Node2</title>
<g id="a_node2"><a xlink:href="antrxmessage_8h.html" target="_top" xlink:title=" ">
<polygon fill="none" stroke="black" points="143,-280.5 143,-299.5 238,-299.5 238,-280.5 143,-280.5"/>
<text text-anchor="middle" x="190.5" y="-287.5" font-family="Helvetica,sans-Serif" font-size="10.00">antrxmessage.h</text>
</a>
</g>
</g>
<!-- Node1&#45;&gt;Node2 -->
<g id="edge1" class="edge">
<title>Node1&#45;&gt;Node2</title>
<path fill="none" stroke="midnightblue" d="M135.94,-336.32C145.65,-328.26 160.32,-316.08 172,-306.37"/>
<polygon fill="midnightblue" stroke="midnightblue" points="174.41,-308.92 179.87,-299.83 169.94,-303.53 174.41,-308.92"/>
</g>
<!-- Node7 -->
<g id="node7" class="node">
<title>Node7</title>
<g id="a_node7"><a xlink:href="antrxmessage__p_8h.html" target="_top" xlink:title=" ">
<polygon fill="none" stroke="black" points="13,-280.5 13,-299.5 120,-299.5 120,-280.5 13,-280.5"/>
<text text-anchor="middle" x="66.5" y="-287.5" font-family="Helvetica,sans-Serif" font-size="10.00">antrxmessage_p.h</text>
</a>
</g>
</g>
<!-- Node1&#45;&gt;Node7 -->
<g id="edge7" class="edge">
<title>Node1&#45;&gt;Node7</title>
<path fill="none" stroke="midnightblue" d="M116.02,-336.32C107.3,-328.34 94.16,-316.31 83.6,-306.65"/>
<polygon fill="midnightblue" stroke="midnightblue" points="85.89,-304 76.15,-299.83 81.17,-309.17 85.89,-304"/>
</g>
<!-- Node3 -->
<g id="node3" class="node">
<title>Node3</title>
<g id="a_node3"><a xlink:href="fitdatamessage_8h.html" target="_top" xlink:title=" ">
<polygon fill="none" stroke="black" points="143,-168.5 143,-187.5 244,-187.5 244,-168.5 143,-168.5"/>
<text text-anchor="middle" x="193.5" y="-175.5" font-family="Helvetica,sans-Serif" font-size="10.00">fitdatamessage.h</text>
</a>
</g>
</g>
<!-- Node2&#45;&gt;Node3 -->
<g id="edge2" class="edge">
<title>Node2&#45;&gt;Node3</title>
<path fill="none" stroke="midnightblue" d="M190.74,-280.37C191.22,-262.62 192.34,-221.67 192.99,-197.6"/>
<polygon fill="midnightblue" stroke="midnightblue" points="196.49,-197.68 193.27,-187.59 189.49,-197.49 196.49,-197.68"/>
</g>
<!-- Node4 -->
<g id="node4" class="node">
<title>Node4</title>
<g id="a_node4"><a xlink:href="QtFit__global_8h.html" target="_top" xlink:title=" ">
<polygon fill="none" stroke="black" points="74.5,-56.5 74.5,-75.5 158.5,-75.5 158.5,-56.5 74.5,-56.5"/>
<text text-anchor="middle" x="116.5" y="-63.5" font-family="Helvetica,sans-Serif" font-size="10.00">QtFit_global.h</text>
</a>
</g>
</g>
<!-- Node3&#45;&gt;Node4 -->
<g id="edge3" class="edge">
<title>Node3&#45;&gt;Node4</title>
<path fill="none" stroke="midnightblue" d="M188.49,-168.39C181.04,-155.75 166.43,-131.56 152.5,-112 145.61,-102.32 137.36,-91.94 130.51,-83.59"/>
<polygon fill="midnightblue" stroke="midnightblue" points="133.06,-81.19 123.97,-75.74 127.68,-85.66 133.06,-81.19"/>
</g>
<!-- Node6 -->
<g id="node6" class="node">
<title>Node6</title>
<g id="a_node6"><a xlink:href="types_8h.html" target="_top" xlink:title="Types defined by the ANT+ FIT SDK.">
<polygon fill="none" stroke="black" points="90,-112.5 90,-131.5 143,-131.5 143,-112.5 90,-112.5"/>
<text text-anchor="middle" x="116.5" y="-119.5" font-family="Helvetica,sans-Serif" font-size="10.00">types.h</text>
</a>
</g>
</g>
<!-- Node3&#45;&gt;Node6 -->
<g id="edge5" class="edge">
<title>Node3&#45;&gt;Node6</title>
<path fill="none" stroke="midnightblue" d="M181.13,-168.32C169.34,-160.06 151.37,-147.45 137.36,-137.63"/>
<polygon fill="midnightblue" stroke="midnightblue" points="139.04,-134.53 128.84,-131.65 135.02,-140.26 139.04,-134.53"/>
</g>
<!-- Node5 -->
<g id="node5" class="node">
<title>Node5</title>
<g id="a_node5"><a xlink:title=" ">
<polygon fill="none" stroke="#bfbfbf" points="87,-0.5 87,-19.5 146,-19.5 146,-0.5 87,-0.5"/>
<text text-anchor="middle" x="116.5" y="-7.5" font-family="Helvetica,sans-Serif" font-size="10.00">QtGlobal</text>
</a>
</g>
</g>
<!-- Node4&#45;&gt;Node5 -->
<g id="edge4" class="edge">
<title>Node4&#45;&gt;Node5</title>
<path fill="none" stroke="midnightblue" d="M116.5,-56.08C116.5,-49.01 116.5,-38.86 116.5,-29.99"/>
<polygon fill="midnightblue" stroke="midnightblue" points="120,-29.75 116.5,-19.75 113,-29.75 120,-29.75"/>
</g>
<!-- Node6&#45;&gt;Node4 -->
<g id="edge6" class="edge">
<title>Node6&#45;&gt;Node4</title>
<path fill="none" stroke="midnightblue" d="M116.5,-112.08C116.5,-105.01 116.5,-94.86 116.5,-85.99"/>
<polygon fill="midnightblue" stroke="midnightblue" points="120,-85.75 116.5,-75.75 113,-85.75 120,-85.75"/>
</g>
<!-- Node8 -->
<g id="node8" class="node">
<title>Node8</title>
<g id="a_node8"><a xlink:href="fitdatamessage__p_8h.html" target="_top" xlink:title=" ">
<polygon fill="none" stroke="black" points="0,-224.5 0,-243.5 113,-243.5 113,-224.5 0,-224.5"/>
<text text-anchor="middle" x="56.5" y="-231.5" font-family="Helvetica,sans-Serif" font-size="10.00">fitdatamessage_p.h</text>
</a>
</g>
</g>
<!-- Node7&#45;&gt;Node8 -->
<g id="edge8" class="edge">
<title>Node7&#45;&gt;Node8</title>
<path fill="none" stroke="midnightblue" d="M64.85,-280.08C63.52,-272.93 61.62,-262.64 59.96,-253.69"/>
<polygon fill="midnightblue" stroke="midnightblue" points="63.38,-252.95 58.12,-243.75 56.5,-254.22 63.38,-252.95"/>
</g>
<!-- Node8&#45;&gt;Node4 -->
<g id="edge9" class="edge">
<title>Node8&#45;&gt;Node4</title>
<path fill="none" stroke="midnightblue" d="M44,-224.3C33.63,-216.25 19.61,-203.24 13.5,-188 6.22,-169.85 12.84,-123.74 21.5,-112 33.1,-96.26 51.64,-85.81 69.27,-78.98"/>
<polygon fill="midnightblue" stroke="midnightblue" points="70.67,-82.2 78.92,-75.55 68.32,-75.6 70.67,-82.2"/>
</g>
<!-- Node8&#45;&gt;Node6 -->
<g id="edge10" class="edge">
<title>Node8&#45;&gt;Node6</title>
<path fill="none" stroke="midnightblue" d="M66.08,-224.2C74.83,-215.69 87.58,-202.05 95.5,-188 103.69,-173.47 109.22,-155.29 112.54,-141.85"/>
<polygon fill="midnightblue" stroke="midnightblue" points="116,-142.4 114.82,-131.87 109.18,-140.84 116,-142.4"/>
</g>
<!-- Node9 -->
<g id="node9" class="node">
<title>Node9</title>
<g id="a_node9"><a xlink:href="types__p_8h.html" target="_top" xlink:title=" ">
<polygon fill="none" stroke="black" points="22.5,-168.5 22.5,-187.5 86.5,-187.5 86.5,-168.5 22.5,-168.5"/>
<text text-anchor="middle" x="54.5" y="-175.5" font-family="Helvetica,sans-Serif" font-size="10.00">types_p.h</text>
</a>
</g>
</g>
<!-- Node8&#45;&gt;Node9 -->
<g id="edge11" class="edge">
<title>Node8&#45;&gt;Node9</title>
<path fill="none" stroke="midnightblue" d="M56.17,-224.08C55.91,-217.01 55.53,-206.86 55.2,-197.99"/>
<polygon fill="midnightblue" stroke="midnightblue" points="58.69,-197.61 54.82,-187.75 51.7,-197.87 58.69,-197.61"/>
</g>
<!-- Node9&#45;&gt;Node6 -->
<g id="edge12" class="edge">
<title>Node9&#45;&gt;Node6</title>
<path fill="none" stroke="midnightblue" d="M64.46,-168.32C73.63,-160.34 87.44,-148.31 98.53,-138.65"/>
<polygon fill="midnightblue" stroke="midnightblue" points="101.12,-141.04 106.36,-131.83 96.52,-135.76 101.12,-141.04"/>
</g>
<!-- Node10 -->
<g id="node10" class="node">
<title>Node10</title>
<g id="a_node10"><a xlink:title=" ">
<polygon fill="none" stroke="#bfbfbf" points="31,-112.5 31,-131.5 72,-131.5 72,-112.5 31,-112.5"/>
<text text-anchor="middle" x="51.5" y="-119.5" font-family="Helvetica,sans-Serif" font-size="10.00">QList</text>
</a>
</g>
</g>
<!-- Node9&#45;&gt;Node10 -->
<g id="edge13" class="edge">
<title>Node9&#45;&gt;Node10</title>
<path fill="none" stroke="midnightblue" d="M54,-168.08C53.61,-161.01 53.05,-150.86 52.55,-141.99"/>
<polygon fill="midnightblue" stroke="midnightblue" points="56.04,-141.54 51.99,-131.75 49.05,-141.93 56.04,-141.54"/>
</g>
</g>
</svg>
