<?xml version="1.0" encoding="UTF-8" standalone="no"?>
<!DOCTYPE svg PUBLIC "-//W3C//DTD SVG 1.1//EN"
 "http://www.w3.org/Graphics/SVG/1.1/DTD/svg11.dtd">
<!-- Generated by graphviz version 2.43.0 (0)
 -->
<!-- Title: antrxmessage_p.h Pages: 1 -->
<svg width="164pt" height="308pt"
 viewBox="0.00 0.00 163.50 308.00" xmlns="http://www.w3.org/2000/svg" xmlns:xlink="http://www.w3.org/1999/xlink">
<g id="graph0" class="graph" transform="scale(1 1) rotate(0) translate(4 304)">
<title>antrxmessage_p.h</title>
<!-- Node1 -->
<g id="node1" class="node">
<title>Node1</title>
<g id="a_node1"><a xlink:title=" ">
<polygon fill="#bfbfbf" stroke="black" points="7.5,-280.5 7.5,-299.5 114.5,-299.5 114.5,-280.5 7.5,-280.5"/>
<text text-anchor="middle" x="61" y="-287.5" font-family="Helvetica,sans-Serif" font-size="10.00">antrxmessage_p.h</text>
</a>
</g>
</g>
<!-- Node2 -->
<g id="node2" class="node">
<title>Node2</title>
<g id="a_node2"><a xlink:href="fitdatamessage__p_8h.html" target="_top" xlink:title=" ">
<polygon fill="none" stroke="black" points="4.5,-224.5 4.5,-243.5 117.5,-243.5 117.5,-224.5 4.5,-224.5"/>
<text text-anchor="middle" x="61" y="-231.5" font-family="Helvetica,sans-Serif" font-size="10.00">fitdatamessage_p.h</text>
</a>
</g>
</g>
<!-- Node1&#45;&gt;Node2 -->
<g id="edge1" class="edge">
<title>Node1&#45;&gt;Node2</title>
<path fill="none" stroke="midnightblue" d="M61,-280.08C61,-273.01 61,-262.86 61,-253.99"/>
<polygon fill="midnightblue" stroke="midnightblue" points="64.5,-253.75 61,-243.75 57.5,-253.75 64.5,-253.75"/>
</g>
<!-- Node3 -->
<g id="node3" class="node">
<title>Node3</title>
<g id="a_node3"><a xlink:href="QtFit__global_8h.html" target="_top" xlink:title=" ">
<polygon fill="none" stroke="black" points="0,-56.5 0,-75.5 84,-75.5 84,-56.5 0,-56.5"/>
<text text-anchor="middle" x="42" y="-63.5" font-family="Helvetica,sans-Serif" font-size="10.00">QtFit_global.h</text>
</a>
</g>
</g>
<!-- Node2&#45;&gt;Node3 -->
<g id="edge2" class="edge">
<title>Node2&#45;&gt;Node3</title>
<path fill="none" stroke="midnightblue" d="M57.15,-224.32C48.82,-204.61 30.22,-154.88 34,-112 34.78,-103.2 36.39,-93.54 37.97,-85.43"/>
<polygon fill="midnightblue" stroke="midnightblue" points="41.41,-86.07 40.01,-75.57 34.56,-84.65 41.41,-86.07"/>
</g>
<!-- Node5 -->
<g id="node5" class="node">
<title>Node5</title>
<g id="a_node5"><a xlink:href="types_8h.html" target="_top" xlink:title="Types defined by the ANT+ FIT SDK.">
<polygon fill="none" stroke="black" points="43.5,-112.5 43.5,-131.5 96.5,-131.5 96.5,-112.5 43.5,-112.5"/>
<text text-anchor="middle" x="70" y="-119.5" font-family="Helvetica,sans-Serif" font-size="10.00">types.h</text>
</a>
</g>
</g>
<!-- Node2&#45;&gt;Node5 -->
<g id="edge4" class="edge">
<title>Node2&#45;&gt;Node5</title>
<path fill="none" stroke="midnightblue" d="M61.71,-224.37C63.16,-206.62 66.51,-165.67 68.48,-141.6"/>
<polygon fill="midnightblue" stroke="midnightblue" points="71.97,-141.84 69.3,-131.59 64.99,-141.27 71.97,-141.84"/>
</g>
<!-- Node6 -->
<g id="node6" class="node">
<title>Node6</title>
<g id="a_node6"><a xlink:href="types__p_8h.html" target="_top" xlink:title=" ">
<polygon fill="none" stroke="black" points="89,-168.5 89,-187.5 153,-187.5 153,-168.5 89,-168.5"/>
<text text-anchor="middle" x="121" y="-175.5" font-family="Helvetica,sans-Serif" font-size="10.00">types_p.h</text>
</a>
</g>
</g>
<!-- Node2&#45;&gt;Node6 -->
<g id="edge6" class="edge">
<title>Node2&#45;&gt;Node6</title>
<path fill="none" stroke="midnightblue" d="M70.64,-224.32C79.51,-216.34 92.87,-204.31 103.61,-194.65"/>
<polygon fill="midnightblue" stroke="midnightblue" points="106.09,-197.13 111.18,-187.83 101.41,-191.92 106.09,-197.13"/>
</g>
<!-- Node4 -->
<g id="node4" class="node">
<title>Node4</title>
<g id="a_node4"><a xlink:title=" ">
<polygon fill="none" stroke="#bfbfbf" points="12.5,-0.5 12.5,-19.5 71.5,-19.5 71.5,-0.5 12.5,-0.5"/>
<text text-anchor="middle" x="42" y="-7.5" font-family="Helvetica,sans-Serif" font-size="10.00">QtGlobal</text>
</a>
</g>
</g>
<!-- Node3&#45;&gt;Node4 -->
<g id="edge3" class="edge">
<title>Node3&#45;&gt;Node4</title>
<path fill="none" stroke="midnightblue" d="M42,-56.08C42,-49.01 42,-38.86 42,-29.99"/>
<polygon fill="midnightblue" stroke="midnightblue" points="45.5,-29.75 42,-19.75 38.5,-29.75 45.5,-29.75"/>
</g>
<!-- Node5&#45;&gt;Node3 -->
<g id="edge5" class="edge">
<title>Node5&#45;&gt;Node3</title>
<path fill="none" stroke="midnightblue" d="M65.38,-112.08C61.54,-104.69 55.98,-93.95 51.24,-84.81"/>
<polygon fill="midnightblue" stroke="midnightblue" points="54.25,-83.02 46.54,-75.75 48.03,-86.24 54.25,-83.02"/>
</g>
<!-- Node6&#45;&gt;Node5 -->
<g id="edge7" class="edge">
<title>Node6&#45;&gt;Node5</title>
<path fill="none" stroke="midnightblue" d="M112.58,-168.08C105.15,-160.22 94.15,-148.57 85.19,-139.08"/>
<polygon fill="midnightblue" stroke="midnightblue" points="87.68,-136.62 78.26,-131.75 82.59,-141.42 87.68,-136.62"/>
</g>
<!-- Node7 -->
<g id="node7" class="node">
<title>Node7</title>
<g id="a_node7"><a xlink:title=" ">
<polygon fill="none" stroke="#bfbfbf" points="114.5,-112.5 114.5,-131.5 155.5,-131.5 155.5,-112.5 114.5,-112.5"/>
<text text-anchor="middle" x="135" y="-119.5" font-family="Helvetica,sans-Serif" font-size="10.00">QList</text>
</a>
</g>
</g>
<!-- Node6&#45;&gt;Node7 -->
<g id="edge8" class="edge">
<title>Node6&#45;&gt;Node7</title>
<path fill="none" stroke="midnightblue" d="M123.31,-168.08C125.17,-160.93 127.84,-150.64 130.15,-141.69"/>
<polygon fill="midnightblue" stroke="midnightblue" points="133.61,-142.31 132.73,-131.75 126.83,-140.55 133.61,-142.31"/>
</g>
</g>
</svg>
