<?xml version="1.0" encoding="UTF-8" standalone="no"?>
<!DOCTYPE svg PUBLIC "-//W3C//DTD SVG 1.1//EN"
 "http://www.w3.org/Graphics/SVG/1.1/DTD/svg11.dtd">
<!-- Generated by graphviz version 2.43.0 (0)
 -->
<!-- Title: aviationattitudemessage_p.h Pages: 1 -->
<svg width="182pt" height="308pt"
 viewBox="0.00 0.00 182.00 308.00" xmlns="http://www.w3.org/2000/svg" xmlns:xlink="http://www.w3.org/1999/xlink">
<g id="graph0" class="graph" transform="scale(1 1) rotate(0) translate(4 304)">
<title>aviationattitudemessage_p.h</title>
<!-- Node1 -->
<g id="node1" class="node">
<title>Node1</title>
<g id="a_node1"><a xlink:title=" ">
<polygon fill="#bfbfbf" stroke="black" points="0,-280.5 0,-299.5 159,-299.5 159,-280.5 0,-280.5"/>
<text text-anchor="middle" x="79.5" y="-287.5" font-family="Helvetica,sans-Serif" font-size="10.00">aviationattitudemessage_p.h</text>
</a>
</g>
</g>
<!-- Node2 -->
<g id="node2" class="node">
<title>Node2</title>
<g id="a_node2"><a xlink:href="fitdatamessage__p_8h.html" target="_top" xlink:title=" ">
<polygon fill="none" stroke="black" points="23,-224.5 23,-243.5 136,-243.5 136,-224.5 23,-224.5"/>
<text text-anchor="middle" x="79.5" y="-231.5" font-family="Helvetica,sans-Serif" font-size="10.00">fitdatamessage_p.h</text>
</a>
</g>
</g>
<!-- Node1&#45;&gt;Node2 -->
<g id="edge1" class="edge">
<title>Node1&#45;&gt;Node2</title>
<path fill="none" stroke="midnightblue" d="M79.5,-280.08C79.5,-273.01 79.5,-262.86 79.5,-253.99"/>
<polygon fill="midnightblue" stroke="midnightblue" points="83,-253.75 79.5,-243.75 76,-253.75 83,-253.75"/>
</g>
<!-- Node3 -->
<g id="node3" class="node">
<title>Node3</title>
<g id="a_node3"><a xlink:href="QtFit__global_8h.html" target="_top" xlink:title=" ">
<polygon fill="none" stroke="black" points="18.5,-56.5 18.5,-75.5 102.5,-75.5 102.5,-56.5 18.5,-56.5"/>
<text text-anchor="middle" x="60.5" y="-63.5" font-family="Helvetica,sans-Serif" font-size="10.00">QtFit_global.h</text>
</a>
</g>
</g>
<!-- Node2&#45;&gt;Node3 -->
<g id="edge2" class="edge">
<title>Node2&#45;&gt;Node3</title>
<path fill="none" stroke="midnightblue" d="M75.65,-224.32C67.32,-204.61 48.72,-154.88 52.5,-112 53.28,-103.2 54.89,-93.54 56.47,-85.43"/>
<polygon fill="midnightblue" stroke="midnightblue" points="59.91,-86.07 58.51,-75.57 53.06,-84.65 59.91,-86.07"/>
</g>
<!-- Node5 -->
<g id="node5" class="node">
<title>Node5</title>
<g id="a_node5"><a xlink:href="types_8h.html" target="_top" xlink:title="Types defined by the ANT+ FIT SDK.">
<polygon fill="none" stroke="black" points="62,-112.5 62,-131.5 115,-131.5 115,-112.5 62,-112.5"/>
<text text-anchor="middle" x="88.5" y="-119.5" font-family="Helvetica,sans-Serif" font-size="10.00">types.h</text>
</a>
</g>
</g>
<!-- Node2&#45;&gt;Node5 -->
<g id="edge4" class="edge">
<title>Node2&#45;&gt;Node5</title>
<path fill="none" stroke="midnightblue" d="M80.21,-224.37C81.66,-206.62 85.01,-165.67 86.98,-141.6"/>
<polygon fill="midnightblue" stroke="midnightblue" points="90.47,-141.84 87.8,-131.59 83.49,-141.27 90.47,-141.84"/>
</g>
<!-- Node6 -->
<g id="node6" class="node">
<title>Node6</title>
<g id="a_node6"><a xlink:href="types__p_8h.html" target="_top" xlink:title=" ">
<polygon fill="none" stroke="black" points="107.5,-168.5 107.5,-187.5 171.5,-187.5 171.5,-168.5 107.5,-168.5"/>
<text text-anchor="middle" x="139.5" y="-175.5" font-family="Helvetica,sans-Serif" font-size="10.00">types_p.h</text>
</a>
</g>
</g>
<!-- Node2&#45;&gt;Node6 -->
<g id="edge6" class="edge">
<title>Node2&#45;&gt;Node6</title>
<path fill="none" stroke="midnightblue" d="M89.14,-224.32C98.01,-216.34 111.37,-204.31 122.11,-194.65"/>
<polygon fill="midnightblue" stroke="midnightblue" points="124.59,-197.13 129.68,-187.83 119.91,-191.92 124.59,-197.13"/>
</g>
<!-- Node4 -->
<g id="node4" class="node">
<title>Node4</title>
<g id="a_node4"><a xlink:title=" ">
<polygon fill="none" stroke="#bfbfbf" points="31,-0.5 31,-19.5 90,-19.5 90,-0.5 31,-0.5"/>
<text text-anchor="middle" x="60.5" y="-7.5" font-family="Helvetica,sans-Serif" font-size="10.00">QtGlobal</text>
</a>
</g>
</g>
<!-- Node3&#45;&gt;Node4 -->
<g id="edge3" class="edge">
<title>Node3&#45;&gt;Node4</title>
<path fill="none" stroke="midnightblue" d="M60.5,-56.08C60.5,-49.01 60.5,-38.86 60.5,-29.99"/>
<polygon fill="midnightblue" stroke="midnightblue" points="64,-29.75 60.5,-19.75 57,-29.75 64,-29.75"/>
</g>
<!-- Node5&#45;&gt;Node3 -->
<g id="edge5" class="edge">
<title>Node5&#45;&gt;Node3</title>
<path fill="none" stroke="midnightblue" d="M83.88,-112.08C80.04,-104.69 74.48,-93.95 69.74,-84.81"/>
<polygon fill="midnightblue" stroke="midnightblue" points="72.75,-83.02 65.04,-75.75 66.53,-86.24 72.75,-83.02"/>
</g>
<!-- Node6&#45;&gt;Node5 -->
<g id="edge7" class="edge">
<title>Node6&#45;&gt;Node5</title>
<path fill="none" stroke="midnightblue" d="M131.08,-168.08C123.65,-160.22 112.65,-148.57 103.69,-139.08"/>
<polygon fill="midnightblue" stroke="midnightblue" points="106.18,-136.62 96.76,-131.75 101.09,-141.42 106.18,-136.62"/>
</g>
<!-- Node7 -->
<g id="node7" class="node">
<title>Node7</title>
<g id="a_node7"><a xlink:title=" ">
<polygon fill="none" stroke="#bfbfbf" points="133,-112.5 133,-131.5 174,-131.5 174,-112.5 133,-112.5"/>
<text text-anchor="middle" x="153.5" y="-119.5" font-family="Helvetica,sans-Serif" font-size="10.00">QList</text>
</a>
</g>
</g>
<!-- Node6&#45;&gt;Node7 -->
<g id="edge8" class="edge">
<title>Node6&#45;&gt;Node7</title>
<path fill="none" stroke="midnightblue" d="M141.81,-168.08C143.67,-160.93 146.34,-150.64 148.65,-141.69"/>
<polygon fill="midnightblue" stroke="midnightblue" points="152.11,-142.31 151.23,-131.75 145.33,-140.55 152.11,-142.31"/>
</g>
</g>
</svg>
