<?xml version="1.0" encoding="UTF-8" standalone="no"?>
<!DOCTYPE svg PUBLIC "-//W3C//DTD SVG 1.1//EN"
 "http://www.w3.org/Graphics/SVG/1.1/DTD/svg11.dtd">
<!-- Generated by graphviz version 2.43.0 (0)
 -->
<!-- Title: aviationattitudemessage.cpp Pages: 1 -->
<svg width="334pt" height="364pt"
 viewBox="0.00 0.00 333.50 364.00" xmlns="http://www.w3.org/2000/svg" xmlns:xlink="http://www.w3.org/1999/xlink">
<g id="graph0" class="graph" transform="scale(1 1) rotate(0) translate(4 360)">
<title>aviationattitudemessage.cpp</title>
<!-- Node1 -->
<g id="node1" class="node">
<title>Node1</title>
<g id="a_node1"><a xlink:title=" ">
<polygon fill="#bfbfbf" stroke="black" points="86,-336.5 86,-355.5 245,-355.5 245,-336.5 86,-336.5"/>
<text text-anchor="middle" x="165.5" y="-343.5" font-family="Helvetica,sans-Serif" font-size="10.00">aviationattitudemessage.cpp</text>
</a>
</g>
</g>
<!-- Node2 -->
<g id="node2" class="node">
<title>Node2</title>
<g id="a_node2"><a xlink:href="aviationattitudemessage_8h.html" target="_top" xlink:title=" ">
<polygon fill="none" stroke="black" points="177.5,-280.5 177.5,-299.5 325.5,-299.5 325.5,-280.5 177.5,-280.5"/>
<text text-anchor="middle" x="251.5" y="-287.5" font-family="Helvetica,sans-Serif" font-size="10.00">aviationattitudemessage.h</text>
</a>
</g>
</g>
<!-- Node1&#45;&gt;Node2 -->
<g id="edge1" class="edge">
<title>Node1&#45;&gt;Node2</title>
<path fill="none" stroke="midnightblue" d="M179.32,-336.32C192.73,-327.9 213.32,-314.97 229.09,-305.07"/>
<polygon fill="midnightblue" stroke="midnightblue" points="231.11,-307.94 237.72,-299.65 227.39,-302.01 231.11,-307.94"/>
</g>
<!-- Node7 -->
<g id="node7" class="node">
<title>Node7</title>
<g id="a_node7"><a xlink:href="aviationattitudemessage__p_8h.html" target="_top" xlink:title=" ">
<polygon fill="none" stroke="black" points="0,-280.5 0,-299.5 159,-299.5 159,-280.5 0,-280.5"/>
<text text-anchor="middle" x="79.5" y="-287.5" font-family="Helvetica,sans-Serif" font-size="10.00">aviationattitudemessage_p.h</text>
</a>
</g>
</g>
<!-- Node1&#45;&gt;Node7 -->
<g id="edge7" class="edge">
<title>Node1&#45;&gt;Node7</title>
<path fill="none" stroke="midnightblue" d="M151.68,-336.32C138.27,-327.9 117.68,-314.97 101.91,-305.07"/>
<polygon fill="midnightblue" stroke="midnightblue" points="103.61,-302.01 93.28,-299.65 99.89,-307.94 103.61,-302.01"/>
</g>
<!-- Node3 -->
<g id="node3" class="node">
<title>Node3</title>
<g id="a_node3"><a xlink:href="fitdatamessage_8h.html" target="_top" xlink:title=" ">
<polygon fill="none" stroke="black" points="192,-168.5 192,-187.5 293,-187.5 293,-168.5 192,-168.5"/>
<text text-anchor="middle" x="242.5" y="-175.5" font-family="Helvetica,sans-Serif" font-size="10.00">fitdatamessage.h</text>
</a>
</g>
</g>
<!-- Node2&#45;&gt;Node3 -->
<g id="edge2" class="edge">
<title>Node2&#45;&gt;Node3</title>
<path fill="none" stroke="midnightblue" d="M250.79,-280.37C249.34,-262.62 245.99,-221.67 244.02,-197.6"/>
<polygon fill="midnightblue" stroke="midnightblue" points="247.51,-197.27 243.2,-187.59 240.53,-197.84 247.51,-197.27"/>
</g>
<!-- Node4 -->
<g id="node4" class="node">
<title>Node4</title>
<g id="a_node4"><a xlink:href="QtFit__global_8h.html" target="_top" xlink:title=" ">
<polygon fill="none" stroke="black" points="123.5,-56.5 123.5,-75.5 207.5,-75.5 207.5,-56.5 123.5,-56.5"/>
<text text-anchor="middle" x="165.5" y="-63.5" font-family="Helvetica,sans-Serif" font-size="10.00">QtFit_global.h</text>
</a>
</g>
</g>
<!-- Node3&#45;&gt;Node4 -->
<g id="edge3" class="edge">
<title>Node3&#45;&gt;Node4</title>
<path fill="none" stroke="midnightblue" d="M237.49,-168.39C230.04,-155.75 215.43,-131.56 201.5,-112 194.61,-102.32 186.36,-91.94 179.51,-83.59"/>
<polygon fill="midnightblue" stroke="midnightblue" points="182.06,-81.19 172.97,-75.74 176.68,-85.66 182.06,-81.19"/>
</g>
<!-- Node6 -->
<g id="node6" class="node">
<title>Node6</title>
<g id="a_node6"><a xlink:href="types_8h.html" target="_top" xlink:title="Types defined by the ANT+ FIT SDK.">
<polygon fill="none" stroke="black" points="139,-112.5 139,-131.5 192,-131.5 192,-112.5 139,-112.5"/>
<text text-anchor="middle" x="165.5" y="-119.5" font-family="Helvetica,sans-Serif" font-size="10.00">types.h</text>
</a>
</g>
</g>
<!-- Node3&#45;&gt;Node6 -->
<g id="edge5" class="edge">
<title>Node3&#45;&gt;Node6</title>
<path fill="none" stroke="midnightblue" d="M230.13,-168.32C218.34,-160.06 200.37,-147.45 186.36,-137.63"/>
<polygon fill="midnightblue" stroke="midnightblue" points="188.04,-134.53 177.84,-131.65 184.02,-140.26 188.04,-134.53"/>
</g>
<!-- Node5 -->
<g id="node5" class="node">
<title>Node5</title>
<g id="a_node5"><a xlink:title=" ">
<polygon fill="none" stroke="#bfbfbf" points="136,-0.5 136,-19.5 195,-19.5 195,-0.5 136,-0.5"/>
<text text-anchor="middle" x="165.5" y="-7.5" font-family="Helvetica,sans-Serif" font-size="10.00">QtGlobal</text>
</a>
</g>
</g>
<!-- Node4&#45;&gt;Node5 -->
<g id="edge4" class="edge">
<title>Node4&#45;&gt;Node5</title>
<path fill="none" stroke="midnightblue" d="M165.5,-56.08C165.5,-49.01 165.5,-38.86 165.5,-29.99"/>
<polygon fill="midnightblue" stroke="midnightblue" points="169,-29.75 165.5,-19.75 162,-29.75 169,-29.75"/>
</g>
<!-- Node6&#45;&gt;Node4 -->
<g id="edge6" class="edge">
<title>Node6&#45;&gt;Node4</title>
<path fill="none" stroke="midnightblue" d="M165.5,-112.08C165.5,-105.01 165.5,-94.86 165.5,-85.99"/>
<polygon fill="midnightblue" stroke="midnightblue" points="169,-85.75 165.5,-75.75 162,-85.75 169,-85.75"/>
</g>
<!-- Node8 -->
<g id="node8" class="node">
<title>Node8</title>
<g id="a_node8"><a xlink:href="fitdatamessage__p_8h.html" target="_top" xlink:title=" ">
<polygon fill="none" stroke="black" points="39,-224.5 39,-243.5 152,-243.5 152,-224.5 39,-224.5"/>
<text text-anchor="middle" x="95.5" y="-231.5" font-family="Helvetica,sans-Serif" font-size="10.00">fitdatamessage_p.h</text>
</a>
</g>
</g>
<!-- Node7&#45;&gt;Node8 -->
<g id="edge8" class="edge">
<title>Node7&#45;&gt;Node8</title>
<path fill="none" stroke="midnightblue" d="M82.14,-280.08C84.29,-272.85 87.38,-262.41 90.05,-253.4"/>
<polygon fill="midnightblue" stroke="midnightblue" points="93.42,-254.33 92.91,-243.75 86.71,-252.34 93.42,-254.33"/>
</g>
<!-- Node8&#45;&gt;Node4 -->
<g id="edge9" class="edge">
<title>Node8&#45;&gt;Node4</title>
<path fill="none" stroke="midnightblue" d="M86.48,-224.34C78.43,-215.93 67.2,-202.36 62.5,-188 56.15,-168.6 64.46,-120.2 70.5,-112 82.1,-96.26 100.64,-85.81 118.27,-78.98"/>
<polygon fill="midnightblue" stroke="midnightblue" points="119.67,-82.2 127.92,-75.55 117.32,-75.6 119.67,-82.2"/>
</g>
<!-- Node8&#45;&gt;Node6 -->
<g id="edge10" class="edge">
<title>Node8&#45;&gt;Node6</title>
<path fill="none" stroke="midnightblue" d="M108.06,-224.39C119.12,-216.22 134.9,-202.97 144.5,-188 153.6,-173.81 159.07,-155.33 162.14,-141.7"/>
<polygon fill="midnightblue" stroke="midnightblue" points="165.63,-142.09 164.17,-131.6 158.77,-140.71 165.63,-142.09"/>
</g>
<!-- Node9 -->
<g id="node9" class="node">
<title>Node9</title>
<g id="a_node9"><a xlink:href="types__p_8h.html" target="_top" xlink:title=" ">
<polygon fill="none" stroke="black" points="71.5,-168.5 71.5,-187.5 135.5,-187.5 135.5,-168.5 71.5,-168.5"/>
<text text-anchor="middle" x="103.5" y="-175.5" font-family="Helvetica,sans-Serif" font-size="10.00">types_p.h</text>
</a>
</g>
</g>
<!-- Node8&#45;&gt;Node9 -->
<g id="edge11" class="edge">
<title>Node8&#45;&gt;Node9</title>
<path fill="none" stroke="midnightblue" d="M96.82,-224.08C97.88,-216.93 99.41,-206.64 100.73,-197.69"/>
<polygon fill="midnightblue" stroke="midnightblue" points="104.2,-198.16 102.2,-187.75 97.28,-197.13 104.2,-198.16"/>
</g>
<!-- Node9&#45;&gt;Node6 -->
<g id="edge12" class="edge">
<title>Node9&#45;&gt;Node6</title>
<path fill="none" stroke="midnightblue" d="M113.46,-168.32C122.63,-160.34 136.44,-148.31 147.53,-138.65"/>
<polygon fill="midnightblue" stroke="midnightblue" points="150.12,-141.04 155.36,-131.83 145.52,-135.76 150.12,-141.04"/>
</g>
<!-- Node10 -->
<g id="node10" class="node">
<title>Node10</title>
<g id="a_node10"><a xlink:title=" ">
<polygon fill="none" stroke="#bfbfbf" points="80,-112.5 80,-131.5 121,-131.5 121,-112.5 80,-112.5"/>
<text text-anchor="middle" x="100.5" y="-119.5" font-family="Helvetica,sans-Serif" font-size="10.00">QList</text>
</a>
</g>
</g>
<!-- Node9&#45;&gt;Node10 -->
<g id="edge13" class="edge">
<title>Node9&#45;&gt;Node10</title>
<path fill="none" stroke="midnightblue" d="M103,-168.08C102.61,-161.01 102.05,-150.86 101.55,-141.99"/>
<polygon fill="midnightblue" stroke="midnightblue" points="105.04,-141.54 100.99,-131.75 98.05,-141.93 105.04,-141.54"/>
</g>
</g>
</svg>
