<?xml version="1.0" encoding="UTF-8" standalone="no"?>
<!DOCTYPE svg PUBLIC "-//W3C//DTD SVG 1.1//EN"
 "http://www.w3.org/Graphics/SVG/1.1/DTD/svg11.dtd">
<!-- Generated by graphviz version 2.43.0 (0)
 -->
<!-- Title: aviationattitudemessage.cpp Pages: 1 -->
<svg width="368pt" height="364pt"
 viewBox="0.00 0.00 368.00 364.00" xmlns="http://www.w3.org/2000/svg" xmlns:xlink="http://www.w3.org/1999/xlink">
<g id="graph0" class="graph" transform="scale(1 1) rotate(0) translate(4 360)">
<title>aviationattitudemessage.cpp</title>
<!-- Node1 -->
<g id="node1" class="node">
<title>Node1</title>
<g id="a_node1"><a xlink:title=" ">
<polygon fill="#bfbfbf" stroke="black" points="145,-336.5 145,-355.5 304,-355.5 304,-336.5 145,-336.5"/>
<text text-anchor="middle" x="224.5" y="-343.5" font-family="Helvetica,sans-Serif" font-size="10.00">aviationattitudemessage.cpp</text>
</a>
</g>
</g>
<!-- Node2 -->
<g id="node2" class="node">
<title>Node2</title>
<g id="a_node2"><a xlink:href="aviationattitudemessage_8h.html" target="_top" xlink:title=" ">
<polygon fill="none" stroke="black" points="133.5,-224.5 133.5,-243.5 281.5,-243.5 281.5,-224.5 133.5,-224.5"/>
<text text-anchor="middle" x="207.5" y="-231.5" font-family="Helvetica,sans-Serif" font-size="10.00">aviationattitudemessage.h</text>
</a>
</g>
</g>
<!-- Node1&#45;&gt;Node2 -->
<g id="edge1" class="edge">
<title>Node1&#45;&gt;Node2</title>
<path fill="none" stroke="midnightblue" d="M222.58,-336.41C220.61,-327.38 217.56,-312.74 215.5,-300 213.01,-284.55 210.88,-266.92 209.45,-253.92"/>
<polygon fill="midnightblue" stroke="midnightblue" points="212.92,-253.43 208.38,-243.86 205.96,-254.18 212.92,-253.43"/>
</g>
<!-- Node7 -->
<g id="node7" class="node">
<title>Node7</title>
<g id="a_node7"><a xlink:href="aviationattitudemessage__p_8h.html" target="_top" xlink:title=" ">
<polygon fill="none" stroke="black" points="0,-280.5 0,-299.5 159,-299.5 159,-280.5 0,-280.5"/>
<text text-anchor="middle" x="79.5" y="-287.5" font-family="Helvetica,sans-Serif" font-size="10.00">aviationattitudemessage_p.h</text>
</a>
</g>
</g>
<!-- Node1&#45;&gt;Node7 -->
<g id="edge7" class="edge">
<title>Node1&#45;&gt;Node7</title>
<path fill="none" stroke="midnightblue" d="M201.52,-336.44C177.34,-327.44 139.08,-313.19 111.85,-303.05"/>
<polygon fill="midnightblue" stroke="midnightblue" points="112.96,-299.73 102.37,-299.52 110.52,-306.29 112.96,-299.73"/>
</g>
<!-- Node11 -->
<g id="node11" class="node">
<title>Node11</title>
<g id="a_node11"><a xlink:title=" ">
<polygon fill="none" stroke="#bfbfbf" points="224.5,-280.5 224.5,-299.5 280.5,-299.5 280.5,-280.5 224.5,-280.5"/>
<text text-anchor="middle" x="252.5" y="-287.5" font-family="Helvetica,sans-Serif" font-size="10.00">QDebug</text>
</a>
</g>
</g>
<!-- Node1&#45;&gt;Node11 -->
<g id="edge14" class="edge">
<title>Node1&#45;&gt;Node11</title>
<path fill="none" stroke="midnightblue" d="M229.12,-336.08C232.96,-328.69 238.52,-317.95 243.26,-308.81"/>
<polygon fill="midnightblue" stroke="midnightblue" points="246.47,-310.24 247.96,-299.75 240.25,-307.02 246.47,-310.24"/>
</g>
<!-- Node12 -->
<g id="node12" class="node">
<title>Node12</title>
<g id="a_node12"><a xlink:title=" ">
<polygon fill="none" stroke="#bfbfbf" points="299,-280.5 299,-299.5 360,-299.5 360,-280.5 299,-280.5"/>
<text text-anchor="middle" x="329.5" y="-287.5" font-family="Helvetica,sans-Serif" font-size="10.00">QtEndian</text>
</a>
</g>
</g>
<!-- Node1&#45;&gt;Node12 -->
<g id="edge15" class="edge">
<title>Node1&#45;&gt;Node12</title>
<path fill="none" stroke="midnightblue" d="M241.37,-336.32C258.21,-327.66 284.31,-314.24 303.74,-304.25"/>
<polygon fill="midnightblue" stroke="midnightblue" points="305.38,-307.34 312.67,-299.65 302.18,-301.12 305.38,-307.34"/>
</g>
<!-- Node3 -->
<g id="node3" class="node">
<title>Node3</title>
<g id="a_node3"><a xlink:href="fitdatamessage_8h.html" target="_top" xlink:title=" ">
<polygon fill="none" stroke="black" points="152,-168.5 152,-187.5 253,-187.5 253,-168.5 152,-168.5"/>
<text text-anchor="middle" x="202.5" y="-175.5" font-family="Helvetica,sans-Serif" font-size="10.00">fitdatamessage.h</text>
</a>
</g>
</g>
<!-- Node2&#45;&gt;Node3 -->
<g id="edge2" class="edge">
<title>Node2&#45;&gt;Node3</title>
<path fill="none" stroke="midnightblue" d="M206.67,-224.08C206.02,-217.01 205.08,-206.86 204.26,-197.99"/>
<polygon fill="midnightblue" stroke="midnightblue" points="207.72,-197.39 203.31,-187.75 200.75,-198.03 207.72,-197.39"/>
</g>
<!-- Node4 -->
<g id="node4" class="node">
<title>Node4</title>
<g id="a_node4"><a xlink:href="QtFit__global_8h.html" target="_top" xlink:title=" ">
<polygon fill="none" stroke="black" points="83.5,-56.5 83.5,-75.5 167.5,-75.5 167.5,-56.5 83.5,-56.5"/>
<text text-anchor="middle" x="125.5" y="-63.5" font-family="Helvetica,sans-Serif" font-size="10.00">QtFit_global.h</text>
</a>
</g>
</g>
<!-- Node3&#45;&gt;Node4 -->
<g id="edge3" class="edge">
<title>Node3&#45;&gt;Node4</title>
<path fill="none" stroke="midnightblue" d="M197.49,-168.39C190.04,-155.75 175.43,-131.56 161.5,-112 154.61,-102.32 146.36,-91.94 139.51,-83.59"/>
<polygon fill="midnightblue" stroke="midnightblue" points="142.06,-81.19 132.97,-75.74 136.68,-85.66 142.06,-81.19"/>
</g>
<!-- Node6 -->
<g id="node6" class="node">
<title>Node6</title>
<g id="a_node6"><a xlink:href="types_8h.html" target="_top" xlink:title="Types defined by the ANT+ FIT SDK.">
<polygon fill="none" stroke="black" points="99,-112.5 99,-131.5 152,-131.5 152,-112.5 99,-112.5"/>
<text text-anchor="middle" x="125.5" y="-119.5" font-family="Helvetica,sans-Serif" font-size="10.00">types.h</text>
</a>
</g>
</g>
<!-- Node3&#45;&gt;Node6 -->
<g id="edge5" class="edge">
<title>Node3&#45;&gt;Node6</title>
<path fill="none" stroke="midnightblue" d="M190.13,-168.32C178.34,-160.06 160.37,-147.45 146.36,-137.63"/>
<polygon fill="midnightblue" stroke="midnightblue" points="148.04,-134.53 137.84,-131.65 144.02,-140.26 148.04,-134.53"/>
</g>
<!-- Node5 -->
<g id="node5" class="node">
<title>Node5</title>
<g id="a_node5"><a xlink:title=" ">
<polygon fill="none" stroke="#bfbfbf" points="96,-0.5 96,-19.5 155,-19.5 155,-0.5 96,-0.5"/>
<text text-anchor="middle" x="125.5" y="-7.5" font-family="Helvetica,sans-Serif" font-size="10.00">QtGlobal</text>
</a>
</g>
</g>
<!-- Node4&#45;&gt;Node5 -->
<g id="edge4" class="edge">
<title>Node4&#45;&gt;Node5</title>
<path fill="none" stroke="midnightblue" d="M125.5,-56.08C125.5,-49.01 125.5,-38.86 125.5,-29.99"/>
<polygon fill="midnightblue" stroke="midnightblue" points="129,-29.75 125.5,-19.75 122,-29.75 129,-29.75"/>
</g>
<!-- Node6&#45;&gt;Node4 -->
<g id="edge6" class="edge">
<title>Node6&#45;&gt;Node4</title>
<path fill="none" stroke="midnightblue" d="M125.5,-112.08C125.5,-105.01 125.5,-94.86 125.5,-85.99"/>
<polygon fill="midnightblue" stroke="midnightblue" points="129,-85.75 125.5,-75.75 122,-85.75 129,-85.75"/>
</g>
<!-- Node8 -->
<g id="node8" class="node">
<title>Node8</title>
<g id="a_node8"><a xlink:href="fitdatamessage__p_8h.html" target="_top" xlink:title=" ">
<polygon fill="none" stroke="black" points="2,-224.5 2,-243.5 115,-243.5 115,-224.5 2,-224.5"/>
<text text-anchor="middle" x="58.5" y="-231.5" font-family="Helvetica,sans-Serif" font-size="10.00">fitdatamessage_p.h</text>
</a>
</g>
</g>
<!-- Node7&#45;&gt;Node8 -->
<g id="edge8" class="edge">
<title>Node7&#45;&gt;Node8</title>
<path fill="none" stroke="midnightblue" d="M76.03,-280.08C73.19,-272.77 69.07,-262.18 65.54,-253.1"/>
<polygon fill="midnightblue" stroke="midnightblue" points="68.79,-251.8 61.9,-243.75 62.27,-254.34 68.79,-251.8"/>
</g>
<!-- Node8&#45;&gt;Node4 -->
<g id="edge9" class="edge">
<title>Node8&#45;&gt;Node4</title>
<path fill="none" stroke="midnightblue" d="M48.34,-224.19C39.59,-215.87 27.6,-202.54 22.5,-188 15.84,-169.02 23.59,-121.38 30.5,-112 42.1,-96.26 60.64,-85.81 78.27,-78.98"/>
<polygon fill="midnightblue" stroke="midnightblue" points="79.67,-82.2 87.92,-75.55 77.32,-75.6 79.67,-82.2"/>
</g>
<!-- Node8&#45;&gt;Node6 -->
<g id="edge10" class="edge">
<title>Node8&#45;&gt;Node6</title>
<path fill="none" stroke="midnightblue" d="M70.27,-224.23C80.64,-215.94 95.44,-202.63 104.5,-188 113.38,-173.66 118.87,-155.2 122,-141.62"/>
<polygon fill="midnightblue" stroke="midnightblue" points="125.49,-142.06 124.1,-131.55 118.63,-140.63 125.49,-142.06"/>
</g>
<!-- Node9 -->
<g id="node9" class="node">
<title>Node9</title>
<g id="a_node9"><a xlink:href="types__p_8h.html" target="_top" xlink:title=" ">
<polygon fill="none" stroke="black" points="31.5,-168.5 31.5,-187.5 95.5,-187.5 95.5,-168.5 31.5,-168.5"/>
<text text-anchor="middle" x="63.5" y="-175.5" font-family="Helvetica,sans-Serif" font-size="10.00">types_p.h</text>
</a>
</g>
</g>
<!-- Node8&#45;&gt;Node9 -->
<g id="edge11" class="edge">
<title>Node8&#45;&gt;Node9</title>
<path fill="none" stroke="midnightblue" d="M59.33,-224.08C59.98,-217.01 60.92,-206.86 61.74,-197.99"/>
<polygon fill="midnightblue" stroke="midnightblue" points="65.25,-198.03 62.69,-187.75 58.28,-197.39 65.25,-198.03"/>
</g>
<!-- Node9&#45;&gt;Node6 -->
<g id="edge12" class="edge">
<title>Node9&#45;&gt;Node6</title>
<path fill="none" stroke="midnightblue" d="M73.46,-168.32C82.63,-160.34 96.44,-148.31 107.53,-138.65"/>
<polygon fill="midnightblue" stroke="midnightblue" points="110.12,-141.04 115.36,-131.83 105.52,-135.76 110.12,-141.04"/>
</g>
<!-- Node10 -->
<g id="node10" class="node">
<title>Node10</title>
<g id="a_node10"><a xlink:title=" ">
<polygon fill="none" stroke="#bfbfbf" points="40,-112.5 40,-131.5 81,-131.5 81,-112.5 40,-112.5"/>
<text text-anchor="middle" x="60.5" y="-119.5" font-family="Helvetica,sans-Serif" font-size="10.00">QList</text>
</a>
</g>
</g>
<!-- Node9&#45;&gt;Node10 -->
<g id="edge13" class="edge">
<title>Node9&#45;&gt;Node10</title>
<path fill="none" stroke="midnightblue" d="M63,-168.08C62.61,-161.01 62.05,-150.86 61.55,-141.99"/>
<polygon fill="midnightblue" stroke="midnightblue" points="65.04,-141.54 60.99,-131.75 58.05,-141.93 65.04,-141.54"/>
</g>
</g>
</svg>
