<?xml version="1.0" encoding="UTF-8" standalone="no"?>
<!DOCTYPE svg PUBLIC "-//W3C//DTD SVG 1.1//EN"
 "http://www.w3.org/Graphics/SVG/1.1/DTD/svg11.dtd">
<!-- Generated by graphviz version 2.43.0 (0)
 -->
<!-- Title: aviationattitudemessage.cpp Pages: 1 -->
<svg width="451pt" height="364pt"
 viewBox="0.00 0.00 450.50 364.00" xmlns="http://www.w3.org/2000/svg" xmlns:xlink="http://www.w3.org/1999/xlink">
<g id="graph0" class="graph" transform="scale(1 1) rotate(0) translate(4 360)">
<title>aviationattitudemessage.cpp</title>
<!-- Node1 -->
<g id="node1" class="node">
<title>Node1</title>
<g id="a_node1"><a xlink:title="Defines the AviationAttitudeMessage, and AviationAttitudeMessagePrivate classes.">
<polygon fill="#bfbfbf" stroke="black" points="219.5,-336.5 219.5,-355.5 378.5,-355.5 378.5,-336.5 219.5,-336.5"/>
<text text-anchor="middle" x="299" y="-343.5" font-family="Helvetica,sans-Serif" font-size="10.00">aviationattitudemessage.cpp</text>
</a>
</g>
</g>
<!-- Node2 -->
<g id="node2" class="node">
<title>Node2</title>
<g id="a_node2"><a xlink:href="aviationattitudemessage_8h.html" target="_top" xlink:title="Declares the AviationAttitudeMessage class.">
<polygon fill="none" stroke="black" points="0,-280.5 0,-299.5 148,-299.5 148,-280.5 0,-280.5"/>
<text text-anchor="middle" x="74" y="-287.5" font-family="Helvetica,sans-Serif" font-size="10.00">aviationattitudemessage.h</text>
</a>
</g>
</g>
<!-- Node1&#45;&gt;Node2 -->
<g id="edge1" class="edge">
<title>Node1&#45;&gt;Node2</title>
<path fill="none" stroke="midnightblue" d="M263.35,-336.44C224.34,-327.08 161.73,-312.06 119.28,-301.87"/>
<polygon fill="midnightblue" stroke="midnightblue" points="120.03,-298.45 109.49,-299.52 118.39,-305.25 120.03,-298.45"/>
</g>
<!-- Node7 -->
<g id="node7" class="node">
<title>Node7</title>
<g id="a_node7"><a xlink:title=" ">
<polygon fill="none" stroke="#bfbfbf" points="284,-56.5 284,-75.5 340,-75.5 340,-56.5 284,-56.5"/>
<text text-anchor="middle" x="312" y="-63.5" font-family="Helvetica,sans-Serif" font-size="10.00">QDebug</text>
</a>
</g>
</g>
<!-- Node1&#45;&gt;Node7 -->
<g id="edge15" class="edge">
<title>Node1&#45;&gt;Node7</title>
<path fill="none" stroke="midnightblue" d="M307.33,-336.39C315.22,-327.8 326.88,-313.92 334,-300 347.7,-273.2 353,-265.1 353,-235 353,-235 353,-235 353,-177 353,-142.52 335.09,-105.56 322.94,-84.47"/>
<polygon fill="midnightblue" stroke="midnightblue" points="325.84,-82.49 317.7,-75.71 319.84,-86.09 325.84,-82.49"/>
</g>
<!-- Node8 -->
<g id="node8" class="node">
<title>Node8</title>
<g id="a_node8"><a xlink:href="aviationattitudemessage__p_8h.html" target="_top" xlink:title="Declares the AviationAttitudeMessagePrivate class.">
<polygon fill="none" stroke="black" points="166.5,-280.5 166.5,-299.5 325.5,-299.5 325.5,-280.5 166.5,-280.5"/>
<text text-anchor="middle" x="246" y="-287.5" font-family="Helvetica,sans-Serif" font-size="10.00">aviationattitudemessage_p.h</text>
</a>
</g>
</g>
<!-- Node1&#45;&gt;Node8 -->
<g id="edge8" class="edge">
<title>Node1&#45;&gt;Node8</title>
<path fill="none" stroke="midnightblue" d="M290.25,-336.08C282.53,-328.22 271.1,-316.57 261.78,-307.08"/>
<polygon fill="midnightblue" stroke="midnightblue" points="264.09,-304.44 254.59,-299.75 259.1,-309.34 264.09,-304.44"/>
</g>
<!-- Node12 -->
<g id="node12" class="node">
<title>Node12</title>
<g id="a_node12"><a xlink:title=" ">
<polygon fill="none" stroke="#bfbfbf" points="381.5,-280.5 381.5,-299.5 442.5,-299.5 442.5,-280.5 381.5,-280.5"/>
<text text-anchor="middle" x="412" y="-287.5" font-family="Helvetica,sans-Serif" font-size="10.00">QtEndian</text>
</a>
</g>
</g>
<!-- Node1&#45;&gt;Node12 -->
<g id="edge16" class="edge">
<title>Node1&#45;&gt;Node12</title>
<path fill="none" stroke="midnightblue" d="M316.91,-336.44C335.25,-327.68 364.01,-313.94 385.09,-303.86"/>
<polygon fill="midnightblue" stroke="midnightblue" points="386.67,-306.99 394.18,-299.52 383.65,-300.67 386.67,-306.99"/>
</g>
<!-- Node3 -->
<g id="node3" class="node">
<title>Node3</title>
<g id="a_node3"><a xlink:href="abstractdatamessage_8h.html" target="_top" xlink:title="Declares the AbstractDataMessage class.">
<polygon fill="none" stroke="black" points="21.5,-168.5 21.5,-187.5 152.5,-187.5 152.5,-168.5 21.5,-168.5"/>
<text text-anchor="middle" x="87" y="-175.5" font-family="Helvetica,sans-Serif" font-size="10.00">abstractdatamessage.h</text>
</a>
</g>
</g>
<!-- Node2&#45;&gt;Node3 -->
<g id="edge2" class="edge">
<title>Node2&#45;&gt;Node3</title>
<path fill="none" stroke="midnightblue" d="M75.02,-280.37C77.12,-262.62 81.96,-221.67 84.8,-197.6"/>
<polygon fill="midnightblue" stroke="midnightblue" points="88.29,-197.93 85.98,-187.59 81.34,-197.11 88.29,-197.93"/>
</g>
<!-- Node4 -->
<g id="node4" class="node">
<title>Node4</title>
<g id="a_node4"><a xlink:href="QtFit__global_8h.html" target="_top" xlink:title="Global QtFit library macros.">
<polygon fill="none" stroke="black" points="139,-56.5 139,-75.5 223,-75.5 223,-56.5 139,-56.5"/>
<text text-anchor="middle" x="181" y="-63.5" font-family="Helvetica,sans-Serif" font-size="10.00">QtFit_global.h</text>
</a>
</g>
</g>
<!-- Node3&#45;&gt;Node4 -->
<g id="edge3" class="edge">
<title>Node3&#45;&gt;Node4</title>
<path fill="none" stroke="midnightblue" d="M94.38,-168.37C110.03,-150.05 146.78,-107.05 167.02,-83.36"/>
<polygon fill="midnightblue" stroke="midnightblue" points="169.82,-85.47 173.66,-75.59 164.5,-80.92 169.82,-85.47"/>
</g>
<!-- Node6 -->
<g id="node6" class="node">
<title>Node6</title>
<g id="a_node6"><a xlink:href="types_8h.html" target="_top" xlink:title="Types defined by the ANT+ FIT SDK.">
<polygon fill="none" stroke="black" points="209.5,-112.5 209.5,-131.5 262.5,-131.5 262.5,-112.5 209.5,-112.5"/>
<text text-anchor="middle" x="236" y="-119.5" font-family="Helvetica,sans-Serif" font-size="10.00">types.h</text>
</a>
</g>
</g>
<!-- Node3&#45;&gt;Node6 -->
<g id="edge5" class="edge">
<title>Node3&#45;&gt;Node6</title>
<path fill="none" stroke="midnightblue" d="M110.61,-168.44C135.46,-159.44 174.77,-145.19 202.75,-135.05"/>
<polygon fill="midnightblue" stroke="midnightblue" points="204.29,-138.21 212.5,-131.52 201.91,-131.63 204.29,-138.21"/>
</g>
<!-- Node5 -->
<g id="node5" class="node">
<title>Node5</title>
<g id="a_node5"><a xlink:title=" ">
<polygon fill="none" stroke="#bfbfbf" points="151.5,-0.5 151.5,-19.5 210.5,-19.5 210.5,-0.5 151.5,-0.5"/>
<text text-anchor="middle" x="181" y="-7.5" font-family="Helvetica,sans-Serif" font-size="10.00">QtGlobal</text>
</a>
</g>
</g>
<!-- Node4&#45;&gt;Node5 -->
<g id="edge4" class="edge">
<title>Node4&#45;&gt;Node5</title>
<path fill="none" stroke="midnightblue" d="M181,-56.08C181,-49.01 181,-38.86 181,-29.99"/>
<polygon fill="midnightblue" stroke="midnightblue" points="184.5,-29.75 181,-19.75 177.5,-29.75 184.5,-29.75"/>
</g>
<!-- Node6&#45;&gt;Node4 -->
<g id="edge6" class="edge">
<title>Node6&#45;&gt;Node4</title>
<path fill="none" stroke="midnightblue" d="M226.92,-112.08C218.83,-104.14 206.8,-92.34 197.09,-82.8"/>
<polygon fill="midnightblue" stroke="midnightblue" points="199.5,-80.26 189.91,-75.75 194.6,-85.25 199.5,-80.26"/>
</g>
<!-- Node6&#45;&gt;Node7 -->
<g id="edge7" class="edge">
<title>Node6&#45;&gt;Node7</title>
<path fill="none" stroke="midnightblue" d="M248.21,-112.32C259.78,-104.11 277.38,-91.6 291.16,-81.81"/>
<polygon fill="midnightblue" stroke="midnightblue" points="293.44,-84.48 299.57,-75.83 289.39,-78.77 293.44,-84.48"/>
</g>
<!-- Node9 -->
<g id="node9" class="node">
<title>Node9</title>
<g id="a_node9"><a xlink:href="abstractdatamessage__p_8h.html" target="_top" xlink:title="Declares the AbstractDataMessagePrivate class.">
<polygon fill="none" stroke="black" points="167.5,-224.5 167.5,-243.5 310.5,-243.5 310.5,-224.5 167.5,-224.5"/>
<text text-anchor="middle" x="239" y="-231.5" font-family="Helvetica,sans-Serif" font-size="10.00">abstractdatamessage_p.h</text>
</a>
</g>
</g>
<!-- Node8&#45;&gt;Node9 -->
<g id="edge9" class="edge">
<title>Node8&#45;&gt;Node9</title>
<path fill="none" stroke="midnightblue" d="M244.84,-280.08C243.92,-272.93 242.58,-262.64 241.42,-253.69"/>
<polygon fill="midnightblue" stroke="midnightblue" points="244.89,-253.22 240.13,-243.75 237.95,-254.12 244.89,-253.22"/>
</g>
<!-- Node9&#45;&gt;Node4 -->
<g id="edge10" class="edge">
<title>Node9&#45;&gt;Node4</title>
<path fill="none" stroke="midnightblue" d="M235.41,-224.44C228.23,-207.15 211.75,-166.72 200,-132 194.76,-116.51 189.6,-98.67 185.99,-85.6"/>
<polygon fill="midnightblue" stroke="midnightblue" points="189.35,-84.63 183.35,-75.91 182.6,-86.47 189.35,-84.63"/>
</g>
<!-- Node9&#45;&gt;Node6 -->
<g id="edge11" class="edge">
<title>Node9&#45;&gt;Node6</title>
<path fill="none" stroke="midnightblue" d="M238.76,-224.37C238.28,-206.62 237.16,-165.67 236.51,-141.6"/>
<polygon fill="midnightblue" stroke="midnightblue" points="240.01,-141.49 236.23,-131.59 233.01,-141.68 240.01,-141.49"/>
</g>
<!-- Node10 -->
<g id="node10" class="node">
<title>Node10</title>
<g id="a_node10"><a xlink:href="types__p_8h.html" target="_top" xlink:title="Internal types used by QtFit classes.">
<polygon fill="none" stroke="black" points="261,-168.5 261,-187.5 325,-187.5 325,-168.5 261,-168.5"/>
<text text-anchor="middle" x="293" y="-175.5" font-family="Helvetica,sans-Serif" font-size="10.00">types_p.h</text>
</a>
</g>
</g>
<!-- Node9&#45;&gt;Node10 -->
<g id="edge12" class="edge">
<title>Node9&#45;&gt;Node10</title>
<path fill="none" stroke="midnightblue" d="M247.92,-224.08C255.78,-216.22 267.43,-204.57 276.92,-195.08"/>
<polygon fill="midnightblue" stroke="midnightblue" points="279.65,-197.3 284.25,-187.75 274.7,-192.35 279.65,-197.3"/>
</g>
<!-- Node10&#45;&gt;Node6 -->
<g id="edge13" class="edge">
<title>Node10&#45;&gt;Node6</title>
<path fill="none" stroke="midnightblue" d="M283.84,-168.32C275.5,-160.42 262.97,-148.55 252.82,-138.94"/>
<polygon fill="midnightblue" stroke="midnightblue" points="254.99,-136.17 245.32,-131.83 250.18,-141.25 254.99,-136.17"/>
</g>
<!-- Node11 -->
<g id="node11" class="node">
<title>Node11</title>
<g id="a_node11"><a xlink:title=" ">
<polygon fill="none" stroke="#bfbfbf" points="280.5,-112.5 280.5,-131.5 321.5,-131.5 321.5,-112.5 280.5,-112.5"/>
<text text-anchor="middle" x="301" y="-119.5" font-family="Helvetica,sans-Serif" font-size="10.00">QList</text>
</a>
</g>
</g>
<!-- Node10&#45;&gt;Node11 -->
<g id="edge14" class="edge">
<title>Node10&#45;&gt;Node11</title>
<path fill="none" stroke="midnightblue" d="M294.32,-168.08C295.38,-160.93 296.91,-150.64 298.23,-141.69"/>
<polygon fill="midnightblue" stroke="midnightblue" points="301.7,-142.16 299.7,-131.75 294.78,-141.13 301.7,-142.16"/>
</g>
</g>
</svg>
