<?xml version="1.0" encoding="UTF-8" standalone="no"?>
<!DOCTYPE svg PUBLIC "-//W3C//DTD SVG 1.1//EN"
 "http://www.w3.org/Graphics/SVG/1.1/DTD/svg11.dtd">
<!-- Generated by graphviz version 2.43.0 (0)
 -->
<!-- Title: barometerdatamessage.cpp Pages: 1 -->
<svg width="441pt" height="364pt"
 viewBox="0.00 0.00 441.00 364.00" xmlns="http://www.w3.org/2000/svg" xmlns:xlink="http://www.w3.org/1999/xlink">
<g id="graph0" class="graph" transform="scale(1 1) rotate(0) translate(4 360)">
<title>barometerdatamessage.cpp</title>
<!-- Node1 -->
<g id="node1" class="node">
<title>Node1</title>
<g id="a_node1"><a xlink:title=" ">
<polygon fill="#bfbfbf" stroke="black" points="213.5,-336.5 213.5,-355.5 367.5,-355.5 367.5,-336.5 213.5,-336.5"/>
<text text-anchor="middle" x="290.5" y="-343.5" font-family="Helvetica,sans-Serif" font-size="10.00">barometerdatamessage.cpp</text>
</a>
</g>
</g>
<!-- Node2 -->
<g id="node2" class="node">
<title>Node2</title>
<g id="a_node2"><a xlink:href="barometerdatamessage_8h.html" target="_top" xlink:title=" ">
<polygon fill="none" stroke="black" points="0,-280.5 0,-299.5 143,-299.5 143,-280.5 0,-280.5"/>
<text text-anchor="middle" x="71.5" y="-287.5" font-family="Helvetica,sans-Serif" font-size="10.00">barometerdatamessage.h</text>
</a>
</g>
</g>
<!-- Node1&#45;&gt;Node2 -->
<g id="edge1" class="edge">
<title>Node1&#45;&gt;Node2</title>
<path fill="none" stroke="midnightblue" d="M255.8,-336.44C217.92,-327.1 157.15,-312.12 115.84,-301.93"/>
<polygon fill="midnightblue" stroke="midnightblue" points="116.59,-298.51 106.04,-299.52 114.91,-305.31 116.59,-298.51"/>
</g>
<!-- Node7 -->
<g id="node7" class="node">
<title>Node7</title>
<g id="a_node7"><a xlink:title=" ">
<polygon fill="none" stroke="#bfbfbf" points="274.5,-56.5 274.5,-75.5 330.5,-75.5 330.5,-56.5 274.5,-56.5"/>
<text text-anchor="middle" x="302.5" y="-63.5" font-family="Helvetica,sans-Serif" font-size="10.00">QDebug</text>
</a>
</g>
</g>
<!-- Node1&#45;&gt;Node7 -->
<g id="edge15" class="edge">
<title>Node1&#45;&gt;Node7</title>
<path fill="none" stroke="midnightblue" d="M298.58,-336.34C306.23,-327.72 317.55,-313.82 324.5,-300 338.02,-273.11 343.5,-265.1 343.5,-235 343.5,-235 343.5,-235 343.5,-177 343.5,-142.52 325.59,-105.56 313.44,-84.47"/>
<polygon fill="midnightblue" stroke="midnightblue" points="316.34,-82.49 308.2,-75.71 310.34,-86.09 316.34,-82.49"/>
</g>
<!-- Node8 -->
<g id="node8" class="node">
<title>Node8</title>
<g id="a_node8"><a xlink:href="barometerdatamessage__p_8h.html" target="_top" xlink:title=" ">
<polygon fill="none" stroke="black" points="161.5,-280.5 161.5,-299.5 315.5,-299.5 315.5,-280.5 161.5,-280.5"/>
<text text-anchor="middle" x="238.5" y="-287.5" font-family="Helvetica,sans-Serif" font-size="10.00">barometerdatamessage_p.h</text>
</a>
</g>
</g>
<!-- Node1&#45;&gt;Node8 -->
<g id="edge8" class="edge">
<title>Node1&#45;&gt;Node8</title>
<path fill="none" stroke="midnightblue" d="M281.91,-336.08C274.34,-328.22 263.12,-316.57 253.99,-307.08"/>
<polygon fill="midnightblue" stroke="midnightblue" points="256.38,-304.53 246.93,-299.75 251.34,-309.38 256.38,-304.53"/>
</g>
<!-- Node12 -->
<g id="node12" class="node">
<title>Node12</title>
<g id="a_node12"><a xlink:title=" ">
<polygon fill="none" stroke="#bfbfbf" points="372,-280.5 372,-299.5 433,-299.5 433,-280.5 372,-280.5"/>
<text text-anchor="middle" x="402.5" y="-287.5" font-family="Helvetica,sans-Serif" font-size="10.00">QtEndian</text>
</a>
</g>
</g>
<!-- Node1&#45;&gt;Node12 -->
<g id="edge16" class="edge">
<title>Node1&#45;&gt;Node12</title>
<path fill="none" stroke="midnightblue" d="M308.49,-336.32C326.54,-327.62 354.55,-314.12 375.3,-304.11"/>
<polygon fill="midnightblue" stroke="midnightblue" points="377.06,-307.15 384.55,-299.65 374.02,-300.84 377.06,-307.15"/>
</g>
<!-- Node3 -->
<g id="node3" class="node">
<title>Node3</title>
<g id="a_node3"><a xlink:href="abstractdatamessage_8h_source.html" target="_top" xlink:title=" ">
<polygon fill="none" stroke="black" points="12,-168.5 12,-187.5 143,-187.5 143,-168.5 12,-168.5"/>
<text text-anchor="middle" x="77.5" y="-175.5" font-family="Helvetica,sans-Serif" font-size="10.00">abstractdatamessage.h</text>
</a>
</g>
</g>
<!-- Node2&#45;&gt;Node3 -->
<g id="edge2" class="edge">
<title>Node2&#45;&gt;Node3</title>
<path fill="none" stroke="midnightblue" d="M71.97,-280.37C72.94,-262.62 75.17,-221.67 76.49,-197.6"/>
<polygon fill="midnightblue" stroke="midnightblue" points="79.98,-197.77 77.03,-187.59 72.99,-197.39 79.98,-197.77"/>
</g>
<!-- Node4 -->
<g id="node4" class="node">
<title>Node4</title>
<g id="a_node4"><a xlink:href="QtFit__global_8h_source.html" target="_top" xlink:title=" ">
<polygon fill="none" stroke="black" points="129.5,-56.5 129.5,-75.5 213.5,-75.5 213.5,-56.5 129.5,-56.5"/>
<text text-anchor="middle" x="171.5" y="-63.5" font-family="Helvetica,sans-Serif" font-size="10.00">QtFit_global.h</text>
</a>
</g>
</g>
<!-- Node3&#45;&gt;Node4 -->
<g id="edge3" class="edge">
<title>Node3&#45;&gt;Node4</title>
<path fill="none" stroke="midnightblue" d="M84.88,-168.37C100.53,-150.05 137.28,-107.05 157.52,-83.36"/>
<polygon fill="midnightblue" stroke="midnightblue" points="160.32,-85.47 164.16,-75.59 155,-80.92 160.32,-85.47"/>
</g>
<!-- Node6 -->
<g id="node6" class="node">
<title>Node6</title>
<g id="a_node6"><a xlink:href="types_8h.html" target="_top" xlink:title="Types defined by the ANT+ FIT SDK.">
<polygon fill="none" stroke="black" points="200,-112.5 200,-131.5 253,-131.5 253,-112.5 200,-112.5"/>
<text text-anchor="middle" x="226.5" y="-119.5" font-family="Helvetica,sans-Serif" font-size="10.00">types.h</text>
</a>
</g>
</g>
<!-- Node3&#45;&gt;Node6 -->
<g id="edge5" class="edge">
<title>Node3&#45;&gt;Node6</title>
<path fill="none" stroke="midnightblue" d="M101.11,-168.44C125.96,-159.44 165.27,-145.19 193.25,-135.05"/>
<polygon fill="midnightblue" stroke="midnightblue" points="194.79,-138.21 203,-131.52 192.41,-131.63 194.79,-138.21"/>
</g>
<!-- Node5 -->
<g id="node5" class="node">
<title>Node5</title>
<g id="a_node5"><a xlink:title=" ">
<polygon fill="none" stroke="#bfbfbf" points="142,-0.5 142,-19.5 201,-19.5 201,-0.5 142,-0.5"/>
<text text-anchor="middle" x="171.5" y="-7.5" font-family="Helvetica,sans-Serif" font-size="10.00">QtGlobal</text>
</a>
</g>
</g>
<!-- Node4&#45;&gt;Node5 -->
<g id="edge4" class="edge">
<title>Node4&#45;&gt;Node5</title>
<path fill="none" stroke="midnightblue" d="M171.5,-56.08C171.5,-49.01 171.5,-38.86 171.5,-29.99"/>
<polygon fill="midnightblue" stroke="midnightblue" points="175,-29.75 171.5,-19.75 168,-29.75 175,-29.75"/>
</g>
<!-- Node6&#45;&gt;Node4 -->
<g id="edge6" class="edge">
<title>Node6&#45;&gt;Node4</title>
<path fill="none" stroke="midnightblue" d="M217.42,-112.08C209.33,-104.14 197.3,-92.34 187.59,-82.8"/>
<polygon fill="midnightblue" stroke="midnightblue" points="190,-80.26 180.41,-75.75 185.1,-85.25 190,-80.26"/>
</g>
<!-- Node6&#45;&gt;Node7 -->
<g id="edge7" class="edge">
<title>Node6&#45;&gt;Node7</title>
<path fill="none" stroke="midnightblue" d="M238.71,-112.32C250.28,-104.11 267.88,-91.6 281.66,-81.81"/>
<polygon fill="midnightblue" stroke="midnightblue" points="283.94,-84.48 290.07,-75.83 279.89,-78.77 283.94,-84.48"/>
</g>
<!-- Node9 -->
<g id="node9" class="node">
<title>Node9</title>
<g id="a_node9"><a xlink:href="abstractdatamessage__p_8h_source.html" target="_top" xlink:title=" ">
<polygon fill="none" stroke="black" points="159,-224.5 159,-243.5 302,-243.5 302,-224.5 159,-224.5"/>
<text text-anchor="middle" x="230.5" y="-231.5" font-family="Helvetica,sans-Serif" font-size="10.00">abstractdatamessage_p.h</text>
</a>
</g>
</g>
<!-- Node8&#45;&gt;Node9 -->
<g id="edge9" class="edge">
<title>Node8&#45;&gt;Node9</title>
<path fill="none" stroke="midnightblue" d="M237.18,-280.08C236.12,-272.93 234.59,-262.64 233.27,-253.69"/>
<polygon fill="midnightblue" stroke="midnightblue" points="236.72,-253.13 231.8,-243.75 229.8,-254.16 236.72,-253.13"/>
</g>
<!-- Node9&#45;&gt;Node4 -->
<g id="edge10" class="edge">
<title>Node9&#45;&gt;Node4</title>
<path fill="none" stroke="midnightblue" d="M226.8,-224.45C219.4,-207.18 202.44,-166.78 190.5,-132 185.19,-116.54 180.04,-98.69 176.45,-85.62"/>
<polygon fill="midnightblue" stroke="midnightblue" points="179.81,-84.65 173.82,-75.91 173.06,-86.48 179.81,-84.65"/>
</g>
<!-- Node9&#45;&gt;Node6 -->
<g id="edge11" class="edge">
<title>Node9&#45;&gt;Node6</title>
<path fill="none" stroke="midnightblue" d="M230.19,-224.37C229.54,-206.62 228.05,-165.67 227.18,-141.6"/>
<polygon fill="midnightblue" stroke="midnightblue" points="230.67,-141.46 226.81,-131.59 223.68,-141.71 230.67,-141.46"/>
</g>
<!-- Node10 -->
<g id="node10" class="node">
<title>Node10</title>
<g id="a_node10"><a xlink:href="types__p_8h_source.html" target="_top" xlink:title=" ">
<polygon fill="none" stroke="black" points="251.5,-168.5 251.5,-187.5 315.5,-187.5 315.5,-168.5 251.5,-168.5"/>
<text text-anchor="middle" x="283.5" y="-175.5" font-family="Helvetica,sans-Serif" font-size="10.00">types_p.h</text>
</a>
</g>
</g>
<!-- Node9&#45;&gt;Node10 -->
<g id="edge12" class="edge">
<title>Node9&#45;&gt;Node10</title>
<path fill="none" stroke="midnightblue" d="M239.25,-224.08C246.97,-216.22 258.4,-204.57 267.72,-195.08"/>
<polygon fill="midnightblue" stroke="midnightblue" points="270.4,-197.34 274.91,-187.75 265.41,-192.44 270.4,-197.34"/>
</g>
<!-- Node10&#45;&gt;Node6 -->
<g id="edge13" class="edge">
<title>Node10&#45;&gt;Node6</title>
<path fill="none" stroke="midnightblue" d="M274.34,-168.32C266,-160.42 253.47,-148.55 243.32,-138.94"/>
<polygon fill="midnightblue" stroke="midnightblue" points="245.49,-136.17 235.82,-131.83 240.68,-141.25 245.49,-136.17"/>
</g>
<!-- Node11 -->
<g id="node11" class="node">
<title>Node11</title>
<g id="a_node11"><a xlink:title=" ">
<polygon fill="none" stroke="#bfbfbf" points="271,-112.5 271,-131.5 312,-131.5 312,-112.5 271,-112.5"/>
<text text-anchor="middle" x="291.5" y="-119.5" font-family="Helvetica,sans-Serif" font-size="10.00">QList</text>
</a>
</g>
</g>
<!-- Node10&#45;&gt;Node11 -->
<g id="edge14" class="edge">
<title>Node10&#45;&gt;Node11</title>
<path fill="none" stroke="midnightblue" d="M284.82,-168.08C285.88,-160.93 287.41,-150.64 288.73,-141.69"/>
<polygon fill="midnightblue" stroke="midnightblue" points="292.2,-142.16 290.2,-131.75 285.28,-141.13 292.2,-142.16"/>
</g>
</g>
</svg>
