<?xml version="1.0" encoding="UTF-8" standalone="no"?>
<!DOCTYPE svg PUBLIC "-//W3C//DTD SVG 1.1//EN"
 "http://www.w3.org/Graphics/SVG/1.1/DTD/svg11.dtd">
<!-- Generated by graphviz version 2.43.0 (0)
 -->
<!-- Title: barometerdatamessage.cpp Pages: 1 -->
<svg width="324pt" height="364pt"
 viewBox="0.00 0.00 323.50 364.00" xmlns="http://www.w3.org/2000/svg" xmlns:xlink="http://www.w3.org/1999/xlink">
<g id="graph0" class="graph" transform="scale(1 1) rotate(0) translate(4 360)">
<title>barometerdatamessage.cpp</title>
<!-- Node1 -->
<g id="node1" class="node">
<title>Node1</title>
<g id="a_node1"><a xlink:title=" ">
<polygon fill="#bfbfbf" stroke="black" points="83,-336.5 83,-355.5 237,-355.5 237,-336.5 83,-336.5"/>
<text text-anchor="middle" x="160" y="-343.5" font-family="Helvetica,sans-Serif" font-size="10.00">barometerdatamessage.cpp</text>
</a>
</g>
</g>
<!-- Node2 -->
<g id="node2" class="node">
<title>Node2</title>
<g id="a_node2"><a xlink:href="barometerdatamessage_8h.html" target="_top" xlink:title=" ">
<polygon fill="none" stroke="black" points="172.5,-280.5 172.5,-299.5 315.5,-299.5 315.5,-280.5 172.5,-280.5"/>
<text text-anchor="middle" x="244" y="-287.5" font-family="Helvetica,sans-Serif" font-size="10.00">barometerdatamessage.h</text>
</a>
</g>
</g>
<!-- Node1&#45;&gt;Node2 -->
<g id="edge1" class="edge">
<title>Node1&#45;&gt;Node2</title>
<path fill="none" stroke="midnightblue" d="M173.5,-336.32C186.6,-327.9 206.71,-314.97 222.11,-305.07"/>
<polygon fill="midnightblue" stroke="midnightblue" points="224.02,-308.01 230.54,-299.65 220.23,-302.12 224.02,-308.01"/>
</g>
<!-- Node7 -->
<g id="node7" class="node">
<title>Node7</title>
<g id="a_node7"><a xlink:href="barometerdatamessage__p_8h.html" target="_top" xlink:title=" ">
<polygon fill="none" stroke="black" points="0,-280.5 0,-299.5 154,-299.5 154,-280.5 0,-280.5"/>
<text text-anchor="middle" x="77" y="-287.5" font-family="Helvetica,sans-Serif" font-size="10.00">barometerdatamessage_p.h</text>
</a>
</g>
</g>
<!-- Node1&#45;&gt;Node7 -->
<g id="edge7" class="edge">
<title>Node1&#45;&gt;Node7</title>
<path fill="none" stroke="midnightblue" d="M146.66,-336.32C133.84,-327.98 114.22,-315.21 99.06,-305.35"/>
<polygon fill="midnightblue" stroke="midnightblue" points="100.59,-302.17 90.3,-299.65 96.78,-308.04 100.59,-302.17"/>
</g>
<!-- Node3 -->
<g id="node3" class="node">
<title>Node3</title>
<g id="a_node3"><a xlink:href="fitdatamessage_8h.html" target="_top" xlink:title=" ">
<polygon fill="none" stroke="black" points="186.5,-168.5 186.5,-187.5 287.5,-187.5 287.5,-168.5 186.5,-168.5"/>
<text text-anchor="middle" x="237" y="-175.5" font-family="Helvetica,sans-Serif" font-size="10.00">fitdatamessage.h</text>
</a>
</g>
</g>
<!-- Node2&#45;&gt;Node3 -->
<g id="edge2" class="edge">
<title>Node2&#45;&gt;Node3</title>
<path fill="none" stroke="midnightblue" d="M243.45,-280.37C242.32,-262.62 239.72,-221.67 238.18,-197.6"/>
<polygon fill="midnightblue" stroke="midnightblue" points="241.67,-197.35 237.55,-187.59 234.69,-197.79 241.67,-197.35"/>
</g>
<!-- Node4 -->
<g id="node4" class="node">
<title>Node4</title>
<g id="a_node4"><a xlink:href="QtFit__global_8h.html" target="_top" xlink:title=" ">
<polygon fill="none" stroke="black" points="118,-56.5 118,-75.5 202,-75.5 202,-56.5 118,-56.5"/>
<text text-anchor="middle" x="160" y="-63.5" font-family="Helvetica,sans-Serif" font-size="10.00">QtFit_global.h</text>
</a>
</g>
</g>
<!-- Node3&#45;&gt;Node4 -->
<g id="edge3" class="edge">
<title>Node3&#45;&gt;Node4</title>
<path fill="none" stroke="midnightblue" d="M231.99,-168.39C224.54,-155.75 209.93,-131.56 196,-112 189.11,-102.32 180.86,-91.94 174.01,-83.59"/>
<polygon fill="midnightblue" stroke="midnightblue" points="176.56,-81.19 167.47,-75.74 171.18,-85.66 176.56,-81.19"/>
</g>
<!-- Node6 -->
<g id="node6" class="node">
<title>Node6</title>
<g id="a_node6"><a xlink:href="types_8h.html" target="_top" xlink:title="Types defined by the ANT+ FIT SDK.">
<polygon fill="none" stroke="black" points="133.5,-112.5 133.5,-131.5 186.5,-131.5 186.5,-112.5 133.5,-112.5"/>
<text text-anchor="middle" x="160" y="-119.5" font-family="Helvetica,sans-Serif" font-size="10.00">types.h</text>
</a>
</g>
</g>
<!-- Node3&#45;&gt;Node6 -->
<g id="edge5" class="edge">
<title>Node3&#45;&gt;Node6</title>
<path fill="none" stroke="midnightblue" d="M224.63,-168.32C212.84,-160.06 194.87,-147.45 180.86,-137.63"/>
<polygon fill="midnightblue" stroke="midnightblue" points="182.54,-134.53 172.34,-131.65 178.52,-140.26 182.54,-134.53"/>
</g>
<!-- Node5 -->
<g id="node5" class="node">
<title>Node5</title>
<g id="a_node5"><a xlink:title=" ">
<polygon fill="none" stroke="#bfbfbf" points="130.5,-0.5 130.5,-19.5 189.5,-19.5 189.5,-0.5 130.5,-0.5"/>
<text text-anchor="middle" x="160" y="-7.5" font-family="Helvetica,sans-Serif" font-size="10.00">QtGlobal</text>
</a>
</g>
</g>
<!-- Node4&#45;&gt;Node5 -->
<g id="edge4" class="edge">
<title>Node4&#45;&gt;Node5</title>
<path fill="none" stroke="midnightblue" d="M160,-56.08C160,-49.01 160,-38.86 160,-29.99"/>
<polygon fill="midnightblue" stroke="midnightblue" points="163.5,-29.75 160,-19.75 156.5,-29.75 163.5,-29.75"/>
</g>
<!-- Node6&#45;&gt;Node4 -->
<g id="edge6" class="edge">
<title>Node6&#45;&gt;Node4</title>
<path fill="none" stroke="midnightblue" d="M160,-112.08C160,-105.01 160,-94.86 160,-85.99"/>
<polygon fill="midnightblue" stroke="midnightblue" points="163.5,-85.75 160,-75.75 156.5,-85.75 163.5,-85.75"/>
</g>
<!-- Node8 -->
<g id="node8" class="node">
<title>Node8</title>
<g id="a_node8"><a xlink:href="fitdatamessage__p_8h.html" target="_top" xlink:title=" ">
<polygon fill="none" stroke="black" points="34.5,-224.5 34.5,-243.5 147.5,-243.5 147.5,-224.5 34.5,-224.5"/>
<text text-anchor="middle" x="91" y="-231.5" font-family="Helvetica,sans-Serif" font-size="10.00">fitdatamessage_p.h</text>
</a>
</g>
</g>
<!-- Node7&#45;&gt;Node8 -->
<g id="edge8" class="edge">
<title>Node7&#45;&gt;Node8</title>
<path fill="none" stroke="midnightblue" d="M79.31,-280.08C81.17,-272.93 83.84,-262.64 86.15,-253.69"/>
<polygon fill="midnightblue" stroke="midnightblue" points="89.61,-254.31 88.73,-243.75 82.83,-252.55 89.61,-254.31"/>
</g>
<!-- Node8&#45;&gt;Node4 -->
<g id="edge9" class="edge">
<title>Node8&#45;&gt;Node4</title>
<path fill="none" stroke="midnightblue" d="M81.71,-224.39C73.42,-216.02 61.86,-202.48 57,-188 50.54,-168.74 58.66,-120.6 65,-112 76.6,-96.26 95.14,-85.81 112.77,-78.98"/>
<polygon fill="midnightblue" stroke="midnightblue" points="114.17,-82.2 122.42,-75.55 111.82,-75.6 114.17,-82.2"/>
</g>
<!-- Node8&#45;&gt;Node6 -->
<g id="edge10" class="edge">
<title>Node8&#45;&gt;Node6</title>
<path fill="none" stroke="midnightblue" d="M103.3,-224.34C114.12,-216.12 129.58,-202.86 139,-188 148.03,-173.76 153.51,-155.29 156.59,-141.67"/>
<polygon fill="midnightblue" stroke="midnightblue" points="160.08,-142.08 158.65,-131.58 153.22,-140.68 160.08,-142.08"/>
</g>
<!-- Node9 -->
<g id="node9" class="node">
<title>Node9</title>
<g id="a_node9"><a xlink:href="types__p_8h.html" target="_top" xlink:title=" ">
<polygon fill="none" stroke="black" points="66,-168.5 66,-187.5 130,-187.5 130,-168.5 66,-168.5"/>
<text text-anchor="middle" x="98" y="-175.5" font-family="Helvetica,sans-Serif" font-size="10.00">types_p.h</text>
</a>
</g>
</g>
<!-- Node8&#45;&gt;Node9 -->
<g id="edge11" class="edge">
<title>Node8&#45;&gt;Node9</title>
<path fill="none" stroke="midnightblue" d="M92.16,-224.08C93.08,-216.93 94.42,-206.64 95.58,-197.69"/>
<polygon fill="midnightblue" stroke="midnightblue" points="99.05,-198.12 96.87,-187.75 92.11,-197.22 99.05,-198.12"/>
</g>
<!-- Node9&#45;&gt;Node6 -->
<g id="edge12" class="edge">
<title>Node9&#45;&gt;Node6</title>
<path fill="none" stroke="midnightblue" d="M107.96,-168.32C117.13,-160.34 130.94,-148.31 142.03,-138.65"/>
<polygon fill="midnightblue" stroke="midnightblue" points="144.62,-141.04 149.86,-131.83 140.02,-135.76 144.62,-141.04"/>
</g>
<!-- Node10 -->
<g id="node10" class="node">
<title>Node10</title>
<g id="a_node10"><a xlink:title=" ">
<polygon fill="none" stroke="#bfbfbf" points="74.5,-112.5 74.5,-131.5 115.5,-131.5 115.5,-112.5 74.5,-112.5"/>
<text text-anchor="middle" x="95" y="-119.5" font-family="Helvetica,sans-Serif" font-size="10.00">QList</text>
</a>
</g>
</g>
<!-- Node9&#45;&gt;Node10 -->
<g id="edge13" class="edge">
<title>Node9&#45;&gt;Node10</title>
<path fill="none" stroke="midnightblue" d="M97.5,-168.08C97.11,-161.01 96.55,-150.86 96.05,-141.99"/>
<polygon fill="midnightblue" stroke="midnightblue" points="99.54,-141.54 95.49,-131.75 92.55,-141.93 99.54,-141.54"/>
</g>
</g>
</svg>
