<?xml version="1.0" encoding="UTF-8" standalone="no"?>
<!DOCTYPE svg PUBLIC "-//W3C//DTD SVG 1.1//EN"
 "http://www.w3.org/Graphics/SVG/1.1/DTD/svg11.dtd">
<!-- Generated by graphviz version 2.43.0 (0)
 -->
<!-- Title: barometerdatamessage.cpp Pages: 1 -->
<svg width="364pt" height="364pt"
 viewBox="0.00 0.00 363.50 364.00" xmlns="http://www.w3.org/2000/svg" xmlns:xlink="http://www.w3.org/1999/xlink">
<g id="graph0" class="graph" transform="scale(1 1) rotate(0) translate(4 360)">
<title>barometerdatamessage.cpp</title>
<!-- Node1 -->
<g id="node1" class="node">
<title>Node1</title>
<g id="a_node1"><a xlink:title=" ">
<polygon fill="#bfbfbf" stroke="black" points="143,-336.5 143,-355.5 297,-355.5 297,-336.5 143,-336.5"/>
<text text-anchor="middle" x="220" y="-343.5" font-family="Helvetica,sans-Serif" font-size="10.00">barometerdatamessage.cpp</text>
</a>
</g>
</g>
<!-- Node2 -->
<g id="node2" class="node">
<title>Node2</title>
<g id="a_node2"><a xlink:href="barometerdatamessage_8h.html" target="_top" xlink:title=" ">
<polygon fill="none" stroke="black" points="131.5,-224.5 131.5,-243.5 274.5,-243.5 274.5,-224.5 131.5,-224.5"/>
<text text-anchor="middle" x="203" y="-231.5" font-family="Helvetica,sans-Serif" font-size="10.00">barometerdatamessage.h</text>
</a>
</g>
</g>
<!-- Node1&#45;&gt;Node2 -->
<g id="edge1" class="edge">
<title>Node1&#45;&gt;Node2</title>
<path fill="none" stroke="midnightblue" d="M218.08,-336.41C216.11,-327.38 213.06,-312.74 211,-300 208.51,-284.55 206.38,-266.92 204.95,-253.92"/>
<polygon fill="midnightblue" stroke="midnightblue" points="208.42,-253.43 203.88,-243.86 201.46,-254.18 208.42,-253.43"/>
</g>
<!-- Node7 -->
<g id="node7" class="node">
<title>Node7</title>
<g id="a_node7"><a xlink:href="barometerdatamessage__p_8h.html" target="_top" xlink:title=" ">
<polygon fill="none" stroke="black" points="0,-280.5 0,-299.5 154,-299.5 154,-280.5 0,-280.5"/>
<text text-anchor="middle" x="77" y="-287.5" font-family="Helvetica,sans-Serif" font-size="10.00">barometerdatamessage_p.h</text>
</a>
</g>
</g>
<!-- Node1&#45;&gt;Node7 -->
<g id="edge7" class="edge">
<title>Node1&#45;&gt;Node7</title>
<path fill="none" stroke="midnightblue" d="M197.34,-336.44C173.6,-327.48 136.09,-313.31 109.26,-303.18"/>
<polygon fill="midnightblue" stroke="midnightblue" points="110.14,-299.77 99.55,-299.52 107.67,-306.32 110.14,-299.77"/>
</g>
<!-- Node11 -->
<g id="node11" class="node">
<title>Node11</title>
<g id="a_node11"><a xlink:title=" ">
<polygon fill="none" stroke="#bfbfbf" points="220,-280.5 220,-299.5 276,-299.5 276,-280.5 220,-280.5"/>
<text text-anchor="middle" x="248" y="-287.5" font-family="Helvetica,sans-Serif" font-size="10.00">QDebug</text>
</a>
</g>
</g>
<!-- Node1&#45;&gt;Node11 -->
<g id="edge14" class="edge">
<title>Node1&#45;&gt;Node11</title>
<path fill="none" stroke="midnightblue" d="M224.62,-336.08C228.46,-328.69 234.02,-317.95 238.76,-308.81"/>
<polygon fill="midnightblue" stroke="midnightblue" points="241.97,-310.24 243.46,-299.75 235.75,-307.02 241.97,-310.24"/>
</g>
<!-- Node12 -->
<g id="node12" class="node">
<title>Node12</title>
<g id="a_node12"><a xlink:title=" ">
<polygon fill="none" stroke="#bfbfbf" points="294.5,-280.5 294.5,-299.5 355.5,-299.5 355.5,-280.5 294.5,-280.5"/>
<text text-anchor="middle" x="325" y="-287.5" font-family="Helvetica,sans-Serif" font-size="10.00">QtEndian</text>
</a>
</g>
</g>
<!-- Node1&#45;&gt;Node12 -->
<g id="edge15" class="edge">
<title>Node1&#45;&gt;Node12</title>
<path fill="none" stroke="midnightblue" d="M236.87,-336.32C253.71,-327.66 279.81,-314.24 299.24,-304.25"/>
<polygon fill="midnightblue" stroke="midnightblue" points="300.88,-307.34 308.17,-299.65 297.68,-301.12 300.88,-307.34"/>
</g>
<!-- Node3 -->
<g id="node3" class="node">
<title>Node3</title>
<g id="a_node3"><a xlink:href="fitdatamessage_8h.html" target="_top" xlink:title=" ">
<polygon fill="none" stroke="black" points="149.5,-168.5 149.5,-187.5 250.5,-187.5 250.5,-168.5 149.5,-168.5"/>
<text text-anchor="middle" x="200" y="-175.5" font-family="Helvetica,sans-Serif" font-size="10.00">fitdatamessage.h</text>
</a>
</g>
</g>
<!-- Node2&#45;&gt;Node3 -->
<g id="edge2" class="edge">
<title>Node2&#45;&gt;Node3</title>
<path fill="none" stroke="midnightblue" d="M202.5,-224.08C202.11,-217.01 201.55,-206.86 201.05,-197.99"/>
<polygon fill="midnightblue" stroke="midnightblue" points="204.54,-197.54 200.49,-187.75 197.55,-197.93 204.54,-197.54"/>
</g>
<!-- Node4 -->
<g id="node4" class="node">
<title>Node4</title>
<g id="a_node4"><a xlink:href="QtFit__global_8h.html" target="_top" xlink:title=" ">
<polygon fill="none" stroke="black" points="81,-56.5 81,-75.5 165,-75.5 165,-56.5 81,-56.5"/>
<text text-anchor="middle" x="123" y="-63.5" font-family="Helvetica,sans-Serif" font-size="10.00">QtFit_global.h</text>
</a>
</g>
</g>
<!-- Node3&#45;&gt;Node4 -->
<g id="edge3" class="edge">
<title>Node3&#45;&gt;Node4</title>
<path fill="none" stroke="midnightblue" d="M194.99,-168.39C187.54,-155.75 172.93,-131.56 159,-112 152.11,-102.32 143.86,-91.94 137.01,-83.59"/>
<polygon fill="midnightblue" stroke="midnightblue" points="139.56,-81.19 130.47,-75.74 134.18,-85.66 139.56,-81.19"/>
</g>
<!-- Node6 -->
<g id="node6" class="node">
<title>Node6</title>
<g id="a_node6"><a xlink:href="types_8h.html" target="_top" xlink:title="Types defined by the ANT+ FIT SDK.">
<polygon fill="none" stroke="black" points="96.5,-112.5 96.5,-131.5 149.5,-131.5 149.5,-112.5 96.5,-112.5"/>
<text text-anchor="middle" x="123" y="-119.5" font-family="Helvetica,sans-Serif" font-size="10.00">types.h</text>
</a>
</g>
</g>
<!-- Node3&#45;&gt;Node6 -->
<g id="edge5" class="edge">
<title>Node3&#45;&gt;Node6</title>
<path fill="none" stroke="midnightblue" d="M187.63,-168.32C175.84,-160.06 157.87,-147.45 143.86,-137.63"/>
<polygon fill="midnightblue" stroke="midnightblue" points="145.54,-134.53 135.34,-131.65 141.52,-140.26 145.54,-134.53"/>
</g>
<!-- Node5 -->
<g id="node5" class="node">
<title>Node5</title>
<g id="a_node5"><a xlink:title=" ">
<polygon fill="none" stroke="#bfbfbf" points="93.5,-0.5 93.5,-19.5 152.5,-19.5 152.5,-0.5 93.5,-0.5"/>
<text text-anchor="middle" x="123" y="-7.5" font-family="Helvetica,sans-Serif" font-size="10.00">QtGlobal</text>
</a>
</g>
</g>
<!-- Node4&#45;&gt;Node5 -->
<g id="edge4" class="edge">
<title>Node4&#45;&gt;Node5</title>
<path fill="none" stroke="midnightblue" d="M123,-56.08C123,-49.01 123,-38.86 123,-29.99"/>
<polygon fill="midnightblue" stroke="midnightblue" points="126.5,-29.75 123,-19.75 119.5,-29.75 126.5,-29.75"/>
</g>
<!-- Node6&#45;&gt;Node4 -->
<g id="edge6" class="edge">
<title>Node6&#45;&gt;Node4</title>
<path fill="none" stroke="midnightblue" d="M123,-112.08C123,-105.01 123,-94.86 123,-85.99"/>
<polygon fill="midnightblue" stroke="midnightblue" points="126.5,-85.75 123,-75.75 119.5,-85.75 126.5,-85.75"/>
</g>
<!-- Node8 -->
<g id="node8" class="node">
<title>Node8</title>
<g id="a_node8"><a xlink:href="fitdatamessage__p_8h.html" target="_top" xlink:title=" ">
<polygon fill="none" stroke="black" points="0.5,-224.5 0.5,-243.5 113.5,-243.5 113.5,-224.5 0.5,-224.5"/>
<text text-anchor="middle" x="57" y="-231.5" font-family="Helvetica,sans-Serif" font-size="10.00">fitdatamessage_p.h</text>
</a>
</g>
</g>
<!-- Node7&#45;&gt;Node8 -->
<g id="edge8" class="edge">
<title>Node7&#45;&gt;Node8</title>
<path fill="none" stroke="midnightblue" d="M73.7,-280.08C71.02,-272.85 67.15,-262.41 63.81,-253.4"/>
<polygon fill="midnightblue" stroke="midnightblue" points="67,-251.91 60.24,-243.75 60.43,-254.34 67,-251.91"/>
</g>
<!-- Node8&#45;&gt;Node4 -->
<g id="edge9" class="edge">
<title>Node8&#45;&gt;Node4</title>
<path fill="none" stroke="midnightblue" d="M46.56,-224.24C37.58,-215.97 25.25,-202.66 20,-188 13.24,-169.15 20.82,-121.75 28,-112 39.6,-96.26 58.14,-85.81 75.77,-78.98"/>
<polygon fill="midnightblue" stroke="midnightblue" points="77.17,-82.2 85.42,-75.55 74.82,-75.6 77.17,-82.2"/>
</g>
<!-- Node8&#45;&gt;Node6 -->
<g id="edge10" class="edge">
<title>Node8&#45;&gt;Node6</title>
<path fill="none" stroke="midnightblue" d="M68.12,-224.5C78.26,-216.2 93.01,-202.7 102,-188 110.8,-173.62 116.3,-155.16 119.46,-141.59"/>
<polygon fill="midnightblue" stroke="midnightblue" points="122.94,-142.05 121.57,-131.54 116.09,-140.6 122.94,-142.05"/>
</g>
<!-- Node9 -->
<g id="node9" class="node">
<title>Node9</title>
<g id="a_node9"><a xlink:href="types__p_8h.html" target="_top" xlink:title=" ">
<polygon fill="none" stroke="black" points="29,-168.5 29,-187.5 93,-187.5 93,-168.5 29,-168.5"/>
<text text-anchor="middle" x="61" y="-175.5" font-family="Helvetica,sans-Serif" font-size="10.00">types_p.h</text>
</a>
</g>
</g>
<!-- Node8&#45;&gt;Node9 -->
<g id="edge11" class="edge">
<title>Node8&#45;&gt;Node9</title>
<path fill="none" stroke="midnightblue" d="M57.66,-224.08C58.18,-217.01 58.94,-206.86 59.59,-197.99"/>
<polygon fill="midnightblue" stroke="midnightblue" points="63.1,-197.98 60.35,-187.75 56.12,-197.47 63.1,-197.98"/>
</g>
<!-- Node9&#45;&gt;Node6 -->
<g id="edge12" class="edge">
<title>Node9&#45;&gt;Node6</title>
<path fill="none" stroke="midnightblue" d="M70.96,-168.32C80.13,-160.34 93.94,-148.31 105.03,-138.65"/>
<polygon fill="midnightblue" stroke="midnightblue" points="107.62,-141.04 112.86,-131.83 103.02,-135.76 107.62,-141.04"/>
</g>
<!-- Node10 -->
<g id="node10" class="node">
<title>Node10</title>
<g id="a_node10"><a xlink:title=" ">
<polygon fill="none" stroke="#bfbfbf" points="37.5,-112.5 37.5,-131.5 78.5,-131.5 78.5,-112.5 37.5,-112.5"/>
<text text-anchor="middle" x="58" y="-119.5" font-family="Helvetica,sans-Serif" font-size="10.00">QList</text>
</a>
</g>
</g>
<!-- Node9&#45;&gt;Node10 -->
<g id="edge13" class="edge">
<title>Node9&#45;&gt;Node10</title>
<path fill="none" stroke="midnightblue" d="M60.5,-168.08C60.11,-161.01 59.55,-150.86 59.05,-141.99"/>
<polygon fill="midnightblue" stroke="midnightblue" points="62.54,-141.54 58.49,-131.75 55.55,-141.93 62.54,-141.54"/>
</g>
</g>
</svg>
