<?xml version="1.0" encoding="UTF-8" standalone="no"?>
<!DOCTYPE svg PUBLIC "-//W3C//DTD SVG 1.1//EN"
 "http://www.w3.org/Graphics/SVG/1.1/DTD/svg11.dtd">
<!-- Generated by graphviz version 2.43.0 (0)
 -->
<!-- Title: barometerdatamessage.h Pages: 1 -->
<svg width="151pt" height="252pt"
 viewBox="0.00 0.00 151.00 252.00" xmlns="http://www.w3.org/2000/svg" xmlns:xlink="http://www.w3.org/1999/xlink">
<g id="graph0" class="graph" transform="scale(1 1) rotate(0) translate(4 248)">
<title>barometerdatamessage.h</title>
<!-- Node1 -->
<g id="node1" class="node">
<title>Node1</title>
<g id="a_node1"><a xlink:title=" ">
<polygon fill="#bfbfbf" stroke="black" points="0,-224.5 0,-243.5 143,-243.5 143,-224.5 0,-224.5"/>
<text text-anchor="middle" x="71.5" y="-231.5" font-family="Helvetica,sans-Serif" font-size="10.00">barometerdatamessage.h</text>
</a>
</g>
</g>
<!-- Node2 -->
<g id="node2" class="node">
<title>Node2</title>
<g id="a_node2"><a xlink:href="fitdatamessage_8h.html" target="_top" xlink:title=" ">
<polygon fill="none" stroke="black" points="21,-168.5 21,-187.5 122,-187.5 122,-168.5 21,-168.5"/>
<text text-anchor="middle" x="71.5" y="-175.5" font-family="Helvetica,sans-Serif" font-size="10.00">fitdatamessage.h</text>
</a>
</g>
</g>
<!-- Node1&#45;&gt;Node2 -->
<g id="edge1" class="edge">
<title>Node1&#45;&gt;Node2</title>
<path fill="none" stroke="midnightblue" d="M71.5,-224.08C71.5,-217.01 71.5,-206.86 71.5,-197.99"/>
<polygon fill="midnightblue" stroke="midnightblue" points="75,-197.75 71.5,-187.75 68,-197.75 75,-197.75"/>
</g>
<!-- Node3 -->
<g id="node3" class="node">
<title>Node3</title>
<g id="a_node3"><a xlink:href="QtFit__global_8h.html" target="_top" xlink:title=" ">
<polygon fill="none" stroke="black" points="29.5,-56.5 29.5,-75.5 113.5,-75.5 113.5,-56.5 29.5,-56.5"/>
<text text-anchor="middle" x="71.5" y="-63.5" font-family="Helvetica,sans-Serif" font-size="10.00">QtFit_global.h</text>
</a>
</g>
</g>
<!-- Node2&#45;&gt;Node3 -->
<g id="edge2" class="edge">
<title>Node2&#45;&gt;Node3</title>
<path fill="none" stroke="midnightblue" d="M69.76,-168.42C68.03,-159.4 65.49,-144.77 64.5,-132 63.3,-116.42 65.41,-98.8 67.62,-85.84"/>
<polygon fill="midnightblue" stroke="midnightblue" points="71.1,-86.29 69.51,-75.82 64.22,-84.99 71.1,-86.29"/>
</g>
<!-- Node5 -->
<g id="node5" class="node">
<title>Node5</title>
<g id="a_node5"><a xlink:href="types_8h.html" target="_top" xlink:title="Types defined by the ANT+ FIT SDK.">
<polygon fill="none" stroke="black" points="73,-112.5 73,-131.5 126,-131.5 126,-112.5 73,-112.5"/>
<text text-anchor="middle" x="99.5" y="-119.5" font-family="Helvetica,sans-Serif" font-size="10.00">types.h</text>
</a>
</g>
</g>
<!-- Node2&#45;&gt;Node5 -->
<g id="edge4" class="edge">
<title>Node2&#45;&gt;Node5</title>
<path fill="none" stroke="midnightblue" d="M76.12,-168.08C79.96,-160.69 85.52,-149.95 90.26,-140.81"/>
<polygon fill="midnightblue" stroke="midnightblue" points="93.47,-142.24 94.96,-131.75 87.25,-139.02 93.47,-142.24"/>
</g>
<!-- Node4 -->
<g id="node4" class="node">
<title>Node4</title>
<g id="a_node4"><a xlink:title=" ">
<polygon fill="none" stroke="#bfbfbf" points="42,-0.5 42,-19.5 101,-19.5 101,-0.5 42,-0.5"/>
<text text-anchor="middle" x="71.5" y="-7.5" font-family="Helvetica,sans-Serif" font-size="10.00">QtGlobal</text>
</a>
</g>
</g>
<!-- Node3&#45;&gt;Node4 -->
<g id="edge3" class="edge">
<title>Node3&#45;&gt;Node4</title>
<path fill="none" stroke="midnightblue" d="M71.5,-56.08C71.5,-49.01 71.5,-38.86 71.5,-29.99"/>
<polygon fill="midnightblue" stroke="midnightblue" points="75,-29.75 71.5,-19.75 68,-29.75 75,-29.75"/>
</g>
<!-- Node5&#45;&gt;Node3 -->
<g id="edge5" class="edge">
<title>Node5&#45;&gt;Node3</title>
<path fill="none" stroke="midnightblue" d="M94.88,-112.08C91.04,-104.69 85.48,-93.95 80.74,-84.81"/>
<polygon fill="midnightblue" stroke="midnightblue" points="83.75,-83.02 76.04,-75.75 77.53,-86.24 83.75,-83.02"/>
</g>
</g>
</svg>
