<?xml version="1.0" encoding="UTF-8" standalone="no"?>
<!DOCTYPE svg PUBLIC "-//W3C//DTD SVG 1.1//EN"
 "http://www.w3.org/Graphics/SVG/1.1/DTD/svg11.dtd">
<!-- Generated by graphviz version 2.43.0 (0)
 -->
<!-- Title: bikeprofilemessage.cpp Pages: 1 -->
<svg width="352pt" height="364pt"
 viewBox="0.00 0.00 352.00 364.00" xmlns="http://www.w3.org/2000/svg" xmlns:xlink="http://www.w3.org/1999/xlink">
<g id="graph0" class="graph" transform="scale(1 1) rotate(0) translate(4 360)">
<title>bikeprofilemessage.cpp</title>
<!-- Node1 -->
<g id="node1" class="node">
<title>Node1</title>
<g id="a_node1"><a xlink:title=" ">
<polygon fill="#bfbfbf" stroke="black" points="142.5,-336.5 142.5,-355.5 274.5,-355.5 274.5,-336.5 142.5,-336.5"/>
<text text-anchor="middle" x="208.5" y="-343.5" font-family="Helvetica,sans-Serif" font-size="10.00">bikeprofilemessage.cpp</text>
</a>
</g>
</g>
<!-- Node2 -->
<g id="node2" class="node">
<title>Node2</title>
<g id="a_node2"><a xlink:href="bikeprofilemessage_8h.html" target="_top" xlink:title=" ">
<polygon fill="none" stroke="black" points="132,-224.5 132,-243.5 253,-243.5 253,-224.5 132,-224.5"/>
<text text-anchor="middle" x="192.5" y="-231.5" font-family="Helvetica,sans-Serif" font-size="10.00">bikeprofilemessage.h</text>
</a>
</g>
</g>
<!-- Node1&#45;&gt;Node2 -->
<g id="edge1" class="edge">
<title>Node1&#45;&gt;Node2</title>
<path fill="none" stroke="midnightblue" d="M206.54,-336.41C204.54,-327.39 201.46,-312.76 199.5,-300 197.13,-284.56 195.28,-266.92 194.08,-253.92"/>
<polygon fill="midnightblue" stroke="midnightblue" points="197.56,-253.52 193.2,-243.86 190.59,-254.13 197.56,-253.52"/>
</g>
<!-- Node7 -->
<g id="node7" class="node">
<title>Node7</title>
<g id="a_node7"><a xlink:href="bikeprofilemessage__p_8h.html" target="_top" xlink:title=" ">
<polygon fill="none" stroke="black" points="10.5,-280.5 10.5,-299.5 142.5,-299.5 142.5,-280.5 10.5,-280.5"/>
<text text-anchor="middle" x="76.5" y="-287.5" font-family="Helvetica,sans-Serif" font-size="10.00">bikeprofilemessage_p.h</text>
</a>
</g>
</g>
<!-- Node1&#45;&gt;Node7 -->
<g id="edge7" class="edge">
<title>Node1&#45;&gt;Node7</title>
<path fill="none" stroke="midnightblue" d="M187.58,-336.44C165.76,-327.52 131.35,-313.44 106.61,-303.32"/>
<polygon fill="midnightblue" stroke="midnightblue" points="107.9,-300.06 97.32,-299.52 105.25,-306.54 107.9,-300.06"/>
</g>
<!-- Node11 -->
<g id="node11" class="node">
<title>Node11</title>
<g id="a_node11"><a xlink:title=" ">
<polygon fill="none" stroke="#bfbfbf" points="208.5,-280.5 208.5,-299.5 264.5,-299.5 264.5,-280.5 208.5,-280.5"/>
<text text-anchor="middle" x="236.5" y="-287.5" font-family="Helvetica,sans-Serif" font-size="10.00">QDebug</text>
</a>
</g>
</g>
<!-- Node1&#45;&gt;Node11 -->
<g id="edge14" class="edge">
<title>Node1&#45;&gt;Node11</title>
<path fill="none" stroke="midnightblue" d="M213.12,-336.08C216.96,-328.69 222.52,-317.95 227.26,-308.81"/>
<polygon fill="midnightblue" stroke="midnightblue" points="230.47,-310.24 231.96,-299.75 224.25,-307.02 230.47,-310.24"/>
</g>
<!-- Node12 -->
<g id="node12" class="node">
<title>Node12</title>
<g id="a_node12"><a xlink:title=" ">
<polygon fill="none" stroke="#bfbfbf" points="283,-280.5 283,-299.5 344,-299.5 344,-280.5 283,-280.5"/>
<text text-anchor="middle" x="313.5" y="-287.5" font-family="Helvetica,sans-Serif" font-size="10.00">QtEndian</text>
</a>
</g>
</g>
<!-- Node1&#45;&gt;Node12 -->
<g id="edge15" class="edge">
<title>Node1&#45;&gt;Node12</title>
<path fill="none" stroke="midnightblue" d="M225.37,-336.32C242.21,-327.66 268.31,-314.24 287.74,-304.25"/>
<polygon fill="midnightblue" stroke="midnightblue" points="289.38,-307.34 296.67,-299.65 286.18,-301.12 289.38,-307.34"/>
</g>
<!-- Node3 -->
<g id="node3" class="node">
<title>Node3</title>
<g id="a_node3"><a xlink:href="fitdatamessage_8h.html" target="_top" xlink:title=" ">
<polygon fill="none" stroke="black" points="143,-168.5 143,-187.5 244,-187.5 244,-168.5 143,-168.5"/>
<text text-anchor="middle" x="193.5" y="-175.5" font-family="Helvetica,sans-Serif" font-size="10.00">fitdatamessage.h</text>
</a>
</g>
</g>
<!-- Node2&#45;&gt;Node3 -->
<g id="edge2" class="edge">
<title>Node2&#45;&gt;Node3</title>
<path fill="none" stroke="midnightblue" d="M192.67,-224.08C192.8,-217.01 192.98,-206.86 193.15,-197.99"/>
<polygon fill="midnightblue" stroke="midnightblue" points="196.65,-197.81 193.34,-187.75 189.65,-197.68 196.65,-197.81"/>
</g>
<!-- Node4 -->
<g id="node4" class="node">
<title>Node4</title>
<g id="a_node4"><a xlink:href="QtFit__global_8h.html" target="_top" xlink:title=" ">
<polygon fill="none" stroke="black" points="74.5,-56.5 74.5,-75.5 158.5,-75.5 158.5,-56.5 74.5,-56.5"/>
<text text-anchor="middle" x="116.5" y="-63.5" font-family="Helvetica,sans-Serif" font-size="10.00">QtFit_global.h</text>
</a>
</g>
</g>
<!-- Node3&#45;&gt;Node4 -->
<g id="edge3" class="edge">
<title>Node3&#45;&gt;Node4</title>
<path fill="none" stroke="midnightblue" d="M188.49,-168.39C181.04,-155.75 166.43,-131.56 152.5,-112 145.61,-102.32 137.36,-91.94 130.51,-83.59"/>
<polygon fill="midnightblue" stroke="midnightblue" points="133.06,-81.19 123.97,-75.74 127.68,-85.66 133.06,-81.19"/>
</g>
<!-- Node6 -->
<g id="node6" class="node">
<title>Node6</title>
<g id="a_node6"><a xlink:href="types_8h.html" target="_top" xlink:title="Types defined by the ANT+ FIT SDK.">
<polygon fill="none" stroke="black" points="90,-112.5 90,-131.5 143,-131.5 143,-112.5 90,-112.5"/>
<text text-anchor="middle" x="116.5" y="-119.5" font-family="Helvetica,sans-Serif" font-size="10.00">types.h</text>
</a>
</g>
</g>
<!-- Node3&#45;&gt;Node6 -->
<g id="edge5" class="edge">
<title>Node3&#45;&gt;Node6</title>
<path fill="none" stroke="midnightblue" d="M181.13,-168.32C169.34,-160.06 151.37,-147.45 137.36,-137.63"/>
<polygon fill="midnightblue" stroke="midnightblue" points="139.04,-134.53 128.84,-131.65 135.02,-140.26 139.04,-134.53"/>
</g>
<!-- Node5 -->
<g id="node5" class="node">
<title>Node5</title>
<g id="a_node5"><a xlink:title=" ">
<polygon fill="none" stroke="#bfbfbf" points="87,-0.5 87,-19.5 146,-19.5 146,-0.5 87,-0.5"/>
<text text-anchor="middle" x="116.5" y="-7.5" font-family="Helvetica,sans-Serif" font-size="10.00">QtGlobal</text>
</a>
</g>
</g>
<!-- Node4&#45;&gt;Node5 -->
<g id="edge4" class="edge">
<title>Node4&#45;&gt;Node5</title>
<path fill="none" stroke="midnightblue" d="M116.5,-56.08C116.5,-49.01 116.5,-38.86 116.5,-29.99"/>
<polygon fill="midnightblue" stroke="midnightblue" points="120,-29.75 116.5,-19.75 113,-29.75 120,-29.75"/>
</g>
<!-- Node6&#45;&gt;Node4 -->
<g id="edge6" class="edge">
<title>Node6&#45;&gt;Node4</title>
<path fill="none" stroke="midnightblue" d="M116.5,-112.08C116.5,-105.01 116.5,-94.86 116.5,-85.99"/>
<polygon fill="midnightblue" stroke="midnightblue" points="120,-85.75 116.5,-75.75 113,-85.75 120,-85.75"/>
</g>
<!-- Node8 -->
<g id="node8" class="node">
<title>Node8</title>
<g id="a_node8"><a xlink:href="fitdatamessage__p_8h.html" target="_top" xlink:title=" ">
<polygon fill="none" stroke="black" points="0,-224.5 0,-243.5 113,-243.5 113,-224.5 0,-224.5"/>
<text text-anchor="middle" x="56.5" y="-231.5" font-family="Helvetica,sans-Serif" font-size="10.00">fitdatamessage_p.h</text>
</a>
</g>
</g>
<!-- Node7&#45;&gt;Node8 -->
<g id="edge8" class="edge">
<title>Node7&#45;&gt;Node8</title>
<path fill="none" stroke="midnightblue" d="M73.2,-280.08C70.52,-272.85 66.65,-262.41 63.31,-253.4"/>
<polygon fill="midnightblue" stroke="midnightblue" points="66.5,-251.91 59.74,-243.75 59.93,-254.34 66.5,-251.91"/>
</g>
<!-- Node8&#45;&gt;Node4 -->
<g id="edge9" class="edge">
<title>Node8&#45;&gt;Node4</title>
<path fill="none" stroke="midnightblue" d="M44,-224.3C33.63,-216.25 19.61,-203.24 13.5,-188 6.22,-169.85 12.84,-123.74 21.5,-112 33.1,-96.26 51.64,-85.81 69.27,-78.98"/>
<polygon fill="midnightblue" stroke="midnightblue" points="70.67,-82.2 78.92,-75.55 68.32,-75.6 70.67,-82.2"/>
</g>
<!-- Node8&#45;&gt;Node6 -->
<g id="edge10" class="edge">
<title>Node8&#45;&gt;Node6</title>
<path fill="none" stroke="midnightblue" d="M66.08,-224.2C74.83,-215.69 87.58,-202.05 95.5,-188 103.69,-173.47 109.22,-155.29 112.54,-141.85"/>
<polygon fill="midnightblue" stroke="midnightblue" points="116,-142.4 114.82,-131.87 109.18,-140.84 116,-142.4"/>
</g>
<!-- Node9 -->
<g id="node9" class="node">
<title>Node9</title>
<g id="a_node9"><a xlink:href="types__p_8h.html" target="_top" xlink:title=" ">
<polygon fill="none" stroke="black" points="22.5,-168.5 22.5,-187.5 86.5,-187.5 86.5,-168.5 22.5,-168.5"/>
<text text-anchor="middle" x="54.5" y="-175.5" font-family="Helvetica,sans-Serif" font-size="10.00">types_p.h</text>
</a>
</g>
</g>
<!-- Node8&#45;&gt;Node9 -->
<g id="edge11" class="edge">
<title>Node8&#45;&gt;Node9</title>
<path fill="none" stroke="midnightblue" d="M56.17,-224.08C55.91,-217.01 55.53,-206.86 55.2,-197.99"/>
<polygon fill="midnightblue" stroke="midnightblue" points="58.69,-197.61 54.82,-187.75 51.7,-197.87 58.69,-197.61"/>
</g>
<!-- Node9&#45;&gt;Node6 -->
<g id="edge12" class="edge">
<title>Node9&#45;&gt;Node6</title>
<path fill="none" stroke="midnightblue" d="M64.46,-168.32C73.63,-160.34 87.44,-148.31 98.53,-138.65"/>
<polygon fill="midnightblue" stroke="midnightblue" points="101.12,-141.04 106.36,-131.83 96.52,-135.76 101.12,-141.04"/>
</g>
<!-- Node10 -->
<g id="node10" class="node">
<title>Node10</title>
<g id="a_node10"><a xlink:title=" ">
<polygon fill="none" stroke="#bfbfbf" points="31,-112.5 31,-131.5 72,-131.5 72,-112.5 31,-112.5"/>
<text text-anchor="middle" x="51.5" y="-119.5" font-family="Helvetica,sans-Serif" font-size="10.00">QList</text>
</a>
</g>
</g>
<!-- Node9&#45;&gt;Node10 -->
<g id="edge13" class="edge">
<title>Node9&#45;&gt;Node10</title>
<path fill="none" stroke="midnightblue" d="M54,-168.08C53.61,-161.01 53.05,-150.86 52.55,-141.99"/>
<polygon fill="midnightblue" stroke="midnightblue" points="56.04,-141.54 51.99,-131.75 49.05,-141.93 56.04,-141.54"/>
</g>
</g>
</svg>
