<?xml version="1.0" encoding="UTF-8" standalone="no"?>
<!DOCTYPE svg PUBLIC "-//W3C//DTD SVG 1.1//EN"
 "http://www.w3.org/Graphics/SVG/1.1/DTD/svg11.dtd">
<!-- Generated by graphviz version 2.43.0 (0)
 -->
<!-- Title: bloodpressuremessage.cpp Pages: 1 -->
<svg width="433pt" height="364pt"
 viewBox="0.00 0.00 433.00 364.00" xmlns="http://www.w3.org/2000/svg" xmlns:xlink="http://www.w3.org/1999/xlink">
<g id="graph0" class="graph" transform="scale(1 1) rotate(0) translate(4 360)">
<title>bloodpressuremessage.cpp</title>
<!-- Node1 -->
<g id="node1" class="node">
<title>Node1</title>
<g id="a_node1"><a xlink:title="Defines the BloodPressureMessage, and BloodPressureMessagePrivate classes.">
<polygon fill="#bfbfbf" stroke="black" points="208.5,-336.5 208.5,-355.5 358.5,-355.5 358.5,-336.5 208.5,-336.5"/>
<text text-anchor="middle" x="283.5" y="-343.5" font-family="Helvetica,sans-Serif" font-size="10.00">bloodpressuremessage.cpp</text>
</a>
</g>
</g>
<!-- Node2 -->
<g id="node2" class="node">
<title>Node2</title>
<g id="a_node2"><a xlink:href="bloodpressuremessage_8h.html" target="_top" xlink:title="Declares the BloodPressureMessage class.">
<polygon fill="none" stroke="black" points="0,-280.5 0,-299.5 139,-299.5 139,-280.5 0,-280.5"/>
<text text-anchor="middle" x="69.5" y="-287.5" font-family="Helvetica,sans-Serif" font-size="10.00">bloodpressuremessage.h</text>
</a>
</g>
</g>
<!-- Node1&#45;&gt;Node2 -->
<g id="edge1" class="edge">
<title>Node1&#45;&gt;Node2</title>
<path fill="none" stroke="midnightblue" d="M249.59,-336.44C212.65,-327.12 153.45,-312.18 113.08,-302"/>
<polygon fill="midnightblue" stroke="midnightblue" points="113.8,-298.57 103.25,-299.52 112.09,-305.36 113.8,-298.57"/>
</g>
<!-- Node7 -->
<g id="node7" class="node">
<title>Node7</title>
<g id="a_node7"><a xlink:title=" ">
<polygon fill="none" stroke="#bfbfbf" points="266.5,-56.5 266.5,-75.5 322.5,-75.5 322.5,-56.5 266.5,-56.5"/>
<text text-anchor="middle" x="294.5" y="-63.5" font-family="Helvetica,sans-Serif" font-size="10.00">QDebug</text>
</a>
</g>
</g>
<!-- Node1&#45;&gt;Node7 -->
<g id="edge15" class="edge">
<title>Node1&#45;&gt;Node7</title>
<path fill="none" stroke="midnightblue" d="M291.33,-336.3C298.74,-327.65 309.72,-313.73 316.5,-300 329.82,-273.01 335.5,-265.1 335.5,-235 335.5,-235 335.5,-235 335.5,-177 335.5,-142.52 317.59,-105.56 305.44,-84.47"/>
<polygon fill="midnightblue" stroke="midnightblue" points="308.34,-82.49 300.2,-75.71 302.34,-86.09 308.34,-82.49"/>
</g>
<!-- Node8 -->
<g id="node8" class="node">
<title>Node8</title>
<g id="a_node8"><a xlink:href="bloodpressuremessage__p_8h.html" target="_top" xlink:title="Declares the BloodPressureMessagePrivate class.">
<polygon fill="none" stroke="black" points="157.5,-280.5 157.5,-299.5 307.5,-299.5 307.5,-280.5 157.5,-280.5"/>
<text text-anchor="middle" x="232.5" y="-287.5" font-family="Helvetica,sans-Serif" font-size="10.00">bloodpressuremessage_p.h</text>
</a>
</g>
</g>
<!-- Node1&#45;&gt;Node8 -->
<g id="edge8" class="edge">
<title>Node1&#45;&gt;Node8</title>
<path fill="none" stroke="midnightblue" d="M275.08,-336.08C267.65,-328.22 256.65,-316.57 247.69,-307.08"/>
<polygon fill="midnightblue" stroke="midnightblue" points="250.18,-304.62 240.76,-299.75 245.09,-309.42 250.18,-304.62"/>
</g>
<!-- Node12 -->
<g id="node12" class="node">
<title>Node12</title>
<g id="a_node12"><a xlink:title=" ">
<polygon fill="none" stroke="#bfbfbf" points="364,-280.5 364,-299.5 425,-299.5 425,-280.5 364,-280.5"/>
<text text-anchor="middle" x="394.5" y="-287.5" font-family="Helvetica,sans-Serif" font-size="10.00">QtEndian</text>
</a>
</g>
</g>
<!-- Node1&#45;&gt;Node12 -->
<g id="edge16" class="edge">
<title>Node1&#45;&gt;Node12</title>
<path fill="none" stroke="midnightblue" d="M301.33,-336.32C319.22,-327.62 346.98,-314.12 367.55,-304.11"/>
<polygon fill="midnightblue" stroke="midnightblue" points="369.25,-307.18 376.71,-299.65 366.19,-300.88 369.25,-307.18"/>
</g>
<!-- Node3 -->
<g id="node3" class="node">
<title>Node3</title>
<g id="a_node3"><a xlink:href="abstractdatamessage_8h.html" target="_top" xlink:title="Declares the AbstractDataMessage class.">
<polygon fill="none" stroke="black" points="6,-168.5 6,-187.5 137,-187.5 137,-168.5 6,-168.5"/>
<text text-anchor="middle" x="71.5" y="-175.5" font-family="Helvetica,sans-Serif" font-size="10.00">abstractdatamessage.h</text>
</a>
</g>
</g>
<!-- Node2&#45;&gt;Node3 -->
<g id="edge2" class="edge">
<title>Node2&#45;&gt;Node3</title>
<path fill="none" stroke="midnightblue" d="M69.66,-280.37C69.98,-262.62 70.72,-221.67 71.16,-197.6"/>
<polygon fill="midnightblue" stroke="midnightblue" points="74.66,-197.65 71.34,-187.59 67.66,-197.53 74.66,-197.65"/>
</g>
<!-- Node4 -->
<g id="node4" class="node">
<title>Node4</title>
<g id="a_node4"><a xlink:href="QtFit__global_8h.html" target="_top" xlink:title="Global QtFit library macros.">
<polygon fill="none" stroke="black" points="123.5,-56.5 123.5,-75.5 207.5,-75.5 207.5,-56.5 123.5,-56.5"/>
<text text-anchor="middle" x="165.5" y="-63.5" font-family="Helvetica,sans-Serif" font-size="10.00">QtFit_global.h</text>
</a>
</g>
</g>
<!-- Node3&#45;&gt;Node4 -->
<g id="edge3" class="edge">
<title>Node3&#45;&gt;Node4</title>
<path fill="none" stroke="midnightblue" d="M78.88,-168.37C94.53,-150.05 131.28,-107.05 151.52,-83.36"/>
<polygon fill="midnightblue" stroke="midnightblue" points="154.32,-85.47 158.16,-75.59 149,-80.92 154.32,-85.47"/>
</g>
<!-- Node6 -->
<g id="node6" class="node">
<title>Node6</title>
<g id="a_node6"><a xlink:href="types_8h.html" target="_top" xlink:title="Types defined by the ANT+ FIT SDK.">
<polygon fill="none" stroke="black" points="194,-112.5 194,-131.5 247,-131.5 247,-112.5 194,-112.5"/>
<text text-anchor="middle" x="220.5" y="-119.5" font-family="Helvetica,sans-Serif" font-size="10.00">types.h</text>
</a>
</g>
</g>
<!-- Node3&#45;&gt;Node6 -->
<g id="edge5" class="edge">
<title>Node3&#45;&gt;Node6</title>
<path fill="none" stroke="midnightblue" d="M95.11,-168.44C119.96,-159.44 159.27,-145.19 187.25,-135.05"/>
<polygon fill="midnightblue" stroke="midnightblue" points="188.79,-138.21 197,-131.52 186.41,-131.63 188.79,-138.21"/>
</g>
<!-- Node5 -->
<g id="node5" class="node">
<title>Node5</title>
<g id="a_node5"><a xlink:title=" ">
<polygon fill="none" stroke="#bfbfbf" points="136,-0.5 136,-19.5 195,-19.5 195,-0.5 136,-0.5"/>
<text text-anchor="middle" x="165.5" y="-7.5" font-family="Helvetica,sans-Serif" font-size="10.00">QtGlobal</text>
</a>
</g>
</g>
<!-- Node4&#45;&gt;Node5 -->
<g id="edge4" class="edge">
<title>Node4&#45;&gt;Node5</title>
<path fill="none" stroke="midnightblue" d="M165.5,-56.08C165.5,-49.01 165.5,-38.86 165.5,-29.99"/>
<polygon fill="midnightblue" stroke="midnightblue" points="169,-29.75 165.5,-19.75 162,-29.75 169,-29.75"/>
</g>
<!-- Node6&#45;&gt;Node4 -->
<g id="edge6" class="edge">
<title>Node6&#45;&gt;Node4</title>
<path fill="none" stroke="midnightblue" d="M211.42,-112.08C203.33,-104.14 191.3,-92.34 181.59,-82.8"/>
<polygon fill="midnightblue" stroke="midnightblue" points="184,-80.26 174.41,-75.75 179.1,-85.25 184,-80.26"/>
</g>
<!-- Node6&#45;&gt;Node7 -->
<g id="edge7" class="edge">
<title>Node6&#45;&gt;Node7</title>
<path fill="none" stroke="midnightblue" d="M232.39,-112.32C243.65,-104.11 260.79,-91.6 274.21,-81.81"/>
<polygon fill="midnightblue" stroke="midnightblue" points="276.38,-84.56 282.39,-75.83 272.25,-78.9 276.38,-84.56"/>
</g>
<!-- Node9 -->
<g id="node9" class="node">
<title>Node9</title>
<g id="a_node9"><a xlink:href="abstractdatamessage__p_8h.html" target="_top" xlink:title="Declares the AbstractDataMessagePrivate class.">
<polygon fill="none" stroke="black" points="152,-224.5 152,-243.5 295,-243.5 295,-224.5 152,-224.5"/>
<text text-anchor="middle" x="223.5" y="-231.5" font-family="Helvetica,sans-Serif" font-size="10.00">abstractdatamessage_p.h</text>
</a>
</g>
</g>
<!-- Node8&#45;&gt;Node9 -->
<g id="edge9" class="edge">
<title>Node8&#45;&gt;Node9</title>
<path fill="none" stroke="midnightblue" d="M231.01,-280.08C229.82,-272.93 228.11,-262.64 226.62,-253.69"/>
<polygon fill="midnightblue" stroke="midnightblue" points="230.05,-253.04 224.96,-243.75 223.15,-254.19 230.05,-253.04"/>
</g>
<!-- Node9&#45;&gt;Node4 -->
<g id="edge10" class="edge">
<title>Node9&#45;&gt;Node4</title>
<path fill="none" stroke="midnightblue" d="M219.91,-224.44C212.73,-207.15 196.25,-166.72 184.5,-132 179.26,-116.51 174.1,-98.67 170.49,-85.6"/>
<polygon fill="midnightblue" stroke="midnightblue" points="173.85,-84.63 167.85,-75.91 167.1,-86.47 173.85,-84.63"/>
</g>
<!-- Node9&#45;&gt;Node6 -->
<g id="edge11" class="edge">
<title>Node9&#45;&gt;Node6</title>
<path fill="none" stroke="midnightblue" d="M223.26,-224.37C222.78,-206.62 221.66,-165.67 221.01,-141.6"/>
<polygon fill="midnightblue" stroke="midnightblue" points="224.51,-141.49 220.73,-131.59 217.51,-141.68 224.51,-141.49"/>
</g>
<!-- Node10 -->
<g id="node10" class="node">
<title>Node10</title>
<g id="a_node10"><a xlink:href="types__p_8h.html" target="_top" xlink:title="Internal types used by QtFit classes.">
<polygon fill="none" stroke="black" points="243.5,-168.5 243.5,-187.5 307.5,-187.5 307.5,-168.5 243.5,-168.5"/>
<text text-anchor="middle" x="275.5" y="-175.5" font-family="Helvetica,sans-Serif" font-size="10.00">types_p.h</text>
</a>
</g>
</g>
<!-- Node9&#45;&gt;Node10 -->
<g id="edge12" class="edge">
<title>Node9&#45;&gt;Node10</title>
<path fill="none" stroke="midnightblue" d="M232.09,-224.08C239.66,-216.22 250.88,-204.57 260.01,-195.08"/>
<polygon fill="midnightblue" stroke="midnightblue" points="262.66,-197.38 267.07,-187.75 257.62,-192.53 262.66,-197.38"/>
</g>
<!-- Node10&#45;&gt;Node6 -->
<g id="edge13" class="edge">
<title>Node10&#45;&gt;Node6</title>
<path fill="none" stroke="midnightblue" d="M266.42,-168.08C258.33,-160.14 246.3,-148.34 236.59,-138.8"/>
<polygon fill="midnightblue" stroke="midnightblue" points="239,-136.26 229.41,-131.75 234.1,-141.25 239,-136.26"/>
</g>
<!-- Node11 -->
<g id="node11" class="node">
<title>Node11</title>
<g id="a_node11"><a xlink:title=" ">
<polygon fill="none" stroke="#bfbfbf" points="265,-112.5 265,-131.5 306,-131.5 306,-112.5 265,-112.5"/>
<text text-anchor="middle" x="285.5" y="-119.5" font-family="Helvetica,sans-Serif" font-size="10.00">QList</text>
</a>
</g>
</g>
<!-- Node10&#45;&gt;Node11 -->
<g id="edge14" class="edge">
<title>Node10&#45;&gt;Node11</title>
<path fill="none" stroke="midnightblue" d="M277.15,-168.08C278.48,-160.93 280.38,-150.64 282.04,-141.69"/>
<polygon fill="midnightblue" stroke="midnightblue" points="285.5,-142.22 283.88,-131.75 278.62,-140.95 285.5,-142.22"/>
</g>
</g>
</svg>
