<?xml version="1.0" encoding="UTF-8" standalone="no"?>
<!DOCTYPE svg PUBLIC "-//W3C//DTD SVG 1.1//EN"
 "http://www.w3.org/Graphics/SVG/1.1/DTD/svg11.dtd">
<!-- Generated by graphviz version 2.43.0 (0)
 -->
<!-- Title: bloodpressuremessage.cpp Pages: 1 -->
<svg width="316pt" height="364pt"
 viewBox="0.00 0.00 315.50 364.00" xmlns="http://www.w3.org/2000/svg" xmlns:xlink="http://www.w3.org/1999/xlink">
<g id="graph0" class="graph" transform="scale(1 1) rotate(0) translate(4 360)">
<title>bloodpressuremessage.cpp</title>
<!-- Node1 -->
<g id="node1" class="node">
<title>Node1</title>
<g id="a_node1"><a xlink:title=" ">
<polygon fill="#bfbfbf" stroke="black" points="81,-336.5 81,-355.5 231,-355.5 231,-336.5 81,-336.5"/>
<text text-anchor="middle" x="156" y="-343.5" font-family="Helvetica,sans-Serif" font-size="10.00">bloodpressuremessage.cpp</text>
</a>
</g>
</g>
<!-- Node2 -->
<g id="node2" class="node">
<title>Node2</title>
<g id="a_node2"><a xlink:href="bloodpressuremessage_8h.html" target="_top" xlink:title=" ">
<polygon fill="none" stroke="black" points="168.5,-280.5 168.5,-299.5 307.5,-299.5 307.5,-280.5 168.5,-280.5"/>
<text text-anchor="middle" x="238" y="-287.5" font-family="Helvetica,sans-Serif" font-size="10.00">bloodpressuremessage.h</text>
</a>
</g>
</g>
<!-- Node1&#45;&gt;Node2 -->
<g id="edge1" class="edge">
<title>Node1&#45;&gt;Node2</title>
<path fill="none" stroke="midnightblue" d="M169.17,-336.32C181.85,-327.98 201.23,-315.21 216.21,-305.35"/>
<polygon fill="midnightblue" stroke="midnightblue" points="218.43,-308.08 224.86,-299.65 214.58,-302.23 218.43,-308.08"/>
</g>
<!-- Node7 -->
<g id="node7" class="node">
<title>Node7</title>
<g id="a_node7"><a xlink:href="bloodpressuremessage__p_8h.html" target="_top" xlink:title=" ">
<polygon fill="none" stroke="black" points="0,-280.5 0,-299.5 150,-299.5 150,-280.5 0,-280.5"/>
<text text-anchor="middle" x="75" y="-287.5" font-family="Helvetica,sans-Serif" font-size="10.00">bloodpressuremessage_p.h</text>
</a>
</g>
</g>
<!-- Node1&#45;&gt;Node7 -->
<g id="edge7" class="edge">
<title>Node1&#45;&gt;Node7</title>
<path fill="none" stroke="midnightblue" d="M142.99,-336.32C130.47,-327.98 111.32,-315.21 96.53,-305.35"/>
<polygon fill="midnightblue" stroke="midnightblue" points="98.24,-302.29 87.98,-299.65 94.36,-308.11 98.24,-302.29"/>
</g>
<!-- Node3 -->
<g id="node3" class="node">
<title>Node3</title>
<g id="a_node3"><a xlink:href="fitdatamessage_8h.html" target="_top" xlink:title=" ">
<polygon fill="none" stroke="black" points="181.5,-168.5 181.5,-187.5 282.5,-187.5 282.5,-168.5 181.5,-168.5"/>
<text text-anchor="middle" x="232" y="-175.5" font-family="Helvetica,sans-Serif" font-size="10.00">fitdatamessage.h</text>
</a>
</g>
</g>
<!-- Node2&#45;&gt;Node3 -->
<g id="edge2" class="edge">
<title>Node2&#45;&gt;Node3</title>
<path fill="none" stroke="midnightblue" d="M237.53,-280.37C236.56,-262.62 234.33,-221.67 233.01,-197.6"/>
<polygon fill="midnightblue" stroke="midnightblue" points="236.51,-197.39 232.47,-187.59 229.52,-197.77 236.51,-197.39"/>
</g>
<!-- Node4 -->
<g id="node4" class="node">
<title>Node4</title>
<g id="a_node4"><a xlink:href="QtFit__global_8h.html" target="_top" xlink:title=" ">
<polygon fill="none" stroke="black" points="113,-56.5 113,-75.5 197,-75.5 197,-56.5 113,-56.5"/>
<text text-anchor="middle" x="155" y="-63.5" font-family="Helvetica,sans-Serif" font-size="10.00">QtFit_global.h</text>
</a>
</g>
</g>
<!-- Node3&#45;&gt;Node4 -->
<g id="edge3" class="edge">
<title>Node3&#45;&gt;Node4</title>
<path fill="none" stroke="midnightblue" d="M226.99,-168.39C219.54,-155.75 204.93,-131.56 191,-112 184.11,-102.32 175.86,-91.94 169.01,-83.59"/>
<polygon fill="midnightblue" stroke="midnightblue" points="171.56,-81.19 162.47,-75.74 166.18,-85.66 171.56,-81.19"/>
</g>
<!-- Node6 -->
<g id="node6" class="node">
<title>Node6</title>
<g id="a_node6"><a xlink:href="types_8h.html" target="_top" xlink:title="Types defined by the ANT+ FIT SDK.">
<polygon fill="none" stroke="black" points="128.5,-112.5 128.5,-131.5 181.5,-131.5 181.5,-112.5 128.5,-112.5"/>
<text text-anchor="middle" x="155" y="-119.5" font-family="Helvetica,sans-Serif" font-size="10.00">types.h</text>
</a>
</g>
</g>
<!-- Node3&#45;&gt;Node6 -->
<g id="edge5" class="edge">
<title>Node3&#45;&gt;Node6</title>
<path fill="none" stroke="midnightblue" d="M219.63,-168.32C207.84,-160.06 189.87,-147.45 175.86,-137.63"/>
<polygon fill="midnightblue" stroke="midnightblue" points="177.54,-134.53 167.34,-131.65 173.52,-140.26 177.54,-134.53"/>
</g>
<!-- Node5 -->
<g id="node5" class="node">
<title>Node5</title>
<g id="a_node5"><a xlink:title=" ">
<polygon fill="none" stroke="#bfbfbf" points="125.5,-0.5 125.5,-19.5 184.5,-19.5 184.5,-0.5 125.5,-0.5"/>
<text text-anchor="middle" x="155" y="-7.5" font-family="Helvetica,sans-Serif" font-size="10.00">QtGlobal</text>
</a>
</g>
</g>
<!-- Node4&#45;&gt;Node5 -->
<g id="edge4" class="edge">
<title>Node4&#45;&gt;Node5</title>
<path fill="none" stroke="midnightblue" d="M155,-56.08C155,-49.01 155,-38.86 155,-29.99"/>
<polygon fill="midnightblue" stroke="midnightblue" points="158.5,-29.75 155,-19.75 151.5,-29.75 158.5,-29.75"/>
</g>
<!-- Node6&#45;&gt;Node4 -->
<g id="edge6" class="edge">
<title>Node6&#45;&gt;Node4</title>
<path fill="none" stroke="midnightblue" d="M155,-112.08C155,-105.01 155,-94.86 155,-85.99"/>
<polygon fill="midnightblue" stroke="midnightblue" points="158.5,-85.75 155,-75.75 151.5,-85.75 158.5,-85.75"/>
</g>
<!-- Node8 -->
<g id="node8" class="node">
<title>Node8</title>
<g id="a_node8"><a xlink:href="fitdatamessage__p_8h.html" target="_top" xlink:title=" ">
<polygon fill="none" stroke="black" points="30.5,-224.5 30.5,-243.5 143.5,-243.5 143.5,-224.5 30.5,-224.5"/>
<text text-anchor="middle" x="87" y="-231.5" font-family="Helvetica,sans-Serif" font-size="10.00">fitdatamessage_p.h</text>
</a>
</g>
</g>
<!-- Node7&#45;&gt;Node8 -->
<g id="edge8" class="edge">
<title>Node7&#45;&gt;Node8</title>
<path fill="none" stroke="midnightblue" d="M76.98,-280.08C78.57,-272.93 80.86,-262.64 82.85,-253.69"/>
<polygon fill="midnightblue" stroke="midnightblue" points="86.3,-254.27 85.06,-243.75 79.47,-252.75 86.3,-254.27"/>
</g>
<!-- Node8&#45;&gt;Node4 -->
<g id="edge9" class="edge">
<title>Node8&#45;&gt;Node4</title>
<path fill="none" stroke="midnightblue" d="M77.44,-224.45C68.91,-216.12 57.01,-202.6 52,-188 45.44,-168.88 53.37,-120.99 60,-112 71.6,-96.26 90.14,-85.81 107.77,-78.98"/>
<polygon fill="midnightblue" stroke="midnightblue" points="109.17,-82.2 117.42,-75.55 106.82,-75.6 109.17,-82.2"/>
</g>
<!-- Node8&#45;&gt;Node6 -->
<g id="edge10" class="edge">
<title>Node8&#45;&gt;Node6</title>
<path fill="none" stroke="midnightblue" d="M99.04,-224.28C109.63,-216.03 124.76,-202.74 134,-188 142.95,-173.71 148.44,-155.24 151.55,-141.65"/>
<polygon fill="midnightblue" stroke="midnightblue" points="155.03,-142.07 153.62,-131.57 148.18,-140.66 155.03,-142.07"/>
</g>
<!-- Node9 -->
<g id="node9" class="node">
<title>Node9</title>
<g id="a_node9"><a xlink:href="types__p_8h.html" target="_top" xlink:title=" ">
<polygon fill="none" stroke="black" points="61,-168.5 61,-187.5 125,-187.5 125,-168.5 61,-168.5"/>
<text text-anchor="middle" x="93" y="-175.5" font-family="Helvetica,sans-Serif" font-size="10.00">types_p.h</text>
</a>
</g>
</g>
<!-- Node8&#45;&gt;Node9 -->
<g id="edge11" class="edge">
<title>Node8&#45;&gt;Node9</title>
<path fill="none" stroke="midnightblue" d="M87.99,-224.08C88.79,-216.93 89.93,-206.64 90.92,-197.69"/>
<polygon fill="midnightblue" stroke="midnightblue" points="94.4,-198.08 92.03,-187.75 87.44,-197.3 94.4,-198.08"/>
</g>
<!-- Node9&#45;&gt;Node6 -->
<g id="edge12" class="edge">
<title>Node9&#45;&gt;Node6</title>
<path fill="none" stroke="midnightblue" d="M102.96,-168.32C112.13,-160.34 125.94,-148.31 137.03,-138.65"/>
<polygon fill="midnightblue" stroke="midnightblue" points="139.62,-141.04 144.86,-131.83 135.02,-135.76 139.62,-141.04"/>
</g>
<!-- Node10 -->
<g id="node10" class="node">
<title>Node10</title>
<g id="a_node10"><a xlink:title=" ">
<polygon fill="none" stroke="#bfbfbf" points="69.5,-112.5 69.5,-131.5 110.5,-131.5 110.5,-112.5 69.5,-112.5"/>
<text text-anchor="middle" x="90" y="-119.5" font-family="Helvetica,sans-Serif" font-size="10.00">QList</text>
</a>
</g>
</g>
<!-- Node9&#45;&gt;Node10 -->
<g id="edge13" class="edge">
<title>Node9&#45;&gt;Node10</title>
<path fill="none" stroke="midnightblue" d="M92.5,-168.08C92.11,-161.01 91.55,-150.86 91.05,-141.99"/>
<polygon fill="midnightblue" stroke="midnightblue" points="94.54,-141.54 90.49,-131.75 87.55,-141.93 94.54,-141.54"/>
</g>
</g>
</svg>
