<?xml version="1.0" encoding="UTF-8" standalone="no"?>
<!DOCTYPE svg PUBLIC "-//W3C//DTD SVG 1.1//EN"
 "http://www.w3.org/Graphics/SVG/1.1/DTD/svg11.dtd">
<!-- Generated by graphviz version 2.43.0 (0)
 -->
<!-- Title: bloodpressuremessage.cpp Pages: 1 -->
<svg width="433pt" height="364pt"
 viewBox="0.00 0.00 433.00 364.00" xmlns="http://www.w3.org/2000/svg" xmlns:xlink="http://www.w3.org/1999/xlink">
<g id="graph0" class="graph" transform="scale(1 1) rotate(0) translate(4 360)">
<title>bloodpressuremessage.cpp</title>
<!-- Node1 -->
<g id="node1" class="node">
<title>Node1</title>
<g id="a_node1"><a xlink:title=" ">
<polygon fill="#bfbfbf" stroke="black" points="208.5,-336.5 208.5,-355.5 358.5,-355.5 358.5,-336.5 208.5,-336.5"/>
<text text-anchor="middle" x="283.5" y="-343.5" font-family="Helvetica,sans-Serif" font-size="10.00">bloodpressuremessage.cpp</text>
</a>
</g>
</g>
<!-- Node2 -->
<g id="node2" class="node">
<title>Node2</title>
<g id="a_node2"><a xlink:href="bloodpressuremessage_8h.html" target="_top" xlink:title=" ">
<polygon fill="none" stroke="black" points="0,-280.5 0,-299.5 139,-299.5 139,-280.5 0,-280.5"/>
<text text-anchor="middle" x="69.5" y="-287.5" font-family="Helvetica,sans-Serif" font-size="10.00">bloodpressuremessage.h</text>
</a>
</g>
</g>
<!-- Node1&#45;&gt;Node2 -->
<g id="edge1" class="edge">
<title>Node1&#45;&gt;Node2</title>
<path fill="none" stroke="midnightblue" d="M249.59,-336.44C212.65,-327.12 153.45,-312.18 113.08,-302"/>
<polygon fill="midnightblue" stroke="midnightblue" points="113.8,-298.57 103.25,-299.52 112.09,-305.36 113.8,-298.57"/>
</g>
<!-- Node7 -->
<g id="node7" class="node">
<title>Node7</title>
<g id="a_node7"><a xlink:title=" ">
<polygon fill="none" stroke="#bfbfbf" points="266.5,-56.5 266.5,-75.5 322.5,-75.5 322.5,-56.5 266.5,-56.5"/>
<text text-anchor="middle" x="294.5" y="-63.5" font-family="Helvetica,sans-Serif" font-size="10.00">QDebug</text>
</a>
</g>
</g>
<!-- Node1&#45;&gt;Node7 -->
<g id="edge15" class="edge">
<title>Node1&#45;&gt;Node7</title>
<path fill="none" stroke="midnightblue" d="M291.33,-336.3C298.74,-327.65 309.72,-313.73 316.5,-300 329.82,-273.01 335.5,-265.1 335.5,-235 335.5,-235 335.5,-235 335.5,-177 335.5,-142.52 317.59,-105.56 305.44,-84.47"/>
<polygon fill="midnightblue" stroke="midnightblue" points="308.34,-82.49 300.2,-75.71 302.34,-86.09 308.34,-82.49"/>
</g>
<!-- Node8 -->
<g id="node8" class="node">
<title>Node8</title>
<g id="a_node8"><a xlink:href="bloodpressuremessage__p_8h.html" target="_top" xlink:title=" ">
<polygon fill="none" stroke="black" points="157.5,-280.5 157.5,-299.5 307.5,-299.5 307.5,-280.5 157.5,-280.5"/>
<text text-anchor="middle" x="232.5" y="-287.5" font-family="Helvetica,sans-Serif" font-size="10.00">bloodpressuremessage_p.h</text>
</a>
</g>
</g>
<!-- Node1&#45;&gt;Node8 -->
<g id="edge8" class="edge">
<title>Node1&#45;&gt;Node8</title>
<path fill="none" stroke="midnightblue" d="M275.08,-336.08C267.65,-328.22 256.65,-316.57 247.69,-307.08"/>
<polygon fill="midnightblue" stroke="midnightblue" points="250.18,-304.62 240.76,-299.75 245.09,-309.42 250.18,-304.62"/>
</g>
<!-- Node12 -->
<g id="node12" class="node">
<title>Node12</title>
<g id="a_node12"><a xlink:title=" ">
<polygon fill="none" stroke="#bfbfbf" points="364,-280.5 364,-299.5 425,-299.5 425,-280.5 364,-280.5"/>
<text text-anchor="middle" x="394.5" y="-287.5" font-family="Helvetica,sans-Serif" font-size="10.00">QtEndian</text>
</a>
</g>
</g>
<!-- Node1&#45;&gt;Node12 -->
<g id="edge16" class="edge">
<title>Node1&#45;&gt;Node12</title>
<path fill="none" stroke="midnightblue" d="M301.33,-336.32C319.22,-327.62 346.98,-314.12 367.55,-304.11"/>
<polygon fill="midnightblue" stroke="midnightblue" points="369.25,-307.18 376.71,-299.65 366.19,-300.88 369.25,-307.18"/>
</g>
<!-- Node3 -->
<g id="node3" class="node">
<title>Node3</title>
<g id="a_node3"><a xlink:href="fitdatamessage_8h.html" target="_top" xlink:title=" ">
<polygon fill="none" stroke="black" points="34,-168.5 34,-187.5 135,-187.5 135,-168.5 34,-168.5"/>
<text text-anchor="middle" x="84.5" y="-175.5" font-family="Helvetica,sans-Serif" font-size="10.00">fitdatamessage.h</text>
</a>
</g>
</g>
<!-- Node2&#45;&gt;Node3 -->
<g id="edge2" class="edge">
<title>Node2&#45;&gt;Node3</title>
<path fill="none" stroke="midnightblue" d="M70.68,-280.37C73.1,-262.62 78.68,-221.67 81.96,-197.6"/>
<polygon fill="midnightblue" stroke="midnightblue" points="85.45,-197.97 83.33,-187.59 78.51,-197.03 85.45,-197.97"/>
</g>
<!-- Node4 -->
<g id="node4" class="node">
<title>Node4</title>
<g id="a_node4"><a xlink:href="QtFit__global_8h.html" target="_top" xlink:title=" ">
<polygon fill="none" stroke="black" points="121.5,-56.5 121.5,-75.5 205.5,-75.5 205.5,-56.5 121.5,-56.5"/>
<text text-anchor="middle" x="163.5" y="-63.5" font-family="Helvetica,sans-Serif" font-size="10.00">QtFit_global.h</text>
</a>
</g>
</g>
<!-- Node3&#45;&gt;Node4 -->
<g id="edge3" class="edge">
<title>Node3&#45;&gt;Node4</title>
<path fill="none" stroke="midnightblue" d="M90.7,-168.37C103.74,-150.22 134.2,-107.8 151.3,-83.99"/>
<polygon fill="midnightblue" stroke="midnightblue" points="154.34,-85.76 157.33,-75.59 148.65,-81.67 154.34,-85.76"/>
</g>
<!-- Node6 -->
<g id="node6" class="node">
<title>Node6</title>
<g id="a_node6"><a xlink:href="types_8h.html" target="_top" xlink:title="Types defined by the ANT+ FIT SDK.">
<polygon fill="none" stroke="black" points="192,-112.5 192,-131.5 245,-131.5 245,-112.5 192,-112.5"/>
<text text-anchor="middle" x="218.5" y="-119.5" font-family="Helvetica,sans-Serif" font-size="10.00">types.h</text>
</a>
</g>
</g>
<!-- Node3&#45;&gt;Node6 -->
<g id="edge5" class="edge">
<title>Node3&#45;&gt;Node6</title>
<path fill="none" stroke="midnightblue" d="M105.73,-168.44C127.88,-159.52 162.82,-145.44 187.94,-135.32"/>
<polygon fill="midnightblue" stroke="midnightblue" points="189.4,-138.5 197.37,-131.52 186.78,-132.01 189.4,-138.5"/>
</g>
<!-- Node5 -->
<g id="node5" class="node">
<title>Node5</title>
<g id="a_node5"><a xlink:title=" ">
<polygon fill="none" stroke="#bfbfbf" points="134,-0.5 134,-19.5 193,-19.5 193,-0.5 134,-0.5"/>
<text text-anchor="middle" x="163.5" y="-7.5" font-family="Helvetica,sans-Serif" font-size="10.00">QtGlobal</text>
</a>
</g>
</g>
<!-- Node4&#45;&gt;Node5 -->
<g id="edge4" class="edge">
<title>Node4&#45;&gt;Node5</title>
<path fill="none" stroke="midnightblue" d="M163.5,-56.08C163.5,-49.01 163.5,-38.86 163.5,-29.99"/>
<polygon fill="midnightblue" stroke="midnightblue" points="167,-29.75 163.5,-19.75 160,-29.75 167,-29.75"/>
</g>
<!-- Node6&#45;&gt;Node4 -->
<g id="edge6" class="edge">
<title>Node6&#45;&gt;Node4</title>
<path fill="none" stroke="midnightblue" d="M209.42,-112.08C201.33,-104.14 189.3,-92.34 179.59,-82.8"/>
<polygon fill="midnightblue" stroke="midnightblue" points="182,-80.26 172.41,-75.75 177.1,-85.25 182,-80.26"/>
</g>
<!-- Node6&#45;&gt;Node7 -->
<g id="edge7" class="edge">
<title>Node6&#45;&gt;Node7</title>
<path fill="none" stroke="midnightblue" d="M230.71,-112.32C242.28,-104.11 259.88,-91.6 273.66,-81.81"/>
<polygon fill="midnightblue" stroke="midnightblue" points="275.94,-84.48 282.07,-75.83 271.89,-78.77 275.94,-84.48"/>
</g>
<!-- Node9 -->
<g id="node9" class="node">
<title>Node9</title>
<g id="a_node9"><a xlink:href="fitdatamessage__p_8h.html" target="_top" xlink:title=" ">
<polygon fill="none" stroke="black" points="167,-224.5 167,-243.5 280,-243.5 280,-224.5 167,-224.5"/>
<text text-anchor="middle" x="223.5" y="-231.5" font-family="Helvetica,sans-Serif" font-size="10.00">fitdatamessage_p.h</text>
</a>
</g>
</g>
<!-- Node8&#45;&gt;Node9 -->
<g id="edge9" class="edge">
<title>Node8&#45;&gt;Node9</title>
<path fill="none" stroke="midnightblue" d="M231.01,-280.08C229.82,-272.93 228.11,-262.64 226.62,-253.69"/>
<polygon fill="midnightblue" stroke="midnightblue" points="230.05,-253.04 224.96,-243.75 223.15,-254.19 230.05,-253.04"/>
</g>
<!-- Node9&#45;&gt;Node4 -->
<g id="edge10" class="edge">
<title>Node9&#45;&gt;Node4</title>
<path fill="none" stroke="midnightblue" d="M219.69,-224.47C212.07,-207.21 194.63,-166.85 182.5,-132 177.06,-116.39 171.87,-98.31 168.29,-85.19"/>
<polygon fill="midnightblue" stroke="midnightblue" points="171.66,-84.25 165.69,-75.5 164.9,-86.07 171.66,-84.25"/>
</g>
<!-- Node9&#45;&gt;Node6 -->
<g id="edge11" class="edge">
<title>Node9&#45;&gt;Node6</title>
<path fill="none" stroke="midnightblue" d="M223.11,-224.37C222.3,-206.62 220.44,-165.67 219.35,-141.6"/>
<polygon fill="midnightblue" stroke="midnightblue" points="222.84,-141.42 218.89,-131.59 215.85,-141.74 222.84,-141.42"/>
</g>
<!-- Node10 -->
<g id="node10" class="node">
<title>Node10</title>
<g id="a_node10"><a xlink:href="types__p_8h.html" target="_top" xlink:title=" ">
<polygon fill="none" stroke="black" points="243.5,-168.5 243.5,-187.5 307.5,-187.5 307.5,-168.5 243.5,-168.5"/>
<text text-anchor="middle" x="275.5" y="-175.5" font-family="Helvetica,sans-Serif" font-size="10.00">types_p.h</text>
</a>
</g>
</g>
<!-- Node9&#45;&gt;Node10 -->
<g id="edge12" class="edge">
<title>Node9&#45;&gt;Node10</title>
<path fill="none" stroke="midnightblue" d="M232.09,-224.08C239.66,-216.22 250.88,-204.57 260.01,-195.08"/>
<polygon fill="midnightblue" stroke="midnightblue" points="262.66,-197.38 267.07,-187.75 257.62,-192.53 262.66,-197.38"/>
</g>
<!-- Node10&#45;&gt;Node6 -->
<g id="edge13" class="edge">
<title>Node10&#45;&gt;Node6</title>
<path fill="none" stroke="midnightblue" d="M266.34,-168.32C258,-160.42 245.47,-148.55 235.32,-138.94"/>
<polygon fill="midnightblue" stroke="midnightblue" points="237.49,-136.17 227.82,-131.83 232.68,-141.25 237.49,-136.17"/>
</g>
<!-- Node11 -->
<g id="node11" class="node">
<title>Node11</title>
<g id="a_node11"><a xlink:title=" ">
<polygon fill="none" stroke="#bfbfbf" points="263,-112.5 263,-131.5 304,-131.5 304,-112.5 263,-112.5"/>
<text text-anchor="middle" x="283.5" y="-119.5" font-family="Helvetica,sans-Serif" font-size="10.00">QList</text>
</a>
</g>
</g>
<!-- Node10&#45;&gt;Node11 -->
<g id="edge14" class="edge">
<title>Node10&#45;&gt;Node11</title>
<path fill="none" stroke="midnightblue" d="M276.82,-168.08C277.88,-160.93 279.41,-150.64 280.73,-141.69"/>
<polygon fill="midnightblue" stroke="midnightblue" points="284.2,-142.16 282.2,-131.75 277.28,-141.13 284.2,-142.16"/>
</g>
</g>
</svg>
