<?xml version="1.0" encoding="UTF-8" standalone="no"?>
<!DOCTYPE svg PUBLIC "-//W3C//DTD SVG 1.1//EN"
 "http://www.w3.org/Graphics/SVG/1.1/DTD/svg11.dtd">
<!-- Generated by graphviz version 2.43.0 (0)
 -->
<!-- Title: cadencezonemessage.cpp Pages: 1 -->
<svg width="306pt" height="364pt"
 viewBox="0.00 0.00 305.50 364.00" xmlns="http://www.w3.org/2000/svg" xmlns:xlink="http://www.w3.org/1999/xlink">
<g id="graph0" class="graph" transform="scale(1 1) rotate(0) translate(4 360)">
<title>cadencezonemessage.cpp</title>
<!-- Node1 -->
<g id="node1" class="node">
<title>Node1</title>
<g id="a_node1"><a xlink:title=" ">
<polygon fill="#bfbfbf" stroke="black" points="79,-336.5 79,-355.5 224,-355.5 224,-336.5 79,-336.5"/>
<text text-anchor="middle" x="151.5" y="-343.5" font-family="Helvetica,sans-Serif" font-size="10.00">cadencezonemessage.cpp</text>
</a>
</g>
</g>
<!-- Node2 -->
<g id="node2" class="node">
<title>Node2</title>
<g id="a_node2"><a xlink:href="cadencezonemessage_8h.html" target="_top" xlink:title=" ">
<polygon fill="none" stroke="black" points="163.5,-280.5 163.5,-299.5 297.5,-299.5 297.5,-280.5 163.5,-280.5"/>
<text text-anchor="middle" x="230.5" y="-287.5" font-family="Helvetica,sans-Serif" font-size="10.00">cadencezonemessage.h</text>
</a>
</g>
</g>
<!-- Node1&#45;&gt;Node2 -->
<g id="edge1" class="edge">
<title>Node1&#45;&gt;Node2</title>
<path fill="none" stroke="midnightblue" d="M164.19,-336.32C176.4,-327.98 195.08,-315.21 209.5,-305.35"/>
<polygon fill="midnightblue" stroke="midnightblue" points="211.56,-308.19 217.84,-299.65 207.61,-302.41 211.56,-308.19"/>
</g>
<!-- Node7 -->
<g id="node7" class="node">
<title>Node7</title>
<g id="a_node7"><a xlink:href="cadencezonemessage__p_8h.html" target="_top" xlink:title=" ">
<polygon fill="none" stroke="black" points="0,-280.5 0,-299.5 145,-299.5 145,-280.5 0,-280.5"/>
<text text-anchor="middle" x="72.5" y="-287.5" font-family="Helvetica,sans-Serif" font-size="10.00">cadencezonemessage_p.h</text>
</a>
</g>
</g>
<!-- Node1&#45;&gt;Node7 -->
<g id="edge7" class="edge">
<title>Node1&#45;&gt;Node7</title>
<path fill="none" stroke="midnightblue" d="M138.81,-336.32C126.6,-327.98 107.92,-315.21 93.5,-305.35"/>
<polygon fill="midnightblue" stroke="midnightblue" points="95.39,-302.41 85.16,-299.65 91.44,-308.19 95.39,-302.41"/>
</g>
<!-- Node3 -->
<g id="node3" class="node">
<title>Node3</title>
<g id="a_node3"><a xlink:href="fitdatamessage_8h.html" target="_top" xlink:title=" ">
<polygon fill="none" stroke="black" points="175,-168.5 175,-187.5 276,-187.5 276,-168.5 175,-168.5"/>
<text text-anchor="middle" x="225.5" y="-175.5" font-family="Helvetica,sans-Serif" font-size="10.00">fitdatamessage.h</text>
</a>
</g>
</g>
<!-- Node2&#45;&gt;Node3 -->
<g id="edge2" class="edge">
<title>Node2&#45;&gt;Node3</title>
<path fill="none" stroke="midnightblue" d="M230.11,-280.37C229.3,-262.62 227.44,-221.67 226.35,-197.6"/>
<polygon fill="midnightblue" stroke="midnightblue" points="229.84,-197.42 225.89,-187.59 222.85,-197.74 229.84,-197.42"/>
</g>
<!-- Node4 -->
<g id="node4" class="node">
<title>Node4</title>
<g id="a_node4"><a xlink:href="QtFit__global_8h.html" target="_top" xlink:title=" ">
<polygon fill="none" stroke="black" points="106.5,-56.5 106.5,-75.5 190.5,-75.5 190.5,-56.5 106.5,-56.5"/>
<text text-anchor="middle" x="148.5" y="-63.5" font-family="Helvetica,sans-Serif" font-size="10.00">QtFit_global.h</text>
</a>
</g>
</g>
<!-- Node3&#45;&gt;Node4 -->
<g id="edge3" class="edge">
<title>Node3&#45;&gt;Node4</title>
<path fill="none" stroke="midnightblue" d="M220.49,-168.39C213.04,-155.75 198.43,-131.56 184.5,-112 177.61,-102.32 169.36,-91.94 162.51,-83.59"/>
<polygon fill="midnightblue" stroke="midnightblue" points="165.06,-81.19 155.97,-75.74 159.68,-85.66 165.06,-81.19"/>
</g>
<!-- Node6 -->
<g id="node6" class="node">
<title>Node6</title>
<g id="a_node6"><a xlink:href="types_8h.html" target="_top" xlink:title="Types defined by the ANT+ FIT SDK.">
<polygon fill="none" stroke="black" points="122,-112.5 122,-131.5 175,-131.5 175,-112.5 122,-112.5"/>
<text text-anchor="middle" x="148.5" y="-119.5" font-family="Helvetica,sans-Serif" font-size="10.00">types.h</text>
</a>
</g>
</g>
<!-- Node3&#45;&gt;Node6 -->
<g id="edge5" class="edge">
<title>Node3&#45;&gt;Node6</title>
<path fill="none" stroke="midnightblue" d="M213.13,-168.32C201.34,-160.06 183.37,-147.45 169.36,-137.63"/>
<polygon fill="midnightblue" stroke="midnightblue" points="171.04,-134.53 160.84,-131.65 167.02,-140.26 171.04,-134.53"/>
</g>
<!-- Node5 -->
<g id="node5" class="node">
<title>Node5</title>
<g id="a_node5"><a xlink:title=" ">
<polygon fill="none" stroke="#bfbfbf" points="119,-0.5 119,-19.5 178,-19.5 178,-0.5 119,-0.5"/>
<text text-anchor="middle" x="148.5" y="-7.5" font-family="Helvetica,sans-Serif" font-size="10.00">QtGlobal</text>
</a>
</g>
</g>
<!-- Node4&#45;&gt;Node5 -->
<g id="edge4" class="edge">
<title>Node4&#45;&gt;Node5</title>
<path fill="none" stroke="midnightblue" d="M148.5,-56.08C148.5,-49.01 148.5,-38.86 148.5,-29.99"/>
<polygon fill="midnightblue" stroke="midnightblue" points="152,-29.75 148.5,-19.75 145,-29.75 152,-29.75"/>
</g>
<!-- Node6&#45;&gt;Node4 -->
<g id="edge6" class="edge">
<title>Node6&#45;&gt;Node4</title>
<path fill="none" stroke="midnightblue" d="M148.5,-112.08C148.5,-105.01 148.5,-94.86 148.5,-85.99"/>
<polygon fill="midnightblue" stroke="midnightblue" points="152,-85.75 148.5,-75.75 145,-85.75 152,-85.75"/>
</g>
<!-- Node8 -->
<g id="node8" class="node">
<title>Node8</title>
<g id="a_node8"><a xlink:href="fitdatamessage__p_8h.html" target="_top" xlink:title=" ">
<polygon fill="none" stroke="black" points="25,-224.5 25,-243.5 138,-243.5 138,-224.5 25,-224.5"/>
<text text-anchor="middle" x="81.5" y="-231.5" font-family="Helvetica,sans-Serif" font-size="10.00">fitdatamessage_p.h</text>
</a>
</g>
</g>
<!-- Node7&#45;&gt;Node8 -->
<g id="edge8" class="edge">
<title>Node7&#45;&gt;Node8</title>
<path fill="none" stroke="midnightblue" d="M73.99,-280.08C75.18,-272.93 76.89,-262.64 78.38,-253.69"/>
<polygon fill="midnightblue" stroke="midnightblue" points="81.85,-254.19 80.04,-243.75 74.95,-253.04 81.85,-254.19"/>
</g>
<!-- Node8&#45;&gt;Node4 -->
<g id="edge9" class="edge">
<title>Node8&#45;&gt;Node4</title>
<path fill="none" stroke="midnightblue" d="M71.34,-224.19C62.59,-215.87 50.6,-202.54 45.5,-188 38.84,-169.02 46.59,-121.38 53.5,-112 65.1,-96.26 83.64,-85.81 101.27,-78.98"/>
<polygon fill="midnightblue" stroke="midnightblue" points="102.67,-82.2 110.92,-75.55 100.32,-75.6 102.67,-82.2"/>
</g>
<!-- Node8&#45;&gt;Node6 -->
<g id="edge10" class="edge">
<title>Node8&#45;&gt;Node6</title>
<path fill="none" stroke="midnightblue" d="M93.27,-224.23C103.64,-215.94 118.44,-202.63 127.5,-188 136.38,-173.66 141.87,-155.2 145,-141.62"/>
<polygon fill="midnightblue" stroke="midnightblue" points="148.49,-142.06 147.1,-131.55 141.63,-140.63 148.49,-142.06"/>
</g>
<!-- Node9 -->
<g id="node9" class="node">
<title>Node9</title>
<g id="a_node9"><a xlink:href="types__p_8h.html" target="_top" xlink:title=" ">
<polygon fill="none" stroke="black" points="54.5,-168.5 54.5,-187.5 118.5,-187.5 118.5,-168.5 54.5,-168.5"/>
<text text-anchor="middle" x="86.5" y="-175.5" font-family="Helvetica,sans-Serif" font-size="10.00">types_p.h</text>
</a>
</g>
</g>
<!-- Node8&#45;&gt;Node9 -->
<g id="edge11" class="edge">
<title>Node8&#45;&gt;Node9</title>
<path fill="none" stroke="midnightblue" d="M82.33,-224.08C82.98,-217.01 83.92,-206.86 84.74,-197.99"/>
<polygon fill="midnightblue" stroke="midnightblue" points="88.25,-198.03 85.69,-187.75 81.28,-197.39 88.25,-198.03"/>
</g>
<!-- Node9&#45;&gt;Node6 -->
<g id="edge12" class="edge">
<title>Node9&#45;&gt;Node6</title>
<path fill="none" stroke="midnightblue" d="M96.46,-168.32C105.63,-160.34 119.44,-148.31 130.53,-138.65"/>
<polygon fill="midnightblue" stroke="midnightblue" points="133.12,-141.04 138.36,-131.83 128.52,-135.76 133.12,-141.04"/>
</g>
<!-- Node10 -->
<g id="node10" class="node">
<title>Node10</title>
<g id="a_node10"><a xlink:title=" ">
<polygon fill="none" stroke="#bfbfbf" points="63,-112.5 63,-131.5 104,-131.5 104,-112.5 63,-112.5"/>
<text text-anchor="middle" x="83.5" y="-119.5" font-family="Helvetica,sans-Serif" font-size="10.00">QList</text>
</a>
</g>
</g>
<!-- Node9&#45;&gt;Node10 -->
<g id="edge13" class="edge">
<title>Node9&#45;&gt;Node10</title>
<path fill="none" stroke="midnightblue" d="M86,-168.08C85.61,-161.01 85.05,-150.86 84.55,-141.99"/>
<polygon fill="midnightblue" stroke="midnightblue" points="88.04,-141.54 83.99,-131.75 81.05,-141.93 88.04,-141.54"/>
</g>
</g>
</svg>
