<?xml version="1.0" encoding="UTF-8" standalone="no"?>
<!DOCTYPE svg PUBLIC "-//W3C//DTD SVG 1.1//EN"
 "http://www.w3.org/Graphics/SVG/1.1/DTD/svg11.dtd">
<!-- Generated by graphviz version 2.43.0 (0)
 -->
<!-- Title: cameraeventmessage.cpp Pages: 1 -->
<svg width="359pt" height="364pt"
 viewBox="0.00 0.00 359.00 364.00" xmlns="http://www.w3.org/2000/svg" xmlns:xlink="http://www.w3.org/1999/xlink">
<g id="graph0" class="graph" transform="scale(1 1) rotate(0) translate(4 360)">
<title>cameraeventmessage.cpp</title>
<!-- Node1 -->
<g id="node1" class="node">
<title>Node1</title>
<g id="a_node1"><a xlink:title=" ">
<polygon fill="#bfbfbf" stroke="black" points="142.5,-336.5 142.5,-355.5 288.5,-355.5 288.5,-336.5 142.5,-336.5"/>
<text text-anchor="middle" x="215.5" y="-343.5" font-family="Helvetica,sans-Serif" font-size="10.00">cameraeventmessage.cpp</text>
</a>
</g>
</g>
<!-- Node2 -->
<g id="node2" class="node">
<title>Node2</title>
<g id="a_node2"><a xlink:href="cameraeventmessage_8h.html" target="_top" xlink:title=" ">
<polygon fill="none" stroke="black" points="131.5,-224.5 131.5,-243.5 265.5,-243.5 265.5,-224.5 131.5,-224.5"/>
<text text-anchor="middle" x="198.5" y="-231.5" font-family="Helvetica,sans-Serif" font-size="10.00">cameraeventmessage.h</text>
</a>
</g>
</g>
<!-- Node1&#45;&gt;Node2 -->
<g id="edge1" class="edge">
<title>Node1&#45;&gt;Node2</title>
<path fill="none" stroke="midnightblue" d="M213.58,-336.41C211.61,-327.38 208.56,-312.74 206.5,-300 204.01,-284.55 201.88,-266.92 200.45,-253.92"/>
<polygon fill="midnightblue" stroke="midnightblue" points="203.92,-253.43 199.38,-243.86 196.96,-254.18 203.92,-253.43"/>
</g>
<!-- Node7 -->
<g id="node7" class="node">
<title>Node7</title>
<g id="a_node7"><a xlink:href="cameraeventmessage__p_8h.html" target="_top" xlink:title=" ">
<polygon fill="none" stroke="black" points="3.5,-280.5 3.5,-299.5 149.5,-299.5 149.5,-280.5 3.5,-280.5"/>
<text text-anchor="middle" x="76.5" y="-287.5" font-family="Helvetica,sans-Serif" font-size="10.00">cameraeventmessage_p.h</text>
</a>
</g>
</g>
<!-- Node1&#45;&gt;Node7 -->
<g id="edge7" class="edge">
<title>Node1&#45;&gt;Node7</title>
<path fill="none" stroke="midnightblue" d="M193.48,-336.44C170.4,-327.48 133.94,-313.31 107.86,-303.18"/>
<polygon fill="midnightblue" stroke="midnightblue" points="109.01,-299.88 98.42,-299.52 106.48,-306.4 109.01,-299.88"/>
</g>
<!-- Node11 -->
<g id="node11" class="node">
<title>Node11</title>
<g id="a_node11"><a xlink:title=" ">
<polygon fill="none" stroke="#bfbfbf" points="215.5,-280.5 215.5,-299.5 271.5,-299.5 271.5,-280.5 215.5,-280.5"/>
<text text-anchor="middle" x="243.5" y="-287.5" font-family="Helvetica,sans-Serif" font-size="10.00">QDebug</text>
</a>
</g>
</g>
<!-- Node1&#45;&gt;Node11 -->
<g id="edge14" class="edge">
<title>Node1&#45;&gt;Node11</title>
<path fill="none" stroke="midnightblue" d="M220.12,-336.08C223.96,-328.69 229.52,-317.95 234.26,-308.81"/>
<polygon fill="midnightblue" stroke="midnightblue" points="237.47,-310.24 238.96,-299.75 231.25,-307.02 237.47,-310.24"/>
</g>
<!-- Node12 -->
<g id="node12" class="node">
<title>Node12</title>
<g id="a_node12"><a xlink:title=" ">
<polygon fill="none" stroke="#bfbfbf" points="290,-280.5 290,-299.5 351,-299.5 351,-280.5 290,-280.5"/>
<text text-anchor="middle" x="320.5" y="-287.5" font-family="Helvetica,sans-Serif" font-size="10.00">QtEndian</text>
</a>
</g>
</g>
<!-- Node1&#45;&gt;Node12 -->
<g id="edge15" class="edge">
<title>Node1&#45;&gt;Node12</title>
<path fill="none" stroke="midnightblue" d="M232.37,-336.32C249.21,-327.66 275.31,-314.24 294.74,-304.25"/>
<polygon fill="midnightblue" stroke="midnightblue" points="296.38,-307.34 303.67,-299.65 293.18,-301.12 296.38,-307.34"/>
</g>
<!-- Node3 -->
<g id="node3" class="node">
<title>Node3</title>
<g id="a_node3"><a xlink:href="fitdatamessage_8h.html" target="_top" xlink:title=" ">
<polygon fill="none" stroke="black" points="147,-168.5 147,-187.5 248,-187.5 248,-168.5 147,-168.5"/>
<text text-anchor="middle" x="197.5" y="-175.5" font-family="Helvetica,sans-Serif" font-size="10.00">fitdatamessage.h</text>
</a>
</g>
</g>
<!-- Node2&#45;&gt;Node3 -->
<g id="edge2" class="edge">
<title>Node2&#45;&gt;Node3</title>
<path fill="none" stroke="midnightblue" d="M198.33,-224.08C198.2,-217.01 198.02,-206.86 197.85,-197.99"/>
<polygon fill="midnightblue" stroke="midnightblue" points="201.35,-197.68 197.66,-187.75 194.35,-197.81 201.35,-197.68"/>
</g>
<!-- Node4 -->
<g id="node4" class="node">
<title>Node4</title>
<g id="a_node4"><a xlink:href="QtFit__global_8h.html" target="_top" xlink:title=" ">
<polygon fill="none" stroke="black" points="78.5,-56.5 78.5,-75.5 162.5,-75.5 162.5,-56.5 78.5,-56.5"/>
<text text-anchor="middle" x="120.5" y="-63.5" font-family="Helvetica,sans-Serif" font-size="10.00">QtFit_global.h</text>
</a>
</g>
</g>
<!-- Node3&#45;&gt;Node4 -->
<g id="edge3" class="edge">
<title>Node3&#45;&gt;Node4</title>
<path fill="none" stroke="midnightblue" d="M192.49,-168.39C185.04,-155.75 170.43,-131.56 156.5,-112 149.61,-102.32 141.36,-91.94 134.51,-83.59"/>
<polygon fill="midnightblue" stroke="midnightblue" points="137.06,-81.19 127.97,-75.74 131.68,-85.66 137.06,-81.19"/>
</g>
<!-- Node6 -->
<g id="node6" class="node">
<title>Node6</title>
<g id="a_node6"><a xlink:href="types_8h.html" target="_top" xlink:title="Types defined by the ANT+ FIT SDK.">
<polygon fill="none" stroke="black" points="94,-112.5 94,-131.5 147,-131.5 147,-112.5 94,-112.5"/>
<text text-anchor="middle" x="120.5" y="-119.5" font-family="Helvetica,sans-Serif" font-size="10.00">types.h</text>
</a>
</g>
</g>
<!-- Node3&#45;&gt;Node6 -->
<g id="edge5" class="edge">
<title>Node3&#45;&gt;Node6</title>
<path fill="none" stroke="midnightblue" d="M185.13,-168.32C173.34,-160.06 155.37,-147.45 141.36,-137.63"/>
<polygon fill="midnightblue" stroke="midnightblue" points="143.04,-134.53 132.84,-131.65 139.02,-140.26 143.04,-134.53"/>
</g>
<!-- Node5 -->
<g id="node5" class="node">
<title>Node5</title>
<g id="a_node5"><a xlink:title=" ">
<polygon fill="none" stroke="#bfbfbf" points="91,-0.5 91,-19.5 150,-19.5 150,-0.5 91,-0.5"/>
<text text-anchor="middle" x="120.5" y="-7.5" font-family="Helvetica,sans-Serif" font-size="10.00">QtGlobal</text>
</a>
</g>
</g>
<!-- Node4&#45;&gt;Node5 -->
<g id="edge4" class="edge">
<title>Node4&#45;&gt;Node5</title>
<path fill="none" stroke="midnightblue" d="M120.5,-56.08C120.5,-49.01 120.5,-38.86 120.5,-29.99"/>
<polygon fill="midnightblue" stroke="midnightblue" points="124,-29.75 120.5,-19.75 117,-29.75 124,-29.75"/>
</g>
<!-- Node6&#45;&gt;Node4 -->
<g id="edge6" class="edge">
<title>Node6&#45;&gt;Node4</title>
<path fill="none" stroke="midnightblue" d="M120.5,-112.08C120.5,-105.01 120.5,-94.86 120.5,-85.99"/>
<polygon fill="midnightblue" stroke="midnightblue" points="124,-85.75 120.5,-75.75 117,-85.75 124,-85.75"/>
</g>
<!-- Node8 -->
<g id="node8" class="node">
<title>Node8</title>
<g id="a_node8"><a xlink:href="fitdatamessage__p_8h.html" target="_top" xlink:title=" ">
<polygon fill="none" stroke="black" points="0,-224.5 0,-243.5 113,-243.5 113,-224.5 0,-224.5"/>
<text text-anchor="middle" x="56.5" y="-231.5" font-family="Helvetica,sans-Serif" font-size="10.00">fitdatamessage_p.h</text>
</a>
</g>
</g>
<!-- Node7&#45;&gt;Node8 -->
<g id="edge8" class="edge">
<title>Node7&#45;&gt;Node8</title>
<path fill="none" stroke="midnightblue" d="M73.2,-280.08C70.52,-272.85 66.65,-262.41 63.31,-253.4"/>
<polygon fill="midnightblue" stroke="midnightblue" points="66.5,-251.91 59.74,-243.75 59.93,-254.34 66.5,-251.91"/>
</g>
<!-- Node8&#45;&gt;Node4 -->
<g id="edge9" class="edge">
<title>Node8&#45;&gt;Node4</title>
<path fill="none" stroke="midnightblue" d="M45.51,-224.37C36.05,-216.17 23.06,-202.92 17.5,-188 10.56,-169.4 17.8,-122.45 25.5,-112 37.1,-96.26 55.64,-85.81 73.27,-78.98"/>
<polygon fill="midnightblue" stroke="midnightblue" points="74.67,-82.2 82.92,-75.55 72.32,-75.6 74.67,-82.2"/>
</g>
<!-- Node8&#45;&gt;Node6 -->
<g id="edge10" class="edge">
<title>Node8&#45;&gt;Node6</title>
<path fill="none" stroke="midnightblue" d="M67.11,-224.39C76.79,-216.02 90.87,-202.48 99.5,-188 108.13,-173.52 113.66,-155.07 116.86,-141.53"/>
<polygon fill="midnightblue" stroke="midnightblue" points="120.33,-142.02 119.02,-131.51 113.49,-140.54 120.33,-142.02"/>
</g>
<!-- Node9 -->
<g id="node9" class="node">
<title>Node9</title>
<g id="a_node9"><a xlink:href="types__p_8h.html" target="_top" xlink:title=" ">
<polygon fill="none" stroke="black" points="26.5,-168.5 26.5,-187.5 90.5,-187.5 90.5,-168.5 26.5,-168.5"/>
<text text-anchor="middle" x="58.5" y="-175.5" font-family="Helvetica,sans-Serif" font-size="10.00">types_p.h</text>
</a>
</g>
</g>
<!-- Node8&#45;&gt;Node9 -->
<g id="edge11" class="edge">
<title>Node8&#45;&gt;Node9</title>
<path fill="none" stroke="midnightblue" d="M56.83,-224.08C57.09,-217.01 57.47,-206.86 57.8,-197.99"/>
<polygon fill="midnightblue" stroke="midnightblue" points="61.3,-197.87 58.18,-187.75 54.31,-197.61 61.3,-197.87"/>
</g>
<!-- Node9&#45;&gt;Node6 -->
<g id="edge12" class="edge">
<title>Node9&#45;&gt;Node6</title>
<path fill="none" stroke="midnightblue" d="M68.46,-168.32C77.63,-160.34 91.44,-148.31 102.53,-138.65"/>
<polygon fill="midnightblue" stroke="midnightblue" points="105.12,-141.04 110.36,-131.83 100.52,-135.76 105.12,-141.04"/>
</g>
<!-- Node10 -->
<g id="node10" class="node">
<title>Node10</title>
<g id="a_node10"><a xlink:title=" ">
<polygon fill="none" stroke="#bfbfbf" points="35,-112.5 35,-131.5 76,-131.5 76,-112.5 35,-112.5"/>
<text text-anchor="middle" x="55.5" y="-119.5" font-family="Helvetica,sans-Serif" font-size="10.00">QList</text>
</a>
</g>
</g>
<!-- Node9&#45;&gt;Node10 -->
<g id="edge13" class="edge">
<title>Node9&#45;&gt;Node10</title>
<path fill="none" stroke="midnightblue" d="M58,-168.08C57.61,-161.01 57.05,-150.86 56.55,-141.99"/>
<polygon fill="midnightblue" stroke="midnightblue" points="60.04,-141.54 55.99,-131.75 53.05,-141.93 60.04,-141.54"/>
</g>
</g>
</svg>
