<?xml version="1.0" encoding="UTF-8" standalone="no"?>
<!DOCTYPE svg PUBLIC "-//W3C//DTD SVG 1.1//EN"
 "http://www.w3.org/Graphics/SVG/1.1/DTD/svg11.dtd">
<!-- Generated by graphviz version 2.43.0 (0)
 -->
<!-- Title: cameraeventmessage.cpp Pages: 1 -->
<svg width="424pt" height="364pt"
 viewBox="0.00 0.00 423.50 364.00" xmlns="http://www.w3.org/2000/svg" xmlns:xlink="http://www.w3.org/1999/xlink">
<g id="graph0" class="graph" transform="scale(1 1) rotate(0) translate(4 360)">
<title>cameraeventmessage.cpp</title>
<!-- Node1 -->
<g id="node1" class="node">
<title>Node1</title>
<g id="a_node1"><a xlink:title=" ">
<polygon fill="#bfbfbf" stroke="black" points="202,-336.5 202,-355.5 348,-355.5 348,-336.5 202,-336.5"/>
<text text-anchor="middle" x="275" y="-343.5" font-family="Helvetica,sans-Serif" font-size="10.00">cameraeventmessage.cpp</text>
</a>
</g>
</g>
<!-- Node2 -->
<g id="node2" class="node">
<title>Node2</title>
<g id="a_node2"><a xlink:href="cameraeventmessage_8h.html" target="_top" xlink:title=" ">
<polygon fill="none" stroke="black" points="0,-280.5 0,-299.5 134,-299.5 134,-280.5 0,-280.5"/>
<text text-anchor="middle" x="67" y="-287.5" font-family="Helvetica,sans-Serif" font-size="10.00">cameraeventmessage.h</text>
</a>
</g>
</g>
<!-- Node1&#45;&gt;Node2 -->
<g id="edge1" class="edge">
<title>Node1&#45;&gt;Node2</title>
<path fill="none" stroke="midnightblue" d="M242.04,-336.44C206.21,-327.14 148.84,-312.25 109.61,-302.06"/>
<polygon fill="midnightblue" stroke="midnightblue" points="110.36,-298.64 99.8,-299.52 108.6,-305.42 110.36,-298.64"/>
</g>
<!-- Node7 -->
<g id="node7" class="node">
<title>Node7</title>
<g id="a_node7"><a xlink:title=" ">
<polygon fill="none" stroke="#bfbfbf" points="257,-56.5 257,-75.5 313,-75.5 313,-56.5 257,-56.5"/>
<text text-anchor="middle" x="285" y="-63.5" font-family="Helvetica,sans-Serif" font-size="10.00">QDebug</text>
</a>
</g>
</g>
<!-- Node1&#45;&gt;Node7 -->
<g id="edge15" class="edge">
<title>Node1&#45;&gt;Node7</title>
<path fill="none" stroke="midnightblue" d="M282.57,-336.26C289.75,-327.58 300.39,-313.63 307,-300 320.13,-272.92 326,-265.1 326,-235 326,-235 326,-235 326,-177 326,-142.52 308.09,-105.56 295.94,-84.47"/>
<polygon fill="midnightblue" stroke="midnightblue" points="298.84,-82.49 290.7,-75.71 292.84,-86.09 298.84,-82.49"/>
</g>
<!-- Node8 -->
<g id="node8" class="node">
<title>Node8</title>
<g id="a_node8"><a xlink:href="cameraeventmessage__p_8h.html" target="_top" xlink:title=" ">
<polygon fill="none" stroke="black" points="152,-280.5 152,-299.5 298,-299.5 298,-280.5 152,-280.5"/>
<text text-anchor="middle" x="225" y="-287.5" font-family="Helvetica,sans-Serif" font-size="10.00">cameraeventmessage_p.h</text>
</a>
</g>
</g>
<!-- Node1&#45;&gt;Node8 -->
<g id="edge8" class="edge">
<title>Node1&#45;&gt;Node8</title>
<path fill="none" stroke="midnightblue" d="M266.74,-336.08C259.54,-328.3 248.89,-316.8 240.15,-307.37"/>
<polygon fill="midnightblue" stroke="midnightblue" points="242.47,-304.71 233.1,-299.75 237.33,-309.47 242.47,-304.71"/>
</g>
<!-- Node12 -->
<g id="node12" class="node">
<title>Node12</title>
<g id="a_node12"><a xlink:title=" ">
<polygon fill="none" stroke="#bfbfbf" points="354.5,-280.5 354.5,-299.5 415.5,-299.5 415.5,-280.5 354.5,-280.5"/>
<text text-anchor="middle" x="385" y="-287.5" font-family="Helvetica,sans-Serif" font-size="10.00">QtEndian</text>
</a>
</g>
</g>
<!-- Node1&#45;&gt;Node12 -->
<g id="edge16" class="edge">
<title>Node1&#45;&gt;Node12</title>
<path fill="none" stroke="midnightblue" d="M292.67,-336.32C310.39,-327.62 337.9,-314.12 358.29,-304.11"/>
<polygon fill="midnightblue" stroke="midnightblue" points="359.94,-307.2 367.37,-299.65 356.85,-300.92 359.94,-307.2"/>
</g>
<!-- Node3 -->
<g id="node3" class="node">
<title>Node3</title>
<g id="a_node3"><a xlink:href="fitdatamessage_8h.html" target="_top" xlink:title=" ">
<polygon fill="none" stroke="black" points="24.5,-168.5 24.5,-187.5 125.5,-187.5 125.5,-168.5 24.5,-168.5"/>
<text text-anchor="middle" x="75" y="-175.5" font-family="Helvetica,sans-Serif" font-size="10.00">fitdatamessage.h</text>
</a>
</g>
</g>
<!-- Node2&#45;&gt;Node3 -->
<g id="edge2" class="edge">
<title>Node2&#45;&gt;Node3</title>
<path fill="none" stroke="midnightblue" d="M67.63,-280.37C68.92,-262.62 71.9,-221.67 73.65,-197.6"/>
<polygon fill="midnightblue" stroke="midnightblue" points="77.14,-197.82 74.38,-187.59 70.16,-197.31 77.14,-197.82"/>
</g>
<!-- Node4 -->
<g id="node4" class="node">
<title>Node4</title>
<g id="a_node4"><a xlink:href="QtFit__global_8h.html" target="_top" xlink:title=" ">
<polygon fill="none" stroke="black" points="112,-56.5 112,-75.5 196,-75.5 196,-56.5 112,-56.5"/>
<text text-anchor="middle" x="154" y="-63.5" font-family="Helvetica,sans-Serif" font-size="10.00">QtFit_global.h</text>
</a>
</g>
</g>
<!-- Node3&#45;&gt;Node4 -->
<g id="edge3" class="edge">
<title>Node3&#45;&gt;Node4</title>
<path fill="none" stroke="midnightblue" d="M81.2,-168.37C94.24,-150.22 124.7,-107.8 141.8,-83.99"/>
<polygon fill="midnightblue" stroke="midnightblue" points="144.84,-85.76 147.83,-75.59 139.15,-81.67 144.84,-85.76"/>
</g>
<!-- Node6 -->
<g id="node6" class="node">
<title>Node6</title>
<g id="a_node6"><a xlink:href="types_8h.html" target="_top" xlink:title="Types defined by the ANT+ FIT SDK.">
<polygon fill="none" stroke="black" points="182.5,-112.5 182.5,-131.5 235.5,-131.5 235.5,-112.5 182.5,-112.5"/>
<text text-anchor="middle" x="209" y="-119.5" font-family="Helvetica,sans-Serif" font-size="10.00">types.h</text>
</a>
</g>
</g>
<!-- Node3&#45;&gt;Node6 -->
<g id="edge5" class="edge">
<title>Node3&#45;&gt;Node6</title>
<path fill="none" stroke="midnightblue" d="M96.23,-168.44C118.38,-159.52 153.32,-145.44 178.44,-135.32"/>
<polygon fill="midnightblue" stroke="midnightblue" points="179.9,-138.5 187.87,-131.52 177.28,-132.01 179.9,-138.5"/>
</g>
<!-- Node5 -->
<g id="node5" class="node">
<title>Node5</title>
<g id="a_node5"><a xlink:title=" ">
<polygon fill="none" stroke="#bfbfbf" points="124.5,-0.5 124.5,-19.5 183.5,-19.5 183.5,-0.5 124.5,-0.5"/>
<text text-anchor="middle" x="154" y="-7.5" font-family="Helvetica,sans-Serif" font-size="10.00">QtGlobal</text>
</a>
</g>
</g>
<!-- Node4&#45;&gt;Node5 -->
<g id="edge4" class="edge">
<title>Node4&#45;&gt;Node5</title>
<path fill="none" stroke="midnightblue" d="M154,-56.08C154,-49.01 154,-38.86 154,-29.99"/>
<polygon fill="midnightblue" stroke="midnightblue" points="157.5,-29.75 154,-19.75 150.5,-29.75 157.5,-29.75"/>
</g>
<!-- Node6&#45;&gt;Node4 -->
<g id="edge6" class="edge">
<title>Node6&#45;&gt;Node4</title>
<path fill="none" stroke="midnightblue" d="M199.92,-112.08C191.83,-104.14 179.8,-92.34 170.09,-82.8"/>
<polygon fill="midnightblue" stroke="midnightblue" points="172.5,-80.26 162.91,-75.75 167.6,-85.25 172.5,-80.26"/>
</g>
<!-- Node6&#45;&gt;Node7 -->
<g id="edge7" class="edge">
<title>Node6&#45;&gt;Node7</title>
<path fill="none" stroke="midnightblue" d="M221.21,-112.32C232.78,-104.11 250.38,-91.6 264.16,-81.81"/>
<polygon fill="midnightblue" stroke="midnightblue" points="266.44,-84.48 272.57,-75.83 262.39,-78.77 266.44,-84.48"/>
</g>
<!-- Node9 -->
<g id="node9" class="node">
<title>Node9</title>
<g id="a_node9"><a xlink:href="fitdatamessage__p_8h.html" target="_top" xlink:title=" ">
<polygon fill="none" stroke="black" points="158.5,-224.5 158.5,-243.5 271.5,-243.5 271.5,-224.5 158.5,-224.5"/>
<text text-anchor="middle" x="215" y="-231.5" font-family="Helvetica,sans-Serif" font-size="10.00">fitdatamessage_p.h</text>
</a>
</g>
</g>
<!-- Node8&#45;&gt;Node9 -->
<g id="edge9" class="edge">
<title>Node8&#45;&gt;Node9</title>
<path fill="none" stroke="midnightblue" d="M223.35,-280.08C222.02,-272.93 220.12,-262.64 218.46,-253.69"/>
<polygon fill="midnightblue" stroke="midnightblue" points="221.88,-252.95 216.62,-243.75 215,-254.22 221.88,-252.95"/>
</g>
<!-- Node9&#45;&gt;Node4 -->
<g id="edge10" class="edge">
<title>Node9&#45;&gt;Node4</title>
<path fill="none" stroke="midnightblue" d="M211.08,-224.48C203.24,-207.24 185.32,-166.92 173,-132 167.5,-116.41 162.31,-98.33 158.75,-85.21"/>
<polygon fill="midnightblue" stroke="midnightblue" points="162.12,-84.27 156.17,-75.51 155.36,-86.07 162.12,-84.27"/>
</g>
<!-- Node9&#45;&gt;Node6 -->
<g id="edge11" class="edge">
<title>Node9&#45;&gt;Node6</title>
<path fill="none" stroke="midnightblue" d="M214.53,-224.37C213.56,-206.62 211.33,-165.67 210.01,-141.6"/>
<polygon fill="midnightblue" stroke="midnightblue" points="213.51,-141.39 209.47,-131.59 206.52,-141.77 213.51,-141.39"/>
</g>
<!-- Node10 -->
<g id="node10" class="node">
<title>Node10</title>
<g id="a_node10"><a xlink:href="types__p_8h.html" target="_top" xlink:title=" ">
<polygon fill="none" stroke="black" points="234,-168.5 234,-187.5 298,-187.5 298,-168.5 234,-168.5"/>
<text text-anchor="middle" x="266" y="-175.5" font-family="Helvetica,sans-Serif" font-size="10.00">types_p.h</text>
</a>
</g>
</g>
<!-- Node9&#45;&gt;Node10 -->
<g id="edge12" class="edge">
<title>Node9&#45;&gt;Node10</title>
<path fill="none" stroke="midnightblue" d="M223.42,-224.08C230.85,-216.22 241.85,-204.57 250.81,-195.08"/>
<polygon fill="midnightblue" stroke="midnightblue" points="253.41,-197.42 257.74,-187.75 248.32,-192.62 253.41,-197.42"/>
</g>
<!-- Node10&#45;&gt;Node6 -->
<g id="edge13" class="edge">
<title>Node10&#45;&gt;Node6</title>
<path fill="none" stroke="midnightblue" d="M256.84,-168.32C248.5,-160.42 235.97,-148.55 225.82,-138.94"/>
<polygon fill="midnightblue" stroke="midnightblue" points="227.99,-136.17 218.32,-131.83 223.18,-141.25 227.99,-136.17"/>
</g>
<!-- Node11 -->
<g id="node11" class="node">
<title>Node11</title>
<g id="a_node11"><a xlink:title=" ">
<polygon fill="none" stroke="#bfbfbf" points="253.5,-112.5 253.5,-131.5 294.5,-131.5 294.5,-112.5 253.5,-112.5"/>
<text text-anchor="middle" x="274" y="-119.5" font-family="Helvetica,sans-Serif" font-size="10.00">QList</text>
</a>
</g>
</g>
<!-- Node10&#45;&gt;Node11 -->
<g id="edge14" class="edge">
<title>Node10&#45;&gt;Node11</title>
<path fill="none" stroke="midnightblue" d="M267.32,-168.08C268.38,-160.93 269.91,-150.64 271.23,-141.69"/>
<polygon fill="midnightblue" stroke="midnightblue" points="274.7,-142.16 272.7,-131.75 267.78,-141.13 274.7,-142.16"/>
</g>
</g>
</svg>
