<?xml version="1.0" encoding="UTF-8" standalone="no"?>
<!DOCTYPE svg PUBLIC "-//W3C//DTD SVG 1.1//EN"
 "http://www.w3.org/Graphics/SVG/1.1/DTD/svg11.dtd">
<!-- Generated by graphviz version 2.43.0 (0)
 -->
<!-- Title: cameraeventmessage_p.h Pages: 1 -->
<svg width="176pt" height="308pt"
 viewBox="0.00 0.00 175.50 308.00" xmlns="http://www.w3.org/2000/svg" xmlns:xlink="http://www.w3.org/1999/xlink">
<g id="graph0" class="graph" transform="scale(1 1) rotate(0) translate(4 304)">
<title>cameraeventmessage_p.h</title>
<!-- Node1 -->
<g id="node1" class="node">
<title>Node1</title>
<g id="a_node1"><a xlink:title=" ">
<polygon fill="#bfbfbf" stroke="black" points="0,-280.5 0,-299.5 146,-299.5 146,-280.5 0,-280.5"/>
<text text-anchor="middle" x="73" y="-287.5" font-family="Helvetica,sans-Serif" font-size="10.00">cameraeventmessage_p.h</text>
</a>
</g>
</g>
<!-- Node2 -->
<g id="node2" class="node">
<title>Node2</title>
<g id="a_node2"><a xlink:href="fitdatamessage__p_8h.html" target="_top" xlink:title=" ">
<polygon fill="none" stroke="black" points="16.5,-224.5 16.5,-243.5 129.5,-243.5 129.5,-224.5 16.5,-224.5"/>
<text text-anchor="middle" x="73" y="-231.5" font-family="Helvetica,sans-Serif" font-size="10.00">fitdatamessage_p.h</text>
</a>
</g>
</g>
<!-- Node1&#45;&gt;Node2 -->
<g id="edge1" class="edge">
<title>Node1&#45;&gt;Node2</title>
<path fill="none" stroke="midnightblue" d="M73,-280.08C73,-273.01 73,-262.86 73,-253.99"/>
<polygon fill="midnightblue" stroke="midnightblue" points="76.5,-253.75 73,-243.75 69.5,-253.75 76.5,-253.75"/>
</g>
<!-- Node3 -->
<g id="node3" class="node">
<title>Node3</title>
<g id="a_node3"><a xlink:href="QtFit__global_8h.html" target="_top" xlink:title=" ">
<polygon fill="none" stroke="black" points="12,-56.5 12,-75.5 96,-75.5 96,-56.5 12,-56.5"/>
<text text-anchor="middle" x="54" y="-63.5" font-family="Helvetica,sans-Serif" font-size="10.00">QtFit_global.h</text>
</a>
</g>
</g>
<!-- Node2&#45;&gt;Node3 -->
<g id="edge2" class="edge">
<title>Node2&#45;&gt;Node3</title>
<path fill="none" stroke="midnightblue" d="M69.15,-224.32C60.82,-204.61 42.22,-154.88 46,-112 46.78,-103.2 48.39,-93.54 49.97,-85.43"/>
<polygon fill="midnightblue" stroke="midnightblue" points="53.41,-86.07 52.01,-75.57 46.56,-84.65 53.41,-86.07"/>
</g>
<!-- Node5 -->
<g id="node5" class="node">
<title>Node5</title>
<g id="a_node5"><a xlink:href="types_8h.html" target="_top" xlink:title="Types defined by the ANT+ FIT SDK.">
<polygon fill="none" stroke="black" points="55.5,-112.5 55.5,-131.5 108.5,-131.5 108.5,-112.5 55.5,-112.5"/>
<text text-anchor="middle" x="82" y="-119.5" font-family="Helvetica,sans-Serif" font-size="10.00">types.h</text>
</a>
</g>
</g>
<!-- Node2&#45;&gt;Node5 -->
<g id="edge4" class="edge">
<title>Node2&#45;&gt;Node5</title>
<path fill="none" stroke="midnightblue" d="M73.71,-224.37C75.16,-206.62 78.51,-165.67 80.48,-141.6"/>
<polygon fill="midnightblue" stroke="midnightblue" points="83.97,-141.84 81.3,-131.59 76.99,-141.27 83.97,-141.84"/>
</g>
<!-- Node6 -->
<g id="node6" class="node">
<title>Node6</title>
<g id="a_node6"><a xlink:href="types__p_8h.html" target="_top" xlink:title=" ">
<polygon fill="none" stroke="black" points="101,-168.5 101,-187.5 165,-187.5 165,-168.5 101,-168.5"/>
<text text-anchor="middle" x="133" y="-175.5" font-family="Helvetica,sans-Serif" font-size="10.00">types_p.h</text>
</a>
</g>
</g>
<!-- Node2&#45;&gt;Node6 -->
<g id="edge6" class="edge">
<title>Node2&#45;&gt;Node6</title>
<path fill="none" stroke="midnightblue" d="M82.64,-224.32C91.51,-216.34 104.87,-204.31 115.61,-194.65"/>
<polygon fill="midnightblue" stroke="midnightblue" points="118.09,-197.13 123.18,-187.83 113.41,-191.92 118.09,-197.13"/>
</g>
<!-- Node4 -->
<g id="node4" class="node">
<title>Node4</title>
<g id="a_node4"><a xlink:title=" ">
<polygon fill="none" stroke="#bfbfbf" points="24.5,-0.5 24.5,-19.5 83.5,-19.5 83.5,-0.5 24.5,-0.5"/>
<text text-anchor="middle" x="54" y="-7.5" font-family="Helvetica,sans-Serif" font-size="10.00">QtGlobal</text>
</a>
</g>
</g>
<!-- Node3&#45;&gt;Node4 -->
<g id="edge3" class="edge">
<title>Node3&#45;&gt;Node4</title>
<path fill="none" stroke="midnightblue" d="M54,-56.08C54,-49.01 54,-38.86 54,-29.99"/>
<polygon fill="midnightblue" stroke="midnightblue" points="57.5,-29.75 54,-19.75 50.5,-29.75 57.5,-29.75"/>
</g>
<!-- Node5&#45;&gt;Node3 -->
<g id="edge5" class="edge">
<title>Node5&#45;&gt;Node3</title>
<path fill="none" stroke="midnightblue" d="M77.38,-112.08C73.54,-104.69 67.98,-93.95 63.24,-84.81"/>
<polygon fill="midnightblue" stroke="midnightblue" points="66.25,-83.02 58.54,-75.75 60.03,-86.24 66.25,-83.02"/>
</g>
<!-- Node6&#45;&gt;Node5 -->
<g id="edge7" class="edge">
<title>Node6&#45;&gt;Node5</title>
<path fill="none" stroke="midnightblue" d="M124.58,-168.08C117.15,-160.22 106.15,-148.57 97.19,-139.08"/>
<polygon fill="midnightblue" stroke="midnightblue" points="99.68,-136.62 90.26,-131.75 94.59,-141.42 99.68,-136.62"/>
</g>
<!-- Node7 -->
<g id="node7" class="node">
<title>Node7</title>
<g id="a_node7"><a xlink:title=" ">
<polygon fill="none" stroke="#bfbfbf" points="126.5,-112.5 126.5,-131.5 167.5,-131.5 167.5,-112.5 126.5,-112.5"/>
<text text-anchor="middle" x="147" y="-119.5" font-family="Helvetica,sans-Serif" font-size="10.00">QList</text>
</a>
</g>
</g>
<!-- Node6&#45;&gt;Node7 -->
<g id="edge8" class="edge">
<title>Node6&#45;&gt;Node7</title>
<path fill="none" stroke="midnightblue" d="M135.31,-168.08C137.17,-160.93 139.84,-150.64 142.15,-141.69"/>
<polygon fill="midnightblue" stroke="midnightblue" points="145.61,-142.31 144.73,-131.75 138.83,-140.55 145.61,-142.31"/>
</g>
</g>
</svg>
