<?xml version="1.0" encoding="UTF-8" standalone="no"?>
<!DOCTYPE svg PUBLIC "-//W3C//DTD SVG 1.1//EN"
 "http://www.w3.org/Graphics/SVG/1.1/DTD/svg11.dtd">
<!-- Generated by graphviz version 2.43.0 (0)
 -->
<!-- Title: capabilitiesmessage.cpp Pages: 1 -->
<svg width="408pt" height="364pt"
 viewBox="0.00 0.00 407.50 364.00" xmlns="http://www.w3.org/2000/svg" xmlns:xlink="http://www.w3.org/1999/xlink">
<g id="graph0" class="graph" transform="scale(1 1) rotate(0) translate(4 360)">
<title>capabilitiesmessage.cpp</title>
<!-- Node1 -->
<g id="node1" class="node">
<title>Node1</title>
<g id="a_node1"><a xlink:title=" ">
<polygon fill="#bfbfbf" stroke="black" points="192.5,-336.5 192.5,-355.5 329.5,-355.5 329.5,-336.5 192.5,-336.5"/>
<text text-anchor="middle" x="261" y="-343.5" font-family="Helvetica,sans-Serif" font-size="10.00">capabilitiesmessage.cpp</text>
</a>
</g>
</g>
<!-- Node2 -->
<g id="node2" class="node">
<title>Node2</title>
<g id="a_node2"><a xlink:href="capabilitiesmessage_8h.html" target="_top" xlink:title=" ">
<polygon fill="none" stroke="black" points="0,-280.5 0,-299.5 126,-299.5 126,-280.5 0,-280.5"/>
<text text-anchor="middle" x="63" y="-287.5" font-family="Helvetica,sans-Serif" font-size="10.00">capabilitiesmessage.h</text>
</a>
</g>
</g>
<!-- Node1&#45;&gt;Node2 -->
<g id="edge1" class="edge">
<title>Node1&#45;&gt;Node2</title>
<path fill="none" stroke="midnightblue" d="M229.63,-336.44C195.74,-327.2 141.6,-312.44 104.28,-302.26"/>
<polygon fill="midnightblue" stroke="midnightblue" points="104.8,-298.77 94.23,-299.52 102.95,-305.52 104.8,-298.77"/>
</g>
<!-- Node7 -->
<g id="node7" class="node">
<title>Node7</title>
<g id="a_node7"><a xlink:title=" ">
<polygon fill="none" stroke="#bfbfbf" points="241,-56.5 241,-75.5 297,-75.5 297,-56.5 241,-56.5"/>
<text text-anchor="middle" x="269" y="-63.5" font-family="Helvetica,sans-Serif" font-size="10.00">QDebug</text>
</a>
</g>
</g>
<!-- Node1&#45;&gt;Node7 -->
<g id="edge15" class="edge">
<title>Node1&#45;&gt;Node7</title>
<path fill="none" stroke="midnightblue" d="M267.81,-336.46C281.28,-318.69 310,-275.98 310,-235 310,-235 310,-235 310,-177 310,-142.52 292.09,-105.56 279.94,-84.47"/>
<polygon fill="midnightblue" stroke="midnightblue" points="282.84,-82.49 274.7,-75.71 276.84,-86.09 282.84,-82.49"/>
</g>
<!-- Node8 -->
<g id="node8" class="node">
<title>Node8</title>
<g id="a_node8"><a xlink:href="capabilitiesmessage__p_8h.html" target="_top" xlink:title=" ">
<polygon fill="none" stroke="black" points="144.5,-280.5 144.5,-299.5 281.5,-299.5 281.5,-280.5 144.5,-280.5"/>
<text text-anchor="middle" x="213" y="-287.5" font-family="Helvetica,sans-Serif" font-size="10.00">capabilitiesmessage_p.h</text>
</a>
</g>
</g>
<!-- Node1&#45;&gt;Node8 -->
<g id="edge8" class="edge">
<title>Node1&#45;&gt;Node8</title>
<path fill="none" stroke="midnightblue" d="M253.07,-336.08C246.15,-328.3 235.93,-316.8 227.55,-307.37"/>
<polygon fill="midnightblue" stroke="midnightblue" points="230.04,-304.9 220.78,-299.75 224.81,-309.55 230.04,-304.9"/>
</g>
<!-- Node12 -->
<g id="node12" class="node">
<title>Node12</title>
<g id="a_node12"><a xlink:title=" ">
<polygon fill="none" stroke="#bfbfbf" points="338.5,-280.5 338.5,-299.5 399.5,-299.5 399.5,-280.5 338.5,-280.5"/>
<text text-anchor="middle" x="369" y="-287.5" font-family="Helvetica,sans-Serif" font-size="10.00">QtEndian</text>
</a>
</g>
</g>
<!-- Node1&#45;&gt;Node12 -->
<g id="edge16" class="edge">
<title>Node1&#45;&gt;Node12</title>
<path fill="none" stroke="midnightblue" d="M278.35,-336.32C295.67,-327.66 322.52,-314.24 342.5,-304.25"/>
<polygon fill="midnightblue" stroke="midnightblue" points="344.31,-307.26 351.69,-299.65 341.18,-301 344.31,-307.26"/>
</g>
<!-- Node3 -->
<g id="node3" class="node">
<title>Node3</title>
<g id="a_node3"><a xlink:href="fitdatamessage_8h.html" target="_top" xlink:title=" ">
<polygon fill="none" stroke="black" points="12.5,-168.5 12.5,-187.5 113.5,-187.5 113.5,-168.5 12.5,-168.5"/>
<text text-anchor="middle" x="63" y="-175.5" font-family="Helvetica,sans-Serif" font-size="10.00">fitdatamessage.h</text>
</a>
</g>
</g>
<!-- Node2&#45;&gt;Node3 -->
<g id="edge2" class="edge">
<title>Node2&#45;&gt;Node3</title>
<path fill="none" stroke="midnightblue" d="M63,-280.37C63,-262.62 63,-221.67 63,-197.6"/>
<polygon fill="midnightblue" stroke="midnightblue" points="66.5,-197.59 63,-187.59 59.5,-197.59 66.5,-197.59"/>
</g>
<!-- Node4 -->
<g id="node4" class="node">
<title>Node4</title>
<g id="a_node4"><a xlink:href="QtFit__global_8h.html" target="_top" xlink:title=" ">
<polygon fill="none" stroke="black" points="99,-56.5 99,-75.5 183,-75.5 183,-56.5 99,-56.5"/>
<text text-anchor="middle" x="141" y="-63.5" font-family="Helvetica,sans-Serif" font-size="10.00">QtFit_global.h</text>
</a>
</g>
</g>
<!-- Node3&#45;&gt;Node4 -->
<g id="edge3" class="edge">
<title>Node3&#45;&gt;Node4</title>
<path fill="none" stroke="midnightblue" d="M69.12,-168.37C81.99,-150.22 112.07,-107.8 128.95,-83.99"/>
<polygon fill="midnightblue" stroke="midnightblue" points="131.98,-85.77 134.91,-75.59 126.27,-81.72 131.98,-85.77"/>
</g>
<!-- Node6 -->
<g id="node6" class="node">
<title>Node6</title>
<g id="a_node6"><a xlink:href="types_8h.html" target="_top" xlink:title="Types defined by the ANT+ FIT SDK.">
<polygon fill="none" stroke="black" points="169.5,-112.5 169.5,-131.5 222.5,-131.5 222.5,-112.5 169.5,-112.5"/>
<text text-anchor="middle" x="196" y="-119.5" font-family="Helvetica,sans-Serif" font-size="10.00">types.h</text>
</a>
</g>
</g>
<!-- Node3&#45;&gt;Node6 -->
<g id="edge5" class="edge">
<title>Node3&#45;&gt;Node6</title>
<path fill="none" stroke="midnightblue" d="M84.07,-168.44C106.06,-159.52 140.73,-145.44 165.66,-135.32"/>
<polygon fill="midnightblue" stroke="midnightblue" points="167.08,-138.52 175.02,-131.52 164.44,-132.04 167.08,-138.52"/>
</g>
<!-- Node5 -->
<g id="node5" class="node">
<title>Node5</title>
<g id="a_node5"><a xlink:title=" ">
<polygon fill="none" stroke="#bfbfbf" points="111.5,-0.5 111.5,-19.5 170.5,-19.5 170.5,-0.5 111.5,-0.5"/>
<text text-anchor="middle" x="141" y="-7.5" font-family="Helvetica,sans-Serif" font-size="10.00">QtGlobal</text>
</a>
</g>
</g>
<!-- Node4&#45;&gt;Node5 -->
<g id="edge4" class="edge">
<title>Node4&#45;&gt;Node5</title>
<path fill="none" stroke="midnightblue" d="M141,-56.08C141,-49.01 141,-38.86 141,-29.99"/>
<polygon fill="midnightblue" stroke="midnightblue" points="144.5,-29.75 141,-19.75 137.5,-29.75 144.5,-29.75"/>
</g>
<!-- Node6&#45;&gt;Node4 -->
<g id="edge6" class="edge">
<title>Node6&#45;&gt;Node4</title>
<path fill="none" stroke="midnightblue" d="M186.92,-112.08C178.83,-104.14 166.8,-92.34 157.09,-82.8"/>
<polygon fill="midnightblue" stroke="midnightblue" points="159.5,-80.26 149.91,-75.75 154.6,-85.25 159.5,-80.26"/>
</g>
<!-- Node6&#45;&gt;Node7 -->
<g id="edge7" class="edge">
<title>Node6&#45;&gt;Node7</title>
<path fill="none" stroke="midnightblue" d="M207.73,-112.32C218.84,-104.11 235.74,-91.6 248.98,-81.81"/>
<polygon fill="midnightblue" stroke="midnightblue" points="251.1,-84.59 257.06,-75.83 246.94,-78.97 251.1,-84.59"/>
</g>
<!-- Node9 -->
<g id="node9" class="node">
<title>Node9</title>
<g id="a_node9"><a xlink:href="fitdatamessage__p_8h.html" target="_top" xlink:title=" ">
<polygon fill="none" stroke="black" points="144.5,-224.5 144.5,-243.5 257.5,-243.5 257.5,-224.5 144.5,-224.5"/>
<text text-anchor="middle" x="201" y="-231.5" font-family="Helvetica,sans-Serif" font-size="10.00">fitdatamessage_p.h</text>
</a>
</g>
</g>
<!-- Node8&#45;&gt;Node9 -->
<g id="edge9" class="edge">
<title>Node8&#45;&gt;Node9</title>
<path fill="none" stroke="midnightblue" d="M211.02,-280.08C209.43,-272.93 207.14,-262.64 205.15,-253.69"/>
<polygon fill="midnightblue" stroke="midnightblue" points="208.53,-252.75 202.94,-243.75 201.7,-254.27 208.53,-252.75"/>
</g>
<!-- Node9&#45;&gt;Node4 -->
<g id="edge10" class="edge">
<title>Node9&#45;&gt;Node4</title>
<path fill="none" stroke="midnightblue" d="M197.19,-224.47C189.57,-207.21 172.13,-166.85 160,-132 154.56,-116.39 149.37,-98.31 145.79,-85.19"/>
<polygon fill="midnightblue" stroke="midnightblue" points="149.16,-84.25 143.19,-75.5 142.4,-86.07 149.16,-84.25"/>
</g>
<!-- Node9&#45;&gt;Node6 -->
<g id="edge11" class="edge">
<title>Node9&#45;&gt;Node6</title>
<path fill="none" stroke="midnightblue" d="M200.61,-224.37C199.8,-206.62 197.94,-165.67 196.85,-141.6"/>
<polygon fill="midnightblue" stroke="midnightblue" points="200.34,-141.42 196.39,-131.59 193.35,-141.74 200.34,-141.42"/>
</g>
<!-- Node10 -->
<g id="node10" class="node">
<title>Node10</title>
<g id="a_node10"><a xlink:href="types__p_8h.html" target="_top" xlink:title=" ">
<polygon fill="none" stroke="black" points="218,-168.5 218,-187.5 282,-187.5 282,-168.5 218,-168.5"/>
<text text-anchor="middle" x="250" y="-175.5" font-family="Helvetica,sans-Serif" font-size="10.00">types_p.h</text>
</a>
</g>
</g>
<!-- Node9&#45;&gt;Node10 -->
<g id="edge12" class="edge">
<title>Node9&#45;&gt;Node10</title>
<path fill="none" stroke="midnightblue" d="M209.09,-224.08C216.16,-216.3 226.59,-204.8 235.15,-195.37"/>
<polygon fill="midnightblue" stroke="midnightblue" points="237.93,-197.51 242.06,-187.75 232.75,-192.8 237.93,-197.51"/>
</g>
<!-- Node10&#45;&gt;Node6 -->
<g id="edge13" class="edge">
<title>Node10&#45;&gt;Node6</title>
<path fill="none" stroke="midnightblue" d="M241.08,-168.08C233.22,-160.22 221.57,-148.57 212.08,-139.08"/>
<polygon fill="midnightblue" stroke="midnightblue" points="214.3,-136.35 204.75,-131.75 209.35,-141.3 214.3,-136.35"/>
</g>
<!-- Node11 -->
<g id="node11" class="node">
<title>Node11</title>
<g id="a_node11"><a xlink:title=" ">
<polygon fill="none" stroke="#bfbfbf" points="240.5,-112.5 240.5,-131.5 281.5,-131.5 281.5,-112.5 240.5,-112.5"/>
<text text-anchor="middle" x="261" y="-119.5" font-family="Helvetica,sans-Serif" font-size="10.00">QList</text>
</a>
</g>
</g>
<!-- Node10&#45;&gt;Node11 -->
<g id="edge14" class="edge">
<title>Node10&#45;&gt;Node11</title>
<path fill="none" stroke="midnightblue" d="M251.82,-168.08C253.27,-160.93 255.37,-150.64 257.19,-141.69"/>
<polygon fill="midnightblue" stroke="midnightblue" points="260.65,-142.25 259.22,-131.75 253.79,-140.85 260.65,-142.25"/>
</g>
</g>
</svg>
