<?xml version="1.0" encoding="UTF-8" standalone="no"?>
<!DOCTYPE svg PUBLIC "-//W3C//DTD SVG 1.1//EN"
 "http://www.w3.org/Graphics/SVG/1.1/DTD/svg11.dtd">
<!-- Generated by graphviz version 2.43.0 (0)
 -->
<!-- Title: capabilitiesmessage.h Pages: 1 -->
<svg width="282pt" height="84pt"
 viewBox="0.00 0.00 281.50 84.00" xmlns="http://www.w3.org/2000/svg" xmlns:xlink="http://www.w3.org/1999/xlink">
<g id="graph0" class="graph" transform="scale(1 1) rotate(0) translate(4 80)">
<title>capabilitiesmessage.h</title>
<!-- Node1 -->
<g id="node1" class="node">
<title>Node1</title>
<g id="a_node1"><a xlink:title=" ">
<polygon fill="#bfbfbf" stroke="black" points="78.5,-56.5 78.5,-75.5 204.5,-75.5 204.5,-56.5 78.5,-56.5"/>
<text text-anchor="middle" x="141.5" y="-63.5" font-family="Helvetica,sans-Serif" font-size="10.00">capabilitiesmessage.h</text>
</a>
</g>
</g>
<!-- Node2 -->
<g id="node2" class="node">
<title>Node2</title>
<g id="a_node2"><a xlink:href="capabilitiesmessage_8cpp.html" target="_top" xlink:title=" ">
<polygon fill="none" stroke="black" points="0,-0.5 0,-19.5 137,-19.5 137,-0.5 0,-0.5"/>
<text text-anchor="middle" x="68.5" y="-7.5" font-family="Helvetica,sans-Serif" font-size="10.00">capabilitiesmessage.cpp</text>
</a>
</g>
</g>
<!-- Node1&#45;&gt;Node2 -->
<g id="edge1" class="edge">
<title>Node1&#45;&gt;Node2</title>
<path fill="none" stroke="midnightblue" d="M121.36,-50.1C108.22,-40.38 91.52,-28.03 80.44,-19.83"/>
<polygon fill="midnightblue" stroke="midnightblue" points="119.65,-53.19 129.77,-56.32 123.81,-47.56 119.65,-53.19"/>
</g>
<!-- Node3 -->
<g id="node3" class="node">
<title>Node3</title>
<g id="a_node3"><a xlink:href="fitdatamessages_8cpp.html" target="_top" xlink:title=" ">
<polygon fill="none" stroke="black" points="155.5,-0.5 155.5,-19.5 273.5,-19.5 273.5,-0.5 155.5,-0.5"/>
<text text-anchor="middle" x="214.5" y="-7.5" font-family="Helvetica,sans-Serif" font-size="10.00">fitdatamessages.cpp</text>
</a>
</g>
</g>
<!-- Node1&#45;&gt;Node3 -->
<g id="edge2" class="edge">
<title>Node1&#45;&gt;Node3</title>
<path fill="none" stroke="midnightblue" d="M161.64,-50.1C174.78,-40.38 191.48,-28.03 202.56,-19.83"/>
<polygon fill="midnightblue" stroke="midnightblue" points="159.19,-47.56 153.23,-56.32 163.35,-53.19 159.19,-47.56"/>
</g>
</g>
</svg>
