<?xml version="1.0" encoding="UTF-8" standalone="no"?>
<!DOCTYPE svg PUBLIC "-//W3C//DTD SVG 1.1//EN"
 "http://www.w3.org/Graphics/SVG/1.1/DTD/svg11.dtd">
<!-- Generated by graphviz version 2.43.0 (0)
 -->
<!-- Title: SoftwareMessagePrivate Pages: 1 -->
<svg width="288pt" height="95pt"
 viewBox="0.00 0.00 287.50 95.00" xmlns="http://www.w3.org/2000/svg" xmlns:xlink="http://www.w3.org/1999/xlink">
<g id="graph0" class="graph" transform="scale(1 1) rotate(0) translate(4 91)">
<title>SoftwareMessagePrivate</title>
<!-- Node1 -->
<g id="node1" class="node">
<title>Node1</title>
<g id="a_node1"><a xlink:title=" ">
<polygon fill="#bfbfbf" stroke="black" points="0,-0.5 0,-19.5 137,-19.5 137,-0.5 0,-0.5"/>
<text text-anchor="middle" x="68.5" y="-7.5" font-family="Helvetica,sans-Serif" font-size="10.00">SoftwareMessagePrivate</text>
</a>
</g>
</g>
<!-- Node2 -->
<g id="node2" class="node">
<title>Node2</title>
<g id="a_node2"><a xlink:href="classAbstractDataMessagePrivate.html" target="_top" xlink:title=" ">
<polygon fill="none" stroke="black" points="87.5,-67.5 87.5,-86.5 245.5,-86.5 245.5,-67.5 87.5,-67.5"/>
<text text-anchor="middle" x="166.5" y="-74.5" font-family="Helvetica,sans-Serif" font-size="10.00">AbstractDataMessagePrivate</text>
</a>
</g>
</g>
<!-- Node2&#45;&gt;Node1 -->
<g id="edge1" class="edge">
<title>Node2&#45;&gt;Node1</title>
<path fill="none" stroke="midnightblue" d="M144.78,-61.59C125.39,-48.74 97.64,-30.33 81.51,-19.63"/>
<polygon fill="midnightblue" stroke="midnightblue" points="143.02,-64.62 153.28,-67.23 146.88,-58.79 143.02,-64.62"/>
</g>
<!-- Node3 -->
<g id="node3" class="node">
<title>Node3</title>
<g id="a_node3"><a xlink:href="classAbstractDataMessage.html" target="_top" xlink:title="The AbstractDataMessage class is the polymorphic base class for all FIT Data Message classes.">
<polygon fill="none" stroke="black" points="155.5,-0.5 155.5,-19.5 279.5,-19.5 279.5,-0.5 155.5,-0.5"/>
<text text-anchor="middle" x="217.5" y="-7.5" font-family="Helvetica,sans-Serif" font-size="10.00">AbstractDataMessage</text>
</a>
</g>
</g>
<!-- Node2&#45;&gt;Node3 -->
<g id="edge3" class="edge">
<title>Node2&#45;&gt;Node3</title>
<path fill="none" stroke="#9a32cd" stroke-dasharray="5,2" d="M160.67,-57.37C159.71,-50.83 159.98,-43.7 163.5,-38 168.73,-29.53 177.52,-23.63 186.5,-19.55"/>
<polygon fill="#9a32cd" stroke="#9a32cd" points="157.36,-58.56 163.1,-67.47 164.17,-56.93 157.36,-58.56"/>
<text text-anchor="middle" x="177.5" y="-41" font-family="Helvetica,sans-Serif" font-size="10.00"> d_ptr</text>
</g>
<!-- Node3&#45;&gt;Node2 -->
<g id="edge2" class="edge">
<title>Node3&#45;&gt;Node2</title>
<path fill="none" stroke="#9a32cd" stroke-dasharray="5,2" d="M208.75,-28.57C205.07,-35.25 200.48,-42.75 195.5,-49 190.1,-55.78 182.99,-62.42 177.16,-67.43"/>
<polygon fill="#9a32cd" stroke="#9a32cd" points="211.91,-30.09 213.44,-19.61 205.71,-26.84 211.91,-30.09"/>
<text text-anchor="middle" x="216.5" y="-41" font-family="Helvetica,sans-Serif" font-size="10.00"> q_ptr</text>
</g>
</g>
</svg>
