<?xml version="1.0" encoding="UTF-8" standalone="no"?>
<!DOCTYPE svg PUBLIC "-//W3C//DTD SVG 1.1//EN"
 "http://www.w3.org/Graphics/SVG/1.1/DTD/svg11.dtd">
<!-- Generated by graphviz version 2.43.0 (0)
 -->
<!-- Title: SegmentIdMessagePrivate::setField Pages: 1 -->
<svg width="476pt" height="66pt"
 viewBox="0.00 0.00 476.00 66.00" xmlns="http://www.w3.org/2000/svg" xmlns:xlink="http://www.w3.org/1999/xlink">
<g id="graph0" class="graph" transform="scale(1 1) rotate(0) translate(4 62)">
<title>SegmentIdMessagePrivate::setField</title>
<!-- Node1 -->
<g id="node1" class="node">
<title>Node1</title>
<g id="a_node1"><a xlink:title=" ">
<polygon fill="#bfbfbf" stroke="black" points="0,-14 0,-44 147,-44 147,-14 0,-14"/>
<text text-anchor="start" x="8" y="-32" font-family="Helvetica,sans-Serif" font-size="10.00">SegmentIdMessagePrivate</text>
<text text-anchor="middle" x="73.5" y="-21" font-family="Helvetica,sans-Serif" font-size="10.00">::setField</text>
</a>
</g>
</g>
<!-- Node2 -->
<g id="node2" class="node">
<title>Node2</title>
<g id="a_node2"><a xlink:href="classAbstractDataMessagePrivate.html#ad11748b005c364c65c2f1f03eae674cc" target="_top" xlink:title=" ">
<polygon fill="none" stroke="black" points="183,-14 183,-44 341,-44 341,-14 183,-14"/>
<text text-anchor="start" x="191" y="-32" font-family="Helvetica,sans-Serif" font-size="10.00">AbstractDataMessagePrivate</text>
<text text-anchor="middle" x="262" y="-21" font-family="Helvetica,sans-Serif" font-size="10.00">::verify</text>
</a>
</g>
</g>
<!-- Node1&#45;&gt;Node2 -->
<g id="edge1" class="edge">
<title>Node1&#45;&gt;Node2</title>
<path fill="none" stroke="midnightblue" d="M147.14,-29C155.52,-29 164.13,-29 172.69,-29"/>
<polygon fill="midnightblue" stroke="midnightblue" points="172.7,-32.5 182.7,-29 172.7,-25.5 172.7,-32.5"/>
</g>
<!-- Node3 -->
<g id="node3" class="node">
<title>Node3</title>
<g id="a_node3"><a xlink:href="abstractdatamessage_8cpp.html#a3d7ec006b7bf32e4ea754e0ce7a0d3a4" target="_top" xlink:title=" ">
<polygon fill="none" stroke="black" points="377,-38.5 377,-57.5 468,-57.5 468,-38.5 377,-38.5"/>
<text text-anchor="middle" x="422.5" y="-45.5" font-family="Helvetica,sans-Serif" font-size="10.00">verifyBaseType</text>
</a>
</g>
</g>
<!-- Node2&#45;&gt;Node3 -->
<g id="edge2" class="edge">
<title>Node2&#45;&gt;Node3</title>
<path fill="none" stroke="midnightblue" d="M341.32,-38.39C349.88,-39.41 358.45,-40.44 366.63,-41.42"/>
<polygon fill="midnightblue" stroke="midnightblue" points="366.42,-44.92 376.76,-42.64 367.25,-37.97 366.42,-44.92"/>
</g>
<!-- Node4 -->
<g id="node4" class="node">
<title>Node4</title>
<g id="a_node4"><a xlink:href="abstractdatamessage_8cpp.html#a0d4ab57f84f4b95732a6af0267777873" target="_top" xlink:title=" ">
<polygon fill="none" stroke="black" points="378.5,-0.5 378.5,-19.5 466.5,-19.5 466.5,-0.5 378.5,-0.5"/>
<text text-anchor="middle" x="422.5" y="-7.5" font-family="Helvetica,sans-Serif" font-size="10.00">verifyDataSize</text>
</a>
</g>
</g>
<!-- Node2&#45;&gt;Node4 -->
<g id="edge3" class="edge">
<title>Node2&#45;&gt;Node4</title>
<path fill="none" stroke="midnightblue" d="M341.32,-19.61C350.51,-18.51 359.72,-17.41 368.46,-16.36"/>
<polygon fill="midnightblue" stroke="midnightblue" points="368.95,-19.83 378.46,-15.16 368.11,-12.87 368.95,-19.83"/>
</g>
</g>
</svg>
