<?xml version="1.0" encoding="UTF-8" standalone="no"?>
<!DOCTYPE svg PUBLIC "-//W3C//DTD SVG 1.1//EN"
 "http://www.w3.org/Graphics/SVG/1.1/DTD/svg11.dtd">
<!-- Generated by graphviz version 2.43.0 (0)
 -->
<!-- Title: WorkoutStepMessagePrivate::setField Pages: 1 -->
<svg width="460pt" height="102pt"
 viewBox="0.00 0.00 460.00 101.50" xmlns="http://www.w3.org/2000/svg" xmlns:xlink="http://www.w3.org/1999/xlink">
<g id="graph0" class="graph" transform="scale(1 1) rotate(0) translate(4 97.5)">
<title>WorkoutStepMessagePrivate::setField</title>
<!-- Node1 -->
<g id="node1" class="node">
<title>Node1</title>
<g id="a_node1"><a xlink:title=" ">
<polygon fill="#bfbfbf" stroke="black" points="0,-38 0,-68 156,-68 156,-38 0,-38"/>
<text text-anchor="start" x="8" y="-56" font-family="Helvetica,sans-Serif" font-size="10.00">WorkoutStepMessagePrivate</text>
<text text-anchor="middle" x="78" y="-45" font-family="Helvetica,sans-Serif" font-size="10.00">::setField</text>
</a>
</g>
</g>
<!-- Node2 -->
<g id="node2" class="node">
<title>Node2</title>
<g id="a_node2"><a xlink:href="classFitDataMessagePrivate.html#a80365775402f7e855a8af29238d128a3" target="_top" xlink:title=" ">
<polygon fill="none" stroke="black" points="192,-63 192,-93 322,-93 322,-63 192,-63"/>
<text text-anchor="start" x="200" y="-81" font-family="Helvetica,sans-Serif" font-size="10.00">FitDataMessagePrivate</text>
<text text-anchor="middle" x="257" y="-70" font-family="Helvetica,sans-Serif" font-size="10.00">::setField</text>
</a>
</g>
</g>
<!-- Node1&#45;&gt;Node2 -->
<g id="edge1" class="edge">
<title>Node1&#45;&gt;Node2</title>
<path fill="none" stroke="midnightblue" d="M156.12,-63.89C164.69,-65.1 173.41,-66.33 181.94,-67.54"/>
<polygon fill="midnightblue" stroke="midnightblue" points="181.46,-71.01 191.85,-68.94 182.44,-64.07 181.46,-71.01"/>
</g>
<!-- Node3 -->
<g id="node3" class="node">
<title>Node3</title>
<g id="a_node3"><a xlink:href="classFitDataMessagePrivate.html#a4a9a5ee83dbe87dcc25f3fc5f50f2284" target="_top" xlink:title=" ">
<polygon fill="none" stroke="black" points="192,-14 192,-44 322,-44 322,-14 192,-14"/>
<text text-anchor="start" x="200" y="-32" font-family="Helvetica,sans-Serif" font-size="10.00">FitDataMessagePrivate</text>
<text text-anchor="middle" x="257" y="-21" font-family="Helvetica,sans-Serif" font-size="10.00">::verify</text>
</a>
</g>
</g>
<!-- Node1&#45;&gt;Node3 -->
<g id="edge2" class="edge">
<title>Node1&#45;&gt;Node3</title>
<path fill="none" stroke="midnightblue" d="M156.12,-42.54C164.69,-41.38 173.41,-40.2 181.94,-39.04"/>
<polygon fill="midnightblue" stroke="midnightblue" points="182.41,-42.51 191.85,-37.7 181.47,-35.57 182.41,-42.51"/>
</g>
<!-- Node4 -->
<g id="node4" class="node">
<title>Node4</title>
<g id="a_node4"><a xlink:href="fitdatamessage_8cpp.html#a3d7ec006b7bf32e4ea754e0ce7a0d3a4" target="_top" xlink:title=" ">
<polygon fill="none" stroke="black" points="359.5,-38.5 359.5,-57.5 450.5,-57.5 450.5,-38.5 359.5,-38.5"/>
<text text-anchor="middle" x="405" y="-45.5" font-family="Helvetica,sans-Serif" font-size="10.00">verifyBaseType</text>
</a>
</g>
</g>
<!-- Node3&#45;&gt;Node4 -->
<g id="edge3" class="edge">
<title>Node3&#45;&gt;Node4</title>
<path fill="none" stroke="midnightblue" d="M322.04,-37.33C331.07,-38.51 340.29,-39.71 349.12,-40.86"/>
<polygon fill="midnightblue" stroke="midnightblue" points="348.93,-44.36 359.29,-42.18 349.83,-37.42 348.93,-44.36"/>
</g>
<!-- Node5 -->
<g id="node5" class="node">
<title>Node5</title>
<g id="a_node5"><a xlink:href="fitdatamessage_8cpp.html#a3e1c894ea22d300479f8a7f822127d03" target="_top" xlink:title=" ">
<polygon fill="none" stroke="black" points="358,-0.5 358,-19.5 452,-19.5 452,-0.5 358,-0.5"/>
<text text-anchor="middle" x="405" y="-7.5" font-family="Helvetica,sans-Serif" font-size="10.00">verifyDataSieze</text>
</a>
</g>
</g>
<!-- Node3&#45;&gt;Node5 -->
<g id="edge4" class="edge">
<title>Node3&#45;&gt;Node5</title>
<path fill="none" stroke="midnightblue" d="M322.04,-20.67C330.64,-19.55 339.42,-18.4 347.87,-17.3"/>
<polygon fill="midnightblue" stroke="midnightblue" points="348.53,-20.75 358,-15.99 347.63,-13.81 348.53,-20.75"/>
</g>
</g>
</svg>
