<?xml version="1.0" encoding="UTF-8" standalone="no"?>
<!DOCTYPE svg PUBLIC "-//W3C//DTD SVG 1.1//EN"
 "http://www.w3.org/Graphics/SVG/1.1/DTD/svg11.dtd">
<!-- Generated by graphviz version 2.43.0 (0)
 -->
<!-- Title: WatchfaceSettingsMessage Pages: 1 -->
<svg width="336pt" height="95pt"
 viewBox="0.00 0.00 335.50 95.00" xmlns="http://www.w3.org/2000/svg" xmlns:xlink="http://www.w3.org/1999/xlink">
<g id="graph0" class="graph" transform="scale(1 1) rotate(0) translate(4 91)">
<title>WatchfaceSettingsMessage</title>
<!-- Node1 -->
<g id="node1" class="node">
<title>Node1</title>
<g id="a_node1"><a xlink:title="The WatchfaceSettingsMessage class represents a FIT WatchfaceSettingsMessage data message.">
<polygon fill="#bfbfbf" stroke="black" points="0,-0.5 0,-19.5 151,-19.5 151,-0.5 0,-0.5"/>
<text text-anchor="middle" x="75.5" y="-7.5" font-family="Helvetica,sans-Serif" font-size="10.00">WatchfaceSettingsMessage</text>
</a>
</g>
</g>
<!-- Node2 -->
<g id="node2" class="node">
<title>Node2</title>
<g id="a_node2"><a xlink:href="classAbstractDataMessage.html" target="_top" xlink:title="The AbstractDataMessage class is the polymorphic base class for all FIT Data Message classes.">
<polygon fill="none" stroke="black" points="135.5,-67.5 135.5,-86.5 259.5,-86.5 259.5,-67.5 135.5,-67.5"/>
<text text-anchor="middle" x="197.5" y="-74.5" font-family="Helvetica,sans-Serif" font-size="10.00">AbstractDataMessage</text>
</a>
</g>
</g>
<!-- Node2&#45;&gt;Node1 -->
<g id="edge1" class="edge">
<title>Node2&#45;&gt;Node1</title>
<path fill="none" stroke="midnightblue" d="M172.36,-62.6C148.19,-49.73 112.4,-30.66 91.77,-19.67"/>
<polygon fill="midnightblue" stroke="midnightblue" points="170.83,-65.76 181.3,-67.37 174.12,-59.58 170.83,-65.76"/>
</g>
<!-- Node3 -->
<g id="node3" class="node">
<title>Node3</title>
<g id="a_node3"><a xlink:href="classAbstractDataMessagePrivate.html" target="_top" xlink:title=" ">
<polygon fill="none" stroke="black" points="169.5,-0.5 169.5,-19.5 327.5,-19.5 327.5,-0.5 169.5,-0.5"/>
<text text-anchor="middle" x="248.5" y="-7.5" font-family="Helvetica,sans-Serif" font-size="10.00">AbstractDataMessagePrivate</text>
</a>
</g>
</g>
<!-- Node2&#45;&gt;Node3 -->
<g id="edge3" class="edge">
<title>Node2&#45;&gt;Node3</title>
<path fill="none" stroke="#9a32cd" stroke-dasharray="5,2" d="M191.67,-57.37C190.71,-50.83 190.98,-43.7 194.5,-38 199.73,-29.53 208.52,-23.63 217.5,-19.55"/>
<polygon fill="#9a32cd" stroke="#9a32cd" points="188.36,-58.56 194.1,-67.47 195.17,-56.93 188.36,-58.56"/>
<text text-anchor="middle" x="208.5" y="-41" font-family="Helvetica,sans-Serif" font-size="10.00"> q_ptr</text>
</g>
<!-- Node3&#45;&gt;Node2 -->
<g id="edge2" class="edge">
<title>Node3&#45;&gt;Node2</title>
<path fill="none" stroke="#9a32cd" stroke-dasharray="5,2" d="M239.75,-28.57C236.07,-35.25 231.48,-42.75 226.5,-49 221.1,-55.78 213.99,-62.42 208.16,-67.43"/>
<polygon fill="#9a32cd" stroke="#9a32cd" points="242.91,-30.09 244.44,-19.61 236.71,-26.84 242.91,-30.09"/>
<text text-anchor="middle" x="247.5" y="-41" font-family="Helvetica,sans-Serif" font-size="10.00"> d_ptr</text>
</g>
</g>
</svg>
