<?xml version="1.0" encoding="UTF-8" standalone="no"?>
<!DOCTYPE svg PUBLIC "-//W3C//DTD SVG 1.1//EN"
 "http://www.w3.org/Graphics/SVG/1.1/DTD/svg11.dtd">
<!-- Generated by graphviz version 2.43.0 (0)
 -->
<!-- Title: ExdScreenConfigurationMessagePrivate Pages: 1 -->
<svg width="326pt" height="106pt"
 viewBox="0.00 0.00 326.00 106.00" xmlns="http://www.w3.org/2000/svg" xmlns:xlink="http://www.w3.org/1999/xlink">
<g id="graph0" class="graph" transform="scale(1 1) rotate(0) translate(4 102)">
<title>ExdScreenConfigurationMessagePrivate</title>
<!-- Node1 -->
<g id="node1" class="node">
<title>Node1</title>
<g id="a_node1"><a xlink:title=" ">
<polygon fill="#bfbfbf" stroke="black" points="0,-0.5 0,-30.5 176,-30.5 176,-0.5 0,-0.5"/>
<text text-anchor="start" x="8" y="-18.5" font-family="Helvetica,sans-Serif" font-size="10.00">ExdScreenConfigurationMessage</text>
<text text-anchor="middle" x="88" y="-7.5" font-family="Helvetica,sans-Serif" font-size="10.00">Private</text>
</a>
</g>
</g>
<!-- Node2 -->
<g id="node2" class="node">
<title>Node2</title>
<g id="a_node2"><a xlink:href="classAbstractDataMessagePrivate.html" target="_top" xlink:title=" ">
<polygon fill="none" stroke="black" points="126,-78.5 126,-97.5 284,-97.5 284,-78.5 126,-78.5"/>
<text text-anchor="middle" x="205" y="-85.5" font-family="Helvetica,sans-Serif" font-size="10.00">AbstractDataMessagePrivate</text>
</a>
</g>
</g>
<!-- Node2&#45;&gt;Node1 -->
<g id="edge1" class="edge">
<title>Node2&#45;&gt;Node1</title>
<path fill="none" stroke="midnightblue" d="M181.99,-73.14C161.57,-60.83 131.88,-42.94 111.36,-30.58"/>
<polygon fill="midnightblue" stroke="midnightblue" points="180.28,-76.19 190.65,-78.36 183.89,-70.2 180.28,-76.19"/>
</g>
<!-- Node3 -->
<g id="node3" class="node">
<title>Node3</title>
<g id="a_node3"><a xlink:href="classAbstractDataMessage.html" target="_top" xlink:title="The AbstractDataMessage class is the polymorphic base class for all FIT Data Message classes.">
<polygon fill="none" stroke="black" points="194,-6 194,-25 318,-25 318,-6 194,-6"/>
<text text-anchor="middle" x="256" y="-13" font-family="Helvetica,sans-Serif" font-size="10.00">AbstractDataMessage</text>
</a>
</g>
</g>
<!-- Node2&#45;&gt;Node3 -->
<g id="edge3" class="edge">
<title>Node2&#45;&gt;Node3</title>
<path fill="none" stroke="#9a32cd" stroke-dasharray="5,2" d="M199.39,-68.27C198.49,-61.81 198.75,-54.76 202,-49 208.25,-37.95 219.92,-30.24 230.82,-25.11"/>
<polygon fill="#9a32cd" stroke="#9a32cd" points="196.03,-69.28 201.66,-78.25 202.85,-67.72 196.03,-69.28"/>
<text text-anchor="middle" x="216" y="-52" font-family="Helvetica,sans-Serif" font-size="10.00"> d_ptr</text>
</g>
<!-- Node3&#45;&gt;Node2 -->
<g id="edge2" class="edge">
<title>Node3&#45;&gt;Node2</title>
<path fill="none" stroke="#9a32cd" stroke-dasharray="5,2" d="M248.68,-34.41C244.91,-42.6 239.86,-52.2 234,-60 228.87,-66.82 221.91,-73.37 216.09,-78.31"/>
<polygon fill="#9a32cd" stroke="#9a32cd" points="251.99,-35.59 252.75,-25.02 245.56,-32.8 251.99,-35.59"/>
<text text-anchor="middle" x="254" y="-52" font-family="Helvetica,sans-Serif" font-size="10.00"> q_ptr</text>
</g>
</g>
</svg>
