<?xml version="1.0" encoding="UTF-8" standalone="no"?>
<!DOCTYPE svg PUBLIC "-//W3C//DTD SVG 1.1//EN"
 "http://www.w3.org/Graphics/SVG/1.1/DTD/svg11.dtd">
<!-- Generated by graphviz version 2.43.0 (0)
 -->
<!-- Title: FieldCapabilitiesMessage Pages: 1 -->
<svg width="326pt" height="95pt"
 viewBox="0.00 0.00 325.50 95.00" xmlns="http://www.w3.org/2000/svg" xmlns:xlink="http://www.w3.org/1999/xlink">
<g id="graph0" class="graph" transform="scale(1 1) rotate(0) translate(4 91)">
<title>FieldCapabilitiesMessage</title>
<!-- Node1 -->
<g id="node1" class="node">
<title>Node1</title>
<g id="a_node1"><a xlink:title="The FieldCapabilitiesMessage class represents a FIT FieldCapabilitiesMessage data message.">
<polygon fill="#bfbfbf" stroke="black" points="0,-0.5 0,-19.5 141,-19.5 141,-0.5 0,-0.5"/>
<text text-anchor="middle" x="70.5" y="-7.5" font-family="Helvetica,sans-Serif" font-size="10.00">FieldCapabilitiesMessage</text>
</a>
</g>
</g>
<!-- Node2 -->
<g id="node2" class="node">
<title>Node2</title>
<g id="a_node2"><a xlink:href="classAbstractDataMessage.html" target="_top" xlink:title="The AbstractDataMessage class is the polymorphic base class for all FIT Data Message classes.">
<polygon fill="none" stroke="black" points="125.5,-67.5 125.5,-86.5 249.5,-86.5 249.5,-67.5 125.5,-67.5"/>
<text text-anchor="middle" x="187.5" y="-74.5" font-family="Helvetica,sans-Serif" font-size="10.00">AbstractDataMessage</text>
</a>
</g>
</g>
<!-- Node2&#45;&gt;Node1 -->
<g id="edge1" class="edge">
<title>Node2&#45;&gt;Node1</title>
<path fill="none" stroke="midnightblue" d="M162.82,-62.29C139.63,-49.4 105.64,-30.52 86.03,-19.63"/>
<polygon fill="midnightblue" stroke="midnightblue" points="161.28,-65.44 171.72,-67.23 164.68,-59.32 161.28,-65.44"/>
</g>
<!-- Node3 -->
<g id="node3" class="node">
<title>Node3</title>
<g id="a_node3"><a xlink:href="classAbstractDataMessagePrivate.html" target="_top" xlink:title=" ">
<polygon fill="none" stroke="black" points="159.5,-0.5 159.5,-19.5 317.5,-19.5 317.5,-0.5 159.5,-0.5"/>
<text text-anchor="middle" x="238.5" y="-7.5" font-family="Helvetica,sans-Serif" font-size="10.00">AbstractDataMessagePrivate</text>
</a>
</g>
</g>
<!-- Node2&#45;&gt;Node3 -->
<g id="edge3" class="edge">
<title>Node2&#45;&gt;Node3</title>
<path fill="none" stroke="#9a32cd" stroke-dasharray="5,2" d="M181.67,-57.37C180.71,-50.83 180.98,-43.7 184.5,-38 189.73,-29.53 198.52,-23.63 207.5,-19.55"/>
<polygon fill="#9a32cd" stroke="#9a32cd" points="178.36,-58.56 184.1,-67.47 185.17,-56.93 178.36,-58.56"/>
<text text-anchor="middle" x="198.5" y="-41" font-family="Helvetica,sans-Serif" font-size="10.00"> q_ptr</text>
</g>
<!-- Node3&#45;&gt;Node2 -->
<g id="edge2" class="edge">
<title>Node3&#45;&gt;Node2</title>
<path fill="none" stroke="#9a32cd" stroke-dasharray="5,2" d="M229.75,-28.57C226.07,-35.25 221.48,-42.75 216.5,-49 211.1,-55.78 203.99,-62.42 198.16,-67.43"/>
<polygon fill="#9a32cd" stroke="#9a32cd" points="232.91,-30.09 234.44,-19.61 226.71,-26.84 232.91,-30.09"/>
<text text-anchor="middle" x="237.5" y="-41" font-family="Helvetica,sans-Serif" font-size="10.00"> d_ptr</text>
</g>
</g>
</svg>
