<?xml version="1.0" encoding="UTF-8" standalone="no"?>
<!DOCTYPE svg PUBLIC "-//W3C//DTD SVG 1.1//EN"
 "http://www.w3.org/Graphics/SVG/1.1/DTD/svg11.dtd">
<!-- Generated by graphviz version 2.43.0 (0)
 -->
<!-- Title: FitStreamReaderPrivate Pages: 1 -->
<svg width="141pt" height="95pt"
 viewBox="0.00 0.00 141.00 95.00" xmlns="http://www.w3.org/2000/svg" xmlns:xlink="http://www.w3.org/1999/xlink">
<g id="graph0" class="graph" transform="scale(1 1) rotate(0) translate(4 91)">
<title>FitStreamReaderPrivate</title>
<!-- Node1 -->
<g id="node1" class="node">
<title>Node1</title>
<g id="a_node1"><a xlink:title="Provides private implementation for FitStreamReader.">
<polygon fill="#bfbfbf" stroke="black" points="0,-67.5 0,-86.5 133,-86.5 133,-67.5 0,-67.5"/>
<text text-anchor="middle" x="66.5" y="-74.5" font-family="Helvetica,sans-Serif" font-size="10.00">FitStreamReaderPrivate</text>
</a>
</g>
</g>
<!-- Node2 -->
<g id="node2" class="node">
<title>Node2</title>
<g id="a_node2"><a xlink:href="classFitStreamReader.html" target="_top" xlink:title="The FitStreamReader class provides a streaming parser for reading Garmin FIT files.">
<polygon fill="none" stroke="black" points="17.5,-0.5 17.5,-19.5 115.5,-19.5 115.5,-0.5 17.5,-0.5"/>
<text text-anchor="middle" x="66.5" y="-7.5" font-family="Helvetica,sans-Serif" font-size="10.00">FitStreamReader</text>
</a>
</g>
</g>
<!-- Node1&#45;&gt;Node2 -->
<g id="edge2" class="edge">
<title>Node1&#45;&gt;Node2</title>
<path fill="none" stroke="#9a32cd" stroke-dasharray="5,2" d="M46.06,-60.29C42.98,-56.93 40.25,-53.13 38.5,-49 33.76,-37.84 43.86,-26.88 53.22,-19.62"/>
<polygon fill="#9a32cd" stroke="#9a32cd" points="43.88,-63.05 53.58,-67.31 48.66,-57.93 43.88,-63.05"/>
<text text-anchor="middle" x="52.5" y="-41" font-family="Helvetica,sans-Serif" font-size="10.00"> d_ptr</text>
</g>
<!-- Node2&#45;&gt;Node1 -->
<g id="edge1" class="edge">
<title>Node2&#45;&gt;Node1</title>
<path fill="none" stroke="#9a32cd" stroke-dasharray="5,2" d="M69.81,-29.73C70.53,-35.86 70.96,-42.72 70.5,-49 70.05,-55.05 69.05,-61.8 68.17,-67.04"/>
<polygon fill="#9a32cd" stroke="#9a32cd" points="73.25,-29.11 68.31,-19.74 66.33,-30.15 73.25,-29.11"/>
<text text-anchor="middle" x="84.5" y="-41" font-family="Helvetica,sans-Serif" font-size="10.00"> q_ptr</text>
</g>
</g>
</svg>
