<?xml version="1.0" encoding="UTF-8" standalone="no"?>
<!DOCTYPE svg PUBLIC "-//W3C//DTD SVG 1.1//EN"
 "http://www.w3.org/Graphics/SVG/1.1/DTD/svg11.dtd">
<!-- Generated by graphviz version 2.43.0 (0)
 -->
<!-- Title: MagnetometerDataMessagePrivate Pages: 1 -->
<svg width="198pt" height="152pt"
 viewBox="0.00 0.00 198.00 152.00" xmlns="http://www.w3.org/2000/svg" xmlns:xlink="http://www.w3.org/1999/xlink">
<g id="graph0" class="graph" transform="scale(1 1) rotate(0) translate(4 148)">
<title>MagnetometerDataMessagePrivate</title>
<!-- Node1 -->
<g id="node1" class="node">
<title>Node1</title>
<g id="a_node1"><a xlink:title=" ">
<polygon fill="#bfbfbf" stroke="black" points="0,-0.5 0,-19.5 190,-19.5 190,-0.5 0,-0.5"/>
<text text-anchor="middle" x="95" y="-7.5" font-family="Helvetica,sans-Serif" font-size="10.00">MagnetometerDataMessagePrivate</text>
</a>
</g>
</g>
<!-- Node2 -->
<g id="node2" class="node">
<title>Node2</title>
<g id="a_node2"><a xlink:href="classFitDataMessagePrivate.html" target="_top" xlink:title=" ">
<polygon fill="none" stroke="black" points="30,-57.5 30,-76.5 160,-76.5 160,-57.5 30,-57.5"/>
<text text-anchor="middle" x="95" y="-64.5" font-family="Helvetica,sans-Serif" font-size="10.00">FitDataMessagePrivate</text>
</a>
</g>
</g>
<!-- Node2&#45;&gt;Node1 -->
<g id="edge1" class="edge">
<title>Node2&#45;&gt;Node1</title>
<path fill="none" stroke="midnightblue" d="M95,-47.12C95,-37.82 95,-27.06 95,-19.71"/>
<polygon fill="midnightblue" stroke="midnightblue" points="91.5,-47.41 95,-57.41 98.5,-47.41 91.5,-47.41"/>
</g>
<!-- Node3 -->
<g id="node3" class="node">
<title>Node3</title>
<g id="a_node3"><a xlink:href="classFitDataMessage.html" target="_top" xlink:title="The FitDataMessage class is the polymorphic base class for all FIT Data Message classes.">
<polygon fill="none" stroke="black" points="47.5,-124.5 47.5,-143.5 142.5,-143.5 142.5,-124.5 47.5,-124.5"/>
<text text-anchor="middle" x="95" y="-131.5" font-family="Helvetica,sans-Serif" font-size="10.00">FitDataMessage</text>
</a>
</g>
</g>
<!-- Node3&#45;&gt;Node2 -->
<g id="edge2" class="edge">
<title>Node3&#45;&gt;Node2</title>
<path fill="none" stroke="#9a32cd" stroke-dasharray="5,2" d="M95,-114.04C95,-101.67 95,-86.12 95,-76.63"/>
<polygon fill="#9a32cd" stroke="#9a32cd" points="91.5,-114.23 95,-124.23 98.5,-114.23 91.5,-114.23"/>
<text text-anchor="middle" x="109" y="-98" font-family="Helvetica,sans-Serif" font-size="10.00"> q_ptr</text>
</g>
</g>
</svg>
