<?xml version="1.0" encoding="UTF-8" standalone="no"?>
<!DOCTYPE svg PUBLIC "-//W3C//DTD SVG 1.1//EN"
 "http://www.w3.org/Graphics/SVG/1.1/DTD/svg11.dtd">
<!-- Generated by graphviz version 2.43.0 (0)
 -->
<!-- Title: MagnetometerDataMessage Pages: 1 -->
<svg width="340pt" height="95pt"
 viewBox="0.00 0.00 339.50 95.00" xmlns="http://www.w3.org/2000/svg" xmlns:xlink="http://www.w3.org/1999/xlink">
<g id="graph0" class="graph" transform="scale(1 1) rotate(0) translate(4 91)">
<title>MagnetometerDataMessage</title>
<!-- Node1 -->
<g id="node1" class="node">
<title>Node1</title>
<g id="a_node1"><a xlink:title="The MagnetometerDataMessage class represents a FIT MagnetometerDataMessage data message.">
<polygon fill="#bfbfbf" stroke="black" points="0,-0.5 0,-19.5 155,-19.5 155,-0.5 0,-0.5"/>
<text text-anchor="middle" x="77.5" y="-7.5" font-family="Helvetica,sans-Serif" font-size="10.00">MagnetometerDataMessage</text>
</a>
</g>
</g>
<!-- Node2 -->
<g id="node2" class="node">
<title>Node2</title>
<g id="a_node2"><a xlink:href="classAbstractDataMessage.html" target="_top" xlink:title="The AbstractDataMessage class is the polymorphic base class for all FIT Data Message classes.">
<polygon fill="none" stroke="black" points="139.5,-67.5 139.5,-86.5 263.5,-86.5 263.5,-67.5 139.5,-67.5"/>
<text text-anchor="middle" x="201.5" y="-74.5" font-family="Helvetica,sans-Serif" font-size="10.00">AbstractDataMessage</text>
</a>
</g>
</g>
<!-- Node2&#45;&gt;Node1 -->
<g id="edge1" class="edge">
<title>Node2&#45;&gt;Node1</title>
<path fill="none" stroke="midnightblue" d="M175.94,-62.6C151.39,-49.73 115.01,-30.66 94.03,-19.67"/>
<polygon fill="midnightblue" stroke="midnightblue" points="174.55,-65.83 185.03,-67.37 177.8,-59.63 174.55,-65.83"/>
</g>
<!-- Node3 -->
<g id="node3" class="node">
<title>Node3</title>
<g id="a_node3"><a xlink:href="classAbstractDataMessagePrivate.html" target="_top" xlink:title=" ">
<polygon fill="none" stroke="black" points="173.5,-0.5 173.5,-19.5 331.5,-19.5 331.5,-0.5 173.5,-0.5"/>
<text text-anchor="middle" x="252.5" y="-7.5" font-family="Helvetica,sans-Serif" font-size="10.00">AbstractDataMessagePrivate</text>
</a>
</g>
</g>
<!-- Node2&#45;&gt;Node3 -->
<g id="edge3" class="edge">
<title>Node2&#45;&gt;Node3</title>
<path fill="none" stroke="#9a32cd" stroke-dasharray="5,2" d="M195.67,-57.37C194.71,-50.83 194.98,-43.7 198.5,-38 203.73,-29.53 212.52,-23.63 221.5,-19.55"/>
<polygon fill="#9a32cd" stroke="#9a32cd" points="192.36,-58.56 198.1,-67.47 199.17,-56.93 192.36,-58.56"/>
<text text-anchor="middle" x="212.5" y="-41" font-family="Helvetica,sans-Serif" font-size="10.00"> q_ptr</text>
</g>
<!-- Node3&#45;&gt;Node2 -->
<g id="edge2" class="edge">
<title>Node3&#45;&gt;Node2</title>
<path fill="none" stroke="#9a32cd" stroke-dasharray="5,2" d="M243.75,-28.57C240.07,-35.25 235.48,-42.75 230.5,-49 225.1,-55.78 217.99,-62.42 212.16,-67.43"/>
<polygon fill="#9a32cd" stroke="#9a32cd" points="246.91,-30.09 248.44,-19.61 240.71,-26.84 246.91,-30.09"/>
<text text-anchor="middle" x="251.5" y="-41" font-family="Helvetica,sans-Serif" font-size="10.00"> d_ptr</text>
</g>
</g>
</svg>
