<?xml version="1.0" encoding="UTF-8" standalone="no"?>
<!DOCTYPE svg PUBLIC "-//W3C//DTD SVG 1.1//EN"
 "http://www.w3.org/Graphics/SVG/1.1/DTD/svg11.dtd">
<!-- Generated by graphviz version 2.43.0 (0)
 -->
<!-- Title: TimestampCorrelationMessagePrivate Pages: 1 -->
<svg width="320pt" height="106pt"
 viewBox="0.00 0.00 320.00 106.00" xmlns="http://www.w3.org/2000/svg" xmlns:xlink="http://www.w3.org/1999/xlink">
<g id="graph0" class="graph" transform="scale(1 1) rotate(0) translate(4 102)">
<title>TimestampCorrelationMessagePrivate</title>
<!-- Node1 -->
<g id="node1" class="node">
<title>Node1</title>
<g id="a_node1"><a xlink:title=" ">
<polygon fill="#bfbfbf" stroke="black" points="0,-0.5 0,-30.5 170,-30.5 170,-0.5 0,-0.5"/>
<text text-anchor="start" x="8" y="-18.5" font-family="Helvetica,sans-Serif" font-size="10.00">TimestampCorrelationMessage</text>
<text text-anchor="middle" x="85" y="-7.5" font-family="Helvetica,sans-Serif" font-size="10.00">Private</text>
</a>
</g>
</g>
<!-- Node2 -->
<g id="node2" class="node">
<title>Node2</title>
<g id="a_node2"><a xlink:href="classAbstractDataMessagePrivate.html" target="_top" xlink:title=" ">
<polygon fill="none" stroke="black" points="120,-78.5 120,-97.5 278,-97.5 278,-78.5 120,-78.5"/>
<text text-anchor="middle" x="199" y="-85.5" font-family="Helvetica,sans-Serif" font-size="10.00">AbstractDataMessagePrivate</text>
</a>
</g>
</g>
<!-- Node2&#45;&gt;Node1 -->
<g id="edge1" class="edge">
<title>Node2&#45;&gt;Node1</title>
<path fill="none" stroke="midnightblue" d="M176.31,-72.97C156.43,-60.67 127.67,-42.89 107.76,-30.58"/>
<polygon fill="midnightblue" stroke="midnightblue" points="174.68,-76.07 185.02,-78.36 178.36,-70.12 174.68,-76.07"/>
</g>
<!-- Node3 -->
<g id="node3" class="node">
<title>Node3</title>
<g id="a_node3"><a xlink:href="classAbstractDataMessage.html" target="_top" xlink:title="The AbstractDataMessage class is the polymorphic base class for all FIT Data Message classes.">
<polygon fill="none" stroke="black" points="188,-6 188,-25 312,-25 312,-6 188,-6"/>
<text text-anchor="middle" x="250" y="-13" font-family="Helvetica,sans-Serif" font-size="10.00">AbstractDataMessage</text>
</a>
</g>
</g>
<!-- Node2&#45;&gt;Node3 -->
<g id="edge3" class="edge">
<title>Node2&#45;&gt;Node3</title>
<path fill="none" stroke="#9a32cd" stroke-dasharray="5,2" d="M193.39,-68.27C192.49,-61.81 192.75,-54.76 196,-49 202.25,-37.95 213.92,-30.24 224.82,-25.11"/>
<polygon fill="#9a32cd" stroke="#9a32cd" points="190.03,-69.28 195.66,-78.25 196.85,-67.72 190.03,-69.28"/>
<text text-anchor="middle" x="210" y="-52" font-family="Helvetica,sans-Serif" font-size="10.00"> d_ptr</text>
</g>
<!-- Node3&#45;&gt;Node2 -->
<g id="edge2" class="edge">
<title>Node3&#45;&gt;Node2</title>
<path fill="none" stroke="#9a32cd" stroke-dasharray="5,2" d="M242.68,-34.41C238.91,-42.6 233.86,-52.2 228,-60 222.87,-66.82 215.91,-73.37 210.09,-78.31"/>
<polygon fill="#9a32cd" stroke="#9a32cd" points="245.99,-35.59 246.75,-25.02 239.56,-32.8 245.99,-35.59"/>
<text text-anchor="middle" x="248" y="-52" font-family="Helvetica,sans-Serif" font-size="10.00"> q_ptr</text>
</g>
</g>
</svg>
