<?xml version="1.0" encoding="UTF-8" standalone="no"?>
<!DOCTYPE svg PUBLIC "-//W3C//DTD SVG 1.1//EN"
 "http://www.w3.org/Graphics/SVG/1.1/DTD/svg11.dtd">
<!-- Generated by graphviz version 2.43.0 (0)
 -->
<!-- Title: WorkoutMessage Pages: 1 -->
<svg width="284pt" height="95pt"
 viewBox="0.00 0.00 284.00 95.00" xmlns="http://www.w3.org/2000/svg" xmlns:xlink="http://www.w3.org/1999/xlink">
<g id="graph0" class="graph" transform="scale(1 1) rotate(0) translate(4 91)">
<title>WorkoutMessage</title>
<!-- Node1 -->
<g id="node1" class="node">
<title>Node1</title>
<g id="a_node1"><a xlink:title="The WorkoutMessage class represents a FIT WorkoutMessage data message.">
<polygon fill="#bfbfbf" stroke="black" points="0,-0.5 0,-19.5 100,-19.5 100,-0.5 0,-0.5"/>
<text text-anchor="middle" x="50" y="-7.5" font-family="Helvetica,sans-Serif" font-size="10.00">WorkoutMessage</text>
</a>
</g>
</g>
<!-- Node2 -->
<g id="node2" class="node">
<title>Node2</title>
<g id="a_node2"><a xlink:href="classAbstractDataMessage.html" target="_top" xlink:title="The AbstractDataMessage class is the polymorphic base class for all FIT Data Message classes.">
<polygon fill="none" stroke="black" points="84,-67.5 84,-86.5 208,-86.5 208,-67.5 84,-67.5"/>
<text text-anchor="middle" x="146" y="-74.5" font-family="Helvetica,sans-Serif" font-size="10.00">AbstractDataMessage</text>
</a>
</g>
</g>
<!-- Node2&#45;&gt;Node1 -->
<g id="edge1" class="edge">
<title>Node2&#45;&gt;Node1</title>
<path fill="none" stroke="midnightblue" d="M124.72,-61.59C105.73,-48.74 78.55,-30.33 62.74,-19.63"/>
<polygon fill="midnightblue" stroke="midnightblue" points="122.81,-64.53 133.05,-67.23 126.73,-58.73 122.81,-64.53"/>
</g>
<!-- Node3 -->
<g id="node3" class="node">
<title>Node3</title>
<g id="a_node3"><a xlink:href="classAbstractDataMessagePrivate.html" target="_top" xlink:title=" ">
<polygon fill="none" stroke="black" points="118,-0.5 118,-19.5 276,-19.5 276,-0.5 118,-0.5"/>
<text text-anchor="middle" x="197" y="-7.5" font-family="Helvetica,sans-Serif" font-size="10.00">AbstractDataMessagePrivate</text>
</a>
</g>
</g>
<!-- Node2&#45;&gt;Node3 -->
<g id="edge3" class="edge">
<title>Node2&#45;&gt;Node3</title>
<path fill="none" stroke="#9a32cd" stroke-dasharray="5,2" d="M140.17,-57.37C139.21,-50.83 139.48,-43.7 143,-38 148.23,-29.53 157.02,-23.63 166,-19.55"/>
<polygon fill="#9a32cd" stroke="#9a32cd" points="136.86,-58.56 142.6,-67.47 143.67,-56.93 136.86,-58.56"/>
<text text-anchor="middle" x="157" y="-41" font-family="Helvetica,sans-Serif" font-size="10.00"> q_ptr</text>
</g>
<!-- Node3&#45;&gt;Node2 -->
<g id="edge2" class="edge">
<title>Node3&#45;&gt;Node2</title>
<path fill="none" stroke="#9a32cd" stroke-dasharray="5,2" d="M188.25,-28.57C184.57,-35.25 179.98,-42.75 175,-49 169.6,-55.78 162.49,-62.42 156.66,-67.43"/>
<polygon fill="#9a32cd" stroke="#9a32cd" points="191.41,-30.09 192.94,-19.61 185.21,-26.84 191.41,-30.09"/>
<text text-anchor="middle" x="196" y="-41" font-family="Helvetica,sans-Serif" font-size="10.00"> d_ptr</text>
</g>
</g>
</svg>
