<?xml version="1.0" encoding="UTF-8" standalone="no"?>
<!DOCTYPE svg PUBLIC "-//W3C//DTD SVG 1.1//EN"
 "http://www.w3.org/Graphics/SVG/1.1/DTD/svg11.dtd">
<!-- Generated by graphviz version 2.43.0 (0)
 -->
<!-- Title: DeviceSettingsMessage Pages: 1 -->
<svg width="318pt" height="95pt"
 viewBox="0.00 0.00 318.00 95.00" xmlns="http://www.w3.org/2000/svg" xmlns:xlink="http://www.w3.org/1999/xlink">
<g id="graph0" class="graph" transform="scale(1 1) rotate(0) translate(4 91)">
<title>DeviceSettingsMessage</title>
<!-- Node1 -->
<g id="node1" class="node">
<title>Node1</title>
<g id="a_node1"><a xlink:title="The DeviceSettingsMessage class represents a FIT DeviceSettingsMessage data message.">
<polygon fill="#bfbfbf" stroke="black" points="0,-0.5 0,-19.5 134,-19.5 134,-0.5 0,-0.5"/>
<text text-anchor="middle" x="67" y="-7.5" font-family="Helvetica,sans-Serif" font-size="10.00">DeviceSettingsMessage</text>
</a>
</g>
</g>
<!-- Node2 -->
<g id="node2" class="node">
<title>Node2</title>
<g id="a_node2"><a xlink:href="classAbstractDataMessage.html" target="_top" xlink:title="The AbstractDataMessage class is the polymorphic base class for all FIT Data Message classes.">
<polygon fill="none" stroke="black" points="118,-67.5 118,-86.5 242,-86.5 242,-67.5 118,-67.5"/>
<text text-anchor="middle" x="180" y="-74.5" font-family="Helvetica,sans-Serif" font-size="10.00">AbstractDataMessage</text>
</a>
</g>
</g>
<!-- Node2&#45;&gt;Node1 -->
<g id="edge1" class="edge">
<title>Node2&#45;&gt;Node1</title>
<path fill="none" stroke="midnightblue" d="M155.86,-62.12C133.47,-49.24 100.86,-30.48 82,-19.63"/>
<polygon fill="midnightblue" stroke="midnightblue" points="154.35,-65.28 164.76,-67.23 157.84,-59.21 154.35,-65.28"/>
</g>
<!-- Node3 -->
<g id="node3" class="node">
<title>Node3</title>
<g id="a_node3"><a xlink:href="classAbstractDataMessagePrivate.html" target="_top" xlink:title=" ">
<polygon fill="none" stroke="black" points="152,-0.5 152,-19.5 310,-19.5 310,-0.5 152,-0.5"/>
<text text-anchor="middle" x="231" y="-7.5" font-family="Helvetica,sans-Serif" font-size="10.00">AbstractDataMessagePrivate</text>
</a>
</g>
</g>
<!-- Node2&#45;&gt;Node3 -->
<g id="edge3" class="edge">
<title>Node2&#45;&gt;Node3</title>
<path fill="none" stroke="#9a32cd" stroke-dasharray="5,2" d="M174.17,-57.37C173.21,-50.83 173.48,-43.7 177,-38 182.23,-29.53 191.02,-23.63 200,-19.55"/>
<polygon fill="#9a32cd" stroke="#9a32cd" points="170.86,-58.56 176.6,-67.47 177.67,-56.93 170.86,-58.56"/>
<text text-anchor="middle" x="191" y="-41" font-family="Helvetica,sans-Serif" font-size="10.00"> q_ptr</text>
</g>
<!-- Node3&#45;&gt;Node2 -->
<g id="edge2" class="edge">
<title>Node3&#45;&gt;Node2</title>
<path fill="none" stroke="#9a32cd" stroke-dasharray="5,2" d="M222.25,-28.57C218.57,-35.25 213.98,-42.75 209,-49 203.6,-55.78 196.49,-62.42 190.66,-67.43"/>
<polygon fill="#9a32cd" stroke="#9a32cd" points="225.41,-30.09 226.94,-19.61 219.21,-26.84 225.41,-30.09"/>
<text text-anchor="middle" x="230" y="-41" font-family="Helvetica,sans-Serif" font-size="10.00"> d_ptr</text>
</g>
</g>
</svg>
