<?xml version="1.0" encoding="UTF-8" standalone="no"?>
<!DOCTYPE svg PUBLIC "-//W3C//DTD SVG 1.1//EN"
 "http://www.w3.org/Graphics/SVG/1.1/DTD/svg11.dtd">
<!-- Generated by graphviz version 2.43.0 (0)
 -->
<!-- Title: DiveSettingsMessagePrivate Pages: 1 -->
<svg width="165pt" height="152pt"
 viewBox="0.00 0.00 165.00 152.00" xmlns="http://www.w3.org/2000/svg" xmlns:xlink="http://www.w3.org/1999/xlink">
<g id="graph0" class="graph" transform="scale(1 1) rotate(0) translate(4 148)">
<title>DiveSettingsMessagePrivate</title>
<!-- Node1 -->
<g id="node1" class="node">
<title>Node1</title>
<g id="a_node1"><a xlink:title=" ">
<polygon fill="#bfbfbf" stroke="black" points="0,-0.5 0,-19.5 157,-19.5 157,-0.5 0,-0.5"/>
<text text-anchor="middle" x="78.5" y="-7.5" font-family="Helvetica,sans-Serif" font-size="10.00">DiveSettingsMessagePrivate</text>
</a>
</g>
</g>
<!-- Node2 -->
<g id="node2" class="node">
<title>Node2</title>
<g id="a_node2"><a xlink:href="classFitDataMessagePrivate.html" target="_top" xlink:title=" ">
<polygon fill="none" stroke="black" points="13.5,-57.5 13.5,-76.5 143.5,-76.5 143.5,-57.5 13.5,-57.5"/>
<text text-anchor="middle" x="78.5" y="-64.5" font-family="Helvetica,sans-Serif" font-size="10.00">FitDataMessagePrivate</text>
</a>
</g>
</g>
<!-- Node2&#45;&gt;Node1 -->
<g id="edge1" class="edge">
<title>Node2&#45;&gt;Node1</title>
<path fill="none" stroke="midnightblue" d="M78.5,-47.12C78.5,-37.82 78.5,-27.06 78.5,-19.71"/>
<polygon fill="midnightblue" stroke="midnightblue" points="75,-47.41 78.5,-57.41 82,-47.41 75,-47.41"/>
</g>
<!-- Node3 -->
<g id="node3" class="node">
<title>Node3</title>
<g id="a_node3"><a xlink:href="classFitDataMessage.html" target="_top" xlink:title=" ">
<polygon fill="none" stroke="black" points="31,-124.5 31,-143.5 126,-143.5 126,-124.5 31,-124.5"/>
<text text-anchor="middle" x="78.5" y="-131.5" font-family="Helvetica,sans-Serif" font-size="10.00">FitDataMessage</text>
</a>
</g>
</g>
<!-- Node3&#45;&gt;Node2 -->
<g id="edge2" class="edge">
<title>Node3&#45;&gt;Node2</title>
<path fill="none" stroke="#9a32cd" stroke-dasharray="5,2" d="M78.5,-114.04C78.5,-101.67 78.5,-86.12 78.5,-76.63"/>
<polygon fill="#9a32cd" stroke="#9a32cd" points="75,-114.23 78.5,-124.23 82,-114.23 75,-114.23"/>
<text text-anchor="middle" x="92.5" y="-98" font-family="Helvetica,sans-Serif" font-size="10.00"> q_ptr</text>
</g>
</g>
</svg>
