<?xml version="1.0" encoding="UTF-8" standalone="no"?>
<!DOCTYPE svg PUBLIC "-//W3C//DTD SVG 1.1//EN"
 "http://www.w3.org/Graphics/SVG/1.1/DTD/svg11.dtd">
<!-- Generated by graphviz version 2.43.0 (0)
 -->
<!-- Title: ExdDataConceptConfigurationMessagePrivate::setField Pages: 1 -->
<svg width="492pt" height="66pt"
 viewBox="0.00 0.00 492.00 66.00" xmlns="http://www.w3.org/2000/svg" xmlns:xlink="http://www.w3.org/1999/xlink">
<g id="graph0" class="graph" transform="scale(1 1) rotate(0) translate(4 62)">
<title>ExdDataConceptConfigurationMessagePrivate::setField</title>
<!-- Node1 -->
<g id="node1" class="node">
<title>Node1</title>
<g id="a_node1"><a xlink:title=" ">
<polygon fill="#bfbfbf" stroke="black" points="0,-14 0,-44 163,-44 163,-14 0,-14"/>
<text text-anchor="start" x="8" y="-32" font-family="Helvetica,sans-Serif" font-size="10.00">ExdDataConceptConfiguration</text>
<text text-anchor="middle" x="81.5" y="-21" font-family="Helvetica,sans-Serif" font-size="10.00">MessagePrivate::setField</text>
</a>
</g>
</g>
<!-- Node2 -->
<g id="node2" class="node">
<title>Node2</title>
<g id="a_node2"><a xlink:href="classAbstractDataMessagePrivate.html#ad11748b005c364c65c2f1f03eae674cc" target="_top" xlink:title=" ">
<polygon fill="none" stroke="black" points="199,-14 199,-44 357,-44 357,-14 199,-14"/>
<text text-anchor="start" x="207" y="-32" font-family="Helvetica,sans-Serif" font-size="10.00">AbstractDataMessagePrivate</text>
<text text-anchor="middle" x="278" y="-21" font-family="Helvetica,sans-Serif" font-size="10.00">::verify</text>
</a>
</g>
</g>
<!-- Node1&#45;&gt;Node2 -->
<g id="edge1" class="edge">
<title>Node1&#45;&gt;Node2</title>
<path fill="none" stroke="midnightblue" d="M163.01,-29C171.5,-29 180.17,-29 188.74,-29"/>
<polygon fill="midnightblue" stroke="midnightblue" points="188.74,-32.5 198.74,-29 188.74,-25.5 188.74,-32.5"/>
</g>
<!-- Node3 -->
<g id="node3" class="node">
<title>Node3</title>
<g id="a_node3"><a xlink:href="abstractdatamessage_8cpp.html#a3d7ec006b7bf32e4ea754e0ce7a0d3a4" target="_top" xlink:title=" ">
<polygon fill="none" stroke="black" points="393,-38.5 393,-57.5 484,-57.5 484,-38.5 393,-38.5"/>
<text text-anchor="middle" x="438.5" y="-45.5" font-family="Helvetica,sans-Serif" font-size="10.00">verifyBaseType</text>
</a>
</g>
</g>
<!-- Node2&#45;&gt;Node3 -->
<g id="edge2" class="edge">
<title>Node2&#45;&gt;Node3</title>
<path fill="none" stroke="midnightblue" d="M357.32,-38.39C365.88,-39.41 374.45,-40.44 382.63,-41.42"/>
<polygon fill="midnightblue" stroke="midnightblue" points="382.42,-44.92 392.76,-42.64 383.25,-37.97 382.42,-44.92"/>
</g>
<!-- Node4 -->
<g id="node4" class="node">
<title>Node4</title>
<g id="a_node4"><a xlink:href="abstractdatamessage_8cpp.html#a0d4ab57f84f4b95732a6af0267777873" target="_top" xlink:title=" ">
<polygon fill="none" stroke="black" points="394.5,-0.5 394.5,-19.5 482.5,-19.5 482.5,-0.5 394.5,-0.5"/>
<text text-anchor="middle" x="438.5" y="-7.5" font-family="Helvetica,sans-Serif" font-size="10.00">verifyDataSize</text>
</a>
</g>
</g>
<!-- Node2&#45;&gt;Node4 -->
<g id="edge3" class="edge">
<title>Node2&#45;&gt;Node4</title>
<path fill="none" stroke="midnightblue" d="M357.32,-19.61C366.51,-18.51 375.72,-17.41 384.46,-16.36"/>
<polygon fill="midnightblue" stroke="midnightblue" points="384.95,-19.83 394.46,-15.16 384.11,-12.87 384.95,-19.83"/>
</g>
</g>
</svg>
