<?xml version="1.0" encoding="UTF-8" standalone="no"?>
<!DOCTYPE svg PUBLIC "-//W3C//DTD SVG 1.1//EN"
 "http://www.w3.org/Graphics/SVG/1.1/DTD/svg11.dtd">
<!-- Generated by graphviz version 2.43.0 (0)
 -->
<!-- Title: WeatherConditionsMessage Pages: 1 -->
<svg width="336pt" height="95pt"
 viewBox="0.00 0.00 336.00 95.00" xmlns="http://www.w3.org/2000/svg" xmlns:xlink="http://www.w3.org/1999/xlink">
<g id="graph0" class="graph" transform="scale(1 1) rotate(0) translate(4 91)">
<title>WeatherConditionsMessage</title>
<!-- Node1 -->
<g id="node1" class="node">
<title>Node1</title>
<g id="a_node1"><a xlink:title="The WeatherConditionsMessage class represents a FIT WeatherConditionsMessage data message.">
<polygon fill="#bfbfbf" stroke="black" points="0,-0.5 0,-19.5 152,-19.5 152,-0.5 0,-0.5"/>
<text text-anchor="middle" x="76" y="-7.5" font-family="Helvetica,sans-Serif" font-size="10.00">WeatherConditionsMessage</text>
</a>
</g>
</g>
<!-- Node2 -->
<g id="node2" class="node">
<title>Node2</title>
<g id="a_node2"><a xlink:href="classAbstractDataMessage.html" target="_top" xlink:title="The AbstractDataMessage class is the polymorphic base class for all FIT Data Message classes.">
<polygon fill="none" stroke="black" points="136,-67.5 136,-86.5 260,-86.5 260,-67.5 136,-67.5"/>
<text text-anchor="middle" x="198" y="-74.5" font-family="Helvetica,sans-Serif" font-size="10.00">AbstractDataMessage</text>
</a>
</g>
</g>
<!-- Node2&#45;&gt;Node1 -->
<g id="edge1" class="edge">
<title>Node2&#45;&gt;Node1</title>
<path fill="none" stroke="midnightblue" d="M172.86,-62.6C148.69,-49.73 112.9,-30.66 92.27,-19.67"/>
<polygon fill="midnightblue" stroke="midnightblue" points="171.33,-65.76 181.8,-67.37 174.62,-59.58 171.33,-65.76"/>
</g>
<!-- Node3 -->
<g id="node3" class="node">
<title>Node3</title>
<g id="a_node3"><a xlink:href="classAbstractDataMessagePrivate.html" target="_top" xlink:title=" ">
<polygon fill="none" stroke="black" points="170,-0.5 170,-19.5 328,-19.5 328,-0.5 170,-0.5"/>
<text text-anchor="middle" x="249" y="-7.5" font-family="Helvetica,sans-Serif" font-size="10.00">AbstractDataMessagePrivate</text>
</a>
</g>
</g>
<!-- Node2&#45;&gt;Node3 -->
<g id="edge3" class="edge">
<title>Node2&#45;&gt;Node3</title>
<path fill="none" stroke="#9a32cd" stroke-dasharray="5,2" d="M192.17,-57.37C191.21,-50.83 191.48,-43.7 195,-38 200.23,-29.53 209.02,-23.63 218,-19.55"/>
<polygon fill="#9a32cd" stroke="#9a32cd" points="188.86,-58.56 194.6,-67.47 195.67,-56.93 188.86,-58.56"/>
<text text-anchor="middle" x="209" y="-41" font-family="Helvetica,sans-Serif" font-size="10.00"> q_ptr</text>
</g>
<!-- Node3&#45;&gt;Node2 -->
<g id="edge2" class="edge">
<title>Node3&#45;&gt;Node2</title>
<path fill="none" stroke="#9a32cd" stroke-dasharray="5,2" d="M240.25,-28.57C236.57,-35.25 231.98,-42.75 227,-49 221.6,-55.78 214.49,-62.42 208.66,-67.43"/>
<polygon fill="#9a32cd" stroke="#9a32cd" points="243.41,-30.09 244.94,-19.61 237.21,-26.84 243.41,-30.09"/>
<text text-anchor="middle" x="248" y="-41" font-family="Helvetica,sans-Serif" font-size="10.00"> d_ptr</text>
</g>
</g>
</svg>
