<?xml version="1.0" encoding="UTF-8" standalone="no"?>
<!DOCTYPE svg PUBLIC "-//W3C//DTD SVG 1.1//EN"
 "http://www.w3.org/Graphics/SVG/1.1/DTD/svg11.dtd">
<!-- Generated by graphviz version 2.43.0 (0)
 -->
<!-- Title: DeviceSettingsMessagePrivate Pages: 1 -->
<svg width="318pt" height="95pt"
 viewBox="0.00 0.00 318.00 95.00" xmlns="http://www.w3.org/2000/svg" xmlns:xlink="http://www.w3.org/1999/xlink">
<g id="graph0" class="graph" transform="scale(1 1) rotate(0) translate(4 91)">
<title>DeviceSettingsMessagePrivate</title>
<!-- Node1 -->
<g id="node1" class="node">
<title>Node1</title>
<g id="a_node1"><a xlink:title=" ">
<polygon fill="#bfbfbf" stroke="black" points="0,-0.5 0,-19.5 168,-19.5 168,-0.5 0,-0.5"/>
<text text-anchor="middle" x="84" y="-7.5" font-family="Helvetica,sans-Serif" font-size="10.00">DeviceSettingsMessagePrivate</text>
</a>
</g>
</g>
<!-- Node2 -->
<g id="node2" class="node">
<title>Node2</title>
<g id="a_node2"><a xlink:href="classAbstractDataMessagePrivate.html" target="_top" xlink:title=" ">
<polygon fill="none" stroke="black" points="118,-67.5 118,-86.5 276,-86.5 276,-67.5 118,-67.5"/>
<text text-anchor="middle" x="197" y="-74.5" font-family="Helvetica,sans-Serif" font-size="10.00">AbstractDataMessagePrivate</text>
</a>
</g>
</g>
<!-- Node2&#45;&gt;Node1 -->
<g id="edge1" class="edge">
<title>Node2&#45;&gt;Node1</title>
<path fill="none" stroke="midnightblue" d="M172.86,-62.12C150.47,-49.24 117.86,-30.48 99,-19.63"/>
<polygon fill="midnightblue" stroke="midnightblue" points="171.35,-65.28 181.76,-67.23 174.84,-59.21 171.35,-65.28"/>
</g>
<!-- Node3 -->
<g id="node3" class="node">
<title>Node3</title>
<g id="a_node3"><a xlink:href="classAbstractDataMessage.html" target="_top" xlink:title="The AbstractDataMessage class is the polymorphic base class for all FIT Data Message classes.">
<polygon fill="none" stroke="black" points="186,-0.5 186,-19.5 310,-19.5 310,-0.5 186,-0.5"/>
<text text-anchor="middle" x="248" y="-7.5" font-family="Helvetica,sans-Serif" font-size="10.00">AbstractDataMessage</text>
</a>
</g>
</g>
<!-- Node2&#45;&gt;Node3 -->
<g id="edge3" class="edge">
<title>Node2&#45;&gt;Node3</title>
<path fill="none" stroke="#9a32cd" stroke-dasharray="5,2" d="M191.17,-57.37C190.21,-50.83 190.48,-43.7 194,-38 199.23,-29.53 208.02,-23.63 217,-19.55"/>
<polygon fill="#9a32cd" stroke="#9a32cd" points="187.86,-58.56 193.6,-67.47 194.67,-56.93 187.86,-58.56"/>
<text text-anchor="middle" x="208" y="-41" font-family="Helvetica,sans-Serif" font-size="10.00"> d_ptr</text>
</g>
<!-- Node3&#45;&gt;Node2 -->
<g id="edge2" class="edge">
<title>Node3&#45;&gt;Node2</title>
<path fill="none" stroke="#9a32cd" stroke-dasharray="5,2" d="M239.25,-28.57C235.57,-35.25 230.98,-42.75 226,-49 220.6,-55.78 213.49,-62.42 207.66,-67.43"/>
<polygon fill="#9a32cd" stroke="#9a32cd" points="242.41,-30.09 243.94,-19.61 236.21,-26.84 242.41,-30.09"/>
<text text-anchor="middle" x="247" y="-41" font-family="Helvetica,sans-Serif" font-size="10.00"> q_ptr</text>
</g>
</g>
</svg>
