<?xml version="1.0" encoding="UTF-8" standalone="no"?>
<!DOCTYPE svg PUBLIC "-//W3C//DTD SVG 1.1//EN"
 "http://www.w3.org/Graphics/SVG/1.1/DTD/svg11.dtd">
<!-- Generated by graphviz version 2.43.0 (0)
 -->
<!-- Title: ExdScreenConfigurationMessage Pages: 1 -->
<svg width="360pt" height="95pt"
 viewBox="0.00 0.00 360.00 95.00" xmlns="http://www.w3.org/2000/svg" xmlns:xlink="http://www.w3.org/1999/xlink">
<g id="graph0" class="graph" transform="scale(1 1) rotate(0) translate(4 91)">
<title>ExdScreenConfigurationMessage</title>
<!-- Node1 -->
<g id="node1" class="node">
<title>Node1</title>
<g id="a_node1"><a xlink:title="The ExdScreenConfigurationMessage class represents a FIT ExdScreenConfigurationMessage data message.">
<polygon fill="#bfbfbf" stroke="black" points="0,-0.5 0,-19.5 176,-19.5 176,-0.5 0,-0.5"/>
<text text-anchor="middle" x="88" y="-7.5" font-family="Helvetica,sans-Serif" font-size="10.00">ExdScreenConfigurationMessage</text>
</a>
</g>
</g>
<!-- Node2 -->
<g id="node2" class="node">
<title>Node2</title>
<g id="a_node2"><a xlink:href="classAbstractDataMessage.html" target="_top" xlink:title="The AbstractDataMessage class is the polymorphic base class for all FIT Data Message classes.">
<polygon fill="none" stroke="black" points="160,-67.5 160,-86.5 284,-86.5 284,-67.5 160,-67.5"/>
<text text-anchor="middle" x="222" y="-74.5" font-family="Helvetica,sans-Serif" font-size="10.00">AbstractDataMessage</text>
</a>
</g>
</g>
<!-- Node2&#45;&gt;Node1 -->
<g id="edge1" class="edge">
<title>Node2&#45;&gt;Node1</title>
<path fill="none" stroke="midnightblue" d="M195.08,-62.94C168.54,-50.07 128.73,-30.76 105.87,-19.67"/>
<polygon fill="midnightblue" stroke="midnightblue" points="193.68,-66.15 204.21,-67.37 196.74,-59.85 193.68,-66.15"/>
</g>
<!-- Node3 -->
<g id="node3" class="node">
<title>Node3</title>
<g id="a_node3"><a xlink:href="classAbstractDataMessagePrivate.html" target="_top" xlink:title=" ">
<polygon fill="none" stroke="black" points="194,-0.5 194,-19.5 352,-19.5 352,-0.5 194,-0.5"/>
<text text-anchor="middle" x="273" y="-7.5" font-family="Helvetica,sans-Serif" font-size="10.00">AbstractDataMessagePrivate</text>
</a>
</g>
</g>
<!-- Node2&#45;&gt;Node3 -->
<g id="edge3" class="edge">
<title>Node2&#45;&gt;Node3</title>
<path fill="none" stroke="#9a32cd" stroke-dasharray="5,2" d="M216.17,-57.37C215.21,-50.83 215.48,-43.7 219,-38 224.23,-29.53 233.02,-23.63 242,-19.55"/>
<polygon fill="#9a32cd" stroke="#9a32cd" points="212.86,-58.56 218.6,-67.47 219.67,-56.93 212.86,-58.56"/>
<text text-anchor="middle" x="233" y="-41" font-family="Helvetica,sans-Serif" font-size="10.00"> q_ptr</text>
</g>
<!-- Node3&#45;&gt;Node2 -->
<g id="edge2" class="edge">
<title>Node3&#45;&gt;Node2</title>
<path fill="none" stroke="#9a32cd" stroke-dasharray="5,2" d="M264.25,-28.57C260.57,-35.25 255.98,-42.75 251,-49 245.6,-55.78 238.49,-62.42 232.66,-67.43"/>
<polygon fill="#9a32cd" stroke="#9a32cd" points="267.41,-30.09 268.94,-19.61 261.21,-26.84 267.41,-30.09"/>
<text text-anchor="middle" x="272" y="-41" font-family="Helvetica,sans-Serif" font-size="10.00"> d_ptr</text>
</g>
</g>
</svg>
