<?xml version="1.0" encoding="UTF-8" standalone="no"?>
<!DOCTYPE svg PUBLIC "-//W3C//DTD SVG 1.1//EN"
 "http://www.w3.org/Graphics/SVG/1.1/DTD/svg11.dtd">
<!-- Generated by graphviz version 2.43.0 (0)
 -->
<!-- Title: SegmentLeaderboardEntryMessage Pages: 1 -->
<svg width="374pt" height="95pt"
 viewBox="0.00 0.00 374.00 95.00" xmlns="http://www.w3.org/2000/svg" xmlns:xlink="http://www.w3.org/1999/xlink">
<g id="graph0" class="graph" transform="scale(1 1) rotate(0) translate(4 91)">
<title>SegmentLeaderboardEntryMessage</title>
<!-- Node1 -->
<g id="node1" class="node">
<title>Node1</title>
<g id="a_node1"><a xlink:title="The SegmentLeaderboardEntryMessage class represents a FIT SegmentLeaderboardEntryMessage data message...">
<polygon fill="#bfbfbf" stroke="black" points="0,-0.5 0,-19.5 190,-19.5 190,-0.5 0,-0.5"/>
<text text-anchor="middle" x="95" y="-7.5" font-family="Helvetica,sans-Serif" font-size="10.00">SegmentLeaderboardEntryMessage</text>
</a>
</g>
</g>
<!-- Node2 -->
<g id="node2" class="node">
<title>Node2</title>
<g id="a_node2"><a xlink:href="classAbstractDataMessage.html" target="_top" xlink:title="The AbstractDataMessage class is the polymorphic base class for all FIT Data Message classes.">
<polygon fill="none" stroke="black" points="174,-67.5 174,-86.5 298,-86.5 298,-67.5 174,-67.5"/>
<text text-anchor="middle" x="236" y="-74.5" font-family="Helvetica,sans-Serif" font-size="10.00">AbstractDataMessage</text>
</a>
</g>
</g>
<!-- Node2&#45;&gt;Node1 -->
<g id="edge1" class="edge">
<title>Node2&#45;&gt;Node1</title>
<path fill="none" stroke="midnightblue" d="M208.04,-63.11C180.12,-50.24 137.96,-30.81 113.8,-19.67"/>
<polygon fill="midnightblue" stroke="midnightblue" points="206.73,-66.36 217.28,-67.37 209.66,-60 206.73,-66.36"/>
</g>
<!-- Node3 -->
<g id="node3" class="node">
<title>Node3</title>
<g id="a_node3"><a xlink:href="classAbstractDataMessagePrivate.html" target="_top" xlink:title=" ">
<polygon fill="none" stroke="black" points="208,-0.5 208,-19.5 366,-19.5 366,-0.5 208,-0.5"/>
<text text-anchor="middle" x="287" y="-7.5" font-family="Helvetica,sans-Serif" font-size="10.00">AbstractDataMessagePrivate</text>
</a>
</g>
</g>
<!-- Node2&#45;&gt;Node3 -->
<g id="edge3" class="edge">
<title>Node2&#45;&gt;Node3</title>
<path fill="none" stroke="#9a32cd" stroke-dasharray="5,2" d="M230.17,-57.37C229.21,-50.83 229.48,-43.7 233,-38 238.23,-29.53 247.02,-23.63 256,-19.55"/>
<polygon fill="#9a32cd" stroke="#9a32cd" points="226.86,-58.56 232.6,-67.47 233.67,-56.93 226.86,-58.56"/>
<text text-anchor="middle" x="247" y="-41" font-family="Helvetica,sans-Serif" font-size="10.00"> q_ptr</text>
</g>
<!-- Node3&#45;&gt;Node2 -->
<g id="edge2" class="edge">
<title>Node3&#45;&gt;Node2</title>
<path fill="none" stroke="#9a32cd" stroke-dasharray="5,2" d="M278.25,-28.57C274.57,-35.25 269.98,-42.75 265,-49 259.6,-55.78 252.49,-62.42 246.66,-67.43"/>
<polygon fill="#9a32cd" stroke="#9a32cd" points="281.41,-30.09 282.94,-19.61 275.21,-26.84 281.41,-30.09"/>
<text text-anchor="middle" x="286" y="-41" font-family="Helvetica,sans-Serif" font-size="10.00"> d_ptr</text>
</g>
</g>
</svg>
