<?xml version="1.0" encoding="UTF-8" standalone="no"?>
<!DOCTYPE svg PUBLIC "-//W3C//DTD SVG 1.1//EN"
 "http://www.w3.org/Graphics/SVG/1.1/DTD/svg11.dtd">
<!-- Generated by graphviz version 2.43.0 (0)
 -->
<!-- Title: GoalMessagePrivate Pages: 1 -->
<svg width="268pt" height="95pt"
 viewBox="0.00 0.00 267.50 95.00" xmlns="http://www.w3.org/2000/svg" xmlns:xlink="http://www.w3.org/1999/xlink">
<g id="graph0" class="graph" transform="scale(1 1) rotate(0) translate(4 91)">
<title>GoalMessagePrivate</title>
<!-- Node1 -->
<g id="node1" class="node">
<title>Node1</title>
<g id="a_node1"><a xlink:title=" ">
<polygon fill="#bfbfbf" stroke="black" points="0,-0.5 0,-19.5 117,-19.5 117,-0.5 0,-0.5"/>
<text text-anchor="middle" x="58.5" y="-7.5" font-family="Helvetica,sans-Serif" font-size="10.00">GoalMessagePrivate</text>
</a>
</g>
</g>
<!-- Node2 -->
<g id="node2" class="node">
<title>Node2</title>
<g id="a_node2"><a xlink:href="classAbstractDataMessagePrivate.html" target="_top" xlink:title=" ">
<polygon fill="none" stroke="black" points="67.5,-67.5 67.5,-86.5 225.5,-86.5 225.5,-67.5 67.5,-67.5"/>
<text text-anchor="middle" x="146.5" y="-74.5" font-family="Helvetica,sans-Serif" font-size="10.00">AbstractDataMessagePrivate</text>
</a>
</g>
</g>
<!-- Node2&#45;&gt;Node1 -->
<g id="edge1" class="edge">
<title>Node2&#45;&gt;Node1</title>
<path fill="none" stroke="midnightblue" d="M126.28,-61.07C108.91,-48.24 84.47,-30.19 70.18,-19.63"/>
<polygon fill="midnightblue" stroke="midnightblue" points="124.51,-64.11 134.63,-67.23 128.67,-58.48 124.51,-64.11"/>
</g>
<!-- Node3 -->
<g id="node3" class="node">
<title>Node3</title>
<g id="a_node3"><a xlink:href="classAbstractDataMessage.html" target="_top" xlink:title="The AbstractDataMessage class is the polymorphic base class for all FIT Data Message classes.">
<polygon fill="none" stroke="black" points="135.5,-0.5 135.5,-19.5 259.5,-19.5 259.5,-0.5 135.5,-0.5"/>
<text text-anchor="middle" x="197.5" y="-7.5" font-family="Helvetica,sans-Serif" font-size="10.00">AbstractDataMessage</text>
</a>
</g>
</g>
<!-- Node2&#45;&gt;Node3 -->
<g id="edge3" class="edge">
<title>Node2&#45;&gt;Node3</title>
<path fill="none" stroke="#9a32cd" stroke-dasharray="5,2" d="M140.67,-57.37C139.71,-50.83 139.98,-43.7 143.5,-38 148.73,-29.53 157.52,-23.63 166.5,-19.55"/>
<polygon fill="#9a32cd" stroke="#9a32cd" points="137.36,-58.56 143.1,-67.47 144.17,-56.93 137.36,-58.56"/>
<text text-anchor="middle" x="157.5" y="-41" font-family="Helvetica,sans-Serif" font-size="10.00"> d_ptr</text>
</g>
<!-- Node3&#45;&gt;Node2 -->
<g id="edge2" class="edge">
<title>Node3&#45;&gt;Node2</title>
<path fill="none" stroke="#9a32cd" stroke-dasharray="5,2" d="M188.75,-28.57C185.07,-35.25 180.48,-42.75 175.5,-49 170.1,-55.78 162.99,-62.42 157.16,-67.43"/>
<polygon fill="#9a32cd" stroke="#9a32cd" points="191.91,-30.09 193.44,-19.61 185.71,-26.84 191.91,-30.09"/>
<text text-anchor="middle" x="196.5" y="-41" font-family="Helvetica,sans-Serif" font-size="10.00"> q_ptr</text>
</g>
</g>
</svg>
