<?xml version="1.0" encoding="UTF-8" standalone="no"?>
<!DOCTYPE svg PUBLIC "-//W3C//DTD SVG 1.1//EN"
 "http://www.w3.org/Graphics/SVG/1.1/DTD/svg11.dtd">
<!-- Generated by graphviz version 2.43.0 (0)
 -->
<!-- Title: ClimbProMessage Pages: 1 -->
<svg width="288pt" height="95pt"
 viewBox="0.00 0.00 288.00 95.00" xmlns="http://www.w3.org/2000/svg" xmlns:xlink="http://www.w3.org/1999/xlink">
<g id="graph0" class="graph" transform="scale(1 1) rotate(0) translate(4 91)">
<title>ClimbProMessage</title>
<!-- Node1 -->
<g id="node1" class="node">
<title>Node1</title>
<g id="a_node1"><a xlink:title="The ClimbProMessage class represents a FIT ClimbProMessage data message.">
<polygon fill="#bfbfbf" stroke="black" points="0,-0.5 0,-19.5 104,-19.5 104,-0.5 0,-0.5"/>
<text text-anchor="middle" x="52" y="-7.5" font-family="Helvetica,sans-Serif" font-size="10.00">ClimbProMessage</text>
</a>
</g>
</g>
<!-- Node2 -->
<g id="node2" class="node">
<title>Node2</title>
<g id="a_node2"><a xlink:href="classAbstractDataMessage.html" target="_top" xlink:title="The AbstractDataMessage class is the polymorphic base class for all FIT Data Message classes.">
<polygon fill="none" stroke="black" points="88,-67.5 88,-86.5 212,-86.5 212,-67.5 88,-67.5"/>
<text text-anchor="middle" x="150" y="-74.5" font-family="Helvetica,sans-Serif" font-size="10.00">AbstractDataMessage</text>
</a>
</g>
</g>
<!-- Node2&#45;&gt;Node1 -->
<g id="edge1" class="edge">
<title>Node2&#45;&gt;Node1</title>
<path fill="none" stroke="midnightblue" d="M128.28,-61.59C108.89,-48.74 81.14,-30.33 65.01,-19.63"/>
<polygon fill="midnightblue" stroke="midnightblue" points="126.52,-64.62 136.78,-67.23 130.38,-58.79 126.52,-64.62"/>
</g>
<!-- Node3 -->
<g id="node3" class="node">
<title>Node3</title>
<g id="a_node3"><a xlink:href="classAbstractDataMessagePrivate.html" target="_top" xlink:title=" ">
<polygon fill="none" stroke="black" points="122,-0.5 122,-19.5 280,-19.5 280,-0.5 122,-0.5"/>
<text text-anchor="middle" x="201" y="-7.5" font-family="Helvetica,sans-Serif" font-size="10.00">AbstractDataMessagePrivate</text>
</a>
</g>
</g>
<!-- Node2&#45;&gt;Node3 -->
<g id="edge3" class="edge">
<title>Node2&#45;&gt;Node3</title>
<path fill="none" stroke="#9a32cd" stroke-dasharray="5,2" d="M144.17,-57.37C143.21,-50.83 143.48,-43.7 147,-38 152.23,-29.53 161.02,-23.63 170,-19.55"/>
<polygon fill="#9a32cd" stroke="#9a32cd" points="140.86,-58.56 146.6,-67.47 147.67,-56.93 140.86,-58.56"/>
<text text-anchor="middle" x="161" y="-41" font-family="Helvetica,sans-Serif" font-size="10.00"> q_ptr</text>
</g>
<!-- Node3&#45;&gt;Node2 -->
<g id="edge2" class="edge">
<title>Node3&#45;&gt;Node2</title>
<path fill="none" stroke="#9a32cd" stroke-dasharray="5,2" d="M192.25,-28.57C188.57,-35.25 183.98,-42.75 179,-49 173.6,-55.78 166.49,-62.42 160.66,-67.43"/>
<polygon fill="#9a32cd" stroke="#9a32cd" points="195.41,-30.09 196.94,-19.61 189.21,-26.84 195.41,-30.09"/>
<text text-anchor="middle" x="200" y="-41" font-family="Helvetica,sans-Serif" font-size="10.00"> d_ptr</text>
</g>
</g>
</svg>
