<?xml version="1.0" encoding="UTF-8" standalone="no"?>
<!DOCTYPE svg PUBLIC "-//W3C//DTD SVG 1.1//EN"
 "http://www.w3.org/Graphics/SVG/1.1/DTD/svg11.dtd">
<!-- Generated by graphviz version 2.43.0 (0)
 -->
<!-- Title: ExdDataConceptConfigurationMessage Pages: 1 -->
<svg width="348pt" height="106pt"
 viewBox="0.00 0.00 347.50 106.00" xmlns="http://www.w3.org/2000/svg" xmlns:xlink="http://www.w3.org/1999/xlink">
<g id="graph0" class="graph" transform="scale(1 1) rotate(0) translate(4 102)">
<title>ExdDataConceptConfigurationMessage</title>
<!-- Node1 -->
<g id="node1" class="node">
<title>Node1</title>
<g id="a_node1"><a xlink:title="The ExdDataConceptConfigurationMessage class represents a FIT ExdDataConceptConfigurationMessage data...">
<polygon fill="#bfbfbf" stroke="black" points="0,-0.5 0,-30.5 163,-30.5 163,-0.5 0,-0.5"/>
<text text-anchor="start" x="8" y="-18.5" font-family="Helvetica,sans-Serif" font-size="10.00">ExdDataConceptConfiguration</text>
<text text-anchor="middle" x="81.5" y="-7.5" font-family="Helvetica,sans-Serif" font-size="10.00">Message</text>
</a>
</g>
</g>
<!-- Node2 -->
<g id="node2" class="node">
<title>Node2</title>
<g id="a_node2"><a xlink:href="classAbstractDataMessage.html" target="_top" xlink:title="The AbstractDataMessage class is the polymorphic base class for all FIT Data Message classes.">
<polygon fill="none" stroke="black" points="147.5,-78.5 147.5,-97.5 271.5,-97.5 271.5,-78.5 147.5,-78.5"/>
<text text-anchor="middle" x="209.5" y="-85.5" font-family="Helvetica,sans-Serif" font-size="10.00">AbstractDataMessage</text>
</a>
</g>
</g>
<!-- Node2&#45;&gt;Node1 -->
<g id="edge1" class="edge">
<title>Node2&#45;&gt;Node1</title>
<path fill="none" stroke="midnightblue" d="M185.21,-73.62C162.89,-61.33 129.91,-43.17 107.17,-30.64"/>
<polygon fill="midnightblue" stroke="midnightblue" points="183.61,-76.74 194.06,-78.5 186.99,-70.61 183.61,-76.74"/>
</g>
<!-- Node3 -->
<g id="node3" class="node">
<title>Node3</title>
<g id="a_node3"><a xlink:href="classAbstractDataMessagePrivate.html" target="_top" xlink:title=" ">
<polygon fill="none" stroke="black" points="181.5,-6 181.5,-25 339.5,-25 339.5,-6 181.5,-6"/>
<text text-anchor="middle" x="260.5" y="-13" font-family="Helvetica,sans-Serif" font-size="10.00">AbstractDataMessagePrivate</text>
</a>
</g>
</g>
<!-- Node2&#45;&gt;Node3 -->
<g id="edge3" class="edge">
<title>Node2&#45;&gt;Node3</title>
<path fill="none" stroke="#9a32cd" stroke-dasharray="5,2" d="M203.89,-68.27C202.99,-61.81 203.25,-54.76 206.5,-49 212.75,-37.95 224.42,-30.24 235.32,-25.11"/>
<polygon fill="#9a32cd" stroke="#9a32cd" points="200.53,-69.28 206.16,-78.25 207.35,-67.72 200.53,-69.28"/>
<text text-anchor="middle" x="220.5" y="-52" font-family="Helvetica,sans-Serif" font-size="10.00"> q_ptr</text>
</g>
<!-- Node3&#45;&gt;Node2 -->
<g id="edge2" class="edge">
<title>Node3&#45;&gt;Node2</title>
<path fill="none" stroke="#9a32cd" stroke-dasharray="5,2" d="M253.18,-34.41C249.41,-42.6 244.36,-52.2 238.5,-60 233.37,-66.82 226.41,-73.37 220.59,-78.31"/>
<polygon fill="#9a32cd" stroke="#9a32cd" points="256.49,-35.59 257.25,-25.02 250.06,-32.8 256.49,-35.59"/>
<text text-anchor="middle" x="258.5" y="-52" font-family="Helvetica,sans-Serif" font-size="10.00"> d_ptr</text>
</g>
</g>
</svg>
