<?xml version="1.0" encoding="UTF-8" standalone="no"?>
<!DOCTYPE svg PUBLIC "-//W3C//DTD SVG 1.1//EN"
 "http://www.w3.org/Graphics/SVG/1.1/DTD/svg11.dtd">
<!-- Generated by graphviz version 2.43.0 (0)
 -->
<!-- Title: WeatherConditionsMessagePrivate Pages: 1 -->
<svg width="160pt" height="163pt"
 viewBox="0.00 0.00 160.00 163.00" xmlns="http://www.w3.org/2000/svg" xmlns:xlink="http://www.w3.org/1999/xlink">
<g id="graph0" class="graph" transform="scale(1 1) rotate(0) translate(4 159)">
<title>WeatherConditionsMessagePrivate</title>
<!-- Node1 -->
<g id="node1" class="node">
<title>Node1</title>
<g id="a_node1"><a xlink:title=" ">
<polygon fill="#bfbfbf" stroke="black" points="0,-0.5 0,-30.5 152,-30.5 152,-0.5 0,-0.5"/>
<text text-anchor="start" x="8" y="-18.5" font-family="Helvetica,sans-Serif" font-size="10.00">WeatherConditionsMessage</text>
<text text-anchor="middle" x="76" y="-7.5" font-family="Helvetica,sans-Serif" font-size="10.00">Private</text>
</a>
</g>
</g>
<!-- Node2 -->
<g id="node2" class="node">
<title>Node2</title>
<g id="a_node2"><a xlink:href="classFitDataMessagePrivate.html" target="_top" xlink:title=" ">
<polygon fill="none" stroke="black" points="11,-68.5 11,-87.5 141,-87.5 141,-68.5 11,-68.5"/>
<text text-anchor="middle" x="76" y="-75.5" font-family="Helvetica,sans-Serif" font-size="10.00">FitDataMessagePrivate</text>
</a>
</g>
</g>
<!-- Node2&#45;&gt;Node1 -->
<g id="edge1" class="edge">
<title>Node2&#45;&gt;Node1</title>
<path fill="none" stroke="midnightblue" d="M76,-58.22C76,-49.36 76,-38.96 76,-30.76"/>
<polygon fill="midnightblue" stroke="midnightblue" points="72.5,-58.33 76,-68.33 79.5,-58.33 72.5,-58.33"/>
</g>
<!-- Node3 -->
<g id="node3" class="node">
<title>Node3</title>
<g id="a_node3"><a xlink:href="classFitDataMessage.html" target="_top" xlink:title=" ">
<polygon fill="none" stroke="black" points="28.5,-135.5 28.5,-154.5 123.5,-154.5 123.5,-135.5 28.5,-135.5"/>
<text text-anchor="middle" x="76" y="-142.5" font-family="Helvetica,sans-Serif" font-size="10.00">FitDataMessage</text>
</a>
</g>
</g>
<!-- Node3&#45;&gt;Node2 -->
<g id="edge2" class="edge">
<title>Node3&#45;&gt;Node2</title>
<path fill="none" stroke="#9a32cd" stroke-dasharray="5,2" d="M76,-125.04C76,-112.67 76,-97.12 76,-87.63"/>
<polygon fill="#9a32cd" stroke="#9a32cd" points="72.5,-125.23 76,-135.23 79.5,-125.23 72.5,-125.23"/>
<text text-anchor="middle" x="90" y="-109" font-family="Helvetica,sans-Serif" font-size="10.00"> q_ptr</text>
</g>
</g>
</svg>
