<?xml version="1.0" encoding="UTF-8" standalone="no"?>
<!DOCTYPE svg PUBLIC "-//W3C//DTD SVG 1.1//EN"
 "http://www.w3.org/Graphics/SVG/1.1/DTD/svg11.dtd">
<!-- Generated by graphviz version 2.43.0 (0)
 -->
<!-- Title: VideoTitleMessagePrivate::setField Pages: 1 -->
<svg width="448pt" height="102pt"
 viewBox="0.00 0.00 448.00 101.50" xmlns="http://www.w3.org/2000/svg" xmlns:xlink="http://www.w3.org/1999/xlink">
<g id="graph0" class="graph" transform="scale(1 1) rotate(0) translate(4 97.5)">
<title>VideoTitleMessagePrivate::setField</title>
<!-- Node1 -->
<g id="node1" class="node">
<title>Node1</title>
<g id="a_node1"><a xlink:title=" ">
<polygon fill="#bfbfbf" stroke="black" points="0,-38 0,-68 144,-68 144,-38 0,-38"/>
<text text-anchor="start" x="8" y="-56" font-family="Helvetica,sans-Serif" font-size="10.00">VideoTitleMessagePrivate</text>
<text text-anchor="middle" x="72" y="-45" font-family="Helvetica,sans-Serif" font-size="10.00">::setField</text>
</a>
</g>
</g>
<!-- Node2 -->
<g id="node2" class="node">
<title>Node2</title>
<g id="a_node2"><a xlink:href="classFitDataMessagePrivate.html#a80365775402f7e855a8af29238d128a3" target="_top" xlink:title=" ">
<polygon fill="none" stroke="black" points="180,-63 180,-93 310,-93 310,-63 180,-63"/>
<text text-anchor="start" x="188" y="-81" font-family="Helvetica,sans-Serif" font-size="10.00">FitDataMessagePrivate</text>
<text text-anchor="middle" x="245" y="-70" font-family="Helvetica,sans-Serif" font-size="10.00">::setField</text>
</a>
</g>
</g>
<!-- Node1&#45;&gt;Node2 -->
<g id="edge1" class="edge">
<title>Node1&#45;&gt;Node2</title>
<path fill="none" stroke="midnightblue" d="M144.03,-63.39C152.54,-64.63 161.25,-65.9 169.8,-67.15"/>
<polygon fill="midnightblue" stroke="midnightblue" points="169.34,-70.62 179.75,-68.61 170.36,-63.7 169.34,-70.62"/>
</g>
<!-- Node3 -->
<g id="node3" class="node">
<title>Node3</title>
<g id="a_node3"><a xlink:href="classFitDataMessagePrivate.html#a4a9a5ee83dbe87dcc25f3fc5f50f2284" target="_top" xlink:title="\interal">
<polygon fill="none" stroke="black" points="180,-14 180,-44 310,-44 310,-14 180,-14"/>
<text text-anchor="start" x="188" y="-32" font-family="Helvetica,sans-Serif" font-size="10.00">FitDataMessagePrivate</text>
<text text-anchor="middle" x="245" y="-21" font-family="Helvetica,sans-Serif" font-size="10.00">::verify</text>
</a>
</g>
</g>
<!-- Node1&#45;&gt;Node3 -->
<g id="edge2" class="edge">
<title>Node1&#45;&gt;Node3</title>
<path fill="none" stroke="midnightblue" d="M144.03,-43.03C152.54,-41.84 161.25,-40.61 169.8,-39.41"/>
<polygon fill="midnightblue" stroke="midnightblue" points="170.33,-42.87 179.75,-38.02 169.36,-35.94 170.33,-42.87"/>
</g>
<!-- Node4 -->
<g id="node4" class="node">
<title>Node4</title>
<g id="a_node4"><a xlink:href="fitdatamessage_8cpp.html#a3d7ec006b7bf32e4ea754e0ce7a0d3a4" target="_top" xlink:title=" ">
<polygon fill="none" stroke="black" points="347.5,-38.5 347.5,-57.5 438.5,-57.5 438.5,-38.5 347.5,-38.5"/>
<text text-anchor="middle" x="393" y="-45.5" font-family="Helvetica,sans-Serif" font-size="10.00">verifyBaseType</text>
</a>
</g>
</g>
<!-- Node3&#45;&gt;Node4 -->
<g id="edge3" class="edge">
<title>Node3&#45;&gt;Node4</title>
<path fill="none" stroke="midnightblue" d="M310.04,-37.33C319.07,-38.51 328.29,-39.71 337.12,-40.86"/>
<polygon fill="midnightblue" stroke="midnightblue" points="336.93,-44.36 347.29,-42.18 337.83,-37.42 336.93,-44.36"/>
</g>
<!-- Node5 -->
<g id="node5" class="node">
<title>Node5</title>
<g id="a_node5"><a xlink:href="fitdatamessage_8cpp.html#a3e1c894ea22d300479f8a7f822127d03" target="_top" xlink:title=" ">
<polygon fill="none" stroke="black" points="346,-0.5 346,-19.5 440,-19.5 440,-0.5 346,-0.5"/>
<text text-anchor="middle" x="393" y="-7.5" font-family="Helvetica,sans-Serif" font-size="10.00">verifyDataSieze</text>
</a>
</g>
</g>
<!-- Node3&#45;&gt;Node5 -->
<g id="edge4" class="edge">
<title>Node3&#45;&gt;Node5</title>
<path fill="none" stroke="midnightblue" d="M310.04,-20.67C318.64,-19.55 327.42,-18.4 335.87,-17.3"/>
<polygon fill="midnightblue" stroke="midnightblue" points="336.53,-20.75 346,-15.99 335.63,-13.81 336.53,-20.75"/>
</g>
</g>
</svg>
