<?xml version="1.0" encoding="UTF-8" standalone="no"?>
<!DOCTYPE svg PUBLIC "-//W3C//DTD SVG 1.1//EN"
 "http://www.w3.org/Graphics/SVG/1.1/DTD/svg11.dtd">
<!-- Generated by graphviz version 2.43.0 (0)
 -->
<!-- Title: TrainingFileMessagePrivate Pages: 1 -->
<svg width="300pt" height="95pt"
 viewBox="0.00 0.00 300.00 95.00" xmlns="http://www.w3.org/2000/svg" xmlns:xlink="http://www.w3.org/1999/xlink">
<g id="graph0" class="graph" transform="scale(1 1) rotate(0) translate(4 91)">
<title>TrainingFileMessagePrivate</title>
<!-- Node1 -->
<g id="node1" class="node">
<title>Node1</title>
<g id="a_node1"><a xlink:title=" ">
<polygon fill="#bfbfbf" stroke="black" points="0,-0.5 0,-19.5 150,-19.5 150,-0.5 0,-0.5"/>
<text text-anchor="middle" x="75" y="-7.5" font-family="Helvetica,sans-Serif" font-size="10.00">TrainingFileMessagePrivate</text>
</a>
</g>
</g>
<!-- Node2 -->
<g id="node2" class="node">
<title>Node2</title>
<g id="a_node2"><a xlink:href="classAbstractDataMessagePrivate.html" target="_top" xlink:title=" ">
<polygon fill="none" stroke="black" points="100,-67.5 100,-86.5 258,-86.5 258,-67.5 100,-67.5"/>
<text text-anchor="middle" x="179" y="-74.5" font-family="Helvetica,sans-Serif" font-size="10.00">AbstractDataMessagePrivate</text>
</a>
</g>
</g>
<!-- Node2&#45;&gt;Node1 -->
<g id="edge1" class="edge">
<title>Node2&#45;&gt;Node1</title>
<path fill="none" stroke="midnightblue" d="M156.23,-61.77C135.64,-48.9 106.01,-30.38 88.8,-19.63"/>
<polygon fill="midnightblue" stroke="midnightblue" points="154.64,-64.9 164.97,-67.23 158.35,-58.97 154.64,-64.9"/>
</g>
<!-- Node3 -->
<g id="node3" class="node">
<title>Node3</title>
<g id="a_node3"><a xlink:href="classAbstractDataMessage.html" target="_top" xlink:title="The AbstractDataMessage class is the polymorphic base class for all FIT Data Message classes.">
<polygon fill="none" stroke="black" points="168,-0.5 168,-19.5 292,-19.5 292,-0.5 168,-0.5"/>
<text text-anchor="middle" x="230" y="-7.5" font-family="Helvetica,sans-Serif" font-size="10.00">AbstractDataMessage</text>
</a>
</g>
</g>
<!-- Node2&#45;&gt;Node3 -->
<g id="edge3" class="edge">
<title>Node2&#45;&gt;Node3</title>
<path fill="none" stroke="#9a32cd" stroke-dasharray="5,2" d="M173.17,-57.37C172.21,-50.83 172.48,-43.7 176,-38 181.23,-29.53 190.02,-23.63 199,-19.55"/>
<polygon fill="#9a32cd" stroke="#9a32cd" points="169.86,-58.56 175.6,-67.47 176.67,-56.93 169.86,-58.56"/>
<text text-anchor="middle" x="190" y="-41" font-family="Helvetica,sans-Serif" font-size="10.00"> d_ptr</text>
</g>
<!-- Node3&#45;&gt;Node2 -->
<g id="edge2" class="edge">
<title>Node3&#45;&gt;Node2</title>
<path fill="none" stroke="#9a32cd" stroke-dasharray="5,2" d="M221.25,-28.57C217.57,-35.25 212.98,-42.75 208,-49 202.6,-55.78 195.49,-62.42 189.66,-67.43"/>
<polygon fill="#9a32cd" stroke="#9a32cd" points="224.41,-30.09 225.94,-19.61 218.21,-26.84 224.41,-30.09"/>
<text text-anchor="middle" x="229" y="-41" font-family="Helvetica,sans-Serif" font-size="10.00"> q_ptr</text>
</g>
</g>
</svg>
