<?xml version="1.0" encoding="UTF-8" standalone="no"?>
<!DOCTYPE svg PUBLIC "-//W3C//DTD SVG 1.1//EN"
 "http://www.w3.org/Graphics/SVG/1.1/DTD/svg11.dtd">
<!-- Generated by graphviz version 2.43.0 (0)
 -->
<!-- Title: VideoDescriptionMessagePrivate Pages: 1 -->
<svg width="186pt" height="152pt"
 viewBox="0.00 0.00 186.00 152.00" xmlns="http://www.w3.org/2000/svg" xmlns:xlink="http://www.w3.org/1999/xlink">
<g id="graph0" class="graph" transform="scale(1 1) rotate(0) translate(4 148)">
<title>VideoDescriptionMessagePrivate</title>
<!-- Node1 -->
<g id="node1" class="node">
<title>Node1</title>
<g id="a_node1"><a xlink:title=" ">
<polygon fill="#bfbfbf" stroke="black" points="0,-0.5 0,-19.5 178,-19.5 178,-0.5 0,-0.5"/>
<text text-anchor="middle" x="89" y="-7.5" font-family="Helvetica,sans-Serif" font-size="10.00">VideoDescriptionMessagePrivate</text>
</a>
</g>
</g>
<!-- Node2 -->
<g id="node2" class="node">
<title>Node2</title>
<g id="a_node2"><a xlink:href="classFitDataMessagePrivate.html" target="_top" xlink:title=" ">
<polygon fill="none" stroke="black" points="24,-57.5 24,-76.5 154,-76.5 154,-57.5 24,-57.5"/>
<text text-anchor="middle" x="89" y="-64.5" font-family="Helvetica,sans-Serif" font-size="10.00">FitDataMessagePrivate</text>
</a>
</g>
</g>
<!-- Node2&#45;&gt;Node1 -->
<g id="edge1" class="edge">
<title>Node2&#45;&gt;Node1</title>
<path fill="none" stroke="midnightblue" d="M89,-47.12C89,-37.82 89,-27.06 89,-19.71"/>
<polygon fill="midnightblue" stroke="midnightblue" points="85.5,-47.41 89,-57.41 92.5,-47.41 85.5,-47.41"/>
</g>
<!-- Node3 -->
<g id="node3" class="node">
<title>Node3</title>
<g id="a_node3"><a xlink:href="classFitDataMessage.html" target="_top" xlink:title="The FitDataMessage class is the polymorphic base class for all FIT Data Message classes.">
<polygon fill="none" stroke="black" points="41.5,-124.5 41.5,-143.5 136.5,-143.5 136.5,-124.5 41.5,-124.5"/>
<text text-anchor="middle" x="89" y="-131.5" font-family="Helvetica,sans-Serif" font-size="10.00">FitDataMessage</text>
</a>
</g>
</g>
<!-- Node3&#45;&gt;Node2 -->
<g id="edge2" class="edge">
<title>Node3&#45;&gt;Node2</title>
<path fill="none" stroke="#9a32cd" stroke-dasharray="5,2" d="M89,-114.04C89,-101.67 89,-86.12 89,-76.63"/>
<polygon fill="#9a32cd" stroke="#9a32cd" points="85.5,-114.23 89,-124.23 92.5,-114.23 85.5,-114.23"/>
<text text-anchor="middle" x="103" y="-98" font-family="Helvetica,sans-Serif" font-size="10.00"> q_ptr</text>
</g>
</g>
</svg>
