<?xml version="1.0" encoding="UTF-8" standalone="no"?>
<!DOCTYPE svg PUBLIC "-//W3C//DTD SVG 1.1//EN"
 "http://www.w3.org/Graphics/SVG/1.1/DTD/svg11.dtd">
<!-- Generated by graphviz version 2.43.0 (0)
 -->
<!-- Title: CameraEventMessage Pages: 1 -->
<svg width="310pt" height="95pt"
 viewBox="0.00 0.00 310.00 95.00" xmlns="http://www.w3.org/2000/svg" xmlns:xlink="http://www.w3.org/1999/xlink">
<g id="graph0" class="graph" transform="scale(1 1) rotate(0) translate(4 91)">
<title>CameraEventMessage</title>
<!-- Node1 -->
<g id="node1" class="node">
<title>Node1</title>
<g id="a_node1"><a xlink:title="The CameraEventMessage class represents a FIT CameraEventMessage data message.">
<polygon fill="#bfbfbf" stroke="black" points="0,-0.5 0,-19.5 126,-19.5 126,-0.5 0,-0.5"/>
<text text-anchor="middle" x="63" y="-7.5" font-family="Helvetica,sans-Serif" font-size="10.00">CameraEventMessage</text>
</a>
</g>
</g>
<!-- Node2 -->
<g id="node2" class="node">
<title>Node2</title>
<g id="a_node2"><a xlink:href="classAbstractDataMessage.html" target="_top" xlink:title="The AbstractDataMessage class is the polymorphic base class for all FIT Data Message classes.">
<polygon fill="none" stroke="black" points="110,-67.5 110,-86.5 234,-86.5 234,-67.5 110,-67.5"/>
<text text-anchor="middle" x="172" y="-74.5" font-family="Helvetica,sans-Serif" font-size="10.00">AbstractDataMessage</text>
</a>
</g>
</g>
<!-- Node2&#45;&gt;Node1 -->
<g id="edge1" class="edge">
<title>Node2&#45;&gt;Node1</title>
<path fill="none" stroke="midnightblue" d="M148.43,-61.94C126.84,-49.07 95.58,-30.43 77.47,-19.63"/>
<polygon fill="midnightblue" stroke="midnightblue" points="146.92,-65.12 157.3,-67.23 150.5,-59.11 146.92,-65.12"/>
</g>
<!-- Node3 -->
<g id="node3" class="node">
<title>Node3</title>
<g id="a_node3"><a xlink:href="classAbstractDataMessagePrivate.html" target="_top" xlink:title=" ">
<polygon fill="none" stroke="black" points="144,-0.5 144,-19.5 302,-19.5 302,-0.5 144,-0.5"/>
<text text-anchor="middle" x="223" y="-7.5" font-family="Helvetica,sans-Serif" font-size="10.00">AbstractDataMessagePrivate</text>
</a>
</g>
</g>
<!-- Node2&#45;&gt;Node3 -->
<g id="edge3" class="edge">
<title>Node2&#45;&gt;Node3</title>
<path fill="none" stroke="#9a32cd" stroke-dasharray="5,2" d="M166.17,-57.37C165.21,-50.83 165.48,-43.7 169,-38 174.23,-29.53 183.02,-23.63 192,-19.55"/>
<polygon fill="#9a32cd" stroke="#9a32cd" points="162.86,-58.56 168.6,-67.47 169.67,-56.93 162.86,-58.56"/>
<text text-anchor="middle" x="183" y="-41" font-family="Helvetica,sans-Serif" font-size="10.00"> q_ptr</text>
</g>
<!-- Node3&#45;&gt;Node2 -->
<g id="edge2" class="edge">
<title>Node3&#45;&gt;Node2</title>
<path fill="none" stroke="#9a32cd" stroke-dasharray="5,2" d="M214.25,-28.57C210.57,-35.25 205.98,-42.75 201,-49 195.6,-55.78 188.49,-62.42 182.66,-67.43"/>
<polygon fill="#9a32cd" stroke="#9a32cd" points="217.41,-30.09 218.94,-19.61 211.21,-26.84 217.41,-30.09"/>
<text text-anchor="middle" x="222" y="-41" font-family="Helvetica,sans-Serif" font-size="10.00"> d_ptr</text>
</g>
</g>
</svg>
