<?xml version="1.0" encoding="UTF-8" standalone="no"?>
<!DOCTYPE svg PUBLIC "-//W3C//DTD SVG 1.1//EN"
 "http://www.w3.org/Graphics/SVG/1.1/DTD/svg11.dtd">
<!-- Generated by graphviz version 2.43.0 (0)
 -->
<!-- Title: DiveSummaryMessage Pages: 1 -->
<svg width="314pt" height="95pt"
 viewBox="0.00 0.00 314.00 95.00" xmlns="http://www.w3.org/2000/svg" xmlns:xlink="http://www.w3.org/1999/xlink">
<g id="graph0" class="graph" transform="scale(1 1) rotate(0) translate(4 91)">
<title>DiveSummaryMessage</title>
<!-- Node1 -->
<g id="node1" class="node">
<title>Node1</title>
<g id="a_node1"><a xlink:title="The DiveSummaryMessage class represents a FIT DiveSummaryMessage data message.">
<polygon fill="#bfbfbf" stroke="black" points="0,-0.5 0,-19.5 130,-19.5 130,-0.5 0,-0.5"/>
<text text-anchor="middle" x="65" y="-7.5" font-family="Helvetica,sans-Serif" font-size="10.00">DiveSummaryMessage</text>
</a>
</g>
</g>
<!-- Node2 -->
<g id="node2" class="node">
<title>Node2</title>
<g id="a_node2"><a xlink:href="classAbstractDataMessage.html" target="_top" xlink:title="The AbstractDataMessage class is the polymorphic base class for all FIT Data Message classes.">
<polygon fill="none" stroke="black" points="114,-67.5 114,-86.5 238,-86.5 238,-67.5 114,-67.5"/>
<text text-anchor="middle" x="176" y="-74.5" font-family="Helvetica,sans-Serif" font-size="10.00">AbstractDataMessage</text>
</a>
</g>
</g>
<!-- Node2&#45;&gt;Node1 -->
<g id="edge1" class="edge">
<title>Node2&#45;&gt;Node1</title>
<path fill="none" stroke="midnightblue" d="M152.29,-62.12C130.3,-49.24 98.26,-30.48 79.73,-19.63"/>
<polygon fill="midnightblue" stroke="midnightblue" points="150.63,-65.2 161.03,-67.23 154.17,-59.16 150.63,-65.2"/>
</g>
<!-- Node3 -->
<g id="node3" class="node">
<title>Node3</title>
<g id="a_node3"><a xlink:href="classAbstractDataMessagePrivate.html" target="_top" xlink:title=" ">
<polygon fill="none" stroke="black" points="148,-0.5 148,-19.5 306,-19.5 306,-0.5 148,-0.5"/>
<text text-anchor="middle" x="227" y="-7.5" font-family="Helvetica,sans-Serif" font-size="10.00">AbstractDataMessagePrivate</text>
</a>
</g>
</g>
<!-- Node2&#45;&gt;Node3 -->
<g id="edge3" class="edge">
<title>Node2&#45;&gt;Node3</title>
<path fill="none" stroke="#9a32cd" stroke-dasharray="5,2" d="M170.17,-57.37C169.21,-50.83 169.48,-43.7 173,-38 178.23,-29.53 187.02,-23.63 196,-19.55"/>
<polygon fill="#9a32cd" stroke="#9a32cd" points="166.86,-58.56 172.6,-67.47 173.67,-56.93 166.86,-58.56"/>
<text text-anchor="middle" x="187" y="-41" font-family="Helvetica,sans-Serif" font-size="10.00"> q_ptr</text>
</g>
<!-- Node3&#45;&gt;Node2 -->
<g id="edge2" class="edge">
<title>Node3&#45;&gt;Node2</title>
<path fill="none" stroke="#9a32cd" stroke-dasharray="5,2" d="M218.25,-28.57C214.57,-35.25 209.98,-42.75 205,-49 199.6,-55.78 192.49,-62.42 186.66,-67.43"/>
<polygon fill="#9a32cd" stroke="#9a32cd" points="221.41,-30.09 222.94,-19.61 215.21,-26.84 221.41,-30.09"/>
<text text-anchor="middle" x="226" y="-41" font-family="Helvetica,sans-Serif" font-size="10.00"> d_ptr</text>
</g>
</g>
</svg>
