<?xml version="1.0" encoding="UTF-8" standalone="no"?>
<!DOCTYPE svg PUBLIC "-//W3C//DTD SVG 1.1//EN"
 "http://www.w3.org/Graphics/SVG/1.1/DTD/svg11.dtd">
<!-- Generated by graphviz version 2.43.0 (0)
 -->
<!-- Title: DiveGasMessagePrivate Pages: 1 -->
<svg width="286pt" height="95pt"
 viewBox="0.00 0.00 286.00 95.00" xmlns="http://www.w3.org/2000/svg" xmlns:xlink="http://www.w3.org/1999/xlink">
<g id="graph0" class="graph" transform="scale(1 1) rotate(0) translate(4 91)">
<title>DiveGasMessagePrivate</title>
<!-- Node1 -->
<g id="node1" class="node">
<title>Node1</title>
<g id="a_node1"><a xlink:title=" ">
<polygon fill="#bfbfbf" stroke="black" points="0,-0.5 0,-19.5 136,-19.5 136,-0.5 0,-0.5"/>
<text text-anchor="middle" x="68" y="-7.5" font-family="Helvetica,sans-Serif" font-size="10.00">DiveGasMessagePrivate</text>
</a>
</g>
</g>
<!-- Node2 -->
<g id="node2" class="node">
<title>Node2</title>
<g id="a_node2"><a xlink:href="classAbstractDataMessagePrivate.html" target="_top" xlink:title=" ">
<polygon fill="none" stroke="black" points="86,-67.5 86,-86.5 244,-86.5 244,-67.5 86,-67.5"/>
<text text-anchor="middle" x="165" y="-74.5" font-family="Helvetica,sans-Serif" font-size="10.00">AbstractDataMessagePrivate</text>
</a>
</g>
</g>
<!-- Node2&#45;&gt;Node1 -->
<g id="edge1" class="edge">
<title>Node2&#45;&gt;Node1</title>
<path fill="none" stroke="midnightblue" d="M143.5,-61.59C124.31,-48.74 96.85,-30.33 80.87,-19.63"/>
<polygon fill="midnightblue" stroke="midnightblue" points="141.66,-64.57 151.92,-67.23 145.56,-58.76 141.66,-64.57"/>
</g>
<!-- Node3 -->
<g id="node3" class="node">
<title>Node3</title>
<g id="a_node3"><a xlink:href="classAbstractDataMessage.html" target="_top" xlink:title="The AbstractDataMessage class is the polymorphic base class for all FIT Data Message classes.">
<polygon fill="none" stroke="black" points="154,-0.5 154,-19.5 278,-19.5 278,-0.5 154,-0.5"/>
<text text-anchor="middle" x="216" y="-7.5" font-family="Helvetica,sans-Serif" font-size="10.00">AbstractDataMessage</text>
</a>
</g>
</g>
<!-- Node2&#45;&gt;Node3 -->
<g id="edge3" class="edge">
<title>Node2&#45;&gt;Node3</title>
<path fill="none" stroke="#9a32cd" stroke-dasharray="5,2" d="M159.17,-57.37C158.21,-50.83 158.48,-43.7 162,-38 167.23,-29.53 176.02,-23.63 185,-19.55"/>
<polygon fill="#9a32cd" stroke="#9a32cd" points="155.86,-58.56 161.6,-67.47 162.67,-56.93 155.86,-58.56"/>
<text text-anchor="middle" x="176" y="-41" font-family="Helvetica,sans-Serif" font-size="10.00"> d_ptr</text>
</g>
<!-- Node3&#45;&gt;Node2 -->
<g id="edge2" class="edge">
<title>Node3&#45;&gt;Node2</title>
<path fill="none" stroke="#9a32cd" stroke-dasharray="5,2" d="M207.25,-28.57C203.57,-35.25 198.98,-42.75 194,-49 188.6,-55.78 181.49,-62.42 175.66,-67.43"/>
<polygon fill="#9a32cd" stroke="#9a32cd" points="210.41,-30.09 211.94,-19.61 204.21,-26.84 210.41,-30.09"/>
<text text-anchor="middle" x="215" y="-41" font-family="Helvetica,sans-Serif" font-size="10.00"> q_ptr</text>
</g>
</g>
</svg>
