<?xml version="1.0" encoding="UTF-8" standalone="no"?>
<!DOCTYPE svg PUBLIC "-//W3C//DTD SVG 1.1//EN"
 "http://www.w3.org/Graphics/SVG/1.1/DTD/svg11.dtd">
<!-- Generated by graphviz version 2.43.0 (0)
 -->
<!-- Title: FieldCapabilitiesMessagePrivate Pages: 1 -->
<svg width="292pt" height="106pt"
 viewBox="0.00 0.00 291.50 106.00" xmlns="http://www.w3.org/2000/svg" xmlns:xlink="http://www.w3.org/1999/xlink">
<g id="graph0" class="graph" transform="scale(1 1) rotate(0) translate(4 102)">
<title>FieldCapabilitiesMessagePrivate</title>
<!-- Node1 -->
<g id="node1" class="node">
<title>Node1</title>
<g id="a_node1"><a xlink:title=" ">
<polygon fill="#bfbfbf" stroke="black" points="0,-0.5 0,-30.5 141,-30.5 141,-0.5 0,-0.5"/>
<text text-anchor="start" x="8" y="-18.5" font-family="Helvetica,sans-Serif" font-size="10.00">FieldCapabilitiesMessage</text>
<text text-anchor="middle" x="70.5" y="-7.5" font-family="Helvetica,sans-Serif" font-size="10.00">Private</text>
</a>
</g>
</g>
<!-- Node2 -->
<g id="node2" class="node">
<title>Node2</title>
<g id="a_node2"><a xlink:href="classAbstractDataMessagePrivate.html" target="_top" xlink:title=" ">
<polygon fill="none" stroke="black" points="91.5,-78.5 91.5,-97.5 249.5,-97.5 249.5,-78.5 91.5,-78.5"/>
<text text-anchor="middle" x="170.5" y="-85.5" font-family="Helvetica,sans-Serif" font-size="10.00">AbstractDataMessagePrivate</text>
</a>
</g>
</g>
<!-- Node2&#45;&gt;Node1 -->
<g id="edge1" class="edge">
<title>Node2&#45;&gt;Node1</title>
<path fill="none" stroke="midnightblue" d="M149.88,-72.47C132.47,-60.19 107.69,-42.72 90.47,-30.58"/>
<polygon fill="midnightblue" stroke="midnightblue" points="148.05,-75.45 158.24,-78.36 152.08,-69.73 148.05,-75.45"/>
</g>
<!-- Node3 -->
<g id="node3" class="node">
<title>Node3</title>
<g id="a_node3"><a xlink:href="classAbstractDataMessage.html" target="_top" xlink:title="The AbstractDataMessage class is the polymorphic base class for all FIT Data Message classes.">
<polygon fill="none" stroke="black" points="159.5,-6 159.5,-25 283.5,-25 283.5,-6 159.5,-6"/>
<text text-anchor="middle" x="221.5" y="-13" font-family="Helvetica,sans-Serif" font-size="10.00">AbstractDataMessage</text>
</a>
</g>
</g>
<!-- Node2&#45;&gt;Node3 -->
<g id="edge3" class="edge">
<title>Node2&#45;&gt;Node3</title>
<path fill="none" stroke="#9a32cd" stroke-dasharray="5,2" d="M164.89,-68.27C163.99,-61.81 164.25,-54.76 167.5,-49 173.75,-37.95 185.42,-30.24 196.32,-25.11"/>
<polygon fill="#9a32cd" stroke="#9a32cd" points="161.53,-69.28 167.16,-78.25 168.35,-67.72 161.53,-69.28"/>
<text text-anchor="middle" x="181.5" y="-52" font-family="Helvetica,sans-Serif" font-size="10.00"> d_ptr</text>
</g>
<!-- Node3&#45;&gt;Node2 -->
<g id="edge2" class="edge">
<title>Node3&#45;&gt;Node2</title>
<path fill="none" stroke="#9a32cd" stroke-dasharray="5,2" d="M214.18,-34.41C210.41,-42.6 205.36,-52.2 199.5,-60 194.37,-66.82 187.41,-73.37 181.59,-78.31"/>
<polygon fill="#9a32cd" stroke="#9a32cd" points="217.49,-35.59 218.25,-25.02 211.06,-32.8 217.49,-35.59"/>
<text text-anchor="middle" x="219.5" y="-52" font-family="Helvetica,sans-Serif" font-size="10.00"> q_ptr</text>
</g>
</g>
</svg>
