<?xml version="1.0" encoding="UTF-8" standalone="no"?>
<!DOCTYPE svg PUBLIC "-//W3C//DTD SVG 1.1//EN"
 "http://www.w3.org/Graphics/SVG/1.1/DTD/svg11.dtd">
<!-- Generated by graphviz version 2.43.0 (0)
 -->
<!-- Title: VideoTitleMessagePrivate Pages: 1 -->
<svg width="294pt" height="95pt"
 viewBox="0.00 0.00 294.00 95.00" xmlns="http://www.w3.org/2000/svg" xmlns:xlink="http://www.w3.org/1999/xlink">
<g id="graph0" class="graph" transform="scale(1 1) rotate(0) translate(4 91)">
<title>VideoTitleMessagePrivate</title>
<!-- Node1 -->
<g id="node1" class="node">
<title>Node1</title>
<g id="a_node1"><a xlink:title=" ">
<polygon fill="#bfbfbf" stroke="black" points="0,-0.5 0,-19.5 144,-19.5 144,-0.5 0,-0.5"/>
<text text-anchor="middle" x="72" y="-7.5" font-family="Helvetica,sans-Serif" font-size="10.00">VideoTitleMessagePrivate</text>
</a>
</g>
</g>
<!-- Node2 -->
<g id="node2" class="node">
<title>Node2</title>
<g id="a_node2"><a xlink:href="classAbstractDataMessagePrivate.html" target="_top" xlink:title=" ">
<polygon fill="none" stroke="black" points="94,-67.5 94,-86.5 252,-86.5 252,-67.5 94,-67.5"/>
<text text-anchor="middle" x="173" y="-74.5" font-family="Helvetica,sans-Serif" font-size="10.00">AbstractDataMessagePrivate</text>
</a>
</g>
</g>
<!-- Node2&#45;&gt;Node1 -->
<g id="edge1" class="edge">
<title>Node2&#45;&gt;Node1</title>
<path fill="none" stroke="midnightblue" d="M150.89,-61.77C130.89,-48.9 102.11,-30.38 85.41,-19.63"/>
<polygon fill="midnightblue" stroke="midnightblue" points="149.08,-64.77 159.38,-67.23 152.86,-58.88 149.08,-64.77"/>
</g>
<!-- Node3 -->
<g id="node3" class="node">
<title>Node3</title>
<g id="a_node3"><a xlink:href="classAbstractDataMessage.html" target="_top" xlink:title="The AbstractDataMessage class is the polymorphic base class for all FIT Data Message classes.">
<polygon fill="none" stroke="black" points="162,-0.5 162,-19.5 286,-19.5 286,-0.5 162,-0.5"/>
<text text-anchor="middle" x="224" y="-7.5" font-family="Helvetica,sans-Serif" font-size="10.00">AbstractDataMessage</text>
</a>
</g>
</g>
<!-- Node2&#45;&gt;Node3 -->
<g id="edge3" class="edge">
<title>Node2&#45;&gt;Node3</title>
<path fill="none" stroke="#9a32cd" stroke-dasharray="5,2" d="M167.17,-57.37C166.21,-50.83 166.48,-43.7 170,-38 175.23,-29.53 184.02,-23.63 193,-19.55"/>
<polygon fill="#9a32cd" stroke="#9a32cd" points="163.86,-58.56 169.6,-67.47 170.67,-56.93 163.86,-58.56"/>
<text text-anchor="middle" x="184" y="-41" font-family="Helvetica,sans-Serif" font-size="10.00"> d_ptr</text>
</g>
<!-- Node3&#45;&gt;Node2 -->
<g id="edge2" class="edge">
<title>Node3&#45;&gt;Node2</title>
<path fill="none" stroke="#9a32cd" stroke-dasharray="5,2" d="M215.25,-28.57C211.57,-35.25 206.98,-42.75 202,-49 196.6,-55.78 189.49,-62.42 183.66,-67.43"/>
<polygon fill="#9a32cd" stroke="#9a32cd" points="218.41,-30.09 219.94,-19.61 212.21,-26.84 218.41,-30.09"/>
<text text-anchor="middle" x="223" y="-41" font-family="Helvetica,sans-Serif" font-size="10.00"> q_ptr</text>
</g>
</g>
</svg>
