<?xml version="1.0" encoding="UTF-8" standalone="no"?>
<!DOCTYPE svg PUBLIC "-//W3C//DTD SVG 1.1//EN"
 "http://www.w3.org/Graphics/SVG/1.1/DTD/svg11.dtd">
<!-- Generated by graphviz version 2.43.0 (0)
 -->
<!-- Title: SegmentLapMessage Pages: 1 -->
<svg width="306pt" height="95pt"
 viewBox="0.00 0.00 305.50 95.00" xmlns="http://www.w3.org/2000/svg" xmlns:xlink="http://www.w3.org/1999/xlink">
<g id="graph0" class="graph" transform="scale(1 1) rotate(0) translate(4 91)">
<title>SegmentLapMessage</title>
<!-- Node1 -->
<g id="node1" class="node">
<title>Node1</title>
<g id="a_node1"><a xlink:title="The SegmentLapMessage class represents a FIT SegmentLapMessage data message.">
<polygon fill="#bfbfbf" stroke="black" points="0,-0.5 0,-19.5 121,-19.5 121,-0.5 0,-0.5"/>
<text text-anchor="middle" x="60.5" y="-7.5" font-family="Helvetica,sans-Serif" font-size="10.00">SegmentLapMessage</text>
</a>
</g>
</g>
<!-- Node2 -->
<g id="node2" class="node">
<title>Node2</title>
<g id="a_node2"><a xlink:href="classAbstractDataMessage.html" target="_top" xlink:title="The AbstractDataMessage class is the polymorphic base class for all FIT Data Message classes.">
<polygon fill="none" stroke="black" points="105.5,-67.5 105.5,-86.5 229.5,-86.5 229.5,-67.5 105.5,-67.5"/>
<text text-anchor="middle" x="167.5" y="-74.5" font-family="Helvetica,sans-Serif" font-size="10.00">AbstractDataMessage</text>
</a>
</g>
</g>
<!-- Node2&#45;&gt;Node1 -->
<g id="edge1" class="edge">
<title>Node2&#45;&gt;Node1</title>
<path fill="none" stroke="midnightblue" d="M144.36,-61.94C123.17,-49.07 92.48,-30.43 74.7,-19.63"/>
<polygon fill="midnightblue" stroke="midnightblue" points="142.71,-65.03 153.07,-67.23 146.34,-59.05 142.71,-65.03"/>
</g>
<!-- Node3 -->
<g id="node3" class="node">
<title>Node3</title>
<g id="a_node3"><a xlink:href="classAbstractDataMessagePrivate.html" target="_top" xlink:title=" ">
<polygon fill="none" stroke="black" points="139.5,-0.5 139.5,-19.5 297.5,-19.5 297.5,-0.5 139.5,-0.5"/>
<text text-anchor="middle" x="218.5" y="-7.5" font-family="Helvetica,sans-Serif" font-size="10.00">AbstractDataMessagePrivate</text>
</a>
</g>
</g>
<!-- Node2&#45;&gt;Node3 -->
<g id="edge3" class="edge">
<title>Node2&#45;&gt;Node3</title>
<path fill="none" stroke="#9a32cd" stroke-dasharray="5,2" d="M161.67,-57.37C160.71,-50.83 160.98,-43.7 164.5,-38 169.73,-29.53 178.52,-23.63 187.5,-19.55"/>
<polygon fill="#9a32cd" stroke="#9a32cd" points="158.36,-58.56 164.1,-67.47 165.17,-56.93 158.36,-58.56"/>
<text text-anchor="middle" x="178.5" y="-41" font-family="Helvetica,sans-Serif" font-size="10.00"> q_ptr</text>
</g>
<!-- Node3&#45;&gt;Node2 -->
<g id="edge2" class="edge">
<title>Node3&#45;&gt;Node2</title>
<path fill="none" stroke="#9a32cd" stroke-dasharray="5,2" d="M209.75,-28.57C206.07,-35.25 201.48,-42.75 196.5,-49 191.1,-55.78 183.99,-62.42 178.16,-67.43"/>
<polygon fill="#9a32cd" stroke="#9a32cd" points="212.91,-30.09 214.44,-19.61 206.71,-26.84 212.91,-30.09"/>
<text text-anchor="middle" x="217.5" y="-41" font-family="Helvetica,sans-Serif" font-size="10.00"> d_ptr</text>
</g>
</g>
</svg>
