<?xml version="1.0" encoding="UTF-8" standalone="no"?>
<!DOCTYPE svg PUBLIC "-//W3C//DTD SVG 1.1//EN"
 "http://www.w3.org/Graphics/SVG/1.1/DTD/svg11.dtd">
<!-- Generated by graphviz version 2.43.0 (0)
 -->
<!-- Title: TimestampCorrelationMessagePrivate::setField Pages: 1 -->
<svg width="474pt" height="102pt"
 viewBox="0.00 0.00 474.00 101.50" xmlns="http://www.w3.org/2000/svg" xmlns:xlink="http://www.w3.org/1999/xlink">
<g id="graph0" class="graph" transform="scale(1 1) rotate(0) translate(4 97.5)">
<title>TimestampCorrelationMessagePrivate::setField</title>
<!-- Node1 -->
<g id="node1" class="node">
<title>Node1</title>
<g id="a_node1"><a xlink:title=" ">
<polygon fill="#bfbfbf" stroke="black" points="0,-38 0,-68 170,-68 170,-38 0,-38"/>
<text text-anchor="start" x="8" y="-56" font-family="Helvetica,sans-Serif" font-size="10.00">TimestampCorrelationMessage</text>
<text text-anchor="middle" x="85" y="-45" font-family="Helvetica,sans-Serif" font-size="10.00">Private::setField</text>
</a>
</g>
</g>
<!-- Node2 -->
<g id="node2" class="node">
<title>Node2</title>
<g id="a_node2"><a xlink:href="classFitDataMessagePrivate.html#a80365775402f7e855a8af29238d128a3" target="_top" xlink:title=" ">
<polygon fill="none" stroke="black" points="206,-63 206,-93 336,-93 336,-63 206,-63"/>
<text text-anchor="start" x="214" y="-81" font-family="Helvetica,sans-Serif" font-size="10.00">FitDataMessagePrivate</text>
<text text-anchor="middle" x="271" y="-70" font-family="Helvetica,sans-Serif" font-size="10.00">::setField</text>
</a>
</g>
</g>
<!-- Node1&#45;&gt;Node2 -->
<g id="edge1" class="edge">
<title>Node1&#45;&gt;Node2</title>
<path fill="none" stroke="midnightblue" d="M170.19,-64.44C178.74,-65.6 187.37,-66.77 195.8,-67.92"/>
<polygon fill="midnightblue" stroke="midnightblue" points="195.57,-71.42 205.95,-69.3 196.52,-64.48 195.57,-71.42"/>
</g>
<!-- Node3 -->
<g id="node3" class="node">
<title>Node3</title>
<g id="a_node3"><a xlink:href="classFitDataMessagePrivate.html#a4a9a5ee83dbe87dcc25f3fc5f50f2284" target="_top" xlink:title="\interal">
<polygon fill="none" stroke="black" points="206,-14 206,-44 336,-44 336,-14 206,-14"/>
<text text-anchor="start" x="214" y="-32" font-family="Helvetica,sans-Serif" font-size="10.00">FitDataMessagePrivate</text>
<text text-anchor="middle" x="271" y="-21" font-family="Helvetica,sans-Serif" font-size="10.00">::verify</text>
</a>
</g>
</g>
<!-- Node1&#45;&gt;Node3 -->
<g id="edge2" class="edge">
<title>Node1&#45;&gt;Node3</title>
<path fill="none" stroke="midnightblue" d="M170.19,-42.02C178.74,-40.9 187.37,-39.78 195.8,-38.68"/>
<polygon fill="midnightblue" stroke="midnightblue" points="196.49,-42.12 205.95,-37.35 195.59,-35.18 196.49,-42.12"/>
</g>
<!-- Node4 -->
<g id="node4" class="node">
<title>Node4</title>
<g id="a_node4"><a xlink:href="fitdatamessage_8cpp.html#a3d7ec006b7bf32e4ea754e0ce7a0d3a4" target="_top" xlink:title=" ">
<polygon fill="none" stroke="black" points="373.5,-38.5 373.5,-57.5 464.5,-57.5 464.5,-38.5 373.5,-38.5"/>
<text text-anchor="middle" x="419" y="-45.5" font-family="Helvetica,sans-Serif" font-size="10.00">verifyBaseType</text>
</a>
</g>
</g>
<!-- Node3&#45;&gt;Node4 -->
<g id="edge3" class="edge">
<title>Node3&#45;&gt;Node4</title>
<path fill="none" stroke="midnightblue" d="M336.04,-37.33C345.07,-38.51 354.29,-39.71 363.12,-40.86"/>
<polygon fill="midnightblue" stroke="midnightblue" points="362.93,-44.36 373.29,-42.18 363.83,-37.42 362.93,-44.36"/>
</g>
<!-- Node5 -->
<g id="node5" class="node">
<title>Node5</title>
<g id="a_node5"><a xlink:href="fitdatamessage_8cpp.html#a3e1c894ea22d300479f8a7f822127d03" target="_top" xlink:title=" ">
<polygon fill="none" stroke="black" points="372,-0.5 372,-19.5 466,-19.5 466,-0.5 372,-0.5"/>
<text text-anchor="middle" x="419" y="-7.5" font-family="Helvetica,sans-Serif" font-size="10.00">verifyDataSieze</text>
</a>
</g>
</g>
<!-- Node3&#45;&gt;Node5 -->
<g id="edge4" class="edge">
<title>Node3&#45;&gt;Node5</title>
<path fill="none" stroke="midnightblue" d="M336.04,-20.67C344.64,-19.55 353.42,-18.4 361.87,-17.3"/>
<polygon fill="midnightblue" stroke="midnightblue" points="362.53,-20.75 372,-15.99 361.63,-13.81 362.53,-20.75"/>
</g>
</g>
</svg>
