<?xml version="1.0" encoding="UTF-8" standalone="no"?>
<!DOCTYPE svg PUBLIC "-//W3C//DTD SVG 1.1//EN"
 "http://www.w3.org/Graphics/SVG/1.1/DTD/svg11.dtd">
<!-- Generated by graphviz version 2.43.0 (0)
 -->
<!-- Title: UserProfileMessagePrivate Pages: 1 -->
<svg width="298pt" height="95pt"
 viewBox="0.00 0.00 298.00 95.00" xmlns="http://www.w3.org/2000/svg" xmlns:xlink="http://www.w3.org/1999/xlink">
<g id="graph0" class="graph" transform="scale(1 1) rotate(0) translate(4 91)">
<title>UserProfileMessagePrivate</title>
<!-- Node1 -->
<g id="node1" class="node">
<title>Node1</title>
<g id="a_node1"><a xlink:title=" ">
<polygon fill="#bfbfbf" stroke="black" points="0,-0.5 0,-19.5 148,-19.5 148,-0.5 0,-0.5"/>
<text text-anchor="middle" x="74" y="-7.5" font-family="Helvetica,sans-Serif" font-size="10.00">UserProfileMessagePrivate</text>
</a>
</g>
</g>
<!-- Node2 -->
<g id="node2" class="node">
<title>Node2</title>
<g id="a_node2"><a xlink:href="classAbstractDataMessagePrivate.html" target="_top" xlink:title=" ">
<polygon fill="none" stroke="black" points="98,-67.5 98,-86.5 256,-86.5 256,-67.5 98,-67.5"/>
<text text-anchor="middle" x="177" y="-74.5" font-family="Helvetica,sans-Serif" font-size="10.00">AbstractDataMessagePrivate</text>
</a>
</g>
</g>
<!-- Node2&#45;&gt;Node1 -->
<g id="edge1" class="edge">
<title>Node2&#45;&gt;Node1</title>
<path fill="none" stroke="midnightblue" d="M154.45,-61.77C134.06,-48.9 104.71,-30.38 87.67,-19.63"/>
<polygon fill="midnightblue" stroke="midnightblue" points="152.78,-64.86 163.11,-67.23 156.52,-58.94 152.78,-64.86"/>
</g>
<!-- Node3 -->
<g id="node3" class="node">
<title>Node3</title>
<g id="a_node3"><a xlink:href="classAbstractDataMessage.html" target="_top" xlink:title="The AbstractDataMessage class is the polymorphic base class for all FIT Data Message classes.">
<polygon fill="none" stroke="black" points="166,-0.5 166,-19.5 290,-19.5 290,-0.5 166,-0.5"/>
<text text-anchor="middle" x="228" y="-7.5" font-family="Helvetica,sans-Serif" font-size="10.00">AbstractDataMessage</text>
</a>
</g>
</g>
<!-- Node2&#45;&gt;Node3 -->
<g id="edge3" class="edge">
<title>Node2&#45;&gt;Node3</title>
<path fill="none" stroke="#9a32cd" stroke-dasharray="5,2" d="M171.17,-57.37C170.21,-50.83 170.48,-43.7 174,-38 179.23,-29.53 188.02,-23.63 197,-19.55"/>
<polygon fill="#9a32cd" stroke="#9a32cd" points="167.86,-58.56 173.6,-67.47 174.67,-56.93 167.86,-58.56"/>
<text text-anchor="middle" x="188" y="-41" font-family="Helvetica,sans-Serif" font-size="10.00"> d_ptr</text>
</g>
<!-- Node3&#45;&gt;Node2 -->
<g id="edge2" class="edge">
<title>Node3&#45;&gt;Node2</title>
<path fill="none" stroke="#9a32cd" stroke-dasharray="5,2" d="M219.25,-28.57C215.57,-35.25 210.98,-42.75 206,-49 200.6,-55.78 193.49,-62.42 187.66,-67.43"/>
<polygon fill="#9a32cd" stroke="#9a32cd" points="222.41,-30.09 223.94,-19.61 216.21,-26.84 222.41,-30.09"/>
<text text-anchor="middle" x="227" y="-41" font-family="Helvetica,sans-Serif" font-size="10.00"> q_ptr</text>
</g>
</g>
</svg>
