<?xml version="1.0" encoding="UTF-8" standalone="no"?>
<!DOCTYPE svg PUBLIC "-//W3C//DTD SVG 1.1//EN"
 "http://www.w3.org/Graphics/SVG/1.1/DTD/svg11.dtd">
<!-- Generated by graphviz version 2.43.0 (0)
 -->
<!-- Title: SegmentLeaderboardEntryMessagePrivate Pages: 1 -->
<svg width="340pt" height="106pt"
 viewBox="0.00 0.00 340.00 106.00" xmlns="http://www.w3.org/2000/svg" xmlns:xlink="http://www.w3.org/1999/xlink">
<g id="graph0" class="graph" transform="scale(1 1) rotate(0) translate(4 102)">
<title>SegmentLeaderboardEntryMessagePrivate</title>
<!-- Node1 -->
<g id="node1" class="node">
<title>Node1</title>
<g id="a_node1"><a xlink:title=" ">
<polygon fill="#bfbfbf" stroke="black" points="0,-0.5 0,-30.5 190,-30.5 190,-0.5 0,-0.5"/>
<text text-anchor="start" x="8" y="-18.5" font-family="Helvetica,sans-Serif" font-size="10.00">SegmentLeaderboardEntryMessage</text>
<text text-anchor="middle" x="95" y="-7.5" font-family="Helvetica,sans-Serif" font-size="10.00">Private</text>
</a>
</g>
</g>
<!-- Node2 -->
<g id="node2" class="node">
<title>Node2</title>
<g id="a_node2"><a xlink:href="classAbstractDataMessagePrivate.html" target="_top" xlink:title=" ">
<polygon fill="none" stroke="black" points="140,-78.5 140,-97.5 298,-97.5 298,-78.5 140,-78.5"/>
<text text-anchor="middle" x="219" y="-85.5" font-family="Helvetica,sans-Serif" font-size="10.00">AbstractDataMessagePrivate</text>
</a>
</g>
</g>
<!-- Node2&#45;&gt;Node1 -->
<g id="edge1" class="edge">
<title>Node2&#45;&gt;Node1</title>
<path fill="none" stroke="midnightblue" d="M194.91,-73.3C173.26,-60.99 141.61,-43 119.76,-30.58"/>
<polygon fill="midnightblue" stroke="midnightblue" points="193.37,-76.46 203.8,-78.36 196.83,-70.37 193.37,-76.46"/>
</g>
<!-- Node3 -->
<g id="node3" class="node">
<title>Node3</title>
<g id="a_node3"><a xlink:href="classAbstractDataMessage.html" target="_top" xlink:title="The AbstractDataMessage class is the polymorphic base class for all FIT Data Message classes.">
<polygon fill="none" stroke="black" points="208,-6 208,-25 332,-25 332,-6 208,-6"/>
<text text-anchor="middle" x="270" y="-13" font-family="Helvetica,sans-Serif" font-size="10.00">AbstractDataMessage</text>
</a>
</g>
</g>
<!-- Node2&#45;&gt;Node3 -->
<g id="edge3" class="edge">
<title>Node2&#45;&gt;Node3</title>
<path fill="none" stroke="#9a32cd" stroke-dasharray="5,2" d="M213.39,-68.27C212.49,-61.81 212.75,-54.76 216,-49 222.25,-37.95 233.92,-30.24 244.82,-25.11"/>
<polygon fill="#9a32cd" stroke="#9a32cd" points="210.03,-69.28 215.66,-78.25 216.85,-67.72 210.03,-69.28"/>
<text text-anchor="middle" x="230" y="-52" font-family="Helvetica,sans-Serif" font-size="10.00"> d_ptr</text>
</g>
<!-- Node3&#45;&gt;Node2 -->
<g id="edge2" class="edge">
<title>Node3&#45;&gt;Node2</title>
<path fill="none" stroke="#9a32cd" stroke-dasharray="5,2" d="M262.68,-34.41C258.91,-42.6 253.86,-52.2 248,-60 242.87,-66.82 235.91,-73.37 230.09,-78.31"/>
<polygon fill="#9a32cd" stroke="#9a32cd" points="265.99,-35.59 266.75,-25.02 259.56,-32.8 265.99,-35.59"/>
<text text-anchor="middle" x="268" y="-52" font-family="Helvetica,sans-Serif" font-size="10.00"> q_ptr</text>
</g>
</g>
</svg>
