<?xml version="1.0" encoding="UTF-8" standalone="no"?>
<!DOCTYPE svg PUBLIC "-//W3C//DTD SVG 1.1//EN"
 "http://www.w3.org/Graphics/SVG/1.1/DTD/svg11.dtd">
<!-- Generated by graphviz version 2.43.0 (0)
 -->
<!-- Title: EventMessagePrivate::setField Pages: 1 -->
<svg width="426pt" height="102pt"
 viewBox="0.00 0.00 426.00 101.50" xmlns="http://www.w3.org/2000/svg" xmlns:xlink="http://www.w3.org/1999/xlink">
<g id="graph0" class="graph" transform="scale(1 1) rotate(0) translate(4 97.5)">
<title>EventMessagePrivate::setField</title>
<!-- Node1 -->
<g id="node1" class="node">
<title>Node1</title>
<g id="a_node1"><a xlink:title=" ">
<polygon fill="#bfbfbf" stroke="black" points="0,-38 0,-68 122,-68 122,-38 0,-38"/>
<text text-anchor="start" x="8" y="-56" font-family="Helvetica,sans-Serif" font-size="10.00">EventMessagePrivate</text>
<text text-anchor="middle" x="61" y="-45" font-family="Helvetica,sans-Serif" font-size="10.00">::setField</text>
</a>
</g>
</g>
<!-- Node2 -->
<g id="node2" class="node">
<title>Node2</title>
<g id="a_node2"><a xlink:href="classFitDataMessagePrivate.html#a80365775402f7e855a8af29238d128a3" target="_top" xlink:title=" ">
<polygon fill="none" stroke="black" points="158,-63 158,-93 288,-93 288,-63 158,-63"/>
<text text-anchor="start" x="166" y="-81" font-family="Helvetica,sans-Serif" font-size="10.00">FitDataMessagePrivate</text>
<text text-anchor="middle" x="223" y="-70" font-family="Helvetica,sans-Serif" font-size="10.00">::setField</text>
</a>
</g>
</g>
<!-- Node1&#45;&gt;Node2 -->
<g id="edge1" class="edge">
<title>Node1&#45;&gt;Node2</title>
<path fill="none" stroke="midnightblue" d="M122.03,-62.38C130.45,-63.69 139.17,-65.06 147.81,-66.41"/>
<polygon fill="midnightblue" stroke="midnightblue" points="147.46,-69.9 157.88,-67.98 148.54,-62.98 147.46,-69.9"/>
</g>
<!-- Node3 -->
<g id="node3" class="node">
<title>Node3</title>
<g id="a_node3"><a xlink:href="classFitDataMessagePrivate.html#a4a9a5ee83dbe87dcc25f3fc5f50f2284" target="_top" xlink:title=" ">
<polygon fill="none" stroke="black" points="158,-14 158,-44 288,-44 288,-14 158,-14"/>
<text text-anchor="start" x="166" y="-32" font-family="Helvetica,sans-Serif" font-size="10.00">FitDataMessagePrivate</text>
<text text-anchor="middle" x="223" y="-21" font-family="Helvetica,sans-Serif" font-size="10.00">::verify</text>
</a>
</g>
</g>
<!-- Node1&#45;&gt;Node3 -->
<g id="edge2" class="edge">
<title>Node1&#45;&gt;Node3</title>
<path fill="none" stroke="midnightblue" d="M122.03,-44C130.45,-42.73 139.17,-41.42 147.81,-40.13"/>
<polygon fill="midnightblue" stroke="midnightblue" points="148.51,-43.56 157.88,-38.62 147.47,-36.64 148.51,-43.56"/>
</g>
<!-- Node4 -->
<g id="node4" class="node">
<title>Node4</title>
<g id="a_node4"><a xlink:href="fitdatamessage_8cpp.html#a3d7ec006b7bf32e4ea754e0ce7a0d3a4" target="_top" xlink:title=" ">
<polygon fill="none" stroke="black" points="325.5,-38.5 325.5,-57.5 416.5,-57.5 416.5,-38.5 325.5,-38.5"/>
<text text-anchor="middle" x="371" y="-45.5" font-family="Helvetica,sans-Serif" font-size="10.00">verifyBaseType</text>
</a>
</g>
</g>
<!-- Node3&#45;&gt;Node4 -->
<g id="edge3" class="edge">
<title>Node3&#45;&gt;Node4</title>
<path fill="none" stroke="midnightblue" d="M288.04,-37.33C297.07,-38.51 306.29,-39.71 315.12,-40.86"/>
<polygon fill="midnightblue" stroke="midnightblue" points="314.93,-44.36 325.29,-42.18 315.83,-37.42 314.93,-44.36"/>
</g>
<!-- Node5 -->
<g id="node5" class="node">
<title>Node5</title>
<g id="a_node5"><a xlink:href="fitdatamessage_8cpp.html#a3e1c894ea22d300479f8a7f822127d03" target="_top" xlink:title=" ">
<polygon fill="none" stroke="black" points="324,-0.5 324,-19.5 418,-19.5 418,-0.5 324,-0.5"/>
<text text-anchor="middle" x="371" y="-7.5" font-family="Helvetica,sans-Serif" font-size="10.00">verifyDataSieze</text>
</a>
</g>
</g>
<!-- Node3&#45;&gt;Node5 -->
<g id="edge4" class="edge">
<title>Node3&#45;&gt;Node5</title>
<path fill="none" stroke="midnightblue" d="M288.04,-20.67C296.64,-19.55 305.42,-18.4 313.87,-17.3"/>
<polygon fill="midnightblue" stroke="midnightblue" points="314.53,-20.75 324,-15.99 313.63,-13.81 314.53,-20.75"/>
</g>
</g>
</svg>
