<?xml version="1.0" encoding="UTF-8" standalone="no"?>
<!DOCTYPE svg PUBLIC "-//W3C//DTD SVG 1.1//EN"
 "http://www.w3.org/Graphics/SVG/1.1/DTD/svg11.dtd">
<!-- Generated by graphviz version 2.43.0 (0)
 -->
<!-- Title: ObdiiDataMessagePrivate Pages: 1 -->
<svg width="294pt" height="95pt"
 viewBox="0.00 0.00 293.50 95.00" xmlns="http://www.w3.org/2000/svg" xmlns:xlink="http://www.w3.org/1999/xlink">
<g id="graph0" class="graph" transform="scale(1 1) rotate(0) translate(4 91)">
<title>ObdiiDataMessagePrivate</title>
<!-- Node1 -->
<g id="node1" class="node">
<title>Node1</title>
<g id="a_node1"><a xlink:title=" ">
<polygon fill="#bfbfbf" stroke="black" points="0,-0.5 0,-19.5 143,-19.5 143,-0.5 0,-0.5"/>
<text text-anchor="middle" x="71.5" y="-7.5" font-family="Helvetica,sans-Serif" font-size="10.00">ObdiiDataMessagePrivate</text>
</a>
</g>
</g>
<!-- Node2 -->
<g id="node2" class="node">
<title>Node2</title>
<g id="a_node2"><a xlink:href="classAbstractDataMessagePrivate.html" target="_top" xlink:title=" ">
<polygon fill="none" stroke="black" points="93.5,-67.5 93.5,-86.5 251.5,-86.5 251.5,-67.5 93.5,-67.5"/>
<text text-anchor="middle" x="172.5" y="-74.5" font-family="Helvetica,sans-Serif" font-size="10.00">AbstractDataMessagePrivate</text>
</a>
</g>
</g>
<!-- Node2&#45;&gt;Node1 -->
<g id="edge1" class="edge">
<title>Node2&#45;&gt;Node1</title>
<path fill="none" stroke="midnightblue" d="M150.39,-61.77C130.39,-48.9 101.61,-30.38 84.91,-19.63"/>
<polygon fill="midnightblue" stroke="midnightblue" points="148.58,-64.77 158.88,-67.23 152.36,-58.88 148.58,-64.77"/>
</g>
<!-- Node3 -->
<g id="node3" class="node">
<title>Node3</title>
<g id="a_node3"><a xlink:href="classAbstractDataMessage.html" target="_top" xlink:title="The AbstractDataMessage class is the polymorphic base class for all FIT Data Message classes.">
<polygon fill="none" stroke="black" points="161.5,-0.5 161.5,-19.5 285.5,-19.5 285.5,-0.5 161.5,-0.5"/>
<text text-anchor="middle" x="223.5" y="-7.5" font-family="Helvetica,sans-Serif" font-size="10.00">AbstractDataMessage</text>
</a>
</g>
</g>
<!-- Node2&#45;&gt;Node3 -->
<g id="edge3" class="edge">
<title>Node2&#45;&gt;Node3</title>
<path fill="none" stroke="#9a32cd" stroke-dasharray="5,2" d="M166.67,-57.37C165.71,-50.83 165.98,-43.7 169.5,-38 174.73,-29.53 183.52,-23.63 192.5,-19.55"/>
<polygon fill="#9a32cd" stroke="#9a32cd" points="163.36,-58.56 169.1,-67.47 170.17,-56.93 163.36,-58.56"/>
<text text-anchor="middle" x="183.5" y="-41" font-family="Helvetica,sans-Serif" font-size="10.00"> d_ptr</text>
</g>
<!-- Node3&#45;&gt;Node2 -->
<g id="edge2" class="edge">
<title>Node3&#45;&gt;Node2</title>
<path fill="none" stroke="#9a32cd" stroke-dasharray="5,2" d="M214.75,-28.57C211.07,-35.25 206.48,-42.75 201.5,-49 196.1,-55.78 188.99,-62.42 183.16,-67.43"/>
<polygon fill="#9a32cd" stroke="#9a32cd" points="217.91,-30.09 219.44,-19.61 211.71,-26.84 217.91,-30.09"/>
<text text-anchor="middle" x="222.5" y="-41" font-family="Helvetica,sans-Serif" font-size="10.00"> q_ptr</text>
</g>
</g>
</svg>
