<?xml version="1.0" encoding="UTF-8" standalone="no"?>
<!DOCTYPE svg PUBLIC "-//W3C//DTD SVG 1.1//EN"
 "http://www.w3.org/Graphics/SVG/1.1/DTD/svg11.dtd">
<!-- Generated by graphviz version 2.43.0 (0)
 -->
<!-- Title: MetZoneMessagePrivate Pages: 1 -->
<svg width="288pt" height="95pt"
 viewBox="0.00 0.00 288.00 95.00" xmlns="http://www.w3.org/2000/svg" xmlns:xlink="http://www.w3.org/1999/xlink">
<g id="graph0" class="graph" transform="scale(1 1) rotate(0) translate(4 91)">
<title>MetZoneMessagePrivate</title>
<!-- Node1 -->
<g id="node1" class="node">
<title>Node1</title>
<g id="a_node1"><a xlink:title=" ">
<polygon fill="#bfbfbf" stroke="black" points="0,-0.5 0,-19.5 138,-19.5 138,-0.5 0,-0.5"/>
<text text-anchor="middle" x="69" y="-7.5" font-family="Helvetica,sans-Serif" font-size="10.00">MetZoneMessagePrivate</text>
</a>
</g>
</g>
<!-- Node2 -->
<g id="node2" class="node">
<title>Node2</title>
<g id="a_node2"><a xlink:href="classAbstractDataMessagePrivate.html" target="_top" xlink:title=" ">
<polygon fill="none" stroke="black" points="88,-67.5 88,-86.5 246,-86.5 246,-67.5 88,-67.5"/>
<text text-anchor="middle" x="167" y="-74.5" font-family="Helvetica,sans-Serif" font-size="10.00">AbstractDataMessagePrivate</text>
</a>
</g>
</g>
<!-- Node2&#45;&gt;Node1 -->
<g id="edge1" class="edge">
<title>Node2&#45;&gt;Node1</title>
<path fill="none" stroke="midnightblue" d="M145.28,-61.59C125.89,-48.74 98.14,-30.33 82.01,-19.63"/>
<polygon fill="midnightblue" stroke="midnightblue" points="143.52,-64.62 153.78,-67.23 147.38,-58.79 143.52,-64.62"/>
</g>
<!-- Node3 -->
<g id="node3" class="node">
<title>Node3</title>
<g id="a_node3"><a xlink:href="classAbstractDataMessage.html" target="_top" xlink:title="The AbstractDataMessage class is the polymorphic base class for all FIT Data Message classes.">
<polygon fill="none" stroke="black" points="156,-0.5 156,-19.5 280,-19.5 280,-0.5 156,-0.5"/>
<text text-anchor="middle" x="218" y="-7.5" font-family="Helvetica,sans-Serif" font-size="10.00">AbstractDataMessage</text>
</a>
</g>
</g>
<!-- Node2&#45;&gt;Node3 -->
<g id="edge3" class="edge">
<title>Node2&#45;&gt;Node3</title>
<path fill="none" stroke="#9a32cd" stroke-dasharray="5,2" d="M161.17,-57.37C160.21,-50.83 160.48,-43.7 164,-38 169.23,-29.53 178.02,-23.63 187,-19.55"/>
<polygon fill="#9a32cd" stroke="#9a32cd" points="157.86,-58.56 163.6,-67.47 164.67,-56.93 157.86,-58.56"/>
<text text-anchor="middle" x="178" y="-41" font-family="Helvetica,sans-Serif" font-size="10.00"> d_ptr</text>
</g>
<!-- Node3&#45;&gt;Node2 -->
<g id="edge2" class="edge">
<title>Node3&#45;&gt;Node2</title>
<path fill="none" stroke="#9a32cd" stroke-dasharray="5,2" d="M209.25,-28.57C205.57,-35.25 200.98,-42.75 196,-49 190.6,-55.78 183.49,-62.42 177.66,-67.43"/>
<polygon fill="#9a32cd" stroke="#9a32cd" points="212.41,-30.09 213.94,-19.61 206.21,-26.84 212.41,-30.09"/>
<text text-anchor="middle" x="217" y="-41" font-family="Helvetica,sans-Serif" font-size="10.00"> q_ptr</text>
</g>
</g>
</svg>
