<?xml version="1.0" encoding="UTF-8" standalone="no"?>
<!DOCTYPE svg PUBLIC "-//W3C//DTD SVG 1.1//EN"
 "http://www.w3.org/Graphics/SVG/1.1/DTD/svg11.dtd">
<!-- Generated by graphviz version 2.43.0 (0)
 -->
<!-- Title: ThreeDSensorCalibrationMessagePrivate Pages: 1 -->
<svg width="332pt" height="106pt"
 viewBox="0.00 0.00 332.00 106.00" xmlns="http://www.w3.org/2000/svg" xmlns:xlink="http://www.w3.org/1999/xlink">
<g id="graph0" class="graph" transform="scale(1 1) rotate(0) translate(4 102)">
<title>ThreeDSensorCalibrationMessagePrivate</title>
<!-- Node1 -->
<g id="node1" class="node">
<title>Node1</title>
<g id="a_node1"><a xlink:title=" ">
<polygon fill="#bfbfbf" stroke="black" points="0,-0.5 0,-30.5 182,-30.5 182,-0.5 0,-0.5"/>
<text text-anchor="start" x="8" y="-18.5" font-family="Helvetica,sans-Serif" font-size="10.00">ThreeDSensorCalibrationMessage</text>
<text text-anchor="middle" x="91" y="-7.5" font-family="Helvetica,sans-Serif" font-size="10.00">Private</text>
</a>
</g>
</g>
<!-- Node2 -->
<g id="node2" class="node">
<title>Node2</title>
<g id="a_node2"><a xlink:href="classAbstractDataMessagePrivate.html" target="_top" xlink:title=" ">
<polygon fill="none" stroke="black" points="132,-78.5 132,-97.5 290,-97.5 290,-78.5 132,-78.5"/>
<text text-anchor="middle" x="211" y="-85.5" font-family="Helvetica,sans-Serif" font-size="10.00">AbstractDataMessagePrivate</text>
</a>
</g>
</g>
<!-- Node2&#45;&gt;Node1 -->
<g id="edge1" class="edge">
<title>Node2&#45;&gt;Node1</title>
<path fill="none" stroke="midnightblue" d="M187.4,-73.14C166.46,-60.83 136.01,-42.94 114.96,-30.58"/>
<polygon fill="midnightblue" stroke="midnightblue" points="185.89,-76.31 196.29,-78.36 189.44,-70.27 185.89,-76.31"/>
</g>
<!-- Node3 -->
<g id="node3" class="node">
<title>Node3</title>
<g id="a_node3"><a xlink:href="classAbstractDataMessage.html" target="_top" xlink:title="The AbstractDataMessage class is the polymorphic base class for all FIT Data Message classes.">
<polygon fill="none" stroke="black" points="200,-6 200,-25 324,-25 324,-6 200,-6"/>
<text text-anchor="middle" x="262" y="-13" font-family="Helvetica,sans-Serif" font-size="10.00">AbstractDataMessage</text>
</a>
</g>
</g>
<!-- Node2&#45;&gt;Node3 -->
<g id="edge3" class="edge">
<title>Node2&#45;&gt;Node3</title>
<path fill="none" stroke="#9a32cd" stroke-dasharray="5,2" d="M205.39,-68.27C204.49,-61.81 204.75,-54.76 208,-49 214.25,-37.95 225.92,-30.24 236.82,-25.11"/>
<polygon fill="#9a32cd" stroke="#9a32cd" points="202.03,-69.28 207.66,-78.25 208.85,-67.72 202.03,-69.28"/>
<text text-anchor="middle" x="222" y="-52" font-family="Helvetica,sans-Serif" font-size="10.00"> d_ptr</text>
</g>
<!-- Node3&#45;&gt;Node2 -->
<g id="edge2" class="edge">
<title>Node3&#45;&gt;Node2</title>
<path fill="none" stroke="#9a32cd" stroke-dasharray="5,2" d="M254.68,-34.41C250.91,-42.6 245.86,-52.2 240,-60 234.87,-66.82 227.91,-73.37 222.09,-78.31"/>
<polygon fill="#9a32cd" stroke="#9a32cd" points="257.99,-35.59 258.75,-25.02 251.56,-32.8 257.99,-35.59"/>
<text text-anchor="middle" x="260" y="-52" font-family="Helvetica,sans-Serif" font-size="10.00"> q_ptr</text>
</g>
</g>
</svg>
