<?xml version="1.0" encoding="UTF-8" standalone="no"?>
<!DOCTYPE svg PUBLIC "-//W3C//DTD SVG 1.1//EN"
 "http://www.w3.org/Graphics/SVG/1.1/DTD/svg11.dtd">
<!-- Generated by graphviz version 2.43.0 (0)
 -->
<!-- Title: MagnetometerDataMessagePrivate::setField Pages: 1 -->
<svg width="494pt" height="102pt"
 viewBox="0.00 0.00 494.00 101.50" xmlns="http://www.w3.org/2000/svg" xmlns:xlink="http://www.w3.org/1999/xlink">
<g id="graph0" class="graph" transform="scale(1 1) rotate(0) translate(4 97.5)">
<title>MagnetometerDataMessagePrivate::setField</title>
<!-- Node1 -->
<g id="node1" class="node">
<title>Node1</title>
<g id="a_node1"><a xlink:title=" ">
<polygon fill="#bfbfbf" stroke="black" points="0,-38 0,-68 190,-68 190,-38 0,-38"/>
<text text-anchor="start" x="8" y="-56" font-family="Helvetica,sans-Serif" font-size="10.00">MagnetometerDataMessagePrivate</text>
<text text-anchor="middle" x="95" y="-45" font-family="Helvetica,sans-Serif" font-size="10.00">::setField</text>
</a>
</g>
</g>
<!-- Node2 -->
<g id="node2" class="node">
<title>Node2</title>
<g id="a_node2"><a xlink:href="classFitDataMessagePrivate.html#a80365775402f7e855a8af29238d128a3" target="_top" xlink:title=" ">
<polygon fill="none" stroke="black" points="226,-63 226,-93 356,-93 356,-63 226,-63"/>
<text text-anchor="start" x="234" y="-81" font-family="Helvetica,sans-Serif" font-size="10.00">FitDataMessagePrivate</text>
<text text-anchor="middle" x="291" y="-70" font-family="Helvetica,sans-Serif" font-size="10.00">::setField</text>
</a>
</g>
</g>
<!-- Node1&#45;&gt;Node2 -->
<g id="edge1" class="edge">
<title>Node1&#45;&gt;Node2</title>
<path fill="none" stroke="midnightblue" d="M190.16,-65.13C198.74,-66.24 207.35,-67.35 215.72,-68.43"/>
<polygon fill="midnightblue" stroke="midnightblue" points="215.42,-71.92 225.79,-69.73 216.32,-64.98 215.42,-71.92"/>
</g>
<!-- Node3 -->
<g id="node3" class="node">
<title>Node3</title>
<g id="a_node3"><a xlink:href="classFitDataMessagePrivate.html#a4a9a5ee83dbe87dcc25f3fc5f50f2284" target="_top" xlink:title=" ">
<polygon fill="none" stroke="black" points="226,-14 226,-44 356,-44 356,-14 226,-14"/>
<text text-anchor="start" x="234" y="-32" font-family="Helvetica,sans-Serif" font-size="10.00">FitDataMessagePrivate</text>
<text text-anchor="middle" x="291" y="-21" font-family="Helvetica,sans-Serif" font-size="10.00">::verify</text>
</a>
</g>
</g>
<!-- Node1&#45;&gt;Node3 -->
<g id="edge2" class="edge">
<title>Node1&#45;&gt;Node3</title>
<path fill="none" stroke="midnightblue" d="M190.16,-41.35C198.74,-40.29 207.35,-39.23 215.72,-38.19"/>
<polygon fill="midnightblue" stroke="midnightblue" points="216.29,-41.64 225.79,-36.94 215.44,-34.7 216.29,-41.64"/>
</g>
<!-- Node4 -->
<g id="node4" class="node">
<title>Node4</title>
<g id="a_node4"><a xlink:href="fitdatamessage_8cpp.html#a3d7ec006b7bf32e4ea754e0ce7a0d3a4" target="_top" xlink:title=" ">
<polygon fill="none" stroke="black" points="393.5,-38.5 393.5,-57.5 484.5,-57.5 484.5,-38.5 393.5,-38.5"/>
<text text-anchor="middle" x="439" y="-45.5" font-family="Helvetica,sans-Serif" font-size="10.00">verifyBaseType</text>
</a>
</g>
</g>
<!-- Node3&#45;&gt;Node4 -->
<g id="edge3" class="edge">
<title>Node3&#45;&gt;Node4</title>
<path fill="none" stroke="midnightblue" d="M356.04,-37.33C365.07,-38.51 374.29,-39.71 383.12,-40.86"/>
<polygon fill="midnightblue" stroke="midnightblue" points="382.93,-44.36 393.29,-42.18 383.83,-37.42 382.93,-44.36"/>
</g>
<!-- Node5 -->
<g id="node5" class="node">
<title>Node5</title>
<g id="a_node5"><a xlink:href="fitdatamessage_8cpp.html#a3e1c894ea22d300479f8a7f822127d03" target="_top" xlink:title=" ">
<polygon fill="none" stroke="black" points="392,-0.5 392,-19.5 486,-19.5 486,-0.5 392,-0.5"/>
<text text-anchor="middle" x="439" y="-7.5" font-family="Helvetica,sans-Serif" font-size="10.00">verifyDataSieze</text>
</a>
</g>
</g>
<!-- Node3&#45;&gt;Node5 -->
<g id="edge4" class="edge">
<title>Node3&#45;&gt;Node5</title>
<path fill="none" stroke="midnightblue" d="M356.04,-20.67C364.64,-19.55 373.42,-18.4 381.87,-17.3"/>
<polygon fill="midnightblue" stroke="midnightblue" points="382.53,-20.75 392,-15.99 381.63,-13.81 382.53,-20.75"/>
</g>
</g>
</svg>
