<?xml version="1.0" encoding="UTF-8" standalone="no"?>
<!DOCTYPE svg PUBLIC "-//W3C//DTD SVG 1.1//EN"
 "http://www.w3.org/Graphics/SVG/1.1/DTD/svg11.dtd">
<!-- Generated by graphviz version 2.43.0 (0)
 -->
<!-- Title: TotalsMessagePrivate Pages: 1 -->
<svg width="274pt" height="95pt"
 viewBox="0.00 0.00 273.50 95.00" xmlns="http://www.w3.org/2000/svg" xmlns:xlink="http://www.w3.org/1999/xlink">
<g id="graph0" class="graph" transform="scale(1 1) rotate(0) translate(4 91)">
<title>TotalsMessagePrivate</title>
<!-- Node1 -->
<g id="node1" class="node">
<title>Node1</title>
<g id="a_node1"><a xlink:title=" ">
<polygon fill="#bfbfbf" stroke="black" points="0,-0.5 0,-19.5 123,-19.5 123,-0.5 0,-0.5"/>
<text text-anchor="middle" x="61.5" y="-7.5" font-family="Helvetica,sans-Serif" font-size="10.00">TotalsMessagePrivate</text>
</a>
</g>
</g>
<!-- Node2 -->
<g id="node2" class="node">
<title>Node2</title>
<g id="a_node2"><a xlink:href="classAbstractDataMessagePrivate.html" target="_top" xlink:title=" ">
<polygon fill="none" stroke="black" points="73.5,-67.5 73.5,-86.5 231.5,-86.5 231.5,-67.5 73.5,-67.5"/>
<text text-anchor="middle" x="152.5" y="-74.5" font-family="Helvetica,sans-Serif" font-size="10.00">AbstractDataMessagePrivate</text>
</a>
</g>
</g>
<!-- Node2&#45;&gt;Node1 -->
<g id="edge1" class="edge">
<title>Node2&#45;&gt;Node1</title>
<path fill="none" stroke="midnightblue" d="M132.09,-61.42C114.1,-48.57 88.49,-30.28 73.58,-19.63"/>
<polygon fill="midnightblue" stroke="midnightblue" points="130.06,-64.27 140.23,-67.23 134.12,-58.57 130.06,-64.27"/>
</g>
<!-- Node3 -->
<g id="node3" class="node">
<title>Node3</title>
<g id="a_node3"><a xlink:href="classAbstractDataMessage.html" target="_top" xlink:title="The AbstractDataMessage class is the polymorphic base class for all FIT Data Message classes.">
<polygon fill="none" stroke="black" points="141.5,-0.5 141.5,-19.5 265.5,-19.5 265.5,-0.5 141.5,-0.5"/>
<text text-anchor="middle" x="203.5" y="-7.5" font-family="Helvetica,sans-Serif" font-size="10.00">AbstractDataMessage</text>
</a>
</g>
</g>
<!-- Node2&#45;&gt;Node3 -->
<g id="edge3" class="edge">
<title>Node2&#45;&gt;Node3</title>
<path fill="none" stroke="#9a32cd" stroke-dasharray="5,2" d="M146.67,-57.37C145.71,-50.83 145.98,-43.7 149.5,-38 154.73,-29.53 163.52,-23.63 172.5,-19.55"/>
<polygon fill="#9a32cd" stroke="#9a32cd" points="143.36,-58.56 149.1,-67.47 150.17,-56.93 143.36,-58.56"/>
<text text-anchor="middle" x="163.5" y="-41" font-family="Helvetica,sans-Serif" font-size="10.00"> d_ptr</text>
</g>
<!-- Node3&#45;&gt;Node2 -->
<g id="edge2" class="edge">
<title>Node3&#45;&gt;Node2</title>
<path fill="none" stroke="#9a32cd" stroke-dasharray="5,2" d="M194.75,-28.57C191.07,-35.25 186.48,-42.75 181.5,-49 176.1,-55.78 168.99,-62.42 163.16,-67.43"/>
<polygon fill="#9a32cd" stroke="#9a32cd" points="197.91,-30.09 199.44,-19.61 191.71,-26.84 197.91,-30.09"/>
<text text-anchor="middle" x="202.5" y="-41" font-family="Helvetica,sans-Serif" font-size="10.00"> q_ptr</text>
</g>
</g>
</svg>
