<?xml version="1.0" encoding="UTF-8" standalone="no"?>
<!DOCTYPE svg PUBLIC "-//W3C//DTD SVG 1.1//EN"
 "http://www.w3.org/Graphics/SVG/1.1/DTD/svg11.dtd">
<!-- Generated by graphviz version 2.43.0 (0)
 -->
<!-- Title: ConnectivityMessagePrivate Pages: 1 -->
<svg width="306pt" height="95pt"
 viewBox="0.00 0.00 306.00 95.00" xmlns="http://www.w3.org/2000/svg" xmlns:xlink="http://www.w3.org/1999/xlink">
<g id="graph0" class="graph" transform="scale(1 1) rotate(0) translate(4 91)">
<title>ConnectivityMessagePrivate</title>
<!-- Node1 -->
<g id="node1" class="node">
<title>Node1</title>
<g id="a_node1"><a xlink:title=" ">
<polygon fill="#bfbfbf" stroke="black" points="0,-0.5 0,-19.5 156,-19.5 156,-0.5 0,-0.5"/>
<text text-anchor="middle" x="78" y="-7.5" font-family="Helvetica,sans-Serif" font-size="10.00">ConnectivityMessagePrivate</text>
</a>
</g>
</g>
<!-- Node2 -->
<g id="node2" class="node">
<title>Node2</title>
<g id="a_node2"><a xlink:href="classAbstractDataMessagePrivate.html" target="_top" xlink:title=" ">
<polygon fill="none" stroke="black" points="106,-67.5 106,-86.5 264,-86.5 264,-67.5 106,-67.5"/>
<text text-anchor="middle" x="185" y="-74.5" font-family="Helvetica,sans-Serif" font-size="10.00">AbstractDataMessagePrivate</text>
</a>
</g>
</g>
<!-- Node2&#45;&gt;Node1 -->
<g id="edge1" class="edge">
<title>Node2&#45;&gt;Node1</title>
<path fill="none" stroke="midnightblue" d="M161.86,-61.94C140.67,-49.07 109.98,-30.43 92.2,-19.63"/>
<polygon fill="midnightblue" stroke="midnightblue" points="160.21,-65.03 170.57,-67.23 163.84,-59.05 160.21,-65.03"/>
</g>
<!-- Node3 -->
<g id="node3" class="node">
<title>Node3</title>
<g id="a_node3"><a xlink:href="classAbstractDataMessage.html" target="_top" xlink:title="The AbstractDataMessage class is the polymorphic base class for all FIT Data Message classes.">
<polygon fill="none" stroke="black" points="174,-0.5 174,-19.5 298,-19.5 298,-0.5 174,-0.5"/>
<text text-anchor="middle" x="236" y="-7.5" font-family="Helvetica,sans-Serif" font-size="10.00">AbstractDataMessage</text>
</a>
</g>
</g>
<!-- Node2&#45;&gt;Node3 -->
<g id="edge3" class="edge">
<title>Node2&#45;&gt;Node3</title>
<path fill="none" stroke="#9a32cd" stroke-dasharray="5,2" d="M179.17,-57.37C178.21,-50.83 178.48,-43.7 182,-38 187.23,-29.53 196.02,-23.63 205,-19.55"/>
<polygon fill="#9a32cd" stroke="#9a32cd" points="175.86,-58.56 181.6,-67.47 182.67,-56.93 175.86,-58.56"/>
<text text-anchor="middle" x="196" y="-41" font-family="Helvetica,sans-Serif" font-size="10.00"> d_ptr</text>
</g>
<!-- Node3&#45;&gt;Node2 -->
<g id="edge2" class="edge">
<title>Node3&#45;&gt;Node2</title>
<path fill="none" stroke="#9a32cd" stroke-dasharray="5,2" d="M227.25,-28.57C223.57,-35.25 218.98,-42.75 214,-49 208.6,-55.78 201.49,-62.42 195.66,-67.43"/>
<polygon fill="#9a32cd" stroke="#9a32cd" points="230.41,-30.09 231.94,-19.61 224.21,-26.84 230.41,-30.09"/>
<text text-anchor="middle" x="235" y="-41" font-family="Helvetica,sans-Serif" font-size="10.00"> q_ptr</text>
</g>
</g>
</svg>
