<?xml version="1.0" encoding="UTF-8" standalone="no"?>
<!DOCTYPE svg PUBLIC "-//W3C//DTD SVG 1.1//EN"
 "http://www.w3.org/Graphics/SVG/1.1/DTD/svg11.dtd">
<!-- Generated by graphviz version 2.43.0 (0)
 -->
<!-- Title: ThreeDSensorCalibrationMessagePrivate::setField Pages: 1 -->
<svg width="511pt" height="66pt"
 viewBox="0.00 0.00 511.00 66.00" xmlns="http://www.w3.org/2000/svg" xmlns:xlink="http://www.w3.org/1999/xlink">
<g id="graph0" class="graph" transform="scale(1 1) rotate(0) translate(4 62)">
<title>ThreeDSensorCalibrationMessagePrivate::setField</title>
<!-- Node1 -->
<g id="node1" class="node">
<title>Node1</title>
<g id="a_node1"><a xlink:title=" ">
<polygon fill="#bfbfbf" stroke="black" points="0,-14 0,-44 182,-44 182,-14 0,-14"/>
<text text-anchor="start" x="8" y="-32" font-family="Helvetica,sans-Serif" font-size="10.00">ThreeDSensorCalibrationMessage</text>
<text text-anchor="middle" x="91" y="-21" font-family="Helvetica,sans-Serif" font-size="10.00">Private::setField</text>
</a>
</g>
</g>
<!-- Node2 -->
<g id="node2" class="node">
<title>Node2</title>
<g id="a_node2"><a xlink:href="classAbstractDataMessagePrivate.html#ad11748b005c364c65c2f1f03eae674cc" target="_top" xlink:title=" ">
<polygon fill="none" stroke="black" points="218,-14 218,-44 376,-44 376,-14 218,-14"/>
<text text-anchor="start" x="226" y="-32" font-family="Helvetica,sans-Serif" font-size="10.00">AbstractDataMessagePrivate</text>
<text text-anchor="middle" x="297" y="-21" font-family="Helvetica,sans-Serif" font-size="10.00">::verify</text>
</a>
</g>
</g>
<!-- Node1&#45;&gt;Node2 -->
<g id="edge1" class="edge">
<title>Node1&#45;&gt;Node2</title>
<path fill="none" stroke="midnightblue" d="M182.07,-29C190.57,-29 199.18,-29 207.66,-29"/>
<polygon fill="midnightblue" stroke="midnightblue" points="207.93,-32.5 217.93,-29 207.93,-25.5 207.93,-32.5"/>
</g>
<!-- Node3 -->
<g id="node3" class="node">
<title>Node3</title>
<g id="a_node3"><a xlink:href="abstractdatamessage_8cpp.html#a3d7ec006b7bf32e4ea754e0ce7a0d3a4" target="_top" xlink:title=" ">
<polygon fill="none" stroke="black" points="412,-38.5 412,-57.5 503,-57.5 503,-38.5 412,-38.5"/>
<text text-anchor="middle" x="457.5" y="-45.5" font-family="Helvetica,sans-Serif" font-size="10.00">verifyBaseType</text>
</a>
</g>
</g>
<!-- Node2&#45;&gt;Node3 -->
<g id="edge2" class="edge">
<title>Node2&#45;&gt;Node3</title>
<path fill="none" stroke="midnightblue" d="M376.32,-38.39C384.88,-39.41 393.45,-40.44 401.63,-41.42"/>
<polygon fill="midnightblue" stroke="midnightblue" points="401.42,-44.92 411.76,-42.64 402.25,-37.97 401.42,-44.92"/>
</g>
<!-- Node4 -->
<g id="node4" class="node">
<title>Node4</title>
<g id="a_node4"><a xlink:href="abstractdatamessage_8cpp.html#a0d4ab57f84f4b95732a6af0267777873" target="_top" xlink:title=" ">
<polygon fill="none" stroke="black" points="413.5,-0.5 413.5,-19.5 501.5,-19.5 501.5,-0.5 413.5,-0.5"/>
<text text-anchor="middle" x="457.5" y="-7.5" font-family="Helvetica,sans-Serif" font-size="10.00">verifyDataSize</text>
</a>
</g>
</g>
<!-- Node2&#45;&gt;Node4 -->
<g id="edge3" class="edge">
<title>Node2&#45;&gt;Node4</title>
<path fill="none" stroke="midnightblue" d="M376.32,-19.61C385.51,-18.51 394.72,-17.41 403.46,-16.36"/>
<polygon fill="midnightblue" stroke="midnightblue" points="403.95,-19.83 413.46,-15.16 403.11,-12.87 403.95,-19.83"/>
</g>
</g>
</svg>
