<?xml version="1.0" encoding="UTF-8" standalone="no"?>
<!DOCTYPE svg PUBLIC "-//W3C//DTD SVG 1.1//EN"
 "http://www.w3.org/Graphics/SVG/1.1/DTD/svg11.dtd">
<!-- Generated by graphviz version 2.43.0 (0)
 -->
<!-- Title: CadenceZoneMessage Pages: 1 -->
<svg width="312pt" height="95pt"
 viewBox="0.00 0.00 311.50 95.00" xmlns="http://www.w3.org/2000/svg" xmlns:xlink="http://www.w3.org/1999/xlink">
<g id="graph0" class="graph" transform="scale(1 1) rotate(0) translate(4 91)">
<title>CadenceZoneMessage</title>
<!-- Node1 -->
<g id="node1" class="node">
<title>Node1</title>
<g id="a_node1"><a xlink:title="The CadenceZoneMessage class represents a FIT CadenceZoneMessage data message.">
<polygon fill="#bfbfbf" stroke="black" points="0,-0.5 0,-19.5 127,-19.5 127,-0.5 0,-0.5"/>
<text text-anchor="middle" x="63.5" y="-7.5" font-family="Helvetica,sans-Serif" font-size="10.00">CadenceZoneMessage</text>
</a>
</g>
</g>
<!-- Node2 -->
<g id="node2" class="node">
<title>Node2</title>
<g id="a_node2"><a xlink:href="classAbstractDataMessage.html" target="_top" xlink:title="The AbstractDataMessage class is the polymorphic base class for all FIT Data Message classes.">
<polygon fill="none" stroke="black" points="111.5,-67.5 111.5,-86.5 235.5,-86.5 235.5,-67.5 111.5,-67.5"/>
<text text-anchor="middle" x="173.5" y="-74.5" font-family="Helvetica,sans-Serif" font-size="10.00">AbstractDataMessage</text>
</a>
</g>
</g>
<!-- Node2&#45;&gt;Node1 -->
<g id="edge1" class="edge">
<title>Node2&#45;&gt;Node1</title>
<path fill="none" stroke="midnightblue" d="M150,-62.12C128.21,-49.24 96.46,-30.48 78.1,-19.63"/>
<polygon fill="midnightblue" stroke="midnightblue" points="148.28,-65.16 158.66,-67.23 151.84,-59.13 148.28,-65.16"/>
</g>
<!-- Node3 -->
<g id="node3" class="node">
<title>Node3</title>
<g id="a_node3"><a xlink:href="classAbstractDataMessagePrivate.html" target="_top" xlink:title=" ">
<polygon fill="none" stroke="black" points="145.5,-0.5 145.5,-19.5 303.5,-19.5 303.5,-0.5 145.5,-0.5"/>
<text text-anchor="middle" x="224.5" y="-7.5" font-family="Helvetica,sans-Serif" font-size="10.00">AbstractDataMessagePrivate</text>
</a>
</g>
</g>
<!-- Node2&#45;&gt;Node3 -->
<g id="edge3" class="edge">
<title>Node2&#45;&gt;Node3</title>
<path fill="none" stroke="#9a32cd" stroke-dasharray="5,2" d="M167.67,-57.37C166.71,-50.83 166.98,-43.7 170.5,-38 175.73,-29.53 184.52,-23.63 193.5,-19.55"/>
<polygon fill="#9a32cd" stroke="#9a32cd" points="164.36,-58.56 170.1,-67.47 171.17,-56.93 164.36,-58.56"/>
<text text-anchor="middle" x="184.5" y="-41" font-family="Helvetica,sans-Serif" font-size="10.00"> q_ptr</text>
</g>
<!-- Node3&#45;&gt;Node2 -->
<g id="edge2" class="edge">
<title>Node3&#45;&gt;Node2</title>
<path fill="none" stroke="#9a32cd" stroke-dasharray="5,2" d="M215.75,-28.57C212.07,-35.25 207.48,-42.75 202.5,-49 197.1,-55.78 189.99,-62.42 184.16,-67.43"/>
<polygon fill="#9a32cd" stroke="#9a32cd" points="218.91,-30.09 220.44,-19.61 212.71,-26.84 218.91,-30.09"/>
<text text-anchor="middle" x="223.5" y="-41" font-family="Helvetica,sans-Serif" font-size="10.00"> d_ptr</text>
</g>
</g>
</svg>
