<?xml version="1.0" encoding="UTF-8" standalone="no"?>
<!DOCTYPE svg PUBLIC "-//W3C//DTD SVG 1.1//EN"
 "http://www.w3.org/Graphics/SVG/1.1/DTD/svg11.dtd">
<!-- Generated by graphviz version 2.43.0 (0)
 -->
<!-- Title: ThreeDSensorCalibrationMessage Pages: 1 -->
<svg width="366pt" height="95pt"
 viewBox="0.00 0.00 366.00 95.00" xmlns="http://www.w3.org/2000/svg" xmlns:xlink="http://www.w3.org/1999/xlink">
<g id="graph0" class="graph" transform="scale(1 1) rotate(0) translate(4 91)">
<title>ThreeDSensorCalibrationMessage</title>
<!-- Node1 -->
<g id="node1" class="node">
<title>Node1</title>
<g id="a_node1"><a xlink:title="The ThreeDSensorCalibrationMessage class represents a FIT ThreeDSensorCalibrationMessage data message...">
<polygon fill="#bfbfbf" stroke="black" points="0,-0.5 0,-19.5 182,-19.5 182,-0.5 0,-0.5"/>
<text text-anchor="middle" x="91" y="-7.5" font-family="Helvetica,sans-Serif" font-size="10.00">ThreeDSensorCalibrationMessage</text>
</a>
</g>
</g>
<!-- Node2 -->
<g id="node2" class="node">
<title>Node2</title>
<g id="a_node2"><a xlink:href="classAbstractDataMessage.html" target="_top" xlink:title="The AbstractDataMessage class is the polymorphic base class for all FIT Data Message classes.">
<polygon fill="none" stroke="black" points="166,-67.5 166,-86.5 290,-86.5 290,-67.5 166,-67.5"/>
<text text-anchor="middle" x="228" y="-74.5" font-family="Helvetica,sans-Serif" font-size="10.00">AbstractDataMessage</text>
</a>
</g>
</g>
<!-- Node2&#45;&gt;Node1 -->
<g id="edge1" class="edge">
<title>Node2&#45;&gt;Node1</title>
<path fill="none" stroke="midnightblue" d="M200.48,-62.94C173.35,-50.07 132.64,-30.76 109.27,-19.67"/>
<polygon fill="midnightblue" stroke="midnightblue" points="199.27,-66.24 209.81,-67.37 202.27,-59.92 199.27,-66.24"/>
</g>
<!-- Node3 -->
<g id="node3" class="node">
<title>Node3</title>
<g id="a_node3"><a xlink:href="classAbstractDataMessagePrivate.html" target="_top" xlink:title=" ">
<polygon fill="none" stroke="black" points="200,-0.5 200,-19.5 358,-19.5 358,-0.5 200,-0.5"/>
<text text-anchor="middle" x="279" y="-7.5" font-family="Helvetica,sans-Serif" font-size="10.00">AbstractDataMessagePrivate</text>
</a>
</g>
</g>
<!-- Node2&#45;&gt;Node3 -->
<g id="edge3" class="edge">
<title>Node2&#45;&gt;Node3</title>
<path fill="none" stroke="#9a32cd" stroke-dasharray="5,2" d="M222.17,-57.37C221.21,-50.83 221.48,-43.7 225,-38 230.23,-29.53 239.02,-23.63 248,-19.55"/>
<polygon fill="#9a32cd" stroke="#9a32cd" points="218.86,-58.56 224.6,-67.47 225.67,-56.93 218.86,-58.56"/>
<text text-anchor="middle" x="239" y="-41" font-family="Helvetica,sans-Serif" font-size="10.00"> q_ptr</text>
</g>
<!-- Node3&#45;&gt;Node2 -->
<g id="edge2" class="edge">
<title>Node3&#45;&gt;Node2</title>
<path fill="none" stroke="#9a32cd" stroke-dasharray="5,2" d="M270.25,-28.57C266.57,-35.25 261.98,-42.75 257,-49 251.6,-55.78 244.49,-62.42 238.66,-67.43"/>
<polygon fill="#9a32cd" stroke="#9a32cd" points="273.41,-30.09 274.94,-19.61 267.21,-26.84 273.41,-30.09"/>
<text text-anchor="middle" x="278" y="-41" font-family="Helvetica,sans-Serif" font-size="10.00"> d_ptr</text>
</g>
</g>
</svg>
