<?xml version="1.0" encoding="UTF-8" standalone="no"?>
<!DOCTYPE svg PUBLIC "-//W3C//DTD SVG 1.1//EN"
 "http://www.w3.org/Graphics/SVG/1.1/DTD/svg11.dtd">
<!-- Generated by graphviz version 2.43.0 (0)
 -->
<!-- Title: SegmentPointMessagePrivate Pages: 1 -->
<svg width="314pt" height="95pt"
 viewBox="0.00 0.00 313.50 95.00" xmlns="http://www.w3.org/2000/svg" xmlns:xlink="http://www.w3.org/1999/xlink">
<g id="graph0" class="graph" transform="scale(1 1) rotate(0) translate(4 91)">
<title>SegmentPointMessagePrivate</title>
<!-- Node1 -->
<g id="node1" class="node">
<title>Node1</title>
<g id="a_node1"><a xlink:title=" ">
<polygon fill="#bfbfbf" stroke="black" points="0,-0.5 0,-19.5 163,-19.5 163,-0.5 0,-0.5"/>
<text text-anchor="middle" x="81.5" y="-7.5" font-family="Helvetica,sans-Serif" font-size="10.00">SegmentPointMessagePrivate</text>
</a>
</g>
</g>
<!-- Node2 -->
<g id="node2" class="node">
<title>Node2</title>
<g id="a_node2"><a xlink:href="classAbstractDataMessagePrivate.html" target="_top" xlink:title=" ">
<polygon fill="none" stroke="black" points="113.5,-67.5 113.5,-86.5 271.5,-86.5 271.5,-67.5 113.5,-67.5"/>
<text text-anchor="middle" x="192.5" y="-74.5" font-family="Helvetica,sans-Serif" font-size="10.00">AbstractDataMessagePrivate</text>
</a>
</g>
</g>
<!-- Node2&#45;&gt;Node1 -->
<g id="edge1" class="edge">
<title>Node2&#45;&gt;Node1</title>
<path fill="none" stroke="midnightblue" d="M168.79,-62.12C146.8,-49.24 114.76,-30.48 96.23,-19.63"/>
<polygon fill="midnightblue" stroke="midnightblue" points="167.13,-65.2 177.53,-67.23 170.67,-59.16 167.13,-65.2"/>
</g>
<!-- Node3 -->
<g id="node3" class="node">
<title>Node3</title>
<g id="a_node3"><a xlink:href="classAbstractDataMessage.html" target="_top" xlink:title="The AbstractDataMessage class is the polymorphic base class for all FIT Data Message classes.">
<polygon fill="none" stroke="black" points="181.5,-0.5 181.5,-19.5 305.5,-19.5 305.5,-0.5 181.5,-0.5"/>
<text text-anchor="middle" x="243.5" y="-7.5" font-family="Helvetica,sans-Serif" font-size="10.00">AbstractDataMessage</text>
</a>
</g>
</g>
<!-- Node2&#45;&gt;Node3 -->
<g id="edge3" class="edge">
<title>Node2&#45;&gt;Node3</title>
<path fill="none" stroke="#9a32cd" stroke-dasharray="5,2" d="M186.67,-57.37C185.71,-50.83 185.98,-43.7 189.5,-38 194.73,-29.53 203.52,-23.63 212.5,-19.55"/>
<polygon fill="#9a32cd" stroke="#9a32cd" points="183.36,-58.56 189.1,-67.47 190.17,-56.93 183.36,-58.56"/>
<text text-anchor="middle" x="203.5" y="-41" font-family="Helvetica,sans-Serif" font-size="10.00"> d_ptr</text>
</g>
<!-- Node3&#45;&gt;Node2 -->
<g id="edge2" class="edge">
<title>Node3&#45;&gt;Node2</title>
<path fill="none" stroke="#9a32cd" stroke-dasharray="5,2" d="M234.75,-28.57C231.07,-35.25 226.48,-42.75 221.5,-49 216.1,-55.78 208.99,-62.42 203.16,-67.43"/>
<polygon fill="#9a32cd" stroke="#9a32cd" points="237.91,-30.09 239.44,-19.61 231.71,-26.84 237.91,-30.09"/>
<text text-anchor="middle" x="242.5" y="-41" font-family="Helvetica,sans-Serif" font-size="10.00"> q_ptr</text>
</g>
</g>
</svg>
