<?xml version="1.0" encoding="UTF-8" standalone="no"?>
<!DOCTYPE svg PUBLIC "-//W3C//DTD SVG 1.1//EN"
 "http://www.w3.org/Graphics/SVG/1.1/DTD/svg11.dtd">
<!-- Generated by graphviz version 2.43.0 (0)
 -->
<!-- Title: FitStreamReaderPrivate::isDefinitionMessage Pages: 1 -->
<svg width="317pt" height="137pt"
 viewBox="0.00 0.00 317.00 137.00" xmlns="http://www.w3.org/2000/svg" xmlns:xlink="http://www.w3.org/1999/xlink">
<g id="graph0" class="graph" transform="scale(1 1) rotate(0) translate(4 133)">
<title>FitStreamReaderPrivate::isDefinitionMessage</title>
<!-- Node1 -->
<g id="node1" class="node">
<title>Node1</title>
<g id="a_node1"><a xlink:title=" ">
<polygon fill="#bfbfbf" stroke="black" points="176,-49.5 176,-79.5 309,-79.5 309,-49.5 176,-49.5"/>
<text text-anchor="start" x="184" y="-67.5" font-family="Helvetica,sans-Serif" font-size="10.00">FitStreamReaderPrivate</text>
<text text-anchor="middle" x="242.5" y="-56.5" font-family="Helvetica,sans-Serif" font-size="10.00">::isDefinitionMessage</text>
</a>
</g>
</g>
<!-- Node2 -->
<g id="node2" class="node">
<title>Node2</title>
<g id="a_node2"><a xlink:href="classFitStreamReaderPrivate.html#a22a1abf66b6330dc8b77f5be421f117d" target="_top" xlink:title=" ">
<polygon fill="none" stroke="black" points="3.5,-98.5 3.5,-128.5 136.5,-128.5 136.5,-98.5 3.5,-98.5"/>
<text text-anchor="start" x="11.5" y="-116.5" font-family="Helvetica,sans-Serif" font-size="10.00">FitStreamReaderPrivate</text>
<text text-anchor="middle" x="70" y="-105.5" font-family="Helvetica,sans-Serif" font-size="10.00">::parseDataMessage</text>
</a>
</g>
</g>
<!-- Node1&#45;&gt;Node2 -->
<g id="edge1" class="edge">
<title>Node1&#45;&gt;Node2</title>
<path fill="none" stroke="midnightblue" d="M179.24,-82.39C160.9,-87.66 141.02,-93.38 123.37,-98.45"/>
<polygon fill="midnightblue" stroke="midnightblue" points="180.31,-85.73 188.95,-79.6 178.38,-79 180.31,-85.73"/>
</g>
<!-- Node3 -->
<g id="node3" class="node">
<title>Node3</title>
<g id="a_node3"><a xlink:href="classFitStreamReaderPrivate.html#a1dd45f588b8ecb89cc8968c6c5d0381f" target="_top" xlink:title=" ">
<polygon fill="none" stroke="black" points="0,-49.5 0,-79.5 140,-79.5 140,-49.5 0,-49.5"/>
<text text-anchor="start" x="8" y="-67.5" font-family="Helvetica,sans-Serif" font-size="10.00">FitStreamReaderPrivate</text>
<text text-anchor="middle" x="70" y="-56.5" font-family="Helvetica,sans-Serif" font-size="10.00">::parseDefinitionMessage</text>
</a>
</g>
</g>
<!-- Node1&#45;&gt;Node3 -->
<g id="edge2" class="edge">
<title>Node1&#45;&gt;Node3</title>
<path fill="none" stroke="midnightblue" d="M165.4,-64.5C156.99,-64.5 148.45,-64.5 140.13,-64.5"/>
<polygon fill="midnightblue" stroke="midnightblue" points="165.58,-68 175.58,-64.5 165.58,-61 165.58,-68"/>
</g>
<!-- Node4 -->
<g id="node4" class="node">
<title>Node4</title>
<g id="a_node4"><a xlink:href="classFitStreamReaderPrivate.html#a742261bda7db9743510330a529b3ecc2" target="_top" xlink:title=" ">
<polygon fill="none" stroke="black" points="3,-0.5 3,-30.5 137,-30.5 137,-0.5 3,-0.5"/>
<text text-anchor="start" x="11" y="-18.5" font-family="Helvetica,sans-Serif" font-size="10.00">FitStreamReaderPrivate</text>
<text text-anchor="middle" x="70" y="-7.5" font-family="Helvetica,sans-Serif" font-size="10.00">::readNextDataMessage</text>
</a>
</g>
</g>
<!-- Node1&#45;&gt;Node4 -->
<g id="edge3" class="edge">
<title>Node1&#45;&gt;Node4</title>
<path fill="none" stroke="midnightblue" d="M179.24,-46.61C160.9,-41.34 141.02,-35.62 123.37,-30.55"/>
<polygon fill="midnightblue" stroke="midnightblue" points="178.38,-50 188.95,-49.4 180.31,-43.27 178.38,-50"/>
</g>
</g>
</svg>
