<?xml version="1.0" encoding="UTF-8" standalone="no"?>
<!DOCTYPE svg PUBLIC "-//W3C//DTD SVG 1.1//EN"
 "http://www.w3.org/Graphics/SVG/1.1/DTD/svg11.dtd">
<!-- Generated by graphviz version 2.43.0 (0)
 -->
<!-- Title: WeightScaleMessage Pages: 1 -->
<svg width="304pt" height="95pt"
 viewBox="0.00 0.00 304.00 95.00" xmlns="http://www.w3.org/2000/svg" xmlns:xlink="http://www.w3.org/1999/xlink">
<g id="graph0" class="graph" transform="scale(1 1) rotate(0) translate(4 91)">
<title>WeightScaleMessage</title>
<!-- Node1 -->
<g id="node1" class="node">
<title>Node1</title>
<g id="a_node1"><a xlink:title="The WeightScaleMessage class represents a FIT WeightScaleMessage data message.">
<polygon fill="#bfbfbf" stroke="black" points="0,-0.5 0,-19.5 120,-19.5 120,-0.5 0,-0.5"/>
<text text-anchor="middle" x="60" y="-7.5" font-family="Helvetica,sans-Serif" font-size="10.00">WeightScaleMessage</text>
</a>
</g>
</g>
<!-- Node2 -->
<g id="node2" class="node">
<title>Node2</title>
<g id="a_node2"><a xlink:href="classAbstractDataMessage.html" target="_top" xlink:title="The AbstractDataMessage class is the polymorphic base class for all FIT Data Message classes.">
<polygon fill="none" stroke="black" points="104,-67.5 104,-86.5 228,-86.5 228,-67.5 104,-67.5"/>
<text text-anchor="middle" x="166" y="-74.5" font-family="Helvetica,sans-Serif" font-size="10.00">AbstractDataMessage</text>
</a>
</g>
</g>
<!-- Node2&#45;&gt;Node1 -->
<g id="edge1" class="edge">
<title>Node2&#45;&gt;Node1</title>
<path fill="none" stroke="midnightblue" d="M143.08,-61.94C122.08,-49.07 91.68,-30.43 74.07,-19.63"/>
<polygon fill="midnightblue" stroke="midnightblue" points="141.35,-64.99 151.7,-67.23 145.01,-59.02 141.35,-64.99"/>
</g>
<!-- Node3 -->
<g id="node3" class="node">
<title>Node3</title>
<g id="a_node3"><a xlink:href="classAbstractDataMessagePrivate.html" target="_top" xlink:title=" ">
<polygon fill="none" stroke="black" points="138,-0.5 138,-19.5 296,-19.5 296,-0.5 138,-0.5"/>
<text text-anchor="middle" x="217" y="-7.5" font-family="Helvetica,sans-Serif" font-size="10.00">AbstractDataMessagePrivate</text>
</a>
</g>
</g>
<!-- Node2&#45;&gt;Node3 -->
<g id="edge3" class="edge">
<title>Node2&#45;&gt;Node3</title>
<path fill="none" stroke="#9a32cd" stroke-dasharray="5,2" d="M160.17,-57.37C159.21,-50.83 159.48,-43.7 163,-38 168.23,-29.53 177.02,-23.63 186,-19.55"/>
<polygon fill="#9a32cd" stroke="#9a32cd" points="156.86,-58.56 162.6,-67.47 163.67,-56.93 156.86,-58.56"/>
<text text-anchor="middle" x="177" y="-41" font-family="Helvetica,sans-Serif" font-size="10.00"> q_ptr</text>
</g>
<!-- Node3&#45;&gt;Node2 -->
<g id="edge2" class="edge">
<title>Node3&#45;&gt;Node2</title>
<path fill="none" stroke="#9a32cd" stroke-dasharray="5,2" d="M208.25,-28.57C204.57,-35.25 199.98,-42.75 195,-49 189.6,-55.78 182.49,-62.42 176.66,-67.43"/>
<polygon fill="#9a32cd" stroke="#9a32cd" points="211.41,-30.09 212.94,-19.61 205.21,-26.84 211.41,-30.09"/>
<text text-anchor="middle" x="216" y="-41" font-family="Helvetica,sans-Serif" font-size="10.00"> d_ptr</text>
</g>
</g>
</svg>
