<?xml version="1.0" encoding="UTF-8" standalone="no"?>
<!DOCTYPE svg PUBLIC "-//W3C//DTD SVG 1.1//EN"
 "http://www.w3.org/Graphics/SVG/1.1/DTD/svg11.dtd">
<!-- Generated by graphviz version 2.43.0 (0)
 -->
<!-- Title: WatchfaceSettingsMessagePrivate Pages: 1 -->
<svg width="302pt" height="106pt"
 viewBox="0.00 0.00 301.50 106.00" xmlns="http://www.w3.org/2000/svg" xmlns:xlink="http://www.w3.org/1999/xlink">
<g id="graph0" class="graph" transform="scale(1 1) rotate(0) translate(4 102)">
<title>WatchfaceSettingsMessagePrivate</title>
<!-- Node1 -->
<g id="node1" class="node">
<title>Node1</title>
<g id="a_node1"><a xlink:title=" ">
<polygon fill="#bfbfbf" stroke="black" points="0,-0.5 0,-30.5 151,-30.5 151,-0.5 0,-0.5"/>
<text text-anchor="start" x="8" y="-18.5" font-family="Helvetica,sans-Serif" font-size="10.00">WatchfaceSettingsMessage</text>
<text text-anchor="middle" x="75.5" y="-7.5" font-family="Helvetica,sans-Serif" font-size="10.00">Private</text>
</a>
</g>
</g>
<!-- Node2 -->
<g id="node2" class="node">
<title>Node2</title>
<g id="a_node2"><a xlink:href="classAbstractDataMessagePrivate.html" target="_top" xlink:title=" ">
<polygon fill="none" stroke="black" points="101.5,-78.5 101.5,-97.5 259.5,-97.5 259.5,-78.5 101.5,-78.5"/>
<text text-anchor="middle" x="180.5" y="-85.5" font-family="Helvetica,sans-Serif" font-size="10.00">AbstractDataMessagePrivate</text>
</a>
</g>
</g>
<!-- Node2&#45;&gt;Node1 -->
<g id="edge1" class="edge">
<title>Node2&#45;&gt;Node1</title>
<path fill="none" stroke="midnightblue" d="M159.1,-72.63C140.81,-60.35 114.63,-42.78 96.46,-30.58"/>
<polygon fill="midnightblue" stroke="midnightblue" points="157.37,-75.69 167.62,-78.36 161.27,-69.88 157.37,-75.69"/>
</g>
<!-- Node3 -->
<g id="node3" class="node">
<title>Node3</title>
<g id="a_node3"><a xlink:href="classAbstractDataMessage.html" target="_top" xlink:title="The AbstractDataMessage class is the polymorphic base class for all FIT Data Message classes.">
<polygon fill="none" stroke="black" points="169.5,-6 169.5,-25 293.5,-25 293.5,-6 169.5,-6"/>
<text text-anchor="middle" x="231.5" y="-13" font-family="Helvetica,sans-Serif" font-size="10.00">AbstractDataMessage</text>
</a>
</g>
</g>
<!-- Node2&#45;&gt;Node3 -->
<g id="edge3" class="edge">
<title>Node2&#45;&gt;Node3</title>
<path fill="none" stroke="#9a32cd" stroke-dasharray="5,2" d="M174.89,-68.27C173.99,-61.81 174.25,-54.76 177.5,-49 183.75,-37.95 195.42,-30.24 206.32,-25.11"/>
<polygon fill="#9a32cd" stroke="#9a32cd" points="171.53,-69.28 177.16,-78.25 178.35,-67.72 171.53,-69.28"/>
<text text-anchor="middle" x="191.5" y="-52" font-family="Helvetica,sans-Serif" font-size="10.00"> d_ptr</text>
</g>
<!-- Node3&#45;&gt;Node2 -->
<g id="edge2" class="edge">
<title>Node3&#45;&gt;Node2</title>
<path fill="none" stroke="#9a32cd" stroke-dasharray="5,2" d="M224.18,-34.41C220.41,-42.6 215.36,-52.2 209.5,-60 204.37,-66.82 197.41,-73.37 191.59,-78.31"/>
<polygon fill="#9a32cd" stroke="#9a32cd" points="227.49,-35.59 228.25,-25.02 221.06,-32.8 227.49,-35.59"/>
<text text-anchor="middle" x="229.5" y="-52" font-family="Helvetica,sans-Serif" font-size="10.00"> q_ptr</text>
</g>
</g>
</svg>
