<?xml version="1.0" encoding="UTF-8" standalone="no"?>
<!DOCTYPE svg PUBLIC "-//W3C//DTD SVG 1.1//EN"
 "http://www.w3.org/Graphics/SVG/1.1/DTD/svg11.dtd">
<!-- Generated by graphviz version 2.43.0 (0)
 -->
<!-- Title: VideoTitleMessagePrivate::setField Pages: 1 -->
<svg width="473pt" height="66pt"
 viewBox="0.00 0.00 473.00 66.00" xmlns="http://www.w3.org/2000/svg" xmlns:xlink="http://www.w3.org/1999/xlink">
<g id="graph0" class="graph" transform="scale(1 1) rotate(0) translate(4 62)">
<title>VideoTitleMessagePrivate::setField</title>
<!-- Node1 -->
<g id="node1" class="node">
<title>Node1</title>
<g id="a_node1"><a xlink:title=" ">
<polygon fill="#bfbfbf" stroke="black" points="0,-14 0,-44 144,-44 144,-14 0,-14"/>
<text text-anchor="start" x="8" y="-32" font-family="Helvetica,sans-Serif" font-size="10.00">VideoTitleMessagePrivate</text>
<text text-anchor="middle" x="72" y="-21" font-family="Helvetica,sans-Serif" font-size="10.00">::setField</text>
</a>
</g>
</g>
<!-- Node2 -->
<g id="node2" class="node">
<title>Node2</title>
<g id="a_node2"><a xlink:href="classAbstractDataMessagePrivate.html#ad11748b005c364c65c2f1f03eae674cc" target="_top" xlink:title=" ">
<polygon fill="none" stroke="black" points="180,-14 180,-44 338,-44 338,-14 180,-14"/>
<text text-anchor="start" x="188" y="-32" font-family="Helvetica,sans-Serif" font-size="10.00">AbstractDataMessagePrivate</text>
<text text-anchor="middle" x="259" y="-21" font-family="Helvetica,sans-Serif" font-size="10.00">::verify</text>
</a>
</g>
</g>
<!-- Node1&#45;&gt;Node2 -->
<g id="edge1" class="edge">
<title>Node1&#45;&gt;Node2</title>
<path fill="none" stroke="midnightblue" d="M144.26,-29C152.51,-29 161,-29 169.44,-29"/>
<polygon fill="midnightblue" stroke="midnightblue" points="169.7,-32.5 179.7,-29 169.7,-25.5 169.7,-32.5"/>
</g>
<!-- Node3 -->
<g id="node3" class="node">
<title>Node3</title>
<g id="a_node3"><a xlink:href="abstractdatamessage_8cpp.html#a3d7ec006b7bf32e4ea754e0ce7a0d3a4" target="_top" xlink:title=" ">
<polygon fill="none" stroke="black" points="374,-38.5 374,-57.5 465,-57.5 465,-38.5 374,-38.5"/>
<text text-anchor="middle" x="419.5" y="-45.5" font-family="Helvetica,sans-Serif" font-size="10.00">verifyBaseType</text>
</a>
</g>
</g>
<!-- Node2&#45;&gt;Node3 -->
<g id="edge2" class="edge">
<title>Node2&#45;&gt;Node3</title>
<path fill="none" stroke="midnightblue" d="M338.32,-38.39C346.88,-39.41 355.45,-40.44 363.63,-41.42"/>
<polygon fill="midnightblue" stroke="midnightblue" points="363.42,-44.92 373.76,-42.64 364.25,-37.97 363.42,-44.92"/>
</g>
<!-- Node4 -->
<g id="node4" class="node">
<title>Node4</title>
<g id="a_node4"><a xlink:href="abstractdatamessage_8cpp.html#a0d4ab57f84f4b95732a6af0267777873" target="_top" xlink:title=" ">
<polygon fill="none" stroke="black" points="375.5,-0.5 375.5,-19.5 463.5,-19.5 463.5,-0.5 375.5,-0.5"/>
<text text-anchor="middle" x="419.5" y="-7.5" font-family="Helvetica,sans-Serif" font-size="10.00">verifyDataSize</text>
</a>
</g>
</g>
<!-- Node2&#45;&gt;Node4 -->
<g id="edge3" class="edge">
<title>Node2&#45;&gt;Node4</title>
<path fill="none" stroke="midnightblue" d="M338.32,-19.61C347.51,-18.51 356.72,-17.41 365.46,-16.36"/>
<polygon fill="midnightblue" stroke="midnightblue" points="365.95,-19.83 375.46,-15.16 365.11,-12.87 365.95,-19.83"/>
</g>
</g>
</svg>
