<?xml version="1.0" encoding="UTF-8" standalone="no"?>
<!DOCTYPE svg PUBLIC "-//W3C//DTD SVG 1.1//EN"
 "http://www.w3.org/Graphics/SVG/1.1/DTD/svg11.dtd">
<!-- Generated by graphviz version 2.43.0 (0)
 -->
<!-- Title: ExdDataConceptConfigurationMessagePrivate Pages: 1 -->
<svg width="171pt" height="163pt"
 viewBox="0.00 0.00 171.00 163.00" xmlns="http://www.w3.org/2000/svg" xmlns:xlink="http://www.w3.org/1999/xlink">
<g id="graph0" class="graph" transform="scale(1 1) rotate(0) translate(4 159)">
<title>ExdDataConceptConfigurationMessagePrivate</title>
<!-- Node1 -->
<g id="node1" class="node">
<title>Node1</title>
<g id="a_node1"><a xlink:title=" ">
<polygon fill="#bfbfbf" stroke="black" points="0,-0.5 0,-30.5 163,-30.5 163,-0.5 0,-0.5"/>
<text text-anchor="start" x="8" y="-18.5" font-family="Helvetica,sans-Serif" font-size="10.00">ExdDataConceptConfiguration</text>
<text text-anchor="middle" x="81.5" y="-7.5" font-family="Helvetica,sans-Serif" font-size="10.00">MessagePrivate</text>
</a>
</g>
</g>
<!-- Node2 -->
<g id="node2" class="node">
<title>Node2</title>
<g id="a_node2"><a xlink:href="classFitDataMessagePrivate.html" target="_top" xlink:title=" ">
<polygon fill="none" stroke="black" points="16.5,-68.5 16.5,-87.5 146.5,-87.5 146.5,-68.5 16.5,-68.5"/>
<text text-anchor="middle" x="81.5" y="-75.5" font-family="Helvetica,sans-Serif" font-size="10.00">FitDataMessagePrivate</text>
</a>
</g>
</g>
<!-- Node2&#45;&gt;Node1 -->
<g id="edge1" class="edge">
<title>Node2&#45;&gt;Node1</title>
<path fill="none" stroke="midnightblue" d="M81.5,-58.22C81.5,-49.36 81.5,-38.96 81.5,-30.76"/>
<polygon fill="midnightblue" stroke="midnightblue" points="78,-58.33 81.5,-68.33 85,-58.33 78,-58.33"/>
</g>
<!-- Node3 -->
<g id="node3" class="node">
<title>Node3</title>
<g id="a_node3"><a xlink:href="classFitDataMessage.html" target="_top" xlink:title="The FitDataMessage class is the polymorphic base class for all FIT Data Message classes.">
<polygon fill="none" stroke="black" points="34,-135.5 34,-154.5 129,-154.5 129,-135.5 34,-135.5"/>
<text text-anchor="middle" x="81.5" y="-142.5" font-family="Helvetica,sans-Serif" font-size="10.00">FitDataMessage</text>
</a>
</g>
</g>
<!-- Node3&#45;&gt;Node2 -->
<g id="edge2" class="edge">
<title>Node3&#45;&gt;Node2</title>
<path fill="none" stroke="#9a32cd" stroke-dasharray="5,2" d="M81.5,-125.04C81.5,-112.67 81.5,-97.12 81.5,-87.63"/>
<polygon fill="#9a32cd" stroke="#9a32cd" points="78,-125.23 81.5,-135.23 85,-125.23 78,-125.23"/>
<text text-anchor="middle" x="95.5" y="-109" font-family="Helvetica,sans-Serif" font-size="10.00"> q_ptr</text>
</g>
</g>
</svg>
