<?xml version="1.0" encoding="UTF-8" standalone="no"?>
<!DOCTYPE svg PUBLIC "-//W3C//DTD SVG 1.1//EN"
 "http://www.w3.org/Graphics/SVG/1.1/DTD/svg11.dtd">
<!-- Generated by graphviz version 2.43.0 (0)
 -->
<!-- Title: ExdDataFieldConfigurationMessage Pages: 1 -->
<svg width="330pt" height="106pt"
 viewBox="0.00 0.00 330.00 106.00" xmlns="http://www.w3.org/2000/svg" xmlns:xlink="http://www.w3.org/1999/xlink">
<g id="graph0" class="graph" transform="scale(1 1) rotate(0) translate(4 102)">
<title>ExdDataFieldConfigurationMessage</title>
<!-- Node1 -->
<g id="node1" class="node">
<title>Node1</title>
<g id="a_node1"><a xlink:title="The ExdDataFieldConfigurationMessage class represents a FIT ExdDataFieldConfigurationMessage data mes...">
<polygon fill="#bfbfbf" stroke="black" points="0,-0.5 0,-30.5 146,-30.5 146,-0.5 0,-0.5"/>
<text text-anchor="start" x="8" y="-18.5" font-family="Helvetica,sans-Serif" font-size="10.00">ExdDataFieldConfiguration</text>
<text text-anchor="middle" x="73" y="-7.5" font-family="Helvetica,sans-Serif" font-size="10.00">Message</text>
</a>
</g>
</g>
<!-- Node2 -->
<g id="node2" class="node">
<title>Node2</title>
<g id="a_node2"><a xlink:href="classAbstractDataMessage.html" target="_top" xlink:title="The AbstractDataMessage class is the polymorphic base class for all FIT Data Message classes.">
<polygon fill="none" stroke="black" points="130,-78.5 130,-97.5 254,-97.5 254,-78.5 130,-78.5"/>
<text text-anchor="middle" x="192" y="-85.5" font-family="Helvetica,sans-Serif" font-size="10.00">AbstractDataMessage</text>
</a>
</g>
</g>
<!-- Node2&#45;&gt;Node1 -->
<g id="edge1" class="edge">
<title>Node2&#45;&gt;Node1</title>
<path fill="none" stroke="midnightblue" d="M168.6,-73.14C147.83,-60.83 117.63,-42.94 96.76,-30.58"/>
<polygon fill="midnightblue" stroke="midnightblue" points="167.02,-76.27 177.41,-78.36 170.59,-70.25 167.02,-76.27"/>
</g>
<!-- Node3 -->
<g id="node3" class="node">
<title>Node3</title>
<g id="a_node3"><a xlink:href="classAbstractDataMessagePrivate.html" target="_top" xlink:title=" ">
<polygon fill="none" stroke="black" points="164,-6 164,-25 322,-25 322,-6 164,-6"/>
<text text-anchor="middle" x="243" y="-13" font-family="Helvetica,sans-Serif" font-size="10.00">AbstractDataMessagePrivate</text>
</a>
</g>
</g>
<!-- Node2&#45;&gt;Node3 -->
<g id="edge3" class="edge">
<title>Node2&#45;&gt;Node3</title>
<path fill="none" stroke="#9a32cd" stroke-dasharray="5,2" d="M186.39,-68.27C185.49,-61.81 185.75,-54.76 189,-49 195.25,-37.95 206.92,-30.24 217.82,-25.11"/>
<polygon fill="#9a32cd" stroke="#9a32cd" points="183.03,-69.28 188.66,-78.25 189.85,-67.72 183.03,-69.28"/>
<text text-anchor="middle" x="203" y="-52" font-family="Helvetica,sans-Serif" font-size="10.00"> q_ptr</text>
</g>
<!-- Node3&#45;&gt;Node2 -->
<g id="edge2" class="edge">
<title>Node3&#45;&gt;Node2</title>
<path fill="none" stroke="#9a32cd" stroke-dasharray="5,2" d="M235.68,-34.41C231.91,-42.6 226.86,-52.2 221,-60 215.87,-66.82 208.91,-73.37 203.09,-78.31"/>
<polygon fill="#9a32cd" stroke="#9a32cd" points="238.99,-35.59 239.75,-25.02 232.56,-32.8 238.99,-35.59"/>
<text text-anchor="middle" x="241" y="-52" font-family="Helvetica,sans-Serif" font-size="10.00"> d_ptr</text>
</g>
</g>
</svg>
