<?xml version="1.0" encoding="UTF-8" standalone="no"?>
<!DOCTYPE svg PUBLIC "-//W3C//DTD SVG 1.1//EN"
 "http://www.w3.org/Graphics/SVG/1.1/DTD/svg11.dtd">
<!-- Generated by graphviz version 2.43.0 (0)
 -->
<!-- Title: OneDSensorCalibrationMessage Pages: 1 -->
<svg width="358pt" height="95pt"
 viewBox="0.00 0.00 357.50 95.00" xmlns="http://www.w3.org/2000/svg" xmlns:xlink="http://www.w3.org/1999/xlink">
<g id="graph0" class="graph" transform="scale(1 1) rotate(0) translate(4 91)">
<title>OneDSensorCalibrationMessage</title>
<!-- Node1 -->
<g id="node1" class="node">
<title>Node1</title>
<g id="a_node1"><a xlink:title="The OneDSensorCalibrationMessage class represents a FIT OneDSensorCalibrationMessage data message.">
<polygon fill="#bfbfbf" stroke="black" points="0,-0.5 0,-19.5 173,-19.5 173,-0.5 0,-0.5"/>
<text text-anchor="middle" x="86.5" y="-7.5" font-family="Helvetica,sans-Serif" font-size="10.00">OneDSensorCalibrationMessage</text>
</a>
</g>
</g>
<!-- Node2 -->
<g id="node2" class="node">
<title>Node2</title>
<g id="a_node2"><a xlink:href="classAbstractDataMessage.html" target="_top" xlink:title="The AbstractDataMessage class is the polymorphic base class for all FIT Data Message classes.">
<polygon fill="none" stroke="black" points="157.5,-67.5 157.5,-86.5 281.5,-86.5 281.5,-67.5 157.5,-67.5"/>
<text text-anchor="middle" x="219.5" y="-74.5" font-family="Helvetica,sans-Serif" font-size="10.00">AbstractDataMessage</text>
</a>
</g>
</g>
<!-- Node2&#45;&gt;Node1 -->
<g id="edge1" class="edge">
<title>Node2&#45;&gt;Node1</title>
<path fill="none" stroke="midnightblue" d="M192.78,-62.94C166.44,-50.07 126.93,-30.76 104.23,-19.67"/>
<polygon fill="midnightblue" stroke="midnightblue" points="191.32,-66.12 201.84,-67.37 194.39,-59.83 191.32,-66.12"/>
</g>
<!-- Node3 -->
<g id="node3" class="node">
<title>Node3</title>
<g id="a_node3"><a xlink:href="classAbstractDataMessagePrivate.html" target="_top" xlink:title=" ">
<polygon fill="none" stroke="black" points="191.5,-0.5 191.5,-19.5 349.5,-19.5 349.5,-0.5 191.5,-0.5"/>
<text text-anchor="middle" x="270.5" y="-7.5" font-family="Helvetica,sans-Serif" font-size="10.00">AbstractDataMessagePrivate</text>
</a>
</g>
</g>
<!-- Node2&#45;&gt;Node3 -->
<g id="edge3" class="edge">
<title>Node2&#45;&gt;Node3</title>
<path fill="none" stroke="#9a32cd" stroke-dasharray="5,2" d="M213.67,-57.37C212.71,-50.83 212.98,-43.7 216.5,-38 221.73,-29.53 230.52,-23.63 239.5,-19.55"/>
<polygon fill="#9a32cd" stroke="#9a32cd" points="210.36,-58.56 216.1,-67.47 217.17,-56.93 210.36,-58.56"/>
<text text-anchor="middle" x="230.5" y="-41" font-family="Helvetica,sans-Serif" font-size="10.00"> q_ptr</text>
</g>
<!-- Node3&#45;&gt;Node2 -->
<g id="edge2" class="edge">
<title>Node3&#45;&gt;Node2</title>
<path fill="none" stroke="#9a32cd" stroke-dasharray="5,2" d="M261.75,-28.57C258.07,-35.25 253.48,-42.75 248.5,-49 243.1,-55.78 235.99,-62.42 230.16,-67.43"/>
<polygon fill="#9a32cd" stroke="#9a32cd" points="264.91,-30.09 266.44,-19.61 258.71,-26.84 264.91,-30.09"/>
<text text-anchor="middle" x="269.5" y="-41" font-family="Helvetica,sans-Serif" font-size="10.00"> d_ptr</text>
</g>
</g>
</svg>
