<?xml version="1.0" encoding="UTF-8" standalone="no"?>
<!DOCTYPE svg PUBLIC "-//W3C//DTD SVG 1.1//EN"
 "http://www.w3.org/Graphics/SVG/1.1/DTD/svg11.dtd">
<!-- Generated by graphviz version 2.43.0 (0)
 -->
<!-- Title: CourseMessagePrivate Pages: 1 -->
<svg width="278pt" height="95pt"
 viewBox="0.00 0.00 278.00 95.00" xmlns="http://www.w3.org/2000/svg" xmlns:xlink="http://www.w3.org/1999/xlink">
<g id="graph0" class="graph" transform="scale(1 1) rotate(0) translate(4 91)">
<title>CourseMessagePrivate</title>
<!-- Node1 -->
<g id="node1" class="node">
<title>Node1</title>
<g id="a_node1"><a xlink:title=" ">
<polygon fill="#bfbfbf" stroke="black" points="0,-0.5 0,-19.5 128,-19.5 128,-0.5 0,-0.5"/>
<text text-anchor="middle" x="64" y="-7.5" font-family="Helvetica,sans-Serif" font-size="10.00">CourseMessagePrivate</text>
</a>
</g>
</g>
<!-- Node2 -->
<g id="node2" class="node">
<title>Node2</title>
<g id="a_node2"><a xlink:href="classAbstractDataMessagePrivate.html" target="_top" xlink:title=" ">
<polygon fill="none" stroke="black" points="78,-67.5 78,-86.5 236,-86.5 236,-67.5 78,-67.5"/>
<text text-anchor="middle" x="157" y="-74.5" font-family="Helvetica,sans-Serif" font-size="10.00">AbstractDataMessagePrivate</text>
</a>
</g>
</g>
<!-- Node2&#45;&gt;Node1 -->
<g id="edge1" class="edge">
<title>Node2&#45;&gt;Node1</title>
<path fill="none" stroke="midnightblue" d="M136.14,-61.42C117.75,-48.57 91.59,-30.28 76.34,-19.63"/>
<polygon fill="midnightblue" stroke="midnightblue" points="134.26,-64.37 144.46,-67.23 138.27,-58.64 134.26,-64.37"/>
</g>
<!-- Node3 -->
<g id="node3" class="node">
<title>Node3</title>
<g id="a_node3"><a xlink:href="classAbstractDataMessage.html" target="_top" xlink:title="The AbstractDataMessage class is the polymorphic base class for all FIT Data Message classes.">
<polygon fill="none" stroke="black" points="146,-0.5 146,-19.5 270,-19.5 270,-0.5 146,-0.5"/>
<text text-anchor="middle" x="208" y="-7.5" font-family="Helvetica,sans-Serif" font-size="10.00">AbstractDataMessage</text>
</a>
</g>
</g>
<!-- Node2&#45;&gt;Node3 -->
<g id="edge3" class="edge">
<title>Node2&#45;&gt;Node3</title>
<path fill="none" stroke="#9a32cd" stroke-dasharray="5,2" d="M151.17,-57.37C150.21,-50.83 150.48,-43.7 154,-38 159.23,-29.53 168.02,-23.63 177,-19.55"/>
<polygon fill="#9a32cd" stroke="#9a32cd" points="147.86,-58.56 153.6,-67.47 154.67,-56.93 147.86,-58.56"/>
<text text-anchor="middle" x="168" y="-41" font-family="Helvetica,sans-Serif" font-size="10.00"> d_ptr</text>
</g>
<!-- Node3&#45;&gt;Node2 -->
<g id="edge2" class="edge">
<title>Node3&#45;&gt;Node2</title>
<path fill="none" stroke="#9a32cd" stroke-dasharray="5,2" d="M199.25,-28.57C195.57,-35.25 190.98,-42.75 186,-49 180.6,-55.78 173.49,-62.42 167.66,-67.43"/>
<polygon fill="#9a32cd" stroke="#9a32cd" points="202.41,-30.09 203.94,-19.61 196.21,-26.84 202.41,-30.09"/>
<text text-anchor="middle" x="207" y="-41" font-family="Helvetica,sans-Serif" font-size="10.00"> q_ptr</text>
</g>
</g>
</svg>
