<?xml version="1.0" encoding="UTF-8" standalone="no"?>
<!DOCTYPE svg PUBLIC "-//W3C//DTD SVG 1.1//EN"
 "http://www.w3.org/Graphics/SVG/1.1/DTD/svg11.dtd">
<!-- Generated by graphviz version 2.43.0 (0)
 -->
<!-- Title: climbpromessage_p.h Pages: 1 -->
<svg width="165pt" height="308pt"
 viewBox="0.00 0.00 164.50 308.00" xmlns="http://www.w3.org/2000/svg" xmlns:xlink="http://www.w3.org/1999/xlink">
<g id="graph0" class="graph" transform="scale(1 1) rotate(0) translate(4 304)">
<title>climbpromessage_p.h</title>
<!-- Node1 -->
<g id="node1" class="node">
<title>Node1</title>
<g id="a_node1"><a xlink:title=" ">
<polygon fill="#bfbfbf" stroke="black" points="0,-280.5 0,-299.5 124,-299.5 124,-280.5 0,-280.5"/>
<text text-anchor="middle" x="62" y="-287.5" font-family="Helvetica,sans-Serif" font-size="10.00">climbpromessage_p.h</text>
</a>
</g>
</g>
<!-- Node2 -->
<g id="node2" class="node">
<title>Node2</title>
<g id="a_node2"><a xlink:href="fitdatamessage__p_8h.html" target="_top" xlink:title=" ">
<polygon fill="none" stroke="black" points="5.5,-224.5 5.5,-243.5 118.5,-243.5 118.5,-224.5 5.5,-224.5"/>
<text text-anchor="middle" x="62" y="-231.5" font-family="Helvetica,sans-Serif" font-size="10.00">fitdatamessage_p.h</text>
</a>
</g>
</g>
<!-- Node1&#45;&gt;Node2 -->
<g id="edge1" class="edge">
<title>Node1&#45;&gt;Node2</title>
<path fill="none" stroke="midnightblue" d="M62,-280.08C62,-273.01 62,-262.86 62,-253.99"/>
<polygon fill="midnightblue" stroke="midnightblue" points="65.5,-253.75 62,-243.75 58.5,-253.75 65.5,-253.75"/>
</g>
<!-- Node3 -->
<g id="node3" class="node">
<title>Node3</title>
<g id="a_node3"><a xlink:href="QtFit__global_8h.html" target="_top" xlink:title=" ">
<polygon fill="none" stroke="black" points="1,-56.5 1,-75.5 85,-75.5 85,-56.5 1,-56.5"/>
<text text-anchor="middle" x="43" y="-63.5" font-family="Helvetica,sans-Serif" font-size="10.00">QtFit_global.h</text>
</a>
</g>
</g>
<!-- Node2&#45;&gt;Node3 -->
<g id="edge2" class="edge">
<title>Node2&#45;&gt;Node3</title>
<path fill="none" stroke="midnightblue" d="M58.15,-224.32C49.82,-204.61 31.22,-154.88 35,-112 35.78,-103.2 37.39,-93.54 38.97,-85.43"/>
<polygon fill="midnightblue" stroke="midnightblue" points="42.41,-86.07 41.01,-75.57 35.56,-84.65 42.41,-86.07"/>
</g>
<!-- Node5 -->
<g id="node5" class="node">
<title>Node5</title>
<g id="a_node5"><a xlink:href="types_8h.html" target="_top" xlink:title="Types defined by the ANT+ FIT SDK.">
<polygon fill="none" stroke="black" points="44.5,-112.5 44.5,-131.5 97.5,-131.5 97.5,-112.5 44.5,-112.5"/>
<text text-anchor="middle" x="71" y="-119.5" font-family="Helvetica,sans-Serif" font-size="10.00">types.h</text>
</a>
</g>
</g>
<!-- Node2&#45;&gt;Node5 -->
<g id="edge4" class="edge">
<title>Node2&#45;&gt;Node5</title>
<path fill="none" stroke="midnightblue" d="M62.71,-224.37C64.16,-206.62 67.51,-165.67 69.48,-141.6"/>
<polygon fill="midnightblue" stroke="midnightblue" points="72.97,-141.84 70.3,-131.59 65.99,-141.27 72.97,-141.84"/>
</g>
<!-- Node6 -->
<g id="node6" class="node">
<title>Node6</title>
<g id="a_node6"><a xlink:href="types__p_8h.html" target="_top" xlink:title=" ">
<polygon fill="none" stroke="black" points="90,-168.5 90,-187.5 154,-187.5 154,-168.5 90,-168.5"/>
<text text-anchor="middle" x="122" y="-175.5" font-family="Helvetica,sans-Serif" font-size="10.00">types_p.h</text>
</a>
</g>
</g>
<!-- Node2&#45;&gt;Node6 -->
<g id="edge6" class="edge">
<title>Node2&#45;&gt;Node6</title>
<path fill="none" stroke="midnightblue" d="M71.64,-224.32C80.51,-216.34 93.87,-204.31 104.61,-194.65"/>
<polygon fill="midnightblue" stroke="midnightblue" points="107.09,-197.13 112.18,-187.83 102.41,-191.92 107.09,-197.13"/>
</g>
<!-- Node4 -->
<g id="node4" class="node">
<title>Node4</title>
<g id="a_node4"><a xlink:title=" ">
<polygon fill="none" stroke="#bfbfbf" points="13.5,-0.5 13.5,-19.5 72.5,-19.5 72.5,-0.5 13.5,-0.5"/>
<text text-anchor="middle" x="43" y="-7.5" font-family="Helvetica,sans-Serif" font-size="10.00">QtGlobal</text>
</a>
</g>
</g>
<!-- Node3&#45;&gt;Node4 -->
<g id="edge3" class="edge">
<title>Node3&#45;&gt;Node4</title>
<path fill="none" stroke="midnightblue" d="M43,-56.08C43,-49.01 43,-38.86 43,-29.99"/>
<polygon fill="midnightblue" stroke="midnightblue" points="46.5,-29.75 43,-19.75 39.5,-29.75 46.5,-29.75"/>
</g>
<!-- Node5&#45;&gt;Node3 -->
<g id="edge5" class="edge">
<title>Node5&#45;&gt;Node3</title>
<path fill="none" stroke="midnightblue" d="M66.38,-112.08C62.54,-104.69 56.98,-93.95 52.24,-84.81"/>
<polygon fill="midnightblue" stroke="midnightblue" points="55.25,-83.02 47.54,-75.75 49.03,-86.24 55.25,-83.02"/>
</g>
<!-- Node6&#45;&gt;Node5 -->
<g id="edge7" class="edge">
<title>Node6&#45;&gt;Node5</title>
<path fill="none" stroke="midnightblue" d="M113.58,-168.08C106.15,-160.22 95.15,-148.57 86.19,-139.08"/>
<polygon fill="midnightblue" stroke="midnightblue" points="88.68,-136.62 79.26,-131.75 83.59,-141.42 88.68,-136.62"/>
</g>
<!-- Node7 -->
<g id="node7" class="node">
<title>Node7</title>
<g id="a_node7"><a xlink:title=" ">
<polygon fill="none" stroke="#bfbfbf" points="115.5,-112.5 115.5,-131.5 156.5,-131.5 156.5,-112.5 115.5,-112.5"/>
<text text-anchor="middle" x="136" y="-119.5" font-family="Helvetica,sans-Serif" font-size="10.00">QList</text>
</a>
</g>
</g>
<!-- Node6&#45;&gt;Node7 -->
<g id="edge8" class="edge">
<title>Node6&#45;&gt;Node7</title>
<path fill="none" stroke="midnightblue" d="M124.31,-168.08C126.17,-160.93 128.84,-150.64 131.15,-141.69"/>
<polygon fill="midnightblue" stroke="midnightblue" points="134.61,-142.31 133.73,-131.75 127.83,-140.55 134.61,-142.31"/>
</g>
</g>
</svg>
