<?xml version="1.0" encoding="UTF-8" standalone="no"?>
<!DOCTYPE svg PUBLIC "-//W3C//DTD SVG 1.1//EN"
 "http://www.w3.org/Graphics/SVG/1.1/DTD/svg11.dtd">
<!-- Generated by graphviz version 2.43.0 (0)
 -->
<!-- Title: coursemessage.cpp Pages: 1 -->
<svg width="343pt" height="364pt"
 viewBox="0.00 0.00 343.00 364.00" xmlns="http://www.w3.org/2000/svg" xmlns:xlink="http://www.w3.org/1999/xlink">
<g id="graph0" class="graph" transform="scale(1 1) rotate(0) translate(4 360)">
<title>coursemessage.cpp</title>
<!-- Node1 -->
<g id="node1" class="node">
<title>Node1</title>
<g id="a_node1"><a xlink:title=" ">
<polygon fill="#bfbfbf" stroke="black" points="143,-336.5 143,-355.5 256,-355.5 256,-336.5 143,-336.5"/>
<text text-anchor="middle" x="199.5" y="-343.5" font-family="Helvetica,sans-Serif" font-size="10.00">coursemessage.cpp</text>
</a>
</g>
</g>
<!-- Node2 -->
<g id="node2" class="node">
<title>Node2</title>
<g id="a_node2"><a xlink:href="coursemessage_8h.html" target="_top" xlink:title=" ">
<polygon fill="none" stroke="black" points="134.5,-224.5 134.5,-243.5 236.5,-243.5 236.5,-224.5 134.5,-224.5"/>
<text text-anchor="middle" x="185.5" y="-231.5" font-family="Helvetica,sans-Serif" font-size="10.00">coursemessage.h</text>
</a>
</g>
</g>
<!-- Node1&#45;&gt;Node2 -->
<g id="edge1" class="edge">
<title>Node1&#45;&gt;Node2</title>
<path fill="none" stroke="midnightblue" d="M197.46,-336.43C195.4,-327.41 192.26,-312.79 190.5,-300 188.37,-284.56 187.09,-266.93 186.35,-253.93"/>
<polygon fill="midnightblue" stroke="midnightblue" points="189.84,-253.68 185.84,-243.87 182.85,-254.03 189.84,-253.68"/>
</g>
<!-- Node7 -->
<g id="node7" class="node">
<title>Node7</title>
<g id="a_node7"><a xlink:href="coursemessage__p_8h.html" target="_top" xlink:title=" ">
<polygon fill="none" stroke="black" points="20,-280.5 20,-299.5 133,-299.5 133,-280.5 20,-280.5"/>
<text text-anchor="middle" x="76.5" y="-287.5" font-family="Helvetica,sans-Serif" font-size="10.00">coursemessage_p.h</text>
</a>
</g>
</g>
<!-- Node1&#45;&gt;Node7 -->
<g id="edge7" class="edge">
<title>Node1&#45;&gt;Node7</title>
<path fill="none" stroke="midnightblue" d="M180.01,-336.44C159.86,-327.6 128.18,-313.69 105.17,-303.59"/>
<polygon fill="midnightblue" stroke="midnightblue" points="106.46,-300.33 95.9,-299.52 103.65,-306.74 106.46,-300.33"/>
</g>
<!-- Node11 -->
<g id="node11" class="node">
<title>Node11</title>
<g id="a_node11"><a xlink:title=" ">
<polygon fill="none" stroke="#bfbfbf" points="199.5,-280.5 199.5,-299.5 255.5,-299.5 255.5,-280.5 199.5,-280.5"/>
<text text-anchor="middle" x="227.5" y="-287.5" font-family="Helvetica,sans-Serif" font-size="10.00">QDebug</text>
</a>
</g>
</g>
<!-- Node1&#45;&gt;Node11 -->
<g id="edge14" class="edge">
<title>Node1&#45;&gt;Node11</title>
<path fill="none" stroke="midnightblue" d="M204.12,-336.08C207.96,-328.69 213.52,-317.95 218.26,-308.81"/>
<polygon fill="midnightblue" stroke="midnightblue" points="221.47,-310.24 222.96,-299.75 215.25,-307.02 221.47,-310.24"/>
</g>
<!-- Node12 -->
<g id="node12" class="node">
<title>Node12</title>
<g id="a_node12"><a xlink:title=" ">
<polygon fill="none" stroke="#bfbfbf" points="274,-280.5 274,-299.5 335,-299.5 335,-280.5 274,-280.5"/>
<text text-anchor="middle" x="304.5" y="-287.5" font-family="Helvetica,sans-Serif" font-size="10.00">QtEndian</text>
</a>
</g>
</g>
<!-- Node1&#45;&gt;Node12 -->
<g id="edge15" class="edge">
<title>Node1&#45;&gt;Node12</title>
<path fill="none" stroke="midnightblue" d="M216.37,-336.32C233.21,-327.66 259.31,-314.24 278.74,-304.25"/>
<polygon fill="midnightblue" stroke="midnightblue" points="280.38,-307.34 287.67,-299.65 277.18,-301.12 280.38,-307.34"/>
</g>
<!-- Node3 -->
<g id="node3" class="node">
<title>Node3</title>
<g id="a_node3"><a xlink:href="fitdatamessage_8h.html" target="_top" xlink:title=" ">
<polygon fill="none" stroke="black" points="139,-168.5 139,-187.5 240,-187.5 240,-168.5 139,-168.5"/>
<text text-anchor="middle" x="189.5" y="-175.5" font-family="Helvetica,sans-Serif" font-size="10.00">fitdatamessage.h</text>
</a>
</g>
</g>
<!-- Node2&#45;&gt;Node3 -->
<g id="edge2" class="edge">
<title>Node2&#45;&gt;Node3</title>
<path fill="none" stroke="midnightblue" d="M186.16,-224.08C186.68,-217.01 187.44,-206.86 188.09,-197.99"/>
<polygon fill="midnightblue" stroke="midnightblue" points="191.6,-197.98 188.85,-187.75 184.62,-197.47 191.6,-197.98"/>
</g>
<!-- Node4 -->
<g id="node4" class="node">
<title>Node4</title>
<g id="a_node4"><a xlink:href="QtFit__global_8h.html" target="_top" xlink:title=" ">
<polygon fill="none" stroke="black" points="70.5,-56.5 70.5,-75.5 154.5,-75.5 154.5,-56.5 70.5,-56.5"/>
<text text-anchor="middle" x="112.5" y="-63.5" font-family="Helvetica,sans-Serif" font-size="10.00">QtFit_global.h</text>
</a>
</g>
</g>
<!-- Node3&#45;&gt;Node4 -->
<g id="edge3" class="edge">
<title>Node3&#45;&gt;Node4</title>
<path fill="none" stroke="midnightblue" d="M184.49,-168.39C177.04,-155.75 162.43,-131.56 148.5,-112 141.61,-102.32 133.36,-91.94 126.51,-83.59"/>
<polygon fill="midnightblue" stroke="midnightblue" points="129.06,-81.19 119.97,-75.74 123.68,-85.66 129.06,-81.19"/>
</g>
<!-- Node6 -->
<g id="node6" class="node">
<title>Node6</title>
<g id="a_node6"><a xlink:href="types_8h.html" target="_top" xlink:title="Types defined by the ANT+ FIT SDK.">
<polygon fill="none" stroke="black" points="86,-112.5 86,-131.5 139,-131.5 139,-112.5 86,-112.5"/>
<text text-anchor="middle" x="112.5" y="-119.5" font-family="Helvetica,sans-Serif" font-size="10.00">types.h</text>
</a>
</g>
</g>
<!-- Node3&#45;&gt;Node6 -->
<g id="edge5" class="edge">
<title>Node3&#45;&gt;Node6</title>
<path fill="none" stroke="midnightblue" d="M177.13,-168.32C165.34,-160.06 147.37,-147.45 133.36,-137.63"/>
<polygon fill="midnightblue" stroke="midnightblue" points="135.04,-134.53 124.84,-131.65 131.02,-140.26 135.04,-134.53"/>
</g>
<!-- Node5 -->
<g id="node5" class="node">
<title>Node5</title>
<g id="a_node5"><a xlink:title=" ">
<polygon fill="none" stroke="#bfbfbf" points="83,-0.5 83,-19.5 142,-19.5 142,-0.5 83,-0.5"/>
<text text-anchor="middle" x="112.5" y="-7.5" font-family="Helvetica,sans-Serif" font-size="10.00">QtGlobal</text>
</a>
</g>
</g>
<!-- Node4&#45;&gt;Node5 -->
<g id="edge4" class="edge">
<title>Node4&#45;&gt;Node5</title>
<path fill="none" stroke="midnightblue" d="M112.5,-56.08C112.5,-49.01 112.5,-38.86 112.5,-29.99"/>
<polygon fill="midnightblue" stroke="midnightblue" points="116,-29.75 112.5,-19.75 109,-29.75 116,-29.75"/>
</g>
<!-- Node6&#45;&gt;Node4 -->
<g id="edge6" class="edge">
<title>Node6&#45;&gt;Node4</title>
<path fill="none" stroke="midnightblue" d="M112.5,-112.08C112.5,-105.01 112.5,-94.86 112.5,-85.99"/>
<polygon fill="midnightblue" stroke="midnightblue" points="116,-85.75 112.5,-75.75 109,-85.75 116,-85.75"/>
</g>
<!-- Node8 -->
<g id="node8" class="node">
<title>Node8</title>
<g id="a_node8"><a xlink:href="fitdatamessage__p_8h.html" target="_top" xlink:title=" ">
<polygon fill="none" stroke="black" points="0,-224.5 0,-243.5 113,-243.5 113,-224.5 0,-224.5"/>
<text text-anchor="middle" x="56.5" y="-231.5" font-family="Helvetica,sans-Serif" font-size="10.00">fitdatamessage_p.h</text>
</a>
</g>
</g>
<!-- Node7&#45;&gt;Node8 -->
<g id="edge8" class="edge">
<title>Node7&#45;&gt;Node8</title>
<path fill="none" stroke="midnightblue" d="M73.2,-280.08C70.52,-272.85 66.65,-262.41 63.31,-253.4"/>
<polygon fill="midnightblue" stroke="midnightblue" points="66.5,-251.91 59.74,-243.75 59.93,-254.34 66.5,-251.91"/>
</g>
<!-- Node8&#45;&gt;Node4 -->
<g id="edge9" class="edge">
<title>Node8&#45;&gt;Node4</title>
<path fill="none" stroke="midnightblue" d="M42.42,-224.26C31.15,-216.35 16.15,-203.58 9.5,-188 1.92,-170.26 8,-124.89 17.5,-112 29.1,-96.26 47.64,-85.81 65.27,-78.98"/>
<polygon fill="midnightblue" stroke="midnightblue" points="66.67,-82.2 74.92,-75.55 64.32,-75.6 66.67,-82.2"/>
</g>
<!-- Node8&#45;&gt;Node6 -->
<g id="edge10" class="edge">
<title>Node8&#45;&gt;Node6</title>
<path fill="none" stroke="midnightblue" d="M64.74,-224.34C72.57,-215.72 84.19,-201.82 91.5,-188 99.3,-173.26 104.87,-155.1 108.3,-141.73"/>
<polygon fill="midnightblue" stroke="midnightblue" points="111.75,-142.34 110.69,-131.8 104.95,-140.7 111.75,-142.34"/>
</g>
<!-- Node9 -->
<g id="node9" class="node">
<title>Node9</title>
<g id="a_node9"><a xlink:href="types__p_8h.html" target="_top" xlink:title=" ">
<polygon fill="none" stroke="black" points="18.5,-168.5 18.5,-187.5 82.5,-187.5 82.5,-168.5 18.5,-168.5"/>
<text text-anchor="middle" x="50.5" y="-175.5" font-family="Helvetica,sans-Serif" font-size="10.00">types_p.h</text>
</a>
</g>
</g>
<!-- Node8&#45;&gt;Node9 -->
<g id="edge11" class="edge">
<title>Node8&#45;&gt;Node9</title>
<path fill="none" stroke="midnightblue" d="M55.51,-224.08C54.71,-216.93 53.57,-206.64 52.58,-197.69"/>
<polygon fill="midnightblue" stroke="midnightblue" points="56.06,-197.3 51.47,-187.75 49.1,-198.08 56.06,-197.3"/>
</g>
<!-- Node9&#45;&gt;Node6 -->
<g id="edge12" class="edge">
<title>Node9&#45;&gt;Node6</title>
<path fill="none" stroke="midnightblue" d="M60.46,-168.32C69.63,-160.34 83.44,-148.31 94.53,-138.65"/>
<polygon fill="midnightblue" stroke="midnightblue" points="97.12,-141.04 102.36,-131.83 92.52,-135.76 97.12,-141.04"/>
</g>
<!-- Node10 -->
<g id="node10" class="node">
<title>Node10</title>
<g id="a_node10"><a xlink:title=" ">
<polygon fill="none" stroke="#bfbfbf" points="27,-112.5 27,-131.5 68,-131.5 68,-112.5 27,-112.5"/>
<text text-anchor="middle" x="47.5" y="-119.5" font-family="Helvetica,sans-Serif" font-size="10.00">QList</text>
</a>
</g>
</g>
<!-- Node9&#45;&gt;Node10 -->
<g id="edge13" class="edge">
<title>Node9&#45;&gt;Node10</title>
<path fill="none" stroke="midnightblue" d="M50,-168.08C49.61,-161.01 49.05,-150.86 48.55,-141.99"/>
<polygon fill="midnightblue" stroke="midnightblue" points="52.04,-141.54 47.99,-131.75 45.05,-141.93 52.04,-141.54"/>
</g>
</g>
</svg>
