<?xml version="1.0" encoding="UTF-8" standalone="no"?>
<!DOCTYPE svg PUBLIC "-//W3C//DTD SVG 1.1//EN"
 "http://www.w3.org/Graphics/SVG/1.1/DTD/svg11.dtd">
<!-- Generated by graphviz version 2.43.0 (0)
 -->
<!-- Title: coursepointmessage.cpp Pages: 1 -->
<svg width="409pt" height="364pt"
 viewBox="0.00 0.00 409.00 364.00" xmlns="http://www.w3.org/2000/svg" xmlns:xlink="http://www.w3.org/1999/xlink">
<g id="graph0" class="graph" transform="scale(1 1) rotate(0) translate(4 360)">
<title>coursepointmessage.cpp</title>
<!-- Node1 -->
<g id="node1" class="node">
<title>Node1</title>
<g id="a_node1"><a xlink:title=" ">
<polygon fill="#bfbfbf" stroke="black" points="193.5,-336.5 193.5,-355.5 331.5,-355.5 331.5,-336.5 193.5,-336.5"/>
<text text-anchor="middle" x="262.5" y="-343.5" font-family="Helvetica,sans-Serif" font-size="10.00">coursepointmessage.cpp</text>
</a>
</g>
</g>
<!-- Node2 -->
<g id="node2" class="node">
<title>Node2</title>
<g id="a_node2"><a xlink:href="coursepointmessage_8h.html" target="_top" xlink:title=" ">
<polygon fill="none" stroke="black" points="0,-280.5 0,-299.5 127,-299.5 127,-280.5 0,-280.5"/>
<text text-anchor="middle" x="63.5" y="-287.5" font-family="Helvetica,sans-Serif" font-size="10.00">coursepointmessage.h</text>
</a>
</g>
</g>
<!-- Node1&#45;&gt;Node2 -->
<g id="edge1" class="edge">
<title>Node1&#45;&gt;Node2</title>
<path fill="none" stroke="midnightblue" d="M230.97,-336.44C196.91,-327.2 142.49,-312.44 104.98,-302.26"/>
<polygon fill="midnightblue" stroke="midnightblue" points="105.45,-298.76 94.88,-299.52 103.62,-305.51 105.45,-298.76"/>
</g>
<!-- Node7 -->
<g id="node7" class="node">
<title>Node7</title>
<g id="a_node7"><a xlink:title=" ">
<polygon fill="none" stroke="#bfbfbf" points="242.5,-56.5 242.5,-75.5 298.5,-75.5 298.5,-56.5 242.5,-56.5"/>
<text text-anchor="middle" x="270.5" y="-63.5" font-family="Helvetica,sans-Serif" font-size="10.00">QDebug</text>
</a>
</g>
</g>
<!-- Node1&#45;&gt;Node7 -->
<g id="edge15" class="edge">
<title>Node1&#45;&gt;Node7</title>
<path fill="none" stroke="midnightblue" d="M269.31,-336.46C282.78,-318.69 311.5,-275.98 311.5,-235 311.5,-235 311.5,-235 311.5,-177 311.5,-142.52 293.59,-105.56 281.44,-84.47"/>
<polygon fill="midnightblue" stroke="midnightblue" points="284.34,-82.49 276.2,-75.71 278.34,-86.09 284.34,-82.49"/>
</g>
<!-- Node8 -->
<g id="node8" class="node">
<title>Node8</title>
<g id="a_node8"><a xlink:href="coursepointmessage__p_8h.html" target="_top" xlink:title=" ">
<polygon fill="none" stroke="black" points="145.5,-280.5 145.5,-299.5 283.5,-299.5 283.5,-280.5 145.5,-280.5"/>
<text text-anchor="middle" x="214.5" y="-287.5" font-family="Helvetica,sans-Serif" font-size="10.00">coursepointmessage_p.h</text>
</a>
</g>
</g>
<!-- Node1&#45;&gt;Node8 -->
<g id="edge8" class="edge">
<title>Node1&#45;&gt;Node8</title>
<path fill="none" stroke="midnightblue" d="M254.57,-336.08C247.65,-328.3 237.43,-316.8 229.05,-307.37"/>
<polygon fill="midnightblue" stroke="midnightblue" points="231.54,-304.9 222.28,-299.75 226.31,-309.55 231.54,-304.9"/>
</g>
<!-- Node12 -->
<g id="node12" class="node">
<title>Node12</title>
<g id="a_node12"><a xlink:title=" ">
<polygon fill="none" stroke="#bfbfbf" points="340,-280.5 340,-299.5 401,-299.5 401,-280.5 340,-280.5"/>
<text text-anchor="middle" x="370.5" y="-287.5" font-family="Helvetica,sans-Serif" font-size="10.00">QtEndian</text>
</a>
</g>
</g>
<!-- Node1&#45;&gt;Node12 -->
<g id="edge16" class="edge">
<title>Node1&#45;&gt;Node12</title>
<path fill="none" stroke="midnightblue" d="M279.85,-336.32C297.17,-327.66 324.02,-314.24 344,-304.25"/>
<polygon fill="midnightblue" stroke="midnightblue" points="345.81,-307.26 353.19,-299.65 342.68,-301 345.81,-307.26"/>
</g>
<!-- Node3 -->
<g id="node3" class="node">
<title>Node3</title>
<g id="a_node3"><a xlink:href="fitdatamessage_8h.html" target="_top" xlink:title=" ">
<polygon fill="none" stroke="black" points="13,-168.5 13,-187.5 114,-187.5 114,-168.5 13,-168.5"/>
<text text-anchor="middle" x="63.5" y="-175.5" font-family="Helvetica,sans-Serif" font-size="10.00">fitdatamessage.h</text>
</a>
</g>
</g>
<!-- Node2&#45;&gt;Node3 -->
<g id="edge2" class="edge">
<title>Node2&#45;&gt;Node3</title>
<path fill="none" stroke="midnightblue" d="M63.5,-280.37C63.5,-262.62 63.5,-221.67 63.5,-197.6"/>
<polygon fill="midnightblue" stroke="midnightblue" points="67,-197.59 63.5,-187.59 60,-197.59 67,-197.59"/>
</g>
<!-- Node4 -->
<g id="node4" class="node">
<title>Node4</title>
<g id="a_node4"><a xlink:href="QtFit__global_8h.html" target="_top" xlink:title=" ">
<polygon fill="none" stroke="black" points="100.5,-56.5 100.5,-75.5 184.5,-75.5 184.5,-56.5 100.5,-56.5"/>
<text text-anchor="middle" x="142.5" y="-63.5" font-family="Helvetica,sans-Serif" font-size="10.00">QtFit_global.h</text>
</a>
</g>
</g>
<!-- Node3&#45;&gt;Node4 -->
<g id="edge3" class="edge">
<title>Node3&#45;&gt;Node4</title>
<path fill="none" stroke="midnightblue" d="M69.7,-168.37C82.74,-150.22 113.2,-107.8 130.3,-83.99"/>
<polygon fill="midnightblue" stroke="midnightblue" points="133.34,-85.76 136.33,-75.59 127.65,-81.67 133.34,-85.76"/>
</g>
<!-- Node6 -->
<g id="node6" class="node">
<title>Node6</title>
<g id="a_node6"><a xlink:href="types_8h.html" target="_top" xlink:title="Types defined by the ANT+ FIT SDK.">
<polygon fill="none" stroke="black" points="171,-112.5 171,-131.5 224,-131.5 224,-112.5 171,-112.5"/>
<text text-anchor="middle" x="197.5" y="-119.5" font-family="Helvetica,sans-Serif" font-size="10.00">types.h</text>
</a>
</g>
</g>
<!-- Node3&#45;&gt;Node6 -->
<g id="edge5" class="edge">
<title>Node3&#45;&gt;Node6</title>
<path fill="none" stroke="midnightblue" d="M84.73,-168.44C106.88,-159.52 141.82,-145.44 166.94,-135.32"/>
<polygon fill="midnightblue" stroke="midnightblue" points="168.4,-138.5 176.37,-131.52 165.78,-132.01 168.4,-138.5"/>
</g>
<!-- Node5 -->
<g id="node5" class="node">
<title>Node5</title>
<g id="a_node5"><a xlink:title=" ">
<polygon fill="none" stroke="#bfbfbf" points="113,-0.5 113,-19.5 172,-19.5 172,-0.5 113,-0.5"/>
<text text-anchor="middle" x="142.5" y="-7.5" font-family="Helvetica,sans-Serif" font-size="10.00">QtGlobal</text>
</a>
</g>
</g>
<!-- Node4&#45;&gt;Node5 -->
<g id="edge4" class="edge">
<title>Node4&#45;&gt;Node5</title>
<path fill="none" stroke="midnightblue" d="M142.5,-56.08C142.5,-49.01 142.5,-38.86 142.5,-29.99"/>
<polygon fill="midnightblue" stroke="midnightblue" points="146,-29.75 142.5,-19.75 139,-29.75 146,-29.75"/>
</g>
<!-- Node6&#45;&gt;Node4 -->
<g id="edge6" class="edge">
<title>Node6&#45;&gt;Node4</title>
<path fill="none" stroke="midnightblue" d="M188.42,-112.08C180.33,-104.14 168.3,-92.34 158.59,-82.8"/>
<polygon fill="midnightblue" stroke="midnightblue" points="161,-80.26 151.41,-75.75 156.1,-85.25 161,-80.26"/>
</g>
<!-- Node6&#45;&gt;Node7 -->
<g id="edge7" class="edge">
<title>Node6&#45;&gt;Node7</title>
<path fill="none" stroke="midnightblue" d="M209.23,-112.32C220.34,-104.11 237.24,-91.6 250.48,-81.81"/>
<polygon fill="midnightblue" stroke="midnightblue" points="252.6,-84.59 258.56,-75.83 248.44,-78.97 252.6,-84.59"/>
</g>
<!-- Node9 -->
<g id="node9" class="node">
<title>Node9</title>
<g id="a_node9"><a xlink:href="fitdatamessage__p_8h.html" target="_top" xlink:title=" ">
<polygon fill="none" stroke="black" points="146,-224.5 146,-243.5 259,-243.5 259,-224.5 146,-224.5"/>
<text text-anchor="middle" x="202.5" y="-231.5" font-family="Helvetica,sans-Serif" font-size="10.00">fitdatamessage_p.h</text>
</a>
</g>
</g>
<!-- Node8&#45;&gt;Node9 -->
<g id="edge9" class="edge">
<title>Node8&#45;&gt;Node9</title>
<path fill="none" stroke="midnightblue" d="M212.52,-280.08C210.93,-272.93 208.64,-262.64 206.65,-253.69"/>
<polygon fill="midnightblue" stroke="midnightblue" points="210.03,-252.75 204.44,-243.75 203.2,-254.27 210.03,-252.75"/>
</g>
<!-- Node9&#45;&gt;Node4 -->
<g id="edge10" class="edge">
<title>Node9&#45;&gt;Node4</title>
<path fill="none" stroke="midnightblue" d="M198.69,-224.47C191.07,-207.21 173.63,-166.85 161.5,-132 156.06,-116.39 150.87,-98.31 147.29,-85.19"/>
<polygon fill="midnightblue" stroke="midnightblue" points="150.66,-84.25 144.69,-75.5 143.9,-86.07 150.66,-84.25"/>
</g>
<!-- Node9&#45;&gt;Node6 -->
<g id="edge11" class="edge">
<title>Node9&#45;&gt;Node6</title>
<path fill="none" stroke="midnightblue" d="M202.11,-224.37C201.3,-206.62 199.44,-165.67 198.35,-141.6"/>
<polygon fill="midnightblue" stroke="midnightblue" points="201.84,-141.42 197.89,-131.59 194.85,-141.74 201.84,-141.42"/>
</g>
<!-- Node10 -->
<g id="node10" class="node">
<title>Node10</title>
<g id="a_node10"><a xlink:href="types__p_8h.html" target="_top" xlink:title=" ">
<polygon fill="none" stroke="black" points="219.5,-168.5 219.5,-187.5 283.5,-187.5 283.5,-168.5 219.5,-168.5"/>
<text text-anchor="middle" x="251.5" y="-175.5" font-family="Helvetica,sans-Serif" font-size="10.00">types_p.h</text>
</a>
</g>
</g>
<!-- Node9&#45;&gt;Node10 -->
<g id="edge12" class="edge">
<title>Node9&#45;&gt;Node10</title>
<path fill="none" stroke="midnightblue" d="M210.59,-224.08C217.66,-216.3 228.09,-204.8 236.65,-195.37"/>
<polygon fill="midnightblue" stroke="midnightblue" points="239.43,-197.51 243.56,-187.75 234.25,-192.8 239.43,-197.51"/>
</g>
<!-- Node10&#45;&gt;Node6 -->
<g id="edge13" class="edge">
<title>Node10&#45;&gt;Node6</title>
<path fill="none" stroke="midnightblue" d="M242.58,-168.08C234.72,-160.22 223.07,-148.57 213.58,-139.08"/>
<polygon fill="midnightblue" stroke="midnightblue" points="215.8,-136.35 206.25,-131.75 210.85,-141.3 215.8,-136.35"/>
</g>
<!-- Node11 -->
<g id="node11" class="node">
<title>Node11</title>
<g id="a_node11"><a xlink:title=" ">
<polygon fill="none" stroke="#bfbfbf" points="242,-112.5 242,-131.5 283,-131.5 283,-112.5 242,-112.5"/>
<text text-anchor="middle" x="262.5" y="-119.5" font-family="Helvetica,sans-Serif" font-size="10.00">QList</text>
</a>
</g>
</g>
<!-- Node10&#45;&gt;Node11 -->
<g id="edge14" class="edge">
<title>Node10&#45;&gt;Node11</title>
<path fill="none" stroke="midnightblue" d="M253.32,-168.08C254.77,-160.93 256.87,-150.64 258.69,-141.69"/>
<polygon fill="midnightblue" stroke="midnightblue" points="262.15,-142.25 260.72,-131.75 255.29,-140.85 262.15,-142.25"/>
</g>
</g>
</svg>
