<?xml version="1.0" encoding="UTF-8" standalone="no"?>
<!DOCTYPE svg PUBLIC "-//W3C//DTD SVG 1.1//EN"
 "http://www.w3.org/Graphics/SVG/1.1/DTD/svg11.dtd">
<!-- Generated by graphviz version 2.43.0 (0)
 -->
<!-- Title: coursepointmessage.cpp Pages: 1 -->
<svg width="292pt" height="364pt"
 viewBox="0.00 0.00 291.50 364.00" xmlns="http://www.w3.org/2000/svg" xmlns:xlink="http://www.w3.org/1999/xlink">
<g id="graph0" class="graph" transform="scale(1 1) rotate(0) translate(4 360)">
<title>coursepointmessage.cpp</title>
<!-- Node1 -->
<g id="node1" class="node">
<title>Node1</title>
<g id="a_node1"><a xlink:title=" ">
<polygon fill="#bfbfbf" stroke="black" points="75,-336.5 75,-355.5 213,-355.5 213,-336.5 75,-336.5"/>
<text text-anchor="middle" x="144" y="-343.5" font-family="Helvetica,sans-Serif" font-size="10.00">coursepointmessage.cpp</text>
</a>
</g>
</g>
<!-- Node2 -->
<g id="node2" class="node">
<title>Node2</title>
<g id="a_node2"><a xlink:href="coursepointmessage_8h.html" target="_top" xlink:title=" ">
<polygon fill="none" stroke="black" points="156.5,-280.5 156.5,-299.5 283.5,-299.5 283.5,-280.5 156.5,-280.5"/>
<text text-anchor="middle" x="220" y="-287.5" font-family="Helvetica,sans-Serif" font-size="10.00">coursepointmessage.h</text>
</a>
</g>
</g>
<!-- Node1&#45;&gt;Node2 -->
<g id="edge1" class="edge">
<title>Node1&#45;&gt;Node2</title>
<path fill="none" stroke="midnightblue" d="M156.21,-336.32C167.78,-328.11 185.38,-315.6 199.16,-305.81"/>
<polygon fill="midnightblue" stroke="midnightblue" points="201.44,-308.48 207.57,-299.83 197.39,-302.77 201.44,-308.48"/>
</g>
<!-- Node7 -->
<g id="node7" class="node">
<title>Node7</title>
<g id="a_node7"><a xlink:href="coursepointmessage__p_8h.html" target="_top" xlink:title=" ">
<polygon fill="none" stroke="black" points="0,-280.5 0,-299.5 138,-299.5 138,-280.5 0,-280.5"/>
<text text-anchor="middle" x="69" y="-287.5" font-family="Helvetica,sans-Serif" font-size="10.00">coursepointmessage_p.h</text>
</a>
</g>
</g>
<!-- Node1&#45;&gt;Node7 -->
<g id="edge7" class="edge">
<title>Node1&#45;&gt;Node7</title>
<path fill="none" stroke="midnightblue" d="M131.95,-336.32C120.54,-328.11 103.17,-315.6 89.57,-305.81"/>
<polygon fill="midnightblue" stroke="midnightblue" points="91.43,-302.84 81.27,-299.83 87.34,-308.52 91.43,-302.84"/>
</g>
<!-- Node3 -->
<g id="node3" class="node">
<title>Node3</title>
<g id="a_node3"><a xlink:href="fitdatamessage_8h.html" target="_top" xlink:title=" ">
<polygon fill="none" stroke="black" points="166.5,-168.5 166.5,-187.5 267.5,-187.5 267.5,-168.5 166.5,-168.5"/>
<text text-anchor="middle" x="217" y="-175.5" font-family="Helvetica,sans-Serif" font-size="10.00">fitdatamessage.h</text>
</a>
</g>
</g>
<!-- Node2&#45;&gt;Node3 -->
<g id="edge2" class="edge">
<title>Node2&#45;&gt;Node3</title>
<path fill="none" stroke="midnightblue" d="M219.76,-280.37C219.28,-262.62 218.16,-221.67 217.51,-197.6"/>
<polygon fill="midnightblue" stroke="midnightblue" points="221.01,-197.49 217.23,-187.59 214.01,-197.68 221.01,-197.49"/>
</g>
<!-- Node4 -->
<g id="node4" class="node">
<title>Node4</title>
<g id="a_node4"><a xlink:href="QtFit__global_8h.html" target="_top" xlink:title=" ">
<polygon fill="none" stroke="black" points="98,-56.5 98,-75.5 182,-75.5 182,-56.5 98,-56.5"/>
<text text-anchor="middle" x="140" y="-63.5" font-family="Helvetica,sans-Serif" font-size="10.00">QtFit_global.h</text>
</a>
</g>
</g>
<!-- Node3&#45;&gt;Node4 -->
<g id="edge3" class="edge">
<title>Node3&#45;&gt;Node4</title>
<path fill="none" stroke="midnightblue" d="M211.99,-168.39C204.54,-155.75 189.93,-131.56 176,-112 169.11,-102.32 160.86,-91.94 154.01,-83.59"/>
<polygon fill="midnightblue" stroke="midnightblue" points="156.56,-81.19 147.47,-75.74 151.18,-85.66 156.56,-81.19"/>
</g>
<!-- Node6 -->
<g id="node6" class="node">
<title>Node6</title>
<g id="a_node6"><a xlink:href="types_8h.html" target="_top" xlink:title="Types defined by the ANT+ FIT SDK.">
<polygon fill="none" stroke="black" points="113.5,-112.5 113.5,-131.5 166.5,-131.5 166.5,-112.5 113.5,-112.5"/>
<text text-anchor="middle" x="140" y="-119.5" font-family="Helvetica,sans-Serif" font-size="10.00">types.h</text>
</a>
</g>
</g>
<!-- Node3&#45;&gt;Node6 -->
<g id="edge5" class="edge">
<title>Node3&#45;&gt;Node6</title>
<path fill="none" stroke="midnightblue" d="M204.63,-168.32C192.84,-160.06 174.87,-147.45 160.86,-137.63"/>
<polygon fill="midnightblue" stroke="midnightblue" points="162.54,-134.53 152.34,-131.65 158.52,-140.26 162.54,-134.53"/>
</g>
<!-- Node5 -->
<g id="node5" class="node">
<title>Node5</title>
<g id="a_node5"><a xlink:title=" ">
<polygon fill="none" stroke="#bfbfbf" points="110.5,-0.5 110.5,-19.5 169.5,-19.5 169.5,-0.5 110.5,-0.5"/>
<text text-anchor="middle" x="140" y="-7.5" font-family="Helvetica,sans-Serif" font-size="10.00">QtGlobal</text>
</a>
</g>
</g>
<!-- Node4&#45;&gt;Node5 -->
<g id="edge4" class="edge">
<title>Node4&#45;&gt;Node5</title>
<path fill="none" stroke="midnightblue" d="M140,-56.08C140,-49.01 140,-38.86 140,-29.99"/>
<polygon fill="midnightblue" stroke="midnightblue" points="143.5,-29.75 140,-19.75 136.5,-29.75 143.5,-29.75"/>
</g>
<!-- Node6&#45;&gt;Node4 -->
<g id="edge6" class="edge">
<title>Node6&#45;&gt;Node4</title>
<path fill="none" stroke="midnightblue" d="M140,-112.08C140,-105.01 140,-94.86 140,-85.99"/>
<polygon fill="midnightblue" stroke="midnightblue" points="143.5,-85.75 140,-75.75 136.5,-85.75 143.5,-85.75"/>
</g>
<!-- Node8 -->
<g id="node8" class="node">
<title>Node8</title>
<g id="a_node8"><a xlink:href="fitdatamessage__p_8h.html" target="_top" xlink:title=" ">
<polygon fill="none" stroke="black" points="18.5,-224.5 18.5,-243.5 131.5,-243.5 131.5,-224.5 18.5,-224.5"/>
<text text-anchor="middle" x="75" y="-231.5" font-family="Helvetica,sans-Serif" font-size="10.00">fitdatamessage_p.h</text>
</a>
</g>
</g>
<!-- Node7&#45;&gt;Node8 -->
<g id="edge8" class="edge">
<title>Node7&#45;&gt;Node8</title>
<path fill="none" stroke="midnightblue" d="M69.99,-280.08C70.79,-272.93 71.93,-262.64 72.92,-253.69"/>
<polygon fill="midnightblue" stroke="midnightblue" points="76.4,-254.08 74.03,-243.75 69.44,-253.3 76.4,-254.08"/>
</g>
<!-- Node8&#45;&gt;Node4 -->
<g id="edge9" class="edge">
<title>Node8&#45;&gt;Node4</title>
<path fill="none" stroke="midnightblue" d="M64.29,-224.3C55.06,-216.07 42.41,-202.79 37,-188 30.15,-169.27 37.55,-122.1 45,-112 56.6,-96.26 75.14,-85.81 92.77,-78.98"/>
<polygon fill="midnightblue" stroke="midnightblue" points="94.17,-82.2 102.42,-75.55 91.82,-75.6 94.17,-82.2"/>
</g>
<!-- Node8&#45;&gt;Node6 -->
<g id="edge10" class="edge">
<title>Node8&#45;&gt;Node6</title>
<path fill="none" stroke="midnightblue" d="M85.86,-224.44C95.78,-216.11 110.19,-202.59 119,-188 127.72,-173.57 133.23,-155.11 136.41,-141.56"/>
<polygon fill="midnightblue" stroke="midnightblue" points="139.89,-142.03 138.55,-131.52 133.04,-140.57 139.89,-142.03"/>
</g>
<!-- Node9 -->
<g id="node9" class="node">
<title>Node9</title>
<g id="a_node9"><a xlink:href="types__p_8h.html" target="_top" xlink:title=" ">
<polygon fill="none" stroke="black" points="46,-168.5 46,-187.5 110,-187.5 110,-168.5 46,-168.5"/>
<text text-anchor="middle" x="78" y="-175.5" font-family="Helvetica,sans-Serif" font-size="10.00">types_p.h</text>
</a>
</g>
</g>
<!-- Node8&#45;&gt;Node9 -->
<g id="edge11" class="edge">
<title>Node8&#45;&gt;Node9</title>
<path fill="none" stroke="midnightblue" d="M75.5,-224.08C75.89,-217.01 76.45,-206.86 76.95,-197.99"/>
<polygon fill="midnightblue" stroke="midnightblue" points="80.45,-197.93 77.51,-187.75 73.46,-197.54 80.45,-197.93"/>
</g>
<!-- Node9&#45;&gt;Node6 -->
<g id="edge12" class="edge">
<title>Node9&#45;&gt;Node6</title>
<path fill="none" stroke="midnightblue" d="M87.96,-168.32C97.13,-160.34 110.94,-148.31 122.03,-138.65"/>
<polygon fill="midnightblue" stroke="midnightblue" points="124.62,-141.04 129.86,-131.83 120.02,-135.76 124.62,-141.04"/>
</g>
<!-- Node10 -->
<g id="node10" class="node">
<title>Node10</title>
<g id="a_node10"><a xlink:title=" ">
<polygon fill="none" stroke="#bfbfbf" points="54.5,-112.5 54.5,-131.5 95.5,-131.5 95.5,-112.5 54.5,-112.5"/>
<text text-anchor="middle" x="75" y="-119.5" font-family="Helvetica,sans-Serif" font-size="10.00">QList</text>
</a>
</g>
</g>
<!-- Node9&#45;&gt;Node10 -->
<g id="edge13" class="edge">
<title>Node9&#45;&gt;Node10</title>
<path fill="none" stroke="midnightblue" d="M77.5,-168.08C77.11,-161.01 76.55,-150.86 76.05,-141.99"/>
<polygon fill="midnightblue" stroke="midnightblue" points="79.54,-141.54 75.49,-131.75 72.55,-141.93 79.54,-141.54"/>
</g>
</g>
</svg>
