<?xml version="1.0" encoding="UTF-8" standalone="no"?>
<!DOCTYPE svg PUBLIC "-//W3C//DTD SVG 1.1//EN"
 "http://www.w3.org/Graphics/SVG/1.1/DTD/svg11.dtd">
<!-- Generated by graphviz version 2.43.0 (0)
 -->
<!-- Title: coursepointmessage_p.h Pages: 1 -->
<svg width="172pt" height="308pt"
 viewBox="0.00 0.00 171.50 308.00" xmlns="http://www.w3.org/2000/svg" xmlns:xlink="http://www.w3.org/1999/xlink">
<g id="graph0" class="graph" transform="scale(1 1) rotate(0) translate(4 304)">
<title>coursepointmessage_p.h</title>
<!-- Node1 -->
<g id="node1" class="node">
<title>Node1</title>
<g id="a_node1"><a xlink:title=" ">
<polygon fill="#bfbfbf" stroke="black" points="0,-280.5 0,-299.5 138,-299.5 138,-280.5 0,-280.5"/>
<text text-anchor="middle" x="69" y="-287.5" font-family="Helvetica,sans-Serif" font-size="10.00">coursepointmessage_p.h</text>
</a>
</g>
</g>
<!-- Node2 -->
<g id="node2" class="node">
<title>Node2</title>
<g id="a_node2"><a xlink:href="fitdatamessage__p_8h.html" target="_top" xlink:title=" ">
<polygon fill="none" stroke="black" points="12.5,-224.5 12.5,-243.5 125.5,-243.5 125.5,-224.5 12.5,-224.5"/>
<text text-anchor="middle" x="69" y="-231.5" font-family="Helvetica,sans-Serif" font-size="10.00">fitdatamessage_p.h</text>
</a>
</g>
</g>
<!-- Node1&#45;&gt;Node2 -->
<g id="edge1" class="edge">
<title>Node1&#45;&gt;Node2</title>
<path fill="none" stroke="midnightblue" d="M69,-280.08C69,-273.01 69,-262.86 69,-253.99"/>
<polygon fill="midnightblue" stroke="midnightblue" points="72.5,-253.75 69,-243.75 65.5,-253.75 72.5,-253.75"/>
</g>
<!-- Node3 -->
<g id="node3" class="node">
<title>Node3</title>
<g id="a_node3"><a xlink:href="QtFit__global_8h.html" target="_top" xlink:title=" ">
<polygon fill="none" stroke="black" points="8,-56.5 8,-75.5 92,-75.5 92,-56.5 8,-56.5"/>
<text text-anchor="middle" x="50" y="-63.5" font-family="Helvetica,sans-Serif" font-size="10.00">QtFit_global.h</text>
</a>
</g>
</g>
<!-- Node2&#45;&gt;Node3 -->
<g id="edge2" class="edge">
<title>Node2&#45;&gt;Node3</title>
<path fill="none" stroke="midnightblue" d="M65.15,-224.32C56.82,-204.61 38.22,-154.88 42,-112 42.78,-103.2 44.39,-93.54 45.97,-85.43"/>
<polygon fill="midnightblue" stroke="midnightblue" points="49.41,-86.07 48.01,-75.57 42.56,-84.65 49.41,-86.07"/>
</g>
<!-- Node5 -->
<g id="node5" class="node">
<title>Node5</title>
<g id="a_node5"><a xlink:href="types_8h.html" target="_top" xlink:title="Types defined by the ANT+ FIT SDK.">
<polygon fill="none" stroke="black" points="51.5,-112.5 51.5,-131.5 104.5,-131.5 104.5,-112.5 51.5,-112.5"/>
<text text-anchor="middle" x="78" y="-119.5" font-family="Helvetica,sans-Serif" font-size="10.00">types.h</text>
</a>
</g>
</g>
<!-- Node2&#45;&gt;Node5 -->
<g id="edge4" class="edge">
<title>Node2&#45;&gt;Node5</title>
<path fill="none" stroke="midnightblue" d="M69.71,-224.37C71.16,-206.62 74.51,-165.67 76.48,-141.6"/>
<polygon fill="midnightblue" stroke="midnightblue" points="79.97,-141.84 77.3,-131.59 72.99,-141.27 79.97,-141.84"/>
</g>
<!-- Node6 -->
<g id="node6" class="node">
<title>Node6</title>
<g id="a_node6"><a xlink:href="types__p_8h.html" target="_top" xlink:title=" ">
<polygon fill="none" stroke="black" points="97,-168.5 97,-187.5 161,-187.5 161,-168.5 97,-168.5"/>
<text text-anchor="middle" x="129" y="-175.5" font-family="Helvetica,sans-Serif" font-size="10.00">types_p.h</text>
</a>
</g>
</g>
<!-- Node2&#45;&gt;Node6 -->
<g id="edge6" class="edge">
<title>Node2&#45;&gt;Node6</title>
<path fill="none" stroke="midnightblue" d="M78.64,-224.32C87.51,-216.34 100.87,-204.31 111.61,-194.65"/>
<polygon fill="midnightblue" stroke="midnightblue" points="114.09,-197.13 119.18,-187.83 109.41,-191.92 114.09,-197.13"/>
</g>
<!-- Node4 -->
<g id="node4" class="node">
<title>Node4</title>
<g id="a_node4"><a xlink:title=" ">
<polygon fill="none" stroke="#bfbfbf" points="20.5,-0.5 20.5,-19.5 79.5,-19.5 79.5,-0.5 20.5,-0.5"/>
<text text-anchor="middle" x="50" y="-7.5" font-family="Helvetica,sans-Serif" font-size="10.00">QtGlobal</text>
</a>
</g>
</g>
<!-- Node3&#45;&gt;Node4 -->
<g id="edge3" class="edge">
<title>Node3&#45;&gt;Node4</title>
<path fill="none" stroke="midnightblue" d="M50,-56.08C50,-49.01 50,-38.86 50,-29.99"/>
<polygon fill="midnightblue" stroke="midnightblue" points="53.5,-29.75 50,-19.75 46.5,-29.75 53.5,-29.75"/>
</g>
<!-- Node5&#45;&gt;Node3 -->
<g id="edge5" class="edge">
<title>Node5&#45;&gt;Node3</title>
<path fill="none" stroke="midnightblue" d="M73.38,-112.08C69.54,-104.69 63.98,-93.95 59.24,-84.81"/>
<polygon fill="midnightblue" stroke="midnightblue" points="62.25,-83.02 54.54,-75.75 56.03,-86.24 62.25,-83.02"/>
</g>
<!-- Node6&#45;&gt;Node5 -->
<g id="edge7" class="edge">
<title>Node6&#45;&gt;Node5</title>
<path fill="none" stroke="midnightblue" d="M120.58,-168.08C113.15,-160.22 102.15,-148.57 93.19,-139.08"/>
<polygon fill="midnightblue" stroke="midnightblue" points="95.68,-136.62 86.26,-131.75 90.59,-141.42 95.68,-136.62"/>
</g>
<!-- Node7 -->
<g id="node7" class="node">
<title>Node7</title>
<g id="a_node7"><a xlink:title=" ">
<polygon fill="none" stroke="#bfbfbf" points="122.5,-112.5 122.5,-131.5 163.5,-131.5 163.5,-112.5 122.5,-112.5"/>
<text text-anchor="middle" x="143" y="-119.5" font-family="Helvetica,sans-Serif" font-size="10.00">QList</text>
</a>
</g>
</g>
<!-- Node6&#45;&gt;Node7 -->
<g id="edge8" class="edge">
<title>Node6&#45;&gt;Node7</title>
<path fill="none" stroke="midnightblue" d="M131.31,-168.08C133.17,-160.93 135.84,-150.64 138.15,-141.69"/>
<polygon fill="midnightblue" stroke="midnightblue" points="141.61,-142.31 140.73,-131.75 134.83,-140.55 141.61,-142.31"/>
</g>
</g>
</svg>
