<?xml version="1.0" encoding="UTF-8" standalone="no"?>
<!DOCTYPE svg PUBLIC "-//W3C//DTD SVG 1.1//EN"
 "http://www.w3.org/Graphics/SVG/1.1/DTD/svg11.dtd">
<!-- Generated by graphviz version 2.43.0 (0)
 -->
<!-- Title: developerdataidmessage.cpp Pages: 1 -->
<svg width="454pt" height="364pt"
 viewBox="0.00 0.00 454.00 364.00" xmlns="http://www.w3.org/2000/svg" xmlns:xlink="http://www.w3.org/1999/xlink">
<g id="graph0" class="graph" transform="scale(1 1) rotate(0) translate(4 360)">
<title>developerdataidmessage.cpp</title>
<!-- Node1 -->
<g id="node1" class="node">
<title>Node1</title>
<g id="a_node1"><a xlink:title=" ">
<polygon fill="#bfbfbf" stroke="black" points="221,-336.5 221,-355.5 382,-355.5 382,-336.5 221,-336.5"/>
<text text-anchor="middle" x="301.5" y="-343.5" font-family="Helvetica,sans-Serif" font-size="10.00">developerdataidmessage.cpp</text>
</a>
</g>
</g>
<!-- Node2 -->
<g id="node2" class="node">
<title>Node2</title>
<g id="a_node2"><a xlink:href="developerdataidmessage_8h.html" target="_top" xlink:title=" ">
<polygon fill="none" stroke="black" points="0,-280.5 0,-299.5 149,-299.5 149,-280.5 0,-280.5"/>
<text text-anchor="middle" x="74.5" y="-287.5" font-family="Helvetica,sans-Serif" font-size="10.00">developerdataidmessage.h</text>
</a>
</g>
</g>
<!-- Node1&#45;&gt;Node2 -->
<g id="edge1" class="edge">
<title>Node1&#45;&gt;Node2</title>
<path fill="none" stroke="midnightblue" d="M265.53,-336.44C226.18,-327.08 163.01,-312.06 120.19,-301.87"/>
<polygon fill="midnightblue" stroke="midnightblue" points="120.84,-298.43 110.3,-299.52 119.22,-305.24 120.84,-298.43"/>
</g>
<!-- Node7 -->
<g id="node7" class="node">
<title>Node7</title>
<g id="a_node7"><a xlink:title=" ">
<polygon fill="none" stroke="#bfbfbf" points="287.5,-56.5 287.5,-75.5 343.5,-75.5 343.5,-56.5 287.5,-56.5"/>
<text text-anchor="middle" x="315.5" y="-63.5" font-family="Helvetica,sans-Serif" font-size="10.00">QDebug</text>
</a>
</g>
</g>
<!-- Node1&#45;&gt;Node7 -->
<g id="edge15" class="edge">
<title>Node1&#45;&gt;Node7</title>
<path fill="none" stroke="midnightblue" d="M310.08,-336.43C318.2,-327.88 330.21,-314.02 337.5,-300 351.39,-273.3 356.5,-265.1 356.5,-235 356.5,-235 356.5,-235 356.5,-177 356.5,-142.52 338.59,-105.56 326.44,-84.47"/>
<polygon fill="midnightblue" stroke="midnightblue" points="329.34,-82.49 321.2,-75.71 323.34,-86.09 329.34,-82.49"/>
</g>
<!-- Node8 -->
<g id="node8" class="node">
<title>Node8</title>
<g id="a_node8"><a xlink:href="developerdataidmessage__p_8h.html" target="_top" xlink:title=" ">
<polygon fill="none" stroke="black" points="167,-280.5 167,-299.5 328,-299.5 328,-280.5 167,-280.5"/>
<text text-anchor="middle" x="247.5" y="-287.5" font-family="Helvetica,sans-Serif" font-size="10.00">developerdataidmessage_p.h</text>
</a>
</g>
</g>
<!-- Node1&#45;&gt;Node8 -->
<g id="edge8" class="edge">
<title>Node1&#45;&gt;Node8</title>
<path fill="none" stroke="midnightblue" d="M292.58,-336.08C284.72,-328.22 273.07,-316.57 263.58,-307.08"/>
<polygon fill="midnightblue" stroke="midnightblue" points="265.8,-304.35 256.25,-299.75 260.85,-309.3 265.8,-304.35"/>
</g>
<!-- Node12 -->
<g id="node12" class="node">
<title>Node12</title>
<g id="a_node12"><a xlink:title=" ">
<polygon fill="none" stroke="#bfbfbf" points="385,-280.5 385,-299.5 446,-299.5 446,-280.5 385,-280.5"/>
<text text-anchor="middle" x="415.5" y="-287.5" font-family="Helvetica,sans-Serif" font-size="10.00">QtEndian</text>
</a>
</g>
</g>
<!-- Node1&#45;&gt;Node12 -->
<g id="edge16" class="edge">
<title>Node1&#45;&gt;Node12</title>
<path fill="none" stroke="midnightblue" d="M319.56,-336.44C338.07,-327.68 367.08,-313.94 388.36,-303.86"/>
<polygon fill="midnightblue" stroke="midnightblue" points="389.98,-306.96 397.52,-299.52 386.99,-300.63 389.98,-306.96"/>
</g>
<!-- Node3 -->
<g id="node3" class="node">
<title>Node3</title>
<g id="a_node3"><a xlink:href="abstractdatamessage_8h_source.html" target="_top" xlink:title=" ">
<polygon fill="none" stroke="black" points="25,-168.5 25,-187.5 156,-187.5 156,-168.5 25,-168.5"/>
<text text-anchor="middle" x="90.5" y="-175.5" font-family="Helvetica,sans-Serif" font-size="10.00">abstractdatamessage.h</text>
</a>
</g>
</g>
<!-- Node2&#45;&gt;Node3 -->
<g id="edge2" class="edge">
<title>Node2&#45;&gt;Node3</title>
<path fill="none" stroke="midnightblue" d="M75.76,-280.37C78.34,-262.62 84.29,-221.67 87.79,-197.6"/>
<polygon fill="midnightblue" stroke="midnightblue" points="91.27,-197.99 89.25,-187.59 84.35,-196.98 91.27,-197.99"/>
</g>
<!-- Node4 -->
<g id="node4" class="node">
<title>Node4</title>
<g id="a_node4"><a xlink:href="QtFit__global_8h_source.html" target="_top" xlink:title=" ">
<polygon fill="none" stroke="black" points="142.5,-56.5 142.5,-75.5 226.5,-75.5 226.5,-56.5 142.5,-56.5"/>
<text text-anchor="middle" x="184.5" y="-63.5" font-family="Helvetica,sans-Serif" font-size="10.00">QtFit_global.h</text>
</a>
</g>
</g>
<!-- Node3&#45;&gt;Node4 -->
<g id="edge3" class="edge">
<title>Node3&#45;&gt;Node4</title>
<path fill="none" stroke="midnightblue" d="M97.88,-168.37C113.53,-150.05 150.28,-107.05 170.52,-83.36"/>
<polygon fill="midnightblue" stroke="midnightblue" points="173.32,-85.47 177.16,-75.59 168,-80.92 173.32,-85.47"/>
</g>
<!-- Node6 -->
<g id="node6" class="node">
<title>Node6</title>
<g id="a_node6"><a xlink:href="types_8h.html" target="_top" xlink:title="Types defined by the ANT+ FIT SDK.">
<polygon fill="none" stroke="black" points="213,-112.5 213,-131.5 266,-131.5 266,-112.5 213,-112.5"/>
<text text-anchor="middle" x="239.5" y="-119.5" font-family="Helvetica,sans-Serif" font-size="10.00">types.h</text>
</a>
</g>
</g>
<!-- Node3&#45;&gt;Node6 -->
<g id="edge5" class="edge">
<title>Node3&#45;&gt;Node6</title>
<path fill="none" stroke="midnightblue" d="M114.11,-168.44C138.96,-159.44 178.27,-145.19 206.25,-135.05"/>
<polygon fill="midnightblue" stroke="midnightblue" points="207.79,-138.21 216,-131.52 205.41,-131.63 207.79,-138.21"/>
</g>
<!-- Node5 -->
<g id="node5" class="node">
<title>Node5</title>
<g id="a_node5"><a xlink:title=" ">
<polygon fill="none" stroke="#bfbfbf" points="155,-0.5 155,-19.5 214,-19.5 214,-0.5 155,-0.5"/>
<text text-anchor="middle" x="184.5" y="-7.5" font-family="Helvetica,sans-Serif" font-size="10.00">QtGlobal</text>
</a>
</g>
</g>
<!-- Node4&#45;&gt;Node5 -->
<g id="edge4" class="edge">
<title>Node4&#45;&gt;Node5</title>
<path fill="none" stroke="midnightblue" d="M184.5,-56.08C184.5,-49.01 184.5,-38.86 184.5,-29.99"/>
<polygon fill="midnightblue" stroke="midnightblue" points="188,-29.75 184.5,-19.75 181,-29.75 188,-29.75"/>
</g>
<!-- Node6&#45;&gt;Node4 -->
<g id="edge6" class="edge">
<title>Node6&#45;&gt;Node4</title>
<path fill="none" stroke="midnightblue" d="M230.42,-112.08C222.33,-104.14 210.3,-92.34 200.59,-82.8"/>
<polygon fill="midnightblue" stroke="midnightblue" points="203,-80.26 193.41,-75.75 198.1,-85.25 203,-80.26"/>
</g>
<!-- Node6&#45;&gt;Node7 -->
<g id="edge7" class="edge">
<title>Node6&#45;&gt;Node7</title>
<path fill="none" stroke="midnightblue" d="M251.71,-112.32C263.28,-104.11 280.88,-91.6 294.66,-81.81"/>
<polygon fill="midnightblue" stroke="midnightblue" points="296.94,-84.48 303.07,-75.83 292.89,-78.77 296.94,-84.48"/>
</g>
<!-- Node9 -->
<g id="node9" class="node">
<title>Node9</title>
<g id="a_node9"><a xlink:href="abstractdatamessage__p_8h_source.html" target="_top" xlink:title=" ">
<polygon fill="none" stroke="black" points="170,-224.5 170,-243.5 313,-243.5 313,-224.5 170,-224.5"/>
<text text-anchor="middle" x="241.5" y="-231.5" font-family="Helvetica,sans-Serif" font-size="10.00">abstractdatamessage_p.h</text>
</a>
</g>
</g>
<!-- Node8&#45;&gt;Node9 -->
<g id="edge9" class="edge">
<title>Node8&#45;&gt;Node9</title>
<path fill="none" stroke="midnightblue" d="M246.51,-280.08C245.71,-272.93 244.57,-262.64 243.58,-253.69"/>
<polygon fill="midnightblue" stroke="midnightblue" points="247.06,-253.3 242.47,-243.75 240.1,-254.08 247.06,-253.3"/>
</g>
<!-- Node9&#45;&gt;Node4 -->
<g id="edge10" class="edge">
<title>Node9&#45;&gt;Node4</title>
<path fill="none" stroke="midnightblue" d="M238.03,-224.43C231.06,-207.12 215.07,-166.65 203.5,-132 198.32,-116.49 193.16,-98.65 189.53,-85.59"/>
<polygon fill="midnightblue" stroke="midnightblue" points="192.89,-84.61 186.87,-75.9 186.14,-86.47 192.89,-84.61"/>
</g>
<!-- Node9&#45;&gt;Node6 -->
<g id="edge11" class="edge">
<title>Node9&#45;&gt;Node6</title>
<path fill="none" stroke="midnightblue" d="M241.34,-224.37C241.02,-206.62 240.28,-165.67 239.84,-141.6"/>
<polygon fill="midnightblue" stroke="midnightblue" points="243.34,-141.53 239.66,-131.59 236.34,-141.65 243.34,-141.53"/>
</g>
<!-- Node10 -->
<g id="node10" class="node">
<title>Node10</title>
<g id="a_node10"><a xlink:href="types__p_8h_source.html" target="_top" xlink:title=" ">
<polygon fill="none" stroke="black" points="264.5,-168.5 264.5,-187.5 328.5,-187.5 328.5,-168.5 264.5,-168.5"/>
<text text-anchor="middle" x="296.5" y="-175.5" font-family="Helvetica,sans-Serif" font-size="10.00">types_p.h</text>
</a>
</g>
</g>
<!-- Node9&#45;&gt;Node10 -->
<g id="edge12" class="edge">
<title>Node9&#45;&gt;Node10</title>
<path fill="none" stroke="midnightblue" d="M250.58,-224.08C258.67,-216.14 270.7,-204.34 280.41,-194.8"/>
<polygon fill="midnightblue" stroke="midnightblue" points="282.9,-197.25 287.59,-187.75 278,-192.26 282.9,-197.25"/>
</g>
<!-- Node10&#45;&gt;Node6 -->
<g id="edge13" class="edge">
<title>Node10&#45;&gt;Node6</title>
<path fill="none" stroke="midnightblue" d="M287.34,-168.32C279,-160.42 266.47,-148.55 256.32,-138.94"/>
<polygon fill="midnightblue" stroke="midnightblue" points="258.49,-136.17 248.82,-131.83 253.68,-141.25 258.49,-136.17"/>
</g>
<!-- Node11 -->
<g id="node11" class="node">
<title>Node11</title>
<g id="a_node11"><a xlink:title=" ">
<polygon fill="none" stroke="#bfbfbf" points="284,-112.5 284,-131.5 325,-131.5 325,-112.5 284,-112.5"/>
<text text-anchor="middle" x="304.5" y="-119.5" font-family="Helvetica,sans-Serif" font-size="10.00">QList</text>
</a>
</g>
</g>
<!-- Node10&#45;&gt;Node11 -->
<g id="edge14" class="edge">
<title>Node10&#45;&gt;Node11</title>
<path fill="none" stroke="midnightblue" d="M297.82,-168.08C298.88,-160.93 300.41,-150.64 301.73,-141.69"/>
<polygon fill="midnightblue" stroke="midnightblue" points="305.2,-142.16 303.2,-131.75 298.28,-141.13 305.2,-142.16"/>
</g>
</g>
</svg>
