<?xml version="1.0" encoding="UTF-8" standalone="no"?>
<!DOCTYPE svg PUBLIC "-//W3C//DTD SVG 1.1//EN"
 "http://www.w3.org/Graphics/SVG/1.1/DTD/svg11.dtd">
<!-- Generated by graphviz version 2.43.0 (0)
 -->
<!-- Title: developerdataidmessage.cpp Pages: 1 -->
<svg width="336pt" height="364pt"
 viewBox="0.00 0.00 336.00 364.00" xmlns="http://www.w3.org/2000/svg" xmlns:xlink="http://www.w3.org/1999/xlink">
<g id="graph0" class="graph" transform="scale(1 1) rotate(0) translate(4 360)">
<title>developerdataidmessage.cpp</title>
<!-- Node1 -->
<g id="node1" class="node">
<title>Node1</title>
<g id="a_node1"><a xlink:title=" ">
<polygon fill="#bfbfbf" stroke="black" points="86,-336.5 86,-355.5 247,-355.5 247,-336.5 86,-336.5"/>
<text text-anchor="middle" x="166.5" y="-343.5" font-family="Helvetica,sans-Serif" font-size="10.00">developerdataidmessage.cpp</text>
</a>
</g>
</g>
<!-- Node2 -->
<g id="node2" class="node">
<title>Node2</title>
<g id="a_node2"><a xlink:href="developerdataidmessage_8h.html" target="_top" xlink:title=" ">
<polygon fill="none" stroke="black" points="179,-280.5 179,-299.5 328,-299.5 328,-280.5 179,-280.5"/>
<text text-anchor="middle" x="253.5" y="-287.5" font-family="Helvetica,sans-Serif" font-size="10.00">developerdataidmessage.h</text>
</a>
</g>
</g>
<!-- Node1&#45;&gt;Node2 -->
<g id="edge1" class="edge">
<title>Node1&#45;&gt;Node2</title>
<path fill="none" stroke="midnightblue" d="M180.48,-336.32C194.05,-327.9 214.88,-314.97 230.82,-305.07"/>
<polygon fill="midnightblue" stroke="midnightblue" points="232.91,-307.9 239.56,-299.65 229.21,-301.95 232.91,-307.9"/>
</g>
<!-- Node7 -->
<g id="node7" class="node">
<title>Node7</title>
<g id="a_node7"><a xlink:href="developerdataidmessage__p_8h.html" target="_top" xlink:title=" ">
<polygon fill="none" stroke="black" points="0,-280.5 0,-299.5 161,-299.5 161,-280.5 0,-280.5"/>
<text text-anchor="middle" x="80.5" y="-287.5" font-family="Helvetica,sans-Serif" font-size="10.00">developerdataidmessage_p.h</text>
</a>
</g>
</g>
<!-- Node1&#45;&gt;Node7 -->
<g id="edge7" class="edge">
<title>Node1&#45;&gt;Node7</title>
<path fill="none" stroke="midnightblue" d="M152.68,-336.32C139.27,-327.9 118.68,-314.97 102.91,-305.07"/>
<polygon fill="midnightblue" stroke="midnightblue" points="104.61,-302.01 94.28,-299.65 100.89,-307.94 104.61,-302.01"/>
</g>
<!-- Node3 -->
<g id="node3" class="node">
<title>Node3</title>
<g id="a_node3"><a xlink:href="fitdatamessage_8h.html" target="_top" xlink:title=" ">
<polygon fill="none" stroke="black" points="194,-168.5 194,-187.5 295,-187.5 295,-168.5 194,-168.5"/>
<text text-anchor="middle" x="244.5" y="-175.5" font-family="Helvetica,sans-Serif" font-size="10.00">fitdatamessage.h</text>
</a>
</g>
</g>
<!-- Node2&#45;&gt;Node3 -->
<g id="edge2" class="edge">
<title>Node2&#45;&gt;Node3</title>
<path fill="none" stroke="midnightblue" d="M252.79,-280.37C251.34,-262.62 247.99,-221.67 246.02,-197.6"/>
<polygon fill="midnightblue" stroke="midnightblue" points="249.51,-197.27 245.2,-187.59 242.53,-197.84 249.51,-197.27"/>
</g>
<!-- Node4 -->
<g id="node4" class="node">
<title>Node4</title>
<g id="a_node4"><a xlink:href="QtFit__global_8h.html" target="_top" xlink:title=" ">
<polygon fill="none" stroke="black" points="125.5,-56.5 125.5,-75.5 209.5,-75.5 209.5,-56.5 125.5,-56.5"/>
<text text-anchor="middle" x="167.5" y="-63.5" font-family="Helvetica,sans-Serif" font-size="10.00">QtFit_global.h</text>
</a>
</g>
</g>
<!-- Node3&#45;&gt;Node4 -->
<g id="edge3" class="edge">
<title>Node3&#45;&gt;Node4</title>
<path fill="none" stroke="midnightblue" d="M239.49,-168.39C232.04,-155.75 217.43,-131.56 203.5,-112 196.61,-102.32 188.36,-91.94 181.51,-83.59"/>
<polygon fill="midnightblue" stroke="midnightblue" points="184.06,-81.19 174.97,-75.74 178.68,-85.66 184.06,-81.19"/>
</g>
<!-- Node6 -->
<g id="node6" class="node">
<title>Node6</title>
<g id="a_node6"><a xlink:href="types_8h.html" target="_top" xlink:title="Types defined by the ANT+ FIT SDK.">
<polygon fill="none" stroke="black" points="141,-112.5 141,-131.5 194,-131.5 194,-112.5 141,-112.5"/>
<text text-anchor="middle" x="167.5" y="-119.5" font-family="Helvetica,sans-Serif" font-size="10.00">types.h</text>
</a>
</g>
</g>
<!-- Node3&#45;&gt;Node6 -->
<g id="edge5" class="edge">
<title>Node3&#45;&gt;Node6</title>
<path fill="none" stroke="midnightblue" d="M232.13,-168.32C220.34,-160.06 202.37,-147.45 188.36,-137.63"/>
<polygon fill="midnightblue" stroke="midnightblue" points="190.04,-134.53 179.84,-131.65 186.02,-140.26 190.04,-134.53"/>
</g>
<!-- Node5 -->
<g id="node5" class="node">
<title>Node5</title>
<g id="a_node5"><a xlink:title=" ">
<polygon fill="none" stroke="#bfbfbf" points="138,-0.5 138,-19.5 197,-19.5 197,-0.5 138,-0.5"/>
<text text-anchor="middle" x="167.5" y="-7.5" font-family="Helvetica,sans-Serif" font-size="10.00">QtGlobal</text>
</a>
</g>
</g>
<!-- Node4&#45;&gt;Node5 -->
<g id="edge4" class="edge">
<title>Node4&#45;&gt;Node5</title>
<path fill="none" stroke="midnightblue" d="M167.5,-56.08C167.5,-49.01 167.5,-38.86 167.5,-29.99"/>
<polygon fill="midnightblue" stroke="midnightblue" points="171,-29.75 167.5,-19.75 164,-29.75 171,-29.75"/>
</g>
<!-- Node6&#45;&gt;Node4 -->
<g id="edge6" class="edge">
<title>Node6&#45;&gt;Node4</title>
<path fill="none" stroke="midnightblue" d="M167.5,-112.08C167.5,-105.01 167.5,-94.86 167.5,-85.99"/>
<polygon fill="midnightblue" stroke="midnightblue" points="171,-85.75 167.5,-75.75 164,-85.75 171,-85.75"/>
</g>
<!-- Node8 -->
<g id="node8" class="node">
<title>Node8</title>
<g id="a_node8"><a xlink:href="fitdatamessage__p_8h.html" target="_top" xlink:title=" ">
<polygon fill="none" stroke="black" points="41,-224.5 41,-243.5 154,-243.5 154,-224.5 41,-224.5"/>
<text text-anchor="middle" x="97.5" y="-231.5" font-family="Helvetica,sans-Serif" font-size="10.00">fitdatamessage_p.h</text>
</a>
</g>
</g>
<!-- Node7&#45;&gt;Node8 -->
<g id="edge8" class="edge">
<title>Node7&#45;&gt;Node8</title>
<path fill="none" stroke="midnightblue" d="M83.31,-280.08C85.58,-272.85 88.87,-262.41 91.71,-253.4"/>
<polygon fill="midnightblue" stroke="midnightblue" points="95.08,-254.34 94.75,-243.75 88.4,-252.24 95.08,-254.34"/>
</g>
<!-- Node8&#45;&gt;Node4 -->
<g id="edge9" class="edge">
<title>Node8&#45;&gt;Node4</title>
<path fill="none" stroke="midnightblue" d="M88.48,-224.34C80.43,-215.93 69.2,-202.36 64.5,-188 58.15,-168.6 66.46,-120.2 72.5,-112 84.1,-96.26 102.64,-85.81 120.27,-78.98"/>
<polygon fill="midnightblue" stroke="midnightblue" points="121.67,-82.2 129.92,-75.55 119.32,-75.6 121.67,-82.2"/>
</g>
<!-- Node8&#45;&gt;Node6 -->
<g id="edge10" class="edge">
<title>Node8&#45;&gt;Node6</title>
<path fill="none" stroke="midnightblue" d="M110.06,-224.39C121.12,-216.22 136.9,-202.97 146.5,-188 155.6,-173.81 161.07,-155.33 164.14,-141.7"/>
<polygon fill="midnightblue" stroke="midnightblue" points="167.63,-142.09 166.17,-131.6 160.77,-140.71 167.63,-142.09"/>
</g>
<!-- Node9 -->
<g id="node9" class="node">
<title>Node9</title>
<g id="a_node9"><a xlink:href="types__p_8h.html" target="_top" xlink:title=" ">
<polygon fill="none" stroke="black" points="73.5,-168.5 73.5,-187.5 137.5,-187.5 137.5,-168.5 73.5,-168.5"/>
<text text-anchor="middle" x="105.5" y="-175.5" font-family="Helvetica,sans-Serif" font-size="10.00">types_p.h</text>
</a>
</g>
</g>
<!-- Node8&#45;&gt;Node9 -->
<g id="edge11" class="edge">
<title>Node8&#45;&gt;Node9</title>
<path fill="none" stroke="midnightblue" d="M98.82,-224.08C99.88,-216.93 101.41,-206.64 102.73,-197.69"/>
<polygon fill="midnightblue" stroke="midnightblue" points="106.2,-198.16 104.2,-187.75 99.28,-197.13 106.2,-198.16"/>
</g>
<!-- Node9&#45;&gt;Node6 -->
<g id="edge12" class="edge">
<title>Node9&#45;&gt;Node6</title>
<path fill="none" stroke="midnightblue" d="M115.46,-168.32C124.63,-160.34 138.44,-148.31 149.53,-138.65"/>
<polygon fill="midnightblue" stroke="midnightblue" points="152.12,-141.04 157.36,-131.83 147.52,-135.76 152.12,-141.04"/>
</g>
<!-- Node10 -->
<g id="node10" class="node">
<title>Node10</title>
<g id="a_node10"><a xlink:title=" ">
<polygon fill="none" stroke="#bfbfbf" points="82,-112.5 82,-131.5 123,-131.5 123,-112.5 82,-112.5"/>
<text text-anchor="middle" x="102.5" y="-119.5" font-family="Helvetica,sans-Serif" font-size="10.00">QList</text>
</a>
</g>
</g>
<!-- Node9&#45;&gt;Node10 -->
<g id="edge13" class="edge">
<title>Node9&#45;&gt;Node10</title>
<path fill="none" stroke="midnightblue" d="M105,-168.08C104.61,-161.01 104.05,-150.86 103.55,-141.99"/>
<polygon fill="midnightblue" stroke="midnightblue" points="107.04,-141.54 102.99,-131.75 100.05,-141.93 107.04,-141.54"/>
</g>
</g>
</svg>
