<?xml version="1.0" encoding="UTF-8" standalone="no"?>
<!DOCTYPE svg PUBLIC "-//W3C//DTD SVG 1.1//EN"
 "http://www.w3.org/Graphics/SVG/1.1/DTD/svg11.dtd">
<!-- Generated by graphviz version 2.43.0 (0)
 -->
<!-- Title: developerdataidmessage.cpp Pages: 1 -->
<svg width="371pt" height="364pt"
 viewBox="0.00 0.00 371.00 364.00" xmlns="http://www.w3.org/2000/svg" xmlns:xlink="http://www.w3.org/1999/xlink">
<g id="graph0" class="graph" transform="scale(1 1) rotate(0) translate(4 360)">
<title>developerdataidmessage.cpp</title>
<!-- Node1 -->
<g id="node1" class="node">
<title>Node1</title>
<g id="a_node1"><a xlink:title=" ">
<polygon fill="#bfbfbf" stroke="black" points="147,-336.5 147,-355.5 308,-355.5 308,-336.5 147,-336.5"/>
<text text-anchor="middle" x="227.5" y="-343.5" font-family="Helvetica,sans-Serif" font-size="10.00">developerdataidmessage.cpp</text>
</a>
</g>
</g>
<!-- Node2 -->
<g id="node2" class="node">
<title>Node2</title>
<g id="a_node2"><a xlink:href="developerdataidmessage_8h.html" target="_top" xlink:title=" ">
<polygon fill="none" stroke="black" points="135,-224.5 135,-243.5 284,-243.5 284,-224.5 135,-224.5"/>
<text text-anchor="middle" x="209.5" y="-231.5" font-family="Helvetica,sans-Serif" font-size="10.00">developerdataidmessage.h</text>
</a>
</g>
</g>
<!-- Node1&#45;&gt;Node2 -->
<g id="edge1" class="edge">
<title>Node1&#45;&gt;Node2</title>
<path fill="none" stroke="midnightblue" d="M225.62,-336.4C223.68,-327.37 220.65,-312.73 218.5,-300 215.89,-284.54 213.48,-266.91 211.82,-253.91"/>
<polygon fill="midnightblue" stroke="midnightblue" points="215.27,-253.34 210.56,-243.86 208.33,-254.21 215.27,-253.34"/>
</g>
<!-- Node7 -->
<g id="node7" class="node">
<title>Node7</title>
<g id="a_node7"><a xlink:href="developerdataidmessage__p_8h.html" target="_top" xlink:title=" ">
<polygon fill="none" stroke="black" points="0,-280.5 0,-299.5 161,-299.5 161,-280.5 0,-280.5"/>
<text text-anchor="middle" x="80.5" y="-287.5" font-family="Helvetica,sans-Serif" font-size="10.00">developerdataidmessage_p.h</text>
</a>
</g>
</g>
<!-- Node1&#45;&gt;Node7 -->
<g id="edge7" class="edge">
<title>Node1&#45;&gt;Node7</title>
<path fill="none" stroke="midnightblue" d="M204.21,-336.44C179.69,-327.44 140.9,-313.19 113.3,-303.05"/>
<polygon fill="midnightblue" stroke="midnightblue" points="114.28,-299.68 103.68,-299.52 111.86,-306.25 114.28,-299.68"/>
</g>
<!-- Node11 -->
<g id="node11" class="node">
<title>Node11</title>
<g id="a_node11"><a xlink:title=" ">
<polygon fill="none" stroke="#bfbfbf" points="227.5,-280.5 227.5,-299.5 283.5,-299.5 283.5,-280.5 227.5,-280.5"/>
<text text-anchor="middle" x="255.5" y="-287.5" font-family="Helvetica,sans-Serif" font-size="10.00">QDebug</text>
</a>
</g>
</g>
<!-- Node1&#45;&gt;Node11 -->
<g id="edge14" class="edge">
<title>Node1&#45;&gt;Node11</title>
<path fill="none" stroke="midnightblue" d="M232.12,-336.08C235.96,-328.69 241.52,-317.95 246.26,-308.81"/>
<polygon fill="midnightblue" stroke="midnightblue" points="249.47,-310.24 250.96,-299.75 243.25,-307.02 249.47,-310.24"/>
</g>
<!-- Node12 -->
<g id="node12" class="node">
<title>Node12</title>
<g id="a_node12"><a xlink:title=" ">
<polygon fill="none" stroke="#bfbfbf" points="302,-280.5 302,-299.5 363,-299.5 363,-280.5 302,-280.5"/>
<text text-anchor="middle" x="332.5" y="-287.5" font-family="Helvetica,sans-Serif" font-size="10.00">QtEndian</text>
</a>
</g>
</g>
<!-- Node1&#45;&gt;Node12 -->
<g id="edge15" class="edge">
<title>Node1&#45;&gt;Node12</title>
<path fill="none" stroke="midnightblue" d="M244.37,-336.32C261.21,-327.66 287.31,-314.24 306.74,-304.25"/>
<polygon fill="midnightblue" stroke="midnightblue" points="308.38,-307.34 315.67,-299.65 305.18,-301.12 308.38,-307.34"/>
</g>
<!-- Node3 -->
<g id="node3" class="node">
<title>Node3</title>
<g id="a_node3"><a xlink:href="fitdatamessage_8h.html" target="_top" xlink:title=" ">
<polygon fill="none" stroke="black" points="154,-168.5 154,-187.5 255,-187.5 255,-168.5 154,-168.5"/>
<text text-anchor="middle" x="204.5" y="-175.5" font-family="Helvetica,sans-Serif" font-size="10.00">fitdatamessage.h</text>
</a>
</g>
</g>
<!-- Node2&#45;&gt;Node3 -->
<g id="edge2" class="edge">
<title>Node2&#45;&gt;Node3</title>
<path fill="none" stroke="midnightblue" d="M208.67,-224.08C208.02,-217.01 207.08,-206.86 206.26,-197.99"/>
<polygon fill="midnightblue" stroke="midnightblue" points="209.72,-197.39 205.31,-187.75 202.75,-198.03 209.72,-197.39"/>
</g>
<!-- Node4 -->
<g id="node4" class="node">
<title>Node4</title>
<g id="a_node4"><a xlink:href="QtFit__global_8h.html" target="_top" xlink:title=" ">
<polygon fill="none" stroke="black" points="85.5,-56.5 85.5,-75.5 169.5,-75.5 169.5,-56.5 85.5,-56.5"/>
<text text-anchor="middle" x="127.5" y="-63.5" font-family="Helvetica,sans-Serif" font-size="10.00">QtFit_global.h</text>
</a>
</g>
</g>
<!-- Node3&#45;&gt;Node4 -->
<g id="edge3" class="edge">
<title>Node3&#45;&gt;Node4</title>
<path fill="none" stroke="midnightblue" d="M199.49,-168.39C192.04,-155.75 177.43,-131.56 163.5,-112 156.61,-102.32 148.36,-91.94 141.51,-83.59"/>
<polygon fill="midnightblue" stroke="midnightblue" points="144.06,-81.19 134.97,-75.74 138.68,-85.66 144.06,-81.19"/>
</g>
<!-- Node6 -->
<g id="node6" class="node">
<title>Node6</title>
<g id="a_node6"><a xlink:href="types_8h.html" target="_top" xlink:title="Types defined by the ANT+ FIT SDK.">
<polygon fill="none" stroke="black" points="101,-112.5 101,-131.5 154,-131.5 154,-112.5 101,-112.5"/>
<text text-anchor="middle" x="127.5" y="-119.5" font-family="Helvetica,sans-Serif" font-size="10.00">types.h</text>
</a>
</g>
</g>
<!-- Node3&#45;&gt;Node6 -->
<g id="edge5" class="edge">
<title>Node3&#45;&gt;Node6</title>
<path fill="none" stroke="midnightblue" d="M192.13,-168.32C180.34,-160.06 162.37,-147.45 148.36,-137.63"/>
<polygon fill="midnightblue" stroke="midnightblue" points="150.04,-134.53 139.84,-131.65 146.02,-140.26 150.04,-134.53"/>
</g>
<!-- Node5 -->
<g id="node5" class="node">
<title>Node5</title>
<g id="a_node5"><a xlink:title=" ">
<polygon fill="none" stroke="#bfbfbf" points="98,-0.5 98,-19.5 157,-19.5 157,-0.5 98,-0.5"/>
<text text-anchor="middle" x="127.5" y="-7.5" font-family="Helvetica,sans-Serif" font-size="10.00">QtGlobal</text>
</a>
</g>
</g>
<!-- Node4&#45;&gt;Node5 -->
<g id="edge4" class="edge">
<title>Node4&#45;&gt;Node5</title>
<path fill="none" stroke="midnightblue" d="M127.5,-56.08C127.5,-49.01 127.5,-38.86 127.5,-29.99"/>
<polygon fill="midnightblue" stroke="midnightblue" points="131,-29.75 127.5,-19.75 124,-29.75 131,-29.75"/>
</g>
<!-- Node6&#45;&gt;Node4 -->
<g id="edge6" class="edge">
<title>Node6&#45;&gt;Node4</title>
<path fill="none" stroke="midnightblue" d="M127.5,-112.08C127.5,-105.01 127.5,-94.86 127.5,-85.99"/>
<polygon fill="midnightblue" stroke="midnightblue" points="131,-85.75 127.5,-75.75 124,-85.75 131,-85.75"/>
</g>
<!-- Node8 -->
<g id="node8" class="node">
<title>Node8</title>
<g id="a_node8"><a xlink:href="fitdatamessage__p_8h.html" target="_top" xlink:title=" ">
<polygon fill="none" stroke="black" points="4,-224.5 4,-243.5 117,-243.5 117,-224.5 4,-224.5"/>
<text text-anchor="middle" x="60.5" y="-231.5" font-family="Helvetica,sans-Serif" font-size="10.00">fitdatamessage_p.h</text>
</a>
</g>
</g>
<!-- Node7&#45;&gt;Node8 -->
<g id="edge8" class="edge">
<title>Node7&#45;&gt;Node8</title>
<path fill="none" stroke="midnightblue" d="M77.2,-280.08C74.52,-272.85 70.65,-262.41 67.31,-253.4"/>
<polygon fill="midnightblue" stroke="midnightblue" points="70.5,-251.91 63.74,-243.75 63.93,-254.34 70.5,-251.91"/>
</g>
<!-- Node8&#45;&gt;Node4 -->
<g id="edge9" class="edge">
<title>Node8&#45;&gt;Node4</title>
<path fill="none" stroke="midnightblue" d="M50.34,-224.19C41.59,-215.87 29.6,-202.54 24.5,-188 17.84,-169.02 25.59,-121.38 32.5,-112 44.1,-96.26 62.64,-85.81 80.27,-78.98"/>
<polygon fill="midnightblue" stroke="midnightblue" points="81.67,-82.2 89.92,-75.55 79.32,-75.6 81.67,-82.2"/>
</g>
<!-- Node8&#45;&gt;Node6 -->
<g id="edge10" class="edge">
<title>Node8&#45;&gt;Node6</title>
<path fill="none" stroke="midnightblue" d="M72.27,-224.23C82.64,-215.94 97.44,-202.63 106.5,-188 115.38,-173.66 120.87,-155.2 124,-141.62"/>
<polygon fill="midnightblue" stroke="midnightblue" points="127.49,-142.06 126.1,-131.55 120.63,-140.63 127.49,-142.06"/>
</g>
<!-- Node9 -->
<g id="node9" class="node">
<title>Node9</title>
<g id="a_node9"><a xlink:href="types__p_8h.html" target="_top" xlink:title=" ">
<polygon fill="none" stroke="black" points="33.5,-168.5 33.5,-187.5 97.5,-187.5 97.5,-168.5 33.5,-168.5"/>
<text text-anchor="middle" x="65.5" y="-175.5" font-family="Helvetica,sans-Serif" font-size="10.00">types_p.h</text>
</a>
</g>
</g>
<!-- Node8&#45;&gt;Node9 -->
<g id="edge11" class="edge">
<title>Node8&#45;&gt;Node9</title>
<path fill="none" stroke="midnightblue" d="M61.33,-224.08C61.98,-217.01 62.92,-206.86 63.74,-197.99"/>
<polygon fill="midnightblue" stroke="midnightblue" points="67.25,-198.03 64.69,-187.75 60.28,-197.39 67.25,-198.03"/>
</g>
<!-- Node9&#45;&gt;Node6 -->
<g id="edge12" class="edge">
<title>Node9&#45;&gt;Node6</title>
<path fill="none" stroke="midnightblue" d="M75.46,-168.32C84.63,-160.34 98.44,-148.31 109.53,-138.65"/>
<polygon fill="midnightblue" stroke="midnightblue" points="112.12,-141.04 117.36,-131.83 107.52,-135.76 112.12,-141.04"/>
</g>
<!-- Node10 -->
<g id="node10" class="node">
<title>Node10</title>
<g id="a_node10"><a xlink:title=" ">
<polygon fill="none" stroke="#bfbfbf" points="42,-112.5 42,-131.5 83,-131.5 83,-112.5 42,-112.5"/>
<text text-anchor="middle" x="62.5" y="-119.5" font-family="Helvetica,sans-Serif" font-size="10.00">QList</text>
</a>
</g>
</g>
<!-- Node9&#45;&gt;Node10 -->
<g id="edge13" class="edge">
<title>Node9&#45;&gt;Node10</title>
<path fill="none" stroke="midnightblue" d="M65,-168.08C64.61,-161.01 64.05,-150.86 63.55,-141.99"/>
<polygon fill="midnightblue" stroke="midnightblue" points="67.04,-141.54 62.99,-131.75 60.05,-141.93 67.04,-141.54"/>
</g>
</g>
</svg>
