<?xml version="1.0" encoding="UTF-8" standalone="no"?>
<!DOCTYPE svg PUBLIC "-//W3C//DTD SVG 1.1//EN"
 "http://www.w3.org/Graphics/SVG/1.1/DTD/svg11.dtd">
<!-- Generated by graphviz version 2.43.0 (0)
 -->
<!-- Title: developerdataidmessage_p.h Pages: 1 -->
<svg width="183pt" height="308pt"
 viewBox="0.00 0.00 183.00 308.00" xmlns="http://www.w3.org/2000/svg" xmlns:xlink="http://www.w3.org/1999/xlink">
<g id="graph0" class="graph" transform="scale(1 1) rotate(0) translate(4 304)">
<title>developerdataidmessage_p.h</title>
<!-- Node1 -->
<g id="node1" class="node">
<title>Node1</title>
<g id="a_node1"><a xlink:title=" ">
<polygon fill="#bfbfbf" stroke="black" points="0,-280.5 0,-299.5 161,-299.5 161,-280.5 0,-280.5"/>
<text text-anchor="middle" x="80.5" y="-287.5" font-family="Helvetica,sans-Serif" font-size="10.00">developerdataidmessage_p.h</text>
</a>
</g>
</g>
<!-- Node2 -->
<g id="node2" class="node">
<title>Node2</title>
<g id="a_node2"><a xlink:href="fitdatamessage__p_8h.html" target="_top" xlink:title=" ">
<polygon fill="none" stroke="black" points="24,-224.5 24,-243.5 137,-243.5 137,-224.5 24,-224.5"/>
<text text-anchor="middle" x="80.5" y="-231.5" font-family="Helvetica,sans-Serif" font-size="10.00">fitdatamessage_p.h</text>
</a>
</g>
</g>
<!-- Node1&#45;&gt;Node2 -->
<g id="edge1" class="edge">
<title>Node1&#45;&gt;Node2</title>
<path fill="none" stroke="midnightblue" d="M80.5,-280.08C80.5,-273.01 80.5,-262.86 80.5,-253.99"/>
<polygon fill="midnightblue" stroke="midnightblue" points="84,-253.75 80.5,-243.75 77,-253.75 84,-253.75"/>
</g>
<!-- Node3 -->
<g id="node3" class="node">
<title>Node3</title>
<g id="a_node3"><a xlink:href="QtFit__global_8h.html" target="_top" xlink:title=" ">
<polygon fill="none" stroke="black" points="19.5,-56.5 19.5,-75.5 103.5,-75.5 103.5,-56.5 19.5,-56.5"/>
<text text-anchor="middle" x="61.5" y="-63.5" font-family="Helvetica,sans-Serif" font-size="10.00">QtFit_global.h</text>
</a>
</g>
</g>
<!-- Node2&#45;&gt;Node3 -->
<g id="edge2" class="edge">
<title>Node2&#45;&gt;Node3</title>
<path fill="none" stroke="midnightblue" d="M76.65,-224.32C68.32,-204.61 49.72,-154.88 53.5,-112 54.28,-103.2 55.89,-93.54 57.47,-85.43"/>
<polygon fill="midnightblue" stroke="midnightblue" points="60.91,-86.07 59.51,-75.57 54.06,-84.65 60.91,-86.07"/>
</g>
<!-- Node5 -->
<g id="node5" class="node">
<title>Node5</title>
<g id="a_node5"><a xlink:href="types_8h.html" target="_top" xlink:title="Types defined by the ANT+ FIT SDK.">
<polygon fill="none" stroke="black" points="63,-112.5 63,-131.5 116,-131.5 116,-112.5 63,-112.5"/>
<text text-anchor="middle" x="89.5" y="-119.5" font-family="Helvetica,sans-Serif" font-size="10.00">types.h</text>
</a>
</g>
</g>
<!-- Node2&#45;&gt;Node5 -->
<g id="edge4" class="edge">
<title>Node2&#45;&gt;Node5</title>
<path fill="none" stroke="midnightblue" d="M81.21,-224.37C82.66,-206.62 86.01,-165.67 87.98,-141.6"/>
<polygon fill="midnightblue" stroke="midnightblue" points="91.47,-141.84 88.8,-131.59 84.49,-141.27 91.47,-141.84"/>
</g>
<!-- Node6 -->
<g id="node6" class="node">
<title>Node6</title>
<g id="a_node6"><a xlink:href="types__p_8h.html" target="_top" xlink:title=" ">
<polygon fill="none" stroke="black" points="108.5,-168.5 108.5,-187.5 172.5,-187.5 172.5,-168.5 108.5,-168.5"/>
<text text-anchor="middle" x="140.5" y="-175.5" font-family="Helvetica,sans-Serif" font-size="10.00">types_p.h</text>
</a>
</g>
</g>
<!-- Node2&#45;&gt;Node6 -->
<g id="edge6" class="edge">
<title>Node2&#45;&gt;Node6</title>
<path fill="none" stroke="midnightblue" d="M90.14,-224.32C99.01,-216.34 112.37,-204.31 123.11,-194.65"/>
<polygon fill="midnightblue" stroke="midnightblue" points="125.59,-197.13 130.68,-187.83 120.91,-191.92 125.59,-197.13"/>
</g>
<!-- Node4 -->
<g id="node4" class="node">
<title>Node4</title>
<g id="a_node4"><a xlink:title=" ">
<polygon fill="none" stroke="#bfbfbf" points="32,-0.5 32,-19.5 91,-19.5 91,-0.5 32,-0.5"/>
<text text-anchor="middle" x="61.5" y="-7.5" font-family="Helvetica,sans-Serif" font-size="10.00">QtGlobal</text>
</a>
</g>
</g>
<!-- Node3&#45;&gt;Node4 -->
<g id="edge3" class="edge">
<title>Node3&#45;&gt;Node4</title>
<path fill="none" stroke="midnightblue" d="M61.5,-56.08C61.5,-49.01 61.5,-38.86 61.5,-29.99"/>
<polygon fill="midnightblue" stroke="midnightblue" points="65,-29.75 61.5,-19.75 58,-29.75 65,-29.75"/>
</g>
<!-- Node5&#45;&gt;Node3 -->
<g id="edge5" class="edge">
<title>Node5&#45;&gt;Node3</title>
<path fill="none" stroke="midnightblue" d="M84.88,-112.08C81.04,-104.69 75.48,-93.95 70.74,-84.81"/>
<polygon fill="midnightblue" stroke="midnightblue" points="73.75,-83.02 66.04,-75.75 67.53,-86.24 73.75,-83.02"/>
</g>
<!-- Node6&#45;&gt;Node5 -->
<g id="edge7" class="edge">
<title>Node6&#45;&gt;Node5</title>
<path fill="none" stroke="midnightblue" d="M132.08,-168.08C124.65,-160.22 113.65,-148.57 104.69,-139.08"/>
<polygon fill="midnightblue" stroke="midnightblue" points="107.18,-136.62 97.76,-131.75 102.09,-141.42 107.18,-136.62"/>
</g>
<!-- Node7 -->
<g id="node7" class="node">
<title>Node7</title>
<g id="a_node7"><a xlink:title=" ">
<polygon fill="none" stroke="#bfbfbf" points="134,-112.5 134,-131.5 175,-131.5 175,-112.5 134,-112.5"/>
<text text-anchor="middle" x="154.5" y="-119.5" font-family="Helvetica,sans-Serif" font-size="10.00">QList</text>
</a>
</g>
</g>
<!-- Node6&#45;&gt;Node7 -->
<g id="edge8" class="edge">
<title>Node6&#45;&gt;Node7</title>
<path fill="none" stroke="midnightblue" d="M142.81,-168.08C144.67,-160.93 147.34,-150.64 149.65,-141.69"/>
<polygon fill="midnightblue" stroke="midnightblue" points="153.11,-142.31 152.23,-131.75 146.33,-140.55 153.11,-142.31"/>
</g>
</g>
</svg>
