<?xml version="1.0" encoding="UTF-8" standalone="no"?>
<!DOCTYPE svg PUBLIC "-//W3C//DTD SVG 1.1//EN"
 "http://www.w3.org/Graphics/SVG/1.1/DTD/svg11.dtd">
<!-- Generated by graphviz version 2.43.0 (0)
 -->
<!-- Title: developerdataidmessage.h Pages: 1 -->
<svg width="306pt" height="84pt"
 viewBox="0.00 0.00 305.50 84.00" xmlns="http://www.w3.org/2000/svg" xmlns:xlink="http://www.w3.org/1999/xlink">
<g id="graph0" class="graph" transform="scale(1 1) rotate(0) translate(4 80)">
<title>developerdataidmessage.h</title>
<!-- Node1 -->
<g id="node1" class="node">
<title>Node1</title>
<g id="a_node1"><a xlink:title="Declares the DeveloperDataIdMessage class.">
<polygon fill="#bfbfbf" stroke="black" points="85,-56.5 85,-75.5 234,-75.5 234,-56.5 85,-56.5"/>
<text text-anchor="middle" x="159.5" y="-63.5" font-family="Helvetica,sans-Serif" font-size="10.00">developerdataidmessage.h</text>
</a>
</g>
</g>
<!-- Node2 -->
<g id="node2" class="node">
<title>Node2</title>
<g id="a_node2"><a xlink:href="developerdataidmessage_8cpp.html" target="_top" xlink:title="Defines the DeveloperDataIdMessage, and DeveloperDataIdMessagePrivate classes.">
<polygon fill="none" stroke="black" points="0,-0.5 0,-19.5 161,-19.5 161,-0.5 0,-0.5"/>
<text text-anchor="middle" x="80.5" y="-7.5" font-family="Helvetica,sans-Serif" font-size="10.00">developerdataidmessage.cpp</text>
</a>
</g>
</g>
<!-- Node1&#45;&gt;Node2 -->
<g id="edge1" class="edge">
<title>Node1&#45;&gt;Node2</title>
<path fill="none" stroke="midnightblue" d="M138.47,-50.62C124.03,-40.76 105.36,-27.99 93.16,-19.65"/>
<polygon fill="midnightblue" stroke="midnightblue" points="136.58,-53.57 146.81,-56.32 140.53,-47.79 136.58,-53.57"/>
</g>
<!-- Node3 -->
<g id="node3" class="node">
<title>Node3</title>
<g id="a_node3"><a xlink:href="fitdatamessages_8cpp.html" target="_top" xlink:title="Provides the AbstractDataMessage::fromData implementation.">
<polygon fill="none" stroke="black" points="179.5,-0.5 179.5,-19.5 297.5,-19.5 297.5,-0.5 179.5,-0.5"/>
<text text-anchor="middle" x="238.5" y="-7.5" font-family="Helvetica,sans-Serif" font-size="10.00">fitdatamessages.cpp</text>
</a>
</g>
</g>
<!-- Node1&#45;&gt;Node3 -->
<g id="edge2" class="edge">
<title>Node1&#45;&gt;Node3</title>
<path fill="none" stroke="midnightblue" d="M180.53,-50.62C194.97,-40.76 213.64,-27.99 225.84,-19.65"/>
<polygon fill="midnightblue" stroke="midnightblue" points="178.47,-47.79 172.19,-56.32 182.42,-53.57 178.47,-47.79"/>
</g>
</g>
</svg>
