<?xml version="1.0" encoding="UTF-8" standalone="no"?>
<!DOCTYPE svg PUBLIC "-//W3C//DTD SVG 1.1//EN"
 "http://www.w3.org/Graphics/SVG/1.1/DTD/svg11.dtd">
<!-- Generated by graphviz version 2.43.0 (0)
 -->
<!-- Title: deviceinfomessage.cpp Pages: 1 -->
<svg width="280pt" height="364pt"
 viewBox="0.00 0.00 279.50 364.00" xmlns="http://www.w3.org/2000/svg" xmlns:xlink="http://www.w3.org/1999/xlink">
<g id="graph0" class="graph" transform="scale(1 1) rotate(0) translate(4 360)">
<title>deviceinfomessage.cpp</title>
<!-- Node1 -->
<g id="node1" class="node">
<title>Node1</title>
<g id="a_node1"><a xlink:title=" ">
<polygon fill="#bfbfbf" stroke="black" points="72,-336.5 72,-355.5 204,-355.5 204,-336.5 72,-336.5"/>
<text text-anchor="middle" x="138" y="-343.5" font-family="Helvetica,sans-Serif" font-size="10.00">deviceinfomessage.cpp</text>
</a>
</g>
</g>
<!-- Node2 -->
<g id="node2" class="node">
<title>Node2</title>
<g id="a_node2"><a xlink:href="deviceinfomessage_8h.html" target="_top" xlink:title=" ">
<polygon fill="none" stroke="black" points="150.5,-280.5 150.5,-299.5 271.5,-299.5 271.5,-280.5 150.5,-280.5"/>
<text text-anchor="middle" x="211" y="-287.5" font-family="Helvetica,sans-Serif" font-size="10.00">deviceinfomessage.h</text>
</a>
</g>
</g>
<!-- Node1&#45;&gt;Node2 -->
<g id="edge1" class="edge">
<title>Node1&#45;&gt;Node2</title>
<path fill="none" stroke="midnightblue" d="M149.73,-336.32C160.84,-328.11 177.74,-315.6 190.98,-305.81"/>
<polygon fill="midnightblue" stroke="midnightblue" points="193.1,-308.59 199.06,-299.83 188.94,-302.97 193.1,-308.59"/>
</g>
<!-- Node7 -->
<g id="node7" class="node">
<title>Node7</title>
<g id="a_node7"><a xlink:href="deviceinfomessage__p_8h.html" target="_top" xlink:title=" ">
<polygon fill="none" stroke="black" points="0,-280.5 0,-299.5 132,-299.5 132,-280.5 0,-280.5"/>
<text text-anchor="middle" x="66" y="-287.5" font-family="Helvetica,sans-Serif" font-size="10.00">deviceinfomessage_p.h</text>
</a>
</g>
</g>
<!-- Node1&#45;&gt;Node7 -->
<g id="edge7" class="edge">
<title>Node1&#45;&gt;Node7</title>
<path fill="none" stroke="midnightblue" d="M126.43,-336.32C115.58,-328.18 99.12,-315.84 86.12,-306.09"/>
<polygon fill="midnightblue" stroke="midnightblue" points="87.88,-303.03 77.78,-299.83 83.68,-308.63 87.88,-303.03"/>
</g>
<!-- Node3 -->
<g id="node3" class="node">
<title>Node3</title>
<g id="a_node3"><a xlink:href="fitdatamessage_8h.html" target="_top" xlink:title=" ">
<polygon fill="none" stroke="black" points="158.5,-168.5 158.5,-187.5 259.5,-187.5 259.5,-168.5 158.5,-168.5"/>
<text text-anchor="middle" x="209" y="-175.5" font-family="Helvetica,sans-Serif" font-size="10.00">fitdatamessage.h</text>
</a>
</g>
</g>
<!-- Node2&#45;&gt;Node3 -->
<g id="edge2" class="edge">
<title>Node2&#45;&gt;Node3</title>
<path fill="none" stroke="midnightblue" d="M210.84,-280.37C210.52,-262.62 209.78,-221.67 209.34,-197.6"/>
<polygon fill="midnightblue" stroke="midnightblue" points="212.84,-197.53 209.16,-187.59 205.84,-197.65 212.84,-197.53"/>
</g>
<!-- Node4 -->
<g id="node4" class="node">
<title>Node4</title>
<g id="a_node4"><a xlink:href="QtFit__global_8h.html" target="_top" xlink:title=" ">
<polygon fill="none" stroke="black" points="90,-56.5 90,-75.5 174,-75.5 174,-56.5 90,-56.5"/>
<text text-anchor="middle" x="132" y="-63.5" font-family="Helvetica,sans-Serif" font-size="10.00">QtFit_global.h</text>
</a>
</g>
</g>
<!-- Node3&#45;&gt;Node4 -->
<g id="edge3" class="edge">
<title>Node3&#45;&gt;Node4</title>
<path fill="none" stroke="midnightblue" d="M203.99,-168.39C196.54,-155.75 181.93,-131.56 168,-112 161.11,-102.32 152.86,-91.94 146.01,-83.59"/>
<polygon fill="midnightblue" stroke="midnightblue" points="148.56,-81.19 139.47,-75.74 143.18,-85.66 148.56,-81.19"/>
</g>
<!-- Node6 -->
<g id="node6" class="node">
<title>Node6</title>
<g id="a_node6"><a xlink:href="types_8h.html" target="_top" xlink:title="Types defined by the ANT+ FIT SDK.">
<polygon fill="none" stroke="black" points="105.5,-112.5 105.5,-131.5 158.5,-131.5 158.5,-112.5 105.5,-112.5"/>
<text text-anchor="middle" x="132" y="-119.5" font-family="Helvetica,sans-Serif" font-size="10.00">types.h</text>
</a>
</g>
</g>
<!-- Node3&#45;&gt;Node6 -->
<g id="edge5" class="edge">
<title>Node3&#45;&gt;Node6</title>
<path fill="none" stroke="midnightblue" d="M196.63,-168.32C184.84,-160.06 166.87,-147.45 152.86,-137.63"/>
<polygon fill="midnightblue" stroke="midnightblue" points="154.54,-134.53 144.34,-131.65 150.52,-140.26 154.54,-134.53"/>
</g>
<!-- Node5 -->
<g id="node5" class="node">
<title>Node5</title>
<g id="a_node5"><a xlink:title=" ">
<polygon fill="none" stroke="#bfbfbf" points="102.5,-0.5 102.5,-19.5 161.5,-19.5 161.5,-0.5 102.5,-0.5"/>
<text text-anchor="middle" x="132" y="-7.5" font-family="Helvetica,sans-Serif" font-size="10.00">QtGlobal</text>
</a>
</g>
</g>
<!-- Node4&#45;&gt;Node5 -->
<g id="edge4" class="edge">
<title>Node4&#45;&gt;Node5</title>
<path fill="none" stroke="midnightblue" d="M132,-56.08C132,-49.01 132,-38.86 132,-29.99"/>
<polygon fill="midnightblue" stroke="midnightblue" points="135.5,-29.75 132,-19.75 128.5,-29.75 135.5,-29.75"/>
</g>
<!-- Node6&#45;&gt;Node4 -->
<g id="edge6" class="edge">
<title>Node6&#45;&gt;Node4</title>
<path fill="none" stroke="midnightblue" d="M132,-112.08C132,-105.01 132,-94.86 132,-85.99"/>
<polygon fill="midnightblue" stroke="midnightblue" points="135.5,-85.75 132,-75.75 128.5,-85.75 135.5,-85.75"/>
</g>
<!-- Node8 -->
<g id="node8" class="node">
<title>Node8</title>
<g id="a_node8"><a xlink:href="fitdatamessage__p_8h.html" target="_top" xlink:title=" ">
<polygon fill="none" stroke="black" points="12.5,-224.5 12.5,-243.5 125.5,-243.5 125.5,-224.5 12.5,-224.5"/>
<text text-anchor="middle" x="69" y="-231.5" font-family="Helvetica,sans-Serif" font-size="10.00">fitdatamessage_p.h</text>
</a>
</g>
</g>
<!-- Node7&#45;&gt;Node8 -->
<g id="edge8" class="edge">
<title>Node7&#45;&gt;Node8</title>
<path fill="none" stroke="midnightblue" d="M66.5,-280.08C66.89,-273.01 67.45,-262.86 67.95,-253.99"/>
<polygon fill="midnightblue" stroke="midnightblue" points="71.45,-253.93 68.51,-243.75 64.46,-253.54 71.45,-253.93"/>
</g>
<!-- Node8&#45;&gt;Node4 -->
<g id="edge9" class="edge">
<title>Node8&#45;&gt;Node4</title>
<path fill="none" stroke="midnightblue" d="M57.73,-224.43C48.03,-216.27 34.72,-203.05 29,-188 21.97,-169.52 29.05,-122.79 37,-112 48.6,-96.26 67.14,-85.81 84.77,-78.98"/>
<polygon fill="midnightblue" stroke="midnightblue" points="86.17,-82.2 94.42,-75.55 83.82,-75.6 86.17,-82.2"/>
</g>
<!-- Node8&#45;&gt;Node6 -->
<g id="edge10" class="edge">
<title>Node8&#45;&gt;Node6</title>
<path fill="none" stroke="midnightblue" d="M79.35,-224.34C88.8,-215.94 102.55,-202.37 111,-188 119.46,-173.63 124.96,-155.43 128.2,-141.95"/>
<polygon fill="midnightblue" stroke="midnightblue" points="131.68,-142.44 130.41,-131.92 124.84,-140.93 131.68,-142.44"/>
</g>
<!-- Node9 -->
<g id="node9" class="node">
<title>Node9</title>
<g id="a_node9"><a xlink:href="types__p_8h.html" target="_top" xlink:title=" ">
<polygon fill="none" stroke="black" points="38,-168.5 38,-187.5 102,-187.5 102,-168.5 38,-168.5"/>
<text text-anchor="middle" x="70" y="-175.5" font-family="Helvetica,sans-Serif" font-size="10.00">types_p.h</text>
</a>
</g>
</g>
<!-- Node8&#45;&gt;Node9 -->
<g id="edge11" class="edge">
<title>Node8&#45;&gt;Node9</title>
<path fill="none" stroke="midnightblue" d="M69.17,-224.08C69.3,-217.01 69.48,-206.86 69.65,-197.99"/>
<polygon fill="midnightblue" stroke="midnightblue" points="73.15,-197.81 69.84,-187.75 66.15,-197.68 73.15,-197.81"/>
</g>
<!-- Node9&#45;&gt;Node6 -->
<g id="edge12" class="edge">
<title>Node9&#45;&gt;Node6</title>
<path fill="none" stroke="midnightblue" d="M79.96,-168.32C89.13,-160.34 102.94,-148.31 114.03,-138.65"/>
<polygon fill="midnightblue" stroke="midnightblue" points="116.62,-141.04 121.86,-131.83 112.02,-135.76 116.62,-141.04"/>
</g>
<!-- Node10 -->
<g id="node10" class="node">
<title>Node10</title>
<g id="a_node10"><a xlink:title=" ">
<polygon fill="none" stroke="#bfbfbf" points="46.5,-112.5 46.5,-131.5 87.5,-131.5 87.5,-112.5 46.5,-112.5"/>
<text text-anchor="middle" x="67" y="-119.5" font-family="Helvetica,sans-Serif" font-size="10.00">QList</text>
</a>
</g>
</g>
<!-- Node9&#45;&gt;Node10 -->
<g id="edge13" class="edge">
<title>Node9&#45;&gt;Node10</title>
<path fill="none" stroke="midnightblue" d="M69.5,-168.08C69.11,-161.01 68.55,-150.86 68.05,-141.99"/>
<polygon fill="midnightblue" stroke="midnightblue" points="71.54,-141.54 67.49,-131.75 64.55,-141.93 71.54,-141.54"/>
</g>
</g>
</svg>
