<?xml version="1.0" encoding="UTF-8" standalone="no"?>
<!DOCTYPE svg PUBLIC "-//W3C//DTD SVG 1.1//EN"
 "http://www.w3.org/Graphics/SVG/1.1/DTD/svg11.dtd">
<!-- Generated by graphviz version 2.43.0 (0)
 -->
<!-- Title: devicesettingsmessage.cpp Pages: 1 -->
<svg width="362pt" height="364pt"
 viewBox="0.00 0.00 362.00 364.00" xmlns="http://www.w3.org/2000/svg" xmlns:xlink="http://www.w3.org/1999/xlink">
<g id="graph0" class="graph" transform="scale(1 1) rotate(0) translate(4 360)">
<title>devicesettingsmessage.cpp</title>
<!-- Node1 -->
<g id="node1" class="node">
<title>Node1</title>
<g id="a_node1"><a xlink:title=" ">
<polygon fill="#bfbfbf" stroke="black" points="142.5,-336.5 142.5,-355.5 294.5,-355.5 294.5,-336.5 142.5,-336.5"/>
<text text-anchor="middle" x="218.5" y="-343.5" font-family="Helvetica,sans-Serif" font-size="10.00">devicesettingsmessage.cpp</text>
</a>
</g>
</g>
<!-- Node2 -->
<g id="node2" class="node">
<title>Node2</title>
<g id="a_node2"><a xlink:href="devicesettingsmessage_8h.html" target="_top" xlink:title=" ">
<polygon fill="none" stroke="black" points="131,-224.5 131,-243.5 272,-243.5 272,-224.5 131,-224.5"/>
<text text-anchor="middle" x="201.5" y="-231.5" font-family="Helvetica,sans-Serif" font-size="10.00">devicesettingsmessage.h</text>
</a>
</g>
</g>
<!-- Node1&#45;&gt;Node2 -->
<g id="edge1" class="edge">
<title>Node1&#45;&gt;Node2</title>
<path fill="none" stroke="midnightblue" d="M216.58,-336.41C214.61,-327.38 211.56,-312.74 209.5,-300 207.01,-284.55 204.88,-266.92 203.45,-253.92"/>
<polygon fill="midnightblue" stroke="midnightblue" points="206.92,-253.43 202.38,-243.86 199.96,-254.18 206.92,-253.43"/>
</g>
<!-- Node7 -->
<g id="node7" class="node">
<title>Node7</title>
<g id="a_node7"><a xlink:href="devicesettingsmessage__p_8h.html" target="_top" xlink:title=" ">
<polygon fill="none" stroke="black" points="0.5,-280.5 0.5,-299.5 152.5,-299.5 152.5,-280.5 0.5,-280.5"/>
<text text-anchor="middle" x="76.5" y="-287.5" font-family="Helvetica,sans-Serif" font-size="10.00">devicesettingsmessage_p.h</text>
</a>
</g>
</g>
<!-- Node1&#45;&gt;Node7 -->
<g id="edge7" class="edge">
<title>Node1&#45;&gt;Node7</title>
<path fill="none" stroke="midnightblue" d="M196,-336.44C172.42,-327.48 135.18,-313.31 108.54,-303.18"/>
<polygon fill="midnightblue" stroke="midnightblue" points="109.49,-299.8 98.9,-299.52 107,-306.34 109.49,-299.8"/>
</g>
<!-- Node11 -->
<g id="node11" class="node">
<title>Node11</title>
<g id="a_node11"><a xlink:title=" ">
<polygon fill="none" stroke="#bfbfbf" points="218.5,-280.5 218.5,-299.5 274.5,-299.5 274.5,-280.5 218.5,-280.5"/>
<text text-anchor="middle" x="246.5" y="-287.5" font-family="Helvetica,sans-Serif" font-size="10.00">QDebug</text>
</a>
</g>
</g>
<!-- Node1&#45;&gt;Node11 -->
<g id="edge14" class="edge">
<title>Node1&#45;&gt;Node11</title>
<path fill="none" stroke="midnightblue" d="M223.12,-336.08C226.96,-328.69 232.52,-317.95 237.26,-308.81"/>
<polygon fill="midnightblue" stroke="midnightblue" points="240.47,-310.24 241.96,-299.75 234.25,-307.02 240.47,-310.24"/>
</g>
<!-- Node12 -->
<g id="node12" class="node">
<title>Node12</title>
<g id="a_node12"><a xlink:title=" ">
<polygon fill="none" stroke="#bfbfbf" points="293,-280.5 293,-299.5 354,-299.5 354,-280.5 293,-280.5"/>
<text text-anchor="middle" x="323.5" y="-287.5" font-family="Helvetica,sans-Serif" font-size="10.00">QtEndian</text>
</a>
</g>
</g>
<!-- Node1&#45;&gt;Node12 -->
<g id="edge15" class="edge">
<title>Node1&#45;&gt;Node12</title>
<path fill="none" stroke="midnightblue" d="M235.37,-336.32C252.21,-327.66 278.31,-314.24 297.74,-304.25"/>
<polygon fill="midnightblue" stroke="midnightblue" points="299.38,-307.34 306.67,-299.65 296.18,-301.12 299.38,-307.34"/>
</g>
<!-- Node3 -->
<g id="node3" class="node">
<title>Node3</title>
<g id="a_node3"><a xlink:href="fitdatamessage_8h.html" target="_top" xlink:title=" ">
<polygon fill="none" stroke="black" points="148,-168.5 148,-187.5 249,-187.5 249,-168.5 148,-168.5"/>
<text text-anchor="middle" x="198.5" y="-175.5" font-family="Helvetica,sans-Serif" font-size="10.00">fitdatamessage.h</text>
</a>
</g>
</g>
<!-- Node2&#45;&gt;Node3 -->
<g id="edge2" class="edge">
<title>Node2&#45;&gt;Node3</title>
<path fill="none" stroke="midnightblue" d="M201,-224.08C200.61,-217.01 200.05,-206.86 199.55,-197.99"/>
<polygon fill="midnightblue" stroke="midnightblue" points="203.04,-197.54 198.99,-187.75 196.05,-197.93 203.04,-197.54"/>
</g>
<!-- Node4 -->
<g id="node4" class="node">
<title>Node4</title>
<g id="a_node4"><a xlink:href="QtFit__global_8h.html" target="_top" xlink:title=" ">
<polygon fill="none" stroke="black" points="79.5,-56.5 79.5,-75.5 163.5,-75.5 163.5,-56.5 79.5,-56.5"/>
<text text-anchor="middle" x="121.5" y="-63.5" font-family="Helvetica,sans-Serif" font-size="10.00">QtFit_global.h</text>
</a>
</g>
</g>
<!-- Node3&#45;&gt;Node4 -->
<g id="edge3" class="edge">
<title>Node3&#45;&gt;Node4</title>
<path fill="none" stroke="midnightblue" d="M193.49,-168.39C186.04,-155.75 171.43,-131.56 157.5,-112 150.61,-102.32 142.36,-91.94 135.51,-83.59"/>
<polygon fill="midnightblue" stroke="midnightblue" points="138.06,-81.19 128.97,-75.74 132.68,-85.66 138.06,-81.19"/>
</g>
<!-- Node6 -->
<g id="node6" class="node">
<title>Node6</title>
<g id="a_node6"><a xlink:href="types_8h.html" target="_top" xlink:title="Types defined by the ANT+ FIT SDK.">
<polygon fill="none" stroke="black" points="95,-112.5 95,-131.5 148,-131.5 148,-112.5 95,-112.5"/>
<text text-anchor="middle" x="121.5" y="-119.5" font-family="Helvetica,sans-Serif" font-size="10.00">types.h</text>
</a>
</g>
</g>
<!-- Node3&#45;&gt;Node6 -->
<g id="edge5" class="edge">
<title>Node3&#45;&gt;Node6</title>
<path fill="none" stroke="midnightblue" d="M186.13,-168.32C174.34,-160.06 156.37,-147.45 142.36,-137.63"/>
<polygon fill="midnightblue" stroke="midnightblue" points="144.04,-134.53 133.84,-131.65 140.02,-140.26 144.04,-134.53"/>
</g>
<!-- Node5 -->
<g id="node5" class="node">
<title>Node5</title>
<g id="a_node5"><a xlink:title=" ">
<polygon fill="none" stroke="#bfbfbf" points="92,-0.5 92,-19.5 151,-19.5 151,-0.5 92,-0.5"/>
<text text-anchor="middle" x="121.5" y="-7.5" font-family="Helvetica,sans-Serif" font-size="10.00">QtGlobal</text>
</a>
</g>
</g>
<!-- Node4&#45;&gt;Node5 -->
<g id="edge4" class="edge">
<title>Node4&#45;&gt;Node5</title>
<path fill="none" stroke="midnightblue" d="M121.5,-56.08C121.5,-49.01 121.5,-38.86 121.5,-29.99"/>
<polygon fill="midnightblue" stroke="midnightblue" points="125,-29.75 121.5,-19.75 118,-29.75 125,-29.75"/>
</g>
<!-- Node6&#45;&gt;Node4 -->
<g id="edge6" class="edge">
<title>Node6&#45;&gt;Node4</title>
<path fill="none" stroke="midnightblue" d="M121.5,-112.08C121.5,-105.01 121.5,-94.86 121.5,-85.99"/>
<polygon fill="midnightblue" stroke="midnightblue" points="125,-85.75 121.5,-75.75 118,-85.75 125,-85.75"/>
</g>
<!-- Node8 -->
<g id="node8" class="node">
<title>Node8</title>
<g id="a_node8"><a xlink:href="fitdatamessage__p_8h.html" target="_top" xlink:title=" ">
<polygon fill="none" stroke="black" points="0,-224.5 0,-243.5 113,-243.5 113,-224.5 0,-224.5"/>
<text text-anchor="middle" x="56.5" y="-231.5" font-family="Helvetica,sans-Serif" font-size="10.00">fitdatamessage_p.h</text>
</a>
</g>
</g>
<!-- Node7&#45;&gt;Node8 -->
<g id="edge8" class="edge">
<title>Node7&#45;&gt;Node8</title>
<path fill="none" stroke="midnightblue" d="M73.2,-280.08C70.52,-272.85 66.65,-262.41 63.31,-253.4"/>
<polygon fill="midnightblue" stroke="midnightblue" points="66.5,-251.91 59.74,-243.75 59.93,-254.34 66.5,-251.91"/>
</g>
<!-- Node8&#45;&gt;Node4 -->
<g id="edge9" class="edge">
<title>Node8&#45;&gt;Node4</title>
<path fill="none" stroke="midnightblue" d="M45.79,-224.3C36.56,-216.07 23.91,-202.79 18.5,-188 11.65,-169.27 19.05,-122.1 26.5,-112 38.1,-96.26 56.64,-85.81 74.27,-78.98"/>
<polygon fill="midnightblue" stroke="midnightblue" points="75.67,-82.2 83.92,-75.55 73.32,-75.6 75.67,-82.2"/>
</g>
<!-- Node8&#45;&gt;Node6 -->
<g id="edge10" class="edge">
<title>Node8&#45;&gt;Node6</title>
<path fill="none" stroke="midnightblue" d="M67.36,-224.44C77.28,-216.11 91.69,-202.59 100.5,-188 109.22,-173.57 114.73,-155.11 117.91,-141.56"/>
<polygon fill="midnightblue" stroke="midnightblue" points="121.39,-142.03 120.05,-131.52 114.54,-140.57 121.39,-142.03"/>
</g>
<!-- Node9 -->
<g id="node9" class="node">
<title>Node9</title>
<g id="a_node9"><a xlink:href="types__p_8h.html" target="_top" xlink:title=" ">
<polygon fill="none" stroke="black" points="27.5,-168.5 27.5,-187.5 91.5,-187.5 91.5,-168.5 27.5,-168.5"/>
<text text-anchor="middle" x="59.5" y="-175.5" font-family="Helvetica,sans-Serif" font-size="10.00">types_p.h</text>
</a>
</g>
</g>
<!-- Node8&#45;&gt;Node9 -->
<g id="edge11" class="edge">
<title>Node8&#45;&gt;Node9</title>
<path fill="none" stroke="midnightblue" d="M57,-224.08C57.39,-217.01 57.95,-206.86 58.45,-197.99"/>
<polygon fill="midnightblue" stroke="midnightblue" points="61.95,-197.93 59.01,-187.75 54.96,-197.54 61.95,-197.93"/>
</g>
<!-- Node9&#45;&gt;Node6 -->
<g id="edge12" class="edge">
<title>Node9&#45;&gt;Node6</title>
<path fill="none" stroke="midnightblue" d="M69.46,-168.32C78.63,-160.34 92.44,-148.31 103.53,-138.65"/>
<polygon fill="midnightblue" stroke="midnightblue" points="106.12,-141.04 111.36,-131.83 101.52,-135.76 106.12,-141.04"/>
</g>
<!-- Node10 -->
<g id="node10" class="node">
<title>Node10</title>
<g id="a_node10"><a xlink:title=" ">
<polygon fill="none" stroke="#bfbfbf" points="36,-112.5 36,-131.5 77,-131.5 77,-112.5 36,-112.5"/>
<text text-anchor="middle" x="56.5" y="-119.5" font-family="Helvetica,sans-Serif" font-size="10.00">QList</text>
</a>
</g>
</g>
<!-- Node9&#45;&gt;Node10 -->
<g id="edge13" class="edge">
<title>Node9&#45;&gt;Node10</title>
<path fill="none" stroke="midnightblue" d="M59,-168.08C58.61,-161.01 58.05,-150.86 57.55,-141.99"/>
<polygon fill="midnightblue" stroke="midnightblue" points="61.04,-141.54 56.99,-131.75 54.05,-141.93 61.04,-141.54"/>
</g>
</g>
</svg>
