<?xml version="1.0" encoding="UTF-8" standalone="no"?>
<!DOCTYPE svg PUBLIC "-//W3C//DTD SVG 1.1//EN"
 "http://www.w3.org/Graphics/SVG/1.1/DTD/svg11.dtd">
<!-- Generated by graphviz version 2.43.0 (0)
 -->
<!-- Title: deviceinfomessage.cpp Pages: 1 -->
<svg width="399pt" height="364pt"
 viewBox="0.00 0.00 399.00 364.00" xmlns="http://www.w3.org/2000/svg" xmlns:xlink="http://www.w3.org/1999/xlink">
<g id="graph0" class="graph" transform="scale(1 1) rotate(0) translate(4 360)">
<title>deviceinfomessage.cpp</title>
<!-- Node1 -->
<g id="node1" class="node">
<title>Node1</title>
<g id="a_node1"><a xlink:title=" ">
<polygon fill="#bfbfbf" stroke="black" points="187.5,-336.5 187.5,-355.5 319.5,-355.5 319.5,-336.5 187.5,-336.5"/>
<text text-anchor="middle" x="253.5" y="-343.5" font-family="Helvetica,sans-Serif" font-size="10.00">deviceinfomessage.cpp</text>
</a>
</g>
</g>
<!-- Node2 -->
<g id="node2" class="node">
<title>Node2</title>
<g id="a_node2"><a xlink:href="deviceinfomessage_8h.html" target="_top" xlink:title=" ">
<polygon fill="none" stroke="black" points="0,-280.5 0,-299.5 121,-299.5 121,-280.5 0,-280.5"/>
<text text-anchor="middle" x="60.5" y="-287.5" font-family="Helvetica,sans-Serif" font-size="10.00">deviceinfomessage.h</text>
</a>
</g>
</g>
<!-- Node1&#45;&gt;Node2 -->
<g id="edge1" class="edge">
<title>Node1&#45;&gt;Node2</title>
<path fill="none" stroke="midnightblue" d="M222.92,-336.44C189.89,-327.2 137.11,-312.44 100.73,-302.26"/>
<polygon fill="midnightblue" stroke="midnightblue" points="101.51,-298.84 90.94,-299.52 99.63,-305.58 101.51,-298.84"/>
</g>
<!-- Node7 -->
<g id="node7" class="node">
<title>Node7</title>
<g id="a_node7"><a xlink:title=" ">
<polygon fill="none" stroke="#bfbfbf" points="232.5,-56.5 232.5,-75.5 288.5,-75.5 288.5,-56.5 232.5,-56.5"/>
<text text-anchor="middle" x="260.5" y="-63.5" font-family="Helvetica,sans-Serif" font-size="10.00">QDebug</text>
</a>
</g>
</g>
<!-- Node1&#45;&gt;Node7 -->
<g id="edge15" class="edge">
<title>Node1&#45;&gt;Node7</title>
<path fill="none" stroke="midnightblue" d="M260.17,-336.44C273.36,-318.62 301.5,-275.84 301.5,-235 301.5,-235 301.5,-235 301.5,-177 301.5,-142.52 283.59,-105.56 271.44,-84.47"/>
<polygon fill="midnightblue" stroke="midnightblue" points="274.34,-82.49 266.2,-75.71 268.34,-86.09 274.34,-82.49"/>
</g>
<!-- Node8 -->
<g id="node8" class="node">
<title>Node8</title>
<g id="a_node8"><a xlink:href="deviceinfomessage__p_8h.html" target="_top" xlink:title=" ">
<polygon fill="none" stroke="black" points="140.5,-280.5 140.5,-299.5 272.5,-299.5 272.5,-280.5 140.5,-280.5"/>
<text text-anchor="middle" x="206.5" y="-287.5" font-family="Helvetica,sans-Serif" font-size="10.00">deviceinfomessage_p.h</text>
</a>
</g>
</g>
<!-- Node1&#45;&gt;Node8 -->
<g id="edge8" class="edge">
<title>Node1&#45;&gt;Node8</title>
<path fill="none" stroke="midnightblue" d="M245.74,-336.08C238.96,-328.3 228.96,-316.8 220.74,-307.37"/>
<polygon fill="midnightblue" stroke="midnightblue" points="223.32,-305 214.12,-299.75 218.04,-309.59 223.32,-305"/>
</g>
<!-- Node12 -->
<g id="node12" class="node">
<title>Node12</title>
<g id="a_node12"><a xlink:title=" ">
<polygon fill="none" stroke="#bfbfbf" points="330,-280.5 330,-299.5 391,-299.5 391,-280.5 330,-280.5"/>
<text text-anchor="middle" x="360.5" y="-287.5" font-family="Helvetica,sans-Serif" font-size="10.00">QtEndian</text>
</a>
</g>
</g>
<!-- Node1&#45;&gt;Node12 -->
<g id="edge16" class="edge">
<title>Node1&#45;&gt;Node12</title>
<path fill="none" stroke="midnightblue" d="M270.69,-336.32C287.85,-327.66 314.45,-314.24 334.25,-304.25"/>
<polygon fill="midnightblue" stroke="midnightblue" points="336,-307.28 343.35,-299.65 332.85,-301.04 336,-307.28"/>
</g>
<!-- Node3 -->
<g id="node3" class="node">
<title>Node3</title>
<g id="a_node3"><a xlink:href="fitdatamessage_8h.html" target="_top" xlink:title=" ">
<polygon fill="none" stroke="black" points="4,-168.5 4,-187.5 105,-187.5 105,-168.5 4,-168.5"/>
<text text-anchor="middle" x="54.5" y="-175.5" font-family="Helvetica,sans-Serif" font-size="10.00">fitdatamessage.h</text>
</a>
</g>
</g>
<!-- Node2&#45;&gt;Node3 -->
<g id="edge2" class="edge">
<title>Node2&#45;&gt;Node3</title>
<path fill="none" stroke="midnightblue" d="M60.03,-280.37C59.06,-262.62 56.83,-221.67 55.51,-197.6"/>
<polygon fill="midnightblue" stroke="midnightblue" points="59.01,-197.39 54.97,-187.59 52.02,-197.77 59.01,-197.39"/>
</g>
<!-- Node4 -->
<g id="node4" class="node">
<title>Node4</title>
<g id="a_node4"><a xlink:href="QtFit__global_8h.html" target="_top" xlink:title=" ">
<polygon fill="none" stroke="black" points="90.5,-56.5 90.5,-75.5 174.5,-75.5 174.5,-56.5 90.5,-56.5"/>
<text text-anchor="middle" x="132.5" y="-63.5" font-family="Helvetica,sans-Serif" font-size="10.00">QtFit_global.h</text>
</a>
</g>
</g>
<!-- Node3&#45;&gt;Node4 -->
<g id="edge3" class="edge">
<title>Node3&#45;&gt;Node4</title>
<path fill="none" stroke="midnightblue" d="M60.62,-168.37C73.49,-150.22 103.57,-107.8 120.45,-83.99"/>
<polygon fill="midnightblue" stroke="midnightblue" points="123.48,-85.77 126.41,-75.59 117.77,-81.72 123.48,-85.77"/>
</g>
<!-- Node6 -->
<g id="node6" class="node">
<title>Node6</title>
<g id="a_node6"><a xlink:href="types_8h.html" target="_top" xlink:title="Types defined by the ANT+ FIT SDK.">
<polygon fill="none" stroke="black" points="161,-112.5 161,-131.5 214,-131.5 214,-112.5 161,-112.5"/>
<text text-anchor="middle" x="187.5" y="-119.5" font-family="Helvetica,sans-Serif" font-size="10.00">types.h</text>
</a>
</g>
</g>
<!-- Node3&#45;&gt;Node6 -->
<g id="edge5" class="edge">
<title>Node3&#45;&gt;Node6</title>
<path fill="none" stroke="midnightblue" d="M75.57,-168.44C97.56,-159.52 132.23,-145.44 157.16,-135.32"/>
<polygon fill="midnightblue" stroke="midnightblue" points="158.58,-138.52 166.52,-131.52 155.94,-132.04 158.58,-138.52"/>
</g>
<!-- Node5 -->
<g id="node5" class="node">
<title>Node5</title>
<g id="a_node5"><a xlink:title=" ">
<polygon fill="none" stroke="#bfbfbf" points="103,-0.5 103,-19.5 162,-19.5 162,-0.5 103,-0.5"/>
<text text-anchor="middle" x="132.5" y="-7.5" font-family="Helvetica,sans-Serif" font-size="10.00">QtGlobal</text>
</a>
</g>
</g>
<!-- Node4&#45;&gt;Node5 -->
<g id="edge4" class="edge">
<title>Node4&#45;&gt;Node5</title>
<path fill="none" stroke="midnightblue" d="M132.5,-56.08C132.5,-49.01 132.5,-38.86 132.5,-29.99"/>
<polygon fill="midnightblue" stroke="midnightblue" points="136,-29.75 132.5,-19.75 129,-29.75 136,-29.75"/>
</g>
<!-- Node6&#45;&gt;Node4 -->
<g id="edge6" class="edge">
<title>Node6&#45;&gt;Node4</title>
<path fill="none" stroke="midnightblue" d="M178.42,-112.08C170.33,-104.14 158.3,-92.34 148.59,-82.8"/>
<polygon fill="midnightblue" stroke="midnightblue" points="151,-80.26 141.41,-75.75 146.1,-85.25 151,-80.26"/>
</g>
<!-- Node6&#45;&gt;Node7 -->
<g id="edge7" class="edge">
<title>Node6&#45;&gt;Node7</title>
<path fill="none" stroke="midnightblue" d="M199.23,-112.32C210.34,-104.11 227.24,-91.6 240.48,-81.81"/>
<polygon fill="midnightblue" stroke="midnightblue" points="242.6,-84.59 248.56,-75.83 238.44,-78.97 242.6,-84.59"/>
</g>
<!-- Node9 -->
<g id="node9" class="node">
<title>Node9</title>
<g id="a_node9"><a xlink:href="fitdatamessage__p_8h.html" target="_top" xlink:title=" ">
<polygon fill="none" stroke="black" points="137,-224.5 137,-243.5 250,-243.5 250,-224.5 137,-224.5"/>
<text text-anchor="middle" x="193.5" y="-231.5" font-family="Helvetica,sans-Serif" font-size="10.00">fitdatamessage_p.h</text>
</a>
</g>
</g>
<!-- Node8&#45;&gt;Node9 -->
<g id="edge9" class="edge">
<title>Node8&#45;&gt;Node9</title>
<path fill="none" stroke="midnightblue" d="M204.35,-280.08C202.63,-272.93 200.15,-262.64 198,-253.69"/>
<polygon fill="midnightblue" stroke="midnightblue" points="201.35,-252.65 195.61,-243.75 194.54,-254.29 201.35,-252.65"/>
</g>
<!-- Node9&#45;&gt;Node4 -->
<g id="edge10" class="edge">
<title>Node9&#45;&gt;Node4</title>
<path fill="none" stroke="midnightblue" d="M189.58,-224.48C181.74,-207.24 163.82,-166.92 151.5,-132 146,-116.41 140.81,-98.33 137.25,-85.21"/>
<polygon fill="midnightblue" stroke="midnightblue" points="140.62,-84.27 134.67,-75.51 133.86,-86.07 140.62,-84.27"/>
</g>
<!-- Node9&#45;&gt;Node6 -->
<g id="edge11" class="edge">
<title>Node9&#45;&gt;Node6</title>
<path fill="none" stroke="midnightblue" d="M193.03,-224.37C192.06,-206.62 189.83,-165.67 188.51,-141.6"/>
<polygon fill="midnightblue" stroke="midnightblue" points="192.01,-141.39 187.97,-131.59 185.02,-141.77 192.01,-141.39"/>
</g>
<!-- Node10 -->
<g id="node10" class="node">
<title>Node10</title>
<g id="a_node10"><a xlink:href="types__p_8h.html" target="_top" xlink:title=" ">
<polygon fill="none" stroke="black" points="209.5,-168.5 209.5,-187.5 273.5,-187.5 273.5,-168.5 209.5,-168.5"/>
<text text-anchor="middle" x="241.5" y="-175.5" font-family="Helvetica,sans-Serif" font-size="10.00">types_p.h</text>
</a>
</g>
</g>
<!-- Node9&#45;&gt;Node10 -->
<g id="edge12" class="edge">
<title>Node9&#45;&gt;Node10</title>
<path fill="none" stroke="midnightblue" d="M201.43,-224.08C208.35,-216.3 218.57,-204.8 226.95,-195.37"/>
<polygon fill="midnightblue" stroke="midnightblue" points="229.69,-197.55 233.72,-187.75 224.46,-192.9 229.69,-197.55"/>
</g>
<!-- Node10&#45;&gt;Node6 -->
<g id="edge13" class="edge">
<title>Node10&#45;&gt;Node6</title>
<path fill="none" stroke="midnightblue" d="M232.58,-168.08C224.72,-160.22 213.07,-148.57 203.58,-139.08"/>
<polygon fill="midnightblue" stroke="midnightblue" points="205.8,-136.35 196.25,-131.75 200.85,-141.3 205.8,-136.35"/>
</g>
<!-- Node11 -->
<g id="node11" class="node">
<title>Node11</title>
<g id="a_node11"><a xlink:title=" ">
<polygon fill="none" stroke="#bfbfbf" points="232,-112.5 232,-131.5 273,-131.5 273,-112.5 232,-112.5"/>
<text text-anchor="middle" x="252.5" y="-119.5" font-family="Helvetica,sans-Serif" font-size="10.00">QList</text>
</a>
</g>
</g>
<!-- Node10&#45;&gt;Node11 -->
<g id="edge14" class="edge">
<title>Node10&#45;&gt;Node11</title>
<path fill="none" stroke="midnightblue" d="M243.32,-168.08C244.77,-160.93 246.87,-150.64 248.69,-141.69"/>
<polygon fill="midnightblue" stroke="midnightblue" points="252.15,-142.25 250.72,-131.75 245.29,-140.85 252.15,-142.25"/>
</g>
</g>
</svg>
