<?xml version="1.0" encoding="UTF-8" standalone="no"?>
<!DOCTYPE svg PUBLIC "-//W3C//DTD SVG 1.1//EN"
 "http://www.w3.org/Graphics/SVG/1.1/DTD/svg11.dtd">
<!-- Generated by graphviz version 2.43.0 (0)
 -->
<!-- Title: devicesettingsmessage.cpp Pages: 1 -->
<svg width="437pt" height="364pt"
 viewBox="0.00 0.00 437.00 364.00" xmlns="http://www.w3.org/2000/svg" xmlns:xlink="http://www.w3.org/1999/xlink">
<g id="graph0" class="graph" transform="scale(1 1) rotate(0) translate(4 360)">
<title>devicesettingsmessage.cpp</title>
<!-- Node1 -->
<g id="node1" class="node">
<title>Node1</title>
<g id="a_node1"><a xlink:title="Defines the DeviceSettingsMessage, and DeviceSettingsMessagePrivate classes.">
<polygon fill="#bfbfbf" stroke="black" points="211.5,-336.5 211.5,-355.5 363.5,-355.5 363.5,-336.5 211.5,-336.5"/>
<text text-anchor="middle" x="287.5" y="-343.5" font-family="Helvetica,sans-Serif" font-size="10.00">devicesettingsmessage.cpp</text>
</a>
</g>
</g>
<!-- Node2 -->
<g id="node2" class="node">
<title>Node2</title>
<g id="a_node2"><a xlink:href="devicesettingsmessage_8h.html" target="_top" xlink:title="Declares the DeviceSettingsMessage class.">
<polygon fill="none" stroke="black" points="0,-280.5 0,-299.5 141,-299.5 141,-280.5 0,-280.5"/>
<text text-anchor="middle" x="70.5" y="-287.5" font-family="Helvetica,sans-Serif" font-size="10.00">devicesettingsmessage.h</text>
</a>
</g>
</g>
<!-- Node1&#45;&gt;Node2 -->
<g id="edge1" class="edge">
<title>Node1&#45;&gt;Node2</title>
<path fill="none" stroke="midnightblue" d="M253.12,-336.44C215.58,-327.1 155.37,-312.12 114.43,-301.93"/>
<polygon fill="midnightblue" stroke="midnightblue" points="115.27,-298.53 104.72,-299.52 113.58,-305.33 115.27,-298.53"/>
</g>
<!-- Node7 -->
<g id="node7" class="node">
<title>Node7</title>
<g id="a_node7"><a xlink:title=" ">
<polygon fill="none" stroke="#bfbfbf" points="270.5,-56.5 270.5,-75.5 326.5,-75.5 326.5,-56.5 270.5,-56.5"/>
<text text-anchor="middle" x="298.5" y="-63.5" font-family="Helvetica,sans-Serif" font-size="10.00">QDebug</text>
</a>
</g>
</g>
<!-- Node1&#45;&gt;Node7 -->
<g id="edge15" class="edge">
<title>Node1&#45;&gt;Node7</title>
<path fill="none" stroke="midnightblue" d="M295.33,-336.3C302.74,-327.65 313.72,-313.73 320.5,-300 333.82,-273.01 339.5,-265.1 339.5,-235 339.5,-235 339.5,-235 339.5,-177 339.5,-142.52 321.59,-105.56 309.44,-84.47"/>
<polygon fill="midnightblue" stroke="midnightblue" points="312.34,-82.49 304.2,-75.71 306.34,-86.09 312.34,-82.49"/>
</g>
<!-- Node8 -->
<g id="node8" class="node">
<title>Node8</title>
<g id="a_node8"><a xlink:href="devicesettingsmessage__p_8h.html" target="_top" xlink:title="Declares the DeviceSettingsMessagePrivate class.">
<polygon fill="none" stroke="black" points="159.5,-280.5 159.5,-299.5 311.5,-299.5 311.5,-280.5 159.5,-280.5"/>
<text text-anchor="middle" x="235.5" y="-287.5" font-family="Helvetica,sans-Serif" font-size="10.00">devicesettingsmessage_p.h</text>
</a>
</g>
</g>
<!-- Node1&#45;&gt;Node8 -->
<g id="edge8" class="edge">
<title>Node1&#45;&gt;Node8</title>
<path fill="none" stroke="midnightblue" d="M278.91,-336.08C271.34,-328.22 260.12,-316.57 250.99,-307.08"/>
<polygon fill="midnightblue" stroke="midnightblue" points="253.38,-304.53 243.93,-299.75 248.34,-309.38 253.38,-304.53"/>
</g>
<!-- Node12 -->
<g id="node12" class="node">
<title>Node12</title>
<g id="a_node12"><a xlink:title=" ">
<polygon fill="none" stroke="#bfbfbf" points="368,-280.5 368,-299.5 429,-299.5 429,-280.5 368,-280.5"/>
<text text-anchor="middle" x="398.5" y="-287.5" font-family="Helvetica,sans-Serif" font-size="10.00">QtEndian</text>
</a>
</g>
</g>
<!-- Node1&#45;&gt;Node12 -->
<g id="edge16" class="edge">
<title>Node1&#45;&gt;Node12</title>
<path fill="none" stroke="midnightblue" d="M305.33,-336.32C323.22,-327.62 350.98,-314.12 371.55,-304.11"/>
<polygon fill="midnightblue" stroke="midnightblue" points="373.25,-307.18 380.71,-299.65 370.19,-300.88 373.25,-307.18"/>
</g>
<!-- Node3 -->
<g id="node3" class="node">
<title>Node3</title>
<g id="a_node3"><a xlink:href="abstractdatamessage_8h.html" target="_top" xlink:title="Declares the AbstractDataMessage class.">
<polygon fill="none" stroke="black" points="10,-168.5 10,-187.5 141,-187.5 141,-168.5 10,-168.5"/>
<text text-anchor="middle" x="75.5" y="-175.5" font-family="Helvetica,sans-Serif" font-size="10.00">abstractdatamessage.h</text>
</a>
</g>
</g>
<!-- Node2&#45;&gt;Node3 -->
<g id="edge2" class="edge">
<title>Node2&#45;&gt;Node3</title>
<path fill="none" stroke="midnightblue" d="M70.89,-280.37C71.7,-262.62 73.56,-221.67 74.65,-197.6"/>
<polygon fill="midnightblue" stroke="midnightblue" points="78.15,-197.74 75.11,-187.59 71.16,-197.42 78.15,-197.74"/>
</g>
<!-- Node4 -->
<g id="node4" class="node">
<title>Node4</title>
<g id="a_node4"><a xlink:href="QtFit__global_8h.html" target="_top" xlink:title="Global QtFit library macros.">
<polygon fill="none" stroke="black" points="127.5,-56.5 127.5,-75.5 211.5,-75.5 211.5,-56.5 127.5,-56.5"/>
<text text-anchor="middle" x="169.5" y="-63.5" font-family="Helvetica,sans-Serif" font-size="10.00">QtFit_global.h</text>
</a>
</g>
</g>
<!-- Node3&#45;&gt;Node4 -->
<g id="edge3" class="edge">
<title>Node3&#45;&gt;Node4</title>
<path fill="none" stroke="midnightblue" d="M82.88,-168.37C98.53,-150.05 135.28,-107.05 155.52,-83.36"/>
<polygon fill="midnightblue" stroke="midnightblue" points="158.32,-85.47 162.16,-75.59 153,-80.92 158.32,-85.47"/>
</g>
<!-- Node6 -->
<g id="node6" class="node">
<title>Node6</title>
<g id="a_node6"><a xlink:href="types_8h.html" target="_top" xlink:title="Types defined by the ANT+ FIT SDK.">
<polygon fill="none" stroke="black" points="198,-112.5 198,-131.5 251,-131.5 251,-112.5 198,-112.5"/>
<text text-anchor="middle" x="224.5" y="-119.5" font-family="Helvetica,sans-Serif" font-size="10.00">types.h</text>
</a>
</g>
</g>
<!-- Node3&#45;&gt;Node6 -->
<g id="edge5" class="edge">
<title>Node3&#45;&gt;Node6</title>
<path fill="none" stroke="midnightblue" d="M99.11,-168.44C123.96,-159.44 163.27,-145.19 191.25,-135.05"/>
<polygon fill="midnightblue" stroke="midnightblue" points="192.79,-138.21 201,-131.52 190.41,-131.63 192.79,-138.21"/>
</g>
<!-- Node5 -->
<g id="node5" class="node">
<title>Node5</title>
<g id="a_node5"><a xlink:title=" ">
<polygon fill="none" stroke="#bfbfbf" points="140,-0.5 140,-19.5 199,-19.5 199,-0.5 140,-0.5"/>
<text text-anchor="middle" x="169.5" y="-7.5" font-family="Helvetica,sans-Serif" font-size="10.00">QtGlobal</text>
</a>
</g>
</g>
<!-- Node4&#45;&gt;Node5 -->
<g id="edge4" class="edge">
<title>Node4&#45;&gt;Node5</title>
<path fill="none" stroke="midnightblue" d="M169.5,-56.08C169.5,-49.01 169.5,-38.86 169.5,-29.99"/>
<polygon fill="midnightblue" stroke="midnightblue" points="173,-29.75 169.5,-19.75 166,-29.75 173,-29.75"/>
</g>
<!-- Node6&#45;&gt;Node4 -->
<g id="edge6" class="edge">
<title>Node6&#45;&gt;Node4</title>
<path fill="none" stroke="midnightblue" d="M215.42,-112.08C207.33,-104.14 195.3,-92.34 185.59,-82.8"/>
<polygon fill="midnightblue" stroke="midnightblue" points="188,-80.26 178.41,-75.75 183.1,-85.25 188,-80.26"/>
</g>
<!-- Node6&#45;&gt;Node7 -->
<g id="edge7" class="edge">
<title>Node6&#45;&gt;Node7</title>
<path fill="none" stroke="midnightblue" d="M236.39,-112.32C247.65,-104.11 264.79,-91.6 278.21,-81.81"/>
<polygon fill="midnightblue" stroke="midnightblue" points="280.38,-84.56 286.39,-75.83 276.25,-78.9 280.38,-84.56"/>
</g>
<!-- Node9 -->
<g id="node9" class="node">
<title>Node9</title>
<g id="a_node9"><a xlink:href="abstractdatamessage__p_8h.html" target="_top" xlink:title="Declares the AbstractDataMessagePrivate class.">
<polygon fill="none" stroke="black" points="156,-224.5 156,-243.5 299,-243.5 299,-224.5 156,-224.5"/>
<text text-anchor="middle" x="227.5" y="-231.5" font-family="Helvetica,sans-Serif" font-size="10.00">abstractdatamessage_p.h</text>
</a>
</g>
</g>
<!-- Node8&#45;&gt;Node9 -->
<g id="edge9" class="edge">
<title>Node8&#45;&gt;Node9</title>
<path fill="none" stroke="midnightblue" d="M234.18,-280.08C233.12,-272.93 231.59,-262.64 230.27,-253.69"/>
<polygon fill="midnightblue" stroke="midnightblue" points="233.72,-253.13 228.8,-243.75 226.8,-254.16 233.72,-253.13"/>
</g>
<!-- Node9&#45;&gt;Node4 -->
<g id="edge10" class="edge">
<title>Node9&#45;&gt;Node4</title>
<path fill="none" stroke="midnightblue" d="M223.91,-224.44C216.73,-207.15 200.25,-166.72 188.5,-132 183.26,-116.51 178.1,-98.67 174.49,-85.6"/>
<polygon fill="midnightblue" stroke="midnightblue" points="177.85,-84.63 171.85,-75.91 171.1,-86.47 177.85,-84.63"/>
</g>
<!-- Node9&#45;&gt;Node6 -->
<g id="edge11" class="edge">
<title>Node9&#45;&gt;Node6</title>
<path fill="none" stroke="midnightblue" d="M227.26,-224.37C226.78,-206.62 225.66,-165.67 225.01,-141.6"/>
<polygon fill="midnightblue" stroke="midnightblue" points="228.51,-141.49 224.73,-131.59 221.51,-141.68 228.51,-141.49"/>
</g>
<!-- Node10 -->
<g id="node10" class="node">
<title>Node10</title>
<g id="a_node10"><a xlink:href="types__p_8h.html" target="_top" xlink:title="Internal types used by QtFit classes.">
<polygon fill="none" stroke="black" points="247.5,-168.5 247.5,-187.5 311.5,-187.5 311.5,-168.5 247.5,-168.5"/>
<text text-anchor="middle" x="279.5" y="-175.5" font-family="Helvetica,sans-Serif" font-size="10.00">types_p.h</text>
</a>
</g>
</g>
<!-- Node9&#45;&gt;Node10 -->
<g id="edge12" class="edge">
<title>Node9&#45;&gt;Node10</title>
<path fill="none" stroke="midnightblue" d="M236.09,-224.08C243.66,-216.22 254.88,-204.57 264.01,-195.08"/>
<polygon fill="midnightblue" stroke="midnightblue" points="266.66,-197.38 271.07,-187.75 261.62,-192.53 266.66,-197.38"/>
</g>
<!-- Node10&#45;&gt;Node6 -->
<g id="edge13" class="edge">
<title>Node10&#45;&gt;Node6</title>
<path fill="none" stroke="midnightblue" d="M270.42,-168.08C262.33,-160.14 250.3,-148.34 240.59,-138.8"/>
<polygon fill="midnightblue" stroke="midnightblue" points="243,-136.26 233.41,-131.75 238.1,-141.25 243,-136.26"/>
</g>
<!-- Node11 -->
<g id="node11" class="node">
<title>Node11</title>
<g id="a_node11"><a xlink:title=" ">
<polygon fill="none" stroke="#bfbfbf" points="269,-112.5 269,-131.5 310,-131.5 310,-112.5 269,-112.5"/>
<text text-anchor="middle" x="289.5" y="-119.5" font-family="Helvetica,sans-Serif" font-size="10.00">QList</text>
</a>
</g>
</g>
<!-- Node10&#45;&gt;Node11 -->
<g id="edge14" class="edge">
<title>Node10&#45;&gt;Node11</title>
<path fill="none" stroke="midnightblue" d="M281.15,-168.08C282.48,-160.93 284.38,-150.64 286.04,-141.69"/>
<polygon fill="midnightblue" stroke="midnightblue" points="289.5,-142.22 287.88,-131.75 282.62,-140.95 289.5,-142.22"/>
</g>
</g>
</svg>
