<?xml version="1.0" encoding="UTF-8" standalone="no"?>
<!DOCTYPE svg PUBLIC "-//W3C//DTD SVG 1.1//EN"
 "http://www.w3.org/Graphics/SVG/1.1/DTD/svg11.dtd">
<!-- Generated by graphviz version 2.43.0 (0)
 -->
<!-- Title: deviceinfomessage_p.h Pages: 1 -->
<svg width="169pt" height="308pt"
 viewBox="0.00 0.00 168.50 308.00" xmlns="http://www.w3.org/2000/svg" xmlns:xlink="http://www.w3.org/1999/xlink">
<g id="graph0" class="graph" transform="scale(1 1) rotate(0) translate(4 304)">
<title>deviceinfomessage_p.h</title>
<!-- Node1 -->
<g id="node1" class="node">
<title>Node1</title>
<g id="a_node1"><a xlink:title=" ">
<polygon fill="#bfbfbf" stroke="black" points="0,-280.5 0,-299.5 132,-299.5 132,-280.5 0,-280.5"/>
<text text-anchor="middle" x="66" y="-287.5" font-family="Helvetica,sans-Serif" font-size="10.00">deviceinfomessage_p.h</text>
</a>
</g>
</g>
<!-- Node2 -->
<g id="node2" class="node">
<title>Node2</title>
<g id="a_node2"><a xlink:href="fitdatamessage__p_8h.html" target="_top" xlink:title=" ">
<polygon fill="none" stroke="black" points="9.5,-224.5 9.5,-243.5 122.5,-243.5 122.5,-224.5 9.5,-224.5"/>
<text text-anchor="middle" x="66" y="-231.5" font-family="Helvetica,sans-Serif" font-size="10.00">fitdatamessage_p.h</text>
</a>
</g>
</g>
<!-- Node1&#45;&gt;Node2 -->
<g id="edge1" class="edge">
<title>Node1&#45;&gt;Node2</title>
<path fill="none" stroke="midnightblue" d="M66,-280.08C66,-273.01 66,-262.86 66,-253.99"/>
<polygon fill="midnightblue" stroke="midnightblue" points="69.5,-253.75 66,-243.75 62.5,-253.75 69.5,-253.75"/>
</g>
<!-- Node3 -->
<g id="node3" class="node">
<title>Node3</title>
<g id="a_node3"><a xlink:href="QtFit__global_8h.html" target="_top" xlink:title=" ">
<polygon fill="none" stroke="black" points="5,-56.5 5,-75.5 89,-75.5 89,-56.5 5,-56.5"/>
<text text-anchor="middle" x="47" y="-63.5" font-family="Helvetica,sans-Serif" font-size="10.00">QtFit_global.h</text>
</a>
</g>
</g>
<!-- Node2&#45;&gt;Node3 -->
<g id="edge2" class="edge">
<title>Node2&#45;&gt;Node3</title>
<path fill="none" stroke="midnightblue" d="M62.15,-224.32C53.82,-204.61 35.22,-154.88 39,-112 39.78,-103.2 41.39,-93.54 42.97,-85.43"/>
<polygon fill="midnightblue" stroke="midnightblue" points="46.41,-86.07 45.01,-75.57 39.56,-84.65 46.41,-86.07"/>
</g>
<!-- Node5 -->
<g id="node5" class="node">
<title>Node5</title>
<g id="a_node5"><a xlink:href="types_8h.html" target="_top" xlink:title="Types defined by the ANT+ FIT SDK.">
<polygon fill="none" stroke="black" points="48.5,-112.5 48.5,-131.5 101.5,-131.5 101.5,-112.5 48.5,-112.5"/>
<text text-anchor="middle" x="75" y="-119.5" font-family="Helvetica,sans-Serif" font-size="10.00">types.h</text>
</a>
</g>
</g>
<!-- Node2&#45;&gt;Node5 -->
<g id="edge4" class="edge">
<title>Node2&#45;&gt;Node5</title>
<path fill="none" stroke="midnightblue" d="M66.71,-224.37C68.16,-206.62 71.51,-165.67 73.48,-141.6"/>
<polygon fill="midnightblue" stroke="midnightblue" points="76.97,-141.84 74.3,-131.59 69.99,-141.27 76.97,-141.84"/>
</g>
<!-- Node6 -->
<g id="node6" class="node">
<title>Node6</title>
<g id="a_node6"><a xlink:href="types__p_8h.html" target="_top" xlink:title=" ">
<polygon fill="none" stroke="black" points="94,-168.5 94,-187.5 158,-187.5 158,-168.5 94,-168.5"/>
<text text-anchor="middle" x="126" y="-175.5" font-family="Helvetica,sans-Serif" font-size="10.00">types_p.h</text>
</a>
</g>
</g>
<!-- Node2&#45;&gt;Node6 -->
<g id="edge6" class="edge">
<title>Node2&#45;&gt;Node6</title>
<path fill="none" stroke="midnightblue" d="M75.64,-224.32C84.51,-216.34 97.87,-204.31 108.61,-194.65"/>
<polygon fill="midnightblue" stroke="midnightblue" points="111.09,-197.13 116.18,-187.83 106.41,-191.92 111.09,-197.13"/>
</g>
<!-- Node4 -->
<g id="node4" class="node">
<title>Node4</title>
<g id="a_node4"><a xlink:title=" ">
<polygon fill="none" stroke="#bfbfbf" points="17.5,-0.5 17.5,-19.5 76.5,-19.5 76.5,-0.5 17.5,-0.5"/>
<text text-anchor="middle" x="47" y="-7.5" font-family="Helvetica,sans-Serif" font-size="10.00">QtGlobal</text>
</a>
</g>
</g>
<!-- Node3&#45;&gt;Node4 -->
<g id="edge3" class="edge">
<title>Node3&#45;&gt;Node4</title>
<path fill="none" stroke="midnightblue" d="M47,-56.08C47,-49.01 47,-38.86 47,-29.99"/>
<polygon fill="midnightblue" stroke="midnightblue" points="50.5,-29.75 47,-19.75 43.5,-29.75 50.5,-29.75"/>
</g>
<!-- Node5&#45;&gt;Node3 -->
<g id="edge5" class="edge">
<title>Node5&#45;&gt;Node3</title>
<path fill="none" stroke="midnightblue" d="M70.38,-112.08C66.54,-104.69 60.98,-93.95 56.24,-84.81"/>
<polygon fill="midnightblue" stroke="midnightblue" points="59.25,-83.02 51.54,-75.75 53.03,-86.24 59.25,-83.02"/>
</g>
<!-- Node6&#45;&gt;Node5 -->
<g id="edge7" class="edge">
<title>Node6&#45;&gt;Node5</title>
<path fill="none" stroke="midnightblue" d="M117.58,-168.08C110.15,-160.22 99.15,-148.57 90.19,-139.08"/>
<polygon fill="midnightblue" stroke="midnightblue" points="92.68,-136.62 83.26,-131.75 87.59,-141.42 92.68,-136.62"/>
</g>
<!-- Node7 -->
<g id="node7" class="node">
<title>Node7</title>
<g id="a_node7"><a xlink:title=" ">
<polygon fill="none" stroke="#bfbfbf" points="119.5,-112.5 119.5,-131.5 160.5,-131.5 160.5,-112.5 119.5,-112.5"/>
<text text-anchor="middle" x="140" y="-119.5" font-family="Helvetica,sans-Serif" font-size="10.00">QList</text>
</a>
</g>
</g>
<!-- Node6&#45;&gt;Node7 -->
<g id="edge8" class="edge">
<title>Node6&#45;&gt;Node7</title>
<path fill="none" stroke="midnightblue" d="M128.31,-168.08C130.17,-160.93 132.84,-150.64 135.15,-141.69"/>
<polygon fill="midnightblue" stroke="midnightblue" points="138.61,-142.31 137.73,-131.75 131.83,-140.55 138.61,-142.31"/>
</g>
</g>
</svg>
