<?xml version="1.0" encoding="UTF-8" standalone="no"?>
<!DOCTYPE svg PUBLIC "-//W3C//DTD SVG 1.1//EN"
 "http://www.w3.org/Graphics/SVG/1.1/DTD/svg11.dtd">
<!-- Generated by graphviz version 2.43.0 (0)
 -->
<!-- Title: devicesettingsmessage.h Pages: 1 -->
<svg width="149pt" height="252pt"
 viewBox="0.00 0.00 149.00 252.00" xmlns="http://www.w3.org/2000/svg" xmlns:xlink="http://www.w3.org/1999/xlink">
<g id="graph0" class="graph" transform="scale(1 1) rotate(0) translate(4 248)">
<title>devicesettingsmessage.h</title>
<!-- Node1 -->
<g id="node1" class="node">
<title>Node1</title>
<g id="a_node1"><a xlink:title=" ">
<polygon fill="#bfbfbf" stroke="black" points="0,-224.5 0,-243.5 141,-243.5 141,-224.5 0,-224.5"/>
<text text-anchor="middle" x="70.5" y="-231.5" font-family="Helvetica,sans-Serif" font-size="10.00">devicesettingsmessage.h</text>
</a>
</g>
</g>
<!-- Node2 -->
<g id="node2" class="node">
<title>Node2</title>
<g id="a_node2"><a xlink:href="fitdatamessage_8h.html" target="_top" xlink:title=" ">
<polygon fill="none" stroke="black" points="20,-168.5 20,-187.5 121,-187.5 121,-168.5 20,-168.5"/>
<text text-anchor="middle" x="70.5" y="-175.5" font-family="Helvetica,sans-Serif" font-size="10.00">fitdatamessage.h</text>
</a>
</g>
</g>
<!-- Node1&#45;&gt;Node2 -->
<g id="edge1" class="edge">
<title>Node1&#45;&gt;Node2</title>
<path fill="none" stroke="midnightblue" d="M70.5,-224.08C70.5,-217.01 70.5,-206.86 70.5,-197.99"/>
<polygon fill="midnightblue" stroke="midnightblue" points="74,-197.75 70.5,-187.75 67,-197.75 74,-197.75"/>
</g>
<!-- Node3 -->
<g id="node3" class="node">
<title>Node3</title>
<g id="a_node3"><a xlink:href="QtFit__global_8h.html" target="_top" xlink:title=" ">
<polygon fill="none" stroke="black" points="28.5,-56.5 28.5,-75.5 112.5,-75.5 112.5,-56.5 28.5,-56.5"/>
<text text-anchor="middle" x="70.5" y="-63.5" font-family="Helvetica,sans-Serif" font-size="10.00">QtFit_global.h</text>
</a>
</g>
</g>
<!-- Node2&#45;&gt;Node3 -->
<g id="edge2" class="edge">
<title>Node2&#45;&gt;Node3</title>
<path fill="none" stroke="midnightblue" d="M68.76,-168.42C67.03,-159.4 64.49,-144.77 63.5,-132 62.3,-116.42 64.41,-98.8 66.62,-85.84"/>
<polygon fill="midnightblue" stroke="midnightblue" points="70.1,-86.29 68.51,-75.82 63.22,-84.99 70.1,-86.29"/>
</g>
<!-- Node5 -->
<g id="node5" class="node">
<title>Node5</title>
<g id="a_node5"><a xlink:href="types_8h.html" target="_top" xlink:title="Types defined by the ANT+ FIT SDK.">
<polygon fill="none" stroke="black" points="72,-112.5 72,-131.5 125,-131.5 125,-112.5 72,-112.5"/>
<text text-anchor="middle" x="98.5" y="-119.5" font-family="Helvetica,sans-Serif" font-size="10.00">types.h</text>
</a>
</g>
</g>
<!-- Node2&#45;&gt;Node5 -->
<g id="edge4" class="edge">
<title>Node2&#45;&gt;Node5</title>
<path fill="none" stroke="midnightblue" d="M75.12,-168.08C78.96,-160.69 84.52,-149.95 89.26,-140.81"/>
<polygon fill="midnightblue" stroke="midnightblue" points="92.47,-142.24 93.96,-131.75 86.25,-139.02 92.47,-142.24"/>
</g>
<!-- Node4 -->
<g id="node4" class="node">
<title>Node4</title>
<g id="a_node4"><a xlink:title=" ">
<polygon fill="none" stroke="#bfbfbf" points="41,-0.5 41,-19.5 100,-19.5 100,-0.5 41,-0.5"/>
<text text-anchor="middle" x="70.5" y="-7.5" font-family="Helvetica,sans-Serif" font-size="10.00">QtGlobal</text>
</a>
</g>
</g>
<!-- Node3&#45;&gt;Node4 -->
<g id="edge3" class="edge">
<title>Node3&#45;&gt;Node4</title>
<path fill="none" stroke="midnightblue" d="M70.5,-56.08C70.5,-49.01 70.5,-38.86 70.5,-29.99"/>
<polygon fill="midnightblue" stroke="midnightblue" points="74,-29.75 70.5,-19.75 67,-29.75 74,-29.75"/>
</g>
<!-- Node5&#45;&gt;Node3 -->
<g id="edge5" class="edge">
<title>Node5&#45;&gt;Node3</title>
<path fill="none" stroke="midnightblue" d="M93.88,-112.08C90.04,-104.69 84.48,-93.95 79.74,-84.81"/>
<polygon fill="midnightblue" stroke="midnightblue" points="82.75,-83.02 75.04,-75.75 76.53,-86.24 82.75,-83.02"/>
</g>
</g>
</svg>
