<?xml version="1.0" encoding="UTF-8" standalone="no"?>
<!DOCTYPE svg PUBLIC "-//W3C//DTD SVG 1.1//EN"
 "http://www.w3.org/Graphics/SVG/1.1/DTD/svg11.dtd">
<!-- Generated by graphviz version 2.43.0 (0)
 -->
<!-- Title: devicesettingsmessage.cpp Pages: 1 -->
<svg width="320pt" height="364pt"
 viewBox="0.00 0.00 319.50 364.00" xmlns="http://www.w3.org/2000/svg" xmlns:xlink="http://www.w3.org/1999/xlink">
<g id="graph0" class="graph" transform="scale(1 1) rotate(0) translate(4 360)">
<title>devicesettingsmessage.cpp</title>
<!-- Node1 -->
<g id="node1" class="node">
<title>Node1</title>
<g id="a_node1"><a xlink:title=" ">
<polygon fill="#bfbfbf" stroke="black" points="82,-336.5 82,-355.5 234,-355.5 234,-336.5 82,-336.5"/>
<text text-anchor="middle" x="158" y="-343.5" font-family="Helvetica,sans-Serif" font-size="10.00">devicesettingsmessage.cpp</text>
</a>
</g>
</g>
<!-- Node2 -->
<g id="node2" class="node">
<title>Node2</title>
<g id="a_node2"><a xlink:href="devicesettingsmessage_8h.html" target="_top" xlink:title=" ">
<polygon fill="none" stroke="black" points="170.5,-280.5 170.5,-299.5 311.5,-299.5 311.5,-280.5 170.5,-280.5"/>
<text text-anchor="middle" x="241" y="-287.5" font-family="Helvetica,sans-Serif" font-size="10.00">devicesettingsmessage.h</text>
</a>
</g>
</g>
<!-- Node1&#45;&gt;Node2 -->
<g id="edge1" class="edge">
<title>Node1&#45;&gt;Node2</title>
<path fill="none" stroke="midnightblue" d="M171.34,-336.32C184.16,-327.98 203.78,-315.21 218.94,-305.35"/>
<polygon fill="midnightblue" stroke="midnightblue" points="221.22,-308.04 227.7,-299.65 217.41,-302.17 221.22,-308.04"/>
</g>
<!-- Node7 -->
<g id="node7" class="node">
<title>Node7</title>
<g id="a_node7"><a xlink:href="devicesettingsmessage__p_8h.html" target="_top" xlink:title=" ">
<polygon fill="none" stroke="black" points="0,-280.5 0,-299.5 152,-299.5 152,-280.5 0,-280.5"/>
<text text-anchor="middle" x="76" y="-287.5" font-family="Helvetica,sans-Serif" font-size="10.00">devicesettingsmessage_p.h</text>
</a>
</g>
</g>
<!-- Node1&#45;&gt;Node7 -->
<g id="edge7" class="edge">
<title>Node1&#45;&gt;Node7</title>
<path fill="none" stroke="midnightblue" d="M144.83,-336.32C132.15,-327.98 112.77,-315.21 97.79,-305.35"/>
<polygon fill="midnightblue" stroke="midnightblue" points="99.42,-302.23 89.14,-299.65 95.57,-308.08 99.42,-302.23"/>
</g>
<!-- Node3 -->
<g id="node3" class="node">
<title>Node3</title>
<g id="a_node3"><a xlink:href="fitdatamessage_8h.html" target="_top" xlink:title=" ">
<polygon fill="none" stroke="black" points="183.5,-168.5 183.5,-187.5 284.5,-187.5 284.5,-168.5 183.5,-168.5"/>
<text text-anchor="middle" x="234" y="-175.5" font-family="Helvetica,sans-Serif" font-size="10.00">fitdatamessage.h</text>
</a>
</g>
</g>
<!-- Node2&#45;&gt;Node3 -->
<g id="edge2" class="edge">
<title>Node2&#45;&gt;Node3</title>
<path fill="none" stroke="midnightblue" d="M240.45,-280.37C239.32,-262.62 236.72,-221.67 235.18,-197.6"/>
<polygon fill="midnightblue" stroke="midnightblue" points="238.67,-197.35 234.55,-187.59 231.69,-197.79 238.67,-197.35"/>
</g>
<!-- Node4 -->
<g id="node4" class="node">
<title>Node4</title>
<g id="a_node4"><a xlink:href="QtFit__global_8h.html" target="_top" xlink:title=" ">
<polygon fill="none" stroke="black" points="115,-56.5 115,-75.5 199,-75.5 199,-56.5 115,-56.5"/>
<text text-anchor="middle" x="157" y="-63.5" font-family="Helvetica,sans-Serif" font-size="10.00">QtFit_global.h</text>
</a>
</g>
</g>
<!-- Node3&#45;&gt;Node4 -->
<g id="edge3" class="edge">
<title>Node3&#45;&gt;Node4</title>
<path fill="none" stroke="midnightblue" d="M228.99,-168.39C221.54,-155.75 206.93,-131.56 193,-112 186.11,-102.32 177.86,-91.94 171.01,-83.59"/>
<polygon fill="midnightblue" stroke="midnightblue" points="173.56,-81.19 164.47,-75.74 168.18,-85.66 173.56,-81.19"/>
</g>
<!-- Node6 -->
<g id="node6" class="node">
<title>Node6</title>
<g id="a_node6"><a xlink:href="types_8h.html" target="_top" xlink:title="Types defined by the ANT+ FIT SDK.">
<polygon fill="none" stroke="black" points="130.5,-112.5 130.5,-131.5 183.5,-131.5 183.5,-112.5 130.5,-112.5"/>
<text text-anchor="middle" x="157" y="-119.5" font-family="Helvetica,sans-Serif" font-size="10.00">types.h</text>
</a>
</g>
</g>
<!-- Node3&#45;&gt;Node6 -->
<g id="edge5" class="edge">
<title>Node3&#45;&gt;Node6</title>
<path fill="none" stroke="midnightblue" d="M221.63,-168.32C209.84,-160.06 191.87,-147.45 177.86,-137.63"/>
<polygon fill="midnightblue" stroke="midnightblue" points="179.54,-134.53 169.34,-131.65 175.52,-140.26 179.54,-134.53"/>
</g>
<!-- Node5 -->
<g id="node5" class="node">
<title>Node5</title>
<g id="a_node5"><a xlink:title=" ">
<polygon fill="none" stroke="#bfbfbf" points="127.5,-0.5 127.5,-19.5 186.5,-19.5 186.5,-0.5 127.5,-0.5"/>
<text text-anchor="middle" x="157" y="-7.5" font-family="Helvetica,sans-Serif" font-size="10.00">QtGlobal</text>
</a>
</g>
</g>
<!-- Node4&#45;&gt;Node5 -->
<g id="edge4" class="edge">
<title>Node4&#45;&gt;Node5</title>
<path fill="none" stroke="midnightblue" d="M157,-56.08C157,-49.01 157,-38.86 157,-29.99"/>
<polygon fill="midnightblue" stroke="midnightblue" points="160.5,-29.75 157,-19.75 153.5,-29.75 160.5,-29.75"/>
</g>
<!-- Node6&#45;&gt;Node4 -->
<g id="edge6" class="edge">
<title>Node6&#45;&gt;Node4</title>
<path fill="none" stroke="midnightblue" d="M157,-112.08C157,-105.01 157,-94.86 157,-85.99"/>
<polygon fill="midnightblue" stroke="midnightblue" points="160.5,-85.75 157,-75.75 153.5,-85.75 160.5,-85.75"/>
</g>
<!-- Node8 -->
<g id="node8" class="node">
<title>Node8</title>
<g id="a_node8"><a xlink:href="fitdatamessage__p_8h.html" target="_top" xlink:title=" ">
<polygon fill="none" stroke="black" points="32.5,-224.5 32.5,-243.5 145.5,-243.5 145.5,-224.5 32.5,-224.5"/>
<text text-anchor="middle" x="89" y="-231.5" font-family="Helvetica,sans-Serif" font-size="10.00">fitdatamessage_p.h</text>
</a>
</g>
</g>
<!-- Node7&#45;&gt;Node8 -->
<g id="edge8" class="edge">
<title>Node7&#45;&gt;Node8</title>
<path fill="none" stroke="midnightblue" d="M78.15,-280.08C79.87,-272.93 82.35,-262.64 84.5,-253.69"/>
<polygon fill="midnightblue" stroke="midnightblue" points="87.96,-254.29 86.89,-243.75 81.15,-252.65 87.96,-254.29"/>
</g>
<!-- Node8&#45;&gt;Node4 -->
<g id="edge9" class="edge">
<title>Node8&#45;&gt;Node4</title>
<path fill="none" stroke="midnightblue" d="M79.44,-224.45C70.91,-216.12 59.01,-202.6 54,-188 47.44,-168.88 55.37,-120.99 62,-112 73.6,-96.26 92.14,-85.81 109.77,-78.98"/>
<polygon fill="midnightblue" stroke="midnightblue" points="111.17,-82.2 119.42,-75.55 108.82,-75.6 111.17,-82.2"/>
</g>
<!-- Node8&#45;&gt;Node6 -->
<g id="edge10" class="edge">
<title>Node8&#45;&gt;Node6</title>
<path fill="none" stroke="midnightblue" d="M101.04,-224.28C111.63,-216.03 126.76,-202.74 136,-188 144.95,-173.71 150.44,-155.24 153.55,-141.65"/>
<polygon fill="midnightblue" stroke="midnightblue" points="157.03,-142.07 155.62,-131.57 150.18,-140.66 157.03,-142.07"/>
</g>
<!-- Node9 -->
<g id="node9" class="node">
<title>Node9</title>
<g id="a_node9"><a xlink:href="types__p_8h.html" target="_top" xlink:title=" ">
<polygon fill="none" stroke="black" points="63,-168.5 63,-187.5 127,-187.5 127,-168.5 63,-168.5"/>
<text text-anchor="middle" x="95" y="-175.5" font-family="Helvetica,sans-Serif" font-size="10.00">types_p.h</text>
</a>
</g>
</g>
<!-- Node8&#45;&gt;Node9 -->
<g id="edge11" class="edge">
<title>Node8&#45;&gt;Node9</title>
<path fill="none" stroke="midnightblue" d="M89.99,-224.08C90.79,-216.93 91.93,-206.64 92.92,-197.69"/>
<polygon fill="midnightblue" stroke="midnightblue" points="96.4,-198.08 94.03,-187.75 89.44,-197.3 96.4,-198.08"/>
</g>
<!-- Node9&#45;&gt;Node6 -->
<g id="edge12" class="edge">
<title>Node9&#45;&gt;Node6</title>
<path fill="none" stroke="midnightblue" d="M104.96,-168.32C114.13,-160.34 127.94,-148.31 139.03,-138.65"/>
<polygon fill="midnightblue" stroke="midnightblue" points="141.62,-141.04 146.86,-131.83 137.02,-135.76 141.62,-141.04"/>
</g>
<!-- Node10 -->
<g id="node10" class="node">
<title>Node10</title>
<g id="a_node10"><a xlink:title=" ">
<polygon fill="none" stroke="#bfbfbf" points="71.5,-112.5 71.5,-131.5 112.5,-131.5 112.5,-112.5 71.5,-112.5"/>
<text text-anchor="middle" x="92" y="-119.5" font-family="Helvetica,sans-Serif" font-size="10.00">QList</text>
</a>
</g>
</g>
<!-- Node9&#45;&gt;Node10 -->
<g id="edge13" class="edge">
<title>Node9&#45;&gt;Node10</title>
<path fill="none" stroke="midnightblue" d="M94.5,-168.08C94.11,-161.01 93.55,-150.86 93.05,-141.99"/>
<polygon fill="midnightblue" stroke="midnightblue" points="96.54,-141.54 92.49,-131.75 89.55,-141.93 96.54,-141.54"/>
</g>
</g>
</svg>
