<?xml version="1.0" encoding="UTF-8" standalone="no"?>
<!DOCTYPE svg PUBLIC "-//W3C//DTD SVG 1.1//EN"
 "http://www.w3.org/Graphics/SVG/1.1/DTD/svg11.dtd">
<!-- Generated by graphviz version 2.43.0 (0)
 -->
<!-- Title: devicesettingsmessage.cpp Pages: 1 -->
<svg width="437pt" height="364pt"
 viewBox="0.00 0.00 437.00 364.00" xmlns="http://www.w3.org/2000/svg" xmlns:xlink="http://www.w3.org/1999/xlink">
<g id="graph0" class="graph" transform="scale(1 1) rotate(0) translate(4 360)">
<title>devicesettingsmessage.cpp</title>
<!-- Node1 -->
<g id="node1" class="node">
<title>Node1</title>
<g id="a_node1"><a xlink:title=" ">
<polygon fill="#bfbfbf" stroke="black" points="211.5,-336.5 211.5,-355.5 363.5,-355.5 363.5,-336.5 211.5,-336.5"/>
<text text-anchor="middle" x="287.5" y="-343.5" font-family="Helvetica,sans-Serif" font-size="10.00">devicesettingsmessage.cpp</text>
</a>
</g>
</g>
<!-- Node2 -->
<g id="node2" class="node">
<title>Node2</title>
<g id="a_node2"><a xlink:href="devicesettingsmessage_8h.html" target="_top" xlink:title=" ">
<polygon fill="none" stroke="black" points="0,-280.5 0,-299.5 141,-299.5 141,-280.5 0,-280.5"/>
<text text-anchor="middle" x="70.5" y="-287.5" font-family="Helvetica,sans-Serif" font-size="10.00">devicesettingsmessage.h</text>
</a>
</g>
</g>
<!-- Node1&#45;&gt;Node2 -->
<g id="edge1" class="edge">
<title>Node1&#45;&gt;Node2</title>
<path fill="none" stroke="midnightblue" d="M253.12,-336.44C215.58,-327.1 155.37,-312.12 114.43,-301.93"/>
<polygon fill="midnightblue" stroke="midnightblue" points="115.27,-298.53 104.72,-299.52 113.58,-305.33 115.27,-298.53"/>
</g>
<!-- Node7 -->
<g id="node7" class="node">
<title>Node7</title>
<g id="a_node7"><a xlink:title=" ">
<polygon fill="none" stroke="#bfbfbf" points="270.5,-56.5 270.5,-75.5 326.5,-75.5 326.5,-56.5 270.5,-56.5"/>
<text text-anchor="middle" x="298.5" y="-63.5" font-family="Helvetica,sans-Serif" font-size="10.00">QDebug</text>
</a>
</g>
</g>
<!-- Node1&#45;&gt;Node7 -->
<g id="edge15" class="edge">
<title>Node1&#45;&gt;Node7</title>
<path fill="none" stroke="midnightblue" d="M295.33,-336.3C302.74,-327.65 313.72,-313.73 320.5,-300 333.82,-273.01 339.5,-265.1 339.5,-235 339.5,-235 339.5,-235 339.5,-177 339.5,-142.52 321.59,-105.56 309.44,-84.47"/>
<polygon fill="midnightblue" stroke="midnightblue" points="312.34,-82.49 304.2,-75.71 306.34,-86.09 312.34,-82.49"/>
</g>
<!-- Node8 -->
<g id="node8" class="node">
<title>Node8</title>
<g id="a_node8"><a xlink:href="devicesettingsmessage__p_8h.html" target="_top" xlink:title=" ">
<polygon fill="none" stroke="black" points="159.5,-280.5 159.5,-299.5 311.5,-299.5 311.5,-280.5 159.5,-280.5"/>
<text text-anchor="middle" x="235.5" y="-287.5" font-family="Helvetica,sans-Serif" font-size="10.00">devicesettingsmessage_p.h</text>
</a>
</g>
</g>
<!-- Node1&#45;&gt;Node8 -->
<g id="edge8" class="edge">
<title>Node1&#45;&gt;Node8</title>
<path fill="none" stroke="midnightblue" d="M278.91,-336.08C271.34,-328.22 260.12,-316.57 250.99,-307.08"/>
<polygon fill="midnightblue" stroke="midnightblue" points="253.38,-304.53 243.93,-299.75 248.34,-309.38 253.38,-304.53"/>
</g>
<!-- Node12 -->
<g id="node12" class="node">
<title>Node12</title>
<g id="a_node12"><a xlink:title=" ">
<polygon fill="none" stroke="#bfbfbf" points="368,-280.5 368,-299.5 429,-299.5 429,-280.5 368,-280.5"/>
<text text-anchor="middle" x="398.5" y="-287.5" font-family="Helvetica,sans-Serif" font-size="10.00">QtEndian</text>
</a>
</g>
</g>
<!-- Node1&#45;&gt;Node12 -->
<g id="edge16" class="edge">
<title>Node1&#45;&gt;Node12</title>
<path fill="none" stroke="midnightblue" d="M305.33,-336.32C323.22,-327.62 350.98,-314.12 371.55,-304.11"/>
<polygon fill="midnightblue" stroke="midnightblue" points="373.25,-307.18 380.71,-299.65 370.19,-300.88 373.25,-307.18"/>
</g>
<!-- Node3 -->
<g id="node3" class="node">
<title>Node3</title>
<g id="a_node3"><a xlink:href="fitdatamessage_8h.html" target="_top" xlink:title=" ">
<polygon fill="none" stroke="black" points="38,-168.5 38,-187.5 139,-187.5 139,-168.5 38,-168.5"/>
<text text-anchor="middle" x="88.5" y="-175.5" font-family="Helvetica,sans-Serif" font-size="10.00">fitdatamessage.h</text>
</a>
</g>
</g>
<!-- Node2&#45;&gt;Node3 -->
<g id="edge2" class="edge">
<title>Node2&#45;&gt;Node3</title>
<path fill="none" stroke="midnightblue" d="M71.91,-280.37C74.82,-262.62 81.52,-221.67 85.46,-197.6"/>
<polygon fill="midnightblue" stroke="midnightblue" points="88.93,-198.03 87.09,-187.59 82.03,-196.89 88.93,-198.03"/>
</g>
<!-- Node4 -->
<g id="node4" class="node">
<title>Node4</title>
<g id="a_node4"><a xlink:href="QtFit__global_8h.html" target="_top" xlink:title=" ">
<polygon fill="none" stroke="black" points="125.5,-56.5 125.5,-75.5 209.5,-75.5 209.5,-56.5 125.5,-56.5"/>
<text text-anchor="middle" x="167.5" y="-63.5" font-family="Helvetica,sans-Serif" font-size="10.00">QtFit_global.h</text>
</a>
</g>
</g>
<!-- Node3&#45;&gt;Node4 -->
<g id="edge3" class="edge">
<title>Node3&#45;&gt;Node4</title>
<path fill="none" stroke="midnightblue" d="M94.7,-168.37C107.74,-150.22 138.2,-107.8 155.3,-83.99"/>
<polygon fill="midnightblue" stroke="midnightblue" points="158.34,-85.76 161.33,-75.59 152.65,-81.67 158.34,-85.76"/>
</g>
<!-- Node6 -->
<g id="node6" class="node">
<title>Node6</title>
<g id="a_node6"><a xlink:href="types_8h.html" target="_top" xlink:title="Types defined by the ANT+ FIT SDK.">
<polygon fill="none" stroke="black" points="196,-112.5 196,-131.5 249,-131.5 249,-112.5 196,-112.5"/>
<text text-anchor="middle" x="222.5" y="-119.5" font-family="Helvetica,sans-Serif" font-size="10.00">types.h</text>
</a>
</g>
</g>
<!-- Node3&#45;&gt;Node6 -->
<g id="edge5" class="edge">
<title>Node3&#45;&gt;Node6</title>
<path fill="none" stroke="midnightblue" d="M109.73,-168.44C131.88,-159.52 166.82,-145.44 191.94,-135.32"/>
<polygon fill="midnightblue" stroke="midnightblue" points="193.4,-138.5 201.37,-131.52 190.78,-132.01 193.4,-138.5"/>
</g>
<!-- Node5 -->
<g id="node5" class="node">
<title>Node5</title>
<g id="a_node5"><a xlink:title=" ">
<polygon fill="none" stroke="#bfbfbf" points="138,-0.5 138,-19.5 197,-19.5 197,-0.5 138,-0.5"/>
<text text-anchor="middle" x="167.5" y="-7.5" font-family="Helvetica,sans-Serif" font-size="10.00">QtGlobal</text>
</a>
</g>
</g>
<!-- Node4&#45;&gt;Node5 -->
<g id="edge4" class="edge">
<title>Node4&#45;&gt;Node5</title>
<path fill="none" stroke="midnightblue" d="M167.5,-56.08C167.5,-49.01 167.5,-38.86 167.5,-29.99"/>
<polygon fill="midnightblue" stroke="midnightblue" points="171,-29.75 167.5,-19.75 164,-29.75 171,-29.75"/>
</g>
<!-- Node6&#45;&gt;Node4 -->
<g id="edge6" class="edge">
<title>Node6&#45;&gt;Node4</title>
<path fill="none" stroke="midnightblue" d="M213.42,-112.08C205.33,-104.14 193.3,-92.34 183.59,-82.8"/>
<polygon fill="midnightblue" stroke="midnightblue" points="186,-80.26 176.41,-75.75 181.1,-85.25 186,-80.26"/>
</g>
<!-- Node6&#45;&gt;Node7 -->
<g id="edge7" class="edge">
<title>Node6&#45;&gt;Node7</title>
<path fill="none" stroke="midnightblue" d="M234.71,-112.32C246.28,-104.11 263.88,-91.6 277.66,-81.81"/>
<polygon fill="midnightblue" stroke="midnightblue" points="279.94,-84.48 286.07,-75.83 275.89,-78.77 279.94,-84.48"/>
</g>
<!-- Node9 -->
<g id="node9" class="node">
<title>Node9</title>
<g id="a_node9"><a xlink:href="fitdatamessage__p_8h.html" target="_top" xlink:title=" ">
<polygon fill="none" stroke="black" points="171,-224.5 171,-243.5 284,-243.5 284,-224.5 171,-224.5"/>
<text text-anchor="middle" x="227.5" y="-231.5" font-family="Helvetica,sans-Serif" font-size="10.00">fitdatamessage_p.h</text>
</a>
</g>
</g>
<!-- Node8&#45;&gt;Node9 -->
<g id="edge9" class="edge">
<title>Node8&#45;&gt;Node9</title>
<path fill="none" stroke="midnightblue" d="M234.18,-280.08C233.12,-272.93 231.59,-262.64 230.27,-253.69"/>
<polygon fill="midnightblue" stroke="midnightblue" points="233.72,-253.13 228.8,-243.75 226.8,-254.16 233.72,-253.13"/>
</g>
<!-- Node9&#45;&gt;Node4 -->
<g id="edge10" class="edge">
<title>Node9&#45;&gt;Node4</title>
<path fill="none" stroke="midnightblue" d="M223.69,-224.47C216.07,-207.21 198.63,-166.85 186.5,-132 181.06,-116.39 175.87,-98.31 172.29,-85.19"/>
<polygon fill="midnightblue" stroke="midnightblue" points="175.66,-84.25 169.69,-75.5 168.9,-86.07 175.66,-84.25"/>
</g>
<!-- Node9&#45;&gt;Node6 -->
<g id="edge11" class="edge">
<title>Node9&#45;&gt;Node6</title>
<path fill="none" stroke="midnightblue" d="M227.11,-224.37C226.3,-206.62 224.44,-165.67 223.35,-141.6"/>
<polygon fill="midnightblue" stroke="midnightblue" points="226.84,-141.42 222.89,-131.59 219.85,-141.74 226.84,-141.42"/>
</g>
<!-- Node10 -->
<g id="node10" class="node">
<title>Node10</title>
<g id="a_node10"><a xlink:href="types__p_8h.html" target="_top" xlink:title=" ">
<polygon fill="none" stroke="black" points="247.5,-168.5 247.5,-187.5 311.5,-187.5 311.5,-168.5 247.5,-168.5"/>
<text text-anchor="middle" x="279.5" y="-175.5" font-family="Helvetica,sans-Serif" font-size="10.00">types_p.h</text>
</a>
</g>
</g>
<!-- Node9&#45;&gt;Node10 -->
<g id="edge12" class="edge">
<title>Node9&#45;&gt;Node10</title>
<path fill="none" stroke="midnightblue" d="M236.09,-224.08C243.66,-216.22 254.88,-204.57 264.01,-195.08"/>
<polygon fill="midnightblue" stroke="midnightblue" points="266.66,-197.38 271.07,-187.75 261.62,-192.53 266.66,-197.38"/>
</g>
<!-- Node10&#45;&gt;Node6 -->
<g id="edge13" class="edge">
<title>Node10&#45;&gt;Node6</title>
<path fill="none" stroke="midnightblue" d="M270.34,-168.32C262,-160.42 249.47,-148.55 239.32,-138.94"/>
<polygon fill="midnightblue" stroke="midnightblue" points="241.49,-136.17 231.82,-131.83 236.68,-141.25 241.49,-136.17"/>
</g>
<!-- Node11 -->
<g id="node11" class="node">
<title>Node11</title>
<g id="a_node11"><a xlink:title=" ">
<polygon fill="none" stroke="#bfbfbf" points="267,-112.5 267,-131.5 308,-131.5 308,-112.5 267,-112.5"/>
<text text-anchor="middle" x="287.5" y="-119.5" font-family="Helvetica,sans-Serif" font-size="10.00">QList</text>
</a>
</g>
</g>
<!-- Node10&#45;&gt;Node11 -->
<g id="edge14" class="edge">
<title>Node10&#45;&gt;Node11</title>
<path fill="none" stroke="midnightblue" d="M280.82,-168.08C281.88,-160.93 283.41,-150.64 284.73,-141.69"/>
<polygon fill="midnightblue" stroke="midnightblue" points="288.2,-142.16 286.2,-131.75 281.28,-141.13 288.2,-142.16"/>
</g>
</g>
</svg>
