<?xml version="1.0" encoding="UTF-8" standalone="no"?>
<!DOCTYPE svg PUBLIC "-//W3C//DTD SVG 1.1//EN"
 "http://www.w3.org/Graphics/SVG/1.1/DTD/svg11.dtd">
<!-- Generated by graphviz version 2.43.0 (0)
 -->
<!-- Title: divesettingsmessage.h Pages: 1 -->
<svg width="166pt" height="252pt"
 viewBox="0.00 0.00 166.00 252.00" xmlns="http://www.w3.org/2000/svg" xmlns:xlink="http://www.w3.org/1999/xlink">
<g id="graph0" class="graph" transform="scale(1 1) rotate(0) translate(4 248)">
<title>divesettingsmessage.h</title>
<!-- Node1 -->
<g id="node1" class="node">
<title>Node1</title>
<g id="a_node1"><a xlink:title=" ">
<polygon fill="#bfbfbf" stroke="black" points="4,-224.5 4,-243.5 134,-243.5 134,-224.5 4,-224.5"/>
<text text-anchor="middle" x="69" y="-231.5" font-family="Helvetica,sans-Serif" font-size="10.00">divesettingsmessage.h</text>
</a>
</g>
</g>
<!-- Node2 -->
<g id="node2" class="node">
<title>Node2</title>
<g id="a_node2"><a xlink:href="abstractdatamessage_8h_source.html" target="_top" xlink:title=" ">
<polygon fill="none" stroke="black" points="3.5,-168.5 3.5,-187.5 134.5,-187.5 134.5,-168.5 3.5,-168.5"/>
<text text-anchor="middle" x="69" y="-175.5" font-family="Helvetica,sans-Serif" font-size="10.00">abstractdatamessage.h</text>
</a>
</g>
</g>
<!-- Node1&#45;&gt;Node2 -->
<g id="edge1" class="edge">
<title>Node1&#45;&gt;Node2</title>
<path fill="none" stroke="midnightblue" d="M69,-224.08C69,-217.01 69,-206.86 69,-197.99"/>
<polygon fill="midnightblue" stroke="midnightblue" points="72.5,-197.75 69,-187.75 65.5,-197.75 72.5,-197.75"/>
</g>
<!-- Node3 -->
<g id="node3" class="node">
<title>Node3</title>
<g id="a_node3"><a xlink:href="QtFit__global_8h_source.html" target="_top" xlink:title=" ">
<polygon fill="none" stroke="black" points="0,-56.5 0,-75.5 84,-75.5 84,-56.5 0,-56.5"/>
<text text-anchor="middle" x="42" y="-63.5" font-family="Helvetica,sans-Serif" font-size="10.00">QtFit_global.h</text>
</a>
</g>
</g>
<!-- Node2&#45;&gt;Node3 -->
<g id="edge2" class="edge">
<title>Node2&#45;&gt;Node3</title>
<path fill="none" stroke="midnightblue" d="M66.88,-168.37C62.52,-150.62 52.47,-109.67 46.56,-85.6"/>
<polygon fill="midnightblue" stroke="midnightblue" points="49.89,-84.47 44.11,-75.59 43.09,-86.14 49.89,-84.47"/>
</g>
<!-- Node5 -->
<g id="node5" class="node">
<title>Node5</title>
<g id="a_node5"><a xlink:href="types_8h.html" target="_top" xlink:title="Types defined by the ANT+ FIT SDK.">
<polygon fill="none" stroke="black" points="70.5,-112.5 70.5,-131.5 123.5,-131.5 123.5,-112.5 70.5,-112.5"/>
<text text-anchor="middle" x="97" y="-119.5" font-family="Helvetica,sans-Serif" font-size="10.00">types.h</text>
</a>
</g>
</g>
<!-- Node2&#45;&gt;Node5 -->
<g id="edge4" class="edge">
<title>Node2&#45;&gt;Node5</title>
<path fill="none" stroke="midnightblue" d="M73.62,-168.08C77.46,-160.69 83.02,-149.95 87.76,-140.81"/>
<polygon fill="midnightblue" stroke="midnightblue" points="90.97,-142.24 92.46,-131.75 84.75,-139.02 90.97,-142.24"/>
</g>
<!-- Node4 -->
<g id="node4" class="node">
<title>Node4</title>
<g id="a_node4"><a xlink:title=" ">
<polygon fill="none" stroke="#bfbfbf" points="12.5,-0.5 12.5,-19.5 71.5,-19.5 71.5,-0.5 12.5,-0.5"/>
<text text-anchor="middle" x="42" y="-7.5" font-family="Helvetica,sans-Serif" font-size="10.00">QtGlobal</text>
</a>
</g>
</g>
<!-- Node3&#45;&gt;Node4 -->
<g id="edge3" class="edge">
<title>Node3&#45;&gt;Node4</title>
<path fill="none" stroke="midnightblue" d="M42,-56.08C42,-49.01 42,-38.86 42,-29.99"/>
<polygon fill="midnightblue" stroke="midnightblue" points="45.5,-29.75 42,-19.75 38.5,-29.75 45.5,-29.75"/>
</g>
<!-- Node5&#45;&gt;Node3 -->
<g id="edge5" class="edge">
<title>Node5&#45;&gt;Node3</title>
<path fill="none" stroke="midnightblue" d="M87.92,-112.08C79.83,-104.14 67.8,-92.34 58.09,-82.8"/>
<polygon fill="midnightblue" stroke="midnightblue" points="60.5,-80.26 50.91,-75.75 55.6,-85.25 60.5,-80.26"/>
</g>
<!-- Node6 -->
<g id="node6" class="node">
<title>Node6</title>
<g id="a_node6"><a xlink:title=" ">
<polygon fill="none" stroke="#bfbfbf" points="102,-56.5 102,-75.5 158,-75.5 158,-56.5 102,-56.5"/>
<text text-anchor="middle" x="130" y="-63.5" font-family="Helvetica,sans-Serif" font-size="10.00">QDebug</text>
</a>
</g>
</g>
<!-- Node5&#45;&gt;Node6 -->
<g id="edge6" class="edge">
<title>Node5&#45;&gt;Node6</title>
<path fill="none" stroke="midnightblue" d="M102.45,-112.08C107.01,-104.61 113.67,-93.72 119.29,-84.52"/>
<polygon fill="midnightblue" stroke="midnightblue" points="122.42,-86.11 124.65,-75.75 116.45,-82.46 122.42,-86.11"/>
</g>
</g>
</svg>
