<?xml version="1.0" encoding="UTF-8" standalone="no"?>
<!DOCTYPE svg PUBLIC "-//W3C//DTD SVG 1.1//EN"
 "http://www.w3.org/Graphics/SVG/1.1/DTD/svg11.dtd">
<!-- Generated by graphviz version 2.43.0 (0)
 -->
<!-- Title: divesummarymessage.cpp Pages: 1 -->
<svg width="429pt" height="364pt"
 viewBox="0.00 0.00 429.00 364.00" xmlns="http://www.w3.org/2000/svg" xmlns:xlink="http://www.w3.org/1999/xlink">
<g id="graph0" class="graph" transform="scale(1 1) rotate(0) translate(4 360)">
<title>divesummarymessage.cpp</title>
<!-- Node1 -->
<g id="node1" class="node">
<title>Node1</title>
<g id="a_node1"><a xlink:title=" ">
<polygon fill="#bfbfbf" stroke="black" points="206,-336.5 206,-355.5 355,-355.5 355,-336.5 206,-336.5"/>
<text text-anchor="middle" x="280.5" y="-343.5" font-family="Helvetica,sans-Serif" font-size="10.00">divesummarymessage.cpp</text>
</a>
</g>
</g>
<!-- Node2 -->
<g id="node2" class="node">
<title>Node2</title>
<g id="a_node2"><a xlink:href="divesummarymessage_8h.html" target="_top" xlink:title=" ">
<polygon fill="none" stroke="black" points="0,-280.5 0,-299.5 137,-299.5 137,-280.5 0,-280.5"/>
<text text-anchor="middle" x="68.5" y="-287.5" font-family="Helvetica,sans-Serif" font-size="10.00">divesummarymessage.h</text>
</a>
</g>
</g>
<!-- Node1&#45;&gt;Node2 -->
<g id="edge1" class="edge">
<title>Node1&#45;&gt;Node2</title>
<path fill="none" stroke="midnightblue" d="M246.91,-336.44C210.31,-327.12 151.66,-312.18 111.67,-302"/>
<polygon fill="midnightblue" stroke="midnightblue" points="112.49,-298.59 101.93,-299.52 110.76,-305.38 112.49,-298.59"/>
</g>
<!-- Node7 -->
<g id="node7" class="node">
<title>Node7</title>
<g id="a_node7"><a xlink:title=" ">
<polygon fill="none" stroke="#bfbfbf" points="262.5,-56.5 262.5,-75.5 318.5,-75.5 318.5,-56.5 262.5,-56.5"/>
<text text-anchor="middle" x="290.5" y="-63.5" font-family="Helvetica,sans-Serif" font-size="10.00">QDebug</text>
</a>
</g>
</g>
<!-- Node1&#45;&gt;Node7 -->
<g id="edge15" class="edge">
<title>Node1&#45;&gt;Node7</title>
<path fill="none" stroke="midnightblue" d="M288.07,-336.26C295.25,-327.58 305.89,-313.63 312.5,-300 325.63,-272.92 331.5,-265.1 331.5,-235 331.5,-235 331.5,-235 331.5,-177 331.5,-142.52 313.59,-105.56 301.44,-84.47"/>
<polygon fill="midnightblue" stroke="midnightblue" points="304.34,-82.49 296.2,-75.71 298.34,-86.09 304.34,-82.49"/>
</g>
<!-- Node8 -->
<g id="node8" class="node">
<title>Node8</title>
<g id="a_node8"><a xlink:href="divesummarymessage__p_8h.html" target="_top" xlink:title=" ">
<polygon fill="none" stroke="black" points="155,-280.5 155,-299.5 304,-299.5 304,-280.5 155,-280.5"/>
<text text-anchor="middle" x="229.5" y="-287.5" font-family="Helvetica,sans-Serif" font-size="10.00">divesummarymessage_p.h</text>
</a>
</g>
</g>
<!-- Node1&#45;&gt;Node8 -->
<g id="edge8" class="edge">
<title>Node1&#45;&gt;Node8</title>
<path fill="none" stroke="midnightblue" d="M272.08,-336.08C264.65,-328.22 253.65,-316.57 244.69,-307.08"/>
<polygon fill="midnightblue" stroke="midnightblue" points="247.18,-304.62 237.76,-299.75 242.09,-309.42 247.18,-304.62"/>
</g>
<!-- Node12 -->
<g id="node12" class="node">
<title>Node12</title>
<g id="a_node12"><a xlink:title=" ">
<polygon fill="none" stroke="#bfbfbf" points="360,-280.5 360,-299.5 421,-299.5 421,-280.5 360,-280.5"/>
<text text-anchor="middle" x="390.5" y="-287.5" font-family="Helvetica,sans-Serif" font-size="10.00">QtEndian</text>
</a>
</g>
</g>
<!-- Node1&#45;&gt;Node12 -->
<g id="edge16" class="edge">
<title>Node1&#45;&gt;Node12</title>
<path fill="none" stroke="midnightblue" d="M298.17,-336.32C315.89,-327.62 343.4,-314.12 363.79,-304.11"/>
<polygon fill="midnightblue" stroke="midnightblue" points="365.44,-307.2 372.87,-299.65 362.35,-300.92 365.44,-307.2"/>
</g>
<!-- Node3 -->
<g id="node3" class="node">
<title>Node3</title>
<g id="a_node3"><a xlink:href="fitdatamessage_8h.html" target="_top" xlink:title=" ">
<polygon fill="none" stroke="black" points="30,-168.5 30,-187.5 131,-187.5 131,-168.5 30,-168.5"/>
<text text-anchor="middle" x="80.5" y="-175.5" font-family="Helvetica,sans-Serif" font-size="10.00">fitdatamessage.h</text>
</a>
</g>
</g>
<!-- Node2&#45;&gt;Node3 -->
<g id="edge2" class="edge">
<title>Node2&#45;&gt;Node3</title>
<path fill="none" stroke="midnightblue" d="M69.44,-280.37C71.38,-262.62 75.85,-221.67 78.47,-197.6"/>
<polygon fill="midnightblue" stroke="midnightblue" points="81.96,-197.91 79.56,-187.59 75,-197.15 81.96,-197.91"/>
</g>
<!-- Node4 -->
<g id="node4" class="node">
<title>Node4</title>
<g id="a_node4"><a xlink:href="QtFit__global_8h.html" target="_top" xlink:title=" ">
<polygon fill="none" stroke="black" points="117.5,-56.5 117.5,-75.5 201.5,-75.5 201.5,-56.5 117.5,-56.5"/>
<text text-anchor="middle" x="159.5" y="-63.5" font-family="Helvetica,sans-Serif" font-size="10.00">QtFit_global.h</text>
</a>
</g>
</g>
<!-- Node3&#45;&gt;Node4 -->
<g id="edge3" class="edge">
<title>Node3&#45;&gt;Node4</title>
<path fill="none" stroke="midnightblue" d="M86.7,-168.37C99.74,-150.22 130.2,-107.8 147.3,-83.99"/>
<polygon fill="midnightblue" stroke="midnightblue" points="150.34,-85.76 153.33,-75.59 144.65,-81.67 150.34,-85.76"/>
</g>
<!-- Node6 -->
<g id="node6" class="node">
<title>Node6</title>
<g id="a_node6"><a xlink:href="types_8h.html" target="_top" xlink:title="Types defined by the ANT+ FIT SDK.">
<polygon fill="none" stroke="black" points="188,-112.5 188,-131.5 241,-131.5 241,-112.5 188,-112.5"/>
<text text-anchor="middle" x="214.5" y="-119.5" font-family="Helvetica,sans-Serif" font-size="10.00">types.h</text>
</a>
</g>
</g>
<!-- Node3&#45;&gt;Node6 -->
<g id="edge5" class="edge">
<title>Node3&#45;&gt;Node6</title>
<path fill="none" stroke="midnightblue" d="M101.73,-168.44C123.88,-159.52 158.82,-145.44 183.94,-135.32"/>
<polygon fill="midnightblue" stroke="midnightblue" points="185.4,-138.5 193.37,-131.52 182.78,-132.01 185.4,-138.5"/>
</g>
<!-- Node5 -->
<g id="node5" class="node">
<title>Node5</title>
<g id="a_node5"><a xlink:title=" ">
<polygon fill="none" stroke="#bfbfbf" points="130,-0.5 130,-19.5 189,-19.5 189,-0.5 130,-0.5"/>
<text text-anchor="middle" x="159.5" y="-7.5" font-family="Helvetica,sans-Serif" font-size="10.00">QtGlobal</text>
</a>
</g>
</g>
<!-- Node4&#45;&gt;Node5 -->
<g id="edge4" class="edge">
<title>Node4&#45;&gt;Node5</title>
<path fill="none" stroke="midnightblue" d="M159.5,-56.08C159.5,-49.01 159.5,-38.86 159.5,-29.99"/>
<polygon fill="midnightblue" stroke="midnightblue" points="163,-29.75 159.5,-19.75 156,-29.75 163,-29.75"/>
</g>
<!-- Node6&#45;&gt;Node4 -->
<g id="edge6" class="edge">
<title>Node6&#45;&gt;Node4</title>
<path fill="none" stroke="midnightblue" d="M205.42,-112.08C197.33,-104.14 185.3,-92.34 175.59,-82.8"/>
<polygon fill="midnightblue" stroke="midnightblue" points="178,-80.26 168.41,-75.75 173.1,-85.25 178,-80.26"/>
</g>
<!-- Node6&#45;&gt;Node7 -->
<g id="edge7" class="edge">
<title>Node6&#45;&gt;Node7</title>
<path fill="none" stroke="midnightblue" d="M226.71,-112.32C238.28,-104.11 255.88,-91.6 269.66,-81.81"/>
<polygon fill="midnightblue" stroke="midnightblue" points="271.94,-84.48 278.07,-75.83 267.89,-78.77 271.94,-84.48"/>
</g>
<!-- Node9 -->
<g id="node9" class="node">
<title>Node9</title>
<g id="a_node9"><a xlink:href="fitdatamessage__p_8h.html" target="_top" xlink:title=" ">
<polygon fill="none" stroke="black" points="164,-224.5 164,-243.5 277,-243.5 277,-224.5 164,-224.5"/>
<text text-anchor="middle" x="220.5" y="-231.5" font-family="Helvetica,sans-Serif" font-size="10.00">fitdatamessage_p.h</text>
</a>
</g>
</g>
<!-- Node8&#45;&gt;Node9 -->
<g id="edge9" class="edge">
<title>Node8&#45;&gt;Node9</title>
<path fill="none" stroke="midnightblue" d="M228.01,-280.08C226.82,-272.93 225.11,-262.64 223.62,-253.69"/>
<polygon fill="midnightblue" stroke="midnightblue" points="227.05,-253.04 221.96,-243.75 220.15,-254.19 227.05,-253.04"/>
</g>
<!-- Node9&#45;&gt;Node4 -->
<g id="edge10" class="edge">
<title>Node9&#45;&gt;Node4</title>
<path fill="none" stroke="midnightblue" d="M216.58,-224.48C208.74,-207.24 190.82,-166.92 178.5,-132 173,-116.41 167.81,-98.33 164.25,-85.21"/>
<polygon fill="midnightblue" stroke="midnightblue" points="167.62,-84.27 161.67,-75.51 160.86,-86.07 167.62,-84.27"/>
</g>
<!-- Node9&#45;&gt;Node6 -->
<g id="edge11" class="edge">
<title>Node9&#45;&gt;Node6</title>
<path fill="none" stroke="midnightblue" d="M220.03,-224.37C219.06,-206.62 216.83,-165.67 215.51,-141.6"/>
<polygon fill="midnightblue" stroke="midnightblue" points="219.01,-141.39 214.97,-131.59 212.02,-141.77 219.01,-141.39"/>
</g>
<!-- Node10 -->
<g id="node10" class="node">
<title>Node10</title>
<g id="a_node10"><a xlink:href="types__p_8h.html" target="_top" xlink:title=" ">
<polygon fill="none" stroke="black" points="239.5,-168.5 239.5,-187.5 303.5,-187.5 303.5,-168.5 239.5,-168.5"/>
<text text-anchor="middle" x="271.5" y="-175.5" font-family="Helvetica,sans-Serif" font-size="10.00">types_p.h</text>
</a>
</g>
</g>
<!-- Node9&#45;&gt;Node10 -->
<g id="edge12" class="edge">
<title>Node9&#45;&gt;Node10</title>
<path fill="none" stroke="midnightblue" d="M228.92,-224.08C236.35,-216.22 247.35,-204.57 256.31,-195.08"/>
<polygon fill="midnightblue" stroke="midnightblue" points="258.91,-197.42 263.24,-187.75 253.82,-192.62 258.91,-197.42"/>
</g>
<!-- Node10&#45;&gt;Node6 -->
<g id="edge13" class="edge">
<title>Node10&#45;&gt;Node6</title>
<path fill="none" stroke="midnightblue" d="M262.34,-168.32C254,-160.42 241.47,-148.55 231.32,-138.94"/>
<polygon fill="midnightblue" stroke="midnightblue" points="233.49,-136.17 223.82,-131.83 228.68,-141.25 233.49,-136.17"/>
</g>
<!-- Node11 -->
<g id="node11" class="node">
<title>Node11</title>
<g id="a_node11"><a xlink:title=" ">
<polygon fill="none" stroke="#bfbfbf" points="259,-112.5 259,-131.5 300,-131.5 300,-112.5 259,-112.5"/>
<text text-anchor="middle" x="279.5" y="-119.5" font-family="Helvetica,sans-Serif" font-size="10.00">QList</text>
</a>
</g>
</g>
<!-- Node10&#45;&gt;Node11 -->
<g id="edge14" class="edge">
<title>Node10&#45;&gt;Node11</title>
<path fill="none" stroke="midnightblue" d="M272.82,-168.08C273.88,-160.93 275.41,-150.64 276.73,-141.69"/>
<polygon fill="midnightblue" stroke="midnightblue" points="280.2,-142.16 278.2,-131.75 273.28,-141.13 280.2,-142.16"/>
</g>
</g>
</svg>
