<?xml version="1.0" encoding="UTF-8" standalone="no"?>
<!DOCTYPE svg PUBLIC "-//W3C//DTD SVG 1.1//EN"
 "http://www.w3.org/Graphics/SVG/1.1/DTD/svg11.dtd">
<!-- Generated by graphviz version 2.43.0 (0)
 -->
<!-- Title: divealarmmessage.cpp Pages: 1 -->
<svg width="396pt" height="364pt"
 viewBox="0.00 0.00 396.00 364.00" xmlns="http://www.w3.org/2000/svg" xmlns:xlink="http://www.w3.org/1999/xlink">
<g id="graph0" class="graph" transform="scale(1 1) rotate(0) translate(4 360)">
<title>divealarmmessage.cpp</title>
<!-- Node1 -->
<g id="node1" class="node">
<title>Node1</title>
<g id="a_node1"><a xlink:title=" ">
<polygon fill="#bfbfbf" stroke="black" points="185,-336.5 185,-355.5 316,-355.5 316,-336.5 185,-336.5"/>
<text text-anchor="middle" x="250.5" y="-343.5" font-family="Helvetica,sans-Serif" font-size="10.00">divealarmmessage.cpp</text>
</a>
</g>
</g>
<!-- Node2 -->
<g id="node2" class="node">
<title>Node2</title>
<g id="a_node2"><a xlink:href="divealarmmessage_8h.html" target="_top" xlink:title=" ">
<polygon fill="none" stroke="black" points="0,-280.5 0,-299.5 119,-299.5 119,-280.5 0,-280.5"/>
<text text-anchor="middle" x="59.5" y="-287.5" font-family="Helvetica,sans-Serif" font-size="10.00">divealarmmessage.h</text>
</a>
</g>
</g>
<!-- Node1&#45;&gt;Node2 -->
<g id="edge1" class="edge">
<title>Node1&#45;&gt;Node2</title>
<path fill="none" stroke="midnightblue" d="M220.24,-336.44C187.54,-327.2 135.32,-312.44 99.32,-302.26"/>
<polygon fill="midnightblue" stroke="midnightblue" points="100.2,-298.87 89.62,-299.52 98.29,-305.61 100.2,-298.87"/>
</g>
<!-- Node7 -->
<g id="node7" class="node">
<title>Node7</title>
<g id="a_node7"><a xlink:title=" ">
<polygon fill="none" stroke="#bfbfbf" points="229.5,-56.5 229.5,-75.5 285.5,-75.5 285.5,-56.5 229.5,-56.5"/>
<text text-anchor="middle" x="257.5" y="-63.5" font-family="Helvetica,sans-Serif" font-size="10.00">QDebug</text>
</a>
</g>
</g>
<!-- Node1&#45;&gt;Node7 -->
<g id="edge15" class="edge">
<title>Node1&#45;&gt;Node7</title>
<path fill="none" stroke="midnightblue" d="M257.17,-336.44C270.36,-318.62 298.5,-275.84 298.5,-235 298.5,-235 298.5,-235 298.5,-177 298.5,-142.52 280.59,-105.56 268.44,-84.47"/>
<polygon fill="midnightblue" stroke="midnightblue" points="271.34,-82.49 263.2,-75.71 265.34,-86.09 271.34,-82.49"/>
</g>
<!-- Node8 -->
<g id="node8" class="node">
<title>Node8</title>
<g id="a_node8"><a xlink:href="divealarmmessage__p_8h.html" target="_top" xlink:title=" ">
<polygon fill="none" stroke="black" points="138,-280.5 138,-299.5 269,-299.5 269,-280.5 138,-280.5"/>
<text text-anchor="middle" x="203.5" y="-287.5" font-family="Helvetica,sans-Serif" font-size="10.00">divealarmmessage_p.h</text>
</a>
</g>
</g>
<!-- Node1&#45;&gt;Node8 -->
<g id="edge8" class="edge">
<title>Node1&#45;&gt;Node8</title>
<path fill="none" stroke="midnightblue" d="M242.74,-336.08C235.96,-328.3 225.96,-316.8 217.74,-307.37"/>
<polygon fill="midnightblue" stroke="midnightblue" points="220.32,-305 211.12,-299.75 215.04,-309.59 220.32,-305"/>
</g>
<!-- Node12 -->
<g id="node12" class="node">
<title>Node12</title>
<g id="a_node12"><a xlink:title=" ">
<polygon fill="none" stroke="#bfbfbf" points="327,-280.5 327,-299.5 388,-299.5 388,-280.5 327,-280.5"/>
<text text-anchor="middle" x="357.5" y="-287.5" font-family="Helvetica,sans-Serif" font-size="10.00">QtEndian</text>
</a>
</g>
</g>
<!-- Node1&#45;&gt;Node12 -->
<g id="edge16" class="edge">
<title>Node1&#45;&gt;Node12</title>
<path fill="none" stroke="midnightblue" d="M267.69,-336.32C284.85,-327.66 311.45,-314.24 331.25,-304.25"/>
<polygon fill="midnightblue" stroke="midnightblue" points="333,-307.28 340.35,-299.65 329.85,-301.04 333,-307.28"/>
</g>
<!-- Node3 -->
<g id="node3" class="node">
<title>Node3</title>
<g id="a_node3"><a xlink:href="fitdatamessage_8h.html" target="_top" xlink:title=" ">
<polygon fill="none" stroke="black" points="1,-168.5 1,-187.5 102,-187.5 102,-168.5 1,-168.5"/>
<text text-anchor="middle" x="51.5" y="-175.5" font-family="Helvetica,sans-Serif" font-size="10.00">fitdatamessage.h</text>
</a>
</g>
</g>
<!-- Node2&#45;&gt;Node3 -->
<g id="edge2" class="edge">
<title>Node2&#45;&gt;Node3</title>
<path fill="none" stroke="midnightblue" d="M58.87,-280.37C57.58,-262.62 54.6,-221.67 52.85,-197.6"/>
<polygon fill="midnightblue" stroke="midnightblue" points="56.34,-197.31 52.12,-187.59 49.36,-197.82 56.34,-197.31"/>
</g>
<!-- Node4 -->
<g id="node4" class="node">
<title>Node4</title>
<g id="a_node4"><a xlink:href="QtFit__global_8h.html" target="_top" xlink:title=" ">
<polygon fill="none" stroke="black" points="87.5,-56.5 87.5,-75.5 171.5,-75.5 171.5,-56.5 87.5,-56.5"/>
<text text-anchor="middle" x="129.5" y="-63.5" font-family="Helvetica,sans-Serif" font-size="10.00">QtFit_global.h</text>
</a>
</g>
</g>
<!-- Node3&#45;&gt;Node4 -->
<g id="edge3" class="edge">
<title>Node3&#45;&gt;Node4</title>
<path fill="none" stroke="midnightblue" d="M57.62,-168.37C70.49,-150.22 100.57,-107.8 117.45,-83.99"/>
<polygon fill="midnightblue" stroke="midnightblue" points="120.48,-85.77 123.41,-75.59 114.77,-81.72 120.48,-85.77"/>
</g>
<!-- Node6 -->
<g id="node6" class="node">
<title>Node6</title>
<g id="a_node6"><a xlink:href="types_8h.html" target="_top" xlink:title="Types defined by the ANT+ FIT SDK.">
<polygon fill="none" stroke="black" points="158,-112.5 158,-131.5 211,-131.5 211,-112.5 158,-112.5"/>
<text text-anchor="middle" x="184.5" y="-119.5" font-family="Helvetica,sans-Serif" font-size="10.00">types.h</text>
</a>
</g>
</g>
<!-- Node3&#45;&gt;Node6 -->
<g id="edge5" class="edge">
<title>Node3&#45;&gt;Node6</title>
<path fill="none" stroke="midnightblue" d="M72.57,-168.44C94.56,-159.52 129.23,-145.44 154.16,-135.32"/>
<polygon fill="midnightblue" stroke="midnightblue" points="155.58,-138.52 163.52,-131.52 152.94,-132.04 155.58,-138.52"/>
</g>
<!-- Node5 -->
<g id="node5" class="node">
<title>Node5</title>
<g id="a_node5"><a xlink:title=" ">
<polygon fill="none" stroke="#bfbfbf" points="100,-0.5 100,-19.5 159,-19.5 159,-0.5 100,-0.5"/>
<text text-anchor="middle" x="129.5" y="-7.5" font-family="Helvetica,sans-Serif" font-size="10.00">QtGlobal</text>
</a>
</g>
</g>
<!-- Node4&#45;&gt;Node5 -->
<g id="edge4" class="edge">
<title>Node4&#45;&gt;Node5</title>
<path fill="none" stroke="midnightblue" d="M129.5,-56.08C129.5,-49.01 129.5,-38.86 129.5,-29.99"/>
<polygon fill="midnightblue" stroke="midnightblue" points="133,-29.75 129.5,-19.75 126,-29.75 133,-29.75"/>
</g>
<!-- Node6&#45;&gt;Node4 -->
<g id="edge6" class="edge">
<title>Node6&#45;&gt;Node4</title>
<path fill="none" stroke="midnightblue" d="M175.42,-112.08C167.33,-104.14 155.3,-92.34 145.59,-82.8"/>
<polygon fill="midnightblue" stroke="midnightblue" points="148,-80.26 138.41,-75.75 143.1,-85.25 148,-80.26"/>
</g>
<!-- Node6&#45;&gt;Node7 -->
<g id="edge7" class="edge">
<title>Node6&#45;&gt;Node7</title>
<path fill="none" stroke="midnightblue" d="M196.23,-112.32C207.34,-104.11 224.24,-91.6 237.48,-81.81"/>
<polygon fill="midnightblue" stroke="midnightblue" points="239.6,-84.59 245.56,-75.83 235.44,-78.97 239.6,-84.59"/>
</g>
<!-- Node9 -->
<g id="node9" class="node">
<title>Node9</title>
<g id="a_node9"><a xlink:href="fitdatamessage__p_8h.html" target="_top" xlink:title=" ">
<polygon fill="none" stroke="black" points="134,-224.5 134,-243.5 247,-243.5 247,-224.5 134,-224.5"/>
<text text-anchor="middle" x="190.5" y="-231.5" font-family="Helvetica,sans-Serif" font-size="10.00">fitdatamessage_p.h</text>
</a>
</g>
</g>
<!-- Node8&#45;&gt;Node9 -->
<g id="edge9" class="edge">
<title>Node8&#45;&gt;Node9</title>
<path fill="none" stroke="midnightblue" d="M201.35,-280.08C199.63,-272.93 197.15,-262.64 195,-253.69"/>
<polygon fill="midnightblue" stroke="midnightblue" points="198.35,-252.65 192.61,-243.75 191.54,-254.29 198.35,-252.65"/>
</g>
<!-- Node9&#45;&gt;Node4 -->
<g id="edge10" class="edge">
<title>Node9&#45;&gt;Node4</title>
<path fill="none" stroke="midnightblue" d="M186.58,-224.48C178.74,-207.24 160.82,-166.92 148.5,-132 143,-116.41 137.81,-98.33 134.25,-85.21"/>
<polygon fill="midnightblue" stroke="midnightblue" points="137.62,-84.27 131.67,-75.51 130.86,-86.07 137.62,-84.27"/>
</g>
<!-- Node9&#45;&gt;Node6 -->
<g id="edge11" class="edge">
<title>Node9&#45;&gt;Node6</title>
<path fill="none" stroke="midnightblue" d="M190.03,-224.37C189.06,-206.62 186.83,-165.67 185.51,-141.6"/>
<polygon fill="midnightblue" stroke="midnightblue" points="189.01,-141.39 184.97,-131.59 182.02,-141.77 189.01,-141.39"/>
</g>
<!-- Node10 -->
<g id="node10" class="node">
<title>Node10</title>
<g id="a_node10"><a xlink:href="types__p_8h.html" target="_top" xlink:title=" ">
<polygon fill="none" stroke="black" points="206.5,-168.5 206.5,-187.5 270.5,-187.5 270.5,-168.5 206.5,-168.5"/>
<text text-anchor="middle" x="238.5" y="-175.5" font-family="Helvetica,sans-Serif" font-size="10.00">types_p.h</text>
</a>
</g>
</g>
<!-- Node9&#45;&gt;Node10 -->
<g id="edge12" class="edge">
<title>Node9&#45;&gt;Node10</title>
<path fill="none" stroke="midnightblue" d="M198.43,-224.08C205.35,-216.3 215.57,-204.8 223.95,-195.37"/>
<polygon fill="midnightblue" stroke="midnightblue" points="226.69,-197.55 230.72,-187.75 221.46,-192.9 226.69,-197.55"/>
</g>
<!-- Node10&#45;&gt;Node6 -->
<g id="edge13" class="edge">
<title>Node10&#45;&gt;Node6</title>
<path fill="none" stroke="midnightblue" d="M229.58,-168.08C221.72,-160.22 210.07,-148.57 200.58,-139.08"/>
<polygon fill="midnightblue" stroke="midnightblue" points="202.8,-136.35 193.25,-131.75 197.85,-141.3 202.8,-136.35"/>
</g>
<!-- Node11 -->
<g id="node11" class="node">
<title>Node11</title>
<g id="a_node11"><a xlink:title=" ">
<polygon fill="none" stroke="#bfbfbf" points="229,-112.5 229,-131.5 270,-131.5 270,-112.5 229,-112.5"/>
<text text-anchor="middle" x="249.5" y="-119.5" font-family="Helvetica,sans-Serif" font-size="10.00">QList</text>
</a>
</g>
</g>
<!-- Node10&#45;&gt;Node11 -->
<g id="edge14" class="edge">
<title>Node10&#45;&gt;Node11</title>
<path fill="none" stroke="midnightblue" d="M240.32,-168.08C241.77,-160.93 243.87,-150.64 245.69,-141.69"/>
<polygon fill="midnightblue" stroke="midnightblue" points="249.15,-142.25 247.72,-131.75 242.29,-140.85 249.15,-142.25"/>
</g>
</g>
</svg>
