<?xml version="1.0" encoding="UTF-8" standalone="no"?>
<!DOCTYPE svg PUBLIC "-//W3C//DTD SVG 1.1//EN"
 "http://www.w3.org/Graphics/SVG/1.1/DTD/svg11.dtd">
<!-- Generated by graphviz version 2.43.0 (0)
 -->
<!-- Title: divealarmmessage_p.h Pages: 1 -->
<svg width="168pt" height="308pt"
 viewBox="0.00 0.00 168.00 308.00" xmlns="http://www.w3.org/2000/svg" xmlns:xlink="http://www.w3.org/1999/xlink">
<g id="graph0" class="graph" transform="scale(1 1) rotate(0) translate(4 304)">
<title>divealarmmessage_p.h</title>
<!-- Node1 -->
<g id="node1" class="node">
<title>Node1</title>
<g id="a_node1"><a xlink:title=" ">
<polygon fill="#bfbfbf" stroke="black" points="0,-280.5 0,-299.5 131,-299.5 131,-280.5 0,-280.5"/>
<text text-anchor="middle" x="65.5" y="-287.5" font-family="Helvetica,sans-Serif" font-size="10.00">divealarmmessage_p.h</text>
</a>
</g>
</g>
<!-- Node2 -->
<g id="node2" class="node">
<title>Node2</title>
<g id="a_node2"><a xlink:href="fitdatamessage__p_8h.html" target="_top" xlink:title=" ">
<polygon fill="none" stroke="black" points="9,-224.5 9,-243.5 122,-243.5 122,-224.5 9,-224.5"/>
<text text-anchor="middle" x="65.5" y="-231.5" font-family="Helvetica,sans-Serif" font-size="10.00">fitdatamessage_p.h</text>
</a>
</g>
</g>
<!-- Node1&#45;&gt;Node2 -->
<g id="edge1" class="edge">
<title>Node1&#45;&gt;Node2</title>
<path fill="none" stroke="midnightblue" d="M65.5,-280.08C65.5,-273.01 65.5,-262.86 65.5,-253.99"/>
<polygon fill="midnightblue" stroke="midnightblue" points="69,-253.75 65.5,-243.75 62,-253.75 69,-253.75"/>
</g>
<!-- Node3 -->
<g id="node3" class="node">
<title>Node3</title>
<g id="a_node3"><a xlink:href="QtFit__global_8h.html" target="_top" xlink:title=" ">
<polygon fill="none" stroke="black" points="4.5,-56.5 4.5,-75.5 88.5,-75.5 88.5,-56.5 4.5,-56.5"/>
<text text-anchor="middle" x="46.5" y="-63.5" font-family="Helvetica,sans-Serif" font-size="10.00">QtFit_global.h</text>
</a>
</g>
</g>
<!-- Node2&#45;&gt;Node3 -->
<g id="edge2" class="edge">
<title>Node2&#45;&gt;Node3</title>
<path fill="none" stroke="midnightblue" d="M61.65,-224.32C53.32,-204.61 34.72,-154.88 38.5,-112 39.28,-103.2 40.89,-93.54 42.47,-85.43"/>
<polygon fill="midnightblue" stroke="midnightblue" points="45.91,-86.07 44.51,-75.57 39.06,-84.65 45.91,-86.07"/>
</g>
<!-- Node5 -->
<g id="node5" class="node">
<title>Node5</title>
<g id="a_node5"><a xlink:href="types_8h.html" target="_top" xlink:title="Types defined by the ANT+ FIT SDK.">
<polygon fill="none" stroke="black" points="48,-112.5 48,-131.5 101,-131.5 101,-112.5 48,-112.5"/>
<text text-anchor="middle" x="74.5" y="-119.5" font-family="Helvetica,sans-Serif" font-size="10.00">types.h</text>
</a>
</g>
</g>
<!-- Node2&#45;&gt;Node5 -->
<g id="edge4" class="edge">
<title>Node2&#45;&gt;Node5</title>
<path fill="none" stroke="midnightblue" d="M66.21,-224.37C67.66,-206.62 71.01,-165.67 72.98,-141.6"/>
<polygon fill="midnightblue" stroke="midnightblue" points="76.47,-141.84 73.8,-131.59 69.49,-141.27 76.47,-141.84"/>
</g>
<!-- Node6 -->
<g id="node6" class="node">
<title>Node6</title>
<g id="a_node6"><a xlink:href="types__p_8h.html" target="_top" xlink:title=" ">
<polygon fill="none" stroke="black" points="93.5,-168.5 93.5,-187.5 157.5,-187.5 157.5,-168.5 93.5,-168.5"/>
<text text-anchor="middle" x="125.5" y="-175.5" font-family="Helvetica,sans-Serif" font-size="10.00">types_p.h</text>
</a>
</g>
</g>
<!-- Node2&#45;&gt;Node6 -->
<g id="edge6" class="edge">
<title>Node2&#45;&gt;Node6</title>
<path fill="none" stroke="midnightblue" d="M75.14,-224.32C84.01,-216.34 97.37,-204.31 108.11,-194.65"/>
<polygon fill="midnightblue" stroke="midnightblue" points="110.59,-197.13 115.68,-187.83 105.91,-191.92 110.59,-197.13"/>
</g>
<!-- Node4 -->
<g id="node4" class="node">
<title>Node4</title>
<g id="a_node4"><a xlink:title=" ">
<polygon fill="none" stroke="#bfbfbf" points="17,-0.5 17,-19.5 76,-19.5 76,-0.5 17,-0.5"/>
<text text-anchor="middle" x="46.5" y="-7.5" font-family="Helvetica,sans-Serif" font-size="10.00">QtGlobal</text>
</a>
</g>
</g>
<!-- Node3&#45;&gt;Node4 -->
<g id="edge3" class="edge">
<title>Node3&#45;&gt;Node4</title>
<path fill="none" stroke="midnightblue" d="M46.5,-56.08C46.5,-49.01 46.5,-38.86 46.5,-29.99"/>
<polygon fill="midnightblue" stroke="midnightblue" points="50,-29.75 46.5,-19.75 43,-29.75 50,-29.75"/>
</g>
<!-- Node5&#45;&gt;Node3 -->
<g id="edge5" class="edge">
<title>Node5&#45;&gt;Node3</title>
<path fill="none" stroke="midnightblue" d="M69.88,-112.08C66.04,-104.69 60.48,-93.95 55.74,-84.81"/>
<polygon fill="midnightblue" stroke="midnightblue" points="58.75,-83.02 51.04,-75.75 52.53,-86.24 58.75,-83.02"/>
</g>
<!-- Node6&#45;&gt;Node5 -->
<g id="edge7" class="edge">
<title>Node6&#45;&gt;Node5</title>
<path fill="none" stroke="midnightblue" d="M117.08,-168.08C109.65,-160.22 98.65,-148.57 89.69,-139.08"/>
<polygon fill="midnightblue" stroke="midnightblue" points="92.18,-136.62 82.76,-131.75 87.09,-141.42 92.18,-136.62"/>
</g>
<!-- Node7 -->
<g id="node7" class="node">
<title>Node7</title>
<g id="a_node7"><a xlink:title=" ">
<polygon fill="none" stroke="#bfbfbf" points="119,-112.5 119,-131.5 160,-131.5 160,-112.5 119,-112.5"/>
<text text-anchor="middle" x="139.5" y="-119.5" font-family="Helvetica,sans-Serif" font-size="10.00">QList</text>
</a>
</g>
</g>
<!-- Node6&#45;&gt;Node7 -->
<g id="edge8" class="edge">
<title>Node6&#45;&gt;Node7</title>
<path fill="none" stroke="midnightblue" d="M127.81,-168.08C129.67,-160.93 132.34,-150.64 134.65,-141.69"/>
<polygon fill="midnightblue" stroke="midnightblue" points="138.11,-142.31 137.23,-131.75 131.33,-140.55 138.11,-142.31"/>
</g>
</g>
</svg>
