<?xml version="1.0" encoding="UTF-8" standalone="no"?>
<!DOCTYPE svg PUBLIC "-//W3C//DTD SVG 1.1//EN"
 "http://www.w3.org/Graphics/SVG/1.1/DTD/svg11.dtd">
<!-- Generated by graphviz version 2.43.0 (0)
 -->
<!-- Title: divegasmessage.cpp Pages: 1 -->
<svg width="256pt" height="364pt"
 viewBox="0.00 0.00 255.50 364.00" xmlns="http://www.w3.org/2000/svg" xmlns:xlink="http://www.w3.org/1999/xlink">
<g id="graph0" class="graph" transform="scale(1 1) rotate(0) translate(4 360)">
<title>divegasmessage.cpp</title>
<!-- Node1 -->
<g id="node1" class="node">
<title>Node1</title>
<g id="a_node1"><a xlink:title=" ">
<polygon fill="#bfbfbf" stroke="black" points="66,-336.5 66,-355.5 185,-355.5 185,-336.5 66,-336.5"/>
<text text-anchor="middle" x="125.5" y="-343.5" font-family="Helvetica,sans-Serif" font-size="10.00">divegasmessage.cpp</text>
</a>
</g>
</g>
<!-- Node2 -->
<g id="node2" class="node">
<title>Node2</title>
<g id="a_node2"><a xlink:href="divegasmessage_8h.html" target="_top" xlink:title=" ">
<polygon fill="none" stroke="black" points="139.5,-280.5 139.5,-299.5 247.5,-299.5 247.5,-280.5 139.5,-280.5"/>
<text text-anchor="middle" x="193.5" y="-287.5" font-family="Helvetica,sans-Serif" font-size="10.00">divegasmessage.h</text>
</a>
</g>
</g>
<!-- Node1&#45;&gt;Node2 -->
<g id="edge1" class="edge">
<title>Node1&#45;&gt;Node2</title>
<path fill="none" stroke="midnightblue" d="M136.43,-336.32C146.67,-328.18 162.22,-315.84 174.5,-306.09"/>
<polygon fill="midnightblue" stroke="midnightblue" points="176.72,-308.79 182.38,-299.83 172.37,-303.31 176.72,-308.79"/>
</g>
<!-- Node7 -->
<g id="node7" class="node">
<title>Node7</title>
<g id="a_node7"><a xlink:href="divegasmessage__p_8h.html" target="_top" xlink:title=" ">
<polygon fill="none" stroke="black" points="0,-280.5 0,-299.5 119,-299.5 119,-280.5 0,-280.5"/>
<text text-anchor="middle" x="59.5" y="-287.5" font-family="Helvetica,sans-Serif" font-size="10.00">divegasmessage_p.h</text>
</a>
</g>
</g>
<!-- Node1&#45;&gt;Node7 -->
<g id="edge7" class="edge">
<title>Node1&#45;&gt;Node7</title>
<path fill="none" stroke="midnightblue" d="M114.9,-336.32C105.04,-328.26 90.15,-316.08 78.28,-306.37"/>
<polygon fill="midnightblue" stroke="midnightblue" points="80.25,-303.46 70.3,-299.83 75.82,-308.88 80.25,-303.46"/>
</g>
<!-- Node3 -->
<g id="node3" class="node">
<title>Node3</title>
<g id="a_node3"><a xlink:href="fitdatamessage_8h.html" target="_top" xlink:title=" ">
<polygon fill="none" stroke="black" points="144,-168.5 144,-187.5 245,-187.5 245,-168.5 144,-168.5"/>
<text text-anchor="middle" x="194.5" y="-175.5" font-family="Helvetica,sans-Serif" font-size="10.00">fitdatamessage.h</text>
</a>
</g>
</g>
<!-- Node2&#45;&gt;Node3 -->
<g id="edge2" class="edge">
<title>Node2&#45;&gt;Node3</title>
<path fill="none" stroke="midnightblue" d="M193.58,-280.37C193.74,-262.62 194.11,-221.67 194.33,-197.6"/>
<polygon fill="midnightblue" stroke="midnightblue" points="197.83,-197.62 194.42,-187.59 190.83,-197.56 197.83,-197.62"/>
</g>
<!-- Node4 -->
<g id="node4" class="node">
<title>Node4</title>
<g id="a_node4"><a xlink:href="QtFit__global_8h.html" target="_top" xlink:title=" ">
<polygon fill="none" stroke="black" points="75.5,-56.5 75.5,-75.5 159.5,-75.5 159.5,-56.5 75.5,-56.5"/>
<text text-anchor="middle" x="117.5" y="-63.5" font-family="Helvetica,sans-Serif" font-size="10.00">QtFit_global.h</text>
</a>
</g>
</g>
<!-- Node3&#45;&gt;Node4 -->
<g id="edge3" class="edge">
<title>Node3&#45;&gt;Node4</title>
<path fill="none" stroke="midnightblue" d="M189.49,-168.39C182.04,-155.75 167.43,-131.56 153.5,-112 146.61,-102.32 138.36,-91.94 131.51,-83.59"/>
<polygon fill="midnightblue" stroke="midnightblue" points="134.06,-81.19 124.97,-75.74 128.68,-85.66 134.06,-81.19"/>
</g>
<!-- Node6 -->
<g id="node6" class="node">
<title>Node6</title>
<g id="a_node6"><a xlink:href="types_8h.html" target="_top" xlink:title="Types defined by the ANT+ FIT SDK.">
<polygon fill="none" stroke="black" points="91,-112.5 91,-131.5 144,-131.5 144,-112.5 91,-112.5"/>
<text text-anchor="middle" x="117.5" y="-119.5" font-family="Helvetica,sans-Serif" font-size="10.00">types.h</text>
</a>
</g>
</g>
<!-- Node3&#45;&gt;Node6 -->
<g id="edge5" class="edge">
<title>Node3&#45;&gt;Node6</title>
<path fill="none" stroke="midnightblue" d="M182.13,-168.32C170.34,-160.06 152.37,-147.45 138.36,-137.63"/>
<polygon fill="midnightblue" stroke="midnightblue" points="140.04,-134.53 129.84,-131.65 136.02,-140.26 140.04,-134.53"/>
</g>
<!-- Node5 -->
<g id="node5" class="node">
<title>Node5</title>
<g id="a_node5"><a xlink:title=" ">
<polygon fill="none" stroke="#bfbfbf" points="88,-0.5 88,-19.5 147,-19.5 147,-0.5 88,-0.5"/>
<text text-anchor="middle" x="117.5" y="-7.5" font-family="Helvetica,sans-Serif" font-size="10.00">QtGlobal</text>
</a>
</g>
</g>
<!-- Node4&#45;&gt;Node5 -->
<g id="edge4" class="edge">
<title>Node4&#45;&gt;Node5</title>
<path fill="none" stroke="midnightblue" d="M117.5,-56.08C117.5,-49.01 117.5,-38.86 117.5,-29.99"/>
<polygon fill="midnightblue" stroke="midnightblue" points="121,-29.75 117.5,-19.75 114,-29.75 121,-29.75"/>
</g>
<!-- Node6&#45;&gt;Node4 -->
<g id="edge6" class="edge">
<title>Node6&#45;&gt;Node4</title>
<path fill="none" stroke="midnightblue" d="M117.5,-112.08C117.5,-105.01 117.5,-94.86 117.5,-85.99"/>
<polygon fill="midnightblue" stroke="midnightblue" points="121,-85.75 117.5,-75.75 114,-85.75 121,-85.75"/>
</g>
<!-- Node8 -->
<g id="node8" class="node">
<title>Node8</title>
<g id="a_node8"><a xlink:href="fitdatamessage__p_8h.html" target="_top" xlink:title=" ">
<polygon fill="none" stroke="black" points="0,-224.5 0,-243.5 113,-243.5 113,-224.5 0,-224.5"/>
<text text-anchor="middle" x="56.5" y="-231.5" font-family="Helvetica,sans-Serif" font-size="10.00">fitdatamessage_p.h</text>
</a>
</g>
</g>
<!-- Node7&#45;&gt;Node8 -->
<g id="edge8" class="edge">
<title>Node7&#45;&gt;Node8</title>
<path fill="none" stroke="midnightblue" d="M59,-280.08C58.61,-273.01 58.05,-262.86 57.55,-253.99"/>
<polygon fill="midnightblue" stroke="midnightblue" points="61.04,-253.54 56.99,-243.75 54.05,-253.93 61.04,-253.54"/>
</g>
<!-- Node8&#45;&gt;Node4 -->
<g id="edge9" class="edge">
<title>Node8&#45;&gt;Node4</title>
<path fill="none" stroke="midnightblue" d="M44.29,-224.24C34.15,-216.14 20.46,-203.11 14.5,-188 7.3,-169.74 14.07,-123.44 22.5,-112 34.1,-96.26 52.64,-85.81 70.27,-78.98"/>
<polygon fill="midnightblue" stroke="midnightblue" points="71.67,-82.2 79.92,-75.55 69.32,-75.6 71.67,-82.2"/>
</g>
<!-- Node8&#45;&gt;Node6 -->
<g id="edge10" class="edge">
<title>Node8&#45;&gt;Node6</title>
<path fill="none" stroke="midnightblue" d="M66.34,-224.24C75.32,-215.77 88.4,-202.15 96.5,-188 104.78,-173.52 110.3,-155.34 113.59,-141.89"/>
<polygon fill="midnightblue" stroke="midnightblue" points="117.06,-142.41 115.85,-131.89 110.23,-140.87 117.06,-142.41"/>
</g>
<!-- Node9 -->
<g id="node9" class="node">
<title>Node9</title>
<g id="a_node9"><a xlink:href="types__p_8h.html" target="_top" xlink:title=" ">
<polygon fill="none" stroke="black" points="23.5,-168.5 23.5,-187.5 87.5,-187.5 87.5,-168.5 23.5,-168.5"/>
<text text-anchor="middle" x="55.5" y="-175.5" font-family="Helvetica,sans-Serif" font-size="10.00">types_p.h</text>
</a>
</g>
</g>
<!-- Node8&#45;&gt;Node9 -->
<g id="edge11" class="edge">
<title>Node8&#45;&gt;Node9</title>
<path fill="none" stroke="midnightblue" d="M56.33,-224.08C56.2,-217.01 56.02,-206.86 55.85,-197.99"/>
<polygon fill="midnightblue" stroke="midnightblue" points="59.35,-197.68 55.66,-187.75 52.35,-197.81 59.35,-197.68"/>
</g>
<!-- Node9&#45;&gt;Node6 -->
<g id="edge12" class="edge">
<title>Node9&#45;&gt;Node6</title>
<path fill="none" stroke="midnightblue" d="M65.46,-168.32C74.63,-160.34 88.44,-148.31 99.53,-138.65"/>
<polygon fill="midnightblue" stroke="midnightblue" points="102.12,-141.04 107.36,-131.83 97.52,-135.76 102.12,-141.04"/>
</g>
<!-- Node10 -->
<g id="node10" class="node">
<title>Node10</title>
<g id="a_node10"><a xlink:title=" ">
<polygon fill="none" stroke="#bfbfbf" points="32,-112.5 32,-131.5 73,-131.5 73,-112.5 32,-112.5"/>
<text text-anchor="middle" x="52.5" y="-119.5" font-family="Helvetica,sans-Serif" font-size="10.00">QList</text>
</a>
</g>
</g>
<!-- Node9&#45;&gt;Node10 -->
<g id="edge13" class="edge">
<title>Node9&#45;&gt;Node10</title>
<path fill="none" stroke="midnightblue" d="M55,-168.08C54.61,-161.01 54.05,-150.86 53.55,-141.99"/>
<polygon fill="midnightblue" stroke="midnightblue" points="57.04,-141.54 52.99,-131.75 50.05,-141.93 57.04,-141.54"/>
</g>
</g>
</svg>
