<?xml version="1.0" encoding="UTF-8" standalone="no"?>
<!DOCTYPE svg PUBLIC "-//W3C//DTD SVG 1.1//EN"
 "http://www.w3.org/Graphics/SVG/1.1/DTD/svg11.dtd">
<!-- Generated by graphviz version 2.43.0 (0)
 -->
<!-- Title: divesettingsmessage.cpp Pages: 1 -->
<svg width="416pt" height="364pt"
 viewBox="0.00 0.00 415.50 364.00" xmlns="http://www.w3.org/2000/svg" xmlns:xlink="http://www.w3.org/1999/xlink">
<g id="graph0" class="graph" transform="scale(1 1) rotate(0) translate(4 360)">
<title>divesettingsmessage.cpp</title>
<!-- Node1 -->
<g id="node1" class="node">
<title>Node1</title>
<g id="a_node1"><a xlink:title=" ">
<polygon fill="#bfbfbf" stroke="black" points="197.5,-336.5 197.5,-355.5 338.5,-355.5 338.5,-336.5 197.5,-336.5"/>
<text text-anchor="middle" x="268" y="-343.5" font-family="Helvetica,sans-Serif" font-size="10.00">divesettingsmessage.cpp</text>
</a>
</g>
</g>
<!-- Node2 -->
<g id="node2" class="node">
<title>Node2</title>
<g id="a_node2"><a xlink:href="divesettingsmessage_8h.html" target="_top" xlink:title=" ">
<polygon fill="none" stroke="black" points="0,-280.5 0,-299.5 130,-299.5 130,-280.5 0,-280.5"/>
<text text-anchor="middle" x="65" y="-287.5" font-family="Helvetica,sans-Serif" font-size="10.00">divesettingsmessage.h</text>
</a>
</g>
</g>
<!-- Node1&#45;&gt;Node2 -->
<g id="edge1" class="edge">
<title>Node1&#45;&gt;Node2</title>
<path fill="none" stroke="midnightblue" d="M235.83,-336.44C200.94,-327.16 145.11,-312.31 106.83,-302.13"/>
<polygon fill="midnightblue" stroke="midnightblue" points="107.58,-298.7 97.02,-299.52 105.78,-305.47 107.58,-298.7"/>
</g>
<!-- Node7 -->
<g id="node7" class="node">
<title>Node7</title>
<g id="a_node7"><a xlink:title=" ">
<polygon fill="none" stroke="#bfbfbf" points="249,-56.5 249,-75.5 305,-75.5 305,-56.5 249,-56.5"/>
<text text-anchor="middle" x="277" y="-63.5" font-family="Helvetica,sans-Serif" font-size="10.00">QDebug</text>
</a>
</g>
</g>
<!-- Node1&#45;&gt;Node7 -->
<g id="edge15" class="edge">
<title>Node1&#45;&gt;Node7</title>
<path fill="none" stroke="midnightblue" d="M275.32,-336.22C282.26,-327.51 292.56,-313.54 299,-300 311.92,-272.82 318,-265.1 318,-235 318,-235 318,-235 318,-177 318,-142.52 300.09,-105.56 287.94,-84.47"/>
<polygon fill="midnightblue" stroke="midnightblue" points="290.84,-82.49 282.7,-75.71 284.84,-86.09 290.84,-82.49"/>
</g>
<!-- Node8 -->
<g id="node8" class="node">
<title>Node8</title>
<g id="a_node8"><a xlink:href="divesettingsmessage__p_8h.html" target="_top" xlink:title=" ">
<polygon fill="none" stroke="black" points="148.5,-280.5 148.5,-299.5 289.5,-299.5 289.5,-280.5 148.5,-280.5"/>
<text text-anchor="middle" x="219" y="-287.5" font-family="Helvetica,sans-Serif" font-size="10.00">divesettingsmessage_p.h</text>
</a>
</g>
</g>
<!-- Node1&#45;&gt;Node8 -->
<g id="edge8" class="edge">
<title>Node1&#45;&gt;Node8</title>
<path fill="none" stroke="midnightblue" d="M259.91,-336.08C252.84,-328.3 242.41,-316.8 233.85,-307.37"/>
<polygon fill="midnightblue" stroke="midnightblue" points="236.25,-304.8 226.94,-299.75 231.07,-309.51 236.25,-304.8"/>
</g>
<!-- Node12 -->
<g id="node12" class="node">
<title>Node12</title>
<g id="a_node12"><a xlink:title=" ">
<polygon fill="none" stroke="#bfbfbf" points="346.5,-280.5 346.5,-299.5 407.5,-299.5 407.5,-280.5 346.5,-280.5"/>
<text text-anchor="middle" x="377" y="-287.5" font-family="Helvetica,sans-Serif" font-size="10.00">QtEndian</text>
</a>
</g>
</g>
<!-- Node1&#45;&gt;Node12 -->
<g id="edge16" class="edge">
<title>Node1&#45;&gt;Node12</title>
<path fill="none" stroke="midnightblue" d="M285.51,-336.32C303.07,-327.62 330.33,-314.12 350.53,-304.11"/>
<polygon fill="midnightblue" stroke="midnightblue" points="352.12,-307.23 359.53,-299.65 349.02,-300.96 352.12,-307.23"/>
</g>
<!-- Node3 -->
<g id="node3" class="node">
<title>Node3</title>
<g id="a_node3"><a xlink:href="fitdatamessage_8h.html" target="_top" xlink:title=" ">
<polygon fill="none" stroke="black" points="18.5,-168.5 18.5,-187.5 119.5,-187.5 119.5,-168.5 18.5,-168.5"/>
<text text-anchor="middle" x="69" y="-175.5" font-family="Helvetica,sans-Serif" font-size="10.00">fitdatamessage.h</text>
</a>
</g>
</g>
<!-- Node2&#45;&gt;Node3 -->
<g id="edge2" class="edge">
<title>Node2&#45;&gt;Node3</title>
<path fill="none" stroke="midnightblue" d="M65.31,-280.37C65.96,-262.62 67.45,-221.67 68.32,-197.6"/>
<polygon fill="midnightblue" stroke="midnightblue" points="71.82,-197.71 68.69,-187.59 64.83,-197.46 71.82,-197.71"/>
</g>
<!-- Node4 -->
<g id="node4" class="node">
<title>Node4</title>
<g id="a_node4"><a xlink:href="QtFit__global_8h.html" target="_top" xlink:title=" ">
<polygon fill="none" stroke="black" points="106,-56.5 106,-75.5 190,-75.5 190,-56.5 106,-56.5"/>
<text text-anchor="middle" x="148" y="-63.5" font-family="Helvetica,sans-Serif" font-size="10.00">QtFit_global.h</text>
</a>
</g>
</g>
<!-- Node3&#45;&gt;Node4 -->
<g id="edge3" class="edge">
<title>Node3&#45;&gt;Node4</title>
<path fill="none" stroke="midnightblue" d="M75.2,-168.37C88.24,-150.22 118.7,-107.8 135.8,-83.99"/>
<polygon fill="midnightblue" stroke="midnightblue" points="138.84,-85.76 141.83,-75.59 133.15,-81.67 138.84,-85.76"/>
</g>
<!-- Node6 -->
<g id="node6" class="node">
<title>Node6</title>
<g id="a_node6"><a xlink:href="types_8h.html" target="_top" xlink:title="Types defined by the ANT+ FIT SDK.">
<polygon fill="none" stroke="black" points="176.5,-112.5 176.5,-131.5 229.5,-131.5 229.5,-112.5 176.5,-112.5"/>
<text text-anchor="middle" x="203" y="-119.5" font-family="Helvetica,sans-Serif" font-size="10.00">types.h</text>
</a>
</g>
</g>
<!-- Node3&#45;&gt;Node6 -->
<g id="edge5" class="edge">
<title>Node3&#45;&gt;Node6</title>
<path fill="none" stroke="midnightblue" d="M90.23,-168.44C112.38,-159.52 147.32,-145.44 172.44,-135.32"/>
<polygon fill="midnightblue" stroke="midnightblue" points="173.9,-138.5 181.87,-131.52 171.28,-132.01 173.9,-138.5"/>
</g>
<!-- Node5 -->
<g id="node5" class="node">
<title>Node5</title>
<g id="a_node5"><a xlink:title=" ">
<polygon fill="none" stroke="#bfbfbf" points="118.5,-0.5 118.5,-19.5 177.5,-19.5 177.5,-0.5 118.5,-0.5"/>
<text text-anchor="middle" x="148" y="-7.5" font-family="Helvetica,sans-Serif" font-size="10.00">QtGlobal</text>
</a>
</g>
</g>
<!-- Node4&#45;&gt;Node5 -->
<g id="edge4" class="edge">
<title>Node4&#45;&gt;Node5</title>
<path fill="none" stroke="midnightblue" d="M148,-56.08C148,-49.01 148,-38.86 148,-29.99"/>
<polygon fill="midnightblue" stroke="midnightblue" points="151.5,-29.75 148,-19.75 144.5,-29.75 151.5,-29.75"/>
</g>
<!-- Node6&#45;&gt;Node4 -->
<g id="edge6" class="edge">
<title>Node6&#45;&gt;Node4</title>
<path fill="none" stroke="midnightblue" d="M193.92,-112.08C185.83,-104.14 173.8,-92.34 164.09,-82.8"/>
<polygon fill="midnightblue" stroke="midnightblue" points="166.5,-80.26 156.91,-75.75 161.6,-85.25 166.5,-80.26"/>
</g>
<!-- Node6&#45;&gt;Node7 -->
<g id="edge7" class="edge">
<title>Node6&#45;&gt;Node7</title>
<path fill="none" stroke="midnightblue" d="M214.89,-112.32C226.15,-104.11 243.29,-91.6 256.71,-81.81"/>
<polygon fill="midnightblue" stroke="midnightblue" points="258.88,-84.56 264.89,-75.83 254.75,-78.9 258.88,-84.56"/>
</g>
<!-- Node9 -->
<g id="node9" class="node">
<title>Node9</title>
<g id="a_node9"><a xlink:href="fitdatamessage__p_8h.html" target="_top" xlink:title=" ">
<polygon fill="none" stroke="black" points="151.5,-224.5 151.5,-243.5 264.5,-243.5 264.5,-224.5 151.5,-224.5"/>
<text text-anchor="middle" x="208" y="-231.5" font-family="Helvetica,sans-Serif" font-size="10.00">fitdatamessage_p.h</text>
</a>
</g>
</g>
<!-- Node8&#45;&gt;Node9 -->
<g id="edge9" class="edge">
<title>Node8&#45;&gt;Node9</title>
<path fill="none" stroke="midnightblue" d="M217.18,-280.08C215.73,-272.93 213.63,-262.64 211.81,-253.69"/>
<polygon fill="midnightblue" stroke="midnightblue" points="215.21,-252.85 209.78,-243.75 208.35,-254.25 215.21,-252.85"/>
</g>
<!-- Node9&#45;&gt;Node4 -->
<g id="edge10" class="edge">
<title>Node9&#45;&gt;Node4</title>
<path fill="none" stroke="midnightblue" d="M204.19,-224.47C196.57,-207.21 179.13,-166.85 167,-132 161.56,-116.39 156.37,-98.31 152.79,-85.19"/>
<polygon fill="midnightblue" stroke="midnightblue" points="156.16,-84.25 150.19,-75.5 149.4,-86.07 156.16,-84.25"/>
</g>
<!-- Node9&#45;&gt;Node6 -->
<g id="edge11" class="edge">
<title>Node9&#45;&gt;Node6</title>
<path fill="none" stroke="midnightblue" d="M207.61,-224.37C206.8,-206.62 204.94,-165.67 203.85,-141.6"/>
<polygon fill="midnightblue" stroke="midnightblue" points="207.34,-141.42 203.39,-131.59 200.35,-141.74 207.34,-141.42"/>
</g>
<!-- Node10 -->
<g id="node10" class="node">
<title>Node10</title>
<g id="a_node10"><a xlink:href="types__p_8h.html" target="_top" xlink:title=" ">
<polygon fill="none" stroke="black" points="226,-168.5 226,-187.5 290,-187.5 290,-168.5 226,-168.5"/>
<text text-anchor="middle" x="258" y="-175.5" font-family="Helvetica,sans-Serif" font-size="10.00">types_p.h</text>
</a>
</g>
</g>
<!-- Node9&#45;&gt;Node10 -->
<g id="edge12" class="edge">
<title>Node9&#45;&gt;Node10</title>
<path fill="none" stroke="midnightblue" d="M216.26,-224.08C223.46,-216.3 234.11,-204.8 242.85,-195.37"/>
<polygon fill="midnightblue" stroke="midnightblue" points="245.67,-197.47 249.9,-187.75 240.53,-192.71 245.67,-197.47"/>
</g>
<!-- Node10&#45;&gt;Node6 -->
<g id="edge13" class="edge">
<title>Node10&#45;&gt;Node6</title>
<path fill="none" stroke="midnightblue" d="M248.92,-168.08C240.83,-160.14 228.8,-148.34 219.09,-138.8"/>
<polygon fill="midnightblue" stroke="midnightblue" points="221.5,-136.26 211.91,-131.75 216.6,-141.25 221.5,-136.26"/>
</g>
<!-- Node11 -->
<g id="node11" class="node">
<title>Node11</title>
<g id="a_node11"><a xlink:title=" ">
<polygon fill="none" stroke="#bfbfbf" points="247.5,-112.5 247.5,-131.5 288.5,-131.5 288.5,-112.5 247.5,-112.5"/>
<text text-anchor="middle" x="268" y="-119.5" font-family="Helvetica,sans-Serif" font-size="10.00">QList</text>
</a>
</g>
</g>
<!-- Node10&#45;&gt;Node11 -->
<g id="edge14" class="edge">
<title>Node10&#45;&gt;Node11</title>
<path fill="none" stroke="midnightblue" d="M259.65,-168.08C260.98,-160.93 262.88,-150.64 264.54,-141.69"/>
<polygon fill="midnightblue" stroke="midnightblue" points="268,-142.22 266.38,-131.75 261.12,-140.95 268,-142.22"/>
</g>
</g>
</svg>
