<?xml version="1.0" encoding="UTF-8" standalone="no"?>
<!DOCTYPE svg PUBLIC "-//W3C//DTD SVG 1.1//EN"
 "http://www.w3.org/Graphics/SVG/1.1/DTD/svg11.dtd">
<!-- Generated by graphviz version 2.43.0 (0)
 -->
<!-- Title: divesummarymessage_p.h Pages: 1 -->
<svg width="177pt" height="308pt"
 viewBox="0.00 0.00 177.00 308.00" xmlns="http://www.w3.org/2000/svg" xmlns:xlink="http://www.w3.org/1999/xlink">
<g id="graph0" class="graph" transform="scale(1 1) rotate(0) translate(4 304)">
<title>divesummarymessage_p.h</title>
<!-- Node1 -->
<g id="node1" class="node">
<title>Node1</title>
<g id="a_node1"><a xlink:title=" ">
<polygon fill="#bfbfbf" stroke="black" points="0,-280.5 0,-299.5 149,-299.5 149,-280.5 0,-280.5"/>
<text text-anchor="middle" x="74.5" y="-287.5" font-family="Helvetica,sans-Serif" font-size="10.00">divesummarymessage_p.h</text>
</a>
</g>
</g>
<!-- Node2 -->
<g id="node2" class="node">
<title>Node2</title>
<g id="a_node2"><a xlink:href="fitdatamessage__p_8h.html" target="_top" xlink:title=" ">
<polygon fill="none" stroke="black" points="18,-224.5 18,-243.5 131,-243.5 131,-224.5 18,-224.5"/>
<text text-anchor="middle" x="74.5" y="-231.5" font-family="Helvetica,sans-Serif" font-size="10.00">fitdatamessage_p.h</text>
</a>
</g>
</g>
<!-- Node1&#45;&gt;Node2 -->
<g id="edge1" class="edge">
<title>Node1&#45;&gt;Node2</title>
<path fill="none" stroke="midnightblue" d="M74.5,-280.08C74.5,-273.01 74.5,-262.86 74.5,-253.99"/>
<polygon fill="midnightblue" stroke="midnightblue" points="78,-253.75 74.5,-243.75 71,-253.75 78,-253.75"/>
</g>
<!-- Node3 -->
<g id="node3" class="node">
<title>Node3</title>
<g id="a_node3"><a xlink:href="QtFit__global_8h.html" target="_top" xlink:title=" ">
<polygon fill="none" stroke="black" points="13.5,-56.5 13.5,-75.5 97.5,-75.5 97.5,-56.5 13.5,-56.5"/>
<text text-anchor="middle" x="55.5" y="-63.5" font-family="Helvetica,sans-Serif" font-size="10.00">QtFit_global.h</text>
</a>
</g>
</g>
<!-- Node2&#45;&gt;Node3 -->
<g id="edge2" class="edge">
<title>Node2&#45;&gt;Node3</title>
<path fill="none" stroke="midnightblue" d="M70.65,-224.32C62.32,-204.61 43.72,-154.88 47.5,-112 48.28,-103.2 49.89,-93.54 51.47,-85.43"/>
<polygon fill="midnightblue" stroke="midnightblue" points="54.91,-86.07 53.51,-75.57 48.06,-84.65 54.91,-86.07"/>
</g>
<!-- Node5 -->
<g id="node5" class="node">
<title>Node5</title>
<g id="a_node5"><a xlink:href="types_8h.html" target="_top" xlink:title="Types defined by the ANT+ FIT SDK.">
<polygon fill="none" stroke="black" points="57,-112.5 57,-131.5 110,-131.5 110,-112.5 57,-112.5"/>
<text text-anchor="middle" x="83.5" y="-119.5" font-family="Helvetica,sans-Serif" font-size="10.00">types.h</text>
</a>
</g>
</g>
<!-- Node2&#45;&gt;Node5 -->
<g id="edge4" class="edge">
<title>Node2&#45;&gt;Node5</title>
<path fill="none" stroke="midnightblue" d="M75.21,-224.37C76.66,-206.62 80.01,-165.67 81.98,-141.6"/>
<polygon fill="midnightblue" stroke="midnightblue" points="85.47,-141.84 82.8,-131.59 78.49,-141.27 85.47,-141.84"/>
</g>
<!-- Node6 -->
<g id="node6" class="node">
<title>Node6</title>
<g id="a_node6"><a xlink:href="types__p_8h.html" target="_top" xlink:title=" ">
<polygon fill="none" stroke="black" points="102.5,-168.5 102.5,-187.5 166.5,-187.5 166.5,-168.5 102.5,-168.5"/>
<text text-anchor="middle" x="134.5" y="-175.5" font-family="Helvetica,sans-Serif" font-size="10.00">types_p.h</text>
</a>
</g>
</g>
<!-- Node2&#45;&gt;Node6 -->
<g id="edge6" class="edge">
<title>Node2&#45;&gt;Node6</title>
<path fill="none" stroke="midnightblue" d="M84.14,-224.32C93.01,-216.34 106.37,-204.31 117.11,-194.65"/>
<polygon fill="midnightblue" stroke="midnightblue" points="119.59,-197.13 124.68,-187.83 114.91,-191.92 119.59,-197.13"/>
</g>
<!-- Node4 -->
<g id="node4" class="node">
<title>Node4</title>
<g id="a_node4"><a xlink:title=" ">
<polygon fill="none" stroke="#bfbfbf" points="26,-0.5 26,-19.5 85,-19.5 85,-0.5 26,-0.5"/>
<text text-anchor="middle" x="55.5" y="-7.5" font-family="Helvetica,sans-Serif" font-size="10.00">QtGlobal</text>
</a>
</g>
</g>
<!-- Node3&#45;&gt;Node4 -->
<g id="edge3" class="edge">
<title>Node3&#45;&gt;Node4</title>
<path fill="none" stroke="midnightblue" d="M55.5,-56.08C55.5,-49.01 55.5,-38.86 55.5,-29.99"/>
<polygon fill="midnightblue" stroke="midnightblue" points="59,-29.75 55.5,-19.75 52,-29.75 59,-29.75"/>
</g>
<!-- Node5&#45;&gt;Node3 -->
<g id="edge5" class="edge">
<title>Node5&#45;&gt;Node3</title>
<path fill="none" stroke="midnightblue" d="M78.88,-112.08C75.04,-104.69 69.48,-93.95 64.74,-84.81"/>
<polygon fill="midnightblue" stroke="midnightblue" points="67.75,-83.02 60.04,-75.75 61.53,-86.24 67.75,-83.02"/>
</g>
<!-- Node6&#45;&gt;Node5 -->
<g id="edge7" class="edge">
<title>Node6&#45;&gt;Node5</title>
<path fill="none" stroke="midnightblue" d="M126.08,-168.08C118.65,-160.22 107.65,-148.57 98.69,-139.08"/>
<polygon fill="midnightblue" stroke="midnightblue" points="101.18,-136.62 91.76,-131.75 96.09,-141.42 101.18,-136.62"/>
</g>
<!-- Node7 -->
<g id="node7" class="node">
<title>Node7</title>
<g id="a_node7"><a xlink:title=" ">
<polygon fill="none" stroke="#bfbfbf" points="128,-112.5 128,-131.5 169,-131.5 169,-112.5 128,-112.5"/>
<text text-anchor="middle" x="148.5" y="-119.5" font-family="Helvetica,sans-Serif" font-size="10.00">QList</text>
</a>
</g>
</g>
<!-- Node6&#45;&gt;Node7 -->
<g id="edge8" class="edge">
<title>Node6&#45;&gt;Node7</title>
<path fill="none" stroke="midnightblue" d="M136.81,-168.08C138.67,-160.93 141.34,-150.64 143.65,-141.69"/>
<polygon fill="midnightblue" stroke="midnightblue" points="147.11,-142.31 146.23,-131.75 140.33,-140.55 147.11,-142.31"/>
</g>
</g>
</svg>
