<?xml version="1.0" encoding="UTF-8" standalone="no"?>
<!DOCTYPE svg PUBLIC "-//W3C//DTD SVG 1.1//EN"
 "http://www.w3.org/Graphics/SVG/1.1/DTD/svg11.dtd">
<!-- Generated by graphviz version 2.43.0 (0)
 -->
<!-- Title: exddataconceptconfigurationmessage.cpp Pages: 1 -->
<svg width="433pt" height="364pt"
 viewBox="0.00 0.00 433.00 364.00" xmlns="http://www.w3.org/2000/svg" xmlns:xlink="http://www.w3.org/1999/xlink">
<g id="graph0" class="graph" transform="scale(1 1) rotate(0) translate(4 360)">
<title>exddataconceptconfigurationmessage.cpp</title>
<!-- Node1 -->
<g id="node1" class="node">
<title>Node1</title>
<g id="a_node1"><a xlink:title=" ">
<polygon fill="#bfbfbf" stroke="black" points="178,-336.5 178,-355.5 401,-355.5 401,-336.5 178,-336.5"/>
<text text-anchor="middle" x="289.5" y="-343.5" font-family="Helvetica,sans-Serif" font-size="10.00">exddataconceptconfigurationmessage.cpp</text>
</a>
</g>
</g>
<!-- Node2 -->
<g id="node2" class="node">
<title>Node2</title>
<g id="a_node2"><a xlink:href="exddataconceptconfigurationmessage_8h.html" target="_top" xlink:title=" ">
<polygon fill="none" stroke="black" points="166.5,-224.5 166.5,-243.5 378.5,-243.5 378.5,-224.5 166.5,-224.5"/>
<text text-anchor="middle" x="272.5" y="-231.5" font-family="Helvetica,sans-Serif" font-size="10.00">exddataconceptconfigurationmessage.h</text>
</a>
</g>
</g>
<!-- Node1&#45;&gt;Node2 -->
<g id="edge1" class="edge">
<title>Node1&#45;&gt;Node2</title>
<path fill="none" stroke="midnightblue" d="M287.58,-336.41C285.61,-327.38 282.56,-312.74 280.5,-300 278.01,-284.55 275.88,-266.92 274.45,-253.92"/>
<polygon fill="midnightblue" stroke="midnightblue" points="277.92,-253.43 273.38,-243.86 270.96,-254.18 277.92,-253.43"/>
</g>
<!-- Node7 -->
<g id="node7" class="node">
<title>Node7</title>
<g id="a_node7"><a xlink:href="exddataconceptconfigurationmessage__p_8h.html" target="_top" xlink:title=" ">
<polygon fill="none" stroke="black" points="0,-280.5 0,-299.5 223,-299.5 223,-280.5 0,-280.5"/>
<text text-anchor="middle" x="111.5" y="-287.5" font-family="Helvetica,sans-Serif" font-size="10.00">exddataconceptconfigurationmessage_p.h</text>
</a>
</g>
</g>
<!-- Node1&#45;&gt;Node7 -->
<g id="edge7" class="edge">
<title>Node1&#45;&gt;Node7</title>
<path fill="none" stroke="midnightblue" d="M261.3,-336.44C231.09,-327.28 182.99,-312.69 149.47,-302.52"/>
<polygon fill="midnightblue" stroke="midnightblue" points="150.16,-299.07 139.57,-299.52 148.13,-305.77 150.16,-299.07"/>
</g>
<!-- Node11 -->
<g id="node11" class="node">
<title>Node11</title>
<g id="a_node11"><a xlink:title=" ">
<polygon fill="none" stroke="#bfbfbf" points="289.5,-280.5 289.5,-299.5 345.5,-299.5 345.5,-280.5 289.5,-280.5"/>
<text text-anchor="middle" x="317.5" y="-287.5" font-family="Helvetica,sans-Serif" font-size="10.00">QDebug</text>
</a>
</g>
</g>
<!-- Node1&#45;&gt;Node11 -->
<g id="edge14" class="edge">
<title>Node1&#45;&gt;Node11</title>
<path fill="none" stroke="midnightblue" d="M294.12,-336.08C297.96,-328.69 303.52,-317.95 308.26,-308.81"/>
<polygon fill="midnightblue" stroke="midnightblue" points="311.47,-310.24 312.96,-299.75 305.25,-307.02 311.47,-310.24"/>
</g>
<!-- Node12 -->
<g id="node12" class="node">
<title>Node12</title>
<g id="a_node12"><a xlink:title=" ">
<polygon fill="none" stroke="#bfbfbf" points="364,-280.5 364,-299.5 425,-299.5 425,-280.5 364,-280.5"/>
<text text-anchor="middle" x="394.5" y="-287.5" font-family="Helvetica,sans-Serif" font-size="10.00">QtEndian</text>
</a>
</g>
</g>
<!-- Node1&#45;&gt;Node12 -->
<g id="edge15" class="edge">
<title>Node1&#45;&gt;Node12</title>
<path fill="none" stroke="midnightblue" d="M306.37,-336.32C323.21,-327.66 349.31,-314.24 368.74,-304.25"/>
<polygon fill="midnightblue" stroke="midnightblue" points="370.38,-307.34 377.67,-299.65 367.18,-301.12 370.38,-307.34"/>
</g>
<!-- Node3 -->
<g id="node3" class="node">
<title>Node3</title>
<g id="a_node3"><a xlink:href="fitdatamessage_8h.html" target="_top" xlink:title=" ">
<polygon fill="none" stroke="black" points="201,-168.5 201,-187.5 302,-187.5 302,-168.5 201,-168.5"/>
<text text-anchor="middle" x="251.5" y="-175.5" font-family="Helvetica,sans-Serif" font-size="10.00">fitdatamessage.h</text>
</a>
</g>
</g>
<!-- Node2&#45;&gt;Node3 -->
<g id="edge2" class="edge">
<title>Node2&#45;&gt;Node3</title>
<path fill="none" stroke="midnightblue" d="M269.03,-224.08C266.19,-216.77 262.07,-206.18 258.54,-197.1"/>
<polygon fill="midnightblue" stroke="midnightblue" points="261.79,-195.8 254.9,-187.75 255.27,-198.34 261.79,-195.8"/>
</g>
<!-- Node4 -->
<g id="node4" class="node">
<title>Node4</title>
<g id="a_node4"><a xlink:href="QtFit__global_8h.html" target="_top" xlink:title=" ">
<polygon fill="none" stroke="black" points="132.5,-56.5 132.5,-75.5 216.5,-75.5 216.5,-56.5 132.5,-56.5"/>
<text text-anchor="middle" x="174.5" y="-63.5" font-family="Helvetica,sans-Serif" font-size="10.00">QtFit_global.h</text>
</a>
</g>
</g>
<!-- Node3&#45;&gt;Node4 -->
<g id="edge3" class="edge">
<title>Node3&#45;&gt;Node4</title>
<path fill="none" stroke="midnightblue" d="M246.49,-168.39C239.04,-155.75 224.43,-131.56 210.5,-112 203.61,-102.32 195.36,-91.94 188.51,-83.59"/>
<polygon fill="midnightblue" stroke="midnightblue" points="191.06,-81.19 181.97,-75.74 185.68,-85.66 191.06,-81.19"/>
</g>
<!-- Node6 -->
<g id="node6" class="node">
<title>Node6</title>
<g id="a_node6"><a xlink:href="types_8h.html" target="_top" xlink:title="Types defined by the ANT+ FIT SDK.">
<polygon fill="none" stroke="black" points="148,-112.5 148,-131.5 201,-131.5 201,-112.5 148,-112.5"/>
<text text-anchor="middle" x="174.5" y="-119.5" font-family="Helvetica,sans-Serif" font-size="10.00">types.h</text>
</a>
</g>
</g>
<!-- Node3&#45;&gt;Node6 -->
<g id="edge5" class="edge">
<title>Node3&#45;&gt;Node6</title>
<path fill="none" stroke="midnightblue" d="M239.13,-168.32C227.34,-160.06 209.37,-147.45 195.36,-137.63"/>
<polygon fill="midnightblue" stroke="midnightblue" points="197.04,-134.53 186.84,-131.65 193.02,-140.26 197.04,-134.53"/>
</g>
<!-- Node5 -->
<g id="node5" class="node">
<title>Node5</title>
<g id="a_node5"><a xlink:title=" ">
<polygon fill="none" stroke="#bfbfbf" points="145,-0.5 145,-19.5 204,-19.5 204,-0.5 145,-0.5"/>
<text text-anchor="middle" x="174.5" y="-7.5" font-family="Helvetica,sans-Serif" font-size="10.00">QtGlobal</text>
</a>
</g>
</g>
<!-- Node4&#45;&gt;Node5 -->
<g id="edge4" class="edge">
<title>Node4&#45;&gt;Node5</title>
<path fill="none" stroke="midnightblue" d="M174.5,-56.08C174.5,-49.01 174.5,-38.86 174.5,-29.99"/>
<polygon fill="midnightblue" stroke="midnightblue" points="178,-29.75 174.5,-19.75 171,-29.75 178,-29.75"/>
</g>
<!-- Node6&#45;&gt;Node4 -->
<g id="edge6" class="edge">
<title>Node6&#45;&gt;Node4</title>
<path fill="none" stroke="midnightblue" d="M174.5,-112.08C174.5,-105.01 174.5,-94.86 174.5,-85.99"/>
<polygon fill="midnightblue" stroke="midnightblue" points="178,-85.75 174.5,-75.75 171,-85.75 178,-85.75"/>
</g>
<!-- Node8 -->
<g id="node8" class="node">
<title>Node8</title>
<g id="a_node8"><a xlink:href="fitdatamessage__p_8h.html" target="_top" xlink:title=" ">
<polygon fill="none" stroke="black" points="35,-224.5 35,-243.5 148,-243.5 148,-224.5 35,-224.5"/>
<text text-anchor="middle" x="91.5" y="-231.5" font-family="Helvetica,sans-Serif" font-size="10.00">fitdatamessage_p.h</text>
</a>
</g>
</g>
<!-- Node7&#45;&gt;Node8 -->
<g id="edge8" class="edge">
<title>Node7&#45;&gt;Node8</title>
<path fill="none" stroke="midnightblue" d="M108.2,-280.08C105.52,-272.85 101.65,-262.41 98.31,-253.4"/>
<polygon fill="midnightblue" stroke="midnightblue" points="101.5,-251.91 94.74,-243.75 94.93,-254.34 101.5,-251.91"/>
</g>
<!-- Node8&#45;&gt;Node4 -->
<g id="edge9" class="edge">
<title>Node8&#45;&gt;Node4</title>
<path fill="none" stroke="midnightblue" d="M86.37,-224.41C81.44,-215.61 74.34,-201.38 71.5,-188 66.88,-166.25 78.37,-113.54 79.5,-112 91.1,-96.26 109.64,-85.81 127.27,-78.98"/>
<polygon fill="midnightblue" stroke="midnightblue" points="128.67,-82.2 136.92,-75.55 126.32,-75.6 128.67,-82.2"/>
</g>
<!-- Node8&#45;&gt;Node6 -->
<g id="edge10" class="edge">
<title>Node8&#45;&gt;Node6</title>
<path fill="none" stroke="midnightblue" d="M108.84,-224.39C122.77,-216.65 141.86,-204.04 153.5,-188 163.4,-174.35 168.78,-155.81 171.61,-142.03"/>
<polygon fill="midnightblue" stroke="midnightblue" points="175.13,-142.23 173.43,-131.77 168.24,-141.01 175.13,-142.23"/>
</g>
<!-- Node9 -->
<g id="node9" class="node">
<title>Node9</title>
<g id="a_node9"><a xlink:href="types__p_8h.html" target="_top" xlink:title=" ">
<polygon fill="none" stroke="black" points="80.5,-168.5 80.5,-187.5 144.5,-187.5 144.5,-168.5 80.5,-168.5"/>
<text text-anchor="middle" x="112.5" y="-175.5" font-family="Helvetica,sans-Serif" font-size="10.00">types_p.h</text>
</a>
</g>
</g>
<!-- Node8&#45;&gt;Node9 -->
<g id="edge11" class="edge">
<title>Node8&#45;&gt;Node9</title>
<path fill="none" stroke="midnightblue" d="M94.97,-224.08C97.81,-216.77 101.93,-206.18 105.46,-197.1"/>
<polygon fill="midnightblue" stroke="midnightblue" points="108.73,-198.34 109.1,-187.75 102.21,-195.8 108.73,-198.34"/>
</g>
<!-- Node9&#45;&gt;Node6 -->
<g id="edge12" class="edge">
<title>Node9&#45;&gt;Node6</title>
<path fill="none" stroke="midnightblue" d="M122.46,-168.32C131.63,-160.34 145.44,-148.31 156.53,-138.65"/>
<polygon fill="midnightblue" stroke="midnightblue" points="159.12,-141.04 164.36,-131.83 154.52,-135.76 159.12,-141.04"/>
</g>
<!-- Node10 -->
<g id="node10" class="node">
<title>Node10</title>
<g id="a_node10"><a xlink:title=" ">
<polygon fill="none" stroke="#bfbfbf" points="89,-112.5 89,-131.5 130,-131.5 130,-112.5 89,-112.5"/>
<text text-anchor="middle" x="109.5" y="-119.5" font-family="Helvetica,sans-Serif" font-size="10.00">QList</text>
</a>
</g>
</g>
<!-- Node9&#45;&gt;Node10 -->
<g id="edge13" class="edge">
<title>Node9&#45;&gt;Node10</title>
<path fill="none" stroke="midnightblue" d="M112,-168.08C111.61,-161.01 111.05,-150.86 110.55,-141.99"/>
<polygon fill="midnightblue" stroke="midnightblue" points="114.04,-141.54 109.99,-131.75 107.05,-141.93 114.04,-141.54"/>
</g>
</g>
</svg>
