<?xml version="1.0" encoding="UTF-8" standalone="no"?>
<!DOCTYPE svg PUBLIC "-//W3C//DTD SVG 1.1//EN"
 "http://www.w3.org/Graphics/SVG/1.1/DTD/svg11.dtd">
<!-- Generated by graphviz version 2.43.0 (0)
 -->
<!-- Title: exddatafieldconfigurationmessage_p.h Pages: 1 -->
<svg width="214pt" height="308pt"
 viewBox="0.00 0.00 214.00 308.00" xmlns="http://www.w3.org/2000/svg" xmlns:xlink="http://www.w3.org/1999/xlink">
<g id="graph0" class="graph" transform="scale(1 1) rotate(0) translate(4 304)">
<title>exddatafieldconfigurationmessage_p.h</title>
<!-- Node1 -->
<g id="node1" class="node">
<title>Node1</title>
<g id="a_node1"><a xlink:title="Declares the ExdDataFieldConfigurationMessagePrivate class.">
<polygon fill="#bfbfbf" stroke="black" points="0,-280.5 0,-299.5 206,-299.5 206,-280.5 0,-280.5"/>
<text text-anchor="middle" x="103" y="-287.5" font-family="Helvetica,sans-Serif" font-size="10.00">exddatafieldconfigurationmessage_p.h</text>
</a>
</g>
</g>
<!-- Node2 -->
<g id="node2" class="node">
<title>Node2</title>
<g id="a_node2"><a xlink:href="abstractdatamessage__p_8h.html" target="_top" xlink:title="Declares the AbstractDataMessagePrivate class.">
<polygon fill="none" stroke="black" points="31.5,-224.5 31.5,-243.5 174.5,-243.5 174.5,-224.5 31.5,-224.5"/>
<text text-anchor="middle" x="103" y="-231.5" font-family="Helvetica,sans-Serif" font-size="10.00">abstractdatamessage_p.h</text>
</a>
</g>
</g>
<!-- Node1&#45;&gt;Node2 -->
<g id="edge1" class="edge">
<title>Node1&#45;&gt;Node2</title>
<path fill="none" stroke="midnightblue" d="M103,-280.08C103,-273.01 103,-262.86 103,-253.99"/>
<polygon fill="midnightblue" stroke="midnightblue" points="106.5,-253.75 103,-243.75 99.5,-253.75 106.5,-253.75"/>
</g>
<!-- Node3 -->
<g id="node3" class="node">
<title>Node3</title>
<g id="a_node3"><a xlink:href="QtFit__global_8h.html" target="_top" xlink:title="Global QtFit library macros.">
<polygon fill="none" stroke="black" points="15,-56.5 15,-75.5 99,-75.5 99,-56.5 15,-56.5"/>
<text text-anchor="middle" x="57" y="-63.5" font-family="Helvetica,sans-Serif" font-size="10.00">QtFit_global.h</text>
</a>
</g>
</g>
<!-- Node2&#45;&gt;Node3 -->
<g id="edge2" class="edge">
<title>Node2&#45;&gt;Node3</title>
<path fill="none" stroke="midnightblue" d="M100.53,-224.08C93.29,-197.95 72.02,-121.21 62.15,-85.58"/>
<polygon fill="midnightblue" stroke="midnightblue" points="65.42,-84.27 59.37,-75.57 58.67,-86.14 65.42,-84.27"/>
</g>
<!-- Node5 -->
<g id="node5" class="node">
<title>Node5</title>
<g id="a_node5"><a xlink:href="types_8h.html" target="_top" xlink:title="Types defined by the ANT+ FIT SDK.">
<polygon fill="none" stroke="black" points="85.5,-112.5 85.5,-131.5 138.5,-131.5 138.5,-112.5 85.5,-112.5"/>
<text text-anchor="middle" x="112" y="-119.5" font-family="Helvetica,sans-Serif" font-size="10.00">types.h</text>
</a>
</g>
</g>
<!-- Node2&#45;&gt;Node5 -->
<g id="edge4" class="edge">
<title>Node2&#45;&gt;Node5</title>
<path fill="none" stroke="midnightblue" d="M103.71,-224.37C105.16,-206.62 108.51,-165.67 110.48,-141.6"/>
<polygon fill="midnightblue" stroke="midnightblue" points="113.97,-141.84 111.3,-131.59 106.99,-141.27 113.97,-141.84"/>
</g>
<!-- Node7 -->
<g id="node7" class="node">
<title>Node7</title>
<g id="a_node7"><a xlink:href="types__p_8h.html" target="_top" xlink:title="Internal types used by QtFit classes.">
<polygon fill="none" stroke="black" points="131,-168.5 131,-187.5 195,-187.5 195,-168.5 131,-168.5"/>
<text text-anchor="middle" x="163" y="-175.5" font-family="Helvetica,sans-Serif" font-size="10.00">types_p.h</text>
</a>
</g>
</g>
<!-- Node2&#45;&gt;Node7 -->
<g id="edge7" class="edge">
<title>Node2&#45;&gt;Node7</title>
<path fill="none" stroke="midnightblue" d="M112.64,-224.32C121.51,-216.34 134.87,-204.31 145.61,-194.65"/>
<polygon fill="midnightblue" stroke="midnightblue" points="148.09,-197.13 153.18,-187.83 143.41,-191.92 148.09,-197.13"/>
</g>
<!-- Node4 -->
<g id="node4" class="node">
<title>Node4</title>
<g id="a_node4"><a xlink:title=" ">
<polygon fill="none" stroke="#bfbfbf" points="27.5,-0.5 27.5,-19.5 86.5,-19.5 86.5,-0.5 27.5,-0.5"/>
<text text-anchor="middle" x="57" y="-7.5" font-family="Helvetica,sans-Serif" font-size="10.00">QtGlobal</text>
</a>
</g>
</g>
<!-- Node3&#45;&gt;Node4 -->
<g id="edge3" class="edge">
<title>Node3&#45;&gt;Node4</title>
<path fill="none" stroke="midnightblue" d="M57,-56.08C57,-49.01 57,-38.86 57,-29.99"/>
<polygon fill="midnightblue" stroke="midnightblue" points="60.5,-29.75 57,-19.75 53.5,-29.75 60.5,-29.75"/>
</g>
<!-- Node5&#45;&gt;Node3 -->
<g id="edge5" class="edge">
<title>Node5&#45;&gt;Node3</title>
<path fill="none" stroke="midnightblue" d="M102.92,-112.08C94.83,-104.14 82.8,-92.34 73.09,-82.8"/>
<polygon fill="midnightblue" stroke="midnightblue" points="75.5,-80.26 65.91,-75.75 70.6,-85.25 75.5,-80.26"/>
</g>
<!-- Node6 -->
<g id="node6" class="node">
<title>Node6</title>
<g id="a_node6"><a xlink:title=" ">
<polygon fill="none" stroke="#bfbfbf" points="117,-56.5 117,-75.5 173,-75.5 173,-56.5 117,-56.5"/>
<text text-anchor="middle" x="145" y="-63.5" font-family="Helvetica,sans-Serif" font-size="10.00">QDebug</text>
</a>
</g>
</g>
<!-- Node5&#45;&gt;Node6 -->
<g id="edge6" class="edge">
<title>Node5&#45;&gt;Node6</title>
<path fill="none" stroke="midnightblue" d="M117.45,-112.08C122.01,-104.61 128.67,-93.72 134.29,-84.52"/>
<polygon fill="midnightblue" stroke="midnightblue" points="137.42,-86.11 139.65,-75.75 131.45,-82.46 137.42,-86.11"/>
</g>
<!-- Node7&#45;&gt;Node5 -->
<g id="edge8" class="edge">
<title>Node7&#45;&gt;Node5</title>
<path fill="none" stroke="midnightblue" d="M154.58,-168.08C147.15,-160.22 136.15,-148.57 127.19,-139.08"/>
<polygon fill="midnightblue" stroke="midnightblue" points="129.68,-136.62 120.26,-131.75 124.59,-141.42 129.68,-136.62"/>
</g>
<!-- Node8 -->
<g id="node8" class="node">
<title>Node8</title>
<g id="a_node8"><a xlink:title=" ">
<polygon fill="none" stroke="#bfbfbf" points="156.5,-112.5 156.5,-131.5 197.5,-131.5 197.5,-112.5 156.5,-112.5"/>
<text text-anchor="middle" x="177" y="-119.5" font-family="Helvetica,sans-Serif" font-size="10.00">QList</text>
</a>
</g>
</g>
<!-- Node7&#45;&gt;Node8 -->
<g id="edge9" class="edge">
<title>Node7&#45;&gt;Node8</title>
<path fill="none" stroke="midnightblue" d="M165.31,-168.08C167.17,-160.93 169.84,-150.64 172.15,-141.69"/>
<polygon fill="midnightblue" stroke="midnightblue" points="175.61,-142.31 174.73,-131.75 168.83,-140.55 175.61,-142.31"/>
</g>
</g>
</svg>
