<?xml version="1.0" encoding="UTF-8" standalone="no"?>
<!DOCTYPE svg PUBLIC "-//W3C//DTD SVG 1.1//EN"
 "http://www.w3.org/Graphics/SVG/1.1/DTD/svg11.dtd">
<!-- Generated by graphviz version 2.43.0 (0)
 -->
<!-- Title: exddatafieldconfigurationmessage.cpp Pages: 1 -->
<svg width="544pt" height="364pt"
 viewBox="0.00 0.00 543.50 364.00" xmlns="http://www.w3.org/2000/svg" xmlns:xlink="http://www.w3.org/1999/xlink">
<g id="graph0" class="graph" transform="scale(1 1) rotate(0) translate(4 360)">
<title>exddatafieldconfigurationmessage.cpp</title>
<!-- Node1 -->
<g id="node1" class="node">
<title>Node1</title>
<g id="a_node1"><a xlink:title=" ">
<polygon fill="#bfbfbf" stroke="black" points="277,-336.5 277,-355.5 483,-355.5 483,-336.5 277,-336.5"/>
<text text-anchor="middle" x="380" y="-343.5" font-family="Helvetica,sans-Serif" font-size="10.00">exddatafieldconfigurationmessage.cpp</text>
</a>
</g>
</g>
<!-- Node2 -->
<g id="node2" class="node">
<title>Node2</title>
<g id="a_node2"><a xlink:href="exddatafieldconfigurationmessage_8h.html" target="_top" xlink:title=" ">
<polygon fill="none" stroke="black" points="0,-280.5 0,-299.5 194,-299.5 194,-280.5 0,-280.5"/>
<text text-anchor="middle" x="97" y="-287.5" font-family="Helvetica,sans-Serif" font-size="10.00">exddatafieldconfigurationmessage.h</text>
</a>
</g>
</g>
<!-- Node1&#45;&gt;Node2 -->
<g id="edge1" class="edge">
<title>Node1&#45;&gt;Node2</title>
<path fill="none" stroke="midnightblue" d="M335.16,-336.44C285.38,-326.94 205.02,-311.61 151.61,-301.42"/>
<polygon fill="midnightblue" stroke="midnightblue" points="152.11,-297.95 141.63,-299.52 150.8,-304.83 152.11,-297.95"/>
</g>
<!-- Node7 -->
<g id="node7" class="node">
<title>Node7</title>
<g id="a_node7"><a xlink:title=" ">
<polygon fill="none" stroke="#bfbfbf" points="377,-56.5 377,-75.5 433,-75.5 433,-56.5 377,-56.5"/>
<text text-anchor="middle" x="405" y="-63.5" font-family="Helvetica,sans-Serif" font-size="10.00">QDebug</text>
</a>
</g>
</g>
<!-- Node1&#45;&gt;Node7 -->
<g id="edge15" class="edge">
<title>Node1&#45;&gt;Node7</title>
<path fill="none" stroke="midnightblue" d="M392.14,-336.34C402.8,-328.13 417.97,-314.87 427,-300 442.62,-274.27 446,-265.1 446,-235 446,-235 446,-235 446,-177 446,-142.52 428.09,-105.56 415.94,-84.47"/>
<polygon fill="midnightblue" stroke="midnightblue" points="418.84,-82.49 410.7,-75.71 412.84,-86.09 418.84,-82.49"/>
</g>
<!-- Node8 -->
<g id="node8" class="node">
<title>Node8</title>
<g id="a_node8"><a xlink:href="exddatafieldconfigurationmessage__p_8h.html" target="_top" xlink:title=" ">
<polygon fill="none" stroke="black" points="212,-280.5 212,-299.5 418,-299.5 418,-280.5 212,-280.5"/>
<text text-anchor="middle" x="315" y="-287.5" font-family="Helvetica,sans-Serif" font-size="10.00">exddatafieldconfigurationmessage_p.h</text>
</a>
</g>
</g>
<!-- Node1&#45;&gt;Node8 -->
<g id="edge8" class="edge">
<title>Node1&#45;&gt;Node8</title>
<path fill="none" stroke="midnightblue" d="M369.56,-336.32C359.85,-328.26 345.18,-316.08 333.5,-306.37"/>
<polygon fill="midnightblue" stroke="midnightblue" points="335.56,-303.53 325.63,-299.83 331.09,-308.92 335.56,-303.53"/>
</g>
<!-- Node12 -->
<g id="node12" class="node">
<title>Node12</title>
<g id="a_node12"><a xlink:title=" ">
<polygon fill="none" stroke="#bfbfbf" points="474.5,-280.5 474.5,-299.5 535.5,-299.5 535.5,-280.5 474.5,-280.5"/>
<text text-anchor="middle" x="505" y="-287.5" font-family="Helvetica,sans-Serif" font-size="10.00">QtEndian</text>
</a>
</g>
</g>
<!-- Node1&#45;&gt;Node12 -->
<g id="edge16" class="edge">
<title>Node1&#45;&gt;Node12</title>
<path fill="none" stroke="midnightblue" d="M399.81,-336.44C420.29,-327.6 452.48,-313.69 475.86,-303.59"/>
<polygon fill="midnightblue" stroke="midnightblue" points="477.49,-306.7 485.29,-299.52 474.72,-300.27 477.49,-306.7"/>
</g>
<!-- Node3 -->
<g id="node3" class="node">
<title>Node3</title>
<g id="a_node3"><a xlink:href="fitdatamessage_8h.html" target="_top" xlink:title=" ">
<polygon fill="none" stroke="black" points="138.5,-168.5 138.5,-187.5 239.5,-187.5 239.5,-168.5 138.5,-168.5"/>
<text text-anchor="middle" x="189" y="-175.5" font-family="Helvetica,sans-Serif" font-size="10.00">fitdatamessage.h</text>
</a>
</g>
</g>
<!-- Node2&#45;&gt;Node3 -->
<g id="edge2" class="edge">
<title>Node2&#45;&gt;Node3</title>
<path fill="none" stroke="midnightblue" d="M104.22,-280.37C119.54,-262.05 155.5,-219.05 175.32,-195.36"/>
<polygon fill="midnightblue" stroke="midnightblue" points="178.08,-197.51 181.81,-187.59 172.71,-193.02 178.08,-197.51"/>
</g>
<!-- Node4 -->
<g id="node4" class="node">
<title>Node4</title>
<g id="a_node4"><a xlink:href="QtFit__global_8h.html" target="_top" xlink:title=" ">
<polygon fill="none" stroke="black" points="226,-56.5 226,-75.5 310,-75.5 310,-56.5 226,-56.5"/>
<text text-anchor="middle" x="268" y="-63.5" font-family="Helvetica,sans-Serif" font-size="10.00">QtFit_global.h</text>
</a>
</g>
</g>
<!-- Node3&#45;&gt;Node4 -->
<g id="edge3" class="edge">
<title>Node3&#45;&gt;Node4</title>
<path fill="none" stroke="midnightblue" d="M195.2,-168.37C208.24,-150.22 238.7,-107.8 255.8,-83.99"/>
<polygon fill="midnightblue" stroke="midnightblue" points="258.84,-85.76 261.83,-75.59 253.15,-81.67 258.84,-85.76"/>
</g>
<!-- Node6 -->
<g id="node6" class="node">
<title>Node6</title>
<g id="a_node6"><a xlink:href="types_8h.html" target="_top" xlink:title="Types defined by the ANT+ FIT SDK.">
<polygon fill="none" stroke="black" points="296.5,-112.5 296.5,-131.5 349.5,-131.5 349.5,-112.5 296.5,-112.5"/>
<text text-anchor="middle" x="323" y="-119.5" font-family="Helvetica,sans-Serif" font-size="10.00">types.h</text>
</a>
</g>
</g>
<!-- Node3&#45;&gt;Node6 -->
<g id="edge5" class="edge">
<title>Node3&#45;&gt;Node6</title>
<path fill="none" stroke="midnightblue" d="M210.23,-168.44C232.38,-159.52 267.32,-145.44 292.44,-135.32"/>
<polygon fill="midnightblue" stroke="midnightblue" points="293.9,-138.5 301.87,-131.52 291.28,-132.01 293.9,-138.5"/>
</g>
<!-- Node5 -->
<g id="node5" class="node">
<title>Node5</title>
<g id="a_node5"><a xlink:title=" ">
<polygon fill="none" stroke="#bfbfbf" points="238.5,-0.5 238.5,-19.5 297.5,-19.5 297.5,-0.5 238.5,-0.5"/>
<text text-anchor="middle" x="268" y="-7.5" font-family="Helvetica,sans-Serif" font-size="10.00">QtGlobal</text>
</a>
</g>
</g>
<!-- Node4&#45;&gt;Node5 -->
<g id="edge4" class="edge">
<title>Node4&#45;&gt;Node5</title>
<path fill="none" stroke="midnightblue" d="M268,-56.08C268,-49.01 268,-38.86 268,-29.99"/>
<polygon fill="midnightblue" stroke="midnightblue" points="271.5,-29.75 268,-19.75 264.5,-29.75 271.5,-29.75"/>
</g>
<!-- Node6&#45;&gt;Node4 -->
<g id="edge6" class="edge">
<title>Node6&#45;&gt;Node4</title>
<path fill="none" stroke="midnightblue" d="M313.92,-112.08C305.83,-104.14 293.8,-92.34 284.09,-82.8"/>
<polygon fill="midnightblue" stroke="midnightblue" points="286.5,-80.26 276.91,-75.75 281.6,-85.25 286.5,-80.26"/>
</g>
<!-- Node6&#45;&gt;Node7 -->
<g id="edge7" class="edge">
<title>Node6&#45;&gt;Node7</title>
<path fill="none" stroke="midnightblue" d="M336.17,-112.32C348.85,-103.98 368.23,-91.21 383.21,-81.35"/>
<polygon fill="midnightblue" stroke="midnightblue" points="385.43,-84.08 391.86,-75.65 381.58,-78.23 385.43,-84.08"/>
</g>
<!-- Node9 -->
<g id="node9" class="node">
<title>Node9</title>
<g id="a_node9"><a xlink:href="fitdatamessage__p_8h.html" target="_top" xlink:title=" ">
<polygon fill="none" stroke="black" points="258.5,-224.5 258.5,-243.5 371.5,-243.5 371.5,-224.5 258.5,-224.5"/>
<text text-anchor="middle" x="315" y="-231.5" font-family="Helvetica,sans-Serif" font-size="10.00">fitdatamessage_p.h</text>
</a>
</g>
</g>
<!-- Node8&#45;&gt;Node9 -->
<g id="edge9" class="edge">
<title>Node8&#45;&gt;Node9</title>
<path fill="none" stroke="midnightblue" d="M315,-280.08C315,-273.01 315,-262.86 315,-253.99"/>
<polygon fill="midnightblue" stroke="midnightblue" points="318.5,-253.75 315,-243.75 311.5,-253.75 318.5,-253.75"/>
</g>
<!-- Node9&#45;&gt;Node4 -->
<g id="edge10" class="edge">
<title>Node9&#45;&gt;Node4</title>
<path fill="none" stroke="midnightblue" d="M312.47,-224.08C305.07,-197.95 283.35,-121.21 273.26,-85.58"/>
<polygon fill="midnightblue" stroke="midnightblue" points="276.52,-84.24 270.43,-75.57 269.78,-86.14 276.52,-84.24"/>
</g>
<!-- Node9&#45;&gt;Node6 -->
<g id="edge11" class="edge">
<title>Node9&#45;&gt;Node6</title>
<path fill="none" stroke="midnightblue" d="M315.63,-224.37C316.92,-206.62 319.9,-165.67 321.65,-141.6"/>
<polygon fill="midnightblue" stroke="midnightblue" points="325.14,-141.82 322.38,-131.59 318.16,-141.31 325.14,-141.82"/>
</g>
<!-- Node10 -->
<g id="node10" class="node">
<title>Node10</title>
<g id="a_node10"><a xlink:href="types__p_8h.html" target="_top" xlink:title=" ">
<polygon fill="none" stroke="black" points="343,-168.5 343,-187.5 407,-187.5 407,-168.5 343,-168.5"/>
<text text-anchor="middle" x="375" y="-175.5" font-family="Helvetica,sans-Serif" font-size="10.00">types_p.h</text>
</a>
</g>
</g>
<!-- Node9&#45;&gt;Node10 -->
<g id="edge12" class="edge">
<title>Node9&#45;&gt;Node10</title>
<path fill="none" stroke="midnightblue" d="M324.64,-224.32C333.51,-216.34 346.87,-204.31 357.61,-194.65"/>
<polygon fill="midnightblue" stroke="midnightblue" points="360.09,-197.13 365.18,-187.83 355.41,-191.92 360.09,-197.13"/>
</g>
<!-- Node10&#45;&gt;Node6 -->
<g id="edge13" class="edge">
<title>Node10&#45;&gt;Node6</title>
<path fill="none" stroke="midnightblue" d="M366.41,-168.08C358.84,-160.22 347.62,-148.57 338.49,-139.08"/>
<polygon fill="midnightblue" stroke="midnightblue" points="340.88,-136.53 331.43,-131.75 335.84,-141.38 340.88,-136.53"/>
</g>
<!-- Node11 -->
<g id="node11" class="node">
<title>Node11</title>
<g id="a_node11"><a xlink:title=" ">
<polygon fill="none" stroke="#bfbfbf" points="367.5,-112.5 367.5,-131.5 408.5,-131.5 408.5,-112.5 367.5,-112.5"/>
<text text-anchor="middle" x="388" y="-119.5" font-family="Helvetica,sans-Serif" font-size="10.00">QList</text>
</a>
</g>
</g>
<!-- Node10&#45;&gt;Node11 -->
<g id="edge14" class="edge">
<title>Node10&#45;&gt;Node11</title>
<path fill="none" stroke="midnightblue" d="M377.15,-168.08C378.87,-160.93 381.35,-150.64 383.5,-141.69"/>
<polygon fill="midnightblue" stroke="midnightblue" points="386.96,-142.29 385.89,-131.75 380.15,-140.65 386.96,-142.29"/>
</g>
</g>
</svg>
