<?xml version="1.0" encoding="UTF-8" standalone="no"?>
<!DOCTYPE svg PUBLIC "-//W3C//DTD SVG 1.1//EN"
 "http://www.w3.org/Graphics/SVG/1.1/DTD/svg11.dtd">
<!-- Generated by graphviz version 2.43.0 (0)
 -->
<!-- Title: exddatafieldconfigurationmessage.cpp Pages: 1 -->
<svg width="426pt" height="364pt"
 viewBox="0.00 0.00 426.00 364.00" xmlns="http://www.w3.org/2000/svg" xmlns:xlink="http://www.w3.org/1999/xlink">
<g id="graph0" class="graph" transform="scale(1 1) rotate(0) translate(4 360)">
<title>exddatafieldconfigurationmessage.cpp</title>
<!-- Node1 -->
<g id="node1" class="node">
<title>Node1</title>
<g id="a_node1"><a xlink:title=" ">
<polygon fill="#bfbfbf" stroke="black" points="109,-336.5 109,-355.5 315,-355.5 315,-336.5 109,-336.5"/>
<text text-anchor="middle" x="212" y="-343.5" font-family="Helvetica,sans-Serif" font-size="10.00">exddatafieldconfigurationmessage.cpp</text>
</a>
</g>
</g>
<!-- Node2 -->
<g id="node2" class="node">
<title>Node2</title>
<g id="a_node2"><a xlink:href="exddatafieldconfigurationmessage_8h.html" target="_top" xlink:title=" ">
<polygon fill="none" stroke="black" points="224,-280.5 224,-299.5 418,-299.5 418,-280.5 224,-280.5"/>
<text text-anchor="middle" x="321" y="-287.5" font-family="Helvetica,sans-Serif" font-size="10.00">exddatafieldconfigurationmessage.h</text>
</a>
</g>
</g>
<!-- Node1&#45;&gt;Node2 -->
<g id="edge1" class="edge">
<title>Node1&#45;&gt;Node2</title>
<path fill="none" stroke="midnightblue" d="M229.51,-336.32C247.07,-327.62 274.33,-314.12 294.53,-304.11"/>
<polygon fill="midnightblue" stroke="midnightblue" points="296.12,-307.23 303.53,-299.65 293.02,-300.96 296.12,-307.23"/>
</g>
<!-- Node7 -->
<g id="node7" class="node">
<title>Node7</title>
<g id="a_node7"><a xlink:href="exddatafieldconfigurationmessage__p_8h.html" target="_top" xlink:title=" ">
<polygon fill="none" stroke="black" points="0,-280.5 0,-299.5 206,-299.5 206,-280.5 0,-280.5"/>
<text text-anchor="middle" x="103" y="-287.5" font-family="Helvetica,sans-Serif" font-size="10.00">exddatafieldconfigurationmessage_p.h</text>
</a>
</g>
</g>
<!-- Node1&#45;&gt;Node7 -->
<g id="edge7" class="edge">
<title>Node1&#45;&gt;Node7</title>
<path fill="none" stroke="midnightblue" d="M194.49,-336.32C176.93,-327.62 149.67,-314.12 129.47,-304.11"/>
<polygon fill="midnightblue" stroke="midnightblue" points="130.98,-300.96 120.47,-299.65 127.88,-307.23 130.98,-300.96"/>
</g>
<!-- Node3 -->
<g id="node3" class="node">
<title>Node3</title>
<g id="a_node3"><a xlink:href="fitdatamessage_8h.html" target="_top" xlink:title=" ">
<polygon fill="none" stroke="black" points="250.5,-168.5 250.5,-187.5 351.5,-187.5 351.5,-168.5 250.5,-168.5"/>
<text text-anchor="middle" x="301" y="-175.5" font-family="Helvetica,sans-Serif" font-size="10.00">fitdatamessage.h</text>
</a>
</g>
</g>
<!-- Node2&#45;&gt;Node3 -->
<g id="edge2" class="edge">
<title>Node2&#45;&gt;Node3</title>
<path fill="none" stroke="midnightblue" d="M319.43,-280.37C316.2,-262.62 308.76,-221.67 304.38,-197.6"/>
<polygon fill="midnightblue" stroke="midnightblue" points="307.79,-196.8 302.56,-187.59 300.91,-198.06 307.79,-196.8"/>
</g>
<!-- Node4 -->
<g id="node4" class="node">
<title>Node4</title>
<g id="a_node4"><a xlink:href="QtFit__global_8h.html" target="_top" xlink:title=" ">
<polygon fill="none" stroke="black" points="182,-56.5 182,-75.5 266,-75.5 266,-56.5 182,-56.5"/>
<text text-anchor="middle" x="224" y="-63.5" font-family="Helvetica,sans-Serif" font-size="10.00">QtFit_global.h</text>
</a>
</g>
</g>
<!-- Node3&#45;&gt;Node4 -->
<g id="edge3" class="edge">
<title>Node3&#45;&gt;Node4</title>
<path fill="none" stroke="midnightblue" d="M295.99,-168.39C288.54,-155.75 273.93,-131.56 260,-112 253.11,-102.32 244.86,-91.94 238.01,-83.59"/>
<polygon fill="midnightblue" stroke="midnightblue" points="240.56,-81.19 231.47,-75.74 235.18,-85.66 240.56,-81.19"/>
</g>
<!-- Node6 -->
<g id="node6" class="node">
<title>Node6</title>
<g id="a_node6"><a xlink:href="types_8h.html" target="_top" xlink:title="Types defined by the ANT+ FIT SDK.">
<polygon fill="none" stroke="black" points="197.5,-112.5 197.5,-131.5 250.5,-131.5 250.5,-112.5 197.5,-112.5"/>
<text text-anchor="middle" x="224" y="-119.5" font-family="Helvetica,sans-Serif" font-size="10.00">types.h</text>
</a>
</g>
</g>
<!-- Node3&#45;&gt;Node6 -->
<g id="edge5" class="edge">
<title>Node3&#45;&gt;Node6</title>
<path fill="none" stroke="midnightblue" d="M288.63,-168.32C276.84,-160.06 258.87,-147.45 244.86,-137.63"/>
<polygon fill="midnightblue" stroke="midnightblue" points="246.54,-134.53 236.34,-131.65 242.52,-140.26 246.54,-134.53"/>
</g>
<!-- Node5 -->
<g id="node5" class="node">
<title>Node5</title>
<g id="a_node5"><a xlink:title=" ">
<polygon fill="none" stroke="#bfbfbf" points="194.5,-0.5 194.5,-19.5 253.5,-19.5 253.5,-0.5 194.5,-0.5"/>
<text text-anchor="middle" x="224" y="-7.5" font-family="Helvetica,sans-Serif" font-size="10.00">QtGlobal</text>
</a>
</g>
</g>
<!-- Node4&#45;&gt;Node5 -->
<g id="edge4" class="edge">
<title>Node4&#45;&gt;Node5</title>
<path fill="none" stroke="midnightblue" d="M224,-56.08C224,-49.01 224,-38.86 224,-29.99"/>
<polygon fill="midnightblue" stroke="midnightblue" points="227.5,-29.75 224,-19.75 220.5,-29.75 227.5,-29.75"/>
</g>
<!-- Node6&#45;&gt;Node4 -->
<g id="edge6" class="edge">
<title>Node6&#45;&gt;Node4</title>
<path fill="none" stroke="midnightblue" d="M224,-112.08C224,-105.01 224,-94.86 224,-85.99"/>
<polygon fill="midnightblue" stroke="midnightblue" points="227.5,-85.75 224,-75.75 220.5,-85.75 227.5,-85.75"/>
</g>
<!-- Node8 -->
<g id="node8" class="node">
<title>Node8</title>
<g id="a_node8"><a xlink:href="fitdatamessage__p_8h.html" target="_top" xlink:title=" ">
<polygon fill="none" stroke="black" points="85.5,-224.5 85.5,-243.5 198.5,-243.5 198.5,-224.5 85.5,-224.5"/>
<text text-anchor="middle" x="142" y="-231.5" font-family="Helvetica,sans-Serif" font-size="10.00">fitdatamessage_p.h</text>
</a>
</g>
</g>
<!-- Node7&#45;&gt;Node8 -->
<g id="edge8" class="edge">
<title>Node7&#45;&gt;Node8</title>
<path fill="none" stroke="midnightblue" d="M109.44,-280.08C114.95,-272.46 123.03,-261.26 129.76,-251.94"/>
<polygon fill="midnightblue" stroke="midnightblue" points="132.66,-253.91 135.68,-243.75 126.99,-249.81 132.66,-253.91"/>
</g>
<!-- Node8&#45;&gt;Node4 -->
<g id="edge9" class="edge">
<title>Node8&#45;&gt;Node4</title>
<path fill="none" stroke="midnightblue" d="M136.62,-224.44C131.44,-215.68 123.99,-201.47 121,-188 116.22,-166.46 127.41,-114.16 129,-112 140.6,-96.26 159.14,-85.81 176.77,-78.98"/>
<polygon fill="midnightblue" stroke="midnightblue" points="178.17,-82.2 186.42,-75.55 175.82,-75.6 178.17,-82.2"/>
</g>
<!-- Node8&#45;&gt;Node6 -->
<g id="edge10" class="edge">
<title>Node8&#45;&gt;Node6</title>
<path fill="none" stroke="midnightblue" d="M158.78,-224.48C172.51,-216.72 191.47,-204.02 203,-188 212.85,-174.31 218.24,-155.78 221.08,-142"/>
<polygon fill="midnightblue" stroke="midnightblue" points="224.6,-142.22 222.91,-131.76 217.7,-140.99 224.6,-142.22"/>
</g>
<!-- Node9 -->
<g id="node9" class="node">
<title>Node9</title>
<g id="a_node9"><a xlink:href="types__p_8h.html" target="_top" xlink:title=" ">
<polygon fill="none" stroke="black" points="130,-168.5 130,-187.5 194,-187.5 194,-168.5 130,-168.5"/>
<text text-anchor="middle" x="162" y="-175.5" font-family="Helvetica,sans-Serif" font-size="10.00">types_p.h</text>
</a>
</g>
</g>
<!-- Node8&#45;&gt;Node9 -->
<g id="edge11" class="edge">
<title>Node8&#45;&gt;Node9</title>
<path fill="none" stroke="midnightblue" d="M145.3,-224.08C147.98,-216.85 151.85,-206.41 155.19,-197.4"/>
<polygon fill="midnightblue" stroke="midnightblue" points="158.57,-198.34 158.76,-187.75 152,-195.91 158.57,-198.34"/>
</g>
<!-- Node9&#45;&gt;Node6 -->
<g id="edge12" class="edge">
<title>Node9&#45;&gt;Node6</title>
<path fill="none" stroke="midnightblue" d="M171.96,-168.32C181.13,-160.34 194.94,-148.31 206.03,-138.65"/>
<polygon fill="midnightblue" stroke="midnightblue" points="208.62,-141.04 213.86,-131.83 204.02,-135.76 208.62,-141.04"/>
</g>
<!-- Node10 -->
<g id="node10" class="node">
<title>Node10</title>
<g id="a_node10"><a xlink:title=" ">
<polygon fill="none" stroke="#bfbfbf" points="138.5,-112.5 138.5,-131.5 179.5,-131.5 179.5,-112.5 138.5,-112.5"/>
<text text-anchor="middle" x="159" y="-119.5" font-family="Helvetica,sans-Serif" font-size="10.00">QList</text>
</a>
</g>
</g>
<!-- Node9&#45;&gt;Node10 -->
<g id="edge13" class="edge">
<title>Node9&#45;&gt;Node10</title>
<path fill="none" stroke="midnightblue" d="M161.5,-168.08C161.11,-161.01 160.55,-150.86 160.05,-141.99"/>
<polygon fill="midnightblue" stroke="midnightblue" points="163.54,-141.54 159.49,-131.75 156.55,-141.93 163.54,-141.54"/>
</g>
</g>
</svg>
