<?xml version="1.0" encoding="UTF-8" standalone="no"?>
<!DOCTYPE svg PUBLIC "-//W3C//DTD SVG 1.1//EN"
 "http://www.w3.org/Graphics/SVG/1.1/DTD/svg11.dtd">
<!-- Generated by graphviz version 2.43.0 (0)
 -->
<!-- Title: exddatafieldconfigurationmessage.cpp Pages: 1 -->
<svg width="416pt" height="364pt"
 viewBox="0.00 0.00 415.50 364.00" xmlns="http://www.w3.org/2000/svg" xmlns:xlink="http://www.w3.org/1999/xlink">
<g id="graph0" class="graph" transform="scale(1 1) rotate(0) translate(4 360)">
<title>exddatafieldconfigurationmessage.cpp</title>
<!-- Node1 -->
<g id="node1" class="node">
<title>Node1</title>
<g id="a_node1"><a xlink:title=" ">
<polygon fill="#bfbfbf" stroke="black" points="169,-336.5 169,-355.5 375,-355.5 375,-336.5 169,-336.5"/>
<text text-anchor="middle" x="272" y="-343.5" font-family="Helvetica,sans-Serif" font-size="10.00">exddatafieldconfigurationmessage.cpp</text>
</a>
</g>
</g>
<!-- Node2 -->
<g id="node2" class="node">
<title>Node2</title>
<g id="a_node2"><a xlink:href="exddatafieldconfigurationmessage_8h.html" target="_top" xlink:title=" ">
<polygon fill="none" stroke="black" points="158,-224.5 158,-243.5 352,-243.5 352,-224.5 158,-224.5"/>
<text text-anchor="middle" x="255" y="-231.5" font-family="Helvetica,sans-Serif" font-size="10.00">exddatafieldconfigurationmessage.h</text>
</a>
</g>
</g>
<!-- Node1&#45;&gt;Node2 -->
<g id="edge1" class="edge">
<title>Node1&#45;&gt;Node2</title>
<path fill="none" stroke="midnightblue" d="M270.08,-336.41C268.11,-327.38 265.06,-312.74 263,-300 260.51,-284.55 258.38,-266.92 256.95,-253.92"/>
<polygon fill="midnightblue" stroke="midnightblue" points="260.42,-253.43 255.88,-243.86 253.46,-254.18 260.42,-253.43"/>
</g>
<!-- Node7 -->
<g id="node7" class="node">
<title>Node7</title>
<g id="a_node7"><a xlink:href="exddatafieldconfigurationmessage__p_8h.html" target="_top" xlink:title=" ">
<polygon fill="none" stroke="black" points="0,-280.5 0,-299.5 206,-299.5 206,-280.5 0,-280.5"/>
<text text-anchor="middle" x="103" y="-287.5" font-family="Helvetica,sans-Serif" font-size="10.00">exddatafieldconfigurationmessage_p.h</text>
</a>
</g>
</g>
<!-- Node1&#45;&gt;Node7 -->
<g id="edge7" class="edge">
<title>Node1&#45;&gt;Node7</title>
<path fill="none" stroke="midnightblue" d="M245.22,-336.44C216.67,-327.32 171.27,-312.81 139.46,-302.65"/>
<polygon fill="midnightblue" stroke="midnightblue" points="140.24,-299.23 129.65,-299.52 138.11,-305.89 140.24,-299.23"/>
</g>
<!-- Node11 -->
<g id="node11" class="node">
<title>Node11</title>
<g id="a_node11"><a xlink:title=" ">
<polygon fill="none" stroke="#bfbfbf" points="272,-280.5 272,-299.5 328,-299.5 328,-280.5 272,-280.5"/>
<text text-anchor="middle" x="300" y="-287.5" font-family="Helvetica,sans-Serif" font-size="10.00">QDebug</text>
</a>
</g>
</g>
<!-- Node1&#45;&gt;Node11 -->
<g id="edge14" class="edge">
<title>Node1&#45;&gt;Node11</title>
<path fill="none" stroke="midnightblue" d="M276.62,-336.08C280.46,-328.69 286.02,-317.95 290.76,-308.81"/>
<polygon fill="midnightblue" stroke="midnightblue" points="293.97,-310.24 295.46,-299.75 287.75,-307.02 293.97,-310.24"/>
</g>
<!-- Node12 -->
<g id="node12" class="node">
<title>Node12</title>
<g id="a_node12"><a xlink:title=" ">
<polygon fill="none" stroke="#bfbfbf" points="346.5,-280.5 346.5,-299.5 407.5,-299.5 407.5,-280.5 346.5,-280.5"/>
<text text-anchor="middle" x="377" y="-287.5" font-family="Helvetica,sans-Serif" font-size="10.00">QtEndian</text>
</a>
</g>
</g>
<!-- Node1&#45;&gt;Node12 -->
<g id="edge15" class="edge">
<title>Node1&#45;&gt;Node12</title>
<path fill="none" stroke="midnightblue" d="M288.87,-336.32C305.71,-327.66 331.81,-314.24 351.24,-304.25"/>
<polygon fill="midnightblue" stroke="midnightblue" points="352.88,-307.34 360.17,-299.65 349.68,-301.12 352.88,-307.34"/>
</g>
<!-- Node3 -->
<g id="node3" class="node">
<title>Node3</title>
<g id="a_node3"><a xlink:href="fitdatamessage_8h.html" target="_top" xlink:title=" ">
<polygon fill="none" stroke="black" points="188.5,-168.5 188.5,-187.5 289.5,-187.5 289.5,-168.5 188.5,-168.5"/>
<text text-anchor="middle" x="239" y="-175.5" font-family="Helvetica,sans-Serif" font-size="10.00">fitdatamessage.h</text>
</a>
</g>
</g>
<!-- Node2&#45;&gt;Node3 -->
<g id="edge2" class="edge">
<title>Node2&#45;&gt;Node3</title>
<path fill="none" stroke="midnightblue" d="M252.36,-224.08C250.21,-216.85 247.12,-206.41 244.45,-197.4"/>
<polygon fill="midnightblue" stroke="midnightblue" points="247.79,-196.34 241.59,-187.75 241.08,-198.33 247.79,-196.34"/>
</g>
<!-- Node4 -->
<g id="node4" class="node">
<title>Node4</title>
<g id="a_node4"><a xlink:href="QtFit__global_8h.html" target="_top" xlink:title=" ">
<polygon fill="none" stroke="black" points="120,-56.5 120,-75.5 204,-75.5 204,-56.5 120,-56.5"/>
<text text-anchor="middle" x="162" y="-63.5" font-family="Helvetica,sans-Serif" font-size="10.00">QtFit_global.h</text>
</a>
</g>
</g>
<!-- Node3&#45;&gt;Node4 -->
<g id="edge3" class="edge">
<title>Node3&#45;&gt;Node4</title>
<path fill="none" stroke="midnightblue" d="M233.99,-168.39C226.54,-155.75 211.93,-131.56 198,-112 191.11,-102.32 182.86,-91.94 176.01,-83.59"/>
<polygon fill="midnightblue" stroke="midnightblue" points="178.56,-81.19 169.47,-75.74 173.18,-85.66 178.56,-81.19"/>
</g>
<!-- Node6 -->
<g id="node6" class="node">
<title>Node6</title>
<g id="a_node6"><a xlink:href="types_8h.html" target="_top" xlink:title="Types defined by the ANT+ FIT SDK.">
<polygon fill="none" stroke="black" points="135.5,-112.5 135.5,-131.5 188.5,-131.5 188.5,-112.5 135.5,-112.5"/>
<text text-anchor="middle" x="162" y="-119.5" font-family="Helvetica,sans-Serif" font-size="10.00">types.h</text>
</a>
</g>
</g>
<!-- Node3&#45;&gt;Node6 -->
<g id="edge5" class="edge">
<title>Node3&#45;&gt;Node6</title>
<path fill="none" stroke="midnightblue" d="M226.63,-168.32C214.84,-160.06 196.87,-147.45 182.86,-137.63"/>
<polygon fill="midnightblue" stroke="midnightblue" points="184.54,-134.53 174.34,-131.65 180.52,-140.26 184.54,-134.53"/>
</g>
<!-- Node5 -->
<g id="node5" class="node">
<title>Node5</title>
<g id="a_node5"><a xlink:title=" ">
<polygon fill="none" stroke="#bfbfbf" points="132.5,-0.5 132.5,-19.5 191.5,-19.5 191.5,-0.5 132.5,-0.5"/>
<text text-anchor="middle" x="162" y="-7.5" font-family="Helvetica,sans-Serif" font-size="10.00">QtGlobal</text>
</a>
</g>
</g>
<!-- Node4&#45;&gt;Node5 -->
<g id="edge4" class="edge">
<title>Node4&#45;&gt;Node5</title>
<path fill="none" stroke="midnightblue" d="M162,-56.08C162,-49.01 162,-38.86 162,-29.99"/>
<polygon fill="midnightblue" stroke="midnightblue" points="165.5,-29.75 162,-19.75 158.5,-29.75 165.5,-29.75"/>
</g>
<!-- Node6&#45;&gt;Node4 -->
<g id="edge6" class="edge">
<title>Node6&#45;&gt;Node4</title>
<path fill="none" stroke="midnightblue" d="M162,-112.08C162,-105.01 162,-94.86 162,-85.99"/>
<polygon fill="midnightblue" stroke="midnightblue" points="165.5,-85.75 162,-75.75 158.5,-85.75 165.5,-85.75"/>
</g>
<!-- Node8 -->
<g id="node8" class="node">
<title>Node8</title>
<g id="a_node8"><a xlink:href="fitdatamessage__p_8h.html" target="_top" xlink:title=" ">
<polygon fill="none" stroke="black" points="26.5,-224.5 26.5,-243.5 139.5,-243.5 139.5,-224.5 26.5,-224.5"/>
<text text-anchor="middle" x="83" y="-231.5" font-family="Helvetica,sans-Serif" font-size="10.00">fitdatamessage_p.h</text>
</a>
</g>
</g>
<!-- Node7&#45;&gt;Node8 -->
<g id="edge8" class="edge">
<title>Node7&#45;&gt;Node8</title>
<path fill="none" stroke="midnightblue" d="M99.7,-280.08C97.02,-272.85 93.15,-262.41 89.81,-253.4"/>
<polygon fill="midnightblue" stroke="midnightblue" points="93,-251.91 86.24,-243.75 86.43,-254.34 93,-251.91"/>
</g>
<!-- Node8&#45;&gt;Node4 -->
<g id="edge9" class="edge">
<title>Node8&#45;&gt;Node4</title>
<path fill="none" stroke="midnightblue" d="M76.63,-224.23C70.74,-215.53 62.39,-201.57 59,-188 53.77,-167.08 64.13,-115.89 67,-112 78.6,-96.26 97.14,-85.81 114.77,-78.98"/>
<polygon fill="midnightblue" stroke="midnightblue" points="116.17,-82.2 124.42,-75.55 113.82,-75.6 116.17,-82.2"/>
</g>
<!-- Node8&#45;&gt;Node6 -->
<g id="edge10" class="edge">
<title>Node8&#45;&gt;Node6</title>
<path fill="none" stroke="midnightblue" d="M98.69,-224.45C111.76,-216.58 129.95,-203.75 141,-188 150.68,-174.2 156.09,-155.67 158.98,-141.93"/>
<polygon fill="midnightblue" stroke="midnightblue" points="162.49,-142.19 160.86,-131.72 155.61,-140.93 162.49,-142.19"/>
</g>
<!-- Node9 -->
<g id="node9" class="node">
<title>Node9</title>
<g id="a_node9"><a xlink:href="types__p_8h.html" target="_top" xlink:title=" ">
<polygon fill="none" stroke="black" points="68,-168.5 68,-187.5 132,-187.5 132,-168.5 68,-168.5"/>
<text text-anchor="middle" x="100" y="-175.5" font-family="Helvetica,sans-Serif" font-size="10.00">types_p.h</text>
</a>
</g>
</g>
<!-- Node8&#45;&gt;Node9 -->
<g id="edge11" class="edge">
<title>Node8&#45;&gt;Node9</title>
<path fill="none" stroke="midnightblue" d="M85.81,-224.08C88.08,-216.85 91.37,-206.41 94.21,-197.4"/>
<polygon fill="midnightblue" stroke="midnightblue" points="97.58,-198.34 97.25,-187.75 90.9,-196.24 97.58,-198.34"/>
</g>
<!-- Node9&#45;&gt;Node6 -->
<g id="edge12" class="edge">
<title>Node9&#45;&gt;Node6</title>
<path fill="none" stroke="midnightblue" d="M109.96,-168.32C119.13,-160.34 132.94,-148.31 144.03,-138.65"/>
<polygon fill="midnightblue" stroke="midnightblue" points="146.62,-141.04 151.86,-131.83 142.02,-135.76 146.62,-141.04"/>
</g>
<!-- Node10 -->
<g id="node10" class="node">
<title>Node10</title>
<g id="a_node10"><a xlink:title=" ">
<polygon fill="none" stroke="#bfbfbf" points="76.5,-112.5 76.5,-131.5 117.5,-131.5 117.5,-112.5 76.5,-112.5"/>
<text text-anchor="middle" x="97" y="-119.5" font-family="Helvetica,sans-Serif" font-size="10.00">QList</text>
</a>
</g>
</g>
<!-- Node9&#45;&gt;Node10 -->
<g id="edge13" class="edge">
<title>Node9&#45;&gt;Node10</title>
<path fill="none" stroke="midnightblue" d="M99.5,-168.08C99.11,-161.01 98.55,-150.86 98.05,-141.99"/>
<polygon fill="midnightblue" stroke="midnightblue" points="101.54,-141.54 97.49,-131.75 94.55,-141.93 101.54,-141.54"/>
</g>
</g>
</svg>
