<?xml version="1.0" encoding="UTF-8" standalone="no"?>
<!DOCTYPE svg PUBLIC "-//W3C//DTD SVG 1.1//EN"
 "http://www.w3.org/Graphics/SVG/1.1/DTD/svg11.dtd">
<!-- Generated by graphviz version 2.43.0 (0)
 -->
<!-- Title: exddataconceptconfigurationmessage_p.h Pages: 1 -->
<svg width="231pt" height="308pt"
 viewBox="0.00 0.00 231.00 308.00" xmlns="http://www.w3.org/2000/svg" xmlns:xlink="http://www.w3.org/1999/xlink">
<g id="graph0" class="graph" transform="scale(1 1) rotate(0) translate(4 304)">
<title>exddataconceptconfigurationmessage_p.h</title>
<!-- Node1 -->
<g id="node1" class="node">
<title>Node1</title>
<g id="a_node1"><a xlink:title=" ">
<polygon fill="#bfbfbf" stroke="black" points="0,-280.5 0,-299.5 223,-299.5 223,-280.5 0,-280.5"/>
<text text-anchor="middle" x="111.5" y="-287.5" font-family="Helvetica,sans-Serif" font-size="10.00">exddataconceptconfigurationmessage_p.h</text>
</a>
</g>
</g>
<!-- Node2 -->
<g id="node2" class="node">
<title>Node2</title>
<g id="a_node2"><a xlink:href="fitdatamessage__p_8h.html" target="_top" xlink:title=" ">
<polygon fill="none" stroke="black" points="55,-224.5 55,-243.5 168,-243.5 168,-224.5 55,-224.5"/>
<text text-anchor="middle" x="111.5" y="-231.5" font-family="Helvetica,sans-Serif" font-size="10.00">fitdatamessage_p.h</text>
</a>
</g>
</g>
<!-- Node1&#45;&gt;Node2 -->
<g id="edge1" class="edge">
<title>Node1&#45;&gt;Node2</title>
<path fill="none" stroke="midnightblue" d="M111.5,-280.08C111.5,-273.01 111.5,-262.86 111.5,-253.99"/>
<polygon fill="midnightblue" stroke="midnightblue" points="115,-253.75 111.5,-243.75 108,-253.75 115,-253.75"/>
</g>
<!-- Node3 -->
<g id="node3" class="node">
<title>Node3</title>
<g id="a_node3"><a xlink:href="QtFit__global_8h.html" target="_top" xlink:title=" ">
<polygon fill="none" stroke="black" points="50.5,-56.5 50.5,-75.5 134.5,-75.5 134.5,-56.5 50.5,-56.5"/>
<text text-anchor="middle" x="92.5" y="-63.5" font-family="Helvetica,sans-Serif" font-size="10.00">QtFit_global.h</text>
</a>
</g>
</g>
<!-- Node2&#45;&gt;Node3 -->
<g id="edge2" class="edge">
<title>Node2&#45;&gt;Node3</title>
<path fill="none" stroke="midnightblue" d="M107.65,-224.32C99.32,-204.61 80.72,-154.88 84.5,-112 85.28,-103.2 86.89,-93.54 88.47,-85.43"/>
<polygon fill="midnightblue" stroke="midnightblue" points="91.91,-86.07 90.51,-75.57 85.06,-84.65 91.91,-86.07"/>
</g>
<!-- Node5 -->
<g id="node5" class="node">
<title>Node5</title>
<g id="a_node5"><a xlink:href="types_8h.html" target="_top" xlink:title="Types defined by the ANT+ FIT SDK.">
<polygon fill="none" stroke="black" points="94,-112.5 94,-131.5 147,-131.5 147,-112.5 94,-112.5"/>
<text text-anchor="middle" x="120.5" y="-119.5" font-family="Helvetica,sans-Serif" font-size="10.00">types.h</text>
</a>
</g>
</g>
<!-- Node2&#45;&gt;Node5 -->
<g id="edge4" class="edge">
<title>Node2&#45;&gt;Node5</title>
<path fill="none" stroke="midnightblue" d="M112.21,-224.37C113.66,-206.62 117.01,-165.67 118.98,-141.6"/>
<polygon fill="midnightblue" stroke="midnightblue" points="122.47,-141.84 119.8,-131.59 115.49,-141.27 122.47,-141.84"/>
</g>
<!-- Node6 -->
<g id="node6" class="node">
<title>Node6</title>
<g id="a_node6"><a xlink:href="types__p_8h.html" target="_top" xlink:title=" ">
<polygon fill="none" stroke="black" points="139.5,-168.5 139.5,-187.5 203.5,-187.5 203.5,-168.5 139.5,-168.5"/>
<text text-anchor="middle" x="171.5" y="-175.5" font-family="Helvetica,sans-Serif" font-size="10.00">types_p.h</text>
</a>
</g>
</g>
<!-- Node2&#45;&gt;Node6 -->
<g id="edge6" class="edge">
<title>Node2&#45;&gt;Node6</title>
<path fill="none" stroke="midnightblue" d="M121.14,-224.32C130.01,-216.34 143.37,-204.31 154.11,-194.65"/>
<polygon fill="midnightblue" stroke="midnightblue" points="156.59,-197.13 161.68,-187.83 151.91,-191.92 156.59,-197.13"/>
</g>
<!-- Node4 -->
<g id="node4" class="node">
<title>Node4</title>
<g id="a_node4"><a xlink:title=" ">
<polygon fill="none" stroke="#bfbfbf" points="63,-0.5 63,-19.5 122,-19.5 122,-0.5 63,-0.5"/>
<text text-anchor="middle" x="92.5" y="-7.5" font-family="Helvetica,sans-Serif" font-size="10.00">QtGlobal</text>
</a>
</g>
</g>
<!-- Node3&#45;&gt;Node4 -->
<g id="edge3" class="edge">
<title>Node3&#45;&gt;Node4</title>
<path fill="none" stroke="midnightblue" d="M92.5,-56.08C92.5,-49.01 92.5,-38.86 92.5,-29.99"/>
<polygon fill="midnightblue" stroke="midnightblue" points="96,-29.75 92.5,-19.75 89,-29.75 96,-29.75"/>
</g>
<!-- Node5&#45;&gt;Node3 -->
<g id="edge5" class="edge">
<title>Node5&#45;&gt;Node3</title>
<path fill="none" stroke="midnightblue" d="M115.88,-112.08C112.04,-104.69 106.48,-93.95 101.74,-84.81"/>
<polygon fill="midnightblue" stroke="midnightblue" points="104.75,-83.02 97.04,-75.75 98.53,-86.24 104.75,-83.02"/>
</g>
<!-- Node6&#45;&gt;Node5 -->
<g id="edge7" class="edge">
<title>Node6&#45;&gt;Node5</title>
<path fill="none" stroke="midnightblue" d="M163.08,-168.08C155.65,-160.22 144.65,-148.57 135.69,-139.08"/>
<polygon fill="midnightblue" stroke="midnightblue" points="138.18,-136.62 128.76,-131.75 133.09,-141.42 138.18,-136.62"/>
</g>
<!-- Node7 -->
<g id="node7" class="node">
<title>Node7</title>
<g id="a_node7"><a xlink:title=" ">
<polygon fill="none" stroke="#bfbfbf" points="165,-112.5 165,-131.5 206,-131.5 206,-112.5 165,-112.5"/>
<text text-anchor="middle" x="185.5" y="-119.5" font-family="Helvetica,sans-Serif" font-size="10.00">QList</text>
</a>
</g>
</g>
<!-- Node6&#45;&gt;Node7 -->
<g id="edge8" class="edge">
<title>Node6&#45;&gt;Node7</title>
<path fill="none" stroke="midnightblue" d="M173.81,-168.08C175.67,-160.93 178.34,-150.64 180.65,-141.69"/>
<polygon fill="midnightblue" stroke="midnightblue" points="184.11,-142.31 183.23,-131.75 177.33,-140.55 184.11,-142.31"/>
</g>
</g>
</svg>
