<?xml version="1.0" encoding="UTF-8" standalone="no"?>
<!DOCTYPE svg PUBLIC "-//W3C//DTD SVG 1.1//EN"
 "http://www.w3.org/Graphics/SVG/1.1/DTD/svg11.dtd">
<!-- Generated by graphviz version 2.43.0 (0)
 -->
<!-- Title: exddataconceptconfigurationmessage.cpp Pages: 1 -->
<svg width="462pt" height="364pt"
 viewBox="0.00 0.00 461.50 364.00" xmlns="http://www.w3.org/2000/svg" xmlns:xlink="http://www.w3.org/1999/xlink">
<g id="graph0" class="graph" transform="scale(1 1) rotate(0) translate(4 360)">
<title>exddataconceptconfigurationmessage.cpp</title>
<!-- Node1 -->
<g id="node1" class="node">
<title>Node1</title>
<g id="a_node1"><a xlink:title=" ">
<polygon fill="#bfbfbf" stroke="black" points="118,-336.5 118,-355.5 341,-355.5 341,-336.5 118,-336.5"/>
<text text-anchor="middle" x="229.5" y="-343.5" font-family="Helvetica,sans-Serif" font-size="10.00">exddataconceptconfigurationmessage.cpp</text>
</a>
</g>
</g>
<!-- Node2 -->
<g id="node2" class="node">
<title>Node2</title>
<g id="a_node2"><a xlink:href="exddataconceptconfigurationmessage_8h.html" target="_top" xlink:title=" ">
<polygon fill="none" stroke="black" points="241.5,-280.5 241.5,-299.5 453.5,-299.5 453.5,-280.5 241.5,-280.5"/>
<text text-anchor="middle" x="347.5" y="-287.5" font-family="Helvetica,sans-Serif" font-size="10.00">exddataconceptconfigurationmessage.h</text>
</a>
</g>
</g>
<!-- Node1&#45;&gt;Node2 -->
<g id="edge1" class="edge">
<title>Node1&#45;&gt;Node2</title>
<path fill="none" stroke="midnightblue" d="M248.2,-336.44C267.44,-327.64 297.65,-313.81 319.7,-303.72"/>
<polygon fill="midnightblue" stroke="midnightblue" points="321.25,-306.86 328.89,-299.52 318.34,-300.5 321.25,-306.86"/>
</g>
<!-- Node7 -->
<g id="node7" class="node">
<title>Node7</title>
<g id="a_node7"><a xlink:href="exddataconceptconfigurationmessage__p_8h.html" target="_top" xlink:title=" ">
<polygon fill="none" stroke="black" points="0,-280.5 0,-299.5 223,-299.5 223,-280.5 0,-280.5"/>
<text text-anchor="middle" x="111.5" y="-287.5" font-family="Helvetica,sans-Serif" font-size="10.00">exddataconceptconfigurationmessage_p.h</text>
</a>
</g>
</g>
<!-- Node1&#45;&gt;Node7 -->
<g id="edge7" class="edge">
<title>Node1&#45;&gt;Node7</title>
<path fill="none" stroke="midnightblue" d="M210.8,-336.44C191.56,-327.64 161.35,-313.81 139.3,-303.72"/>
<polygon fill="midnightblue" stroke="midnightblue" points="140.66,-300.5 130.11,-299.52 137.75,-306.86 140.66,-300.5"/>
</g>
<!-- Node3 -->
<g id="node3" class="node">
<title>Node3</title>
<g id="a_node3"><a xlink:href="fitdatamessage_8h.html" target="_top" xlink:title=" ">
<polygon fill="none" stroke="black" points="272,-168.5 272,-187.5 373,-187.5 373,-168.5 272,-168.5"/>
<text text-anchor="middle" x="322.5" y="-175.5" font-family="Helvetica,sans-Serif" font-size="10.00">fitdatamessage.h</text>
</a>
</g>
</g>
<!-- Node2&#45;&gt;Node3 -->
<g id="edge2" class="edge">
<title>Node2&#45;&gt;Node3</title>
<path fill="none" stroke="midnightblue" d="M345.54,-280.37C341.5,-262.62 332.2,-221.67 326.73,-197.6"/>
<polygon fill="midnightblue" stroke="midnightblue" points="330.08,-196.57 324.45,-187.59 323.26,-198.12 330.08,-196.57"/>
</g>
<!-- Node4 -->
<g id="node4" class="node">
<title>Node4</title>
<g id="a_node4"><a xlink:href="QtFit__global_8h.html" target="_top" xlink:title=" ">
<polygon fill="none" stroke="black" points="203.5,-56.5 203.5,-75.5 287.5,-75.5 287.5,-56.5 203.5,-56.5"/>
<text text-anchor="middle" x="245.5" y="-63.5" font-family="Helvetica,sans-Serif" font-size="10.00">QtFit_global.h</text>
</a>
</g>
</g>
<!-- Node3&#45;&gt;Node4 -->
<g id="edge3" class="edge">
<title>Node3&#45;&gt;Node4</title>
<path fill="none" stroke="midnightblue" d="M317.49,-168.39C310.04,-155.75 295.43,-131.56 281.5,-112 274.61,-102.32 266.36,-91.94 259.51,-83.59"/>
<polygon fill="midnightblue" stroke="midnightblue" points="262.06,-81.19 252.97,-75.74 256.68,-85.66 262.06,-81.19"/>
</g>
<!-- Node6 -->
<g id="node6" class="node">
<title>Node6</title>
<g id="a_node6"><a xlink:href="types_8h.html" target="_top" xlink:title="Types defined by the ANT+ FIT SDK.">
<polygon fill="none" stroke="black" points="219,-112.5 219,-131.5 272,-131.5 272,-112.5 219,-112.5"/>
<text text-anchor="middle" x="245.5" y="-119.5" font-family="Helvetica,sans-Serif" font-size="10.00">types.h</text>
</a>
</g>
</g>
<!-- Node3&#45;&gt;Node6 -->
<g id="edge5" class="edge">
<title>Node3&#45;&gt;Node6</title>
<path fill="none" stroke="midnightblue" d="M310.13,-168.32C298.34,-160.06 280.37,-147.45 266.36,-137.63"/>
<polygon fill="midnightblue" stroke="midnightblue" points="268.04,-134.53 257.84,-131.65 264.02,-140.26 268.04,-134.53"/>
</g>
<!-- Node5 -->
<g id="node5" class="node">
<title>Node5</title>
<g id="a_node5"><a xlink:title=" ">
<polygon fill="none" stroke="#bfbfbf" points="216,-0.5 216,-19.5 275,-19.5 275,-0.5 216,-0.5"/>
<text text-anchor="middle" x="245.5" y="-7.5" font-family="Helvetica,sans-Serif" font-size="10.00">QtGlobal</text>
</a>
</g>
</g>
<!-- Node4&#45;&gt;Node5 -->
<g id="edge4" class="edge">
<title>Node4&#45;&gt;Node5</title>
<path fill="none" stroke="midnightblue" d="M245.5,-56.08C245.5,-49.01 245.5,-38.86 245.5,-29.99"/>
<polygon fill="midnightblue" stroke="midnightblue" points="249,-29.75 245.5,-19.75 242,-29.75 249,-29.75"/>
</g>
<!-- Node6&#45;&gt;Node4 -->
<g id="edge6" class="edge">
<title>Node6&#45;&gt;Node4</title>
<path fill="none" stroke="midnightblue" d="M245.5,-112.08C245.5,-105.01 245.5,-94.86 245.5,-85.99"/>
<polygon fill="midnightblue" stroke="midnightblue" points="249,-85.75 245.5,-75.75 242,-85.75 249,-85.75"/>
</g>
<!-- Node8 -->
<g id="node8" class="node">
<title>Node8</title>
<g id="a_node8"><a xlink:href="fitdatamessage__p_8h.html" target="_top" xlink:title=" ">
<polygon fill="none" stroke="black" points="103,-224.5 103,-243.5 216,-243.5 216,-224.5 103,-224.5"/>
<text text-anchor="middle" x="159.5" y="-231.5" font-family="Helvetica,sans-Serif" font-size="10.00">fitdatamessage_p.h</text>
</a>
</g>
</g>
<!-- Node7&#45;&gt;Node8 -->
<g id="edge8" class="edge">
<title>Node7&#45;&gt;Node8</title>
<path fill="none" stroke="midnightblue" d="M119.43,-280.08C126.35,-272.3 136.57,-260.8 144.95,-251.37"/>
<polygon fill="midnightblue" stroke="midnightblue" points="147.69,-253.55 151.72,-243.75 142.46,-248.9 147.69,-253.55"/>
</g>
<!-- Node8&#45;&gt;Node4 -->
<g id="edge9" class="edge">
<title>Node8&#45;&gt;Node4</title>
<path fill="none" stroke="midnightblue" d="M155.13,-224.31C150.94,-215.44 144.9,-201.14 142.5,-188 136.4,-154.59 130.35,-139.34 150.5,-112 162.1,-96.26 180.64,-85.81 198.27,-78.98"/>
<polygon fill="midnightblue" stroke="midnightblue" points="199.67,-82.2 207.92,-75.55 197.32,-75.6 199.67,-82.2"/>
</g>
<!-- Node8&#45;&gt;Node6 -->
<g id="edge10" class="edge">
<title>Node8&#45;&gt;Node6</title>
<path fill="none" stroke="midnightblue" d="M177.98,-224.44C192.56,-216.8 212.39,-204.31 224.5,-188 234.66,-174.33 240.03,-155.54 242.78,-141.68"/>
<polygon fill="midnightblue" stroke="midnightblue" points="246.23,-142.26 244.48,-131.81 239.34,-141.07 246.23,-142.26"/>
</g>
<!-- Node9 -->
<g id="node9" class="node">
<title>Node9</title>
<g id="a_node9"><a xlink:href="types__p_8h.html" target="_top" xlink:title=" ">
<polygon fill="none" stroke="black" points="151.5,-168.5 151.5,-187.5 215.5,-187.5 215.5,-168.5 151.5,-168.5"/>
<text text-anchor="middle" x="183.5" y="-175.5" font-family="Helvetica,sans-Serif" font-size="10.00">types_p.h</text>
</a>
</g>
</g>
<!-- Node8&#45;&gt;Node9 -->
<g id="edge11" class="edge">
<title>Node8&#45;&gt;Node9</title>
<path fill="none" stroke="midnightblue" d="M163.46,-224.08C166.71,-216.77 171.42,-206.18 175.45,-197.1"/>
<polygon fill="midnightblue" stroke="midnightblue" points="178.75,-198.31 179.61,-187.75 172.35,-195.47 178.75,-198.31"/>
</g>
<!-- Node9&#45;&gt;Node6 -->
<g id="edge12" class="edge">
<title>Node9&#45;&gt;Node6</title>
<path fill="none" stroke="midnightblue" d="M193.46,-168.32C202.63,-160.34 216.44,-148.31 227.53,-138.65"/>
<polygon fill="midnightblue" stroke="midnightblue" points="230.12,-141.04 235.36,-131.83 225.52,-135.76 230.12,-141.04"/>
</g>
<!-- Node10 -->
<g id="node10" class="node">
<title>Node10</title>
<g id="a_node10"><a xlink:title=" ">
<polygon fill="none" stroke="#bfbfbf" points="160,-112.5 160,-131.5 201,-131.5 201,-112.5 160,-112.5"/>
<text text-anchor="middle" x="180.5" y="-119.5" font-family="Helvetica,sans-Serif" font-size="10.00">QList</text>
</a>
</g>
</g>
<!-- Node9&#45;&gt;Node10 -->
<g id="edge13" class="edge">
<title>Node9&#45;&gt;Node10</title>
<path fill="none" stroke="midnightblue" d="M183,-168.08C182.61,-161.01 182.05,-150.86 181.55,-141.99"/>
<polygon fill="midnightblue" stroke="midnightblue" points="185.04,-141.54 180.99,-131.75 178.05,-141.93 185.04,-141.54"/>
</g>
</g>
</svg>
