<?xml version="1.0" encoding="UTF-8" standalone="no"?>
<!DOCTYPE svg PUBLIC "-//W3C//DTD SVG 1.1//EN"
 "http://www.w3.org/Graphics/SVG/1.1/DTD/svg11.dtd">
<!-- Generated by graphviz version 2.43.0 (0)
 -->
<!-- Title: exddataconceptconfigurationmessage.cpp Pages: 1 -->
<svg width="579pt" height="364pt"
 viewBox="0.00 0.00 578.50 364.00" xmlns="http://www.w3.org/2000/svg" xmlns:xlink="http://www.w3.org/1999/xlink">
<g id="graph0" class="graph" transform="scale(1 1) rotate(0) translate(4 360)">
<title>exddataconceptconfigurationmessage.cpp</title>
<!-- Node1 -->
<g id="node1" class="node">
<title>Node1</title>
<g id="a_node1"><a xlink:title=" ">
<polygon fill="#bfbfbf" stroke="black" points="299.5,-336.5 299.5,-355.5 522.5,-355.5 522.5,-336.5 299.5,-336.5"/>
<text text-anchor="middle" x="411" y="-343.5" font-family="Helvetica,sans-Serif" font-size="10.00">exddataconceptconfigurationmessage.cpp</text>
</a>
</g>
</g>
<!-- Node2 -->
<g id="node2" class="node">
<title>Node2</title>
<g id="a_node2"><a xlink:href="exddataconceptconfigurationmessage_8h.html" target="_top" xlink:title=" ">
<polygon fill="none" stroke="black" points="0,-280.5 0,-299.5 212,-299.5 212,-280.5 0,-280.5"/>
<text text-anchor="middle" x="106" y="-287.5" font-family="Helvetica,sans-Serif" font-size="10.00">exddataconceptconfigurationmessage.h</text>
</a>
</g>
</g>
<!-- Node1&#45;&gt;Node2 -->
<g id="edge1" class="edge">
<title>Node1&#45;&gt;Node2</title>
<path fill="none" stroke="midnightblue" d="M362.67,-336.44C308.8,-326.9 221.69,-311.48 164.14,-301.29"/>
<polygon fill="midnightblue" stroke="midnightblue" points="164.56,-297.81 154.1,-299.52 163.34,-304.71 164.56,-297.81"/>
</g>
<!-- Node7 -->
<g id="node7" class="node">
<title>Node7</title>
<g id="a_node7"><a xlink:title=" ">
<polygon fill="none" stroke="#bfbfbf" points="407,-56.5 407,-75.5 463,-75.5 463,-56.5 407,-56.5"/>
<text text-anchor="middle" x="435" y="-63.5" font-family="Helvetica,sans-Serif" font-size="10.00">QDebug</text>
</a>
</g>
</g>
<!-- Node1&#45;&gt;Node7 -->
<g id="edge15" class="edge">
<title>Node1&#45;&gt;Node7</title>
<path fill="none" stroke="midnightblue" d="M423.88,-336.48C435.19,-328.36 451.32,-315.16 461,-300 477.27,-274.52 481,-265.23 481,-235 481,-235 481,-235 481,-177 481,-141.82 460.72,-104.86 447.09,-84"/>
<polygon fill="midnightblue" stroke="midnightblue" points="449.91,-81.92 441.4,-75.61 444.12,-85.85 449.91,-81.92"/>
</g>
<!-- Node8 -->
<g id="node8" class="node">
<title>Node8</title>
<g id="a_node8"><a xlink:href="exddataconceptconfigurationmessage__p_8h.html" target="_top" xlink:title=" ">
<polygon fill="none" stroke="black" points="229.5,-280.5 229.5,-299.5 452.5,-299.5 452.5,-280.5 229.5,-280.5"/>
<text text-anchor="middle" x="341" y="-287.5" font-family="Helvetica,sans-Serif" font-size="10.00">exddataconceptconfigurationmessage_p.h</text>
</a>
</g>
</g>
<!-- Node1&#45;&gt;Node8 -->
<g id="edge8" class="edge">
<title>Node1&#45;&gt;Node8</title>
<path fill="none" stroke="midnightblue" d="M399.75,-336.32C389.2,-328.18 373.2,-315.84 360.56,-306.09"/>
<polygon fill="midnightblue" stroke="midnightblue" points="362.51,-303.17 352.45,-299.83 358.23,-308.71 362.51,-303.17"/>
</g>
<!-- Node12 -->
<g id="node12" class="node">
<title>Node12</title>
<g id="a_node12"><a xlink:title=" ">
<polygon fill="none" stroke="#bfbfbf" points="509.5,-280.5 509.5,-299.5 570.5,-299.5 570.5,-280.5 509.5,-280.5"/>
<text text-anchor="middle" x="540" y="-287.5" font-family="Helvetica,sans-Serif" font-size="10.00">QtEndian</text>
</a>
</g>
</g>
<!-- Node1&#45;&gt;Node12 -->
<g id="edge16" class="edge">
<title>Node1&#45;&gt;Node12</title>
<path fill="none" stroke="midnightblue" d="M431.44,-336.44C452.67,-327.56 486.1,-313.56 510.25,-303.45"/>
<polygon fill="midnightblue" stroke="midnightblue" points="511.78,-306.61 519.66,-299.52 509.08,-300.15 511.78,-306.61"/>
</g>
<!-- Node3 -->
<g id="node3" class="node">
<title>Node3</title>
<g id="a_node3"><a xlink:href="abstractdatamessage_8h_source.html" target="_top" xlink:title=" ">
<polygon fill="none" stroke="black" points="134.5,-168.5 134.5,-187.5 265.5,-187.5 265.5,-168.5 134.5,-168.5"/>
<text text-anchor="middle" x="200" y="-175.5" font-family="Helvetica,sans-Serif" font-size="10.00">abstractdatamessage.h</text>
</a>
</g>
</g>
<!-- Node2&#45;&gt;Node3 -->
<g id="edge2" class="edge">
<title>Node2&#45;&gt;Node3</title>
<path fill="none" stroke="midnightblue" d="M113.38,-280.37C129.03,-262.05 165.78,-219.05 186.02,-195.36"/>
<polygon fill="midnightblue" stroke="midnightblue" points="188.82,-197.47 192.66,-187.59 183.5,-192.92 188.82,-197.47"/>
</g>
<!-- Node4 -->
<g id="node4" class="node">
<title>Node4</title>
<g id="a_node4"><a xlink:href="QtFit__global_8h_source.html" target="_top" xlink:title=" ">
<polygon fill="none" stroke="black" points="252,-56.5 252,-75.5 336,-75.5 336,-56.5 252,-56.5"/>
<text text-anchor="middle" x="294" y="-63.5" font-family="Helvetica,sans-Serif" font-size="10.00">QtFit_global.h</text>
</a>
</g>
</g>
<!-- Node3&#45;&gt;Node4 -->
<g id="edge3" class="edge">
<title>Node3&#45;&gt;Node4</title>
<path fill="none" stroke="midnightblue" d="M207.38,-168.37C223.03,-150.05 259.78,-107.05 280.02,-83.36"/>
<polygon fill="midnightblue" stroke="midnightblue" points="282.82,-85.47 286.66,-75.59 277.5,-80.92 282.82,-85.47"/>
</g>
<!-- Node6 -->
<g id="node6" class="node">
<title>Node6</title>
<g id="a_node6"><a xlink:href="types_8h.html" target="_top" xlink:title="Types defined by the ANT+ FIT SDK.">
<polygon fill="none" stroke="black" points="322.5,-112.5 322.5,-131.5 375.5,-131.5 375.5,-112.5 322.5,-112.5"/>
<text text-anchor="middle" x="349" y="-119.5" font-family="Helvetica,sans-Serif" font-size="10.00">types.h</text>
</a>
</g>
</g>
<!-- Node3&#45;&gt;Node6 -->
<g id="edge5" class="edge">
<title>Node3&#45;&gt;Node6</title>
<path fill="none" stroke="midnightblue" d="M223.61,-168.44C248.46,-159.44 287.77,-145.19 315.75,-135.05"/>
<polygon fill="midnightblue" stroke="midnightblue" points="317.29,-138.21 325.5,-131.52 314.91,-131.63 317.29,-138.21"/>
</g>
<!-- Node5 -->
<g id="node5" class="node">
<title>Node5</title>
<g id="a_node5"><a xlink:title=" ">
<polygon fill="none" stroke="#bfbfbf" points="264.5,-0.5 264.5,-19.5 323.5,-19.5 323.5,-0.5 264.5,-0.5"/>
<text text-anchor="middle" x="294" y="-7.5" font-family="Helvetica,sans-Serif" font-size="10.00">QtGlobal</text>
</a>
</g>
</g>
<!-- Node4&#45;&gt;Node5 -->
<g id="edge4" class="edge">
<title>Node4&#45;&gt;Node5</title>
<path fill="none" stroke="midnightblue" d="M294,-56.08C294,-49.01 294,-38.86 294,-29.99"/>
<polygon fill="midnightblue" stroke="midnightblue" points="297.5,-29.75 294,-19.75 290.5,-29.75 297.5,-29.75"/>
</g>
<!-- Node6&#45;&gt;Node4 -->
<g id="edge6" class="edge">
<title>Node6&#45;&gt;Node4</title>
<path fill="none" stroke="midnightblue" d="M339.92,-112.08C331.83,-104.14 319.8,-92.34 310.09,-82.8"/>
<polygon fill="midnightblue" stroke="midnightblue" points="312.5,-80.26 302.91,-75.75 307.6,-85.25 312.5,-80.26"/>
</g>
<!-- Node6&#45;&gt;Node7 -->
<g id="edge7" class="edge">
<title>Node6&#45;&gt;Node7</title>
<path fill="none" stroke="midnightblue" d="M362.82,-112.32C376.23,-103.9 396.82,-90.97 412.59,-81.07"/>
<polygon fill="midnightblue" stroke="midnightblue" points="414.61,-83.94 421.22,-75.65 410.89,-78.01 414.61,-83.94"/>
</g>
<!-- Node9 -->
<g id="node9" class="node">
<title>Node9</title>
<g id="a_node9"><a xlink:href="abstractdatamessage__p_8h_source.html" target="_top" xlink:title=" ">
<polygon fill="none" stroke="black" points="269.5,-224.5 269.5,-243.5 412.5,-243.5 412.5,-224.5 269.5,-224.5"/>
<text text-anchor="middle" x="341" y="-231.5" font-family="Helvetica,sans-Serif" font-size="10.00">abstractdatamessage_p.h</text>
</a>
</g>
</g>
<!-- Node8&#45;&gt;Node9 -->
<g id="edge9" class="edge">
<title>Node8&#45;&gt;Node9</title>
<path fill="none" stroke="midnightblue" d="M341,-280.08C341,-273.01 341,-262.86 341,-253.99"/>
<polygon fill="midnightblue" stroke="midnightblue" points="344.5,-253.75 341,-243.75 337.5,-253.75 344.5,-253.75"/>
</g>
<!-- Node9&#45;&gt;Node4 -->
<g id="edge10" class="edge">
<title>Node9&#45;&gt;Node4</title>
<path fill="none" stroke="midnightblue" d="M338.47,-224.08C331.07,-197.95 309.35,-121.21 299.26,-85.58"/>
<polygon fill="midnightblue" stroke="midnightblue" points="302.52,-84.24 296.43,-75.57 295.78,-86.14 302.52,-84.24"/>
</g>
<!-- Node9&#45;&gt;Node6 -->
<g id="edge11" class="edge">
<title>Node9&#45;&gt;Node6</title>
<path fill="none" stroke="midnightblue" d="M341.63,-224.37C342.92,-206.62 345.9,-165.67 347.65,-141.6"/>
<polygon fill="midnightblue" stroke="midnightblue" points="351.14,-141.82 348.38,-131.59 344.16,-141.31 351.14,-141.82"/>
</g>
<!-- Node10 -->
<g id="node10" class="node">
<title>Node10</title>
<g id="a_node10"><a xlink:href="types__p_8h_source.html" target="_top" xlink:title=" ">
<polygon fill="none" stroke="black" points="369,-168.5 369,-187.5 433,-187.5 433,-168.5 369,-168.5"/>
<text text-anchor="middle" x="401" y="-175.5" font-family="Helvetica,sans-Serif" font-size="10.00">types_p.h</text>
</a>
</g>
</g>
<!-- Node9&#45;&gt;Node10 -->
<g id="edge12" class="edge">
<title>Node9&#45;&gt;Node10</title>
<path fill="none" stroke="midnightblue" d="M350.64,-224.32C359.51,-216.34 372.87,-204.31 383.61,-194.65"/>
<polygon fill="midnightblue" stroke="midnightblue" points="386.09,-197.13 391.18,-187.83 381.41,-191.92 386.09,-197.13"/>
</g>
<!-- Node10&#45;&gt;Node6 -->
<g id="edge13" class="edge">
<title>Node10&#45;&gt;Node6</title>
<path fill="none" stroke="midnightblue" d="M392.41,-168.08C384.84,-160.22 373.62,-148.57 364.49,-139.08"/>
<polygon fill="midnightblue" stroke="midnightblue" points="366.88,-136.53 357.43,-131.75 361.84,-141.38 366.88,-136.53"/>
</g>
<!-- Node11 -->
<g id="node11" class="node">
<title>Node11</title>
<g id="a_node11"><a xlink:title=" ">
<polygon fill="none" stroke="#bfbfbf" points="393.5,-112.5 393.5,-131.5 434.5,-131.5 434.5,-112.5 393.5,-112.5"/>
<text text-anchor="middle" x="414" y="-119.5" font-family="Helvetica,sans-Serif" font-size="10.00">QList</text>
</a>
</g>
</g>
<!-- Node10&#45;&gt;Node11 -->
<g id="edge14" class="edge">
<title>Node10&#45;&gt;Node11</title>
<path fill="none" stroke="midnightblue" d="M403.15,-168.08C404.87,-160.93 407.35,-150.64 409.5,-141.69"/>
<polygon fill="midnightblue" stroke="midnightblue" points="412.96,-142.29 411.89,-131.75 406.15,-140.65 412.96,-142.29"/>
</g>
</g>
</svg>
