<?xml version="1.0" encoding="UTF-8" standalone="no"?>
<!DOCTYPE svg PUBLIC "-//W3C//DTD SVG 1.1//EN"
 "http://www.w3.org/Graphics/SVG/1.1/DTD/svg11.dtd">
<!-- Generated by graphviz version 2.43.0 (0)
 -->
<!-- Title: exddatafieldconfigurationmessage.h Pages: 1 -->
<svg width="202pt" height="252pt"
 viewBox="0.00 0.00 202.00 252.00" xmlns="http://www.w3.org/2000/svg" xmlns:xlink="http://www.w3.org/1999/xlink">
<g id="graph0" class="graph" transform="scale(1 1) rotate(0) translate(4 248)">
<title>exddatafieldconfigurationmessage.h</title>
<!-- Node1 -->
<g id="node1" class="node">
<title>Node1</title>
<g id="a_node1"><a xlink:title=" ">
<polygon fill="#bfbfbf" stroke="black" points="0,-224.5 0,-243.5 194,-243.5 194,-224.5 0,-224.5"/>
<text text-anchor="middle" x="97" y="-231.5" font-family="Helvetica,sans-Serif" font-size="10.00">exddatafieldconfigurationmessage.h</text>
</a>
</g>
</g>
<!-- Node2 -->
<g id="node2" class="node">
<title>Node2</title>
<g id="a_node2"><a xlink:href="fitdatamessage_8h.html" target="_top" xlink:title=" ">
<polygon fill="none" stroke="black" points="46.5,-168.5 46.5,-187.5 147.5,-187.5 147.5,-168.5 46.5,-168.5"/>
<text text-anchor="middle" x="97" y="-175.5" font-family="Helvetica,sans-Serif" font-size="10.00">fitdatamessage.h</text>
</a>
</g>
</g>
<!-- Node1&#45;&gt;Node2 -->
<g id="edge1" class="edge">
<title>Node1&#45;&gt;Node2</title>
<path fill="none" stroke="midnightblue" d="M97,-224.08C97,-217.01 97,-206.86 97,-197.99"/>
<polygon fill="midnightblue" stroke="midnightblue" points="100.5,-197.75 97,-187.75 93.5,-197.75 100.5,-197.75"/>
</g>
<!-- Node3 -->
<g id="node3" class="node">
<title>Node3</title>
<g id="a_node3"><a xlink:href="QtFit__global_8h.html" target="_top" xlink:title=" ">
<polygon fill="none" stroke="black" points="55,-56.5 55,-75.5 139,-75.5 139,-56.5 55,-56.5"/>
<text text-anchor="middle" x="97" y="-63.5" font-family="Helvetica,sans-Serif" font-size="10.00">QtFit_global.h</text>
</a>
</g>
</g>
<!-- Node2&#45;&gt;Node3 -->
<g id="edge2" class="edge">
<title>Node2&#45;&gt;Node3</title>
<path fill="none" stroke="midnightblue" d="M95.26,-168.42C93.53,-159.4 90.99,-144.77 90,-132 88.8,-116.42 90.91,-98.8 93.12,-85.84"/>
<polygon fill="midnightblue" stroke="midnightblue" points="96.6,-86.29 95.01,-75.82 89.72,-84.99 96.6,-86.29"/>
</g>
<!-- Node5 -->
<g id="node5" class="node">
<title>Node5</title>
<g id="a_node5"><a xlink:href="types_8h.html" target="_top" xlink:title="Types defined by the ANT+ FIT SDK.">
<polygon fill="none" stroke="black" points="98.5,-112.5 98.5,-131.5 151.5,-131.5 151.5,-112.5 98.5,-112.5"/>
<text text-anchor="middle" x="125" y="-119.5" font-family="Helvetica,sans-Serif" font-size="10.00">types.h</text>
</a>
</g>
</g>
<!-- Node2&#45;&gt;Node5 -->
<g id="edge4" class="edge">
<title>Node2&#45;&gt;Node5</title>
<path fill="none" stroke="midnightblue" d="M101.62,-168.08C105.46,-160.69 111.02,-149.95 115.76,-140.81"/>
<polygon fill="midnightblue" stroke="midnightblue" points="118.97,-142.24 120.46,-131.75 112.75,-139.02 118.97,-142.24"/>
</g>
<!-- Node4 -->
<g id="node4" class="node">
<title>Node4</title>
<g id="a_node4"><a xlink:title=" ">
<polygon fill="none" stroke="#bfbfbf" points="67.5,-0.5 67.5,-19.5 126.5,-19.5 126.5,-0.5 67.5,-0.5"/>
<text text-anchor="middle" x="97" y="-7.5" font-family="Helvetica,sans-Serif" font-size="10.00">QtGlobal</text>
</a>
</g>
</g>
<!-- Node3&#45;&gt;Node4 -->
<g id="edge3" class="edge">
<title>Node3&#45;&gt;Node4</title>
<path fill="none" stroke="midnightblue" d="M97,-56.08C97,-49.01 97,-38.86 97,-29.99"/>
<polygon fill="midnightblue" stroke="midnightblue" points="100.5,-29.75 97,-19.75 93.5,-29.75 100.5,-29.75"/>
</g>
<!-- Node5&#45;&gt;Node3 -->
<g id="edge5" class="edge">
<title>Node5&#45;&gt;Node3</title>
<path fill="none" stroke="midnightblue" d="M120.38,-112.08C116.54,-104.69 110.98,-93.95 106.24,-84.81"/>
<polygon fill="midnightblue" stroke="midnightblue" points="109.25,-83.02 101.54,-75.75 103.03,-86.24 109.25,-83.02"/>
</g>
</g>
</svg>
