<?xml version="1.0" encoding="UTF-8" standalone="no"?>
<!DOCTYPE svg PUBLIC "-//W3C//DTD SVG 1.1//EN"
 "http://www.w3.org/Graphics/SVG/1.1/DTD/svg11.dtd">
<!-- Generated by graphviz version 2.43.0 (0)
 -->
<!-- Title: exdscreenconfigurationmessage.cpp Pages: 1 -->
<svg width="404pt" height="364pt"
 viewBox="0.00 0.00 404.00 364.00" xmlns="http://www.w3.org/2000/svg" xmlns:xlink="http://www.w3.org/1999/xlink">
<g id="graph0" class="graph" transform="scale(1 1) rotate(0) translate(4 360)">
<title>exdscreenconfigurationmessage.cpp</title>
<!-- Node1 -->
<g id="node1" class="node">
<title>Node1</title>
<g id="a_node1"><a xlink:title=" ">
<polygon fill="#bfbfbf" stroke="black" points="163,-336.5 163,-355.5 358,-355.5 358,-336.5 163,-336.5"/>
<text text-anchor="middle" x="260.5" y="-343.5" font-family="Helvetica,sans-Serif" font-size="10.00">exdscreenconfigurationmessage.cpp</text>
</a>
</g>
</g>
<!-- Node2 -->
<g id="node2" class="node">
<title>Node2</title>
<g id="a_node2"><a xlink:href="exdscreenconfigurationmessage_8h.html" target="_top" xlink:title=" ">
<polygon fill="none" stroke="black" points="151.5,-224.5 151.5,-243.5 335.5,-243.5 335.5,-224.5 151.5,-224.5"/>
<text text-anchor="middle" x="243.5" y="-231.5" font-family="Helvetica,sans-Serif" font-size="10.00">exdscreenconfigurationmessage.h</text>
</a>
</g>
</g>
<!-- Node1&#45;&gt;Node2 -->
<g id="edge1" class="edge">
<title>Node1&#45;&gt;Node2</title>
<path fill="none" stroke="midnightblue" d="M258.58,-336.41C256.61,-327.38 253.56,-312.74 251.5,-300 249.01,-284.55 246.88,-266.92 245.45,-253.92"/>
<polygon fill="midnightblue" stroke="midnightblue" points="248.92,-253.43 244.38,-243.86 241.96,-254.18 248.92,-253.43"/>
</g>
<!-- Node7 -->
<g id="node7" class="node">
<title>Node7</title>
<g id="a_node7"><a xlink:href="exdscreenconfigurationmessage__p_8h.html" target="_top" xlink:title=" ">
<polygon fill="none" stroke="black" points="0,-280.5 0,-299.5 195,-299.5 195,-280.5 0,-280.5"/>
<text text-anchor="middle" x="97.5" y="-287.5" font-family="Helvetica,sans-Serif" font-size="10.00">exdscreenconfigurationmessage_p.h</text>
</a>
</g>
</g>
<!-- Node1&#45;&gt;Node7 -->
<g id="edge7" class="edge">
<title>Node1&#45;&gt;Node7</title>
<path fill="none" stroke="midnightblue" d="M234.67,-336.44C207.25,-327.36 163.72,-312.94 133.07,-302.78"/>
<polygon fill="midnightblue" stroke="midnightblue" points="133.8,-299.34 123.21,-299.52 131.6,-305.98 133.8,-299.34"/>
</g>
<!-- Node11 -->
<g id="node11" class="node">
<title>Node11</title>
<g id="a_node11"><a xlink:title=" ">
<polygon fill="none" stroke="#bfbfbf" points="260.5,-280.5 260.5,-299.5 316.5,-299.5 316.5,-280.5 260.5,-280.5"/>
<text text-anchor="middle" x="288.5" y="-287.5" font-family="Helvetica,sans-Serif" font-size="10.00">QDebug</text>
</a>
</g>
</g>
<!-- Node1&#45;&gt;Node11 -->
<g id="edge14" class="edge">
<title>Node1&#45;&gt;Node11</title>
<path fill="none" stroke="midnightblue" d="M265.12,-336.08C268.96,-328.69 274.52,-317.95 279.26,-308.81"/>
<polygon fill="midnightblue" stroke="midnightblue" points="282.47,-310.24 283.96,-299.75 276.25,-307.02 282.47,-310.24"/>
</g>
<!-- Node12 -->
<g id="node12" class="node">
<title>Node12</title>
<g id="a_node12"><a xlink:title=" ">
<polygon fill="none" stroke="#bfbfbf" points="335,-280.5 335,-299.5 396,-299.5 396,-280.5 335,-280.5"/>
<text text-anchor="middle" x="365.5" y="-287.5" font-family="Helvetica,sans-Serif" font-size="10.00">QtEndian</text>
</a>
</g>
</g>
<!-- Node1&#45;&gt;Node12 -->
<g id="edge15" class="edge">
<title>Node1&#45;&gt;Node12</title>
<path fill="none" stroke="midnightblue" d="M277.37,-336.32C294.21,-327.66 320.31,-314.24 339.74,-304.25"/>
<polygon fill="midnightblue" stroke="midnightblue" points="341.38,-307.34 348.67,-299.65 338.18,-301.12 341.38,-307.34"/>
</g>
<!-- Node3 -->
<g id="node3" class="node">
<title>Node3</title>
<g id="a_node3"><a xlink:href="fitdatamessage_8h.html" target="_top" xlink:title=" ">
<polygon fill="none" stroke="black" points="179,-168.5 179,-187.5 280,-187.5 280,-168.5 179,-168.5"/>
<text text-anchor="middle" x="229.5" y="-175.5" font-family="Helvetica,sans-Serif" font-size="10.00">fitdatamessage.h</text>
</a>
</g>
</g>
<!-- Node2&#45;&gt;Node3 -->
<g id="edge2" class="edge">
<title>Node2&#45;&gt;Node3</title>
<path fill="none" stroke="midnightblue" d="M241.19,-224.08C239.33,-216.93 236.66,-206.64 234.35,-197.69"/>
<polygon fill="midnightblue" stroke="midnightblue" points="237.67,-196.55 231.77,-187.75 230.89,-198.31 237.67,-196.55"/>
</g>
<!-- Node4 -->
<g id="node4" class="node">
<title>Node4</title>
<g id="a_node4"><a xlink:href="QtFit__global_8h.html" target="_top" xlink:title=" ">
<polygon fill="none" stroke="black" points="110.5,-56.5 110.5,-75.5 194.5,-75.5 194.5,-56.5 110.5,-56.5"/>
<text text-anchor="middle" x="152.5" y="-63.5" font-family="Helvetica,sans-Serif" font-size="10.00">QtFit_global.h</text>
</a>
</g>
</g>
<!-- Node3&#45;&gt;Node4 -->
<g id="edge3" class="edge">
<title>Node3&#45;&gt;Node4</title>
<path fill="none" stroke="midnightblue" d="M224.49,-168.39C217.04,-155.75 202.43,-131.56 188.5,-112 181.61,-102.32 173.36,-91.94 166.51,-83.59"/>
<polygon fill="midnightblue" stroke="midnightblue" points="169.06,-81.19 159.97,-75.74 163.68,-85.66 169.06,-81.19"/>
</g>
<!-- Node6 -->
<g id="node6" class="node">
<title>Node6</title>
<g id="a_node6"><a xlink:href="types_8h.html" target="_top" xlink:title="Types defined by the ANT+ FIT SDK.">
<polygon fill="none" stroke="black" points="126,-112.5 126,-131.5 179,-131.5 179,-112.5 126,-112.5"/>
<text text-anchor="middle" x="152.5" y="-119.5" font-family="Helvetica,sans-Serif" font-size="10.00">types.h</text>
</a>
</g>
</g>
<!-- Node3&#45;&gt;Node6 -->
<g id="edge5" class="edge">
<title>Node3&#45;&gt;Node6</title>
<path fill="none" stroke="midnightblue" d="M217.13,-168.32C205.34,-160.06 187.37,-147.45 173.36,-137.63"/>
<polygon fill="midnightblue" stroke="midnightblue" points="175.04,-134.53 164.84,-131.65 171.02,-140.26 175.04,-134.53"/>
</g>
<!-- Node5 -->
<g id="node5" class="node">
<title>Node5</title>
<g id="a_node5"><a xlink:title=" ">
<polygon fill="none" stroke="#bfbfbf" points="123,-0.5 123,-19.5 182,-19.5 182,-0.5 123,-0.5"/>
<text text-anchor="middle" x="152.5" y="-7.5" font-family="Helvetica,sans-Serif" font-size="10.00">QtGlobal</text>
</a>
</g>
</g>
<!-- Node4&#45;&gt;Node5 -->
<g id="edge4" class="edge">
<title>Node4&#45;&gt;Node5</title>
<path fill="none" stroke="midnightblue" d="M152.5,-56.08C152.5,-49.01 152.5,-38.86 152.5,-29.99"/>
<polygon fill="midnightblue" stroke="midnightblue" points="156,-29.75 152.5,-19.75 149,-29.75 156,-29.75"/>
</g>
<!-- Node6&#45;&gt;Node4 -->
<g id="edge6" class="edge">
<title>Node6&#45;&gt;Node4</title>
<path fill="none" stroke="midnightblue" d="M152.5,-112.08C152.5,-105.01 152.5,-94.86 152.5,-85.99"/>
<polygon fill="midnightblue" stroke="midnightblue" points="156,-85.75 152.5,-75.75 149,-85.75 156,-85.75"/>
</g>
<!-- Node8 -->
<g id="node8" class="node">
<title>Node8</title>
<g id="a_node8"><a xlink:href="fitdatamessage__p_8h.html" target="_top" xlink:title=" ">
<polygon fill="none" stroke="black" points="20,-224.5 20,-243.5 133,-243.5 133,-224.5 20,-224.5"/>
<text text-anchor="middle" x="76.5" y="-231.5" font-family="Helvetica,sans-Serif" font-size="10.00">fitdatamessage_p.h</text>
</a>
</g>
</g>
<!-- Node7&#45;&gt;Node8 -->
<g id="edge8" class="edge">
<title>Node7&#45;&gt;Node8</title>
<path fill="none" stroke="midnightblue" d="M94.03,-280.08C91.19,-272.77 87.07,-262.18 83.54,-253.1"/>
<polygon fill="midnightblue" stroke="midnightblue" points="86.79,-251.8 79.9,-243.75 80.27,-254.34 86.79,-251.8"/>
</g>
<!-- Node8&#45;&gt;Node4 -->
<g id="edge9" class="edge">
<title>Node8&#45;&gt;Node4</title>
<path fill="none" stroke="midnightblue" d="M69.35,-224.36C62.73,-215.76 53.34,-201.87 49.5,-188 43.86,-167.64 53.47,-117.47 57.5,-112 69.1,-96.26 87.64,-85.81 105.27,-78.98"/>
<polygon fill="midnightblue" stroke="midnightblue" points="106.67,-82.2 114.92,-75.55 104.32,-75.6 106.67,-82.2"/>
</g>
<!-- Node8&#45;&gt;Node6 -->
<g id="edge10" class="edge">
<title>Node8&#45;&gt;Node6</title>
<path fill="none" stroke="midnightblue" d="M91.12,-224.42C103.52,-216.45 120.93,-203.49 131.5,-188 141,-174.07 146.43,-155.56 149.37,-141.86"/>
<polygon fill="midnightblue" stroke="midnightblue" points="152.88,-142.16 151.3,-131.68 146,-140.86 152.88,-142.16"/>
</g>
<!-- Node9 -->
<g id="node9" class="node">
<title>Node9</title>
<g id="a_node9"><a xlink:href="types__p_8h.html" target="_top" xlink:title=" ">
<polygon fill="none" stroke="black" points="58.5,-168.5 58.5,-187.5 122.5,-187.5 122.5,-168.5 58.5,-168.5"/>
<text text-anchor="middle" x="90.5" y="-175.5" font-family="Helvetica,sans-Serif" font-size="10.00">types_p.h</text>
</a>
</g>
</g>
<!-- Node8&#45;&gt;Node9 -->
<g id="edge11" class="edge">
<title>Node8&#45;&gt;Node9</title>
<path fill="none" stroke="midnightblue" d="M78.81,-224.08C80.67,-216.93 83.34,-206.64 85.65,-197.69"/>
<polygon fill="midnightblue" stroke="midnightblue" points="89.11,-198.31 88.23,-187.75 82.33,-196.55 89.11,-198.31"/>
</g>
<!-- Node9&#45;&gt;Node6 -->
<g id="edge12" class="edge">
<title>Node9&#45;&gt;Node6</title>
<path fill="none" stroke="midnightblue" d="M100.46,-168.32C109.63,-160.34 123.44,-148.31 134.53,-138.65"/>
<polygon fill="midnightblue" stroke="midnightblue" points="137.12,-141.04 142.36,-131.83 132.52,-135.76 137.12,-141.04"/>
</g>
<!-- Node10 -->
<g id="node10" class="node">
<title>Node10</title>
<g id="a_node10"><a xlink:title=" ">
<polygon fill="none" stroke="#bfbfbf" points="67,-112.5 67,-131.5 108,-131.5 108,-112.5 67,-112.5"/>
<text text-anchor="middle" x="87.5" y="-119.5" font-family="Helvetica,sans-Serif" font-size="10.00">QList</text>
</a>
</g>
</g>
<!-- Node9&#45;&gt;Node10 -->
<g id="edge13" class="edge">
<title>Node9&#45;&gt;Node10</title>
<path fill="none" stroke="midnightblue" d="M90,-168.08C89.61,-161.01 89.05,-150.86 88.55,-141.99"/>
<polygon fill="midnightblue" stroke="midnightblue" points="92.04,-141.54 87.99,-131.75 85.05,-141.93 92.04,-141.54"/>
</g>
</g>
</svg>
