<?xml version="1.0" encoding="UTF-8" standalone="no"?>
<!DOCTYPE svg PUBLIC "-//W3C//DTD SVG 1.1//EN"
 "http://www.w3.org/Graphics/SVG/1.1/DTD/svg11.dtd">
<!-- Generated by graphviz version 2.43.0 (0)
 -->
<!-- Title: exdscreenconfigurationmessage.cpp Pages: 1 -->
<svg width="523pt" height="364pt"
 viewBox="0.00 0.00 522.50 364.00" xmlns="http://www.w3.org/2000/svg" xmlns:xlink="http://www.w3.org/1999/xlink">
<g id="graph0" class="graph" transform="scale(1 1) rotate(0) translate(4 360)">
<title>exdscreenconfigurationmessage.cpp</title>
<!-- Node1 -->
<g id="node1" class="node">
<title>Node1</title>
<g id="a_node1"><a xlink:title=" ">
<polygon fill="#bfbfbf" stroke="black" points="264.5,-336.5 264.5,-355.5 459.5,-355.5 459.5,-336.5 264.5,-336.5"/>
<text text-anchor="middle" x="362" y="-343.5" font-family="Helvetica,sans-Serif" font-size="10.00">exdscreenconfigurationmessage.cpp</text>
</a>
</g>
</g>
<!-- Node2 -->
<g id="node2" class="node">
<title>Node2</title>
<g id="a_node2"><a xlink:href="exdscreenconfigurationmessage_8h.html" target="_top" xlink:title=" ">
<polygon fill="none" stroke="black" points="0,-280.5 0,-299.5 184,-299.5 184,-280.5 0,-280.5"/>
<text text-anchor="middle" x="92" y="-287.5" font-family="Helvetica,sans-Serif" font-size="10.00">exdscreenconfigurationmessage.h</text>
</a>
</g>
</g>
<!-- Node1&#45;&gt;Node2 -->
<g id="edge1" class="edge">
<title>Node1&#45;&gt;Node2</title>
<path fill="none" stroke="midnightblue" d="M319.22,-336.44C271.82,-326.96 195.37,-311.67 144.42,-301.48"/>
<polygon fill="midnightblue" stroke="midnightblue" points="145.07,-298.05 134.58,-299.52 143.7,-304.91 145.07,-298.05"/>
</g>
<!-- Node7 -->
<g id="node7" class="node">
<title>Node7</title>
<g id="a_node7"><a xlink:title=" ">
<polygon fill="none" stroke="#bfbfbf" points="356,-56.5 356,-75.5 412,-75.5 412,-56.5 356,-56.5"/>
<text text-anchor="middle" x="384" y="-63.5" font-family="Helvetica,sans-Serif" font-size="10.00">QDebug</text>
</a>
</g>
</g>
<!-- Node1&#45;&gt;Node7 -->
<g id="edge15" class="edge">
<title>Node1&#45;&gt;Node7</title>
<path fill="none" stroke="midnightblue" d="M373.34,-336.18C383.31,-327.86 397.5,-314.52 406,-300 421.2,-274.02 425,-265.1 425,-235 425,-235 425,-235 425,-177 425,-142.52 407.09,-105.56 394.94,-84.47"/>
<polygon fill="midnightblue" stroke="midnightblue" points="397.84,-82.49 389.7,-75.71 391.84,-86.09 397.84,-82.49"/>
</g>
<!-- Node8 -->
<g id="node8" class="node">
<title>Node8</title>
<g id="a_node8"><a xlink:href="exdscreenconfigurationmessage__p_8h.html" target="_top" xlink:title=" ">
<polygon fill="none" stroke="black" points="202.5,-280.5 202.5,-299.5 397.5,-299.5 397.5,-280.5 202.5,-280.5"/>
<text text-anchor="middle" x="300" y="-287.5" font-family="Helvetica,sans-Serif" font-size="10.00">exdscreenconfigurationmessage_p.h</text>
</a>
</g>
</g>
<!-- Node1&#45;&gt;Node8 -->
<g id="edge8" class="edge">
<title>Node1&#45;&gt;Node8</title>
<path fill="none" stroke="midnightblue" d="M352.04,-336.32C342.87,-328.34 329.06,-316.31 317.97,-306.65"/>
<polygon fill="midnightblue" stroke="midnightblue" points="319.98,-303.76 310.14,-299.83 315.38,-309.04 319.98,-303.76"/>
</g>
<!-- Node12 -->
<g id="node12" class="node">
<title>Node12</title>
<g id="a_node12"><a xlink:title=" ">
<polygon fill="none" stroke="#bfbfbf" points="453.5,-280.5 453.5,-299.5 514.5,-299.5 514.5,-280.5 453.5,-280.5"/>
<text text-anchor="middle" x="484" y="-287.5" font-family="Helvetica,sans-Serif" font-size="10.00">QtEndian</text>
</a>
</g>
</g>
<!-- Node1&#45;&gt;Node12 -->
<g id="edge16" class="edge">
<title>Node1&#45;&gt;Node12</title>
<path fill="none" stroke="midnightblue" d="M381.33,-336.44C401.32,-327.6 432.74,-313.69 455.56,-303.59"/>
<polygon fill="midnightblue" stroke="midnightblue" points="457.03,-306.76 464.76,-299.52 454.2,-300.36 457.03,-306.76"/>
</g>
<!-- Node3 -->
<g id="node3" class="node">
<title>Node3</title>
<g id="a_node3"><a xlink:href="abstractdatamessage_8h_source.html" target="_top" xlink:title=" ">
<polygon fill="none" stroke="black" points="90.5,-168.5 90.5,-187.5 221.5,-187.5 221.5,-168.5 90.5,-168.5"/>
<text text-anchor="middle" x="156" y="-175.5" font-family="Helvetica,sans-Serif" font-size="10.00">abstractdatamessage.h</text>
</a>
</g>
</g>
<!-- Node2&#45;&gt;Node3 -->
<g id="edge2" class="edge">
<title>Node2&#45;&gt;Node3</title>
<path fill="none" stroke="midnightblue" d="M97.02,-280.37C107.54,-262.3 132.04,-220.18 145.93,-196.31"/>
<polygon fill="midnightblue" stroke="midnightblue" points="149,-198 151,-187.59 142.95,-194.47 149,-198"/>
</g>
<!-- Node4 -->
<g id="node4" class="node">
<title>Node4</title>
<g id="a_node4"><a xlink:href="QtFit__global_8h_source.html" target="_top" xlink:title=" ">
<polygon fill="none" stroke="black" points="208,-56.5 208,-75.5 292,-75.5 292,-56.5 208,-56.5"/>
<text text-anchor="middle" x="250" y="-63.5" font-family="Helvetica,sans-Serif" font-size="10.00">QtFit_global.h</text>
</a>
</g>
</g>
<!-- Node3&#45;&gt;Node4 -->
<g id="edge3" class="edge">
<title>Node3&#45;&gt;Node4</title>
<path fill="none" stroke="midnightblue" d="M163.38,-168.37C179.03,-150.05 215.78,-107.05 236.02,-83.36"/>
<polygon fill="midnightblue" stroke="midnightblue" points="238.82,-85.47 242.66,-75.59 233.5,-80.92 238.82,-85.47"/>
</g>
<!-- Node6 -->
<g id="node6" class="node">
<title>Node6</title>
<g id="a_node6"><a xlink:href="types_8h.html" target="_top" xlink:title="Types defined by the ANT+ FIT SDK.">
<polygon fill="none" stroke="black" points="278.5,-112.5 278.5,-131.5 331.5,-131.5 331.5,-112.5 278.5,-112.5"/>
<text text-anchor="middle" x="305" y="-119.5" font-family="Helvetica,sans-Serif" font-size="10.00">types.h</text>
</a>
</g>
</g>
<!-- Node3&#45;&gt;Node6 -->
<g id="edge5" class="edge">
<title>Node3&#45;&gt;Node6</title>
<path fill="none" stroke="midnightblue" d="M179.61,-168.44C204.46,-159.44 243.77,-145.19 271.75,-135.05"/>
<polygon fill="midnightblue" stroke="midnightblue" points="273.29,-138.21 281.5,-131.52 270.91,-131.63 273.29,-138.21"/>
</g>
<!-- Node5 -->
<g id="node5" class="node">
<title>Node5</title>
<g id="a_node5"><a xlink:title=" ">
<polygon fill="none" stroke="#bfbfbf" points="220.5,-0.5 220.5,-19.5 279.5,-19.5 279.5,-0.5 220.5,-0.5"/>
<text text-anchor="middle" x="250" y="-7.5" font-family="Helvetica,sans-Serif" font-size="10.00">QtGlobal</text>
</a>
</g>
</g>
<!-- Node4&#45;&gt;Node5 -->
<g id="edge4" class="edge">
<title>Node4&#45;&gt;Node5</title>
<path fill="none" stroke="midnightblue" d="M250,-56.08C250,-49.01 250,-38.86 250,-29.99"/>
<polygon fill="midnightblue" stroke="midnightblue" points="253.5,-29.75 250,-19.75 246.5,-29.75 253.5,-29.75"/>
</g>
<!-- Node6&#45;&gt;Node4 -->
<g id="edge6" class="edge">
<title>Node6&#45;&gt;Node4</title>
<path fill="none" stroke="midnightblue" d="M295.92,-112.08C287.83,-104.14 275.8,-92.34 266.09,-82.8"/>
<polygon fill="midnightblue" stroke="midnightblue" points="268.5,-80.26 258.91,-75.75 263.6,-85.25 268.5,-80.26"/>
</g>
<!-- Node6&#45;&gt;Node7 -->
<g id="edge7" class="edge">
<title>Node6&#45;&gt;Node7</title>
<path fill="none" stroke="midnightblue" d="M317.69,-112.32C329.9,-103.98 348.58,-91.21 363,-81.35"/>
<polygon fill="midnightblue" stroke="midnightblue" points="365.06,-84.19 371.34,-75.65 361.11,-78.41 365.06,-84.19"/>
</g>
<!-- Node9 -->
<g id="node9" class="node">
<title>Node9</title>
<g id="a_node9"><a xlink:href="abstractdatamessage__p_8h_source.html" target="_top" xlink:title=" ">
<polygon fill="none" stroke="black" points="228.5,-224.5 228.5,-243.5 371.5,-243.5 371.5,-224.5 228.5,-224.5"/>
<text text-anchor="middle" x="300" y="-231.5" font-family="Helvetica,sans-Serif" font-size="10.00">abstractdatamessage_p.h</text>
</a>
</g>
</g>
<!-- Node8&#45;&gt;Node9 -->
<g id="edge9" class="edge">
<title>Node8&#45;&gt;Node9</title>
<path fill="none" stroke="midnightblue" d="M300,-280.08C300,-273.01 300,-262.86 300,-253.99"/>
<polygon fill="midnightblue" stroke="midnightblue" points="303.5,-253.75 300,-243.75 296.5,-253.75 303.5,-253.75"/>
</g>
<!-- Node9&#45;&gt;Node4 -->
<g id="edge10" class="edge">
<title>Node9&#45;&gt;Node4</title>
<path fill="none" stroke="midnightblue" d="M297.31,-224.37C291.88,-206.93 279.27,-166.26 269,-132 264.31,-116.34 259.11,-98.51 255.33,-85.49"/>
<polygon fill="midnightblue" stroke="midnightblue" points="258.68,-84.48 252.54,-75.84 251.96,-86.42 258.68,-84.48"/>
</g>
<!-- Node9&#45;&gt;Node6 -->
<g id="edge11" class="edge">
<title>Node9&#45;&gt;Node6</title>
<path fill="none" stroke="midnightblue" d="M300.39,-224.37C301.2,-206.62 303.06,-165.67 304.15,-141.6"/>
<polygon fill="midnightblue" stroke="midnightblue" points="307.65,-141.74 304.61,-131.59 300.66,-141.42 307.65,-141.74"/>
</g>
<!-- Node10 -->
<g id="node10" class="node">
<title>Node10</title>
<g id="a_node10"><a xlink:href="types__p_8h_source.html" target="_top" xlink:title=" ">
<polygon fill="none" stroke="black" points="328,-168.5 328,-187.5 392,-187.5 392,-168.5 328,-168.5"/>
<text text-anchor="middle" x="360" y="-175.5" font-family="Helvetica,sans-Serif" font-size="10.00">types_p.h</text>
</a>
</g>
</g>
<!-- Node9&#45;&gt;Node10 -->
<g id="edge12" class="edge">
<title>Node9&#45;&gt;Node10</title>
<path fill="none" stroke="midnightblue" d="M309.64,-224.32C318.51,-216.34 331.87,-204.31 342.61,-194.65"/>
<polygon fill="midnightblue" stroke="midnightblue" points="345.09,-197.13 350.18,-187.83 340.41,-191.92 345.09,-197.13"/>
</g>
<!-- Node10&#45;&gt;Node6 -->
<g id="edge13" class="edge">
<title>Node10&#45;&gt;Node6</title>
<path fill="none" stroke="midnightblue" d="M350.92,-168.08C342.83,-160.14 330.8,-148.34 321.09,-138.8"/>
<polygon fill="midnightblue" stroke="midnightblue" points="323.5,-136.26 313.91,-131.75 318.6,-141.25 323.5,-136.26"/>
</g>
<!-- Node11 -->
<g id="node11" class="node">
<title>Node11</title>
<g id="a_node11"><a xlink:title=" ">
<polygon fill="none" stroke="#bfbfbf" points="349.5,-112.5 349.5,-131.5 390.5,-131.5 390.5,-112.5 349.5,-112.5"/>
<text text-anchor="middle" x="370" y="-119.5" font-family="Helvetica,sans-Serif" font-size="10.00">QList</text>
</a>
</g>
</g>
<!-- Node10&#45;&gt;Node11 -->
<g id="edge14" class="edge">
<title>Node10&#45;&gt;Node11</title>
<path fill="none" stroke="midnightblue" d="M361.65,-168.08C362.98,-160.93 364.88,-150.64 366.54,-141.69"/>
<polygon fill="midnightblue" stroke="midnightblue" points="370,-142.22 368.38,-131.75 363.12,-140.95 370,-142.22"/>
</g>
</g>
</svg>
