<?xml version="1.0" encoding="UTF-8" standalone="no"?>
<!DOCTYPE svg PUBLIC "-//W3C//DTD SVG 1.1//EN"
 "http://www.w3.org/Graphics/SVG/1.1/DTD/svg11.dtd">
<!-- Generated by graphviz version 2.43.0 (0)
 -->
<!-- Title: exdscreenconfigurationmessage.cpp Pages: 1 -->
<svg width="406pt" height="364pt"
 viewBox="0.00 0.00 405.50 364.00" xmlns="http://www.w3.org/2000/svg" xmlns:xlink="http://www.w3.org/1999/xlink">
<g id="graph0" class="graph" transform="scale(1 1) rotate(0) translate(4 360)">
<title>exdscreenconfigurationmessage.cpp</title>
<!-- Node1 -->
<g id="node1" class="node">
<title>Node1</title>
<g id="a_node1"><a xlink:title=" ">
<polygon fill="#bfbfbf" stroke="black" points="104,-336.5 104,-355.5 299,-355.5 299,-336.5 104,-336.5"/>
<text text-anchor="middle" x="201.5" y="-343.5" font-family="Helvetica,sans-Serif" font-size="10.00">exdscreenconfigurationmessage.cpp</text>
</a>
</g>
</g>
<!-- Node2 -->
<g id="node2" class="node">
<title>Node2</title>
<g id="a_node2"><a xlink:href="exdscreenconfigurationmessage_8h.html" target="_top" xlink:title=" ">
<polygon fill="none" stroke="black" points="213.5,-280.5 213.5,-299.5 397.5,-299.5 397.5,-280.5 213.5,-280.5"/>
<text text-anchor="middle" x="305.5" y="-287.5" font-family="Helvetica,sans-Serif" font-size="10.00">exdscreenconfigurationmessage.h</text>
</a>
</g>
</g>
<!-- Node1&#45;&gt;Node2 -->
<g id="edge1" class="edge">
<title>Node1&#45;&gt;Node2</title>
<path fill="none" stroke="midnightblue" d="M218.21,-336.32C234.81,-327.7 260.5,-314.36 279.72,-304.39"/>
<polygon fill="midnightblue" stroke="midnightblue" points="281.57,-307.37 288.83,-299.65 278.34,-301.16 281.57,-307.37"/>
</g>
<!-- Node7 -->
<g id="node7" class="node">
<title>Node7</title>
<g id="a_node7"><a xlink:href="exdscreenconfigurationmessage__p_8h.html" target="_top" xlink:title=" ">
<polygon fill="none" stroke="black" points="0,-280.5 0,-299.5 195,-299.5 195,-280.5 0,-280.5"/>
<text text-anchor="middle" x="97.5" y="-287.5" font-family="Helvetica,sans-Serif" font-size="10.00">exdscreenconfigurationmessage_p.h</text>
</a>
</g>
</g>
<!-- Node1&#45;&gt;Node7 -->
<g id="edge7" class="edge">
<title>Node1&#45;&gt;Node7</title>
<path fill="none" stroke="midnightblue" d="M184.79,-336.32C168.19,-327.7 142.5,-314.36 123.28,-304.39"/>
<polygon fill="midnightblue" stroke="midnightblue" points="124.66,-301.16 114.17,-299.65 121.43,-307.37 124.66,-301.16"/>
</g>
<!-- Node3 -->
<g id="node3" class="node">
<title>Node3</title>
<g id="a_node3"><a xlink:href="fitdatamessage_8h.html" target="_top" xlink:title=" ">
<polygon fill="none" stroke="black" points="237,-168.5 237,-187.5 338,-187.5 338,-168.5 237,-168.5"/>
<text text-anchor="middle" x="287.5" y="-175.5" font-family="Helvetica,sans-Serif" font-size="10.00">fitdatamessage.h</text>
</a>
</g>
</g>
<!-- Node2&#45;&gt;Node3 -->
<g id="edge2" class="edge">
<title>Node2&#45;&gt;Node3</title>
<path fill="none" stroke="midnightblue" d="M304.09,-280.37C301.18,-262.62 294.48,-221.67 290.54,-197.6"/>
<polygon fill="midnightblue" stroke="midnightblue" points="293.97,-196.89 288.91,-187.59 287.07,-198.03 293.97,-196.89"/>
</g>
<!-- Node4 -->
<g id="node4" class="node">
<title>Node4</title>
<g id="a_node4"><a xlink:href="QtFit__global_8h.html" target="_top" xlink:title=" ">
<polygon fill="none" stroke="black" points="168.5,-56.5 168.5,-75.5 252.5,-75.5 252.5,-56.5 168.5,-56.5"/>
<text text-anchor="middle" x="210.5" y="-63.5" font-family="Helvetica,sans-Serif" font-size="10.00">QtFit_global.h</text>
</a>
</g>
</g>
<!-- Node3&#45;&gt;Node4 -->
<g id="edge3" class="edge">
<title>Node3&#45;&gt;Node4</title>
<path fill="none" stroke="midnightblue" d="M282.49,-168.39C275.04,-155.75 260.43,-131.56 246.5,-112 239.61,-102.32 231.36,-91.94 224.51,-83.59"/>
<polygon fill="midnightblue" stroke="midnightblue" points="227.06,-81.19 217.97,-75.74 221.68,-85.66 227.06,-81.19"/>
</g>
<!-- Node6 -->
<g id="node6" class="node">
<title>Node6</title>
<g id="a_node6"><a xlink:href="types_8h.html" target="_top" xlink:title="Types defined by the ANT+ FIT SDK.">
<polygon fill="none" stroke="black" points="184,-112.5 184,-131.5 237,-131.5 237,-112.5 184,-112.5"/>
<text text-anchor="middle" x="210.5" y="-119.5" font-family="Helvetica,sans-Serif" font-size="10.00">types.h</text>
</a>
</g>
</g>
<!-- Node3&#45;&gt;Node6 -->
<g id="edge5" class="edge">
<title>Node3&#45;&gt;Node6</title>
<path fill="none" stroke="midnightblue" d="M275.13,-168.32C263.34,-160.06 245.37,-147.45 231.36,-137.63"/>
<polygon fill="midnightblue" stroke="midnightblue" points="233.04,-134.53 222.84,-131.65 229.02,-140.26 233.04,-134.53"/>
</g>
<!-- Node5 -->
<g id="node5" class="node">
<title>Node5</title>
<g id="a_node5"><a xlink:title=" ">
<polygon fill="none" stroke="#bfbfbf" points="181,-0.5 181,-19.5 240,-19.5 240,-0.5 181,-0.5"/>
<text text-anchor="middle" x="210.5" y="-7.5" font-family="Helvetica,sans-Serif" font-size="10.00">QtGlobal</text>
</a>
</g>
</g>
<!-- Node4&#45;&gt;Node5 -->
<g id="edge4" class="edge">
<title>Node4&#45;&gt;Node5</title>
<path fill="none" stroke="midnightblue" d="M210.5,-56.08C210.5,-49.01 210.5,-38.86 210.5,-29.99"/>
<polygon fill="midnightblue" stroke="midnightblue" points="214,-29.75 210.5,-19.75 207,-29.75 214,-29.75"/>
</g>
<!-- Node6&#45;&gt;Node4 -->
<g id="edge6" class="edge">
<title>Node6&#45;&gt;Node4</title>
<path fill="none" stroke="midnightblue" d="M210.5,-112.08C210.5,-105.01 210.5,-94.86 210.5,-85.99"/>
<polygon fill="midnightblue" stroke="midnightblue" points="214,-85.75 210.5,-75.75 207,-85.75 214,-85.75"/>
</g>
<!-- Node8 -->
<g id="node8" class="node">
<title>Node8</title>
<g id="a_node8"><a xlink:href="fitdatamessage__p_8h.html" target="_top" xlink:title=" ">
<polygon fill="none" stroke="black" points="75,-224.5 75,-243.5 188,-243.5 188,-224.5 75,-224.5"/>
<text text-anchor="middle" x="131.5" y="-231.5" font-family="Helvetica,sans-Serif" font-size="10.00">fitdatamessage_p.h</text>
</a>
</g>
</g>
<!-- Node7&#45;&gt;Node8 -->
<g id="edge8" class="edge">
<title>Node7&#45;&gt;Node8</title>
<path fill="none" stroke="midnightblue" d="M103.11,-280.08C107.87,-272.53 114.82,-261.49 120.65,-252.23"/>
<polygon fill="midnightblue" stroke="midnightblue" points="123.62,-254.08 125.99,-243.75 117.7,-250.35 123.62,-254.08"/>
</g>
<!-- Node8&#45;&gt;Node4 -->
<g id="edge9" class="edge">
<title>Node8&#45;&gt;Node4</title>
<path fill="none" stroke="midnightblue" d="M125.13,-224.23C119.24,-215.53 110.89,-201.57 107.5,-188 102.27,-167.08 112.63,-115.89 115.5,-112 127.1,-96.26 145.64,-85.81 163.27,-78.98"/>
<polygon fill="midnightblue" stroke="midnightblue" points="164.67,-82.2 172.92,-75.55 162.32,-75.6 164.67,-82.2"/>
</g>
<!-- Node8&#45;&gt;Node6 -->
<g id="edge10" class="edge">
<title>Node8&#45;&gt;Node6</title>
<path fill="none" stroke="midnightblue" d="M147.19,-224.45C160.26,-216.58 178.45,-203.75 189.5,-188 199.18,-174.2 204.59,-155.67 207.48,-141.93"/>
<polygon fill="midnightblue" stroke="midnightblue" points="210.99,-142.19 209.36,-131.72 204.11,-140.93 210.99,-142.19"/>
</g>
<!-- Node9 -->
<g id="node9" class="node">
<title>Node9</title>
<g id="a_node9"><a xlink:href="types__p_8h.html" target="_top" xlink:title=" ">
<polygon fill="none" stroke="black" points="116.5,-168.5 116.5,-187.5 180.5,-187.5 180.5,-168.5 116.5,-168.5"/>
<text text-anchor="middle" x="148.5" y="-175.5" font-family="Helvetica,sans-Serif" font-size="10.00">types_p.h</text>
</a>
</g>
</g>
<!-- Node8&#45;&gt;Node9 -->
<g id="edge11" class="edge">
<title>Node8&#45;&gt;Node9</title>
<path fill="none" stroke="midnightblue" d="M134.31,-224.08C136.58,-216.85 139.87,-206.41 142.71,-197.4"/>
<polygon fill="midnightblue" stroke="midnightblue" points="146.08,-198.34 145.75,-187.75 139.4,-196.24 146.08,-198.34"/>
</g>
<!-- Node9&#45;&gt;Node6 -->
<g id="edge12" class="edge">
<title>Node9&#45;&gt;Node6</title>
<path fill="none" stroke="midnightblue" d="M158.46,-168.32C167.63,-160.34 181.44,-148.31 192.53,-138.65"/>
<polygon fill="midnightblue" stroke="midnightblue" points="195.12,-141.04 200.36,-131.83 190.52,-135.76 195.12,-141.04"/>
</g>
<!-- Node10 -->
<g id="node10" class="node">
<title>Node10</title>
<g id="a_node10"><a xlink:title=" ">
<polygon fill="none" stroke="#bfbfbf" points="125,-112.5 125,-131.5 166,-131.5 166,-112.5 125,-112.5"/>
<text text-anchor="middle" x="145.5" y="-119.5" font-family="Helvetica,sans-Serif" font-size="10.00">QList</text>
</a>
</g>
</g>
<!-- Node9&#45;&gt;Node10 -->
<g id="edge13" class="edge">
<title>Node9&#45;&gt;Node10</title>
<path fill="none" stroke="midnightblue" d="M148,-168.08C147.61,-161.01 147.05,-150.86 146.55,-141.99"/>
<polygon fill="midnightblue" stroke="midnightblue" points="150.04,-141.54 145.99,-131.75 143.05,-141.93 150.04,-141.54"/>
</g>
</g>
</svg>
