<?xml version="1.0" encoding="UTF-8" standalone="no"?>
<!DOCTYPE svg PUBLIC "-//W3C//DTD SVG 1.1//EN"
 "http://www.w3.org/Graphics/SVG/1.1/DTD/svg11.dtd">
<!-- Generated by graphviz version 2.43.0 (0)
 -->
<!-- Title: exdscreenconfigurationmessage_p.h Pages: 1 -->
<svg width="203pt" height="308pt"
 viewBox="0.00 0.00 203.00 308.00" xmlns="http://www.w3.org/2000/svg" xmlns:xlink="http://www.w3.org/1999/xlink">
<g id="graph0" class="graph" transform="scale(1 1) rotate(0) translate(4 304)">
<title>exdscreenconfigurationmessage_p.h</title>
<!-- Node1 -->
<g id="node1" class="node">
<title>Node1</title>
<g id="a_node1"><a xlink:title=" ">
<polygon fill="#bfbfbf" stroke="black" points="0,-280.5 0,-299.5 195,-299.5 195,-280.5 0,-280.5"/>
<text text-anchor="middle" x="97.5" y="-287.5" font-family="Helvetica,sans-Serif" font-size="10.00">exdscreenconfigurationmessage_p.h</text>
</a>
</g>
</g>
<!-- Node2 -->
<g id="node2" class="node">
<title>Node2</title>
<g id="a_node2"><a xlink:href="abstractdatamessage__p_8h_source.html" target="_top" xlink:title=" ">
<polygon fill="none" stroke="black" points="26,-224.5 26,-243.5 169,-243.5 169,-224.5 26,-224.5"/>
<text text-anchor="middle" x="97.5" y="-231.5" font-family="Helvetica,sans-Serif" font-size="10.00">abstractdatamessage_p.h</text>
</a>
</g>
</g>
<!-- Node1&#45;&gt;Node2 -->
<g id="edge1" class="edge">
<title>Node1&#45;&gt;Node2</title>
<path fill="none" stroke="midnightblue" d="M97.5,-280.08C97.5,-273.01 97.5,-262.86 97.5,-253.99"/>
<polygon fill="midnightblue" stroke="midnightblue" points="101,-253.75 97.5,-243.75 94,-253.75 101,-253.75"/>
</g>
<!-- Node3 -->
<g id="node3" class="node">
<title>Node3</title>
<g id="a_node3"><a xlink:href="QtFit__global_8h_source.html" target="_top" xlink:title=" ">
<polygon fill="none" stroke="black" points="9.5,-56.5 9.5,-75.5 93.5,-75.5 93.5,-56.5 9.5,-56.5"/>
<text text-anchor="middle" x="51.5" y="-63.5" font-family="Helvetica,sans-Serif" font-size="10.00">QtFit_global.h</text>
</a>
</g>
</g>
<!-- Node2&#45;&gt;Node3 -->
<g id="edge2" class="edge">
<title>Node2&#45;&gt;Node3</title>
<path fill="none" stroke="midnightblue" d="M95.03,-224.08C87.79,-197.95 66.52,-121.21 56.65,-85.58"/>
<polygon fill="midnightblue" stroke="midnightblue" points="59.92,-84.27 53.87,-75.57 53.17,-86.14 59.92,-84.27"/>
</g>
<!-- Node5 -->
<g id="node5" class="node">
<title>Node5</title>
<g id="a_node5"><a xlink:href="types_8h.html" target="_top" xlink:title="Types defined by the ANT+ FIT SDK.">
<polygon fill="none" stroke="black" points="80,-112.5 80,-131.5 133,-131.5 133,-112.5 80,-112.5"/>
<text text-anchor="middle" x="106.5" y="-119.5" font-family="Helvetica,sans-Serif" font-size="10.00">types.h</text>
</a>
</g>
</g>
<!-- Node2&#45;&gt;Node5 -->
<g id="edge4" class="edge">
<title>Node2&#45;&gt;Node5</title>
<path fill="none" stroke="midnightblue" d="M98.21,-224.37C99.66,-206.62 103.01,-165.67 104.98,-141.6"/>
<polygon fill="midnightblue" stroke="midnightblue" points="108.47,-141.84 105.8,-131.59 101.49,-141.27 108.47,-141.84"/>
</g>
<!-- Node7 -->
<g id="node7" class="node">
<title>Node7</title>
<g id="a_node7"><a xlink:href="types__p_8h_source.html" target="_top" xlink:title=" ">
<polygon fill="none" stroke="black" points="125.5,-168.5 125.5,-187.5 189.5,-187.5 189.5,-168.5 125.5,-168.5"/>
<text text-anchor="middle" x="157.5" y="-175.5" font-family="Helvetica,sans-Serif" font-size="10.00">types_p.h</text>
</a>
</g>
</g>
<!-- Node2&#45;&gt;Node7 -->
<g id="edge7" class="edge">
<title>Node2&#45;&gt;Node7</title>
<path fill="none" stroke="midnightblue" d="M107.14,-224.32C116.01,-216.34 129.37,-204.31 140.11,-194.65"/>
<polygon fill="midnightblue" stroke="midnightblue" points="142.59,-197.13 147.68,-187.83 137.91,-191.92 142.59,-197.13"/>
</g>
<!-- Node4 -->
<g id="node4" class="node">
<title>Node4</title>
<g id="a_node4"><a xlink:title=" ">
<polygon fill="none" stroke="#bfbfbf" points="22,-0.5 22,-19.5 81,-19.5 81,-0.5 22,-0.5"/>
<text text-anchor="middle" x="51.5" y="-7.5" font-family="Helvetica,sans-Serif" font-size="10.00">QtGlobal</text>
</a>
</g>
</g>
<!-- Node3&#45;&gt;Node4 -->
<g id="edge3" class="edge">
<title>Node3&#45;&gt;Node4</title>
<path fill="none" stroke="midnightblue" d="M51.5,-56.08C51.5,-49.01 51.5,-38.86 51.5,-29.99"/>
<polygon fill="midnightblue" stroke="midnightblue" points="55,-29.75 51.5,-19.75 48,-29.75 55,-29.75"/>
</g>
<!-- Node5&#45;&gt;Node3 -->
<g id="edge5" class="edge">
<title>Node5&#45;&gt;Node3</title>
<path fill="none" stroke="midnightblue" d="M97.42,-112.08C89.33,-104.14 77.3,-92.34 67.59,-82.8"/>
<polygon fill="midnightblue" stroke="midnightblue" points="70,-80.26 60.41,-75.75 65.1,-85.25 70,-80.26"/>
</g>
<!-- Node6 -->
<g id="node6" class="node">
<title>Node6</title>
<g id="a_node6"><a xlink:title=" ">
<polygon fill="none" stroke="#bfbfbf" points="111.5,-56.5 111.5,-75.5 167.5,-75.5 167.5,-56.5 111.5,-56.5"/>
<text text-anchor="middle" x="139.5" y="-63.5" font-family="Helvetica,sans-Serif" font-size="10.00">QDebug</text>
</a>
</g>
</g>
<!-- Node5&#45;&gt;Node6 -->
<g id="edge6" class="edge">
<title>Node5&#45;&gt;Node6</title>
<path fill="none" stroke="midnightblue" d="M111.95,-112.08C116.51,-104.61 123.17,-93.72 128.79,-84.52"/>
<polygon fill="midnightblue" stroke="midnightblue" points="131.92,-86.11 134.15,-75.75 125.95,-82.46 131.92,-86.11"/>
</g>
<!-- Node7&#45;&gt;Node5 -->
<g id="edge8" class="edge">
<title>Node7&#45;&gt;Node5</title>
<path fill="none" stroke="midnightblue" d="M149.08,-168.08C141.65,-160.22 130.65,-148.57 121.69,-139.08"/>
<polygon fill="midnightblue" stroke="midnightblue" points="124.18,-136.62 114.76,-131.75 119.09,-141.42 124.18,-136.62"/>
</g>
<!-- Node8 -->
<g id="node8" class="node">
<title>Node8</title>
<g id="a_node8"><a xlink:title=" ">
<polygon fill="none" stroke="#bfbfbf" points="151,-112.5 151,-131.5 192,-131.5 192,-112.5 151,-112.5"/>
<text text-anchor="middle" x="171.5" y="-119.5" font-family="Helvetica,sans-Serif" font-size="10.00">QList</text>
</a>
</g>
</g>
<!-- Node7&#45;&gt;Node8 -->
<g id="edge9" class="edge">
<title>Node7&#45;&gt;Node8</title>
<path fill="none" stroke="midnightblue" d="M159.81,-168.08C161.67,-160.93 164.34,-150.64 166.65,-141.69"/>
<polygon fill="midnightblue" stroke="midnightblue" points="170.11,-142.31 169.23,-131.75 163.33,-140.55 170.11,-142.31"/>
</g>
</g>
</svg>
