<?xml version="1.0" encoding="UTF-8" standalone="no"?>
<!DOCTYPE svg PUBLIC "-//W3C//DTD SVG 1.1//EN"
 "http://www.w3.org/Graphics/SVG/1.1/DTD/svg11.dtd">
<!-- Generated by graphviz version 2.43.0 (0)
 -->
<!-- Title: exercisetitlemessage.cpp Pages: 1 -->
<svg width="425pt" height="364pt"
 viewBox="0.00 0.00 425.00 364.00" xmlns="http://www.w3.org/2000/svg" xmlns:xlink="http://www.w3.org/1999/xlink">
<g id="graph0" class="graph" transform="scale(1 1) rotate(0) translate(4 360)">
<title>exercisetitlemessage.cpp</title>
<!-- Node1 -->
<g id="node1" class="node">
<title>Node1</title>
<g id="a_node1"><a xlink:title=" ">
<polygon fill="#bfbfbf" stroke="black" points="206,-336.5 206,-355.5 347,-355.5 347,-336.5 206,-336.5"/>
<text text-anchor="middle" x="276.5" y="-343.5" font-family="Helvetica,sans-Serif" font-size="10.00">exercisetitlemessage.cpp</text>
</a>
</g>
</g>
<!-- Node2 -->
<g id="node2" class="node">
<title>Node2</title>
<g id="a_node2"><a xlink:href="exercisetitlemessage_8h.html" target="_top" xlink:title=" ">
<polygon fill="none" stroke="black" points="7.5,-280.5 7.5,-299.5 137.5,-299.5 137.5,-280.5 7.5,-280.5"/>
<text text-anchor="middle" x="72.5" y="-287.5" font-family="Helvetica,sans-Serif" font-size="10.00">exercisetitlemessage.h</text>
</a>
</g>
</g>
<!-- Node1&#45;&gt;Node2 -->
<g id="edge1" class="edge">
<title>Node1&#45;&gt;Node2</title>
<path fill="none" stroke="midnightblue" d="M244.18,-336.44C209.11,-327.16 153,-312.31 114.54,-302.13"/>
<polygon fill="midnightblue" stroke="midnightblue" points="115.24,-298.69 104.67,-299.52 113.44,-305.46 115.24,-298.69"/>
</g>
<!-- Node7 -->
<g id="node7" class="node">
<title>Node7</title>
<g id="a_node7"><a xlink:title=" ">
<polygon fill="none" stroke="#bfbfbf" points="258.5,-56.5 258.5,-75.5 314.5,-75.5 314.5,-56.5 258.5,-56.5"/>
<text text-anchor="middle" x="286.5" y="-63.5" font-family="Helvetica,sans-Serif" font-size="10.00">QDebug</text>
</a>
</g>
</g>
<!-- Node1&#45;&gt;Node7 -->
<g id="edge15" class="edge">
<title>Node1&#45;&gt;Node7</title>
<path fill="none" stroke="midnightblue" d="M283.81,-336.23C297.91,-318.39 327.5,-276.05 327.5,-235 327.5,-235 327.5,-235 327.5,-177 327.5,-142.52 309.59,-105.56 297.44,-84.47"/>
<polygon fill="midnightblue" stroke="midnightblue" points="300.34,-82.49 292.2,-75.71 294.34,-86.09 300.34,-82.49"/>
</g>
<!-- Node8 -->
<g id="node8" class="node">
<title>Node8</title>
<g id="a_node8"><a xlink:href="exercisetitlemessage__p_8h.html" target="_top" xlink:title=" ">
<polygon fill="none" stroke="black" points="157,-280.5 157,-299.5 298,-299.5 298,-280.5 157,-280.5"/>
<text text-anchor="middle" x="227.5" y="-287.5" font-family="Helvetica,sans-Serif" font-size="10.00">exercisetitlemessage_p.h</text>
</a>
</g>
</g>
<!-- Node1&#45;&gt;Node8 -->
<g id="edge8" class="edge">
<title>Node1&#45;&gt;Node8</title>
<path fill="none" stroke="midnightblue" d="M268.41,-336.08C261.34,-328.3 250.91,-316.8 242.35,-307.37"/>
<polygon fill="midnightblue" stroke="midnightblue" points="244.75,-304.8 235.44,-299.75 239.57,-309.51 244.75,-304.8"/>
</g>
<!-- Node12 -->
<g id="node12" class="node">
<title>Node12</title>
<g id="a_node12"><a xlink:title=" ">
<polygon fill="none" stroke="#bfbfbf" points="356,-280.5 356,-299.5 417,-299.5 417,-280.5 356,-280.5"/>
<text text-anchor="middle" x="386.5" y="-287.5" font-family="Helvetica,sans-Serif" font-size="10.00">QtEndian</text>
</a>
</g>
</g>
<!-- Node1&#45;&gt;Node12 -->
<g id="edge16" class="edge">
<title>Node1&#45;&gt;Node12</title>
<path fill="none" stroke="midnightblue" d="M294.17,-336.32C311.89,-327.62 339.4,-314.12 359.79,-304.11"/>
<polygon fill="midnightblue" stroke="midnightblue" points="361.44,-307.2 368.87,-299.65 358.35,-300.92 361.44,-307.2"/>
</g>
<!-- Node3 -->
<g id="node3" class="node">
<title>Node3</title>
<g id="a_node3"><a xlink:href="abstractdatamessage_8h_source.html" target="_top" xlink:title=" ">
<polygon fill="none" stroke="black" points="0,-168.5 0,-187.5 131,-187.5 131,-168.5 0,-168.5"/>
<text text-anchor="middle" x="65.5" y="-175.5" font-family="Helvetica,sans-Serif" font-size="10.00">abstractdatamessage.h</text>
</a>
</g>
</g>
<!-- Node2&#45;&gt;Node3 -->
<g id="edge2" class="edge">
<title>Node2&#45;&gt;Node3</title>
<path fill="none" stroke="midnightblue" d="M71.95,-280.37C70.82,-262.62 68.22,-221.67 66.68,-197.6"/>
<polygon fill="midnightblue" stroke="midnightblue" points="70.17,-197.35 66.05,-187.59 63.19,-197.79 70.17,-197.35"/>
</g>
<!-- Node4 -->
<g id="node4" class="node">
<title>Node4</title>
<g id="a_node4"><a xlink:href="QtFit__global_8h_source.html" target="_top" xlink:title=" ">
<polygon fill="none" stroke="black" points="116.5,-56.5 116.5,-75.5 200.5,-75.5 200.5,-56.5 116.5,-56.5"/>
<text text-anchor="middle" x="158.5" y="-63.5" font-family="Helvetica,sans-Serif" font-size="10.00">QtFit_global.h</text>
</a>
</g>
</g>
<!-- Node3&#45;&gt;Node4 -->
<g id="edge3" class="edge">
<title>Node3&#45;&gt;Node4</title>
<path fill="none" stroke="midnightblue" d="M72.8,-168.37C88.28,-150.05 124.64,-107.05 144.67,-83.36"/>
<polygon fill="midnightblue" stroke="midnightblue" points="147.45,-85.49 151.24,-75.59 142.11,-80.97 147.45,-85.49"/>
</g>
<!-- Node6 -->
<g id="node6" class="node">
<title>Node6</title>
<g id="a_node6"><a xlink:href="types_8h.html" target="_top" xlink:title="Types defined by the ANT+ FIT SDK.">
<polygon fill="none" stroke="black" points="187,-112.5 187,-131.5 240,-131.5 240,-112.5 187,-112.5"/>
<text text-anchor="middle" x="213.5" y="-119.5" font-family="Helvetica,sans-Serif" font-size="10.00">types.h</text>
</a>
</g>
</g>
<!-- Node3&#45;&gt;Node6 -->
<g id="edge5" class="edge">
<title>Node3&#45;&gt;Node6</title>
<path fill="none" stroke="midnightblue" d="M88.95,-168.44C113.63,-159.44 152.69,-145.19 180.48,-135.05"/>
<polygon fill="midnightblue" stroke="midnightblue" points="181.96,-138.23 190.16,-131.52 179.56,-131.66 181.96,-138.23"/>
</g>
<!-- Node5 -->
<g id="node5" class="node">
<title>Node5</title>
<g id="a_node5"><a xlink:title=" ">
<polygon fill="none" stroke="#bfbfbf" points="129,-0.5 129,-19.5 188,-19.5 188,-0.5 129,-0.5"/>
<text text-anchor="middle" x="158.5" y="-7.5" font-family="Helvetica,sans-Serif" font-size="10.00">QtGlobal</text>
</a>
</g>
</g>
<!-- Node4&#45;&gt;Node5 -->
<g id="edge4" class="edge">
<title>Node4&#45;&gt;Node5</title>
<path fill="none" stroke="midnightblue" d="M158.5,-56.08C158.5,-49.01 158.5,-38.86 158.5,-29.99"/>
<polygon fill="midnightblue" stroke="midnightblue" points="162,-29.75 158.5,-19.75 155,-29.75 162,-29.75"/>
</g>
<!-- Node6&#45;&gt;Node4 -->
<g id="edge6" class="edge">
<title>Node6&#45;&gt;Node4</title>
<path fill="none" stroke="midnightblue" d="M204.42,-112.08C196.33,-104.14 184.3,-92.34 174.59,-82.8"/>
<polygon fill="midnightblue" stroke="midnightblue" points="177,-80.26 167.41,-75.75 172.1,-85.25 177,-80.26"/>
</g>
<!-- Node6&#45;&gt;Node7 -->
<g id="edge7" class="edge">
<title>Node6&#45;&gt;Node7</title>
<path fill="none" stroke="midnightblue" d="M225.23,-112.32C236.34,-104.11 253.24,-91.6 266.48,-81.81"/>
<polygon fill="midnightblue" stroke="midnightblue" points="268.6,-84.59 274.56,-75.83 264.44,-78.97 268.6,-84.59"/>
</g>
<!-- Node9 -->
<g id="node9" class="node">
<title>Node9</title>
<g id="a_node9"><a xlink:href="abstractdatamessage__p_8h_source.html" target="_top" xlink:title=" ">
<polygon fill="none" stroke="black" points="146,-224.5 146,-243.5 289,-243.5 289,-224.5 146,-224.5"/>
<text text-anchor="middle" x="217.5" y="-231.5" font-family="Helvetica,sans-Serif" font-size="10.00">abstractdatamessage_p.h</text>
</a>
</g>
</g>
<!-- Node8&#45;&gt;Node9 -->
<g id="edge9" class="edge">
<title>Node8&#45;&gt;Node9</title>
<path fill="none" stroke="midnightblue" d="M225.85,-280.08C224.52,-272.93 222.62,-262.64 220.96,-253.69"/>
<polygon fill="midnightblue" stroke="midnightblue" points="224.38,-252.95 219.12,-243.75 217.5,-254.22 224.38,-252.95"/>
</g>
<!-- Node9&#45;&gt;Node4 -->
<g id="edge10" class="edge">
<title>Node9&#45;&gt;Node4</title>
<path fill="none" stroke="midnightblue" d="M213.8,-224.45C206.4,-207.18 189.44,-166.78 177.5,-132 172.19,-116.54 167.04,-98.69 163.45,-85.62"/>
<polygon fill="midnightblue" stroke="midnightblue" points="166.81,-84.65 160.82,-75.91 160.06,-86.48 166.81,-84.65"/>
</g>
<!-- Node9&#45;&gt;Node6 -->
<g id="edge11" class="edge">
<title>Node9&#45;&gt;Node6</title>
<path fill="none" stroke="midnightblue" d="M217.19,-224.37C216.54,-206.62 215.05,-165.67 214.18,-141.6"/>
<polygon fill="midnightblue" stroke="midnightblue" points="217.67,-141.46 213.81,-131.59 210.68,-141.71 217.67,-141.46"/>
</g>
<!-- Node10 -->
<g id="node10" class="node">
<title>Node10</title>
<g id="a_node10"><a xlink:href="types__p_8h_source.html" target="_top" xlink:title=" ">
<polygon fill="none" stroke="black" points="235.5,-168.5 235.5,-187.5 299.5,-187.5 299.5,-168.5 235.5,-168.5"/>
<text text-anchor="middle" x="267.5" y="-175.5" font-family="Helvetica,sans-Serif" font-size="10.00">types_p.h</text>
</a>
</g>
</g>
<!-- Node9&#45;&gt;Node10 -->
<g id="edge12" class="edge">
<title>Node9&#45;&gt;Node10</title>
<path fill="none" stroke="midnightblue" d="M225.76,-224.08C232.96,-216.3 243.61,-204.8 252.35,-195.37"/>
<polygon fill="midnightblue" stroke="midnightblue" points="255.17,-197.47 259.4,-187.75 250.03,-192.71 255.17,-197.47"/>
</g>
<!-- Node10&#45;&gt;Node6 -->
<g id="edge13" class="edge">
<title>Node10&#45;&gt;Node6</title>
<path fill="none" stroke="midnightblue" d="M258.58,-168.08C250.72,-160.22 239.07,-148.57 229.58,-139.08"/>
<polygon fill="midnightblue" stroke="midnightblue" points="231.8,-136.35 222.25,-131.75 226.85,-141.3 231.8,-136.35"/>
</g>
<!-- Node11 -->
<g id="node11" class="node">
<title>Node11</title>
<g id="a_node11"><a xlink:title=" ">
<polygon fill="none" stroke="#bfbfbf" points="258,-112.5 258,-131.5 299,-131.5 299,-112.5 258,-112.5"/>
<text text-anchor="middle" x="278.5" y="-119.5" font-family="Helvetica,sans-Serif" font-size="10.00">QList</text>
</a>
</g>
</g>
<!-- Node10&#45;&gt;Node11 -->
<g id="edge14" class="edge">
<title>Node10&#45;&gt;Node11</title>
<path fill="none" stroke="midnightblue" d="M269.32,-168.08C270.77,-160.93 272.87,-150.64 274.69,-141.69"/>
<polygon fill="midnightblue" stroke="midnightblue" points="278.15,-142.25 276.72,-131.75 271.29,-140.85 278.15,-142.25"/>
</g>
</g>
</svg>
