<?xml version="1.0" encoding="UTF-8" standalone="no"?>
<!DOCTYPE svg PUBLIC "-//W3C//DTD SVG 1.1//EN"
 "http://www.w3.org/Graphics/SVG/1.1/DTD/svg11.dtd">
<!-- Generated by graphviz version 2.43.0 (0)
 -->
<!-- Title: exercisetitlemessage.cpp Pages: 1 -->
<svg width="357pt" height="364pt"
 viewBox="0.00 0.00 357.00 364.00" xmlns="http://www.w3.org/2000/svg" xmlns:xlink="http://www.w3.org/1999/xlink">
<g id="graph0" class="graph" transform="scale(1 1) rotate(0) translate(4 360)">
<title>exercisetitlemessage.cpp</title>
<!-- Node1 -->
<g id="node1" class="node">
<title>Node1</title>
<g id="a_node1"><a xlink:title=" ">
<polygon fill="#bfbfbf" stroke="black" points="143,-336.5 143,-355.5 284,-355.5 284,-336.5 143,-336.5"/>
<text text-anchor="middle" x="213.5" y="-343.5" font-family="Helvetica,sans-Serif" font-size="10.00">exercisetitlemessage.cpp</text>
</a>
</g>
</g>
<!-- Node2 -->
<g id="node2" class="node">
<title>Node2</title>
<g id="a_node2"><a xlink:href="exercisetitlemessage_8h.html" target="_top" xlink:title=" ">
<polygon fill="none" stroke="black" points="131.5,-224.5 131.5,-243.5 261.5,-243.5 261.5,-224.5 131.5,-224.5"/>
<text text-anchor="middle" x="196.5" y="-231.5" font-family="Helvetica,sans-Serif" font-size="10.00">exercisetitlemessage.h</text>
</a>
</g>
</g>
<!-- Node1&#45;&gt;Node2 -->
<g id="edge1" class="edge">
<title>Node1&#45;&gt;Node2</title>
<path fill="none" stroke="midnightblue" d="M211.58,-336.41C209.61,-327.38 206.56,-312.74 204.5,-300 202.01,-284.55 199.88,-266.92 198.45,-253.92"/>
<polygon fill="midnightblue" stroke="midnightblue" points="201.92,-253.43 197.38,-243.86 194.96,-254.18 201.92,-253.43"/>
</g>
<!-- Node7 -->
<g id="node7" class="node">
<title>Node7</title>
<g id="a_node7"><a xlink:href="exercisetitlemessage__p_8h.html" target="_top" xlink:title=" ">
<polygon fill="none" stroke="black" points="6,-280.5 6,-299.5 147,-299.5 147,-280.5 6,-280.5"/>
<text text-anchor="middle" x="76.5" y="-287.5" font-family="Helvetica,sans-Serif" font-size="10.00">exercisetitlemessage_p.h</text>
</a>
</g>
</g>
<!-- Node1&#45;&gt;Node7 -->
<g id="edge7" class="edge">
<title>Node1&#45;&gt;Node7</title>
<path fill="none" stroke="midnightblue" d="M191.79,-336.44C169.15,-327.52 133.43,-313.44 107.75,-303.32"/>
<polygon fill="midnightblue" stroke="midnightblue" points="108.69,-299.93 98.11,-299.52 106.13,-306.44 108.69,-299.93"/>
</g>
<!-- Node11 -->
<g id="node11" class="node">
<title>Node11</title>
<g id="a_node11"><a xlink:title=" ">
<polygon fill="none" stroke="#bfbfbf" points="213.5,-280.5 213.5,-299.5 269.5,-299.5 269.5,-280.5 213.5,-280.5"/>
<text text-anchor="middle" x="241.5" y="-287.5" font-family="Helvetica,sans-Serif" font-size="10.00">QDebug</text>
</a>
</g>
</g>
<!-- Node1&#45;&gt;Node11 -->
<g id="edge14" class="edge">
<title>Node1&#45;&gt;Node11</title>
<path fill="none" stroke="midnightblue" d="M218.12,-336.08C221.96,-328.69 227.52,-317.95 232.26,-308.81"/>
<polygon fill="midnightblue" stroke="midnightblue" points="235.47,-310.24 236.96,-299.75 229.25,-307.02 235.47,-310.24"/>
</g>
<!-- Node12 -->
<g id="node12" class="node">
<title>Node12</title>
<g id="a_node12"><a xlink:title=" ">
<polygon fill="none" stroke="#bfbfbf" points="288,-280.5 288,-299.5 349,-299.5 349,-280.5 288,-280.5"/>
<text text-anchor="middle" x="318.5" y="-287.5" font-family="Helvetica,sans-Serif" font-size="10.00">QtEndian</text>
</a>
</g>
</g>
<!-- Node1&#45;&gt;Node12 -->
<g id="edge15" class="edge">
<title>Node1&#45;&gt;Node12</title>
<path fill="none" stroke="midnightblue" d="M230.37,-336.32C247.21,-327.66 273.31,-314.24 292.74,-304.25"/>
<polygon fill="midnightblue" stroke="midnightblue" points="294.38,-307.34 301.67,-299.65 291.18,-301.12 294.38,-307.34"/>
</g>
<!-- Node3 -->
<g id="node3" class="node">
<title>Node3</title>
<g id="a_node3"><a xlink:href="fitdatamessage_8h.html" target="_top" xlink:title=" ">
<polygon fill="none" stroke="black" points="146,-168.5 146,-187.5 247,-187.5 247,-168.5 146,-168.5"/>
<text text-anchor="middle" x="196.5" y="-175.5" font-family="Helvetica,sans-Serif" font-size="10.00">fitdatamessage.h</text>
</a>
</g>
</g>
<!-- Node2&#45;&gt;Node3 -->
<g id="edge2" class="edge">
<title>Node2&#45;&gt;Node3</title>
<path fill="none" stroke="midnightblue" d="M196.5,-224.08C196.5,-217.01 196.5,-206.86 196.5,-197.99"/>
<polygon fill="midnightblue" stroke="midnightblue" points="200,-197.75 196.5,-187.75 193,-197.75 200,-197.75"/>
</g>
<!-- Node4 -->
<g id="node4" class="node">
<title>Node4</title>
<g id="a_node4"><a xlink:href="QtFit__global_8h.html" target="_top" xlink:title=" ">
<polygon fill="none" stroke="black" points="77.5,-56.5 77.5,-75.5 161.5,-75.5 161.5,-56.5 77.5,-56.5"/>
<text text-anchor="middle" x="119.5" y="-63.5" font-family="Helvetica,sans-Serif" font-size="10.00">QtFit_global.h</text>
</a>
</g>
</g>
<!-- Node3&#45;&gt;Node4 -->
<g id="edge3" class="edge">
<title>Node3&#45;&gt;Node4</title>
<path fill="none" stroke="midnightblue" d="M191.49,-168.39C184.04,-155.75 169.43,-131.56 155.5,-112 148.61,-102.32 140.36,-91.94 133.51,-83.59"/>
<polygon fill="midnightblue" stroke="midnightblue" points="136.06,-81.19 126.97,-75.74 130.68,-85.66 136.06,-81.19"/>
</g>
<!-- Node6 -->
<g id="node6" class="node">
<title>Node6</title>
<g id="a_node6"><a xlink:href="types_8h.html" target="_top" xlink:title="Types defined by the ANT+ FIT SDK.">
<polygon fill="none" stroke="black" points="93,-112.5 93,-131.5 146,-131.5 146,-112.5 93,-112.5"/>
<text text-anchor="middle" x="119.5" y="-119.5" font-family="Helvetica,sans-Serif" font-size="10.00">types.h</text>
</a>
</g>
</g>
<!-- Node3&#45;&gt;Node6 -->
<g id="edge5" class="edge">
<title>Node3&#45;&gt;Node6</title>
<path fill="none" stroke="midnightblue" d="M184.13,-168.32C172.34,-160.06 154.37,-147.45 140.36,-137.63"/>
<polygon fill="midnightblue" stroke="midnightblue" points="142.04,-134.53 131.84,-131.65 138.02,-140.26 142.04,-134.53"/>
</g>
<!-- Node5 -->
<g id="node5" class="node">
<title>Node5</title>
<g id="a_node5"><a xlink:title=" ">
<polygon fill="none" stroke="#bfbfbf" points="90,-0.5 90,-19.5 149,-19.5 149,-0.5 90,-0.5"/>
<text text-anchor="middle" x="119.5" y="-7.5" font-family="Helvetica,sans-Serif" font-size="10.00">QtGlobal</text>
</a>
</g>
</g>
<!-- Node4&#45;&gt;Node5 -->
<g id="edge4" class="edge">
<title>Node4&#45;&gt;Node5</title>
<path fill="none" stroke="midnightblue" d="M119.5,-56.08C119.5,-49.01 119.5,-38.86 119.5,-29.99"/>
<polygon fill="midnightblue" stroke="midnightblue" points="123,-29.75 119.5,-19.75 116,-29.75 123,-29.75"/>
</g>
<!-- Node6&#45;&gt;Node4 -->
<g id="edge6" class="edge">
<title>Node6&#45;&gt;Node4</title>
<path fill="none" stroke="midnightblue" d="M119.5,-112.08C119.5,-105.01 119.5,-94.86 119.5,-85.99"/>
<polygon fill="midnightblue" stroke="midnightblue" points="123,-85.75 119.5,-75.75 116,-85.75 123,-85.75"/>
</g>
<!-- Node8 -->
<g id="node8" class="node">
<title>Node8</title>
<g id="a_node8"><a xlink:href="fitdatamessage__p_8h.html" target="_top" xlink:title=" ">
<polygon fill="none" stroke="black" points="0,-224.5 0,-243.5 113,-243.5 113,-224.5 0,-224.5"/>
<text text-anchor="middle" x="56.5" y="-231.5" font-family="Helvetica,sans-Serif" font-size="10.00">fitdatamessage_p.h</text>
</a>
</g>
</g>
<!-- Node7&#45;&gt;Node8 -->
<g id="edge8" class="edge">
<title>Node7&#45;&gt;Node8</title>
<path fill="none" stroke="midnightblue" d="M73.2,-280.08C70.52,-272.85 66.65,-262.41 63.31,-253.4"/>
<polygon fill="midnightblue" stroke="midnightblue" points="66.5,-251.91 59.74,-243.75 59.93,-254.34 66.5,-251.91"/>
</g>
<!-- Node8&#45;&gt;Node4 -->
<g id="edge9" class="edge">
<title>Node8&#45;&gt;Node4</title>
<path fill="none" stroke="midnightblue" d="M45.23,-224.43C35.53,-216.27 22.22,-203.05 16.5,-188 9.47,-169.52 16.55,-122.79 24.5,-112 36.1,-96.26 54.64,-85.81 72.27,-78.98"/>
<polygon fill="midnightblue" stroke="midnightblue" points="73.67,-82.2 81.92,-75.55 71.32,-75.6 73.67,-82.2"/>
</g>
<!-- Node8&#45;&gt;Node6 -->
<g id="edge10" class="edge">
<title>Node8&#45;&gt;Node6</title>
<path fill="none" stroke="midnightblue" d="M66.85,-224.34C76.3,-215.94 90.05,-202.37 98.5,-188 106.96,-173.63 112.46,-155.43 115.7,-141.95"/>
<polygon fill="midnightblue" stroke="midnightblue" points="119.18,-142.44 117.91,-131.92 112.34,-140.93 119.18,-142.44"/>
</g>
<!-- Node9 -->
<g id="node9" class="node">
<title>Node9</title>
<g id="a_node9"><a xlink:href="types__p_8h.html" target="_top" xlink:title=" ">
<polygon fill="none" stroke="black" points="25.5,-168.5 25.5,-187.5 89.5,-187.5 89.5,-168.5 25.5,-168.5"/>
<text text-anchor="middle" x="57.5" y="-175.5" font-family="Helvetica,sans-Serif" font-size="10.00">types_p.h</text>
</a>
</g>
</g>
<!-- Node8&#45;&gt;Node9 -->
<g id="edge11" class="edge">
<title>Node8&#45;&gt;Node9</title>
<path fill="none" stroke="midnightblue" d="M56.67,-224.08C56.8,-217.01 56.98,-206.86 57.15,-197.99"/>
<polygon fill="midnightblue" stroke="midnightblue" points="60.65,-197.81 57.34,-187.75 53.65,-197.68 60.65,-197.81"/>
</g>
<!-- Node9&#45;&gt;Node6 -->
<g id="edge12" class="edge">
<title>Node9&#45;&gt;Node6</title>
<path fill="none" stroke="midnightblue" d="M67.46,-168.32C76.63,-160.34 90.44,-148.31 101.53,-138.65"/>
<polygon fill="midnightblue" stroke="midnightblue" points="104.12,-141.04 109.36,-131.83 99.52,-135.76 104.12,-141.04"/>
</g>
<!-- Node10 -->
<g id="node10" class="node">
<title>Node10</title>
<g id="a_node10"><a xlink:title=" ">
<polygon fill="none" stroke="#bfbfbf" points="34,-112.5 34,-131.5 75,-131.5 75,-112.5 34,-112.5"/>
<text text-anchor="middle" x="54.5" y="-119.5" font-family="Helvetica,sans-Serif" font-size="10.00">QList</text>
</a>
</g>
</g>
<!-- Node9&#45;&gt;Node10 -->
<g id="edge13" class="edge">
<title>Node9&#45;&gt;Node10</title>
<path fill="none" stroke="midnightblue" d="M57,-168.08C56.61,-161.01 56.05,-150.86 55.55,-141.99"/>
<polygon fill="midnightblue" stroke="midnightblue" points="59.04,-141.54 54.99,-131.75 52.05,-141.93 59.04,-141.54"/>
</g>
</g>
</svg>
