<?xml version="1.0" encoding="UTF-8" standalone="no"?>
<!DOCTYPE svg PUBLIC "-//W3C//DTD SVG 1.1//EN"
 "http://www.w3.org/Graphics/SVG/1.1/DTD/svg11.dtd">
<!-- Generated by graphviz version 2.43.0 (0)
 -->
<!-- Title: exercisetitlemessage.cpp Pages: 1 -->
<svg width="298pt" height="364pt"
 viewBox="0.00 0.00 297.50 364.00" xmlns="http://www.w3.org/2000/svg" xmlns:xlink="http://www.w3.org/1999/xlink">
<g id="graph0" class="graph" transform="scale(1 1) rotate(0) translate(4 360)">
<title>exercisetitlemessage.cpp</title>
<!-- Node1 -->
<g id="node1" class="node">
<title>Node1</title>
<g id="a_node1"><a xlink:title=" ">
<polygon fill="#bfbfbf" stroke="black" points="77,-336.5 77,-355.5 218,-355.5 218,-336.5 77,-336.5"/>
<text text-anchor="middle" x="147.5" y="-343.5" font-family="Helvetica,sans-Serif" font-size="10.00">exercisetitlemessage.cpp</text>
</a>
</g>
</g>
<!-- Node2 -->
<g id="node2" class="node">
<title>Node2</title>
<g id="a_node2"><a xlink:href="exercisetitlemessage_8h.html" target="_top" xlink:title=" ">
<polygon fill="none" stroke="black" points="159.5,-280.5 159.5,-299.5 289.5,-299.5 289.5,-280.5 159.5,-280.5"/>
<text text-anchor="middle" x="224.5" y="-287.5" font-family="Helvetica,sans-Serif" font-size="10.00">exercisetitlemessage.h</text>
</a>
</g>
</g>
<!-- Node1&#45;&gt;Node2 -->
<g id="edge1" class="edge">
<title>Node1&#45;&gt;Node2</title>
<path fill="none" stroke="midnightblue" d="M159.87,-336.32C171.66,-328.06 189.63,-315.45 203.64,-305.63"/>
<polygon fill="midnightblue" stroke="midnightblue" points="205.98,-308.26 212.16,-299.65 201.96,-302.53 205.98,-308.26"/>
</g>
<!-- Node7 -->
<g id="node7" class="node">
<title>Node7</title>
<g id="a_node7"><a xlink:href="exercisetitlemessage__p_8h.html" target="_top" xlink:title=" ">
<polygon fill="none" stroke="black" points="0,-280.5 0,-299.5 141,-299.5 141,-280.5 0,-280.5"/>
<text text-anchor="middle" x="70.5" y="-287.5" font-family="Helvetica,sans-Serif" font-size="10.00">exercisetitlemessage_p.h</text>
</a>
</g>
</g>
<!-- Node1&#45;&gt;Node7 -->
<g id="edge7" class="edge">
<title>Node1&#45;&gt;Node7</title>
<path fill="none" stroke="midnightblue" d="M135.13,-336.32C123.34,-328.06 105.37,-315.45 91.36,-305.63"/>
<polygon fill="midnightblue" stroke="midnightblue" points="93.04,-302.53 82.84,-299.65 89.02,-308.26 93.04,-302.53"/>
</g>
<!-- Node3 -->
<g id="node3" class="node">
<title>Node3</title>
<g id="a_node3"><a xlink:href="fitdatamessage_8h.html" target="_top" xlink:title=" ">
<polygon fill="none" stroke="black" points="170,-168.5 170,-187.5 271,-187.5 271,-168.5 170,-168.5"/>
<text text-anchor="middle" x="220.5" y="-175.5" font-family="Helvetica,sans-Serif" font-size="10.00">fitdatamessage.h</text>
</a>
</g>
</g>
<!-- Node2&#45;&gt;Node3 -->
<g id="edge2" class="edge">
<title>Node2&#45;&gt;Node3</title>
<path fill="none" stroke="midnightblue" d="M224.19,-280.37C223.54,-262.62 222.05,-221.67 221.18,-197.6"/>
<polygon fill="midnightblue" stroke="midnightblue" points="224.67,-197.46 220.81,-187.59 217.68,-197.71 224.67,-197.46"/>
</g>
<!-- Node4 -->
<g id="node4" class="node">
<title>Node4</title>
<g id="a_node4"><a xlink:href="QtFit__global_8h.html" target="_top" xlink:title=" ">
<polygon fill="none" stroke="black" points="101.5,-56.5 101.5,-75.5 185.5,-75.5 185.5,-56.5 101.5,-56.5"/>
<text text-anchor="middle" x="143.5" y="-63.5" font-family="Helvetica,sans-Serif" font-size="10.00">QtFit_global.h</text>
</a>
</g>
</g>
<!-- Node3&#45;&gt;Node4 -->
<g id="edge3" class="edge">
<title>Node3&#45;&gt;Node4</title>
<path fill="none" stroke="midnightblue" d="M215.49,-168.39C208.04,-155.75 193.43,-131.56 179.5,-112 172.61,-102.32 164.36,-91.94 157.51,-83.59"/>
<polygon fill="midnightblue" stroke="midnightblue" points="160.06,-81.19 150.97,-75.74 154.68,-85.66 160.06,-81.19"/>
</g>
<!-- Node6 -->
<g id="node6" class="node">
<title>Node6</title>
<g id="a_node6"><a xlink:href="types_8h.html" target="_top" xlink:title="Types defined by the ANT+ FIT SDK.">
<polygon fill="none" stroke="black" points="117,-112.5 117,-131.5 170,-131.5 170,-112.5 117,-112.5"/>
<text text-anchor="middle" x="143.5" y="-119.5" font-family="Helvetica,sans-Serif" font-size="10.00">types.h</text>
</a>
</g>
</g>
<!-- Node3&#45;&gt;Node6 -->
<g id="edge5" class="edge">
<title>Node3&#45;&gt;Node6</title>
<path fill="none" stroke="midnightblue" d="M208.13,-168.32C196.34,-160.06 178.37,-147.45 164.36,-137.63"/>
<polygon fill="midnightblue" stroke="midnightblue" points="166.04,-134.53 155.84,-131.65 162.02,-140.26 166.04,-134.53"/>
</g>
<!-- Node5 -->
<g id="node5" class="node">
<title>Node5</title>
<g id="a_node5"><a xlink:title=" ">
<polygon fill="none" stroke="#bfbfbf" points="114,-0.5 114,-19.5 173,-19.5 173,-0.5 114,-0.5"/>
<text text-anchor="middle" x="143.5" y="-7.5" font-family="Helvetica,sans-Serif" font-size="10.00">QtGlobal</text>
</a>
</g>
</g>
<!-- Node4&#45;&gt;Node5 -->
<g id="edge4" class="edge">
<title>Node4&#45;&gt;Node5</title>
<path fill="none" stroke="midnightblue" d="M143.5,-56.08C143.5,-49.01 143.5,-38.86 143.5,-29.99"/>
<polygon fill="midnightblue" stroke="midnightblue" points="147,-29.75 143.5,-19.75 140,-29.75 147,-29.75"/>
</g>
<!-- Node6&#45;&gt;Node4 -->
<g id="edge6" class="edge">
<title>Node6&#45;&gt;Node4</title>
<path fill="none" stroke="midnightblue" d="M143.5,-112.08C143.5,-105.01 143.5,-94.86 143.5,-85.99"/>
<polygon fill="midnightblue" stroke="midnightblue" points="147,-85.75 143.5,-75.75 140,-85.75 147,-85.75"/>
</g>
<!-- Node8 -->
<g id="node8" class="node">
<title>Node8</title>
<g id="a_node8"><a xlink:href="fitdatamessage__p_8h.html" target="_top" xlink:title=" ">
<polygon fill="none" stroke="black" points="21,-224.5 21,-243.5 134,-243.5 134,-224.5 21,-224.5"/>
<text text-anchor="middle" x="77.5" y="-231.5" font-family="Helvetica,sans-Serif" font-size="10.00">fitdatamessage_p.h</text>
</a>
</g>
</g>
<!-- Node7&#45;&gt;Node8 -->
<g id="edge8" class="edge">
<title>Node7&#45;&gt;Node8</title>
<path fill="none" stroke="midnightblue" d="M71.66,-280.08C72.58,-272.93 73.92,-262.64 75.08,-253.69"/>
<polygon fill="midnightblue" stroke="midnightblue" points="78.55,-254.12 76.37,-243.75 71.61,-253.22 78.55,-254.12"/>
</g>
<!-- Node8&#45;&gt;Node4 -->
<g id="edge9" class="edge">
<title>Node8&#45;&gt;Node4</title>
<path fill="none" stroke="midnightblue" d="M67.06,-224.24C58.08,-215.97 45.75,-202.66 40.5,-188 33.74,-169.15 41.32,-121.75 48.5,-112 60.1,-96.26 78.64,-85.81 96.27,-78.98"/>
<polygon fill="midnightblue" stroke="midnightblue" points="97.67,-82.2 105.92,-75.55 95.32,-75.6 97.67,-82.2"/>
</g>
<!-- Node8&#45;&gt;Node6 -->
<g id="edge10" class="edge">
<title>Node8&#45;&gt;Node6</title>
<path fill="none" stroke="midnightblue" d="M88.62,-224.5C98.76,-216.2 113.51,-202.7 122.5,-188 131.3,-173.62 136.8,-155.16 139.96,-141.59"/>
<polygon fill="midnightblue" stroke="midnightblue" points="143.44,-142.05 142.07,-131.54 136.59,-140.6 143.44,-142.05"/>
</g>
<!-- Node9 -->
<g id="node9" class="node">
<title>Node9</title>
<g id="a_node9"><a xlink:href="types__p_8h.html" target="_top" xlink:title=" ">
<polygon fill="none" stroke="black" points="49.5,-168.5 49.5,-187.5 113.5,-187.5 113.5,-168.5 49.5,-168.5"/>
<text text-anchor="middle" x="81.5" y="-175.5" font-family="Helvetica,sans-Serif" font-size="10.00">types_p.h</text>
</a>
</g>
</g>
<!-- Node8&#45;&gt;Node9 -->
<g id="edge11" class="edge">
<title>Node8&#45;&gt;Node9</title>
<path fill="none" stroke="midnightblue" d="M78.16,-224.08C78.68,-217.01 79.44,-206.86 80.09,-197.99"/>
<polygon fill="midnightblue" stroke="midnightblue" points="83.6,-197.98 80.85,-187.75 76.62,-197.47 83.6,-197.98"/>
</g>
<!-- Node9&#45;&gt;Node6 -->
<g id="edge12" class="edge">
<title>Node9&#45;&gt;Node6</title>
<path fill="none" stroke="midnightblue" d="M91.46,-168.32C100.63,-160.34 114.44,-148.31 125.53,-138.65"/>
<polygon fill="midnightblue" stroke="midnightblue" points="128.12,-141.04 133.36,-131.83 123.52,-135.76 128.12,-141.04"/>
</g>
<!-- Node10 -->
<g id="node10" class="node">
<title>Node10</title>
<g id="a_node10"><a xlink:title=" ">
<polygon fill="none" stroke="#bfbfbf" points="58,-112.5 58,-131.5 99,-131.5 99,-112.5 58,-112.5"/>
<text text-anchor="middle" x="78.5" y="-119.5" font-family="Helvetica,sans-Serif" font-size="10.00">QList</text>
</a>
</g>
</g>
<!-- Node9&#45;&gt;Node10 -->
<g id="edge13" class="edge">
<title>Node9&#45;&gt;Node10</title>
<path fill="none" stroke="midnightblue" d="M81,-168.08C80.61,-161.01 80.05,-150.86 79.55,-141.99"/>
<polygon fill="midnightblue" stroke="midnightblue" points="83.04,-141.54 78.99,-131.75 76.05,-141.93 83.04,-141.54"/>
</g>
</g>
</svg>
