<?xml version="1.0" encoding="UTF-8" standalone="no"?>
<!DOCTYPE svg PUBLIC "-//W3C//DTD SVG 1.1//EN"
 "http://www.w3.org/Graphics/SVG/1.1/DTD/svg11.dtd">
<!-- Generated by graphviz version 2.43.0 (0)
 -->
<!-- Title: fielddescriptionmessage.cpp Pages: 1 -->
<svg width="366pt" height="364pt"
 viewBox="0.00 0.00 365.50 364.00" xmlns="http://www.w3.org/2000/svg" xmlns:xlink="http://www.w3.org/1999/xlink">
<g id="graph0" class="graph" transform="scale(1 1) rotate(0) translate(4 360)">
<title>fielddescriptionmessage.cpp</title>
<!-- Node1 -->
<g id="node1" class="node">
<title>Node1</title>
<g id="a_node1"><a xlink:title=" ">
<polygon fill="#bfbfbf" stroke="black" points="144,-336.5 144,-355.5 300,-355.5 300,-336.5 144,-336.5"/>
<text text-anchor="middle" x="222" y="-343.5" font-family="Helvetica,sans-Serif" font-size="10.00">fielddescriptionmessage.cpp</text>
</a>
</g>
</g>
<!-- Node2 -->
<g id="node2" class="node">
<title>Node2</title>
<g id="a_node2"><a xlink:href="fielddescriptionmessage_8h.html" target="_top" xlink:title=" ">
<polygon fill="none" stroke="black" points="132.5,-224.5 132.5,-243.5 277.5,-243.5 277.5,-224.5 132.5,-224.5"/>
<text text-anchor="middle" x="205" y="-231.5" font-family="Helvetica,sans-Serif" font-size="10.00">fielddescriptionmessage.h</text>
</a>
</g>
</g>
<!-- Node1&#45;&gt;Node2 -->
<g id="edge1" class="edge">
<title>Node1&#45;&gt;Node2</title>
<path fill="none" stroke="midnightblue" d="M220.08,-336.41C218.11,-327.38 215.06,-312.74 213,-300 210.51,-284.55 208.38,-266.92 206.95,-253.92"/>
<polygon fill="midnightblue" stroke="midnightblue" points="210.42,-253.43 205.88,-243.86 203.46,-254.18 210.42,-253.43"/>
</g>
<!-- Node7 -->
<g id="node7" class="node">
<title>Node7</title>
<g id="a_node7"><a xlink:href="fielddescriptionmessage__p_8h.html" target="_top" xlink:title=" ">
<polygon fill="none" stroke="black" points="0,-280.5 0,-299.5 156,-299.5 156,-280.5 0,-280.5"/>
<text text-anchor="middle" x="78" y="-287.5" font-family="Helvetica,sans-Serif" font-size="10.00">fielddescriptionmessage_p.h</text>
</a>
</g>
</g>
<!-- Node1&#45;&gt;Node7 -->
<g id="edge7" class="edge">
<title>Node1&#45;&gt;Node7</title>
<path fill="none" stroke="midnightblue" d="M199.18,-336.44C175.17,-327.44 137.17,-313.19 110.13,-303.05"/>
<polygon fill="midnightblue" stroke="midnightblue" points="111.3,-299.75 100.71,-299.52 108.84,-306.3 111.3,-299.75"/>
</g>
<!-- Node11 -->
<g id="node11" class="node">
<title>Node11</title>
<g id="a_node11"><a xlink:title=" ">
<polygon fill="none" stroke="#bfbfbf" points="222,-280.5 222,-299.5 278,-299.5 278,-280.5 222,-280.5"/>
<text text-anchor="middle" x="250" y="-287.5" font-family="Helvetica,sans-Serif" font-size="10.00">QDebug</text>
</a>
</g>
</g>
<!-- Node1&#45;&gt;Node11 -->
<g id="edge14" class="edge">
<title>Node1&#45;&gt;Node11</title>
<path fill="none" stroke="midnightblue" d="M226.62,-336.08C230.46,-328.69 236.02,-317.95 240.76,-308.81"/>
<polygon fill="midnightblue" stroke="midnightblue" points="243.97,-310.24 245.46,-299.75 237.75,-307.02 243.97,-310.24"/>
</g>
<!-- Node12 -->
<g id="node12" class="node">
<title>Node12</title>
<g id="a_node12"><a xlink:title=" ">
<polygon fill="none" stroke="#bfbfbf" points="296.5,-280.5 296.5,-299.5 357.5,-299.5 357.5,-280.5 296.5,-280.5"/>
<text text-anchor="middle" x="327" y="-287.5" font-family="Helvetica,sans-Serif" font-size="10.00">QtEndian</text>
</a>
</g>
</g>
<!-- Node1&#45;&gt;Node12 -->
<g id="edge15" class="edge">
<title>Node1&#45;&gt;Node12</title>
<path fill="none" stroke="midnightblue" d="M238.87,-336.32C255.71,-327.66 281.81,-314.24 301.24,-304.25"/>
<polygon fill="midnightblue" stroke="midnightblue" points="302.88,-307.34 310.17,-299.65 299.68,-301.12 302.88,-307.34"/>
</g>
<!-- Node3 -->
<g id="node3" class="node">
<title>Node3</title>
<g id="a_node3"><a xlink:href="fitdatamessage_8h.html" target="_top" xlink:title=" ">
<polygon fill="none" stroke="black" points="150.5,-168.5 150.5,-187.5 251.5,-187.5 251.5,-168.5 150.5,-168.5"/>
<text text-anchor="middle" x="201" y="-175.5" font-family="Helvetica,sans-Serif" font-size="10.00">fitdatamessage.h</text>
</a>
</g>
</g>
<!-- Node2&#45;&gt;Node3 -->
<g id="edge2" class="edge">
<title>Node2&#45;&gt;Node3</title>
<path fill="none" stroke="midnightblue" d="M204.34,-224.08C203.82,-217.01 203.06,-206.86 202.41,-197.99"/>
<polygon fill="midnightblue" stroke="midnightblue" points="205.88,-197.47 201.65,-187.75 198.9,-197.98 205.88,-197.47"/>
</g>
<!-- Node4 -->
<g id="node4" class="node">
<title>Node4</title>
<g id="a_node4"><a xlink:href="QtFit__global_8h.html" target="_top" xlink:title=" ">
<polygon fill="none" stroke="black" points="82,-56.5 82,-75.5 166,-75.5 166,-56.5 82,-56.5"/>
<text text-anchor="middle" x="124" y="-63.5" font-family="Helvetica,sans-Serif" font-size="10.00">QtFit_global.h</text>
</a>
</g>
</g>
<!-- Node3&#45;&gt;Node4 -->
<g id="edge3" class="edge">
<title>Node3&#45;&gt;Node4</title>
<path fill="none" stroke="midnightblue" d="M195.99,-168.39C188.54,-155.75 173.93,-131.56 160,-112 153.11,-102.32 144.86,-91.94 138.01,-83.59"/>
<polygon fill="midnightblue" stroke="midnightblue" points="140.56,-81.19 131.47,-75.74 135.18,-85.66 140.56,-81.19"/>
</g>
<!-- Node6 -->
<g id="node6" class="node">
<title>Node6</title>
<g id="a_node6"><a xlink:href="types_8h.html" target="_top" xlink:title="Types defined by the ANT+ FIT SDK.">
<polygon fill="none" stroke="black" points="97.5,-112.5 97.5,-131.5 150.5,-131.5 150.5,-112.5 97.5,-112.5"/>
<text text-anchor="middle" x="124" y="-119.5" font-family="Helvetica,sans-Serif" font-size="10.00">types.h</text>
</a>
</g>
</g>
<!-- Node3&#45;&gt;Node6 -->
<g id="edge5" class="edge">
<title>Node3&#45;&gt;Node6</title>
<path fill="none" stroke="midnightblue" d="M188.63,-168.32C176.84,-160.06 158.87,-147.45 144.86,-137.63"/>
<polygon fill="midnightblue" stroke="midnightblue" points="146.54,-134.53 136.34,-131.65 142.52,-140.26 146.54,-134.53"/>
</g>
<!-- Node5 -->
<g id="node5" class="node">
<title>Node5</title>
<g id="a_node5"><a xlink:title=" ">
<polygon fill="none" stroke="#bfbfbf" points="94.5,-0.5 94.5,-19.5 153.5,-19.5 153.5,-0.5 94.5,-0.5"/>
<text text-anchor="middle" x="124" y="-7.5" font-family="Helvetica,sans-Serif" font-size="10.00">QtGlobal</text>
</a>
</g>
</g>
<!-- Node4&#45;&gt;Node5 -->
<g id="edge4" class="edge">
<title>Node4&#45;&gt;Node5</title>
<path fill="none" stroke="midnightblue" d="M124,-56.08C124,-49.01 124,-38.86 124,-29.99"/>
<polygon fill="midnightblue" stroke="midnightblue" points="127.5,-29.75 124,-19.75 120.5,-29.75 127.5,-29.75"/>
</g>
<!-- Node6&#45;&gt;Node4 -->
<g id="edge6" class="edge">
<title>Node6&#45;&gt;Node4</title>
<path fill="none" stroke="midnightblue" d="M124,-112.08C124,-105.01 124,-94.86 124,-85.99"/>
<polygon fill="midnightblue" stroke="midnightblue" points="127.5,-85.75 124,-75.75 120.5,-85.75 127.5,-85.75"/>
</g>
<!-- Node8 -->
<g id="node8" class="node">
<title>Node8</title>
<g id="a_node8"><a xlink:href="fitdatamessage__p_8h.html" target="_top" xlink:title=" ">
<polygon fill="none" stroke="black" points="1.5,-224.5 1.5,-243.5 114.5,-243.5 114.5,-224.5 1.5,-224.5"/>
<text text-anchor="middle" x="58" y="-231.5" font-family="Helvetica,sans-Serif" font-size="10.00">fitdatamessage_p.h</text>
</a>
</g>
</g>
<!-- Node7&#45;&gt;Node8 -->
<g id="edge8" class="edge">
<title>Node7&#45;&gt;Node8</title>
<path fill="none" stroke="midnightblue" d="M74.7,-280.08C72.02,-272.85 68.15,-262.41 64.81,-253.4"/>
<polygon fill="midnightblue" stroke="midnightblue" points="68,-251.91 61.24,-243.75 61.43,-254.34 68,-251.91"/>
</g>
<!-- Node8&#45;&gt;Node4 -->
<g id="edge9" class="edge">
<title>Node8&#45;&gt;Node4</title>
<path fill="none" stroke="midnightblue" d="M47.56,-224.24C38.58,-215.97 26.25,-202.66 21,-188 14.24,-169.15 21.82,-121.75 29,-112 40.6,-96.26 59.14,-85.81 76.77,-78.98"/>
<polygon fill="midnightblue" stroke="midnightblue" points="78.17,-82.2 86.42,-75.55 75.82,-75.6 78.17,-82.2"/>
</g>
<!-- Node8&#45;&gt;Node6 -->
<g id="edge10" class="edge">
<title>Node8&#45;&gt;Node6</title>
<path fill="none" stroke="midnightblue" d="M69.12,-224.5C79.26,-216.2 94.01,-202.7 103,-188 111.8,-173.62 117.3,-155.16 120.46,-141.59"/>
<polygon fill="midnightblue" stroke="midnightblue" points="123.94,-142.05 122.57,-131.54 117.09,-140.6 123.94,-142.05"/>
</g>
<!-- Node9 -->
<g id="node9" class="node">
<title>Node9</title>
<g id="a_node9"><a xlink:href="types__p_8h.html" target="_top" xlink:title=" ">
<polygon fill="none" stroke="black" points="30,-168.5 30,-187.5 94,-187.5 94,-168.5 30,-168.5"/>
<text text-anchor="middle" x="62" y="-175.5" font-family="Helvetica,sans-Serif" font-size="10.00">types_p.h</text>
</a>
</g>
</g>
<!-- Node8&#45;&gt;Node9 -->
<g id="edge11" class="edge">
<title>Node8&#45;&gt;Node9</title>
<path fill="none" stroke="midnightblue" d="M58.66,-224.08C59.18,-217.01 59.94,-206.86 60.59,-197.99"/>
<polygon fill="midnightblue" stroke="midnightblue" points="64.1,-197.98 61.35,-187.75 57.12,-197.47 64.1,-197.98"/>
</g>
<!-- Node9&#45;&gt;Node6 -->
<g id="edge12" class="edge">
<title>Node9&#45;&gt;Node6</title>
<path fill="none" stroke="midnightblue" d="M71.96,-168.32C81.13,-160.34 94.94,-148.31 106.03,-138.65"/>
<polygon fill="midnightblue" stroke="midnightblue" points="108.62,-141.04 113.86,-131.83 104.02,-135.76 108.62,-141.04"/>
</g>
<!-- Node10 -->
<g id="node10" class="node">
<title>Node10</title>
<g id="a_node10"><a xlink:title=" ">
<polygon fill="none" stroke="#bfbfbf" points="38.5,-112.5 38.5,-131.5 79.5,-131.5 79.5,-112.5 38.5,-112.5"/>
<text text-anchor="middle" x="59" y="-119.5" font-family="Helvetica,sans-Serif" font-size="10.00">QList</text>
</a>
</g>
</g>
<!-- Node9&#45;&gt;Node10 -->
<g id="edge13" class="edge">
<title>Node9&#45;&gt;Node10</title>
<path fill="none" stroke="midnightblue" d="M61.5,-168.08C61.11,-161.01 60.55,-150.86 60.05,-141.99"/>
<polygon fill="midnightblue" stroke="midnightblue" points="63.54,-141.54 59.49,-131.75 56.55,-141.93 63.54,-141.54"/>
</g>
</g>
</svg>
