<?xml version="1.0" encoding="UTF-8" standalone="no"?>
<!DOCTYPE svg PUBLIC "-//W3C//DTD SVG 1.1//EN"
 "http://www.w3.org/Graphics/SVG/1.1/DTD/svg11.dtd">
<!-- Generated by graphviz version 2.43.0 (0)
 -->
<!-- Title: fieldcapabilitiesmessage.cpp Pages: 1 -->
<svg width="449pt" height="364pt"
 viewBox="0.00 0.00 449.00 364.00" xmlns="http://www.w3.org/2000/svg" xmlns:xlink="http://www.w3.org/1999/xlink">
<g id="graph0" class="graph" transform="scale(1 1) rotate(0) translate(4 360)">
<title>fieldcapabilitiesmessage.cpp</title>
<!-- Node1 -->
<g id="node1" class="node">
<title>Node1</title>
<g id="a_node1"><a xlink:title=" ">
<polygon fill="#bfbfbf" stroke="black" points="218.5,-336.5 218.5,-355.5 376.5,-355.5 376.5,-336.5 218.5,-336.5"/>
<text text-anchor="middle" x="297.5" y="-343.5" font-family="Helvetica,sans-Serif" font-size="10.00">fieldcapabilitiesmessage.cpp</text>
</a>
</g>
</g>
<!-- Node2 -->
<g id="node2" class="node">
<title>Node2</title>
<g id="a_node2"><a xlink:href="fieldcapabilitiesmessage_8h.html" target="_top" xlink:title=" ">
<polygon fill="none" stroke="black" points="0,-280.5 0,-299.5 147,-299.5 147,-280.5 0,-280.5"/>
<text text-anchor="middle" x="73.5" y="-287.5" font-family="Helvetica,sans-Serif" font-size="10.00">fieldcapabilitiesmessage.h</text>
</a>
</g>
</g>
<!-- Node1&#45;&gt;Node2 -->
<g id="edge1" class="edge">
<title>Node1&#45;&gt;Node2</title>
<path fill="none" stroke="midnightblue" d="M262.01,-336.44C223.18,-327.08 160.84,-312.06 118.58,-301.87"/>
<polygon fill="midnightblue" stroke="midnightblue" points="119.37,-298.46 108.83,-299.52 117.73,-305.26 119.37,-298.46"/>
</g>
<!-- Node7 -->
<g id="node7" class="node">
<title>Node7</title>
<g id="a_node7"><a xlink:title=" ">
<polygon fill="none" stroke="#bfbfbf" points="282.5,-56.5 282.5,-75.5 338.5,-75.5 338.5,-56.5 282.5,-56.5"/>
<text text-anchor="middle" x="310.5" y="-63.5" font-family="Helvetica,sans-Serif" font-size="10.00">QDebug</text>
</a>
</g>
</g>
<!-- Node1&#45;&gt;Node7 -->
<g id="edge15" class="edge">
<title>Node1&#45;&gt;Node7</title>
<path fill="none" stroke="midnightblue" d="M305.83,-336.39C313.72,-327.8 325.38,-313.92 332.5,-300 346.2,-273.2 351.5,-265.1 351.5,-235 351.5,-235 351.5,-235 351.5,-177 351.5,-142.52 333.59,-105.56 321.44,-84.47"/>
<polygon fill="midnightblue" stroke="midnightblue" points="324.34,-82.49 316.2,-75.71 318.34,-86.09 324.34,-82.49"/>
</g>
<!-- Node8 -->
<g id="node8" class="node">
<title>Node8</title>
<g id="a_node8"><a xlink:href="fieldcapabilitiesmessage__p_8h.html" target="_top" xlink:title=" ">
<polygon fill="none" stroke="black" points="165.5,-280.5 165.5,-299.5 323.5,-299.5 323.5,-280.5 165.5,-280.5"/>
<text text-anchor="middle" x="244.5" y="-287.5" font-family="Helvetica,sans-Serif" font-size="10.00">fieldcapabilitiesmessage_p.h</text>
</a>
</g>
</g>
<!-- Node1&#45;&gt;Node8 -->
<g id="edge8" class="edge">
<title>Node1&#45;&gt;Node8</title>
<path fill="none" stroke="midnightblue" d="M288.75,-336.08C281.03,-328.22 269.6,-316.57 260.28,-307.08"/>
<polygon fill="midnightblue" stroke="midnightblue" points="262.59,-304.44 253.09,-299.75 257.6,-309.34 262.59,-304.44"/>
</g>
<!-- Node12 -->
<g id="node12" class="node">
<title>Node12</title>
<g id="a_node12"><a xlink:title=" ">
<polygon fill="none" stroke="#bfbfbf" points="380,-280.5 380,-299.5 441,-299.5 441,-280.5 380,-280.5"/>
<text text-anchor="middle" x="410.5" y="-287.5" font-family="Helvetica,sans-Serif" font-size="10.00">QtEndian</text>
</a>
</g>
</g>
<!-- Node1&#45;&gt;Node12 -->
<g id="edge16" class="edge">
<title>Node1&#45;&gt;Node12</title>
<path fill="none" stroke="midnightblue" d="M315.41,-336.44C333.75,-327.68 362.51,-313.94 383.59,-303.86"/>
<polygon fill="midnightblue" stroke="midnightblue" points="385.17,-306.99 392.68,-299.52 382.15,-300.67 385.17,-306.99"/>
</g>
<!-- Node3 -->
<g id="node3" class="node">
<title>Node3</title>
<g id="a_node3"><a xlink:href="abstractdatamessage_8h_source.html" target="_top" xlink:title=" ">
<polygon fill="none" stroke="black" points="20,-168.5 20,-187.5 151,-187.5 151,-168.5 20,-168.5"/>
<text text-anchor="middle" x="85.5" y="-175.5" font-family="Helvetica,sans-Serif" font-size="10.00">abstractdatamessage.h</text>
</a>
</g>
</g>
<!-- Node2&#45;&gt;Node3 -->
<g id="edge2" class="edge">
<title>Node2&#45;&gt;Node3</title>
<path fill="none" stroke="midnightblue" d="M74.44,-280.37C76.38,-262.62 80.85,-221.67 83.47,-197.6"/>
<polygon fill="midnightblue" stroke="midnightblue" points="86.96,-197.91 84.56,-187.59 80,-197.15 86.96,-197.91"/>
</g>
<!-- Node4 -->
<g id="node4" class="node">
<title>Node4</title>
<g id="a_node4"><a xlink:href="QtFit__global_8h_source.html" target="_top" xlink:title=" ">
<polygon fill="none" stroke="black" points="137.5,-56.5 137.5,-75.5 221.5,-75.5 221.5,-56.5 137.5,-56.5"/>
<text text-anchor="middle" x="179.5" y="-63.5" font-family="Helvetica,sans-Serif" font-size="10.00">QtFit_global.h</text>
</a>
</g>
</g>
<!-- Node3&#45;&gt;Node4 -->
<g id="edge3" class="edge">
<title>Node3&#45;&gt;Node4</title>
<path fill="none" stroke="midnightblue" d="M92.88,-168.37C108.53,-150.05 145.28,-107.05 165.52,-83.36"/>
<polygon fill="midnightblue" stroke="midnightblue" points="168.32,-85.47 172.16,-75.59 163,-80.92 168.32,-85.47"/>
</g>
<!-- Node6 -->
<g id="node6" class="node">
<title>Node6</title>
<g id="a_node6"><a xlink:href="types_8h.html" target="_top" xlink:title="Types defined by the ANT+ FIT SDK.">
<polygon fill="none" stroke="black" points="208,-112.5 208,-131.5 261,-131.5 261,-112.5 208,-112.5"/>
<text text-anchor="middle" x="234.5" y="-119.5" font-family="Helvetica,sans-Serif" font-size="10.00">types.h</text>
</a>
</g>
</g>
<!-- Node3&#45;&gt;Node6 -->
<g id="edge5" class="edge">
<title>Node3&#45;&gt;Node6</title>
<path fill="none" stroke="midnightblue" d="M109.11,-168.44C133.96,-159.44 173.27,-145.19 201.25,-135.05"/>
<polygon fill="midnightblue" stroke="midnightblue" points="202.79,-138.21 211,-131.52 200.41,-131.63 202.79,-138.21"/>
</g>
<!-- Node5 -->
<g id="node5" class="node">
<title>Node5</title>
<g id="a_node5"><a xlink:title=" ">
<polygon fill="none" stroke="#bfbfbf" points="150,-0.5 150,-19.5 209,-19.5 209,-0.5 150,-0.5"/>
<text text-anchor="middle" x="179.5" y="-7.5" font-family="Helvetica,sans-Serif" font-size="10.00">QtGlobal</text>
</a>
</g>
</g>
<!-- Node4&#45;&gt;Node5 -->
<g id="edge4" class="edge">
<title>Node4&#45;&gt;Node5</title>
<path fill="none" stroke="midnightblue" d="M179.5,-56.08C179.5,-49.01 179.5,-38.86 179.5,-29.99"/>
<polygon fill="midnightblue" stroke="midnightblue" points="183,-29.75 179.5,-19.75 176,-29.75 183,-29.75"/>
</g>
<!-- Node6&#45;&gt;Node4 -->
<g id="edge6" class="edge">
<title>Node6&#45;&gt;Node4</title>
<path fill="none" stroke="midnightblue" d="M225.42,-112.08C217.33,-104.14 205.3,-92.34 195.59,-82.8"/>
<polygon fill="midnightblue" stroke="midnightblue" points="198,-80.26 188.41,-75.75 193.1,-85.25 198,-80.26"/>
</g>
<!-- Node6&#45;&gt;Node7 -->
<g id="edge7" class="edge">
<title>Node6&#45;&gt;Node7</title>
<path fill="none" stroke="midnightblue" d="M246.71,-112.32C258.28,-104.11 275.88,-91.6 289.66,-81.81"/>
<polygon fill="midnightblue" stroke="midnightblue" points="291.94,-84.48 298.07,-75.83 287.89,-78.77 291.94,-84.48"/>
</g>
<!-- Node9 -->
<g id="node9" class="node">
<title>Node9</title>
<g id="a_node9"><a xlink:href="abstractdatamessage__p_8h_source.html" target="_top" xlink:title=" ">
<polygon fill="none" stroke="black" points="166,-224.5 166,-243.5 309,-243.5 309,-224.5 166,-224.5"/>
<text text-anchor="middle" x="237.5" y="-231.5" font-family="Helvetica,sans-Serif" font-size="10.00">abstractdatamessage_p.h</text>
</a>
</g>
</g>
<!-- Node8&#45;&gt;Node9 -->
<g id="edge9" class="edge">
<title>Node8&#45;&gt;Node9</title>
<path fill="none" stroke="midnightblue" d="M243.34,-280.08C242.42,-272.93 241.08,-262.64 239.92,-253.69"/>
<polygon fill="midnightblue" stroke="midnightblue" points="243.39,-253.22 238.63,-243.75 236.45,-254.12 243.39,-253.22"/>
</g>
<!-- Node9&#45;&gt;Node4 -->
<g id="edge10" class="edge">
<title>Node9&#45;&gt;Node4</title>
<path fill="none" stroke="midnightblue" d="M233.91,-224.44C226.73,-207.15 210.25,-166.72 198.5,-132 193.26,-116.51 188.1,-98.67 184.49,-85.6"/>
<polygon fill="midnightblue" stroke="midnightblue" points="187.85,-84.63 181.85,-75.91 181.1,-86.47 187.85,-84.63"/>
</g>
<!-- Node9&#45;&gt;Node6 -->
<g id="edge11" class="edge">
<title>Node9&#45;&gt;Node6</title>
<path fill="none" stroke="midnightblue" d="M237.26,-224.37C236.78,-206.62 235.66,-165.67 235.01,-141.6"/>
<polygon fill="midnightblue" stroke="midnightblue" points="238.51,-141.49 234.73,-131.59 231.51,-141.68 238.51,-141.49"/>
</g>
<!-- Node10 -->
<g id="node10" class="node">
<title>Node10</title>
<g id="a_node10"><a xlink:href="types__p_8h_source.html" target="_top" xlink:title=" ">
<polygon fill="none" stroke="black" points="259.5,-168.5 259.5,-187.5 323.5,-187.5 323.5,-168.5 259.5,-168.5"/>
<text text-anchor="middle" x="291.5" y="-175.5" font-family="Helvetica,sans-Serif" font-size="10.00">types_p.h</text>
</a>
</g>
</g>
<!-- Node9&#45;&gt;Node10 -->
<g id="edge12" class="edge">
<title>Node9&#45;&gt;Node10</title>
<path fill="none" stroke="midnightblue" d="M246.42,-224.08C254.28,-216.22 265.93,-204.57 275.42,-195.08"/>
<polygon fill="midnightblue" stroke="midnightblue" points="278.15,-197.3 282.75,-187.75 273.2,-192.35 278.15,-197.3"/>
</g>
<!-- Node10&#45;&gt;Node6 -->
<g id="edge13" class="edge">
<title>Node10&#45;&gt;Node6</title>
<path fill="none" stroke="midnightblue" d="M282.34,-168.32C274,-160.42 261.47,-148.55 251.32,-138.94"/>
<polygon fill="midnightblue" stroke="midnightblue" points="253.49,-136.17 243.82,-131.83 248.68,-141.25 253.49,-136.17"/>
</g>
<!-- Node11 -->
<g id="node11" class="node">
<title>Node11</title>
<g id="a_node11"><a xlink:title=" ">
<polygon fill="none" stroke="#bfbfbf" points="279,-112.5 279,-131.5 320,-131.5 320,-112.5 279,-112.5"/>
<text text-anchor="middle" x="299.5" y="-119.5" font-family="Helvetica,sans-Serif" font-size="10.00">QList</text>
</a>
</g>
</g>
<!-- Node10&#45;&gt;Node11 -->
<g id="edge14" class="edge">
<title>Node10&#45;&gt;Node11</title>
<path fill="none" stroke="midnightblue" d="M292.82,-168.08C293.88,-160.93 295.41,-150.64 296.73,-141.69"/>
<polygon fill="midnightblue" stroke="midnightblue" points="300.2,-142.16 298.2,-131.75 293.28,-141.13 300.2,-142.16"/>
</g>
</g>
</svg>
