<?xml version="1.0" encoding="UTF-8" standalone="no"?>
<!DOCTYPE svg PUBLIC "-//W3C//DTD SVG 1.1//EN"
 "http://www.w3.org/Graphics/SVG/1.1/DTD/svg11.dtd">
<!-- Generated by graphviz version 2.43.0 (0)
 -->
<!-- Title: fielddescriptionmessage.cpp Pages: 1 -->
<svg width="328pt" height="364pt"
 viewBox="0.00 0.00 327.50 364.00" xmlns="http://www.w3.org/2000/svg" xmlns:xlink="http://www.w3.org/1999/xlink">
<g id="graph0" class="graph" transform="scale(1 1) rotate(0) translate(4 360)">
<title>fielddescriptionmessage.cpp</title>
<!-- Node1 -->
<g id="node1" class="node">
<title>Node1</title>
<g id="a_node1"><a xlink:title=" ">
<polygon fill="#bfbfbf" stroke="black" points="84,-336.5 84,-355.5 240,-355.5 240,-336.5 84,-336.5"/>
<text text-anchor="middle" x="162" y="-343.5" font-family="Helvetica,sans-Serif" font-size="10.00">fielddescriptionmessage.cpp</text>
</a>
</g>
</g>
<!-- Node2 -->
<g id="node2" class="node">
<title>Node2</title>
<g id="a_node2"><a xlink:href="fielddescriptionmessage_8h.html" target="_top" xlink:title=" ">
<polygon fill="none" stroke="black" points="174.5,-280.5 174.5,-299.5 319.5,-299.5 319.5,-280.5 174.5,-280.5"/>
<text text-anchor="middle" x="247" y="-287.5" font-family="Helvetica,sans-Serif" font-size="10.00">fielddescriptionmessage.h</text>
</a>
</g>
</g>
<!-- Node1&#45;&gt;Node2 -->
<g id="edge1" class="edge">
<title>Node1&#45;&gt;Node2</title>
<path fill="none" stroke="midnightblue" d="M175.66,-336.32C188.92,-327.9 209.27,-314.97 224.85,-305.07"/>
<polygon fill="midnightblue" stroke="midnightblue" points="226.81,-307.97 233.38,-299.65 223.06,-302.06 226.81,-307.97"/>
</g>
<!-- Node7 -->
<g id="node7" class="node">
<title>Node7</title>
<g id="a_node7"><a xlink:href="fielddescriptionmessage__p_8h.html" target="_top" xlink:title=" ">
<polygon fill="none" stroke="black" points="0,-280.5 0,-299.5 156,-299.5 156,-280.5 0,-280.5"/>
<text text-anchor="middle" x="78" y="-287.5" font-family="Helvetica,sans-Serif" font-size="10.00">fielddescriptionmessage_p.h</text>
</a>
</g>
</g>
<!-- Node1&#45;&gt;Node7 -->
<g id="edge7" class="edge">
<title>Node1&#45;&gt;Node7</title>
<path fill="none" stroke="midnightblue" d="M148.5,-336.32C135.4,-327.9 115.29,-314.97 99.89,-305.07"/>
<polygon fill="midnightblue" stroke="midnightblue" points="101.77,-302.12 91.46,-299.65 97.98,-308.01 101.77,-302.12"/>
</g>
<!-- Node3 -->
<g id="node3" class="node">
<title>Node3</title>
<g id="a_node3"><a xlink:href="fitdatamessage_8h.html" target="_top" xlink:title=" ">
<polygon fill="none" stroke="black" points="188.5,-168.5 188.5,-187.5 289.5,-187.5 289.5,-168.5 188.5,-168.5"/>
<text text-anchor="middle" x="239" y="-175.5" font-family="Helvetica,sans-Serif" font-size="10.00">fitdatamessage.h</text>
</a>
</g>
</g>
<!-- Node2&#45;&gt;Node3 -->
<g id="edge2" class="edge">
<title>Node2&#45;&gt;Node3</title>
<path fill="none" stroke="midnightblue" d="M246.37,-280.37C245.08,-262.62 242.1,-221.67 240.35,-197.6"/>
<polygon fill="midnightblue" stroke="midnightblue" points="243.84,-197.31 239.62,-187.59 236.86,-197.82 243.84,-197.31"/>
</g>
<!-- Node4 -->
<g id="node4" class="node">
<title>Node4</title>
<g id="a_node4"><a xlink:href="QtFit__global_8h.html" target="_top" xlink:title=" ">
<polygon fill="none" stroke="black" points="120,-56.5 120,-75.5 204,-75.5 204,-56.5 120,-56.5"/>
<text text-anchor="middle" x="162" y="-63.5" font-family="Helvetica,sans-Serif" font-size="10.00">QtFit_global.h</text>
</a>
</g>
</g>
<!-- Node3&#45;&gt;Node4 -->
<g id="edge3" class="edge">
<title>Node3&#45;&gt;Node4</title>
<path fill="none" stroke="midnightblue" d="M233.99,-168.39C226.54,-155.75 211.93,-131.56 198,-112 191.11,-102.32 182.86,-91.94 176.01,-83.59"/>
<polygon fill="midnightblue" stroke="midnightblue" points="178.56,-81.19 169.47,-75.74 173.18,-85.66 178.56,-81.19"/>
</g>
<!-- Node6 -->
<g id="node6" class="node">
<title>Node6</title>
<g id="a_node6"><a xlink:href="types_8h.html" target="_top" xlink:title="Types defined by the ANT+ FIT SDK.">
<polygon fill="none" stroke="black" points="135.5,-112.5 135.5,-131.5 188.5,-131.5 188.5,-112.5 135.5,-112.5"/>
<text text-anchor="middle" x="162" y="-119.5" font-family="Helvetica,sans-Serif" font-size="10.00">types.h</text>
</a>
</g>
</g>
<!-- Node3&#45;&gt;Node6 -->
<g id="edge5" class="edge">
<title>Node3&#45;&gt;Node6</title>
<path fill="none" stroke="midnightblue" d="M226.63,-168.32C214.84,-160.06 196.87,-147.45 182.86,-137.63"/>
<polygon fill="midnightblue" stroke="midnightblue" points="184.54,-134.53 174.34,-131.65 180.52,-140.26 184.54,-134.53"/>
</g>
<!-- Node5 -->
<g id="node5" class="node">
<title>Node5</title>
<g id="a_node5"><a xlink:title=" ">
<polygon fill="none" stroke="#bfbfbf" points="132.5,-0.5 132.5,-19.5 191.5,-19.5 191.5,-0.5 132.5,-0.5"/>
<text text-anchor="middle" x="162" y="-7.5" font-family="Helvetica,sans-Serif" font-size="10.00">QtGlobal</text>
</a>
</g>
</g>
<!-- Node4&#45;&gt;Node5 -->
<g id="edge4" class="edge">
<title>Node4&#45;&gt;Node5</title>
<path fill="none" stroke="midnightblue" d="M162,-56.08C162,-49.01 162,-38.86 162,-29.99"/>
<polygon fill="midnightblue" stroke="midnightblue" points="165.5,-29.75 162,-19.75 158.5,-29.75 165.5,-29.75"/>
</g>
<!-- Node6&#45;&gt;Node4 -->
<g id="edge6" class="edge">
<title>Node6&#45;&gt;Node4</title>
<path fill="none" stroke="midnightblue" d="M162,-112.08C162,-105.01 162,-94.86 162,-85.99"/>
<polygon fill="midnightblue" stroke="midnightblue" points="165.5,-85.75 162,-75.75 158.5,-85.75 165.5,-85.75"/>
</g>
<!-- Node8 -->
<g id="node8" class="node">
<title>Node8</title>
<g id="a_node8"><a xlink:href="fitdatamessage__p_8h.html" target="_top" xlink:title=" ">
<polygon fill="none" stroke="black" points="36.5,-224.5 36.5,-243.5 149.5,-243.5 149.5,-224.5 36.5,-224.5"/>
<text text-anchor="middle" x="93" y="-231.5" font-family="Helvetica,sans-Serif" font-size="10.00">fitdatamessage_p.h</text>
</a>
</g>
</g>
<!-- Node7&#45;&gt;Node8 -->
<g id="edge8" class="edge">
<title>Node7&#45;&gt;Node8</title>
<path fill="none" stroke="midnightblue" d="M80.48,-280.08C82.49,-272.85 85.39,-262.41 87.89,-253.4"/>
<polygon fill="midnightblue" stroke="midnightblue" points="91.26,-254.32 90.57,-243.75 84.52,-252.45 91.26,-254.32"/>
</g>
<!-- Node8&#45;&gt;Node4 -->
<g id="edge9" class="edge">
<title>Node8&#45;&gt;Node4</title>
<path fill="none" stroke="midnightblue" d="M83.71,-224.39C75.42,-216.02 63.86,-202.48 59,-188 52.54,-168.74 60.66,-120.6 67,-112 78.6,-96.26 97.14,-85.81 114.77,-78.98"/>
<polygon fill="midnightblue" stroke="midnightblue" points="116.17,-82.2 124.42,-75.55 113.82,-75.6 116.17,-82.2"/>
</g>
<!-- Node8&#45;&gt;Node6 -->
<g id="edge10" class="edge">
<title>Node8&#45;&gt;Node6</title>
<path fill="none" stroke="midnightblue" d="M105.3,-224.34C116.12,-216.12 131.58,-202.86 141,-188 150.03,-173.76 155.51,-155.29 158.59,-141.67"/>
<polygon fill="midnightblue" stroke="midnightblue" points="162.08,-142.08 160.65,-131.58 155.22,-140.68 162.08,-142.08"/>
</g>
<!-- Node9 -->
<g id="node9" class="node">
<title>Node9</title>
<g id="a_node9"><a xlink:href="types__p_8h.html" target="_top" xlink:title=" ">
<polygon fill="none" stroke="black" points="68,-168.5 68,-187.5 132,-187.5 132,-168.5 68,-168.5"/>
<text text-anchor="middle" x="100" y="-175.5" font-family="Helvetica,sans-Serif" font-size="10.00">types_p.h</text>
</a>
</g>
</g>
<!-- Node8&#45;&gt;Node9 -->
<g id="edge11" class="edge">
<title>Node8&#45;&gt;Node9</title>
<path fill="none" stroke="midnightblue" d="M94.16,-224.08C95.08,-216.93 96.42,-206.64 97.58,-197.69"/>
<polygon fill="midnightblue" stroke="midnightblue" points="101.05,-198.12 98.87,-187.75 94.11,-197.22 101.05,-198.12"/>
</g>
<!-- Node9&#45;&gt;Node6 -->
<g id="edge12" class="edge">
<title>Node9&#45;&gt;Node6</title>
<path fill="none" stroke="midnightblue" d="M109.96,-168.32C119.13,-160.34 132.94,-148.31 144.03,-138.65"/>
<polygon fill="midnightblue" stroke="midnightblue" points="146.62,-141.04 151.86,-131.83 142.02,-135.76 146.62,-141.04"/>
</g>
<!-- Node10 -->
<g id="node10" class="node">
<title>Node10</title>
<g id="a_node10"><a xlink:title=" ">
<polygon fill="none" stroke="#bfbfbf" points="76.5,-112.5 76.5,-131.5 117.5,-131.5 117.5,-112.5 76.5,-112.5"/>
<text text-anchor="middle" x="97" y="-119.5" font-family="Helvetica,sans-Serif" font-size="10.00">QList</text>
</a>
</g>
</g>
<!-- Node9&#45;&gt;Node10 -->
<g id="edge13" class="edge">
<title>Node9&#45;&gt;Node10</title>
<path fill="none" stroke="midnightblue" d="M99.5,-168.08C99.11,-161.01 98.55,-150.86 98.05,-141.99"/>
<polygon fill="midnightblue" stroke="midnightblue" points="101.54,-141.54 97.49,-131.75 94.55,-141.93 101.54,-141.54"/>
</g>
</g>
</svg>
