<?xml version="1.0" encoding="UTF-8" standalone="no"?>
<!DOCTYPE svg PUBLIC "-//W3C//DTD SVG 1.1//EN"
 "http://www.w3.org/Graphics/SVG/1.1/DTD/svg11.dtd">
<!-- Generated by graphviz version 2.43.0 (0)
 -->
<!-- Title: fieldcapabilitiesmessage.cpp Pages: 1 -->
<svg width="368pt" height="364pt"
 viewBox="0.00 0.00 367.50 364.00" xmlns="http://www.w3.org/2000/svg" xmlns:xlink="http://www.w3.org/1999/xlink">
<g id="graph0" class="graph" transform="scale(1 1) rotate(0) translate(4 360)">
<title>fieldcapabilitiesmessage.cpp</title>
<!-- Node1 -->
<g id="node1" class="node">
<title>Node1</title>
<g id="a_node1"><a xlink:title=" ">
<polygon fill="#bfbfbf" stroke="black" points="145,-336.5 145,-355.5 303,-355.5 303,-336.5 145,-336.5"/>
<text text-anchor="middle" x="224" y="-343.5" font-family="Helvetica,sans-Serif" font-size="10.00">fieldcapabilitiesmessage.cpp</text>
</a>
</g>
</g>
<!-- Node2 -->
<g id="node2" class="node">
<title>Node2</title>
<g id="a_node2"><a xlink:href="fieldcapabilitiesmessage_8h.html" target="_top" xlink:title=" ">
<polygon fill="none" stroke="black" points="133.5,-224.5 133.5,-243.5 280.5,-243.5 280.5,-224.5 133.5,-224.5"/>
<text text-anchor="middle" x="207" y="-231.5" font-family="Helvetica,sans-Serif" font-size="10.00">fieldcapabilitiesmessage.h</text>
</a>
</g>
</g>
<!-- Node1&#45;&gt;Node2 -->
<g id="edge1" class="edge">
<title>Node1&#45;&gt;Node2</title>
<path fill="none" stroke="midnightblue" d="M222.08,-336.41C220.11,-327.38 217.06,-312.74 215,-300 212.51,-284.55 210.38,-266.92 208.95,-253.92"/>
<polygon fill="midnightblue" stroke="midnightblue" points="212.42,-253.43 207.88,-243.86 205.46,-254.18 212.42,-253.43"/>
</g>
<!-- Node7 -->
<g id="node7" class="node">
<title>Node7</title>
<g id="a_node7"><a xlink:href="fieldcapabilitiesmessage__p_8h.html" target="_top" xlink:title=" ">
<polygon fill="none" stroke="black" points="0,-280.5 0,-299.5 158,-299.5 158,-280.5 0,-280.5"/>
<text text-anchor="middle" x="79" y="-287.5" font-family="Helvetica,sans-Serif" font-size="10.00">fieldcapabilitiesmessage_p.h</text>
</a>
</g>
</g>
<!-- Node1&#45;&gt;Node7 -->
<g id="edge7" class="edge">
<title>Node1&#45;&gt;Node7</title>
<path fill="none" stroke="midnightblue" d="M201.02,-336.44C176.84,-327.44 138.58,-313.19 111.35,-303.05"/>
<polygon fill="midnightblue" stroke="midnightblue" points="112.46,-299.73 101.87,-299.52 110.02,-306.29 112.46,-299.73"/>
</g>
<!-- Node11 -->
<g id="node11" class="node">
<title>Node11</title>
<g id="a_node11"><a xlink:title=" ">
<polygon fill="none" stroke="#bfbfbf" points="224,-280.5 224,-299.5 280,-299.5 280,-280.5 224,-280.5"/>
<text text-anchor="middle" x="252" y="-287.5" font-family="Helvetica,sans-Serif" font-size="10.00">QDebug</text>
</a>
</g>
</g>
<!-- Node1&#45;&gt;Node11 -->
<g id="edge14" class="edge">
<title>Node1&#45;&gt;Node11</title>
<path fill="none" stroke="midnightblue" d="M228.62,-336.08C232.46,-328.69 238.02,-317.95 242.76,-308.81"/>
<polygon fill="midnightblue" stroke="midnightblue" points="245.97,-310.24 247.46,-299.75 239.75,-307.02 245.97,-310.24"/>
</g>
<!-- Node12 -->
<g id="node12" class="node">
<title>Node12</title>
<g id="a_node12"><a xlink:title=" ">
<polygon fill="none" stroke="#bfbfbf" points="298.5,-280.5 298.5,-299.5 359.5,-299.5 359.5,-280.5 298.5,-280.5"/>
<text text-anchor="middle" x="329" y="-287.5" font-family="Helvetica,sans-Serif" font-size="10.00">QtEndian</text>
</a>
</g>
</g>
<!-- Node1&#45;&gt;Node12 -->
<g id="edge15" class="edge">
<title>Node1&#45;&gt;Node12</title>
<path fill="none" stroke="midnightblue" d="M240.87,-336.32C257.71,-327.66 283.81,-314.24 303.24,-304.25"/>
<polygon fill="midnightblue" stroke="midnightblue" points="304.88,-307.34 312.17,-299.65 301.68,-301.12 304.88,-307.34"/>
</g>
<!-- Node3 -->
<g id="node3" class="node">
<title>Node3</title>
<g id="a_node3"><a xlink:href="fitdatamessage_8h.html" target="_top" xlink:title=" ">
<polygon fill="none" stroke="black" points="152.5,-168.5 152.5,-187.5 253.5,-187.5 253.5,-168.5 152.5,-168.5"/>
<text text-anchor="middle" x="203" y="-175.5" font-family="Helvetica,sans-Serif" font-size="10.00">fitdatamessage.h</text>
</a>
</g>
</g>
<!-- Node2&#45;&gt;Node3 -->
<g id="edge2" class="edge">
<title>Node2&#45;&gt;Node3</title>
<path fill="none" stroke="midnightblue" d="M206.34,-224.08C205.82,-217.01 205.06,-206.86 204.41,-197.99"/>
<polygon fill="midnightblue" stroke="midnightblue" points="207.88,-197.47 203.65,-187.75 200.9,-197.98 207.88,-197.47"/>
</g>
<!-- Node4 -->
<g id="node4" class="node">
<title>Node4</title>
<g id="a_node4"><a xlink:href="QtFit__global_8h.html" target="_top" xlink:title=" ">
<polygon fill="none" stroke="black" points="84,-56.5 84,-75.5 168,-75.5 168,-56.5 84,-56.5"/>
<text text-anchor="middle" x="126" y="-63.5" font-family="Helvetica,sans-Serif" font-size="10.00">QtFit_global.h</text>
</a>
</g>
</g>
<!-- Node3&#45;&gt;Node4 -->
<g id="edge3" class="edge">
<title>Node3&#45;&gt;Node4</title>
<path fill="none" stroke="midnightblue" d="M197.99,-168.39C190.54,-155.75 175.93,-131.56 162,-112 155.11,-102.32 146.86,-91.94 140.01,-83.59"/>
<polygon fill="midnightblue" stroke="midnightblue" points="142.56,-81.19 133.47,-75.74 137.18,-85.66 142.56,-81.19"/>
</g>
<!-- Node6 -->
<g id="node6" class="node">
<title>Node6</title>
<g id="a_node6"><a xlink:href="types_8h.html" target="_top" xlink:title="Types defined by the ANT+ FIT SDK.">
<polygon fill="none" stroke="black" points="99.5,-112.5 99.5,-131.5 152.5,-131.5 152.5,-112.5 99.5,-112.5"/>
<text text-anchor="middle" x="126" y="-119.5" font-family="Helvetica,sans-Serif" font-size="10.00">types.h</text>
</a>
</g>
</g>
<!-- Node3&#45;&gt;Node6 -->
<g id="edge5" class="edge">
<title>Node3&#45;&gt;Node6</title>
<path fill="none" stroke="midnightblue" d="M190.63,-168.32C178.84,-160.06 160.87,-147.45 146.86,-137.63"/>
<polygon fill="midnightblue" stroke="midnightblue" points="148.54,-134.53 138.34,-131.65 144.52,-140.26 148.54,-134.53"/>
</g>
<!-- Node5 -->
<g id="node5" class="node">
<title>Node5</title>
<g id="a_node5"><a xlink:title=" ">
<polygon fill="none" stroke="#bfbfbf" points="96.5,-0.5 96.5,-19.5 155.5,-19.5 155.5,-0.5 96.5,-0.5"/>
<text text-anchor="middle" x="126" y="-7.5" font-family="Helvetica,sans-Serif" font-size="10.00">QtGlobal</text>
</a>
</g>
</g>
<!-- Node4&#45;&gt;Node5 -->
<g id="edge4" class="edge">
<title>Node4&#45;&gt;Node5</title>
<path fill="none" stroke="midnightblue" d="M126,-56.08C126,-49.01 126,-38.86 126,-29.99"/>
<polygon fill="midnightblue" stroke="midnightblue" points="129.5,-29.75 126,-19.75 122.5,-29.75 129.5,-29.75"/>
</g>
<!-- Node6&#45;&gt;Node4 -->
<g id="edge6" class="edge">
<title>Node6&#45;&gt;Node4</title>
<path fill="none" stroke="midnightblue" d="M126,-112.08C126,-105.01 126,-94.86 126,-85.99"/>
<polygon fill="midnightblue" stroke="midnightblue" points="129.5,-85.75 126,-75.75 122.5,-85.75 129.5,-85.75"/>
</g>
<!-- Node8 -->
<g id="node8" class="node">
<title>Node8</title>
<g id="a_node8"><a xlink:href="fitdatamessage__p_8h.html" target="_top" xlink:title=" ">
<polygon fill="none" stroke="black" points="2.5,-224.5 2.5,-243.5 115.5,-243.5 115.5,-224.5 2.5,-224.5"/>
<text text-anchor="middle" x="59" y="-231.5" font-family="Helvetica,sans-Serif" font-size="10.00">fitdatamessage_p.h</text>
</a>
</g>
</g>
<!-- Node7&#45;&gt;Node8 -->
<g id="edge8" class="edge">
<title>Node7&#45;&gt;Node8</title>
<path fill="none" stroke="midnightblue" d="M75.7,-280.08C73.02,-272.85 69.15,-262.41 65.81,-253.4"/>
<polygon fill="midnightblue" stroke="midnightblue" points="69,-251.91 62.24,-243.75 62.43,-254.34 69,-251.91"/>
</g>
<!-- Node8&#45;&gt;Node4 -->
<g id="edge9" class="edge">
<title>Node8&#45;&gt;Node4</title>
<path fill="none" stroke="midnightblue" d="M48.84,-224.19C40.09,-215.87 28.1,-202.54 23,-188 16.34,-169.02 24.09,-121.38 31,-112 42.6,-96.26 61.14,-85.81 78.77,-78.98"/>
<polygon fill="midnightblue" stroke="midnightblue" points="80.17,-82.2 88.42,-75.55 77.82,-75.6 80.17,-82.2"/>
</g>
<!-- Node8&#45;&gt;Node6 -->
<g id="edge10" class="edge">
<title>Node8&#45;&gt;Node6</title>
<path fill="none" stroke="midnightblue" d="M70.77,-224.23C81.14,-215.94 95.94,-202.63 105,-188 113.88,-173.66 119.37,-155.2 122.5,-141.62"/>
<polygon fill="midnightblue" stroke="midnightblue" points="125.99,-142.06 124.6,-131.55 119.13,-140.63 125.99,-142.06"/>
</g>
<!-- Node9 -->
<g id="node9" class="node">
<title>Node9</title>
<g id="a_node9"><a xlink:href="types__p_8h.html" target="_top" xlink:title=" ">
<polygon fill="none" stroke="black" points="32,-168.5 32,-187.5 96,-187.5 96,-168.5 32,-168.5"/>
<text text-anchor="middle" x="64" y="-175.5" font-family="Helvetica,sans-Serif" font-size="10.00">types_p.h</text>
</a>
</g>
</g>
<!-- Node8&#45;&gt;Node9 -->
<g id="edge11" class="edge">
<title>Node8&#45;&gt;Node9</title>
<path fill="none" stroke="midnightblue" d="M59.83,-224.08C60.48,-217.01 61.42,-206.86 62.24,-197.99"/>
<polygon fill="midnightblue" stroke="midnightblue" points="65.75,-198.03 63.19,-187.75 58.78,-197.39 65.75,-198.03"/>
</g>
<!-- Node9&#45;&gt;Node6 -->
<g id="edge12" class="edge">
<title>Node9&#45;&gt;Node6</title>
<path fill="none" stroke="midnightblue" d="M73.96,-168.32C83.13,-160.34 96.94,-148.31 108.03,-138.65"/>
<polygon fill="midnightblue" stroke="midnightblue" points="110.62,-141.04 115.86,-131.83 106.02,-135.76 110.62,-141.04"/>
</g>
<!-- Node10 -->
<g id="node10" class="node">
<title>Node10</title>
<g id="a_node10"><a xlink:title=" ">
<polygon fill="none" stroke="#bfbfbf" points="40.5,-112.5 40.5,-131.5 81.5,-131.5 81.5,-112.5 40.5,-112.5"/>
<text text-anchor="middle" x="61" y="-119.5" font-family="Helvetica,sans-Serif" font-size="10.00">QList</text>
</a>
</g>
</g>
<!-- Node9&#45;&gt;Node10 -->
<g id="edge13" class="edge">
<title>Node9&#45;&gt;Node10</title>
<path fill="none" stroke="midnightblue" d="M63.5,-168.08C63.11,-161.01 62.55,-150.86 62.05,-141.99"/>
<polygon fill="midnightblue" stroke="midnightblue" points="65.54,-141.54 61.49,-131.75 58.55,-141.93 65.54,-141.54"/>
</g>
</g>
</svg>
