<?xml version="1.0" encoding="UTF-8" standalone="no"?>
<!DOCTYPE svg PUBLIC "-//W3C//DTD SVG 1.1//EN"
 "http://www.w3.org/Graphics/SVG/1.1/DTD/svg11.dtd">
<!-- Generated by graphviz version 2.43.0 (0)
 -->
<!-- Title: fieldcapabilitiesmessage.cpp Pages: 1 -->
<svg width="332pt" height="364pt"
 viewBox="0.00 0.00 331.50 364.00" xmlns="http://www.w3.org/2000/svg" xmlns:xlink="http://www.w3.org/1999/xlink">
<g id="graph0" class="graph" transform="scale(1 1) rotate(0) translate(4 360)">
<title>fieldcapabilitiesmessage.cpp</title>
<!-- Node1 -->
<g id="node1" class="node">
<title>Node1</title>
<g id="a_node1"><a xlink:title=" ">
<polygon fill="#bfbfbf" stroke="black" points="85,-336.5 85,-355.5 243,-355.5 243,-336.5 85,-336.5"/>
<text text-anchor="middle" x="164" y="-343.5" font-family="Helvetica,sans-Serif" font-size="10.00">fieldcapabilitiesmessage.cpp</text>
</a>
</g>
</g>
<!-- Node2 -->
<g id="node2" class="node">
<title>Node2</title>
<g id="a_node2"><a xlink:href="fieldcapabilitiesmessage_8h.html" target="_top" xlink:title=" ">
<polygon fill="none" stroke="black" points="176.5,-280.5 176.5,-299.5 323.5,-299.5 323.5,-280.5 176.5,-280.5"/>
<text text-anchor="middle" x="250" y="-287.5" font-family="Helvetica,sans-Serif" font-size="10.00">fieldcapabilitiesmessage.h</text>
</a>
</g>
</g>
<!-- Node1&#45;&gt;Node2 -->
<g id="edge1" class="edge">
<title>Node1&#45;&gt;Node2</title>
<path fill="none" stroke="midnightblue" d="M177.82,-336.32C191.23,-327.9 211.82,-314.97 227.59,-305.07"/>
<polygon fill="midnightblue" stroke="midnightblue" points="229.61,-307.94 236.22,-299.65 225.89,-302.01 229.61,-307.94"/>
</g>
<!-- Node7 -->
<g id="node7" class="node">
<title>Node7</title>
<g id="a_node7"><a xlink:href="fieldcapabilitiesmessage__p_8h.html" target="_top" xlink:title=" ">
<polygon fill="none" stroke="black" points="0,-280.5 0,-299.5 158,-299.5 158,-280.5 0,-280.5"/>
<text text-anchor="middle" x="79" y="-287.5" font-family="Helvetica,sans-Serif" font-size="10.00">fieldcapabilitiesmessage_p.h</text>
</a>
</g>
</g>
<!-- Node1&#45;&gt;Node7 -->
<g id="edge7" class="edge">
<title>Node1&#45;&gt;Node7</title>
<path fill="none" stroke="midnightblue" d="M150.34,-336.32C137.08,-327.9 116.73,-314.97 101.15,-305.07"/>
<polygon fill="midnightblue" stroke="midnightblue" points="102.94,-302.06 92.62,-299.65 99.19,-307.97 102.94,-302.06"/>
</g>
<!-- Node3 -->
<g id="node3" class="node">
<title>Node3</title>
<g id="a_node3"><a xlink:href="fitdatamessage_8h.html" target="_top" xlink:title=" ">
<polygon fill="none" stroke="black" points="191.5,-168.5 191.5,-187.5 292.5,-187.5 292.5,-168.5 191.5,-168.5"/>
<text text-anchor="middle" x="242" y="-175.5" font-family="Helvetica,sans-Serif" font-size="10.00">fitdatamessage.h</text>
</a>
</g>
</g>
<!-- Node2&#45;&gt;Node3 -->
<g id="edge2" class="edge">
<title>Node2&#45;&gt;Node3</title>
<path fill="none" stroke="midnightblue" d="M249.37,-280.37C248.08,-262.62 245.1,-221.67 243.35,-197.6"/>
<polygon fill="midnightblue" stroke="midnightblue" points="246.84,-197.31 242.62,-187.59 239.86,-197.82 246.84,-197.31"/>
</g>
<!-- Node4 -->
<g id="node4" class="node">
<title>Node4</title>
<g id="a_node4"><a xlink:href="QtFit__global_8h.html" target="_top" xlink:title=" ">
<polygon fill="none" stroke="black" points="123,-56.5 123,-75.5 207,-75.5 207,-56.5 123,-56.5"/>
<text text-anchor="middle" x="165" y="-63.5" font-family="Helvetica,sans-Serif" font-size="10.00">QtFit_global.h</text>
</a>
</g>
</g>
<!-- Node3&#45;&gt;Node4 -->
<g id="edge3" class="edge">
<title>Node3&#45;&gt;Node4</title>
<path fill="none" stroke="midnightblue" d="M236.99,-168.39C229.54,-155.75 214.93,-131.56 201,-112 194.11,-102.32 185.86,-91.94 179.01,-83.59"/>
<polygon fill="midnightblue" stroke="midnightblue" points="181.56,-81.19 172.47,-75.74 176.18,-85.66 181.56,-81.19"/>
</g>
<!-- Node6 -->
<g id="node6" class="node">
<title>Node6</title>
<g id="a_node6"><a xlink:href="types_8h.html" target="_top" xlink:title="Types defined by the ANT+ FIT SDK.">
<polygon fill="none" stroke="black" points="138.5,-112.5 138.5,-131.5 191.5,-131.5 191.5,-112.5 138.5,-112.5"/>
<text text-anchor="middle" x="165" y="-119.5" font-family="Helvetica,sans-Serif" font-size="10.00">types.h</text>
</a>
</g>
</g>
<!-- Node3&#45;&gt;Node6 -->
<g id="edge5" class="edge">
<title>Node3&#45;&gt;Node6</title>
<path fill="none" stroke="midnightblue" d="M229.63,-168.32C217.84,-160.06 199.87,-147.45 185.86,-137.63"/>
<polygon fill="midnightblue" stroke="midnightblue" points="187.54,-134.53 177.34,-131.65 183.52,-140.26 187.54,-134.53"/>
</g>
<!-- Node5 -->
<g id="node5" class="node">
<title>Node5</title>
<g id="a_node5"><a xlink:title=" ">
<polygon fill="none" stroke="#bfbfbf" points="135.5,-0.5 135.5,-19.5 194.5,-19.5 194.5,-0.5 135.5,-0.5"/>
<text text-anchor="middle" x="165" y="-7.5" font-family="Helvetica,sans-Serif" font-size="10.00">QtGlobal</text>
</a>
</g>
</g>
<!-- Node4&#45;&gt;Node5 -->
<g id="edge4" class="edge">
<title>Node4&#45;&gt;Node5</title>
<path fill="none" stroke="midnightblue" d="M165,-56.08C165,-49.01 165,-38.86 165,-29.99"/>
<polygon fill="midnightblue" stroke="midnightblue" points="168.5,-29.75 165,-19.75 161.5,-29.75 168.5,-29.75"/>
</g>
<!-- Node6&#45;&gt;Node4 -->
<g id="edge6" class="edge">
<title>Node6&#45;&gt;Node4</title>
<path fill="none" stroke="midnightblue" d="M165,-112.08C165,-105.01 165,-94.86 165,-85.99"/>
<polygon fill="midnightblue" stroke="midnightblue" points="168.5,-85.75 165,-75.75 161.5,-85.75 168.5,-85.75"/>
</g>
<!-- Node8 -->
<g id="node8" class="node">
<title>Node8</title>
<g id="a_node8"><a xlink:href="fitdatamessage__p_8h.html" target="_top" xlink:title=" ">
<polygon fill="none" stroke="black" points="38.5,-224.5 38.5,-243.5 151.5,-243.5 151.5,-224.5 38.5,-224.5"/>
<text text-anchor="middle" x="95" y="-231.5" font-family="Helvetica,sans-Serif" font-size="10.00">fitdatamessage_p.h</text>
</a>
</g>
</g>
<!-- Node7&#45;&gt;Node8 -->
<g id="edge8" class="edge">
<title>Node7&#45;&gt;Node8</title>
<path fill="none" stroke="midnightblue" d="M81.64,-280.08C83.79,-272.85 86.88,-262.41 89.55,-253.4"/>
<polygon fill="midnightblue" stroke="midnightblue" points="92.92,-254.33 92.41,-243.75 86.21,-252.34 92.92,-254.33"/>
</g>
<!-- Node8&#45;&gt;Node4 -->
<g id="edge9" class="edge">
<title>Node8&#45;&gt;Node4</title>
<path fill="none" stroke="midnightblue" d="M85.98,-224.34C77.93,-215.93 66.7,-202.36 62,-188 55.65,-168.6 63.96,-120.2 70,-112 81.6,-96.26 100.14,-85.81 117.77,-78.98"/>
<polygon fill="midnightblue" stroke="midnightblue" points="119.17,-82.2 127.42,-75.55 116.82,-75.6 119.17,-82.2"/>
</g>
<!-- Node8&#45;&gt;Node6 -->
<g id="edge10" class="edge">
<title>Node8&#45;&gt;Node6</title>
<path fill="none" stroke="midnightblue" d="M107.56,-224.39C118.62,-216.22 134.4,-202.97 144,-188 153.1,-173.81 158.57,-155.33 161.64,-141.7"/>
<polygon fill="midnightblue" stroke="midnightblue" points="165.13,-142.09 163.67,-131.6 158.27,-140.71 165.13,-142.09"/>
</g>
<!-- Node9 -->
<g id="node9" class="node">
<title>Node9</title>
<g id="a_node9"><a xlink:href="types__p_8h.html" target="_top" xlink:title=" ">
<polygon fill="none" stroke="black" points="71,-168.5 71,-187.5 135,-187.5 135,-168.5 71,-168.5"/>
<text text-anchor="middle" x="103" y="-175.5" font-family="Helvetica,sans-Serif" font-size="10.00">types_p.h</text>
</a>
</g>
</g>
<!-- Node8&#45;&gt;Node9 -->
<g id="edge11" class="edge">
<title>Node8&#45;&gt;Node9</title>
<path fill="none" stroke="midnightblue" d="M96.32,-224.08C97.38,-216.93 98.91,-206.64 100.23,-197.69"/>
<polygon fill="midnightblue" stroke="midnightblue" points="103.7,-198.16 101.7,-187.75 96.78,-197.13 103.7,-198.16"/>
</g>
<!-- Node9&#45;&gt;Node6 -->
<g id="edge12" class="edge">
<title>Node9&#45;&gt;Node6</title>
<path fill="none" stroke="midnightblue" d="M112.96,-168.32C122.13,-160.34 135.94,-148.31 147.03,-138.65"/>
<polygon fill="midnightblue" stroke="midnightblue" points="149.62,-141.04 154.86,-131.83 145.02,-135.76 149.62,-141.04"/>
</g>
<!-- Node10 -->
<g id="node10" class="node">
<title>Node10</title>
<g id="a_node10"><a xlink:title=" ">
<polygon fill="none" stroke="#bfbfbf" points="79.5,-112.5 79.5,-131.5 120.5,-131.5 120.5,-112.5 79.5,-112.5"/>
<text text-anchor="middle" x="100" y="-119.5" font-family="Helvetica,sans-Serif" font-size="10.00">QList</text>
</a>
</g>
</g>
<!-- Node9&#45;&gt;Node10 -->
<g id="edge13" class="edge">
<title>Node9&#45;&gt;Node10</title>
<path fill="none" stroke="midnightblue" d="M102.5,-168.08C102.11,-161.01 101.55,-150.86 101.05,-141.99"/>
<polygon fill="midnightblue" stroke="midnightblue" points="104.54,-141.54 100.49,-131.75 97.55,-141.93 104.54,-141.54"/>
</g>
</g>
</svg>
