<?xml version="1.0" encoding="UTF-8" standalone="no"?>
<!DOCTYPE svg PUBLIC "-//W3C//DTD SVG 1.1//EN"
 "http://www.w3.org/Graphics/SVG/1.1/DTD/svg11.dtd">
<!-- Generated by graphviz version 2.43.0 (0)
 -->
<!-- Title: fielddescriptionmessage.cpp Pages: 1 -->
<svg width="445pt" height="364pt"
 viewBox="0.00 0.00 445.00 364.00" xmlns="http://www.w3.org/2000/svg" xmlns:xlink="http://www.w3.org/1999/xlink">
<g id="graph0" class="graph" transform="scale(1 1) rotate(0) translate(4 360)">
<title>fielddescriptionmessage.cpp</title>
<!-- Node1 -->
<g id="node1" class="node">
<title>Node1</title>
<g id="a_node1"><a xlink:title=" ">
<polygon fill="#bfbfbf" stroke="black" points="216.5,-336.5 216.5,-355.5 372.5,-355.5 372.5,-336.5 216.5,-336.5"/>
<text text-anchor="middle" x="294.5" y="-343.5" font-family="Helvetica,sans-Serif" font-size="10.00">fielddescriptionmessage.cpp</text>
</a>
</g>
</g>
<!-- Node2 -->
<g id="node2" class="node">
<title>Node2</title>
<g id="a_node2"><a xlink:href="fielddescriptionmessage_8h.html" target="_top" xlink:title=" ">
<polygon fill="none" stroke="black" points="0,-280.5 0,-299.5 145,-299.5 145,-280.5 0,-280.5"/>
<text text-anchor="middle" x="72.5" y="-287.5" font-family="Helvetica,sans-Serif" font-size="10.00">fielddescriptionmessage.h</text>
</a>
</g>
</g>
<!-- Node1&#45;&gt;Node2 -->
<g id="edge1" class="edge">
<title>Node1&#45;&gt;Node2</title>
<path fill="none" stroke="midnightblue" d="M259.32,-336.44C220.92,-327.1 159.32,-312.12 117.44,-301.93"/>
<polygon fill="midnightblue" stroke="midnightblue" points="118.06,-298.48 107.51,-299.52 116.4,-305.28 118.06,-298.48"/>
</g>
<!-- Node7 -->
<g id="node7" class="node">
<title>Node7</title>
<g id="a_node7"><a xlink:title=" ">
<polygon fill="none" stroke="#bfbfbf" points="278.5,-56.5 278.5,-75.5 334.5,-75.5 334.5,-56.5 278.5,-56.5"/>
<text text-anchor="middle" x="306.5" y="-63.5" font-family="Helvetica,sans-Serif" font-size="10.00">QDebug</text>
</a>
</g>
</g>
<!-- Node1&#45;&gt;Node7 -->
<g id="edge15" class="edge">
<title>Node1&#45;&gt;Node7</title>
<path fill="none" stroke="midnightblue" d="M302.58,-336.34C310.23,-327.72 321.55,-313.82 328.5,-300 342.02,-273.11 347.5,-265.1 347.5,-235 347.5,-235 347.5,-235 347.5,-177 347.5,-142.52 329.59,-105.56 317.44,-84.47"/>
<polygon fill="midnightblue" stroke="midnightblue" points="320.34,-82.49 312.2,-75.71 314.34,-86.09 320.34,-82.49"/>
</g>
<!-- Node8 -->
<g id="node8" class="node">
<title>Node8</title>
<g id="a_node8"><a xlink:href="fielddescriptionmessage__p_8h.html" target="_top" xlink:title=" ">
<polygon fill="none" stroke="black" points="163.5,-280.5 163.5,-299.5 319.5,-299.5 319.5,-280.5 163.5,-280.5"/>
<text text-anchor="middle" x="241.5" y="-287.5" font-family="Helvetica,sans-Serif" font-size="10.00">fielddescriptionmessage_p.h</text>
</a>
</g>
</g>
<!-- Node1&#45;&gt;Node8 -->
<g id="edge8" class="edge">
<title>Node1&#45;&gt;Node8</title>
<path fill="none" stroke="midnightblue" d="M285.75,-336.08C278.03,-328.22 266.6,-316.57 257.28,-307.08"/>
<polygon fill="midnightblue" stroke="midnightblue" points="259.59,-304.44 250.09,-299.75 254.6,-309.34 259.59,-304.44"/>
</g>
<!-- Node12 -->
<g id="node12" class="node">
<title>Node12</title>
<g id="a_node12"><a xlink:title=" ">
<polygon fill="none" stroke="#bfbfbf" points="376,-280.5 376,-299.5 437,-299.5 437,-280.5 376,-280.5"/>
<text text-anchor="middle" x="406.5" y="-287.5" font-family="Helvetica,sans-Serif" font-size="10.00">QtEndian</text>
</a>
</g>
</g>
<!-- Node1&#45;&gt;Node12 -->
<g id="edge16" class="edge">
<title>Node1&#45;&gt;Node12</title>
<path fill="none" stroke="midnightblue" d="M312.49,-336.32C330.54,-327.62 358.55,-314.12 379.3,-304.11"/>
<polygon fill="midnightblue" stroke="midnightblue" points="381.06,-307.15 388.55,-299.65 378.02,-300.84 381.06,-307.15"/>
</g>
<!-- Node3 -->
<g id="node3" class="node">
<title>Node3</title>
<g id="a_node3"><a xlink:href="fitdatamessage_8h.html" target="_top" xlink:title=" ">
<polygon fill="none" stroke="black" points="46,-168.5 46,-187.5 147,-187.5 147,-168.5 46,-168.5"/>
<text text-anchor="middle" x="96.5" y="-175.5" font-family="Helvetica,sans-Serif" font-size="10.00">fitdatamessage.h</text>
</a>
</g>
</g>
<!-- Node2&#45;&gt;Node3 -->
<g id="edge2" class="edge">
<title>Node2&#45;&gt;Node3</title>
<path fill="none" stroke="midnightblue" d="M74.38,-280.37C78.26,-262.62 87.19,-221.67 92.44,-197.6"/>
<polygon fill="midnightblue" stroke="midnightblue" points="95.91,-198.11 94.63,-187.59 89.07,-196.62 95.91,-198.11"/>
</g>
<!-- Node4 -->
<g id="node4" class="node">
<title>Node4</title>
<g id="a_node4"><a xlink:href="QtFit__global_8h.html" target="_top" xlink:title=" ">
<polygon fill="none" stroke="black" points="133.5,-56.5 133.5,-75.5 217.5,-75.5 217.5,-56.5 133.5,-56.5"/>
<text text-anchor="middle" x="175.5" y="-63.5" font-family="Helvetica,sans-Serif" font-size="10.00">QtFit_global.h</text>
</a>
</g>
</g>
<!-- Node3&#45;&gt;Node4 -->
<g id="edge3" class="edge">
<title>Node3&#45;&gt;Node4</title>
<path fill="none" stroke="midnightblue" d="M102.7,-168.37C115.74,-150.22 146.2,-107.8 163.3,-83.99"/>
<polygon fill="midnightblue" stroke="midnightblue" points="166.34,-85.76 169.33,-75.59 160.65,-81.67 166.34,-85.76"/>
</g>
<!-- Node6 -->
<g id="node6" class="node">
<title>Node6</title>
<g id="a_node6"><a xlink:href="types_8h.html" target="_top" xlink:title="Types defined by the ANT+ FIT SDK.">
<polygon fill="none" stroke="black" points="204,-112.5 204,-131.5 257,-131.5 257,-112.5 204,-112.5"/>
<text text-anchor="middle" x="230.5" y="-119.5" font-family="Helvetica,sans-Serif" font-size="10.00">types.h</text>
</a>
</g>
</g>
<!-- Node3&#45;&gt;Node6 -->
<g id="edge5" class="edge">
<title>Node3&#45;&gt;Node6</title>
<path fill="none" stroke="midnightblue" d="M117.73,-168.44C139.88,-159.52 174.82,-145.44 199.94,-135.32"/>
<polygon fill="midnightblue" stroke="midnightblue" points="201.4,-138.5 209.37,-131.52 198.78,-132.01 201.4,-138.5"/>
</g>
<!-- Node5 -->
<g id="node5" class="node">
<title>Node5</title>
<g id="a_node5"><a xlink:title=" ">
<polygon fill="none" stroke="#bfbfbf" points="146,-0.5 146,-19.5 205,-19.5 205,-0.5 146,-0.5"/>
<text text-anchor="middle" x="175.5" y="-7.5" font-family="Helvetica,sans-Serif" font-size="10.00">QtGlobal</text>
</a>
</g>
</g>
<!-- Node4&#45;&gt;Node5 -->
<g id="edge4" class="edge">
<title>Node4&#45;&gt;Node5</title>
<path fill="none" stroke="midnightblue" d="M175.5,-56.08C175.5,-49.01 175.5,-38.86 175.5,-29.99"/>
<polygon fill="midnightblue" stroke="midnightblue" points="179,-29.75 175.5,-19.75 172,-29.75 179,-29.75"/>
</g>
<!-- Node6&#45;&gt;Node4 -->
<g id="edge6" class="edge">
<title>Node6&#45;&gt;Node4</title>
<path fill="none" stroke="midnightblue" d="M221.42,-112.08C213.33,-104.14 201.3,-92.34 191.59,-82.8"/>
<polygon fill="midnightblue" stroke="midnightblue" points="194,-80.26 184.41,-75.75 189.1,-85.25 194,-80.26"/>
</g>
<!-- Node6&#45;&gt;Node7 -->
<g id="edge7" class="edge">
<title>Node6&#45;&gt;Node7</title>
<path fill="none" stroke="midnightblue" d="M242.71,-112.32C254.28,-104.11 271.88,-91.6 285.66,-81.81"/>
<polygon fill="midnightblue" stroke="midnightblue" points="287.94,-84.48 294.07,-75.83 283.89,-78.77 287.94,-84.48"/>
</g>
<!-- Node9 -->
<g id="node9" class="node">
<title>Node9</title>
<g id="a_node9"><a xlink:href="fitdatamessage__p_8h.html" target="_top" xlink:title=" ">
<polygon fill="none" stroke="black" points="178,-224.5 178,-243.5 291,-243.5 291,-224.5 178,-224.5"/>
<text text-anchor="middle" x="234.5" y="-231.5" font-family="Helvetica,sans-Serif" font-size="10.00">fitdatamessage_p.h</text>
</a>
</g>
</g>
<!-- Node8&#45;&gt;Node9 -->
<g id="edge9" class="edge">
<title>Node8&#45;&gt;Node9</title>
<path fill="none" stroke="midnightblue" d="M240.34,-280.08C239.42,-272.93 238.08,-262.64 236.92,-253.69"/>
<polygon fill="midnightblue" stroke="midnightblue" points="240.39,-253.22 235.63,-243.75 233.45,-254.12 240.39,-253.22"/>
</g>
<!-- Node9&#45;&gt;Node4 -->
<g id="edge10" class="edge">
<title>Node9&#45;&gt;Node4</title>
<path fill="none" stroke="midnightblue" d="M230.8,-224.45C223.4,-207.18 206.44,-166.78 194.5,-132 189.19,-116.54 184.04,-98.69 180.45,-85.62"/>
<polygon fill="midnightblue" stroke="midnightblue" points="183.81,-84.65 177.82,-75.91 177.06,-86.48 183.81,-84.65"/>
</g>
<!-- Node9&#45;&gt;Node6 -->
<g id="edge11" class="edge">
<title>Node9&#45;&gt;Node6</title>
<path fill="none" stroke="midnightblue" d="M234.19,-224.37C233.54,-206.62 232.05,-165.67 231.18,-141.6"/>
<polygon fill="midnightblue" stroke="midnightblue" points="234.67,-141.46 230.81,-131.59 227.68,-141.71 234.67,-141.46"/>
</g>
<!-- Node10 -->
<g id="node10" class="node">
<title>Node10</title>
<g id="a_node10"><a xlink:href="types__p_8h.html" target="_top" xlink:title=" ">
<polygon fill="none" stroke="black" points="255.5,-168.5 255.5,-187.5 319.5,-187.5 319.5,-168.5 255.5,-168.5"/>
<text text-anchor="middle" x="287.5" y="-175.5" font-family="Helvetica,sans-Serif" font-size="10.00">types_p.h</text>
</a>
</g>
</g>
<!-- Node9&#45;&gt;Node10 -->
<g id="edge12" class="edge">
<title>Node9&#45;&gt;Node10</title>
<path fill="none" stroke="midnightblue" d="M243.25,-224.08C250.97,-216.22 262.4,-204.57 271.72,-195.08"/>
<polygon fill="midnightblue" stroke="midnightblue" points="274.4,-197.34 278.91,-187.75 269.41,-192.44 274.4,-197.34"/>
</g>
<!-- Node10&#45;&gt;Node6 -->
<g id="edge13" class="edge">
<title>Node10&#45;&gt;Node6</title>
<path fill="none" stroke="midnightblue" d="M278.34,-168.32C270,-160.42 257.47,-148.55 247.32,-138.94"/>
<polygon fill="midnightblue" stroke="midnightblue" points="249.49,-136.17 239.82,-131.83 244.68,-141.25 249.49,-136.17"/>
</g>
<!-- Node11 -->
<g id="node11" class="node">
<title>Node11</title>
<g id="a_node11"><a xlink:title=" ">
<polygon fill="none" stroke="#bfbfbf" points="275,-112.5 275,-131.5 316,-131.5 316,-112.5 275,-112.5"/>
<text text-anchor="middle" x="295.5" y="-119.5" font-family="Helvetica,sans-Serif" font-size="10.00">QList</text>
</a>
</g>
</g>
<!-- Node10&#45;&gt;Node11 -->
<g id="edge14" class="edge">
<title>Node10&#45;&gt;Node11</title>
<path fill="none" stroke="midnightblue" d="M288.82,-168.08C289.88,-160.93 291.41,-150.64 292.73,-141.69"/>
<polygon fill="midnightblue" stroke="midnightblue" points="296.2,-142.16 294.2,-131.75 289.28,-141.13 296.2,-142.16"/>
</g>
</g>
</svg>
