<?xml version="1.0" encoding="UTF-8" standalone="no"?>
<!DOCTYPE svg PUBLIC "-//W3C//DTD SVG 1.1//EN"
 "http://www.w3.org/Graphics/SVG/1.1/DTD/svg11.dtd">
<!-- Generated by graphviz version 2.43.0 (0)
 -->
<!-- Title: fieldcapabilitiesmessage_p.h Pages: 1 -->
<svg width="182pt" height="308pt"
 viewBox="0.00 0.00 181.50 308.00" xmlns="http://www.w3.org/2000/svg" xmlns:xlink="http://www.w3.org/1999/xlink">
<g id="graph0" class="graph" transform="scale(1 1) rotate(0) translate(4 304)">
<title>fieldcapabilitiesmessage_p.h</title>
<!-- Node1 -->
<g id="node1" class="node">
<title>Node1</title>
<g id="a_node1"><a xlink:title=" ">
<polygon fill="#bfbfbf" stroke="black" points="0,-280.5 0,-299.5 158,-299.5 158,-280.5 0,-280.5"/>
<text text-anchor="middle" x="79" y="-287.5" font-family="Helvetica,sans-Serif" font-size="10.00">fieldcapabilitiesmessage_p.h</text>
</a>
</g>
</g>
<!-- Node2 -->
<g id="node2" class="node">
<title>Node2</title>
<g id="a_node2"><a xlink:href="fitdatamessage__p_8h.html" target="_top" xlink:title=" ">
<polygon fill="none" stroke="black" points="22.5,-224.5 22.5,-243.5 135.5,-243.5 135.5,-224.5 22.5,-224.5"/>
<text text-anchor="middle" x="79" y="-231.5" font-family="Helvetica,sans-Serif" font-size="10.00">fitdatamessage_p.h</text>
</a>
</g>
</g>
<!-- Node1&#45;&gt;Node2 -->
<g id="edge1" class="edge">
<title>Node1&#45;&gt;Node2</title>
<path fill="none" stroke="midnightblue" d="M79,-280.08C79,-273.01 79,-262.86 79,-253.99"/>
<polygon fill="midnightblue" stroke="midnightblue" points="82.5,-253.75 79,-243.75 75.5,-253.75 82.5,-253.75"/>
</g>
<!-- Node3 -->
<g id="node3" class="node">
<title>Node3</title>
<g id="a_node3"><a xlink:href="QtFit__global_8h.html" target="_top" xlink:title=" ">
<polygon fill="none" stroke="black" points="18,-56.5 18,-75.5 102,-75.5 102,-56.5 18,-56.5"/>
<text text-anchor="middle" x="60" y="-63.5" font-family="Helvetica,sans-Serif" font-size="10.00">QtFit_global.h</text>
</a>
</g>
</g>
<!-- Node2&#45;&gt;Node3 -->
<g id="edge2" class="edge">
<title>Node2&#45;&gt;Node3</title>
<path fill="none" stroke="midnightblue" d="M75.15,-224.32C66.82,-204.61 48.22,-154.88 52,-112 52.78,-103.2 54.39,-93.54 55.97,-85.43"/>
<polygon fill="midnightblue" stroke="midnightblue" points="59.41,-86.07 58.01,-75.57 52.56,-84.65 59.41,-86.07"/>
</g>
<!-- Node5 -->
<g id="node5" class="node">
<title>Node5</title>
<g id="a_node5"><a xlink:href="types_8h.html" target="_top" xlink:title="Types defined by the ANT+ FIT SDK.">
<polygon fill="none" stroke="black" points="61.5,-112.5 61.5,-131.5 114.5,-131.5 114.5,-112.5 61.5,-112.5"/>
<text text-anchor="middle" x="88" y="-119.5" font-family="Helvetica,sans-Serif" font-size="10.00">types.h</text>
</a>
</g>
</g>
<!-- Node2&#45;&gt;Node5 -->
<g id="edge4" class="edge">
<title>Node2&#45;&gt;Node5</title>
<path fill="none" stroke="midnightblue" d="M79.71,-224.37C81.16,-206.62 84.51,-165.67 86.48,-141.6"/>
<polygon fill="midnightblue" stroke="midnightblue" points="89.97,-141.84 87.3,-131.59 82.99,-141.27 89.97,-141.84"/>
</g>
<!-- Node6 -->
<g id="node6" class="node">
<title>Node6</title>
<g id="a_node6"><a xlink:href="types__p_8h.html" target="_top" xlink:title=" ">
<polygon fill="none" stroke="black" points="107,-168.5 107,-187.5 171,-187.5 171,-168.5 107,-168.5"/>
<text text-anchor="middle" x="139" y="-175.5" font-family="Helvetica,sans-Serif" font-size="10.00">types_p.h</text>
</a>
</g>
</g>
<!-- Node2&#45;&gt;Node6 -->
<g id="edge6" class="edge">
<title>Node2&#45;&gt;Node6</title>
<path fill="none" stroke="midnightblue" d="M88.64,-224.32C97.51,-216.34 110.87,-204.31 121.61,-194.65"/>
<polygon fill="midnightblue" stroke="midnightblue" points="124.09,-197.13 129.18,-187.83 119.41,-191.92 124.09,-197.13"/>
</g>
<!-- Node4 -->
<g id="node4" class="node">
<title>Node4</title>
<g id="a_node4"><a xlink:title=" ">
<polygon fill="none" stroke="#bfbfbf" points="30.5,-0.5 30.5,-19.5 89.5,-19.5 89.5,-0.5 30.5,-0.5"/>
<text text-anchor="middle" x="60" y="-7.5" font-family="Helvetica,sans-Serif" font-size="10.00">QtGlobal</text>
</a>
</g>
</g>
<!-- Node3&#45;&gt;Node4 -->
<g id="edge3" class="edge">
<title>Node3&#45;&gt;Node4</title>
<path fill="none" stroke="midnightblue" d="M60,-56.08C60,-49.01 60,-38.86 60,-29.99"/>
<polygon fill="midnightblue" stroke="midnightblue" points="63.5,-29.75 60,-19.75 56.5,-29.75 63.5,-29.75"/>
</g>
<!-- Node5&#45;&gt;Node3 -->
<g id="edge5" class="edge">
<title>Node5&#45;&gt;Node3</title>
<path fill="none" stroke="midnightblue" d="M83.38,-112.08C79.54,-104.69 73.98,-93.95 69.24,-84.81"/>
<polygon fill="midnightblue" stroke="midnightblue" points="72.25,-83.02 64.54,-75.75 66.03,-86.24 72.25,-83.02"/>
</g>
<!-- Node6&#45;&gt;Node5 -->
<g id="edge7" class="edge">
<title>Node6&#45;&gt;Node5</title>
<path fill="none" stroke="midnightblue" d="M130.58,-168.08C123.15,-160.22 112.15,-148.57 103.19,-139.08"/>
<polygon fill="midnightblue" stroke="midnightblue" points="105.68,-136.62 96.26,-131.75 100.59,-141.42 105.68,-136.62"/>
</g>
<!-- Node7 -->
<g id="node7" class="node">
<title>Node7</title>
<g id="a_node7"><a xlink:title=" ">
<polygon fill="none" stroke="#bfbfbf" points="132.5,-112.5 132.5,-131.5 173.5,-131.5 173.5,-112.5 132.5,-112.5"/>
<text text-anchor="middle" x="153" y="-119.5" font-family="Helvetica,sans-Serif" font-size="10.00">QList</text>
</a>
</g>
</g>
<!-- Node6&#45;&gt;Node7 -->
<g id="edge8" class="edge">
<title>Node6&#45;&gt;Node7</title>
<path fill="none" stroke="midnightblue" d="M141.31,-168.08C143.17,-160.93 145.84,-150.64 148.15,-141.69"/>
<polygon fill="midnightblue" stroke="midnightblue" points="151.61,-142.31 150.73,-131.75 144.83,-140.55 151.61,-142.31"/>
</g>
</g>
</svg>
