<?xml version="1.0" encoding="UTF-8" standalone="no"?>
<!DOCTYPE svg PUBLIC "-//W3C//DTD SVG 1.1//EN"
 "http://www.w3.org/Graphics/SVG/1.1/DTD/svg11.dtd">
<!-- Generated by graphviz version 2.43.0 (0)
 -->
<!-- Title: fileidmessage.cpp Pages: 1 -->
<svg width="251pt" height="364pt"
 viewBox="0.00 0.00 251.00 364.00" xmlns="http://www.w3.org/2000/svg" xmlns:xlink="http://www.w3.org/1999/xlink">
<g id="graph0" class="graph" transform="scale(1 1) rotate(0) translate(4 360)">
<title>fileidmessage.cpp</title>
<!-- Node1 -->
<g id="node1" class="node">
<title>Node1</title>
<g id="a_node1"><a xlink:title=" ">
<polygon fill="#bfbfbf" stroke="black" points="73,-336.5 73,-355.5 178,-355.5 178,-336.5 73,-336.5"/>
<text text-anchor="middle" x="125.5" y="-343.5" font-family="Helvetica,sans-Serif" font-size="10.00">fileidmessage.cpp</text>
</a>
</g>
</g>
<!-- Node2 -->
<g id="node2" class="node">
<title>Node2</title>
<g id="a_node2"><a xlink:href="fileidmessage_8h.html" target="_top" xlink:title=" ">
<polygon fill="none" stroke="black" points="142.5,-280.5 142.5,-299.5 236.5,-299.5 236.5,-280.5 142.5,-280.5"/>
<text text-anchor="middle" x="189.5" y="-287.5" font-family="Helvetica,sans-Serif" font-size="10.00">fileidmessage.h</text>
</a>
</g>
</g>
<!-- Node1&#45;&gt;Node2 -->
<g id="edge1" class="edge">
<title>Node1&#45;&gt;Node2</title>
<path fill="none" stroke="midnightblue" d="M135.78,-336.32C145.34,-328.26 159.78,-316.08 171.28,-306.37"/>
<polygon fill="midnightblue" stroke="midnightblue" points="173.64,-308.96 179.03,-299.83 169.13,-303.61 173.64,-308.96"/>
</g>
<!-- Node7 -->
<g id="node7" class="node">
<title>Node7</title>
<g id="a_node7"><a xlink:href="fileidmessage__p_8h.html" target="_top" xlink:title=" ">
<polygon fill="none" stroke="black" points="14,-280.5 14,-299.5 119,-299.5 119,-280.5 14,-280.5"/>
<text text-anchor="middle" x="66.5" y="-287.5" font-family="Helvetica,sans-Serif" font-size="10.00">fileidmessage_p.h</text>
</a>
</g>
</g>
<!-- Node1&#45;&gt;Node7 -->
<g id="edge7" class="edge">
<title>Node1&#45;&gt;Node7</title>
<path fill="none" stroke="midnightblue" d="M116.02,-336.32C107.3,-328.34 94.16,-316.31 83.6,-306.65"/>
<polygon fill="midnightblue" stroke="midnightblue" points="85.89,-304 76.15,-299.83 81.17,-309.17 85.89,-304"/>
</g>
<!-- Node3 -->
<g id="node3" class="node">
<title>Node3</title>
<g id="a_node3"><a xlink:href="fitdatamessage_8h.html" target="_top" xlink:title=" ">
<polygon fill="none" stroke="black" points="142,-168.5 142,-187.5 243,-187.5 243,-168.5 142,-168.5"/>
<text text-anchor="middle" x="192.5" y="-175.5" font-family="Helvetica,sans-Serif" font-size="10.00">fitdatamessage.h</text>
</a>
</g>
</g>
<!-- Node2&#45;&gt;Node3 -->
<g id="edge2" class="edge">
<title>Node2&#45;&gt;Node3</title>
<path fill="none" stroke="midnightblue" d="M189.74,-280.37C190.22,-262.62 191.34,-221.67 191.99,-197.6"/>
<polygon fill="midnightblue" stroke="midnightblue" points="195.49,-197.68 192.27,-187.59 188.49,-197.49 195.49,-197.68"/>
</g>
<!-- Node4 -->
<g id="node4" class="node">
<title>Node4</title>
<g id="a_node4"><a xlink:href="QtFit__global_8h.html" target="_top" xlink:title=" ">
<polygon fill="none" stroke="black" points="73.5,-56.5 73.5,-75.5 157.5,-75.5 157.5,-56.5 73.5,-56.5"/>
<text text-anchor="middle" x="115.5" y="-63.5" font-family="Helvetica,sans-Serif" font-size="10.00">QtFit_global.h</text>
</a>
</g>
</g>
<!-- Node3&#45;&gt;Node4 -->
<g id="edge3" class="edge">
<title>Node3&#45;&gt;Node4</title>
<path fill="none" stroke="midnightblue" d="M187.49,-168.39C180.04,-155.75 165.43,-131.56 151.5,-112 144.61,-102.32 136.36,-91.94 129.51,-83.59"/>
<polygon fill="midnightblue" stroke="midnightblue" points="132.06,-81.19 122.97,-75.74 126.68,-85.66 132.06,-81.19"/>
</g>
<!-- Node6 -->
<g id="node6" class="node">
<title>Node6</title>
<g id="a_node6"><a xlink:href="types_8h.html" target="_top" xlink:title="Types defined by the ANT+ FIT SDK.">
<polygon fill="none" stroke="black" points="89,-112.5 89,-131.5 142,-131.5 142,-112.5 89,-112.5"/>
<text text-anchor="middle" x="115.5" y="-119.5" font-family="Helvetica,sans-Serif" font-size="10.00">types.h</text>
</a>
</g>
</g>
<!-- Node3&#45;&gt;Node6 -->
<g id="edge5" class="edge">
<title>Node3&#45;&gt;Node6</title>
<path fill="none" stroke="midnightblue" d="M180.13,-168.32C168.34,-160.06 150.37,-147.45 136.36,-137.63"/>
<polygon fill="midnightblue" stroke="midnightblue" points="138.04,-134.53 127.84,-131.65 134.02,-140.26 138.04,-134.53"/>
</g>
<!-- Node5 -->
<g id="node5" class="node">
<title>Node5</title>
<g id="a_node5"><a xlink:title=" ">
<polygon fill="none" stroke="#bfbfbf" points="86,-0.5 86,-19.5 145,-19.5 145,-0.5 86,-0.5"/>
<text text-anchor="middle" x="115.5" y="-7.5" font-family="Helvetica,sans-Serif" font-size="10.00">QtGlobal</text>
</a>
</g>
</g>
<!-- Node4&#45;&gt;Node5 -->
<g id="edge4" class="edge">
<title>Node4&#45;&gt;Node5</title>
<path fill="none" stroke="midnightblue" d="M115.5,-56.08C115.5,-49.01 115.5,-38.86 115.5,-29.99"/>
<polygon fill="midnightblue" stroke="midnightblue" points="119,-29.75 115.5,-19.75 112,-29.75 119,-29.75"/>
</g>
<!-- Node6&#45;&gt;Node4 -->
<g id="edge6" class="edge">
<title>Node6&#45;&gt;Node4</title>
<path fill="none" stroke="midnightblue" d="M115.5,-112.08C115.5,-105.01 115.5,-94.86 115.5,-85.99"/>
<polygon fill="midnightblue" stroke="midnightblue" points="119,-85.75 115.5,-75.75 112,-85.75 119,-85.75"/>
</g>
<!-- Node8 -->
<g id="node8" class="node">
<title>Node8</title>
<g id="a_node8"><a xlink:href="fitdatamessage__p_8h.html" target="_top" xlink:title=" ">
<polygon fill="none" stroke="black" points="0,-224.5 0,-243.5 113,-243.5 113,-224.5 0,-224.5"/>
<text text-anchor="middle" x="56.5" y="-231.5" font-family="Helvetica,sans-Serif" font-size="10.00">fitdatamessage_p.h</text>
</a>
</g>
</g>
<!-- Node7&#45;&gt;Node8 -->
<g id="edge8" class="edge">
<title>Node7&#45;&gt;Node8</title>
<path fill="none" stroke="midnightblue" d="M64.85,-280.08C63.52,-272.93 61.62,-262.64 59.96,-253.69"/>
<polygon fill="midnightblue" stroke="midnightblue" points="63.38,-252.95 58.12,-243.75 56.5,-254.22 63.38,-252.95"/>
</g>
<!-- Node8&#45;&gt;Node4 -->
<g id="edge9" class="edge">
<title>Node8&#45;&gt;Node4</title>
<path fill="none" stroke="midnightblue" d="M43.72,-224.37C33.11,-216.36 18.77,-203.38 12.5,-188 5.15,-169.96 11.62,-124.04 20.5,-112 32.1,-96.26 50.64,-85.81 68.27,-78.98"/>
<polygon fill="midnightblue" stroke="midnightblue" points="69.67,-82.2 77.92,-75.55 67.32,-75.6 69.67,-82.2"/>
</g>
<!-- Node8&#45;&gt;Node6 -->
<g id="edge10" class="edge">
<title>Node8&#45;&gt;Node6</title>
<path fill="none" stroke="midnightblue" d="M65.49,-224.48C74.02,-215.96 86.66,-202.12 94.5,-188 102.6,-173.42 108.13,-155.24 111.48,-141.82"/>
<polygon fill="midnightblue" stroke="midnightblue" points="114.94,-142.38 113.79,-131.85 108.12,-140.81 114.94,-142.38"/>
</g>
<!-- Node9 -->
<g id="node9" class="node">
<title>Node9</title>
<g id="a_node9"><a xlink:href="types__p_8h.html" target="_top" xlink:title=" ">
<polygon fill="none" stroke="black" points="21.5,-168.5 21.5,-187.5 85.5,-187.5 85.5,-168.5 21.5,-168.5"/>
<text text-anchor="middle" x="53.5" y="-175.5" font-family="Helvetica,sans-Serif" font-size="10.00">types_p.h</text>
</a>
</g>
</g>
<!-- Node8&#45;&gt;Node9 -->
<g id="edge11" class="edge">
<title>Node8&#45;&gt;Node9</title>
<path fill="none" stroke="midnightblue" d="M56,-224.08C55.61,-217.01 55.05,-206.86 54.55,-197.99"/>
<polygon fill="midnightblue" stroke="midnightblue" points="58.04,-197.54 53.99,-187.75 51.05,-197.93 58.04,-197.54"/>
</g>
<!-- Node9&#45;&gt;Node6 -->
<g id="edge12" class="edge">
<title>Node9&#45;&gt;Node6</title>
<path fill="none" stroke="midnightblue" d="M63.46,-168.32C72.63,-160.34 86.44,-148.31 97.53,-138.65"/>
<polygon fill="midnightblue" stroke="midnightblue" points="100.12,-141.04 105.36,-131.83 95.52,-135.76 100.12,-141.04"/>
</g>
<!-- Node10 -->
<g id="node10" class="node">
<title>Node10</title>
<g id="a_node10"><a xlink:title=" ">
<polygon fill="none" stroke="#bfbfbf" points="30,-112.5 30,-131.5 71,-131.5 71,-112.5 30,-112.5"/>
<text text-anchor="middle" x="50.5" y="-119.5" font-family="Helvetica,sans-Serif" font-size="10.00">QList</text>
</a>
</g>
</g>
<!-- Node9&#45;&gt;Node10 -->
<g id="edge13" class="edge">
<title>Node9&#45;&gt;Node10</title>
<path fill="none" stroke="midnightblue" d="M53,-168.08C52.61,-161.01 52.05,-150.86 51.55,-141.99"/>
<polygon fill="midnightblue" stroke="midnightblue" points="55.04,-141.54 50.99,-131.75 48.05,-141.93 55.04,-141.54"/>
</g>
</g>
</svg>
