<?xml version="1.0" encoding="UTF-8" standalone="no"?>
<!DOCTYPE svg PUBLIC "-//W3C//DTD SVG 1.1//EN"
 "http://www.w3.org/Graphics/SVG/1.1/DTD/svg11.dtd">
<!-- Generated by graphviz version 2.43.0 (0)
 -->
<!-- Title: fitdatamessage.h Pages: 1 -->
<svg width="490pt" height="140pt"
 viewBox="0.00 0.00 490.00 140.00" xmlns="http://www.w3.org/2000/svg" xmlns:xlink="http://www.w3.org/1999/xlink">
<g id="graph0" class="graph" transform="scale(1 1) rotate(0) translate(4 136)">
<title>fitdatamessage.h</title>
<!-- Node1 -->
<g id="node1" class="node">
<title>Node1</title>
<g id="a_node1"><a xlink:title=" ">
<polygon fill="#bfbfbf" stroke="black" points="217,-112.5 217,-131.5 318,-131.5 318,-112.5 217,-112.5"/>
<text text-anchor="middle" x="267.5" y="-119.5" font-family="Helvetica,sans-Serif" font-size="10.00">fitdatamessage.h</text>
</a>
</g>
</g>
<!-- Node2 -->
<g id="node2" class="node">
<title>Node2</title>
<g id="a_node2"><a xlink:href="fileidmessage_8h.html" target="_top" xlink:title=" ">
<polygon fill="none" stroke="black" points="60.5,-56.5 60.5,-75.5 154.5,-75.5 154.5,-56.5 60.5,-56.5"/>
<text text-anchor="middle" x="107.5" y="-63.5" font-family="Helvetica,sans-Serif" font-size="10.00">fileidmessage.h</text>
</a>
</g>
</g>
<!-- Node1&#45;&gt;Node2 -->
<g id="edge1" class="edge">
<title>Node1&#45;&gt;Node2</title>
<path fill="none" stroke="midnightblue" d="M232.45,-109.17C202.33,-99 159.6,-84.59 132.73,-75.52"/>
<polygon fill="midnightblue" stroke="midnightblue" points="231.55,-112.56 242.15,-112.44 233.79,-105.93 231.55,-112.56"/>
</g>
<!-- Node4 -->
<g id="node4" class="node">
<title>Node4</title>
<g id="a_node4"><a xlink:href="fitdatamessages_8cpp.html" target="_top" xlink:title=" ">
<polygon fill="none" stroke="black" points="123.5,-0.5 123.5,-19.5 241.5,-19.5 241.5,-0.5 123.5,-0.5"/>
<text text-anchor="middle" x="182.5" y="-7.5" font-family="Helvetica,sans-Serif" font-size="10.00">fitdatamessages.cpp</text>
</a>
</g>
</g>
<!-- Node1&#45;&gt;Node4 -->
<g id="edge5" class="edge">
<title>Node1&#45;&gt;Node4</title>
<path fill="none" stroke="midnightblue" d="M239.51,-107.69C226.25,-100.09 211.24,-89.4 201.5,-76 188.92,-58.69 184.62,-33.14 183.19,-19.81"/>
<polygon fill="midnightblue" stroke="midnightblue" points="237.85,-110.77 248.31,-112.44 241.18,-104.61 237.85,-110.77"/>
</g>
<!-- Node5 -->
<g id="node5" class="node">
<title>Node5</title>
<g id="a_node5"><a xlink:href="fitdatamessage_8cpp.html" target="_top" xlink:title=" ">
<polygon fill="none" stroke="black" points="211,-56.5 211,-75.5 324,-75.5 324,-56.5 211,-56.5"/>
<text text-anchor="middle" x="267.5" y="-63.5" font-family="Helvetica,sans-Serif" font-size="10.00">fitdatamessage.cpp</text>
</a>
</g>
</g>
<!-- Node1&#45;&gt;Node5 -->
<g id="edge4" class="edge">
<title>Node1&#45;&gt;Node5</title>
<path fill="none" stroke="midnightblue" d="M267.5,-101.8C267.5,-92.91 267.5,-82.78 267.5,-75.75"/>
<polygon fill="midnightblue" stroke="midnightblue" points="264,-102.08 267.5,-112.08 271,-102.08 264,-102.08"/>
</g>
<!-- Node6 -->
<g id="node6" class="node">
<title>Node6</title>
<g id="a_node6"><a xlink:href="fitstreamreader_8cpp.html" target="_top" xlink:title=" ">
<polygon fill="none" stroke="black" points="335.5,-0.5 335.5,-19.5 447.5,-19.5 447.5,-0.5 335.5,-0.5"/>
<text text-anchor="middle" x="391.5" y="-7.5" font-family="Helvetica,sans-Serif" font-size="10.00">fitstreamreader.cpp</text>
</a>
</g>
</g>
<!-- Node1&#45;&gt;Node6 -->
<g id="edge6" class="edge">
<title>Node1&#45;&gt;Node6</title>
<path fill="none" stroke="midnightblue" d="M290.6,-106.86C303.46,-98.54 319.46,-87.43 332.5,-76 353.36,-57.72 374.38,-32.58 384.79,-19.57"/>
<polygon fill="midnightblue" stroke="midnightblue" points="288.45,-104.08 281.87,-112.39 292.19,-109.99 288.45,-104.08"/>
</g>
<!-- Node7 -->
<g id="node7" class="node">
<title>Node7</title>
<g id="a_node7"><a xlink:href="fitstreamreader_8h.html" target="_top" xlink:title=" ">
<polygon fill="none" stroke="black" points="381,-56.5 381,-75.5 482,-75.5 482,-56.5 381,-56.5"/>
<text text-anchor="middle" x="431.5" y="-63.5" font-family="Helvetica,sans-Serif" font-size="10.00">fitstreamreader.h</text>
</a>
</g>
</g>
<!-- Node1&#45;&gt;Node7 -->
<g id="edge7" class="edge">
<title>Node1&#45;&gt;Node7</title>
<path fill="none" stroke="midnightblue" d="M303.02,-109.3C333.92,-99.13 377.97,-84.62 405.64,-75.52"/>
<polygon fill="midnightblue" stroke="midnightblue" points="301.89,-105.99 293.49,-112.44 304.08,-112.64 301.89,-105.99"/>
</g>
<!-- Node3 -->
<g id="node3" class="node">
<title>Node3</title>
<g id="a_node3"><a xlink:href="fileidmessage_8cpp.html" target="_top" xlink:title=" ">
<polygon fill="none" stroke="black" points="0,-0.5 0,-19.5 105,-19.5 105,-0.5 0,-0.5"/>
<text text-anchor="middle" x="52.5" y="-7.5" font-family="Helvetica,sans-Serif" font-size="10.00">fileidmessage.cpp</text>
</a>
</g>
</g>
<!-- Node2&#45;&gt;Node3 -->
<g id="edge2" class="edge">
<title>Node2&#45;&gt;Node3</title>
<path fill="none" stroke="midnightblue" d="M91.21,-49C81.46,-39.43 69.45,-27.64 61.41,-19.75"/>
<polygon fill="midnightblue" stroke="midnightblue" points="88.83,-51.57 98.42,-56.08 93.73,-46.58 88.83,-51.57"/>
</g>
<!-- Node2&#45;&gt;Node4 -->
<g id="edge3" class="edge">
<title>Node2&#45;&gt;Node4</title>
<path fill="none" stroke="midnightblue" d="M127.81,-50.38C141.36,-40.62 158.74,-28.11 170.23,-19.83"/>
<polygon fill="midnightblue" stroke="midnightblue" points="125.62,-47.64 119.55,-56.32 129.71,-53.32 125.62,-47.64"/>
</g>
<!-- Node7&#45;&gt;Node6 -->
<g id="edge8" class="edge">
<title>Node7&#45;&gt;Node6</title>
<path fill="none" stroke="midnightblue" d="M418.8,-47.86C411.87,-38.5 403.59,-27.33 397.98,-19.75"/>
<polygon fill="midnightblue" stroke="midnightblue" points="416.13,-50.13 424.89,-56.08 421.75,-45.96 416.13,-50.13"/>
</g>
</g>
</svg>
