<?xml version="1.0" encoding="UTF-8" standalone="no"?>
<!DOCTYPE svg PUBLIC "-//W3C//DTD SVG 1.1//EN"
 "http://www.w3.org/Graphics/SVG/1.1/DTD/svg11.dtd">
<!-- Generated by graphviz version 2.43.0 (0)
 -->
<!-- Title: fitdatamessage.cpp Pages: 1 -->
<svg width="291pt" height="308pt"
 viewBox="0.00 0.00 290.50 308.00" xmlns="http://www.w3.org/2000/svg" xmlns:xlink="http://www.w3.org/1999/xlink">
<g id="graph0" class="graph" transform="scale(1 1) rotate(0) translate(4 304)">
<title>fitdatamessage.cpp</title>
<!-- Node1 -->
<g id="node1" class="node">
<title>Node1</title>
<g id="a_node1"><a xlink:title=" ">
<polygon fill="#bfbfbf" stroke="black" points="116,-280.5 116,-299.5 229,-299.5 229,-280.5 116,-280.5"/>
<text text-anchor="middle" x="172.5" y="-287.5" font-family="Helvetica,sans-Serif" font-size="10.00">fitdatamessage.cpp</text>
</a>
</g>
</g>
<!-- Node2 -->
<g id="node2" class="node">
<title>Node2</title>
<g id="a_node2"><a xlink:href="fitdatamessage_8h.html" target="_top" xlink:title=" ">
<polygon fill="none" stroke="black" points="0,-168.5 0,-187.5 101,-187.5 101,-168.5 0,-168.5"/>
<text text-anchor="middle" x="50.5" y="-175.5" font-family="Helvetica,sans-Serif" font-size="10.00">fitdatamessage.h</text>
</a>
</g>
</g>
<!-- Node1&#45;&gt;Node2 -->
<g id="edge1" class="edge">
<title>Node1&#45;&gt;Node2</title>
<path fill="none" stroke="midnightblue" d="M157.54,-280.36C143.61,-271.97 122.64,-258.41 106.5,-244 89.91,-229.19 73.63,-209.54 62.93,-195.74"/>
<polygon fill="midnightblue" stroke="midnightblue" points="65.6,-193.47 56.76,-187.63 60.03,-197.71 65.6,-193.47"/>
</g>
<!-- Node6 -->
<g id="node6" class="node">
<title>Node6</title>
<g id="a_node6"><a xlink:title=" ">
<polygon fill="none" stroke="#bfbfbf" points="226.5,-56.5 226.5,-75.5 282.5,-75.5 282.5,-56.5 226.5,-56.5"/>
<text text-anchor="middle" x="254.5" y="-63.5" font-family="Helvetica,sans-Serif" font-size="10.00">QDebug</text>
</a>
</g>
</g>
<!-- Node1&#45;&gt;Node6 -->
<g id="edge13" class="edge">
<title>Node1&#45;&gt;Node6</title>
<path fill="none" stroke="midnightblue" d="M188.82,-280.44C203.09,-272.38 223.8,-259.3 238.5,-244 258.84,-222.84 264.66,-215.99 273.5,-188 283.69,-155.77 284.12,-144.93 276.5,-112 274.27,-102.36 269.68,-92.41 265.26,-84.31"/>
<polygon fill="midnightblue" stroke="midnightblue" points="268.2,-82.4 260.14,-75.52 262.15,-85.92 268.2,-82.4"/>
</g>
<!-- Node7 -->
<g id="node7" class="node">
<title>Node7</title>
<g id="a_node7"><a xlink:href="fitdatamessage__p_8h.html" target="_top" xlink:title=" ">
<polygon fill="none" stroke="black" points="116,-224.5 116,-243.5 229,-243.5 229,-224.5 116,-224.5"/>
<text text-anchor="middle" x="172.5" y="-231.5" font-family="Helvetica,sans-Serif" font-size="10.00">fitdatamessage_p.h</text>
</a>
</g>
</g>
<!-- Node1&#45;&gt;Node7 -->
<g id="edge7" class="edge">
<title>Node1&#45;&gt;Node7</title>
<path fill="none" stroke="midnightblue" d="M172.5,-280.08C172.5,-273.01 172.5,-262.86 172.5,-253.99"/>
<polygon fill="midnightblue" stroke="midnightblue" points="176,-253.75 172.5,-243.75 169,-253.75 176,-253.75"/>
</g>
<!-- Node3 -->
<g id="node3" class="node">
<title>Node3</title>
<g id="a_node3"><a xlink:href="QtFit__global_8h.html" target="_top" xlink:title=" ">
<polygon fill="none" stroke="black" points="84.5,-56.5 84.5,-75.5 168.5,-75.5 168.5,-56.5 84.5,-56.5"/>
<text text-anchor="middle" x="126.5" y="-63.5" font-family="Helvetica,sans-Serif" font-size="10.00">QtFit_global.h</text>
</a>
</g>
</g>
<!-- Node2&#45;&gt;Node3 -->
<g id="edge2" class="edge">
<title>Node2&#45;&gt;Node3</title>
<path fill="none" stroke="midnightblue" d="M56.46,-168.37C69.01,-150.22 98.31,-107.8 114.76,-83.99"/>
<polygon fill="midnightblue" stroke="midnightblue" points="117.76,-85.81 120.56,-75.59 112,-81.83 117.76,-85.81"/>
</g>
<!-- Node5 -->
<g id="node5" class="node">
<title>Node5</title>
<g id="a_node5"><a xlink:href="types_8h.html" target="_top" xlink:title="Types defined by the ANT+ FIT SDK.">
<polygon fill="none" stroke="black" points="155,-112.5 155,-131.5 208,-131.5 208,-112.5 155,-112.5"/>
<text text-anchor="middle" x="181.5" y="-119.5" font-family="Helvetica,sans-Serif" font-size="10.00">types.h</text>
</a>
</g>
</g>
<!-- Node2&#45;&gt;Node5 -->
<g id="edge4" class="edge">
<title>Node2&#45;&gt;Node5</title>
<path fill="none" stroke="midnightblue" d="M71.26,-168.44C92.82,-159.56 126.76,-145.56 151.29,-135.45"/>
<polygon fill="midnightblue" stroke="midnightblue" points="152.93,-138.56 160.84,-131.52 150.26,-132.09 152.93,-138.56"/>
</g>
<!-- Node4 -->
<g id="node4" class="node">
<title>Node4</title>
<g id="a_node4"><a xlink:title=" ">
<polygon fill="none" stroke="#bfbfbf" points="97,-0.5 97,-19.5 156,-19.5 156,-0.5 97,-0.5"/>
<text text-anchor="middle" x="126.5" y="-7.5" font-family="Helvetica,sans-Serif" font-size="10.00">QtGlobal</text>
</a>
</g>
</g>
<!-- Node3&#45;&gt;Node4 -->
<g id="edge3" class="edge">
<title>Node3&#45;&gt;Node4</title>
<path fill="none" stroke="midnightblue" d="M126.5,-56.08C126.5,-49.01 126.5,-38.86 126.5,-29.99"/>
<polygon fill="midnightblue" stroke="midnightblue" points="130,-29.75 126.5,-19.75 123,-29.75 130,-29.75"/>
</g>
<!-- Node5&#45;&gt;Node3 -->
<g id="edge5" class="edge">
<title>Node5&#45;&gt;Node3</title>
<path fill="none" stroke="midnightblue" d="M172.42,-112.08C164.33,-104.14 152.3,-92.34 142.59,-82.8"/>
<polygon fill="midnightblue" stroke="midnightblue" points="145,-80.26 135.41,-75.75 140.1,-85.25 145,-80.26"/>
</g>
<!-- Node5&#45;&gt;Node6 -->
<g id="edge6" class="edge">
<title>Node5&#45;&gt;Node6</title>
<path fill="none" stroke="midnightblue" d="M193.23,-112.32C204.34,-104.11 221.24,-91.6 234.48,-81.81"/>
<polygon fill="midnightblue" stroke="midnightblue" points="236.6,-84.59 242.56,-75.83 232.44,-78.97 236.6,-84.59"/>
</g>
<!-- Node7&#45;&gt;Node3 -->
<g id="edge8" class="edge">
<title>Node7&#45;&gt;Node3</title>
<path fill="none" stroke="midnightblue" d="M170.03,-224.08C162.79,-197.95 141.52,-121.21 131.65,-85.58"/>
<polygon fill="midnightblue" stroke="midnightblue" points="134.92,-84.27 128.87,-75.57 128.17,-86.14 134.92,-84.27"/>
</g>
<!-- Node7&#45;&gt;Node5 -->
<g id="edge9" class="edge">
<title>Node7&#45;&gt;Node5</title>
<path fill="none" stroke="midnightblue" d="M173.21,-224.37C174.66,-206.62 178.01,-165.67 179.98,-141.6"/>
<polygon fill="midnightblue" stroke="midnightblue" points="183.47,-141.84 180.8,-131.59 176.49,-141.27 183.47,-141.84"/>
</g>
<!-- Node8 -->
<g id="node8" class="node">
<title>Node8</title>
<g id="a_node8"><a xlink:href="types__p_8h.html" target="_top" xlink:title=" ">
<polygon fill="none" stroke="black" points="200.5,-168.5 200.5,-187.5 264.5,-187.5 264.5,-168.5 200.5,-168.5"/>
<text text-anchor="middle" x="232.5" y="-175.5" font-family="Helvetica,sans-Serif" font-size="10.00">types_p.h</text>
</a>
</g>
</g>
<!-- Node7&#45;&gt;Node8 -->
<g id="edge10" class="edge">
<title>Node7&#45;&gt;Node8</title>
<path fill="none" stroke="midnightblue" d="M182.14,-224.32C191.01,-216.34 204.37,-204.31 215.11,-194.65"/>
<polygon fill="midnightblue" stroke="midnightblue" points="217.59,-197.13 222.68,-187.83 212.91,-191.92 217.59,-197.13"/>
</g>
<!-- Node8&#45;&gt;Node5 -->
<g id="edge11" class="edge">
<title>Node8&#45;&gt;Node5</title>
<path fill="none" stroke="midnightblue" d="M224.08,-168.08C216.65,-160.22 205.65,-148.57 196.69,-139.08"/>
<polygon fill="midnightblue" stroke="midnightblue" points="199.18,-136.62 189.76,-131.75 194.09,-141.42 199.18,-136.62"/>
</g>
<!-- Node9 -->
<g id="node9" class="node">
<title>Node9</title>
<g id="a_node9"><a xlink:title=" ">
<polygon fill="none" stroke="#bfbfbf" points="226,-112.5 226,-131.5 267,-131.5 267,-112.5 226,-112.5"/>
<text text-anchor="middle" x="246.5" y="-119.5" font-family="Helvetica,sans-Serif" font-size="10.00">QList</text>
</a>
</g>
</g>
<!-- Node8&#45;&gt;Node9 -->
<g id="edge12" class="edge">
<title>Node8&#45;&gt;Node9</title>
<path fill="none" stroke="midnightblue" d="M234.81,-168.08C236.67,-160.93 239.34,-150.64 241.65,-141.69"/>
<polygon fill="midnightblue" stroke="midnightblue" points="245.11,-142.31 244.23,-131.75 238.33,-140.55 245.11,-142.31"/>
</g>
</g>
</svg>
