<?xml version="1.0" encoding="UTF-8" standalone="no"?>
<!DOCTYPE svg PUBLIC "-//W3C//DTD SVG 1.1//EN"
 "http://www.w3.org/Graphics/SVG/1.1/DTD/svg11.dtd">
<!-- Generated by graphviz version 2.43.0 (0)
 -->
<!-- Title: verifyDataSieze Pages: 1 -->
<svg width="494pt" height="2332pt"
 viewBox="0.00 0.00 494.00 2332.00" xmlns="http://www.w3.org/2000/svg" xmlns:xlink="http://www.w3.org/1999/xlink">
<g id="graph0" class="graph" transform="scale(1 1) rotate(0) translate(4 2328)">
<title>verifyDataSieze</title>
<!-- Node1 -->
<g id="node1" class="node">
<title>Node1</title>
<g id="a_node1"><a xlink:title=" ">
<polygon fill="#bfbfbf" stroke="black" points="392,-1147 392,-1166 486,-1166 486,-1147 392,-1147"/>
<text text-anchor="middle" x="439" y="-1154" font-family="Helvetica,sans-Serif" font-size="10.00">verifyDataSieze</text>
</a>
</g>
</g>
<!-- Node2 -->
<g id="node2" class="node">
<title>Node2</title>
<g id="a_node2"><a xlink:href="classFitDataMessagePrivate.html#a4a9a5ee83dbe87dcc25f3fc5f50f2284" target="_top" xlink:title=" ">
<polygon fill="none" stroke="red" points="226,-1141.5 226,-1171.5 356,-1171.5 356,-1141.5 226,-1141.5"/>
<text text-anchor="start" x="234" y="-1159.5" font-family="Helvetica,sans-Serif" font-size="10.00">FitDataMessagePrivate</text>
<text text-anchor="middle" x="291" y="-1148.5" font-family="Helvetica,sans-Serif" font-size="10.00">::verify</text>
</a>
</g>
</g>
<!-- Node1&#45;&gt;Node2 -->
<g id="edge1" class="edge">
<title>Node1&#45;&gt;Node2</title>
<path fill="none" stroke="midnightblue" d="M381.73,-1156.5C373.32,-1156.5 364.6,-1156.5 356.04,-1156.5"/>
<polygon fill="midnightblue" stroke="midnightblue" points="381.8,-1160 391.8,-1156.5 381.8,-1153 381.8,-1160"/>
</g>
<!-- Node3 -->
<g id="node3" class="node">
<title>Node3</title>
<g id="a_node3"><a xlink:href="classAccelerometerDataMessagePrivate.html#a66905505d2bc981a69a4e3d2610c920c" target="_top" xlink:title=" ">
<polygon fill="none" stroke="black" points="17.5,-2293.5 17.5,-2323.5 172.5,-2323.5 172.5,-2293.5 17.5,-2293.5"/>
<text text-anchor="start" x="25.5" y="-2311.5" font-family="Helvetica,sans-Serif" font-size="10.00">AccelerometerDataMessage</text>
<text text-anchor="middle" x="95" y="-2300.5" font-family="Helvetica,sans-Serif" font-size="10.00">Private::setField</text>
</a>
</g>
</g>
<!-- Node2&#45;&gt;Node3 -->
<g id="edge2" class="edge">
<title>Node2&#45;&gt;Node3</title>
<path fill="none" stroke="midnightblue" d="M289.48,-1181.73C286.01,-1340.49 263.92,-2197.56 190,-2284.5 185.2,-2290.15 179.27,-2294.56 172.75,-2298"/>
<polygon fill="midnightblue" stroke="midnightblue" points="292.99,-1181.6 289.7,-1171.52 285.99,-1181.45 292.99,-1181.6"/>
</g>
<!-- Node4 -->
<g id="node4" class="node">
<title>Node4</title>
<g id="a_node4"><a xlink:href="classActivityMessagePrivate.html#a01add89d24c11d195d41af8f93502547" target="_top" xlink:title=" ">
<polygon fill="none" stroke="black" points="29,-2244.5 29,-2274.5 161,-2274.5 161,-2244.5 29,-2244.5"/>
<text text-anchor="start" x="37" y="-2262.5" font-family="Helvetica,sans-Serif" font-size="10.00">ActivityMessagePrivate</text>
<text text-anchor="middle" x="95" y="-2251.5" font-family="Helvetica,sans-Serif" font-size="10.00">::setField</text>
</a>
</g>
</g>
<!-- Node2&#45;&gt;Node4 -->
<g id="edge3" class="edge">
<title>Node2&#45;&gt;Node4</title>
<path fill="none" stroke="midnightblue" d="M289.37,-1182.07C285.3,-1337.59 260.68,-2152.71 190,-2235.5 182.45,-2244.34 172.15,-2250.16 161.12,-2253.94"/>
<polygon fill="midnightblue" stroke="midnightblue" points="292.88,-1181.74 289.64,-1171.65 285.88,-1181.56 292.88,-1181.74"/>
</g>
<!-- Node5 -->
<g id="node5" class="node">
<title>Node5</title>
<g id="a_node5"><a xlink:href="classAntChannelIdMessagePrivate.html#a8ff077987f68a986d0d9ae30065a4bf6" target="_top" xlink:title=" ">
<polygon fill="none" stroke="black" points="15,-2195.5 15,-2225.5 175,-2225.5 175,-2195.5 15,-2195.5"/>
<text text-anchor="start" x="23" y="-2213.5" font-family="Helvetica,sans-Serif" font-size="10.00">AntChannelIdMessagePrivate</text>
<text text-anchor="middle" x="95" y="-2202.5" font-family="Helvetica,sans-Serif" font-size="10.00">::setField</text>
</a>
</g>
</g>
<!-- Node2&#45;&gt;Node5 -->
<g id="edge4" class="edge">
<title>Node2&#45;&gt;Node5</title>
<path fill="none" stroke="midnightblue" d="M289.26,-1181.86C284.61,-1332.67 257.53,-2107.75 190,-2186.5 185.83,-2191.36 180.83,-2195.3 175.34,-2198.5"/>
<polygon fill="midnightblue" stroke="midnightblue" points="292.76,-1181.83 289.56,-1171.73 285.76,-1181.62 292.76,-1181.83"/>
</g>
<!-- Node6 -->
<g id="node6" class="node">
<title>Node6</title>
<g id="a_node6"><a xlink:href="classAntRxMessagePrivate.html#a1a7aaffaaa62687c4456afe6dd3d2d2f" target="_top" xlink:title=" ">
<polygon fill="none" stroke="black" points="33,-2146.5 33,-2176.5 157,-2176.5 157,-2146.5 33,-2146.5"/>
<text text-anchor="start" x="41" y="-2164.5" font-family="Helvetica,sans-Serif" font-size="10.00">AntRxMessagePrivate</text>
<text text-anchor="middle" x="95" y="-2153.5" font-family="Helvetica,sans-Serif" font-size="10.00">::setField</text>
</a>
</g>
</g>
<!-- Node2&#45;&gt;Node6 -->
<g id="edge5" class="edge">
<title>Node2&#45;&gt;Node6</title>
<path fill="none" stroke="midnightblue" d="M289.12,-1182.01C283.84,-1328.9 254.32,-2062.84 190,-2137.5 181.53,-2147.33 169.66,-2153.41 157.19,-2157.12"/>
<polygon fill="midnightblue" stroke="midnightblue" points="292.63,-1181.87 289.48,-1171.75 285.63,-1181.62 292.63,-1181.87"/>
</g>
<!-- Node7 -->
<g id="node7" class="node">
<title>Node7</title>
<g id="a_node7"><a xlink:href="classAntTxMessagePrivate.html#a28a7dcb5c25cb0c9e15dedce628a5390" target="_top" xlink:title=" ">
<polygon fill="none" stroke="black" points="33.5,-2097.5 33.5,-2127.5 156.5,-2127.5 156.5,-2097.5 33.5,-2097.5"/>
<text text-anchor="start" x="41.5" y="-2115.5" font-family="Helvetica,sans-Serif" font-size="10.00">AntTxMessagePrivate</text>
<text text-anchor="middle" x="95" y="-2104.5" font-family="Helvetica,sans-Serif" font-size="10.00">::setField</text>
</a>
</g>
</g>
<!-- Node2&#45;&gt;Node7 -->
<g id="edge6" class="edge">
<title>Node2&#45;&gt;Node7</title>
<path fill="none" stroke="midnightblue" d="M288.98,-1182.06C283.03,-1324.65 251.14,-2017.92 190,-2088.5 181.4,-2098.43 169.31,-2104.54 156.66,-2108.23"/>
<polygon fill="midnightblue" stroke="midnightblue" points="292.49,-1181.85 289.4,-1171.71 285.49,-1181.56 292.49,-1181.85"/>
</g>
<!-- Node8 -->
<g id="node8" class="node">
<title>Node8</title>
<g id="a_node8"><a xlink:href="classAviationAttitudeMessagePrivate.html#a836b3a6541343c4758e16016b4f140b2" target="_top" xlink:title=" ">
<polygon fill="none" stroke="black" points="8.5,-2048.5 8.5,-2078.5 181.5,-2078.5 181.5,-2048.5 8.5,-2048.5"/>
<text text-anchor="start" x="16.5" y="-2066.5" font-family="Helvetica,sans-Serif" font-size="10.00">AviationAttitudeMessagePrivate</text>
<text text-anchor="middle" x="95" y="-2055.5" font-family="Helvetica,sans-Serif" font-size="10.00">::setField</text>
</a>
</g>
</g>
<!-- Node2&#45;&gt;Node8 -->
<g id="edge7" class="edge">
<title>Node2&#45;&gt;Node8</title>
<path fill="none" stroke="midnightblue" d="M288.82,-1182C282.2,-1319.93 247.98,-1972.96 190,-2039.5 187.01,-2042.93 183.61,-2045.9 179.91,-2048.47"/>
<polygon fill="midnightblue" stroke="midnightblue" points="292.33,-1181.77 289.31,-1171.61 285.34,-1181.44 292.33,-1181.77"/>
</g>
<!-- Node9 -->
<g id="node9" class="node">
<title>Node9</title>
<g id="a_node9"><a xlink:href="classBarometerDataMessagePrivate.html#a5687196ab44d7ac66881de92173fd399" target="_top" xlink:title=" ">
<polygon fill="none" stroke="black" points="10,-1999.5 10,-2029.5 180,-2029.5 180,-1999.5 10,-1999.5"/>
<text text-anchor="start" x="18" y="-2017.5" font-family="Helvetica,sans-Serif" font-size="10.00">BarometerDataMessagePrivate</text>
<text text-anchor="middle" x="95" y="-2006.5" font-family="Helvetica,sans-Serif" font-size="10.00">::setField</text>
</a>
</g>
</g>
<!-- Node2&#45;&gt;Node9 -->
<g id="edge8" class="edge">
<title>Node2&#45;&gt;Node9</title>
<path fill="none" stroke="midnightblue" d="M288.65,-1181.85C281.34,-1314.82 244.84,-1927.99 190,-1990.5 187,-1993.92 183.59,-1996.88 179.88,-1999.45"/>
<polygon fill="midnightblue" stroke="midnightblue" points="292.15,-1181.97 289.2,-1171.8 285.16,-1181.59 292.15,-1181.97"/>
</g>
<!-- Node10 -->
<g id="node10" class="node">
<title>Node10</title>
<g id="a_node10"><a xlink:href="classBikeProfileMessagePrivate.html#ad34ac1f2c7a31b62f55d56e1ff353c32" target="_top" xlink:title=" ">
<polygon fill="none" stroke="black" points="22,-1950.5 22,-1980.5 168,-1980.5 168,-1950.5 22,-1950.5"/>
<text text-anchor="start" x="30" y="-1968.5" font-family="Helvetica,sans-Serif" font-size="10.00">BikeProfileMessagePrivate</text>
<text text-anchor="middle" x="95" y="-1957.5" font-family="Helvetica,sans-Serif" font-size="10.00">::setField</text>
</a>
</g>
</g>
<!-- Node2&#45;&gt;Node10 -->
<g id="edge9" class="edge">
<title>Node2&#45;&gt;Node10</title>
<path fill="none" stroke="midnightblue" d="M290.44,-1182C292.03,-1303.81 292.67,-1825.32 190,-1941.5 184.09,-1948.19 176.6,-1953.14 168.43,-1956.78"/>
<polygon fill="midnightblue" stroke="midnightblue" points="293.94,-1181.73 290.3,-1171.78 286.94,-1181.83 293.94,-1181.73"/>
</g>
<!-- Node11 -->
<g id="node11" class="node">
<title>Node11</title>
<g id="a_node11"><a xlink:href="classBloodPressureMessagePrivate.html#a6730e1917c43f59a11b38ecd3940b7de" target="_top" xlink:title=" ">
<polygon fill="none" stroke="black" points="13,-1901.5 13,-1931.5 177,-1931.5 177,-1901.5 13,-1901.5"/>
<text text-anchor="start" x="21" y="-1919.5" font-family="Helvetica,sans-Serif" font-size="10.00">BloodPressureMessagePrivate</text>
<text text-anchor="middle" x="95" y="-1908.5" font-family="Helvetica,sans-Serif" font-size="10.00">::setField</text>
</a>
</g>
</g>
<!-- Node2&#45;&gt;Node11 -->
<g id="edge10" class="edge">
<title>Node2&#45;&gt;Node11</title>
<path fill="none" stroke="midnightblue" d="M290.2,-1181.89C290.61,-1298.81 286.41,-1784.32 190,-1892.5 186.3,-1896.65 182,-1900.13 177.3,-1903.04"/>
<polygon fill="midnightblue" stroke="midnightblue" points="293.7,-1181.73 290.15,-1171.75 286.7,-1181.77 293.7,-1181.73"/>
</g>
<!-- Node12 -->
<g id="node12" class="node">
<title>Node12</title>
<g id="a_node12"><a xlink:href="classCadenceZoneMessagePrivate.html#a7b142eddc5a2f475f69e991616cc001b" target="_top" xlink:title=" ">
<polygon fill="none" stroke="black" points="14.5,-1852.5 14.5,-1882.5 175.5,-1882.5 175.5,-1852.5 14.5,-1852.5"/>
<text text-anchor="start" x="22.5" y="-1870.5" font-family="Helvetica,sans-Serif" font-size="10.00">CadenceZoneMessagePrivate</text>
<text text-anchor="middle" x="95" y="-1859.5" font-family="Helvetica,sans-Serif" font-size="10.00">::setField</text>
</a>
</g>
</g>
<!-- Node2&#45;&gt;Node12 -->
<g id="edge11" class="edge">
<title>Node2&#45;&gt;Node12</title>
<path fill="none" stroke="midnightblue" d="M289.93,-1181.62C289.12,-1293.24 280.21,-1743.24 190,-1843.5 185.83,-1848.13 180.9,-1851.93 175.53,-1855.03"/>
<polygon fill="midnightblue" stroke="midnightblue" points="293.43,-1181.64 289.99,-1171.62 286.43,-1181.6 293.43,-1181.64"/>
</g>
<!-- Node13 -->
<g id="node13" class="node">
<title>Node13</title>
<g id="a_node13"><a xlink:href="classCameraEventMessagePrivate.html#a606b0beba8874fd5d6219856873a1560" target="_top" xlink:title=" ">
<polygon fill="none" stroke="black" points="14.5,-1803.5 14.5,-1833.5 175.5,-1833.5 175.5,-1803.5 14.5,-1803.5"/>
<text text-anchor="start" x="22.5" y="-1821.5" font-family="Helvetica,sans-Serif" font-size="10.00">CameraEventMessagePrivate</text>
<text text-anchor="middle" x="95" y="-1810.5" font-family="Helvetica,sans-Serif" font-size="10.00">::setField</text>
</a>
</g>
</g>
<!-- Node2&#45;&gt;Node13 -->
<g id="edge12" class="edge">
<title>Node2&#45;&gt;Node13</title>
<path fill="none" stroke="midnightblue" d="M289.62,-1181.85C287.49,-1288.85 273.89,-1702.29 190,-1794.5 185.92,-1798.99 181.13,-1802.68 175.91,-1805.73"/>
<polygon fill="midnightblue" stroke="midnightblue" points="293.12,-1181.73 289.8,-1171.67 286.12,-1181.6 293.12,-1181.73"/>
</g>
<!-- Node14 -->
<g id="node14" class="node">
<title>Node14</title>
<g id="a_node14"><a xlink:href="classCapabilitiesMessagePrivate.html#a89ed724524002d380e0276315f495158" target="_top" xlink:title=" ">
<polygon fill="none" stroke="black" points="19,-1754.5 19,-1784.5 171,-1784.5 171,-1754.5 19,-1754.5"/>
<text text-anchor="start" x="27" y="-1772.5" font-family="Helvetica,sans-Serif" font-size="10.00">CapabilitiesMessagePrivate</text>
<text text-anchor="middle" x="95" y="-1761.5" font-family="Helvetica,sans-Serif" font-size="10.00">::setField</text>
</a>
</g>
</g>
<!-- Node2&#45;&gt;Node14 -->
<g id="edge13" class="edge">
<title>Node2&#45;&gt;Node14</title>
<path fill="none" stroke="midnightblue" d="M289.26,-1181.84C285.76,-1283.61 267.65,-1661.22 190,-1745.5 184.75,-1751.2 178.35,-1755.62 171.39,-1759.05"/>
<polygon fill="midnightblue" stroke="midnightblue" points="292.76,-1181.69 289.59,-1171.59 285.77,-1181.47 292.76,-1181.69"/>
</g>
<!-- Node15 -->
<g id="node15" class="node">
<title>Node15</title>
<g id="a_node15"><a xlink:href="classClimbProMessagePrivate.html#a41e76a07b6cfd468a29b90ddd09207f3" target="_top" xlink:title=" ">
<polygon fill="none" stroke="black" points="25.5,-1705.5 25.5,-1735.5 164.5,-1735.5 164.5,-1705.5 25.5,-1705.5"/>
<text text-anchor="start" x="33.5" y="-1723.5" font-family="Helvetica,sans-Serif" font-size="10.00">ClimbProMessagePrivate</text>
<text text-anchor="middle" x="95" y="-1712.5" font-family="Helvetica,sans-Serif" font-size="10.00">::setField</text>
</a>
</g>
</g>
<!-- Node2&#45;&gt;Node15 -->
<g id="edge14" class="edge">
<title>Node2&#45;&gt;Node15</title>
<path fill="none" stroke="midnightblue" d="M288.83,-1181.88C283.86,-1278.29 261.42,-1620.14 190,-1696.5 183.1,-1703.88 174.27,-1709.12 164.79,-1712.82"/>
<polygon fill="midnightblue" stroke="midnightblue" points="292.34,-1181.78 289.34,-1171.62 285.35,-1181.43 292.34,-1181.78"/>
</g>
<!-- Node16 -->
<g id="node16" class="node">
<title>Node16</title>
<g id="a_node16"><a xlink:href="classConnectivityMessagePrivate.html#a52522eb607495357786e6cdd68c28b86" target="_top" xlink:title=" ">
<polygon fill="none" stroke="black" points="17,-1656.5 17,-1686.5 173,-1686.5 173,-1656.5 17,-1656.5"/>
<text text-anchor="start" x="25" y="-1674.5" font-family="Helvetica,sans-Serif" font-size="10.00">ConnectivityMessagePrivate</text>
<text text-anchor="middle" x="95" y="-1663.5" font-family="Helvetica,sans-Serif" font-size="10.00">::setField</text>
</a>
</g>
</g>
<!-- Node2&#45;&gt;Node16 -->
<g id="edge15" class="edge">
<title>Node2&#45;&gt;Node16</title>
<path fill="none" stroke="midnightblue" d="M288.32,-1181.91C281.79,-1272.66 255.21,-1579.01 190,-1647.5 185.12,-1652.62 179.31,-1656.71 173.01,-1659.97"/>
<polygon fill="midnightblue" stroke="midnightblue" points="291.82,-1181.93 289.03,-1171.71 284.84,-1181.45 291.82,-1181.93"/>
</g>
<!-- Node17 -->
<g id="node17" class="node">
<title>Node17</title>
<g id="a_node17"><a xlink:href="classCourseMessagePrivate.html#a9e0450ee42844645369526de60e89a37" target="_top" xlink:title=" ">
<polygon fill="none" stroke="black" points="31,-1607.5 31,-1637.5 159,-1637.5 159,-1607.5 31,-1607.5"/>
<text text-anchor="start" x="39" y="-1625.5" font-family="Helvetica,sans-Serif" font-size="10.00">CourseMessagePrivate</text>
<text text-anchor="middle" x="95" y="-1614.5" font-family="Helvetica,sans-Serif" font-size="10.00">::setField</text>
</a>
</g>
</g>
<!-- Node2&#45;&gt;Node17 -->
<g id="edge16" class="edge">
<title>Node2&#45;&gt;Node17</title>
<path fill="none" stroke="midnightblue" d="M287.73,-1181.56C279.58,-1265.93 249.13,-1537.72 190,-1598.5 181.66,-1607.07 170.72,-1612.73 159.25,-1616.44"/>
<polygon fill="midnightblue" stroke="midnightblue" points="291.21,-1181.87 288.67,-1171.58 284.25,-1181.21 291.21,-1181.87"/>
</g>
<!-- Node18 -->
<g id="node18" class="node">
<title>Node18</title>
<g id="a_node18"><a xlink:href="classCoursePointMessagePrivate.html#a91bac760eb9d0c3475dc18c33835902b" target="_top" xlink:title=" ">
<polygon fill="none" stroke="black" points="18.5,-1558.5 18.5,-1588.5 171.5,-1588.5 171.5,-1558.5 18.5,-1558.5"/>
<text text-anchor="start" x="26.5" y="-1576.5" font-family="Helvetica,sans-Serif" font-size="10.00">CoursePointMessagePrivate</text>
<text text-anchor="middle" x="95" y="-1565.5" font-family="Helvetica,sans-Serif" font-size="10.00">::setField</text>
</a>
</g>
</g>
<!-- Node2&#45;&gt;Node18 -->
<g id="edge17" class="edge">
<title>Node2&#45;&gt;Node18</title>
<path fill="none" stroke="midnightblue" d="M286.97,-1181.57C277.03,-1259.66 242.99,-1496.46 190,-1549.5 184.76,-1554.74 178.55,-1558.89 171.85,-1562.17"/>
<polygon fill="midnightblue" stroke="midnightblue" points="290.44,-1182 288.21,-1171.64 283.49,-1181.13 290.44,-1182"/>
</g>
<!-- Node19 -->
<g id="node19" class="node">
<title>Node19</title>
<g id="a_node19"><a xlink:href="classDeveloperDataIdMessagePrivate.html#a693bd2c2a3d037d2527c67245c336207" target="_top" xlink:title=" ">
<polygon fill="none" stroke="black" points="6.5,-1509.5 6.5,-1539.5 183.5,-1539.5 183.5,-1509.5 6.5,-1509.5"/>
<text text-anchor="start" x="14.5" y="-1527.5" font-family="Helvetica,sans-Serif" font-size="10.00">DeveloperDataIdMessagePrivate</text>
<text text-anchor="middle" x="95" y="-1516.5" font-family="Helvetica,sans-Serif" font-size="10.00">::setField</text>
</a>
</g>
</g>
<!-- Node2&#45;&gt;Node19 -->
<g id="edge18" class="edge">
<title>Node2&#45;&gt;Node19</title>
<path fill="none" stroke="midnightblue" d="M290.58,-1182.17C290.56,-1245.83 281.29,-1412.17 190,-1500.5 186.49,-1503.9 182.57,-1506.83 178.37,-1509.37"/>
<polygon fill="midnightblue" stroke="midnightblue" points="294.08,-1181.83 290.5,-1171.85 287.08,-1181.88 294.08,-1181.83"/>
</g>
<!-- Node20 -->
<g id="node20" class="node">
<title>Node20</title>
<g id="a_node20"><a xlink:href="classDeviceInfoMessagePrivate.html#a774c41581b2b6e72b9d68a8755f24ae6" target="_top" xlink:title=" ">
<polygon fill="none" stroke="black" points="21.5,-1460.5 21.5,-1490.5 168.5,-1490.5 168.5,-1460.5 21.5,-1460.5"/>
<text text-anchor="start" x="29.5" y="-1478.5" font-family="Helvetica,sans-Serif" font-size="10.00">DeviceInfoMessagePrivate</text>
<text text-anchor="middle" x="95" y="-1467.5" font-family="Helvetica,sans-Serif" font-size="10.00">::setField</text>
</a>
</g>
</g>
<!-- Node2&#45;&gt;Node20 -->
<g id="edge19" class="edge">
<title>Node2&#45;&gt;Node20</title>
<path fill="none" stroke="midnightblue" d="M289.14,-1181.99C285.78,-1239.08 269.42,-1377.96 190,-1451.5 183.82,-1457.22 176.47,-1461.62 168.64,-1465"/>
<polygon fill="midnightblue" stroke="midnightblue" points="292.65,-1181.87 289.65,-1171.71 285.66,-1181.52 292.65,-1181.87"/>
</g>
<!-- Node21 -->
<g id="node21" class="node">
<title>Node21</title>
<g id="a_node21"><a xlink:href="classDeviceSettingsMessagePrivate.html#a0e73a776b795f34ff94b789d306623bd" target="_top" xlink:title=" ">
<polygon fill="none" stroke="black" points="11,-1411.5 11,-1441.5 179,-1441.5 179,-1411.5 11,-1411.5"/>
<text text-anchor="start" x="19" y="-1429.5" font-family="Helvetica,sans-Serif" font-size="10.00">DeviceSettingsMessagePrivate</text>
<text text-anchor="middle" x="95" y="-1418.5" font-family="Helvetica,sans-Serif" font-size="10.00">::setField</text>
</a>
</g>
</g>
<!-- Node2&#45;&gt;Node21 -->
<g id="edge20" class="edge">
<title>Node2&#45;&gt;Node21</title>
<path fill="none" stroke="midnightblue" d="M287.23,-1181.54C280.35,-1231.4 257.81,-1343.35 190,-1402.5 186.07,-1405.93 181.71,-1408.89 177.08,-1411.42"/>
<polygon fill="midnightblue" stroke="midnightblue" points="290.7,-1181.98 288.5,-1171.62 283.76,-1181.09 290.7,-1181.98"/>
</g>
<!-- Node22 -->
<g id="node22" class="node">
<title>Node22</title>
<g id="a_node22"><a xlink:href="classDiveAlarmMessagePrivate.html#a0fdea41faa49f2a8d0cf8de277defb9d" target="_top" xlink:title=" ">
<polygon fill="none" stroke="black" points="22,-1362.5 22,-1392.5 168,-1392.5 168,-1362.5 22,-1362.5"/>
<text text-anchor="start" x="30" y="-1380.5" font-family="Helvetica,sans-Serif" font-size="10.00">DiveAlarmMessagePrivate</text>
<text text-anchor="middle" x="95" y="-1369.5" font-family="Helvetica,sans-Serif" font-size="10.00">::setField</text>
</a>
</g>
</g>
<!-- Node2&#45;&gt;Node22 -->
<g id="edge21" class="edge">
<title>Node2&#45;&gt;Node22</title>
<path fill="none" stroke="midnightblue" d="M284.44,-1181.5C273.73,-1223.61 246.17,-1308.49 190,-1353.5 183.56,-1358.66 176.14,-1362.73 168.35,-1365.92"/>
<polygon fill="midnightblue" stroke="midnightblue" points="287.9,-1182.07 286.86,-1171.53 281.1,-1180.42 287.9,-1182.07"/>
</g>
<!-- Node23 -->
<g id="node23" class="node">
<title>Node23</title>
<g id="a_node23"><a xlink:href="classDiveGasMessagePrivate.html#a8f2e79f95e54a30f98bde4ca6c8bff2f" target="_top" xlink:title=" ">
<polygon fill="none" stroke="black" points="27,-1313.5 27,-1343.5 163,-1343.5 163,-1313.5 27,-1313.5"/>
<text text-anchor="start" x="35" y="-1331.5" font-family="Helvetica,sans-Serif" font-size="10.00">DiveGasMessagePrivate</text>
<text text-anchor="middle" x="95" y="-1320.5" font-family="Helvetica,sans-Serif" font-size="10.00">::setField</text>
</a>
</g>
</g>
<!-- Node2&#45;&gt;Node23 -->
<g id="edge22" class="edge">
<title>Node2&#45;&gt;Node23</title>
<path fill="none" stroke="midnightblue" d="M280.06,-1181.22C265.41,-1214.44 234.81,-1272.96 190,-1304.5 182.01,-1310.12 172.82,-1314.43 163.37,-1317.73"/>
<polygon fill="midnightblue" stroke="midnightblue" points="283.38,-1182.35 284.1,-1171.78 276.95,-1179.6 283.38,-1182.35"/>
</g>
<!-- Node24 -->
<g id="node24" class="node">
<title>Node24</title>
<g id="a_node24"><a xlink:href="classDiveSettingsMessagePrivate.html#a16e471a6deb0fe3be12b135c41a9c559" target="_top" xlink:title=" ">
<polygon fill="none" stroke="black" points="16.5,-1264.5 16.5,-1294.5 173.5,-1294.5 173.5,-1264.5 16.5,-1264.5"/>
<text text-anchor="start" x="24.5" y="-1282.5" font-family="Helvetica,sans-Serif" font-size="10.00">DiveSettingsMessagePrivate</text>
<text text-anchor="middle" x="95" y="-1271.5" font-family="Helvetica,sans-Serif" font-size="10.00">::setField</text>
</a>
</g>
</g>
<!-- Node2&#45;&gt;Node24 -->
<g id="edge23" class="edge">
<title>Node2&#45;&gt;Node24</title>
<path fill="none" stroke="midnightblue" d="M272.58,-1179.87C254.42,-1202.55 223.93,-1236.29 190,-1255.5 183.99,-1258.9 177.5,-1261.83 170.82,-1264.35"/>
<polygon fill="midnightblue" stroke="midnightblue" points="275.51,-1181.8 278.91,-1171.77 269.99,-1177.49 275.51,-1181.8"/>
</g>
<!-- Node25 -->
<g id="node25" class="node">
<title>Node25</title>
<g id="a_node25"><a xlink:href="classDiveSummaryMessagePrivate.html#ada2d2382d7efcaf75858135440a60552" target="_top" xlink:title=" ">
<polygon fill="none" stroke="black" points="13,-1215.5 13,-1245.5 177,-1245.5 177,-1215.5 13,-1215.5"/>
<text text-anchor="start" x="21" y="-1233.5" font-family="Helvetica,sans-Serif" font-size="10.00">DiveSummaryMessagePrivate</text>
<text text-anchor="middle" x="95" y="-1222.5" font-family="Helvetica,sans-Serif" font-size="10.00">::setField</text>
</a>
</g>
</g>
<!-- Node2&#45;&gt;Node25 -->
<g id="edge24" class="edge">
<title>Node2&#45;&gt;Node25</title>
<path fill="none" stroke="midnightblue" d="M254.74,-1176.45C235.95,-1186.48 212.19,-1198.23 190,-1206.5 181.16,-1209.79 171.69,-1212.8 162.29,-1215.48"/>
<polygon fill="midnightblue" stroke="midnightblue" points="256.41,-1179.53 263.53,-1171.69 253.07,-1173.37 256.41,-1179.53"/>
</g>
<!-- Node26 -->
<g id="node26" class="node">
<title>Node26</title>
<g id="a_node26"><a xlink:href="classEventMessagePrivate.html#a46289a449ae77ce5f7eb6eb2552b4f01" target="_top" xlink:title=" ">
<polygon fill="none" stroke="black" points="34,-1166.5 34,-1196.5 156,-1196.5 156,-1166.5 34,-1166.5"/>
<text text-anchor="start" x="42" y="-1184.5" font-family="Helvetica,sans-Serif" font-size="10.00">EventMessagePrivate</text>
<text text-anchor="middle" x="95" y="-1173.5" font-family="Helvetica,sans-Serif" font-size="10.00">::setField</text>
</a>
</g>
</g>
<!-- Node2&#45;&gt;Node26 -->
<g id="edge25" class="edge">
<title>Node2&#45;&gt;Node26</title>
<path fill="none" stroke="midnightblue" d="M215.75,-1166.07C196.01,-1168.61 174.93,-1171.33 156.05,-1173.76"/>
<polygon fill="midnightblue" stroke="midnightblue" points="216.47,-1169.5 225.94,-1164.76 215.57,-1162.56 216.47,-1169.5"/>
</g>
<!-- Node27 -->
<g id="node27" class="node">
<title>Node27</title>
<g id="a_node27"><a xlink:href="classExdDataConceptConfigurationMessagePrivate.html#af4f570188c165fd2cc1d27e77164bf3d" target="_top" xlink:title=" ">
<polygon fill="none" stroke="black" points="13.5,-1117.5 13.5,-1147.5 176.5,-1147.5 176.5,-1117.5 13.5,-1117.5"/>
<text text-anchor="start" x="21.5" y="-1135.5" font-family="Helvetica,sans-Serif" font-size="10.00">ExdDataConceptConfiguration</text>
<text text-anchor="middle" x="95" y="-1124.5" font-family="Helvetica,sans-Serif" font-size="10.00">MessagePrivate::setField</text>
</a>
</g>
</g>
<!-- Node2&#45;&gt;Node27 -->
<g id="edge26" class="edge">
<title>Node2&#45;&gt;Node27</title>
<path fill="none" stroke="midnightblue" d="M215.79,-1147.32C202.97,-1145.73 189.58,-1144.08 176.6,-1142.47"/>
<polygon fill="midnightblue" stroke="midnightblue" points="215.59,-1150.82 225.94,-1148.57 216.44,-1143.87 215.59,-1150.82"/>
</g>
<!-- Node28 -->
<g id="node28" class="node">
<title>Node28</title>
<g id="a_node28"><a xlink:href="classExdDataFieldConfigurationMessagePrivate.html#ab524e45de964ae634da51e6fbcdad381" target="_top" xlink:title=" ">
<polygon fill="none" stroke="black" points="22,-1068.5 22,-1098.5 168,-1098.5 168,-1068.5 22,-1068.5"/>
<text text-anchor="start" x="30" y="-1086.5" font-family="Helvetica,sans-Serif" font-size="10.00">ExdDataFieldConfiguration</text>
<text text-anchor="middle" x="95" y="-1075.5" font-family="Helvetica,sans-Serif" font-size="10.00">MessagePrivate::setField</text>
</a>
</g>
</g>
<!-- Node2&#45;&gt;Node28 -->
<g id="edge27" class="edge">
<title>Node2&#45;&gt;Node28</title>
<path fill="none" stroke="midnightblue" d="M253.16,-1136.77C234.58,-1127.35 211.48,-1116.43 190,-1108.5 180.18,-1104.87 169.6,-1101.54 159.21,-1098.56"/>
<polygon fill="midnightblue" stroke="midnightblue" points="251.67,-1139.94 262.16,-1141.4 254.87,-1133.71 251.67,-1139.94"/>
</g>
<!-- Node29 -->
<g id="node29" class="node">
<title>Node29</title>
<g id="a_node29"><a xlink:href="classExdScreenConfigurationMessagePrivate.html#a5f8b23f9aaa6110d8fc29375e439178c" target="_top" xlink:title=" ">
<polygon fill="none" stroke="black" points="7,-1019.5 7,-1049.5 183,-1049.5 183,-1019.5 7,-1019.5"/>
<text text-anchor="start" x="15" y="-1037.5" font-family="Helvetica,sans-Serif" font-size="10.00">ExdScreenConfigurationMessage</text>
<text text-anchor="middle" x="95" y="-1026.5" font-family="Helvetica,sans-Serif" font-size="10.00">Private::setField</text>
</a>
</g>
</g>
<!-- Node2&#45;&gt;Node29 -->
<g id="edge28" class="edge">
<title>Node2&#45;&gt;Node29</title>
<path fill="none" stroke="midnightblue" d="M272.13,-1133.32C253.83,-1111.16 223.41,-1078.41 190,-1059.5 183.24,-1055.67 175.87,-1052.42 168.34,-1049.64"/>
<polygon fill="midnightblue" stroke="midnightblue" points="269.52,-1135.66 278.53,-1141.24 274.97,-1131.26 269.52,-1135.66"/>
</g>
<!-- Node30 -->
<g id="node30" class="node">
<title>Node30</title>
<g id="a_node30"><a xlink:href="classExerciseTitleMessagePrivate.html#add2969cf704325ba3387e99b0b9a9752" target="_top" xlink:title=" ">
<polygon fill="none" stroke="black" points="16.5,-970.5 16.5,-1000.5 173.5,-1000.5 173.5,-970.5 16.5,-970.5"/>
<text text-anchor="start" x="24.5" y="-988.5" font-family="Helvetica,sans-Serif" font-size="10.00">ExerciseTitleMessagePrivate</text>
<text text-anchor="middle" x="95" y="-977.5" font-family="Helvetica,sans-Serif" font-size="10.00">::setField</text>
</a>
</g>
</g>
<!-- Node2&#45;&gt;Node30 -->
<g id="edge29" class="edge">
<title>Node2&#45;&gt;Node30</title>
<path fill="none" stroke="midnightblue" d="M279.93,-1132.18C265.12,-1099.48 234.34,-1041.83 190,-1010.5 184.48,-1006.6 178.4,-1003.31 172.05,-1000.54"/>
<polygon fill="midnightblue" stroke="midnightblue" points="276.78,-1133.72 284.01,-1141.47 283.19,-1130.91 276.78,-1133.72"/>
</g>
<!-- Node31 -->
<g id="node31" class="node">
<title>Node31</title>
<g id="a_node31"><a xlink:href="classFieldCapabilitiesMessagePrivate.html#af51bc169e80301a95af968be0effd439" target="_top" xlink:title=" ">
<polygon fill="none" stroke="black" points="24.5,-921.5 24.5,-951.5 165.5,-951.5 165.5,-921.5 24.5,-921.5"/>
<text text-anchor="start" x="32.5" y="-939.5" font-family="Helvetica,sans-Serif" font-size="10.00">FieldCapabilitiesMessage</text>
<text text-anchor="middle" x="95" y="-928.5" font-family="Helvetica,sans-Serif" font-size="10.00">Private::setField</text>
</a>
</g>
</g>
<!-- Node2&#45;&gt;Node31 -->
<g id="edge30" class="edge">
<title>Node2&#45;&gt;Node31</title>
<path fill="none" stroke="midnightblue" d="M284.23,-1131.51C273.28,-1089.8 245.45,-1006.2 190,-961.5 182.9,-955.78 174.61,-951.36 165.96,-947.94"/>
<polygon fill="midnightblue" stroke="midnightblue" points="280.88,-1132.55 286.71,-1141.39 287.67,-1130.84 280.88,-1132.55"/>
</g>
<!-- Node32 -->
<g id="node32" class="node">
<title>Node32</title>
<g id="a_node32"><a xlink:href="classFieldDescriptionMessagePrivate.html#aff8af4cea602b6376311b8322e441b12" target="_top" xlink:title=" ">
<polygon fill="none" stroke="black" points="8.5,-872.5 8.5,-902.5 181.5,-902.5 181.5,-872.5 8.5,-872.5"/>
<text text-anchor="start" x="16.5" y="-890.5" font-family="Helvetica,sans-Serif" font-size="10.00">FieldDescriptionMessagePrivate</text>
<text text-anchor="middle" x="95" y="-879.5" font-family="Helvetica,sans-Serif" font-size="10.00">::setField</text>
</a>
</g>
</g>
<!-- Node2&#45;&gt;Node32 -->
<g id="edge31" class="edge">
<title>Node2&#45;&gt;Node32</title>
<path fill="none" stroke="midnightblue" d="M287.02,-1131.05C279.82,-1081.36 256.82,-971.21 190,-912.5 185.56,-908.6 180.58,-905.3 175.28,-902.5"/>
<polygon fill="midnightblue" stroke="midnightblue" points="283.59,-1131.79 288.39,-1141.23 290.52,-1130.85 283.59,-1131.79"/>
</g>
<!-- Node33 -->
<g id="node33" class="node">
<title>Node33</title>
<g id="a_node33"><a xlink:href="classFileCapabilitiesMessagePrivate.html#a1ba21877c3152872815a2b6a31ccbfe4" target="_top" xlink:title=" ">
<polygon fill="none" stroke="black" points="10,-823.5 10,-853.5 180,-853.5 180,-823.5 10,-823.5"/>
<text text-anchor="start" x="18" y="-841.5" font-family="Helvetica,sans-Serif" font-size="10.00">FileCapabilitiesMessagePrivate</text>
<text text-anchor="middle" x="95" y="-830.5" font-family="Helvetica,sans-Serif" font-size="10.00">::setField</text>
</a>
</g>
</g>
<!-- Node2&#45;&gt;Node33 -->
<g id="edge32" class="edge">
<title>Node2&#45;&gt;Node33</title>
<path fill="none" stroke="midnightblue" d="M289.03,-1131.23C285.44,-1074.64 268.65,-936.9 190,-863.5 185.93,-859.7 181.34,-856.46 176.44,-853.71"/>
<polygon fill="midnightblue" stroke="midnightblue" points="285.54,-1131.63 289.58,-1141.43 292.53,-1131.25 285.54,-1131.63"/>
</g>
<!-- Node34 -->
<g id="node34" class="node">
<title>Node34</title>
<g id="a_node34"><a xlink:href="classFileCreatorMessagePrivate.html#ae2bb1efc5b64e5f57e28c8677ddd7cb2" target="_top" xlink:title=" ">
<polygon fill="none" stroke="black" points="21,-774.5 21,-804.5 169,-804.5 169,-774.5 21,-774.5"/>
<text text-anchor="start" x="29" y="-792.5" font-family="Helvetica,sans-Serif" font-size="10.00">FileCreatorMessagePrivate</text>
<text text-anchor="middle" x="95" y="-781.5" font-family="Helvetica,sans-Serif" font-size="10.00">::setField</text>
</a>
</g>
</g>
<!-- Node2&#45;&gt;Node34 -->
<g id="edge33" class="edge">
<title>Node2&#45;&gt;Node34</title>
<path fill="none" stroke="midnightblue" d="M290.48,-1131.03C290.22,-1067.86 280.43,-902.74 190,-814.5 184.08,-808.72 176.98,-804.24 169.37,-800.77"/>
<polygon fill="midnightblue" stroke="midnightblue" points="286.98,-1131.25 290.44,-1141.27 293.98,-1131.28 286.98,-1131.25"/>
</g>
<!-- Node35 -->
<g id="node35" class="node">
<title>Node35</title>
<g id="a_node35"><a xlink:href="classFileIdMessagePrivate.html#a15e5465b80df9a6cf7e1eade75dd7be8" target="_top" xlink:title=" ">
<polygon fill="none" stroke="black" points="34.5,-725.5 34.5,-755.5 155.5,-755.5 155.5,-725.5 34.5,-725.5"/>
<text text-anchor="start" x="42.5" y="-743.5" font-family="Helvetica,sans-Serif" font-size="10.00">FileIdMessagePrivate</text>
<text text-anchor="middle" x="95" y="-732.5" font-family="Helvetica,sans-Serif" font-size="10.00">::setField</text>
</a>
</g>
</g>
<!-- Node2&#45;&gt;Node35 -->
<g id="edge34" class="edge">
<title>Node2&#45;&gt;Node35</title>
<path fill="none" stroke="midnightblue" d="M286.86,-1131.1C276.72,-1052.99 242.4,-818.4 190,-765.5 180.73,-756.14 168.38,-750.17 155.69,-746.38"/>
<polygon fill="midnightblue" stroke="midnightblue" points="283.45,-1131.97 288.18,-1141.45 290.39,-1131.09 283.45,-1131.97"/>
</g>
<!-- Node36 -->
<g id="node36" class="node">
<title>Node36</title>
<g id="a_node36"><a xlink:href="classGoalMessagePrivate.html#af8e9cc25c152d14d524108ac32d1d17f" target="_top" xlink:title=" ">
<polygon fill="none" stroke="black" points="36.5,-676.5 36.5,-706.5 153.5,-706.5 153.5,-676.5 36.5,-676.5"/>
<text text-anchor="start" x="44.5" y="-694.5" font-family="Helvetica,sans-Serif" font-size="10.00">GoalMessagePrivate</text>
<text text-anchor="middle" x="95" y="-683.5" font-family="Helvetica,sans-Serif" font-size="10.00">::setField</text>
</a>
</g>
</g>
<!-- Node2&#45;&gt;Node36 -->
<g id="edge35" class="edge">
<title>Node2&#45;&gt;Node36</title>
<path fill="none" stroke="midnightblue" d="M287.66,-1131.31C279.35,-1047.1 248.54,-777.22 190,-716.5 180.39,-706.53 167.29,-700.38 153.92,-696.63"/>
<polygon fill="midnightblue" stroke="midnightblue" points="284.2,-1131.88 288.65,-1141.5 291.17,-1131.21 284.2,-1131.88"/>
</g>
<!-- Node37 -->
<g id="node37" class="node">
<title>Node37</title>
<g id="a_node37"><a xlink:href="classGpsMetadataMessagePrivate.html#a759365a24686d3b0dec218826b58d5d8" target="_top" xlink:title=" ">
<polygon fill="none" stroke="black" points="15,-627.5 15,-657.5 175,-657.5 175,-627.5 15,-627.5"/>
<text text-anchor="start" x="23" y="-645.5" font-family="Helvetica,sans-Serif" font-size="10.00">GpsMetadataMessagePrivate</text>
<text text-anchor="middle" x="95" y="-634.5" font-family="Helvetica,sans-Serif" font-size="10.00">::setField</text>
</a>
</g>
</g>
<!-- Node2&#45;&gt;Node37 -->
<g id="edge36" class="edge">
<title>Node2&#45;&gt;Node37</title>
<path fill="none" stroke="midnightblue" d="M288.28,-1131.21C281.62,-1040.9 254.65,-736.02 190,-667.5 185.71,-662.96 180.7,-659.2 175.26,-656.11"/>
<polygon fill="midnightblue" stroke="midnightblue" points="284.8,-1131.64 289.01,-1141.36 291.78,-1131.13 284.8,-1131.64"/>
</g>
<!-- Node38 -->
<g id="node38" class="node">
<title>Node38</title>
<g id="a_node38"><a xlink:href="classGyroscopeDataMessagePrivate.html#a300586325aaff100b4c1fa3dfac5163b" target="_top" xlink:title=" ">
<polygon fill="none" stroke="black" points="10,-578.5 10,-608.5 180,-608.5 180,-578.5 10,-578.5"/>
<text text-anchor="start" x="18" y="-596.5" font-family="Helvetica,sans-Serif" font-size="10.00">GyroscopeDataMessagePrivate</text>
<text text-anchor="middle" x="95" y="-585.5" font-family="Helvetica,sans-Serif" font-size="10.00">::setField</text>
</a>
</g>
</g>
<!-- Node2&#45;&gt;Node38 -->
<g id="edge37" class="edge">
<title>Node2&#45;&gt;Node38</title>
<path fill="none" stroke="midnightblue" d="M288.79,-1131.23C283.69,-1035.26 260.81,-694.92 190,-618.5 186.44,-614.66 182.37,-611.38 177.95,-608.59"/>
<polygon fill="midnightblue" stroke="midnightblue" points="285.31,-1131.64 289.31,-1141.45 292.3,-1131.28 285.31,-1131.64"/>
</g>
<!-- Node39 -->
<g id="node39" class="node">
<title>Node39</title>
<g id="a_node39"><a xlink:href="classHrMessagePrivate.html#aec70056e33f8af102c34aac835d83645" target="_top" xlink:title=" ">
<polygon fill="none" stroke="black" points="20,-540 20,-559 170,-559 170,-540 20,-540"/>
<text text-anchor="middle" x="95" y="-547" font-family="Helvetica,sans-Serif" font-size="10.00">HrMessagePrivate::setField</text>
</a>
</g>
</g>
<!-- Node2&#45;&gt;Node39 -->
<g id="edge38" class="edge">
<title>Node2&#45;&gt;Node39</title>
<path fill="none" stroke="midnightblue" d="M289.34,-1131.16C286.15,-1029.38 269.09,-651.9 190,-569.5 184.45,-563.72 177.68,-559.41 170.34,-556.21"/>
<polygon fill="midnightblue" stroke="midnightblue" points="285.85,-1131.52 289.64,-1141.41 292.84,-1131.31 285.85,-1131.52"/>
</g>
<!-- Node40 -->
<g id="node40" class="node">
<title>Node40</title>
<g id="a_node40"><a xlink:href="classHrmProfileMessagePrivate.html#ac3a5c828ec439cc28c74bb25a1d5a05b" target="_top" xlink:title=" ">
<polygon fill="none" stroke="black" points="22,-490.5 22,-520.5 168,-520.5 168,-490.5 22,-490.5"/>
<text text-anchor="start" x="30" y="-508.5" font-family="Helvetica,sans-Serif" font-size="10.00">HrmProfileMessagePrivate</text>
<text text-anchor="middle" x="95" y="-497.5" font-family="Helvetica,sans-Serif" font-size="10.00">::setField</text>
</a>
</g>
</g>
<!-- Node2&#45;&gt;Node40 -->
<g id="edge39" class="edge">
<title>Node2&#45;&gt;Node40</title>
<path fill="none" stroke="midnightblue" d="M289.51,-1131.3C286.97,-1025.85 271.94,-621.21 190,-530.5 184,-523.86 176.46,-518.9 168.26,-515.2"/>
<polygon fill="midnightblue" stroke="midnightblue" points="286.02,-1131.43 289.74,-1141.35 293.01,-1131.27 286.02,-1131.43"/>
</g>
<!-- Node41 -->
<g id="node41" class="node">
<title>Node41</title>
<g id="a_node41"><a xlink:href="classHrvMessagePrivate.html#a8b11366fdc624eeeaa8a3b87756a8184" target="_top" xlink:title=" ">
<polygon fill="none" stroke="black" points="36,-441.5 36,-471.5 154,-471.5 154,-441.5 36,-441.5"/>
<text text-anchor="start" x="44" y="-459.5" font-family="Helvetica,sans-Serif" font-size="10.00">HrvMessagePrivate::</text>
<text text-anchor="middle" x="95" y="-448.5" font-family="Helvetica,sans-Serif" font-size="10.00">setField</text>
</a>
</g>
</g>
<!-- Node2&#45;&gt;Node41 -->
<g id="edge40" class="edge">
<title>Node2&#45;&gt;Node41</title>
<path fill="none" stroke="midnightblue" d="M289.84,-1131.15C288.6,-1020.39 278.12,-580.17 190,-481.5 180.78,-471.17 167.82,-464.9 154.46,-461.13"/>
<polygon fill="midnightblue" stroke="midnightblue" points="286.34,-1131.4 289.93,-1141.37 293.34,-1131.33 286.34,-1131.4"/>
</g>
<!-- Node42 -->
<g id="node42" class="node">
<title>Node42</title>
<g id="a_node42"><a xlink:href="classHrZoneMessagePrivate.html#a22ad9a9b5a6e781255ea44940594a25f" target="_top" xlink:title=" ">
<polygon fill="none" stroke="black" points="29.5,-392.5 29.5,-422.5 160.5,-422.5 160.5,-392.5 29.5,-392.5"/>
<text text-anchor="start" x="37.5" y="-410.5" font-family="Helvetica,sans-Serif" font-size="10.00">HrZoneMessagePrivate</text>
<text text-anchor="middle" x="95" y="-399.5" font-family="Helvetica,sans-Serif" font-size="10.00">::setField</text>
</a>
</g>
</g>
<!-- Node2&#45;&gt;Node42 -->
<g id="edge41" class="edge">
<title>Node2&#45;&gt;Node42</title>
<path fill="none" stroke="midnightblue" d="M290.12,-1131.17C290.12,-1015.58 284.35,-539.2 190,-432.5 182.28,-423.77 171.89,-417.93 160.84,-414.06"/>
<polygon fill="midnightblue" stroke="midnightblue" points="286.62,-1131.2 290.1,-1141.21 293.62,-1131.21 286.62,-1131.2"/>
</g>
<!-- Node43 -->
<g id="node43" class="node">
<title>Node43</title>
<g id="a_node43"><a xlink:href="classJumpMessagePrivate.html#af310324671c4c194ae20348baf0d5188" target="_top" xlink:title=" ">
<polygon fill="none" stroke="black" points="35.5,-343.5 35.5,-373.5 154.5,-373.5 154.5,-343.5 35.5,-343.5"/>
<text text-anchor="start" x="43.5" y="-361.5" font-family="Helvetica,sans-Serif" font-size="10.00">JumpMessagePrivate</text>
<text text-anchor="middle" x="95" y="-350.5" font-family="Helvetica,sans-Serif" font-size="10.00">::setField</text>
</a>
</g>
</g>
<!-- Node2&#45;&gt;Node43 -->
<g id="edge42" class="edge">
<title>Node2&#45;&gt;Node43</title>
<path fill="none" stroke="midnightblue" d="M290.36,-1131.41C291.56,-1011.55 290.67,-498.33 190,-383.5 180.87,-373.09 167.95,-366.78 154.59,-363.02"/>
<polygon fill="midnightblue" stroke="midnightblue" points="286.86,-1131.42 290.24,-1141.46 293.86,-1131.5 286.86,-1131.42"/>
</g>
<!-- Node44 -->
<g id="node44" class="node">
<title>Node44</title>
<g id="a_node44"><a xlink:href="classLapMessagePrivate.html#a7cbfb5668608d95b157aafe5e2ca62ab" target="_top" xlink:title=" ">
<polygon fill="none" stroke="black" points="36,-294.5 36,-324.5 154,-324.5 154,-294.5 36,-294.5"/>
<text text-anchor="start" x="44" y="-312.5" font-family="Helvetica,sans-Serif" font-size="10.00">LapMessagePrivate::</text>
<text text-anchor="middle" x="95" y="-301.5" font-family="Helvetica,sans-Serif" font-size="10.00">setField</text>
</a>
</g>
</g>
<!-- Node2&#45;&gt;Node44 -->
<g id="edge43" class="edge">
<title>Node2&#45;&gt;Node44</title>
<path fill="none" stroke="midnightblue" d="M288.59,-1131.12C281.04,-999.3 243.75,-396.29 190,-334.5 180.8,-323.93 167.69,-317.58 154.16,-313.83"/>
<polygon fill="midnightblue" stroke="midnightblue" points="285.11,-1131.64 289.17,-1141.43 292.1,-1131.24 285.11,-1131.64"/>
</g>
<!-- Node45 -->
<g id="node45" class="node">
<title>Node45</title>
<g id="a_node45"><a xlink:href="classLengthMessagePrivate.html#a0059ef823df96205572b18ec52d74ab4" target="_top" xlink:title=" ">
<polygon fill="none" stroke="black" points="31,-245.5 31,-275.5 159,-275.5 159,-245.5 31,-245.5"/>
<text text-anchor="start" x="39" y="-263.5" font-family="Helvetica,sans-Serif" font-size="10.00">LengthMessagePrivate</text>
<text text-anchor="middle" x="95" y="-252.5" font-family="Helvetica,sans-Serif" font-size="10.00">::setField</text>
</a>
</g>
</g>
<!-- Node2&#45;&gt;Node45 -->
<g id="edge44" class="edge">
<title>Node2&#45;&gt;Node45</title>
<path fill="none" stroke="midnightblue" d="M288.76,-1130.92C281.91,-993.97 246.87,-351.31 190,-285.5 181.94,-276.17 170.83,-270.13 159.07,-266.26"/>
<polygon fill="midnightblue" stroke="midnightblue" points="285.28,-1131.43 289.27,-1141.24 292.27,-1131.08 285.28,-1131.43"/>
</g>
<!-- Node46 -->
<g id="node46" class="node">
<title>Node46</title>
<g id="a_node46"><a xlink:href="classMagnetometerDataMessagePrivate.html#acb91c5cb84bad0920ebd86321cef04fc" target="_top" xlink:title=" ">
<polygon fill="none" stroke="black" points="0,-196.5 0,-226.5 190,-226.5 190,-196.5 0,-196.5"/>
<text text-anchor="start" x="8" y="-214.5" font-family="Helvetica,sans-Serif" font-size="10.00">MagnetometerDataMessagePrivate</text>
<text text-anchor="middle" x="95" y="-203.5" font-family="Helvetica,sans-Serif" font-size="10.00">::setField</text>
</a>
</g>
</g>
<!-- Node2&#45;&gt;Node46 -->
<g id="edge45" class="edge">
<title>Node2&#45;&gt;Node46</title>
<path fill="none" stroke="midnightblue" d="M288.94,-1131.28C282.81,-990.57 250.06,-306.44 190,-236.5 186.7,-232.66 182.88,-229.37 178.71,-226.56"/>
<polygon fill="midnightblue" stroke="midnightblue" points="285.45,-1131.65 289.38,-1141.49 292.45,-1131.35 285.45,-1131.65"/>
</g>
<!-- Node47 -->
<g id="node47" class="node">
<title>Node47</title>
<g id="a_node47"><a xlink:href="classMemoGlobMessagePrivate.html#a0d13f6bc341199b50aa9c5dbd8bd1bbf" target="_top" xlink:title=" ">
<polygon fill="none" stroke="black" points="21,-147.5 21,-177.5 169,-177.5 169,-147.5 21,-147.5"/>
<text text-anchor="start" x="29" y="-165.5" font-family="Helvetica,sans-Serif" font-size="10.00">MemoGlobMessagePrivate</text>
<text text-anchor="middle" x="95" y="-154.5" font-family="Helvetica,sans-Serif" font-size="10.00">::setField</text>
</a>
</g>
</g>
<!-- Node2&#45;&gt;Node47 -->
<g id="edge46" class="edge">
<title>Node2&#45;&gt;Node47</title>
<path fill="none" stroke="midnightblue" d="M289.09,-1131.31C283.61,-986.27 253.22,-261.53 190,-187.5 184.3,-180.82 177.03,-175.83 169.08,-172.1"/>
<polygon fill="midnightblue" stroke="midnightblue" points="285.59,-1131.58 289.46,-1141.44 292.59,-1131.32 285.59,-1131.58"/>
</g>
<!-- Node48 -->
<g id="node48" class="node">
<title>Node48</title>
<g id="a_node48"><a xlink:href="classMesgCapabilitiesMessagePrivate.html#af04dd6e7e82b05e9438ac7d727dcd1c5" target="_top" xlink:title=" ">
<polygon fill="none" stroke="black" points="5.5,-98.5 5.5,-128.5 184.5,-128.5 184.5,-98.5 5.5,-98.5"/>
<text text-anchor="start" x="13.5" y="-116.5" font-family="Helvetica,sans-Serif" font-size="10.00">MesgCapabilitiesMessagePrivate</text>
<text text-anchor="middle" x="95" y="-105.5" font-family="Helvetica,sans-Serif" font-size="10.00">::setField</text>
</a>
</g>
</g>
<!-- Node2&#45;&gt;Node48 -->
<g id="edge47" class="edge">
<title>Node2&#45;&gt;Node48</title>
<path fill="none" stroke="midnightblue" d="M289.22,-1131.45C284.39,-982.44 256.4,-216.64 190,-138.5 186.72,-134.64 182.92,-131.34 178.76,-128.52"/>
<polygon fill="midnightblue" stroke="midnightblue" points="285.73,-1131.57 289.54,-1141.46 292.72,-1131.35 285.73,-1131.57"/>
</g>
<!-- Node49 -->
<g id="node49" class="node">
<title>Node49</title>
<g id="a_node49"><a xlink:href="classMetZoneMessagePrivate.html#aa76f52520e7b162960cb39120e5356ab" target="_top" xlink:title=" ">
<polygon fill="none" stroke="black" points="26,-49.5 26,-79.5 164,-79.5 164,-49.5 26,-49.5"/>
<text text-anchor="start" x="34" y="-67.5" font-family="Helvetica,sans-Serif" font-size="10.00">MetZoneMessagePrivate</text>
<text text-anchor="middle" x="95" y="-56.5" font-family="Helvetica,sans-Serif" font-size="10.00">::setField</text>
</a>
</g>
</g>
<!-- Node2&#45;&gt;Node49 -->
<g id="edge48" class="edge">
<title>Node2&#45;&gt;Node49</title>
<path fill="none" stroke="midnightblue" d="M289.32,-1130.74C285.02,-975.79 259.46,-171.61 190,-89.5 183.13,-81.38 173.95,-75.74 164.01,-71.85"/>
<polygon fill="midnightblue" stroke="midnightblue" points="285.83,-1131.23 289.61,-1141.13 292.83,-1131.04 285.83,-1131.23"/>
</g>
<!-- Node50 -->
<g id="node50" class="node">
<title>Node50</title>
<g id="a_node50"><a xlink:href="classMonitoringInfoMessagePrivate.html#a7123b55aca77be55f96b4c1a175622ad" target="_top" xlink:title=" ">
<polygon fill="none" stroke="black" points="12,-0.5 12,-30.5 178,-30.5 178,-0.5 12,-0.5"/>
<text text-anchor="start" x="20" y="-18.5" font-family="Helvetica,sans-Serif" font-size="10.00">MonitoringInfoMessagePrivate</text>
<text text-anchor="middle" x="95" y="-7.5" font-family="Helvetica,sans-Serif" font-size="10.00">::setField</text>
</a>
</g>
</g>
<!-- Node2&#45;&gt;Node50 -->
<g id="edge49" class="edge">
<title>Node2&#45;&gt;Node50</title>
<path fill="none" stroke="midnightblue" d="M289.44,-1131.05C285.75,-972.75 262.67,-126.76 190,-40.5 186.63,-36.5 182.69,-33.1 178.38,-30.21"/>
<polygon fill="midnightblue" stroke="midnightblue" points="285.95,-1131.32 289.67,-1141.24 292.95,-1131.16 285.95,-1131.32"/>
</g>
</g>
</svg>
