<?xml version="1.0" encoding="UTF-8" standalone="no"?>
<!DOCTYPE svg PUBLIC "-//W3C//DTD SVG 1.1//EN"
 "http://www.w3.org/Graphics/SVG/1.1/DTD/svg11.dtd">
<!-- Generated by graphviz version 2.43.0 (0)
 -->
<!-- Title: fitstreamreader.cpp Pages: 1 -->
<svg width="587pt" height="308pt"
 viewBox="0.00 0.00 586.50 308.00" xmlns="http://www.w3.org/2000/svg" xmlns:xlink="http://www.w3.org/1999/xlink">
<g id="graph0" class="graph" transform="scale(1 1) rotate(0) translate(4 304)">
<title>fitstreamreader.cpp</title>
<!-- Node1 -->
<g id="node1" class="node">
<title>Node1</title>
<g id="a_node1"><a xlink:title=" ">
<polygon fill="#bfbfbf" stroke="black" points="196,-280.5 196,-299.5 308,-299.5 308,-280.5 196,-280.5"/>
<text text-anchor="middle" x="252" y="-287.5" font-family="Helvetica,sans-Serif" font-size="10.00">fitstreamreader.cpp</text>
</a>
</g>
</g>
<!-- Node2 -->
<g id="node2" class="node">
<title>Node2</title>
<g id="a_node2"><a xlink:href="fitdatamessage_8h.html" target="_top" xlink:title=" ">
<polygon fill="none" stroke="black" points="33.5,-168.5 33.5,-187.5 134.5,-187.5 134.5,-168.5 33.5,-168.5"/>
<text text-anchor="middle" x="84" y="-175.5" font-family="Helvetica,sans-Serif" font-size="10.00">fitdatamessage.h</text>
</a>
</g>
</g>
<!-- Node1&#45;&gt;Node2 -->
<g id="edge1" class="edge">
<title>Node1&#45;&gt;Node2</title>
<path fill="none" stroke="midnightblue" d="M211.07,-280.47C185.83,-273.7 153.83,-262.27 130,-244 113.6,-231.42 100.67,-211.37 92.74,-196.86"/>
<polygon fill="midnightblue" stroke="midnightblue" points="95.79,-195.13 88.08,-187.86 89.57,-198.35 95.79,-195.13"/>
</g>
<!-- Node6 -->
<g id="node6" class="node">
<title>Node6</title>
<g id="a_node6"><a xlink:title=" ">
<polygon fill="none" stroke="#bfbfbf" points="0,-56.5 0,-75.5 56,-75.5 56,-56.5 0,-56.5"/>
<text text-anchor="middle" x="28" y="-63.5" font-family="Helvetica,sans-Serif" font-size="10.00">QDebug</text>
</a>
</g>
</g>
<!-- Node1&#45;&gt;Node6 -->
<g id="edge19" class="edge">
<title>Node1&#45;&gt;Node6</title>
<path fill="none" stroke="midnightblue" d="M196,-283.2C139.86,-273.93 57.14,-249.93 24,-188 6.46,-155.23 15.06,-110 22.06,-85.16"/>
<polygon fill="midnightblue" stroke="midnightblue" points="25.41,-86.16 24.97,-75.57 18.71,-84.13 25.41,-86.16"/>
</g>
<!-- Node7 -->
<g id="node7" class="node">
<title>Node7</title>
<g id="a_node7"><a xlink:href="fitstreamreader_8h.html" target="_top" xlink:title=" ">
<polygon fill="none" stroke="black" points="139.5,-224.5 139.5,-243.5 240.5,-243.5 240.5,-224.5 139.5,-224.5"/>
<text text-anchor="middle" x="190" y="-231.5" font-family="Helvetica,sans-Serif" font-size="10.00">fitstreamreader.h</text>
</a>
</g>
</g>
<!-- Node1&#45;&gt;Node7 -->
<g id="edge7" class="edge">
<title>Node1&#45;&gt;Node7</title>
<path fill="none" stroke="midnightblue" d="M242.04,-280.32C232.87,-272.34 219.06,-260.31 207.97,-250.65"/>
<polygon fill="midnightblue" stroke="midnightblue" points="209.98,-247.76 200.14,-243.83 205.38,-253.04 209.98,-247.76"/>
</g>
<!-- Node10 -->
<g id="node10" class="node">
<title>Node10</title>
<g id="a_node10"><a xlink:href="fitstreamreader__p_8h.html" target="_top" xlink:title=" ">
<polygon fill="none" stroke="black" points="258.5,-224.5 258.5,-243.5 371.5,-243.5 371.5,-224.5 258.5,-224.5"/>
<text text-anchor="middle" x="315" y="-231.5" font-family="Helvetica,sans-Serif" font-size="10.00">fitstreamreader_p.h</text>
</a>
</g>
</g>
<!-- Node1&#45;&gt;Node10 -->
<g id="edge11" class="edge">
<title>Node1&#45;&gt;Node10</title>
<path fill="none" stroke="midnightblue" d="M262.12,-280.32C271.53,-272.26 285.74,-260.08 297.07,-250.37"/>
<polygon fill="midnightblue" stroke="midnightblue" points="299.38,-253 304.69,-243.83 294.82,-247.68 299.38,-253"/>
</g>
<!-- Node15 -->
<g id="node15" class="node">
<title>Node15</title>
<g id="a_node15"><a xlink:title=" ">
<polygon fill="none" stroke="#bfbfbf" points="390,-224.5 390,-243.5 454,-243.5 454,-224.5 390,-224.5"/>
<text text-anchor="middle" x="422" y="-231.5" font-family="Helvetica,sans-Serif" font-size="10.00">QBitArray</text>
</a>
</g>
</g>
<!-- Node1&#45;&gt;Node15 -->
<g id="edge20" class="edge">
<title>Node1&#45;&gt;Node15</title>
<path fill="none" stroke="midnightblue" d="M278.94,-280.44C307.66,-271.32 353.33,-256.81 385.32,-246.65"/>
<polygon fill="midnightblue" stroke="midnightblue" points="386.72,-249.88 395.19,-243.52 384.6,-243.21 386.72,-249.88"/>
</g>
<!-- Node16 -->
<g id="node16" class="node">
<title>Node16</title>
<g id="a_node16"><a xlink:title=" ">
<polygon fill="none" stroke="#bfbfbf" points="472.5,-224.5 472.5,-243.5 533.5,-243.5 533.5,-224.5 472.5,-224.5"/>
<text text-anchor="middle" x="503" y="-231.5" font-family="Helvetica,sans-Serif" font-size="10.00">QtEndian</text>
</a>
</g>
</g>
<!-- Node1&#45;&gt;Node16 -->
<g id="edge21" class="edge">
<title>Node1&#45;&gt;Node16</title>
<path fill="none" stroke="midnightblue" d="M292.87,-280.42C333.32,-271.91 397.28,-258.35 462.4,-244.11"/>
<polygon fill="midnightblue" stroke="midnightblue" points="463.41,-247.47 472.43,-241.91 461.92,-240.64 463.41,-247.47"/>
</g>
<!-- Node3 -->
<g id="node3" class="node">
<title>Node3</title>
<g id="a_node3"><a xlink:href="QtFit__global_8h.html" target="_top" xlink:title=" ">
<polygon fill="none" stroke="black" points="85,-56.5 85,-75.5 169,-75.5 169,-56.5 85,-56.5"/>
<text text-anchor="middle" x="127" y="-63.5" font-family="Helvetica,sans-Serif" font-size="10.00">QtFit_global.h</text>
</a>
</g>
</g>
<!-- Node2&#45;&gt;Node3 -->
<g id="edge2" class="edge">
<title>Node2&#45;&gt;Node3</title>
<path fill="none" stroke="midnightblue" d="M84.66,-168.28C85.87,-155.5 89.07,-131.14 97,-112 101.12,-102.04 107.58,-91.97 113.45,-83.88"/>
<polygon fill="midnightblue" stroke="midnightblue" points="116.4,-85.79 119.67,-75.71 110.83,-81.55 116.4,-85.79"/>
</g>
<!-- Node5 -->
<g id="node5" class="node">
<title>Node5</title>
<g id="a_node5"><a xlink:href="types_8h.html" target="_top" xlink:title="Types defined by the ANT+ FIT SDK.">
<polygon fill="none" stroke="black" points="106.5,-112.5 106.5,-131.5 159.5,-131.5 159.5,-112.5 106.5,-112.5"/>
<text text-anchor="middle" x="133" y="-119.5" font-family="Helvetica,sans-Serif" font-size="10.00">types.h</text>
</a>
</g>
</g>
<!-- Node2&#45;&gt;Node5 -->
<g id="edge4" class="edge">
<title>Node2&#45;&gt;Node5</title>
<path fill="none" stroke="midnightblue" d="M92.09,-168.08C99.16,-160.3 109.59,-148.8 118.15,-139.37"/>
<polygon fill="midnightblue" stroke="midnightblue" points="120.93,-141.51 125.06,-131.75 115.75,-136.8 120.93,-141.51"/>
</g>
<!-- Node4 -->
<g id="node4" class="node">
<title>Node4</title>
<g id="a_node4"><a xlink:title=" ">
<polygon fill="none" stroke="#bfbfbf" points="97.5,-0.5 97.5,-19.5 156.5,-19.5 156.5,-0.5 97.5,-0.5"/>
<text text-anchor="middle" x="127" y="-7.5" font-family="Helvetica,sans-Serif" font-size="10.00">QtGlobal</text>
</a>
</g>
</g>
<!-- Node3&#45;&gt;Node4 -->
<g id="edge3" class="edge">
<title>Node3&#45;&gt;Node4</title>
<path fill="none" stroke="midnightblue" d="M127,-56.08C127,-49.01 127,-38.86 127,-29.99"/>
<polygon fill="midnightblue" stroke="midnightblue" points="130.5,-29.75 127,-19.75 123.5,-29.75 130.5,-29.75"/>
</g>
<!-- Node5&#45;&gt;Node3 -->
<g id="edge5" class="edge">
<title>Node5&#45;&gt;Node3</title>
<path fill="none" stroke="midnightblue" d="M132.01,-112.08C131.21,-104.93 130.07,-94.64 129.08,-85.69"/>
<polygon fill="midnightblue" stroke="midnightblue" points="132.56,-85.3 127.97,-75.75 125.6,-86.08 132.56,-85.3"/>
</g>
<!-- Node5&#45;&gt;Node6 -->
<g id="edge6" class="edge">
<title>Node5&#45;&gt;Node6</title>
<path fill="none" stroke="midnightblue" d="M116.13,-112.32C99.29,-103.66 73.19,-90.24 53.76,-80.25"/>
<polygon fill="midnightblue" stroke="midnightblue" points="55.32,-77.12 44.83,-75.65 52.12,-83.34 55.32,-77.12"/>
</g>
<!-- Node7&#45;&gt;Node2 -->
<g id="edge8" class="edge">
<title>Node7&#45;&gt;Node2</title>
<path fill="none" stroke="midnightblue" d="M172.97,-224.32C155.97,-215.66 129.62,-202.24 110.01,-192.25"/>
<polygon fill="midnightblue" stroke="midnightblue" points="111.49,-189.08 100.99,-187.65 108.31,-195.31 111.49,-189.08"/>
</g>
<!-- Node8 -->
<g id="node8" class="node">
<title>Node8</title>
<g id="a_node8"><a xlink:title=" ">
<polygon fill="none" stroke="#bfbfbf" points="270,-168.5 270,-187.5 338,-187.5 338,-168.5 270,-168.5"/>
<text text-anchor="middle" x="304" y="-175.5" font-family="Helvetica,sans-Serif" font-size="10.00">QIODevice</text>
</a>
</g>
</g>
<!-- Node7&#45;&gt;Node8 -->
<g id="edge9" class="edge">
<title>Node7&#45;&gt;Node8</title>
<path fill="none" stroke="midnightblue" d="M208.06,-224.44C226.57,-215.68 255.58,-201.94 276.86,-191.86"/>
<polygon fill="midnightblue" stroke="midnightblue" points="278.48,-194.96 286.02,-187.52 275.49,-188.63 278.48,-194.96"/>
</g>
<!-- Node9 -->
<g id="node9" class="node">
<title>Node9</title>
<g id="a_node9"><a xlink:title=" ">
<polygon fill="none" stroke="#bfbfbf" points="152.5,-168.5 152.5,-187.5 251.5,-187.5 251.5,-168.5 152.5,-168.5"/>
<text text-anchor="middle" x="202" y="-175.5" font-family="Helvetica,sans-Serif" font-size="10.00">QVersionNumber</text>
</a>
</g>
</g>
<!-- Node7&#45;&gt;Node9 -->
<g id="edge10" class="edge">
<title>Node7&#45;&gt;Node9</title>
<path fill="none" stroke="midnightblue" d="M191.98,-224.08C193.57,-216.93 195.86,-206.64 197.85,-197.69"/>
<polygon fill="midnightblue" stroke="midnightblue" points="201.3,-198.27 200.06,-187.75 194.47,-196.75 201.3,-198.27"/>
</g>
<!-- Node10&#45;&gt;Node8 -->
<g id="edge17" class="edge">
<title>Node10&#45;&gt;Node8</title>
<path fill="none" stroke="midnightblue" d="M313.18,-224.08C311.73,-216.93 309.63,-206.64 307.81,-197.69"/>
<polygon fill="midnightblue" stroke="midnightblue" points="311.21,-196.85 305.78,-187.75 304.35,-198.25 311.21,-196.85"/>
</g>
<!-- Node10&#45;&gt;Node9 -->
<g id="edge18" class="edge">
<title>Node10&#45;&gt;Node9</title>
<path fill="none" stroke="midnightblue" d="M297.09,-224.44C278.75,-215.68 249.99,-201.94 228.91,-191.86"/>
<polygon fill="midnightblue" stroke="midnightblue" points="230.35,-188.67 219.82,-187.52 227.33,-194.99 230.35,-188.67"/>
</g>
<!-- Node11 -->
<g id="node11" class="node">
<title>Node11</title>
<g id="a_node11"><a xlink:href="types__p_8h.html" target="_top" xlink:title=" ">
<polygon fill="none" stroke="black" points="356,-168.5 356,-187.5 420,-187.5 420,-168.5 356,-168.5"/>
<text text-anchor="middle" x="388" y="-175.5" font-family="Helvetica,sans-Serif" font-size="10.00">types_p.h</text>
</a>
</g>
</g>
<!-- Node10&#45;&gt;Node11 -->
<g id="edge12" class="edge">
<title>Node10&#45;&gt;Node11</title>
<path fill="none" stroke="midnightblue" d="M326.73,-224.32C337.84,-216.11 354.74,-203.6 367.98,-193.81"/>
<polygon fill="midnightblue" stroke="midnightblue" points="370.1,-196.59 376.06,-187.83 365.94,-190.97 370.1,-196.59"/>
</g>
<!-- Node13 -->
<g id="node13" class="node">
<title>Node13</title>
<g id="a_node13"><a xlink:title=" ">
<polygon fill="none" stroke="#bfbfbf" points="438.5,-168.5 438.5,-187.5 511.5,-187.5 511.5,-168.5 438.5,-168.5"/>
<text text-anchor="middle" x="475" y="-175.5" font-family="Helvetica,sans-Serif" font-size="10.00">QByteArray</text>
</a>
</g>
</g>
<!-- Node10&#45;&gt;Node13 -->
<g id="edge15" class="edge">
<title>Node10&#45;&gt;Node13</title>
<path fill="none" stroke="midnightblue" d="M340.35,-224.44C367.27,-215.36 410,-200.94 440.09,-190.78"/>
<polygon fill="midnightblue" stroke="midnightblue" points="441.41,-194.03 449.77,-187.52 439.17,-187.4 441.41,-194.03"/>
</g>
<!-- Node14 -->
<g id="node14" class="node">
<title>Node14</title>
<g id="a_node14"><a xlink:title=" ">
<polygon fill="none" stroke="#bfbfbf" points="529.5,-168.5 529.5,-187.5 578.5,-187.5 578.5,-168.5 529.5,-168.5"/>
<text text-anchor="middle" x="554" y="-175.5" font-family="Helvetica,sans-Serif" font-size="10.00">QHash</text>
</a>
</g>
</g>
<!-- Node10&#45;&gt;Node14 -->
<g id="edge16" class="edge">
<title>Node10&#45;&gt;Node14</title>
<path fill="none" stroke="midnightblue" d="M356.97,-224.49C396.58,-216.31 457.85,-203.28 519.31,-188.33"/>
<polygon fill="midnightblue" stroke="midnightblue" points="520.29,-191.7 529.17,-185.92 518.62,-184.9 520.29,-191.7"/>
</g>
<!-- Node11&#45;&gt;Node5 -->
<g id="edge13" class="edge">
<title>Node11&#45;&gt;Node5</title>
<path fill="none" stroke="midnightblue" d="M355.78,-169.9C352.81,-169.25 349.85,-168.61 347,-168 284.76,-154.63 212.25,-139.47 169.62,-130.6"/>
<polygon fill="midnightblue" stroke="midnightblue" points="170.21,-127.15 159.71,-128.54 168.78,-134 170.21,-127.15"/>
</g>
<!-- Node12 -->
<g id="node12" class="node">
<title>Node12</title>
<g id="a_node12"><a xlink:title=" ">
<polygon fill="none" stroke="#bfbfbf" points="367.5,-112.5 367.5,-131.5 408.5,-131.5 408.5,-112.5 367.5,-112.5"/>
<text text-anchor="middle" x="388" y="-119.5" font-family="Helvetica,sans-Serif" font-size="10.00">QList</text>
</a>
</g>
</g>
<!-- Node11&#45;&gt;Node12 -->
<g id="edge14" class="edge">
<title>Node11&#45;&gt;Node12</title>
<path fill="none" stroke="midnightblue" d="M388,-168.08C388,-161.01 388,-150.86 388,-141.99"/>
<polygon fill="midnightblue" stroke="midnightblue" points="391.5,-141.75 388,-131.75 384.5,-141.75 391.5,-141.75"/>
</g>
</g>
</svg>
