<?xml version="1.0" encoding="UTF-8" standalone="no"?>
<!DOCTYPE svg PUBLIC "-//W3C//DTD SVG 1.1//EN"
 "http://www.w3.org/Graphics/SVG/1.1/DTD/svg11.dtd">
<!-- Generated by graphviz version 2.43.0 (0)
 -->
<!-- Title: fitstreamreader.cpp Pages: 1 -->
<svg width="637pt" height="308pt"
 viewBox="0.00 0.00 636.50 308.00" xmlns="http://www.w3.org/2000/svg" xmlns:xlink="http://www.w3.org/1999/xlink">
<g id="graph0" class="graph" transform="scale(1 1) rotate(0) translate(4 304)">
<title>fitstreamreader.cpp</title>
<!-- Node1 -->
<g id="node1" class="node">
<title>Node1</title>
<g id="a_node1"><a xlink:title="Defines the FitStreamReader, and FitStreamReaderPrivate classes.">
<polygon fill="#bfbfbf" stroke="black" points="246,-280.5 246,-299.5 358,-299.5 358,-280.5 246,-280.5"/>
<text text-anchor="middle" x="302" y="-287.5" font-family="Helvetica,sans-Serif" font-size="10.00">fitstreamreader.cpp</text>
</a>
</g>
</g>
<!-- Node2 -->
<g id="node2" class="node">
<title>Node2</title>
<g id="a_node2"><a xlink:href="abstractdatamessage_8h.html" target="_top" xlink:title="Declares the AbstractDataMessage class.">
<polygon fill="none" stroke="black" points="53.5,-168.5 53.5,-187.5 184.5,-187.5 184.5,-168.5 53.5,-168.5"/>
<text text-anchor="middle" x="119" y="-175.5" font-family="Helvetica,sans-Serif" font-size="10.00">abstractdatamessage.h</text>
</a>
</g>
</g>
<!-- Node1&#45;&gt;Node2 -->
<g id="edge1" class="edge">
<title>Node1&#45;&gt;Node2</title>
<path fill="none" stroke="midnightblue" d="M266.05,-280.49C240.61,-273.37 206.44,-261.52 180,-244 160.34,-230.97 142.48,-210.43 131.23,-195.93"/>
<polygon fill="midnightblue" stroke="midnightblue" points="133.93,-193.69 125.13,-187.8 128.33,-197.9 133.93,-193.69"/>
</g>
<!-- Node6 -->
<g id="node6" class="node">
<title>Node6</title>
<g id="a_node6"><a xlink:title=" ">
<polygon fill="none" stroke="#bfbfbf" points="0,-56.5 0,-75.5 56,-75.5 56,-56.5 0,-56.5"/>
<text text-anchor="middle" x="28" y="-63.5" font-family="Helvetica,sans-Serif" font-size="10.00">QDebug</text>
</a>
</g>
</g>
<!-- Node1&#45;&gt;Node6 -->
<g id="edge19" class="edge">
<title>Node1&#45;&gt;Node6</title>
<path fill="none" stroke="midnightblue" d="M245.86,-284.5C184.91,-276.3 90.11,-253.19 44,-188 22.35,-157.4 22.98,-111.31 25.44,-85.75"/>
<polygon fill="midnightblue" stroke="midnightblue" points="28.94,-85.92 26.62,-75.58 21.99,-85.11 28.94,-85.92"/>
</g>
<!-- Node7 -->
<g id="node7" class="node">
<title>Node7</title>
<g id="a_node7"><a xlink:href="fitstreamreader_8h.html" target="_top" xlink:title="Declares the FitStreamReader class.">
<polygon fill="none" stroke="black" points="189.5,-224.5 189.5,-243.5 290.5,-243.5 290.5,-224.5 189.5,-224.5"/>
<text text-anchor="middle" x="240" y="-231.5" font-family="Helvetica,sans-Serif" font-size="10.00">fitstreamreader.h</text>
</a>
</g>
</g>
<!-- Node1&#45;&gt;Node7 -->
<g id="edge7" class="edge">
<title>Node1&#45;&gt;Node7</title>
<path fill="none" stroke="midnightblue" d="M292.04,-280.32C282.87,-272.34 269.06,-260.31 257.97,-250.65"/>
<polygon fill="midnightblue" stroke="midnightblue" points="259.98,-247.76 250.14,-243.83 255.38,-253.04 259.98,-247.76"/>
</g>
<!-- Node10 -->
<g id="node10" class="node">
<title>Node10</title>
<g id="a_node10"><a xlink:href="fitstreamreader__p_8h.html" target="_top" xlink:title="Declares the FitStreamReaderPrivate class.">
<polygon fill="none" stroke="black" points="308.5,-224.5 308.5,-243.5 421.5,-243.5 421.5,-224.5 308.5,-224.5"/>
<text text-anchor="middle" x="365" y="-231.5" font-family="Helvetica,sans-Serif" font-size="10.00">fitstreamreader_p.h</text>
</a>
</g>
</g>
<!-- Node1&#45;&gt;Node10 -->
<g id="edge11" class="edge">
<title>Node1&#45;&gt;Node10</title>
<path fill="none" stroke="midnightblue" d="M312.12,-280.32C321.53,-272.26 335.74,-260.08 347.07,-250.37"/>
<polygon fill="midnightblue" stroke="midnightblue" points="349.38,-253 354.69,-243.83 344.82,-247.68 349.38,-253"/>
</g>
<!-- Node15 -->
<g id="node15" class="node">
<title>Node15</title>
<g id="a_node15"><a xlink:title=" ">
<polygon fill="none" stroke="#bfbfbf" points="440,-224.5 440,-243.5 504,-243.5 504,-224.5 440,-224.5"/>
<text text-anchor="middle" x="472" y="-231.5" font-family="Helvetica,sans-Serif" font-size="10.00">QBitArray</text>
</a>
</g>
</g>
<!-- Node1&#45;&gt;Node15 -->
<g id="edge20" class="edge">
<title>Node1&#45;&gt;Node15</title>
<path fill="none" stroke="midnightblue" d="M328.94,-280.44C357.66,-271.32 403.33,-256.81 435.32,-246.65"/>
<polygon fill="midnightblue" stroke="midnightblue" points="436.72,-249.88 445.19,-243.52 434.6,-243.21 436.72,-249.88"/>
</g>
<!-- Node16 -->
<g id="node16" class="node">
<title>Node16</title>
<g id="a_node16"><a xlink:title=" ">
<polygon fill="none" stroke="#bfbfbf" points="522.5,-224.5 522.5,-243.5 583.5,-243.5 583.5,-224.5 522.5,-224.5"/>
<text text-anchor="middle" x="553" y="-231.5" font-family="Helvetica,sans-Serif" font-size="10.00">QtEndian</text>
</a>
</g>
</g>
<!-- Node1&#45;&gt;Node16 -->
<g id="edge21" class="edge">
<title>Node1&#45;&gt;Node16</title>
<path fill="none" stroke="midnightblue" d="M342.87,-280.42C383.32,-271.91 447.28,-258.35 512.4,-244.11"/>
<polygon fill="midnightblue" stroke="midnightblue" points="513.41,-247.47 522.43,-241.91 511.92,-240.64 513.41,-247.47"/>
</g>
<!-- Node3 -->
<g id="node3" class="node">
<title>Node3</title>
<g id="a_node3"><a xlink:href="QtFit__global_8h.html" target="_top" xlink:title="Global QtFit library macros.">
<polygon fill="none" stroke="black" points="75,-56.5 75,-75.5 159,-75.5 159,-56.5 75,-56.5"/>
<text text-anchor="middle" x="117" y="-63.5" font-family="Helvetica,sans-Serif" font-size="10.00">QtFit_global.h</text>
</a>
</g>
</g>
<!-- Node2&#45;&gt;Node3 -->
<g id="edge2" class="edge">
<title>Node2&#45;&gt;Node3</title>
<path fill="none" stroke="midnightblue" d="M116.52,-168.47C114.04,-159.48 110.41,-144.89 109,-132 107.29,-116.44 109.73,-98.82 112.36,-85.85"/>
<polygon fill="midnightblue" stroke="midnightblue" points="115.83,-86.35 114.61,-75.82 109,-84.81 115.83,-86.35"/>
</g>
<!-- Node5 -->
<g id="node5" class="node">
<title>Node5</title>
<g id="a_node5"><a xlink:href="types_8h.html" target="_top" xlink:title="Types defined by the ANT+ FIT SDK.">
<polygon fill="none" stroke="black" points="118.5,-112.5 118.5,-131.5 171.5,-131.5 171.5,-112.5 118.5,-112.5"/>
<text text-anchor="middle" x="145" y="-119.5" font-family="Helvetica,sans-Serif" font-size="10.00">types.h</text>
</a>
</g>
</g>
<!-- Node2&#45;&gt;Node5 -->
<g id="edge4" class="edge">
<title>Node2&#45;&gt;Node5</title>
<path fill="none" stroke="midnightblue" d="M123.29,-168.08C126.85,-160.69 132.02,-149.95 136.42,-140.81"/>
<polygon fill="midnightblue" stroke="midnightblue" points="139.6,-142.28 140.79,-131.75 133.29,-139.24 139.6,-142.28"/>
</g>
<!-- Node4 -->
<g id="node4" class="node">
<title>Node4</title>
<g id="a_node4"><a xlink:title=" ">
<polygon fill="none" stroke="#bfbfbf" points="87.5,-0.5 87.5,-19.5 146.5,-19.5 146.5,-0.5 87.5,-0.5"/>
<text text-anchor="middle" x="117" y="-7.5" font-family="Helvetica,sans-Serif" font-size="10.00">QtGlobal</text>
</a>
</g>
</g>
<!-- Node3&#45;&gt;Node4 -->
<g id="edge3" class="edge">
<title>Node3&#45;&gt;Node4</title>
<path fill="none" stroke="midnightblue" d="M117,-56.08C117,-49.01 117,-38.86 117,-29.99"/>
<polygon fill="midnightblue" stroke="midnightblue" points="120.5,-29.75 117,-19.75 113.5,-29.75 120.5,-29.75"/>
</g>
<!-- Node5&#45;&gt;Node3 -->
<g id="edge5" class="edge">
<title>Node5&#45;&gt;Node3</title>
<path fill="none" stroke="midnightblue" d="M140.38,-112.08C136.54,-104.69 130.98,-93.95 126.24,-84.81"/>
<polygon fill="midnightblue" stroke="midnightblue" points="129.25,-83.02 121.54,-75.75 123.03,-86.24 129.25,-83.02"/>
</g>
<!-- Node5&#45;&gt;Node6 -->
<g id="edge6" class="edge">
<title>Node5&#45;&gt;Node6</title>
<path fill="none" stroke="midnightblue" d="M126.46,-112.44C107.38,-103.64 77.43,-89.81 55.56,-79.72"/>
<polygon fill="midnightblue" stroke="midnightblue" points="57,-76.53 46.45,-75.52 54.07,-82.88 57,-76.53"/>
</g>
<!-- Node7&#45;&gt;Node2 -->
<g id="edge8" class="edge">
<title>Node7&#45;&gt;Node2</title>
<path fill="none" stroke="midnightblue" d="M220.83,-224.44C201.09,-215.64 170.11,-201.81 147.51,-191.72"/>
<polygon fill="midnightblue" stroke="midnightblue" points="148.64,-188.4 138.08,-187.52 145.79,-194.79 148.64,-188.4"/>
</g>
<!-- Node8 -->
<g id="node8" class="node">
<title>Node8</title>
<g id="a_node8"><a xlink:title=" ">
<polygon fill="none" stroke="#bfbfbf" points="320,-168.5 320,-187.5 388,-187.5 388,-168.5 320,-168.5"/>
<text text-anchor="middle" x="354" y="-175.5" font-family="Helvetica,sans-Serif" font-size="10.00">QIODevice</text>
</a>
</g>
</g>
<!-- Node7&#45;&gt;Node8 -->
<g id="edge9" class="edge">
<title>Node7&#45;&gt;Node8</title>
<path fill="none" stroke="midnightblue" d="M258.06,-224.44C276.57,-215.68 305.58,-201.94 326.86,-191.86"/>
<polygon fill="midnightblue" stroke="midnightblue" points="328.48,-194.96 336.02,-187.52 325.49,-188.63 328.48,-194.96"/>
</g>
<!-- Node9 -->
<g id="node9" class="node">
<title>Node9</title>
<g id="a_node9"><a xlink:title=" ">
<polygon fill="none" stroke="#bfbfbf" points="202.5,-168.5 202.5,-187.5 301.5,-187.5 301.5,-168.5 202.5,-168.5"/>
<text text-anchor="middle" x="252" y="-175.5" font-family="Helvetica,sans-Serif" font-size="10.00">QVersionNumber</text>
</a>
</g>
</g>
<!-- Node7&#45;&gt;Node9 -->
<g id="edge10" class="edge">
<title>Node7&#45;&gt;Node9</title>
<path fill="none" stroke="midnightblue" d="M241.98,-224.08C243.57,-216.93 245.86,-206.64 247.85,-197.69"/>
<polygon fill="midnightblue" stroke="midnightblue" points="251.3,-198.27 250.06,-187.75 244.47,-196.75 251.3,-198.27"/>
</g>
<!-- Node10&#45;&gt;Node8 -->
<g id="edge17" class="edge">
<title>Node10&#45;&gt;Node8</title>
<path fill="none" stroke="midnightblue" d="M363.18,-224.08C361.73,-216.93 359.63,-206.64 357.81,-197.69"/>
<polygon fill="midnightblue" stroke="midnightblue" points="361.21,-196.85 355.78,-187.75 354.35,-198.25 361.21,-196.85"/>
</g>
<!-- Node10&#45;&gt;Node9 -->
<g id="edge18" class="edge">
<title>Node10&#45;&gt;Node9</title>
<path fill="none" stroke="midnightblue" d="M347.09,-224.44C328.75,-215.68 299.99,-201.94 278.91,-191.86"/>
<polygon fill="midnightblue" stroke="midnightblue" points="280.35,-188.67 269.82,-187.52 277.33,-194.99 280.35,-188.67"/>
</g>
<!-- Node11 -->
<g id="node11" class="node">
<title>Node11</title>
<g id="a_node11"><a xlink:href="types__p_8h.html" target="_top" xlink:title="Internal types used by QtFit classes.">
<polygon fill="none" stroke="black" points="406,-168.5 406,-187.5 470,-187.5 470,-168.5 406,-168.5"/>
<text text-anchor="middle" x="438" y="-175.5" font-family="Helvetica,sans-Serif" font-size="10.00">types_p.h</text>
</a>
</g>
</g>
<!-- Node10&#45;&gt;Node11 -->
<g id="edge12" class="edge">
<title>Node10&#45;&gt;Node11</title>
<path fill="none" stroke="midnightblue" d="M376.73,-224.32C387.84,-216.11 404.74,-203.6 417.98,-193.81"/>
<polygon fill="midnightblue" stroke="midnightblue" points="420.1,-196.59 426.06,-187.83 415.94,-190.97 420.1,-196.59"/>
</g>
<!-- Node13 -->
<g id="node13" class="node">
<title>Node13</title>
<g id="a_node13"><a xlink:title=" ">
<polygon fill="none" stroke="#bfbfbf" points="488.5,-168.5 488.5,-187.5 561.5,-187.5 561.5,-168.5 488.5,-168.5"/>
<text text-anchor="middle" x="525" y="-175.5" font-family="Helvetica,sans-Serif" font-size="10.00">QByteArray</text>
</a>
</g>
</g>
<!-- Node10&#45;&gt;Node13 -->
<g id="edge15" class="edge">
<title>Node10&#45;&gt;Node13</title>
<path fill="none" stroke="midnightblue" d="M390.35,-224.44C417.27,-215.36 460,-200.94 490.09,-190.78"/>
<polygon fill="midnightblue" stroke="midnightblue" points="491.41,-194.03 499.77,-187.52 489.17,-187.4 491.41,-194.03"/>
</g>
<!-- Node14 -->
<g id="node14" class="node">
<title>Node14</title>
<g id="a_node14"><a xlink:title=" ">
<polygon fill="none" stroke="#bfbfbf" points="579.5,-168.5 579.5,-187.5 628.5,-187.5 628.5,-168.5 579.5,-168.5"/>
<text text-anchor="middle" x="604" y="-175.5" font-family="Helvetica,sans-Serif" font-size="10.00">QHash</text>
</a>
</g>
</g>
<!-- Node10&#45;&gt;Node14 -->
<g id="edge16" class="edge">
<title>Node10&#45;&gt;Node14</title>
<path fill="none" stroke="midnightblue" d="M406.97,-224.49C446.58,-216.31 507.85,-203.28 569.31,-188.33"/>
<polygon fill="midnightblue" stroke="midnightblue" points="570.29,-191.7 579.17,-185.92 568.62,-184.9 570.29,-191.7"/>
</g>
<!-- Node11&#45;&gt;Node5 -->
<g id="edge13" class="edge">
<title>Node11&#45;&gt;Node5</title>
<path fill="none" stroke="midnightblue" d="M405.8,-169.81C402.83,-169.18 399.86,-168.57 397,-168 320.66,-152.81 230.82,-137.34 181.69,-129.09"/>
<polygon fill="midnightblue" stroke="midnightblue" points="181.99,-125.59 171.55,-127.39 180.83,-132.49 181.99,-125.59"/>
</g>
<!-- Node12 -->
<g id="node12" class="node">
<title>Node12</title>
<g id="a_node12"><a xlink:title=" ">
<polygon fill="none" stroke="#bfbfbf" points="417.5,-112.5 417.5,-131.5 458.5,-131.5 458.5,-112.5 417.5,-112.5"/>
<text text-anchor="middle" x="438" y="-119.5" font-family="Helvetica,sans-Serif" font-size="10.00">QList</text>
</a>
</g>
</g>
<!-- Node11&#45;&gt;Node12 -->
<g id="edge14" class="edge">
<title>Node11&#45;&gt;Node12</title>
<path fill="none" stroke="midnightblue" d="M438,-168.08C438,-161.01 438,-150.86 438,-141.99"/>
<polygon fill="midnightblue" stroke="midnightblue" points="441.5,-141.75 438,-131.75 434.5,-141.75 441.5,-141.75"/>
</g>
</g>
</svg>
