<?xml version="1.0" encoding="UTF-8" standalone="no"?>
<!DOCTYPE svg PUBLIC "-//W3C//DTD SVG 1.1//EN"
 "http://www.w3.org/Graphics/SVG/1.1/DTD/svg11.dtd">
<!-- Generated by graphviz version 2.43.0 (0)
 -->
<!-- Title: fitstreamreader.cpp Pages: 1 -->
<svg width="579pt" height="308pt"
 viewBox="0.00 0.00 579.00 308.00" xmlns="http://www.w3.org/2000/svg" xmlns:xlink="http://www.w3.org/1999/xlink">
<g id="graph0" class="graph" transform="scale(1 1) rotate(0) translate(4 304)">
<title>fitstreamreader.cpp</title>
<!-- Node1 -->
<g id="node1" class="node">
<title>Node1</title>
<g id="a_node1"><a xlink:title=" ">
<polygon fill="#bfbfbf" stroke="black" points="325.5,-280.5 325.5,-299.5 437.5,-299.5 437.5,-280.5 325.5,-280.5"/>
<text text-anchor="middle" x="381.5" y="-287.5" font-family="Helvetica,sans-Serif" font-size="10.00">fitstreamreader.cpp</text>
</a>
</g>
</g>
<!-- Node2 -->
<g id="node2" class="node">
<title>Node2</title>
<g id="a_node2"><a xlink:href="fitstreamreader_8h.html" target="_top" xlink:title=" ">
<polygon fill="none" stroke="black" points="103,-224.5 103,-243.5 204,-243.5 204,-224.5 103,-224.5"/>
<text text-anchor="middle" x="153.5" y="-231.5" font-family="Helvetica,sans-Serif" font-size="10.00">fitstreamreader.h</text>
</a>
</g>
</g>
<!-- Node1&#45;&gt;Node2 -->
<g id="edge1" class="edge">
<title>Node1&#45;&gt;Node2</title>
<path fill="none" stroke="midnightblue" d="M345.37,-280.44C305.85,-271.08 242.4,-256.06 199.39,-245.87"/>
<polygon fill="midnightblue" stroke="midnightblue" points="200,-242.42 189.46,-243.52 198.38,-249.23 200,-242.42"/>
</g>
<!-- Node9 -->
<g id="node9" class="node">
<title>Node9</title>
<g id="a_node9"><a xlink:href="fitstreamreader__p_8h.html" target="_top" xlink:title=" ">
<polygon fill="none" stroke="black" points="222,-224.5 222,-243.5 335,-243.5 335,-224.5 222,-224.5"/>
<text text-anchor="middle" x="278.5" y="-231.5" font-family="Helvetica,sans-Serif" font-size="10.00">fitstreamreader_p.h</text>
</a>
</g>
</g>
<!-- Node1&#45;&gt;Node9 -->
<g id="edge9" class="edge">
<title>Node1&#45;&gt;Node9</title>
<path fill="none" stroke="midnightblue" d="M364.95,-280.32C348.51,-271.7 323.07,-258.36 304.03,-248.39"/>
<polygon fill="midnightblue" stroke="midnightblue" points="305.49,-245.2 295.01,-243.65 302.24,-251.4 305.49,-245.2"/>
</g>
<!-- Node14 -->
<g id="node14" class="node">
<title>Node14</title>
<g id="a_node14"><a xlink:title=" ">
<polygon fill="none" stroke="#bfbfbf" points="353.5,-224.5 353.5,-243.5 409.5,-243.5 409.5,-224.5 353.5,-224.5"/>
<text text-anchor="middle" x="381.5" y="-231.5" font-family="Helvetica,sans-Serif" font-size="10.00">QDebug</text>
</a>
</g>
</g>
<!-- Node1&#45;&gt;Node14 -->
<g id="edge18" class="edge">
<title>Node1&#45;&gt;Node14</title>
<path fill="none" stroke="midnightblue" d="M381.5,-280.08C381.5,-273.01 381.5,-262.86 381.5,-253.99"/>
<polygon fill="midnightblue" stroke="midnightblue" points="385,-253.75 381.5,-243.75 378,-253.75 385,-253.75"/>
</g>
<!-- Node15 -->
<g id="node15" class="node">
<title>Node15</title>
<g id="a_node15"><a xlink:title=" ">
<polygon fill="none" stroke="#bfbfbf" points="427.5,-224.5 427.5,-243.5 491.5,-243.5 491.5,-224.5 427.5,-224.5"/>
<text text-anchor="middle" x="459.5" y="-231.5" font-family="Helvetica,sans-Serif" font-size="10.00">QBitArray</text>
</a>
</g>
</g>
<!-- Node1&#45;&gt;Node15 -->
<g id="edge19" class="edge">
<title>Node1&#45;&gt;Node15</title>
<path fill="none" stroke="midnightblue" d="M394.03,-280.32C406.09,-271.98 424.53,-259.21 438.77,-249.35"/>
<polygon fill="midnightblue" stroke="midnightblue" points="440.77,-252.22 447,-243.65 436.78,-246.47 440.77,-252.22"/>
</g>
<!-- Node16 -->
<g id="node16" class="node">
<title>Node16</title>
<g id="a_node16"><a xlink:title=" ">
<polygon fill="none" stroke="#bfbfbf" points="510,-224.5 510,-243.5 571,-243.5 571,-224.5 510,-224.5"/>
<text text-anchor="middle" x="540.5" y="-231.5" font-family="Helvetica,sans-Serif" font-size="10.00">QtEndian</text>
</a>
</g>
</g>
<!-- Node1&#45;&gt;Node16 -->
<g id="edge20" class="edge">
<title>Node1&#45;&gt;Node16</title>
<path fill="none" stroke="midnightblue" d="M406.69,-280.44C433.44,-271.36 475.9,-256.94 505.81,-246.78"/>
<polygon fill="midnightblue" stroke="midnightblue" points="507.08,-250.05 515.42,-243.52 504.83,-243.42 507.08,-250.05"/>
</g>
<!-- Node3 -->
<g id="node3" class="node">
<title>Node3</title>
<g id="a_node3"><a xlink:href="fitdatamessage_8h.html" target="_top" xlink:title=" ">
<polygon fill="none" stroke="black" points="0,-168.5 0,-187.5 101,-187.5 101,-168.5 0,-168.5"/>
<text text-anchor="middle" x="50.5" y="-175.5" font-family="Helvetica,sans-Serif" font-size="10.00">fitdatamessage.h</text>
</a>
</g>
</g>
<!-- Node2&#45;&gt;Node3 -->
<g id="edge2" class="edge">
<title>Node2&#45;&gt;Node3</title>
<path fill="none" stroke="midnightblue" d="M136.95,-224.32C120.51,-215.7 95.07,-202.36 76.03,-192.39"/>
<polygon fill="midnightblue" stroke="midnightblue" points="77.49,-189.2 67.01,-187.65 74.24,-195.4 77.49,-189.2"/>
</g>
<!-- Node7 -->
<g id="node7" class="node">
<title>Node7</title>
<g id="a_node7"><a xlink:title=" ">
<polygon fill="none" stroke="#bfbfbf" points="119.5,-168.5 119.5,-187.5 187.5,-187.5 187.5,-168.5 119.5,-168.5"/>
<text text-anchor="middle" x="153.5" y="-175.5" font-family="Helvetica,sans-Serif" font-size="10.00">QIODevice</text>
</a>
</g>
</g>
<!-- Node2&#45;&gt;Node7 -->
<g id="edge7" class="edge">
<title>Node2&#45;&gt;Node7</title>
<path fill="none" stroke="midnightblue" d="M153.5,-224.08C153.5,-217.01 153.5,-206.86 153.5,-197.99"/>
<polygon fill="midnightblue" stroke="midnightblue" points="157,-197.75 153.5,-187.75 150,-197.75 157,-197.75"/>
</g>
<!-- Node8 -->
<g id="node8" class="node">
<title>Node8</title>
<g id="a_node8"><a xlink:title=" ">
<polygon fill="none" stroke="#bfbfbf" points="206,-168.5 206,-187.5 305,-187.5 305,-168.5 206,-168.5"/>
<text text-anchor="middle" x="255.5" y="-175.5" font-family="Helvetica,sans-Serif" font-size="10.00">QVersionNumber</text>
</a>
</g>
</g>
<!-- Node2&#45;&gt;Node8 -->
<g id="edge8" class="edge">
<title>Node2&#45;&gt;Node8</title>
<path fill="none" stroke="midnightblue" d="M169.89,-224.32C186.17,-215.7 211.37,-202.36 230.22,-192.39"/>
<polygon fill="midnightblue" stroke="midnightblue" points="231.95,-195.43 239.15,-187.65 228.68,-189.24 231.95,-195.43"/>
</g>
<!-- Node4 -->
<g id="node4" class="node">
<title>Node4</title>
<g id="a_node4"><a xlink:href="QtFit__global_8h.html" target="_top" xlink:title=" ">
<polygon fill="none" stroke="black" points="35.5,-56.5 35.5,-75.5 119.5,-75.5 119.5,-56.5 35.5,-56.5"/>
<text text-anchor="middle" x="77.5" y="-63.5" font-family="Helvetica,sans-Serif" font-size="10.00">QtFit_global.h</text>
</a>
</g>
</g>
<!-- Node3&#45;&gt;Node4 -->
<g id="edge3" class="edge">
<title>Node3&#45;&gt;Node4</title>
<path fill="none" stroke="midnightblue" d="M52.62,-168.37C56.98,-150.62 67.03,-109.67 72.94,-85.6"/>
<polygon fill="midnightblue" stroke="midnightblue" points="76.41,-86.14 75.39,-75.59 69.61,-84.47 76.41,-86.14"/>
</g>
<!-- Node6 -->
<g id="node6" class="node">
<title>Node6</title>
<g id="a_node6"><a xlink:href="types_8h.html" target="_top" xlink:title="Types defined by the ANT+ FIT SDK.">
<polygon fill="none" stroke="black" points="79,-112.5 79,-131.5 132,-131.5 132,-112.5 79,-112.5"/>
<text text-anchor="middle" x="105.5" y="-119.5" font-family="Helvetica,sans-Serif" font-size="10.00">types.h</text>
</a>
</g>
</g>
<!-- Node3&#45;&gt;Node6 -->
<g id="edge5" class="edge">
<title>Node3&#45;&gt;Node6</title>
<path fill="none" stroke="midnightblue" d="M59.58,-168.08C67.67,-160.14 79.7,-148.34 89.41,-138.8"/>
<polygon fill="midnightblue" stroke="midnightblue" points="91.9,-141.25 96.59,-131.75 87,-136.26 91.9,-141.25"/>
</g>
<!-- Node5 -->
<g id="node5" class="node">
<title>Node5</title>
<g id="a_node5"><a xlink:title=" ">
<polygon fill="none" stroke="#bfbfbf" points="48,-0.5 48,-19.5 107,-19.5 107,-0.5 48,-0.5"/>
<text text-anchor="middle" x="77.5" y="-7.5" font-family="Helvetica,sans-Serif" font-size="10.00">QtGlobal</text>
</a>
</g>
</g>
<!-- Node4&#45;&gt;Node5 -->
<g id="edge4" class="edge">
<title>Node4&#45;&gt;Node5</title>
<path fill="none" stroke="midnightblue" d="M77.5,-56.08C77.5,-49.01 77.5,-38.86 77.5,-29.99"/>
<polygon fill="midnightblue" stroke="midnightblue" points="81,-29.75 77.5,-19.75 74,-29.75 81,-29.75"/>
</g>
<!-- Node6&#45;&gt;Node4 -->
<g id="edge6" class="edge">
<title>Node6&#45;&gt;Node4</title>
<path fill="none" stroke="midnightblue" d="M100.88,-112.08C97.04,-104.69 91.48,-93.95 86.74,-84.81"/>
<polygon fill="midnightblue" stroke="midnightblue" points="89.75,-83.02 82.04,-75.75 83.53,-86.24 89.75,-83.02"/>
</g>
<!-- Node9&#45;&gt;Node3 -->
<g id="edge10" class="edge">
<title>Node9&#45;&gt;Node3</title>
<path fill="none" stroke="midnightblue" d="M242.37,-224.44C202.85,-215.08 139.4,-200.06 96.39,-189.87"/>
<polygon fill="midnightblue" stroke="midnightblue" points="97,-186.42 86.46,-187.52 95.38,-193.23 97,-186.42"/>
</g>
<!-- Node9&#45;&gt;Node7 -->
<g id="edge16" class="edge">
<title>Node9&#45;&gt;Node7</title>
<path fill="none" stroke="midnightblue" d="M258.69,-224.44C238.21,-215.6 206.02,-201.69 182.64,-191.59"/>
<polygon fill="midnightblue" stroke="midnightblue" points="183.78,-188.27 173.21,-187.52 181.01,-194.7 183.78,-188.27"/>
</g>
<!-- Node9&#45;&gt;Node8 -->
<g id="edge17" class="edge">
<title>Node9&#45;&gt;Node8</title>
<path fill="none" stroke="midnightblue" d="M274.7,-224.08C271.59,-216.77 267.08,-206.18 263.21,-197.1"/>
<polygon fill="midnightblue" stroke="midnightblue" points="266.37,-195.58 259.23,-187.75 259.93,-198.32 266.37,-195.58"/>
</g>
<!-- Node10 -->
<g id="node10" class="node">
<title>Node10</title>
<g id="a_node10"><a xlink:href="types__p_8h.html" target="_top" xlink:title=" ">
<polygon fill="none" stroke="black" points="323.5,-168.5 323.5,-187.5 387.5,-187.5 387.5,-168.5 323.5,-168.5"/>
<text text-anchor="middle" x="355.5" y="-175.5" font-family="Helvetica,sans-Serif" font-size="10.00">types_p.h</text>
</a>
</g>
</g>
<!-- Node9&#45;&gt;Node10 -->
<g id="edge11" class="edge">
<title>Node9&#45;&gt;Node10</title>
<path fill="none" stroke="midnightblue" d="M290.87,-224.32C302.66,-216.06 320.63,-203.45 334.64,-193.63"/>
<polygon fill="midnightblue" stroke="midnightblue" points="336.98,-196.26 343.16,-187.65 332.96,-190.53 336.98,-196.26"/>
</g>
<!-- Node12 -->
<g id="node12" class="node">
<title>Node12</title>
<g id="a_node12"><a xlink:title=" ">
<polygon fill="none" stroke="#bfbfbf" points="406,-168.5 406,-187.5 479,-187.5 479,-168.5 406,-168.5"/>
<text text-anchor="middle" x="442.5" y="-175.5" font-family="Helvetica,sans-Serif" font-size="10.00">QByteArray</text>
</a>
</g>
</g>
<!-- Node9&#45;&gt;Node12 -->
<g id="edge14" class="edge">
<title>Node9&#45;&gt;Node12</title>
<path fill="none" stroke="midnightblue" d="M304.49,-224.44C332.2,-215.32 376.25,-200.81 407.12,-190.65"/>
<polygon fill="midnightblue" stroke="midnightblue" points="408.23,-193.97 416.64,-187.52 406.04,-187.32 408.23,-193.97"/>
</g>
<!-- Node13 -->
<g id="node13" class="node">
<title>Node13</title>
<g id="a_node13"><a xlink:title=" ">
<polygon fill="none" stroke="#bfbfbf" points="497,-168.5 497,-187.5 546,-187.5 546,-168.5 497,-168.5"/>
<text text-anchor="middle" x="521.5" y="-175.5" font-family="Helvetica,sans-Serif" font-size="10.00">QHash</text>
</a>
</g>
</g>
<!-- Node9&#45;&gt;Node13 -->
<g id="edge15" class="edge">
<title>Node9&#45;&gt;Node13</title>
<path fill="none" stroke="midnightblue" d="M321.69,-224.47C362.1,-216.33 424.35,-203.37 486.67,-188.36"/>
<polygon fill="midnightblue" stroke="midnightblue" points="487.78,-191.69 496.67,-185.93 486.13,-184.89 487.78,-191.69"/>
</g>
<!-- Node10&#45;&gt;Node6 -->
<g id="edge12" class="edge">
<title>Node10&#45;&gt;Node6</title>
<path fill="none" stroke="midnightblue" d="M323.27,-169.91C320.31,-169.26 317.35,-168.62 314.5,-168 254.15,-154.88 183.95,-139.8 142.21,-130.86"/>
<polygon fill="midnightblue" stroke="midnightblue" points="142.74,-127.39 132.23,-128.72 141.28,-134.24 142.74,-127.39"/>
</g>
<!-- Node11 -->
<g id="node11" class="node">
<title>Node11</title>
<g id="a_node11"><a xlink:title=" ">
<polygon fill="none" stroke="#bfbfbf" points="335,-112.5 335,-131.5 376,-131.5 376,-112.5 335,-112.5"/>
<text text-anchor="middle" x="355.5" y="-119.5" font-family="Helvetica,sans-Serif" font-size="10.00">QList</text>
</a>
</g>
</g>
<!-- Node10&#45;&gt;Node11 -->
<g id="edge13" class="edge">
<title>Node10&#45;&gt;Node11</title>
<path fill="none" stroke="midnightblue" d="M355.5,-168.08C355.5,-161.01 355.5,-150.86 355.5,-141.99"/>
<polygon fill="midnightblue" stroke="midnightblue" points="359,-141.75 355.5,-131.75 352,-141.75 359,-141.75"/>
</g>
</g>
</svg>
