<?xml version="1.0" encoding="UTF-8" standalone="no"?>
<!DOCTYPE svg PUBLIC "-//W3C//DTD SVG 1.1//EN"
 "http://www.w3.org/Graphics/SVG/1.1/DTD/svg11.dtd">
<!-- Generated by graphviz version 2.43.0 (0)
 -->
<!-- Title: goalmessage.cpp Pages: 1 -->
<svg width="337pt" height="364pt"
 viewBox="0.00 0.00 337.00 364.00" xmlns="http://www.w3.org/2000/svg" xmlns:xlink="http://www.w3.org/1999/xlink">
<g id="graph0" class="graph" transform="scale(1 1) rotate(0) translate(4 360)">
<title>goalmessage.cpp</title>
<!-- Node1 -->
<g id="node1" class="node">
<title>Node1</title>
<g id="a_node1"><a xlink:title=" ">
<polygon fill="#bfbfbf" stroke="black" points="142.5,-336.5 142.5,-355.5 244.5,-355.5 244.5,-336.5 142.5,-336.5"/>
<text text-anchor="middle" x="193.5" y="-343.5" font-family="Helvetica,sans-Serif" font-size="10.00">goalmessage.cpp</text>
</a>
</g>
</g>
<!-- Node2 -->
<g id="node2" class="node">
<title>Node2</title>
<g id="a_node2"><a xlink:href="goalmessage_8h.html" target="_top" xlink:title=" ">
<polygon fill="none" stroke="black" points="136,-224.5 136,-243.5 227,-243.5 227,-224.5 136,-224.5"/>
<text text-anchor="middle" x="181.5" y="-231.5" font-family="Helvetica,sans-Serif" font-size="10.00">goalmessage.h</text>
</a>
</g>
</g>
<!-- Node1&#45;&gt;Node2 -->
<g id="edge1" class="edge">
<title>Node1&#45;&gt;Node2</title>
<path fill="none" stroke="midnightblue" d="M191.38,-336.44C189.26,-327.43 186.07,-312.81 184.5,-300 182.61,-284.56 181.89,-266.93 181.62,-253.93"/>
<polygon fill="midnightblue" stroke="midnightblue" points="185.12,-253.82 181.49,-243.87 178.12,-253.91 185.12,-253.82"/>
</g>
<!-- Node7 -->
<g id="node7" class="node">
<title>Node7</title>
<g id="a_node7"><a xlink:href="goalmessage__p_8h.html" target="_top" xlink:title=" ">
<polygon fill="none" stroke="black" points="25.5,-280.5 25.5,-299.5 127.5,-299.5 127.5,-280.5 25.5,-280.5"/>
<text text-anchor="middle" x="76.5" y="-287.5" font-family="Helvetica,sans-Serif" font-size="10.00">goalmessage_p.h</text>
</a>
</g>
</g>
<!-- Node1&#45;&gt;Node7 -->
<g id="edge7" class="edge">
<title>Node1&#45;&gt;Node7</title>
<path fill="none" stroke="midnightblue" d="M174.96,-336.44C155.88,-327.64 125.93,-313.81 104.06,-303.72"/>
<polygon fill="midnightblue" stroke="midnightblue" points="105.5,-300.53 94.95,-299.52 102.57,-306.88 105.5,-300.53"/>
</g>
<!-- Node11 -->
<g id="node11" class="node">
<title>Node11</title>
<g id="a_node11"><a xlink:title=" ">
<polygon fill="none" stroke="#bfbfbf" points="193.5,-280.5 193.5,-299.5 249.5,-299.5 249.5,-280.5 193.5,-280.5"/>
<text text-anchor="middle" x="221.5" y="-287.5" font-family="Helvetica,sans-Serif" font-size="10.00">QDebug</text>
</a>
</g>
</g>
<!-- Node1&#45;&gt;Node11 -->
<g id="edge14" class="edge">
<title>Node1&#45;&gt;Node11</title>
<path fill="none" stroke="midnightblue" d="M198.12,-336.08C201.96,-328.69 207.52,-317.95 212.26,-308.81"/>
<polygon fill="midnightblue" stroke="midnightblue" points="215.47,-310.24 216.96,-299.75 209.25,-307.02 215.47,-310.24"/>
</g>
<!-- Node12 -->
<g id="node12" class="node">
<title>Node12</title>
<g id="a_node12"><a xlink:title=" ">
<polygon fill="none" stroke="#bfbfbf" points="268,-280.5 268,-299.5 329,-299.5 329,-280.5 268,-280.5"/>
<text text-anchor="middle" x="298.5" y="-287.5" font-family="Helvetica,sans-Serif" font-size="10.00">QtEndian</text>
</a>
</g>
</g>
<!-- Node1&#45;&gt;Node12 -->
<g id="edge15" class="edge">
<title>Node1&#45;&gt;Node12</title>
<path fill="none" stroke="midnightblue" d="M210.37,-336.32C227.21,-327.66 253.31,-314.24 272.74,-304.25"/>
<polygon fill="midnightblue" stroke="midnightblue" points="274.38,-307.34 281.67,-299.65 271.18,-301.12 274.38,-307.34"/>
</g>
<!-- Node3 -->
<g id="node3" class="node">
<title>Node3</title>
<g id="a_node3"><a xlink:href="fitdatamessage_8h.html" target="_top" xlink:title=" ">
<polygon fill="none" stroke="black" points="136,-168.5 136,-187.5 237,-187.5 237,-168.5 136,-168.5"/>
<text text-anchor="middle" x="186.5" y="-175.5" font-family="Helvetica,sans-Serif" font-size="10.00">fitdatamessage.h</text>
</a>
</g>
</g>
<!-- Node2&#45;&gt;Node3 -->
<g id="edge2" class="edge">
<title>Node2&#45;&gt;Node3</title>
<path fill="none" stroke="midnightblue" d="M182.33,-224.08C182.98,-217.01 183.92,-206.86 184.74,-197.99"/>
<polygon fill="midnightblue" stroke="midnightblue" points="188.25,-198.03 185.69,-187.75 181.28,-197.39 188.25,-198.03"/>
</g>
<!-- Node4 -->
<g id="node4" class="node">
<title>Node4</title>
<g id="a_node4"><a xlink:href="QtFit__global_8h.html" target="_top" xlink:title=" ">
<polygon fill="none" stroke="black" points="67.5,-56.5 67.5,-75.5 151.5,-75.5 151.5,-56.5 67.5,-56.5"/>
<text text-anchor="middle" x="109.5" y="-63.5" font-family="Helvetica,sans-Serif" font-size="10.00">QtFit_global.h</text>
</a>
</g>
</g>
<!-- Node3&#45;&gt;Node4 -->
<g id="edge3" class="edge">
<title>Node3&#45;&gt;Node4</title>
<path fill="none" stroke="midnightblue" d="M181.49,-168.39C174.04,-155.75 159.43,-131.56 145.5,-112 138.61,-102.32 130.36,-91.94 123.51,-83.59"/>
<polygon fill="midnightblue" stroke="midnightblue" points="126.06,-81.19 116.97,-75.74 120.68,-85.66 126.06,-81.19"/>
</g>
<!-- Node6 -->
<g id="node6" class="node">
<title>Node6</title>
<g id="a_node6"><a xlink:href="types_8h.html" target="_top" xlink:title="Types defined by the ANT+ FIT SDK.">
<polygon fill="none" stroke="black" points="83,-112.5 83,-131.5 136,-131.5 136,-112.5 83,-112.5"/>
<text text-anchor="middle" x="109.5" y="-119.5" font-family="Helvetica,sans-Serif" font-size="10.00">types.h</text>
</a>
</g>
</g>
<!-- Node3&#45;&gt;Node6 -->
<g id="edge5" class="edge">
<title>Node3&#45;&gt;Node6</title>
<path fill="none" stroke="midnightblue" d="M174.13,-168.32C162.34,-160.06 144.37,-147.45 130.36,-137.63"/>
<polygon fill="midnightblue" stroke="midnightblue" points="132.04,-134.53 121.84,-131.65 128.02,-140.26 132.04,-134.53"/>
</g>
<!-- Node5 -->
<g id="node5" class="node">
<title>Node5</title>
<g id="a_node5"><a xlink:title=" ">
<polygon fill="none" stroke="#bfbfbf" points="80,-0.5 80,-19.5 139,-19.5 139,-0.5 80,-0.5"/>
<text text-anchor="middle" x="109.5" y="-7.5" font-family="Helvetica,sans-Serif" font-size="10.00">QtGlobal</text>
</a>
</g>
</g>
<!-- Node4&#45;&gt;Node5 -->
<g id="edge4" class="edge">
<title>Node4&#45;&gt;Node5</title>
<path fill="none" stroke="midnightblue" d="M109.5,-56.08C109.5,-49.01 109.5,-38.86 109.5,-29.99"/>
<polygon fill="midnightblue" stroke="midnightblue" points="113,-29.75 109.5,-19.75 106,-29.75 113,-29.75"/>
</g>
<!-- Node6&#45;&gt;Node4 -->
<g id="edge6" class="edge">
<title>Node6&#45;&gt;Node4</title>
<path fill="none" stroke="midnightblue" d="M109.5,-112.08C109.5,-105.01 109.5,-94.86 109.5,-85.99"/>
<polygon fill="midnightblue" stroke="midnightblue" points="113,-85.75 109.5,-75.75 106,-85.75 113,-85.75"/>
</g>
<!-- Node8 -->
<g id="node8" class="node">
<title>Node8</title>
<g id="a_node8"><a xlink:href="fitdatamessage__p_8h.html" target="_top" xlink:title=" ">
<polygon fill="none" stroke="black" points="0,-224.5 0,-243.5 113,-243.5 113,-224.5 0,-224.5"/>
<text text-anchor="middle" x="56.5" y="-231.5" font-family="Helvetica,sans-Serif" font-size="10.00">fitdatamessage_p.h</text>
</a>
</g>
</g>
<!-- Node7&#45;&gt;Node8 -->
<g id="edge8" class="edge">
<title>Node7&#45;&gt;Node8</title>
<path fill="none" stroke="midnightblue" d="M73.2,-280.08C70.52,-272.85 66.65,-262.41 63.31,-253.4"/>
<polygon fill="midnightblue" stroke="midnightblue" points="66.5,-251.91 59.74,-243.75 59.93,-254.34 66.5,-251.91"/>
</g>
<!-- Node8&#45;&gt;Node4 -->
<g id="edge9" class="edge">
<title>Node8&#45;&gt;Node4</title>
<path fill="none" stroke="midnightblue" d="M41.55,-224.47C29.57,-216.7 13.63,-204 6.5,-188 -1.28,-170.54 4.42,-125.67 14.5,-112 26.1,-96.26 44.64,-85.81 62.27,-78.98"/>
<polygon fill="midnightblue" stroke="midnightblue" points="63.67,-82.2 71.92,-75.55 61.32,-75.6 63.67,-82.2"/>
</g>
<!-- Node8&#45;&gt;Node6 -->
<g id="edge10" class="edge">
<title>Node8&#45;&gt;Node6</title>
<path fill="none" stroke="midnightblue" d="M63.99,-224.22C71.11,-215.51 81.7,-201.54 88.5,-188 95.98,-173.1 101.58,-154.95 105.11,-141.63"/>
<polygon fill="midnightblue" stroke="midnightblue" points="108.55,-142.29 107.58,-131.74 101.76,-140.59 108.55,-142.29"/>
</g>
<!-- Node9 -->
<g id="node9" class="node">
<title>Node9</title>
<g id="a_node9"><a xlink:href="types__p_8h.html" target="_top" xlink:title=" ">
<polygon fill="none" stroke="black" points="15.5,-168.5 15.5,-187.5 79.5,-187.5 79.5,-168.5 15.5,-168.5"/>
<text text-anchor="middle" x="47.5" y="-175.5" font-family="Helvetica,sans-Serif" font-size="10.00">types_p.h</text>
</a>
</g>
</g>
<!-- Node8&#45;&gt;Node9 -->
<g id="edge11" class="edge">
<title>Node8&#45;&gt;Node9</title>
<path fill="none" stroke="midnightblue" d="M55.01,-224.08C53.82,-216.93 52.11,-206.64 50.62,-197.69"/>
<polygon fill="midnightblue" stroke="midnightblue" points="54.05,-197.04 48.96,-187.75 47.15,-198.19 54.05,-197.04"/>
</g>
<!-- Node9&#45;&gt;Node6 -->
<g id="edge12" class="edge">
<title>Node9&#45;&gt;Node6</title>
<path fill="none" stroke="midnightblue" d="M57.46,-168.32C66.63,-160.34 80.44,-148.31 91.53,-138.65"/>
<polygon fill="midnightblue" stroke="midnightblue" points="94.12,-141.04 99.36,-131.83 89.52,-135.76 94.12,-141.04"/>
</g>
<!-- Node10 -->
<g id="node10" class="node">
<title>Node10</title>
<g id="a_node10"><a xlink:title=" ">
<polygon fill="none" stroke="#bfbfbf" points="24,-112.5 24,-131.5 65,-131.5 65,-112.5 24,-112.5"/>
<text text-anchor="middle" x="44.5" y="-119.5" font-family="Helvetica,sans-Serif" font-size="10.00">QList</text>
</a>
</g>
</g>
<!-- Node9&#45;&gt;Node10 -->
<g id="edge13" class="edge">
<title>Node9&#45;&gt;Node10</title>
<path fill="none" stroke="midnightblue" d="M47,-168.08C46.61,-161.01 46.05,-150.86 45.55,-141.99"/>
<polygon fill="midnightblue" stroke="midnightblue" points="49.04,-141.54 44.99,-131.75 42.05,-141.93 49.04,-141.54"/>
</g>
</g>
</svg>
