<?xml version="1.0" encoding="UTF-8" standalone="no"?>
<!DOCTYPE svg PUBLIC "-//W3C//DTD SVG 1.1//EN"
 "http://www.w3.org/Graphics/SVG/1.1/DTD/svg11.dtd">
<!-- Generated by graphviz version 2.43.0 (0)
 -->
<!-- Title: goalmessage_p.h Pages: 1 -->
<svg width="191pt" height="308pt"
 viewBox="0.00 0.00 190.50 308.00" xmlns="http://www.w3.org/2000/svg" xmlns:xlink="http://www.w3.org/1999/xlink">
<g id="graph0" class="graph" transform="scale(1 1) rotate(0) translate(4 304)">
<title>goalmessage_p.h</title>
<!-- Node1 -->
<g id="node1" class="node">
<title>Node1</title>
<g id="a_node1"><a xlink:title="Declares the GoalMessagePrivate class.">
<polygon fill="#bfbfbf" stroke="black" points="37,-280.5 37,-299.5 139,-299.5 139,-280.5 37,-280.5"/>
<text text-anchor="middle" x="88" y="-287.5" font-family="Helvetica,sans-Serif" font-size="10.00">goalmessage_p.h</text>
</a>
</g>
</g>
<!-- Node2 -->
<g id="node2" class="node">
<title>Node2</title>
<g id="a_node2"><a xlink:href="abstractdatamessage__p_8h.html" target="_top" xlink:title="Declares the AbstractDataMessagePrivate class.">
<polygon fill="none" stroke="black" points="16.5,-224.5 16.5,-243.5 159.5,-243.5 159.5,-224.5 16.5,-224.5"/>
<text text-anchor="middle" x="88" y="-231.5" font-family="Helvetica,sans-Serif" font-size="10.00">abstractdatamessage_p.h</text>
</a>
</g>
</g>
<!-- Node1&#45;&gt;Node2 -->
<g id="edge1" class="edge">
<title>Node1&#45;&gt;Node2</title>
<path fill="none" stroke="midnightblue" d="M88,-280.08C88,-273.01 88,-262.86 88,-253.99"/>
<polygon fill="midnightblue" stroke="midnightblue" points="91.5,-253.75 88,-243.75 84.5,-253.75 91.5,-253.75"/>
</g>
<!-- Node3 -->
<g id="node3" class="node">
<title>Node3</title>
<g id="a_node3"><a xlink:href="QtFit__global_8h.html" target="_top" xlink:title="Global QtFit library macros.">
<polygon fill="none" stroke="black" points="0,-56.5 0,-75.5 84,-75.5 84,-56.5 0,-56.5"/>
<text text-anchor="middle" x="42" y="-63.5" font-family="Helvetica,sans-Serif" font-size="10.00">QtFit_global.h</text>
</a>
</g>
</g>
<!-- Node2&#45;&gt;Node3 -->
<g id="edge2" class="edge">
<title>Node2&#45;&gt;Node3</title>
<path fill="none" stroke="midnightblue" d="M85.53,-224.08C78.29,-197.95 57.02,-121.21 47.15,-85.58"/>
<polygon fill="midnightblue" stroke="midnightblue" points="50.42,-84.27 44.37,-75.57 43.67,-86.14 50.42,-84.27"/>
</g>
<!-- Node5 -->
<g id="node5" class="node">
<title>Node5</title>
<g id="a_node5"><a xlink:href="types_8h.html" target="_top" xlink:title="Types defined by the ANT+ FIT SDK.">
<polygon fill="none" stroke="black" points="70.5,-112.5 70.5,-131.5 123.5,-131.5 123.5,-112.5 70.5,-112.5"/>
<text text-anchor="middle" x="97" y="-119.5" font-family="Helvetica,sans-Serif" font-size="10.00">types.h</text>
</a>
</g>
</g>
<!-- Node2&#45;&gt;Node5 -->
<g id="edge4" class="edge">
<title>Node2&#45;&gt;Node5</title>
<path fill="none" stroke="midnightblue" d="M88.71,-224.37C90.16,-206.62 93.51,-165.67 95.48,-141.6"/>
<polygon fill="midnightblue" stroke="midnightblue" points="98.97,-141.84 96.3,-131.59 91.99,-141.27 98.97,-141.84"/>
</g>
<!-- Node7 -->
<g id="node7" class="node">
<title>Node7</title>
<g id="a_node7"><a xlink:href="types__p_8h.html" target="_top" xlink:title="Internal types used by QtFit classes.">
<polygon fill="none" stroke="black" points="116,-168.5 116,-187.5 180,-187.5 180,-168.5 116,-168.5"/>
<text text-anchor="middle" x="148" y="-175.5" font-family="Helvetica,sans-Serif" font-size="10.00">types_p.h</text>
</a>
</g>
</g>
<!-- Node2&#45;&gt;Node7 -->
<g id="edge7" class="edge">
<title>Node2&#45;&gt;Node7</title>
<path fill="none" stroke="midnightblue" d="M97.64,-224.32C106.51,-216.34 119.87,-204.31 130.61,-194.65"/>
<polygon fill="midnightblue" stroke="midnightblue" points="133.09,-197.13 138.18,-187.83 128.41,-191.92 133.09,-197.13"/>
</g>
<!-- Node4 -->
<g id="node4" class="node">
<title>Node4</title>
<g id="a_node4"><a xlink:title=" ">
<polygon fill="none" stroke="#bfbfbf" points="12.5,-0.5 12.5,-19.5 71.5,-19.5 71.5,-0.5 12.5,-0.5"/>
<text text-anchor="middle" x="42" y="-7.5" font-family="Helvetica,sans-Serif" font-size="10.00">QtGlobal</text>
</a>
</g>
</g>
<!-- Node3&#45;&gt;Node4 -->
<g id="edge3" class="edge">
<title>Node3&#45;&gt;Node4</title>
<path fill="none" stroke="midnightblue" d="M42,-56.08C42,-49.01 42,-38.86 42,-29.99"/>
<polygon fill="midnightblue" stroke="midnightblue" points="45.5,-29.75 42,-19.75 38.5,-29.75 45.5,-29.75"/>
</g>
<!-- Node5&#45;&gt;Node3 -->
<g id="edge5" class="edge">
<title>Node5&#45;&gt;Node3</title>
<path fill="none" stroke="midnightblue" d="M87.92,-112.08C79.83,-104.14 67.8,-92.34 58.09,-82.8"/>
<polygon fill="midnightblue" stroke="midnightblue" points="60.5,-80.26 50.91,-75.75 55.6,-85.25 60.5,-80.26"/>
</g>
<!-- Node6 -->
<g id="node6" class="node">
<title>Node6</title>
<g id="a_node6"><a xlink:title=" ">
<polygon fill="none" stroke="#bfbfbf" points="102,-56.5 102,-75.5 158,-75.5 158,-56.5 102,-56.5"/>
<text text-anchor="middle" x="130" y="-63.5" font-family="Helvetica,sans-Serif" font-size="10.00">QDebug</text>
</a>
</g>
</g>
<!-- Node5&#45;&gt;Node6 -->
<g id="edge6" class="edge">
<title>Node5&#45;&gt;Node6</title>
<path fill="none" stroke="midnightblue" d="M102.45,-112.08C107.01,-104.61 113.67,-93.72 119.29,-84.52"/>
<polygon fill="midnightblue" stroke="midnightblue" points="122.42,-86.11 124.65,-75.75 116.45,-82.46 122.42,-86.11"/>
</g>
<!-- Node7&#45;&gt;Node5 -->
<g id="edge8" class="edge">
<title>Node7&#45;&gt;Node5</title>
<path fill="none" stroke="midnightblue" d="M139.58,-168.08C132.15,-160.22 121.15,-148.57 112.19,-139.08"/>
<polygon fill="midnightblue" stroke="midnightblue" points="114.68,-136.62 105.26,-131.75 109.59,-141.42 114.68,-136.62"/>
</g>
<!-- Node8 -->
<g id="node8" class="node">
<title>Node8</title>
<g id="a_node8"><a xlink:title=" ">
<polygon fill="none" stroke="#bfbfbf" points="141.5,-112.5 141.5,-131.5 182.5,-131.5 182.5,-112.5 141.5,-112.5"/>
<text text-anchor="middle" x="162" y="-119.5" font-family="Helvetica,sans-Serif" font-size="10.00">QList</text>
</a>
</g>
</g>
<!-- Node7&#45;&gt;Node8 -->
<g id="edge9" class="edge">
<title>Node7&#45;&gt;Node8</title>
<path fill="none" stroke="midnightblue" d="M150.31,-168.08C152.17,-160.93 154.84,-150.64 157.15,-141.69"/>
<polygon fill="midnightblue" stroke="midnightblue" points="160.61,-142.31 159.73,-131.75 153.83,-140.55 160.61,-142.31"/>
</g>
</g>
</svg>
