<?xml version="1.0" encoding="UTF-8" standalone="no"?>
<!DOCTYPE svg PUBLIC "-//W3C//DTD SVG 1.1//EN"
 "http://www.w3.org/Graphics/SVG/1.1/DTD/svg11.dtd">
<!-- Generated by graphviz version 2.43.0 (0)
 -->
<!-- Title: gpsmetadatamessage.cpp Pages: 1 -->
<svg width="306pt" height="364pt"
 viewBox="0.00 0.00 306.00 364.00" xmlns="http://www.w3.org/2000/svg" xmlns:xlink="http://www.w3.org/1999/xlink">
<g id="graph0" class="graph" transform="scale(1 1) rotate(0) translate(4 360)">
<title>gpsmetadatamessage.cpp</title>
<!-- Node1 -->
<g id="node1" class="node">
<title>Node1</title>
<g id="a_node1"><a xlink:title=" ">
<polygon fill="#bfbfbf" stroke="black" points="79,-336.5 79,-355.5 225,-355.5 225,-336.5 79,-336.5"/>
<text text-anchor="middle" x="152" y="-343.5" font-family="Helvetica,sans-Serif" font-size="10.00">gpsmetadatamessage.cpp</text>
</a>
</g>
</g>
<!-- Node2 -->
<g id="node2" class="node">
<title>Node2</title>
<g id="a_node2"><a xlink:href="gpsmetadatamessage_8h.html" target="_top" xlink:title=" ">
<polygon fill="none" stroke="black" points="164,-280.5 164,-299.5 298,-299.5 298,-280.5 164,-280.5"/>
<text text-anchor="middle" x="231" y="-287.5" font-family="Helvetica,sans-Serif" font-size="10.00">gpsmetadatamessage.h</text>
</a>
</g>
</g>
<!-- Node1&#45;&gt;Node2 -->
<g id="edge1" class="edge">
<title>Node1&#45;&gt;Node2</title>
<path fill="none" stroke="midnightblue" d="M164.69,-336.32C176.9,-327.98 195.58,-315.21 210,-305.35"/>
<polygon fill="midnightblue" stroke="midnightblue" points="212.06,-308.19 218.34,-299.65 208.11,-302.41 212.06,-308.19"/>
</g>
<!-- Node7 -->
<g id="node7" class="node">
<title>Node7</title>
<g id="a_node7"><a xlink:href="gpsmetadatamessage__p_8h.html" target="_top" xlink:title=" ">
<polygon fill="none" stroke="black" points="0,-280.5 0,-299.5 146,-299.5 146,-280.5 0,-280.5"/>
<text text-anchor="middle" x="73" y="-287.5" font-family="Helvetica,sans-Serif" font-size="10.00">gpsmetadatamessage_p.h</text>
</a>
</g>
</g>
<!-- Node1&#45;&gt;Node7 -->
<g id="edge7" class="edge">
<title>Node1&#45;&gt;Node7</title>
<path fill="none" stroke="midnightblue" d="M139.31,-336.32C127.1,-327.98 108.42,-315.21 94,-305.35"/>
<polygon fill="midnightblue" stroke="midnightblue" points="95.89,-302.41 85.66,-299.65 91.94,-308.19 95.89,-302.41"/>
</g>
<!-- Node3 -->
<g id="node3" class="node">
<title>Node3</title>
<g id="a_node3"><a xlink:href="fitdatamessage_8h.html" target="_top" xlink:title=" ">
<polygon fill="none" stroke="black" points="175.5,-168.5 175.5,-187.5 276.5,-187.5 276.5,-168.5 175.5,-168.5"/>
<text text-anchor="middle" x="226" y="-175.5" font-family="Helvetica,sans-Serif" font-size="10.00">fitdatamessage.h</text>
</a>
</g>
</g>
<!-- Node2&#45;&gt;Node3 -->
<g id="edge2" class="edge">
<title>Node2&#45;&gt;Node3</title>
<path fill="none" stroke="midnightblue" d="M230.61,-280.37C229.8,-262.62 227.94,-221.67 226.85,-197.6"/>
<polygon fill="midnightblue" stroke="midnightblue" points="230.34,-197.42 226.39,-187.59 223.35,-197.74 230.34,-197.42"/>
</g>
<!-- Node4 -->
<g id="node4" class="node">
<title>Node4</title>
<g id="a_node4"><a xlink:href="QtFit__global_8h.html" target="_top" xlink:title=" ">
<polygon fill="none" stroke="black" points="107,-56.5 107,-75.5 191,-75.5 191,-56.5 107,-56.5"/>
<text text-anchor="middle" x="149" y="-63.5" font-family="Helvetica,sans-Serif" font-size="10.00">QtFit_global.h</text>
</a>
</g>
</g>
<!-- Node3&#45;&gt;Node4 -->
<g id="edge3" class="edge">
<title>Node3&#45;&gt;Node4</title>
<path fill="none" stroke="midnightblue" d="M220.99,-168.39C213.54,-155.75 198.93,-131.56 185,-112 178.11,-102.32 169.86,-91.94 163.01,-83.59"/>
<polygon fill="midnightblue" stroke="midnightblue" points="165.56,-81.19 156.47,-75.74 160.18,-85.66 165.56,-81.19"/>
</g>
<!-- Node6 -->
<g id="node6" class="node">
<title>Node6</title>
<g id="a_node6"><a xlink:href="types_8h.html" target="_top" xlink:title="Types defined by the ANT+ FIT SDK.">
<polygon fill="none" stroke="black" points="122.5,-112.5 122.5,-131.5 175.5,-131.5 175.5,-112.5 122.5,-112.5"/>
<text text-anchor="middle" x="149" y="-119.5" font-family="Helvetica,sans-Serif" font-size="10.00">types.h</text>
</a>
</g>
</g>
<!-- Node3&#45;&gt;Node6 -->
<g id="edge5" class="edge">
<title>Node3&#45;&gt;Node6</title>
<path fill="none" stroke="midnightblue" d="M213.63,-168.32C201.84,-160.06 183.87,-147.45 169.86,-137.63"/>
<polygon fill="midnightblue" stroke="midnightblue" points="171.54,-134.53 161.34,-131.65 167.52,-140.26 171.54,-134.53"/>
</g>
<!-- Node5 -->
<g id="node5" class="node">
<title>Node5</title>
<g id="a_node5"><a xlink:title=" ">
<polygon fill="none" stroke="#bfbfbf" points="119.5,-0.5 119.5,-19.5 178.5,-19.5 178.5,-0.5 119.5,-0.5"/>
<text text-anchor="middle" x="149" y="-7.5" font-family="Helvetica,sans-Serif" font-size="10.00">QtGlobal</text>
</a>
</g>
</g>
<!-- Node4&#45;&gt;Node5 -->
<g id="edge4" class="edge">
<title>Node4&#45;&gt;Node5</title>
<path fill="none" stroke="midnightblue" d="M149,-56.08C149,-49.01 149,-38.86 149,-29.99"/>
<polygon fill="midnightblue" stroke="midnightblue" points="152.5,-29.75 149,-19.75 145.5,-29.75 152.5,-29.75"/>
</g>
<!-- Node6&#45;&gt;Node4 -->
<g id="edge6" class="edge">
<title>Node6&#45;&gt;Node4</title>
<path fill="none" stroke="midnightblue" d="M149,-112.08C149,-105.01 149,-94.86 149,-85.99"/>
<polygon fill="midnightblue" stroke="midnightblue" points="152.5,-85.75 149,-75.75 145.5,-85.75 152.5,-85.75"/>
</g>
<!-- Node8 -->
<g id="node8" class="node">
<title>Node8</title>
<g id="a_node8"><a xlink:href="fitdatamessage__p_8h.html" target="_top" xlink:title=" ">
<polygon fill="none" stroke="black" points="25.5,-224.5 25.5,-243.5 138.5,-243.5 138.5,-224.5 25.5,-224.5"/>
<text text-anchor="middle" x="82" y="-231.5" font-family="Helvetica,sans-Serif" font-size="10.00">fitdatamessage_p.h</text>
</a>
</g>
</g>
<!-- Node7&#45;&gt;Node8 -->
<g id="edge8" class="edge">
<title>Node7&#45;&gt;Node8</title>
<path fill="none" stroke="midnightblue" d="M74.49,-280.08C75.68,-272.93 77.39,-262.64 78.88,-253.69"/>
<polygon fill="midnightblue" stroke="midnightblue" points="82.35,-254.19 80.54,-243.75 75.45,-253.04 82.35,-254.19"/>
</g>
<!-- Node8&#45;&gt;Node4 -->
<g id="edge9" class="edge">
<title>Node8&#45;&gt;Node4</title>
<path fill="none" stroke="midnightblue" d="M71.84,-224.19C63.09,-215.87 51.1,-202.54 46,-188 39.34,-169.02 47.09,-121.38 54,-112 65.6,-96.26 84.14,-85.81 101.77,-78.98"/>
<polygon fill="midnightblue" stroke="midnightblue" points="103.17,-82.2 111.42,-75.55 100.82,-75.6 103.17,-82.2"/>
</g>
<!-- Node8&#45;&gt;Node6 -->
<g id="edge10" class="edge">
<title>Node8&#45;&gt;Node6</title>
<path fill="none" stroke="midnightblue" d="M93.77,-224.23C104.14,-215.94 118.94,-202.63 128,-188 136.88,-173.66 142.37,-155.2 145.5,-141.62"/>
<polygon fill="midnightblue" stroke="midnightblue" points="148.99,-142.06 147.6,-131.55 142.13,-140.63 148.99,-142.06"/>
</g>
<!-- Node9 -->
<g id="node9" class="node">
<title>Node9</title>
<g id="a_node9"><a xlink:href="types__p_8h.html" target="_top" xlink:title=" ">
<polygon fill="none" stroke="black" points="55,-168.5 55,-187.5 119,-187.5 119,-168.5 55,-168.5"/>
<text text-anchor="middle" x="87" y="-175.5" font-family="Helvetica,sans-Serif" font-size="10.00">types_p.h</text>
</a>
</g>
</g>
<!-- Node8&#45;&gt;Node9 -->
<g id="edge11" class="edge">
<title>Node8&#45;&gt;Node9</title>
<path fill="none" stroke="midnightblue" d="M82.83,-224.08C83.48,-217.01 84.42,-206.86 85.24,-197.99"/>
<polygon fill="midnightblue" stroke="midnightblue" points="88.75,-198.03 86.19,-187.75 81.78,-197.39 88.75,-198.03"/>
</g>
<!-- Node9&#45;&gt;Node6 -->
<g id="edge12" class="edge">
<title>Node9&#45;&gt;Node6</title>
<path fill="none" stroke="midnightblue" d="M96.96,-168.32C106.13,-160.34 119.94,-148.31 131.03,-138.65"/>
<polygon fill="midnightblue" stroke="midnightblue" points="133.62,-141.04 138.86,-131.83 129.02,-135.76 133.62,-141.04"/>
</g>
<!-- Node10 -->
<g id="node10" class="node">
<title>Node10</title>
<g id="a_node10"><a xlink:title=" ">
<polygon fill="none" stroke="#bfbfbf" points="63.5,-112.5 63.5,-131.5 104.5,-131.5 104.5,-112.5 63.5,-112.5"/>
<text text-anchor="middle" x="84" y="-119.5" font-family="Helvetica,sans-Serif" font-size="10.00">QList</text>
</a>
</g>
</g>
<!-- Node9&#45;&gt;Node10 -->
<g id="edge13" class="edge">
<title>Node9&#45;&gt;Node10</title>
<path fill="none" stroke="midnightblue" d="M86.5,-168.08C86.11,-161.01 85.55,-150.86 85.05,-141.99"/>
<polygon fill="midnightblue" stroke="midnightblue" points="88.54,-141.54 84.49,-131.75 81.55,-141.93 88.54,-141.54"/>
</g>
</g>
</svg>
