<?xml version="1.0" encoding="UTF-8" standalone="no"?>
<!DOCTYPE svg PUBLIC "-//W3C//DTD SVG 1.1//EN"
 "http://www.w3.org/Graphics/SVG/1.1/DTD/svg11.dtd">
<!-- Generated by graphviz version 2.43.0 (0)
 -->
<!-- Title: gpsmetadatamessage.cpp Pages: 1 -->
<svg width="425pt" height="364pt"
 viewBox="0.00 0.00 425.00 364.00" xmlns="http://www.w3.org/2000/svg" xmlns:xlink="http://www.w3.org/1999/xlink">
<g id="graph0" class="graph" transform="scale(1 1) rotate(0) translate(4 360)">
<title>gpsmetadatamessage.cpp</title>
<!-- Node1 -->
<g id="node1" class="node">
<title>Node1</title>
<g id="a_node1"><a xlink:title="Defines the GpsMetadataMessage, and GpsMetadataMessagePrivate classes.">
<polygon fill="#bfbfbf" stroke="black" points="203.5,-336.5 203.5,-355.5 349.5,-355.5 349.5,-336.5 203.5,-336.5"/>
<text text-anchor="middle" x="276.5" y="-343.5" font-family="Helvetica,sans-Serif" font-size="10.00">gpsmetadatamessage.cpp</text>
</a>
</g>
</g>
<!-- Node2 -->
<g id="node2" class="node">
<title>Node2</title>
<g id="a_node2"><a xlink:href="gpsmetadatamessage_8h.html" target="_top" xlink:title="Declares the GpsMetadataMessage class.">
<polygon fill="none" stroke="black" points="1.5,-280.5 1.5,-299.5 135.5,-299.5 135.5,-280.5 1.5,-280.5"/>
<text text-anchor="middle" x="68.5" y="-287.5" font-family="Helvetica,sans-Serif" font-size="10.00">gpsmetadatamessage.h</text>
</a>
</g>
</g>
<!-- Node1&#45;&gt;Node2 -->
<g id="edge1" class="edge">
<title>Node1&#45;&gt;Node2</title>
<path fill="none" stroke="midnightblue" d="M243.54,-336.44C207.71,-327.14 150.34,-312.25 111.11,-302.06"/>
<polygon fill="midnightblue" stroke="midnightblue" points="111.86,-298.64 101.3,-299.52 110.1,-305.42 111.86,-298.64"/>
</g>
<!-- Node7 -->
<g id="node7" class="node">
<title>Node7</title>
<g id="a_node7"><a xlink:title=" ">
<polygon fill="none" stroke="#bfbfbf" points="258.5,-56.5 258.5,-75.5 314.5,-75.5 314.5,-56.5 258.5,-56.5"/>
<text text-anchor="middle" x="286.5" y="-63.5" font-family="Helvetica,sans-Serif" font-size="10.00">QDebug</text>
</a>
</g>
</g>
<!-- Node1&#45;&gt;Node7 -->
<g id="edge15" class="edge">
<title>Node1&#45;&gt;Node7</title>
<path fill="none" stroke="midnightblue" d="M284.07,-336.26C291.25,-327.58 301.89,-313.63 308.5,-300 321.63,-272.92 327.5,-265.1 327.5,-235 327.5,-235 327.5,-235 327.5,-177 327.5,-142.52 309.59,-105.56 297.44,-84.47"/>
<polygon fill="midnightblue" stroke="midnightblue" points="300.34,-82.49 292.2,-75.71 294.34,-86.09 300.34,-82.49"/>
</g>
<!-- Node8 -->
<g id="node8" class="node">
<title>Node8</title>
<g id="a_node8"><a xlink:href="gpsmetadatamessage__p_8h.html" target="_top" xlink:title="Declares the GpsMetadataMessagePrivate class.">
<polygon fill="none" stroke="black" points="153.5,-280.5 153.5,-299.5 299.5,-299.5 299.5,-280.5 153.5,-280.5"/>
<text text-anchor="middle" x="226.5" y="-287.5" font-family="Helvetica,sans-Serif" font-size="10.00">gpsmetadatamessage_p.h</text>
</a>
</g>
</g>
<!-- Node1&#45;&gt;Node8 -->
<g id="edge8" class="edge">
<title>Node1&#45;&gt;Node8</title>
<path fill="none" stroke="midnightblue" d="M268.24,-336.08C261.04,-328.3 250.39,-316.8 241.65,-307.37"/>
<polygon fill="midnightblue" stroke="midnightblue" points="243.97,-304.71 234.6,-299.75 238.83,-309.47 243.97,-304.71"/>
</g>
<!-- Node12 -->
<g id="node12" class="node">
<title>Node12</title>
<g id="a_node12"><a xlink:title=" ">
<polygon fill="none" stroke="#bfbfbf" points="356,-280.5 356,-299.5 417,-299.5 417,-280.5 356,-280.5"/>
<text text-anchor="middle" x="386.5" y="-287.5" font-family="Helvetica,sans-Serif" font-size="10.00">QtEndian</text>
</a>
</g>
</g>
<!-- Node1&#45;&gt;Node12 -->
<g id="edge16" class="edge">
<title>Node1&#45;&gt;Node12</title>
<path fill="none" stroke="midnightblue" d="M294.17,-336.32C311.89,-327.62 339.4,-314.12 359.79,-304.11"/>
<polygon fill="midnightblue" stroke="midnightblue" points="361.44,-307.2 368.87,-299.65 358.35,-300.92 361.44,-307.2"/>
</g>
<!-- Node3 -->
<g id="node3" class="node">
<title>Node3</title>
<g id="a_node3"><a xlink:href="abstractdatamessage_8h.html" target="_top" xlink:title="Declares the AbstractDataMessage class.">
<polygon fill="none" stroke="black" points="0,-168.5 0,-187.5 131,-187.5 131,-168.5 0,-168.5"/>
<text text-anchor="middle" x="65.5" y="-175.5" font-family="Helvetica,sans-Serif" font-size="10.00">abstractdatamessage.h</text>
</a>
</g>
</g>
<!-- Node2&#45;&gt;Node3 -->
<g id="edge2" class="edge">
<title>Node2&#45;&gt;Node3</title>
<path fill="none" stroke="midnightblue" d="M68.26,-280.37C67.78,-262.62 66.66,-221.67 66.01,-197.6"/>
<polygon fill="midnightblue" stroke="midnightblue" points="69.51,-197.49 65.73,-187.59 62.51,-197.68 69.51,-197.49"/>
</g>
<!-- Node4 -->
<g id="node4" class="node">
<title>Node4</title>
<g id="a_node4"><a xlink:href="QtFit__global_8h.html" target="_top" xlink:title="Global QtFit library macros.">
<polygon fill="none" stroke="black" points="116.5,-56.5 116.5,-75.5 200.5,-75.5 200.5,-56.5 116.5,-56.5"/>
<text text-anchor="middle" x="158.5" y="-63.5" font-family="Helvetica,sans-Serif" font-size="10.00">QtFit_global.h</text>
</a>
</g>
</g>
<!-- Node3&#45;&gt;Node4 -->
<g id="edge3" class="edge">
<title>Node3&#45;&gt;Node4</title>
<path fill="none" stroke="midnightblue" d="M72.8,-168.37C88.28,-150.05 124.64,-107.05 144.67,-83.36"/>
<polygon fill="midnightblue" stroke="midnightblue" points="147.45,-85.49 151.24,-75.59 142.11,-80.97 147.45,-85.49"/>
</g>
<!-- Node6 -->
<g id="node6" class="node">
<title>Node6</title>
<g id="a_node6"><a xlink:href="types_8h.html" target="_top" xlink:title="Types defined by the ANT+ FIT SDK.">
<polygon fill="none" stroke="black" points="187,-112.5 187,-131.5 240,-131.5 240,-112.5 187,-112.5"/>
<text text-anchor="middle" x="213.5" y="-119.5" font-family="Helvetica,sans-Serif" font-size="10.00">types.h</text>
</a>
</g>
</g>
<!-- Node3&#45;&gt;Node6 -->
<g id="edge5" class="edge">
<title>Node3&#45;&gt;Node6</title>
<path fill="none" stroke="midnightblue" d="M88.95,-168.44C113.63,-159.44 152.69,-145.19 180.48,-135.05"/>
<polygon fill="midnightblue" stroke="midnightblue" points="181.96,-138.23 190.16,-131.52 179.56,-131.66 181.96,-138.23"/>
</g>
<!-- Node5 -->
<g id="node5" class="node">
<title>Node5</title>
<g id="a_node5"><a xlink:title=" ">
<polygon fill="none" stroke="#bfbfbf" points="129,-0.5 129,-19.5 188,-19.5 188,-0.5 129,-0.5"/>
<text text-anchor="middle" x="158.5" y="-7.5" font-family="Helvetica,sans-Serif" font-size="10.00">QtGlobal</text>
</a>
</g>
</g>
<!-- Node4&#45;&gt;Node5 -->
<g id="edge4" class="edge">
<title>Node4&#45;&gt;Node5</title>
<path fill="none" stroke="midnightblue" d="M158.5,-56.08C158.5,-49.01 158.5,-38.86 158.5,-29.99"/>
<polygon fill="midnightblue" stroke="midnightblue" points="162,-29.75 158.5,-19.75 155,-29.75 162,-29.75"/>
</g>
<!-- Node6&#45;&gt;Node4 -->
<g id="edge6" class="edge">
<title>Node6&#45;&gt;Node4</title>
<path fill="none" stroke="midnightblue" d="M204.42,-112.08C196.33,-104.14 184.3,-92.34 174.59,-82.8"/>
<polygon fill="midnightblue" stroke="midnightblue" points="177,-80.26 167.41,-75.75 172.1,-85.25 177,-80.26"/>
</g>
<!-- Node6&#45;&gt;Node7 -->
<g id="edge7" class="edge">
<title>Node6&#45;&gt;Node7</title>
<path fill="none" stroke="midnightblue" d="M225.23,-112.32C236.34,-104.11 253.24,-91.6 266.48,-81.81"/>
<polygon fill="midnightblue" stroke="midnightblue" points="268.6,-84.59 274.56,-75.83 264.44,-78.97 268.6,-84.59"/>
</g>
<!-- Node9 -->
<g id="node9" class="node">
<title>Node9</title>
<g id="a_node9"><a xlink:href="abstractdatamessage__p_8h.html" target="_top" xlink:title="Declares the AbstractDataMessagePrivate class.">
<polygon fill="none" stroke="black" points="145,-224.5 145,-243.5 288,-243.5 288,-224.5 145,-224.5"/>
<text text-anchor="middle" x="216.5" y="-231.5" font-family="Helvetica,sans-Serif" font-size="10.00">abstractdatamessage_p.h</text>
</a>
</g>
</g>
<!-- Node8&#45;&gt;Node9 -->
<g id="edge9" class="edge">
<title>Node8&#45;&gt;Node9</title>
<path fill="none" stroke="midnightblue" d="M224.85,-280.08C223.52,-272.93 221.62,-262.64 219.96,-253.69"/>
<polygon fill="midnightblue" stroke="midnightblue" points="223.38,-252.95 218.12,-243.75 216.5,-254.22 223.38,-252.95"/>
</g>
<!-- Node9&#45;&gt;Node4 -->
<g id="edge10" class="edge">
<title>Node9&#45;&gt;Node4</title>
<path fill="none" stroke="midnightblue" d="M212.91,-224.44C205.73,-207.15 189.25,-166.72 177.5,-132 172.26,-116.51 167.1,-98.67 163.49,-85.6"/>
<polygon fill="midnightblue" stroke="midnightblue" points="166.85,-84.63 160.85,-75.91 160.1,-86.47 166.85,-84.63"/>
</g>
<!-- Node9&#45;&gt;Node6 -->
<g id="edge11" class="edge">
<title>Node9&#45;&gt;Node6</title>
<path fill="none" stroke="midnightblue" d="M216.26,-224.37C215.78,-206.62 214.66,-165.67 214.01,-141.6"/>
<polygon fill="midnightblue" stroke="midnightblue" points="217.51,-141.49 213.73,-131.59 210.51,-141.68 217.51,-141.49"/>
</g>
<!-- Node10 -->
<g id="node10" class="node">
<title>Node10</title>
<g id="a_node10"><a xlink:href="types__p_8h.html" target="_top" xlink:title="Internal types used by QtFit classes.">
<polygon fill="none" stroke="black" points="235.5,-168.5 235.5,-187.5 299.5,-187.5 299.5,-168.5 235.5,-168.5"/>
<text text-anchor="middle" x="267.5" y="-175.5" font-family="Helvetica,sans-Serif" font-size="10.00">types_p.h</text>
</a>
</g>
</g>
<!-- Node9&#45;&gt;Node10 -->
<g id="edge12" class="edge">
<title>Node9&#45;&gt;Node10</title>
<path fill="none" stroke="midnightblue" d="M224.92,-224.08C232.35,-216.22 243.35,-204.57 252.31,-195.08"/>
<polygon fill="midnightblue" stroke="midnightblue" points="254.91,-197.42 259.24,-187.75 249.82,-192.62 254.91,-197.42"/>
</g>
<!-- Node10&#45;&gt;Node6 -->
<g id="edge13" class="edge">
<title>Node10&#45;&gt;Node6</title>
<path fill="none" stroke="midnightblue" d="M258.58,-168.08C250.72,-160.22 239.07,-148.57 229.58,-139.08"/>
<polygon fill="midnightblue" stroke="midnightblue" points="231.8,-136.35 222.25,-131.75 226.85,-141.3 231.8,-136.35"/>
</g>
<!-- Node11 -->
<g id="node11" class="node">
<title>Node11</title>
<g id="a_node11"><a xlink:title=" ">
<polygon fill="none" stroke="#bfbfbf" points="258,-112.5 258,-131.5 299,-131.5 299,-112.5 258,-112.5"/>
<text text-anchor="middle" x="278.5" y="-119.5" font-family="Helvetica,sans-Serif" font-size="10.00">QList</text>
</a>
</g>
</g>
<!-- Node10&#45;&gt;Node11 -->
<g id="edge14" class="edge">
<title>Node10&#45;&gt;Node11</title>
<path fill="none" stroke="midnightblue" d="M269.32,-168.08C270.77,-160.93 272.87,-150.64 274.69,-141.69"/>
<polygon fill="midnightblue" stroke="midnightblue" points="278.15,-142.25 276.72,-131.75 271.29,-140.85 278.15,-142.25"/>
</g>
</g>
</svg>
