<?xml version="1.0" encoding="UTF-8" standalone="no"?>
<!DOCTYPE svg PUBLIC "-//W3C//DTD SVG 1.1//EN"
 "http://www.w3.org/Graphics/SVG/1.1/DTD/svg11.dtd">
<!-- Generated by graphviz version 2.43.0 (0)
 -->
<!-- Title: hrmessage.cpp Pages: 1 -->
<svg width="390pt" height="364pt"
 viewBox="0.00 0.00 390.00 364.00" xmlns="http://www.w3.org/2000/svg" xmlns:xlink="http://www.w3.org/1999/xlink">
<g id="graph0" class="graph" transform="scale(1 1) rotate(0) translate(4 360)">
<title>hrmessage.cpp</title>
<!-- Node1 -->
<g id="node1" class="node">
<title>Node1</title>
<g id="a_node1"><a xlink:title=" ">
<polygon fill="#bfbfbf" stroke="black" points="203,-336.5 203,-355.5 294,-355.5 294,-336.5 203,-336.5"/>
<text text-anchor="middle" x="248.5" y="-343.5" font-family="Helvetica,sans-Serif" font-size="10.00">hrmessage.cpp</text>
</a>
</g>
</g>
<!-- Node2 -->
<g id="node2" class="node">
<title>Node2</title>
<g id="a_node2"><a xlink:href="hrmessage_8h.html" target="_top" xlink:title=" ">
<polygon fill="none" stroke="black" points="54.5,-280.5 54.5,-299.5 134.5,-299.5 134.5,-280.5 54.5,-280.5"/>
<text text-anchor="middle" x="94.5" y="-287.5" font-family="Helvetica,sans-Serif" font-size="10.00">hrmessage.h</text>
</a>
</g>
</g>
<!-- Node1&#45;&gt;Node2 -->
<g id="edge1" class="edge">
<title>Node1&#45;&gt;Node2</title>
<path fill="none" stroke="midnightblue" d="M224.1,-336.44C198.3,-327.4 157.42,-313.06 128.48,-302.92"/>
<polygon fill="midnightblue" stroke="midnightblue" points="129.38,-299.52 118.79,-299.52 127.07,-306.13 129.38,-299.52"/>
</g>
<!-- Node7 -->
<g id="node7" class="node">
<title>Node7</title>
<g id="a_node7"><a xlink:title=" ">
<polygon fill="none" stroke="#bfbfbf" points="223.5,-56.5 223.5,-75.5 279.5,-75.5 279.5,-56.5 223.5,-56.5"/>
<text text-anchor="middle" x="251.5" y="-63.5" font-family="Helvetica,sans-Serif" font-size="10.00">QDebug</text>
</a>
</g>
</g>
<!-- Node1&#45;&gt;Node7 -->
<g id="edge15" class="edge">
<title>Node1&#45;&gt;Node7</title>
<path fill="none" stroke="midnightblue" d="M254.62,-336.35C266.71,-318.38 292.5,-275.31 292.5,-235 292.5,-235 292.5,-235 292.5,-177 292.5,-142.52 274.59,-105.56 262.44,-84.47"/>
<polygon fill="midnightblue" stroke="midnightblue" points="265.34,-82.49 257.2,-75.71 259.34,-86.09 265.34,-82.49"/>
</g>
<!-- Node8 -->
<g id="node8" class="node">
<title>Node8</title>
<g id="a_node8"><a xlink:href="hrmessage__p_8h.html" target="_top" xlink:title=" ">
<polygon fill="none" stroke="black" points="166,-280.5 166,-299.5 257,-299.5 257,-280.5 166,-280.5"/>
<text text-anchor="middle" x="211.5" y="-287.5" font-family="Helvetica,sans-Serif" font-size="10.00">hrmessage_p.h</text>
</a>
</g>
</g>
<!-- Node1&#45;&gt;Node8 -->
<g id="edge8" class="edge">
<title>Node1&#45;&gt;Node8</title>
<path fill="none" stroke="midnightblue" d="M242.39,-336.08C237.22,-328.53 229.65,-317.49 223.31,-308.23"/>
<polygon fill="midnightblue" stroke="midnightblue" points="226.04,-306.02 217.5,-299.75 220.26,-309.98 226.04,-306.02"/>
</g>
<!-- Node12 -->
<g id="node12" class="node">
<title>Node12</title>
<g id="a_node12"><a xlink:title=" ">
<polygon fill="none" stroke="#bfbfbf" points="321,-280.5 321,-299.5 382,-299.5 382,-280.5 321,-280.5"/>
<text text-anchor="middle" x="351.5" y="-287.5" font-family="Helvetica,sans-Serif" font-size="10.00">QtEndian</text>
</a>
</g>
</g>
<!-- Node1&#45;&gt;Node12 -->
<g id="edge16" class="edge">
<title>Node1&#45;&gt;Node12</title>
<path fill="none" stroke="midnightblue" d="M265.05,-336.32C281.49,-327.7 306.93,-314.36 325.97,-304.39"/>
<polygon fill="midnightblue" stroke="midnightblue" points="327.76,-307.4 334.99,-299.65 324.51,-301.2 327.76,-307.4"/>
</g>
<!-- Node3 -->
<g id="node3" class="node">
<title>Node3</title>
<g id="a_node3"><a xlink:href="fitdatamessage_8h.html" target="_top" xlink:title=" ">
<polygon fill="none" stroke="black" points="0,-168.5 0,-187.5 101,-187.5 101,-168.5 0,-168.5"/>
<text text-anchor="middle" x="50.5" y="-175.5" font-family="Helvetica,sans-Serif" font-size="10.00">fitdatamessage.h</text>
</a>
</g>
</g>
<!-- Node2&#45;&gt;Node3 -->
<g id="edge2" class="edge">
<title>Node2&#45;&gt;Node3</title>
<path fill="none" stroke="midnightblue" d="M91.05,-280.37C83.88,-262.46 67.27,-220.92 57.68,-196.95"/>
<polygon fill="midnightblue" stroke="midnightblue" points="60.9,-195.58 53.94,-187.59 54.4,-198.18 60.9,-195.58"/>
</g>
<!-- Node4 -->
<g id="node4" class="node">
<title>Node4</title>
<g id="a_node4"><a xlink:href="QtFit__global_8h.html" target="_top" xlink:title=" ">
<polygon fill="none" stroke="black" points="81.5,-56.5 81.5,-75.5 165.5,-75.5 165.5,-56.5 81.5,-56.5"/>
<text text-anchor="middle" x="123.5" y="-63.5" font-family="Helvetica,sans-Serif" font-size="10.00">QtFit_global.h</text>
</a>
</g>
</g>
<!-- Node3&#45;&gt;Node4 -->
<g id="edge3" class="edge">
<title>Node3&#45;&gt;Node4</title>
<path fill="none" stroke="midnightblue" d="M56.23,-168.37C68.28,-150.22 96.42,-107.8 112.22,-83.99"/>
<polygon fill="midnightblue" stroke="midnightblue" points="115.19,-85.86 117.8,-75.59 109.35,-81.99 115.19,-85.86"/>
</g>
<!-- Node6 -->
<g id="node6" class="node">
<title>Node6</title>
<g id="a_node6"><a xlink:href="types_8h.html" target="_top" xlink:title="Types defined by the ANT+ FIT SDK.">
<polygon fill="none" stroke="black" points="152,-112.5 152,-131.5 205,-131.5 205,-112.5 152,-112.5"/>
<text text-anchor="middle" x="178.5" y="-119.5" font-family="Helvetica,sans-Serif" font-size="10.00">types.h</text>
</a>
</g>
</g>
<!-- Node3&#45;&gt;Node6 -->
<g id="edge5" class="edge">
<title>Node3&#45;&gt;Node6</title>
<path fill="none" stroke="midnightblue" d="M70.78,-168.44C91.85,-159.56 125.02,-145.56 148.99,-135.45"/>
<polygon fill="midnightblue" stroke="midnightblue" points="150.46,-138.63 158.31,-131.52 147.74,-132.18 150.46,-138.63"/>
</g>
<!-- Node5 -->
<g id="node5" class="node">
<title>Node5</title>
<g id="a_node5"><a xlink:title=" ">
<polygon fill="none" stroke="#bfbfbf" points="94,-0.5 94,-19.5 153,-19.5 153,-0.5 94,-0.5"/>
<text text-anchor="middle" x="123.5" y="-7.5" font-family="Helvetica,sans-Serif" font-size="10.00">QtGlobal</text>
</a>
</g>
</g>
<!-- Node4&#45;&gt;Node5 -->
<g id="edge4" class="edge">
<title>Node4&#45;&gt;Node5</title>
<path fill="none" stroke="midnightblue" d="M123.5,-56.08C123.5,-49.01 123.5,-38.86 123.5,-29.99"/>
<polygon fill="midnightblue" stroke="midnightblue" points="127,-29.75 123.5,-19.75 120,-29.75 127,-29.75"/>
</g>
<!-- Node6&#45;&gt;Node4 -->
<g id="edge6" class="edge">
<title>Node6&#45;&gt;Node4</title>
<path fill="none" stroke="midnightblue" d="M169.42,-112.08C161.33,-104.14 149.3,-92.34 139.59,-82.8"/>
<polygon fill="midnightblue" stroke="midnightblue" points="142,-80.26 132.41,-75.75 137.1,-85.25 142,-80.26"/>
</g>
<!-- Node6&#45;&gt;Node7 -->
<g id="edge7" class="edge">
<title>Node6&#45;&gt;Node7</title>
<path fill="none" stroke="midnightblue" d="M190.23,-112.32C201.34,-104.11 218.24,-91.6 231.48,-81.81"/>
<polygon fill="midnightblue" stroke="midnightblue" points="233.6,-84.59 239.56,-75.83 229.44,-78.97 233.6,-84.59"/>
</g>
<!-- Node9 -->
<g id="node9" class="node">
<title>Node9</title>
<g id="a_node9"><a xlink:href="fitdatamessage__p_8h.html" target="_top" xlink:title=" ">
<polygon fill="none" stroke="black" points="127,-224.5 127,-243.5 240,-243.5 240,-224.5 127,-224.5"/>
<text text-anchor="middle" x="183.5" y="-231.5" font-family="Helvetica,sans-Serif" font-size="10.00">fitdatamessage_p.h</text>
</a>
</g>
</g>
<!-- Node8&#45;&gt;Node9 -->
<g id="edge9" class="edge">
<title>Node8&#45;&gt;Node9</title>
<path fill="none" stroke="midnightblue" d="M206.88,-280.08C203.04,-272.69 197.48,-261.95 192.74,-252.81"/>
<polygon fill="midnightblue" stroke="midnightblue" points="195.75,-251.02 188.04,-243.75 189.53,-254.24 195.75,-251.02"/>
</g>
<!-- Node9&#45;&gt;Node4 -->
<g id="edge10" class="edge">
<title>Node9&#45;&gt;Node4</title>
<path fill="none" stroke="midnightblue" d="M179.69,-224.47C172.07,-207.21 154.63,-166.85 142.5,-132 137.06,-116.39 131.87,-98.31 128.29,-85.19"/>
<polygon fill="midnightblue" stroke="midnightblue" points="131.66,-84.25 125.69,-75.5 124.9,-86.07 131.66,-84.25"/>
</g>
<!-- Node9&#45;&gt;Node6 -->
<g id="edge11" class="edge">
<title>Node9&#45;&gt;Node6</title>
<path fill="none" stroke="midnightblue" d="M183.11,-224.37C182.3,-206.62 180.44,-165.67 179.35,-141.6"/>
<polygon fill="midnightblue" stroke="midnightblue" points="182.84,-141.42 178.89,-131.59 175.85,-141.74 182.84,-141.42"/>
</g>
<!-- Node10 -->
<g id="node10" class="node">
<title>Node10</title>
<g id="a_node10"><a xlink:href="types__p_8h.html" target="_top" xlink:title=" ">
<polygon fill="none" stroke="black" points="200.5,-168.5 200.5,-187.5 264.5,-187.5 264.5,-168.5 200.5,-168.5"/>
<text text-anchor="middle" x="232.5" y="-175.5" font-family="Helvetica,sans-Serif" font-size="10.00">types_p.h</text>
</a>
</g>
</g>
<!-- Node9&#45;&gt;Node10 -->
<g id="edge12" class="edge">
<title>Node9&#45;&gt;Node10</title>
<path fill="none" stroke="midnightblue" d="M191.59,-224.08C198.66,-216.3 209.09,-204.8 217.65,-195.37"/>
<polygon fill="midnightblue" stroke="midnightblue" points="220.43,-197.51 224.56,-187.75 215.25,-192.8 220.43,-197.51"/>
</g>
<!-- Node10&#45;&gt;Node6 -->
<g id="edge13" class="edge">
<title>Node10&#45;&gt;Node6</title>
<path fill="none" stroke="midnightblue" d="M223.58,-168.08C215.72,-160.22 204.07,-148.57 194.58,-139.08"/>
<polygon fill="midnightblue" stroke="midnightblue" points="196.8,-136.35 187.25,-131.75 191.85,-141.3 196.8,-136.35"/>
</g>
<!-- Node11 -->
<g id="node11" class="node">
<title>Node11</title>
<g id="a_node11"><a xlink:title=" ">
<polygon fill="none" stroke="#bfbfbf" points="223,-112.5 223,-131.5 264,-131.5 264,-112.5 223,-112.5"/>
<text text-anchor="middle" x="243.5" y="-119.5" font-family="Helvetica,sans-Serif" font-size="10.00">QList</text>
</a>
</g>
</g>
<!-- Node10&#45;&gt;Node11 -->
<g id="edge14" class="edge">
<title>Node10&#45;&gt;Node11</title>
<path fill="none" stroke="midnightblue" d="M234.32,-168.08C235.77,-160.93 237.87,-150.64 239.69,-141.69"/>
<polygon fill="midnightblue" stroke="midnightblue" points="243.15,-142.25 241.72,-131.75 236.29,-140.85 243.15,-142.25"/>
</g>
</g>
</svg>
