<?xml version="1.0" encoding="UTF-8" standalone="no"?>
<!DOCTYPE svg PUBLIC "-//W3C//DTD SVG 1.1//EN"
 "http://www.w3.org/Graphics/SVG/1.1/DTD/svg11.dtd">
<!-- Generated by graphviz version 2.43.0 (0)
 -->
<!-- Title: hrmessage.cpp Pages: 1 -->
<svg width="333pt" height="364pt"
 viewBox="0.00 0.00 332.55 364.00" xmlns="http://www.w3.org/2000/svg" xmlns:xlink="http://www.w3.org/1999/xlink">
<g id="graph0" class="graph" transform="scale(1 1) rotate(0) translate(4 360)">
<title>hrmessage.cpp</title>
<!-- Node1 -->
<g id="node1" class="node">
<title>Node1</title>
<g id="a_node1"><a xlink:title=" ">
<polygon fill="#bfbfbf" stroke="black" points="143.55,-336.5 143.55,-355.5 234.55,-355.5 234.55,-336.5 143.55,-336.5"/>
<text text-anchor="middle" x="189.05" y="-343.5" font-family="Helvetica,sans-Serif" font-size="10.00">hrmessage.cpp</text>
</a>
</g>
</g>
<!-- Node2 -->
<g id="node2" class="node">
<title>Node2</title>
<g id="a_node2"><a xlink:href="hrmessage_8h.html" target="_top" xlink:title=" ">
<polygon fill="none" stroke="black" points="138.05,-224.5 138.05,-243.5 218.05,-243.5 218.05,-224.5 138.05,-224.5"/>
<text text-anchor="middle" x="178.05" y="-231.5" font-family="Helvetica,sans-Serif" font-size="10.00">hrmessage.h</text>
</a>
</g>
</g>
<!-- Node1&#45;&gt;Node2 -->
<g id="edge1" class="edge">
<title>Node1&#45;&gt;Node2</title>
<path fill="none" stroke="midnightblue" d="M186.9,-336.44C184.74,-327.44 181.52,-312.82 180.05,-300 178.28,-284.56 177.84,-266.93 177.81,-253.93"/>
<polygon fill="midnightblue" stroke="midnightblue" points="181.31,-253.88 177.86,-243.87 174.31,-253.85 181.31,-253.88"/>
</g>
<!-- Node7 -->
<g id="node7" class="node">
<title>Node7</title>
<g id="a_node7"><a xlink:href="hrmessage__p_8h.html" target="_top" xlink:title=" ">
<polygon fill="none" stroke="black" points="31.55,-280.5 31.55,-299.5 122.55,-299.5 122.55,-280.5 31.55,-280.5"/>
<text text-anchor="middle" x="77.05" y="-287.5" font-family="Helvetica,sans-Serif" font-size="10.00">hrmessage_p.h</text>
</a>
</g>
</g>
<!-- Node1&#45;&gt;Node7 -->
<g id="edge7" class="edge">
<title>Node1&#45;&gt;Node7</title>
<path fill="none" stroke="midnightblue" d="M171.06,-336.32C153.02,-327.62 125.01,-314.12 104.25,-304.11"/>
<polygon fill="midnightblue" stroke="midnightblue" points="105.53,-300.84 95,-299.65 102.49,-307.15 105.53,-300.84"/>
</g>
<!-- Node11 -->
<g id="node11" class="node">
<title>Node11</title>
<g id="a_node11"><a xlink:title=" ">
<polygon fill="none" stroke="#bfbfbf" points="189.05,-280.5 189.05,-299.5 245.05,-299.5 245.05,-280.5 189.05,-280.5"/>
<text text-anchor="middle" x="217.05" y="-287.5" font-family="Helvetica,sans-Serif" font-size="10.00">QDebug</text>
</a>
</g>
</g>
<!-- Node1&#45;&gt;Node11 -->
<g id="edge14" class="edge">
<title>Node1&#45;&gt;Node11</title>
<path fill="none" stroke="midnightblue" d="M193.68,-336.08C197.51,-328.69 203.08,-317.95 207.82,-308.81"/>
<polygon fill="midnightblue" stroke="midnightblue" points="211.02,-310.24 212.52,-299.75 204.81,-307.02 211.02,-310.24"/>
</g>
<!-- Node12 -->
<g id="node12" class="node">
<title>Node12</title>
<g id="a_node12"><a xlink:title=" ">
<polygon fill="none" stroke="#bfbfbf" points="263.55,-280.5 263.55,-299.5 324.55,-299.5 324.55,-280.5 263.55,-280.5"/>
<text text-anchor="middle" x="294.05" y="-287.5" font-family="Helvetica,sans-Serif" font-size="10.00">QtEndian</text>
</a>
</g>
</g>
<!-- Node1&#45;&gt;Node12 -->
<g id="edge15" class="edge">
<title>Node1&#45;&gt;Node12</title>
<path fill="none" stroke="midnightblue" d="M205.92,-336.32C222.76,-327.66 248.86,-314.24 268.29,-304.25"/>
<polygon fill="midnightblue" stroke="midnightblue" points="269.93,-307.34 277.23,-299.65 266.73,-301.12 269.93,-307.34"/>
</g>
<!-- Node3 -->
<g id="node3" class="node">
<title>Node3</title>
<g id="a_node3"><a xlink:href="fitdatamessage_8h.html" target="_top" xlink:title=" ">
<polygon fill="none" stroke="black" points="133.55,-168.5 133.55,-187.5 234.55,-187.5 234.55,-168.5 133.55,-168.5"/>
<text text-anchor="middle" x="184.05" y="-175.5" font-family="Helvetica,sans-Serif" font-size="10.00">fitdatamessage.h</text>
</a>
</g>
</g>
<!-- Node2&#45;&gt;Node3 -->
<g id="edge2" class="edge">
<title>Node2&#45;&gt;Node3</title>
<path fill="none" stroke="midnightblue" d="M179.04,-224.08C179.84,-216.93 180.98,-206.64 181.98,-197.69"/>
<polygon fill="midnightblue" stroke="midnightblue" points="185.46,-198.08 183.08,-187.75 178.5,-197.3 185.46,-198.08"/>
</g>
<!-- Node4 -->
<g id="node4" class="node">
<title>Node4</title>
<g id="a_node4"><a xlink:href="QtFit__global_8h.html" target="_top" xlink:title=" ">
<polygon fill="none" stroke="black" points="65.05,-56.5 65.05,-75.5 149.05,-75.5 149.05,-56.5 65.05,-56.5"/>
<text text-anchor="middle" x="107.05" y="-63.5" font-family="Helvetica,sans-Serif" font-size="10.00">QtFit_global.h</text>
</a>
</g>
</g>
<!-- Node3&#45;&gt;Node4 -->
<g id="edge3" class="edge">
<title>Node3&#45;&gt;Node4</title>
<path fill="none" stroke="midnightblue" d="M179.04,-168.39C171.59,-155.75 156.98,-131.56 143.05,-112 136.16,-102.32 127.92,-91.94 121.06,-83.59"/>
<polygon fill="midnightblue" stroke="midnightblue" points="123.61,-81.19 114.53,-75.74 118.23,-85.66 123.61,-81.19"/>
</g>
<!-- Node6 -->
<g id="node6" class="node">
<title>Node6</title>
<g id="a_node6"><a xlink:href="types_8h.html" target="_top" xlink:title="Types defined by the ANT+ FIT SDK.">
<polygon fill="none" stroke="black" points="80.55,-112.5 80.55,-131.5 133.55,-131.5 133.55,-112.5 80.55,-112.5"/>
<text text-anchor="middle" x="107.05" y="-119.5" font-family="Helvetica,sans-Serif" font-size="10.00">types.h</text>
</a>
</g>
</g>
<!-- Node3&#45;&gt;Node6 -->
<g id="edge5" class="edge">
<title>Node3&#45;&gt;Node6</title>
<path fill="none" stroke="midnightblue" d="M171.68,-168.32C159.89,-160.06 141.92,-147.45 127.92,-137.63"/>
<polygon fill="midnightblue" stroke="midnightblue" points="129.59,-134.53 119.39,-131.65 125.57,-140.26 129.59,-134.53"/>
</g>
<!-- Node5 -->
<g id="node5" class="node">
<title>Node5</title>
<g id="a_node5"><a xlink:title=" ">
<polygon fill="none" stroke="#bfbfbf" points="77.55,-0.5 77.55,-19.5 136.55,-19.5 136.55,-0.5 77.55,-0.5"/>
<text text-anchor="middle" x="107.05" y="-7.5" font-family="Helvetica,sans-Serif" font-size="10.00">QtGlobal</text>
</a>
</g>
</g>
<!-- Node4&#45;&gt;Node5 -->
<g id="edge4" class="edge">
<title>Node4&#45;&gt;Node5</title>
<path fill="none" stroke="midnightblue" d="M107.05,-56.08C107.05,-49.01 107.05,-38.86 107.05,-29.99"/>
<polygon fill="midnightblue" stroke="midnightblue" points="110.55,-29.75 107.05,-19.75 103.55,-29.75 110.55,-29.75"/>
</g>
<!-- Node6&#45;&gt;Node4 -->
<g id="edge6" class="edge">
<title>Node6&#45;&gt;Node4</title>
<path fill="none" stroke="midnightblue" d="M107.05,-112.08C107.05,-105.01 107.05,-94.86 107.05,-85.99"/>
<polygon fill="midnightblue" stroke="midnightblue" points="110.55,-85.75 107.05,-75.75 103.55,-85.75 110.55,-85.75"/>
</g>
<!-- Node8 -->
<g id="node8" class="node">
<title>Node8</title>
<g id="a_node8"><a xlink:href="fitdatamessage__p_8h.html" target="_top" xlink:title=" ">
<polygon fill="none" stroke="black" points="0.55,-224.5 0.55,-243.5 113.55,-243.5 113.55,-224.5 0.55,-224.5"/>
<text text-anchor="middle" x="57.05" y="-231.5" font-family="Helvetica,sans-Serif" font-size="10.00">fitdatamessage_p.h</text>
</a>
</g>
</g>
<!-- Node7&#45;&gt;Node8 -->
<g id="edge8" class="edge">
<title>Node7&#45;&gt;Node8</title>
<path fill="none" stroke="midnightblue" d="M73.75,-280.08C71.07,-272.85 67.2,-262.41 63.87,-253.4"/>
<polygon fill="midnightblue" stroke="midnightblue" points="67.05,-251.91 60.29,-243.75 60.49,-254.34 67.05,-251.91"/>
</g>
<!-- Node8&#45;&gt;Node4 -->
<g id="edge9" class="edge">
<title>Node8&#45;&gt;Node4</title>
<path fill="none" stroke="midnightblue" d="M40.72,-224.39C28.1,-216.72 11.56,-204.21 4.05,-188 -3.91,-170.79 1.45,-126.39 12.05,-112 23.66,-96.26 42.19,-85.81 59.82,-78.98"/>
<polygon fill="midnightblue" stroke="midnightblue" points="61.22,-82.2 69.47,-75.55 58.88,-75.6 61.22,-82.2"/>
</g>
<!-- Node8&#45;&gt;Node6 -->
<g id="edge10" class="edge">
<title>Node8&#45;&gt;Node6</title>
<path fill="none" stroke="midnightblue" d="M63.54,-224.43C69.95,-215.66 79.69,-201.44 86.05,-188 93.19,-172.93 98.83,-154.8 102.45,-141.52"/>
<polygon fill="midnightblue" stroke="midnightblue" points="105.88,-142.24 105.02,-131.68 99.11,-140.48 105.88,-142.24"/>
</g>
<!-- Node9 -->
<g id="node9" class="node">
<title>Node9</title>
<g id="a_node9"><a xlink:href="types__p_8h.html" target="_top" xlink:title=" ">
<polygon fill="none" stroke="black" points="13.05,-168.5 13.05,-187.5 77.05,-187.5 77.05,-168.5 13.05,-168.5"/>
<text text-anchor="middle" x="45.05" y="-175.5" font-family="Helvetica,sans-Serif" font-size="10.00">types_p.h</text>
</a>
</g>
</g>
<!-- Node8&#45;&gt;Node9 -->
<g id="edge11" class="edge">
<title>Node8&#45;&gt;Node9</title>
<path fill="none" stroke="midnightblue" d="M55.07,-224.08C53.48,-216.93 51.19,-206.64 49.21,-197.69"/>
<polygon fill="midnightblue" stroke="midnightblue" points="52.58,-196.75 47,-187.75 45.75,-198.27 52.58,-196.75"/>
</g>
<!-- Node9&#45;&gt;Node6 -->
<g id="edge12" class="edge">
<title>Node9&#45;&gt;Node6</title>
<path fill="none" stroke="midnightblue" d="M55.01,-168.32C64.18,-160.34 77.99,-148.31 89.08,-138.65"/>
<polygon fill="midnightblue" stroke="midnightblue" points="91.67,-141.04 96.91,-131.83 87.07,-135.76 91.67,-141.04"/>
</g>
<!-- Node10 -->
<g id="node10" class="node">
<title>Node10</title>
<g id="a_node10"><a xlink:title=" ">
<polygon fill="none" stroke="#bfbfbf" points="21.55,-112.5 21.55,-131.5 62.55,-131.5 62.55,-112.5 21.55,-112.5"/>
<text text-anchor="middle" x="42.05" y="-119.5" font-family="Helvetica,sans-Serif" font-size="10.00">QList</text>
</a>
</g>
</g>
<!-- Node9&#45;&gt;Node10 -->
<g id="edge13" class="edge">
<title>Node9&#45;&gt;Node10</title>
<path fill="none" stroke="midnightblue" d="M44.56,-168.08C44.16,-161.01 43.6,-150.86 43.11,-141.99"/>
<polygon fill="midnightblue" stroke="midnightblue" points="46.59,-141.54 42.54,-131.75 39.6,-141.93 46.59,-141.54"/>
</g>
</g>
</svg>
