<?xml version="1.0" encoding="UTF-8" standalone="no"?>
<!DOCTYPE svg PUBLIC "-//W3C//DTD SVG 1.1//EN"
 "http://www.w3.org/Graphics/SVG/1.1/DTD/svg11.dtd">
<!-- Generated by graphviz version 2.43.0 (0)
 -->
<!-- Title: hrmessage.cpp Pages: 1 -->
<svg width="250pt" height="364pt"
 viewBox="0.00 0.00 250.00 364.00" xmlns="http://www.w3.org/2000/svg" xmlns:xlink="http://www.w3.org/1999/xlink">
<g id="graph0" class="graph" transform="scale(1 1) rotate(0) translate(4 360)">
<title>hrmessage.cpp</title>
<!-- Node1 -->
<g id="node1" class="node">
<title>Node1</title>
<g id="a_node1"><a xlink:title=" ">
<polygon fill="#bfbfbf" stroke="black" points="80,-336.5 80,-355.5 171,-355.5 171,-336.5 80,-336.5"/>
<text text-anchor="middle" x="125.5" y="-343.5" font-family="Helvetica,sans-Serif" font-size="10.00">hrmessage.cpp</text>
</a>
</g>
</g>
<!-- Node2 -->
<g id="node2" class="node">
<title>Node2</title>
<g id="a_node2"><a xlink:href="hrmessage_8h.html" target="_top" xlink:title=" ">
<polygon fill="none" stroke="black" points="146.5,-280.5 146.5,-299.5 226.5,-299.5 226.5,-280.5 146.5,-280.5"/>
<text text-anchor="middle" x="186.5" y="-287.5" font-family="Helvetica,sans-Serif" font-size="10.00">hrmessage.h</text>
</a>
</g>
</g>
<!-- Node1&#45;&gt;Node2 -->
<g id="edge1" class="edge">
<title>Node1&#45;&gt;Node2</title>
<path fill="none" stroke="midnightblue" d="M135.3,-336.32C144.32,-328.34 157.91,-316.31 168.82,-306.65"/>
<polygon fill="midnightblue" stroke="midnightblue" points="171.35,-309.08 176.52,-299.83 166.71,-303.84 171.35,-309.08"/>
</g>
<!-- Node7 -->
<g id="node7" class="node">
<title>Node7</title>
<g id="a_node7"><a xlink:href="hrmessage__p_8h.html" target="_top" xlink:title=" ">
<polygon fill="none" stroke="black" points="28,-280.5 28,-299.5 119,-299.5 119,-280.5 28,-280.5"/>
<text text-anchor="middle" x="73.5" y="-287.5" font-family="Helvetica,sans-Serif" font-size="10.00">hrmessage_p.h</text>
</a>
</g>
</g>
<!-- Node1&#45;&gt;Node7 -->
<g id="edge7" class="edge">
<title>Node1&#45;&gt;Node7</title>
<path fill="none" stroke="midnightblue" d="M116.91,-336.08C109.34,-328.22 98.12,-316.57 88.99,-307.08"/>
<polygon fill="midnightblue" stroke="midnightblue" points="91.38,-304.53 81.93,-299.75 86.34,-309.38 91.38,-304.53"/>
</g>
<!-- Node3 -->
<g id="node3" class="node">
<title>Node3</title>
<g id="a_node3"><a xlink:href="fitdatamessage_8h.html" target="_top" xlink:title=" ">
<polygon fill="none" stroke="black" points="141,-168.5 141,-187.5 242,-187.5 242,-168.5 141,-168.5"/>
<text text-anchor="middle" x="191.5" y="-175.5" font-family="Helvetica,sans-Serif" font-size="10.00">fitdatamessage.h</text>
</a>
</g>
</g>
<!-- Node2&#45;&gt;Node3 -->
<g id="edge2" class="edge">
<title>Node2&#45;&gt;Node3</title>
<path fill="none" stroke="midnightblue" d="M186.89,-280.37C187.7,-262.62 189.56,-221.67 190.65,-197.6"/>
<polygon fill="midnightblue" stroke="midnightblue" points="194.15,-197.74 191.11,-187.59 187.16,-197.42 194.15,-197.74"/>
</g>
<!-- Node4 -->
<g id="node4" class="node">
<title>Node4</title>
<g id="a_node4"><a xlink:href="QtFit__global_8h.html" target="_top" xlink:title=" ">
<polygon fill="none" stroke="black" points="72.5,-56.5 72.5,-75.5 156.5,-75.5 156.5,-56.5 72.5,-56.5"/>
<text text-anchor="middle" x="114.5" y="-63.5" font-family="Helvetica,sans-Serif" font-size="10.00">QtFit_global.h</text>
</a>
</g>
</g>
<!-- Node3&#45;&gt;Node4 -->
<g id="edge3" class="edge">
<title>Node3&#45;&gt;Node4</title>
<path fill="none" stroke="midnightblue" d="M186.49,-168.39C179.04,-155.75 164.43,-131.56 150.5,-112 143.61,-102.32 135.36,-91.94 128.51,-83.59"/>
<polygon fill="midnightblue" stroke="midnightblue" points="131.06,-81.19 121.97,-75.74 125.68,-85.66 131.06,-81.19"/>
</g>
<!-- Node6 -->
<g id="node6" class="node">
<title>Node6</title>
<g id="a_node6"><a xlink:href="types_8h.html" target="_top" xlink:title="Types defined by the ANT+ FIT SDK.">
<polygon fill="none" stroke="black" points="88,-112.5 88,-131.5 141,-131.5 141,-112.5 88,-112.5"/>
<text text-anchor="middle" x="114.5" y="-119.5" font-family="Helvetica,sans-Serif" font-size="10.00">types.h</text>
</a>
</g>
</g>
<!-- Node3&#45;&gt;Node6 -->
<g id="edge5" class="edge">
<title>Node3&#45;&gt;Node6</title>
<path fill="none" stroke="midnightblue" d="M179.13,-168.32C167.34,-160.06 149.37,-147.45 135.36,-137.63"/>
<polygon fill="midnightblue" stroke="midnightblue" points="137.04,-134.53 126.84,-131.65 133.02,-140.26 137.04,-134.53"/>
</g>
<!-- Node5 -->
<g id="node5" class="node">
<title>Node5</title>
<g id="a_node5"><a xlink:title=" ">
<polygon fill="none" stroke="#bfbfbf" points="85,-0.5 85,-19.5 144,-19.5 144,-0.5 85,-0.5"/>
<text text-anchor="middle" x="114.5" y="-7.5" font-family="Helvetica,sans-Serif" font-size="10.00">QtGlobal</text>
</a>
</g>
</g>
<!-- Node4&#45;&gt;Node5 -->
<g id="edge4" class="edge">
<title>Node4&#45;&gt;Node5</title>
<path fill="none" stroke="midnightblue" d="M114.5,-56.08C114.5,-49.01 114.5,-38.86 114.5,-29.99"/>
<polygon fill="midnightblue" stroke="midnightblue" points="118,-29.75 114.5,-19.75 111,-29.75 118,-29.75"/>
</g>
<!-- Node6&#45;&gt;Node4 -->
<g id="edge6" class="edge">
<title>Node6&#45;&gt;Node4</title>
<path fill="none" stroke="midnightblue" d="M114.5,-112.08C114.5,-105.01 114.5,-94.86 114.5,-85.99"/>
<polygon fill="midnightblue" stroke="midnightblue" points="118,-85.75 114.5,-75.75 111,-85.75 118,-85.75"/>
</g>
<!-- Node8 -->
<g id="node8" class="node">
<title>Node8</title>
<g id="a_node8"><a xlink:href="fitdatamessage__p_8h.html" target="_top" xlink:title=" ">
<polygon fill="none" stroke="black" points="0,-224.5 0,-243.5 113,-243.5 113,-224.5 0,-224.5"/>
<text text-anchor="middle" x="56.5" y="-231.5" font-family="Helvetica,sans-Serif" font-size="10.00">fitdatamessage_p.h</text>
</a>
</g>
</g>
<!-- Node7&#45;&gt;Node8 -->
<g id="edge8" class="edge">
<title>Node7&#45;&gt;Node8</title>
<path fill="none" stroke="midnightblue" d="M70.69,-280.08C68.42,-272.85 65.13,-262.41 62.29,-253.4"/>
<polygon fill="midnightblue" stroke="midnightblue" points="65.6,-252.24 59.25,-243.75 58.92,-254.34 65.6,-252.24"/>
</g>
<!-- Node8&#45;&gt;Node4 -->
<g id="edge9" class="edge">
<title>Node8&#45;&gt;Node4</title>
<path fill="none" stroke="midnightblue" d="M43.44,-224.44C32.59,-216.47 17.93,-203.52 11.5,-188 4.07,-170.06 10.41,-124.33 19.5,-112 31.1,-96.26 49.64,-85.81 67.27,-78.98"/>
<polygon fill="midnightblue" stroke="midnightblue" points="68.67,-82.2 76.92,-75.55 66.32,-75.6 68.67,-82.2"/>
</g>
<!-- Node8&#45;&gt;Node6 -->
<g id="edge10" class="edge">
<title>Node8&#45;&gt;Node6</title>
<path fill="none" stroke="midnightblue" d="M65.24,-224.43C73.54,-215.88 85.83,-202.02 93.5,-188 101.5,-173.37 107.05,-155.2 110.42,-141.79"/>
<polygon fill="midnightblue" stroke="midnightblue" points="113.88,-142.37 112.75,-131.83 107.07,-140.77 113.88,-142.37"/>
</g>
<!-- Node9 -->
<g id="node9" class="node">
<title>Node9</title>
<g id="a_node9"><a xlink:href="types__p_8h.html" target="_top" xlink:title=" ">
<polygon fill="none" stroke="black" points="20.5,-168.5 20.5,-187.5 84.5,-187.5 84.5,-168.5 20.5,-168.5"/>
<text text-anchor="middle" x="52.5" y="-175.5" font-family="Helvetica,sans-Serif" font-size="10.00">types_p.h</text>
</a>
</g>
</g>
<!-- Node8&#45;&gt;Node9 -->
<g id="edge11" class="edge">
<title>Node8&#45;&gt;Node9</title>
<path fill="none" stroke="midnightblue" d="M55.84,-224.08C55.32,-217.01 54.56,-206.86 53.91,-197.99"/>
<polygon fill="midnightblue" stroke="midnightblue" points="57.38,-197.47 53.15,-187.75 50.4,-197.98 57.38,-197.47"/>
</g>
<!-- Node9&#45;&gt;Node6 -->
<g id="edge12" class="edge">
<title>Node9&#45;&gt;Node6</title>
<path fill="none" stroke="midnightblue" d="M62.46,-168.32C71.63,-160.34 85.44,-148.31 96.53,-138.65"/>
<polygon fill="midnightblue" stroke="midnightblue" points="99.12,-141.04 104.36,-131.83 94.52,-135.76 99.12,-141.04"/>
</g>
<!-- Node10 -->
<g id="node10" class="node">
<title>Node10</title>
<g id="a_node10"><a xlink:title=" ">
<polygon fill="none" stroke="#bfbfbf" points="29,-112.5 29,-131.5 70,-131.5 70,-112.5 29,-112.5"/>
<text text-anchor="middle" x="49.5" y="-119.5" font-family="Helvetica,sans-Serif" font-size="10.00">QList</text>
</a>
</g>
</g>
<!-- Node9&#45;&gt;Node10 -->
<g id="edge13" class="edge">
<title>Node9&#45;&gt;Node10</title>
<path fill="none" stroke="midnightblue" d="M52,-168.08C51.61,-161.01 51.05,-150.86 50.55,-141.99"/>
<polygon fill="midnightblue" stroke="midnightblue" points="54.04,-141.54 49.99,-131.75 47.05,-141.93 54.04,-141.54"/>
</g>
</g>
</svg>
