<?xml version="1.0" encoding="UTF-8" standalone="no"?>
<!DOCTYPE svg PUBLIC "-//W3C//DTD SVG 1.1//EN"
 "http://www.w3.org/Graphics/SVG/1.1/DTD/svg11.dtd">
<!-- Generated by graphviz version 2.43.0 (0)
 -->
<!-- Title: hrmprofilemessage.cpp Pages: 1 -->
<svg width="398pt" height="364pt"
 viewBox="0.00 0.00 397.50 364.00" xmlns="http://www.w3.org/2000/svg" xmlns:xlink="http://www.w3.org/1999/xlink">
<g id="graph0" class="graph" transform="scale(1 1) rotate(0) translate(4 360)">
<title>hrmprofilemessage.cpp</title>
<!-- Node1 -->
<g id="node1" class="node">
<title>Node1</title>
<g id="a_node1"><a xlink:title=" ">
<polygon fill="#bfbfbf" stroke="black" points="186.5,-336.5 186.5,-355.5 317.5,-355.5 317.5,-336.5 186.5,-336.5"/>
<text text-anchor="middle" x="252" y="-343.5" font-family="Helvetica,sans-Serif" font-size="10.00">hrmprofilemessage.cpp</text>
</a>
</g>
</g>
<!-- Node2 -->
<g id="node2" class="node">
<title>Node2</title>
<g id="a_node2"><a xlink:href="hrmprofilemessage_8h.html" target="_top" xlink:title=" ">
<polygon fill="none" stroke="black" points="0,-280.5 0,-299.5 120,-299.5 120,-280.5 0,-280.5"/>
<text text-anchor="middle" x="60" y="-287.5" font-family="Helvetica,sans-Serif" font-size="10.00">hrmprofilemessage.h</text>
</a>
</g>
</g>
<!-- Node1&#45;&gt;Node2 -->
<g id="edge1" class="edge">
<title>Node1&#45;&gt;Node2</title>
<path fill="none" stroke="midnightblue" d="M221.58,-336.44C188.72,-327.2 136.22,-312.44 100.03,-302.26"/>
<polygon fill="midnightblue" stroke="midnightblue" points="100.85,-298.85 90.28,-299.52 98.96,-305.59 100.85,-298.85"/>
</g>
<!-- Node7 -->
<g id="node7" class="node">
<title>Node7</title>
<g id="a_node7"><a xlink:title=" ">
<polygon fill="none" stroke="#bfbfbf" points="231,-56.5 231,-75.5 287,-75.5 287,-56.5 231,-56.5"/>
<text text-anchor="middle" x="259" y="-63.5" font-family="Helvetica,sans-Serif" font-size="10.00">QDebug</text>
</a>
</g>
</g>
<!-- Node1&#45;&gt;Node7 -->
<g id="edge15" class="edge">
<title>Node1&#45;&gt;Node7</title>
<path fill="none" stroke="midnightblue" d="M258.67,-336.44C271.86,-318.62 300,-275.84 300,-235 300,-235 300,-235 300,-177 300,-142.52 282.09,-105.56 269.94,-84.47"/>
<polygon fill="midnightblue" stroke="midnightblue" points="272.84,-82.49 264.7,-75.71 266.84,-86.09 272.84,-82.49"/>
</g>
<!-- Node8 -->
<g id="node8" class="node">
<title>Node8</title>
<g id="a_node8"><a xlink:href="hrmprofilemessage__p_8h.html" target="_top" xlink:title=" ">
<polygon fill="none" stroke="black" points="139.5,-280.5 139.5,-299.5 270.5,-299.5 270.5,-280.5 139.5,-280.5"/>
<text text-anchor="middle" x="205" y="-287.5" font-family="Helvetica,sans-Serif" font-size="10.00">hrmprofilemessage_p.h</text>
</a>
</g>
</g>
<!-- Node1&#45;&gt;Node8 -->
<g id="edge8" class="edge">
<title>Node1&#45;&gt;Node8</title>
<path fill="none" stroke="midnightblue" d="M244.24,-336.08C237.46,-328.3 227.46,-316.8 219.24,-307.37"/>
<polygon fill="midnightblue" stroke="midnightblue" points="221.82,-305 212.62,-299.75 216.54,-309.59 221.82,-305"/>
</g>
<!-- Node12 -->
<g id="node12" class="node">
<title>Node12</title>
<g id="a_node12"><a xlink:title=" ">
<polygon fill="none" stroke="#bfbfbf" points="328.5,-280.5 328.5,-299.5 389.5,-299.5 389.5,-280.5 328.5,-280.5"/>
<text text-anchor="middle" x="359" y="-287.5" font-family="Helvetica,sans-Serif" font-size="10.00">QtEndian</text>
</a>
</g>
</g>
<!-- Node1&#45;&gt;Node12 -->
<g id="edge16" class="edge">
<title>Node1&#45;&gt;Node12</title>
<path fill="none" stroke="midnightblue" d="M269.19,-336.32C286.35,-327.66 312.95,-314.24 332.75,-304.25"/>
<polygon fill="midnightblue" stroke="midnightblue" points="334.5,-307.28 341.85,-299.65 331.35,-301.04 334.5,-307.28"/>
</g>
<!-- Node3 -->
<g id="node3" class="node">
<title>Node3</title>
<g id="a_node3"><a xlink:href="fitdatamessage_8h.html" target="_top" xlink:title=" ">
<polygon fill="none" stroke="black" points="2.5,-168.5 2.5,-187.5 103.5,-187.5 103.5,-168.5 2.5,-168.5"/>
<text text-anchor="middle" x="53" y="-175.5" font-family="Helvetica,sans-Serif" font-size="10.00">fitdatamessage.h</text>
</a>
</g>
</g>
<!-- Node2&#45;&gt;Node3 -->
<g id="edge2" class="edge">
<title>Node2&#45;&gt;Node3</title>
<path fill="none" stroke="midnightblue" d="M59.45,-280.37C58.32,-262.62 55.72,-221.67 54.18,-197.6"/>
<polygon fill="midnightblue" stroke="midnightblue" points="57.67,-197.35 53.55,-187.59 50.69,-197.79 57.67,-197.35"/>
</g>
<!-- Node4 -->
<g id="node4" class="node">
<title>Node4</title>
<g id="a_node4"><a xlink:href="QtFit__global_8h.html" target="_top" xlink:title=" ">
<polygon fill="none" stroke="black" points="89,-56.5 89,-75.5 173,-75.5 173,-56.5 89,-56.5"/>
<text text-anchor="middle" x="131" y="-63.5" font-family="Helvetica,sans-Serif" font-size="10.00">QtFit_global.h</text>
</a>
</g>
</g>
<!-- Node3&#45;&gt;Node4 -->
<g id="edge3" class="edge">
<title>Node3&#45;&gt;Node4</title>
<path fill="none" stroke="midnightblue" d="M59.12,-168.37C71.99,-150.22 102.07,-107.8 118.95,-83.99"/>
<polygon fill="midnightblue" stroke="midnightblue" points="121.98,-85.77 124.91,-75.59 116.27,-81.72 121.98,-85.77"/>
</g>
<!-- Node6 -->
<g id="node6" class="node">
<title>Node6</title>
<g id="a_node6"><a xlink:href="types_8h.html" target="_top" xlink:title="Types defined by the ANT+ FIT SDK.">
<polygon fill="none" stroke="black" points="159.5,-112.5 159.5,-131.5 212.5,-131.5 212.5,-112.5 159.5,-112.5"/>
<text text-anchor="middle" x="186" y="-119.5" font-family="Helvetica,sans-Serif" font-size="10.00">types.h</text>
</a>
</g>
</g>
<!-- Node3&#45;&gt;Node6 -->
<g id="edge5" class="edge">
<title>Node3&#45;&gt;Node6</title>
<path fill="none" stroke="midnightblue" d="M74.07,-168.44C96.06,-159.52 130.73,-145.44 155.66,-135.32"/>
<polygon fill="midnightblue" stroke="midnightblue" points="157.08,-138.52 165.02,-131.52 154.44,-132.04 157.08,-138.52"/>
</g>
<!-- Node5 -->
<g id="node5" class="node">
<title>Node5</title>
<g id="a_node5"><a xlink:title=" ">
<polygon fill="none" stroke="#bfbfbf" points="101.5,-0.5 101.5,-19.5 160.5,-19.5 160.5,-0.5 101.5,-0.5"/>
<text text-anchor="middle" x="131" y="-7.5" font-family="Helvetica,sans-Serif" font-size="10.00">QtGlobal</text>
</a>
</g>
</g>
<!-- Node4&#45;&gt;Node5 -->
<g id="edge4" class="edge">
<title>Node4&#45;&gt;Node5</title>
<path fill="none" stroke="midnightblue" d="M131,-56.08C131,-49.01 131,-38.86 131,-29.99"/>
<polygon fill="midnightblue" stroke="midnightblue" points="134.5,-29.75 131,-19.75 127.5,-29.75 134.5,-29.75"/>
</g>
<!-- Node6&#45;&gt;Node4 -->
<g id="edge6" class="edge">
<title>Node6&#45;&gt;Node4</title>
<path fill="none" stroke="midnightblue" d="M176.92,-112.08C168.83,-104.14 156.8,-92.34 147.09,-82.8"/>
<polygon fill="midnightblue" stroke="midnightblue" points="149.5,-80.26 139.91,-75.75 144.6,-85.25 149.5,-80.26"/>
</g>
<!-- Node6&#45;&gt;Node7 -->
<g id="edge7" class="edge">
<title>Node6&#45;&gt;Node7</title>
<path fill="none" stroke="midnightblue" d="M197.73,-112.32C208.84,-104.11 225.74,-91.6 238.98,-81.81"/>
<polygon fill="midnightblue" stroke="midnightblue" points="241.1,-84.59 247.06,-75.83 236.94,-78.97 241.1,-84.59"/>
</g>
<!-- Node9 -->
<g id="node9" class="node">
<title>Node9</title>
<g id="a_node9"><a xlink:href="fitdatamessage__p_8h.html" target="_top" xlink:title=" ">
<polygon fill="none" stroke="black" points="135.5,-224.5 135.5,-243.5 248.5,-243.5 248.5,-224.5 135.5,-224.5"/>
<text text-anchor="middle" x="192" y="-231.5" font-family="Helvetica,sans-Serif" font-size="10.00">fitdatamessage_p.h</text>
</a>
</g>
</g>
<!-- Node8&#45;&gt;Node9 -->
<g id="edge9" class="edge">
<title>Node8&#45;&gt;Node9</title>
<path fill="none" stroke="midnightblue" d="M202.85,-280.08C201.13,-272.93 198.65,-262.64 196.5,-253.69"/>
<polygon fill="midnightblue" stroke="midnightblue" points="199.85,-252.65 194.11,-243.75 193.04,-254.29 199.85,-252.65"/>
</g>
<!-- Node9&#45;&gt;Node4 -->
<g id="edge10" class="edge">
<title>Node9&#45;&gt;Node4</title>
<path fill="none" stroke="midnightblue" d="M188.08,-224.48C180.24,-207.24 162.32,-166.92 150,-132 144.5,-116.41 139.31,-98.33 135.75,-85.21"/>
<polygon fill="midnightblue" stroke="midnightblue" points="139.12,-84.27 133.17,-75.51 132.36,-86.07 139.12,-84.27"/>
</g>
<!-- Node9&#45;&gt;Node6 -->
<g id="edge11" class="edge">
<title>Node9&#45;&gt;Node6</title>
<path fill="none" stroke="midnightblue" d="M191.53,-224.37C190.56,-206.62 188.33,-165.67 187.01,-141.6"/>
<polygon fill="midnightblue" stroke="midnightblue" points="190.51,-141.39 186.47,-131.59 183.52,-141.77 190.51,-141.39"/>
</g>
<!-- Node10 -->
<g id="node10" class="node">
<title>Node10</title>
<g id="a_node10"><a xlink:href="types__p_8h.html" target="_top" xlink:title=" ">
<polygon fill="none" stroke="black" points="208,-168.5 208,-187.5 272,-187.5 272,-168.5 208,-168.5"/>
<text text-anchor="middle" x="240" y="-175.5" font-family="Helvetica,sans-Serif" font-size="10.00">types_p.h</text>
</a>
</g>
</g>
<!-- Node9&#45;&gt;Node10 -->
<g id="edge12" class="edge">
<title>Node9&#45;&gt;Node10</title>
<path fill="none" stroke="midnightblue" d="M199.93,-224.08C206.85,-216.3 217.07,-204.8 225.45,-195.37"/>
<polygon fill="midnightblue" stroke="midnightblue" points="228.19,-197.55 232.22,-187.75 222.96,-192.9 228.19,-197.55"/>
</g>
<!-- Node10&#45;&gt;Node6 -->
<g id="edge13" class="edge">
<title>Node10&#45;&gt;Node6</title>
<path fill="none" stroke="midnightblue" d="M231.08,-168.08C223.22,-160.22 211.57,-148.57 202.08,-139.08"/>
<polygon fill="midnightblue" stroke="midnightblue" points="204.3,-136.35 194.75,-131.75 199.35,-141.3 204.3,-136.35"/>
</g>
<!-- Node11 -->
<g id="node11" class="node">
<title>Node11</title>
<g id="a_node11"><a xlink:title=" ">
<polygon fill="none" stroke="#bfbfbf" points="230.5,-112.5 230.5,-131.5 271.5,-131.5 271.5,-112.5 230.5,-112.5"/>
<text text-anchor="middle" x="251" y="-119.5" font-family="Helvetica,sans-Serif" font-size="10.00">QList</text>
</a>
</g>
</g>
<!-- Node10&#45;&gt;Node11 -->
<g id="edge14" class="edge">
<title>Node10&#45;&gt;Node11</title>
<path fill="none" stroke="midnightblue" d="M241.82,-168.08C243.27,-160.93 245.37,-150.64 247.19,-141.69"/>
<polygon fill="midnightblue" stroke="midnightblue" points="250.65,-142.25 249.22,-131.75 243.79,-140.85 250.65,-142.25"/>
</g>
</g>
</svg>
