<?xml version="1.0" encoding="UTF-8" standalone="no"?>
<!DOCTYPE svg PUBLIC "-//W3C//DTD SVG 1.1//EN"
 "http://www.w3.org/Graphics/SVG/1.1/DTD/svg11.dtd">
<!-- Generated by graphviz version 2.43.0 (0)
 -->
<!-- Title: hrmprofilemessage.cpp Pages: 1 -->
<svg width="278pt" height="364pt"
 viewBox="0.00 0.00 277.50 364.00" xmlns="http://www.w3.org/2000/svg" xmlns:xlink="http://www.w3.org/1999/xlink">
<g id="graph0" class="graph" transform="scale(1 1) rotate(0) translate(4 360)">
<title>hrmprofilemessage.cpp</title>
<!-- Node1 -->
<g id="node1" class="node">
<title>Node1</title>
<g id="a_node1"><a xlink:title=" ">
<polygon fill="#bfbfbf" stroke="black" points="72,-336.5 72,-355.5 203,-355.5 203,-336.5 72,-336.5"/>
<text text-anchor="middle" x="137.5" y="-343.5" font-family="Helvetica,sans-Serif" font-size="10.00">hrmprofilemessage.cpp</text>
</a>
</g>
</g>
<!-- Node2 -->
<g id="node2" class="node">
<title>Node2</title>
<g id="a_node2"><a xlink:href="hrmprofilemessage_8h.html" target="_top" xlink:title=" ">
<polygon fill="none" stroke="black" points="149.5,-280.5 149.5,-299.5 269.5,-299.5 269.5,-280.5 149.5,-280.5"/>
<text text-anchor="middle" x="209.5" y="-287.5" font-family="Helvetica,sans-Serif" font-size="10.00">hrmprofilemessage.h</text>
</a>
</g>
</g>
<!-- Node1&#45;&gt;Node2 -->
<g id="edge1" class="edge">
<title>Node1&#45;&gt;Node2</title>
<path fill="none" stroke="midnightblue" d="M149.07,-336.32C159.92,-328.18 176.38,-315.84 189.38,-306.09"/>
<polygon fill="midnightblue" stroke="midnightblue" points="191.82,-308.63 197.72,-299.83 187.62,-303.03 191.82,-308.63"/>
</g>
<!-- Node7 -->
<g id="node7" class="node">
<title>Node7</title>
<g id="a_node7"><a xlink:href="hrmprofilemessage__p_8h.html" target="_top" xlink:title=" ">
<polygon fill="none" stroke="black" points="0,-280.5 0,-299.5 131,-299.5 131,-280.5 0,-280.5"/>
<text text-anchor="middle" x="65.5" y="-287.5" font-family="Helvetica,sans-Serif" font-size="10.00">hrmprofilemessage_p.h</text>
</a>
</g>
</g>
<!-- Node1&#45;&gt;Node7 -->
<g id="edge7" class="edge">
<title>Node1&#45;&gt;Node7</title>
<path fill="none" stroke="midnightblue" d="M125.93,-336.32C115.08,-328.18 98.62,-315.84 85.62,-306.09"/>
<polygon fill="midnightblue" stroke="midnightblue" points="87.38,-303.03 77.28,-299.83 83.18,-308.63 87.38,-303.03"/>
</g>
<!-- Node3 -->
<g id="node3" class="node">
<title>Node3</title>
<g id="a_node3"><a xlink:href="fitdatamessage_8h.html" target="_top" xlink:title=" ">
<polygon fill="none" stroke="black" points="157,-168.5 157,-187.5 258,-187.5 258,-168.5 157,-168.5"/>
<text text-anchor="middle" x="207.5" y="-175.5" font-family="Helvetica,sans-Serif" font-size="10.00">fitdatamessage.h</text>
</a>
</g>
</g>
<!-- Node2&#45;&gt;Node3 -->
<g id="edge2" class="edge">
<title>Node2&#45;&gt;Node3</title>
<path fill="none" stroke="midnightblue" d="M209.34,-280.37C209.02,-262.62 208.28,-221.67 207.84,-197.6"/>
<polygon fill="midnightblue" stroke="midnightblue" points="211.34,-197.53 207.66,-187.59 204.34,-197.65 211.34,-197.53"/>
</g>
<!-- Node4 -->
<g id="node4" class="node">
<title>Node4</title>
<g id="a_node4"><a xlink:href="QtFit__global_8h.html" target="_top" xlink:title=" ">
<polygon fill="none" stroke="black" points="88.5,-56.5 88.5,-75.5 172.5,-75.5 172.5,-56.5 88.5,-56.5"/>
<text text-anchor="middle" x="130.5" y="-63.5" font-family="Helvetica,sans-Serif" font-size="10.00">QtFit_global.h</text>
</a>
</g>
</g>
<!-- Node3&#45;&gt;Node4 -->
<g id="edge3" class="edge">
<title>Node3&#45;&gt;Node4</title>
<path fill="none" stroke="midnightblue" d="M202.49,-168.39C195.04,-155.75 180.43,-131.56 166.5,-112 159.61,-102.32 151.36,-91.94 144.51,-83.59"/>
<polygon fill="midnightblue" stroke="midnightblue" points="147.06,-81.19 137.97,-75.74 141.68,-85.66 147.06,-81.19"/>
</g>
<!-- Node6 -->
<g id="node6" class="node">
<title>Node6</title>
<g id="a_node6"><a xlink:href="types_8h.html" target="_top" xlink:title="Types defined by the ANT+ FIT SDK.">
<polygon fill="none" stroke="black" points="104,-112.5 104,-131.5 157,-131.5 157,-112.5 104,-112.5"/>
<text text-anchor="middle" x="130.5" y="-119.5" font-family="Helvetica,sans-Serif" font-size="10.00">types.h</text>
</a>
</g>
</g>
<!-- Node3&#45;&gt;Node6 -->
<g id="edge5" class="edge">
<title>Node3&#45;&gt;Node6</title>
<path fill="none" stroke="midnightblue" d="M195.13,-168.32C183.34,-160.06 165.37,-147.45 151.36,-137.63"/>
<polygon fill="midnightblue" stroke="midnightblue" points="153.04,-134.53 142.84,-131.65 149.02,-140.26 153.04,-134.53"/>
</g>
<!-- Node5 -->
<g id="node5" class="node">
<title>Node5</title>
<g id="a_node5"><a xlink:title=" ">
<polygon fill="none" stroke="#bfbfbf" points="101,-0.5 101,-19.5 160,-19.5 160,-0.5 101,-0.5"/>
<text text-anchor="middle" x="130.5" y="-7.5" font-family="Helvetica,sans-Serif" font-size="10.00">QtGlobal</text>
</a>
</g>
</g>
<!-- Node4&#45;&gt;Node5 -->
<g id="edge4" class="edge">
<title>Node4&#45;&gt;Node5</title>
<path fill="none" stroke="midnightblue" d="M130.5,-56.08C130.5,-49.01 130.5,-38.86 130.5,-29.99"/>
<polygon fill="midnightblue" stroke="midnightblue" points="134,-29.75 130.5,-19.75 127,-29.75 134,-29.75"/>
</g>
<!-- Node6&#45;&gt;Node4 -->
<g id="edge6" class="edge">
<title>Node6&#45;&gt;Node4</title>
<path fill="none" stroke="midnightblue" d="M130.5,-112.08C130.5,-105.01 130.5,-94.86 130.5,-85.99"/>
<polygon fill="midnightblue" stroke="midnightblue" points="134,-85.75 130.5,-75.75 127,-85.75 134,-85.75"/>
</g>
<!-- Node8 -->
<g id="node8" class="node">
<title>Node8</title>
<g id="a_node8"><a xlink:href="fitdatamessage__p_8h.html" target="_top" xlink:title=" ">
<polygon fill="none" stroke="black" points="11,-224.5 11,-243.5 124,-243.5 124,-224.5 11,-224.5"/>
<text text-anchor="middle" x="67.5" y="-231.5" font-family="Helvetica,sans-Serif" font-size="10.00">fitdatamessage_p.h</text>
</a>
</g>
</g>
<!-- Node7&#45;&gt;Node8 -->
<g id="edge8" class="edge">
<title>Node7&#45;&gt;Node8</title>
<path fill="none" stroke="midnightblue" d="M65.83,-280.08C66.09,-273.01 66.47,-262.86 66.8,-253.99"/>
<polygon fill="midnightblue" stroke="midnightblue" points="70.3,-253.87 67.18,-243.75 63.31,-253.61 70.3,-253.87"/>
</g>
<!-- Node8&#45;&gt;Node4 -->
<g id="edge9" class="edge">
<title>Node8&#45;&gt;Node4</title>
<path fill="none" stroke="midnightblue" d="M56.23,-224.43C46.53,-216.27 33.22,-203.05 27.5,-188 20.47,-169.52 27.55,-122.79 35.5,-112 47.1,-96.26 65.64,-85.81 83.27,-78.98"/>
<polygon fill="midnightblue" stroke="midnightblue" points="84.67,-82.2 92.92,-75.55 82.32,-75.6 84.67,-82.2"/>
</g>
<!-- Node8&#45;&gt;Node6 -->
<g id="edge10" class="edge">
<title>Node8&#45;&gt;Node6</title>
<path fill="none" stroke="midnightblue" d="M77.85,-224.34C87.3,-215.94 101.05,-202.37 109.5,-188 117.96,-173.63 123.46,-155.43 126.7,-141.95"/>
<polygon fill="midnightblue" stroke="midnightblue" points="130.18,-142.44 128.91,-131.92 123.34,-140.93 130.18,-142.44"/>
</g>
<!-- Node9 -->
<g id="node9" class="node">
<title>Node9</title>
<g id="a_node9"><a xlink:href="types__p_8h.html" target="_top" xlink:title=" ">
<polygon fill="none" stroke="black" points="36.5,-168.5 36.5,-187.5 100.5,-187.5 100.5,-168.5 36.5,-168.5"/>
<text text-anchor="middle" x="68.5" y="-175.5" font-family="Helvetica,sans-Serif" font-size="10.00">types_p.h</text>
</a>
</g>
</g>
<!-- Node8&#45;&gt;Node9 -->
<g id="edge11" class="edge">
<title>Node8&#45;&gt;Node9</title>
<path fill="none" stroke="midnightblue" d="M67.67,-224.08C67.8,-217.01 67.98,-206.86 68.15,-197.99"/>
<polygon fill="midnightblue" stroke="midnightblue" points="71.65,-197.81 68.34,-187.75 64.65,-197.68 71.65,-197.81"/>
</g>
<!-- Node9&#45;&gt;Node6 -->
<g id="edge12" class="edge">
<title>Node9&#45;&gt;Node6</title>
<path fill="none" stroke="midnightblue" d="M78.46,-168.32C87.63,-160.34 101.44,-148.31 112.53,-138.65"/>
<polygon fill="midnightblue" stroke="midnightblue" points="115.12,-141.04 120.36,-131.83 110.52,-135.76 115.12,-141.04"/>
</g>
<!-- Node10 -->
<g id="node10" class="node">
<title>Node10</title>
<g id="a_node10"><a xlink:title=" ">
<polygon fill="none" stroke="#bfbfbf" points="45,-112.5 45,-131.5 86,-131.5 86,-112.5 45,-112.5"/>
<text text-anchor="middle" x="65.5" y="-119.5" font-family="Helvetica,sans-Serif" font-size="10.00">QList</text>
</a>
</g>
</g>
<!-- Node9&#45;&gt;Node10 -->
<g id="edge13" class="edge">
<title>Node9&#45;&gt;Node10</title>
<path fill="none" stroke="midnightblue" d="M68,-168.08C67.61,-161.01 67.05,-150.86 66.55,-141.99"/>
<polygon fill="midnightblue" stroke="midnightblue" points="70.04,-141.54 65.99,-131.75 63.05,-141.93 70.04,-141.54"/>
</g>
</g>
</svg>
