<?xml version="1.0" encoding="UTF-8" standalone="no"?>
<!DOCTYPE svg PUBLIC "-//W3C//DTD SVG 1.1//EN"
 "http://www.w3.org/Graphics/SVG/1.1/DTD/svg11.dtd">
<!-- Generated by graphviz version 2.43.0 (0)
 -->
<!-- Title: hrmprofilemessage.h Pages: 1 -->
<svg width="128pt" height="252pt"
 viewBox="0.00 0.00 128.00 252.00" xmlns="http://www.w3.org/2000/svg" xmlns:xlink="http://www.w3.org/1999/xlink">
<g id="graph0" class="graph" transform="scale(1 1) rotate(0) translate(4 248)">
<title>hrmprofilemessage.h</title>
<!-- Node1 -->
<g id="node1" class="node">
<title>Node1</title>
<g id="a_node1"><a xlink:title=" ">
<polygon fill="#bfbfbf" stroke="black" points="0,-224.5 0,-243.5 120,-243.5 120,-224.5 0,-224.5"/>
<text text-anchor="middle" x="60" y="-231.5" font-family="Helvetica,sans-Serif" font-size="10.00">hrmprofilemessage.h</text>
</a>
</g>
</g>
<!-- Node2 -->
<g id="node2" class="node">
<title>Node2</title>
<g id="a_node2"><a xlink:href="fitdatamessage_8h.html" target="_top" xlink:title=" ">
<polygon fill="none" stroke="black" points="9.5,-168.5 9.5,-187.5 110.5,-187.5 110.5,-168.5 9.5,-168.5"/>
<text text-anchor="middle" x="60" y="-175.5" font-family="Helvetica,sans-Serif" font-size="10.00">fitdatamessage.h</text>
</a>
</g>
</g>
<!-- Node1&#45;&gt;Node2 -->
<g id="edge1" class="edge">
<title>Node1&#45;&gt;Node2</title>
<path fill="none" stroke="midnightblue" d="M60,-224.08C60,-217.01 60,-206.86 60,-197.99"/>
<polygon fill="midnightblue" stroke="midnightblue" points="63.5,-197.75 60,-187.75 56.5,-197.75 63.5,-197.75"/>
</g>
<!-- Node3 -->
<g id="node3" class="node">
<title>Node3</title>
<g id="a_node3"><a xlink:href="QtFit__global_8h.html" target="_top" xlink:title=" ">
<polygon fill="none" stroke="black" points="18,-56.5 18,-75.5 102,-75.5 102,-56.5 18,-56.5"/>
<text text-anchor="middle" x="60" y="-63.5" font-family="Helvetica,sans-Serif" font-size="10.00">QtFit_global.h</text>
</a>
</g>
</g>
<!-- Node2&#45;&gt;Node3 -->
<g id="edge2" class="edge">
<title>Node2&#45;&gt;Node3</title>
<path fill="none" stroke="midnightblue" d="M58.26,-168.42C56.53,-159.4 53.99,-144.77 53,-132 51.8,-116.42 53.91,-98.8 56.12,-85.84"/>
<polygon fill="midnightblue" stroke="midnightblue" points="59.6,-86.29 58.01,-75.82 52.72,-84.99 59.6,-86.29"/>
</g>
<!-- Node5 -->
<g id="node5" class="node">
<title>Node5</title>
<g id="a_node5"><a xlink:href="types_8h.html" target="_top" xlink:title="Types defined by the ANT+ FIT SDK.">
<polygon fill="none" stroke="black" points="61.5,-112.5 61.5,-131.5 114.5,-131.5 114.5,-112.5 61.5,-112.5"/>
<text text-anchor="middle" x="88" y="-119.5" font-family="Helvetica,sans-Serif" font-size="10.00">types.h</text>
</a>
</g>
</g>
<!-- Node2&#45;&gt;Node5 -->
<g id="edge4" class="edge">
<title>Node2&#45;&gt;Node5</title>
<path fill="none" stroke="midnightblue" d="M64.62,-168.08C68.46,-160.69 74.02,-149.95 78.76,-140.81"/>
<polygon fill="midnightblue" stroke="midnightblue" points="81.97,-142.24 83.46,-131.75 75.75,-139.02 81.97,-142.24"/>
</g>
<!-- Node4 -->
<g id="node4" class="node">
<title>Node4</title>
<g id="a_node4"><a xlink:title=" ">
<polygon fill="none" stroke="#bfbfbf" points="30.5,-0.5 30.5,-19.5 89.5,-19.5 89.5,-0.5 30.5,-0.5"/>
<text text-anchor="middle" x="60" y="-7.5" font-family="Helvetica,sans-Serif" font-size="10.00">QtGlobal</text>
</a>
</g>
</g>
<!-- Node3&#45;&gt;Node4 -->
<g id="edge3" class="edge">
<title>Node3&#45;&gt;Node4</title>
<path fill="none" stroke="midnightblue" d="M60,-56.08C60,-49.01 60,-38.86 60,-29.99"/>
<polygon fill="midnightblue" stroke="midnightblue" points="63.5,-29.75 60,-19.75 56.5,-29.75 63.5,-29.75"/>
</g>
<!-- Node5&#45;&gt;Node3 -->
<g id="edge5" class="edge">
<title>Node5&#45;&gt;Node3</title>
<path fill="none" stroke="midnightblue" d="M83.38,-112.08C79.54,-104.69 73.98,-93.95 69.24,-84.81"/>
<polygon fill="midnightblue" stroke="midnightblue" points="72.25,-83.02 64.54,-75.75 66.03,-86.24 72.25,-83.02"/>
</g>
</g>
</svg>
