<?xml version="1.0" encoding="UTF-8" standalone="no"?>
<!DOCTYPE svg PUBLIC "-//W3C//DTD SVG 1.1//EN"
 "http://www.w3.org/Graphics/SVG/1.1/DTD/svg11.dtd">
<!-- Generated by graphviz version 2.43.0 (0)
 -->
<!-- Title: hrvmessage.cpp Pages: 1 -->
<svg width="335pt" height="364pt"
 viewBox="0.00 0.00 335.00 364.00" xmlns="http://www.w3.org/2000/svg" xmlns:xlink="http://www.w3.org/1999/xlink">
<g id="graph0" class="graph" transform="scale(1 1) rotate(0) translate(4 360)">
<title>hrvmessage.cpp</title>
<!-- Node1 -->
<g id="node1" class="node">
<title>Node1</title>
<g id="a_node1"><a xlink:title=" ">
<polygon fill="#bfbfbf" stroke="black" points="143,-336.5 143,-355.5 240,-355.5 240,-336.5 143,-336.5"/>
<text text-anchor="middle" x="191.5" y="-343.5" font-family="Helvetica,sans-Serif" font-size="10.00">hrvmessage.cpp</text>
</a>
</g>
</g>
<!-- Node2 -->
<g id="node2" class="node">
<title>Node2</title>
<g id="a_node2"><a xlink:href="hrvmessage_8h.html" target="_top" xlink:title=" ">
<polygon fill="none" stroke="black" points="136.5,-224.5 136.5,-243.5 222.5,-243.5 222.5,-224.5 136.5,-224.5"/>
<text text-anchor="middle" x="179.5" y="-231.5" font-family="Helvetica,sans-Serif" font-size="10.00">hrvmessage.h</text>
</a>
</g>
</g>
<!-- Node1&#45;&gt;Node2 -->
<g id="edge1" class="edge">
<title>Node1&#45;&gt;Node2</title>
<path fill="none" stroke="midnightblue" d="M189.38,-336.44C187.26,-327.43 184.07,-312.81 182.5,-300 180.61,-284.56 179.89,-266.93 179.62,-253.93"/>
<polygon fill="midnightblue" stroke="midnightblue" points="183.12,-253.82 179.49,-243.87 176.12,-253.91 183.12,-253.82"/>
</g>
<!-- Node7 -->
<g id="node7" class="node">
<title>Node7</title>
<g id="a_node7"><a xlink:href="hrvmessage__p_8h.html" target="_top" xlink:title=" ">
<polygon fill="none" stroke="black" points="28,-280.5 28,-299.5 125,-299.5 125,-280.5 28,-280.5"/>
<text text-anchor="middle" x="76.5" y="-287.5" font-family="Helvetica,sans-Serif" font-size="10.00">hrvmessage_p.h</text>
</a>
</g>
</g>
<!-- Node1&#45;&gt;Node7 -->
<g id="edge7" class="edge">
<title>Node1&#45;&gt;Node7</title>
<path fill="none" stroke="midnightblue" d="M173.28,-336.44C154.6,-327.68 125.34,-313.94 103.88,-303.86"/>
<polygon fill="midnightblue" stroke="midnightblue" points="105.18,-300.6 94.64,-299.52 102.2,-306.93 105.18,-300.6"/>
</g>
<!-- Node11 -->
<g id="node11" class="node">
<title>Node11</title>
<g id="a_node11"><a xlink:title=" ">
<polygon fill="none" stroke="#bfbfbf" points="191.5,-280.5 191.5,-299.5 247.5,-299.5 247.5,-280.5 191.5,-280.5"/>
<text text-anchor="middle" x="219.5" y="-287.5" font-family="Helvetica,sans-Serif" font-size="10.00">QDebug</text>
</a>
</g>
</g>
<!-- Node1&#45;&gt;Node11 -->
<g id="edge14" class="edge">
<title>Node1&#45;&gt;Node11</title>
<path fill="none" stroke="midnightblue" d="M196.12,-336.08C199.96,-328.69 205.52,-317.95 210.26,-308.81"/>
<polygon fill="midnightblue" stroke="midnightblue" points="213.47,-310.24 214.96,-299.75 207.25,-307.02 213.47,-310.24"/>
</g>
<!-- Node12 -->
<g id="node12" class="node">
<title>Node12</title>
<g id="a_node12"><a xlink:title=" ">
<polygon fill="none" stroke="#bfbfbf" points="266,-280.5 266,-299.5 327,-299.5 327,-280.5 266,-280.5"/>
<text text-anchor="middle" x="296.5" y="-287.5" font-family="Helvetica,sans-Serif" font-size="10.00">QtEndian</text>
</a>
</g>
</g>
<!-- Node1&#45;&gt;Node12 -->
<g id="edge15" class="edge">
<title>Node1&#45;&gt;Node12</title>
<path fill="none" stroke="midnightblue" d="M208.37,-336.32C225.21,-327.66 251.31,-314.24 270.74,-304.25"/>
<polygon fill="midnightblue" stroke="midnightblue" points="272.38,-307.34 279.67,-299.65 269.18,-301.12 272.38,-307.34"/>
</g>
<!-- Node3 -->
<g id="node3" class="node">
<title>Node3</title>
<g id="a_node3"><a xlink:href="fitdatamessage_8h.html" target="_top" xlink:title=" ">
<polygon fill="none" stroke="black" points="135,-168.5 135,-187.5 236,-187.5 236,-168.5 135,-168.5"/>
<text text-anchor="middle" x="185.5" y="-175.5" font-family="Helvetica,sans-Serif" font-size="10.00">fitdatamessage.h</text>
</a>
</g>
</g>
<!-- Node2&#45;&gt;Node3 -->
<g id="edge2" class="edge">
<title>Node2&#45;&gt;Node3</title>
<path fill="none" stroke="midnightblue" d="M180.49,-224.08C181.29,-216.93 182.43,-206.64 183.42,-197.69"/>
<polygon fill="midnightblue" stroke="midnightblue" points="186.9,-198.08 184.53,-187.75 179.94,-197.3 186.9,-198.08"/>
</g>
<!-- Node4 -->
<g id="node4" class="node">
<title>Node4</title>
<g id="a_node4"><a xlink:href="QtFit__global_8h.html" target="_top" xlink:title=" ">
<polygon fill="none" stroke="black" points="66.5,-56.5 66.5,-75.5 150.5,-75.5 150.5,-56.5 66.5,-56.5"/>
<text text-anchor="middle" x="108.5" y="-63.5" font-family="Helvetica,sans-Serif" font-size="10.00">QtFit_global.h</text>
</a>
</g>
</g>
<!-- Node3&#45;&gt;Node4 -->
<g id="edge3" class="edge">
<title>Node3&#45;&gt;Node4</title>
<path fill="none" stroke="midnightblue" d="M180.49,-168.39C173.04,-155.75 158.43,-131.56 144.5,-112 137.61,-102.32 129.36,-91.94 122.51,-83.59"/>
<polygon fill="midnightblue" stroke="midnightblue" points="125.06,-81.19 115.97,-75.74 119.68,-85.66 125.06,-81.19"/>
</g>
<!-- Node6 -->
<g id="node6" class="node">
<title>Node6</title>
<g id="a_node6"><a xlink:href="types_8h.html" target="_top" xlink:title="Types defined by the ANT+ FIT SDK.">
<polygon fill="none" stroke="black" points="82,-112.5 82,-131.5 135,-131.5 135,-112.5 82,-112.5"/>
<text text-anchor="middle" x="108.5" y="-119.5" font-family="Helvetica,sans-Serif" font-size="10.00">types.h</text>
</a>
</g>
</g>
<!-- Node3&#45;&gt;Node6 -->
<g id="edge5" class="edge">
<title>Node3&#45;&gt;Node6</title>
<path fill="none" stroke="midnightblue" d="M173.13,-168.32C161.34,-160.06 143.37,-147.45 129.36,-137.63"/>
<polygon fill="midnightblue" stroke="midnightblue" points="131.04,-134.53 120.84,-131.65 127.02,-140.26 131.04,-134.53"/>
</g>
<!-- Node5 -->
<g id="node5" class="node">
<title>Node5</title>
<g id="a_node5"><a xlink:title=" ">
<polygon fill="none" stroke="#bfbfbf" points="79,-0.5 79,-19.5 138,-19.5 138,-0.5 79,-0.5"/>
<text text-anchor="middle" x="108.5" y="-7.5" font-family="Helvetica,sans-Serif" font-size="10.00">QtGlobal</text>
</a>
</g>
</g>
<!-- Node4&#45;&gt;Node5 -->
<g id="edge4" class="edge">
<title>Node4&#45;&gt;Node5</title>
<path fill="none" stroke="midnightblue" d="M108.5,-56.08C108.5,-49.01 108.5,-38.86 108.5,-29.99"/>
<polygon fill="midnightblue" stroke="midnightblue" points="112,-29.75 108.5,-19.75 105,-29.75 112,-29.75"/>
</g>
<!-- Node6&#45;&gt;Node4 -->
<g id="edge6" class="edge">
<title>Node6&#45;&gt;Node4</title>
<path fill="none" stroke="midnightblue" d="M108.5,-112.08C108.5,-105.01 108.5,-94.86 108.5,-85.99"/>
<polygon fill="midnightblue" stroke="midnightblue" points="112,-85.75 108.5,-75.75 105,-85.75 112,-85.75"/>
</g>
<!-- Node8 -->
<g id="node8" class="node">
<title>Node8</title>
<g id="a_node8"><a xlink:href="fitdatamessage__p_8h.html" target="_top" xlink:title=" ">
<polygon fill="none" stroke="black" points="0,-224.5 0,-243.5 113,-243.5 113,-224.5 0,-224.5"/>
<text text-anchor="middle" x="56.5" y="-231.5" font-family="Helvetica,sans-Serif" font-size="10.00">fitdatamessage_p.h</text>
</a>
</g>
</g>
<!-- Node7&#45;&gt;Node8 -->
<g id="edge8" class="edge">
<title>Node7&#45;&gt;Node8</title>
<path fill="none" stroke="midnightblue" d="M73.2,-280.08C70.52,-272.85 66.65,-262.41 63.31,-253.4"/>
<polygon fill="midnightblue" stroke="midnightblue" points="66.5,-251.91 59.74,-243.75 59.93,-254.34 66.5,-251.91"/>
</g>
<!-- Node8&#45;&gt;Node4 -->
<g id="edge9" class="edge">
<title>Node8&#45;&gt;Node4</title>
<path fill="none" stroke="midnightblue" d="M40.77,-224.24C28.61,-216.48 12.69,-203.93 5.5,-188 -2.34,-170.62 3.24,-125.92 13.5,-112 25.1,-96.26 43.64,-85.81 61.27,-78.98"/>
<polygon fill="midnightblue" stroke="midnightblue" points="62.67,-82.2 70.92,-75.55 60.32,-75.6 62.67,-82.2"/>
</g>
<!-- Node8&#45;&gt;Node6 -->
<g id="edge10" class="edge">
<title>Node8&#45;&gt;Node6</title>
<path fill="none" stroke="midnightblue" d="M63.74,-224.18C70.62,-215.44 80.87,-201.45 87.5,-188 94.87,-173.04 100.48,-154.9 104.04,-141.59"/>
<polygon fill="midnightblue" stroke="midnightblue" points="107.48,-142.28 106.54,-131.72 100.69,-140.56 107.48,-142.28"/>
</g>
<!-- Node9 -->
<g id="node9" class="node">
<title>Node9</title>
<g id="a_node9"><a xlink:href="types__p_8h.html" target="_top" xlink:title=" ">
<polygon fill="none" stroke="black" points="14.5,-168.5 14.5,-187.5 78.5,-187.5 78.5,-168.5 14.5,-168.5"/>
<text text-anchor="middle" x="46.5" y="-175.5" font-family="Helvetica,sans-Serif" font-size="10.00">types_p.h</text>
</a>
</g>
</g>
<!-- Node8&#45;&gt;Node9 -->
<g id="edge11" class="edge">
<title>Node8&#45;&gt;Node9</title>
<path fill="none" stroke="midnightblue" d="M54.85,-224.08C53.52,-216.93 51.62,-206.64 49.96,-197.69"/>
<polygon fill="midnightblue" stroke="midnightblue" points="53.38,-196.95 48.12,-187.75 46.5,-198.22 53.38,-196.95"/>
</g>
<!-- Node9&#45;&gt;Node6 -->
<g id="edge12" class="edge">
<title>Node9&#45;&gt;Node6</title>
<path fill="none" stroke="midnightblue" d="M56.46,-168.32C65.63,-160.34 79.44,-148.31 90.53,-138.65"/>
<polygon fill="midnightblue" stroke="midnightblue" points="93.12,-141.04 98.36,-131.83 88.52,-135.76 93.12,-141.04"/>
</g>
<!-- Node10 -->
<g id="node10" class="node">
<title>Node10</title>
<g id="a_node10"><a xlink:title=" ">
<polygon fill="none" stroke="#bfbfbf" points="23,-112.5 23,-131.5 64,-131.5 64,-112.5 23,-112.5"/>
<text text-anchor="middle" x="43.5" y="-119.5" font-family="Helvetica,sans-Serif" font-size="10.00">QList</text>
</a>
</g>
</g>
<!-- Node9&#45;&gt;Node10 -->
<g id="edge13" class="edge">
<title>Node9&#45;&gt;Node10</title>
<path fill="none" stroke="midnightblue" d="M46,-168.08C45.61,-161.01 45.05,-150.86 44.55,-141.99"/>
<polygon fill="midnightblue" stroke="midnightblue" points="48.04,-141.54 43.99,-131.75 41.05,-141.93 48.04,-141.54"/>
</g>
</g>
</svg>
