<?xml version="1.0" encoding="UTF-8" standalone="no"?>
<!DOCTYPE svg PUBLIC "-//W3C//DTD SVG 1.1//EN"
 "http://www.w3.org/Graphics/SVG/1.1/DTD/svg11.dtd">
<!-- Generated by graphviz version 2.43.0 (0)
 -->
<!-- Title: jumpmessage.cpp Pages: 1 -->
<svg width="339pt" height="364pt"
 viewBox="0.00 0.00 339.00 364.00" xmlns="http://www.w3.org/2000/svg" xmlns:xlink="http://www.w3.org/1999/xlink">
<g id="graph0" class="graph" transform="scale(1 1) rotate(0) translate(4 360)">
<title>jumpmessage.cpp</title>
<!-- Node1 -->
<g id="node1" class="node">
<title>Node1</title>
<g id="a_node1"><a xlink:title=" ">
<polygon fill="#bfbfbf" stroke="black" points="142.5,-336.5 142.5,-355.5 248.5,-355.5 248.5,-336.5 142.5,-336.5"/>
<text text-anchor="middle" x="195.5" y="-343.5" font-family="Helvetica,sans-Serif" font-size="10.00">jumpmessage.cpp</text>
</a>
</g>
</g>
<!-- Node2 -->
<g id="node2" class="node">
<title>Node2</title>
<g id="a_node2"><a xlink:href="jumpmessage_8h.html" target="_top" xlink:title=" ">
<polygon fill="none" stroke="black" points="135,-224.5 135,-243.5 230,-243.5 230,-224.5 135,-224.5"/>
<text text-anchor="middle" x="182.5" y="-231.5" font-family="Helvetica,sans-Serif" font-size="10.00">jumpmessage.h</text>
</a>
</g>
</g>
<!-- Node1&#45;&gt;Node2 -->
<g id="edge1" class="edge">
<title>Node1&#45;&gt;Node2</title>
<path fill="none" stroke="midnightblue" d="M193.42,-336.43C191.33,-327.42 188.17,-312.8 186.5,-300 184.49,-284.56 183.49,-266.93 182.99,-253.93"/>
<polygon fill="midnightblue" stroke="midnightblue" points="186.48,-253.75 182.66,-243.87 179.49,-253.97 186.48,-253.75"/>
</g>
<!-- Node7 -->
<g id="node7" class="node">
<title>Node7</title>
<g id="a_node7"><a xlink:href="jumpmessage__p_8h.html" target="_top" xlink:title=" ">
<polygon fill="none" stroke="black" points="23.5,-280.5 23.5,-299.5 129.5,-299.5 129.5,-280.5 23.5,-280.5"/>
<text text-anchor="middle" x="76.5" y="-287.5" font-family="Helvetica,sans-Serif" font-size="10.00">jumpmessage_p.h</text>
</a>
</g>
</g>
<!-- Node1&#45;&gt;Node7 -->
<g id="edge7" class="edge">
<title>Node1&#45;&gt;Node7</title>
<path fill="none" stroke="midnightblue" d="M176.64,-336.44C157.23,-327.64 126.77,-313.81 104.54,-303.72"/>
<polygon fill="midnightblue" stroke="midnightblue" points="105.82,-300.46 95.27,-299.52 102.93,-306.84 105.82,-300.46"/>
</g>
<!-- Node11 -->
<g id="node11" class="node">
<title>Node11</title>
<g id="a_node11"><a xlink:title=" ">
<polygon fill="none" stroke="#bfbfbf" points="195.5,-280.5 195.5,-299.5 251.5,-299.5 251.5,-280.5 195.5,-280.5"/>
<text text-anchor="middle" x="223.5" y="-287.5" font-family="Helvetica,sans-Serif" font-size="10.00">QDebug</text>
</a>
</g>
</g>
<!-- Node1&#45;&gt;Node11 -->
<g id="edge14" class="edge">
<title>Node1&#45;&gt;Node11</title>
<path fill="none" stroke="midnightblue" d="M200.12,-336.08C203.96,-328.69 209.52,-317.95 214.26,-308.81"/>
<polygon fill="midnightblue" stroke="midnightblue" points="217.47,-310.24 218.96,-299.75 211.25,-307.02 217.47,-310.24"/>
</g>
<!-- Node12 -->
<g id="node12" class="node">
<title>Node12</title>
<g id="a_node12"><a xlink:title=" ">
<polygon fill="none" stroke="#bfbfbf" points="270,-280.5 270,-299.5 331,-299.5 331,-280.5 270,-280.5"/>
<text text-anchor="middle" x="300.5" y="-287.5" font-family="Helvetica,sans-Serif" font-size="10.00">QtEndian</text>
</a>
</g>
</g>
<!-- Node1&#45;&gt;Node12 -->
<g id="edge15" class="edge">
<title>Node1&#45;&gt;Node12</title>
<path fill="none" stroke="midnightblue" d="M212.37,-336.32C229.21,-327.66 255.31,-314.24 274.74,-304.25"/>
<polygon fill="midnightblue" stroke="midnightblue" points="276.38,-307.34 283.67,-299.65 273.18,-301.12 276.38,-307.34"/>
</g>
<!-- Node3 -->
<g id="node3" class="node">
<title>Node3</title>
<g id="a_node3"><a xlink:href="fitdatamessage_8h.html" target="_top" xlink:title=" ">
<polygon fill="none" stroke="black" points="137,-168.5 137,-187.5 238,-187.5 238,-168.5 137,-168.5"/>
<text text-anchor="middle" x="187.5" y="-175.5" font-family="Helvetica,sans-Serif" font-size="10.00">fitdatamessage.h</text>
</a>
</g>
</g>
<!-- Node2&#45;&gt;Node3 -->
<g id="edge2" class="edge">
<title>Node2&#45;&gt;Node3</title>
<path fill="none" stroke="midnightblue" d="M183.33,-224.08C183.98,-217.01 184.92,-206.86 185.74,-197.99"/>
<polygon fill="midnightblue" stroke="midnightblue" points="189.25,-198.03 186.69,-187.75 182.28,-197.39 189.25,-198.03"/>
</g>
<!-- Node4 -->
<g id="node4" class="node">
<title>Node4</title>
<g id="a_node4"><a xlink:href="QtFit__global_8h.html" target="_top" xlink:title=" ">
<polygon fill="none" stroke="black" points="68.5,-56.5 68.5,-75.5 152.5,-75.5 152.5,-56.5 68.5,-56.5"/>
<text text-anchor="middle" x="110.5" y="-63.5" font-family="Helvetica,sans-Serif" font-size="10.00">QtFit_global.h</text>
</a>
</g>
</g>
<!-- Node3&#45;&gt;Node4 -->
<g id="edge3" class="edge">
<title>Node3&#45;&gt;Node4</title>
<path fill="none" stroke="midnightblue" d="M182.49,-168.39C175.04,-155.75 160.43,-131.56 146.5,-112 139.61,-102.32 131.36,-91.94 124.51,-83.59"/>
<polygon fill="midnightblue" stroke="midnightblue" points="127.06,-81.19 117.97,-75.74 121.68,-85.66 127.06,-81.19"/>
</g>
<!-- Node6 -->
<g id="node6" class="node">
<title>Node6</title>
<g id="a_node6"><a xlink:href="types_8h.html" target="_top" xlink:title="Types defined by the ANT+ FIT SDK.">
<polygon fill="none" stroke="black" points="84,-112.5 84,-131.5 137,-131.5 137,-112.5 84,-112.5"/>
<text text-anchor="middle" x="110.5" y="-119.5" font-family="Helvetica,sans-Serif" font-size="10.00">types.h</text>
</a>
</g>
</g>
<!-- Node3&#45;&gt;Node6 -->
<g id="edge5" class="edge">
<title>Node3&#45;&gt;Node6</title>
<path fill="none" stroke="midnightblue" d="M175.13,-168.32C163.34,-160.06 145.37,-147.45 131.36,-137.63"/>
<polygon fill="midnightblue" stroke="midnightblue" points="133.04,-134.53 122.84,-131.65 129.02,-140.26 133.04,-134.53"/>
</g>
<!-- Node5 -->
<g id="node5" class="node">
<title>Node5</title>
<g id="a_node5"><a xlink:title=" ">
<polygon fill="none" stroke="#bfbfbf" points="81,-0.5 81,-19.5 140,-19.5 140,-0.5 81,-0.5"/>
<text text-anchor="middle" x="110.5" y="-7.5" font-family="Helvetica,sans-Serif" font-size="10.00">QtGlobal</text>
</a>
</g>
</g>
<!-- Node4&#45;&gt;Node5 -->
<g id="edge4" class="edge">
<title>Node4&#45;&gt;Node5</title>
<path fill="none" stroke="midnightblue" d="M110.5,-56.08C110.5,-49.01 110.5,-38.86 110.5,-29.99"/>
<polygon fill="midnightblue" stroke="midnightblue" points="114,-29.75 110.5,-19.75 107,-29.75 114,-29.75"/>
</g>
<!-- Node6&#45;&gt;Node4 -->
<g id="edge6" class="edge">
<title>Node6&#45;&gt;Node4</title>
<path fill="none" stroke="midnightblue" d="M110.5,-112.08C110.5,-105.01 110.5,-94.86 110.5,-85.99"/>
<polygon fill="midnightblue" stroke="midnightblue" points="114,-85.75 110.5,-75.75 107,-85.75 114,-85.75"/>
</g>
<!-- Node8 -->
<g id="node8" class="node">
<title>Node8</title>
<g id="a_node8"><a xlink:href="fitdatamessage__p_8h.html" target="_top" xlink:title=" ">
<polygon fill="none" stroke="black" points="0,-224.5 0,-243.5 113,-243.5 113,-224.5 0,-224.5"/>
<text text-anchor="middle" x="56.5" y="-231.5" font-family="Helvetica,sans-Serif" font-size="10.00">fitdatamessage_p.h</text>
</a>
</g>
</g>
<!-- Node7&#45;&gt;Node8 -->
<g id="edge8" class="edge">
<title>Node7&#45;&gt;Node8</title>
<path fill="none" stroke="midnightblue" d="M73.2,-280.08C70.52,-272.85 66.65,-262.41 63.31,-253.4"/>
<polygon fill="midnightblue" stroke="midnightblue" points="66.5,-251.91 59.74,-243.75 59.93,-254.34 66.5,-251.91"/>
</g>
<!-- Node8&#45;&gt;Node4 -->
<g id="edge9" class="edge">
<title>Node8&#45;&gt;Node4</title>
<path fill="none" stroke="midnightblue" d="M41.84,-224.4C30.09,-216.58 14.47,-203.86 7.5,-188 -0.21,-170.45 5.61,-125.42 15.5,-112 27.1,-96.26 45.64,-85.81 63.27,-78.98"/>
<polygon fill="midnightblue" stroke="midnightblue" points="64.67,-82.2 72.92,-75.55 62.32,-75.6 64.67,-82.2"/>
</g>
<!-- Node8&#45;&gt;Node6 -->
<g id="edge10" class="edge">
<title>Node8&#45;&gt;Node6</title>
<path fill="none" stroke="midnightblue" d="M64.24,-224.26C71.59,-215.58 82.53,-201.63 89.5,-188 97.09,-173.15 102.68,-155 106.17,-141.66"/>
<polygon fill="midnightblue" stroke="midnightblue" points="109.62,-142.31 108.62,-131.76 102.82,-140.63 109.62,-142.31"/>
</g>
<!-- Node9 -->
<g id="node9" class="node">
<title>Node9</title>
<g id="a_node9"><a xlink:href="types__p_8h.html" target="_top" xlink:title=" ">
<polygon fill="none" stroke="black" points="16.5,-168.5 16.5,-187.5 80.5,-187.5 80.5,-168.5 16.5,-168.5"/>
<text text-anchor="middle" x="48.5" y="-175.5" font-family="Helvetica,sans-Serif" font-size="10.00">types_p.h</text>
</a>
</g>
</g>
<!-- Node8&#45;&gt;Node9 -->
<g id="edge11" class="edge">
<title>Node8&#45;&gt;Node9</title>
<path fill="none" stroke="midnightblue" d="M55.18,-224.08C54.12,-216.93 52.59,-206.64 51.27,-197.69"/>
<polygon fill="midnightblue" stroke="midnightblue" points="54.72,-197.13 49.8,-187.75 47.8,-198.16 54.72,-197.13"/>
</g>
<!-- Node9&#45;&gt;Node6 -->
<g id="edge12" class="edge">
<title>Node9&#45;&gt;Node6</title>
<path fill="none" stroke="midnightblue" d="M58.46,-168.32C67.63,-160.34 81.44,-148.31 92.53,-138.65"/>
<polygon fill="midnightblue" stroke="midnightblue" points="95.12,-141.04 100.36,-131.83 90.52,-135.76 95.12,-141.04"/>
</g>
<!-- Node10 -->
<g id="node10" class="node">
<title>Node10</title>
<g id="a_node10"><a xlink:title=" ">
<polygon fill="none" stroke="#bfbfbf" points="25,-112.5 25,-131.5 66,-131.5 66,-112.5 25,-112.5"/>
<text text-anchor="middle" x="45.5" y="-119.5" font-family="Helvetica,sans-Serif" font-size="10.00">QList</text>
</a>
</g>
</g>
<!-- Node9&#45;&gt;Node10 -->
<g id="edge13" class="edge">
<title>Node9&#45;&gt;Node10</title>
<path fill="none" stroke="midnightblue" d="M48,-168.08C47.61,-161.01 47.05,-150.86 46.55,-141.99"/>
<polygon fill="midnightblue" stroke="midnightblue" points="50.04,-141.54 45.99,-131.75 43.05,-141.93 50.04,-141.54"/>
</g>
</g>
</svg>
