<?xml version="1.0" encoding="UTF-8" standalone="no"?>
<!DOCTYPE svg PUBLIC "-//W3C//DTD SVG 1.1//EN"
 "http://www.w3.org/Graphics/SVG/1.1/DTD/svg11.dtd">
<!-- Generated by graphviz version 2.43.0 (0)
 -->
<!-- Title: magnetometerdatamessage.cpp Pages: 1 -->
<svg width="386pt" height="364pt"
 viewBox="0.00 0.00 385.50 364.00" xmlns="http://www.w3.org/2000/svg" xmlns:xlink="http://www.w3.org/1999/xlink">
<g id="graph0" class="graph" transform="scale(1 1) rotate(0) translate(4 360)">
<title>magnetometerdatamessage.cpp</title>
<!-- Node1 -->
<g id="node1" class="node">
<title>Node1</title>
<g id="a_node1"><a xlink:title=" ">
<polygon fill="#bfbfbf" stroke="black" points="154,-336.5 154,-355.5 330,-355.5 330,-336.5 154,-336.5"/>
<text text-anchor="middle" x="242" y="-343.5" font-family="Helvetica,sans-Serif" font-size="10.00">magnetometerdatamessage.cpp</text>
</a>
</g>
</g>
<!-- Node2 -->
<g id="node2" class="node">
<title>Node2</title>
<g id="a_node2"><a xlink:href="magnetometerdatamessage_8h.html" target="_top" xlink:title=" ">
<polygon fill="none" stroke="black" points="143,-224.5 143,-243.5 307,-243.5 307,-224.5 143,-224.5"/>
<text text-anchor="middle" x="225" y="-231.5" font-family="Helvetica,sans-Serif" font-size="10.00">magnetometerdatamessage.h</text>
</a>
</g>
</g>
<!-- Node1&#45;&gt;Node2 -->
<g id="edge1" class="edge">
<title>Node1&#45;&gt;Node2</title>
<path fill="none" stroke="midnightblue" d="M240.08,-336.41C238.11,-327.38 235.06,-312.74 233,-300 230.51,-284.55 228.38,-266.92 226.95,-253.92"/>
<polygon fill="midnightblue" stroke="midnightblue" points="230.42,-253.43 225.88,-243.86 223.46,-254.18 230.42,-253.43"/>
</g>
<!-- Node7 -->
<g id="node7" class="node">
<title>Node7</title>
<g id="a_node7"><a xlink:href="magnetometerdatamessage__p_8h.html" target="_top" xlink:title=" ">
<polygon fill="none" stroke="black" points="0,-280.5 0,-299.5 176,-299.5 176,-280.5 0,-280.5"/>
<text text-anchor="middle" x="88" y="-287.5" font-family="Helvetica,sans-Serif" font-size="10.00">magnetometerdatamessage_p.h</text>
</a>
</g>
</g>
<!-- Node1&#45;&gt;Node7 -->
<g id="edge7" class="edge">
<title>Node1&#45;&gt;Node7</title>
<path fill="none" stroke="midnightblue" d="M217.6,-336.44C191.8,-327.4 150.92,-313.06 121.98,-302.92"/>
<polygon fill="midnightblue" stroke="midnightblue" points="122.88,-299.52 112.29,-299.52 120.57,-306.13 122.88,-299.52"/>
</g>
<!-- Node11 -->
<g id="node11" class="node">
<title>Node11</title>
<g id="a_node11"><a xlink:title=" ">
<polygon fill="none" stroke="#bfbfbf" points="242,-280.5 242,-299.5 298,-299.5 298,-280.5 242,-280.5"/>
<text text-anchor="middle" x="270" y="-287.5" font-family="Helvetica,sans-Serif" font-size="10.00">QDebug</text>
</a>
</g>
</g>
<!-- Node1&#45;&gt;Node11 -->
<g id="edge14" class="edge">
<title>Node1&#45;&gt;Node11</title>
<path fill="none" stroke="midnightblue" d="M246.62,-336.08C250.46,-328.69 256.02,-317.95 260.76,-308.81"/>
<polygon fill="midnightblue" stroke="midnightblue" points="263.97,-310.24 265.46,-299.75 257.75,-307.02 263.97,-310.24"/>
</g>
<!-- Node12 -->
<g id="node12" class="node">
<title>Node12</title>
<g id="a_node12"><a xlink:title=" ">
<polygon fill="none" stroke="#bfbfbf" points="316.5,-280.5 316.5,-299.5 377.5,-299.5 377.5,-280.5 316.5,-280.5"/>
<text text-anchor="middle" x="347" y="-287.5" font-family="Helvetica,sans-Serif" font-size="10.00">QtEndian</text>
</a>
</g>
</g>
<!-- Node1&#45;&gt;Node12 -->
<g id="edge15" class="edge">
<title>Node1&#45;&gt;Node12</title>
<path fill="none" stroke="midnightblue" d="M258.87,-336.32C275.71,-327.66 301.81,-314.24 321.24,-304.25"/>
<polygon fill="midnightblue" stroke="midnightblue" points="322.88,-307.34 330.17,-299.65 319.68,-301.12 322.88,-307.34"/>
</g>
<!-- Node3 -->
<g id="node3" class="node">
<title>Node3</title>
<g id="a_node3"><a xlink:href="fitdatamessage_8h.html" target="_top" xlink:title=" ">
<polygon fill="none" stroke="black" points="165.5,-168.5 165.5,-187.5 266.5,-187.5 266.5,-168.5 165.5,-168.5"/>
<text text-anchor="middle" x="216" y="-175.5" font-family="Helvetica,sans-Serif" font-size="10.00">fitdatamessage.h</text>
</a>
</g>
</g>
<!-- Node2&#45;&gt;Node3 -->
<g id="edge2" class="edge">
<title>Node2&#45;&gt;Node3</title>
<path fill="none" stroke="midnightblue" d="M223.51,-224.08C222.32,-216.93 220.61,-206.64 219.12,-197.69"/>
<polygon fill="midnightblue" stroke="midnightblue" points="222.55,-197.04 217.46,-187.75 215.65,-198.19 222.55,-197.04"/>
</g>
<!-- Node4 -->
<g id="node4" class="node">
<title>Node4</title>
<g id="a_node4"><a xlink:href="QtFit__global_8h.html" target="_top" xlink:title=" ">
<polygon fill="none" stroke="black" points="97,-56.5 97,-75.5 181,-75.5 181,-56.5 97,-56.5"/>
<text text-anchor="middle" x="139" y="-63.5" font-family="Helvetica,sans-Serif" font-size="10.00">QtFit_global.h</text>
</a>
</g>
</g>
<!-- Node3&#45;&gt;Node4 -->
<g id="edge3" class="edge">
<title>Node3&#45;&gt;Node4</title>
<path fill="none" stroke="midnightblue" d="M210.99,-168.39C203.54,-155.75 188.93,-131.56 175,-112 168.11,-102.32 159.86,-91.94 153.01,-83.59"/>
<polygon fill="midnightblue" stroke="midnightblue" points="155.56,-81.19 146.47,-75.74 150.18,-85.66 155.56,-81.19"/>
</g>
<!-- Node6 -->
<g id="node6" class="node">
<title>Node6</title>
<g id="a_node6"><a xlink:href="types_8h.html" target="_top" xlink:title="Types defined by the ANT+ FIT SDK.">
<polygon fill="none" stroke="black" points="112.5,-112.5 112.5,-131.5 165.5,-131.5 165.5,-112.5 112.5,-112.5"/>
<text text-anchor="middle" x="139" y="-119.5" font-family="Helvetica,sans-Serif" font-size="10.00">types.h</text>
</a>
</g>
</g>
<!-- Node3&#45;&gt;Node6 -->
<g id="edge5" class="edge">
<title>Node3&#45;&gt;Node6</title>
<path fill="none" stroke="midnightblue" d="M203.63,-168.32C191.84,-160.06 173.87,-147.45 159.86,-137.63"/>
<polygon fill="midnightblue" stroke="midnightblue" points="161.54,-134.53 151.34,-131.65 157.52,-140.26 161.54,-134.53"/>
</g>
<!-- Node5 -->
<g id="node5" class="node">
<title>Node5</title>
<g id="a_node5"><a xlink:title=" ">
<polygon fill="none" stroke="#bfbfbf" points="109.5,-0.5 109.5,-19.5 168.5,-19.5 168.5,-0.5 109.5,-0.5"/>
<text text-anchor="middle" x="139" y="-7.5" font-family="Helvetica,sans-Serif" font-size="10.00">QtGlobal</text>
</a>
</g>
</g>
<!-- Node4&#45;&gt;Node5 -->
<g id="edge4" class="edge">
<title>Node4&#45;&gt;Node5</title>
<path fill="none" stroke="midnightblue" d="M139,-56.08C139,-49.01 139,-38.86 139,-29.99"/>
<polygon fill="midnightblue" stroke="midnightblue" points="142.5,-29.75 139,-19.75 135.5,-29.75 142.5,-29.75"/>
</g>
<!-- Node6&#45;&gt;Node4 -->
<g id="edge6" class="edge">
<title>Node6&#45;&gt;Node4</title>
<path fill="none" stroke="midnightblue" d="M139,-112.08C139,-105.01 139,-94.86 139,-85.99"/>
<polygon fill="midnightblue" stroke="midnightblue" points="142.5,-85.75 139,-75.75 135.5,-85.75 142.5,-85.75"/>
</g>
<!-- Node8 -->
<g id="node8" class="node">
<title>Node8</title>
<g id="a_node8"><a xlink:href="fitdatamessage__p_8h.html" target="_top" xlink:title=" ">
<polygon fill="none" stroke="black" points="11.5,-224.5 11.5,-243.5 124.5,-243.5 124.5,-224.5 11.5,-224.5"/>
<text text-anchor="middle" x="68" y="-231.5" font-family="Helvetica,sans-Serif" font-size="10.00">fitdatamessage_p.h</text>
</a>
</g>
</g>
<!-- Node7&#45;&gt;Node8 -->
<g id="edge8" class="edge">
<title>Node7&#45;&gt;Node8</title>
<path fill="none" stroke="midnightblue" d="M84.7,-280.08C82.02,-272.85 78.15,-262.41 74.81,-253.4"/>
<polygon fill="midnightblue" stroke="midnightblue" points="78,-251.91 71.24,-243.75 71.43,-254.34 78,-251.91"/>
</g>
<!-- Node8&#45;&gt;Node4 -->
<g id="edge9" class="edge">
<title>Node8&#45;&gt;Node4</title>
<path fill="none" stroke="midnightblue" d="M59.25,-224.29C51.44,-215.84 40.55,-202.25 36,-188 29.76,-168.45 38.27,-119.78 44,-112 55.6,-96.26 74.14,-85.81 91.77,-78.98"/>
<polygon fill="midnightblue" stroke="midnightblue" points="93.17,-82.2 101.42,-75.55 90.82,-75.6 93.17,-82.2"/>
</g>
<!-- Node8&#45;&gt;Node6 -->
<g id="edge10" class="edge">
<title>Node8&#45;&gt;Node6</title>
<path fill="none" stroke="midnightblue" d="M80.83,-224.45C92.11,-216.31 108.22,-203.09 118,-188 127.17,-173.85 132.64,-155.37 135.68,-141.73"/>
<polygon fill="midnightblue" stroke="midnightblue" points="139.17,-142.11 137.69,-131.61 132.31,-140.74 139.17,-142.11"/>
</g>
<!-- Node9 -->
<g id="node9" class="node">
<title>Node9</title>
<g id="a_node9"><a xlink:href="types__p_8h.html" target="_top" xlink:title=" ">
<polygon fill="none" stroke="black" points="45,-168.5 45,-187.5 109,-187.5 109,-168.5 45,-168.5"/>
<text text-anchor="middle" x="77" y="-175.5" font-family="Helvetica,sans-Serif" font-size="10.00">types_p.h</text>
</a>
</g>
</g>
<!-- Node8&#45;&gt;Node9 -->
<g id="edge11" class="edge">
<title>Node8&#45;&gt;Node9</title>
<path fill="none" stroke="midnightblue" d="M69.49,-224.08C70.68,-216.93 72.39,-206.64 73.88,-197.69"/>
<polygon fill="midnightblue" stroke="midnightblue" points="77.35,-198.19 75.54,-187.75 70.45,-197.04 77.35,-198.19"/>
</g>
<!-- Node9&#45;&gt;Node6 -->
<g id="edge12" class="edge">
<title>Node9&#45;&gt;Node6</title>
<path fill="none" stroke="midnightblue" d="M86.96,-168.32C96.13,-160.34 109.94,-148.31 121.03,-138.65"/>
<polygon fill="midnightblue" stroke="midnightblue" points="123.62,-141.04 128.86,-131.83 119.02,-135.76 123.62,-141.04"/>
</g>
<!-- Node10 -->
<g id="node10" class="node">
<title>Node10</title>
<g id="a_node10"><a xlink:title=" ">
<polygon fill="none" stroke="#bfbfbf" points="53.5,-112.5 53.5,-131.5 94.5,-131.5 94.5,-112.5 53.5,-112.5"/>
<text text-anchor="middle" x="74" y="-119.5" font-family="Helvetica,sans-Serif" font-size="10.00">QList</text>
</a>
</g>
</g>
<!-- Node9&#45;&gt;Node10 -->
<g id="edge13" class="edge">
<title>Node9&#45;&gt;Node10</title>
<path fill="none" stroke="midnightblue" d="M76.5,-168.08C76.11,-161.01 75.55,-150.86 75.05,-141.99"/>
<polygon fill="midnightblue" stroke="midnightblue" points="78.54,-141.54 74.49,-131.75 71.55,-141.93 78.54,-141.54"/>
</g>
</g>
</svg>
