<?xml version="1.0" encoding="UTF-8" standalone="no"?>
<!DOCTYPE svg PUBLIC "-//W3C//DTD SVG 1.1//EN"
 "http://www.w3.org/Graphics/SVG/1.1/DTD/svg11.dtd">
<!-- Generated by graphviz version 2.43.0 (0)
 -->
<!-- Title: magnetometerdatamessage_p.h Pages: 1 -->
<svg width="191pt" height="308pt"
 viewBox="0.00 0.00 190.50 308.00" xmlns="http://www.w3.org/2000/svg" xmlns:xlink="http://www.w3.org/1999/xlink">
<g id="graph0" class="graph" transform="scale(1 1) rotate(0) translate(4 304)">
<title>magnetometerdatamessage_p.h</title>
<!-- Node1 -->
<g id="node1" class="node">
<title>Node1</title>
<g id="a_node1"><a xlink:title=" ">
<polygon fill="#bfbfbf" stroke="black" points="0,-280.5 0,-299.5 176,-299.5 176,-280.5 0,-280.5"/>
<text text-anchor="middle" x="88" y="-287.5" font-family="Helvetica,sans-Serif" font-size="10.00">magnetometerdatamessage_p.h</text>
</a>
</g>
</g>
<!-- Node2 -->
<g id="node2" class="node">
<title>Node2</title>
<g id="a_node2"><a xlink:href="fitdatamessage__p_8h.html" target="_top" xlink:title=" ">
<polygon fill="none" stroke="black" points="31.5,-224.5 31.5,-243.5 144.5,-243.5 144.5,-224.5 31.5,-224.5"/>
<text text-anchor="middle" x="88" y="-231.5" font-family="Helvetica,sans-Serif" font-size="10.00">fitdatamessage_p.h</text>
</a>
</g>
</g>
<!-- Node1&#45;&gt;Node2 -->
<g id="edge1" class="edge">
<title>Node1&#45;&gt;Node2</title>
<path fill="none" stroke="midnightblue" d="M88,-280.08C88,-273.01 88,-262.86 88,-253.99"/>
<polygon fill="midnightblue" stroke="midnightblue" points="91.5,-253.75 88,-243.75 84.5,-253.75 91.5,-253.75"/>
</g>
<!-- Node3 -->
<g id="node3" class="node">
<title>Node3</title>
<g id="a_node3"><a xlink:href="QtFit__global_8h.html" target="_top" xlink:title=" ">
<polygon fill="none" stroke="black" points="27,-56.5 27,-75.5 111,-75.5 111,-56.5 27,-56.5"/>
<text text-anchor="middle" x="69" y="-63.5" font-family="Helvetica,sans-Serif" font-size="10.00">QtFit_global.h</text>
</a>
</g>
</g>
<!-- Node2&#45;&gt;Node3 -->
<g id="edge2" class="edge">
<title>Node2&#45;&gt;Node3</title>
<path fill="none" stroke="midnightblue" d="M84.15,-224.32C75.82,-204.61 57.22,-154.88 61,-112 61.78,-103.2 63.39,-93.54 64.97,-85.43"/>
<polygon fill="midnightblue" stroke="midnightblue" points="68.41,-86.07 67.01,-75.57 61.56,-84.65 68.41,-86.07"/>
</g>
<!-- Node5 -->
<g id="node5" class="node">
<title>Node5</title>
<g id="a_node5"><a xlink:href="types_8h.html" target="_top" xlink:title="Types defined by the ANT+ FIT SDK.">
<polygon fill="none" stroke="black" points="70.5,-112.5 70.5,-131.5 123.5,-131.5 123.5,-112.5 70.5,-112.5"/>
<text text-anchor="middle" x="97" y="-119.5" font-family="Helvetica,sans-Serif" font-size="10.00">types.h</text>
</a>
</g>
</g>
<!-- Node2&#45;&gt;Node5 -->
<g id="edge4" class="edge">
<title>Node2&#45;&gt;Node5</title>
<path fill="none" stroke="midnightblue" d="M88.71,-224.37C90.16,-206.62 93.51,-165.67 95.48,-141.6"/>
<polygon fill="midnightblue" stroke="midnightblue" points="98.97,-141.84 96.3,-131.59 91.99,-141.27 98.97,-141.84"/>
</g>
<!-- Node6 -->
<g id="node6" class="node">
<title>Node6</title>
<g id="a_node6"><a xlink:href="types__p_8h.html" target="_top" xlink:title=" ">
<polygon fill="none" stroke="black" points="116,-168.5 116,-187.5 180,-187.5 180,-168.5 116,-168.5"/>
<text text-anchor="middle" x="148" y="-175.5" font-family="Helvetica,sans-Serif" font-size="10.00">types_p.h</text>
</a>
</g>
</g>
<!-- Node2&#45;&gt;Node6 -->
<g id="edge6" class="edge">
<title>Node2&#45;&gt;Node6</title>
<path fill="none" stroke="midnightblue" d="M97.64,-224.32C106.51,-216.34 119.87,-204.31 130.61,-194.65"/>
<polygon fill="midnightblue" stroke="midnightblue" points="133.09,-197.13 138.18,-187.83 128.41,-191.92 133.09,-197.13"/>
</g>
<!-- Node4 -->
<g id="node4" class="node">
<title>Node4</title>
<g id="a_node4"><a xlink:title=" ">
<polygon fill="none" stroke="#bfbfbf" points="39.5,-0.5 39.5,-19.5 98.5,-19.5 98.5,-0.5 39.5,-0.5"/>
<text text-anchor="middle" x="69" y="-7.5" font-family="Helvetica,sans-Serif" font-size="10.00">QtGlobal</text>
</a>
</g>
</g>
<!-- Node3&#45;&gt;Node4 -->
<g id="edge3" class="edge">
<title>Node3&#45;&gt;Node4</title>
<path fill="none" stroke="midnightblue" d="M69,-56.08C69,-49.01 69,-38.86 69,-29.99"/>
<polygon fill="midnightblue" stroke="midnightblue" points="72.5,-29.75 69,-19.75 65.5,-29.75 72.5,-29.75"/>
</g>
<!-- Node5&#45;&gt;Node3 -->
<g id="edge5" class="edge">
<title>Node5&#45;&gt;Node3</title>
<path fill="none" stroke="midnightblue" d="M92.38,-112.08C88.54,-104.69 82.98,-93.95 78.24,-84.81"/>
<polygon fill="midnightblue" stroke="midnightblue" points="81.25,-83.02 73.54,-75.75 75.03,-86.24 81.25,-83.02"/>
</g>
<!-- Node6&#45;&gt;Node5 -->
<g id="edge7" class="edge">
<title>Node6&#45;&gt;Node5</title>
<path fill="none" stroke="midnightblue" d="M139.58,-168.08C132.15,-160.22 121.15,-148.57 112.19,-139.08"/>
<polygon fill="midnightblue" stroke="midnightblue" points="114.68,-136.62 105.26,-131.75 109.59,-141.42 114.68,-136.62"/>
</g>
<!-- Node7 -->
<g id="node7" class="node">
<title>Node7</title>
<g id="a_node7"><a xlink:title=" ">
<polygon fill="none" stroke="#bfbfbf" points="141.5,-112.5 141.5,-131.5 182.5,-131.5 182.5,-112.5 141.5,-112.5"/>
<text text-anchor="middle" x="162" y="-119.5" font-family="Helvetica,sans-Serif" font-size="10.00">QList</text>
</a>
</g>
</g>
<!-- Node6&#45;&gt;Node7 -->
<g id="edge8" class="edge">
<title>Node6&#45;&gt;Node7</title>
<path fill="none" stroke="midnightblue" d="M150.31,-168.08C152.17,-160.93 154.84,-150.64 157.15,-141.69"/>
<polygon fill="midnightblue" stroke="midnightblue" points="160.61,-142.31 159.73,-131.75 153.83,-140.55 160.61,-142.31"/>
</g>
</g>
</svg>
