<?xml version="1.0" encoding="UTF-8" standalone="no"?>
<!DOCTYPE svg PUBLIC "-//W3C//DTD SVG 1.1//EN"
 "http://www.w3.org/Graphics/SVG/1.1/DTD/svg11.dtd">
<!-- Generated by graphviz version 2.43.0 (0)
 -->
<!-- Title: magnetometerdatamessage.cpp Pages: 1 -->
<svg width="366pt" height="364pt"
 viewBox="0.00 0.00 366.00 364.00" xmlns="http://www.w3.org/2000/svg" xmlns:xlink="http://www.w3.org/1999/xlink">
<g id="graph0" class="graph" transform="scale(1 1) rotate(0) translate(4 360)">
<title>magnetometerdatamessage.cpp</title>
<!-- Node1 -->
<g id="node1" class="node">
<title>Node1</title>
<g id="a_node1"><a xlink:title=" ">
<polygon fill="#bfbfbf" stroke="black" points="94,-336.5 94,-355.5 270,-355.5 270,-336.5 94,-336.5"/>
<text text-anchor="middle" x="182" y="-343.5" font-family="Helvetica,sans-Serif" font-size="10.00">magnetometerdatamessage.cpp</text>
</a>
</g>
</g>
<!-- Node2 -->
<g id="node2" class="node">
<title>Node2</title>
<g id="a_node2"><a xlink:href="magnetometerdatamessage_8h.html" target="_top" xlink:title=" ">
<polygon fill="none" stroke="black" points="194,-280.5 194,-299.5 358,-299.5 358,-280.5 194,-280.5"/>
<text text-anchor="middle" x="276" y="-287.5" font-family="Helvetica,sans-Serif" font-size="10.00">magnetometerdatamessage.h</text>
</a>
</g>
</g>
<!-- Node1&#45;&gt;Node2 -->
<g id="edge1" class="edge">
<title>Node1&#45;&gt;Node2</title>
<path fill="none" stroke="midnightblue" d="M197.1,-336.32C211.9,-327.82 234.69,-314.73 251.98,-304.8"/>
<polygon fill="midnightblue" stroke="midnightblue" points="254.01,-307.67 260.93,-299.65 250.52,-301.6 254.01,-307.67"/>
</g>
<!-- Node7 -->
<g id="node7" class="node">
<title>Node7</title>
<g id="a_node7"><a xlink:href="magnetometerdatamessage__p_8h.html" target="_top" xlink:title=" ">
<polygon fill="none" stroke="black" points="0,-280.5 0,-299.5 176,-299.5 176,-280.5 0,-280.5"/>
<text text-anchor="middle" x="88" y="-287.5" font-family="Helvetica,sans-Serif" font-size="10.00">magnetometerdatamessage_p.h</text>
</a>
</g>
</g>
<!-- Node1&#45;&gt;Node7 -->
<g id="edge7" class="edge">
<title>Node1&#45;&gt;Node7</title>
<path fill="none" stroke="midnightblue" d="M166.9,-336.32C152.1,-327.82 129.31,-314.73 112.02,-304.8"/>
<polygon fill="midnightblue" stroke="midnightblue" points="113.48,-301.6 103.07,-299.65 109.99,-307.67 113.48,-301.6"/>
</g>
<!-- Node3 -->
<g id="node3" class="node">
<title>Node3</title>
<g id="a_node3"><a xlink:href="fitdatamessage_8h.html" target="_top" xlink:title=" ">
<polygon fill="none" stroke="black" points="212.5,-168.5 212.5,-187.5 313.5,-187.5 313.5,-168.5 212.5,-168.5"/>
<text text-anchor="middle" x="263" y="-175.5" font-family="Helvetica,sans-Serif" font-size="10.00">fitdatamessage.h</text>
</a>
</g>
</g>
<!-- Node2&#45;&gt;Node3 -->
<g id="edge2" class="edge">
<title>Node2&#45;&gt;Node3</title>
<path fill="none" stroke="midnightblue" d="M274.98,-280.37C272.88,-262.62 268.04,-221.67 265.2,-197.6"/>
<polygon fill="midnightblue" stroke="midnightblue" points="268.66,-197.11 264.02,-187.59 261.71,-197.93 268.66,-197.11"/>
</g>
<!-- Node4 -->
<g id="node4" class="node">
<title>Node4</title>
<g id="a_node4"><a xlink:href="QtFit__global_8h.html" target="_top" xlink:title=" ">
<polygon fill="none" stroke="black" points="144,-56.5 144,-75.5 228,-75.5 228,-56.5 144,-56.5"/>
<text text-anchor="middle" x="186" y="-63.5" font-family="Helvetica,sans-Serif" font-size="10.00">QtFit_global.h</text>
</a>
</g>
</g>
<!-- Node3&#45;&gt;Node4 -->
<g id="edge3" class="edge">
<title>Node3&#45;&gt;Node4</title>
<path fill="none" stroke="midnightblue" d="M257.99,-168.39C250.54,-155.75 235.93,-131.56 222,-112 215.11,-102.32 206.86,-91.94 200.01,-83.59"/>
<polygon fill="midnightblue" stroke="midnightblue" points="202.56,-81.19 193.47,-75.74 197.18,-85.66 202.56,-81.19"/>
</g>
<!-- Node6 -->
<g id="node6" class="node">
<title>Node6</title>
<g id="a_node6"><a xlink:href="types_8h.html" target="_top" xlink:title="Types defined by the ANT+ FIT SDK.">
<polygon fill="none" stroke="black" points="159.5,-112.5 159.5,-131.5 212.5,-131.5 212.5,-112.5 159.5,-112.5"/>
<text text-anchor="middle" x="186" y="-119.5" font-family="Helvetica,sans-Serif" font-size="10.00">types.h</text>
</a>
</g>
</g>
<!-- Node3&#45;&gt;Node6 -->
<g id="edge5" class="edge">
<title>Node3&#45;&gt;Node6</title>
<path fill="none" stroke="midnightblue" d="M250.63,-168.32C238.84,-160.06 220.87,-147.45 206.86,-137.63"/>
<polygon fill="midnightblue" stroke="midnightblue" points="208.54,-134.53 198.34,-131.65 204.52,-140.26 208.54,-134.53"/>
</g>
<!-- Node5 -->
<g id="node5" class="node">
<title>Node5</title>
<g id="a_node5"><a xlink:title=" ">
<polygon fill="none" stroke="#bfbfbf" points="156.5,-0.5 156.5,-19.5 215.5,-19.5 215.5,-0.5 156.5,-0.5"/>
<text text-anchor="middle" x="186" y="-7.5" font-family="Helvetica,sans-Serif" font-size="10.00">QtGlobal</text>
</a>
</g>
</g>
<!-- Node4&#45;&gt;Node5 -->
<g id="edge4" class="edge">
<title>Node4&#45;&gt;Node5</title>
<path fill="none" stroke="midnightblue" d="M186,-56.08C186,-49.01 186,-38.86 186,-29.99"/>
<polygon fill="midnightblue" stroke="midnightblue" points="189.5,-29.75 186,-19.75 182.5,-29.75 189.5,-29.75"/>
</g>
<!-- Node6&#45;&gt;Node4 -->
<g id="edge6" class="edge">
<title>Node6&#45;&gt;Node4</title>
<path fill="none" stroke="midnightblue" d="M186,-112.08C186,-105.01 186,-94.86 186,-85.99"/>
<polygon fill="midnightblue" stroke="midnightblue" points="189.5,-85.75 186,-75.75 182.5,-85.75 189.5,-85.75"/>
</g>
<!-- Node8 -->
<g id="node8" class="node">
<title>Node8</title>
<g id="a_node8"><a xlink:href="fitdatamessage__p_8h.html" target="_top" xlink:title=" ">
<polygon fill="none" stroke="black" points="55.5,-224.5 55.5,-243.5 168.5,-243.5 168.5,-224.5 55.5,-224.5"/>
<text text-anchor="middle" x="112" y="-231.5" font-family="Helvetica,sans-Serif" font-size="10.00">fitdatamessage_p.h</text>
</a>
</g>
</g>
<!-- Node7&#45;&gt;Node8 -->
<g id="edge8" class="edge">
<title>Node7&#45;&gt;Node8</title>
<path fill="none" stroke="midnightblue" d="M91.96,-280.08C95.21,-272.77 99.92,-262.18 103.95,-253.1"/>
<polygon fill="midnightblue" stroke="midnightblue" points="107.25,-254.31 108.11,-243.75 100.85,-251.47 107.25,-254.31"/>
</g>
<!-- Node8&#45;&gt;Node4 -->
<g id="edge9" class="edge">
<title>Node8&#45;&gt;Node4</title>
<path fill="none" stroke="midnightblue" d="M104.33,-224.46C97.22,-215.93 87.15,-202.09 83,-188 77.11,-167.98 86.26,-118.44 91,-112 102.6,-96.26 121.14,-85.81 138.77,-78.98"/>
<polygon fill="midnightblue" stroke="midnightblue" points="140.17,-82.2 148.42,-75.55 137.82,-75.6 140.17,-82.2"/>
</g>
<!-- Node8&#45;&gt;Node6 -->
<g id="edge10" class="edge">
<title>Node8&#45;&gt;Node6</title>
<path fill="none" stroke="midnightblue" d="M126.08,-224.3C138.03,-216.25 154.8,-203.25 165,-188 174.38,-173.99 179.82,-155.49 182.8,-141.81"/>
<polygon fill="midnightblue" stroke="midnightblue" points="186.3,-142.14 184.76,-131.66 179.43,-140.81 186.3,-142.14"/>
</g>
<!-- Node9 -->
<g id="node9" class="node">
<title>Node9</title>
<g id="a_node9"><a xlink:href="types__p_8h.html" target="_top" xlink:title=" ">
<polygon fill="none" stroke="black" points="92,-168.5 92,-187.5 156,-187.5 156,-168.5 92,-168.5"/>
<text text-anchor="middle" x="124" y="-175.5" font-family="Helvetica,sans-Serif" font-size="10.00">types_p.h</text>
</a>
</g>
</g>
<!-- Node8&#45;&gt;Node9 -->
<g id="edge11" class="edge">
<title>Node8&#45;&gt;Node9</title>
<path fill="none" stroke="midnightblue" d="M113.98,-224.08C115.57,-216.93 117.86,-206.64 119.85,-197.69"/>
<polygon fill="midnightblue" stroke="midnightblue" points="123.3,-198.27 122.06,-187.75 116.47,-196.75 123.3,-198.27"/>
</g>
<!-- Node9&#45;&gt;Node6 -->
<g id="edge12" class="edge">
<title>Node9&#45;&gt;Node6</title>
<path fill="none" stroke="midnightblue" d="M133.96,-168.32C143.13,-160.34 156.94,-148.31 168.03,-138.65"/>
<polygon fill="midnightblue" stroke="midnightblue" points="170.62,-141.04 175.86,-131.83 166.02,-135.76 170.62,-141.04"/>
</g>
<!-- Node10 -->
<g id="node10" class="node">
<title>Node10</title>
<g id="a_node10"><a xlink:title=" ">
<polygon fill="none" stroke="#bfbfbf" points="100.5,-112.5 100.5,-131.5 141.5,-131.5 141.5,-112.5 100.5,-112.5"/>
<text text-anchor="middle" x="121" y="-119.5" font-family="Helvetica,sans-Serif" font-size="10.00">QList</text>
</a>
</g>
</g>
<!-- Node9&#45;&gt;Node10 -->
<g id="edge13" class="edge">
<title>Node9&#45;&gt;Node10</title>
<path fill="none" stroke="midnightblue" d="M123.5,-168.08C123.11,-161.01 122.55,-150.86 122.05,-141.99"/>
<polygon fill="midnightblue" stroke="midnightblue" points="125.54,-141.54 121.49,-131.75 118.55,-141.93 125.54,-141.54"/>
</g>
</g>
</svg>
