<?xml version="1.0" encoding="UTF-8" standalone="no"?>
<!DOCTYPE svg PUBLIC "-//W3C//DTD SVG 1.1//EN"
 "http://www.w3.org/Graphics/SVG/1.1/DTD/svg11.dtd">
<!-- Generated by graphviz version 2.43.0 (0)
 -->
<!-- Title: magnetometerdatamessage.cpp Pages: 1 -->
<svg width="484pt" height="364pt"
 viewBox="0.00 0.00 483.50 364.00" xmlns="http://www.w3.org/2000/svg" xmlns:xlink="http://www.w3.org/1999/xlink">
<g id="graph0" class="graph" transform="scale(1 1) rotate(0) translate(4 360)">
<title>magnetometerdatamessage.cpp</title>
<!-- Node1 -->
<g id="node1" class="node">
<title>Node1</title>
<g id="a_node1"><a xlink:title=" ">
<polygon fill="#bfbfbf" stroke="black" points="240,-336.5 240,-355.5 416,-355.5 416,-336.5 240,-336.5"/>
<text text-anchor="middle" x="328" y="-343.5" font-family="Helvetica,sans-Serif" font-size="10.00">magnetometerdatamessage.cpp</text>
</a>
</g>
</g>
<!-- Node2 -->
<g id="node2" class="node">
<title>Node2</title>
<g id="a_node2"><a xlink:href="magnetometerdatamessage_8h.html" target="_top" xlink:title=" ">
<polygon fill="none" stroke="black" points="0,-280.5 0,-299.5 164,-299.5 164,-280.5 0,-280.5"/>
<text text-anchor="middle" x="82" y="-287.5" font-family="Helvetica,sans-Serif" font-size="10.00">magnetometerdatamessage.h</text>
</a>
</g>
</g>
<!-- Node1&#45;&gt;Node2 -->
<g id="edge1" class="edge">
<title>Node1&#45;&gt;Node2</title>
<path fill="none" stroke="midnightblue" d="M289.02,-336.44C246.11,-327.02 177.05,-311.87 130.63,-301.68"/>
<polygon fill="midnightblue" stroke="midnightblue" points="131.31,-298.24 120.8,-299.52 129.81,-305.08 131.31,-298.24"/>
</g>
<!-- Node7 -->
<g id="node7" class="node">
<title>Node7</title>
<g id="a_node7"><a xlink:title=" ">
<polygon fill="none" stroke="#bfbfbf" points="317,-56.5 317,-75.5 373,-75.5 373,-56.5 317,-56.5"/>
<text text-anchor="middle" x="345" y="-63.5" font-family="Helvetica,sans-Serif" font-size="10.00">QDebug</text>
</a>
</g>
</g>
<!-- Node1&#45;&gt;Node7 -->
<g id="edge15" class="edge">
<title>Node1&#45;&gt;Node7</title>
<path fill="none" stroke="midnightblue" d="M337.67,-336.25C346.49,-327.77 359.28,-314.16 367,-300 381.41,-273.58 386,-265.1 386,-235 386,-235 386,-235 386,-177 386,-142.52 368.09,-105.56 355.94,-84.47"/>
<polygon fill="midnightblue" stroke="midnightblue" points="358.84,-82.49 350.7,-75.71 352.84,-86.09 358.84,-82.49"/>
</g>
<!-- Node8 -->
<g id="node8" class="node">
<title>Node8</title>
<g id="a_node8"><a xlink:href="magnetometerdatamessage__p_8h.html" target="_top" xlink:title=" ">
<polygon fill="none" stroke="black" points="182,-280.5 182,-299.5 358,-299.5 358,-280.5 182,-280.5"/>
<text text-anchor="middle" x="270" y="-287.5" font-family="Helvetica,sans-Serif" font-size="10.00">magnetometerdatamessage_p.h</text>
</a>
</g>
</g>
<!-- Node1&#45;&gt;Node8 -->
<g id="edge8" class="edge">
<title>Node1&#45;&gt;Node8</title>
<path fill="none" stroke="midnightblue" d="M318.68,-336.32C310.11,-328.34 297.19,-316.31 286.81,-306.65"/>
<polygon fill="midnightblue" stroke="midnightblue" points="289.19,-304.09 279.49,-299.83 284.42,-309.21 289.19,-304.09"/>
</g>
<!-- Node12 -->
<g id="node12" class="node">
<title>Node12</title>
<g id="a_node12"><a xlink:title=" ">
<polygon fill="none" stroke="#bfbfbf" points="414.5,-280.5 414.5,-299.5 475.5,-299.5 475.5,-280.5 414.5,-280.5"/>
<text text-anchor="middle" x="445" y="-287.5" font-family="Helvetica,sans-Serif" font-size="10.00">QtEndian</text>
</a>
</g>
</g>
<!-- Node1&#45;&gt;Node12 -->
<g id="edge16" class="edge">
<title>Node1&#45;&gt;Node12</title>
<path fill="none" stroke="midnightblue" d="M346.54,-336.44C365.62,-327.64 395.57,-313.81 417.44,-303.72"/>
<polygon fill="midnightblue" stroke="midnightblue" points="418.93,-306.88 426.55,-299.52 416,-300.53 418.93,-306.88"/>
</g>
<!-- Node3 -->
<g id="node3" class="node">
<title>Node3</title>
<g id="a_node3"><a xlink:href="fitdatamessage_8h.html" target="_top" xlink:title=" ">
<polygon fill="none" stroke="black" points="84.5,-168.5 84.5,-187.5 185.5,-187.5 185.5,-168.5 84.5,-168.5"/>
<text text-anchor="middle" x="135" y="-175.5" font-family="Helvetica,sans-Serif" font-size="10.00">fitdatamessage.h</text>
</a>
</g>
</g>
<!-- Node2&#45;&gt;Node3 -->
<g id="edge2" class="edge">
<title>Node2&#45;&gt;Node3</title>
<path fill="none" stroke="midnightblue" d="M86.16,-280.37C94.83,-262.38 114.98,-220.55 126.51,-196.63"/>
<polygon fill="midnightblue" stroke="midnightblue" points="129.67,-198.12 130.86,-187.59 123.37,-195.08 129.67,-198.12"/>
</g>
<!-- Node4 -->
<g id="node4" class="node">
<title>Node4</title>
<g id="a_node4"><a xlink:href="QtFit__global_8h.html" target="_top" xlink:title=" ">
<polygon fill="none" stroke="black" points="172,-56.5 172,-75.5 256,-75.5 256,-56.5 172,-56.5"/>
<text text-anchor="middle" x="214" y="-63.5" font-family="Helvetica,sans-Serif" font-size="10.00">QtFit_global.h</text>
</a>
</g>
</g>
<!-- Node3&#45;&gt;Node4 -->
<g id="edge3" class="edge">
<title>Node3&#45;&gt;Node4</title>
<path fill="none" stroke="midnightblue" d="M141.2,-168.37C154.24,-150.22 184.7,-107.8 201.8,-83.99"/>
<polygon fill="midnightblue" stroke="midnightblue" points="204.84,-85.76 207.83,-75.59 199.15,-81.67 204.84,-85.76"/>
</g>
<!-- Node6 -->
<g id="node6" class="node">
<title>Node6</title>
<g id="a_node6"><a xlink:href="types_8h.html" target="_top" xlink:title="Types defined by the ANT+ FIT SDK.">
<polygon fill="none" stroke="black" points="242.5,-112.5 242.5,-131.5 295.5,-131.5 295.5,-112.5 242.5,-112.5"/>
<text text-anchor="middle" x="269" y="-119.5" font-family="Helvetica,sans-Serif" font-size="10.00">types.h</text>
</a>
</g>
</g>
<!-- Node3&#45;&gt;Node6 -->
<g id="edge5" class="edge">
<title>Node3&#45;&gt;Node6</title>
<path fill="none" stroke="midnightblue" d="M156.23,-168.44C178.38,-159.52 213.32,-145.44 238.44,-135.32"/>
<polygon fill="midnightblue" stroke="midnightblue" points="239.9,-138.5 247.87,-131.52 237.28,-132.01 239.9,-138.5"/>
</g>
<!-- Node5 -->
<g id="node5" class="node">
<title>Node5</title>
<g id="a_node5"><a xlink:title=" ">
<polygon fill="none" stroke="#bfbfbf" points="184.5,-0.5 184.5,-19.5 243.5,-19.5 243.5,-0.5 184.5,-0.5"/>
<text text-anchor="middle" x="214" y="-7.5" font-family="Helvetica,sans-Serif" font-size="10.00">QtGlobal</text>
</a>
</g>
</g>
<!-- Node4&#45;&gt;Node5 -->
<g id="edge4" class="edge">
<title>Node4&#45;&gt;Node5</title>
<path fill="none" stroke="midnightblue" d="M214,-56.08C214,-49.01 214,-38.86 214,-29.99"/>
<polygon fill="midnightblue" stroke="midnightblue" points="217.5,-29.75 214,-19.75 210.5,-29.75 217.5,-29.75"/>
</g>
<!-- Node6&#45;&gt;Node4 -->
<g id="edge6" class="edge">
<title>Node6&#45;&gt;Node4</title>
<path fill="none" stroke="midnightblue" d="M259.92,-112.08C251.83,-104.14 239.8,-92.34 230.09,-82.8"/>
<polygon fill="midnightblue" stroke="midnightblue" points="232.5,-80.26 222.91,-75.75 227.6,-85.25 232.5,-80.26"/>
</g>
<!-- Node6&#45;&gt;Node7 -->
<g id="edge7" class="edge">
<title>Node6&#45;&gt;Node7</title>
<path fill="none" stroke="midnightblue" d="M281.21,-112.32C292.78,-104.11 310.38,-91.6 324.16,-81.81"/>
<polygon fill="midnightblue" stroke="midnightblue" points="326.44,-84.48 332.57,-75.83 322.39,-78.77 326.44,-84.48"/>
</g>
<!-- Node9 -->
<g id="node9" class="node">
<title>Node9</title>
<g id="a_node9"><a xlink:href="fitdatamessage__p_8h.html" target="_top" xlink:title=" ">
<polygon fill="none" stroke="black" points="211.5,-224.5 211.5,-243.5 324.5,-243.5 324.5,-224.5 211.5,-224.5"/>
<text text-anchor="middle" x="268" y="-231.5" font-family="Helvetica,sans-Serif" font-size="10.00">fitdatamessage_p.h</text>
</a>
</g>
</g>
<!-- Node8&#45;&gt;Node9 -->
<g id="edge9" class="edge">
<title>Node8&#45;&gt;Node9</title>
<path fill="none" stroke="midnightblue" d="M269.67,-280.08C269.41,-273.01 269.03,-262.86 268.7,-253.99"/>
<polygon fill="midnightblue" stroke="midnightblue" points="272.19,-253.61 268.32,-243.75 265.2,-253.87 272.19,-253.61"/>
</g>
<!-- Node9&#45;&gt;Node4 -->
<g id="edge10" class="edge">
<title>Node9&#45;&gt;Node4</title>
<path fill="none" stroke="midnightblue" d="M264.86,-224.4C258.55,-207.03 244,-166.47 233,-132 228.03,-116.42 222.85,-98.59 219.16,-85.55"/>
<polygon fill="midnightblue" stroke="midnightblue" points="222.52,-84.56 216.44,-75.87 215.78,-86.45 222.52,-84.56"/>
</g>
<!-- Node9&#45;&gt;Node6 -->
<g id="edge11" class="edge">
<title>Node9&#45;&gt;Node6</title>
<path fill="none" stroke="midnightblue" d="M268.08,-224.37C268.24,-206.62 268.61,-165.67 268.83,-141.6"/>
<polygon fill="midnightblue" stroke="midnightblue" points="272.33,-141.62 268.92,-131.59 265.33,-141.56 272.33,-141.62"/>
</g>
<!-- Node10 -->
<g id="node10" class="node">
<title>Node10</title>
<g id="a_node10"><a xlink:href="types__p_8h.html" target="_top" xlink:title=" ">
<polygon fill="none" stroke="black" points="294,-168.5 294,-187.5 358,-187.5 358,-168.5 294,-168.5"/>
<text text-anchor="middle" x="326" y="-175.5" font-family="Helvetica,sans-Serif" font-size="10.00">types_p.h</text>
</a>
</g>
</g>
<!-- Node9&#45;&gt;Node10 -->
<g id="edge12" class="edge">
<title>Node9&#45;&gt;Node10</title>
<path fill="none" stroke="midnightblue" d="M277.32,-224.32C285.89,-216.34 298.81,-204.31 309.19,-194.65"/>
<polygon fill="midnightblue" stroke="midnightblue" points="311.58,-197.21 316.51,-187.83 306.81,-192.09 311.58,-197.21"/>
</g>
<!-- Node10&#45;&gt;Node6 -->
<g id="edge13" class="edge">
<title>Node10&#45;&gt;Node6</title>
<path fill="none" stroke="midnightblue" d="M316.84,-168.32C308.5,-160.42 295.97,-148.55 285.82,-138.94"/>
<polygon fill="midnightblue" stroke="midnightblue" points="287.99,-136.17 278.32,-131.83 283.18,-141.25 287.99,-136.17"/>
</g>
<!-- Node11 -->
<g id="node11" class="node">
<title>Node11</title>
<g id="a_node11"><a xlink:title=" ">
<polygon fill="none" stroke="#bfbfbf" points="313.5,-112.5 313.5,-131.5 354.5,-131.5 354.5,-112.5 313.5,-112.5"/>
<text text-anchor="middle" x="334" y="-119.5" font-family="Helvetica,sans-Serif" font-size="10.00">QList</text>
</a>
</g>
</g>
<!-- Node10&#45;&gt;Node11 -->
<g id="edge14" class="edge">
<title>Node10&#45;&gt;Node11</title>
<path fill="none" stroke="midnightblue" d="M327.32,-168.08C328.38,-160.93 329.91,-150.64 331.23,-141.69"/>
<polygon fill="midnightblue" stroke="midnightblue" points="334.7,-142.16 332.7,-131.75 327.78,-141.13 334.7,-142.16"/>
</g>
</g>
</svg>
