<?xml version="1.0" encoding="UTF-8" standalone="no"?>
<!DOCTYPE svg PUBLIC "-//W3C//DTD SVG 1.1//EN"
 "http://www.w3.org/Graphics/SVG/1.1/DTD/svg11.dtd">
<!-- Generated by graphviz version 2.43.0 (0)
 -->
<!-- Title: memoglobmessage.cpp Pages: 1 -->
<svg width="282pt" height="364pt"
 viewBox="0.00 0.00 282.00 364.00" xmlns="http://www.w3.org/2000/svg" xmlns:xlink="http://www.w3.org/1999/xlink">
<g id="graph0" class="graph" transform="scale(1 1) rotate(0) translate(4 360)">
<title>memoglobmessage.cpp</title>
<!-- Node1 -->
<g id="node1" class="node">
<title>Node1</title>
<g id="a_node1"><a xlink:title=" ">
<polygon fill="#bfbfbf" stroke="black" points="73,-336.5 73,-355.5 207,-355.5 207,-336.5 73,-336.5"/>
<text text-anchor="middle" x="140" y="-343.5" font-family="Helvetica,sans-Serif" font-size="10.00">memoglobmessage.cpp</text>
</a>
</g>
</g>
<!-- Node2 -->
<g id="node2" class="node">
<title>Node2</title>
<g id="a_node2"><a xlink:href="memoglobmessage_8h.html" target="_top" xlink:title=" ">
<polygon fill="none" stroke="black" points="152,-280.5 152,-299.5 274,-299.5 274,-280.5 152,-280.5"/>
<text text-anchor="middle" x="213" y="-287.5" font-family="Helvetica,sans-Serif" font-size="10.00">memoglobmessage.h</text>
</a>
</g>
</g>
<!-- Node1&#45;&gt;Node2 -->
<g id="edge1" class="edge">
<title>Node1&#45;&gt;Node2</title>
<path fill="none" stroke="midnightblue" d="M151.73,-336.32C162.84,-328.11 179.74,-315.6 192.98,-305.81"/>
<polygon fill="midnightblue" stroke="midnightblue" points="195.1,-308.59 201.06,-299.83 190.94,-302.97 195.1,-308.59"/>
</g>
<!-- Node7 -->
<g id="node7" class="node">
<title>Node7</title>
<g id="a_node7"><a xlink:href="memoglobmessage__p_8h.html" target="_top" xlink:title=" ">
<polygon fill="none" stroke="black" points="0,-280.5 0,-299.5 134,-299.5 134,-280.5 0,-280.5"/>
<text text-anchor="middle" x="67" y="-287.5" font-family="Helvetica,sans-Serif" font-size="10.00">memoglobmessage_p.h</text>
</a>
</g>
</g>
<!-- Node1&#45;&gt;Node7 -->
<g id="edge7" class="edge">
<title>Node1&#45;&gt;Node7</title>
<path fill="none" stroke="midnightblue" d="M128.27,-336.32C117.16,-328.11 100.26,-315.6 87.02,-305.81"/>
<polygon fill="midnightblue" stroke="midnightblue" points="89.06,-302.97 78.94,-299.83 84.9,-308.59 89.06,-302.97"/>
</g>
<!-- Node3 -->
<g id="node3" class="node">
<title>Node3</title>
<g id="a_node3"><a xlink:href="fitdatamessage_8h.html" target="_top" xlink:title=" ">
<polygon fill="none" stroke="black" points="160.5,-168.5 160.5,-187.5 261.5,-187.5 261.5,-168.5 160.5,-168.5"/>
<text text-anchor="middle" x="211" y="-175.5" font-family="Helvetica,sans-Serif" font-size="10.00">fitdatamessage.h</text>
</a>
</g>
</g>
<!-- Node2&#45;&gt;Node3 -->
<g id="edge2" class="edge">
<title>Node2&#45;&gt;Node3</title>
<path fill="none" stroke="midnightblue" d="M212.84,-280.37C212.52,-262.62 211.78,-221.67 211.34,-197.6"/>
<polygon fill="midnightblue" stroke="midnightblue" points="214.84,-197.53 211.16,-187.59 207.84,-197.65 214.84,-197.53"/>
</g>
<!-- Node4 -->
<g id="node4" class="node">
<title>Node4</title>
<g id="a_node4"><a xlink:href="QtFit__global_8h.html" target="_top" xlink:title=" ">
<polygon fill="none" stroke="black" points="92,-56.5 92,-75.5 176,-75.5 176,-56.5 92,-56.5"/>
<text text-anchor="middle" x="134" y="-63.5" font-family="Helvetica,sans-Serif" font-size="10.00">QtFit_global.h</text>
</a>
</g>
</g>
<!-- Node3&#45;&gt;Node4 -->
<g id="edge3" class="edge">
<title>Node3&#45;&gt;Node4</title>
<path fill="none" stroke="midnightblue" d="M205.99,-168.39C198.54,-155.75 183.93,-131.56 170,-112 163.11,-102.32 154.86,-91.94 148.01,-83.59"/>
<polygon fill="midnightblue" stroke="midnightblue" points="150.56,-81.19 141.47,-75.74 145.18,-85.66 150.56,-81.19"/>
</g>
<!-- Node6 -->
<g id="node6" class="node">
<title>Node6</title>
<g id="a_node6"><a xlink:href="types_8h.html" target="_top" xlink:title="Types defined by the ANT+ FIT SDK.">
<polygon fill="none" stroke="black" points="107.5,-112.5 107.5,-131.5 160.5,-131.5 160.5,-112.5 107.5,-112.5"/>
<text text-anchor="middle" x="134" y="-119.5" font-family="Helvetica,sans-Serif" font-size="10.00">types.h</text>
</a>
</g>
</g>
<!-- Node3&#45;&gt;Node6 -->
<g id="edge5" class="edge">
<title>Node3&#45;&gt;Node6</title>
<path fill="none" stroke="midnightblue" d="M198.63,-168.32C186.84,-160.06 168.87,-147.45 154.86,-137.63"/>
<polygon fill="midnightblue" stroke="midnightblue" points="156.54,-134.53 146.34,-131.65 152.52,-140.26 156.54,-134.53"/>
</g>
<!-- Node5 -->
<g id="node5" class="node">
<title>Node5</title>
<g id="a_node5"><a xlink:title=" ">
<polygon fill="none" stroke="#bfbfbf" points="104.5,-0.5 104.5,-19.5 163.5,-19.5 163.5,-0.5 104.5,-0.5"/>
<text text-anchor="middle" x="134" y="-7.5" font-family="Helvetica,sans-Serif" font-size="10.00">QtGlobal</text>
</a>
</g>
</g>
<!-- Node4&#45;&gt;Node5 -->
<g id="edge4" class="edge">
<title>Node4&#45;&gt;Node5</title>
<path fill="none" stroke="midnightblue" d="M134,-56.08C134,-49.01 134,-38.86 134,-29.99"/>
<polygon fill="midnightblue" stroke="midnightblue" points="137.5,-29.75 134,-19.75 130.5,-29.75 137.5,-29.75"/>
</g>
<!-- Node6&#45;&gt;Node4 -->
<g id="edge6" class="edge">
<title>Node6&#45;&gt;Node4</title>
<path fill="none" stroke="midnightblue" d="M134,-112.08C134,-105.01 134,-94.86 134,-85.99"/>
<polygon fill="midnightblue" stroke="midnightblue" points="137.5,-85.75 134,-75.75 130.5,-85.75 137.5,-85.75"/>
</g>
<!-- Node8 -->
<g id="node8" class="node">
<title>Node8</title>
<g id="a_node8"><a xlink:href="fitdatamessage__p_8h.html" target="_top" xlink:title=" ">
<polygon fill="none" stroke="black" points="13.5,-224.5 13.5,-243.5 126.5,-243.5 126.5,-224.5 13.5,-224.5"/>
<text text-anchor="middle" x="70" y="-231.5" font-family="Helvetica,sans-Serif" font-size="10.00">fitdatamessage_p.h</text>
</a>
</g>
</g>
<!-- Node7&#45;&gt;Node8 -->
<g id="edge8" class="edge">
<title>Node7&#45;&gt;Node8</title>
<path fill="none" stroke="midnightblue" d="M67.5,-280.08C67.89,-273.01 68.45,-262.86 68.95,-253.99"/>
<polygon fill="midnightblue" stroke="midnightblue" points="72.45,-253.93 69.51,-243.75 65.46,-253.54 72.45,-253.93"/>
</g>
<!-- Node8&#45;&gt;Node4 -->
<g id="edge9" class="edge">
<title>Node8&#45;&gt;Node4</title>
<path fill="none" stroke="midnightblue" d="M59.01,-224.37C49.55,-216.17 36.56,-202.92 31,-188 24.06,-169.4 31.3,-122.45 39,-112 50.6,-96.26 69.14,-85.81 86.77,-78.98"/>
<polygon fill="midnightblue" stroke="midnightblue" points="88.17,-82.2 96.42,-75.55 85.82,-75.6 88.17,-82.2"/>
</g>
<!-- Node8&#45;&gt;Node6 -->
<g id="edge10" class="edge">
<title>Node8&#45;&gt;Node6</title>
<path fill="none" stroke="midnightblue" d="M80.61,-224.39C90.29,-216.02 104.37,-202.48 113,-188 121.63,-173.52 127.16,-155.07 130.36,-141.53"/>
<polygon fill="midnightblue" stroke="midnightblue" points="133.83,-142.02 132.52,-131.51 126.99,-140.54 133.83,-142.02"/>
</g>
<!-- Node9 -->
<g id="node9" class="node">
<title>Node9</title>
<g id="a_node9"><a xlink:href="types__p_8h.html" target="_top" xlink:title=" ">
<polygon fill="none" stroke="black" points="40,-168.5 40,-187.5 104,-187.5 104,-168.5 40,-168.5"/>
<text text-anchor="middle" x="72" y="-175.5" font-family="Helvetica,sans-Serif" font-size="10.00">types_p.h</text>
</a>
</g>
</g>
<!-- Node8&#45;&gt;Node9 -->
<g id="edge11" class="edge">
<title>Node8&#45;&gt;Node9</title>
<path fill="none" stroke="midnightblue" d="M70.33,-224.08C70.59,-217.01 70.97,-206.86 71.3,-197.99"/>
<polygon fill="midnightblue" stroke="midnightblue" points="74.8,-197.87 71.68,-187.75 67.81,-197.61 74.8,-197.87"/>
</g>
<!-- Node9&#45;&gt;Node6 -->
<g id="edge12" class="edge">
<title>Node9&#45;&gt;Node6</title>
<path fill="none" stroke="midnightblue" d="M81.96,-168.32C91.13,-160.34 104.94,-148.31 116.03,-138.65"/>
<polygon fill="midnightblue" stroke="midnightblue" points="118.62,-141.04 123.86,-131.83 114.02,-135.76 118.62,-141.04"/>
</g>
<!-- Node10 -->
<g id="node10" class="node">
<title>Node10</title>
<g id="a_node10"><a xlink:title=" ">
<polygon fill="none" stroke="#bfbfbf" points="48.5,-112.5 48.5,-131.5 89.5,-131.5 89.5,-112.5 48.5,-112.5"/>
<text text-anchor="middle" x="69" y="-119.5" font-family="Helvetica,sans-Serif" font-size="10.00">QList</text>
</a>
</g>
</g>
<!-- Node9&#45;&gt;Node10 -->
<g id="edge13" class="edge">
<title>Node9&#45;&gt;Node10</title>
<path fill="none" stroke="midnightblue" d="M71.5,-168.08C71.11,-161.01 70.55,-150.86 70.05,-141.99"/>
<polygon fill="midnightblue" stroke="midnightblue" points="73.54,-141.54 69.49,-131.75 66.55,-141.93 73.54,-141.54"/>
</g>
</g>
</svg>
