<?xml version="1.0" encoding="UTF-8" standalone="no"?>
<!DOCTYPE svg PUBLIC "-//W3C//DTD SVG 1.1//EN"
 "http://www.w3.org/Graphics/SVG/1.1/DTD/svg11.dtd">
<!-- Generated by graphviz version 2.43.0 (0)
 -->
<!-- Title: mesgcapabilitiesmessage.cpp Pages: 1 -->
<svg width="461pt" height="364pt"
 viewBox="0.00 0.00 461.00 364.00" xmlns="http://www.w3.org/2000/svg" xmlns:xlink="http://www.w3.org/1999/xlink">
<g id="graph0" class="graph" transform="scale(1 1) rotate(0) translate(4 360)">
<title>mesgcapabilitiesmessage.cpp</title>
<!-- Node1 -->
<g id="node1" class="node">
<title>Node1</title>
<g id="a_node1"><a xlink:title=" ">
<polygon fill="#bfbfbf" stroke="black" points="226.5,-336.5 226.5,-355.5 390.5,-355.5 390.5,-336.5 226.5,-336.5"/>
<text text-anchor="middle" x="308.5" y="-343.5" font-family="Helvetica,sans-Serif" font-size="10.00">mesgcapabilitiesmessage.cpp</text>
</a>
</g>
</g>
<!-- Node2 -->
<g id="node2" class="node">
<title>Node2</title>
<g id="a_node2"><a xlink:href="mesgcapabilitiesmessage_8h.html" target="_top" xlink:title=" ">
<polygon fill="none" stroke="black" points="0,-280.5 0,-299.5 153,-299.5 153,-280.5 0,-280.5"/>
<text text-anchor="middle" x="76.5" y="-287.5" font-family="Helvetica,sans-Serif" font-size="10.00">mesgcapabilitiesmessage.h</text>
</a>
</g>
</g>
<!-- Node1&#45;&gt;Node2 -->
<g id="edge1" class="edge">
<title>Node1&#45;&gt;Node2</title>
<path fill="none" stroke="midnightblue" d="M271.74,-336.44C231.44,-327.06 166.69,-311.99 122.92,-301.8"/>
<polygon fill="midnightblue" stroke="midnightblue" points="123.62,-298.37 113.09,-299.52 122.04,-305.19 123.62,-298.37"/>
</g>
<!-- Node7 -->
<g id="node7" class="node">
<title>Node7</title>
<g id="a_node7"><a xlink:title=" ">
<polygon fill="none" stroke="#bfbfbf" points="294.5,-56.5 294.5,-75.5 350.5,-75.5 350.5,-56.5 294.5,-56.5"/>
<text text-anchor="middle" x="322.5" y="-63.5" font-family="Helvetica,sans-Serif" font-size="10.00">QDebug</text>
</a>
</g>
</g>
<!-- Node1&#45;&gt;Node7 -->
<g id="edge15" class="edge">
<title>Node1&#45;&gt;Node7</title>
<path fill="none" stroke="midnightblue" d="M317.08,-336.43C325.2,-327.88 337.21,-314.02 344.5,-300 358.39,-273.3 363.5,-265.1 363.5,-235 363.5,-235 363.5,-235 363.5,-177 363.5,-142.52 345.59,-105.56 333.44,-84.47"/>
<polygon fill="midnightblue" stroke="midnightblue" points="336.34,-82.49 328.2,-75.71 330.34,-86.09 336.34,-82.49"/>
</g>
<!-- Node8 -->
<g id="node8" class="node">
<title>Node8</title>
<g id="a_node8"><a xlink:href="mesgcapabilitiesmessage__p_8h.html" target="_top" xlink:title=" ">
<polygon fill="none" stroke="black" points="171.5,-280.5 171.5,-299.5 335.5,-299.5 335.5,-280.5 171.5,-280.5"/>
<text text-anchor="middle" x="253.5" y="-287.5" font-family="Helvetica,sans-Serif" font-size="10.00">mesgcapabilitiesmessage_p.h</text>
</a>
</g>
</g>
<!-- Node1&#45;&gt;Node8 -->
<g id="edge8" class="edge">
<title>Node1&#45;&gt;Node8</title>
<path fill="none" stroke="midnightblue" d="M299.42,-336.08C291.33,-328.14 279.3,-316.34 269.59,-306.8"/>
<polygon fill="midnightblue" stroke="midnightblue" points="272,-304.26 262.41,-299.75 267.1,-309.25 272,-304.26"/>
</g>
<!-- Node12 -->
<g id="node12" class="node">
<title>Node12</title>
<g id="a_node12"><a xlink:title=" ">
<polygon fill="none" stroke="#bfbfbf" points="392,-280.5 392,-299.5 453,-299.5 453,-280.5 392,-280.5"/>
<text text-anchor="middle" x="422.5" y="-287.5" font-family="Helvetica,sans-Serif" font-size="10.00">QtEndian</text>
</a>
</g>
</g>
<!-- Node1&#45;&gt;Node12 -->
<g id="edge16" class="edge">
<title>Node1&#45;&gt;Node12</title>
<path fill="none" stroke="midnightblue" d="M326.56,-336.44C345.07,-327.68 374.08,-313.94 395.36,-303.86"/>
<polygon fill="midnightblue" stroke="midnightblue" points="396.98,-306.96 404.52,-299.52 393.99,-300.63 396.98,-306.96"/>
</g>
<!-- Node3 -->
<g id="node3" class="node">
<title>Node3</title>
<g id="a_node3"><a xlink:href="fitdatamessage_8h.html" target="_top" xlink:title=" ">
<polygon fill="none" stroke="black" points="62,-168.5 62,-187.5 163,-187.5 163,-168.5 62,-168.5"/>
<text text-anchor="middle" x="112.5" y="-175.5" font-family="Helvetica,sans-Serif" font-size="10.00">fitdatamessage.h</text>
</a>
</g>
</g>
<!-- Node2&#45;&gt;Node3 -->
<g id="edge2" class="edge">
<title>Node2&#45;&gt;Node3</title>
<path fill="none" stroke="midnightblue" d="M79.32,-280.37C85.16,-262.54 98.66,-221.3 106.52,-197.27"/>
<polygon fill="midnightblue" stroke="midnightblue" points="109.9,-198.18 109.69,-187.59 103.25,-196.01 109.9,-198.18"/>
</g>
<!-- Node4 -->
<g id="node4" class="node">
<title>Node4</title>
<g id="a_node4"><a xlink:href="QtFit__global_8h.html" target="_top" xlink:title=" ">
<polygon fill="none" stroke="black" points="149.5,-56.5 149.5,-75.5 233.5,-75.5 233.5,-56.5 149.5,-56.5"/>
<text text-anchor="middle" x="191.5" y="-63.5" font-family="Helvetica,sans-Serif" font-size="10.00">QtFit_global.h</text>
</a>
</g>
</g>
<!-- Node3&#45;&gt;Node4 -->
<g id="edge3" class="edge">
<title>Node3&#45;&gt;Node4</title>
<path fill="none" stroke="midnightblue" d="M118.7,-168.37C131.74,-150.22 162.2,-107.8 179.3,-83.99"/>
<polygon fill="midnightblue" stroke="midnightblue" points="182.34,-85.76 185.33,-75.59 176.65,-81.67 182.34,-85.76"/>
</g>
<!-- Node6 -->
<g id="node6" class="node">
<title>Node6</title>
<g id="a_node6"><a xlink:href="types_8h.html" target="_top" xlink:title="Types defined by the ANT+ FIT SDK.">
<polygon fill="none" stroke="black" points="220,-112.5 220,-131.5 273,-131.5 273,-112.5 220,-112.5"/>
<text text-anchor="middle" x="246.5" y="-119.5" font-family="Helvetica,sans-Serif" font-size="10.00">types.h</text>
</a>
</g>
</g>
<!-- Node3&#45;&gt;Node6 -->
<g id="edge5" class="edge">
<title>Node3&#45;&gt;Node6</title>
<path fill="none" stroke="midnightblue" d="M133.73,-168.44C155.88,-159.52 190.82,-145.44 215.94,-135.32"/>
<polygon fill="midnightblue" stroke="midnightblue" points="217.4,-138.5 225.37,-131.52 214.78,-132.01 217.4,-138.5"/>
</g>
<!-- Node5 -->
<g id="node5" class="node">
<title>Node5</title>
<g id="a_node5"><a xlink:title=" ">
<polygon fill="none" stroke="#bfbfbf" points="162,-0.5 162,-19.5 221,-19.5 221,-0.5 162,-0.5"/>
<text text-anchor="middle" x="191.5" y="-7.5" font-family="Helvetica,sans-Serif" font-size="10.00">QtGlobal</text>
</a>
</g>
</g>
<!-- Node4&#45;&gt;Node5 -->
<g id="edge4" class="edge">
<title>Node4&#45;&gt;Node5</title>
<path fill="none" stroke="midnightblue" d="M191.5,-56.08C191.5,-49.01 191.5,-38.86 191.5,-29.99"/>
<polygon fill="midnightblue" stroke="midnightblue" points="195,-29.75 191.5,-19.75 188,-29.75 195,-29.75"/>
</g>
<!-- Node6&#45;&gt;Node4 -->
<g id="edge6" class="edge">
<title>Node6&#45;&gt;Node4</title>
<path fill="none" stroke="midnightblue" d="M237.42,-112.08C229.33,-104.14 217.3,-92.34 207.59,-82.8"/>
<polygon fill="midnightblue" stroke="midnightblue" points="210,-80.26 200.41,-75.75 205.1,-85.25 210,-80.26"/>
</g>
<!-- Node6&#45;&gt;Node7 -->
<g id="edge7" class="edge">
<title>Node6&#45;&gt;Node7</title>
<path fill="none" stroke="midnightblue" d="M258.71,-112.32C270.28,-104.11 287.88,-91.6 301.66,-81.81"/>
<polygon fill="midnightblue" stroke="midnightblue" points="303.94,-84.48 310.07,-75.83 299.89,-78.77 303.94,-84.48"/>
</g>
<!-- Node9 -->
<g id="node9" class="node">
<title>Node9</title>
<g id="a_node9"><a xlink:href="fitdatamessage__p_8h.html" target="_top" xlink:title=" ">
<polygon fill="none" stroke="black" points="192,-224.5 192,-243.5 305,-243.5 305,-224.5 192,-224.5"/>
<text text-anchor="middle" x="248.5" y="-231.5" font-family="Helvetica,sans-Serif" font-size="10.00">fitdatamessage_p.h</text>
</a>
</g>
</g>
<!-- Node8&#45;&gt;Node9 -->
<g id="edge9" class="edge">
<title>Node8&#45;&gt;Node9</title>
<path fill="none" stroke="midnightblue" d="M252.67,-280.08C252.02,-273.01 251.08,-262.86 250.26,-253.99"/>
<polygon fill="midnightblue" stroke="midnightblue" points="253.72,-253.39 249.31,-243.75 246.75,-254.03 253.72,-253.39"/>
</g>
<!-- Node9&#45;&gt;Node4 -->
<g id="edge10" class="edge">
<title>Node9&#45;&gt;Node4</title>
<path fill="none" stroke="midnightblue" d="M245.03,-224.43C238.06,-207.12 222.07,-166.65 210.5,-132 205.32,-116.49 200.16,-98.65 196.53,-85.59"/>
<polygon fill="midnightblue" stroke="midnightblue" points="199.89,-84.61 193.87,-75.9 193.14,-86.47 199.89,-84.61"/>
</g>
<!-- Node9&#45;&gt;Node6 -->
<g id="edge11" class="edge">
<title>Node9&#45;&gt;Node6</title>
<path fill="none" stroke="midnightblue" d="M248.34,-224.37C248.02,-206.62 247.28,-165.67 246.84,-141.6"/>
<polygon fill="midnightblue" stroke="midnightblue" points="250.34,-141.53 246.66,-131.59 243.34,-141.65 250.34,-141.53"/>
</g>
<!-- Node10 -->
<g id="node10" class="node">
<title>Node10</title>
<g id="a_node10"><a xlink:href="types__p_8h.html" target="_top" xlink:title=" ">
<polygon fill="none" stroke="black" points="271.5,-168.5 271.5,-187.5 335.5,-187.5 335.5,-168.5 271.5,-168.5"/>
<text text-anchor="middle" x="303.5" y="-175.5" font-family="Helvetica,sans-Serif" font-size="10.00">types_p.h</text>
</a>
</g>
</g>
<!-- Node9&#45;&gt;Node10 -->
<g id="edge12" class="edge">
<title>Node9&#45;&gt;Node10</title>
<path fill="none" stroke="midnightblue" d="M257.58,-224.08C265.67,-216.14 277.7,-204.34 287.41,-194.8"/>
<polygon fill="midnightblue" stroke="midnightblue" points="289.9,-197.25 294.59,-187.75 285,-192.26 289.9,-197.25"/>
</g>
<!-- Node10&#45;&gt;Node6 -->
<g id="edge13" class="edge">
<title>Node10&#45;&gt;Node6</title>
<path fill="none" stroke="midnightblue" d="M294.34,-168.32C286,-160.42 273.47,-148.55 263.32,-138.94"/>
<polygon fill="midnightblue" stroke="midnightblue" points="265.49,-136.17 255.82,-131.83 260.68,-141.25 265.49,-136.17"/>
</g>
<!-- Node11 -->
<g id="node11" class="node">
<title>Node11</title>
<g id="a_node11"><a xlink:title=" ">
<polygon fill="none" stroke="#bfbfbf" points="291,-112.5 291,-131.5 332,-131.5 332,-112.5 291,-112.5"/>
<text text-anchor="middle" x="311.5" y="-119.5" font-family="Helvetica,sans-Serif" font-size="10.00">QList</text>
</a>
</g>
</g>
<!-- Node10&#45;&gt;Node11 -->
<g id="edge14" class="edge">
<title>Node10&#45;&gt;Node11</title>
<path fill="none" stroke="midnightblue" d="M304.82,-168.08C305.88,-160.93 307.41,-150.64 308.73,-141.69"/>
<polygon fill="midnightblue" stroke="midnightblue" points="312.2,-142.16 310.2,-131.75 305.28,-141.13 312.2,-142.16"/>
</g>
</g>
</svg>
