<?xml version="1.0" encoding="UTF-8" standalone="no"?>
<!DOCTYPE svg PUBLIC "-//W3C//DTD SVG 1.1//EN"
 "http://www.w3.org/Graphics/SVG/1.1/DTD/svg11.dtd">
<!-- Generated by graphviz version 2.43.0 (0)
 -->
<!-- Title: mesgcapabilitiesmessage.cpp Pages: 1 -->
<svg width="374pt" height="364pt"
 viewBox="0.00 0.00 373.50 364.00" xmlns="http://www.w3.org/2000/svg" xmlns:xlink="http://www.w3.org/1999/xlink">
<g id="graph0" class="graph" transform="scale(1 1) rotate(0) translate(4 360)">
<title>mesgcapabilitiesmessage.cpp</title>
<!-- Node1 -->
<g id="node1" class="node">
<title>Node1</title>
<g id="a_node1"><a xlink:title=" ">
<polygon fill="#bfbfbf" stroke="black" points="148,-336.5 148,-355.5 312,-355.5 312,-336.5 148,-336.5"/>
<text text-anchor="middle" x="230" y="-343.5" font-family="Helvetica,sans-Serif" font-size="10.00">mesgcapabilitiesmessage.cpp</text>
</a>
</g>
</g>
<!-- Node2 -->
<g id="node2" class="node">
<title>Node2</title>
<g id="a_node2"><a xlink:href="mesgcapabilitiesmessage_8h.html" target="_top" xlink:title=" ">
<polygon fill="none" stroke="black" points="136.5,-224.5 136.5,-243.5 289.5,-243.5 289.5,-224.5 136.5,-224.5"/>
<text text-anchor="middle" x="213" y="-231.5" font-family="Helvetica,sans-Serif" font-size="10.00">mesgcapabilitiesmessage.h</text>
</a>
</g>
</g>
<!-- Node1&#45;&gt;Node2 -->
<g id="edge1" class="edge">
<title>Node1&#45;&gt;Node2</title>
<path fill="none" stroke="midnightblue" d="M228.08,-336.41C226.11,-327.38 223.06,-312.74 221,-300 218.51,-284.55 216.38,-266.92 214.95,-253.92"/>
<polygon fill="midnightblue" stroke="midnightblue" points="218.42,-253.43 213.88,-243.86 211.46,-254.18 218.42,-253.43"/>
</g>
<!-- Node7 -->
<g id="node7" class="node">
<title>Node7</title>
<g id="a_node7"><a xlink:href="mesgcapabilitiesmessage__p_8h.html" target="_top" xlink:title=" ">
<polygon fill="none" stroke="black" points="0,-280.5 0,-299.5 164,-299.5 164,-280.5 0,-280.5"/>
<text text-anchor="middle" x="82" y="-287.5" font-family="Helvetica,sans-Serif" font-size="10.00">mesgcapabilitiesmessage_p.h</text>
</a>
</g>
</g>
<!-- Node1&#45;&gt;Node7 -->
<g id="edge7" class="edge">
<title>Node1&#45;&gt;Node7</title>
<path fill="none" stroke="midnightblue" d="M206.55,-336.44C181.87,-327.44 142.81,-313.19 115.02,-303.05"/>
<polygon fill="midnightblue" stroke="midnightblue" points="115.94,-299.66 105.34,-299.52 113.54,-306.23 115.94,-299.66"/>
</g>
<!-- Node11 -->
<g id="node11" class="node">
<title>Node11</title>
<g id="a_node11"><a xlink:title=" ">
<polygon fill="none" stroke="#bfbfbf" points="230,-280.5 230,-299.5 286,-299.5 286,-280.5 230,-280.5"/>
<text text-anchor="middle" x="258" y="-287.5" font-family="Helvetica,sans-Serif" font-size="10.00">QDebug</text>
</a>
</g>
</g>
<!-- Node1&#45;&gt;Node11 -->
<g id="edge14" class="edge">
<title>Node1&#45;&gt;Node11</title>
<path fill="none" stroke="midnightblue" d="M234.62,-336.08C238.46,-328.69 244.02,-317.95 248.76,-308.81"/>
<polygon fill="midnightblue" stroke="midnightblue" points="251.97,-310.24 253.46,-299.75 245.75,-307.02 251.97,-310.24"/>
</g>
<!-- Node12 -->
<g id="node12" class="node">
<title>Node12</title>
<g id="a_node12"><a xlink:title=" ">
<polygon fill="none" stroke="#bfbfbf" points="304.5,-280.5 304.5,-299.5 365.5,-299.5 365.5,-280.5 304.5,-280.5"/>
<text text-anchor="middle" x="335" y="-287.5" font-family="Helvetica,sans-Serif" font-size="10.00">QtEndian</text>
</a>
</g>
</g>
<!-- Node1&#45;&gt;Node12 -->
<g id="edge15" class="edge">
<title>Node1&#45;&gt;Node12</title>
<path fill="none" stroke="midnightblue" d="M246.87,-336.32C263.71,-327.66 289.81,-314.24 309.24,-304.25"/>
<polygon fill="midnightblue" stroke="midnightblue" points="310.88,-307.34 318.17,-299.65 307.68,-301.12 310.88,-307.34"/>
</g>
<!-- Node3 -->
<g id="node3" class="node">
<title>Node3</title>
<g id="a_node3"><a xlink:href="fitdatamessage_8h.html" target="_top" xlink:title=" ">
<polygon fill="none" stroke="black" points="156.5,-168.5 156.5,-187.5 257.5,-187.5 257.5,-168.5 156.5,-168.5"/>
<text text-anchor="middle" x="207" y="-175.5" font-family="Helvetica,sans-Serif" font-size="10.00">fitdatamessage.h</text>
</a>
</g>
</g>
<!-- Node2&#45;&gt;Node3 -->
<g id="edge2" class="edge">
<title>Node2&#45;&gt;Node3</title>
<path fill="none" stroke="midnightblue" d="M212.01,-224.08C211.21,-216.93 210.07,-206.64 209.08,-197.69"/>
<polygon fill="midnightblue" stroke="midnightblue" points="212.56,-197.3 207.97,-187.75 205.6,-198.08 212.56,-197.3"/>
</g>
<!-- Node4 -->
<g id="node4" class="node">
<title>Node4</title>
<g id="a_node4"><a xlink:href="QtFit__global_8h.html" target="_top" xlink:title=" ">
<polygon fill="none" stroke="black" points="88,-56.5 88,-75.5 172,-75.5 172,-56.5 88,-56.5"/>
<text text-anchor="middle" x="130" y="-63.5" font-family="Helvetica,sans-Serif" font-size="10.00">QtFit_global.h</text>
</a>
</g>
</g>
<!-- Node3&#45;&gt;Node4 -->
<g id="edge3" class="edge">
<title>Node3&#45;&gt;Node4</title>
<path fill="none" stroke="midnightblue" d="M201.99,-168.39C194.54,-155.75 179.93,-131.56 166,-112 159.11,-102.32 150.86,-91.94 144.01,-83.59"/>
<polygon fill="midnightblue" stroke="midnightblue" points="146.56,-81.19 137.47,-75.74 141.18,-85.66 146.56,-81.19"/>
</g>
<!-- Node6 -->
<g id="node6" class="node">
<title>Node6</title>
<g id="a_node6"><a xlink:href="types_8h.html" target="_top" xlink:title="Types defined by the ANT+ FIT SDK.">
<polygon fill="none" stroke="black" points="103.5,-112.5 103.5,-131.5 156.5,-131.5 156.5,-112.5 103.5,-112.5"/>
<text text-anchor="middle" x="130" y="-119.5" font-family="Helvetica,sans-Serif" font-size="10.00">types.h</text>
</a>
</g>
</g>
<!-- Node3&#45;&gt;Node6 -->
<g id="edge5" class="edge">
<title>Node3&#45;&gt;Node6</title>
<path fill="none" stroke="midnightblue" d="M194.63,-168.32C182.84,-160.06 164.87,-147.45 150.86,-137.63"/>
<polygon fill="midnightblue" stroke="midnightblue" points="152.54,-134.53 142.34,-131.65 148.52,-140.26 152.54,-134.53"/>
</g>
<!-- Node5 -->
<g id="node5" class="node">
<title>Node5</title>
<g id="a_node5"><a xlink:title=" ">
<polygon fill="none" stroke="#bfbfbf" points="100.5,-0.5 100.5,-19.5 159.5,-19.5 159.5,-0.5 100.5,-0.5"/>
<text text-anchor="middle" x="130" y="-7.5" font-family="Helvetica,sans-Serif" font-size="10.00">QtGlobal</text>
</a>
</g>
</g>
<!-- Node4&#45;&gt;Node5 -->
<g id="edge4" class="edge">
<title>Node4&#45;&gt;Node5</title>
<path fill="none" stroke="midnightblue" d="M130,-56.08C130,-49.01 130,-38.86 130,-29.99"/>
<polygon fill="midnightblue" stroke="midnightblue" points="133.5,-29.75 130,-19.75 126.5,-29.75 133.5,-29.75"/>
</g>
<!-- Node6&#45;&gt;Node4 -->
<g id="edge6" class="edge">
<title>Node6&#45;&gt;Node4</title>
<path fill="none" stroke="midnightblue" d="M130,-112.08C130,-105.01 130,-94.86 130,-85.99"/>
<polygon fill="midnightblue" stroke="midnightblue" points="133.5,-85.75 130,-75.75 126.5,-85.75 133.5,-85.75"/>
</g>
<!-- Node8 -->
<g id="node8" class="node">
<title>Node8</title>
<g id="a_node8"><a xlink:href="fitdatamessage__p_8h.html" target="_top" xlink:title=" ">
<polygon fill="none" stroke="black" points="5.5,-224.5 5.5,-243.5 118.5,-243.5 118.5,-224.5 5.5,-224.5"/>
<text text-anchor="middle" x="62" y="-231.5" font-family="Helvetica,sans-Serif" font-size="10.00">fitdatamessage_p.h</text>
</a>
</g>
</g>
<!-- Node7&#45;&gt;Node8 -->
<g id="edge8" class="edge">
<title>Node7&#45;&gt;Node8</title>
<path fill="none" stroke="midnightblue" d="M78.7,-280.08C76.02,-272.85 72.15,-262.41 68.81,-253.4"/>
<polygon fill="midnightblue" stroke="midnightblue" points="72,-251.91 65.24,-243.75 65.43,-254.34 72,-251.91"/>
</g>
<!-- Node8&#45;&gt;Node4 -->
<g id="edge9" class="edge">
<title>Node8&#45;&gt;Node4</title>
<path fill="none" stroke="midnightblue" d="M52.44,-224.45C43.91,-216.12 32.01,-202.6 27,-188 20.44,-168.88 28.37,-120.99 35,-112 46.6,-96.26 65.14,-85.81 82.77,-78.98"/>
<polygon fill="midnightblue" stroke="midnightblue" points="84.17,-82.2 92.42,-75.55 81.82,-75.6 84.17,-82.2"/>
</g>
<!-- Node8&#45;&gt;Node6 -->
<g id="edge10" class="edge">
<title>Node8&#45;&gt;Node6</title>
<path fill="none" stroke="midnightblue" d="M74.04,-224.28C84.63,-216.03 99.76,-202.74 109,-188 117.95,-173.71 123.44,-155.24 126.55,-141.65"/>
<polygon fill="midnightblue" stroke="midnightblue" points="130.03,-142.07 128.62,-131.57 123.18,-140.66 130.03,-142.07"/>
</g>
<!-- Node9 -->
<g id="node9" class="node">
<title>Node9</title>
<g id="a_node9"><a xlink:href="types__p_8h.html" target="_top" xlink:title=" ">
<polygon fill="none" stroke="black" points="36,-168.5 36,-187.5 100,-187.5 100,-168.5 36,-168.5"/>
<text text-anchor="middle" x="68" y="-175.5" font-family="Helvetica,sans-Serif" font-size="10.00">types_p.h</text>
</a>
</g>
</g>
<!-- Node8&#45;&gt;Node9 -->
<g id="edge11" class="edge">
<title>Node8&#45;&gt;Node9</title>
<path fill="none" stroke="midnightblue" d="M62.99,-224.08C63.79,-216.93 64.93,-206.64 65.92,-197.69"/>
<polygon fill="midnightblue" stroke="midnightblue" points="69.4,-198.08 67.03,-187.75 62.44,-197.3 69.4,-198.08"/>
</g>
<!-- Node9&#45;&gt;Node6 -->
<g id="edge12" class="edge">
<title>Node9&#45;&gt;Node6</title>
<path fill="none" stroke="midnightblue" d="M77.96,-168.32C87.13,-160.34 100.94,-148.31 112.03,-138.65"/>
<polygon fill="midnightblue" stroke="midnightblue" points="114.62,-141.04 119.86,-131.83 110.02,-135.76 114.62,-141.04"/>
</g>
<!-- Node10 -->
<g id="node10" class="node">
<title>Node10</title>
<g id="a_node10"><a xlink:title=" ">
<polygon fill="none" stroke="#bfbfbf" points="44.5,-112.5 44.5,-131.5 85.5,-131.5 85.5,-112.5 44.5,-112.5"/>
<text text-anchor="middle" x="65" y="-119.5" font-family="Helvetica,sans-Serif" font-size="10.00">QList</text>
</a>
</g>
</g>
<!-- Node9&#45;&gt;Node10 -->
<g id="edge13" class="edge">
<title>Node9&#45;&gt;Node10</title>
<path fill="none" stroke="midnightblue" d="M67.5,-168.08C67.11,-161.01 66.55,-150.86 66.05,-141.99"/>
<polygon fill="midnightblue" stroke="midnightblue" points="69.54,-141.54 65.49,-131.75 62.55,-141.93 69.54,-141.54"/>
</g>
</g>
</svg>
