<?xml version="1.0" encoding="UTF-8" standalone="no"?>
<!DOCTYPE svg PUBLIC "-//W3C//DTD SVG 1.1//EN"
 "http://www.w3.org/Graphics/SVG/1.1/DTD/svg11.dtd">
<!-- Generated by graphviz version 2.43.0 (0)
 -->
<!-- Title: mesgcapabilitiesmessage.cpp Pages: 1 -->
<svg width="344pt" height="364pt"
 viewBox="0.00 0.00 343.50 364.00" xmlns="http://www.w3.org/2000/svg" xmlns:xlink="http://www.w3.org/1999/xlink">
<g id="graph0" class="graph" transform="scale(1 1) rotate(0) translate(4 360)">
<title>mesgcapabilitiesmessage.cpp</title>
<!-- Node1 -->
<g id="node1" class="node">
<title>Node1</title>
<g id="a_node1"><a xlink:title=" ">
<polygon fill="#bfbfbf" stroke="black" points="88,-336.5 88,-355.5 252,-355.5 252,-336.5 88,-336.5"/>
<text text-anchor="middle" x="170" y="-343.5" font-family="Helvetica,sans-Serif" font-size="10.00">mesgcapabilitiesmessage.cpp</text>
</a>
</g>
</g>
<!-- Node2 -->
<g id="node2" class="node">
<title>Node2</title>
<g id="a_node2"><a xlink:href="mesgcapabilitiesmessage_8h.html" target="_top" xlink:title=" ">
<polygon fill="none" stroke="black" points="182.5,-280.5 182.5,-299.5 335.5,-299.5 335.5,-280.5 182.5,-280.5"/>
<text text-anchor="middle" x="259" y="-287.5" font-family="Helvetica,sans-Serif" font-size="10.00">mesgcapabilitiesmessage.h</text>
</a>
</g>
</g>
<!-- Node1&#45;&gt;Node2 -->
<g id="edge1" class="edge">
<title>Node1&#45;&gt;Node2</title>
<path fill="none" stroke="midnightblue" d="M184.3,-336.32C198.18,-327.9 219.49,-314.97 235.8,-305.07"/>
<polygon fill="midnightblue" stroke="midnightblue" points="238,-307.83 244.74,-299.65 234.37,-301.85 238,-307.83"/>
</g>
<!-- Node7 -->
<g id="node7" class="node">
<title>Node7</title>
<g id="a_node7"><a xlink:href="mesgcapabilitiesmessage__p_8h.html" target="_top" xlink:title=" ">
<polygon fill="none" stroke="black" points="0,-280.5 0,-299.5 164,-299.5 164,-280.5 0,-280.5"/>
<text text-anchor="middle" x="82" y="-287.5" font-family="Helvetica,sans-Serif" font-size="10.00">mesgcapabilitiesmessage_p.h</text>
</a>
</g>
</g>
<!-- Node1&#45;&gt;Node7 -->
<g id="edge7" class="edge">
<title>Node1&#45;&gt;Node7</title>
<path fill="none" stroke="midnightblue" d="M155.86,-336.32C142.13,-327.9 121.06,-314.97 104.94,-305.07"/>
<polygon fill="midnightblue" stroke="midnightblue" points="106.46,-301.9 96.1,-299.65 102.8,-307.87 106.46,-301.9"/>
</g>
<!-- Node3 -->
<g id="node3" class="node">
<title>Node3</title>
<g id="a_node3"><a xlink:href="fitdatamessage_8h.html" target="_top" xlink:title=" ">
<polygon fill="none" stroke="black" points="198.5,-168.5 198.5,-187.5 299.5,-187.5 299.5,-168.5 198.5,-168.5"/>
<text text-anchor="middle" x="249" y="-175.5" font-family="Helvetica,sans-Serif" font-size="10.00">fitdatamessage.h</text>
</a>
</g>
</g>
<!-- Node2&#45;&gt;Node3 -->
<g id="edge2" class="edge">
<title>Node2&#45;&gt;Node3</title>
<path fill="none" stroke="midnightblue" d="M258.22,-280.37C256.6,-262.62 252.88,-221.67 250.69,-197.6"/>
<polygon fill="midnightblue" stroke="midnightblue" points="254.17,-197.23 249.78,-187.59 247.2,-197.87 254.17,-197.23"/>
</g>
<!-- Node4 -->
<g id="node4" class="node">
<title>Node4</title>
<g id="a_node4"><a xlink:href="QtFit__global_8h.html" target="_top" xlink:title=" ">
<polygon fill="none" stroke="black" points="130,-56.5 130,-75.5 214,-75.5 214,-56.5 130,-56.5"/>
<text text-anchor="middle" x="172" y="-63.5" font-family="Helvetica,sans-Serif" font-size="10.00">QtFit_global.h</text>
</a>
</g>
</g>
<!-- Node3&#45;&gt;Node4 -->
<g id="edge3" class="edge">
<title>Node3&#45;&gt;Node4</title>
<path fill="none" stroke="midnightblue" d="M243.99,-168.39C236.54,-155.75 221.93,-131.56 208,-112 201.11,-102.32 192.86,-91.94 186.01,-83.59"/>
<polygon fill="midnightblue" stroke="midnightblue" points="188.56,-81.19 179.47,-75.74 183.18,-85.66 188.56,-81.19"/>
</g>
<!-- Node6 -->
<g id="node6" class="node">
<title>Node6</title>
<g id="a_node6"><a xlink:href="types_8h.html" target="_top" xlink:title="Types defined by the ANT+ FIT SDK.">
<polygon fill="none" stroke="black" points="145.5,-112.5 145.5,-131.5 198.5,-131.5 198.5,-112.5 145.5,-112.5"/>
<text text-anchor="middle" x="172" y="-119.5" font-family="Helvetica,sans-Serif" font-size="10.00">types.h</text>
</a>
</g>
</g>
<!-- Node3&#45;&gt;Node6 -->
<g id="edge5" class="edge">
<title>Node3&#45;&gt;Node6</title>
<path fill="none" stroke="midnightblue" d="M236.63,-168.32C224.84,-160.06 206.87,-147.45 192.86,-137.63"/>
<polygon fill="midnightblue" stroke="midnightblue" points="194.54,-134.53 184.34,-131.65 190.52,-140.26 194.54,-134.53"/>
</g>
<!-- Node5 -->
<g id="node5" class="node">
<title>Node5</title>
<g id="a_node5"><a xlink:title=" ">
<polygon fill="none" stroke="#bfbfbf" points="142.5,-0.5 142.5,-19.5 201.5,-19.5 201.5,-0.5 142.5,-0.5"/>
<text text-anchor="middle" x="172" y="-7.5" font-family="Helvetica,sans-Serif" font-size="10.00">QtGlobal</text>
</a>
</g>
</g>
<!-- Node4&#45;&gt;Node5 -->
<g id="edge4" class="edge">
<title>Node4&#45;&gt;Node5</title>
<path fill="none" stroke="midnightblue" d="M172,-56.08C172,-49.01 172,-38.86 172,-29.99"/>
<polygon fill="midnightblue" stroke="midnightblue" points="175.5,-29.75 172,-19.75 168.5,-29.75 175.5,-29.75"/>
</g>
<!-- Node6&#45;&gt;Node4 -->
<g id="edge6" class="edge">
<title>Node6&#45;&gt;Node4</title>
<path fill="none" stroke="midnightblue" d="M172,-112.08C172,-105.01 172,-94.86 172,-85.99"/>
<polygon fill="midnightblue" stroke="midnightblue" points="175.5,-85.75 172,-75.75 168.5,-85.75 175.5,-85.75"/>
</g>
<!-- Node8 -->
<g id="node8" class="node">
<title>Node8</title>
<g id="a_node8"><a xlink:href="fitdatamessage__p_8h.html" target="_top" xlink:title=" ">
<polygon fill="none" stroke="black" points="44.5,-224.5 44.5,-243.5 157.5,-243.5 157.5,-224.5 44.5,-224.5"/>
<text text-anchor="middle" x="101" y="-231.5" font-family="Helvetica,sans-Serif" font-size="10.00">fitdatamessage_p.h</text>
</a>
</g>
</g>
<!-- Node7&#45;&gt;Node8 -->
<g id="edge8" class="edge">
<title>Node7&#45;&gt;Node8</title>
<path fill="none" stroke="midnightblue" d="M85.14,-280.08C87.68,-272.85 91.36,-262.41 94.53,-253.4"/>
<polygon fill="midnightblue" stroke="midnightblue" points="97.9,-254.35 97.92,-243.75 91.3,-252.02 97.9,-254.35"/>
</g>
<!-- Node8&#45;&gt;Node4 -->
<g id="edge9" class="edge">
<title>Node8&#45;&gt;Node4</title>
<path fill="none" stroke="midnightblue" d="M92.25,-224.29C84.44,-215.84 73.55,-202.25 69,-188 62.76,-168.45 71.27,-119.78 77,-112 88.6,-96.26 107.14,-85.81 124.77,-78.98"/>
<polygon fill="midnightblue" stroke="midnightblue" points="126.17,-82.2 134.42,-75.55 123.82,-75.6 126.17,-82.2"/>
</g>
<!-- Node8&#45;&gt;Node6 -->
<g id="edge10" class="edge">
<title>Node8&#45;&gt;Node6</title>
<path fill="none" stroke="midnightblue" d="M113.83,-224.45C125.11,-216.31 141.22,-203.09 151,-188 160.17,-173.85 165.64,-155.37 168.68,-141.73"/>
<polygon fill="midnightblue" stroke="midnightblue" points="172.17,-142.11 170.69,-131.61 165.31,-140.74 172.17,-142.11"/>
</g>
<!-- Node9 -->
<g id="node9" class="node">
<title>Node9</title>
<g id="a_node9"><a xlink:href="types__p_8h.html" target="_top" xlink:title=" ">
<polygon fill="none" stroke="black" points="78,-168.5 78,-187.5 142,-187.5 142,-168.5 78,-168.5"/>
<text text-anchor="middle" x="110" y="-175.5" font-family="Helvetica,sans-Serif" font-size="10.00">types_p.h</text>
</a>
</g>
</g>
<!-- Node8&#45;&gt;Node9 -->
<g id="edge11" class="edge">
<title>Node8&#45;&gt;Node9</title>
<path fill="none" stroke="midnightblue" d="M102.49,-224.08C103.68,-216.93 105.39,-206.64 106.88,-197.69"/>
<polygon fill="midnightblue" stroke="midnightblue" points="110.35,-198.19 108.54,-187.75 103.45,-197.04 110.35,-198.19"/>
</g>
<!-- Node9&#45;&gt;Node6 -->
<g id="edge12" class="edge">
<title>Node9&#45;&gt;Node6</title>
<path fill="none" stroke="midnightblue" d="M119.96,-168.32C129.13,-160.34 142.94,-148.31 154.03,-138.65"/>
<polygon fill="midnightblue" stroke="midnightblue" points="156.62,-141.04 161.86,-131.83 152.02,-135.76 156.62,-141.04"/>
</g>
<!-- Node10 -->
<g id="node10" class="node">
<title>Node10</title>
<g id="a_node10"><a xlink:title=" ">
<polygon fill="none" stroke="#bfbfbf" points="86.5,-112.5 86.5,-131.5 127.5,-131.5 127.5,-112.5 86.5,-112.5"/>
<text text-anchor="middle" x="107" y="-119.5" font-family="Helvetica,sans-Serif" font-size="10.00">QList</text>
</a>
</g>
</g>
<!-- Node9&#45;&gt;Node10 -->
<g id="edge13" class="edge">
<title>Node9&#45;&gt;Node10</title>
<path fill="none" stroke="midnightblue" d="M109.5,-168.08C109.11,-161.01 108.55,-150.86 108.05,-141.99"/>
<polygon fill="midnightblue" stroke="midnightblue" points="111.54,-141.54 107.49,-131.75 104.55,-141.93 111.54,-141.54"/>
</g>
</g>
</svg>
