<?xml version="1.0" encoding="UTF-8" standalone="no"?>
<!DOCTYPE svg PUBLIC "-//W3C//DTD SVG 1.1//EN"
 "http://www.w3.org/Graphics/SVG/1.1/DTD/svg11.dtd">
<!-- Generated by graphviz version 2.43.0 (0)
 -->
<!-- Title: mesgcapabilitiesmessage_p.h Pages: 1 -->
<svg width="185pt" height="308pt"
 viewBox="0.00 0.00 184.50 308.00" xmlns="http://www.w3.org/2000/svg" xmlns:xlink="http://www.w3.org/1999/xlink">
<g id="graph0" class="graph" transform="scale(1 1) rotate(0) translate(4 304)">
<title>mesgcapabilitiesmessage_p.h</title>
<!-- Node1 -->
<g id="node1" class="node">
<title>Node1</title>
<g id="a_node1"><a xlink:title=" ">
<polygon fill="#bfbfbf" stroke="black" points="0,-280.5 0,-299.5 164,-299.5 164,-280.5 0,-280.5"/>
<text text-anchor="middle" x="82" y="-287.5" font-family="Helvetica,sans-Serif" font-size="10.00">mesgcapabilitiesmessage_p.h</text>
</a>
</g>
</g>
<!-- Node2 -->
<g id="node2" class="node">
<title>Node2</title>
<g id="a_node2"><a xlink:href="fitdatamessage__p_8h.html" target="_top" xlink:title=" ">
<polygon fill="none" stroke="black" points="25.5,-224.5 25.5,-243.5 138.5,-243.5 138.5,-224.5 25.5,-224.5"/>
<text text-anchor="middle" x="82" y="-231.5" font-family="Helvetica,sans-Serif" font-size="10.00">fitdatamessage_p.h</text>
</a>
</g>
</g>
<!-- Node1&#45;&gt;Node2 -->
<g id="edge1" class="edge">
<title>Node1&#45;&gt;Node2</title>
<path fill="none" stroke="midnightblue" d="M82,-280.08C82,-273.01 82,-262.86 82,-253.99"/>
<polygon fill="midnightblue" stroke="midnightblue" points="85.5,-253.75 82,-243.75 78.5,-253.75 85.5,-253.75"/>
</g>
<!-- Node3 -->
<g id="node3" class="node">
<title>Node3</title>
<g id="a_node3"><a xlink:href="QtFit__global_8h.html" target="_top" xlink:title=" ">
<polygon fill="none" stroke="black" points="21,-56.5 21,-75.5 105,-75.5 105,-56.5 21,-56.5"/>
<text text-anchor="middle" x="63" y="-63.5" font-family="Helvetica,sans-Serif" font-size="10.00">QtFit_global.h</text>
</a>
</g>
</g>
<!-- Node2&#45;&gt;Node3 -->
<g id="edge2" class="edge">
<title>Node2&#45;&gt;Node3</title>
<path fill="none" stroke="midnightblue" d="M78.15,-224.32C69.82,-204.61 51.22,-154.88 55,-112 55.78,-103.2 57.39,-93.54 58.97,-85.43"/>
<polygon fill="midnightblue" stroke="midnightblue" points="62.41,-86.07 61.01,-75.57 55.56,-84.65 62.41,-86.07"/>
</g>
<!-- Node5 -->
<g id="node5" class="node">
<title>Node5</title>
<g id="a_node5"><a xlink:href="types_8h.html" target="_top" xlink:title="Types defined by the ANT+ FIT SDK.">
<polygon fill="none" stroke="black" points="64.5,-112.5 64.5,-131.5 117.5,-131.5 117.5,-112.5 64.5,-112.5"/>
<text text-anchor="middle" x="91" y="-119.5" font-family="Helvetica,sans-Serif" font-size="10.00">types.h</text>
</a>
</g>
</g>
<!-- Node2&#45;&gt;Node5 -->
<g id="edge4" class="edge">
<title>Node2&#45;&gt;Node5</title>
<path fill="none" stroke="midnightblue" d="M82.71,-224.37C84.16,-206.62 87.51,-165.67 89.48,-141.6"/>
<polygon fill="midnightblue" stroke="midnightblue" points="92.97,-141.84 90.3,-131.59 85.99,-141.27 92.97,-141.84"/>
</g>
<!-- Node6 -->
<g id="node6" class="node">
<title>Node6</title>
<g id="a_node6"><a xlink:href="types__p_8h.html" target="_top" xlink:title=" ">
<polygon fill="none" stroke="black" points="110,-168.5 110,-187.5 174,-187.5 174,-168.5 110,-168.5"/>
<text text-anchor="middle" x="142" y="-175.5" font-family="Helvetica,sans-Serif" font-size="10.00">types_p.h</text>
</a>
</g>
</g>
<!-- Node2&#45;&gt;Node6 -->
<g id="edge6" class="edge">
<title>Node2&#45;&gt;Node6</title>
<path fill="none" stroke="midnightblue" d="M91.64,-224.32C100.51,-216.34 113.87,-204.31 124.61,-194.65"/>
<polygon fill="midnightblue" stroke="midnightblue" points="127.09,-197.13 132.18,-187.83 122.41,-191.92 127.09,-197.13"/>
</g>
<!-- Node4 -->
<g id="node4" class="node">
<title>Node4</title>
<g id="a_node4"><a xlink:title=" ">
<polygon fill="none" stroke="#bfbfbf" points="33.5,-0.5 33.5,-19.5 92.5,-19.5 92.5,-0.5 33.5,-0.5"/>
<text text-anchor="middle" x="63" y="-7.5" font-family="Helvetica,sans-Serif" font-size="10.00">QtGlobal</text>
</a>
</g>
</g>
<!-- Node3&#45;&gt;Node4 -->
<g id="edge3" class="edge">
<title>Node3&#45;&gt;Node4</title>
<path fill="none" stroke="midnightblue" d="M63,-56.08C63,-49.01 63,-38.86 63,-29.99"/>
<polygon fill="midnightblue" stroke="midnightblue" points="66.5,-29.75 63,-19.75 59.5,-29.75 66.5,-29.75"/>
</g>
<!-- Node5&#45;&gt;Node3 -->
<g id="edge5" class="edge">
<title>Node5&#45;&gt;Node3</title>
<path fill="none" stroke="midnightblue" d="M86.38,-112.08C82.54,-104.69 76.98,-93.95 72.24,-84.81"/>
<polygon fill="midnightblue" stroke="midnightblue" points="75.25,-83.02 67.54,-75.75 69.03,-86.24 75.25,-83.02"/>
</g>
<!-- Node6&#45;&gt;Node5 -->
<g id="edge7" class="edge">
<title>Node6&#45;&gt;Node5</title>
<path fill="none" stroke="midnightblue" d="M133.58,-168.08C126.15,-160.22 115.15,-148.57 106.19,-139.08"/>
<polygon fill="midnightblue" stroke="midnightblue" points="108.68,-136.62 99.26,-131.75 103.59,-141.42 108.68,-136.62"/>
</g>
<!-- Node7 -->
<g id="node7" class="node">
<title>Node7</title>
<g id="a_node7"><a xlink:title=" ">
<polygon fill="none" stroke="#bfbfbf" points="135.5,-112.5 135.5,-131.5 176.5,-131.5 176.5,-112.5 135.5,-112.5"/>
<text text-anchor="middle" x="156" y="-119.5" font-family="Helvetica,sans-Serif" font-size="10.00">QList</text>
</a>
</g>
</g>
<!-- Node6&#45;&gt;Node7 -->
<g id="edge8" class="edge">
<title>Node6&#45;&gt;Node7</title>
<path fill="none" stroke="midnightblue" d="M144.31,-168.08C146.17,-160.93 148.84,-150.64 151.15,-141.69"/>
<polygon fill="midnightblue" stroke="midnightblue" points="154.61,-142.31 153.73,-131.75 147.83,-140.55 154.61,-142.31"/>
</g>
</g>
</svg>
