<?xml version="1.0" encoding="UTF-8" standalone="no"?>
<!DOCTYPE svg PUBLIC "-//W3C//DTD SVG 1.1//EN"
 "http://www.w3.org/Graphics/SVG/1.1/DTD/svg11.dtd">
<!-- Generated by graphviz version 2.43.0 (0)
 -->
<!-- Title: metzonemessage.cpp Pages: 1 -->
<svg width="264pt" height="364pt"
 viewBox="0.00 0.00 263.50 364.00" xmlns="http://www.w3.org/2000/svg" xmlns:xlink="http://www.w3.org/1999/xlink">
<g id="graph0" class="graph" transform="scale(1 1) rotate(0) translate(4 360)">
<title>metzonemessage.cpp</title>
<!-- Node1 -->
<g id="node1" class="node">
<title>Node1</title>
<g id="a_node1"><a xlink:title=" ">
<polygon fill="#bfbfbf" stroke="black" points="68,-336.5 68,-355.5 192,-355.5 192,-336.5 68,-336.5"/>
<text text-anchor="middle" x="130" y="-343.5" font-family="Helvetica,sans-Serif" font-size="10.00">metzonemessage.cpp</text>
</a>
</g>
</g>
<!-- Node2 -->
<g id="node2" class="node">
<title>Node2</title>
<g id="a_node2"><a xlink:href="metzonemessage_8h.html" target="_top" xlink:title=" ">
<polygon fill="none" stroke="black" points="142.5,-280.5 142.5,-299.5 255.5,-299.5 255.5,-280.5 142.5,-280.5"/>
<text text-anchor="middle" x="199" y="-287.5" font-family="Helvetica,sans-Serif" font-size="10.00">metzonemessage.h</text>
</a>
</g>
</g>
<!-- Node1&#45;&gt;Node2 -->
<g id="edge1" class="edge">
<title>Node1&#45;&gt;Node2</title>
<path fill="none" stroke="midnightblue" d="M141.09,-336.32C151.49,-328.18 167.26,-315.84 179.72,-306.09"/>
<polygon fill="midnightblue" stroke="midnightblue" points="181.99,-308.75 187.71,-299.83 177.68,-303.24 181.99,-308.75"/>
</g>
<!-- Node7 -->
<g id="node7" class="node">
<title>Node7</title>
<g id="a_node7"><a xlink:href="metzonemessage__p_8h.html" target="_top" xlink:title=" ">
<polygon fill="none" stroke="black" points="0,-280.5 0,-299.5 124,-299.5 124,-280.5 0,-280.5"/>
<text text-anchor="middle" x="62" y="-287.5" font-family="Helvetica,sans-Serif" font-size="10.00">metzonemessage_p.h</text>
</a>
</g>
</g>
<!-- Node1&#45;&gt;Node7 -->
<g id="edge7" class="edge">
<title>Node1&#45;&gt;Node7</title>
<path fill="none" stroke="midnightblue" d="M119.07,-336.32C108.83,-328.18 93.28,-315.84 81,-306.09"/>
<polygon fill="midnightblue" stroke="midnightblue" points="83.13,-303.31 73.12,-299.83 78.78,-308.79 83.13,-303.31"/>
</g>
<!-- Node3 -->
<g id="node3" class="node">
<title>Node3</title>
<g id="a_node3"><a xlink:href="fitdatamessage_8h.html" target="_top" xlink:title=" ">
<polygon fill="none" stroke="black" points="149.5,-168.5 149.5,-187.5 250.5,-187.5 250.5,-168.5 149.5,-168.5"/>
<text text-anchor="middle" x="200" y="-175.5" font-family="Helvetica,sans-Serif" font-size="10.00">fitdatamessage.h</text>
</a>
</g>
</g>
<!-- Node2&#45;&gt;Node3 -->
<g id="edge2" class="edge">
<title>Node2&#45;&gt;Node3</title>
<path fill="none" stroke="midnightblue" d="M199.08,-280.37C199.24,-262.62 199.61,-221.67 199.83,-197.6"/>
<polygon fill="midnightblue" stroke="midnightblue" points="203.33,-197.62 199.92,-187.59 196.33,-197.56 203.33,-197.62"/>
</g>
<!-- Node4 -->
<g id="node4" class="node">
<title>Node4</title>
<g id="a_node4"><a xlink:href="QtFit__global_8h.html" target="_top" xlink:title=" ">
<polygon fill="none" stroke="black" points="81,-56.5 81,-75.5 165,-75.5 165,-56.5 81,-56.5"/>
<text text-anchor="middle" x="123" y="-63.5" font-family="Helvetica,sans-Serif" font-size="10.00">QtFit_global.h</text>
</a>
</g>
</g>
<!-- Node3&#45;&gt;Node4 -->
<g id="edge3" class="edge">
<title>Node3&#45;&gt;Node4</title>
<path fill="none" stroke="midnightblue" d="M194.99,-168.39C187.54,-155.75 172.93,-131.56 159,-112 152.11,-102.32 143.86,-91.94 137.01,-83.59"/>
<polygon fill="midnightblue" stroke="midnightblue" points="139.56,-81.19 130.47,-75.74 134.18,-85.66 139.56,-81.19"/>
</g>
<!-- Node6 -->
<g id="node6" class="node">
<title>Node6</title>
<g id="a_node6"><a xlink:href="types_8h.html" target="_top" xlink:title="Types defined by the ANT+ FIT SDK.">
<polygon fill="none" stroke="black" points="96.5,-112.5 96.5,-131.5 149.5,-131.5 149.5,-112.5 96.5,-112.5"/>
<text text-anchor="middle" x="123" y="-119.5" font-family="Helvetica,sans-Serif" font-size="10.00">types.h</text>
</a>
</g>
</g>
<!-- Node3&#45;&gt;Node6 -->
<g id="edge5" class="edge">
<title>Node3&#45;&gt;Node6</title>
<path fill="none" stroke="midnightblue" d="M187.63,-168.32C175.84,-160.06 157.87,-147.45 143.86,-137.63"/>
<polygon fill="midnightblue" stroke="midnightblue" points="145.54,-134.53 135.34,-131.65 141.52,-140.26 145.54,-134.53"/>
</g>
<!-- Node5 -->
<g id="node5" class="node">
<title>Node5</title>
<g id="a_node5"><a xlink:title=" ">
<polygon fill="none" stroke="#bfbfbf" points="93.5,-0.5 93.5,-19.5 152.5,-19.5 152.5,-0.5 93.5,-0.5"/>
<text text-anchor="middle" x="123" y="-7.5" font-family="Helvetica,sans-Serif" font-size="10.00">QtGlobal</text>
</a>
</g>
</g>
<!-- Node4&#45;&gt;Node5 -->
<g id="edge4" class="edge">
<title>Node4&#45;&gt;Node5</title>
<path fill="none" stroke="midnightblue" d="M123,-56.08C123,-49.01 123,-38.86 123,-29.99"/>
<polygon fill="midnightblue" stroke="midnightblue" points="126.5,-29.75 123,-19.75 119.5,-29.75 126.5,-29.75"/>
</g>
<!-- Node6&#45;&gt;Node4 -->
<g id="edge6" class="edge">
<title>Node6&#45;&gt;Node4</title>
<path fill="none" stroke="midnightblue" d="M123,-112.08C123,-105.01 123,-94.86 123,-85.99"/>
<polygon fill="midnightblue" stroke="midnightblue" points="126.5,-85.75 123,-75.75 119.5,-85.75 126.5,-85.75"/>
</g>
<!-- Node8 -->
<g id="node8" class="node">
<title>Node8</title>
<g id="a_node8"><a xlink:href="fitdatamessage__p_8h.html" target="_top" xlink:title=" ">
<polygon fill="none" stroke="black" points="4.5,-224.5 4.5,-243.5 117.5,-243.5 117.5,-224.5 4.5,-224.5"/>
<text text-anchor="middle" x="61" y="-231.5" font-family="Helvetica,sans-Serif" font-size="10.00">fitdatamessage_p.h</text>
</a>
</g>
</g>
<!-- Node7&#45;&gt;Node8 -->
<g id="edge8" class="edge">
<title>Node7&#45;&gt;Node8</title>
<path fill="none" stroke="midnightblue" d="M61.83,-280.08C61.7,-273.01 61.52,-262.86 61.35,-253.99"/>
<polygon fill="midnightblue" stroke="midnightblue" points="64.85,-253.68 61.16,-243.75 57.85,-253.81 64.85,-253.68"/>
</g>
<!-- Node8&#45;&gt;Node4 -->
<g id="edge9" class="edge">
<title>Node8&#45;&gt;Node4</title>
<path fill="none" stroke="midnightblue" d="M49.46,-224.49C39.52,-216.38 25.88,-203.18 20,-188 12.89,-169.63 19.81,-123.12 28,-112 39.6,-96.26 58.14,-85.81 75.77,-78.98"/>
<polygon fill="midnightblue" stroke="midnightblue" points="77.17,-82.2 85.42,-75.55 74.82,-75.6 77.17,-82.2"/>
</g>
<!-- Node8&#45;&gt;Node6 -->
<g id="edge10" class="edge">
<title>Node8&#45;&gt;Node6</title>
<path fill="none" stroke="midnightblue" d="M71.09,-224.29C80.31,-215.85 93.73,-202.26 102,-188 110.37,-173.58 115.88,-155.38 119.15,-141.92"/>
<polygon fill="midnightblue" stroke="midnightblue" points="122.62,-142.42 121.38,-131.9 115.79,-140.9 122.62,-142.42"/>
</g>
<!-- Node9 -->
<g id="node9" class="node">
<title>Node9</title>
<g id="a_node9"><a xlink:href="types__p_8h.html" target="_top" xlink:title=" ">
<polygon fill="none" stroke="black" points="29,-168.5 29,-187.5 93,-187.5 93,-168.5 29,-168.5"/>
<text text-anchor="middle" x="61" y="-175.5" font-family="Helvetica,sans-Serif" font-size="10.00">types_p.h</text>
</a>
</g>
</g>
<!-- Node8&#45;&gt;Node9 -->
<g id="edge11" class="edge">
<title>Node8&#45;&gt;Node9</title>
<path fill="none" stroke="midnightblue" d="M61,-224.08C61,-217.01 61,-206.86 61,-197.99"/>
<polygon fill="midnightblue" stroke="midnightblue" points="64.5,-197.75 61,-187.75 57.5,-197.75 64.5,-197.75"/>
</g>
<!-- Node9&#45;&gt;Node6 -->
<g id="edge12" class="edge">
<title>Node9&#45;&gt;Node6</title>
<path fill="none" stroke="midnightblue" d="M70.96,-168.32C80.13,-160.34 93.94,-148.31 105.03,-138.65"/>
<polygon fill="midnightblue" stroke="midnightblue" points="107.62,-141.04 112.86,-131.83 103.02,-135.76 107.62,-141.04"/>
</g>
<!-- Node10 -->
<g id="node10" class="node">
<title>Node10</title>
<g id="a_node10"><a xlink:title=" ">
<polygon fill="none" stroke="#bfbfbf" points="37.5,-112.5 37.5,-131.5 78.5,-131.5 78.5,-112.5 37.5,-112.5"/>
<text text-anchor="middle" x="58" y="-119.5" font-family="Helvetica,sans-Serif" font-size="10.00">QList</text>
</a>
</g>
</g>
<!-- Node9&#45;&gt;Node10 -->
<g id="edge13" class="edge">
<title>Node9&#45;&gt;Node10</title>
<path fill="none" stroke="midnightblue" d="M60.5,-168.08C60.11,-161.01 59.55,-150.86 59.05,-141.99"/>
<polygon fill="midnightblue" stroke="midnightblue" points="62.54,-141.54 58.49,-131.75 55.55,-141.93 62.54,-141.54"/>
</g>
</g>
</svg>
