<?xml version="1.0" encoding="UTF-8" standalone="no"?>
<!DOCTYPE svg PUBLIC "-//W3C//DTD SVG 1.1//EN"
 "http://www.w3.org/Graphics/SVG/1.1/DTD/svg11.dtd">
<!-- Generated by graphviz version 2.43.0 (0)
 -->
<!-- Title: monitoringinfomessage.h Pages: 1 -->
<svg width="168pt" height="252pt"
 viewBox="0.00 0.00 168.00 252.00" xmlns="http://www.w3.org/2000/svg" xmlns:xlink="http://www.w3.org/1999/xlink">
<g id="graph0" class="graph" transform="scale(1 1) rotate(0) translate(4 248)">
<title>monitoringinfomessage.h</title>
<!-- Node1 -->
<g id="node1" class="node">
<title>Node1</title>
<g id="a_node1"><a xlink:title=" ">
<polygon fill="#bfbfbf" stroke="black" points="0,-224.5 0,-243.5 142,-243.5 142,-224.5 0,-224.5"/>
<text text-anchor="middle" x="71" y="-231.5" font-family="Helvetica,sans-Serif" font-size="10.00">monitoringinfomessage.h</text>
</a>
</g>
</g>
<!-- Node2 -->
<g id="node2" class="node">
<title>Node2</title>
<g id="a_node2"><a xlink:href="fitdatamessage_8h.html" target="_top" xlink:title=" ">
<polygon fill="none" stroke="black" points="20.5,-168.5 20.5,-187.5 121.5,-187.5 121.5,-168.5 20.5,-168.5"/>
<text text-anchor="middle" x="71" y="-175.5" font-family="Helvetica,sans-Serif" font-size="10.00">fitdatamessage.h</text>
</a>
</g>
</g>
<!-- Node1&#45;&gt;Node2 -->
<g id="edge1" class="edge">
<title>Node1&#45;&gt;Node2</title>
<path fill="none" stroke="midnightblue" d="M71,-224.08C71,-217.01 71,-206.86 71,-197.99"/>
<polygon fill="midnightblue" stroke="midnightblue" points="74.5,-197.75 71,-187.75 67.5,-197.75 74.5,-197.75"/>
</g>
<!-- Node3 -->
<g id="node3" class="node">
<title>Node3</title>
<g id="a_node3"><a xlink:href="QtFit__global_8h.html" target="_top" xlink:title=" ">
<polygon fill="none" stroke="black" points="2,-56.5 2,-75.5 86,-75.5 86,-56.5 2,-56.5"/>
<text text-anchor="middle" x="44" y="-63.5" font-family="Helvetica,sans-Serif" font-size="10.00">QtFit_global.h</text>
</a>
</g>
</g>
<!-- Node2&#45;&gt;Node3 -->
<g id="edge2" class="edge">
<title>Node2&#45;&gt;Node3</title>
<path fill="none" stroke="midnightblue" d="M68.88,-168.37C64.52,-150.62 54.47,-109.67 48.56,-85.6"/>
<polygon fill="midnightblue" stroke="midnightblue" points="51.89,-84.47 46.11,-75.59 45.09,-86.14 51.89,-84.47"/>
</g>
<!-- Node5 -->
<g id="node5" class="node">
<title>Node5</title>
<g id="a_node5"><a xlink:href="types_8h.html" target="_top" xlink:title="Types defined by the ANT+ FIT SDK.">
<polygon fill="none" stroke="black" points="72.5,-112.5 72.5,-131.5 125.5,-131.5 125.5,-112.5 72.5,-112.5"/>
<text text-anchor="middle" x="99" y="-119.5" font-family="Helvetica,sans-Serif" font-size="10.00">types.h</text>
</a>
</g>
</g>
<!-- Node2&#45;&gt;Node5 -->
<g id="edge4" class="edge">
<title>Node2&#45;&gt;Node5</title>
<path fill="none" stroke="midnightblue" d="M75.62,-168.08C79.46,-160.69 85.02,-149.95 89.76,-140.81"/>
<polygon fill="midnightblue" stroke="midnightblue" points="92.97,-142.24 94.46,-131.75 86.75,-139.02 92.97,-142.24"/>
</g>
<!-- Node4 -->
<g id="node4" class="node">
<title>Node4</title>
<g id="a_node4"><a xlink:title=" ">
<polygon fill="none" stroke="#bfbfbf" points="14.5,-0.5 14.5,-19.5 73.5,-19.5 73.5,-0.5 14.5,-0.5"/>
<text text-anchor="middle" x="44" y="-7.5" font-family="Helvetica,sans-Serif" font-size="10.00">QtGlobal</text>
</a>
</g>
</g>
<!-- Node3&#45;&gt;Node4 -->
<g id="edge3" class="edge">
<title>Node3&#45;&gt;Node4</title>
<path fill="none" stroke="midnightblue" d="M44,-56.08C44,-49.01 44,-38.86 44,-29.99"/>
<polygon fill="midnightblue" stroke="midnightblue" points="47.5,-29.75 44,-19.75 40.5,-29.75 47.5,-29.75"/>
</g>
<!-- Node5&#45;&gt;Node3 -->
<g id="edge5" class="edge">
<title>Node5&#45;&gt;Node3</title>
<path fill="none" stroke="midnightblue" d="M89.92,-112.08C81.83,-104.14 69.8,-92.34 60.09,-82.8"/>
<polygon fill="midnightblue" stroke="midnightblue" points="62.5,-80.26 52.91,-75.75 57.6,-85.25 62.5,-80.26"/>
</g>
<!-- Node6 -->
<g id="node6" class="node">
<title>Node6</title>
<g id="a_node6"><a xlink:title=" ">
<polygon fill="none" stroke="#bfbfbf" points="104,-56.5 104,-75.5 160,-75.5 160,-56.5 104,-56.5"/>
<text text-anchor="middle" x="132" y="-63.5" font-family="Helvetica,sans-Serif" font-size="10.00">QDebug</text>
</a>
</g>
</g>
<!-- Node5&#45;&gt;Node6 -->
<g id="edge6" class="edge">
<title>Node5&#45;&gt;Node6</title>
<path fill="none" stroke="midnightblue" d="M104.45,-112.08C109.01,-104.61 115.67,-93.72 121.29,-84.52"/>
<polygon fill="midnightblue" stroke="midnightblue" points="124.42,-86.11 126.65,-75.75 118.45,-82.46 124.42,-86.11"/>
</g>
</g>
</svg>
