<?xml version="1.0" encoding="UTF-8" standalone="no"?>
<!DOCTYPE svg PUBLIC "-//W3C//DTD SVG 1.1//EN"
 "http://www.w3.org/Graphics/SVG/1.1/DTD/svg11.dtd">
<!-- Generated by graphviz version 2.43.0 (0)
 -->
<!-- Title: monitoringmessage.cpp Pages: 1 -->
<svg width="402pt" height="364pt"
 viewBox="0.00 0.00 402.00 364.00" xmlns="http://www.w3.org/2000/svg" xmlns:xlink="http://www.w3.org/1999/xlink">
<g id="graph0" class="graph" transform="scale(1 1) rotate(0) translate(4 360)">
<title>monitoringmessage.cpp</title>
<!-- Node1 -->
<g id="node1" class="node">
<title>Node1</title>
<g id="a_node1"><a xlink:title=" ">
<polygon fill="#bfbfbf" stroke="black" points="189.5,-336.5 189.5,-355.5 323.5,-355.5 323.5,-336.5 189.5,-336.5"/>
<text text-anchor="middle" x="256.5" y="-343.5" font-family="Helvetica,sans-Serif" font-size="10.00">monitoringmessage.cpp</text>
</a>
</g>
</g>
<!-- Node2 -->
<g id="node2" class="node">
<title>Node2</title>
<g id="a_node2"><a xlink:href="monitoringmessage_8h.html" target="_top" xlink:title=" ">
<polygon fill="none" stroke="black" points="0,-280.5 0,-299.5 123,-299.5 123,-280.5 0,-280.5"/>
<text text-anchor="middle" x="61.5" y="-287.5" font-family="Helvetica,sans-Serif" font-size="10.00">monitoringmessage.h</text>
</a>
</g>
</g>
<!-- Node1&#45;&gt;Node2 -->
<g id="edge1" class="edge">
<title>Node1&#45;&gt;Node2</title>
<path fill="none" stroke="midnightblue" d="M225.6,-336.44C192.23,-327.2 138.91,-312.44 102.15,-302.26"/>
<polygon fill="midnightblue" stroke="midnightblue" points="102.83,-298.81 92.25,-299.52 100.96,-305.56 102.83,-298.81"/>
</g>
<!-- Node7 -->
<g id="node7" class="node">
<title>Node7</title>
<g id="a_node7"><a xlink:title=" ">
<polygon fill="none" stroke="#bfbfbf" points="235.5,-56.5 235.5,-75.5 291.5,-75.5 291.5,-56.5 235.5,-56.5"/>
<text text-anchor="middle" x="263.5" y="-63.5" font-family="Helvetica,sans-Serif" font-size="10.00">QDebug</text>
</a>
</g>
</g>
<!-- Node1&#45;&gt;Node7 -->
<g id="edge15" class="edge">
<title>Node1&#45;&gt;Node7</title>
<path fill="none" stroke="midnightblue" d="M263.17,-336.44C276.36,-318.62 304.5,-275.84 304.5,-235 304.5,-235 304.5,-235 304.5,-177 304.5,-142.52 286.59,-105.56 274.44,-84.47"/>
<polygon fill="midnightblue" stroke="midnightblue" points="277.34,-82.49 269.2,-75.71 271.34,-86.09 277.34,-82.49"/>
</g>
<!-- Node8 -->
<g id="node8" class="node">
<title>Node8</title>
<g id="a_node8"><a xlink:href="monitoringmessage__p_8h.html" target="_top" xlink:title=" ">
<polygon fill="none" stroke="black" points="142.5,-280.5 142.5,-299.5 276.5,-299.5 276.5,-280.5 142.5,-280.5"/>
<text text-anchor="middle" x="209.5" y="-287.5" font-family="Helvetica,sans-Serif" font-size="10.00">monitoringmessage_p.h</text>
</a>
</g>
</g>
<!-- Node1&#45;&gt;Node8 -->
<g id="edge8" class="edge">
<title>Node1&#45;&gt;Node8</title>
<path fill="none" stroke="midnightblue" d="M248.74,-336.08C241.96,-328.3 231.96,-316.8 223.74,-307.37"/>
<polygon fill="midnightblue" stroke="midnightblue" points="226.32,-305 217.12,-299.75 221.04,-309.59 226.32,-305"/>
</g>
<!-- Node12 -->
<g id="node12" class="node">
<title>Node12</title>
<g id="a_node12"><a xlink:title=" ">
<polygon fill="none" stroke="#bfbfbf" points="333,-280.5 333,-299.5 394,-299.5 394,-280.5 333,-280.5"/>
<text text-anchor="middle" x="363.5" y="-287.5" font-family="Helvetica,sans-Serif" font-size="10.00">QtEndian</text>
</a>
</g>
</g>
<!-- Node1&#45;&gt;Node12 -->
<g id="edge16" class="edge">
<title>Node1&#45;&gt;Node12</title>
<path fill="none" stroke="midnightblue" d="M273.69,-336.32C290.85,-327.66 317.45,-314.24 337.25,-304.25"/>
<polygon fill="midnightblue" stroke="midnightblue" points="339,-307.28 346.35,-299.65 335.85,-301.04 339,-307.28"/>
</g>
<!-- Node3 -->
<g id="node3" class="node">
<title>Node3</title>
<g id="a_node3"><a xlink:href="fitdatamessage_8h.html" target="_top" xlink:title=" ">
<polygon fill="none" stroke="black" points="7,-168.5 7,-187.5 108,-187.5 108,-168.5 7,-168.5"/>
<text text-anchor="middle" x="57.5" y="-175.5" font-family="Helvetica,sans-Serif" font-size="10.00">fitdatamessage.h</text>
</a>
</g>
</g>
<!-- Node2&#45;&gt;Node3 -->
<g id="edge2" class="edge">
<title>Node2&#45;&gt;Node3</title>
<path fill="none" stroke="midnightblue" d="M61.19,-280.37C60.54,-262.62 59.05,-221.67 58.18,-197.6"/>
<polygon fill="midnightblue" stroke="midnightblue" points="61.67,-197.46 57.81,-187.59 54.68,-197.71 61.67,-197.46"/>
</g>
<!-- Node4 -->
<g id="node4" class="node">
<title>Node4</title>
<g id="a_node4"><a xlink:href="QtFit__global_8h.html" target="_top" xlink:title=" ">
<polygon fill="none" stroke="black" points="93.5,-56.5 93.5,-75.5 177.5,-75.5 177.5,-56.5 93.5,-56.5"/>
<text text-anchor="middle" x="135.5" y="-63.5" font-family="Helvetica,sans-Serif" font-size="10.00">QtFit_global.h</text>
</a>
</g>
</g>
<!-- Node3&#45;&gt;Node4 -->
<g id="edge3" class="edge">
<title>Node3&#45;&gt;Node4</title>
<path fill="none" stroke="midnightblue" d="M63.62,-168.37C76.49,-150.22 106.57,-107.8 123.45,-83.99"/>
<polygon fill="midnightblue" stroke="midnightblue" points="126.48,-85.77 129.41,-75.59 120.77,-81.72 126.48,-85.77"/>
</g>
<!-- Node6 -->
<g id="node6" class="node">
<title>Node6</title>
<g id="a_node6"><a xlink:href="types_8h.html" target="_top" xlink:title="Types defined by the ANT+ FIT SDK.">
<polygon fill="none" stroke="black" points="164,-112.5 164,-131.5 217,-131.5 217,-112.5 164,-112.5"/>
<text text-anchor="middle" x="190.5" y="-119.5" font-family="Helvetica,sans-Serif" font-size="10.00">types.h</text>
</a>
</g>
</g>
<!-- Node3&#45;&gt;Node6 -->
<g id="edge5" class="edge">
<title>Node3&#45;&gt;Node6</title>
<path fill="none" stroke="midnightblue" d="M78.57,-168.44C100.56,-159.52 135.23,-145.44 160.16,-135.32"/>
<polygon fill="midnightblue" stroke="midnightblue" points="161.58,-138.52 169.52,-131.52 158.94,-132.04 161.58,-138.52"/>
</g>
<!-- Node5 -->
<g id="node5" class="node">
<title>Node5</title>
<g id="a_node5"><a xlink:title=" ">
<polygon fill="none" stroke="#bfbfbf" points="106,-0.5 106,-19.5 165,-19.5 165,-0.5 106,-0.5"/>
<text text-anchor="middle" x="135.5" y="-7.5" font-family="Helvetica,sans-Serif" font-size="10.00">QtGlobal</text>
</a>
</g>
</g>
<!-- Node4&#45;&gt;Node5 -->
<g id="edge4" class="edge">
<title>Node4&#45;&gt;Node5</title>
<path fill="none" stroke="midnightblue" d="M135.5,-56.08C135.5,-49.01 135.5,-38.86 135.5,-29.99"/>
<polygon fill="midnightblue" stroke="midnightblue" points="139,-29.75 135.5,-19.75 132,-29.75 139,-29.75"/>
</g>
<!-- Node6&#45;&gt;Node4 -->
<g id="edge6" class="edge">
<title>Node6&#45;&gt;Node4</title>
<path fill="none" stroke="midnightblue" d="M181.42,-112.08C173.33,-104.14 161.3,-92.34 151.59,-82.8"/>
<polygon fill="midnightblue" stroke="midnightblue" points="154,-80.26 144.41,-75.75 149.1,-85.25 154,-80.26"/>
</g>
<!-- Node6&#45;&gt;Node7 -->
<g id="edge7" class="edge">
<title>Node6&#45;&gt;Node7</title>
<path fill="none" stroke="midnightblue" d="M202.23,-112.32C213.34,-104.11 230.24,-91.6 243.48,-81.81"/>
<polygon fill="midnightblue" stroke="midnightblue" points="245.6,-84.59 251.56,-75.83 241.44,-78.97 245.6,-84.59"/>
</g>
<!-- Node9 -->
<g id="node9" class="node">
<title>Node9</title>
<g id="a_node9"><a xlink:href="fitdatamessage__p_8h.html" target="_top" xlink:title=" ">
<polygon fill="none" stroke="black" points="140,-224.5 140,-243.5 253,-243.5 253,-224.5 140,-224.5"/>
<text text-anchor="middle" x="196.5" y="-231.5" font-family="Helvetica,sans-Serif" font-size="10.00">fitdatamessage_p.h</text>
</a>
</g>
</g>
<!-- Node8&#45;&gt;Node9 -->
<g id="edge9" class="edge">
<title>Node8&#45;&gt;Node9</title>
<path fill="none" stroke="midnightblue" d="M207.35,-280.08C205.63,-272.93 203.15,-262.64 201,-253.69"/>
<polygon fill="midnightblue" stroke="midnightblue" points="204.35,-252.65 198.61,-243.75 197.54,-254.29 204.35,-252.65"/>
</g>
<!-- Node9&#45;&gt;Node4 -->
<g id="edge10" class="edge">
<title>Node9&#45;&gt;Node4</title>
<path fill="none" stroke="midnightblue" d="M192.58,-224.48C184.74,-207.24 166.82,-166.92 154.5,-132 149,-116.41 143.81,-98.33 140.25,-85.21"/>
<polygon fill="midnightblue" stroke="midnightblue" points="143.62,-84.27 137.67,-75.51 136.86,-86.07 143.62,-84.27"/>
</g>
<!-- Node9&#45;&gt;Node6 -->
<g id="edge11" class="edge">
<title>Node9&#45;&gt;Node6</title>
<path fill="none" stroke="midnightblue" d="M196.03,-224.37C195.06,-206.62 192.83,-165.67 191.51,-141.6"/>
<polygon fill="midnightblue" stroke="midnightblue" points="195.01,-141.39 190.97,-131.59 188.02,-141.77 195.01,-141.39"/>
</g>
<!-- Node10 -->
<g id="node10" class="node">
<title>Node10</title>
<g id="a_node10"><a xlink:href="types__p_8h.html" target="_top" xlink:title=" ">
<polygon fill="none" stroke="black" points="212.5,-168.5 212.5,-187.5 276.5,-187.5 276.5,-168.5 212.5,-168.5"/>
<text text-anchor="middle" x="244.5" y="-175.5" font-family="Helvetica,sans-Serif" font-size="10.00">types_p.h</text>
</a>
</g>
</g>
<!-- Node9&#45;&gt;Node10 -->
<g id="edge12" class="edge">
<title>Node9&#45;&gt;Node10</title>
<path fill="none" stroke="midnightblue" d="M204.43,-224.08C211.35,-216.3 221.57,-204.8 229.95,-195.37"/>
<polygon fill="midnightblue" stroke="midnightblue" points="232.69,-197.55 236.72,-187.75 227.46,-192.9 232.69,-197.55"/>
</g>
<!-- Node10&#45;&gt;Node6 -->
<g id="edge13" class="edge">
<title>Node10&#45;&gt;Node6</title>
<path fill="none" stroke="midnightblue" d="M235.58,-168.08C227.72,-160.22 216.07,-148.57 206.58,-139.08"/>
<polygon fill="midnightblue" stroke="midnightblue" points="208.8,-136.35 199.25,-131.75 203.85,-141.3 208.8,-136.35"/>
</g>
<!-- Node11 -->
<g id="node11" class="node">
<title>Node11</title>
<g id="a_node11"><a xlink:title=" ">
<polygon fill="none" stroke="#bfbfbf" points="235,-112.5 235,-131.5 276,-131.5 276,-112.5 235,-112.5"/>
<text text-anchor="middle" x="255.5" y="-119.5" font-family="Helvetica,sans-Serif" font-size="10.00">QList</text>
</a>
</g>
</g>
<!-- Node10&#45;&gt;Node11 -->
<g id="edge14" class="edge">
<title>Node10&#45;&gt;Node11</title>
<path fill="none" stroke="midnightblue" d="M246.32,-168.08C247.77,-160.93 249.87,-150.64 251.69,-141.69"/>
<polygon fill="midnightblue" stroke="midnightblue" points="255.15,-142.25 253.72,-131.75 248.29,-140.85 255.15,-142.25"/>
</g>
</g>
</svg>
