<?xml version="1.0" encoding="UTF-8" standalone="no"?>
<!DOCTYPE svg PUBLIC "-//W3C//DTD SVG 1.1//EN"
 "http://www.w3.org/Graphics/SVG/1.1/DTD/svg11.dtd">
<!-- Generated by graphviz version 2.43.0 (0)
 -->
<!-- Title: nmeasentencemessage.cpp Pages: 1 -->
<svg width="363pt" height="364pt"
 viewBox="0.00 0.00 363.00 364.00" xmlns="http://www.w3.org/2000/svg" xmlns:xlink="http://www.w3.org/1999/xlink">
<g id="graph0" class="graph" transform="scale(1 1) rotate(0) translate(4 360)">
<title>nmeasentencemessage.cpp</title>
<!-- Node1 -->
<g id="node1" class="node">
<title>Node1</title>
<g id="a_node1"><a xlink:title=" ">
<polygon fill="#bfbfbf" stroke="black" points="143,-336.5 143,-355.5 296,-355.5 296,-336.5 143,-336.5"/>
<text text-anchor="middle" x="219.5" y="-343.5" font-family="Helvetica,sans-Serif" font-size="10.00">nmeasentencemessage.cpp</text>
</a>
</g>
</g>
<!-- Node2 -->
<g id="node2" class="node">
<title>Node2</title>
<g id="a_node2"><a xlink:href="nmeasentencemessage_8h.html" target="_top" xlink:title=" ">
<polygon fill="none" stroke="black" points="131.5,-224.5 131.5,-243.5 273.5,-243.5 273.5,-224.5 131.5,-224.5"/>
<text text-anchor="middle" x="202.5" y="-231.5" font-family="Helvetica,sans-Serif" font-size="10.00">nmeasentencemessage.h</text>
</a>
</g>
</g>
<!-- Node1&#45;&gt;Node2 -->
<g id="edge1" class="edge">
<title>Node1&#45;&gt;Node2</title>
<path fill="none" stroke="midnightblue" d="M217.58,-336.41C215.61,-327.38 212.56,-312.74 210.5,-300 208.01,-284.55 205.88,-266.92 204.45,-253.92"/>
<polygon fill="midnightblue" stroke="midnightblue" points="207.92,-253.43 203.38,-243.86 200.96,-254.18 207.92,-253.43"/>
</g>
<!-- Node7 -->
<g id="node7" class="node">
<title>Node7</title>
<g id="a_node7"><a xlink:href="nmeasentencemessage__p_8h.html" target="_top" xlink:title=" ">
<polygon fill="none" stroke="black" points="0,-280.5 0,-299.5 153,-299.5 153,-280.5 0,-280.5"/>
<text text-anchor="middle" x="76.5" y="-287.5" font-family="Helvetica,sans-Serif" font-size="10.00">nmeasentencemessage_p.h</text>
</a>
</g>
</g>
<!-- Node1&#45;&gt;Node7 -->
<g id="edge7" class="edge">
<title>Node1&#45;&gt;Node7</title>
<path fill="none" stroke="midnightblue" d="M196.84,-336.44C173.1,-327.48 135.59,-313.31 108.76,-303.18"/>
<polygon fill="midnightblue" stroke="midnightblue" points="109.64,-299.77 99.05,-299.52 107.17,-306.32 109.64,-299.77"/>
</g>
<!-- Node11 -->
<g id="node11" class="node">
<title>Node11</title>
<g id="a_node11"><a xlink:title=" ">
<polygon fill="none" stroke="#bfbfbf" points="219.5,-280.5 219.5,-299.5 275.5,-299.5 275.5,-280.5 219.5,-280.5"/>
<text text-anchor="middle" x="247.5" y="-287.5" font-family="Helvetica,sans-Serif" font-size="10.00">QDebug</text>
</a>
</g>
</g>
<!-- Node1&#45;&gt;Node11 -->
<g id="edge14" class="edge">
<title>Node1&#45;&gt;Node11</title>
<path fill="none" stroke="midnightblue" d="M224.12,-336.08C227.96,-328.69 233.52,-317.95 238.26,-308.81"/>
<polygon fill="midnightblue" stroke="midnightblue" points="241.47,-310.24 242.96,-299.75 235.25,-307.02 241.47,-310.24"/>
</g>
<!-- Node12 -->
<g id="node12" class="node">
<title>Node12</title>
<g id="a_node12"><a xlink:title=" ">
<polygon fill="none" stroke="#bfbfbf" points="294,-280.5 294,-299.5 355,-299.5 355,-280.5 294,-280.5"/>
<text text-anchor="middle" x="324.5" y="-287.5" font-family="Helvetica,sans-Serif" font-size="10.00">QtEndian</text>
</a>
</g>
</g>
<!-- Node1&#45;&gt;Node12 -->
<g id="edge15" class="edge">
<title>Node1&#45;&gt;Node12</title>
<path fill="none" stroke="midnightblue" d="M236.37,-336.32C253.21,-327.66 279.31,-314.24 298.74,-304.25"/>
<polygon fill="midnightblue" stroke="midnightblue" points="300.38,-307.34 307.67,-299.65 297.18,-301.12 300.38,-307.34"/>
</g>
<!-- Node3 -->
<g id="node3" class="node">
<title>Node3</title>
<g id="a_node3"><a xlink:href="fitdatamessage_8h.html" target="_top" xlink:title=" ">
<polygon fill="none" stroke="black" points="149,-168.5 149,-187.5 250,-187.5 250,-168.5 149,-168.5"/>
<text text-anchor="middle" x="199.5" y="-175.5" font-family="Helvetica,sans-Serif" font-size="10.00">fitdatamessage.h</text>
</a>
</g>
</g>
<!-- Node2&#45;&gt;Node3 -->
<g id="edge2" class="edge">
<title>Node2&#45;&gt;Node3</title>
<path fill="none" stroke="midnightblue" d="M202,-224.08C201.61,-217.01 201.05,-206.86 200.55,-197.99"/>
<polygon fill="midnightblue" stroke="midnightblue" points="204.04,-197.54 199.99,-187.75 197.05,-197.93 204.04,-197.54"/>
</g>
<!-- Node4 -->
<g id="node4" class="node">
<title>Node4</title>
<g id="a_node4"><a xlink:href="QtFit__global_8h.html" target="_top" xlink:title=" ">
<polygon fill="none" stroke="black" points="80.5,-56.5 80.5,-75.5 164.5,-75.5 164.5,-56.5 80.5,-56.5"/>
<text text-anchor="middle" x="122.5" y="-63.5" font-family="Helvetica,sans-Serif" font-size="10.00">QtFit_global.h</text>
</a>
</g>
</g>
<!-- Node3&#45;&gt;Node4 -->
<g id="edge3" class="edge">
<title>Node3&#45;&gt;Node4</title>
<path fill="none" stroke="midnightblue" d="M194.49,-168.39C187.04,-155.75 172.43,-131.56 158.5,-112 151.61,-102.32 143.36,-91.94 136.51,-83.59"/>
<polygon fill="midnightblue" stroke="midnightblue" points="139.06,-81.19 129.97,-75.74 133.68,-85.66 139.06,-81.19"/>
</g>
<!-- Node6 -->
<g id="node6" class="node">
<title>Node6</title>
<g id="a_node6"><a xlink:href="types_8h.html" target="_top" xlink:title="Types defined by the ANT+ FIT SDK.">
<polygon fill="none" stroke="black" points="96,-112.5 96,-131.5 149,-131.5 149,-112.5 96,-112.5"/>
<text text-anchor="middle" x="122.5" y="-119.5" font-family="Helvetica,sans-Serif" font-size="10.00">types.h</text>
</a>
</g>
</g>
<!-- Node3&#45;&gt;Node6 -->
<g id="edge5" class="edge">
<title>Node3&#45;&gt;Node6</title>
<path fill="none" stroke="midnightblue" d="M187.13,-168.32C175.34,-160.06 157.37,-147.45 143.36,-137.63"/>
<polygon fill="midnightblue" stroke="midnightblue" points="145.04,-134.53 134.84,-131.65 141.02,-140.26 145.04,-134.53"/>
</g>
<!-- Node5 -->
<g id="node5" class="node">
<title>Node5</title>
<g id="a_node5"><a xlink:title=" ">
<polygon fill="none" stroke="#bfbfbf" points="93,-0.5 93,-19.5 152,-19.5 152,-0.5 93,-0.5"/>
<text text-anchor="middle" x="122.5" y="-7.5" font-family="Helvetica,sans-Serif" font-size="10.00">QtGlobal</text>
</a>
</g>
</g>
<!-- Node4&#45;&gt;Node5 -->
<g id="edge4" class="edge">
<title>Node4&#45;&gt;Node5</title>
<path fill="none" stroke="midnightblue" d="M122.5,-56.08C122.5,-49.01 122.5,-38.86 122.5,-29.99"/>
<polygon fill="midnightblue" stroke="midnightblue" points="126,-29.75 122.5,-19.75 119,-29.75 126,-29.75"/>
</g>
<!-- Node6&#45;&gt;Node4 -->
<g id="edge6" class="edge">
<title>Node6&#45;&gt;Node4</title>
<path fill="none" stroke="midnightblue" d="M122.5,-112.08C122.5,-105.01 122.5,-94.86 122.5,-85.99"/>
<polygon fill="midnightblue" stroke="midnightblue" points="126,-85.75 122.5,-75.75 119,-85.75 126,-85.75"/>
</g>
<!-- Node8 -->
<g id="node8" class="node">
<title>Node8</title>
<g id="a_node8"><a xlink:href="fitdatamessage__p_8h.html" target="_top" xlink:title=" ">
<polygon fill="none" stroke="black" points="0,-224.5 0,-243.5 113,-243.5 113,-224.5 0,-224.5"/>
<text text-anchor="middle" x="56.5" y="-231.5" font-family="Helvetica,sans-Serif" font-size="10.00">fitdatamessage_p.h</text>
</a>
</g>
</g>
<!-- Node7&#45;&gt;Node8 -->
<g id="edge8" class="edge">
<title>Node7&#45;&gt;Node8</title>
<path fill="none" stroke="midnightblue" d="M73.2,-280.08C70.52,-272.85 66.65,-262.41 63.31,-253.4"/>
<polygon fill="midnightblue" stroke="midnightblue" points="66.5,-251.91 59.74,-243.75 59.93,-254.34 66.5,-251.91"/>
</g>
<!-- Node8&#45;&gt;Node4 -->
<g id="edge9" class="edge">
<title>Node8&#45;&gt;Node4</title>
<path fill="none" stroke="midnightblue" d="M46.06,-224.24C37.08,-215.97 24.75,-202.66 19.5,-188 12.74,-169.15 20.32,-121.75 27.5,-112 39.1,-96.26 57.64,-85.81 75.27,-78.98"/>
<polygon fill="midnightblue" stroke="midnightblue" points="76.67,-82.2 84.92,-75.55 74.32,-75.6 76.67,-82.2"/>
</g>
<!-- Node8&#45;&gt;Node6 -->
<g id="edge10" class="edge">
<title>Node8&#45;&gt;Node6</title>
<path fill="none" stroke="midnightblue" d="M67.62,-224.5C77.76,-216.2 92.51,-202.7 101.5,-188 110.3,-173.62 115.8,-155.16 118.96,-141.59"/>
<polygon fill="midnightblue" stroke="midnightblue" points="122.44,-142.05 121.07,-131.54 115.59,-140.6 122.44,-142.05"/>
</g>
<!-- Node9 -->
<g id="node9" class="node">
<title>Node9</title>
<g id="a_node9"><a xlink:href="types__p_8h.html" target="_top" xlink:title=" ">
<polygon fill="none" stroke="black" points="28.5,-168.5 28.5,-187.5 92.5,-187.5 92.5,-168.5 28.5,-168.5"/>
<text text-anchor="middle" x="60.5" y="-175.5" font-family="Helvetica,sans-Serif" font-size="10.00">types_p.h</text>
</a>
</g>
</g>
<!-- Node8&#45;&gt;Node9 -->
<g id="edge11" class="edge">
<title>Node8&#45;&gt;Node9</title>
<path fill="none" stroke="midnightblue" d="M57.16,-224.08C57.68,-217.01 58.44,-206.86 59.09,-197.99"/>
<polygon fill="midnightblue" stroke="midnightblue" points="62.6,-197.98 59.85,-187.75 55.62,-197.47 62.6,-197.98"/>
</g>
<!-- Node9&#45;&gt;Node6 -->
<g id="edge12" class="edge">
<title>Node9&#45;&gt;Node6</title>
<path fill="none" stroke="midnightblue" d="M70.46,-168.32C79.63,-160.34 93.44,-148.31 104.53,-138.65"/>
<polygon fill="midnightblue" stroke="midnightblue" points="107.12,-141.04 112.36,-131.83 102.52,-135.76 107.12,-141.04"/>
</g>
<!-- Node10 -->
<g id="node10" class="node">
<title>Node10</title>
<g id="a_node10"><a xlink:title=" ">
<polygon fill="none" stroke="#bfbfbf" points="37,-112.5 37,-131.5 78,-131.5 78,-112.5 37,-112.5"/>
<text text-anchor="middle" x="57.5" y="-119.5" font-family="Helvetica,sans-Serif" font-size="10.00">QList</text>
</a>
</g>
</g>
<!-- Node9&#45;&gt;Node10 -->
<g id="edge13" class="edge">
<title>Node9&#45;&gt;Node10</title>
<path fill="none" stroke="midnightblue" d="M60,-168.08C59.61,-161.01 59.05,-150.86 58.55,-141.99"/>
<polygon fill="midnightblue" stroke="midnightblue" points="62.04,-141.54 57.99,-131.75 55.05,-141.93 62.04,-141.54"/>
</g>
</g>
</svg>
