<?xml version="1.0" encoding="UTF-8" standalone="no"?>
<!DOCTYPE svg PUBLIC "-//W3C//DTD SVG 1.1//EN"
 "http://www.w3.org/Graphics/SVG/1.1/DTD/svg11.dtd">
<!-- Generated by graphviz version 2.43.0 (0)
 -->
<!-- Title: nmeasentencemessage.cpp Pages: 1 -->
<svg width="322pt" height="364pt"
 viewBox="0.00 0.00 321.50 364.00" xmlns="http://www.w3.org/2000/svg" xmlns:xlink="http://www.w3.org/1999/xlink">
<g id="graph0" class="graph" transform="scale(1 1) rotate(0) translate(4 360)">
<title>nmeasentencemessage.cpp</title>
<!-- Node1 -->
<g id="node1" class="node">
<title>Node1</title>
<g id="a_node1"><a xlink:title=" ">
<polygon fill="#bfbfbf" stroke="black" points="83,-336.5 83,-355.5 236,-355.5 236,-336.5 83,-336.5"/>
<text text-anchor="middle" x="159.5" y="-343.5" font-family="Helvetica,sans-Serif" font-size="10.00">nmeasentencemessage.cpp</text>
</a>
</g>
</g>
<!-- Node2 -->
<g id="node2" class="node">
<title>Node2</title>
<g id="a_node2"><a xlink:href="nmeasentencemessage_8h.html" target="_top" xlink:title=" ">
<polygon fill="none" stroke="black" points="171.5,-280.5 171.5,-299.5 313.5,-299.5 313.5,-280.5 171.5,-280.5"/>
<text text-anchor="middle" x="242.5" y="-287.5" font-family="Helvetica,sans-Serif" font-size="10.00">nmeasentencemessage.h</text>
</a>
</g>
</g>
<!-- Node1&#45;&gt;Node2 -->
<g id="edge1" class="edge">
<title>Node1&#45;&gt;Node2</title>
<path fill="none" stroke="midnightblue" d="M172.84,-336.32C185.66,-327.98 205.28,-315.21 220.44,-305.35"/>
<polygon fill="midnightblue" stroke="midnightblue" points="222.72,-308.04 229.2,-299.65 218.91,-302.17 222.72,-308.04"/>
</g>
<!-- Node7 -->
<g id="node7" class="node">
<title>Node7</title>
<g id="a_node7"><a xlink:href="nmeasentencemessage__p_8h.html" target="_top" xlink:title=" ">
<polygon fill="none" stroke="black" points="0,-280.5 0,-299.5 153,-299.5 153,-280.5 0,-280.5"/>
<text text-anchor="middle" x="76.5" y="-287.5" font-family="Helvetica,sans-Serif" font-size="10.00">nmeasentencemessage_p.h</text>
</a>
</g>
</g>
<!-- Node1&#45;&gt;Node7 -->
<g id="edge7" class="edge">
<title>Node1&#45;&gt;Node7</title>
<path fill="none" stroke="midnightblue" d="M146.16,-336.32C133.34,-327.98 113.72,-315.21 98.56,-305.35"/>
<polygon fill="midnightblue" stroke="midnightblue" points="100.09,-302.17 89.8,-299.65 96.28,-308.04 100.09,-302.17"/>
</g>
<!-- Node3 -->
<g id="node3" class="node">
<title>Node3</title>
<g id="a_node3"><a xlink:href="fitdatamessage_8h.html" target="_top" xlink:title=" ">
<polygon fill="none" stroke="black" points="185,-168.5 185,-187.5 286,-187.5 286,-168.5 185,-168.5"/>
<text text-anchor="middle" x="235.5" y="-175.5" font-family="Helvetica,sans-Serif" font-size="10.00">fitdatamessage.h</text>
</a>
</g>
</g>
<!-- Node2&#45;&gt;Node3 -->
<g id="edge2" class="edge">
<title>Node2&#45;&gt;Node3</title>
<path fill="none" stroke="midnightblue" d="M241.95,-280.37C240.82,-262.62 238.22,-221.67 236.68,-197.6"/>
<polygon fill="midnightblue" stroke="midnightblue" points="240.17,-197.35 236.05,-187.59 233.19,-197.79 240.17,-197.35"/>
</g>
<!-- Node4 -->
<g id="node4" class="node">
<title>Node4</title>
<g id="a_node4"><a xlink:href="QtFit__global_8h.html" target="_top" xlink:title=" ">
<polygon fill="none" stroke="black" points="116.5,-56.5 116.5,-75.5 200.5,-75.5 200.5,-56.5 116.5,-56.5"/>
<text text-anchor="middle" x="158.5" y="-63.5" font-family="Helvetica,sans-Serif" font-size="10.00">QtFit_global.h</text>
</a>
</g>
</g>
<!-- Node3&#45;&gt;Node4 -->
<g id="edge3" class="edge">
<title>Node3&#45;&gt;Node4</title>
<path fill="none" stroke="midnightblue" d="M230.49,-168.39C223.04,-155.75 208.43,-131.56 194.5,-112 187.61,-102.32 179.36,-91.94 172.51,-83.59"/>
<polygon fill="midnightblue" stroke="midnightblue" points="175.06,-81.19 165.97,-75.74 169.68,-85.66 175.06,-81.19"/>
</g>
<!-- Node6 -->
<g id="node6" class="node">
<title>Node6</title>
<g id="a_node6"><a xlink:href="types_8h.html" target="_top" xlink:title="Types defined by the ANT+ FIT SDK.">
<polygon fill="none" stroke="black" points="132,-112.5 132,-131.5 185,-131.5 185,-112.5 132,-112.5"/>
<text text-anchor="middle" x="158.5" y="-119.5" font-family="Helvetica,sans-Serif" font-size="10.00">types.h</text>
</a>
</g>
</g>
<!-- Node3&#45;&gt;Node6 -->
<g id="edge5" class="edge">
<title>Node3&#45;&gt;Node6</title>
<path fill="none" stroke="midnightblue" d="M223.13,-168.32C211.34,-160.06 193.37,-147.45 179.36,-137.63"/>
<polygon fill="midnightblue" stroke="midnightblue" points="181.04,-134.53 170.84,-131.65 177.02,-140.26 181.04,-134.53"/>
</g>
<!-- Node5 -->
<g id="node5" class="node">
<title>Node5</title>
<g id="a_node5"><a xlink:title=" ">
<polygon fill="none" stroke="#bfbfbf" points="129,-0.5 129,-19.5 188,-19.5 188,-0.5 129,-0.5"/>
<text text-anchor="middle" x="158.5" y="-7.5" font-family="Helvetica,sans-Serif" font-size="10.00">QtGlobal</text>
</a>
</g>
</g>
<!-- Node4&#45;&gt;Node5 -->
<g id="edge4" class="edge">
<title>Node4&#45;&gt;Node5</title>
<path fill="none" stroke="midnightblue" d="M158.5,-56.08C158.5,-49.01 158.5,-38.86 158.5,-29.99"/>
<polygon fill="midnightblue" stroke="midnightblue" points="162,-29.75 158.5,-19.75 155,-29.75 162,-29.75"/>
</g>
<!-- Node6&#45;&gt;Node4 -->
<g id="edge6" class="edge">
<title>Node6&#45;&gt;Node4</title>
<path fill="none" stroke="midnightblue" d="M158.5,-112.08C158.5,-105.01 158.5,-94.86 158.5,-85.99"/>
<polygon fill="midnightblue" stroke="midnightblue" points="162,-85.75 158.5,-75.75 155,-85.75 162,-85.75"/>
</g>
<!-- Node8 -->
<g id="node8" class="node">
<title>Node8</title>
<g id="a_node8"><a xlink:href="fitdatamessage__p_8h.html" target="_top" xlink:title=" ">
<polygon fill="none" stroke="black" points="33,-224.5 33,-243.5 146,-243.5 146,-224.5 33,-224.5"/>
<text text-anchor="middle" x="89.5" y="-231.5" font-family="Helvetica,sans-Serif" font-size="10.00">fitdatamessage_p.h</text>
</a>
</g>
</g>
<!-- Node7&#45;&gt;Node8 -->
<g id="edge8" class="edge">
<title>Node7&#45;&gt;Node8</title>
<path fill="none" stroke="midnightblue" d="M78.65,-280.08C80.37,-272.93 82.85,-262.64 85,-253.69"/>
<polygon fill="midnightblue" stroke="midnightblue" points="88.46,-254.29 87.39,-243.75 81.65,-252.65 88.46,-254.29"/>
</g>
<!-- Node8&#45;&gt;Node4 -->
<g id="edge9" class="edge">
<title>Node8&#45;&gt;Node4</title>
<path fill="none" stroke="midnightblue" d="M80.21,-224.39C71.92,-216.02 60.36,-202.48 55.5,-188 49.04,-168.74 57.16,-120.6 63.5,-112 75.1,-96.26 93.64,-85.81 111.27,-78.98"/>
<polygon fill="midnightblue" stroke="midnightblue" points="112.67,-82.2 120.92,-75.55 110.32,-75.6 112.67,-82.2"/>
</g>
<!-- Node8&#45;&gt;Node6 -->
<g id="edge10" class="edge">
<title>Node8&#45;&gt;Node6</title>
<path fill="none" stroke="midnightblue" d="M101.8,-224.34C112.62,-216.12 128.08,-202.86 137.5,-188 146.53,-173.76 152.01,-155.29 155.09,-141.67"/>
<polygon fill="midnightblue" stroke="midnightblue" points="158.58,-142.08 157.15,-131.58 151.72,-140.68 158.58,-142.08"/>
</g>
<!-- Node9 -->
<g id="node9" class="node">
<title>Node9</title>
<g id="a_node9"><a xlink:href="types__p_8h.html" target="_top" xlink:title=" ">
<polygon fill="none" stroke="black" points="64.5,-168.5 64.5,-187.5 128.5,-187.5 128.5,-168.5 64.5,-168.5"/>
<text text-anchor="middle" x="96.5" y="-175.5" font-family="Helvetica,sans-Serif" font-size="10.00">types_p.h</text>
</a>
</g>
</g>
<!-- Node8&#45;&gt;Node9 -->
<g id="edge11" class="edge">
<title>Node8&#45;&gt;Node9</title>
<path fill="none" stroke="midnightblue" d="M90.66,-224.08C91.58,-216.93 92.92,-206.64 94.08,-197.69"/>
<polygon fill="midnightblue" stroke="midnightblue" points="97.55,-198.12 95.37,-187.75 90.61,-197.22 97.55,-198.12"/>
</g>
<!-- Node9&#45;&gt;Node6 -->
<g id="edge12" class="edge">
<title>Node9&#45;&gt;Node6</title>
<path fill="none" stroke="midnightblue" d="M106.46,-168.32C115.63,-160.34 129.44,-148.31 140.53,-138.65"/>
<polygon fill="midnightblue" stroke="midnightblue" points="143.12,-141.04 148.36,-131.83 138.52,-135.76 143.12,-141.04"/>
</g>
<!-- Node10 -->
<g id="node10" class="node">
<title>Node10</title>
<g id="a_node10"><a xlink:title=" ">
<polygon fill="none" stroke="#bfbfbf" points="73,-112.5 73,-131.5 114,-131.5 114,-112.5 73,-112.5"/>
<text text-anchor="middle" x="93.5" y="-119.5" font-family="Helvetica,sans-Serif" font-size="10.00">QList</text>
</a>
</g>
</g>
<!-- Node9&#45;&gt;Node10 -->
<g id="edge13" class="edge">
<title>Node9&#45;&gt;Node10</title>
<path fill="none" stroke="midnightblue" d="M96,-168.08C95.61,-161.01 95.05,-150.86 94.55,-141.99"/>
<polygon fill="midnightblue" stroke="midnightblue" points="98.04,-141.54 93.99,-131.75 91.05,-141.93 98.04,-141.54"/>
</g>
</g>
</svg>
