<?xml version="1.0" encoding="UTF-8" standalone="no"?>
<!DOCTYPE svg PUBLIC "-//W3C//DTD SVG 1.1//EN"
 "http://www.w3.org/Graphics/SVG/1.1/DTD/svg11.dtd">
<!-- Generated by graphviz version 2.43.0 (0)
 -->
<!-- Title: nmeasentencemessage.cpp Pages: 1 -->
<svg width="440pt" height="364pt"
 viewBox="0.00 0.00 439.50 364.00" xmlns="http://www.w3.org/2000/svg" xmlns:xlink="http://www.w3.org/1999/xlink">
<g id="graph0" class="graph" transform="scale(1 1) rotate(0) translate(4 360)">
<title>nmeasentencemessage.cpp</title>
<!-- Node1 -->
<g id="node1" class="node">
<title>Node1</title>
<g id="a_node1"><a xlink:title=" ">
<polygon fill="#bfbfbf" stroke="black" points="212.5,-336.5 212.5,-355.5 365.5,-355.5 365.5,-336.5 212.5,-336.5"/>
<text text-anchor="middle" x="289" y="-343.5" font-family="Helvetica,sans-Serif" font-size="10.00">nmeasentencemessage.cpp</text>
</a>
</g>
</g>
<!-- Node2 -->
<g id="node2" class="node">
<title>Node2</title>
<g id="a_node2"><a xlink:href="nmeasentencemessage_8h.html" target="_top" xlink:title=" ">
<polygon fill="none" stroke="black" points="0,-280.5 0,-299.5 142,-299.5 142,-280.5 0,-280.5"/>
<text text-anchor="middle" x="71" y="-287.5" font-family="Helvetica,sans-Serif" font-size="10.00">nmeasentencemessage.h</text>
</a>
</g>
</g>
<!-- Node1&#45;&gt;Node2 -->
<g id="edge1" class="edge">
<title>Node1&#45;&gt;Node2</title>
<path fill="none" stroke="midnightblue" d="M254.46,-336.44C216.75,-327.1 156.26,-312.12 115.14,-301.93"/>
<polygon fill="midnightblue" stroke="midnightblue" points="115.93,-298.52 105.38,-299.52 114.25,-305.32 115.93,-298.52"/>
</g>
<!-- Node7 -->
<g id="node7" class="node">
<title>Node7</title>
<g id="a_node7"><a xlink:title=" ">
<polygon fill="none" stroke="#bfbfbf" points="273,-56.5 273,-75.5 329,-75.5 329,-56.5 273,-56.5"/>
<text text-anchor="middle" x="301" y="-63.5" font-family="Helvetica,sans-Serif" font-size="10.00">QDebug</text>
</a>
</g>
</g>
<!-- Node1&#45;&gt;Node7 -->
<g id="edge15" class="edge">
<title>Node1&#45;&gt;Node7</title>
<path fill="none" stroke="midnightblue" d="M297.08,-336.34C304.73,-327.72 316.05,-313.82 323,-300 336.52,-273.11 342,-265.1 342,-235 342,-235 342,-235 342,-177 342,-142.52 324.09,-105.56 311.94,-84.47"/>
<polygon fill="midnightblue" stroke="midnightblue" points="314.84,-82.49 306.7,-75.71 308.84,-86.09 314.84,-82.49"/>
</g>
<!-- Node8 -->
<g id="node8" class="node">
<title>Node8</title>
<g id="a_node8"><a xlink:href="nmeasentencemessage__p_8h.html" target="_top" xlink:title=" ">
<polygon fill="none" stroke="black" points="160.5,-280.5 160.5,-299.5 313.5,-299.5 313.5,-280.5 160.5,-280.5"/>
<text text-anchor="middle" x="237" y="-287.5" font-family="Helvetica,sans-Serif" font-size="10.00">nmeasentencemessage_p.h</text>
</a>
</g>
</g>
<!-- Node1&#45;&gt;Node8 -->
<g id="edge8" class="edge">
<title>Node1&#45;&gt;Node8</title>
<path fill="none" stroke="midnightblue" d="M280.41,-336.08C272.84,-328.22 261.62,-316.57 252.49,-307.08"/>
<polygon fill="midnightblue" stroke="midnightblue" points="254.88,-304.53 245.43,-299.75 249.84,-309.38 254.88,-304.53"/>
</g>
<!-- Node12 -->
<g id="node12" class="node">
<title>Node12</title>
<g id="a_node12"><a xlink:title=" ">
<polygon fill="none" stroke="#bfbfbf" points="370.5,-280.5 370.5,-299.5 431.5,-299.5 431.5,-280.5 370.5,-280.5"/>
<text text-anchor="middle" x="401" y="-287.5" font-family="Helvetica,sans-Serif" font-size="10.00">QtEndian</text>
</a>
</g>
</g>
<!-- Node1&#45;&gt;Node12 -->
<g id="edge16" class="edge">
<title>Node1&#45;&gt;Node12</title>
<path fill="none" stroke="midnightblue" d="M306.99,-336.32C325.04,-327.62 353.05,-314.12 373.8,-304.11"/>
<polygon fill="midnightblue" stroke="midnightblue" points="375.56,-307.15 383.05,-299.65 372.52,-300.84 375.56,-307.15"/>
</g>
<!-- Node3 -->
<g id="node3" class="node">
<title>Node3</title>
<g id="a_node3"><a xlink:href="fitdatamessage_8h.html" target="_top" xlink:title=" ">
<polygon fill="none" stroke="black" points="40.5,-168.5 40.5,-187.5 141.5,-187.5 141.5,-168.5 40.5,-168.5"/>
<text text-anchor="middle" x="91" y="-175.5" font-family="Helvetica,sans-Serif" font-size="10.00">fitdatamessage.h</text>
</a>
</g>
</g>
<!-- Node2&#45;&gt;Node3 -->
<g id="edge2" class="edge">
<title>Node2&#45;&gt;Node3</title>
<path fill="none" stroke="midnightblue" d="M72.57,-280.37C75.8,-262.62 83.24,-221.67 87.62,-197.6"/>
<polygon fill="midnightblue" stroke="midnightblue" points="91.09,-198.06 89.44,-187.59 84.21,-196.8 91.09,-198.06"/>
</g>
<!-- Node4 -->
<g id="node4" class="node">
<title>Node4</title>
<g id="a_node4"><a xlink:href="QtFit__global_8h.html" target="_top" xlink:title=" ">
<polygon fill="none" stroke="black" points="128,-56.5 128,-75.5 212,-75.5 212,-56.5 128,-56.5"/>
<text text-anchor="middle" x="170" y="-63.5" font-family="Helvetica,sans-Serif" font-size="10.00">QtFit_global.h</text>
</a>
</g>
</g>
<!-- Node3&#45;&gt;Node4 -->
<g id="edge3" class="edge">
<title>Node3&#45;&gt;Node4</title>
<path fill="none" stroke="midnightblue" d="M97.2,-168.37C110.24,-150.22 140.7,-107.8 157.8,-83.99"/>
<polygon fill="midnightblue" stroke="midnightblue" points="160.84,-85.76 163.83,-75.59 155.15,-81.67 160.84,-85.76"/>
</g>
<!-- Node6 -->
<g id="node6" class="node">
<title>Node6</title>
<g id="a_node6"><a xlink:href="types_8h.html" target="_top" xlink:title="Types defined by the ANT+ FIT SDK.">
<polygon fill="none" stroke="black" points="198.5,-112.5 198.5,-131.5 251.5,-131.5 251.5,-112.5 198.5,-112.5"/>
<text text-anchor="middle" x="225" y="-119.5" font-family="Helvetica,sans-Serif" font-size="10.00">types.h</text>
</a>
</g>
</g>
<!-- Node3&#45;&gt;Node6 -->
<g id="edge5" class="edge">
<title>Node3&#45;&gt;Node6</title>
<path fill="none" stroke="midnightblue" d="M112.23,-168.44C134.38,-159.52 169.32,-145.44 194.44,-135.32"/>
<polygon fill="midnightblue" stroke="midnightblue" points="195.9,-138.5 203.87,-131.52 193.28,-132.01 195.9,-138.5"/>
</g>
<!-- Node5 -->
<g id="node5" class="node">
<title>Node5</title>
<g id="a_node5"><a xlink:title=" ">
<polygon fill="none" stroke="#bfbfbf" points="140.5,-0.5 140.5,-19.5 199.5,-19.5 199.5,-0.5 140.5,-0.5"/>
<text text-anchor="middle" x="170" y="-7.5" font-family="Helvetica,sans-Serif" font-size="10.00">QtGlobal</text>
</a>
</g>
</g>
<!-- Node4&#45;&gt;Node5 -->
<g id="edge4" class="edge">
<title>Node4&#45;&gt;Node5</title>
<path fill="none" stroke="midnightblue" d="M170,-56.08C170,-49.01 170,-38.86 170,-29.99"/>
<polygon fill="midnightblue" stroke="midnightblue" points="173.5,-29.75 170,-19.75 166.5,-29.75 173.5,-29.75"/>
</g>
<!-- Node6&#45;&gt;Node4 -->
<g id="edge6" class="edge">
<title>Node6&#45;&gt;Node4</title>
<path fill="none" stroke="midnightblue" d="M215.92,-112.08C207.83,-104.14 195.8,-92.34 186.09,-82.8"/>
<polygon fill="midnightblue" stroke="midnightblue" points="188.5,-80.26 178.91,-75.75 183.6,-85.25 188.5,-80.26"/>
</g>
<!-- Node6&#45;&gt;Node7 -->
<g id="edge7" class="edge">
<title>Node6&#45;&gt;Node7</title>
<path fill="none" stroke="midnightblue" d="M237.21,-112.32C248.78,-104.11 266.38,-91.6 280.16,-81.81"/>
<polygon fill="midnightblue" stroke="midnightblue" points="282.44,-84.48 288.57,-75.83 278.39,-78.77 282.44,-84.48"/>
</g>
<!-- Node9 -->
<g id="node9" class="node">
<title>Node9</title>
<g id="a_node9"><a xlink:href="fitdatamessage__p_8h.html" target="_top" xlink:title=" ">
<polygon fill="none" stroke="black" points="172.5,-224.5 172.5,-243.5 285.5,-243.5 285.5,-224.5 172.5,-224.5"/>
<text text-anchor="middle" x="229" y="-231.5" font-family="Helvetica,sans-Serif" font-size="10.00">fitdatamessage_p.h</text>
</a>
</g>
</g>
<!-- Node8&#45;&gt;Node9 -->
<g id="edge9" class="edge">
<title>Node8&#45;&gt;Node9</title>
<path fill="none" stroke="midnightblue" d="M235.68,-280.08C234.62,-272.93 233.09,-262.64 231.77,-253.69"/>
<polygon fill="midnightblue" stroke="midnightblue" points="235.22,-253.13 230.3,-243.75 228.3,-254.16 235.22,-253.13"/>
</g>
<!-- Node9&#45;&gt;Node4 -->
<g id="edge10" class="edge">
<title>Node9&#45;&gt;Node4</title>
<path fill="none" stroke="midnightblue" d="M225.3,-224.45C217.9,-207.18 200.94,-166.78 189,-132 183.69,-116.54 178.54,-98.69 174.95,-85.62"/>
<polygon fill="midnightblue" stroke="midnightblue" points="178.31,-84.65 172.32,-75.91 171.56,-86.48 178.31,-84.65"/>
</g>
<!-- Node9&#45;&gt;Node6 -->
<g id="edge11" class="edge">
<title>Node9&#45;&gt;Node6</title>
<path fill="none" stroke="midnightblue" d="M228.69,-224.37C228.04,-206.62 226.55,-165.67 225.68,-141.6"/>
<polygon fill="midnightblue" stroke="midnightblue" points="229.17,-141.46 225.31,-131.59 222.18,-141.71 229.17,-141.46"/>
</g>
<!-- Node10 -->
<g id="node10" class="node">
<title>Node10</title>
<g id="a_node10"><a xlink:href="types__p_8h.html" target="_top" xlink:title=" ">
<polygon fill="none" stroke="black" points="250,-168.5 250,-187.5 314,-187.5 314,-168.5 250,-168.5"/>
<text text-anchor="middle" x="282" y="-175.5" font-family="Helvetica,sans-Serif" font-size="10.00">types_p.h</text>
</a>
</g>
</g>
<!-- Node9&#45;&gt;Node10 -->
<g id="edge12" class="edge">
<title>Node9&#45;&gt;Node10</title>
<path fill="none" stroke="midnightblue" d="M237.75,-224.08C245.47,-216.22 256.9,-204.57 266.22,-195.08"/>
<polygon fill="midnightblue" stroke="midnightblue" points="268.9,-197.34 273.41,-187.75 263.91,-192.44 268.9,-197.34"/>
</g>
<!-- Node10&#45;&gt;Node6 -->
<g id="edge13" class="edge">
<title>Node10&#45;&gt;Node6</title>
<path fill="none" stroke="midnightblue" d="M272.84,-168.32C264.5,-160.42 251.97,-148.55 241.82,-138.94"/>
<polygon fill="midnightblue" stroke="midnightblue" points="243.99,-136.17 234.32,-131.83 239.18,-141.25 243.99,-136.17"/>
</g>
<!-- Node11 -->
<g id="node11" class="node">
<title>Node11</title>
<g id="a_node11"><a xlink:title=" ">
<polygon fill="none" stroke="#bfbfbf" points="269.5,-112.5 269.5,-131.5 310.5,-131.5 310.5,-112.5 269.5,-112.5"/>
<text text-anchor="middle" x="290" y="-119.5" font-family="Helvetica,sans-Serif" font-size="10.00">QList</text>
</a>
</g>
</g>
<!-- Node10&#45;&gt;Node11 -->
<g id="edge14" class="edge">
<title>Node10&#45;&gt;Node11</title>
<path fill="none" stroke="midnightblue" d="M283.32,-168.08C284.38,-160.93 285.91,-150.64 287.23,-141.69"/>
<polygon fill="midnightblue" stroke="midnightblue" points="290.7,-142.16 288.7,-131.75 283.78,-141.13 290.7,-142.16"/>
</g>
</g>
</svg>
