<?xml version="1.0" encoding="UTF-8" standalone="no"?>
<!DOCTYPE svg PUBLIC "-//W3C//DTD SVG 1.1//EN"
 "http://www.w3.org/Graphics/SVG/1.1/DTD/svg11.dtd">
<!-- Generated by graphviz version 2.43.0 (0)
 -->
<!-- Title: nmeasentencemessage.h Pages: 1 -->
<svg width="150pt" height="252pt"
 viewBox="0.00 0.00 150.00 252.00" xmlns="http://www.w3.org/2000/svg" xmlns:xlink="http://www.w3.org/1999/xlink">
<g id="graph0" class="graph" transform="scale(1 1) rotate(0) translate(4 248)">
<title>nmeasentencemessage.h</title>
<!-- Node1 -->
<g id="node1" class="node">
<title>Node1</title>
<g id="a_node1"><a xlink:title=" ">
<polygon fill="#bfbfbf" stroke="black" points="0,-224.5 0,-243.5 142,-243.5 142,-224.5 0,-224.5"/>
<text text-anchor="middle" x="71" y="-231.5" font-family="Helvetica,sans-Serif" font-size="10.00">nmeasentencemessage.h</text>
</a>
</g>
</g>
<!-- Node2 -->
<g id="node2" class="node">
<title>Node2</title>
<g id="a_node2"><a xlink:href="fitdatamessage_8h.html" target="_top" xlink:title=" ">
<polygon fill="none" stroke="black" points="20.5,-168.5 20.5,-187.5 121.5,-187.5 121.5,-168.5 20.5,-168.5"/>
<text text-anchor="middle" x="71" y="-175.5" font-family="Helvetica,sans-Serif" font-size="10.00">fitdatamessage.h</text>
</a>
</g>
</g>
<!-- Node1&#45;&gt;Node2 -->
<g id="edge1" class="edge">
<title>Node1&#45;&gt;Node2</title>
<path fill="none" stroke="midnightblue" d="M71,-224.08C71,-217.01 71,-206.86 71,-197.99"/>
<polygon fill="midnightblue" stroke="midnightblue" points="74.5,-197.75 71,-187.75 67.5,-197.75 74.5,-197.75"/>
</g>
<!-- Node3 -->
<g id="node3" class="node">
<title>Node3</title>
<g id="a_node3"><a xlink:href="QtFit__global_8h.html" target="_top" xlink:title=" ">
<polygon fill="none" stroke="black" points="29,-56.5 29,-75.5 113,-75.5 113,-56.5 29,-56.5"/>
<text text-anchor="middle" x="71" y="-63.5" font-family="Helvetica,sans-Serif" font-size="10.00">QtFit_global.h</text>
</a>
</g>
</g>
<!-- Node2&#45;&gt;Node3 -->
<g id="edge2" class="edge">
<title>Node2&#45;&gt;Node3</title>
<path fill="none" stroke="midnightblue" d="M69.26,-168.42C67.53,-159.4 64.99,-144.77 64,-132 62.8,-116.42 64.91,-98.8 67.12,-85.84"/>
<polygon fill="midnightblue" stroke="midnightblue" points="70.6,-86.29 69.01,-75.82 63.72,-84.99 70.6,-86.29"/>
</g>
<!-- Node5 -->
<g id="node5" class="node">
<title>Node5</title>
<g id="a_node5"><a xlink:href="types_8h.html" target="_top" xlink:title="Types defined by the ANT+ FIT SDK.">
<polygon fill="none" stroke="black" points="72.5,-112.5 72.5,-131.5 125.5,-131.5 125.5,-112.5 72.5,-112.5"/>
<text text-anchor="middle" x="99" y="-119.5" font-family="Helvetica,sans-Serif" font-size="10.00">types.h</text>
</a>
</g>
</g>
<!-- Node2&#45;&gt;Node5 -->
<g id="edge4" class="edge">
<title>Node2&#45;&gt;Node5</title>
<path fill="none" stroke="midnightblue" d="M75.62,-168.08C79.46,-160.69 85.02,-149.95 89.76,-140.81"/>
<polygon fill="midnightblue" stroke="midnightblue" points="92.97,-142.24 94.46,-131.75 86.75,-139.02 92.97,-142.24"/>
</g>
<!-- Node4 -->
<g id="node4" class="node">
<title>Node4</title>
<g id="a_node4"><a xlink:title=" ">
<polygon fill="none" stroke="#bfbfbf" points="41.5,-0.5 41.5,-19.5 100.5,-19.5 100.5,-0.5 41.5,-0.5"/>
<text text-anchor="middle" x="71" y="-7.5" font-family="Helvetica,sans-Serif" font-size="10.00">QtGlobal</text>
</a>
</g>
</g>
<!-- Node3&#45;&gt;Node4 -->
<g id="edge3" class="edge">
<title>Node3&#45;&gt;Node4</title>
<path fill="none" stroke="midnightblue" d="M71,-56.08C71,-49.01 71,-38.86 71,-29.99"/>
<polygon fill="midnightblue" stroke="midnightblue" points="74.5,-29.75 71,-19.75 67.5,-29.75 74.5,-29.75"/>
</g>
<!-- Node5&#45;&gt;Node3 -->
<g id="edge5" class="edge">
<title>Node5&#45;&gt;Node3</title>
<path fill="none" stroke="midnightblue" d="M94.38,-112.08C90.54,-104.69 84.98,-93.95 80.24,-84.81"/>
<polygon fill="midnightblue" stroke="midnightblue" points="83.25,-83.02 75.54,-75.75 77.03,-86.24 83.25,-83.02"/>
</g>
</g>
</svg>
