<?xml version="1.0" encoding="UTF-8" standalone="no"?>
<!DOCTYPE svg PUBLIC "-//W3C//DTD SVG 1.1//EN"
 "http://www.w3.org/Graphics/SVG/1.1/DTD/svg11.dtd">
<!-- Generated by graphviz version 2.43.0 (0)
 -->
<!-- Title: obdiidatamessage.cpp Pages: 1 -->
<svg width="270pt" height="364pt"
 viewBox="0.00 0.00 269.50 364.00" xmlns="http://www.w3.org/2000/svg" xmlns:xlink="http://www.w3.org/1999/xlink">
<g id="graph0" class="graph" transform="scale(1 1) rotate(0) translate(4 360)">
<title>obdiidatamessage.cpp</title>
<!-- Node1 -->
<g id="node1" class="node">
<title>Node1</title>
<g id="a_node1"><a xlink:title=" ">
<polygon fill="#bfbfbf" stroke="black" points="70,-336.5 70,-355.5 197,-355.5 197,-336.5 70,-336.5"/>
<text text-anchor="middle" x="133.5" y="-343.5" font-family="Helvetica,sans-Serif" font-size="10.00">obdiidatamessage.cpp</text>
</a>
</g>
</g>
<!-- Node2 -->
<g id="node2" class="node">
<title>Node2</title>
<g id="a_node2"><a xlink:href="obdiidatamessage_8h.html" target="_top" xlink:title=" ">
<polygon fill="none" stroke="black" points="145.5,-280.5 145.5,-299.5 261.5,-299.5 261.5,-280.5 145.5,-280.5"/>
<text text-anchor="middle" x="203.5" y="-287.5" font-family="Helvetica,sans-Serif" font-size="10.00">obdiidatamessage.h</text>
</a>
</g>
</g>
<!-- Node1&#45;&gt;Node2 -->
<g id="edge1" class="edge">
<title>Node1&#45;&gt;Node2</title>
<path fill="none" stroke="midnightblue" d="M144.75,-336.32C155.3,-328.18 171.3,-315.84 183.94,-306.09"/>
<polygon fill="midnightblue" stroke="midnightblue" points="186.27,-308.71 192.05,-299.83 181.99,-303.17 186.27,-308.71"/>
</g>
<!-- Node7 -->
<g id="node7" class="node">
<title>Node7</title>
<g id="a_node7"><a xlink:href="obdiidatamessage__p_8h.html" target="_top" xlink:title=" ">
<polygon fill="none" stroke="black" points="0,-280.5 0,-299.5 127,-299.5 127,-280.5 0,-280.5"/>
<text text-anchor="middle" x="63.5" y="-287.5" font-family="Helvetica,sans-Serif" font-size="10.00">obdiidatamessage_p.h</text>
</a>
</g>
</g>
<!-- Node1&#45;&gt;Node7 -->
<g id="edge7" class="edge">
<title>Node1&#45;&gt;Node7</title>
<path fill="none" stroke="midnightblue" d="M122.25,-336.32C111.7,-328.18 95.7,-315.84 83.06,-306.09"/>
<polygon fill="midnightblue" stroke="midnightblue" points="85.01,-303.17 74.95,-299.83 80.73,-308.71 85.01,-303.17"/>
</g>
<!-- Node3 -->
<g id="node3" class="node">
<title>Node3</title>
<g id="a_node3"><a xlink:href="fitdatamessage_8h.html" target="_top" xlink:title=" ">
<polygon fill="none" stroke="black" points="152,-168.5 152,-187.5 253,-187.5 253,-168.5 152,-168.5"/>
<text text-anchor="middle" x="202.5" y="-175.5" font-family="Helvetica,sans-Serif" font-size="10.00">fitdatamessage.h</text>
</a>
</g>
</g>
<!-- Node2&#45;&gt;Node3 -->
<g id="edge2" class="edge">
<title>Node2&#45;&gt;Node3</title>
<path fill="none" stroke="midnightblue" d="M203.42,-280.37C203.26,-262.62 202.89,-221.67 202.67,-197.6"/>
<polygon fill="midnightblue" stroke="midnightblue" points="206.17,-197.56 202.58,-187.59 199.17,-197.62 206.17,-197.56"/>
</g>
<!-- Node4 -->
<g id="node4" class="node">
<title>Node4</title>
<g id="a_node4"><a xlink:href="QtFit__global_8h.html" target="_top" xlink:title=" ">
<polygon fill="none" stroke="black" points="83.5,-56.5 83.5,-75.5 167.5,-75.5 167.5,-56.5 83.5,-56.5"/>
<text text-anchor="middle" x="125.5" y="-63.5" font-family="Helvetica,sans-Serif" font-size="10.00">QtFit_global.h</text>
</a>
</g>
</g>
<!-- Node3&#45;&gt;Node4 -->
<g id="edge3" class="edge">
<title>Node3&#45;&gt;Node4</title>
<path fill="none" stroke="midnightblue" d="M197.49,-168.39C190.04,-155.75 175.43,-131.56 161.5,-112 154.61,-102.32 146.36,-91.94 139.51,-83.59"/>
<polygon fill="midnightblue" stroke="midnightblue" points="142.06,-81.19 132.97,-75.74 136.68,-85.66 142.06,-81.19"/>
</g>
<!-- Node6 -->
<g id="node6" class="node">
<title>Node6</title>
<g id="a_node6"><a xlink:href="types_8h.html" target="_top" xlink:title="Types defined by the ANT+ FIT SDK.">
<polygon fill="none" stroke="black" points="99,-112.5 99,-131.5 152,-131.5 152,-112.5 99,-112.5"/>
<text text-anchor="middle" x="125.5" y="-119.5" font-family="Helvetica,sans-Serif" font-size="10.00">types.h</text>
</a>
</g>
</g>
<!-- Node3&#45;&gt;Node6 -->
<g id="edge5" class="edge">
<title>Node3&#45;&gt;Node6</title>
<path fill="none" stroke="midnightblue" d="M190.13,-168.32C178.34,-160.06 160.37,-147.45 146.36,-137.63"/>
<polygon fill="midnightblue" stroke="midnightblue" points="148.04,-134.53 137.84,-131.65 144.02,-140.26 148.04,-134.53"/>
</g>
<!-- Node5 -->
<g id="node5" class="node">
<title>Node5</title>
<g id="a_node5"><a xlink:title=" ">
<polygon fill="none" stroke="#bfbfbf" points="96,-0.5 96,-19.5 155,-19.5 155,-0.5 96,-0.5"/>
<text text-anchor="middle" x="125.5" y="-7.5" font-family="Helvetica,sans-Serif" font-size="10.00">QtGlobal</text>
</a>
</g>
</g>
<!-- Node4&#45;&gt;Node5 -->
<g id="edge4" class="edge">
<title>Node4&#45;&gt;Node5</title>
<path fill="none" stroke="midnightblue" d="M125.5,-56.08C125.5,-49.01 125.5,-38.86 125.5,-29.99"/>
<polygon fill="midnightblue" stroke="midnightblue" points="129,-29.75 125.5,-19.75 122,-29.75 129,-29.75"/>
</g>
<!-- Node6&#45;&gt;Node4 -->
<g id="edge6" class="edge">
<title>Node6&#45;&gt;Node4</title>
<path fill="none" stroke="midnightblue" d="M125.5,-112.08C125.5,-105.01 125.5,-94.86 125.5,-85.99"/>
<polygon fill="midnightblue" stroke="midnightblue" points="129,-85.75 125.5,-75.75 122,-85.75 129,-85.75"/>
</g>
<!-- Node8 -->
<g id="node8" class="node">
<title>Node8</title>
<g id="a_node8"><a xlink:href="fitdatamessage__p_8h.html" target="_top" xlink:title=" ">
<polygon fill="none" stroke="black" points="7,-224.5 7,-243.5 120,-243.5 120,-224.5 7,-224.5"/>
<text text-anchor="middle" x="63.5" y="-231.5" font-family="Helvetica,sans-Serif" font-size="10.00">fitdatamessage_p.h</text>
</a>
</g>
</g>
<!-- Node7&#45;&gt;Node8 -->
<g id="edge8" class="edge">
<title>Node7&#45;&gt;Node8</title>
<path fill="none" stroke="midnightblue" d="M63.5,-280.08C63.5,-273.01 63.5,-262.86 63.5,-253.99"/>
<polygon fill="midnightblue" stroke="midnightblue" points="67,-253.75 63.5,-243.75 60,-253.75 67,-253.75"/>
</g>
<!-- Node8&#45;&gt;Node4 -->
<g id="edge9" class="edge">
<title>Node8&#45;&gt;Node4</title>
<path fill="none" stroke="midnightblue" d="M51.96,-224.49C42.02,-216.38 28.38,-203.18 22.5,-188 15.39,-169.63 22.31,-123.12 30.5,-112 42.1,-96.26 60.64,-85.81 78.27,-78.98"/>
<polygon fill="midnightblue" stroke="midnightblue" points="79.67,-82.2 87.92,-75.55 77.32,-75.6 79.67,-82.2"/>
</g>
<!-- Node8&#45;&gt;Node6 -->
<g id="edge10" class="edge">
<title>Node8&#45;&gt;Node6</title>
<path fill="none" stroke="midnightblue" d="M73.59,-224.29C82.81,-215.85 96.23,-202.26 104.5,-188 112.87,-173.58 118.38,-155.38 121.65,-141.92"/>
<polygon fill="midnightblue" stroke="midnightblue" points="125.12,-142.42 123.88,-131.9 118.29,-140.9 125.12,-142.42"/>
</g>
<!-- Node9 -->
<g id="node9" class="node">
<title>Node9</title>
<g id="a_node9"><a xlink:href="types__p_8h.html" target="_top" xlink:title=" ">
<polygon fill="none" stroke="black" points="31.5,-168.5 31.5,-187.5 95.5,-187.5 95.5,-168.5 31.5,-168.5"/>
<text text-anchor="middle" x="63.5" y="-175.5" font-family="Helvetica,sans-Serif" font-size="10.00">types_p.h</text>
</a>
</g>
</g>
<!-- Node8&#45;&gt;Node9 -->
<g id="edge11" class="edge">
<title>Node8&#45;&gt;Node9</title>
<path fill="none" stroke="midnightblue" d="M63.5,-224.08C63.5,-217.01 63.5,-206.86 63.5,-197.99"/>
<polygon fill="midnightblue" stroke="midnightblue" points="67,-197.75 63.5,-187.75 60,-197.75 67,-197.75"/>
</g>
<!-- Node9&#45;&gt;Node6 -->
<g id="edge12" class="edge">
<title>Node9&#45;&gt;Node6</title>
<path fill="none" stroke="midnightblue" d="M73.46,-168.32C82.63,-160.34 96.44,-148.31 107.53,-138.65"/>
<polygon fill="midnightblue" stroke="midnightblue" points="110.12,-141.04 115.36,-131.83 105.52,-135.76 110.12,-141.04"/>
</g>
<!-- Node10 -->
<g id="node10" class="node">
<title>Node10</title>
<g id="a_node10"><a xlink:title=" ">
<polygon fill="none" stroke="#bfbfbf" points="40,-112.5 40,-131.5 81,-131.5 81,-112.5 40,-112.5"/>
<text text-anchor="middle" x="60.5" y="-119.5" font-family="Helvetica,sans-Serif" font-size="10.00">QList</text>
</a>
</g>
</g>
<!-- Node9&#45;&gt;Node10 -->
<g id="edge13" class="edge">
<title>Node9&#45;&gt;Node10</title>
<path fill="none" stroke="midnightblue" d="M63,-168.08C62.61,-161.01 62.05,-150.86 61.55,-141.99"/>
<polygon fill="midnightblue" stroke="midnightblue" points="65.04,-141.54 60.99,-131.75 58.05,-141.93 65.04,-141.54"/>
</g>
</g>
</svg>
