<?xml version="1.0" encoding="UTF-8" standalone="no"?>
<!DOCTYPE svg PUBLIC "-//W3C//DTD SVG 1.1//EN"
 "http://www.w3.org/Graphics/SVG/1.1/DTD/svg11.dtd">
<!-- Generated by graphviz version 2.43.0 (0)
 -->
<!-- Title: obdiidatamessage_p.h Pages: 1 -->
<svg width="166pt" height="308pt"
 viewBox="0.00 0.00 166.00 308.00" xmlns="http://www.w3.org/2000/svg" xmlns:xlink="http://www.w3.org/1999/xlink">
<g id="graph0" class="graph" transform="scale(1 1) rotate(0) translate(4 304)">
<title>obdiidatamessage_p.h</title>
<!-- Node1 -->
<g id="node1" class="node">
<title>Node1</title>
<g id="a_node1"><a xlink:title=" ">
<polygon fill="#bfbfbf" stroke="black" points="0,-280.5 0,-299.5 127,-299.5 127,-280.5 0,-280.5"/>
<text text-anchor="middle" x="63.5" y="-287.5" font-family="Helvetica,sans-Serif" font-size="10.00">obdiidatamessage_p.h</text>
</a>
</g>
</g>
<!-- Node2 -->
<g id="node2" class="node">
<title>Node2</title>
<g id="a_node2"><a xlink:href="fitdatamessage__p_8h.html" target="_top" xlink:title=" ">
<polygon fill="none" stroke="black" points="7,-224.5 7,-243.5 120,-243.5 120,-224.5 7,-224.5"/>
<text text-anchor="middle" x="63.5" y="-231.5" font-family="Helvetica,sans-Serif" font-size="10.00">fitdatamessage_p.h</text>
</a>
</g>
</g>
<!-- Node1&#45;&gt;Node2 -->
<g id="edge1" class="edge">
<title>Node1&#45;&gt;Node2</title>
<path fill="none" stroke="midnightblue" d="M63.5,-280.08C63.5,-273.01 63.5,-262.86 63.5,-253.99"/>
<polygon fill="midnightblue" stroke="midnightblue" points="67,-253.75 63.5,-243.75 60,-253.75 67,-253.75"/>
</g>
<!-- Node3 -->
<g id="node3" class="node">
<title>Node3</title>
<g id="a_node3"><a xlink:href="QtFit__global_8h.html" target="_top" xlink:title=" ">
<polygon fill="none" stroke="black" points="2.5,-56.5 2.5,-75.5 86.5,-75.5 86.5,-56.5 2.5,-56.5"/>
<text text-anchor="middle" x="44.5" y="-63.5" font-family="Helvetica,sans-Serif" font-size="10.00">QtFit_global.h</text>
</a>
</g>
</g>
<!-- Node2&#45;&gt;Node3 -->
<g id="edge2" class="edge">
<title>Node2&#45;&gt;Node3</title>
<path fill="none" stroke="midnightblue" d="M59.65,-224.32C51.32,-204.61 32.72,-154.88 36.5,-112 37.28,-103.2 38.89,-93.54 40.47,-85.43"/>
<polygon fill="midnightblue" stroke="midnightblue" points="43.91,-86.07 42.51,-75.57 37.06,-84.65 43.91,-86.07"/>
</g>
<!-- Node5 -->
<g id="node5" class="node">
<title>Node5</title>
<g id="a_node5"><a xlink:href="types_8h.html" target="_top" xlink:title="Types defined by the ANT+ FIT SDK.">
<polygon fill="none" stroke="black" points="46,-112.5 46,-131.5 99,-131.5 99,-112.5 46,-112.5"/>
<text text-anchor="middle" x="72.5" y="-119.5" font-family="Helvetica,sans-Serif" font-size="10.00">types.h</text>
</a>
</g>
</g>
<!-- Node2&#45;&gt;Node5 -->
<g id="edge4" class="edge">
<title>Node2&#45;&gt;Node5</title>
<path fill="none" stroke="midnightblue" d="M64.21,-224.37C65.66,-206.62 69.01,-165.67 70.98,-141.6"/>
<polygon fill="midnightblue" stroke="midnightblue" points="74.47,-141.84 71.8,-131.59 67.49,-141.27 74.47,-141.84"/>
</g>
<!-- Node6 -->
<g id="node6" class="node">
<title>Node6</title>
<g id="a_node6"><a xlink:href="types__p_8h.html" target="_top" xlink:title=" ">
<polygon fill="none" stroke="black" points="91.5,-168.5 91.5,-187.5 155.5,-187.5 155.5,-168.5 91.5,-168.5"/>
<text text-anchor="middle" x="123.5" y="-175.5" font-family="Helvetica,sans-Serif" font-size="10.00">types_p.h</text>
</a>
</g>
</g>
<!-- Node2&#45;&gt;Node6 -->
<g id="edge6" class="edge">
<title>Node2&#45;&gt;Node6</title>
<path fill="none" stroke="midnightblue" d="M73.14,-224.32C82.01,-216.34 95.37,-204.31 106.11,-194.65"/>
<polygon fill="midnightblue" stroke="midnightblue" points="108.59,-197.13 113.68,-187.83 103.91,-191.92 108.59,-197.13"/>
</g>
<!-- Node4 -->
<g id="node4" class="node">
<title>Node4</title>
<g id="a_node4"><a xlink:title=" ">
<polygon fill="none" stroke="#bfbfbf" points="15,-0.5 15,-19.5 74,-19.5 74,-0.5 15,-0.5"/>
<text text-anchor="middle" x="44.5" y="-7.5" font-family="Helvetica,sans-Serif" font-size="10.00">QtGlobal</text>
</a>
</g>
</g>
<!-- Node3&#45;&gt;Node4 -->
<g id="edge3" class="edge">
<title>Node3&#45;&gt;Node4</title>
<path fill="none" stroke="midnightblue" d="M44.5,-56.08C44.5,-49.01 44.5,-38.86 44.5,-29.99"/>
<polygon fill="midnightblue" stroke="midnightblue" points="48,-29.75 44.5,-19.75 41,-29.75 48,-29.75"/>
</g>
<!-- Node5&#45;&gt;Node3 -->
<g id="edge5" class="edge">
<title>Node5&#45;&gt;Node3</title>
<path fill="none" stroke="midnightblue" d="M67.88,-112.08C64.04,-104.69 58.48,-93.95 53.74,-84.81"/>
<polygon fill="midnightblue" stroke="midnightblue" points="56.75,-83.02 49.04,-75.75 50.53,-86.24 56.75,-83.02"/>
</g>
<!-- Node6&#45;&gt;Node5 -->
<g id="edge7" class="edge">
<title>Node6&#45;&gt;Node5</title>
<path fill="none" stroke="midnightblue" d="M115.08,-168.08C107.65,-160.22 96.65,-148.57 87.69,-139.08"/>
<polygon fill="midnightblue" stroke="midnightblue" points="90.18,-136.62 80.76,-131.75 85.09,-141.42 90.18,-136.62"/>
</g>
<!-- Node7 -->
<g id="node7" class="node">
<title>Node7</title>
<g id="a_node7"><a xlink:title=" ">
<polygon fill="none" stroke="#bfbfbf" points="117,-112.5 117,-131.5 158,-131.5 158,-112.5 117,-112.5"/>
<text text-anchor="middle" x="137.5" y="-119.5" font-family="Helvetica,sans-Serif" font-size="10.00">QList</text>
</a>
</g>
</g>
<!-- Node6&#45;&gt;Node7 -->
<g id="edge8" class="edge">
<title>Node6&#45;&gt;Node7</title>
<path fill="none" stroke="midnightblue" d="M125.81,-168.08C127.67,-160.93 130.34,-150.64 132.65,-141.69"/>
<polygon fill="midnightblue" stroke="midnightblue" points="136.11,-142.31 135.23,-131.75 129.33,-140.55 136.11,-142.31"/>
</g>
</g>
</svg>
