<?xml version="1.0" encoding="UTF-8" standalone="no"?>
<!DOCTYPE svg PUBLIC "-//W3C//DTD SVG 1.1//EN"
 "http://www.w3.org/Graphics/SVG/1.1/DTD/svg11.dtd">
<!-- Generated by graphviz version 2.43.0 (0)
 -->
<!-- Title: ohrsettingsmessage.cpp Pages: 1 -->
<svg width="288pt" height="364pt"
 viewBox="0.00 0.00 287.50 364.00" xmlns="http://www.w3.org/2000/svg" xmlns:xlink="http://www.w3.org/1999/xlink">
<g id="graph0" class="graph" transform="scale(1 1) rotate(0) translate(4 360)">
<title>ohrsettingsmessage.cpp</title>
<!-- Node1 -->
<g id="node1" class="node">
<title>Node1</title>
<g id="a_node1"><a xlink:title=" ">
<polygon fill="#bfbfbf" stroke="black" points="74,-336.5 74,-355.5 210,-355.5 210,-336.5 74,-336.5"/>
<text text-anchor="middle" x="142" y="-343.5" font-family="Helvetica,sans-Serif" font-size="10.00">ohrsettingsmessage.cpp</text>
</a>
</g>
</g>
<!-- Node2 -->
<g id="node2" class="node">
<title>Node2</title>
<g id="a_node2"><a xlink:href="ohrsettingsmessage_8h.html" target="_top" xlink:title=" ">
<polygon fill="none" stroke="black" points="154.5,-280.5 154.5,-299.5 279.5,-299.5 279.5,-280.5 154.5,-280.5"/>
<text text-anchor="middle" x="217" y="-287.5" font-family="Helvetica,sans-Serif" font-size="10.00">ohrsettingsmessage.h</text>
</a>
</g>
</g>
<!-- Node1&#45;&gt;Node2 -->
<g id="edge1" class="edge">
<title>Node1&#45;&gt;Node2</title>
<path fill="none" stroke="midnightblue" d="M154.05,-336.32C165.46,-328.11 182.83,-315.6 196.43,-305.81"/>
<polygon fill="midnightblue" stroke="midnightblue" points="198.66,-308.52 204.73,-299.83 194.57,-302.84 198.66,-308.52"/>
</g>
<!-- Node7 -->
<g id="node7" class="node">
<title>Node7</title>
<g id="a_node7"><a xlink:href="ohrsettingsmessage__p_8h.html" target="_top" xlink:title=" ">
<polygon fill="none" stroke="black" points="0,-280.5 0,-299.5 136,-299.5 136,-280.5 0,-280.5"/>
<text text-anchor="middle" x="68" y="-287.5" font-family="Helvetica,sans-Serif" font-size="10.00">ohrsettingsmessage_p.h</text>
</a>
</g>
</g>
<!-- Node1&#45;&gt;Node7 -->
<g id="edge7" class="edge">
<title>Node1&#45;&gt;Node7</title>
<path fill="none" stroke="midnightblue" d="M130.11,-336.32C118.85,-328.11 101.71,-315.6 88.29,-305.81"/>
<polygon fill="midnightblue" stroke="midnightblue" points="90.25,-302.9 80.11,-299.83 86.12,-308.56 90.25,-302.9"/>
</g>
<!-- Node3 -->
<g id="node3" class="node">
<title>Node3</title>
<g id="a_node3"><a xlink:href="fitdatamessage_8h.html" target="_top" xlink:title=" ">
<polygon fill="none" stroke="black" points="163.5,-168.5 163.5,-187.5 264.5,-187.5 264.5,-168.5 163.5,-168.5"/>
<text text-anchor="middle" x="214" y="-175.5" font-family="Helvetica,sans-Serif" font-size="10.00">fitdatamessage.h</text>
</a>
</g>
</g>
<!-- Node2&#45;&gt;Node3 -->
<g id="edge2" class="edge">
<title>Node2&#45;&gt;Node3</title>
<path fill="none" stroke="midnightblue" d="M216.76,-280.37C216.28,-262.62 215.16,-221.67 214.51,-197.6"/>
<polygon fill="midnightblue" stroke="midnightblue" points="218.01,-197.49 214.23,-187.59 211.01,-197.68 218.01,-197.49"/>
</g>
<!-- Node4 -->
<g id="node4" class="node">
<title>Node4</title>
<g id="a_node4"><a xlink:href="QtFit__global_8h.html" target="_top" xlink:title=" ">
<polygon fill="none" stroke="black" points="95,-56.5 95,-75.5 179,-75.5 179,-56.5 95,-56.5"/>
<text text-anchor="middle" x="137" y="-63.5" font-family="Helvetica,sans-Serif" font-size="10.00">QtFit_global.h</text>
</a>
</g>
</g>
<!-- Node3&#45;&gt;Node4 -->
<g id="edge3" class="edge">
<title>Node3&#45;&gt;Node4</title>
<path fill="none" stroke="midnightblue" d="M208.99,-168.39C201.54,-155.75 186.93,-131.56 173,-112 166.11,-102.32 157.86,-91.94 151.01,-83.59"/>
<polygon fill="midnightblue" stroke="midnightblue" points="153.56,-81.19 144.47,-75.74 148.18,-85.66 153.56,-81.19"/>
</g>
<!-- Node6 -->
<g id="node6" class="node">
<title>Node6</title>
<g id="a_node6"><a xlink:href="types_8h.html" target="_top" xlink:title="Types defined by the ANT+ FIT SDK.">
<polygon fill="none" stroke="black" points="110.5,-112.5 110.5,-131.5 163.5,-131.5 163.5,-112.5 110.5,-112.5"/>
<text text-anchor="middle" x="137" y="-119.5" font-family="Helvetica,sans-Serif" font-size="10.00">types.h</text>
</a>
</g>
</g>
<!-- Node3&#45;&gt;Node6 -->
<g id="edge5" class="edge">
<title>Node3&#45;&gt;Node6</title>
<path fill="none" stroke="midnightblue" d="M201.63,-168.32C189.84,-160.06 171.87,-147.45 157.86,-137.63"/>
<polygon fill="midnightblue" stroke="midnightblue" points="159.54,-134.53 149.34,-131.65 155.52,-140.26 159.54,-134.53"/>
</g>
<!-- Node5 -->
<g id="node5" class="node">
<title>Node5</title>
<g id="a_node5"><a xlink:title=" ">
<polygon fill="none" stroke="#bfbfbf" points="107.5,-0.5 107.5,-19.5 166.5,-19.5 166.5,-0.5 107.5,-0.5"/>
<text text-anchor="middle" x="137" y="-7.5" font-family="Helvetica,sans-Serif" font-size="10.00">QtGlobal</text>
</a>
</g>
</g>
<!-- Node4&#45;&gt;Node5 -->
<g id="edge4" class="edge">
<title>Node4&#45;&gt;Node5</title>
<path fill="none" stroke="midnightblue" d="M137,-56.08C137,-49.01 137,-38.86 137,-29.99"/>
<polygon fill="midnightblue" stroke="midnightblue" points="140.5,-29.75 137,-19.75 133.5,-29.75 140.5,-29.75"/>
</g>
<!-- Node6&#45;&gt;Node4 -->
<g id="edge6" class="edge">
<title>Node6&#45;&gt;Node4</title>
<path fill="none" stroke="midnightblue" d="M137,-112.08C137,-105.01 137,-94.86 137,-85.99"/>
<polygon fill="midnightblue" stroke="midnightblue" points="140.5,-85.75 137,-75.75 133.5,-85.75 140.5,-85.75"/>
</g>
<!-- Node8 -->
<g id="node8" class="node">
<title>Node8</title>
<g id="a_node8"><a xlink:href="fitdatamessage__p_8h.html" target="_top" xlink:title=" ">
<polygon fill="none" stroke="black" points="16.5,-224.5 16.5,-243.5 129.5,-243.5 129.5,-224.5 16.5,-224.5"/>
<text text-anchor="middle" x="73" y="-231.5" font-family="Helvetica,sans-Serif" font-size="10.00">fitdatamessage_p.h</text>
</a>
</g>
</g>
<!-- Node7&#45;&gt;Node8 -->
<g id="edge8" class="edge">
<title>Node7&#45;&gt;Node8</title>
<path fill="none" stroke="midnightblue" d="M68.83,-280.08C69.48,-273.01 70.42,-262.86 71.24,-253.99"/>
<polygon fill="midnightblue" stroke="midnightblue" points="74.75,-254.03 72.19,-243.75 67.78,-253.39 74.75,-254.03"/>
</g>
<!-- Node8&#45;&gt;Node4 -->
<g id="edge9" class="edge">
<title>Node8&#45;&gt;Node4</title>
<path fill="none" stroke="midnightblue" d="M62.01,-224.37C52.55,-216.17 39.56,-202.92 34,-188 27.06,-169.4 34.3,-122.45 42,-112 53.6,-96.26 72.14,-85.81 89.77,-78.98"/>
<polygon fill="midnightblue" stroke="midnightblue" points="91.17,-82.2 99.42,-75.55 88.82,-75.6 91.17,-82.2"/>
</g>
<!-- Node8&#45;&gt;Node6 -->
<g id="edge10" class="edge">
<title>Node8&#45;&gt;Node6</title>
<path fill="none" stroke="midnightblue" d="M83.61,-224.39C93.29,-216.02 107.37,-202.48 116,-188 124.63,-173.52 130.16,-155.07 133.36,-141.53"/>
<polygon fill="midnightblue" stroke="midnightblue" points="136.83,-142.02 135.52,-131.51 129.99,-140.54 136.83,-142.02"/>
</g>
<!-- Node9 -->
<g id="node9" class="node">
<title>Node9</title>
<g id="a_node9"><a xlink:href="types__p_8h.html" target="_top" xlink:title=" ">
<polygon fill="none" stroke="black" points="43,-168.5 43,-187.5 107,-187.5 107,-168.5 43,-168.5"/>
<text text-anchor="middle" x="75" y="-175.5" font-family="Helvetica,sans-Serif" font-size="10.00">types_p.h</text>
</a>
</g>
</g>
<!-- Node8&#45;&gt;Node9 -->
<g id="edge11" class="edge">
<title>Node8&#45;&gt;Node9</title>
<path fill="none" stroke="midnightblue" d="M73.33,-224.08C73.59,-217.01 73.97,-206.86 74.3,-197.99"/>
<polygon fill="midnightblue" stroke="midnightblue" points="77.8,-197.87 74.68,-187.75 70.81,-197.61 77.8,-197.87"/>
</g>
<!-- Node9&#45;&gt;Node6 -->
<g id="edge12" class="edge">
<title>Node9&#45;&gt;Node6</title>
<path fill="none" stroke="midnightblue" d="M84.96,-168.32C94.13,-160.34 107.94,-148.31 119.03,-138.65"/>
<polygon fill="midnightblue" stroke="midnightblue" points="121.62,-141.04 126.86,-131.83 117.02,-135.76 121.62,-141.04"/>
</g>
<!-- Node10 -->
<g id="node10" class="node">
<title>Node10</title>
<g id="a_node10"><a xlink:title=" ">
<polygon fill="none" stroke="#bfbfbf" points="51.5,-112.5 51.5,-131.5 92.5,-131.5 92.5,-112.5 51.5,-112.5"/>
<text text-anchor="middle" x="72" y="-119.5" font-family="Helvetica,sans-Serif" font-size="10.00">QList</text>
</a>
</g>
</g>
<!-- Node9&#45;&gt;Node10 -->
<g id="edge13" class="edge">
<title>Node9&#45;&gt;Node10</title>
<path fill="none" stroke="midnightblue" d="M74.5,-168.08C74.11,-161.01 73.55,-150.86 73.05,-141.99"/>
<polygon fill="midnightblue" stroke="midnightblue" points="76.54,-141.54 72.49,-131.75 69.55,-141.93 76.54,-141.54"/>
</g>
</g>
</svg>
