<?xml version="1.0" encoding="UTF-8" standalone="no"?>
<!DOCTYPE svg PUBLIC "-//W3C//DTD SVG 1.1//EN"
 "http://www.w3.org/Graphics/SVG/1.1/DTD/svg11.dtd">
<!-- Generated by graphviz version 2.43.0 (0)
 -->
<!-- Title: ohrsettingsmessage.cpp Pages: 1 -->
<svg width="405pt" height="364pt"
 viewBox="0.00 0.00 405.00 364.00" xmlns="http://www.w3.org/2000/svg" xmlns:xlink="http://www.w3.org/1999/xlink">
<g id="graph0" class="graph" transform="scale(1 1) rotate(0) translate(4 360)">
<title>ohrsettingsmessage.cpp</title>
<!-- Node1 -->
<g id="node1" class="node">
<title>Node1</title>
<g id="a_node1"><a xlink:title=" ">
<polygon fill="#bfbfbf" stroke="black" points="191.5,-336.5 191.5,-355.5 327.5,-355.5 327.5,-336.5 191.5,-336.5"/>
<text text-anchor="middle" x="259.5" y="-343.5" font-family="Helvetica,sans-Serif" font-size="10.00">ohrsettingsmessage.cpp</text>
</a>
</g>
</g>
<!-- Node2 -->
<g id="node2" class="node">
<title>Node2</title>
<g id="a_node2"><a xlink:href="ohrsettingsmessage_8h.html" target="_top" xlink:title=" ">
<polygon fill="none" stroke="black" points="0,-280.5 0,-299.5 125,-299.5 125,-280.5 0,-280.5"/>
<text text-anchor="middle" x="62.5" y="-287.5" font-family="Helvetica,sans-Serif" font-size="10.00">ohrsettingsmessage.h</text>
</a>
</g>
</g>
<!-- Node1&#45;&gt;Node2 -->
<g id="edge1" class="edge">
<title>Node1&#45;&gt;Node2</title>
<path fill="none" stroke="midnightblue" d="M228.28,-336.44C194.57,-327.2 140.7,-312.44 103.57,-302.26"/>
<polygon fill="midnightblue" stroke="midnightblue" points="104.14,-298.78 93.57,-299.52 102.29,-305.54 104.14,-298.78"/>
</g>
<!-- Node7 -->
<g id="node7" class="node">
<title>Node7</title>
<g id="a_node7"><a xlink:title=" ">
<polygon fill="none" stroke="#bfbfbf" points="238.5,-56.5 238.5,-75.5 294.5,-75.5 294.5,-56.5 238.5,-56.5"/>
<text text-anchor="middle" x="266.5" y="-63.5" font-family="Helvetica,sans-Serif" font-size="10.00">QDebug</text>
</a>
</g>
</g>
<!-- Node1&#45;&gt;Node7 -->
<g id="edge15" class="edge">
<title>Node1&#45;&gt;Node7</title>
<path fill="none" stroke="midnightblue" d="M266.17,-336.44C279.36,-318.62 307.5,-275.84 307.5,-235 307.5,-235 307.5,-235 307.5,-177 307.5,-142.52 289.59,-105.56 277.44,-84.47"/>
<polygon fill="midnightblue" stroke="midnightblue" points="280.34,-82.49 272.2,-75.71 274.34,-86.09 280.34,-82.49"/>
</g>
<!-- Node8 -->
<g id="node8" class="node">
<title>Node8</title>
<g id="a_node8"><a xlink:href="ohrsettingsmessage__p_8h.html" target="_top" xlink:title=" ">
<polygon fill="none" stroke="black" points="143.5,-280.5 143.5,-299.5 279.5,-299.5 279.5,-280.5 143.5,-280.5"/>
<text text-anchor="middle" x="211.5" y="-287.5" font-family="Helvetica,sans-Serif" font-size="10.00">ohrsettingsmessage_p.h</text>
</a>
</g>
</g>
<!-- Node1&#45;&gt;Node8 -->
<g id="edge8" class="edge">
<title>Node1&#45;&gt;Node8</title>
<path fill="none" stroke="midnightblue" d="M251.57,-336.08C244.65,-328.3 234.43,-316.8 226.05,-307.37"/>
<polygon fill="midnightblue" stroke="midnightblue" points="228.54,-304.9 219.28,-299.75 223.31,-309.55 228.54,-304.9"/>
</g>
<!-- Node12 -->
<g id="node12" class="node">
<title>Node12</title>
<g id="a_node12"><a xlink:title=" ">
<polygon fill="none" stroke="#bfbfbf" points="336,-280.5 336,-299.5 397,-299.5 397,-280.5 336,-280.5"/>
<text text-anchor="middle" x="366.5" y="-287.5" font-family="Helvetica,sans-Serif" font-size="10.00">QtEndian</text>
</a>
</g>
</g>
<!-- Node1&#45;&gt;Node12 -->
<g id="edge16" class="edge">
<title>Node1&#45;&gt;Node12</title>
<path fill="none" stroke="midnightblue" d="M276.69,-336.32C293.85,-327.66 320.45,-314.24 340.25,-304.25"/>
<polygon fill="midnightblue" stroke="midnightblue" points="342,-307.28 349.35,-299.65 338.85,-301.04 342,-307.28"/>
</g>
<!-- Node3 -->
<g id="node3" class="node">
<title>Node3</title>
<g id="a_node3"><a xlink:href="fitdatamessage_8h.html" target="_top" xlink:title=" ">
<polygon fill="none" stroke="black" points="10,-168.5 10,-187.5 111,-187.5 111,-168.5 10,-168.5"/>
<text text-anchor="middle" x="60.5" y="-175.5" font-family="Helvetica,sans-Serif" font-size="10.00">fitdatamessage.h</text>
</a>
</g>
</g>
<!-- Node2&#45;&gt;Node3 -->
<g id="edge2" class="edge">
<title>Node2&#45;&gt;Node3</title>
<path fill="none" stroke="midnightblue" d="M62.34,-280.37C62.02,-262.62 61.28,-221.67 60.84,-197.6"/>
<polygon fill="midnightblue" stroke="midnightblue" points="64.34,-197.53 60.66,-187.59 57.34,-197.65 64.34,-197.53"/>
</g>
<!-- Node4 -->
<g id="node4" class="node">
<title>Node4</title>
<g id="a_node4"><a xlink:href="QtFit__global_8h.html" target="_top" xlink:title=" ">
<polygon fill="none" stroke="black" points="96.5,-56.5 96.5,-75.5 180.5,-75.5 180.5,-56.5 96.5,-56.5"/>
<text text-anchor="middle" x="138.5" y="-63.5" font-family="Helvetica,sans-Serif" font-size="10.00">QtFit_global.h</text>
</a>
</g>
</g>
<!-- Node3&#45;&gt;Node4 -->
<g id="edge3" class="edge">
<title>Node3&#45;&gt;Node4</title>
<path fill="none" stroke="midnightblue" d="M66.62,-168.37C79.49,-150.22 109.57,-107.8 126.45,-83.99"/>
<polygon fill="midnightblue" stroke="midnightblue" points="129.48,-85.77 132.41,-75.59 123.77,-81.72 129.48,-85.77"/>
</g>
<!-- Node6 -->
<g id="node6" class="node">
<title>Node6</title>
<g id="a_node6"><a xlink:href="types_8h.html" target="_top" xlink:title="Types defined by the ANT+ FIT SDK.">
<polygon fill="none" stroke="black" points="167,-112.5 167,-131.5 220,-131.5 220,-112.5 167,-112.5"/>
<text text-anchor="middle" x="193.5" y="-119.5" font-family="Helvetica,sans-Serif" font-size="10.00">types.h</text>
</a>
</g>
</g>
<!-- Node3&#45;&gt;Node6 -->
<g id="edge5" class="edge">
<title>Node3&#45;&gt;Node6</title>
<path fill="none" stroke="midnightblue" d="M81.57,-168.44C103.56,-159.52 138.23,-145.44 163.16,-135.32"/>
<polygon fill="midnightblue" stroke="midnightblue" points="164.58,-138.52 172.52,-131.52 161.94,-132.04 164.58,-138.52"/>
</g>
<!-- Node5 -->
<g id="node5" class="node">
<title>Node5</title>
<g id="a_node5"><a xlink:title=" ">
<polygon fill="none" stroke="#bfbfbf" points="109,-0.5 109,-19.5 168,-19.5 168,-0.5 109,-0.5"/>
<text text-anchor="middle" x="138.5" y="-7.5" font-family="Helvetica,sans-Serif" font-size="10.00">QtGlobal</text>
</a>
</g>
</g>
<!-- Node4&#45;&gt;Node5 -->
<g id="edge4" class="edge">
<title>Node4&#45;&gt;Node5</title>
<path fill="none" stroke="midnightblue" d="M138.5,-56.08C138.5,-49.01 138.5,-38.86 138.5,-29.99"/>
<polygon fill="midnightblue" stroke="midnightblue" points="142,-29.75 138.5,-19.75 135,-29.75 142,-29.75"/>
</g>
<!-- Node6&#45;&gt;Node4 -->
<g id="edge6" class="edge">
<title>Node6&#45;&gt;Node4</title>
<path fill="none" stroke="midnightblue" d="M184.42,-112.08C176.33,-104.14 164.3,-92.34 154.59,-82.8"/>
<polygon fill="midnightblue" stroke="midnightblue" points="157,-80.26 147.41,-75.75 152.1,-85.25 157,-80.26"/>
</g>
<!-- Node6&#45;&gt;Node7 -->
<g id="edge7" class="edge">
<title>Node6&#45;&gt;Node7</title>
<path fill="none" stroke="midnightblue" d="M205.23,-112.32C216.34,-104.11 233.24,-91.6 246.48,-81.81"/>
<polygon fill="midnightblue" stroke="midnightblue" points="248.6,-84.59 254.56,-75.83 244.44,-78.97 248.6,-84.59"/>
</g>
<!-- Node9 -->
<g id="node9" class="node">
<title>Node9</title>
<g id="a_node9"><a xlink:href="fitdatamessage__p_8h.html" target="_top" xlink:title=" ">
<polygon fill="none" stroke="black" points="143,-224.5 143,-243.5 256,-243.5 256,-224.5 143,-224.5"/>
<text text-anchor="middle" x="199.5" y="-231.5" font-family="Helvetica,sans-Serif" font-size="10.00">fitdatamessage_p.h</text>
</a>
</g>
</g>
<!-- Node8&#45;&gt;Node9 -->
<g id="edge9" class="edge">
<title>Node8&#45;&gt;Node9</title>
<path fill="none" stroke="midnightblue" d="M209.52,-280.08C207.93,-272.93 205.64,-262.64 203.65,-253.69"/>
<polygon fill="midnightblue" stroke="midnightblue" points="207.03,-252.75 201.44,-243.75 200.2,-254.27 207.03,-252.75"/>
</g>
<!-- Node9&#45;&gt;Node4 -->
<g id="edge10" class="edge">
<title>Node9&#45;&gt;Node4</title>
<path fill="none" stroke="midnightblue" d="M195.58,-224.48C187.74,-207.24 169.82,-166.92 157.5,-132 152,-116.41 146.81,-98.33 143.25,-85.21"/>
<polygon fill="midnightblue" stroke="midnightblue" points="146.62,-84.27 140.67,-75.51 139.86,-86.07 146.62,-84.27"/>
</g>
<!-- Node9&#45;&gt;Node6 -->
<g id="edge11" class="edge">
<title>Node9&#45;&gt;Node6</title>
<path fill="none" stroke="midnightblue" d="M199.03,-224.37C198.06,-206.62 195.83,-165.67 194.51,-141.6"/>
<polygon fill="midnightblue" stroke="midnightblue" points="198.01,-141.39 193.97,-131.59 191.02,-141.77 198.01,-141.39"/>
</g>
<!-- Node10 -->
<g id="node10" class="node">
<title>Node10</title>
<g id="a_node10"><a xlink:href="types__p_8h.html" target="_top" xlink:title=" ">
<polygon fill="none" stroke="black" points="215.5,-168.5 215.5,-187.5 279.5,-187.5 279.5,-168.5 215.5,-168.5"/>
<text text-anchor="middle" x="247.5" y="-175.5" font-family="Helvetica,sans-Serif" font-size="10.00">types_p.h</text>
</a>
</g>
</g>
<!-- Node9&#45;&gt;Node10 -->
<g id="edge12" class="edge">
<title>Node9&#45;&gt;Node10</title>
<path fill="none" stroke="midnightblue" d="M207.43,-224.08C214.35,-216.3 224.57,-204.8 232.95,-195.37"/>
<polygon fill="midnightblue" stroke="midnightblue" points="235.69,-197.55 239.72,-187.75 230.46,-192.9 235.69,-197.55"/>
</g>
<!-- Node10&#45;&gt;Node6 -->
<g id="edge13" class="edge">
<title>Node10&#45;&gt;Node6</title>
<path fill="none" stroke="midnightblue" d="M238.58,-168.08C230.72,-160.22 219.07,-148.57 209.58,-139.08"/>
<polygon fill="midnightblue" stroke="midnightblue" points="211.8,-136.35 202.25,-131.75 206.85,-141.3 211.8,-136.35"/>
</g>
<!-- Node11 -->
<g id="node11" class="node">
<title>Node11</title>
<g id="a_node11"><a xlink:title=" ">
<polygon fill="none" stroke="#bfbfbf" points="238,-112.5 238,-131.5 279,-131.5 279,-112.5 238,-112.5"/>
<text text-anchor="middle" x="258.5" y="-119.5" font-family="Helvetica,sans-Serif" font-size="10.00">QList</text>
</a>
</g>
</g>
<!-- Node10&#45;&gt;Node11 -->
<g id="edge14" class="edge">
<title>Node10&#45;&gt;Node11</title>
<path fill="none" stroke="midnightblue" d="M249.32,-168.08C250.77,-160.93 252.87,-150.64 254.69,-141.69"/>
<polygon fill="midnightblue" stroke="midnightblue" points="258.15,-142.25 256.72,-131.75 251.29,-140.85 258.15,-142.25"/>
</g>
</g>
</svg>
