<?xml version="1.0" encoding="UTF-8" standalone="no"?>
<!DOCTYPE svg PUBLIC "-//W3C//DTD SVG 1.1//EN"
 "http://www.w3.org/Graphics/SVG/1.1/DTD/svg11.dtd">
<!-- Generated by graphviz version 2.43.0 (0)
 -->
<!-- Title: onedsensorcalibrationmessage.cpp Pages: 1 -->
<svg width="399pt" height="364pt"
 viewBox="0.00 0.00 399.00 364.00" xmlns="http://www.w3.org/2000/svg" xmlns:xlink="http://www.w3.org/1999/xlink">
<g id="graph0" class="graph" transform="scale(1 1) rotate(0) translate(4 360)">
<title>onedsensorcalibrationmessage.cpp</title>
<!-- Node1 -->
<g id="node1" class="node">
<title>Node1</title>
<g id="a_node1"><a xlink:title=" ">
<polygon fill="#bfbfbf" stroke="black" points="161,-336.5 161,-355.5 350,-355.5 350,-336.5 161,-336.5"/>
<text text-anchor="middle" x="255.5" y="-343.5" font-family="Helvetica,sans-Serif" font-size="10.00">onedsensorcalibrationmessage.cpp</text>
</a>
</g>
</g>
<!-- Node2 -->
<g id="node2" class="node">
<title>Node2</title>
<g id="a_node2"><a xlink:href="onedsensorcalibrationmessage_8h.html" target="_top" xlink:title=" ">
<polygon fill="none" stroke="black" points="149.5,-224.5 149.5,-243.5 327.5,-243.5 327.5,-224.5 149.5,-224.5"/>
<text text-anchor="middle" x="238.5" y="-231.5" font-family="Helvetica,sans-Serif" font-size="10.00">onedsensorcalibrationmessage.h</text>
</a>
</g>
</g>
<!-- Node1&#45;&gt;Node2 -->
<g id="edge1" class="edge">
<title>Node1&#45;&gt;Node2</title>
<path fill="none" stroke="midnightblue" d="M253.58,-336.41C251.61,-327.38 248.56,-312.74 246.5,-300 244.01,-284.55 241.88,-266.92 240.45,-253.92"/>
<polygon fill="midnightblue" stroke="midnightblue" points="243.92,-253.43 239.38,-243.86 236.96,-254.18 243.92,-253.43"/>
</g>
<!-- Node7 -->
<g id="node7" class="node">
<title>Node7</title>
<g id="a_node7"><a xlink:href="onedsensorcalibrationmessage__p_8h.html" target="_top" xlink:title=" ">
<polygon fill="none" stroke="black" points="0,-280.5 0,-299.5 189,-299.5 189,-280.5 0,-280.5"/>
<text text-anchor="middle" x="94.5" y="-287.5" font-family="Helvetica,sans-Serif" font-size="10.00">onedsensorcalibrationmessage_p.h</text>
</a>
</g>
</g>
<!-- Node1&#45;&gt;Node7 -->
<g id="edge7" class="edge">
<title>Node1&#45;&gt;Node7</title>
<path fill="none" stroke="midnightblue" d="M229.99,-336.44C202.9,-327.36 159.91,-312.94 129.63,-302.78"/>
<polygon fill="midnightblue" stroke="midnightblue" points="130.49,-299.38 119.89,-299.52 128.26,-306.01 130.49,-299.38"/>
</g>
<!-- Node11 -->
<g id="node11" class="node">
<title>Node11</title>
<g id="a_node11"><a xlink:title=" ">
<polygon fill="none" stroke="#bfbfbf" points="255.5,-280.5 255.5,-299.5 311.5,-299.5 311.5,-280.5 255.5,-280.5"/>
<text text-anchor="middle" x="283.5" y="-287.5" font-family="Helvetica,sans-Serif" font-size="10.00">QDebug</text>
</a>
</g>
</g>
<!-- Node1&#45;&gt;Node11 -->
<g id="edge14" class="edge">
<title>Node1&#45;&gt;Node11</title>
<path fill="none" stroke="midnightblue" d="M260.12,-336.08C263.96,-328.69 269.52,-317.95 274.26,-308.81"/>
<polygon fill="midnightblue" stroke="midnightblue" points="277.47,-310.24 278.96,-299.75 271.25,-307.02 277.47,-310.24"/>
</g>
<!-- Node12 -->
<g id="node12" class="node">
<title>Node12</title>
<g id="a_node12"><a xlink:title=" ">
<polygon fill="none" stroke="#bfbfbf" points="330,-280.5 330,-299.5 391,-299.5 391,-280.5 330,-280.5"/>
<text text-anchor="middle" x="360.5" y="-287.5" font-family="Helvetica,sans-Serif" font-size="10.00">QtEndian</text>
</a>
</g>
</g>
<!-- Node1&#45;&gt;Node12 -->
<g id="edge15" class="edge">
<title>Node1&#45;&gt;Node12</title>
<path fill="none" stroke="midnightblue" d="M272.37,-336.32C289.21,-327.66 315.31,-314.24 334.74,-304.25"/>
<polygon fill="midnightblue" stroke="midnightblue" points="336.38,-307.34 343.67,-299.65 333.18,-301.12 336.38,-307.34"/>
</g>
<!-- Node3 -->
<g id="node3" class="node">
<title>Node3</title>
<g id="a_node3"><a xlink:href="fitdatamessage_8h.html" target="_top" xlink:title=" ">
<polygon fill="none" stroke="black" points="176,-168.5 176,-187.5 277,-187.5 277,-168.5 176,-168.5"/>
<text text-anchor="middle" x="226.5" y="-175.5" font-family="Helvetica,sans-Serif" font-size="10.00">fitdatamessage.h</text>
</a>
</g>
</g>
<!-- Node2&#45;&gt;Node3 -->
<g id="edge2" class="edge">
<title>Node2&#45;&gt;Node3</title>
<path fill="none" stroke="midnightblue" d="M236.52,-224.08C234.93,-216.93 232.64,-206.64 230.65,-197.69"/>
<polygon fill="midnightblue" stroke="midnightblue" points="234.03,-196.75 228.44,-187.75 227.2,-198.27 234.03,-196.75"/>
</g>
<!-- Node4 -->
<g id="node4" class="node">
<title>Node4</title>
<g id="a_node4"><a xlink:href="QtFit__global_8h.html" target="_top" xlink:title=" ">
<polygon fill="none" stroke="black" points="107.5,-56.5 107.5,-75.5 191.5,-75.5 191.5,-56.5 107.5,-56.5"/>
<text text-anchor="middle" x="149.5" y="-63.5" font-family="Helvetica,sans-Serif" font-size="10.00">QtFit_global.h</text>
</a>
</g>
</g>
<!-- Node3&#45;&gt;Node4 -->
<g id="edge3" class="edge">
<title>Node3&#45;&gt;Node4</title>
<path fill="none" stroke="midnightblue" d="M221.49,-168.39C214.04,-155.75 199.43,-131.56 185.5,-112 178.61,-102.32 170.36,-91.94 163.51,-83.59"/>
<polygon fill="midnightblue" stroke="midnightblue" points="166.06,-81.19 156.97,-75.74 160.68,-85.66 166.06,-81.19"/>
</g>
<!-- Node6 -->
<g id="node6" class="node">
<title>Node6</title>
<g id="a_node6"><a xlink:href="types_8h.html" target="_top" xlink:title="Types defined by the ANT+ FIT SDK.">
<polygon fill="none" stroke="black" points="123,-112.5 123,-131.5 176,-131.5 176,-112.5 123,-112.5"/>
<text text-anchor="middle" x="149.5" y="-119.5" font-family="Helvetica,sans-Serif" font-size="10.00">types.h</text>
</a>
</g>
</g>
<!-- Node3&#45;&gt;Node6 -->
<g id="edge5" class="edge">
<title>Node3&#45;&gt;Node6</title>
<path fill="none" stroke="midnightblue" d="M214.13,-168.32C202.34,-160.06 184.37,-147.45 170.36,-137.63"/>
<polygon fill="midnightblue" stroke="midnightblue" points="172.04,-134.53 161.84,-131.65 168.02,-140.26 172.04,-134.53"/>
</g>
<!-- Node5 -->
<g id="node5" class="node">
<title>Node5</title>
<g id="a_node5"><a xlink:title=" ">
<polygon fill="none" stroke="#bfbfbf" points="120,-0.5 120,-19.5 179,-19.5 179,-0.5 120,-0.5"/>
<text text-anchor="middle" x="149.5" y="-7.5" font-family="Helvetica,sans-Serif" font-size="10.00">QtGlobal</text>
</a>
</g>
</g>
<!-- Node4&#45;&gt;Node5 -->
<g id="edge4" class="edge">
<title>Node4&#45;&gt;Node5</title>
<path fill="none" stroke="midnightblue" d="M149.5,-56.08C149.5,-49.01 149.5,-38.86 149.5,-29.99"/>
<polygon fill="midnightblue" stroke="midnightblue" points="153,-29.75 149.5,-19.75 146,-29.75 153,-29.75"/>
</g>
<!-- Node6&#45;&gt;Node4 -->
<g id="edge6" class="edge">
<title>Node6&#45;&gt;Node4</title>
<path fill="none" stroke="midnightblue" d="M149.5,-112.08C149.5,-105.01 149.5,-94.86 149.5,-85.99"/>
<polygon fill="midnightblue" stroke="midnightblue" points="153,-85.75 149.5,-75.75 146,-85.75 153,-85.75"/>
</g>
<!-- Node8 -->
<g id="node8" class="node">
<title>Node8</title>
<g id="a_node8"><a xlink:href="fitdatamessage__p_8h.html" target="_top" xlink:title=" ">
<polygon fill="none" stroke="black" points="18,-224.5 18,-243.5 131,-243.5 131,-224.5 18,-224.5"/>
<text text-anchor="middle" x="74.5" y="-231.5" font-family="Helvetica,sans-Serif" font-size="10.00">fitdatamessage_p.h</text>
</a>
</g>
</g>
<!-- Node7&#45;&gt;Node8 -->
<g id="edge8" class="edge">
<title>Node7&#45;&gt;Node8</title>
<path fill="none" stroke="midnightblue" d="M91.2,-280.08C88.52,-272.85 84.65,-262.41 81.31,-253.4"/>
<polygon fill="midnightblue" stroke="midnightblue" points="84.5,-251.91 77.74,-243.75 77.93,-254.34 84.5,-251.91"/>
</g>
<!-- Node8&#45;&gt;Node4 -->
<g id="edge9" class="edge">
<title>Node8&#45;&gt;Node4</title>
<path fill="none" stroke="midnightblue" d="M67.09,-224.41C60.22,-215.84 50.49,-201.98 46.5,-188 40.73,-167.81 50.11,-117.96 54.5,-112 66.1,-96.26 84.64,-85.81 102.27,-78.98"/>
<polygon fill="midnightblue" stroke="midnightblue" points="103.67,-82.2 111.92,-75.55 101.32,-75.6 103.67,-82.2"/>
</g>
<!-- Node8&#45;&gt;Node6 -->
<g id="edge10" class="edge">
<title>Node8&#45;&gt;Node6</title>
<path fill="none" stroke="midnightblue" d="M88.85,-224.36C101.02,-216.35 118.11,-203.37 128.5,-188 137.94,-174.03 143.37,-155.53 146.34,-141.83"/>
<polygon fill="midnightblue" stroke="midnightblue" points="149.84,-142.15 148.28,-131.67 142.96,-140.84 149.84,-142.15"/>
</g>
<!-- Node9 -->
<g id="node9" class="node">
<title>Node9</title>
<g id="a_node9"><a xlink:href="types__p_8h.html" target="_top" xlink:title=" ">
<polygon fill="none" stroke="black" points="55.5,-168.5 55.5,-187.5 119.5,-187.5 119.5,-168.5 55.5,-168.5"/>
<text text-anchor="middle" x="87.5" y="-175.5" font-family="Helvetica,sans-Serif" font-size="10.00">types_p.h</text>
</a>
</g>
</g>
<!-- Node8&#45;&gt;Node9 -->
<g id="edge11" class="edge">
<title>Node8&#45;&gt;Node9</title>
<path fill="none" stroke="midnightblue" d="M76.65,-224.08C78.37,-216.93 80.85,-206.64 83,-197.69"/>
<polygon fill="midnightblue" stroke="midnightblue" points="86.46,-198.29 85.39,-187.75 79.65,-196.65 86.46,-198.29"/>
</g>
<!-- Node9&#45;&gt;Node6 -->
<g id="edge12" class="edge">
<title>Node9&#45;&gt;Node6</title>
<path fill="none" stroke="midnightblue" d="M97.46,-168.32C106.63,-160.34 120.44,-148.31 131.53,-138.65"/>
<polygon fill="midnightblue" stroke="midnightblue" points="134.12,-141.04 139.36,-131.83 129.52,-135.76 134.12,-141.04"/>
</g>
<!-- Node10 -->
<g id="node10" class="node">
<title>Node10</title>
<g id="a_node10"><a xlink:title=" ">
<polygon fill="none" stroke="#bfbfbf" points="64,-112.5 64,-131.5 105,-131.5 105,-112.5 64,-112.5"/>
<text text-anchor="middle" x="84.5" y="-119.5" font-family="Helvetica,sans-Serif" font-size="10.00">QList</text>
</a>
</g>
</g>
<!-- Node9&#45;&gt;Node10 -->
<g id="edge13" class="edge">
<title>Node9&#45;&gt;Node10</title>
<path fill="none" stroke="midnightblue" d="M87,-168.08C86.61,-161.01 86.05,-150.86 85.55,-141.99"/>
<polygon fill="midnightblue" stroke="midnightblue" points="89.04,-141.54 84.99,-131.75 82.05,-141.93 89.04,-141.54"/>
</g>
</g>
</svg>
