<?xml version="1.0" encoding="UTF-8" standalone="no"?>
<!DOCTYPE svg PUBLIC "-//W3C//DTD SVG 1.1//EN"
 "http://www.w3.org/Graphics/SVG/1.1/DTD/svg11.dtd">
<!-- Generated by graphviz version 2.43.0 (0)
 -->
<!-- Title: onedsensorcalibrationmessage.cpp Pages: 1 -->
<svg width="512pt" height="364pt"
 viewBox="0.00 0.00 511.50 364.00" xmlns="http://www.w3.org/2000/svg" xmlns:xlink="http://www.w3.org/1999/xlink">
<g id="graph0" class="graph" transform="scale(1 1) rotate(0) translate(4 360)">
<title>onedsensorcalibrationmessage.cpp</title>
<!-- Node1 -->
<g id="node1" class="node">
<title>Node1</title>
<g id="a_node1"><a xlink:title=" ">
<polygon fill="#bfbfbf" stroke="black" points="257.5,-336.5 257.5,-355.5 446.5,-355.5 446.5,-336.5 257.5,-336.5"/>
<text text-anchor="middle" x="352" y="-343.5" font-family="Helvetica,sans-Serif" font-size="10.00">onedsensorcalibrationmessage.cpp</text>
</a>
</g>
</g>
<!-- Node2 -->
<g id="node2" class="node">
<title>Node2</title>
<g id="a_node2"><a xlink:href="onedsensorcalibrationmessage_8h.html" target="_top" xlink:title=" ">
<polygon fill="none" stroke="black" points="0,-280.5 0,-299.5 178,-299.5 178,-280.5 0,-280.5"/>
<text text-anchor="middle" x="89" y="-287.5" font-family="Helvetica,sans-Serif" font-size="10.00">onedsensorcalibrationmessage.h</text>
</a>
</g>
</g>
<!-- Node1&#45;&gt;Node2 -->
<g id="edge1" class="edge">
<title>Node1&#45;&gt;Node2</title>
<path fill="none" stroke="midnightblue" d="M310.33,-336.44C264.25,-326.98 190,-311.74 140.37,-301.55"/>
<polygon fill="midnightblue" stroke="midnightblue" points="140.98,-298.1 130.48,-299.52 139.57,-304.96 140.98,-298.1"/>
</g>
<!-- Node7 -->
<g id="node7" class="node">
<title>Node7</title>
<g id="a_node7"><a xlink:title=" ">
<polygon fill="none" stroke="#bfbfbf" points="345,-56.5 345,-75.5 401,-75.5 401,-56.5 345,-56.5"/>
<text text-anchor="middle" x="373" y="-63.5" font-family="Helvetica,sans-Serif" font-size="10.00">QDebug</text>
</a>
</g>
</g>
<!-- Node1&#45;&gt;Node7 -->
<g id="edge15" class="edge">
<title>Node1&#45;&gt;Node7</title>
<path fill="none" stroke="midnightblue" d="M362.7,-336.45C372.45,-328.12 386.57,-314.6 395,-300 410.05,-273.93 414,-265.1 414,-235 414,-235 414,-235 414,-177 414,-142.52 396.09,-105.56 383.94,-84.47"/>
<polygon fill="midnightblue" stroke="midnightblue" points="386.84,-82.49 378.7,-75.71 380.84,-86.09 386.84,-82.49"/>
</g>
<!-- Node8 -->
<g id="node8" class="node">
<title>Node8</title>
<g id="a_node8"><a xlink:href="onedsensorcalibrationmessage__p_8h.html" target="_top" xlink:title=" ">
<polygon fill="none" stroke="black" points="196.5,-280.5 196.5,-299.5 385.5,-299.5 385.5,-280.5 196.5,-280.5"/>
<text text-anchor="middle" x="291" y="-287.5" font-family="Helvetica,sans-Serif" font-size="10.00">onedsensorcalibrationmessage_p.h</text>
</a>
</g>
</g>
<!-- Node1&#45;&gt;Node8 -->
<g id="edge8" class="edge">
<title>Node1&#45;&gt;Node8</title>
<path fill="none" stroke="midnightblue" d="M342.2,-336.32C333.18,-328.34 319.59,-316.31 308.68,-306.65"/>
<polygon fill="midnightblue" stroke="midnightblue" points="310.79,-303.84 300.98,-299.83 306.15,-309.08 310.79,-303.84"/>
</g>
<!-- Node12 -->
<g id="node12" class="node">
<title>Node12</title>
<g id="a_node12"><a xlink:title=" ">
<polygon fill="none" stroke="#bfbfbf" points="442.5,-280.5 442.5,-299.5 503.5,-299.5 503.5,-280.5 442.5,-280.5"/>
<text text-anchor="middle" x="473" y="-287.5" font-family="Helvetica,sans-Serif" font-size="10.00">QtEndian</text>
</a>
</g>
</g>
<!-- Node1&#45;&gt;Node12 -->
<g id="edge16" class="edge">
<title>Node1&#45;&gt;Node12</title>
<path fill="none" stroke="midnightblue" d="M371.17,-336.44C390.91,-327.64 421.89,-313.81 444.49,-303.72"/>
<polygon fill="midnightblue" stroke="midnightblue" points="446.21,-306.79 453.92,-299.52 443.36,-300.4 446.21,-306.79"/>
</g>
<!-- Node3 -->
<g id="node3" class="node">
<title>Node3</title>
<g id="a_node3"><a xlink:href="fitdatamessage_8h.html" target="_top" xlink:title=" ">
<polygon fill="none" stroke="black" points="110.5,-168.5 110.5,-187.5 211.5,-187.5 211.5,-168.5 110.5,-168.5"/>
<text text-anchor="middle" x="161" y="-175.5" font-family="Helvetica,sans-Serif" font-size="10.00">fitdatamessage.h</text>
</a>
</g>
</g>
<!-- Node2&#45;&gt;Node3 -->
<g id="edge2" class="edge">
<title>Node2&#45;&gt;Node3</title>
<path fill="none" stroke="midnightblue" d="M94.65,-280.37C106.53,-262.22 134.29,-219.8 149.88,-195.99"/>
<polygon fill="midnightblue" stroke="midnightblue" points="152.83,-197.88 155.38,-187.59 146.97,-194.04 152.83,-197.88"/>
</g>
<!-- Node4 -->
<g id="node4" class="node">
<title>Node4</title>
<g id="a_node4"><a xlink:href="QtFit__global_8h.html" target="_top" xlink:title=" ">
<polygon fill="none" stroke="black" points="198,-56.5 198,-75.5 282,-75.5 282,-56.5 198,-56.5"/>
<text text-anchor="middle" x="240" y="-63.5" font-family="Helvetica,sans-Serif" font-size="10.00">QtFit_global.h</text>
</a>
</g>
</g>
<!-- Node3&#45;&gt;Node4 -->
<g id="edge3" class="edge">
<title>Node3&#45;&gt;Node4</title>
<path fill="none" stroke="midnightblue" d="M167.2,-168.37C180.24,-150.22 210.7,-107.8 227.8,-83.99"/>
<polygon fill="midnightblue" stroke="midnightblue" points="230.84,-85.76 233.83,-75.59 225.15,-81.67 230.84,-85.76"/>
</g>
<!-- Node6 -->
<g id="node6" class="node">
<title>Node6</title>
<g id="a_node6"><a xlink:href="types_8h.html" target="_top" xlink:title="Types defined by the ANT+ FIT SDK.">
<polygon fill="none" stroke="black" points="268.5,-112.5 268.5,-131.5 321.5,-131.5 321.5,-112.5 268.5,-112.5"/>
<text text-anchor="middle" x="295" y="-119.5" font-family="Helvetica,sans-Serif" font-size="10.00">types.h</text>
</a>
</g>
</g>
<!-- Node3&#45;&gt;Node6 -->
<g id="edge5" class="edge">
<title>Node3&#45;&gt;Node6</title>
<path fill="none" stroke="midnightblue" d="M182.23,-168.44C204.38,-159.52 239.32,-145.44 264.44,-135.32"/>
<polygon fill="midnightblue" stroke="midnightblue" points="265.9,-138.5 273.87,-131.52 263.28,-132.01 265.9,-138.5"/>
</g>
<!-- Node5 -->
<g id="node5" class="node">
<title>Node5</title>
<g id="a_node5"><a xlink:title=" ">
<polygon fill="none" stroke="#bfbfbf" points="210.5,-0.5 210.5,-19.5 269.5,-19.5 269.5,-0.5 210.5,-0.5"/>
<text text-anchor="middle" x="240" y="-7.5" font-family="Helvetica,sans-Serif" font-size="10.00">QtGlobal</text>
</a>
</g>
</g>
<!-- Node4&#45;&gt;Node5 -->
<g id="edge4" class="edge">
<title>Node4&#45;&gt;Node5</title>
<path fill="none" stroke="midnightblue" d="M240,-56.08C240,-49.01 240,-38.86 240,-29.99"/>
<polygon fill="midnightblue" stroke="midnightblue" points="243.5,-29.75 240,-19.75 236.5,-29.75 243.5,-29.75"/>
</g>
<!-- Node6&#45;&gt;Node4 -->
<g id="edge6" class="edge">
<title>Node6&#45;&gt;Node4</title>
<path fill="none" stroke="midnightblue" d="M285.92,-112.08C277.83,-104.14 265.8,-92.34 256.09,-82.8"/>
<polygon fill="midnightblue" stroke="midnightblue" points="258.5,-80.26 248.91,-75.75 253.6,-85.25 258.5,-80.26"/>
</g>
<!-- Node6&#45;&gt;Node7 -->
<g id="edge7" class="edge">
<title>Node6&#45;&gt;Node7</title>
<path fill="none" stroke="midnightblue" d="M307.53,-112.32C319.59,-103.98 338.03,-91.21 352.27,-81.35"/>
<polygon fill="midnightblue" stroke="midnightblue" points="354.27,-84.22 360.5,-75.65 350.28,-78.47 354.27,-84.22"/>
</g>
<!-- Node9 -->
<g id="node9" class="node">
<title>Node9</title>
<g id="a_node9"><a xlink:href="fitdatamessage__p_8h.html" target="_top" xlink:title=" ">
<polygon fill="none" stroke="black" points="234.5,-224.5 234.5,-243.5 347.5,-243.5 347.5,-224.5 234.5,-224.5"/>
<text text-anchor="middle" x="291" y="-231.5" font-family="Helvetica,sans-Serif" font-size="10.00">fitdatamessage_p.h</text>
</a>
</g>
</g>
<!-- Node8&#45;&gt;Node9 -->
<g id="edge9" class="edge">
<title>Node8&#45;&gt;Node9</title>
<path fill="none" stroke="midnightblue" d="M291,-280.08C291,-273.01 291,-262.86 291,-253.99"/>
<polygon fill="midnightblue" stroke="midnightblue" points="294.5,-253.75 291,-243.75 287.5,-253.75 294.5,-253.75"/>
</g>
<!-- Node9&#45;&gt;Node4 -->
<g id="edge10" class="edge">
<title>Node9&#45;&gt;Node4</title>
<path fill="none" stroke="midnightblue" d="M288.19,-224.37C282.55,-206.95 269.45,-166.31 259,-132 254.24,-116.36 249.04,-98.53 245.29,-85.51"/>
<polygon fill="midnightblue" stroke="midnightblue" points="248.64,-84.5 242.52,-75.85 241.91,-86.43 248.64,-84.5"/>
</g>
<!-- Node9&#45;&gt;Node6 -->
<g id="edge11" class="edge">
<title>Node9&#45;&gt;Node6</title>
<path fill="none" stroke="midnightblue" d="M291.31,-224.37C291.96,-206.62 293.45,-165.67 294.32,-141.6"/>
<polygon fill="midnightblue" stroke="midnightblue" points="297.82,-141.71 294.69,-131.59 290.83,-141.46 297.82,-141.71"/>
</g>
<!-- Node10 -->
<g id="node10" class="node">
<title>Node10</title>
<g id="a_node10"><a xlink:href="types__p_8h.html" target="_top" xlink:title=" ">
<polygon fill="none" stroke="black" points="319,-168.5 319,-187.5 383,-187.5 383,-168.5 319,-168.5"/>
<text text-anchor="middle" x="351" y="-175.5" font-family="Helvetica,sans-Serif" font-size="10.00">types_p.h</text>
</a>
</g>
</g>
<!-- Node9&#45;&gt;Node10 -->
<g id="edge12" class="edge">
<title>Node9&#45;&gt;Node10</title>
<path fill="none" stroke="midnightblue" d="M300.64,-224.32C309.51,-216.34 322.87,-204.31 333.61,-194.65"/>
<polygon fill="midnightblue" stroke="midnightblue" points="336.09,-197.13 341.18,-187.83 331.41,-191.92 336.09,-197.13"/>
</g>
<!-- Node10&#45;&gt;Node6 -->
<g id="edge13" class="edge">
<title>Node10&#45;&gt;Node6</title>
<path fill="none" stroke="midnightblue" d="M342,-168.32C333.81,-160.42 321.49,-148.55 311.53,-138.94"/>
<polygon fill="midnightblue" stroke="midnightblue" points="313.79,-136.26 304.16,-131.83 308.93,-141.29 313.79,-136.26"/>
</g>
<!-- Node11 -->
<g id="node11" class="node">
<title>Node11</title>
<g id="a_node11"><a xlink:title=" ">
<polygon fill="none" stroke="#bfbfbf" points="339.5,-112.5 339.5,-131.5 380.5,-131.5 380.5,-112.5 339.5,-112.5"/>
<text text-anchor="middle" x="360" y="-119.5" font-family="Helvetica,sans-Serif" font-size="10.00">QList</text>
</a>
</g>
</g>
<!-- Node10&#45;&gt;Node11 -->
<g id="edge14" class="edge">
<title>Node10&#45;&gt;Node11</title>
<path fill="none" stroke="midnightblue" d="M352.49,-168.08C353.68,-160.93 355.39,-150.64 356.88,-141.69"/>
<polygon fill="midnightblue" stroke="midnightblue" points="360.35,-142.19 358.54,-131.75 353.45,-141.04 360.35,-142.19"/>
</g>
</g>
</svg>
