<?xml version="1.0" encoding="UTF-8" standalone="no"?>
<!DOCTYPE svg PUBLIC "-//W3C//DTD SVG 1.1//EN"
 "http://www.w3.org/Graphics/SVG/1.1/DTD/svg11.dtd">
<!-- Generated by graphviz version 2.43.0 (0)
 -->
<!-- Title: onedsensorcalibrationmessage.cpp Pages: 1 -->
<svg width="394pt" height="364pt"
 viewBox="0.00 0.00 393.50 364.00" xmlns="http://www.w3.org/2000/svg" xmlns:xlink="http://www.w3.org/1999/xlink">
<g id="graph0" class="graph" transform="scale(1 1) rotate(0) translate(4 360)">
<title>onedsensorcalibrationmessage.cpp</title>
<!-- Node1 -->
<g id="node1" class="node">
<title>Node1</title>
<g id="a_node1"><a xlink:title=" ">
<polygon fill="#bfbfbf" stroke="black" points="101,-336.5 101,-355.5 290,-355.5 290,-336.5 101,-336.5"/>
<text text-anchor="middle" x="195.5" y="-343.5" font-family="Helvetica,sans-Serif" font-size="10.00">onedsensorcalibrationmessage.cpp</text>
</a>
</g>
</g>
<!-- Node2 -->
<g id="node2" class="node">
<title>Node2</title>
<g id="a_node2"><a xlink:href="onedsensorcalibrationmessage_8h.html" target="_top" xlink:title=" ">
<polygon fill="none" stroke="black" points="207.5,-280.5 207.5,-299.5 385.5,-299.5 385.5,-280.5 207.5,-280.5"/>
<text text-anchor="middle" x="296.5" y="-287.5" font-family="Helvetica,sans-Serif" font-size="10.00">onedsensorcalibrationmessage.h</text>
</a>
</g>
</g>
<!-- Node1&#45;&gt;Node2 -->
<g id="edge1" class="edge">
<title>Node1&#45;&gt;Node2</title>
<path fill="none" stroke="midnightblue" d="M211.73,-336.32C227.85,-327.7 252.8,-314.36 271.46,-304.39"/>
<polygon fill="midnightblue" stroke="midnightblue" points="273.14,-307.46 280.31,-299.65 269.84,-301.28 273.14,-307.46"/>
</g>
<!-- Node7 -->
<g id="node7" class="node">
<title>Node7</title>
<g id="a_node7"><a xlink:href="onedsensorcalibrationmessage__p_8h.html" target="_top" xlink:title=" ">
<polygon fill="none" stroke="black" points="0,-280.5 0,-299.5 189,-299.5 189,-280.5 0,-280.5"/>
<text text-anchor="middle" x="94.5" y="-287.5" font-family="Helvetica,sans-Serif" font-size="10.00">onedsensorcalibrationmessage_p.h</text>
</a>
</g>
</g>
<!-- Node1&#45;&gt;Node7 -->
<g id="edge7" class="edge">
<title>Node1&#45;&gt;Node7</title>
<path fill="none" stroke="midnightblue" d="M179.27,-336.32C163.15,-327.7 138.2,-314.36 119.54,-304.39"/>
<polygon fill="midnightblue" stroke="midnightblue" points="121.16,-301.28 110.69,-299.65 117.86,-307.46 121.16,-301.28"/>
</g>
<!-- Node3 -->
<g id="node3" class="node">
<title>Node3</title>
<g id="a_node3"><a xlink:href="fitdatamessage_8h.html" target="_top" xlink:title=" ">
<polygon fill="none" stroke="black" points="230,-168.5 230,-187.5 331,-187.5 331,-168.5 230,-168.5"/>
<text text-anchor="middle" x="280.5" y="-175.5" font-family="Helvetica,sans-Serif" font-size="10.00">fitdatamessage.h</text>
</a>
</g>
</g>
<!-- Node2&#45;&gt;Node3 -->
<g id="edge2" class="edge">
<title>Node2&#45;&gt;Node3</title>
<path fill="none" stroke="midnightblue" d="M295.24,-280.37C292.66,-262.62 286.71,-221.67 283.21,-197.6"/>
<polygon fill="midnightblue" stroke="midnightblue" points="286.65,-196.98 281.75,-187.59 279.73,-197.99 286.65,-196.98"/>
</g>
<!-- Node4 -->
<g id="node4" class="node">
<title>Node4</title>
<g id="a_node4"><a xlink:href="QtFit__global_8h.html" target="_top" xlink:title=" ">
<polygon fill="none" stroke="black" points="161.5,-56.5 161.5,-75.5 245.5,-75.5 245.5,-56.5 161.5,-56.5"/>
<text text-anchor="middle" x="203.5" y="-63.5" font-family="Helvetica,sans-Serif" font-size="10.00">QtFit_global.h</text>
</a>
</g>
</g>
<!-- Node3&#45;&gt;Node4 -->
<g id="edge3" class="edge">
<title>Node3&#45;&gt;Node4</title>
<path fill="none" stroke="midnightblue" d="M275.49,-168.39C268.04,-155.75 253.43,-131.56 239.5,-112 232.61,-102.32 224.36,-91.94 217.51,-83.59"/>
<polygon fill="midnightblue" stroke="midnightblue" points="220.06,-81.19 210.97,-75.74 214.68,-85.66 220.06,-81.19"/>
</g>
<!-- Node6 -->
<g id="node6" class="node">
<title>Node6</title>
<g id="a_node6"><a xlink:href="types_8h.html" target="_top" xlink:title="Types defined by the ANT+ FIT SDK.">
<polygon fill="none" stroke="black" points="177,-112.5 177,-131.5 230,-131.5 230,-112.5 177,-112.5"/>
<text text-anchor="middle" x="203.5" y="-119.5" font-family="Helvetica,sans-Serif" font-size="10.00">types.h</text>
</a>
</g>
</g>
<!-- Node3&#45;&gt;Node6 -->
<g id="edge5" class="edge">
<title>Node3&#45;&gt;Node6</title>
<path fill="none" stroke="midnightblue" d="M268.13,-168.32C256.34,-160.06 238.37,-147.45 224.36,-137.63"/>
<polygon fill="midnightblue" stroke="midnightblue" points="226.04,-134.53 215.84,-131.65 222.02,-140.26 226.04,-134.53"/>
</g>
<!-- Node5 -->
<g id="node5" class="node">
<title>Node5</title>
<g id="a_node5"><a xlink:title=" ">
<polygon fill="none" stroke="#bfbfbf" points="174,-0.5 174,-19.5 233,-19.5 233,-0.5 174,-0.5"/>
<text text-anchor="middle" x="203.5" y="-7.5" font-family="Helvetica,sans-Serif" font-size="10.00">QtGlobal</text>
</a>
</g>
</g>
<!-- Node4&#45;&gt;Node5 -->
<g id="edge4" class="edge">
<title>Node4&#45;&gt;Node5</title>
<path fill="none" stroke="midnightblue" d="M203.5,-56.08C203.5,-49.01 203.5,-38.86 203.5,-29.99"/>
<polygon fill="midnightblue" stroke="midnightblue" points="207,-29.75 203.5,-19.75 200,-29.75 207,-29.75"/>
</g>
<!-- Node6&#45;&gt;Node4 -->
<g id="edge6" class="edge">
<title>Node6&#45;&gt;Node4</title>
<path fill="none" stroke="midnightblue" d="M203.5,-112.08C203.5,-105.01 203.5,-94.86 203.5,-85.99"/>
<polygon fill="midnightblue" stroke="midnightblue" points="207,-85.75 203.5,-75.75 200,-85.75 207,-85.75"/>
</g>
<!-- Node8 -->
<g id="node8" class="node">
<title>Node8</title>
<g id="a_node8"><a xlink:href="fitdatamessage__p_8h.html" target="_top" xlink:title=" ">
<polygon fill="none" stroke="black" points="69,-224.5 69,-243.5 182,-243.5 182,-224.5 69,-224.5"/>
<text text-anchor="middle" x="125.5" y="-231.5" font-family="Helvetica,sans-Serif" font-size="10.00">fitdatamessage_p.h</text>
</a>
</g>
</g>
<!-- Node7&#45;&gt;Node8 -->
<g id="edge8" class="edge">
<title>Node7&#45;&gt;Node8</title>
<path fill="none" stroke="midnightblue" d="M99.62,-280.08C103.91,-272.61 110.16,-261.72 115.44,-252.52"/>
<polygon fill="midnightblue" stroke="midnightblue" points="118.53,-254.17 120.48,-243.75 112.46,-250.68 118.53,-254.17"/>
</g>
<!-- Node8&#45;&gt;Node4 -->
<g id="edge9" class="edge">
<title>Node8&#45;&gt;Node4</title>
<path fill="none" stroke="midnightblue" d="M118.87,-224.27C112.73,-215.61 104.04,-201.67 100.5,-188 95.13,-167.27 105.23,-116.44 108.5,-112 120.1,-96.26 138.64,-85.81 156.27,-78.98"/>
<polygon fill="midnightblue" stroke="midnightblue" points="157.67,-82.2 165.92,-75.55 155.32,-75.6 157.67,-82.2"/>
</g>
<!-- Node8&#45;&gt;Node6 -->
<g id="edge10" class="edge">
<title>Node8&#45;&gt;Node6</title>
<path fill="none" stroke="midnightblue" d="M140.92,-224.39C153.75,-216.48 171.63,-203.63 182.5,-188 192.13,-174.15 197.54,-155.64 200.45,-141.91"/>
<polygon fill="midnightblue" stroke="midnightblue" points="203.95,-142.18 202.34,-131.71 197.07,-140.9 203.95,-142.18"/>
</g>
<!-- Node9 -->
<g id="node9" class="node">
<title>Node9</title>
<g id="a_node9"><a xlink:href="types__p_8h.html" target="_top" xlink:title=" ">
<polygon fill="none" stroke="black" points="109.5,-168.5 109.5,-187.5 173.5,-187.5 173.5,-168.5 109.5,-168.5"/>
<text text-anchor="middle" x="141.5" y="-175.5" font-family="Helvetica,sans-Serif" font-size="10.00">types_p.h</text>
</a>
</g>
</g>
<!-- Node8&#45;&gt;Node9 -->
<g id="edge11" class="edge">
<title>Node8&#45;&gt;Node9</title>
<path fill="none" stroke="midnightblue" d="M128.14,-224.08C130.29,-216.85 133.38,-206.41 136.05,-197.4"/>
<polygon fill="midnightblue" stroke="midnightblue" points="139.42,-198.33 138.91,-187.75 132.71,-196.34 139.42,-198.33"/>
</g>
<!-- Node9&#45;&gt;Node6 -->
<g id="edge12" class="edge">
<title>Node9&#45;&gt;Node6</title>
<path fill="none" stroke="midnightblue" d="M151.46,-168.32C160.63,-160.34 174.44,-148.31 185.53,-138.65"/>
<polygon fill="midnightblue" stroke="midnightblue" points="188.12,-141.04 193.36,-131.83 183.52,-135.76 188.12,-141.04"/>
</g>
<!-- Node10 -->
<g id="node10" class="node">
<title>Node10</title>
<g id="a_node10"><a xlink:title=" ">
<polygon fill="none" stroke="#bfbfbf" points="118,-112.5 118,-131.5 159,-131.5 159,-112.5 118,-112.5"/>
<text text-anchor="middle" x="138.5" y="-119.5" font-family="Helvetica,sans-Serif" font-size="10.00">QList</text>
</a>
</g>
</g>
<!-- Node9&#45;&gt;Node10 -->
<g id="edge13" class="edge">
<title>Node9&#45;&gt;Node10</title>
<path fill="none" stroke="midnightblue" d="M141,-168.08C140.61,-161.01 140.05,-150.86 139.55,-141.99"/>
<polygon fill="midnightblue" stroke="midnightblue" points="143.04,-141.54 138.99,-131.75 136.05,-141.93 143.04,-141.54"/>
</g>
</g>
</svg>
