<?xml version="1.0" encoding="UTF-8" standalone="no"?>
<!DOCTYPE svg PUBLIC "-//W3C//DTD SVG 1.1//EN"
 "http://www.w3.org/Graphics/SVG/1.1/DTD/svg11.dtd">
<!-- Generated by graphviz version 2.43.0 (0)
 -->
<!-- Title: QtFit_global.h Pages: 1 -->
<svg width="489pt" height="308pt"
 viewBox="0.00 0.00 488.50 308.00" xmlns="http://www.w3.org/2000/svg" xmlns:xlink="http://www.w3.org/1999/xlink">
<g id="graph0" class="graph" transform="scale(1 1) rotate(0) translate(4 304)">
<title>QtFit_global.h</title>
<!-- Node1 -->
<g id="node1" class="node">
<title>Node1</title>
<g id="a_node1"><a xlink:title=" ">
<polygon fill="#bfbfbf" stroke="black" points="279,-280.5 279,-299.5 363,-299.5 363,-280.5 279,-280.5"/>
<text text-anchor="middle" x="321" y="-287.5" font-family="Helvetica,sans-Serif" font-size="10.00">QtFit_global.h</text>
</a>
</g>
</g>
<!-- Node2 -->
<g id="node2" class="node">
<title>Node2</title>
<g id="a_node2"><a xlink:href="fitdatamessage_8h.html" target="_top" xlink:title=" ">
<polygon fill="none" stroke="black" points="165.5,-168.5 165.5,-187.5 266.5,-187.5 266.5,-168.5 165.5,-168.5"/>
<text text-anchor="middle" x="216" y="-175.5" font-family="Helvetica,sans-Serif" font-size="10.00">fitdatamessage.h</text>
</a>
</g>
</g>
<!-- Node1&#45;&gt;Node2 -->
<g id="edge1" class="edge">
<title>Node1&#45;&gt;Node2</title>
<path fill="none" stroke="midnightblue" d="M305.63,-272.9C283.06,-249.25 241.72,-205.95 224.2,-187.59"/>
<polygon fill="midnightblue" stroke="midnightblue" points="303.32,-275.55 312.76,-280.37 308.39,-270.72 303.32,-275.55"/>
</g>
<!-- Node9 -->
<g id="node9" class="node">
<title>Node9</title>
<g id="a_node9"><a xlink:href="fitdatamessage__p_8h.html" target="_top" xlink:title=" ">
<polygon fill="none" stroke="black" points="367.5,-112.5 367.5,-131.5 480.5,-131.5 480.5,-112.5 367.5,-112.5"/>
<text text-anchor="middle" x="424" y="-119.5" font-family="Helvetica,sans-Serif" font-size="10.00">fitdatamessage_p.h</text>
</a>
</g>
</g>
<!-- Node1&#45;&gt;Node9 -->
<g id="edge9" class="edge">
<title>Node1&#45;&gt;Node9</title>
<path fill="none" stroke="midnightblue" d="M335.25,-272.58C342.16,-264.27 350.39,-253.87 357,-244 384,-203.7 410.1,-151.66 419.92,-131.5"/>
<polygon fill="midnightblue" stroke="midnightblue" points="332.43,-270.48 328.63,-280.37 337.77,-275.01 332.43,-270.48"/>
</g>
<!-- Node11 -->
<g id="node11" class="node">
<title>Node11</title>
<g id="a_node11"><a xlink:href="types_8h.html" target="_top" xlink:title="Types defined by the ANT+ FIT SDK.">
<polygon fill="none" stroke="black" points="294.5,-224.5 294.5,-243.5 347.5,-243.5 347.5,-224.5 294.5,-224.5"/>
<text text-anchor="middle" x="321" y="-231.5" font-family="Helvetica,sans-Serif" font-size="10.00">types.h</text>
</a>
</g>
</g>
<!-- Node1&#45;&gt;Node11 -->
<g id="edge13" class="edge">
<title>Node1&#45;&gt;Node11</title>
<path fill="none" stroke="midnightblue" d="M321,-269.8C321,-260.91 321,-250.78 321,-243.75"/>
<polygon fill="midnightblue" stroke="midnightblue" points="317.5,-270.08 321,-280.08 324.5,-270.08 317.5,-270.08"/>
</g>
<!-- Node3 -->
<g id="node3" class="node">
<title>Node3</title>
<g id="a_node3"><a xlink:href="fileidmessage_8h.html" target="_top" xlink:title=" ">
<polygon fill="none" stroke="black" points="0,-56.5 0,-75.5 94,-75.5 94,-56.5 0,-56.5"/>
<text text-anchor="middle" x="47" y="-63.5" font-family="Helvetica,sans-Serif" font-size="10.00">fileidmessage.h</text>
</a>
</g>
</g>
<!-- Node2&#45;&gt;Node3 -->
<g id="edge2" class="edge">
<title>Node2&#45;&gt;Node3</title>
<path fill="none" stroke="midnightblue" d="M155.3,-171.33C125.89,-165.65 92.04,-154.37 69,-132 53.27,-116.73 48.79,-89.83 47.51,-75.91"/>
<polygon fill="midnightblue" stroke="midnightblue" points="155.04,-174.84 165.5,-173.11 156.25,-167.94 155.04,-174.84"/>
</g>
<!-- Node5 -->
<g id="node5" class="node">
<title>Node5</title>
<g id="a_node5"><a xlink:href="fitdatamessage_8cpp.html" target="_top" xlink:title=" ">
<polygon fill="none" stroke="black" points="242.5,-56.5 242.5,-75.5 355.5,-75.5 355.5,-56.5 242.5,-56.5"/>
<text text-anchor="middle" x="299" y="-63.5" font-family="Helvetica,sans-Serif" font-size="10.00">fitdatamessage.cpp</text>
</a>
</g>
</g>
<!-- Node2&#45;&gt;Node5 -->
<g id="edge4" class="edge">
<title>Node2&#45;&gt;Node5</title>
<path fill="none" stroke="midnightblue" d="M215.59,-157.9C216.18,-144.07 218.86,-125.52 228,-112 239.6,-94.83 260.18,-82.86 276.2,-75.61"/>
<polygon fill="midnightblue" stroke="midnightblue" points="212.09,-158.15 215.5,-168.18 219.09,-158.22 212.09,-158.15"/>
</g>
<!-- Node6 -->
<g id="node6" class="node">
<title>Node6</title>
<g id="a_node6"><a xlink:href="fitstreamreader_8h.html" target="_top" xlink:title=" ">
<polygon fill="none" stroke="black" points="78.5,-112.5 78.5,-131.5 179.5,-131.5 179.5,-112.5 78.5,-112.5"/>
<text text-anchor="middle" x="129" y="-119.5" font-family="Helvetica,sans-Serif" font-size="10.00">fitstreamreader.h</text>
</a>
</g>
</g>
<!-- Node2&#45;&gt;Node6 -->
<g id="edge5" class="edge">
<title>Node2&#45;&gt;Node6</title>
<path fill="none" stroke="midnightblue" d="M193.28,-162.9C177.33,-153 156.5,-140.07 142.94,-131.65"/>
<polygon fill="midnightblue" stroke="midnightblue" points="191.68,-166.02 202.02,-168.32 195.37,-160.08 191.68,-166.02"/>
</g>
<!-- Node8 -->
<g id="node8" class="node">
<title>Node8</title>
<g id="a_node8"><a xlink:href="fitstreamreader__p_8h.html" target="_top" xlink:title=" ">
<polygon fill="none" stroke="black" points="236.5,-112.5 236.5,-131.5 349.5,-131.5 349.5,-112.5 236.5,-112.5"/>
<text text-anchor="middle" x="293" y="-119.5" font-family="Helvetica,sans-Serif" font-size="10.00">fitstreamreader_p.h</text>
</a>
</g>
</g>
<!-- Node2&#45;&gt;Node8 -->
<g id="edge7" class="edge">
<title>Node2&#45;&gt;Node8</title>
<path fill="none" stroke="midnightblue" d="M236.9,-162.34C250.91,-152.52 268.88,-139.91 280.66,-131.65"/>
<polygon fill="midnightblue" stroke="midnightblue" points="234.55,-159.72 228.37,-168.32 238.57,-165.45 234.55,-159.72"/>
</g>
<!-- Node4 -->
<g id="node4" class="node">
<title>Node4</title>
<g id="a_node4"><a xlink:href="fileidmessage_8cpp.html" target="_top" xlink:title=" ">
<polygon fill="none" stroke="black" points="183.5,-0.5 183.5,-19.5 288.5,-19.5 288.5,-0.5 183.5,-0.5"/>
<text text-anchor="middle" x="236" y="-7.5" font-family="Helvetica,sans-Serif" font-size="10.00">fileidmessage.cpp</text>
</a>
</g>
</g>
<!-- Node3&#45;&gt;Node4 -->
<g id="edge3" class="edge">
<title>Node3&#45;&gt;Node4</title>
<path fill="none" stroke="midnightblue" d="M87.01,-53.57C122.67,-43.38 174.04,-28.7 206.19,-19.52"/>
<polygon fill="midnightblue" stroke="midnightblue" points="85.6,-50.33 76.95,-56.44 87.52,-57.06 85.6,-50.33"/>
</g>
<!-- Node7 -->
<g id="node7" class="node">
<title>Node7</title>
<g id="a_node7"><a xlink:href="fitstreamreader_8cpp.html" target="_top" xlink:title=" ">
<polygon fill="none" stroke="black" points="112,-56.5 112,-75.5 224,-75.5 224,-56.5 112,-56.5"/>
<text text-anchor="middle" x="168" y="-63.5" font-family="Helvetica,sans-Serif" font-size="10.00">fitstreamreader.cpp</text>
</a>
</g>
</g>
<!-- Node6&#45;&gt;Node7 -->
<g id="edge6" class="edge">
<title>Node6&#45;&gt;Node7</title>
<path fill="none" stroke="midnightblue" d="M141.38,-103.86C148.14,-94.5 156.21,-83.33 161.68,-75.75"/>
<polygon fill="midnightblue" stroke="midnightblue" points="138.46,-101.93 135.44,-112.08 144.13,-106.03 138.46,-101.93"/>
</g>
<!-- Node8&#45;&gt;Node7 -->
<g id="edge8" class="edge">
<title>Node8&#45;&gt;Node7</title>
<path fill="none" stroke="midnightblue" d="M263.76,-108.37C240.35,-98.26 208.16,-84.35 187.71,-75.52"/>
<polygon fill="midnightblue" stroke="midnightblue" points="262.63,-111.69 273.19,-112.44 265.4,-105.26 262.63,-111.69"/>
</g>
<!-- Node9&#45;&gt;Node5 -->
<g id="edge12" class="edge">
<title>Node9&#45;&gt;Node5</title>
<path fill="none" stroke="midnightblue" d="M394.76,-108.37C371.35,-98.26 339.16,-84.35 318.71,-75.52"/>
<polygon fill="midnightblue" stroke="midnightblue" points="393.63,-111.69 404.19,-112.44 396.4,-105.26 393.63,-111.69"/>
</g>
<!-- Node10 -->
<g id="node10" class="node">
<title>Node10</title>
<g id="a_node10"><a xlink:href="fileidmessage__p_8h.html" target="_top" xlink:title=" ">
<polygon fill="none" stroke="black" points="373.5,-56.5 373.5,-75.5 478.5,-75.5 478.5,-56.5 373.5,-56.5"/>
<text text-anchor="middle" x="426" y="-63.5" font-family="Helvetica,sans-Serif" font-size="10.00">fileidmessage_p.h</text>
</a>
</g>
</g>
<!-- Node9&#45;&gt;Node10 -->
<g id="edge10" class="edge">
<title>Node9&#45;&gt;Node10</title>
<path fill="none" stroke="midnightblue" d="M424.71,-101.8C425.04,-92.91 425.42,-82.78 425.68,-75.75"/>
<polygon fill="midnightblue" stroke="midnightblue" points="421.2,-101.96 424.33,-112.08 428.2,-102.22 421.2,-101.96"/>
</g>
<!-- Node10&#45;&gt;Node4 -->
<g id="edge11" class="edge">
<title>Node10&#45;&gt;Node4</title>
<path fill="none" stroke="midnightblue" d="M386.24,-53.7C350.38,-43.51 298.43,-28.74 265.97,-19.52"/>
<polygon fill="midnightblue" stroke="midnightblue" points="385.32,-57.08 395.89,-56.44 387.23,-50.34 385.32,-57.08"/>
</g>
<!-- Node11&#45;&gt;Node2 -->
<g id="edge14" class="edge">
<title>Node11&#45;&gt;Node2</title>
<path fill="none" stroke="midnightblue" d="M295.19,-219.73C275.75,-209.73 249.65,-196.31 232.83,-187.65"/>
<polygon fill="midnightblue" stroke="midnightblue" points="293.64,-222.86 304.13,-224.32 296.84,-216.64 293.64,-222.86"/>
</g>
<!-- Node11&#45;&gt;Node9 -->
<g id="edge15" class="edge">
<title>Node11&#45;&gt;Node9</title>
<path fill="none" stroke="midnightblue" d="M336.08,-216.9C358.22,-193.25 398.77,-149.95 415.96,-131.59"/>
<polygon fill="midnightblue" stroke="midnightblue" points="333.36,-214.68 329.08,-224.37 338.47,-219.46 333.36,-214.68"/>
</g>
<!-- Node12 -->
<g id="node12" class="node">
<title>Node12</title>
<g id="a_node12"><a xlink:href="types__p_8h.html" target="_top" xlink:title=" ">
<polygon fill="none" stroke="black" points="289,-168.5 289,-187.5 353,-187.5 353,-168.5 289,-168.5"/>
<text text-anchor="middle" x="321" y="-175.5" font-family="Helvetica,sans-Serif" font-size="10.00">types_p.h</text>
</a>
</g>
</g>
<!-- Node11&#45;&gt;Node12 -->
<g id="edge16" class="edge">
<title>Node11&#45;&gt;Node12</title>
<path fill="none" stroke="midnightblue" d="M321,-213.8C321,-204.91 321,-194.78 321,-187.75"/>
<polygon fill="midnightblue" stroke="midnightblue" points="317.5,-214.08 321,-224.08 324.5,-214.08 317.5,-214.08"/>
</g>
<!-- Node12&#45;&gt;Node8 -->
<g id="edge18" class="edge">
<title>Node12&#45;&gt;Node8</title>
<path fill="none" stroke="midnightblue" d="M311.66,-158.98C306.91,-149.82 301.34,-139.09 297.54,-131.75"/>
<polygon fill="midnightblue" stroke="midnightblue" points="308.67,-160.82 316.38,-168.08 314.88,-157.59 308.67,-160.82"/>
</g>
<!-- Node12&#45;&gt;Node9 -->
<g id="edge17" class="edge">
<title>Node12&#45;&gt;Node9</title>
<path fill="none" stroke="midnightblue" d="M346.58,-163.59C365.62,-153.61 391.06,-140.27 407.49,-131.65"/>
<polygon fill="midnightblue" stroke="midnightblue" points="344.78,-160.58 337.55,-168.32 348.03,-166.78 344.78,-160.58"/>
</g>
</g>
</svg>
