<?xml version="1.0" encoding="UTF-8" standalone="no"?>
<!DOCTYPE svg PUBLIC "-//W3C//DTD SVG 1.1//EN"
 "http://www.w3.org/Graphics/SVG/1.1/DTD/svg11.dtd">
<!-- Generated by graphviz version 2.43.0 (0)
 -->
<!-- Title: QtFit_global.h Pages: 1 -->
<svg width="722pt" height="308pt"
 viewBox="0.00 0.00 722.00 308.00" xmlns="http://www.w3.org/2000/svg" xmlns:xlink="http://www.w3.org/1999/xlink">
<g id="graph0" class="graph" transform="scale(1 1) rotate(0) translate(4 304)">
<title>QtFit_global.h</title>
<!-- Node1 -->
<g id="node1" class="node">
<title>Node1</title>
<g id="a_node1"><a xlink:title=" ">
<polygon fill="#bfbfbf" stroke="black" points="395.5,-280.5 395.5,-299.5 479.5,-299.5 479.5,-280.5 395.5,-280.5"/>
<text text-anchor="middle" x="437.5" y="-287.5" font-family="Helvetica,sans-Serif" font-size="10.00">QtFit_global.h</text>
</a>
</g>
</g>
<!-- Node2 -->
<g id="node2" class="node">
<title>Node2</title>
<g id="a_node2"><a xlink:href="fitdatamessage_8h.html" target="_top" xlink:title=" ">
<polygon fill="none" stroke="black" points="286,-168.5 286,-187.5 387,-187.5 387,-168.5 286,-168.5"/>
<text text-anchor="middle" x="336.5" y="-175.5" font-family="Helvetica,sans-Serif" font-size="10.00">fitdatamessage.h</text>
</a>
</g>
</g>
<!-- Node1&#45;&gt;Node2 -->
<g id="edge1" class="edge">
<title>Node1&#45;&gt;Node2</title>
<path fill="none" stroke="midnightblue" d="M422.71,-272.9C401,-249.25 361.24,-205.95 344.39,-187.59"/>
<polygon fill="midnightblue" stroke="midnightblue" points="420.23,-275.37 429.57,-280.37 425.39,-270.64 420.23,-275.37"/>
</g>
<!-- Node9 -->
<g id="node9" class="node">
<title>Node9</title>
<g id="a_node9"><a xlink:href="fitdatamessage__p_8h.html" target="_top" xlink:title=" ">
<polygon fill="none" stroke="black" points="478,-112.5 478,-131.5 591,-131.5 591,-112.5 478,-112.5"/>
<text text-anchor="middle" x="534.5" y="-119.5" font-family="Helvetica,sans-Serif" font-size="10.00">fitdatamessage_p.h</text>
</a>
</g>
</g>
<!-- Node1&#45;&gt;Node9 -->
<g id="edge10" class="edge">
<title>Node1&#45;&gt;Node9</title>
<path fill="none" stroke="midnightblue" d="M451.91,-272.69C458.87,-264.4 467.08,-254 473.5,-244 499.18,-204.01 522.31,-151.79 530.93,-131.54"/>
<polygon fill="midnightblue" stroke="midnightblue" points="449.11,-270.58 445.24,-280.44 454.41,-275.14 449.11,-270.58"/>
</g>
<!-- Node11 -->
<g id="node11" class="node">
<title>Node11</title>
<g id="a_node11"><a xlink:href="types_8h.html" target="_top" xlink:title="Types defined by the ANT+ FIT SDK.">
<polygon fill="none" stroke="black" points="411,-224.5 411,-243.5 464,-243.5 464,-224.5 411,-224.5"/>
<text text-anchor="middle" x="437.5" y="-231.5" font-family="Helvetica,sans-Serif" font-size="10.00">types.h</text>
</a>
</g>
</g>
<!-- Node1&#45;&gt;Node11 -->
<g id="edge15" class="edge">
<title>Node1&#45;&gt;Node11</title>
<path fill="none" stroke="midnightblue" d="M437.5,-269.8C437.5,-260.91 437.5,-250.78 437.5,-243.75"/>
<polygon fill="midnightblue" stroke="midnightblue" points="434,-270.08 437.5,-280.08 441,-270.08 434,-270.08"/>
</g>
<!-- Node3 -->
<g id="node3" class="node">
<title>Node3</title>
<g id="a_node3"><a xlink:href="fileidmessage_8h.html" target="_top" xlink:title=" ">
<polygon fill="none" stroke="black" points="289.5,-112.5 289.5,-131.5 383.5,-131.5 383.5,-112.5 289.5,-112.5"/>
<text text-anchor="middle" x="336.5" y="-119.5" font-family="Helvetica,sans-Serif" font-size="10.00">fileidmessage.h</text>
</a>
</g>
</g>
<!-- Node2&#45;&gt;Node3 -->
<g id="edge2" class="edge">
<title>Node2&#45;&gt;Node3</title>
<path fill="none" stroke="midnightblue" d="M336.5,-157.8C336.5,-148.91 336.5,-138.78 336.5,-131.75"/>
<polygon fill="midnightblue" stroke="midnightblue" points="333,-158.08 336.5,-168.08 340,-158.08 333,-158.08"/>
</g>
<!-- Node5 -->
<g id="node5" class="node">
<title>Node5</title>
<g id="a_node5"><a xlink:href="fitdatamessages_8cpp.html" target="_top" xlink:title=" ">
<polygon fill="none" stroke="black" points="341.5,-56.5 341.5,-75.5 459.5,-75.5 459.5,-56.5 341.5,-56.5"/>
<text text-anchor="middle" x="400.5" y="-63.5" font-family="Helvetica,sans-Serif" font-size="10.00">fitdatamessages.cpp</text>
</a>
</g>
</g>
<!-- Node2&#45;&gt;Node5 -->
<g id="edge6" class="edge">
<title>Node2&#45;&gt;Node5</title>
<path fill="none" stroke="midnightblue" d="M361.66,-162.99C372.97,-155.35 385.36,-144.81 392.5,-132 402.57,-113.92 402.36,-88.7 401.41,-75.62"/>
<polygon fill="midnightblue" stroke="midnightblue" points="359.52,-160.2 352.93,-168.5 363.26,-166.12 359.52,-160.2"/>
</g>
<!-- Node6 -->
<g id="node6" class="node">
<title>Node6</title>
<g id="a_node6"><a xlink:href="fitdatamessage_8cpp.html" target="_top" xlink:title=" ">
<polygon fill="none" stroke="black" points="478,-56.5 478,-75.5 591,-75.5 591,-56.5 478,-56.5"/>
<text text-anchor="middle" x="534.5" y="-63.5" font-family="Helvetica,sans-Serif" font-size="10.00">fitdatamessage.cpp</text>
</a>
</g>
</g>
<!-- Node2&#45;&gt;Node6 -->
<g id="edge5" class="edge">
<title>Node2&#45;&gt;Node6</title>
<path fill="none" stroke="midnightblue" d="M360.9,-163.45C402.2,-140.5 484.76,-94.63 519.04,-75.59"/>
<polygon fill="midnightblue" stroke="midnightblue" points="359.08,-160.45 352.04,-168.37 362.48,-166.57 359.08,-160.45"/>
</g>
<!-- Node7 -->
<g id="node7" class="node">
<title>Node7</title>
<g id="a_node7"><a xlink:href="fitstreamreader_8cpp.html" target="_top" xlink:title=" ">
<polygon fill="none" stroke="black" points="73.5,-56.5 73.5,-75.5 185.5,-75.5 185.5,-56.5 73.5,-56.5"/>
<text text-anchor="middle" x="129.5" y="-63.5" font-family="Helvetica,sans-Serif" font-size="10.00">fitstreamreader.cpp</text>
</a>
</g>
</g>
<!-- Node2&#45;&gt;Node7 -->
<g id="edge7" class="edge">
<title>Node2&#45;&gt;Node7</title>
<path fill="none" stroke="midnightblue" d="M275.72,-169.15C228.01,-161.79 166.71,-149.33 148.5,-132 132.66,-116.92 129.81,-89.44 129.43,-75.54"/>
<polygon fill="midnightblue" stroke="midnightblue" points="275.27,-172.62 285.68,-170.64 276.31,-165.69 275.27,-172.62"/>
</g>
<!-- Node8 -->
<g id="node8" class="node">
<title>Node8</title>
<g id="a_node8"><a xlink:href="fitstreamreader_8h.html" target="_top" xlink:title=" ">
<polygon fill="none" stroke="black" points="0,-112.5 0,-131.5 101,-131.5 101,-112.5 0,-112.5"/>
<text text-anchor="middle" x="50.5" y="-119.5" font-family="Helvetica,sans-Serif" font-size="10.00">fitstreamreader.h</text>
</a>
</g>
</g>
<!-- Node2&#45;&gt;Node8 -->
<g id="edge8" class="edge">
<title>Node2&#45;&gt;Node8</title>
<path fill="none" stroke="midnightblue" d="M281.09,-166.54C227.03,-156.33 145.83,-141 95.61,-131.52"/>
<polygon fill="midnightblue" stroke="midnightblue" points="280.71,-170.03 291.18,-168.44 282.01,-163.15 280.71,-170.03"/>
</g>
<!-- Node4 -->
<g id="node4" class="node">
<title>Node4</title>
<g id="a_node4"><a xlink:href="fileidmessage_8cpp.html" target="_top" xlink:title=" ">
<polygon fill="none" stroke="black" points="435,-0.5 435,-19.5 540,-19.5 540,-0.5 435,-0.5"/>
<text text-anchor="middle" x="487.5" y="-7.5" font-family="Helvetica,sans-Serif" font-size="10.00">fileidmessage.cpp</text>
</a>
</g>
</g>
<!-- Node3&#45;&gt;Node4 -->
<g id="edge3" class="edge">
<title>Node3&#45;&gt;Node4</title>
<path fill="none" stroke="midnightblue" d="M329.48,-102.8C325.31,-88.65 322.55,-69.26 332.5,-56 344.95,-39.42 394.81,-26.97 434.66,-19.42"/>
<polygon fill="midnightblue" stroke="midnightblue" points="326.22,-104.08 332.76,-112.41 332.85,-101.82 326.22,-104.08"/>
</g>
<!-- Node3&#45;&gt;Node5 -->
<g id="edge4" class="edge">
<title>Node3&#45;&gt;Node5</title>
<path fill="none" stroke="midnightblue" d="M354.49,-105.82C365.96,-96.15 380.41,-83.95 390.03,-75.83"/>
<polygon fill="midnightblue" stroke="midnightblue" points="352.17,-103.2 346.78,-112.32 356.68,-108.55 352.17,-103.2"/>
</g>
<!-- Node8&#45;&gt;Node7 -->
<g id="edge9" class="edge">
<title>Node8&#45;&gt;Node7</title>
<path fill="none" stroke="midnightblue" d="M71.53,-106.62C85.97,-96.76 104.64,-83.99 116.84,-75.65"/>
<polygon fill="midnightblue" stroke="midnightblue" points="69.47,-103.79 63.19,-112.32 73.42,-109.57 69.47,-103.79"/>
</g>
<!-- Node9&#45;&gt;Node5 -->
<g id="edge14" class="edge">
<title>Node9&#45;&gt;Node5</title>
<path fill="none" stroke="midnightblue" d="M503.82,-108.64C478.68,-98.5 443.75,-84.43 421.63,-75.52"/>
<polygon fill="midnightblue" stroke="midnightblue" points="502.68,-111.95 513.27,-112.44 505.3,-105.46 502.68,-111.95"/>
</g>
<!-- Node9&#45;&gt;Node6 -->
<g id="edge13" class="edge">
<title>Node9&#45;&gt;Node6</title>
<path fill="none" stroke="midnightblue" d="M534.5,-101.8C534.5,-92.91 534.5,-82.78 534.5,-75.75"/>
<polygon fill="midnightblue" stroke="midnightblue" points="531,-102.08 534.5,-112.08 538,-102.08 531,-102.08"/>
</g>
<!-- Node10 -->
<g id="node10" class="node">
<title>Node10</title>
<g id="a_node10"><a xlink:href="fileidmessage__p_8h.html" target="_top" xlink:title=" ">
<polygon fill="none" stroke="black" points="609,-56.5 609,-75.5 714,-75.5 714,-56.5 609,-56.5"/>
<text text-anchor="middle" x="661.5" y="-63.5" font-family="Helvetica,sans-Serif" font-size="10.00">fileidmessage_p.h</text>
</a>
</g>
</g>
<!-- Node9&#45;&gt;Node10 -->
<g id="edge11" class="edge">
<title>Node9&#45;&gt;Node10</title>
<path fill="none" stroke="midnightblue" d="M563.89,-108.5C587.7,-98.38 620.61,-84.39 641.47,-75.52"/>
<polygon fill="midnightblue" stroke="midnightblue" points="562.46,-105.31 554.62,-112.44 565.2,-111.75 562.46,-105.31"/>
</g>
<!-- Node10&#45;&gt;Node4 -->
<g id="edge12" class="edge">
<title>Node10&#45;&gt;Node4</title>
<path fill="none" stroke="midnightblue" d="M624.24,-53.44C591.43,-43.26 544.42,-28.66 514.94,-19.52"/>
<polygon fill="midnightblue" stroke="midnightblue" points="623.34,-56.82 633.93,-56.44 625.42,-50.14 623.34,-56.82"/>
</g>
<!-- Node11&#45;&gt;Node2 -->
<g id="edge16" class="edge">
<title>Node11&#45;&gt;Node2</title>
<path fill="none" stroke="midnightblue" d="M412.42,-219.59C393.74,-209.61 368.8,-196.27 352.69,-187.65"/>
<polygon fill="midnightblue" stroke="midnightblue" points="410.8,-222.7 421.27,-224.32 414.1,-216.52 410.8,-222.7"/>
</g>
<!-- Node11&#45;&gt;Node9 -->
<g id="edge17" class="edge">
<title>Node11&#45;&gt;Node9</title>
<path fill="none" stroke="midnightblue" d="M452.26,-217.01C460.11,-208.46 469.9,-197.71 478.5,-188 496.08,-168.16 516.29,-144.48 526.97,-131.9"/>
<polygon fill="midnightblue" stroke="midnightblue" points="449.63,-214.71 445.43,-224.44 454.78,-219.45 449.63,-214.71"/>
</g>
<!-- Node12 -->
<g id="node12" class="node">
<title>Node12</title>
<g id="a_node12"><a xlink:href="types__p_8h.html" target="_top" xlink:title=" ">
<polygon fill="none" stroke="black" points="405.5,-168.5 405.5,-187.5 469.5,-187.5 469.5,-168.5 405.5,-168.5"/>
<text text-anchor="middle" x="437.5" y="-175.5" font-family="Helvetica,sans-Serif" font-size="10.00">types_p.h</text>
</a>
</g>
</g>
<!-- Node11&#45;&gt;Node12 -->
<g id="edge18" class="edge">
<title>Node11&#45;&gt;Node12</title>
<path fill="none" stroke="midnightblue" d="M437.5,-213.8C437.5,-204.91 437.5,-194.78 437.5,-187.75"/>
<polygon fill="midnightblue" stroke="midnightblue" points="434,-214.08 437.5,-224.08 441,-214.08 434,-214.08"/>
</g>
<!-- Node12&#45;&gt;Node9 -->
<g id="edge19" class="edge">
<title>Node12&#45;&gt;Node9</title>
<path fill="none" stroke="midnightblue" d="M461.84,-163.45C479.74,-153.48 503.55,-140.23 518.95,-131.65"/>
<polygon fill="midnightblue" stroke="midnightblue" points="460.12,-160.4 453.08,-168.32 463.52,-166.52 460.12,-160.4"/>
</g>
<!-- Node13 -->
<g id="node13" class="node">
<title>Node13</title>
<g id="a_node13"><a xlink:href="fitstreamreader__p_8h.html" target="_top" xlink:title=" ">
<polygon fill="none" stroke="black" points="158,-112.5 158,-131.5 271,-131.5 271,-112.5 158,-112.5"/>
<text text-anchor="middle" x="214.5" y="-119.5" font-family="Helvetica,sans-Serif" font-size="10.00">fitstreamreader_p.h</text>
</a>
</g>
</g>
<!-- Node12&#45;&gt;Node13 -->
<g id="edge20" class="edge">
<title>Node12&#45;&gt;Node13</title>
<path fill="none" stroke="midnightblue" d="M395.14,-166.74C353.09,-156.56 289.36,-141.13 249.91,-131.58"/>
<polygon fill="midnightblue" stroke="midnightblue" points="394.53,-170.2 405.07,-169.15 396.18,-163.39 394.53,-170.2"/>
</g>
<!-- Node13&#45;&gt;Node7 -->
<g id="edge21" class="edge">
<title>Node13&#45;&gt;Node7</title>
<path fill="none" stroke="midnightblue" d="M192.31,-106.9C176.72,-97 156.37,-84.07 143.12,-75.65"/>
<polygon fill="midnightblue" stroke="midnightblue" points="190.53,-109.92 200.84,-112.32 194.28,-104.01 190.53,-109.92"/>
</g>
</g>
</svg>
