<?xml version="1.0" encoding="UTF-8" standalone="no"?>
<!DOCTYPE svg PUBLIC "-//W3C//DTD SVG 1.1//EN"
 "http://www.w3.org/Graphics/SVG/1.1/DTD/svg11.dtd">
<!-- Generated by graphviz version 2.43.0 (0)
 -->
<!-- Title: recordmessage.cpp Pages: 1 -->
<svg width="342pt" height="364pt"
 viewBox="0.00 0.00 342.00 364.00" xmlns="http://www.w3.org/2000/svg" xmlns:xlink="http://www.w3.org/1999/xlink">
<g id="graph0" class="graph" transform="scale(1 1) rotate(0) translate(4 360)">
<title>recordmessage.cpp</title>
<!-- Node1 -->
<g id="node1" class="node">
<title>Node1</title>
<g id="a_node1"><a xlink:title=" ">
<polygon fill="#bfbfbf" stroke="black" points="142.5,-336.5 142.5,-355.5 254.5,-355.5 254.5,-336.5 142.5,-336.5"/>
<text text-anchor="middle" x="198.5" y="-343.5" font-family="Helvetica,sans-Serif" font-size="10.00">recordmessage.cpp</text>
</a>
</g>
</g>
<!-- Node2 -->
<g id="node2" class="node">
<title>Node2</title>
<g id="a_node2"><a xlink:href="recordmessage_8h.html" target="_top" xlink:title=" ">
<polygon fill="none" stroke="black" points="134,-224.5 134,-243.5 235,-243.5 235,-224.5 134,-224.5"/>
<text text-anchor="middle" x="184.5" y="-231.5" font-family="Helvetica,sans-Serif" font-size="10.00">recordmessage.h</text>
</a>
</g>
</g>
<!-- Node1&#45;&gt;Node2 -->
<g id="edge1" class="edge">
<title>Node1&#45;&gt;Node2</title>
<path fill="none" stroke="midnightblue" d="M196.46,-336.43C194.4,-327.41 191.26,-312.79 189.5,-300 187.37,-284.56 186.09,-266.93 185.35,-253.93"/>
<polygon fill="midnightblue" stroke="midnightblue" points="188.84,-253.68 184.84,-243.87 181.85,-254.03 188.84,-253.68"/>
</g>
<!-- Node7 -->
<g id="node7" class="node">
<title>Node7</title>
<g id="a_node7"><a xlink:href="recordmessage__p_8h.html" target="_top" xlink:title=" ">
<polygon fill="none" stroke="black" points="20.5,-280.5 20.5,-299.5 132.5,-299.5 132.5,-280.5 20.5,-280.5"/>
<text text-anchor="middle" x="76.5" y="-287.5" font-family="Helvetica,sans-Serif" font-size="10.00">recordmessage_p.h</text>
</a>
</g>
</g>
<!-- Node1&#45;&gt;Node7 -->
<g id="edge7" class="edge">
<title>Node1&#45;&gt;Node7</title>
<path fill="none" stroke="midnightblue" d="M179.17,-336.44C159.18,-327.6 127.76,-313.69 104.94,-303.59"/>
<polygon fill="midnightblue" stroke="midnightblue" points="106.3,-300.36 95.74,-299.52 103.47,-306.76 106.3,-300.36"/>
</g>
<!-- Node11 -->
<g id="node11" class="node">
<title>Node11</title>
<g id="a_node11"><a xlink:title=" ">
<polygon fill="none" stroke="#bfbfbf" points="198.5,-280.5 198.5,-299.5 254.5,-299.5 254.5,-280.5 198.5,-280.5"/>
<text text-anchor="middle" x="226.5" y="-287.5" font-family="Helvetica,sans-Serif" font-size="10.00">QDebug</text>
</a>
</g>
</g>
<!-- Node1&#45;&gt;Node11 -->
<g id="edge14" class="edge">
<title>Node1&#45;&gt;Node11</title>
<path fill="none" stroke="midnightblue" d="M203.12,-336.08C206.96,-328.69 212.52,-317.95 217.26,-308.81"/>
<polygon fill="midnightblue" stroke="midnightblue" points="220.47,-310.24 221.96,-299.75 214.25,-307.02 220.47,-310.24"/>
</g>
<!-- Node12 -->
<g id="node12" class="node">
<title>Node12</title>
<g id="a_node12"><a xlink:title=" ">
<polygon fill="none" stroke="#bfbfbf" points="273,-280.5 273,-299.5 334,-299.5 334,-280.5 273,-280.5"/>
<text text-anchor="middle" x="303.5" y="-287.5" font-family="Helvetica,sans-Serif" font-size="10.00">QtEndian</text>
</a>
</g>
</g>
<!-- Node1&#45;&gt;Node12 -->
<g id="edge15" class="edge">
<title>Node1&#45;&gt;Node12</title>
<path fill="none" stroke="midnightblue" d="M215.37,-336.32C232.21,-327.66 258.31,-314.24 277.74,-304.25"/>
<polygon fill="midnightblue" stroke="midnightblue" points="279.38,-307.34 286.67,-299.65 276.18,-301.12 279.38,-307.34"/>
</g>
<!-- Node3 -->
<g id="node3" class="node">
<title>Node3</title>
<g id="a_node3"><a xlink:href="fitdatamessage_8h.html" target="_top" xlink:title=" ">
<polygon fill="none" stroke="black" points="138,-168.5 138,-187.5 239,-187.5 239,-168.5 138,-168.5"/>
<text text-anchor="middle" x="188.5" y="-175.5" font-family="Helvetica,sans-Serif" font-size="10.00">fitdatamessage.h</text>
</a>
</g>
</g>
<!-- Node2&#45;&gt;Node3 -->
<g id="edge2" class="edge">
<title>Node2&#45;&gt;Node3</title>
<path fill="none" stroke="midnightblue" d="M185.16,-224.08C185.68,-217.01 186.44,-206.86 187.09,-197.99"/>
<polygon fill="midnightblue" stroke="midnightblue" points="190.6,-197.98 187.85,-187.75 183.62,-197.47 190.6,-197.98"/>
</g>
<!-- Node4 -->
<g id="node4" class="node">
<title>Node4</title>
<g id="a_node4"><a xlink:href="QtFit__global_8h.html" target="_top" xlink:title=" ">
<polygon fill="none" stroke="black" points="69.5,-56.5 69.5,-75.5 153.5,-75.5 153.5,-56.5 69.5,-56.5"/>
<text text-anchor="middle" x="111.5" y="-63.5" font-family="Helvetica,sans-Serif" font-size="10.00">QtFit_global.h</text>
</a>
</g>
</g>
<!-- Node3&#45;&gt;Node4 -->
<g id="edge3" class="edge">
<title>Node3&#45;&gt;Node4</title>
<path fill="none" stroke="midnightblue" d="M183.49,-168.39C176.04,-155.75 161.43,-131.56 147.5,-112 140.61,-102.32 132.36,-91.94 125.51,-83.59"/>
<polygon fill="midnightblue" stroke="midnightblue" points="128.06,-81.19 118.97,-75.74 122.68,-85.66 128.06,-81.19"/>
</g>
<!-- Node6 -->
<g id="node6" class="node">
<title>Node6</title>
<g id="a_node6"><a xlink:href="types_8h.html" target="_top" xlink:title="Types defined by the ANT+ FIT SDK.">
<polygon fill="none" stroke="black" points="85,-112.5 85,-131.5 138,-131.5 138,-112.5 85,-112.5"/>
<text text-anchor="middle" x="111.5" y="-119.5" font-family="Helvetica,sans-Serif" font-size="10.00">types.h</text>
</a>
</g>
</g>
<!-- Node3&#45;&gt;Node6 -->
<g id="edge5" class="edge">
<title>Node3&#45;&gt;Node6</title>
<path fill="none" stroke="midnightblue" d="M176.13,-168.32C164.34,-160.06 146.37,-147.45 132.36,-137.63"/>
<polygon fill="midnightblue" stroke="midnightblue" points="134.04,-134.53 123.84,-131.65 130.02,-140.26 134.04,-134.53"/>
</g>
<!-- Node5 -->
<g id="node5" class="node">
<title>Node5</title>
<g id="a_node5"><a xlink:title=" ">
<polygon fill="none" stroke="#bfbfbf" points="82,-0.5 82,-19.5 141,-19.5 141,-0.5 82,-0.5"/>
<text text-anchor="middle" x="111.5" y="-7.5" font-family="Helvetica,sans-Serif" font-size="10.00">QtGlobal</text>
</a>
</g>
</g>
<!-- Node4&#45;&gt;Node5 -->
<g id="edge4" class="edge">
<title>Node4&#45;&gt;Node5</title>
<path fill="none" stroke="midnightblue" d="M111.5,-56.08C111.5,-49.01 111.5,-38.86 111.5,-29.99"/>
<polygon fill="midnightblue" stroke="midnightblue" points="115,-29.75 111.5,-19.75 108,-29.75 115,-29.75"/>
</g>
<!-- Node6&#45;&gt;Node4 -->
<g id="edge6" class="edge">
<title>Node6&#45;&gt;Node4</title>
<path fill="none" stroke="midnightblue" d="M111.5,-112.08C111.5,-105.01 111.5,-94.86 111.5,-85.99"/>
<polygon fill="midnightblue" stroke="midnightblue" points="115,-85.75 111.5,-75.75 108,-85.75 115,-85.75"/>
</g>
<!-- Node8 -->
<g id="node8" class="node">
<title>Node8</title>
<g id="a_node8"><a xlink:href="fitdatamessage__p_8h.html" target="_top" xlink:title=" ">
<polygon fill="none" stroke="black" points="0,-224.5 0,-243.5 113,-243.5 113,-224.5 0,-224.5"/>
<text text-anchor="middle" x="56.5" y="-231.5" font-family="Helvetica,sans-Serif" font-size="10.00">fitdatamessage_p.h</text>
</a>
</g>
</g>
<!-- Node7&#45;&gt;Node8 -->
<g id="edge8" class="edge">
<title>Node7&#45;&gt;Node8</title>
<path fill="none" stroke="midnightblue" d="M73.2,-280.08C70.52,-272.85 66.65,-262.41 63.31,-253.4"/>
<polygon fill="midnightblue" stroke="midnightblue" points="66.5,-251.91 59.74,-243.75 59.93,-254.34 66.5,-251.91"/>
</g>
<!-- Node8&#45;&gt;Node4 -->
<g id="edge9" class="edge">
<title>Node8&#45;&gt;Node4</title>
<path fill="none" stroke="midnightblue" d="M42.13,-224.33C30.62,-216.47 15.31,-203.72 8.5,-188 0.86,-170.35 6.8,-125.16 16.5,-112 28.1,-96.26 46.64,-85.81 64.27,-78.98"/>
<polygon fill="midnightblue" stroke="midnightblue" points="65.67,-82.2 73.92,-75.55 63.32,-75.6 65.67,-82.2"/>
</g>
<!-- Node8&#45;&gt;Node6 -->
<g id="edge10" class="edge">
<title>Node8&#45;&gt;Node6</title>
<path fill="none" stroke="midnightblue" d="M64.49,-224.3C72.08,-215.65 83.36,-201.72 90.5,-188 98.2,-173.21 103.78,-155.05 107.24,-141.69"/>
<polygon fill="midnightblue" stroke="midnightblue" points="110.69,-142.32 109.65,-131.78 103.89,-140.67 110.69,-142.32"/>
</g>
<!-- Node9 -->
<g id="node9" class="node">
<title>Node9</title>
<g id="a_node9"><a xlink:href="types__p_8h.html" target="_top" xlink:title=" ">
<polygon fill="none" stroke="black" points="17.5,-168.5 17.5,-187.5 81.5,-187.5 81.5,-168.5 17.5,-168.5"/>
<text text-anchor="middle" x="49.5" y="-175.5" font-family="Helvetica,sans-Serif" font-size="10.00">types_p.h</text>
</a>
</g>
</g>
<!-- Node8&#45;&gt;Node9 -->
<g id="edge11" class="edge">
<title>Node8&#45;&gt;Node9</title>
<path fill="none" stroke="midnightblue" d="M55.34,-224.08C54.42,-216.93 53.08,-206.64 51.92,-197.69"/>
<polygon fill="midnightblue" stroke="midnightblue" points="55.39,-197.22 50.63,-187.75 48.45,-198.12 55.39,-197.22"/>
</g>
<!-- Node9&#45;&gt;Node6 -->
<g id="edge12" class="edge">
<title>Node9&#45;&gt;Node6</title>
<path fill="none" stroke="midnightblue" d="M59.46,-168.32C68.63,-160.34 82.44,-148.31 93.53,-138.65"/>
<polygon fill="midnightblue" stroke="midnightblue" points="96.12,-141.04 101.36,-131.83 91.52,-135.76 96.12,-141.04"/>
</g>
<!-- Node10 -->
<g id="node10" class="node">
<title>Node10</title>
<g id="a_node10"><a xlink:title=" ">
<polygon fill="none" stroke="#bfbfbf" points="26,-112.5 26,-131.5 67,-131.5 67,-112.5 26,-112.5"/>
<text text-anchor="middle" x="46.5" y="-119.5" font-family="Helvetica,sans-Serif" font-size="10.00">QList</text>
</a>
</g>
</g>
<!-- Node9&#45;&gt;Node10 -->
<g id="edge13" class="edge">
<title>Node9&#45;&gt;Node10</title>
<path fill="none" stroke="midnightblue" d="M49,-168.08C48.61,-161.01 48.05,-150.86 47.55,-141.99"/>
<polygon fill="midnightblue" stroke="midnightblue" points="51.04,-141.54 46.99,-131.75 44.05,-141.93 51.04,-141.54"/>
</g>
</g>
</svg>
