<?xml version="1.0" encoding="UTF-8" standalone="no"?>
<!DOCTYPE svg PUBLIC "-//W3C//DTD SVG 1.1//EN"
 "http://www.w3.org/Graphics/SVG/1.1/DTD/svg11.dtd">
<!-- Generated by graphviz version 2.43.0 (0)
 -->
<!-- Title: recordmessage.cpp Pages: 1 -->
<svg width="420pt" height="364pt"
 viewBox="0.00 0.00 420.00 364.00" xmlns="http://www.w3.org/2000/svg" xmlns:xlink="http://www.w3.org/1999/xlink">
<g id="graph0" class="graph" transform="scale(1 1) rotate(0) translate(4 360)">
<title>recordmessage.cpp</title>
<!-- Node1 -->
<g id="node1" class="node">
<title>Node1</title>
<g id="a_node1"><a xlink:title="Defines the RecordMessage, and RecordMessagePrivate classes.">
<polygon fill="#bfbfbf" stroke="black" points="221.5,-336.5 221.5,-355.5 333.5,-355.5 333.5,-336.5 221.5,-336.5"/>
<text text-anchor="middle" x="277.5" y="-343.5" font-family="Helvetica,sans-Serif" font-size="10.00">recordmessage.cpp</text>
</a>
</g>
</g>
<!-- Node2 -->
<g id="node2" class="node">
<title>Node2</title>
<g id="a_node2"><a xlink:href="recordmessage_8h.html" target="_top" xlink:title="Declares the RecordMessage class.">
<polygon fill="none" stroke="black" points="55,-280.5 55,-299.5 156,-299.5 156,-280.5 55,-280.5"/>
<text text-anchor="middle" x="105.5" y="-287.5" font-family="Helvetica,sans-Serif" font-size="10.00">recordmessage.h</text>
</a>
</g>
</g>
<!-- Node1&#45;&gt;Node2 -->
<g id="edge1" class="edge">
<title>Node1&#45;&gt;Node2</title>
<path fill="none" stroke="midnightblue" d="M250.25,-336.44C221.06,-327.28 174.58,-312.69 142.19,-302.52"/>
<polygon fill="midnightblue" stroke="midnightblue" points="143.22,-299.17 132.63,-299.52 141.12,-305.85 143.22,-299.17"/>
</g>
<!-- Node7 -->
<g id="node7" class="node">
<title>Node7</title>
<g id="a_node7"><a xlink:title=" ">
<polygon fill="none" stroke="#bfbfbf" points="253.5,-56.5 253.5,-75.5 309.5,-75.5 309.5,-56.5 253.5,-56.5"/>
<text text-anchor="middle" x="281.5" y="-63.5" font-family="Helvetica,sans-Serif" font-size="10.00">QDebug</text>
</a>
</g>
</g>
<!-- Node1&#45;&gt;Node7 -->
<g id="edge15" class="edge">
<title>Node1&#45;&gt;Node7</title>
<path fill="none" stroke="midnightblue" d="M283.76,-336.37C296.12,-318.44 322.5,-275.44 322.5,-235 322.5,-235 322.5,-235 322.5,-177 322.5,-142.52 304.59,-105.56 292.44,-84.47"/>
<polygon fill="midnightblue" stroke="midnightblue" points="295.34,-82.49 287.2,-75.71 289.34,-86.09 295.34,-82.49"/>
</g>
<!-- Node8 -->
<g id="node8" class="node">
<title>Node8</title>
<g id="a_node8"><a xlink:href="recordmessage__p_8h.html" target="_top" xlink:title="Declares the RecordMessagePrivate class.">
<polygon fill="none" stroke="black" points="179.5,-280.5 179.5,-299.5 291.5,-299.5 291.5,-280.5 179.5,-280.5"/>
<text text-anchor="middle" x="235.5" y="-287.5" font-family="Helvetica,sans-Serif" font-size="10.00">recordmessage_p.h</text>
</a>
</g>
</g>
<!-- Node1&#45;&gt;Node8 -->
<g id="edge8" class="edge">
<title>Node1&#45;&gt;Node8</title>
<path fill="none" stroke="midnightblue" d="M270.56,-336.08C264.57,-328.38 255.75,-317.03 248.45,-307.65"/>
<polygon fill="midnightblue" stroke="midnightblue" points="251.21,-305.5 242.31,-299.75 245.68,-309.79 251.21,-305.5"/>
</g>
<!-- Node12 -->
<g id="node12" class="node">
<title>Node12</title>
<g id="a_node12"><a xlink:title=" ">
<polygon fill="none" stroke="#bfbfbf" points="351,-280.5 351,-299.5 412,-299.5 412,-280.5 351,-280.5"/>
<text text-anchor="middle" x="381.5" y="-287.5" font-family="Helvetica,sans-Serif" font-size="10.00">QtEndian</text>
</a>
</g>
</g>
<!-- Node1&#45;&gt;Node12 -->
<g id="edge16" class="edge">
<title>Node1&#45;&gt;Node12</title>
<path fill="none" stroke="midnightblue" d="M294.21,-336.32C310.81,-327.7 336.5,-314.36 355.72,-304.39"/>
<polygon fill="midnightblue" stroke="midnightblue" points="357.57,-307.37 364.83,-299.65 354.34,-301.16 357.57,-307.37"/>
</g>
<!-- Node3 -->
<g id="node3" class="node">
<title>Node3</title>
<g id="a_node3"><a xlink:href="abstractdatamessage_8h.html" target="_top" xlink:title="Declares the AbstractDataMessage class.">
<polygon fill="none" stroke="black" points="0,-168.5 0,-187.5 131,-187.5 131,-168.5 0,-168.5"/>
<text text-anchor="middle" x="65.5" y="-175.5" font-family="Helvetica,sans-Serif" font-size="10.00">abstractdatamessage.h</text>
</a>
</g>
</g>
<!-- Node2&#45;&gt;Node3 -->
<g id="edge2" class="edge">
<title>Node2&#45;&gt;Node3</title>
<path fill="none" stroke="midnightblue" d="M102.36,-280.37C95.88,-262.54 80.88,-221.3 72.14,-197.27"/>
<polygon fill="midnightblue" stroke="midnightblue" points="75.33,-195.79 68.62,-187.59 68.75,-198.19 75.33,-195.79"/>
</g>
<!-- Node4 -->
<g id="node4" class="node">
<title>Node4</title>
<g id="a_node4"><a xlink:href="QtFit__global_8h.html" target="_top" xlink:title="Global QtFit library macros.">
<polygon fill="none" stroke="black" points="111.5,-56.5 111.5,-75.5 195.5,-75.5 195.5,-56.5 111.5,-56.5"/>
<text text-anchor="middle" x="153.5" y="-63.5" font-family="Helvetica,sans-Serif" font-size="10.00">QtFit_global.h</text>
</a>
</g>
</g>
<!-- Node3&#45;&gt;Node4 -->
<g id="edge3" class="edge">
<title>Node3&#45;&gt;Node4</title>
<path fill="none" stroke="midnightblue" d="M72.41,-168.37C86.99,-150.14 121.16,-107.43 140.16,-83.68"/>
<polygon fill="midnightblue" stroke="midnightblue" points="143.11,-85.59 146.63,-75.59 137.65,-81.21 143.11,-85.59"/>
</g>
<!-- Node6 -->
<g id="node6" class="node">
<title>Node6</title>
<g id="a_node6"><a xlink:href="types_8h.html" target="_top" xlink:title="Types defined by the ANT+ FIT SDK.">
<polygon fill="none" stroke="black" points="182,-112.5 182,-131.5 235,-131.5 235,-112.5 182,-112.5"/>
<text text-anchor="middle" x="208.5" y="-119.5" font-family="Helvetica,sans-Serif" font-size="10.00">types.h</text>
</a>
</g>
</g>
<!-- Node3&#45;&gt;Node6 -->
<g id="edge5" class="edge">
<title>Node3&#45;&gt;Node6</title>
<path fill="none" stroke="midnightblue" d="M88.16,-168.44C111.9,-159.48 149.41,-145.31 176.24,-135.18"/>
<polygon fill="midnightblue" stroke="midnightblue" points="177.83,-138.32 185.95,-131.52 175.36,-131.77 177.83,-138.32"/>
</g>
<!-- Node5 -->
<g id="node5" class="node">
<title>Node5</title>
<g id="a_node5"><a xlink:title=" ">
<polygon fill="none" stroke="#bfbfbf" points="124,-0.5 124,-19.5 183,-19.5 183,-0.5 124,-0.5"/>
<text text-anchor="middle" x="153.5" y="-7.5" font-family="Helvetica,sans-Serif" font-size="10.00">QtGlobal</text>
</a>
</g>
</g>
<!-- Node4&#45;&gt;Node5 -->
<g id="edge4" class="edge">
<title>Node4&#45;&gt;Node5</title>
<path fill="none" stroke="midnightblue" d="M153.5,-56.08C153.5,-49.01 153.5,-38.86 153.5,-29.99"/>
<polygon fill="midnightblue" stroke="midnightblue" points="157,-29.75 153.5,-19.75 150,-29.75 157,-29.75"/>
</g>
<!-- Node6&#45;&gt;Node4 -->
<g id="edge6" class="edge">
<title>Node6&#45;&gt;Node4</title>
<path fill="none" stroke="midnightblue" d="M199.42,-112.08C191.33,-104.14 179.3,-92.34 169.59,-82.8"/>
<polygon fill="midnightblue" stroke="midnightblue" points="172,-80.26 162.41,-75.75 167.1,-85.25 172,-80.26"/>
</g>
<!-- Node6&#45;&gt;Node7 -->
<g id="edge7" class="edge">
<title>Node6&#45;&gt;Node7</title>
<path fill="none" stroke="midnightblue" d="M220.23,-112.32C231.34,-104.11 248.24,-91.6 261.48,-81.81"/>
<polygon fill="midnightblue" stroke="midnightblue" points="263.6,-84.59 269.56,-75.83 259.44,-78.97 263.6,-84.59"/>
</g>
<!-- Node9 -->
<g id="node9" class="node">
<title>Node9</title>
<g id="a_node9"><a xlink:href="abstractdatamessage__p_8h.html" target="_top" xlink:title="Declares the AbstractDataMessagePrivate class.">
<polygon fill="none" stroke="black" points="140,-224.5 140,-243.5 283,-243.5 283,-224.5 140,-224.5"/>
<text text-anchor="middle" x="211.5" y="-231.5" font-family="Helvetica,sans-Serif" font-size="10.00">abstractdatamessage_p.h</text>
</a>
</g>
</g>
<!-- Node8&#45;&gt;Node9 -->
<g id="edge9" class="edge">
<title>Node8&#45;&gt;Node9</title>
<path fill="none" stroke="midnightblue" d="M231.54,-280.08C228.29,-272.77 223.58,-262.18 219.55,-253.1"/>
<polygon fill="midnightblue" stroke="midnightblue" points="222.65,-251.47 215.39,-243.75 216.25,-254.31 222.65,-251.47"/>
</g>
<!-- Node9&#45;&gt;Node4 -->
<g id="edge10" class="edge">
<title>Node9&#45;&gt;Node4</title>
<path fill="none" stroke="midnightblue" d="M207.91,-224.44C200.73,-207.15 184.25,-166.72 172.5,-132 167.26,-116.51 162.1,-98.67 158.49,-85.6"/>
<polygon fill="midnightblue" stroke="midnightblue" points="161.85,-84.63 155.85,-75.91 155.1,-86.47 161.85,-84.63"/>
</g>
<!-- Node9&#45;&gt;Node6 -->
<g id="edge11" class="edge">
<title>Node9&#45;&gt;Node6</title>
<path fill="none" stroke="midnightblue" d="M211.26,-224.37C210.78,-206.62 209.66,-165.67 209.01,-141.6"/>
<polygon fill="midnightblue" stroke="midnightblue" points="212.51,-141.49 208.73,-131.59 205.51,-141.68 212.51,-141.49"/>
</g>
<!-- Node10 -->
<g id="node10" class="node">
<title>Node10</title>
<g id="a_node10"><a xlink:href="types__p_8h.html" target="_top" xlink:title="Internal types used by QtFit classes.">
<polygon fill="none" stroke="black" points="230.5,-168.5 230.5,-187.5 294.5,-187.5 294.5,-168.5 230.5,-168.5"/>
<text text-anchor="middle" x="262.5" y="-175.5" font-family="Helvetica,sans-Serif" font-size="10.00">types_p.h</text>
</a>
</g>
</g>
<!-- Node9&#45;&gt;Node10 -->
<g id="edge12" class="edge">
<title>Node9&#45;&gt;Node10</title>
<path fill="none" stroke="midnightblue" d="M219.92,-224.08C227.35,-216.22 238.35,-204.57 247.31,-195.08"/>
<polygon fill="midnightblue" stroke="midnightblue" points="249.91,-197.42 254.24,-187.75 244.82,-192.62 249.91,-197.42"/>
</g>
<!-- Node10&#45;&gt;Node6 -->
<g id="edge13" class="edge">
<title>Node10&#45;&gt;Node6</title>
<path fill="none" stroke="midnightblue" d="M253.58,-168.08C245.72,-160.22 234.07,-148.57 224.58,-139.08"/>
<polygon fill="midnightblue" stroke="midnightblue" points="226.8,-136.35 217.25,-131.75 221.85,-141.3 226.8,-136.35"/>
</g>
<!-- Node11 -->
<g id="node11" class="node">
<title>Node11</title>
<g id="a_node11"><a xlink:title=" ">
<polygon fill="none" stroke="#bfbfbf" points="253,-112.5 253,-131.5 294,-131.5 294,-112.5 253,-112.5"/>
<text text-anchor="middle" x="273.5" y="-119.5" font-family="Helvetica,sans-Serif" font-size="10.00">QList</text>
</a>
</g>
</g>
<!-- Node10&#45;&gt;Node11 -->
<g id="edge14" class="edge">
<title>Node10&#45;&gt;Node11</title>
<path fill="none" stroke="midnightblue" d="M264.32,-168.08C265.77,-160.93 267.87,-150.64 269.69,-141.69"/>
<polygon fill="midnightblue" stroke="midnightblue" points="273.15,-142.25 271.72,-131.75 266.29,-140.85 273.15,-142.25"/>
</g>
</g>
</svg>
