<?xml version="1.0" encoding="UTF-8" standalone="no"?>
<!DOCTYPE svg PUBLIC "-//W3C//DTD SVG 1.1//EN"
 "http://www.w3.org/Graphics/SVG/1.1/DTD/svg11.dtd">
<!-- Generated by graphviz version 2.43.0 (0)
 -->
<!-- Title: schedulemessage.cpp Pages: 1 -->
<svg width="264pt" height="364pt"
 viewBox="0.00 0.00 264.00 364.00" xmlns="http://www.w3.org/2000/svg" xmlns:xlink="http://www.w3.org/1999/xlink">
<g id="graph0" class="graph" transform="scale(1 1) rotate(0) translate(4 360)">
<title>schedulemessage.cpp</title>
<!-- Node1 -->
<g id="node1" class="node">
<title>Node1</title>
<g id="a_node1"><a xlink:title=" ">
<polygon fill="#bfbfbf" stroke="black" points="68,-336.5 68,-355.5 193,-355.5 193,-336.5 68,-336.5"/>
<text text-anchor="middle" x="130.5" y="-343.5" font-family="Helvetica,sans-Serif" font-size="10.00">schedulemessage.cpp</text>
</a>
</g>
</g>
<!-- Node2 -->
<g id="node2" class="node">
<title>Node2</title>
<g id="a_node2"><a xlink:href="schedulemessage_8h.html" target="_top" xlink:title=" ">
<polygon fill="none" stroke="black" points="143,-280.5 143,-299.5 256,-299.5 256,-280.5 143,-280.5"/>
<text text-anchor="middle" x="199.5" y="-287.5" font-family="Helvetica,sans-Serif" font-size="10.00">schedulemessage.h</text>
</a>
</g>
</g>
<!-- Node1&#45;&gt;Node2 -->
<g id="edge1" class="edge">
<title>Node1&#45;&gt;Node2</title>
<path fill="none" stroke="midnightblue" d="M141.59,-336.32C151.99,-328.18 167.76,-315.84 180.22,-306.09"/>
<polygon fill="midnightblue" stroke="midnightblue" points="182.49,-308.75 188.21,-299.83 178.18,-303.24 182.49,-308.75"/>
</g>
<!-- Node7 -->
<g id="node7" class="node">
<title>Node7</title>
<g id="a_node7"><a xlink:href="schedulemessage__p_8h.html" target="_top" xlink:title=" ">
<polygon fill="none" stroke="black" points="0,-280.5 0,-299.5 125,-299.5 125,-280.5 0,-280.5"/>
<text text-anchor="middle" x="62.5" y="-287.5" font-family="Helvetica,sans-Serif" font-size="10.00">schedulemessage_p.h</text>
</a>
</g>
</g>
<!-- Node1&#45;&gt;Node7 -->
<g id="edge7" class="edge">
<title>Node1&#45;&gt;Node7</title>
<path fill="none" stroke="midnightblue" d="M119.57,-336.32C109.33,-328.18 93.78,-315.84 81.5,-306.09"/>
<polygon fill="midnightblue" stroke="midnightblue" points="83.63,-303.31 73.62,-299.83 79.28,-308.79 83.63,-303.31"/>
</g>
<!-- Node3 -->
<g id="node3" class="node">
<title>Node3</title>
<g id="a_node3"><a xlink:href="fitdatamessage_8h.html" target="_top" xlink:title=" ">
<polygon fill="none" stroke="black" points="150,-168.5 150,-187.5 251,-187.5 251,-168.5 150,-168.5"/>
<text text-anchor="middle" x="200.5" y="-175.5" font-family="Helvetica,sans-Serif" font-size="10.00">fitdatamessage.h</text>
</a>
</g>
</g>
<!-- Node2&#45;&gt;Node3 -->
<g id="edge2" class="edge">
<title>Node2&#45;&gt;Node3</title>
<path fill="none" stroke="midnightblue" d="M199.58,-280.37C199.74,-262.62 200.11,-221.67 200.33,-197.6"/>
<polygon fill="midnightblue" stroke="midnightblue" points="203.83,-197.62 200.42,-187.59 196.83,-197.56 203.83,-197.62"/>
</g>
<!-- Node4 -->
<g id="node4" class="node">
<title>Node4</title>
<g id="a_node4"><a xlink:href="QtFit__global_8h.html" target="_top" xlink:title=" ">
<polygon fill="none" stroke="black" points="81.5,-56.5 81.5,-75.5 165.5,-75.5 165.5,-56.5 81.5,-56.5"/>
<text text-anchor="middle" x="123.5" y="-63.5" font-family="Helvetica,sans-Serif" font-size="10.00">QtFit_global.h</text>
</a>
</g>
</g>
<!-- Node3&#45;&gt;Node4 -->
<g id="edge3" class="edge">
<title>Node3&#45;&gt;Node4</title>
<path fill="none" stroke="midnightblue" d="M195.49,-168.39C188.04,-155.75 173.43,-131.56 159.5,-112 152.61,-102.32 144.36,-91.94 137.51,-83.59"/>
<polygon fill="midnightblue" stroke="midnightblue" points="140.06,-81.19 130.97,-75.74 134.68,-85.66 140.06,-81.19"/>
</g>
<!-- Node6 -->
<g id="node6" class="node">
<title>Node6</title>
<g id="a_node6"><a xlink:href="types_8h.html" target="_top" xlink:title="Types defined by the ANT+ FIT SDK.">
<polygon fill="none" stroke="black" points="97,-112.5 97,-131.5 150,-131.5 150,-112.5 97,-112.5"/>
<text text-anchor="middle" x="123.5" y="-119.5" font-family="Helvetica,sans-Serif" font-size="10.00">types.h</text>
</a>
</g>
</g>
<!-- Node3&#45;&gt;Node6 -->
<g id="edge5" class="edge">
<title>Node3&#45;&gt;Node6</title>
<path fill="none" stroke="midnightblue" d="M188.13,-168.32C176.34,-160.06 158.37,-147.45 144.36,-137.63"/>
<polygon fill="midnightblue" stroke="midnightblue" points="146.04,-134.53 135.84,-131.65 142.02,-140.26 146.04,-134.53"/>
</g>
<!-- Node5 -->
<g id="node5" class="node">
<title>Node5</title>
<g id="a_node5"><a xlink:title=" ">
<polygon fill="none" stroke="#bfbfbf" points="94,-0.5 94,-19.5 153,-19.5 153,-0.5 94,-0.5"/>
<text text-anchor="middle" x="123.5" y="-7.5" font-family="Helvetica,sans-Serif" font-size="10.00">QtGlobal</text>
</a>
</g>
</g>
<!-- Node4&#45;&gt;Node5 -->
<g id="edge4" class="edge">
<title>Node4&#45;&gt;Node5</title>
<path fill="none" stroke="midnightblue" d="M123.5,-56.08C123.5,-49.01 123.5,-38.86 123.5,-29.99"/>
<polygon fill="midnightblue" stroke="midnightblue" points="127,-29.75 123.5,-19.75 120,-29.75 127,-29.75"/>
</g>
<!-- Node6&#45;&gt;Node4 -->
<g id="edge6" class="edge">
<title>Node6&#45;&gt;Node4</title>
<path fill="none" stroke="midnightblue" d="M123.5,-112.08C123.5,-105.01 123.5,-94.86 123.5,-85.99"/>
<polygon fill="midnightblue" stroke="midnightblue" points="127,-85.75 123.5,-75.75 120,-85.75 127,-85.75"/>
</g>
<!-- Node8 -->
<g id="node8" class="node">
<title>Node8</title>
<g id="a_node8"><a xlink:href="fitdatamessage__p_8h.html" target="_top" xlink:title=" ">
<polygon fill="none" stroke="black" points="5,-224.5 5,-243.5 118,-243.5 118,-224.5 5,-224.5"/>
<text text-anchor="middle" x="61.5" y="-231.5" font-family="Helvetica,sans-Serif" font-size="10.00">fitdatamessage_p.h</text>
</a>
</g>
</g>
<!-- Node7&#45;&gt;Node8 -->
<g id="edge8" class="edge">
<title>Node7&#45;&gt;Node8</title>
<path fill="none" stroke="midnightblue" d="M62.33,-280.08C62.2,-273.01 62.02,-262.86 61.85,-253.99"/>
<polygon fill="midnightblue" stroke="midnightblue" points="65.35,-253.68 61.66,-243.75 58.35,-253.81 65.35,-253.68"/>
</g>
<!-- Node8&#45;&gt;Node4 -->
<g id="edge9" class="edge">
<title>Node8&#45;&gt;Node4</title>
<path fill="none" stroke="midnightblue" d="M49.96,-224.49C40.02,-216.38 26.38,-203.18 20.5,-188 13.39,-169.63 20.31,-123.12 28.5,-112 40.1,-96.26 58.64,-85.81 76.27,-78.98"/>
<polygon fill="midnightblue" stroke="midnightblue" points="77.67,-82.2 85.92,-75.55 75.32,-75.6 77.67,-82.2"/>
</g>
<!-- Node8&#45;&gt;Node6 -->
<g id="edge10" class="edge">
<title>Node8&#45;&gt;Node6</title>
<path fill="none" stroke="midnightblue" d="M71.59,-224.29C80.81,-215.85 94.23,-202.26 102.5,-188 110.87,-173.58 116.38,-155.38 119.65,-141.92"/>
<polygon fill="midnightblue" stroke="midnightblue" points="123.12,-142.42 121.88,-131.9 116.29,-140.9 123.12,-142.42"/>
</g>
<!-- Node9 -->
<g id="node9" class="node">
<title>Node9</title>
<g id="a_node9"><a xlink:href="types__p_8h.html" target="_top" xlink:title=" ">
<polygon fill="none" stroke="black" points="29.5,-168.5 29.5,-187.5 93.5,-187.5 93.5,-168.5 29.5,-168.5"/>
<text text-anchor="middle" x="61.5" y="-175.5" font-family="Helvetica,sans-Serif" font-size="10.00">types_p.h</text>
</a>
</g>
</g>
<!-- Node8&#45;&gt;Node9 -->
<g id="edge11" class="edge">
<title>Node8&#45;&gt;Node9</title>
<path fill="none" stroke="midnightblue" d="M61.5,-224.08C61.5,-217.01 61.5,-206.86 61.5,-197.99"/>
<polygon fill="midnightblue" stroke="midnightblue" points="65,-197.75 61.5,-187.75 58,-197.75 65,-197.75"/>
</g>
<!-- Node9&#45;&gt;Node6 -->
<g id="edge12" class="edge">
<title>Node9&#45;&gt;Node6</title>
<path fill="none" stroke="midnightblue" d="M71.46,-168.32C80.63,-160.34 94.44,-148.31 105.53,-138.65"/>
<polygon fill="midnightblue" stroke="midnightblue" points="108.12,-141.04 113.36,-131.83 103.52,-135.76 108.12,-141.04"/>
</g>
<!-- Node10 -->
<g id="node10" class="node">
<title>Node10</title>
<g id="a_node10"><a xlink:title=" ">
<polygon fill="none" stroke="#bfbfbf" points="38,-112.5 38,-131.5 79,-131.5 79,-112.5 38,-112.5"/>
<text text-anchor="middle" x="58.5" y="-119.5" font-family="Helvetica,sans-Serif" font-size="10.00">QList</text>
</a>
</g>
</g>
<!-- Node9&#45;&gt;Node10 -->
<g id="edge13" class="edge">
<title>Node9&#45;&gt;Node10</title>
<path fill="none" stroke="midnightblue" d="M61,-168.08C60.61,-161.01 60.05,-150.86 59.55,-141.99"/>
<polygon fill="midnightblue" stroke="midnightblue" points="63.04,-141.54 58.99,-131.75 56.05,-141.93 63.04,-141.54"/>
</g>
</g>
</svg>
