<?xml version="1.0" encoding="UTF-8" standalone="no"?>
<!DOCTYPE svg PUBLIC "-//W3C//DTD SVG 1.1//EN"
 "http://www.w3.org/Graphics/SVG/1.1/DTD/svg11.dtd">
<!-- Generated by graphviz version 2.43.0 (0)
 -->
<!-- Title: schedulemessage_p.h Pages: 1 -->
<svg width="165pt" height="308pt"
 viewBox="0.00 0.00 165.00 308.00" xmlns="http://www.w3.org/2000/svg" xmlns:xlink="http://www.w3.org/1999/xlink">
<g id="graph0" class="graph" transform="scale(1 1) rotate(0) translate(4 304)">
<title>schedulemessage_p.h</title>
<!-- Node1 -->
<g id="node1" class="node">
<title>Node1</title>
<g id="a_node1"><a xlink:title=" ">
<polygon fill="#bfbfbf" stroke="black" points="0,-280.5 0,-299.5 125,-299.5 125,-280.5 0,-280.5"/>
<text text-anchor="middle" x="62.5" y="-287.5" font-family="Helvetica,sans-Serif" font-size="10.00">schedulemessage_p.h</text>
</a>
</g>
</g>
<!-- Node2 -->
<g id="node2" class="node">
<title>Node2</title>
<g id="a_node2"><a xlink:href="fitdatamessage__p_8h.html" target="_top" xlink:title=" ">
<polygon fill="none" stroke="black" points="6,-224.5 6,-243.5 119,-243.5 119,-224.5 6,-224.5"/>
<text text-anchor="middle" x="62.5" y="-231.5" font-family="Helvetica,sans-Serif" font-size="10.00">fitdatamessage_p.h</text>
</a>
</g>
</g>
<!-- Node1&#45;&gt;Node2 -->
<g id="edge1" class="edge">
<title>Node1&#45;&gt;Node2</title>
<path fill="none" stroke="midnightblue" d="M62.5,-280.08C62.5,-273.01 62.5,-262.86 62.5,-253.99"/>
<polygon fill="midnightblue" stroke="midnightblue" points="66,-253.75 62.5,-243.75 59,-253.75 66,-253.75"/>
</g>
<!-- Node3 -->
<g id="node3" class="node">
<title>Node3</title>
<g id="a_node3"><a xlink:href="QtFit__global_8h.html" target="_top" xlink:title=" ">
<polygon fill="none" stroke="black" points="1.5,-56.5 1.5,-75.5 85.5,-75.5 85.5,-56.5 1.5,-56.5"/>
<text text-anchor="middle" x="43.5" y="-63.5" font-family="Helvetica,sans-Serif" font-size="10.00">QtFit_global.h</text>
</a>
</g>
</g>
<!-- Node2&#45;&gt;Node3 -->
<g id="edge2" class="edge">
<title>Node2&#45;&gt;Node3</title>
<path fill="none" stroke="midnightblue" d="M58.65,-224.32C50.32,-204.61 31.72,-154.88 35.5,-112 36.28,-103.2 37.89,-93.54 39.47,-85.43"/>
<polygon fill="midnightblue" stroke="midnightblue" points="42.91,-86.07 41.51,-75.57 36.06,-84.65 42.91,-86.07"/>
</g>
<!-- Node5 -->
<g id="node5" class="node">
<title>Node5</title>
<g id="a_node5"><a xlink:href="types_8h.html" target="_top" xlink:title="Types defined by the ANT+ FIT SDK.">
<polygon fill="none" stroke="black" points="45,-112.5 45,-131.5 98,-131.5 98,-112.5 45,-112.5"/>
<text text-anchor="middle" x="71.5" y="-119.5" font-family="Helvetica,sans-Serif" font-size="10.00">types.h</text>
</a>
</g>
</g>
<!-- Node2&#45;&gt;Node5 -->
<g id="edge4" class="edge">
<title>Node2&#45;&gt;Node5</title>
<path fill="none" stroke="midnightblue" d="M63.21,-224.37C64.66,-206.62 68.01,-165.67 69.98,-141.6"/>
<polygon fill="midnightblue" stroke="midnightblue" points="73.47,-141.84 70.8,-131.59 66.49,-141.27 73.47,-141.84"/>
</g>
<!-- Node6 -->
<g id="node6" class="node">
<title>Node6</title>
<g id="a_node6"><a xlink:href="types__p_8h.html" target="_top" xlink:title=" ">
<polygon fill="none" stroke="black" points="90.5,-168.5 90.5,-187.5 154.5,-187.5 154.5,-168.5 90.5,-168.5"/>
<text text-anchor="middle" x="122.5" y="-175.5" font-family="Helvetica,sans-Serif" font-size="10.00">types_p.h</text>
</a>
</g>
</g>
<!-- Node2&#45;&gt;Node6 -->
<g id="edge6" class="edge">
<title>Node2&#45;&gt;Node6</title>
<path fill="none" stroke="midnightblue" d="M72.14,-224.32C81.01,-216.34 94.37,-204.31 105.11,-194.65"/>
<polygon fill="midnightblue" stroke="midnightblue" points="107.59,-197.13 112.68,-187.83 102.91,-191.92 107.59,-197.13"/>
</g>
<!-- Node4 -->
<g id="node4" class="node">
<title>Node4</title>
<g id="a_node4"><a xlink:title=" ">
<polygon fill="none" stroke="#bfbfbf" points="14,-0.5 14,-19.5 73,-19.5 73,-0.5 14,-0.5"/>
<text text-anchor="middle" x="43.5" y="-7.5" font-family="Helvetica,sans-Serif" font-size="10.00">QtGlobal</text>
</a>
</g>
</g>
<!-- Node3&#45;&gt;Node4 -->
<g id="edge3" class="edge">
<title>Node3&#45;&gt;Node4</title>
<path fill="none" stroke="midnightblue" d="M43.5,-56.08C43.5,-49.01 43.5,-38.86 43.5,-29.99"/>
<polygon fill="midnightblue" stroke="midnightblue" points="47,-29.75 43.5,-19.75 40,-29.75 47,-29.75"/>
</g>
<!-- Node5&#45;&gt;Node3 -->
<g id="edge5" class="edge">
<title>Node5&#45;&gt;Node3</title>
<path fill="none" stroke="midnightblue" d="M66.88,-112.08C63.04,-104.69 57.48,-93.95 52.74,-84.81"/>
<polygon fill="midnightblue" stroke="midnightblue" points="55.75,-83.02 48.04,-75.75 49.53,-86.24 55.75,-83.02"/>
</g>
<!-- Node6&#45;&gt;Node5 -->
<g id="edge7" class="edge">
<title>Node6&#45;&gt;Node5</title>
<path fill="none" stroke="midnightblue" d="M114.08,-168.08C106.65,-160.22 95.65,-148.57 86.69,-139.08"/>
<polygon fill="midnightblue" stroke="midnightblue" points="89.18,-136.62 79.76,-131.75 84.09,-141.42 89.18,-136.62"/>
</g>
<!-- Node7 -->
<g id="node7" class="node">
<title>Node7</title>
<g id="a_node7"><a xlink:title=" ">
<polygon fill="none" stroke="#bfbfbf" points="116,-112.5 116,-131.5 157,-131.5 157,-112.5 116,-112.5"/>
<text text-anchor="middle" x="136.5" y="-119.5" font-family="Helvetica,sans-Serif" font-size="10.00">QList</text>
</a>
</g>
</g>
<!-- Node6&#45;&gt;Node7 -->
<g id="edge8" class="edge">
<title>Node6&#45;&gt;Node7</title>
<path fill="none" stroke="midnightblue" d="M124.81,-168.08C126.67,-160.93 129.34,-150.64 131.65,-141.69"/>
<polygon fill="midnightblue" stroke="midnightblue" points="135.11,-142.31 134.23,-131.75 128.33,-140.55 135.11,-142.31"/>
</g>
</g>
</svg>
