<?xml version="1.0" encoding="UTF-8" standalone="no"?>
<!DOCTYPE svg PUBLIC "-//W3C//DTD SVG 1.1//EN"
 "http://www.w3.org/Graphics/SVG/1.1/DTD/svg11.dtd">
<!-- Generated by graphviz version 2.43.0 (0)
 -->
<!-- Title: segmentpointmessage.cpp Pages: 1 -->
<svg width="312pt" height="364pt"
 viewBox="0.00 0.00 312.00 364.00" xmlns="http://www.w3.org/2000/svg" xmlns:xlink="http://www.w3.org/1999/xlink">
<g id="graph0" class="graph" transform="scale(1 1) rotate(0) translate(4 360)">
<title>segmentpointmessage.cpp</title>
<!-- Node1 -->
<g id="node1" class="node">
<title>Node1</title>
<g id="a_node1"><a xlink:title=" ">
<polygon fill="#bfbfbf" stroke="black" points="80,-336.5 80,-355.5 229,-355.5 229,-336.5 80,-336.5"/>
<text text-anchor="middle" x="154.5" y="-343.5" font-family="Helvetica,sans-Serif" font-size="10.00">segmentpointmessage.cpp</text>
</a>
</g>
</g>
<!-- Node2 -->
<g id="node2" class="node">
<title>Node2</title>
<g id="a_node2"><a xlink:href="segmentpointmessage_8h.html" target="_top" xlink:title=" ">
<polygon fill="none" stroke="black" points="167,-280.5 167,-299.5 304,-299.5 304,-280.5 167,-280.5"/>
<text text-anchor="middle" x="235.5" y="-287.5" font-family="Helvetica,sans-Serif" font-size="10.00">segmentpointmessage.h</text>
</a>
</g>
</g>
<!-- Node1&#45;&gt;Node2 -->
<g id="edge1" class="edge">
<title>Node1&#45;&gt;Node2</title>
<path fill="none" stroke="midnightblue" d="M167.51,-336.32C180.03,-327.98 199.18,-315.21 213.97,-305.35"/>
<polygon fill="midnightblue" stroke="midnightblue" points="216.14,-308.11 222.52,-299.65 212.26,-302.29 216.14,-308.11"/>
</g>
<!-- Node7 -->
<g id="node7" class="node">
<title>Node7</title>
<g id="a_node7"><a xlink:href="segmentpointmessage__p_8h.html" target="_top" xlink:title=" ">
<polygon fill="none" stroke="black" points="0,-280.5 0,-299.5 149,-299.5 149,-280.5 0,-280.5"/>
<text text-anchor="middle" x="74.5" y="-287.5" font-family="Helvetica,sans-Serif" font-size="10.00">segmentpointmessage_p.h</text>
</a>
</g>
</g>
<!-- Node1&#45;&gt;Node7 -->
<g id="edge7" class="edge">
<title>Node1&#45;&gt;Node7</title>
<path fill="none" stroke="midnightblue" d="M141.65,-336.32C129.28,-327.98 110.37,-315.21 95.76,-305.35"/>
<polygon fill="midnightblue" stroke="midnightblue" points="97.57,-302.35 87.32,-299.65 93.65,-308.15 97.57,-302.35"/>
</g>
<!-- Node3 -->
<g id="node3" class="node">
<title>Node3</title>
<g id="a_node3"><a xlink:href="fitdatamessage_8h.html" target="_top" xlink:title=" ">
<polygon fill="none" stroke="black" points="179,-168.5 179,-187.5 280,-187.5 280,-168.5 179,-168.5"/>
<text text-anchor="middle" x="229.5" y="-175.5" font-family="Helvetica,sans-Serif" font-size="10.00">fitdatamessage.h</text>
</a>
</g>
</g>
<!-- Node2&#45;&gt;Node3 -->
<g id="edge2" class="edge">
<title>Node2&#45;&gt;Node3</title>
<path fill="none" stroke="midnightblue" d="M235.03,-280.37C234.06,-262.62 231.83,-221.67 230.51,-197.6"/>
<polygon fill="midnightblue" stroke="midnightblue" points="234.01,-197.39 229.97,-187.59 227.02,-197.77 234.01,-197.39"/>
</g>
<!-- Node4 -->
<g id="node4" class="node">
<title>Node4</title>
<g id="a_node4"><a xlink:href="QtFit__global_8h.html" target="_top" xlink:title=" ">
<polygon fill="none" stroke="black" points="110.5,-56.5 110.5,-75.5 194.5,-75.5 194.5,-56.5 110.5,-56.5"/>
<text text-anchor="middle" x="152.5" y="-63.5" font-family="Helvetica,sans-Serif" font-size="10.00">QtFit_global.h</text>
</a>
</g>
</g>
<!-- Node3&#45;&gt;Node4 -->
<g id="edge3" class="edge">
<title>Node3&#45;&gt;Node4</title>
<path fill="none" stroke="midnightblue" d="M224.49,-168.39C217.04,-155.75 202.43,-131.56 188.5,-112 181.61,-102.32 173.36,-91.94 166.51,-83.59"/>
<polygon fill="midnightblue" stroke="midnightblue" points="169.06,-81.19 159.97,-75.74 163.68,-85.66 169.06,-81.19"/>
</g>
<!-- Node6 -->
<g id="node6" class="node">
<title>Node6</title>
<g id="a_node6"><a xlink:href="types_8h.html" target="_top" xlink:title="Types defined by the ANT+ FIT SDK.">
<polygon fill="none" stroke="black" points="126,-112.5 126,-131.5 179,-131.5 179,-112.5 126,-112.5"/>
<text text-anchor="middle" x="152.5" y="-119.5" font-family="Helvetica,sans-Serif" font-size="10.00">types.h</text>
</a>
</g>
</g>
<!-- Node3&#45;&gt;Node6 -->
<g id="edge5" class="edge">
<title>Node3&#45;&gt;Node6</title>
<path fill="none" stroke="midnightblue" d="M217.13,-168.32C205.34,-160.06 187.37,-147.45 173.36,-137.63"/>
<polygon fill="midnightblue" stroke="midnightblue" points="175.04,-134.53 164.84,-131.65 171.02,-140.26 175.04,-134.53"/>
</g>
<!-- Node5 -->
<g id="node5" class="node">
<title>Node5</title>
<g id="a_node5"><a xlink:title=" ">
<polygon fill="none" stroke="#bfbfbf" points="123,-0.5 123,-19.5 182,-19.5 182,-0.5 123,-0.5"/>
<text text-anchor="middle" x="152.5" y="-7.5" font-family="Helvetica,sans-Serif" font-size="10.00">QtGlobal</text>
</a>
</g>
</g>
<!-- Node4&#45;&gt;Node5 -->
<g id="edge4" class="edge">
<title>Node4&#45;&gt;Node5</title>
<path fill="none" stroke="midnightblue" d="M152.5,-56.08C152.5,-49.01 152.5,-38.86 152.5,-29.99"/>
<polygon fill="midnightblue" stroke="midnightblue" points="156,-29.75 152.5,-19.75 149,-29.75 156,-29.75"/>
</g>
<!-- Node6&#45;&gt;Node4 -->
<g id="edge6" class="edge">
<title>Node6&#45;&gt;Node4</title>
<path fill="none" stroke="midnightblue" d="M152.5,-112.08C152.5,-105.01 152.5,-94.86 152.5,-85.99"/>
<polygon fill="midnightblue" stroke="midnightblue" points="156,-85.75 152.5,-75.75 149,-85.75 156,-85.75"/>
</g>
<!-- Node8 -->
<g id="node8" class="node">
<title>Node8</title>
<g id="a_node8"><a xlink:href="fitdatamessage__p_8h.html" target="_top" xlink:title=" ">
<polygon fill="none" stroke="black" points="29,-224.5 29,-243.5 142,-243.5 142,-224.5 29,-224.5"/>
<text text-anchor="middle" x="85.5" y="-231.5" font-family="Helvetica,sans-Serif" font-size="10.00">fitdatamessage_p.h</text>
</a>
</g>
</g>
<!-- Node7&#45;&gt;Node8 -->
<g id="edge8" class="edge">
<title>Node7&#45;&gt;Node8</title>
<path fill="none" stroke="midnightblue" d="M76.32,-280.08C77.77,-272.93 79.87,-262.64 81.69,-253.69"/>
<polygon fill="midnightblue" stroke="midnightblue" points="85.15,-254.25 83.72,-243.75 78.29,-252.85 85.15,-254.25"/>
</g>
<!-- Node8&#45;&gt;Node4 -->
<g id="edge9" class="edge">
<title>Node8&#45;&gt;Node4</title>
<path fill="none" stroke="midnightblue" d="M75.34,-224.19C66.59,-215.87 54.6,-202.54 49.5,-188 42.84,-169.02 50.59,-121.38 57.5,-112 69.1,-96.26 87.64,-85.81 105.27,-78.98"/>
<polygon fill="midnightblue" stroke="midnightblue" points="106.67,-82.2 114.92,-75.55 104.32,-75.6 106.67,-82.2"/>
</g>
<!-- Node8&#45;&gt;Node6 -->
<g id="edge10" class="edge">
<title>Node8&#45;&gt;Node6</title>
<path fill="none" stroke="midnightblue" d="M97.27,-224.23C107.64,-215.94 122.44,-202.63 131.5,-188 140.38,-173.66 145.87,-155.2 149,-141.62"/>
<polygon fill="midnightblue" stroke="midnightblue" points="152.49,-142.06 151.1,-131.55 145.63,-140.63 152.49,-142.06"/>
</g>
<!-- Node9 -->
<g id="node9" class="node">
<title>Node9</title>
<g id="a_node9"><a xlink:href="types__p_8h.html" target="_top" xlink:title=" ">
<polygon fill="none" stroke="black" points="58.5,-168.5 58.5,-187.5 122.5,-187.5 122.5,-168.5 58.5,-168.5"/>
<text text-anchor="middle" x="90.5" y="-175.5" font-family="Helvetica,sans-Serif" font-size="10.00">types_p.h</text>
</a>
</g>
</g>
<!-- Node8&#45;&gt;Node9 -->
<g id="edge11" class="edge">
<title>Node8&#45;&gt;Node9</title>
<path fill="none" stroke="midnightblue" d="M86.33,-224.08C86.98,-217.01 87.92,-206.86 88.74,-197.99"/>
<polygon fill="midnightblue" stroke="midnightblue" points="92.25,-198.03 89.69,-187.75 85.28,-197.39 92.25,-198.03"/>
</g>
<!-- Node9&#45;&gt;Node6 -->
<g id="edge12" class="edge">
<title>Node9&#45;&gt;Node6</title>
<path fill="none" stroke="midnightblue" d="M100.46,-168.32C109.63,-160.34 123.44,-148.31 134.53,-138.65"/>
<polygon fill="midnightblue" stroke="midnightblue" points="137.12,-141.04 142.36,-131.83 132.52,-135.76 137.12,-141.04"/>
</g>
<!-- Node10 -->
<g id="node10" class="node">
<title>Node10</title>
<g id="a_node10"><a xlink:title=" ">
<polygon fill="none" stroke="#bfbfbf" points="67,-112.5 67,-131.5 108,-131.5 108,-112.5 67,-112.5"/>
<text text-anchor="middle" x="87.5" y="-119.5" font-family="Helvetica,sans-Serif" font-size="10.00">QList</text>
</a>
</g>
</g>
<!-- Node9&#45;&gt;Node10 -->
<g id="edge13" class="edge">
<title>Node9&#45;&gt;Node10</title>
<path fill="none" stroke="midnightblue" d="M90,-168.08C89.61,-161.01 89.05,-150.86 88.55,-141.99"/>
<polygon fill="midnightblue" stroke="midnightblue" points="92.04,-141.54 87.99,-131.75 85.05,-141.93 92.04,-141.54"/>
</g>
</g>
</svg>
