<?xml version="1.0" encoding="UTF-8" standalone="no"?>
<!DOCTYPE svg PUBLIC "-//W3C//DTD SVG 1.1//EN"
 "http://www.w3.org/Graphics/SVG/1.1/DTD/svg11.dtd">
<!-- Generated by graphviz version 2.43.0 (0)
 -->
<!-- Title: segmentleaderboardentrymessage.cpp Pages: 1 -->
<svg width="549pt" height="364pt"
 viewBox="0.00 0.00 549.00 364.00" xmlns="http://www.w3.org/2000/svg" xmlns:xlink="http://www.w3.org/1999/xlink">
<g id="graph0" class="graph" transform="scale(1 1) rotate(0) translate(4 360)">
<title>segmentleaderboardentrymessage.cpp</title>
<!-- Node1 -->
<g id="node1" class="node">
<title>Node1</title>
<g id="a_node1"><a xlink:title=" ">
<polygon fill="#bfbfbf" stroke="black" points="281.5,-336.5 281.5,-355.5 489.5,-355.5 489.5,-336.5 281.5,-336.5"/>
<text text-anchor="middle" x="385.5" y="-343.5" font-family="Helvetica,sans-Serif" font-size="10.00">segmentleaderboardentrymessage.cpp</text>
</a>
</g>
</g>
<!-- Node2 -->
<g id="node2" class="node">
<title>Node2</title>
<g id="a_node2"><a xlink:href="segmentleaderboardentrymessage_8h.html" target="_top" xlink:title=" ">
<polygon fill="none" stroke="black" points="0,-280.5 0,-299.5 197,-299.5 197,-280.5 0,-280.5"/>
<text text-anchor="middle" x="98.5" y="-287.5" font-family="Helvetica,sans-Serif" font-size="10.00">segmentleaderboardentrymessage.h</text>
</a>
</g>
</g>
<!-- Node1&#45;&gt;Node2 -->
<g id="edge1" class="edge">
<title>Node1&#45;&gt;Node2</title>
<path fill="none" stroke="midnightblue" d="M340.02,-336.44C289.54,-326.94 208.04,-311.61 153.88,-301.42"/>
<polygon fill="midnightblue" stroke="midnightblue" points="154.24,-297.93 143.76,-299.52 152.94,-304.81 154.24,-297.93"/>
</g>
<!-- Node7 -->
<g id="node7" class="node">
<title>Node7</title>
<g id="a_node7"><a xlink:title=" ">
<polygon fill="none" stroke="#bfbfbf" points="381.5,-56.5 381.5,-75.5 437.5,-75.5 437.5,-56.5 381.5,-56.5"/>
<text text-anchor="middle" x="409.5" y="-63.5" font-family="Helvetica,sans-Serif" font-size="10.00">QDebug</text>
</a>
</g>
</g>
<!-- Node1&#45;&gt;Node7 -->
<g id="edge15" class="edge">
<title>Node1&#45;&gt;Node7</title>
<path fill="none" stroke="midnightblue" d="M397.64,-336.34C408.3,-328.13 423.47,-314.87 432.5,-300 448.12,-274.27 451.5,-265.1 451.5,-235 451.5,-235 451.5,-235 451.5,-177 451.5,-142.41 433.15,-105.49 420.71,-84.43"/>
<polygon fill="midnightblue" stroke="midnightblue" points="423.56,-82.38 415.34,-75.69 417.59,-86.04 423.56,-82.38"/>
</g>
<!-- Node8 -->
<g id="node8" class="node">
<title>Node8</title>
<g id="a_node8"><a xlink:href="segmentleaderboardentrymessage__p_8h.html" target="_top" xlink:title=" ">
<polygon fill="none" stroke="black" points="215.5,-280.5 215.5,-299.5 423.5,-299.5 423.5,-280.5 215.5,-280.5"/>
<text text-anchor="middle" x="319.5" y="-287.5" font-family="Helvetica,sans-Serif" font-size="10.00">segmentleaderboardentrymessage_p.h</text>
</a>
</g>
</g>
<!-- Node1&#45;&gt;Node8 -->
<g id="edge8" class="edge">
<title>Node1&#45;&gt;Node8</title>
<path fill="none" stroke="midnightblue" d="M374.9,-336.32C365.04,-328.26 350.15,-316.08 338.28,-306.37"/>
<polygon fill="midnightblue" stroke="midnightblue" points="340.25,-303.46 330.3,-299.83 335.82,-308.88 340.25,-303.46"/>
</g>
<!-- Node12 -->
<g id="node12" class="node">
<title>Node12</title>
<g id="a_node12"><a xlink:title=" ">
<polygon fill="none" stroke="#bfbfbf" points="480,-280.5 480,-299.5 541,-299.5 541,-280.5 480,-280.5"/>
<text text-anchor="middle" x="510.5" y="-287.5" font-family="Helvetica,sans-Serif" font-size="10.00">QtEndian</text>
</a>
</g>
</g>
<!-- Node1&#45;&gt;Node12 -->
<g id="edge16" class="edge">
<title>Node1&#45;&gt;Node12</title>
<path fill="none" stroke="midnightblue" d="M405.31,-336.44C425.79,-327.6 457.98,-313.69 481.36,-303.59"/>
<polygon fill="midnightblue" stroke="midnightblue" points="482.99,-306.7 490.79,-299.52 480.22,-300.27 482.99,-306.7"/>
</g>
<!-- Node3 -->
<g id="node3" class="node">
<title>Node3</title>
<g id="a_node3"><a xlink:href="abstractdatamessage_8h_source.html" target="_top" xlink:title=" ">
<polygon fill="none" stroke="black" points="113,-168.5 113,-187.5 244,-187.5 244,-168.5 113,-168.5"/>
<text text-anchor="middle" x="178.5" y="-175.5" font-family="Helvetica,sans-Serif" font-size="10.00">abstractdatamessage.h</text>
</a>
</g>
</g>
<!-- Node2&#45;&gt;Node3 -->
<g id="edge2" class="edge">
<title>Node2&#45;&gt;Node3</title>
<path fill="none" stroke="midnightblue" d="M104.78,-280.37C117.98,-262.22 148.83,-219.8 166.14,-195.99"/>
<polygon fill="midnightblue" stroke="midnightblue" points="169.2,-197.74 172.25,-187.59 163.54,-193.62 169.2,-197.74"/>
</g>
<!-- Node4 -->
<g id="node4" class="node">
<title>Node4</title>
<g id="a_node4"><a xlink:href="QtFit__global_8h_source.html" target="_top" xlink:title=" ">
<polygon fill="none" stroke="black" points="230.5,-56.5 230.5,-75.5 314.5,-75.5 314.5,-56.5 230.5,-56.5"/>
<text text-anchor="middle" x="272.5" y="-63.5" font-family="Helvetica,sans-Serif" font-size="10.00">QtFit_global.h</text>
</a>
</g>
</g>
<!-- Node3&#45;&gt;Node4 -->
<g id="edge3" class="edge">
<title>Node3&#45;&gt;Node4</title>
<path fill="none" stroke="midnightblue" d="M185.88,-168.37C201.53,-150.05 238.28,-107.05 258.52,-83.36"/>
<polygon fill="midnightblue" stroke="midnightblue" points="261.32,-85.47 265.16,-75.59 256,-80.92 261.32,-85.47"/>
</g>
<!-- Node6 -->
<g id="node6" class="node">
<title>Node6</title>
<g id="a_node6"><a xlink:href="types_8h.html" target="_top" xlink:title="Types defined by the ANT+ FIT SDK.">
<polygon fill="none" stroke="black" points="301,-112.5 301,-131.5 354,-131.5 354,-112.5 301,-112.5"/>
<text text-anchor="middle" x="327.5" y="-119.5" font-family="Helvetica,sans-Serif" font-size="10.00">types.h</text>
</a>
</g>
</g>
<!-- Node3&#45;&gt;Node6 -->
<g id="edge5" class="edge">
<title>Node3&#45;&gt;Node6</title>
<path fill="none" stroke="midnightblue" d="M202.11,-168.44C226.96,-159.44 266.27,-145.19 294.25,-135.05"/>
<polygon fill="midnightblue" stroke="midnightblue" points="295.79,-138.21 304,-131.52 293.41,-131.63 295.79,-138.21"/>
</g>
<!-- Node5 -->
<g id="node5" class="node">
<title>Node5</title>
<g id="a_node5"><a xlink:title=" ">
<polygon fill="none" stroke="#bfbfbf" points="243,-0.5 243,-19.5 302,-19.5 302,-0.5 243,-0.5"/>
<text text-anchor="middle" x="272.5" y="-7.5" font-family="Helvetica,sans-Serif" font-size="10.00">QtGlobal</text>
</a>
</g>
</g>
<!-- Node4&#45;&gt;Node5 -->
<g id="edge4" class="edge">
<title>Node4&#45;&gt;Node5</title>
<path fill="none" stroke="midnightblue" d="M272.5,-56.08C272.5,-49.01 272.5,-38.86 272.5,-29.99"/>
<polygon fill="midnightblue" stroke="midnightblue" points="276,-29.75 272.5,-19.75 269,-29.75 276,-29.75"/>
</g>
<!-- Node6&#45;&gt;Node4 -->
<g id="edge6" class="edge">
<title>Node6&#45;&gt;Node4</title>
<path fill="none" stroke="midnightblue" d="M318.42,-112.08C310.33,-104.14 298.3,-92.34 288.59,-82.8"/>
<polygon fill="midnightblue" stroke="midnightblue" points="291,-80.26 281.41,-75.75 286.1,-85.25 291,-80.26"/>
</g>
<!-- Node6&#45;&gt;Node7 -->
<g id="edge7" class="edge">
<title>Node6&#45;&gt;Node7</title>
<path fill="none" stroke="midnightblue" d="M340.67,-112.32C353.35,-103.98 372.73,-91.21 387.71,-81.35"/>
<polygon fill="midnightblue" stroke="midnightblue" points="389.93,-84.08 396.36,-75.65 386.08,-78.23 389.93,-84.08"/>
</g>
<!-- Node9 -->
<g id="node9" class="node">
<title>Node9</title>
<g id="a_node9"><a xlink:href="abstractdatamessage__p_8h_source.html" target="_top" xlink:title=" ">
<polygon fill="none" stroke="black" points="248,-224.5 248,-243.5 391,-243.5 391,-224.5 248,-224.5"/>
<text text-anchor="middle" x="319.5" y="-231.5" font-family="Helvetica,sans-Serif" font-size="10.00">abstractdatamessage_p.h</text>
</a>
</g>
</g>
<!-- Node8&#45;&gt;Node9 -->
<g id="edge9" class="edge">
<title>Node8&#45;&gt;Node9</title>
<path fill="none" stroke="midnightblue" d="M319.5,-280.08C319.5,-273.01 319.5,-262.86 319.5,-253.99"/>
<polygon fill="midnightblue" stroke="midnightblue" points="323,-253.75 319.5,-243.75 316,-253.75 323,-253.75"/>
</g>
<!-- Node9&#45;&gt;Node4 -->
<g id="edge10" class="edge">
<title>Node9&#45;&gt;Node4</title>
<path fill="none" stroke="midnightblue" d="M316.97,-224.08C309.57,-197.95 287.85,-121.21 277.76,-85.58"/>
<polygon fill="midnightblue" stroke="midnightblue" points="281.02,-84.24 274.93,-75.57 274.28,-86.14 281.02,-84.24"/>
</g>
<!-- Node9&#45;&gt;Node6 -->
<g id="edge11" class="edge">
<title>Node9&#45;&gt;Node6</title>
<path fill="none" stroke="midnightblue" d="M320.13,-224.37C321.42,-206.62 324.4,-165.67 326.15,-141.6"/>
<polygon fill="midnightblue" stroke="midnightblue" points="329.64,-141.82 326.88,-131.59 322.66,-141.31 329.64,-141.82"/>
</g>
<!-- Node10 -->
<g id="node10" class="node">
<title>Node10</title>
<g id="a_node10"><a xlink:href="types__p_8h_source.html" target="_top" xlink:title=" ">
<polygon fill="none" stroke="black" points="347.5,-168.5 347.5,-187.5 411.5,-187.5 411.5,-168.5 347.5,-168.5"/>
<text text-anchor="middle" x="379.5" y="-175.5" font-family="Helvetica,sans-Serif" font-size="10.00">types_p.h</text>
</a>
</g>
</g>
<!-- Node9&#45;&gt;Node10 -->
<g id="edge12" class="edge">
<title>Node9&#45;&gt;Node10</title>
<path fill="none" stroke="midnightblue" d="M329.14,-224.32C338.01,-216.34 351.37,-204.31 362.11,-194.65"/>
<polygon fill="midnightblue" stroke="midnightblue" points="364.59,-197.13 369.68,-187.83 359.91,-191.92 364.59,-197.13"/>
</g>
<!-- Node10&#45;&gt;Node6 -->
<g id="edge13" class="edge">
<title>Node10&#45;&gt;Node6</title>
<path fill="none" stroke="midnightblue" d="M370.91,-168.08C363.34,-160.22 352.12,-148.57 342.99,-139.08"/>
<polygon fill="midnightblue" stroke="midnightblue" points="345.38,-136.53 335.93,-131.75 340.34,-141.38 345.38,-136.53"/>
</g>
<!-- Node11 -->
<g id="node11" class="node">
<title>Node11</title>
<g id="a_node11"><a xlink:title=" ">
<polygon fill="none" stroke="#bfbfbf" points="372,-112.5 372,-131.5 413,-131.5 413,-112.5 372,-112.5"/>
<text text-anchor="middle" x="392.5" y="-119.5" font-family="Helvetica,sans-Serif" font-size="10.00">QList</text>
</a>
</g>
</g>
<!-- Node10&#45;&gt;Node11 -->
<g id="edge14" class="edge">
<title>Node10&#45;&gt;Node11</title>
<path fill="none" stroke="midnightblue" d="M381.65,-168.08C383.37,-160.93 385.85,-150.64 388,-141.69"/>
<polygon fill="midnightblue" stroke="midnightblue" points="391.46,-142.29 390.39,-131.75 384.65,-140.65 391.46,-142.29"/>
</g>
</g>
</svg>
