<?xml version="1.0" encoding="UTF-8" standalone="no"?>
<!DOCTYPE svg PUBLIC "-//W3C//DTD SVG 1.1//EN"
 "http://www.w3.org/Graphics/SVG/1.1/DTD/svg11.dtd">
<!-- Generated by graphviz version 2.43.0 (0)
 -->
<!-- Title: segmentleaderboardentrymessage_p.h Pages: 1 -->
<svg width="216pt" height="308pt"
 viewBox="0.00 0.00 216.00 308.00" xmlns="http://www.w3.org/2000/svg" xmlns:xlink="http://www.w3.org/1999/xlink">
<g id="graph0" class="graph" transform="scale(1 1) rotate(0) translate(4 304)">
<title>segmentleaderboardentrymessage_p.h</title>
<!-- Node1 -->
<g id="node1" class="node">
<title>Node1</title>
<g id="a_node1"><a xlink:title=" ">
<polygon fill="#bfbfbf" stroke="black" points="0,-280.5 0,-299.5 208,-299.5 208,-280.5 0,-280.5"/>
<text text-anchor="middle" x="104" y="-287.5" font-family="Helvetica,sans-Serif" font-size="10.00">segmentleaderboardentrymessage_p.h</text>
</a>
</g>
</g>
<!-- Node2 -->
<g id="node2" class="node">
<title>Node2</title>
<g id="a_node2"><a xlink:href="fitdatamessage__p_8h.html" target="_top" xlink:title=" ">
<polygon fill="none" stroke="black" points="47.5,-224.5 47.5,-243.5 160.5,-243.5 160.5,-224.5 47.5,-224.5"/>
<text text-anchor="middle" x="104" y="-231.5" font-family="Helvetica,sans-Serif" font-size="10.00">fitdatamessage_p.h</text>
</a>
</g>
</g>
<!-- Node1&#45;&gt;Node2 -->
<g id="edge1" class="edge">
<title>Node1&#45;&gt;Node2</title>
<path fill="none" stroke="midnightblue" d="M104,-280.08C104,-273.01 104,-262.86 104,-253.99"/>
<polygon fill="midnightblue" stroke="midnightblue" points="107.5,-253.75 104,-243.75 100.5,-253.75 107.5,-253.75"/>
</g>
<!-- Node3 -->
<g id="node3" class="node">
<title>Node3</title>
<g id="a_node3"><a xlink:href="QtFit__global_8h.html" target="_top" xlink:title=" ">
<polygon fill="none" stroke="black" points="16,-56.5 16,-75.5 100,-75.5 100,-56.5 16,-56.5"/>
<text text-anchor="middle" x="58" y="-63.5" font-family="Helvetica,sans-Serif" font-size="10.00">QtFit_global.h</text>
</a>
</g>
</g>
<!-- Node2&#45;&gt;Node3 -->
<g id="edge2" class="edge">
<title>Node2&#45;&gt;Node3</title>
<path fill="none" stroke="midnightblue" d="M101.53,-224.08C94.29,-197.95 73.02,-121.21 63.15,-85.58"/>
<polygon fill="midnightblue" stroke="midnightblue" points="66.42,-84.27 60.37,-75.57 59.67,-86.14 66.42,-84.27"/>
</g>
<!-- Node5 -->
<g id="node5" class="node">
<title>Node5</title>
<g id="a_node5"><a xlink:href="types_8h.html" target="_top" xlink:title="Types defined by the ANT+ FIT SDK.">
<polygon fill="none" stroke="black" points="86.5,-112.5 86.5,-131.5 139.5,-131.5 139.5,-112.5 86.5,-112.5"/>
<text text-anchor="middle" x="113" y="-119.5" font-family="Helvetica,sans-Serif" font-size="10.00">types.h</text>
</a>
</g>
</g>
<!-- Node2&#45;&gt;Node5 -->
<g id="edge4" class="edge">
<title>Node2&#45;&gt;Node5</title>
<path fill="none" stroke="midnightblue" d="M104.71,-224.37C106.16,-206.62 109.51,-165.67 111.48,-141.6"/>
<polygon fill="midnightblue" stroke="midnightblue" points="114.97,-141.84 112.3,-131.59 107.99,-141.27 114.97,-141.84"/>
</g>
<!-- Node7 -->
<g id="node7" class="node">
<title>Node7</title>
<g id="a_node7"><a xlink:href="types__p_8h.html" target="_top" xlink:title=" ">
<polygon fill="none" stroke="black" points="132,-168.5 132,-187.5 196,-187.5 196,-168.5 132,-168.5"/>
<text text-anchor="middle" x="164" y="-175.5" font-family="Helvetica,sans-Serif" font-size="10.00">types_p.h</text>
</a>
</g>
</g>
<!-- Node2&#45;&gt;Node7 -->
<g id="edge7" class="edge">
<title>Node2&#45;&gt;Node7</title>
<path fill="none" stroke="midnightblue" d="M113.64,-224.32C122.51,-216.34 135.87,-204.31 146.61,-194.65"/>
<polygon fill="midnightblue" stroke="midnightblue" points="149.09,-197.13 154.18,-187.83 144.41,-191.92 149.09,-197.13"/>
</g>
<!-- Node4 -->
<g id="node4" class="node">
<title>Node4</title>
<g id="a_node4"><a xlink:title=" ">
<polygon fill="none" stroke="#bfbfbf" points="28.5,-0.5 28.5,-19.5 87.5,-19.5 87.5,-0.5 28.5,-0.5"/>
<text text-anchor="middle" x="58" y="-7.5" font-family="Helvetica,sans-Serif" font-size="10.00">QtGlobal</text>
</a>
</g>
</g>
<!-- Node3&#45;&gt;Node4 -->
<g id="edge3" class="edge">
<title>Node3&#45;&gt;Node4</title>
<path fill="none" stroke="midnightblue" d="M58,-56.08C58,-49.01 58,-38.86 58,-29.99"/>
<polygon fill="midnightblue" stroke="midnightblue" points="61.5,-29.75 58,-19.75 54.5,-29.75 61.5,-29.75"/>
</g>
<!-- Node5&#45;&gt;Node3 -->
<g id="edge5" class="edge">
<title>Node5&#45;&gt;Node3</title>
<path fill="none" stroke="midnightblue" d="M103.92,-112.08C95.83,-104.14 83.8,-92.34 74.09,-82.8"/>
<polygon fill="midnightblue" stroke="midnightblue" points="76.5,-80.26 66.91,-75.75 71.6,-85.25 76.5,-80.26"/>
</g>
<!-- Node6 -->
<g id="node6" class="node">
<title>Node6</title>
<g id="a_node6"><a xlink:title=" ">
<polygon fill="none" stroke="#bfbfbf" points="118,-56.5 118,-75.5 174,-75.5 174,-56.5 118,-56.5"/>
<text text-anchor="middle" x="146" y="-63.5" font-family="Helvetica,sans-Serif" font-size="10.00">QDebug</text>
</a>
</g>
</g>
<!-- Node5&#45;&gt;Node6 -->
<g id="edge6" class="edge">
<title>Node5&#45;&gt;Node6</title>
<path fill="none" stroke="midnightblue" d="M118.45,-112.08C123.01,-104.61 129.67,-93.72 135.29,-84.52"/>
<polygon fill="midnightblue" stroke="midnightblue" points="138.42,-86.11 140.65,-75.75 132.45,-82.46 138.42,-86.11"/>
</g>
<!-- Node7&#45;&gt;Node5 -->
<g id="edge8" class="edge">
<title>Node7&#45;&gt;Node5</title>
<path fill="none" stroke="midnightblue" d="M155.58,-168.08C148.15,-160.22 137.15,-148.57 128.19,-139.08"/>
<polygon fill="midnightblue" stroke="midnightblue" points="130.68,-136.62 121.26,-131.75 125.59,-141.42 130.68,-136.62"/>
</g>
<!-- Node8 -->
<g id="node8" class="node">
<title>Node8</title>
<g id="a_node8"><a xlink:title=" ">
<polygon fill="none" stroke="#bfbfbf" points="157.5,-112.5 157.5,-131.5 198.5,-131.5 198.5,-112.5 157.5,-112.5"/>
<text text-anchor="middle" x="178" y="-119.5" font-family="Helvetica,sans-Serif" font-size="10.00">QList</text>
</a>
</g>
</g>
<!-- Node7&#45;&gt;Node8 -->
<g id="edge9" class="edge">
<title>Node7&#45;&gt;Node8</title>
<path fill="none" stroke="midnightblue" d="M166.31,-168.08C168.17,-160.93 170.84,-150.64 173.15,-141.69"/>
<polygon fill="midnightblue" stroke="midnightblue" points="176.61,-142.31 175.73,-131.75 169.83,-140.55 176.61,-142.31"/>
</g>
</g>
</svg>
