<?xml version="1.0" encoding="UTF-8" standalone="no"?>
<!DOCTYPE svg PUBLIC "-//W3C//DTD SVG 1.1//EN"
 "http://www.w3.org/Graphics/SVG/1.1/DTD/svg11.dtd">
<!-- Generated by graphviz version 2.43.0 (0)
 -->
<!-- Title: segmentleaderboardentrymessage.cpp Pages: 1 -->
<svg width="432pt" height="364pt"
 viewBox="0.00 0.00 431.50 364.00" xmlns="http://www.w3.org/2000/svg" xmlns:xlink="http://www.w3.org/1999/xlink">
<g id="graph0" class="graph" transform="scale(1 1) rotate(0) translate(4 360)">
<title>segmentleaderboardentrymessage.cpp</title>
<!-- Node1 -->
<g id="node1" class="node">
<title>Node1</title>
<g id="a_node1"><a xlink:title=" ">
<polygon fill="#bfbfbf" stroke="black" points="110,-336.5 110,-355.5 318,-355.5 318,-336.5 110,-336.5"/>
<text text-anchor="middle" x="214" y="-343.5" font-family="Helvetica,sans-Serif" font-size="10.00">segmentleaderboardentrymessage.cpp</text>
</a>
</g>
</g>
<!-- Node2 -->
<g id="node2" class="node">
<title>Node2</title>
<g id="a_node2"><a xlink:href="segmentleaderboardentrymessage_8h.html" target="_top" xlink:title=" ">
<polygon fill="none" stroke="black" points="226.5,-280.5 226.5,-299.5 423.5,-299.5 423.5,-280.5 226.5,-280.5"/>
<text text-anchor="middle" x="325" y="-287.5" font-family="Helvetica,sans-Serif" font-size="10.00">segmentleaderboardentrymessage.h</text>
</a>
</g>
</g>
<!-- Node1&#45;&gt;Node2 -->
<g id="edge1" class="edge">
<title>Node1&#45;&gt;Node2</title>
<path fill="none" stroke="midnightblue" d="M231.83,-336.32C249.72,-327.62 277.48,-314.12 298.05,-304.11"/>
<polygon fill="midnightblue" stroke="midnightblue" points="299.75,-307.18 307.21,-299.65 296.69,-300.88 299.75,-307.18"/>
</g>
<!-- Node7 -->
<g id="node7" class="node">
<title>Node7</title>
<g id="a_node7"><a xlink:href="segmentleaderboardentrymessage__p_8h.html" target="_top" xlink:title=" ">
<polygon fill="none" stroke="black" points="0,-280.5 0,-299.5 208,-299.5 208,-280.5 0,-280.5"/>
<text text-anchor="middle" x="104" y="-287.5" font-family="Helvetica,sans-Serif" font-size="10.00">segmentleaderboardentrymessage_p.h</text>
</a>
</g>
</g>
<!-- Node1&#45;&gt;Node7 -->
<g id="edge7" class="edge">
<title>Node1&#45;&gt;Node7</title>
<path fill="none" stroke="midnightblue" d="M196.33,-336.32C178.61,-327.62 151.1,-314.12 130.71,-304.11"/>
<polygon fill="midnightblue" stroke="midnightblue" points="132.15,-300.92 121.63,-299.65 129.06,-307.2 132.15,-300.92"/>
</g>
<!-- Node3 -->
<g id="node3" class="node">
<title>Node3</title>
<g id="a_node3"><a xlink:href="fitdatamessage_8h.html" target="_top" xlink:title=" ">
<polygon fill="none" stroke="black" points="253.5,-168.5 253.5,-187.5 354.5,-187.5 354.5,-168.5 253.5,-168.5"/>
<text text-anchor="middle" x="304" y="-175.5" font-family="Helvetica,sans-Serif" font-size="10.00">fitdatamessage.h</text>
</a>
</g>
</g>
<!-- Node2&#45;&gt;Node3 -->
<g id="edge2" class="edge">
<title>Node2&#45;&gt;Node3</title>
<path fill="none" stroke="midnightblue" d="M323.35,-280.37C319.96,-262.62 312.15,-221.67 307.55,-197.6"/>
<polygon fill="midnightblue" stroke="midnightblue" points="310.95,-196.76 305.64,-187.59 304.08,-198.07 310.95,-196.76"/>
</g>
<!-- Node4 -->
<g id="node4" class="node">
<title>Node4</title>
<g id="a_node4"><a xlink:href="QtFit__global_8h.html" target="_top" xlink:title=" ">
<polygon fill="none" stroke="black" points="185,-56.5 185,-75.5 269,-75.5 269,-56.5 185,-56.5"/>
<text text-anchor="middle" x="227" y="-63.5" font-family="Helvetica,sans-Serif" font-size="10.00">QtFit_global.h</text>
</a>
</g>
</g>
<!-- Node3&#45;&gt;Node4 -->
<g id="edge3" class="edge">
<title>Node3&#45;&gt;Node4</title>
<path fill="none" stroke="midnightblue" d="M298.99,-168.39C291.54,-155.75 276.93,-131.56 263,-112 256.11,-102.32 247.86,-91.94 241.01,-83.59"/>
<polygon fill="midnightblue" stroke="midnightblue" points="243.56,-81.19 234.47,-75.74 238.18,-85.66 243.56,-81.19"/>
</g>
<!-- Node6 -->
<g id="node6" class="node">
<title>Node6</title>
<g id="a_node6"><a xlink:href="types_8h.html" target="_top" xlink:title="Types defined by the ANT+ FIT SDK.">
<polygon fill="none" stroke="black" points="200.5,-112.5 200.5,-131.5 253.5,-131.5 253.5,-112.5 200.5,-112.5"/>
<text text-anchor="middle" x="227" y="-119.5" font-family="Helvetica,sans-Serif" font-size="10.00">types.h</text>
</a>
</g>
</g>
<!-- Node3&#45;&gt;Node6 -->
<g id="edge5" class="edge">
<title>Node3&#45;&gt;Node6</title>
<path fill="none" stroke="midnightblue" d="M291.63,-168.32C279.84,-160.06 261.87,-147.45 247.86,-137.63"/>
<polygon fill="midnightblue" stroke="midnightblue" points="249.54,-134.53 239.34,-131.65 245.52,-140.26 249.54,-134.53"/>
</g>
<!-- Node5 -->
<g id="node5" class="node">
<title>Node5</title>
<g id="a_node5"><a xlink:title=" ">
<polygon fill="none" stroke="#bfbfbf" points="197.5,-0.5 197.5,-19.5 256.5,-19.5 256.5,-0.5 197.5,-0.5"/>
<text text-anchor="middle" x="227" y="-7.5" font-family="Helvetica,sans-Serif" font-size="10.00">QtGlobal</text>
</a>
</g>
</g>
<!-- Node4&#45;&gt;Node5 -->
<g id="edge4" class="edge">
<title>Node4&#45;&gt;Node5</title>
<path fill="none" stroke="midnightblue" d="M227,-56.08C227,-49.01 227,-38.86 227,-29.99"/>
<polygon fill="midnightblue" stroke="midnightblue" points="230.5,-29.75 227,-19.75 223.5,-29.75 230.5,-29.75"/>
</g>
<!-- Node6&#45;&gt;Node4 -->
<g id="edge6" class="edge">
<title>Node6&#45;&gt;Node4</title>
<path fill="none" stroke="midnightblue" d="M227,-112.08C227,-105.01 227,-94.86 227,-85.99"/>
<polygon fill="midnightblue" stroke="midnightblue" points="230.5,-85.75 227,-75.75 223.5,-85.75 230.5,-85.75"/>
</g>
<!-- Node8 -->
<g id="node8" class="node">
<title>Node8</title>
<g id="a_node8"><a xlink:href="fitdatamessage__p_8h.html" target="_top" xlink:title=" ">
<polygon fill="none" stroke="black" points="88.5,-224.5 88.5,-243.5 201.5,-243.5 201.5,-224.5 88.5,-224.5"/>
<text text-anchor="middle" x="145" y="-231.5" font-family="Helvetica,sans-Serif" font-size="10.00">fitdatamessage_p.h</text>
</a>
</g>
</g>
<!-- Node7&#45;&gt;Node8 -->
<g id="edge8" class="edge">
<title>Node7&#45;&gt;Node8</title>
<path fill="none" stroke="midnightblue" d="M110.77,-280.08C116.56,-272.46 125.06,-261.26 132.14,-251.94"/>
<polygon fill="midnightblue" stroke="midnightblue" points="135.1,-253.83 138.36,-243.75 129.52,-249.6 135.1,-253.83"/>
</g>
<!-- Node8&#45;&gt;Node4 -->
<g id="edge9" class="edge">
<title>Node8&#45;&gt;Node4</title>
<path fill="none" stroke="midnightblue" d="M139.62,-224.44C134.44,-215.68 126.99,-201.47 124,-188 119.22,-166.46 130.41,-114.16 132,-112 143.6,-96.26 162.14,-85.81 179.77,-78.98"/>
<polygon fill="midnightblue" stroke="midnightblue" points="181.17,-82.2 189.42,-75.55 178.82,-75.6 181.17,-82.2"/>
</g>
<!-- Node8&#45;&gt;Node6 -->
<g id="edge10" class="edge">
<title>Node8&#45;&gt;Node6</title>
<path fill="none" stroke="midnightblue" d="M161.78,-224.48C175.51,-216.72 194.47,-204.02 206,-188 215.85,-174.31 221.24,-155.78 224.08,-142"/>
<polygon fill="midnightblue" stroke="midnightblue" points="227.6,-142.22 225.91,-131.76 220.7,-140.99 227.6,-142.22"/>
</g>
<!-- Node9 -->
<g id="node9" class="node">
<title>Node9</title>
<g id="a_node9"><a xlink:href="types__p_8h.html" target="_top" xlink:title=" ">
<polygon fill="none" stroke="black" points="133,-168.5 133,-187.5 197,-187.5 197,-168.5 133,-168.5"/>
<text text-anchor="middle" x="165" y="-175.5" font-family="Helvetica,sans-Serif" font-size="10.00">types_p.h</text>
</a>
</g>
</g>
<!-- Node8&#45;&gt;Node9 -->
<g id="edge11" class="edge">
<title>Node8&#45;&gt;Node9</title>
<path fill="none" stroke="midnightblue" d="M148.3,-224.08C150.98,-216.85 154.85,-206.41 158.19,-197.4"/>
<polygon fill="midnightblue" stroke="midnightblue" points="161.57,-198.34 161.76,-187.75 155,-195.91 161.57,-198.34"/>
</g>
<!-- Node9&#45;&gt;Node6 -->
<g id="edge12" class="edge">
<title>Node9&#45;&gt;Node6</title>
<path fill="none" stroke="midnightblue" d="M174.96,-168.32C184.13,-160.34 197.94,-148.31 209.03,-138.65"/>
<polygon fill="midnightblue" stroke="midnightblue" points="211.62,-141.04 216.86,-131.83 207.02,-135.76 211.62,-141.04"/>
</g>
<!-- Node10 -->
<g id="node10" class="node">
<title>Node10</title>
<g id="a_node10"><a xlink:title=" ">
<polygon fill="none" stroke="#bfbfbf" points="141.5,-112.5 141.5,-131.5 182.5,-131.5 182.5,-112.5 141.5,-112.5"/>
<text text-anchor="middle" x="162" y="-119.5" font-family="Helvetica,sans-Serif" font-size="10.00">QList</text>
</a>
</g>
</g>
<!-- Node9&#45;&gt;Node10 -->
<g id="edge13" class="edge">
<title>Node9&#45;&gt;Node10</title>
<path fill="none" stroke="midnightblue" d="M164.5,-168.08C164.11,-161.01 163.55,-150.86 163.05,-141.99"/>
<polygon fill="midnightblue" stroke="midnightblue" points="166.54,-141.54 162.49,-131.75 159.55,-141.93 166.54,-141.54"/>
</g>
</g>
</svg>
