<?xml version="1.0" encoding="UTF-8" standalone="no"?>
<!DOCTYPE svg PUBLIC "-//W3C//DTD SVG 1.1//EN"
 "http://www.w3.org/Graphics/SVG/1.1/DTD/svg11.dtd">
<!-- Generated by graphviz version 2.43.0 (0)
 -->
<!-- Title: segmentleaderboardentrymessage.cpp Pages: 1 -->
<svg width="418pt" height="364pt"
 viewBox="0.00 0.00 417.50 364.00" xmlns="http://www.w3.org/2000/svg" xmlns:xlink="http://www.w3.org/1999/xlink">
<g id="graph0" class="graph" transform="scale(1 1) rotate(0) translate(4 360)">
<title>segmentleaderboardentrymessage.cpp</title>
<!-- Node1 -->
<g id="node1" class="node">
<title>Node1</title>
<g id="a_node1"><a xlink:title=" ">
<polygon fill="#bfbfbf" stroke="black" points="170,-336.5 170,-355.5 378,-355.5 378,-336.5 170,-336.5"/>
<text text-anchor="middle" x="274" y="-343.5" font-family="Helvetica,sans-Serif" font-size="10.00">segmentleaderboardentrymessage.cpp</text>
</a>
</g>
</g>
<!-- Node2 -->
<g id="node2" class="node">
<title>Node2</title>
<g id="a_node2"><a xlink:href="segmentleaderboardentrymessage_8h.html" target="_top" xlink:title=" ">
<polygon fill="none" stroke="black" points="158.5,-224.5 158.5,-243.5 355.5,-243.5 355.5,-224.5 158.5,-224.5"/>
<text text-anchor="middle" x="257" y="-231.5" font-family="Helvetica,sans-Serif" font-size="10.00">segmentleaderboardentrymessage.h</text>
</a>
</g>
</g>
<!-- Node1&#45;&gt;Node2 -->
<g id="edge1" class="edge">
<title>Node1&#45;&gt;Node2</title>
<path fill="none" stroke="midnightblue" d="M272.08,-336.41C270.11,-327.38 267.06,-312.74 265,-300 262.51,-284.55 260.38,-266.92 258.95,-253.92"/>
<polygon fill="midnightblue" stroke="midnightblue" points="262.42,-253.43 257.88,-243.86 255.46,-254.18 262.42,-253.43"/>
</g>
<!-- Node7 -->
<g id="node7" class="node">
<title>Node7</title>
<g id="a_node7"><a xlink:href="segmentleaderboardentrymessage__p_8h.html" target="_top" xlink:title=" ">
<polygon fill="none" stroke="black" points="0,-280.5 0,-299.5 208,-299.5 208,-280.5 0,-280.5"/>
<text text-anchor="middle" x="104" y="-287.5" font-family="Helvetica,sans-Serif" font-size="10.00">segmentleaderboardentrymessage_p.h</text>
</a>
</g>
</g>
<!-- Node1&#45;&gt;Node7 -->
<g id="edge7" class="edge">
<title>Node1&#45;&gt;Node7</title>
<path fill="none" stroke="midnightblue" d="M247.06,-336.44C218.34,-327.32 172.67,-312.81 140.68,-302.65"/>
<polygon fill="midnightblue" stroke="midnightblue" points="141.4,-299.21 130.81,-299.52 139.28,-305.88 141.4,-299.21"/>
</g>
<!-- Node11 -->
<g id="node11" class="node">
<title>Node11</title>
<g id="a_node11"><a xlink:title=" ">
<polygon fill="none" stroke="#bfbfbf" points="274,-280.5 274,-299.5 330,-299.5 330,-280.5 274,-280.5"/>
<text text-anchor="middle" x="302" y="-287.5" font-family="Helvetica,sans-Serif" font-size="10.00">QDebug</text>
</a>
</g>
</g>
<!-- Node1&#45;&gt;Node11 -->
<g id="edge14" class="edge">
<title>Node1&#45;&gt;Node11</title>
<path fill="none" stroke="midnightblue" d="M278.62,-336.08C282.46,-328.69 288.02,-317.95 292.76,-308.81"/>
<polygon fill="midnightblue" stroke="midnightblue" points="295.97,-310.24 297.46,-299.75 289.75,-307.02 295.97,-310.24"/>
</g>
<!-- Node12 -->
<g id="node12" class="node">
<title>Node12</title>
<g id="a_node12"><a xlink:title=" ">
<polygon fill="none" stroke="#bfbfbf" points="348.5,-280.5 348.5,-299.5 409.5,-299.5 409.5,-280.5 348.5,-280.5"/>
<text text-anchor="middle" x="379" y="-287.5" font-family="Helvetica,sans-Serif" font-size="10.00">QtEndian</text>
</a>
</g>
</g>
<!-- Node1&#45;&gt;Node12 -->
<g id="edge15" class="edge">
<title>Node1&#45;&gt;Node12</title>
<path fill="none" stroke="midnightblue" d="M290.87,-336.32C307.71,-327.66 333.81,-314.24 353.24,-304.25"/>
<polygon fill="midnightblue" stroke="midnightblue" points="354.88,-307.34 362.17,-299.65 351.68,-301.12 354.88,-307.34"/>
</g>
<!-- Node3 -->
<g id="node3" class="node">
<title>Node3</title>
<g id="a_node3"><a xlink:href="fitdatamessage_8h.html" target="_top" xlink:title=" ">
<polygon fill="none" stroke="black" points="189.5,-168.5 189.5,-187.5 290.5,-187.5 290.5,-168.5 189.5,-168.5"/>
<text text-anchor="middle" x="240" y="-175.5" font-family="Helvetica,sans-Serif" font-size="10.00">fitdatamessage.h</text>
</a>
</g>
</g>
<!-- Node2&#45;&gt;Node3 -->
<g id="edge2" class="edge">
<title>Node2&#45;&gt;Node3</title>
<path fill="none" stroke="midnightblue" d="M254.19,-224.08C251.92,-216.85 248.63,-206.41 245.79,-197.4"/>
<polygon fill="midnightblue" stroke="midnightblue" points="249.1,-196.24 242.75,-187.75 242.42,-198.34 249.1,-196.24"/>
</g>
<!-- Node4 -->
<g id="node4" class="node">
<title>Node4</title>
<g id="a_node4"><a xlink:href="QtFit__global_8h.html" target="_top" xlink:title=" ">
<polygon fill="none" stroke="black" points="121,-56.5 121,-75.5 205,-75.5 205,-56.5 121,-56.5"/>
<text text-anchor="middle" x="163" y="-63.5" font-family="Helvetica,sans-Serif" font-size="10.00">QtFit_global.h</text>
</a>
</g>
</g>
<!-- Node3&#45;&gt;Node4 -->
<g id="edge3" class="edge">
<title>Node3&#45;&gt;Node4</title>
<path fill="none" stroke="midnightblue" d="M234.99,-168.39C227.54,-155.75 212.93,-131.56 199,-112 192.11,-102.32 183.86,-91.94 177.01,-83.59"/>
<polygon fill="midnightblue" stroke="midnightblue" points="179.56,-81.19 170.47,-75.74 174.18,-85.66 179.56,-81.19"/>
</g>
<!-- Node6 -->
<g id="node6" class="node">
<title>Node6</title>
<g id="a_node6"><a xlink:href="types_8h.html" target="_top" xlink:title="Types defined by the ANT+ FIT SDK.">
<polygon fill="none" stroke="black" points="136.5,-112.5 136.5,-131.5 189.5,-131.5 189.5,-112.5 136.5,-112.5"/>
<text text-anchor="middle" x="163" y="-119.5" font-family="Helvetica,sans-Serif" font-size="10.00">types.h</text>
</a>
</g>
</g>
<!-- Node3&#45;&gt;Node6 -->
<g id="edge5" class="edge">
<title>Node3&#45;&gt;Node6</title>
<path fill="none" stroke="midnightblue" d="M227.63,-168.32C215.84,-160.06 197.87,-147.45 183.86,-137.63"/>
<polygon fill="midnightblue" stroke="midnightblue" points="185.54,-134.53 175.34,-131.65 181.52,-140.26 185.54,-134.53"/>
</g>
<!-- Node5 -->
<g id="node5" class="node">
<title>Node5</title>
<g id="a_node5"><a xlink:title=" ">
<polygon fill="none" stroke="#bfbfbf" points="133.5,-0.5 133.5,-19.5 192.5,-19.5 192.5,-0.5 133.5,-0.5"/>
<text text-anchor="middle" x="163" y="-7.5" font-family="Helvetica,sans-Serif" font-size="10.00">QtGlobal</text>
</a>
</g>
</g>
<!-- Node4&#45;&gt;Node5 -->
<g id="edge4" class="edge">
<title>Node4&#45;&gt;Node5</title>
<path fill="none" stroke="midnightblue" d="M163,-56.08C163,-49.01 163,-38.86 163,-29.99"/>
<polygon fill="midnightblue" stroke="midnightblue" points="166.5,-29.75 163,-19.75 159.5,-29.75 166.5,-29.75"/>
</g>
<!-- Node6&#45;&gt;Node4 -->
<g id="edge6" class="edge">
<title>Node6&#45;&gt;Node4</title>
<path fill="none" stroke="midnightblue" d="M163,-112.08C163,-105.01 163,-94.86 163,-85.99"/>
<polygon fill="midnightblue" stroke="midnightblue" points="166.5,-85.75 163,-75.75 159.5,-85.75 166.5,-85.75"/>
</g>
<!-- Node8 -->
<g id="node8" class="node">
<title>Node8</title>
<g id="a_node8"><a xlink:href="fitdatamessage__p_8h.html" target="_top" xlink:title=" ">
<polygon fill="none" stroke="black" points="27.5,-224.5 27.5,-243.5 140.5,-243.5 140.5,-224.5 27.5,-224.5"/>
<text text-anchor="middle" x="84" y="-231.5" font-family="Helvetica,sans-Serif" font-size="10.00">fitdatamessage_p.h</text>
</a>
</g>
</g>
<!-- Node7&#45;&gt;Node8 -->
<g id="edge8" class="edge">
<title>Node7&#45;&gt;Node8</title>
<path fill="none" stroke="midnightblue" d="M100.7,-280.08C98.02,-272.85 94.15,-262.41 90.81,-253.4"/>
<polygon fill="midnightblue" stroke="midnightblue" points="94,-251.91 87.24,-243.75 87.43,-254.34 94,-251.91"/>
</g>
<!-- Node8&#45;&gt;Node4 -->
<g id="edge9" class="edge">
<title>Node8&#45;&gt;Node4</title>
<path fill="none" stroke="midnightblue" d="M77.63,-224.23C71.74,-215.53 63.39,-201.57 60,-188 54.77,-167.08 65.13,-115.89 68,-112 79.6,-96.26 98.14,-85.81 115.77,-78.98"/>
<polygon fill="midnightblue" stroke="midnightblue" points="117.17,-82.2 125.42,-75.55 114.82,-75.6 117.17,-82.2"/>
</g>
<!-- Node8&#45;&gt;Node6 -->
<g id="edge10" class="edge">
<title>Node8&#45;&gt;Node6</title>
<path fill="none" stroke="midnightblue" d="M99.69,-224.45C112.76,-216.58 130.95,-203.75 142,-188 151.68,-174.2 157.09,-155.67 159.98,-141.93"/>
<polygon fill="midnightblue" stroke="midnightblue" points="163.49,-142.19 161.86,-131.72 156.61,-140.93 163.49,-142.19"/>
</g>
<!-- Node9 -->
<g id="node9" class="node">
<title>Node9</title>
<g id="a_node9"><a xlink:href="types__p_8h.html" target="_top" xlink:title=" ">
<polygon fill="none" stroke="black" points="69,-168.5 69,-187.5 133,-187.5 133,-168.5 69,-168.5"/>
<text text-anchor="middle" x="101" y="-175.5" font-family="Helvetica,sans-Serif" font-size="10.00">types_p.h</text>
</a>
</g>
</g>
<!-- Node8&#45;&gt;Node9 -->
<g id="edge11" class="edge">
<title>Node8&#45;&gt;Node9</title>
<path fill="none" stroke="midnightblue" d="M86.81,-224.08C89.08,-216.85 92.37,-206.41 95.21,-197.4"/>
<polygon fill="midnightblue" stroke="midnightblue" points="98.58,-198.34 98.25,-187.75 91.9,-196.24 98.58,-198.34"/>
</g>
<!-- Node9&#45;&gt;Node6 -->
<g id="edge12" class="edge">
<title>Node9&#45;&gt;Node6</title>
<path fill="none" stroke="midnightblue" d="M110.96,-168.32C120.13,-160.34 133.94,-148.31 145.03,-138.65"/>
<polygon fill="midnightblue" stroke="midnightblue" points="147.62,-141.04 152.86,-131.83 143.02,-135.76 147.62,-141.04"/>
</g>
<!-- Node10 -->
<g id="node10" class="node">
<title>Node10</title>
<g id="a_node10"><a xlink:title=" ">
<polygon fill="none" stroke="#bfbfbf" points="77.5,-112.5 77.5,-131.5 118.5,-131.5 118.5,-112.5 77.5,-112.5"/>
<text text-anchor="middle" x="98" y="-119.5" font-family="Helvetica,sans-Serif" font-size="10.00">QList</text>
</a>
</g>
</g>
<!-- Node9&#45;&gt;Node10 -->
<g id="edge13" class="edge">
<title>Node9&#45;&gt;Node10</title>
<path fill="none" stroke="midnightblue" d="M100.5,-168.08C100.11,-161.01 99.55,-150.86 99.05,-141.99"/>
<polygon fill="midnightblue" stroke="midnightblue" points="102.54,-141.54 98.49,-131.75 95.55,-141.93 102.54,-141.54"/>
</g>
</g>
</svg>
