<?xml version="1.0" encoding="UTF-8" standalone="no"?>
<!DOCTYPE svg PUBLIC "-//W3C//DTD SVG 1.1//EN"
 "http://www.w3.org/Graphics/SVG/1.1/DTD/svg11.dtd">
<!-- Generated by graphviz version 2.43.0 (0)
 -->
<!-- Title: segmentpointmessage.cpp Pages: 1 -->
<svg width="429pt" height="364pt"
 viewBox="0.00 0.00 429.00 364.00" xmlns="http://www.w3.org/2000/svg" xmlns:xlink="http://www.w3.org/1999/xlink">
<g id="graph0" class="graph" transform="scale(1 1) rotate(0) translate(4 360)">
<title>segmentpointmessage.cpp</title>
<!-- Node1 -->
<g id="node1" class="node">
<title>Node1</title>
<g id="a_node1"><a xlink:title=" ">
<polygon fill="#bfbfbf" stroke="black" points="206,-336.5 206,-355.5 355,-355.5 355,-336.5 206,-336.5"/>
<text text-anchor="middle" x="280.5" y="-343.5" font-family="Helvetica,sans-Serif" font-size="10.00">segmentpointmessage.cpp</text>
</a>
</g>
</g>
<!-- Node2 -->
<g id="node2" class="node">
<title>Node2</title>
<g id="a_node2"><a xlink:href="segmentpointmessage_8h.html" target="_top" xlink:title=" ">
<polygon fill="none" stroke="black" points="0,-280.5 0,-299.5 137,-299.5 137,-280.5 0,-280.5"/>
<text text-anchor="middle" x="68.5" y="-287.5" font-family="Helvetica,sans-Serif" font-size="10.00">segmentpointmessage.h</text>
</a>
</g>
</g>
<!-- Node1&#45;&gt;Node2 -->
<g id="edge1" class="edge">
<title>Node1&#45;&gt;Node2</title>
<path fill="none" stroke="midnightblue" d="M246.91,-336.44C210.31,-327.12 151.66,-312.18 111.67,-302"/>
<polygon fill="midnightblue" stroke="midnightblue" points="112.49,-298.59 101.93,-299.52 110.76,-305.38 112.49,-298.59"/>
</g>
<!-- Node7 -->
<g id="node7" class="node">
<title>Node7</title>
<g id="a_node7"><a xlink:title=" ">
<polygon fill="none" stroke="#bfbfbf" points="262.5,-56.5 262.5,-75.5 318.5,-75.5 318.5,-56.5 262.5,-56.5"/>
<text text-anchor="middle" x="290.5" y="-63.5" font-family="Helvetica,sans-Serif" font-size="10.00">QDebug</text>
</a>
</g>
</g>
<!-- Node1&#45;&gt;Node7 -->
<g id="edge15" class="edge">
<title>Node1&#45;&gt;Node7</title>
<path fill="none" stroke="midnightblue" d="M288.07,-336.26C295.25,-327.58 305.89,-313.63 312.5,-300 325.63,-272.92 331.5,-265.1 331.5,-235 331.5,-235 331.5,-235 331.5,-177 331.5,-142.52 313.59,-105.56 301.44,-84.47"/>
<polygon fill="midnightblue" stroke="midnightblue" points="304.34,-82.49 296.2,-75.71 298.34,-86.09 304.34,-82.49"/>
</g>
<!-- Node8 -->
<g id="node8" class="node">
<title>Node8</title>
<g id="a_node8"><a xlink:href="segmentpointmessage__p_8h.html" target="_top" xlink:title=" ">
<polygon fill="none" stroke="black" points="155,-280.5 155,-299.5 304,-299.5 304,-280.5 155,-280.5"/>
<text text-anchor="middle" x="229.5" y="-287.5" font-family="Helvetica,sans-Serif" font-size="10.00">segmentpointmessage_p.h</text>
</a>
</g>
</g>
<!-- Node1&#45;&gt;Node8 -->
<g id="edge8" class="edge">
<title>Node1&#45;&gt;Node8</title>
<path fill="none" stroke="midnightblue" d="M272.08,-336.08C264.65,-328.22 253.65,-316.57 244.69,-307.08"/>
<polygon fill="midnightblue" stroke="midnightblue" points="247.18,-304.62 237.76,-299.75 242.09,-309.42 247.18,-304.62"/>
</g>
<!-- Node12 -->
<g id="node12" class="node">
<title>Node12</title>
<g id="a_node12"><a xlink:title=" ">
<polygon fill="none" stroke="#bfbfbf" points="360,-280.5 360,-299.5 421,-299.5 421,-280.5 360,-280.5"/>
<text text-anchor="middle" x="390.5" y="-287.5" font-family="Helvetica,sans-Serif" font-size="10.00">QtEndian</text>
</a>
</g>
</g>
<!-- Node1&#45;&gt;Node12 -->
<g id="edge16" class="edge">
<title>Node1&#45;&gt;Node12</title>
<path fill="none" stroke="midnightblue" d="M298.17,-336.32C315.89,-327.62 343.4,-314.12 363.79,-304.11"/>
<polygon fill="midnightblue" stroke="midnightblue" points="365.44,-307.2 372.87,-299.65 362.35,-300.92 365.44,-307.2"/>
</g>
<!-- Node3 -->
<g id="node3" class="node">
<title>Node3</title>
<g id="a_node3"><a xlink:href="abstractdatamessage_8h_source.html" target="_top" xlink:title=" ">
<polygon fill="none" stroke="black" points="3,-168.5 3,-187.5 134,-187.5 134,-168.5 3,-168.5"/>
<text text-anchor="middle" x="68.5" y="-175.5" font-family="Helvetica,sans-Serif" font-size="10.00">abstractdatamessage.h</text>
</a>
</g>
</g>
<!-- Node2&#45;&gt;Node3 -->
<g id="edge2" class="edge">
<title>Node2&#45;&gt;Node3</title>
<path fill="none" stroke="midnightblue" d="M68.5,-280.37C68.5,-262.62 68.5,-221.67 68.5,-197.6"/>
<polygon fill="midnightblue" stroke="midnightblue" points="72,-197.59 68.5,-187.59 65,-197.59 72,-197.59"/>
</g>
<!-- Node4 -->
<g id="node4" class="node">
<title>Node4</title>
<g id="a_node4"><a xlink:href="QtFit__global_8h_source.html" target="_top" xlink:title=" ">
<polygon fill="none" stroke="black" points="120.5,-56.5 120.5,-75.5 204.5,-75.5 204.5,-56.5 120.5,-56.5"/>
<text text-anchor="middle" x="162.5" y="-63.5" font-family="Helvetica,sans-Serif" font-size="10.00">QtFit_global.h</text>
</a>
</g>
</g>
<!-- Node3&#45;&gt;Node4 -->
<g id="edge3" class="edge">
<title>Node3&#45;&gt;Node4</title>
<path fill="none" stroke="midnightblue" d="M75.88,-168.37C91.53,-150.05 128.28,-107.05 148.52,-83.36"/>
<polygon fill="midnightblue" stroke="midnightblue" points="151.32,-85.47 155.16,-75.59 146,-80.92 151.32,-85.47"/>
</g>
<!-- Node6 -->
<g id="node6" class="node">
<title>Node6</title>
<g id="a_node6"><a xlink:href="types_8h.html" target="_top" xlink:title="Types defined by the ANT+ FIT SDK.">
<polygon fill="none" stroke="black" points="191,-112.5 191,-131.5 244,-131.5 244,-112.5 191,-112.5"/>
<text text-anchor="middle" x="217.5" y="-119.5" font-family="Helvetica,sans-Serif" font-size="10.00">types.h</text>
</a>
</g>
</g>
<!-- Node3&#45;&gt;Node6 -->
<g id="edge5" class="edge">
<title>Node3&#45;&gt;Node6</title>
<path fill="none" stroke="midnightblue" d="M92.11,-168.44C116.96,-159.44 156.27,-145.19 184.25,-135.05"/>
<polygon fill="midnightblue" stroke="midnightblue" points="185.79,-138.21 194,-131.52 183.41,-131.63 185.79,-138.21"/>
</g>
<!-- Node5 -->
<g id="node5" class="node">
<title>Node5</title>
<g id="a_node5"><a xlink:title=" ">
<polygon fill="none" stroke="#bfbfbf" points="133,-0.5 133,-19.5 192,-19.5 192,-0.5 133,-0.5"/>
<text text-anchor="middle" x="162.5" y="-7.5" font-family="Helvetica,sans-Serif" font-size="10.00">QtGlobal</text>
</a>
</g>
</g>
<!-- Node4&#45;&gt;Node5 -->
<g id="edge4" class="edge">
<title>Node4&#45;&gt;Node5</title>
<path fill="none" stroke="midnightblue" d="M162.5,-56.08C162.5,-49.01 162.5,-38.86 162.5,-29.99"/>
<polygon fill="midnightblue" stroke="midnightblue" points="166,-29.75 162.5,-19.75 159,-29.75 166,-29.75"/>
</g>
<!-- Node6&#45;&gt;Node4 -->
<g id="edge6" class="edge">
<title>Node6&#45;&gt;Node4</title>
<path fill="none" stroke="midnightblue" d="M208.42,-112.08C200.33,-104.14 188.3,-92.34 178.59,-82.8"/>
<polygon fill="midnightblue" stroke="midnightblue" points="181,-80.26 171.41,-75.75 176.1,-85.25 181,-80.26"/>
</g>
<!-- Node6&#45;&gt;Node7 -->
<g id="edge7" class="edge">
<title>Node6&#45;&gt;Node7</title>
<path fill="none" stroke="midnightblue" d="M229.23,-112.32C240.34,-104.11 257.24,-91.6 270.48,-81.81"/>
<polygon fill="midnightblue" stroke="midnightblue" points="272.6,-84.59 278.56,-75.83 268.44,-78.97 272.6,-84.59"/>
</g>
<!-- Node9 -->
<g id="node9" class="node">
<title>Node9</title>
<g id="a_node9"><a xlink:href="abstractdatamessage__p_8h_source.html" target="_top" xlink:title=" ">
<polygon fill="none" stroke="black" points="149,-224.5 149,-243.5 292,-243.5 292,-224.5 149,-224.5"/>
<text text-anchor="middle" x="220.5" y="-231.5" font-family="Helvetica,sans-Serif" font-size="10.00">abstractdatamessage_p.h</text>
</a>
</g>
</g>
<!-- Node8&#45;&gt;Node9 -->
<g id="edge9" class="edge">
<title>Node8&#45;&gt;Node9</title>
<path fill="none" stroke="midnightblue" d="M228.01,-280.08C226.82,-272.93 225.11,-262.64 223.62,-253.69"/>
<polygon fill="midnightblue" stroke="midnightblue" points="227.05,-253.04 221.96,-243.75 220.15,-254.19 227.05,-253.04"/>
</g>
<!-- Node9&#45;&gt;Node4 -->
<g id="edge10" class="edge">
<title>Node9&#45;&gt;Node4</title>
<path fill="none" stroke="midnightblue" d="M216.91,-224.44C209.73,-207.15 193.25,-166.72 181.5,-132 176.26,-116.51 171.1,-98.67 167.49,-85.6"/>
<polygon fill="midnightblue" stroke="midnightblue" points="170.85,-84.63 164.85,-75.91 164.1,-86.47 170.85,-84.63"/>
</g>
<!-- Node9&#45;&gt;Node6 -->
<g id="edge11" class="edge">
<title>Node9&#45;&gt;Node6</title>
<path fill="none" stroke="midnightblue" d="M220.26,-224.37C219.78,-206.62 218.66,-165.67 218.01,-141.6"/>
<polygon fill="midnightblue" stroke="midnightblue" points="221.51,-141.49 217.73,-131.59 214.51,-141.68 221.51,-141.49"/>
</g>
<!-- Node10 -->
<g id="node10" class="node">
<title>Node10</title>
<g id="a_node10"><a xlink:href="types__p_8h_source.html" target="_top" xlink:title=" ">
<polygon fill="none" stroke="black" points="239.5,-168.5 239.5,-187.5 303.5,-187.5 303.5,-168.5 239.5,-168.5"/>
<text text-anchor="middle" x="271.5" y="-175.5" font-family="Helvetica,sans-Serif" font-size="10.00">types_p.h</text>
</a>
</g>
</g>
<!-- Node9&#45;&gt;Node10 -->
<g id="edge12" class="edge">
<title>Node9&#45;&gt;Node10</title>
<path fill="none" stroke="midnightblue" d="M228.92,-224.08C236.35,-216.22 247.35,-204.57 256.31,-195.08"/>
<polygon fill="midnightblue" stroke="midnightblue" points="258.91,-197.42 263.24,-187.75 253.82,-192.62 258.91,-197.42"/>
</g>
<!-- Node10&#45;&gt;Node6 -->
<g id="edge13" class="edge">
<title>Node10&#45;&gt;Node6</title>
<path fill="none" stroke="midnightblue" d="M262.58,-168.08C254.72,-160.22 243.07,-148.57 233.58,-139.08"/>
<polygon fill="midnightblue" stroke="midnightblue" points="235.8,-136.35 226.25,-131.75 230.85,-141.3 235.8,-136.35"/>
</g>
<!-- Node11 -->
<g id="node11" class="node">
<title>Node11</title>
<g id="a_node11"><a xlink:title=" ">
<polygon fill="none" stroke="#bfbfbf" points="262,-112.5 262,-131.5 303,-131.5 303,-112.5 262,-112.5"/>
<text text-anchor="middle" x="282.5" y="-119.5" font-family="Helvetica,sans-Serif" font-size="10.00">QList</text>
</a>
</g>
</g>
<!-- Node10&#45;&gt;Node11 -->
<g id="edge14" class="edge">
<title>Node10&#45;&gt;Node11</title>
<path fill="none" stroke="midnightblue" d="M273.32,-168.08C274.77,-160.93 276.87,-150.64 278.69,-141.69"/>
<polygon fill="midnightblue" stroke="midnightblue" points="282.15,-142.25 280.72,-131.75 275.29,-140.85 282.15,-142.25"/>
</g>
</g>
</svg>
