<?xml version="1.0" encoding="UTF-8" standalone="no"?>
<!DOCTYPE svg PUBLIC "-//W3C//DTD SVG 1.1//EN"
 "http://www.w3.org/Graphics/SVG/1.1/DTD/svg11.dtd">
<!-- Generated by graphviz version 2.43.0 (0)
 -->
<!-- Title: segmentleaderboardentrymessage.h Pages: 1 -->
<svg width="205pt" height="252pt"
 viewBox="0.00 0.00 205.00 252.00" xmlns="http://www.w3.org/2000/svg" xmlns:xlink="http://www.w3.org/1999/xlink">
<g id="graph0" class="graph" transform="scale(1 1) rotate(0) translate(4 248)">
<title>segmentleaderboardentrymessage.h</title>
<!-- Node1 -->
<g id="node1" class="node">
<title>Node1</title>
<g id="a_node1"><a xlink:title=" ">
<polygon fill="#bfbfbf" stroke="black" points="0,-224.5 0,-243.5 197,-243.5 197,-224.5 0,-224.5"/>
<text text-anchor="middle" x="98.5" y="-231.5" font-family="Helvetica,sans-Serif" font-size="10.00">segmentleaderboardentrymessage.h</text>
</a>
</g>
</g>
<!-- Node2 -->
<g id="node2" class="node">
<title>Node2</title>
<g id="a_node2"><a xlink:href="fitdatamessage_8h.html" target="_top" xlink:title=" ">
<polygon fill="none" stroke="black" points="48,-168.5 48,-187.5 149,-187.5 149,-168.5 48,-168.5"/>
<text text-anchor="middle" x="98.5" y="-175.5" font-family="Helvetica,sans-Serif" font-size="10.00">fitdatamessage.h</text>
</a>
</g>
</g>
<!-- Node1&#45;&gt;Node2 -->
<g id="edge1" class="edge">
<title>Node1&#45;&gt;Node2</title>
<path fill="none" stroke="midnightblue" d="M98.5,-224.08C98.5,-217.01 98.5,-206.86 98.5,-197.99"/>
<polygon fill="midnightblue" stroke="midnightblue" points="102,-197.75 98.5,-187.75 95,-197.75 102,-197.75"/>
</g>
<!-- Node3 -->
<g id="node3" class="node">
<title>Node3</title>
<g id="a_node3"><a xlink:href="QtFit__global_8h.html" target="_top" xlink:title=" ">
<polygon fill="none" stroke="black" points="29.5,-56.5 29.5,-75.5 113.5,-75.5 113.5,-56.5 29.5,-56.5"/>
<text text-anchor="middle" x="71.5" y="-63.5" font-family="Helvetica,sans-Serif" font-size="10.00">QtFit_global.h</text>
</a>
</g>
</g>
<!-- Node2&#45;&gt;Node3 -->
<g id="edge2" class="edge">
<title>Node2&#45;&gt;Node3</title>
<path fill="none" stroke="midnightblue" d="M96.38,-168.37C92.02,-150.62 81.97,-109.67 76.06,-85.6"/>
<polygon fill="midnightblue" stroke="midnightblue" points="79.39,-84.47 73.61,-75.59 72.59,-86.14 79.39,-84.47"/>
</g>
<!-- Node5 -->
<g id="node5" class="node">
<title>Node5</title>
<g id="a_node5"><a xlink:href="types_8h.html" target="_top" xlink:title="Types defined by the ANT+ FIT SDK.">
<polygon fill="none" stroke="black" points="100,-112.5 100,-131.5 153,-131.5 153,-112.5 100,-112.5"/>
<text text-anchor="middle" x="126.5" y="-119.5" font-family="Helvetica,sans-Serif" font-size="10.00">types.h</text>
</a>
</g>
</g>
<!-- Node2&#45;&gt;Node5 -->
<g id="edge4" class="edge">
<title>Node2&#45;&gt;Node5</title>
<path fill="none" stroke="midnightblue" d="M103.12,-168.08C106.96,-160.69 112.52,-149.95 117.26,-140.81"/>
<polygon fill="midnightblue" stroke="midnightblue" points="120.47,-142.24 121.96,-131.75 114.25,-139.02 120.47,-142.24"/>
</g>
<!-- Node4 -->
<g id="node4" class="node">
<title>Node4</title>
<g id="a_node4"><a xlink:title=" ">
<polygon fill="none" stroke="#bfbfbf" points="42,-0.5 42,-19.5 101,-19.5 101,-0.5 42,-0.5"/>
<text text-anchor="middle" x="71.5" y="-7.5" font-family="Helvetica,sans-Serif" font-size="10.00">QtGlobal</text>
</a>
</g>
</g>
<!-- Node3&#45;&gt;Node4 -->
<g id="edge3" class="edge">
<title>Node3&#45;&gt;Node4</title>
<path fill="none" stroke="midnightblue" d="M71.5,-56.08C71.5,-49.01 71.5,-38.86 71.5,-29.99"/>
<polygon fill="midnightblue" stroke="midnightblue" points="75,-29.75 71.5,-19.75 68,-29.75 75,-29.75"/>
</g>
<!-- Node5&#45;&gt;Node3 -->
<g id="edge5" class="edge">
<title>Node5&#45;&gt;Node3</title>
<path fill="none" stroke="midnightblue" d="M117.42,-112.08C109.33,-104.14 97.3,-92.34 87.59,-82.8"/>
<polygon fill="midnightblue" stroke="midnightblue" points="90,-80.26 80.41,-75.75 85.1,-85.25 90,-80.26"/>
</g>
<!-- Node6 -->
<g id="node6" class="node">
<title>Node6</title>
<g id="a_node6"><a xlink:title=" ">
<polygon fill="none" stroke="#bfbfbf" points="131.5,-56.5 131.5,-75.5 187.5,-75.5 187.5,-56.5 131.5,-56.5"/>
<text text-anchor="middle" x="159.5" y="-63.5" font-family="Helvetica,sans-Serif" font-size="10.00">QDebug</text>
</a>
</g>
</g>
<!-- Node5&#45;&gt;Node6 -->
<g id="edge6" class="edge">
<title>Node5&#45;&gt;Node6</title>
<path fill="none" stroke="midnightblue" d="M131.95,-112.08C136.51,-104.61 143.17,-93.72 148.79,-84.52"/>
<polygon fill="midnightblue" stroke="midnightblue" points="151.92,-86.11 154.15,-75.75 145.95,-82.46 151.92,-86.11"/>
</g>
</g>
</svg>
