<?xml version="1.0" encoding="UTF-8" standalone="no"?>
<!DOCTYPE svg PUBLIC "-//W3C//DTD SVG 1.1//EN"
 "http://www.w3.org/Graphics/SVG/1.1/DTD/svg11.dtd">
<!-- Generated by graphviz version 2.43.0 (0)
 -->
<!-- Title: sessionmessage.cpp Pages: 1 -->
<svg width="420pt" height="364pt"
 viewBox="0.00 0.00 420.00 364.00" xmlns="http://www.w3.org/2000/svg" xmlns:xlink="http://www.w3.org/1999/xlink">
<g id="graph0" class="graph" transform="scale(1 1) rotate(0) translate(4 360)">
<title>sessionmessage.cpp</title>
<!-- Node1 -->
<g id="node1" class="node">
<title>Node1</title>
<g id="a_node1"><a xlink:title=" ">
<polygon fill="#bfbfbf" stroke="black" points="219.5,-336.5 219.5,-355.5 337.5,-355.5 337.5,-336.5 219.5,-336.5"/>
<text text-anchor="middle" x="278.5" y="-343.5" font-family="Helvetica,sans-Serif" font-size="10.00">sessionmessage.cpp</text>
</a>
</g>
</g>
<!-- Node2 -->
<g id="node2" class="node">
<title>Node2</title>
<g id="a_node2"><a xlink:href="sessionmessage_8h.html" target="_top" xlink:title=" ">
<polygon fill="none" stroke="black" points="50,-280.5 50,-299.5 157,-299.5 157,-280.5 50,-280.5"/>
<text text-anchor="middle" x="103.5" y="-287.5" font-family="Helvetica,sans-Serif" font-size="10.00">sessionmessage.h</text>
</a>
</g>
</g>
<!-- Node1&#45;&gt;Node2 -->
<g id="edge1" class="edge">
<title>Node1&#45;&gt;Node2</title>
<path fill="none" stroke="midnightblue" d="M250.77,-336.44C221.07,-327.28 173.78,-312.69 140.83,-302.52"/>
<polygon fill="midnightblue" stroke="midnightblue" points="141.69,-299.12 131.1,-299.52 139.62,-305.81 141.69,-299.12"/>
</g>
<!-- Node7 -->
<g id="node7" class="node">
<title>Node7</title>
<g id="a_node7"><a xlink:title=" ">
<polygon fill="none" stroke="#bfbfbf" points="253.5,-56.5 253.5,-75.5 309.5,-75.5 309.5,-56.5 253.5,-56.5"/>
<text text-anchor="middle" x="281.5" y="-63.5" font-family="Helvetica,sans-Serif" font-size="10.00">QDebug</text>
</a>
</g>
</g>
<!-- Node1&#45;&gt;Node7 -->
<g id="edge15" class="edge">
<title>Node1&#45;&gt;Node7</title>
<path fill="none" stroke="midnightblue" d="M284.62,-336.35C296.71,-318.38 322.5,-275.31 322.5,-235 322.5,-235 322.5,-235 322.5,-177 322.5,-142.52 304.59,-105.56 292.44,-84.47"/>
<polygon fill="midnightblue" stroke="midnightblue" points="295.34,-82.49 287.2,-75.71 289.34,-86.09 295.34,-82.49"/>
</g>
<!-- Node8 -->
<g id="node8" class="node">
<title>Node8</title>
<g id="a_node8"><a xlink:href="sessionmessage__p_8h.html" target="_top" xlink:title=" ">
<polygon fill="none" stroke="black" points="176.5,-280.5 176.5,-299.5 294.5,-299.5 294.5,-280.5 176.5,-280.5"/>
<text text-anchor="middle" x="235.5" y="-287.5" font-family="Helvetica,sans-Serif" font-size="10.00">sessionmessage_p.h</text>
</a>
</g>
</g>
<!-- Node1&#45;&gt;Node8 -->
<g id="edge8" class="edge">
<title>Node1&#45;&gt;Node8</title>
<path fill="none" stroke="midnightblue" d="M271.4,-336.08C265.26,-328.38 256.23,-317.03 248.76,-307.65"/>
<polygon fill="midnightblue" stroke="midnightblue" points="251.44,-305.39 242.47,-299.75 245.96,-309.75 251.44,-305.39"/>
</g>
<!-- Node12 -->
<g id="node12" class="node">
<title>Node12</title>
<g id="a_node12"><a xlink:title=" ">
<polygon fill="none" stroke="#bfbfbf" points="351,-280.5 351,-299.5 412,-299.5 412,-280.5 351,-280.5"/>
<text text-anchor="middle" x="381.5" y="-287.5" font-family="Helvetica,sans-Serif" font-size="10.00">QtEndian</text>
</a>
</g>
</g>
<!-- Node1&#45;&gt;Node12 -->
<g id="edge16" class="edge">
<title>Node1&#45;&gt;Node12</title>
<path fill="none" stroke="midnightblue" d="M295.05,-336.32C311.49,-327.7 336.93,-314.36 355.97,-304.39"/>
<polygon fill="midnightblue" stroke="midnightblue" points="357.76,-307.4 364.99,-299.65 354.51,-301.2 357.76,-307.4"/>
</g>
<!-- Node3 -->
<g id="node3" class="node">
<title>Node3</title>
<g id="a_node3"><a xlink:href="abstractdatamessage_8h_source.html" target="_top" xlink:title=" ">
<polygon fill="none" stroke="black" points="0,-168.5 0,-187.5 131,-187.5 131,-168.5 0,-168.5"/>
<text text-anchor="middle" x="65.5" y="-175.5" font-family="Helvetica,sans-Serif" font-size="10.00">abstractdatamessage.h</text>
</a>
</g>
</g>
<!-- Node2&#45;&gt;Node3 -->
<g id="edge2" class="edge">
<title>Node2&#45;&gt;Node3</title>
<path fill="none" stroke="midnightblue" d="M100.52,-280.37C94.36,-262.54 80.11,-221.3 71.81,-197.27"/>
<polygon fill="midnightblue" stroke="midnightblue" points="75.04,-195.9 68.47,-187.59 68.43,-198.19 75.04,-195.9"/>
</g>
<!-- Node4 -->
<g id="node4" class="node">
<title>Node4</title>
<g id="a_node4"><a xlink:href="QtFit__global_8h_source.html" target="_top" xlink:title=" ">
<polygon fill="none" stroke="black" points="111.5,-56.5 111.5,-75.5 195.5,-75.5 195.5,-56.5 111.5,-56.5"/>
<text text-anchor="middle" x="153.5" y="-63.5" font-family="Helvetica,sans-Serif" font-size="10.00">QtFit_global.h</text>
</a>
</g>
</g>
<!-- Node3&#45;&gt;Node4 -->
<g id="edge3" class="edge">
<title>Node3&#45;&gt;Node4</title>
<path fill="none" stroke="midnightblue" d="M72.41,-168.37C86.99,-150.14 121.16,-107.43 140.16,-83.68"/>
<polygon fill="midnightblue" stroke="midnightblue" points="143.11,-85.59 146.63,-75.59 137.65,-81.21 143.11,-85.59"/>
</g>
<!-- Node6 -->
<g id="node6" class="node">
<title>Node6</title>
<g id="a_node6"><a xlink:href="types_8h.html" target="_top" xlink:title="Types defined by the ANT+ FIT SDK.">
<polygon fill="none" stroke="black" points="182,-112.5 182,-131.5 235,-131.5 235,-112.5 182,-112.5"/>
<text text-anchor="middle" x="208.5" y="-119.5" font-family="Helvetica,sans-Serif" font-size="10.00">types.h</text>
</a>
</g>
</g>
<!-- Node3&#45;&gt;Node6 -->
<g id="edge5" class="edge">
<title>Node3&#45;&gt;Node6</title>
<path fill="none" stroke="midnightblue" d="M88.16,-168.44C111.9,-159.48 149.41,-145.31 176.24,-135.18"/>
<polygon fill="midnightblue" stroke="midnightblue" points="177.83,-138.32 185.95,-131.52 175.36,-131.77 177.83,-138.32"/>
</g>
<!-- Node5 -->
<g id="node5" class="node">
<title>Node5</title>
<g id="a_node5"><a xlink:title=" ">
<polygon fill="none" stroke="#bfbfbf" points="124,-0.5 124,-19.5 183,-19.5 183,-0.5 124,-0.5"/>
<text text-anchor="middle" x="153.5" y="-7.5" font-family="Helvetica,sans-Serif" font-size="10.00">QtGlobal</text>
</a>
</g>
</g>
<!-- Node4&#45;&gt;Node5 -->
<g id="edge4" class="edge">
<title>Node4&#45;&gt;Node5</title>
<path fill="none" stroke="midnightblue" d="M153.5,-56.08C153.5,-49.01 153.5,-38.86 153.5,-29.99"/>
<polygon fill="midnightblue" stroke="midnightblue" points="157,-29.75 153.5,-19.75 150,-29.75 157,-29.75"/>
</g>
<!-- Node6&#45;&gt;Node4 -->
<g id="edge6" class="edge">
<title>Node6&#45;&gt;Node4</title>
<path fill="none" stroke="midnightblue" d="M199.42,-112.08C191.33,-104.14 179.3,-92.34 169.59,-82.8"/>
<polygon fill="midnightblue" stroke="midnightblue" points="172,-80.26 162.41,-75.75 167.1,-85.25 172,-80.26"/>
</g>
<!-- Node6&#45;&gt;Node7 -->
<g id="edge7" class="edge">
<title>Node6&#45;&gt;Node7</title>
<path fill="none" stroke="midnightblue" d="M220.23,-112.32C231.34,-104.11 248.24,-91.6 261.48,-81.81"/>
<polygon fill="midnightblue" stroke="midnightblue" points="263.6,-84.59 269.56,-75.83 259.44,-78.97 263.6,-84.59"/>
</g>
<!-- Node9 -->
<g id="node9" class="node">
<title>Node9</title>
<g id="a_node9"><a xlink:href="abstractdatamessage__p_8h_source.html" target="_top" xlink:title=" ">
<polygon fill="none" stroke="black" points="139,-224.5 139,-243.5 282,-243.5 282,-224.5 139,-224.5"/>
<text text-anchor="middle" x="210.5" y="-231.5" font-family="Helvetica,sans-Serif" font-size="10.00">abstractdatamessage_p.h</text>
</a>
</g>
</g>
<!-- Node8&#45;&gt;Node9 -->
<g id="edge9" class="edge">
<title>Node8&#45;&gt;Node9</title>
<path fill="none" stroke="midnightblue" d="M231.37,-280.08C227.99,-272.77 223.08,-262.18 218.88,-253.1"/>
<polygon fill="midnightblue" stroke="midnightblue" points="221.93,-251.36 214.55,-243.75 215.58,-254.3 221.93,-251.36"/>
</g>
<!-- Node9&#45;&gt;Node4 -->
<g id="edge10" class="edge">
<title>Node9&#45;&gt;Node4</title>
<path fill="none" stroke="midnightblue" d="M207.03,-224.43C200.06,-207.12 184.07,-166.65 172.5,-132 167.32,-116.49 162.16,-98.65 158.53,-85.59"/>
<polygon fill="midnightblue" stroke="midnightblue" points="161.89,-84.61 155.87,-75.9 155.14,-86.47 161.89,-84.61"/>
</g>
<!-- Node9&#45;&gt;Node6 -->
<g id="edge11" class="edge">
<title>Node9&#45;&gt;Node6</title>
<path fill="none" stroke="midnightblue" d="M210.34,-224.37C210.02,-206.62 209.28,-165.67 208.84,-141.6"/>
<polygon fill="midnightblue" stroke="midnightblue" points="212.34,-141.53 208.66,-131.59 205.34,-141.65 212.34,-141.53"/>
</g>
<!-- Node10 -->
<g id="node10" class="node">
<title>Node10</title>
<g id="a_node10"><a xlink:href="types__p_8h_source.html" target="_top" xlink:title=" ">
<polygon fill="none" stroke="black" points="230.5,-168.5 230.5,-187.5 294.5,-187.5 294.5,-168.5 230.5,-168.5"/>
<text text-anchor="middle" x="262.5" y="-175.5" font-family="Helvetica,sans-Serif" font-size="10.00">types_p.h</text>
</a>
</g>
</g>
<!-- Node9&#45;&gt;Node10 -->
<g id="edge12" class="edge">
<title>Node9&#45;&gt;Node10</title>
<path fill="none" stroke="midnightblue" d="M219.09,-224.08C226.66,-216.22 237.88,-204.57 247.01,-195.08"/>
<polygon fill="midnightblue" stroke="midnightblue" points="249.66,-197.38 254.07,-187.75 244.62,-192.53 249.66,-197.38"/>
</g>
<!-- Node10&#45;&gt;Node6 -->
<g id="edge13" class="edge">
<title>Node10&#45;&gt;Node6</title>
<path fill="none" stroke="midnightblue" d="M253.58,-168.08C245.72,-160.22 234.07,-148.57 224.58,-139.08"/>
<polygon fill="midnightblue" stroke="midnightblue" points="226.8,-136.35 217.25,-131.75 221.85,-141.3 226.8,-136.35"/>
</g>
<!-- Node11 -->
<g id="node11" class="node">
<title>Node11</title>
<g id="a_node11"><a xlink:title=" ">
<polygon fill="none" stroke="#bfbfbf" points="253,-112.5 253,-131.5 294,-131.5 294,-112.5 253,-112.5"/>
<text text-anchor="middle" x="273.5" y="-119.5" font-family="Helvetica,sans-Serif" font-size="10.00">QList</text>
</a>
</g>
</g>
<!-- Node10&#45;&gt;Node11 -->
<g id="edge14" class="edge">
<title>Node10&#45;&gt;Node11</title>
<path fill="none" stroke="midnightblue" d="M264.32,-168.08C265.77,-160.93 267.87,-150.64 269.69,-141.69"/>
<polygon fill="midnightblue" stroke="midnightblue" points="273.15,-142.25 271.72,-131.75 266.29,-140.85 273.15,-142.25"/>
</g>
</g>
</svg>
