<?xml version="1.0" encoding="UTF-8" standalone="no"?>
<!DOCTYPE svg PUBLIC "-//W3C//DTD SVG 1.1//EN"
 "http://www.w3.org/Graphics/SVG/1.1/DTD/svg11.dtd">
<!-- Generated by graphviz version 2.43.0 (0)
 -->
<!-- Title: sessionmessage.cpp Pages: 1 -->
<svg width="345pt" height="364pt"
 viewBox="0.00 0.00 345.00 364.00" xmlns="http://www.w3.org/2000/svg" xmlns:xlink="http://www.w3.org/1999/xlink">
<g id="graph0" class="graph" transform="scale(1 1) rotate(0) translate(4 360)">
<title>sessionmessage.cpp</title>
<!-- Node1 -->
<g id="node1" class="node">
<title>Node1</title>
<g id="a_node1"><a xlink:title=" ">
<polygon fill="#bfbfbf" stroke="black" points="142.5,-336.5 142.5,-355.5 260.5,-355.5 260.5,-336.5 142.5,-336.5"/>
<text text-anchor="middle" x="201.5" y="-343.5" font-family="Helvetica,sans-Serif" font-size="10.00">sessionmessage.cpp</text>
</a>
</g>
</g>
<!-- Node2 -->
<g id="node2" class="node">
<title>Node2</title>
<g id="a_node2"><a xlink:href="sessionmessage_8h.html" target="_top" xlink:title=" ">
<polygon fill="none" stroke="black" points="134,-224.5 134,-243.5 241,-243.5 241,-224.5 134,-224.5"/>
<text text-anchor="middle" x="187.5" y="-231.5" font-family="Helvetica,sans-Serif" font-size="10.00">sessionmessage.h</text>
</a>
</g>
</g>
<!-- Node1&#45;&gt;Node2 -->
<g id="edge1" class="edge">
<title>Node1&#45;&gt;Node2</title>
<path fill="none" stroke="midnightblue" d="M199.46,-336.43C197.4,-327.41 194.26,-312.79 192.5,-300 190.37,-284.56 189.09,-266.93 188.35,-253.93"/>
<polygon fill="midnightblue" stroke="midnightblue" points="191.84,-253.68 187.84,-243.87 184.85,-254.03 191.84,-253.68"/>
</g>
<!-- Node7 -->
<g id="node7" class="node">
<title>Node7</title>
<g id="a_node7"><a xlink:href="sessionmessage__p_8h.html" target="_top" xlink:title=" ">
<polygon fill="none" stroke="black" points="17.5,-280.5 17.5,-299.5 135.5,-299.5 135.5,-280.5 17.5,-280.5"/>
<text text-anchor="middle" x="76.5" y="-287.5" font-family="Helvetica,sans-Serif" font-size="10.00">sessionmessage_p.h</text>
</a>
</g>
</g>
<!-- Node1&#45;&gt;Node7 -->
<g id="edge7" class="edge">
<title>Node1&#45;&gt;Node7</title>
<path fill="none" stroke="midnightblue" d="M181.69,-336.44C161.21,-327.6 129.02,-313.69 105.64,-303.59"/>
<polygon fill="midnightblue" stroke="midnightblue" points="106.78,-300.27 96.21,-299.52 104.01,-306.7 106.78,-300.27"/>
</g>
<!-- Node11 -->
<g id="node11" class="node">
<title>Node11</title>
<g id="a_node11"><a xlink:title=" ">
<polygon fill="none" stroke="#bfbfbf" points="201.5,-280.5 201.5,-299.5 257.5,-299.5 257.5,-280.5 201.5,-280.5"/>
<text text-anchor="middle" x="229.5" y="-287.5" font-family="Helvetica,sans-Serif" font-size="10.00">QDebug</text>
</a>
</g>
</g>
<!-- Node1&#45;&gt;Node11 -->
<g id="edge14" class="edge">
<title>Node1&#45;&gt;Node11</title>
<path fill="none" stroke="midnightblue" d="M206.12,-336.08C209.96,-328.69 215.52,-317.95 220.26,-308.81"/>
<polygon fill="midnightblue" stroke="midnightblue" points="223.47,-310.24 224.96,-299.75 217.25,-307.02 223.47,-310.24"/>
</g>
<!-- Node12 -->
<g id="node12" class="node">
<title>Node12</title>
<g id="a_node12"><a xlink:title=" ">
<polygon fill="none" stroke="#bfbfbf" points="276,-280.5 276,-299.5 337,-299.5 337,-280.5 276,-280.5"/>
<text text-anchor="middle" x="306.5" y="-287.5" font-family="Helvetica,sans-Serif" font-size="10.00">QtEndian</text>
</a>
</g>
</g>
<!-- Node1&#45;&gt;Node12 -->
<g id="edge15" class="edge">
<title>Node1&#45;&gt;Node12</title>
<path fill="none" stroke="midnightblue" d="M218.37,-336.32C235.21,-327.66 261.31,-314.24 280.74,-304.25"/>
<polygon fill="midnightblue" stroke="midnightblue" points="282.38,-307.34 289.67,-299.65 279.18,-301.12 282.38,-307.34"/>
</g>
<!-- Node3 -->
<g id="node3" class="node">
<title>Node3</title>
<g id="a_node3"><a xlink:href="fitdatamessage_8h.html" target="_top" xlink:title=" ">
<polygon fill="none" stroke="black" points="140,-168.5 140,-187.5 241,-187.5 241,-168.5 140,-168.5"/>
<text text-anchor="middle" x="190.5" y="-175.5" font-family="Helvetica,sans-Serif" font-size="10.00">fitdatamessage.h</text>
</a>
</g>
</g>
<!-- Node2&#45;&gt;Node3 -->
<g id="edge2" class="edge">
<title>Node2&#45;&gt;Node3</title>
<path fill="none" stroke="midnightblue" d="M188,-224.08C188.39,-217.01 188.95,-206.86 189.45,-197.99"/>
<polygon fill="midnightblue" stroke="midnightblue" points="192.95,-197.93 190.01,-187.75 185.96,-197.54 192.95,-197.93"/>
</g>
<!-- Node4 -->
<g id="node4" class="node">
<title>Node4</title>
<g id="a_node4"><a xlink:href="QtFit__global_8h.html" target="_top" xlink:title=" ">
<polygon fill="none" stroke="black" points="71.5,-56.5 71.5,-75.5 155.5,-75.5 155.5,-56.5 71.5,-56.5"/>
<text text-anchor="middle" x="113.5" y="-63.5" font-family="Helvetica,sans-Serif" font-size="10.00">QtFit_global.h</text>
</a>
</g>
</g>
<!-- Node3&#45;&gt;Node4 -->
<g id="edge3" class="edge">
<title>Node3&#45;&gt;Node4</title>
<path fill="none" stroke="midnightblue" d="M185.49,-168.39C178.04,-155.75 163.43,-131.56 149.5,-112 142.61,-102.32 134.36,-91.94 127.51,-83.59"/>
<polygon fill="midnightblue" stroke="midnightblue" points="130.06,-81.19 120.97,-75.74 124.68,-85.66 130.06,-81.19"/>
</g>
<!-- Node6 -->
<g id="node6" class="node">
<title>Node6</title>
<g id="a_node6"><a xlink:href="types_8h.html" target="_top" xlink:title="Types defined by the ANT+ FIT SDK.">
<polygon fill="none" stroke="black" points="87,-112.5 87,-131.5 140,-131.5 140,-112.5 87,-112.5"/>
<text text-anchor="middle" x="113.5" y="-119.5" font-family="Helvetica,sans-Serif" font-size="10.00">types.h</text>
</a>
</g>
</g>
<!-- Node3&#45;&gt;Node6 -->
<g id="edge5" class="edge">
<title>Node3&#45;&gt;Node6</title>
<path fill="none" stroke="midnightblue" d="M178.13,-168.32C166.34,-160.06 148.37,-147.45 134.36,-137.63"/>
<polygon fill="midnightblue" stroke="midnightblue" points="136.04,-134.53 125.84,-131.65 132.02,-140.26 136.04,-134.53"/>
</g>
<!-- Node5 -->
<g id="node5" class="node">
<title>Node5</title>
<g id="a_node5"><a xlink:title=" ">
<polygon fill="none" stroke="#bfbfbf" points="84,-0.5 84,-19.5 143,-19.5 143,-0.5 84,-0.5"/>
<text text-anchor="middle" x="113.5" y="-7.5" font-family="Helvetica,sans-Serif" font-size="10.00">QtGlobal</text>
</a>
</g>
</g>
<!-- Node4&#45;&gt;Node5 -->
<g id="edge4" class="edge">
<title>Node4&#45;&gt;Node5</title>
<path fill="none" stroke="midnightblue" d="M113.5,-56.08C113.5,-49.01 113.5,-38.86 113.5,-29.99"/>
<polygon fill="midnightblue" stroke="midnightblue" points="117,-29.75 113.5,-19.75 110,-29.75 117,-29.75"/>
</g>
<!-- Node6&#45;&gt;Node4 -->
<g id="edge6" class="edge">
<title>Node6&#45;&gt;Node4</title>
<path fill="none" stroke="midnightblue" d="M113.5,-112.08C113.5,-105.01 113.5,-94.86 113.5,-85.99"/>
<polygon fill="midnightblue" stroke="midnightblue" points="117,-85.75 113.5,-75.75 110,-85.75 117,-85.75"/>
</g>
<!-- Node8 -->
<g id="node8" class="node">
<title>Node8</title>
<g id="a_node8"><a xlink:href="fitdatamessage__p_8h.html" target="_top" xlink:title=" ">
<polygon fill="none" stroke="black" points="0,-224.5 0,-243.5 113,-243.5 113,-224.5 0,-224.5"/>
<text text-anchor="middle" x="56.5" y="-231.5" font-family="Helvetica,sans-Serif" font-size="10.00">fitdatamessage_p.h</text>
</a>
</g>
</g>
<!-- Node7&#45;&gt;Node8 -->
<g id="edge8" class="edge">
<title>Node7&#45;&gt;Node8</title>
<path fill="none" stroke="midnightblue" d="M73.2,-280.08C70.52,-272.85 66.65,-262.41 63.31,-253.4"/>
<polygon fill="midnightblue" stroke="midnightblue" points="66.5,-251.91 59.74,-243.75 59.93,-254.34 66.5,-251.91"/>
</g>
<!-- Node8&#45;&gt;Node4 -->
<g id="edge9" class="edge">
<title>Node8&#45;&gt;Node4</title>
<path fill="none" stroke="midnightblue" d="M42.71,-224.19C31.67,-216.24 17,-203.45 10.5,-188 3,-170.16 9.2,-124.62 18.5,-112 30.1,-96.26 48.64,-85.81 66.27,-78.98"/>
<polygon fill="midnightblue" stroke="midnightblue" points="67.67,-82.2 75.92,-75.55 65.32,-75.6 67.67,-82.2"/>
</g>
<!-- Node8&#45;&gt;Node6 -->
<g id="edge10" class="edge">
<title>Node8&#45;&gt;Node6</title>
<path fill="none" stroke="midnightblue" d="M64.99,-224.39C73.05,-215.8 85.01,-201.92 92.5,-188 100.4,-173.31 105.96,-155.15 109.36,-141.76"/>
<polygon fill="midnightblue" stroke="midnightblue" points="112.82,-142.35 111.72,-131.81 106.01,-140.74 112.82,-142.35"/>
</g>
<!-- Node9 -->
<g id="node9" class="node">
<title>Node9</title>
<g id="a_node9"><a xlink:href="types__p_8h.html" target="_top" xlink:title=" ">
<polygon fill="none" stroke="black" points="19.5,-168.5 19.5,-187.5 83.5,-187.5 83.5,-168.5 19.5,-168.5"/>
<text text-anchor="middle" x="51.5" y="-175.5" font-family="Helvetica,sans-Serif" font-size="10.00">types_p.h</text>
</a>
</g>
</g>
<!-- Node8&#45;&gt;Node9 -->
<g id="edge11" class="edge">
<title>Node8&#45;&gt;Node9</title>
<path fill="none" stroke="midnightblue" d="M55.67,-224.08C55.02,-217.01 54.08,-206.86 53.26,-197.99"/>
<polygon fill="midnightblue" stroke="midnightblue" points="56.72,-197.39 52.31,-187.75 49.75,-198.03 56.72,-197.39"/>
</g>
<!-- Node9&#45;&gt;Node6 -->
<g id="edge12" class="edge">
<title>Node9&#45;&gt;Node6</title>
<path fill="none" stroke="midnightblue" d="M61.46,-168.32C70.63,-160.34 84.44,-148.31 95.53,-138.65"/>
<polygon fill="midnightblue" stroke="midnightblue" points="98.12,-141.04 103.36,-131.83 93.52,-135.76 98.12,-141.04"/>
</g>
<!-- Node10 -->
<g id="node10" class="node">
<title>Node10</title>
<g id="a_node10"><a xlink:title=" ">
<polygon fill="none" stroke="#bfbfbf" points="28,-112.5 28,-131.5 69,-131.5 69,-112.5 28,-112.5"/>
<text text-anchor="middle" x="48.5" y="-119.5" font-family="Helvetica,sans-Serif" font-size="10.00">QList</text>
</a>
</g>
</g>
<!-- Node9&#45;&gt;Node10 -->
<g id="edge13" class="edge">
<title>Node9&#45;&gt;Node10</title>
<path fill="none" stroke="midnightblue" d="M51,-168.08C50.61,-161.01 50.05,-150.86 49.55,-141.99"/>
<polygon fill="midnightblue" stroke="midnightblue" points="53.04,-141.54 48.99,-131.75 46.05,-141.93 53.04,-141.54"/>
</g>
</g>
</svg>
