<?xml version="1.0" encoding="UTF-8" standalone="no"?>
<!DOCTYPE svg PUBLIC "-//W3C//DTD SVG 1.1//EN"
 "http://www.w3.org/Graphics/SVG/1.1/DTD/svg11.dtd">
<!-- Generated by graphviz version 2.43.0 (0)
 -->
<!-- Title: setmessage.cpp Pages: 1 -->
<svg width="334pt" height="364pt"
 viewBox="0.00 0.00 334.00 364.00" xmlns="http://www.w3.org/2000/svg" xmlns:xlink="http://www.w3.org/1999/xlink">
<g id="graph0" class="graph" transform="scale(1 1) rotate(0) translate(4 360)">
<title>setmessage.cpp</title>
<!-- Node1 -->
<g id="node1" class="node">
<title>Node1</title>
<g id="a_node1"><a xlink:title=" ">
<polygon fill="#bfbfbf" stroke="black" points="142.5,-336.5 142.5,-355.5 238.5,-355.5 238.5,-336.5 142.5,-336.5"/>
<text text-anchor="middle" x="190.5" y="-343.5" font-family="Helvetica,sans-Serif" font-size="10.00">setmessage.cpp</text>
</a>
</g>
</g>
<!-- Node2 -->
<g id="node2" class="node">
<title>Node2</title>
<g id="a_node2"><a xlink:href="setmessage_8h.html" target="_top" xlink:title=" ">
<polygon fill="none" stroke="black" points="136,-224.5 136,-243.5 221,-243.5 221,-224.5 136,-224.5"/>
<text text-anchor="middle" x="178.5" y="-231.5" font-family="Helvetica,sans-Serif" font-size="10.00">setmessage.h</text>
</a>
</g>
</g>
<!-- Node1&#45;&gt;Node2 -->
<g id="edge1" class="edge">
<title>Node1&#45;&gt;Node2</title>
<path fill="none" stroke="midnightblue" d="M188.38,-336.44C186.26,-327.43 183.07,-312.81 181.5,-300 179.61,-284.56 178.89,-266.93 178.62,-253.93"/>
<polygon fill="midnightblue" stroke="midnightblue" points="182.12,-253.82 178.49,-243.87 175.12,-253.91 182.12,-253.82"/>
</g>
<!-- Node7 -->
<g id="node7" class="node">
<title>Node7</title>
<g id="a_node7"><a xlink:href="setmessage__p_8h.html" target="_top" xlink:title=" ">
<polygon fill="none" stroke="black" points="28.5,-280.5 28.5,-299.5 124.5,-299.5 124.5,-280.5 28.5,-280.5"/>
<text text-anchor="middle" x="76.5" y="-287.5" font-family="Helvetica,sans-Serif" font-size="10.00">setmessage_p.h</text>
</a>
</g>
</g>
<!-- Node1&#45;&gt;Node7 -->
<g id="edge7" class="edge">
<title>Node1&#45;&gt;Node7</title>
<path fill="none" stroke="midnightblue" d="M172.44,-336.44C153.93,-327.68 124.92,-313.94 103.64,-303.86"/>
<polygon fill="midnightblue" stroke="midnightblue" points="105.01,-300.63 94.48,-299.52 102.02,-306.96 105.01,-300.63"/>
</g>
<!-- Node11 -->
<g id="node11" class="node">
<title>Node11</title>
<g id="a_node11"><a xlink:title=" ">
<polygon fill="none" stroke="#bfbfbf" points="190.5,-280.5 190.5,-299.5 246.5,-299.5 246.5,-280.5 190.5,-280.5"/>
<text text-anchor="middle" x="218.5" y="-287.5" font-family="Helvetica,sans-Serif" font-size="10.00">QDebug</text>
</a>
</g>
</g>
<!-- Node1&#45;&gt;Node11 -->
<g id="edge14" class="edge">
<title>Node1&#45;&gt;Node11</title>
<path fill="none" stroke="midnightblue" d="M195.12,-336.08C198.96,-328.69 204.52,-317.95 209.26,-308.81"/>
<polygon fill="midnightblue" stroke="midnightblue" points="212.47,-310.24 213.96,-299.75 206.25,-307.02 212.47,-310.24"/>
</g>
<!-- Node12 -->
<g id="node12" class="node">
<title>Node12</title>
<g id="a_node12"><a xlink:title=" ">
<polygon fill="none" stroke="#bfbfbf" points="265,-280.5 265,-299.5 326,-299.5 326,-280.5 265,-280.5"/>
<text text-anchor="middle" x="295.5" y="-287.5" font-family="Helvetica,sans-Serif" font-size="10.00">QtEndian</text>
</a>
</g>
</g>
<!-- Node1&#45;&gt;Node12 -->
<g id="edge15" class="edge">
<title>Node1&#45;&gt;Node12</title>
<path fill="none" stroke="midnightblue" d="M207.37,-336.32C224.21,-327.66 250.31,-314.24 269.74,-304.25"/>
<polygon fill="midnightblue" stroke="midnightblue" points="271.38,-307.34 278.67,-299.65 268.18,-301.12 271.38,-307.34"/>
</g>
<!-- Node3 -->
<g id="node3" class="node">
<title>Node3</title>
<g id="a_node3"><a xlink:href="fitdatamessage_8h.html" target="_top" xlink:title=" ">
<polygon fill="none" stroke="black" points="134,-168.5 134,-187.5 235,-187.5 235,-168.5 134,-168.5"/>
<text text-anchor="middle" x="184.5" y="-175.5" font-family="Helvetica,sans-Serif" font-size="10.00">fitdatamessage.h</text>
</a>
</g>
</g>
<!-- Node2&#45;&gt;Node3 -->
<g id="edge2" class="edge">
<title>Node2&#45;&gt;Node3</title>
<path fill="none" stroke="midnightblue" d="M179.49,-224.08C180.29,-216.93 181.43,-206.64 182.42,-197.69"/>
<polygon fill="midnightblue" stroke="midnightblue" points="185.9,-198.08 183.53,-187.75 178.94,-197.3 185.9,-198.08"/>
</g>
<!-- Node4 -->
<g id="node4" class="node">
<title>Node4</title>
<g id="a_node4"><a xlink:href="QtFit__global_8h.html" target="_top" xlink:title=" ">
<polygon fill="none" stroke="black" points="65.5,-56.5 65.5,-75.5 149.5,-75.5 149.5,-56.5 65.5,-56.5"/>
<text text-anchor="middle" x="107.5" y="-63.5" font-family="Helvetica,sans-Serif" font-size="10.00">QtFit_global.h</text>
</a>
</g>
</g>
<!-- Node3&#45;&gt;Node4 -->
<g id="edge3" class="edge">
<title>Node3&#45;&gt;Node4</title>
<path fill="none" stroke="midnightblue" d="M179.49,-168.39C172.04,-155.75 157.43,-131.56 143.5,-112 136.61,-102.32 128.36,-91.94 121.51,-83.59"/>
<polygon fill="midnightblue" stroke="midnightblue" points="124.06,-81.19 114.97,-75.74 118.68,-85.66 124.06,-81.19"/>
</g>
<!-- Node6 -->
<g id="node6" class="node">
<title>Node6</title>
<g id="a_node6"><a xlink:href="types_8h.html" target="_top" xlink:title="Types defined by the ANT+ FIT SDK.">
<polygon fill="none" stroke="black" points="81,-112.5 81,-131.5 134,-131.5 134,-112.5 81,-112.5"/>
<text text-anchor="middle" x="107.5" y="-119.5" font-family="Helvetica,sans-Serif" font-size="10.00">types.h</text>
</a>
</g>
</g>
<!-- Node3&#45;&gt;Node6 -->
<g id="edge5" class="edge">
<title>Node3&#45;&gt;Node6</title>
<path fill="none" stroke="midnightblue" d="M172.13,-168.32C160.34,-160.06 142.37,-147.45 128.36,-137.63"/>
<polygon fill="midnightblue" stroke="midnightblue" points="130.04,-134.53 119.84,-131.65 126.02,-140.26 130.04,-134.53"/>
</g>
<!-- Node5 -->
<g id="node5" class="node">
<title>Node5</title>
<g id="a_node5"><a xlink:title=" ">
<polygon fill="none" stroke="#bfbfbf" points="78,-0.5 78,-19.5 137,-19.5 137,-0.5 78,-0.5"/>
<text text-anchor="middle" x="107.5" y="-7.5" font-family="Helvetica,sans-Serif" font-size="10.00">QtGlobal</text>
</a>
</g>
</g>
<!-- Node4&#45;&gt;Node5 -->
<g id="edge4" class="edge">
<title>Node4&#45;&gt;Node5</title>
<path fill="none" stroke="midnightblue" d="M107.5,-56.08C107.5,-49.01 107.5,-38.86 107.5,-29.99"/>
<polygon fill="midnightblue" stroke="midnightblue" points="111,-29.75 107.5,-19.75 104,-29.75 111,-29.75"/>
</g>
<!-- Node6&#45;&gt;Node4 -->
<g id="edge6" class="edge">
<title>Node6&#45;&gt;Node4</title>
<path fill="none" stroke="midnightblue" d="M107.5,-112.08C107.5,-105.01 107.5,-94.86 107.5,-85.99"/>
<polygon fill="midnightblue" stroke="midnightblue" points="111,-85.75 107.5,-75.75 104,-85.75 111,-85.75"/>
</g>
<!-- Node8 -->
<g id="node8" class="node">
<title>Node8</title>
<g id="a_node8"><a xlink:href="fitdatamessage__p_8h.html" target="_top" xlink:title=" ">
<polygon fill="none" stroke="black" points="0,-224.5 0,-243.5 113,-243.5 113,-224.5 0,-224.5"/>
<text text-anchor="middle" x="56.5" y="-231.5" font-family="Helvetica,sans-Serif" font-size="10.00">fitdatamessage_p.h</text>
</a>
</g>
</g>
<!-- Node7&#45;&gt;Node8 -->
<g id="edge8" class="edge">
<title>Node7&#45;&gt;Node8</title>
<path fill="none" stroke="midnightblue" d="M73.2,-280.08C70.52,-272.85 66.65,-262.41 63.31,-253.4"/>
<polygon fill="midnightblue" stroke="midnightblue" points="66.5,-251.91 59.74,-243.75 59.93,-254.34 66.5,-251.91"/>
</g>
<!-- Node8&#45;&gt;Node4 -->
<g id="edge9" class="edge">
<title>Node8&#45;&gt;Node4</title>
<path fill="none" stroke="midnightblue" d="M40.72,-224.47C28.3,-216.77 11.89,-204.18 4.5,-188 -3.4,-170.71 2.07,-126.16 12.5,-112 24.1,-96.26 42.64,-85.81 60.27,-78.98"/>
<polygon fill="midnightblue" stroke="midnightblue" points="61.67,-82.2 69.92,-75.55 59.32,-75.6 61.67,-82.2"/>
</g>
<!-- Node8&#45;&gt;Node6 -->
<g id="edge10" class="edge">
<title>Node8&#45;&gt;Node6</title>
<path fill="none" stroke="midnightblue" d="M63.23,-224.47C69.88,-215.72 79.96,-201.53 86.5,-188 93.76,-172.99 99.38,-154.85 102.97,-141.56"/>
<polygon fill="midnightblue" stroke="midnightblue" points="106.4,-142.26 105.5,-131.7 99.62,-140.52 106.4,-142.26"/>
</g>
<!-- Node9 -->
<g id="node9" class="node">
<title>Node9</title>
<g id="a_node9"><a xlink:href="types__p_8h.html" target="_top" xlink:title=" ">
<polygon fill="none" stroke="black" points="13.5,-168.5 13.5,-187.5 77.5,-187.5 77.5,-168.5 13.5,-168.5"/>
<text text-anchor="middle" x="45.5" y="-175.5" font-family="Helvetica,sans-Serif" font-size="10.00">types_p.h</text>
</a>
</g>
</g>
<!-- Node8&#45;&gt;Node9 -->
<g id="edge11" class="edge">
<title>Node8&#45;&gt;Node9</title>
<path fill="none" stroke="midnightblue" d="M54.68,-224.08C53.23,-216.93 51.13,-206.64 49.31,-197.69"/>
<polygon fill="midnightblue" stroke="midnightblue" points="52.71,-196.85 47.28,-187.75 45.85,-198.25 52.71,-196.85"/>
</g>
<!-- Node9&#45;&gt;Node6 -->
<g id="edge12" class="edge">
<title>Node9&#45;&gt;Node6</title>
<path fill="none" stroke="midnightblue" d="M55.46,-168.32C64.63,-160.34 78.44,-148.31 89.53,-138.65"/>
<polygon fill="midnightblue" stroke="midnightblue" points="92.12,-141.04 97.36,-131.83 87.52,-135.76 92.12,-141.04"/>
</g>
<!-- Node10 -->
<g id="node10" class="node">
<title>Node10</title>
<g id="a_node10"><a xlink:title=" ">
<polygon fill="none" stroke="#bfbfbf" points="22,-112.5 22,-131.5 63,-131.5 63,-112.5 22,-112.5"/>
<text text-anchor="middle" x="42.5" y="-119.5" font-family="Helvetica,sans-Serif" font-size="10.00">QList</text>
</a>
</g>
</g>
<!-- Node9&#45;&gt;Node10 -->
<g id="edge13" class="edge">
<title>Node9&#45;&gt;Node10</title>
<path fill="none" stroke="midnightblue" d="M45,-168.08C44.61,-161.01 44.05,-150.86 43.55,-141.99"/>
<polygon fill="midnightblue" stroke="midnightblue" points="47.04,-141.54 42.99,-131.75 40.05,-141.93 47.04,-141.54"/>
</g>
</g>
</svg>
