<?xml version="1.0" encoding="UTF-8" standalone="no"?>
<!DOCTYPE svg PUBLIC "-//W3C//DTD SVG 1.1//EN"
 "http://www.w3.org/Graphics/SVG/1.1/DTD/svg11.dtd">
<!-- Generated by graphviz version 2.43.0 (0)
 -->
<!-- Title: slavedevicemessage.cpp Pages: 1 -->
<svg width="294pt" height="364pt"
 viewBox="0.00 0.00 294.00 364.00" xmlns="http://www.w3.org/2000/svg" xmlns:xlink="http://www.w3.org/1999/xlink">
<g id="graph0" class="graph" transform="scale(1 1) rotate(0) translate(4 360)">
<title>slavedevicemessage.cpp</title>
<!-- Node1 -->
<g id="node1" class="node">
<title>Node1</title>
<g id="a_node1"><a xlink:title=" ">
<polygon fill="#bfbfbf" stroke="black" points="76,-336.5 76,-355.5 216,-355.5 216,-336.5 76,-336.5"/>
<text text-anchor="middle" x="146" y="-343.5" font-family="Helvetica,sans-Serif" font-size="10.00">slavedevicemessage.cpp</text>
</a>
</g>
</g>
<!-- Node2 -->
<g id="node2" class="node">
<title>Node2</title>
<g id="a_node2"><a xlink:href="slavedevicemessage_8h.html" target="_top" xlink:title=" ">
<polygon fill="none" stroke="black" points="158,-280.5 158,-299.5 286,-299.5 286,-280.5 158,-280.5"/>
<text text-anchor="middle" x="222" y="-287.5" font-family="Helvetica,sans-Serif" font-size="10.00">slavedevicemessage.h</text>
</a>
</g>
</g>
<!-- Node1&#45;&gt;Node2 -->
<g id="edge1" class="edge">
<title>Node1&#45;&gt;Node2</title>
<path fill="none" stroke="midnightblue" d="M158.21,-336.32C169.78,-328.11 187.38,-315.6 201.16,-305.81"/>
<polygon fill="midnightblue" stroke="midnightblue" points="203.44,-308.48 209.57,-299.83 199.39,-302.77 203.44,-308.48"/>
</g>
<!-- Node7 -->
<g id="node7" class="node">
<title>Node7</title>
<g id="a_node7"><a xlink:href="slavedevicemessage__p_8h.html" target="_top" xlink:title=" ">
<polygon fill="none" stroke="black" points="0,-280.5 0,-299.5 140,-299.5 140,-280.5 0,-280.5"/>
<text text-anchor="middle" x="70" y="-287.5" font-family="Helvetica,sans-Serif" font-size="10.00">slavedevicemessage_p.h</text>
</a>
</g>
</g>
<!-- Node1&#45;&gt;Node7 -->
<g id="edge7" class="edge">
<title>Node1&#45;&gt;Node7</title>
<path fill="none" stroke="midnightblue" d="M133.79,-336.32C122.22,-328.11 104.62,-315.6 90.84,-305.81"/>
<polygon fill="midnightblue" stroke="midnightblue" points="92.61,-302.77 82.43,-299.83 88.56,-308.48 92.61,-302.77"/>
</g>
<!-- Node3 -->
<g id="node3" class="node">
<title>Node3</title>
<g id="a_node3"><a xlink:href="fitdatamessage_8h.html" target="_top" xlink:title=" ">
<polygon fill="none" stroke="black" points="167.5,-168.5 167.5,-187.5 268.5,-187.5 268.5,-168.5 167.5,-168.5"/>
<text text-anchor="middle" x="218" y="-175.5" font-family="Helvetica,sans-Serif" font-size="10.00">fitdatamessage.h</text>
</a>
</g>
</g>
<!-- Node2&#45;&gt;Node3 -->
<g id="edge2" class="edge">
<title>Node2&#45;&gt;Node3</title>
<path fill="none" stroke="midnightblue" d="M221.69,-280.37C221.04,-262.62 219.55,-221.67 218.68,-197.6"/>
<polygon fill="midnightblue" stroke="midnightblue" points="222.17,-197.46 218.31,-187.59 215.18,-197.71 222.17,-197.46"/>
</g>
<!-- Node4 -->
<g id="node4" class="node">
<title>Node4</title>
<g id="a_node4"><a xlink:href="QtFit__global_8h.html" target="_top" xlink:title=" ">
<polygon fill="none" stroke="black" points="99,-56.5 99,-75.5 183,-75.5 183,-56.5 99,-56.5"/>
<text text-anchor="middle" x="141" y="-63.5" font-family="Helvetica,sans-Serif" font-size="10.00">QtFit_global.h</text>
</a>
</g>
</g>
<!-- Node3&#45;&gt;Node4 -->
<g id="edge3" class="edge">
<title>Node3&#45;&gt;Node4</title>
<path fill="none" stroke="midnightblue" d="M212.99,-168.39C205.54,-155.75 190.93,-131.56 177,-112 170.11,-102.32 161.86,-91.94 155.01,-83.59"/>
<polygon fill="midnightblue" stroke="midnightblue" points="157.56,-81.19 148.47,-75.74 152.18,-85.66 157.56,-81.19"/>
</g>
<!-- Node6 -->
<g id="node6" class="node">
<title>Node6</title>
<g id="a_node6"><a xlink:href="types_8h.html" target="_top" xlink:title="Types defined by the ANT+ FIT SDK.">
<polygon fill="none" stroke="black" points="114.5,-112.5 114.5,-131.5 167.5,-131.5 167.5,-112.5 114.5,-112.5"/>
<text text-anchor="middle" x="141" y="-119.5" font-family="Helvetica,sans-Serif" font-size="10.00">types.h</text>
</a>
</g>
</g>
<!-- Node3&#45;&gt;Node6 -->
<g id="edge5" class="edge">
<title>Node3&#45;&gt;Node6</title>
<path fill="none" stroke="midnightblue" d="M205.63,-168.32C193.84,-160.06 175.87,-147.45 161.86,-137.63"/>
<polygon fill="midnightblue" stroke="midnightblue" points="163.54,-134.53 153.34,-131.65 159.52,-140.26 163.54,-134.53"/>
</g>
<!-- Node5 -->
<g id="node5" class="node">
<title>Node5</title>
<g id="a_node5"><a xlink:title=" ">
<polygon fill="none" stroke="#bfbfbf" points="111.5,-0.5 111.5,-19.5 170.5,-19.5 170.5,-0.5 111.5,-0.5"/>
<text text-anchor="middle" x="141" y="-7.5" font-family="Helvetica,sans-Serif" font-size="10.00">QtGlobal</text>
</a>
</g>
</g>
<!-- Node4&#45;&gt;Node5 -->
<g id="edge4" class="edge">
<title>Node4&#45;&gt;Node5</title>
<path fill="none" stroke="midnightblue" d="M141,-56.08C141,-49.01 141,-38.86 141,-29.99"/>
<polygon fill="midnightblue" stroke="midnightblue" points="144.5,-29.75 141,-19.75 137.5,-29.75 144.5,-29.75"/>
</g>
<!-- Node6&#45;&gt;Node4 -->
<g id="edge6" class="edge">
<title>Node6&#45;&gt;Node4</title>
<path fill="none" stroke="midnightblue" d="M141,-112.08C141,-105.01 141,-94.86 141,-85.99"/>
<polygon fill="midnightblue" stroke="midnightblue" points="144.5,-85.75 141,-75.75 137.5,-85.75 144.5,-85.75"/>
</g>
<!-- Node8 -->
<g id="node8" class="node">
<title>Node8</title>
<g id="a_node8"><a xlink:href="fitdatamessage__p_8h.html" target="_top" xlink:title=" ">
<polygon fill="none" stroke="black" points="19.5,-224.5 19.5,-243.5 132.5,-243.5 132.5,-224.5 19.5,-224.5"/>
<text text-anchor="middle" x="76" y="-231.5" font-family="Helvetica,sans-Serif" font-size="10.00">fitdatamessage_p.h</text>
</a>
</g>
</g>
<!-- Node7&#45;&gt;Node8 -->
<g id="edge8" class="edge">
<title>Node7&#45;&gt;Node8</title>
<path fill="none" stroke="midnightblue" d="M70.99,-280.08C71.79,-272.93 72.93,-262.64 73.92,-253.69"/>
<polygon fill="midnightblue" stroke="midnightblue" points="77.4,-254.08 75.03,-243.75 70.44,-253.3 77.4,-254.08"/>
</g>
<!-- Node8&#45;&gt;Node4 -->
<g id="edge9" class="edge">
<title>Node8&#45;&gt;Node4</title>
<path fill="none" stroke="midnightblue" d="M65.29,-224.3C56.06,-216.07 43.41,-202.79 38,-188 31.15,-169.27 38.55,-122.1 46,-112 57.6,-96.26 76.14,-85.81 93.77,-78.98"/>
<polygon fill="midnightblue" stroke="midnightblue" points="95.17,-82.2 103.42,-75.55 92.82,-75.6 95.17,-82.2"/>
</g>
<!-- Node8&#45;&gt;Node6 -->
<g id="edge10" class="edge">
<title>Node8&#45;&gt;Node6</title>
<path fill="none" stroke="midnightblue" d="M86.86,-224.44C96.78,-216.11 111.19,-202.59 120,-188 128.72,-173.57 134.23,-155.11 137.41,-141.56"/>
<polygon fill="midnightblue" stroke="midnightblue" points="140.89,-142.03 139.55,-131.52 134.04,-140.57 140.89,-142.03"/>
</g>
<!-- Node9 -->
<g id="node9" class="node">
<title>Node9</title>
<g id="a_node9"><a xlink:href="types__p_8h.html" target="_top" xlink:title=" ">
<polygon fill="none" stroke="black" points="47,-168.5 47,-187.5 111,-187.5 111,-168.5 47,-168.5"/>
<text text-anchor="middle" x="79" y="-175.5" font-family="Helvetica,sans-Serif" font-size="10.00">types_p.h</text>
</a>
</g>
</g>
<!-- Node8&#45;&gt;Node9 -->
<g id="edge11" class="edge">
<title>Node8&#45;&gt;Node9</title>
<path fill="none" stroke="midnightblue" d="M76.5,-224.08C76.89,-217.01 77.45,-206.86 77.95,-197.99"/>
<polygon fill="midnightblue" stroke="midnightblue" points="81.45,-197.93 78.51,-187.75 74.46,-197.54 81.45,-197.93"/>
</g>
<!-- Node9&#45;&gt;Node6 -->
<g id="edge12" class="edge">
<title>Node9&#45;&gt;Node6</title>
<path fill="none" stroke="midnightblue" d="M88.96,-168.32C98.13,-160.34 111.94,-148.31 123.03,-138.65"/>
<polygon fill="midnightblue" stroke="midnightblue" points="125.62,-141.04 130.86,-131.83 121.02,-135.76 125.62,-141.04"/>
</g>
<!-- Node10 -->
<g id="node10" class="node">
<title>Node10</title>
<g id="a_node10"><a xlink:title=" ">
<polygon fill="none" stroke="#bfbfbf" points="55.5,-112.5 55.5,-131.5 96.5,-131.5 96.5,-112.5 55.5,-112.5"/>
<text text-anchor="middle" x="76" y="-119.5" font-family="Helvetica,sans-Serif" font-size="10.00">QList</text>
</a>
</g>
</g>
<!-- Node9&#45;&gt;Node10 -->
<g id="edge13" class="edge">
<title>Node9&#45;&gt;Node10</title>
<path fill="none" stroke="midnightblue" d="M78.5,-168.08C78.11,-161.01 77.55,-150.86 77.05,-141.99"/>
<polygon fill="midnightblue" stroke="midnightblue" points="80.54,-141.54 76.49,-131.75 73.55,-141.93 80.54,-141.54"/>
</g>
</g>
</svg>
