<?xml version="1.0" encoding="UTF-8" standalone="no"?>
<!DOCTYPE svg PUBLIC "-//W3C//DTD SVG 1.1//EN"
 "http://www.w3.org/Graphics/SVG/1.1/DTD/svg11.dtd">
<!-- Generated by graphviz version 2.43.0 (0)
 -->
<!-- Title: slavedevicemessage.cpp Pages: 1 -->
<svg width="412pt" height="364pt"
 viewBox="0.00 0.00 411.50 364.00" xmlns="http://www.w3.org/2000/svg" xmlns:xlink="http://www.w3.org/1999/xlink">
<g id="graph0" class="graph" transform="scale(1 1) rotate(0) translate(4 360)">
<title>slavedevicemessage.cpp</title>
<!-- Node1 -->
<g id="node1" class="node">
<title>Node1</title>
<g id="a_node1"><a xlink:title=" ">
<polygon fill="#bfbfbf" stroke="black" points="195,-336.5 195,-355.5 335,-355.5 335,-336.5 195,-336.5"/>
<text text-anchor="middle" x="265" y="-343.5" font-family="Helvetica,sans-Serif" font-size="10.00">slavedevicemessage.cpp</text>
</a>
</g>
</g>
<!-- Node2 -->
<g id="node2" class="node">
<title>Node2</title>
<g id="a_node2"><a xlink:href="slavedevicemessage_8h.html" target="_top" xlink:title=" ">
<polygon fill="none" stroke="black" points="0,-280.5 0,-299.5 128,-299.5 128,-280.5 0,-280.5"/>
<text text-anchor="middle" x="64" y="-287.5" font-family="Helvetica,sans-Serif" font-size="10.00">slavedevicemessage.h</text>
</a>
</g>
</g>
<!-- Node1&#45;&gt;Node2 -->
<g id="edge1" class="edge">
<title>Node1&#45;&gt;Node2</title>
<path fill="none" stroke="midnightblue" d="M233.15,-336.44C198.6,-327.16 143.32,-312.31 105.42,-302.13"/>
<polygon fill="midnightblue" stroke="midnightblue" points="106.27,-298.73 95.7,-299.52 104.45,-305.49 106.27,-298.73"/>
</g>
<!-- Node7 -->
<g id="node7" class="node">
<title>Node7</title>
<g id="a_node7"><a xlink:title=" ">
<polygon fill="none" stroke="#bfbfbf" points="245,-56.5 245,-75.5 301,-75.5 301,-56.5 245,-56.5"/>
<text text-anchor="middle" x="273" y="-63.5" font-family="Helvetica,sans-Serif" font-size="10.00">QDebug</text>
</a>
</g>
</g>
<!-- Node1&#45;&gt;Node7 -->
<g id="edge15" class="edge">
<title>Node1&#45;&gt;Node7</title>
<path fill="none" stroke="midnightblue" d="M271.81,-336.46C285.28,-318.69 314,-275.98 314,-235 314,-235 314,-235 314,-177 314,-142.52 296.09,-105.56 283.94,-84.47"/>
<polygon fill="midnightblue" stroke="midnightblue" points="286.84,-82.49 278.7,-75.71 280.84,-86.09 286.84,-82.49"/>
</g>
<!-- Node8 -->
<g id="node8" class="node">
<title>Node8</title>
<g id="a_node8"><a xlink:href="slavedevicemessage__p_8h.html" target="_top" xlink:title=" ">
<polygon fill="none" stroke="black" points="146,-280.5 146,-299.5 286,-299.5 286,-280.5 146,-280.5"/>
<text text-anchor="middle" x="216" y="-287.5" font-family="Helvetica,sans-Serif" font-size="10.00">slavedevicemessage_p.h</text>
</a>
</g>
</g>
<!-- Node1&#45;&gt;Node8 -->
<g id="edge8" class="edge">
<title>Node1&#45;&gt;Node8</title>
<path fill="none" stroke="midnightblue" d="M256.91,-336.08C249.84,-328.3 239.41,-316.8 230.85,-307.37"/>
<polygon fill="midnightblue" stroke="midnightblue" points="233.25,-304.8 223.94,-299.75 228.07,-309.51 233.25,-304.8"/>
</g>
<!-- Node12 -->
<g id="node12" class="node">
<title>Node12</title>
<g id="a_node12"><a xlink:title=" ">
<polygon fill="none" stroke="#bfbfbf" points="342.5,-280.5 342.5,-299.5 403.5,-299.5 403.5,-280.5 342.5,-280.5"/>
<text text-anchor="middle" x="373" y="-287.5" font-family="Helvetica,sans-Serif" font-size="10.00">QtEndian</text>
</a>
</g>
</g>
<!-- Node1&#45;&gt;Node12 -->
<g id="edge16" class="edge">
<title>Node1&#45;&gt;Node12</title>
<path fill="none" stroke="midnightblue" d="M282.35,-336.32C299.67,-327.66 326.52,-314.24 346.5,-304.25"/>
<polygon fill="midnightblue" stroke="midnightblue" points="348.31,-307.26 355.69,-299.65 345.18,-301 348.31,-307.26"/>
</g>
<!-- Node3 -->
<g id="node3" class="node">
<title>Node3</title>
<g id="a_node3"><a xlink:href="fitdatamessage_8h.html" target="_top" xlink:title=" ">
<polygon fill="none" stroke="black" points="15.5,-168.5 15.5,-187.5 116.5,-187.5 116.5,-168.5 15.5,-168.5"/>
<text text-anchor="middle" x="66" y="-175.5" font-family="Helvetica,sans-Serif" font-size="10.00">fitdatamessage.h</text>
</a>
</g>
</g>
<!-- Node2&#45;&gt;Node3 -->
<g id="edge2" class="edge">
<title>Node2&#45;&gt;Node3</title>
<path fill="none" stroke="midnightblue" d="M64.16,-280.37C64.48,-262.62 65.22,-221.67 65.66,-197.6"/>
<polygon fill="midnightblue" stroke="midnightblue" points="69.16,-197.65 65.84,-187.59 62.16,-197.53 69.16,-197.65"/>
</g>
<!-- Node4 -->
<g id="node4" class="node">
<title>Node4</title>
<g id="a_node4"><a xlink:href="QtFit__global_8h.html" target="_top" xlink:title=" ">
<polygon fill="none" stroke="black" points="103,-56.5 103,-75.5 187,-75.5 187,-56.5 103,-56.5"/>
<text text-anchor="middle" x="145" y="-63.5" font-family="Helvetica,sans-Serif" font-size="10.00">QtFit_global.h</text>
</a>
</g>
</g>
<!-- Node3&#45;&gt;Node4 -->
<g id="edge3" class="edge">
<title>Node3&#45;&gt;Node4</title>
<path fill="none" stroke="midnightblue" d="M72.2,-168.37C85.24,-150.22 115.7,-107.8 132.8,-83.99"/>
<polygon fill="midnightblue" stroke="midnightblue" points="135.84,-85.76 138.83,-75.59 130.15,-81.67 135.84,-85.76"/>
</g>
<!-- Node6 -->
<g id="node6" class="node">
<title>Node6</title>
<g id="a_node6"><a xlink:href="types_8h.html" target="_top" xlink:title="Types defined by the ANT+ FIT SDK.">
<polygon fill="none" stroke="black" points="173.5,-112.5 173.5,-131.5 226.5,-131.5 226.5,-112.5 173.5,-112.5"/>
<text text-anchor="middle" x="200" y="-119.5" font-family="Helvetica,sans-Serif" font-size="10.00">types.h</text>
</a>
</g>
</g>
<!-- Node3&#45;&gt;Node6 -->
<g id="edge5" class="edge">
<title>Node3&#45;&gt;Node6</title>
<path fill="none" stroke="midnightblue" d="M87.23,-168.44C109.38,-159.52 144.32,-145.44 169.44,-135.32"/>
<polygon fill="midnightblue" stroke="midnightblue" points="170.9,-138.5 178.87,-131.52 168.28,-132.01 170.9,-138.5"/>
</g>
<!-- Node5 -->
<g id="node5" class="node">
<title>Node5</title>
<g id="a_node5"><a xlink:title=" ">
<polygon fill="none" stroke="#bfbfbf" points="115.5,-0.5 115.5,-19.5 174.5,-19.5 174.5,-0.5 115.5,-0.5"/>
<text text-anchor="middle" x="145" y="-7.5" font-family="Helvetica,sans-Serif" font-size="10.00">QtGlobal</text>
</a>
</g>
</g>
<!-- Node4&#45;&gt;Node5 -->
<g id="edge4" class="edge">
<title>Node4&#45;&gt;Node5</title>
<path fill="none" stroke="midnightblue" d="M145,-56.08C145,-49.01 145,-38.86 145,-29.99"/>
<polygon fill="midnightblue" stroke="midnightblue" points="148.5,-29.75 145,-19.75 141.5,-29.75 148.5,-29.75"/>
</g>
<!-- Node6&#45;&gt;Node4 -->
<g id="edge6" class="edge">
<title>Node6&#45;&gt;Node4</title>
<path fill="none" stroke="midnightblue" d="M190.92,-112.08C182.83,-104.14 170.8,-92.34 161.09,-82.8"/>
<polygon fill="midnightblue" stroke="midnightblue" points="163.5,-80.26 153.91,-75.75 158.6,-85.25 163.5,-80.26"/>
</g>
<!-- Node6&#45;&gt;Node7 -->
<g id="edge7" class="edge">
<title>Node6&#45;&gt;Node7</title>
<path fill="none" stroke="midnightblue" d="M211.73,-112.32C222.84,-104.11 239.74,-91.6 252.98,-81.81"/>
<polygon fill="midnightblue" stroke="midnightblue" points="255.1,-84.59 261.06,-75.83 250.94,-78.97 255.1,-84.59"/>
</g>
<!-- Node9 -->
<g id="node9" class="node">
<title>Node9</title>
<g id="a_node9"><a xlink:href="fitdatamessage__p_8h.html" target="_top" xlink:title=" ">
<polygon fill="none" stroke="black" points="148.5,-224.5 148.5,-243.5 261.5,-243.5 261.5,-224.5 148.5,-224.5"/>
<text text-anchor="middle" x="205" y="-231.5" font-family="Helvetica,sans-Serif" font-size="10.00">fitdatamessage_p.h</text>
</a>
</g>
</g>
<!-- Node8&#45;&gt;Node9 -->
<g id="edge9" class="edge">
<title>Node8&#45;&gt;Node9</title>
<path fill="none" stroke="midnightblue" d="M214.18,-280.08C212.73,-272.93 210.63,-262.64 208.81,-253.69"/>
<polygon fill="midnightblue" stroke="midnightblue" points="212.21,-252.85 206.78,-243.75 205.35,-254.25 212.21,-252.85"/>
</g>
<!-- Node9&#45;&gt;Node4 -->
<g id="edge10" class="edge">
<title>Node9&#45;&gt;Node4</title>
<path fill="none" stroke="midnightblue" d="M201.19,-224.47C193.57,-207.21 176.13,-166.85 164,-132 158.56,-116.39 153.37,-98.31 149.79,-85.19"/>
<polygon fill="midnightblue" stroke="midnightblue" points="153.16,-84.25 147.19,-75.5 146.4,-86.07 153.16,-84.25"/>
</g>
<!-- Node9&#45;&gt;Node6 -->
<g id="edge11" class="edge">
<title>Node9&#45;&gt;Node6</title>
<path fill="none" stroke="midnightblue" d="M204.61,-224.37C203.8,-206.62 201.94,-165.67 200.85,-141.6"/>
<polygon fill="midnightblue" stroke="midnightblue" points="204.34,-141.42 200.39,-131.59 197.35,-141.74 204.34,-141.42"/>
</g>
<!-- Node10 -->
<g id="node10" class="node">
<title>Node10</title>
<g id="a_node10"><a xlink:href="types__p_8h.html" target="_top" xlink:title=" ">
<polygon fill="none" stroke="black" points="222,-168.5 222,-187.5 286,-187.5 286,-168.5 222,-168.5"/>
<text text-anchor="middle" x="254" y="-175.5" font-family="Helvetica,sans-Serif" font-size="10.00">types_p.h</text>
</a>
</g>
</g>
<!-- Node9&#45;&gt;Node10 -->
<g id="edge12" class="edge">
<title>Node9&#45;&gt;Node10</title>
<path fill="none" stroke="midnightblue" d="M213.09,-224.08C220.16,-216.3 230.59,-204.8 239.15,-195.37"/>
<polygon fill="midnightblue" stroke="midnightblue" points="241.93,-197.51 246.06,-187.75 236.75,-192.8 241.93,-197.51"/>
</g>
<!-- Node10&#45;&gt;Node6 -->
<g id="edge13" class="edge">
<title>Node10&#45;&gt;Node6</title>
<path fill="none" stroke="midnightblue" d="M245.08,-168.08C237.22,-160.22 225.57,-148.57 216.08,-139.08"/>
<polygon fill="midnightblue" stroke="midnightblue" points="218.3,-136.35 208.75,-131.75 213.35,-141.3 218.3,-136.35"/>
</g>
<!-- Node11 -->
<g id="node11" class="node">
<title>Node11</title>
<g id="a_node11"><a xlink:title=" ">
<polygon fill="none" stroke="#bfbfbf" points="244.5,-112.5 244.5,-131.5 285.5,-131.5 285.5,-112.5 244.5,-112.5"/>
<text text-anchor="middle" x="265" y="-119.5" font-family="Helvetica,sans-Serif" font-size="10.00">QList</text>
</a>
</g>
</g>
<!-- Node10&#45;&gt;Node11 -->
<g id="edge14" class="edge">
<title>Node10&#45;&gt;Node11</title>
<path fill="none" stroke="midnightblue" d="M255.82,-168.08C257.27,-160.93 259.37,-150.64 261.19,-141.69"/>
<polygon fill="midnightblue" stroke="midnightblue" points="264.65,-142.25 263.22,-131.75 257.79,-140.85 264.65,-142.25"/>
</g>
</g>
</svg>
