<?xml version="1.0" encoding="UTF-8" standalone="no"?>
<!DOCTYPE svg PUBLIC "-//W3C//DTD SVG 1.1//EN"
 "http://www.w3.org/Graphics/SVG/1.1/DTD/svg11.dtd">
<!-- Generated by graphviz version 2.43.0 (0)
 -->
<!-- Title: softwaremessage.cpp Pages: 1 -->
<svg width="263pt" height="364pt"
 viewBox="0.00 0.00 262.50 364.00" xmlns="http://www.w3.org/2000/svg" xmlns:xlink="http://www.w3.org/1999/xlink">
<g id="graph0" class="graph" transform="scale(1 1) rotate(0) translate(4 360)">
<title>softwaremessage.cpp</title>
<!-- Node1 -->
<g id="node1" class="node">
<title>Node1</title>
<g id="a_node1"><a xlink:title=" ">
<polygon fill="#bfbfbf" stroke="black" points="68,-336.5 68,-355.5 191,-355.5 191,-336.5 68,-336.5"/>
<text text-anchor="middle" x="129.5" y="-343.5" font-family="Helvetica,sans-Serif" font-size="10.00">softwaremessage.cpp</text>
</a>
</g>
</g>
<!-- Node2 -->
<g id="node2" class="node">
<title>Node2</title>
<g id="a_node2"><a xlink:href="softwaremessage_8h.html" target="_top" xlink:title=" ">
<polygon fill="none" stroke="black" points="142.5,-280.5 142.5,-299.5 254.5,-299.5 254.5,-280.5 142.5,-280.5"/>
<text text-anchor="middle" x="198.5" y="-287.5" font-family="Helvetica,sans-Serif" font-size="10.00">softwaremessage.h</text>
</a>
</g>
</g>
<!-- Node1&#45;&gt;Node2 -->
<g id="edge1" class="edge">
<title>Node1&#45;&gt;Node2</title>
<path fill="none" stroke="midnightblue" d="M140.59,-336.32C150.99,-328.18 166.76,-315.84 179.22,-306.09"/>
<polygon fill="midnightblue" stroke="midnightblue" points="181.49,-308.75 187.21,-299.83 177.18,-303.24 181.49,-308.75"/>
</g>
<!-- Node7 -->
<g id="node7" class="node">
<title>Node7</title>
<g id="a_node7"><a xlink:href="softwaremessage__p_8h.html" target="_top" xlink:title=" ">
<polygon fill="none" stroke="black" points="0,-280.5 0,-299.5 123,-299.5 123,-280.5 0,-280.5"/>
<text text-anchor="middle" x="61.5" y="-287.5" font-family="Helvetica,sans-Serif" font-size="10.00">softwaremessage_p.h</text>
</a>
</g>
</g>
<!-- Node1&#45;&gt;Node7 -->
<g id="edge7" class="edge">
<title>Node1&#45;&gt;Node7</title>
<path fill="none" stroke="midnightblue" d="M118.57,-336.32C108.33,-328.18 92.78,-315.84 80.5,-306.09"/>
<polygon fill="midnightblue" stroke="midnightblue" points="82.63,-303.31 72.62,-299.83 78.28,-308.79 82.63,-303.31"/>
</g>
<!-- Node3 -->
<g id="node3" class="node">
<title>Node3</title>
<g id="a_node3"><a xlink:href="fitdatamessage_8h.html" target="_top" xlink:title=" ">
<polygon fill="none" stroke="black" points="149,-168.5 149,-187.5 250,-187.5 250,-168.5 149,-168.5"/>
<text text-anchor="middle" x="199.5" y="-175.5" font-family="Helvetica,sans-Serif" font-size="10.00">fitdatamessage.h</text>
</a>
</g>
</g>
<!-- Node2&#45;&gt;Node3 -->
<g id="edge2" class="edge">
<title>Node2&#45;&gt;Node3</title>
<path fill="none" stroke="midnightblue" d="M198.58,-280.37C198.74,-262.62 199.11,-221.67 199.33,-197.6"/>
<polygon fill="midnightblue" stroke="midnightblue" points="202.83,-197.62 199.42,-187.59 195.83,-197.56 202.83,-197.62"/>
</g>
<!-- Node4 -->
<g id="node4" class="node">
<title>Node4</title>
<g id="a_node4"><a xlink:href="QtFit__global_8h.html" target="_top" xlink:title=" ">
<polygon fill="none" stroke="black" points="80.5,-56.5 80.5,-75.5 164.5,-75.5 164.5,-56.5 80.5,-56.5"/>
<text text-anchor="middle" x="122.5" y="-63.5" font-family="Helvetica,sans-Serif" font-size="10.00">QtFit_global.h</text>
</a>
</g>
</g>
<!-- Node3&#45;&gt;Node4 -->
<g id="edge3" class="edge">
<title>Node3&#45;&gt;Node4</title>
<path fill="none" stroke="midnightblue" d="M194.49,-168.39C187.04,-155.75 172.43,-131.56 158.5,-112 151.61,-102.32 143.36,-91.94 136.51,-83.59"/>
<polygon fill="midnightblue" stroke="midnightblue" points="139.06,-81.19 129.97,-75.74 133.68,-85.66 139.06,-81.19"/>
</g>
<!-- Node6 -->
<g id="node6" class="node">
<title>Node6</title>
<g id="a_node6"><a xlink:href="types_8h.html" target="_top" xlink:title="Types defined by the ANT+ FIT SDK.">
<polygon fill="none" stroke="black" points="96,-112.5 96,-131.5 149,-131.5 149,-112.5 96,-112.5"/>
<text text-anchor="middle" x="122.5" y="-119.5" font-family="Helvetica,sans-Serif" font-size="10.00">types.h</text>
</a>
</g>
</g>
<!-- Node3&#45;&gt;Node6 -->
<g id="edge5" class="edge">
<title>Node3&#45;&gt;Node6</title>
<path fill="none" stroke="midnightblue" d="M187.13,-168.32C175.34,-160.06 157.37,-147.45 143.36,-137.63"/>
<polygon fill="midnightblue" stroke="midnightblue" points="145.04,-134.53 134.84,-131.65 141.02,-140.26 145.04,-134.53"/>
</g>
<!-- Node5 -->
<g id="node5" class="node">
<title>Node5</title>
<g id="a_node5"><a xlink:title=" ">
<polygon fill="none" stroke="#bfbfbf" points="93,-0.5 93,-19.5 152,-19.5 152,-0.5 93,-0.5"/>
<text text-anchor="middle" x="122.5" y="-7.5" font-family="Helvetica,sans-Serif" font-size="10.00">QtGlobal</text>
</a>
</g>
</g>
<!-- Node4&#45;&gt;Node5 -->
<g id="edge4" class="edge">
<title>Node4&#45;&gt;Node5</title>
<path fill="none" stroke="midnightblue" d="M122.5,-56.08C122.5,-49.01 122.5,-38.86 122.5,-29.99"/>
<polygon fill="midnightblue" stroke="midnightblue" points="126,-29.75 122.5,-19.75 119,-29.75 126,-29.75"/>
</g>
<!-- Node6&#45;&gt;Node4 -->
<g id="edge6" class="edge">
<title>Node6&#45;&gt;Node4</title>
<path fill="none" stroke="midnightblue" d="M122.5,-112.08C122.5,-105.01 122.5,-94.86 122.5,-85.99"/>
<polygon fill="midnightblue" stroke="midnightblue" points="126,-85.75 122.5,-75.75 119,-85.75 126,-85.75"/>
</g>
<!-- Node8 -->
<g id="node8" class="node">
<title>Node8</title>
<g id="a_node8"><a xlink:href="fitdatamessage__p_8h.html" target="_top" xlink:title=" ">
<polygon fill="none" stroke="black" points="4,-224.5 4,-243.5 117,-243.5 117,-224.5 4,-224.5"/>
<text text-anchor="middle" x="60.5" y="-231.5" font-family="Helvetica,sans-Serif" font-size="10.00">fitdatamessage_p.h</text>
</a>
</g>
</g>
<!-- Node7&#45;&gt;Node8 -->
<g id="edge8" class="edge">
<title>Node7&#45;&gt;Node8</title>
<path fill="none" stroke="midnightblue" d="M61.33,-280.08C61.2,-273.01 61.02,-262.86 60.85,-253.99"/>
<polygon fill="midnightblue" stroke="midnightblue" points="64.35,-253.68 60.66,-243.75 57.35,-253.81 64.35,-253.68"/>
</g>
<!-- Node8&#45;&gt;Node4 -->
<g id="edge9" class="edge">
<title>Node8&#45;&gt;Node4</title>
<path fill="none" stroke="midnightblue" d="M48.96,-224.49C39.02,-216.38 25.38,-203.18 19.5,-188 12.39,-169.63 19.31,-123.12 27.5,-112 39.1,-96.26 57.64,-85.81 75.27,-78.98"/>
<polygon fill="midnightblue" stroke="midnightblue" points="76.67,-82.2 84.92,-75.55 74.32,-75.6 76.67,-82.2"/>
</g>
<!-- Node8&#45;&gt;Node6 -->
<g id="edge10" class="edge">
<title>Node8&#45;&gt;Node6</title>
<path fill="none" stroke="midnightblue" d="M70.59,-224.29C79.81,-215.85 93.23,-202.26 101.5,-188 109.87,-173.58 115.38,-155.38 118.65,-141.92"/>
<polygon fill="midnightblue" stroke="midnightblue" points="122.12,-142.42 120.88,-131.9 115.29,-140.9 122.12,-142.42"/>
</g>
<!-- Node9 -->
<g id="node9" class="node">
<title>Node9</title>
<g id="a_node9"><a xlink:href="types__p_8h.html" target="_top" xlink:title=" ">
<polygon fill="none" stroke="black" points="28.5,-168.5 28.5,-187.5 92.5,-187.5 92.5,-168.5 28.5,-168.5"/>
<text text-anchor="middle" x="60.5" y="-175.5" font-family="Helvetica,sans-Serif" font-size="10.00">types_p.h</text>
</a>
</g>
</g>
<!-- Node8&#45;&gt;Node9 -->
<g id="edge11" class="edge">
<title>Node8&#45;&gt;Node9</title>
<path fill="none" stroke="midnightblue" d="M60.5,-224.08C60.5,-217.01 60.5,-206.86 60.5,-197.99"/>
<polygon fill="midnightblue" stroke="midnightblue" points="64,-197.75 60.5,-187.75 57,-197.75 64,-197.75"/>
</g>
<!-- Node9&#45;&gt;Node6 -->
<g id="edge12" class="edge">
<title>Node9&#45;&gt;Node6</title>
<path fill="none" stroke="midnightblue" d="M70.46,-168.32C79.63,-160.34 93.44,-148.31 104.53,-138.65"/>
<polygon fill="midnightblue" stroke="midnightblue" points="107.12,-141.04 112.36,-131.83 102.52,-135.76 107.12,-141.04"/>
</g>
<!-- Node10 -->
<g id="node10" class="node">
<title>Node10</title>
<g id="a_node10"><a xlink:title=" ">
<polygon fill="none" stroke="#bfbfbf" points="37,-112.5 37,-131.5 78,-131.5 78,-112.5 37,-112.5"/>
<text text-anchor="middle" x="57.5" y="-119.5" font-family="Helvetica,sans-Serif" font-size="10.00">QList</text>
</a>
</g>
</g>
<!-- Node9&#45;&gt;Node10 -->
<g id="edge13" class="edge">
<title>Node9&#45;&gt;Node10</title>
<path fill="none" stroke="midnightblue" d="M60,-168.08C59.61,-161.01 59.05,-150.86 58.55,-141.99"/>
<polygon fill="midnightblue" stroke="midnightblue" points="62.04,-141.54 57.99,-131.75 55.05,-141.93 62.04,-141.54"/>
</g>
</g>
</svg>
