<?xml version="1.0" encoding="UTF-8" standalone="no"?>
<!DOCTYPE svg PUBLIC "-//W3C//DTD SVG 1.1//EN"
 "http://www.w3.org/Graphics/SVG/1.1/DTD/svg11.dtd">
<!-- Generated by graphviz version 2.43.0 (0)
 -->
<!-- Title: softwaremessage_p.h Pages: 1 -->
<svg width="164pt" height="308pt"
 viewBox="0.00 0.00 164.00 308.00" xmlns="http://www.w3.org/2000/svg" xmlns:xlink="http://www.w3.org/1999/xlink">
<g id="graph0" class="graph" transform="scale(1 1) rotate(0) translate(4 304)">
<title>softwaremessage_p.h</title>
<!-- Node1 -->
<g id="node1" class="node">
<title>Node1</title>
<g id="a_node1"><a xlink:title=" ">
<polygon fill="#bfbfbf" stroke="black" points="0,-280.5 0,-299.5 123,-299.5 123,-280.5 0,-280.5"/>
<text text-anchor="middle" x="61.5" y="-287.5" font-family="Helvetica,sans-Serif" font-size="10.00">softwaremessage_p.h</text>
</a>
</g>
</g>
<!-- Node2 -->
<g id="node2" class="node">
<title>Node2</title>
<g id="a_node2"><a xlink:href="fitdatamessage__p_8h.html" target="_top" xlink:title=" ">
<polygon fill="none" stroke="black" points="5,-224.5 5,-243.5 118,-243.5 118,-224.5 5,-224.5"/>
<text text-anchor="middle" x="61.5" y="-231.5" font-family="Helvetica,sans-Serif" font-size="10.00">fitdatamessage_p.h</text>
</a>
</g>
</g>
<!-- Node1&#45;&gt;Node2 -->
<g id="edge1" class="edge">
<title>Node1&#45;&gt;Node2</title>
<path fill="none" stroke="midnightblue" d="M61.5,-280.08C61.5,-273.01 61.5,-262.86 61.5,-253.99"/>
<polygon fill="midnightblue" stroke="midnightblue" points="65,-253.75 61.5,-243.75 58,-253.75 65,-253.75"/>
</g>
<!-- Node3 -->
<g id="node3" class="node">
<title>Node3</title>
<g id="a_node3"><a xlink:href="QtFit__global_8h.html" target="_top" xlink:title=" ">
<polygon fill="none" stroke="black" points="0.5,-56.5 0.5,-75.5 84.5,-75.5 84.5,-56.5 0.5,-56.5"/>
<text text-anchor="middle" x="42.5" y="-63.5" font-family="Helvetica,sans-Serif" font-size="10.00">QtFit_global.h</text>
</a>
</g>
</g>
<!-- Node2&#45;&gt;Node3 -->
<g id="edge2" class="edge">
<title>Node2&#45;&gt;Node3</title>
<path fill="none" stroke="midnightblue" d="M57.65,-224.32C49.32,-204.61 30.72,-154.88 34.5,-112 35.28,-103.2 36.89,-93.54 38.47,-85.43"/>
<polygon fill="midnightblue" stroke="midnightblue" points="41.91,-86.07 40.51,-75.57 35.06,-84.65 41.91,-86.07"/>
</g>
<!-- Node5 -->
<g id="node5" class="node">
<title>Node5</title>
<g id="a_node5"><a xlink:href="types_8h.html" target="_top" xlink:title="Types defined by the ANT+ FIT SDK.">
<polygon fill="none" stroke="black" points="44,-112.5 44,-131.5 97,-131.5 97,-112.5 44,-112.5"/>
<text text-anchor="middle" x="70.5" y="-119.5" font-family="Helvetica,sans-Serif" font-size="10.00">types.h</text>
</a>
</g>
</g>
<!-- Node2&#45;&gt;Node5 -->
<g id="edge4" class="edge">
<title>Node2&#45;&gt;Node5</title>
<path fill="none" stroke="midnightblue" d="M62.21,-224.37C63.66,-206.62 67.01,-165.67 68.98,-141.6"/>
<polygon fill="midnightblue" stroke="midnightblue" points="72.47,-141.84 69.8,-131.59 65.49,-141.27 72.47,-141.84"/>
</g>
<!-- Node6 -->
<g id="node6" class="node">
<title>Node6</title>
<g id="a_node6"><a xlink:href="types__p_8h.html" target="_top" xlink:title=" ">
<polygon fill="none" stroke="black" points="89.5,-168.5 89.5,-187.5 153.5,-187.5 153.5,-168.5 89.5,-168.5"/>
<text text-anchor="middle" x="121.5" y="-175.5" font-family="Helvetica,sans-Serif" font-size="10.00">types_p.h</text>
</a>
</g>
</g>
<!-- Node2&#45;&gt;Node6 -->
<g id="edge6" class="edge">
<title>Node2&#45;&gt;Node6</title>
<path fill="none" stroke="midnightblue" d="M71.14,-224.32C80.01,-216.34 93.37,-204.31 104.11,-194.65"/>
<polygon fill="midnightblue" stroke="midnightblue" points="106.59,-197.13 111.68,-187.83 101.91,-191.92 106.59,-197.13"/>
</g>
<!-- Node4 -->
<g id="node4" class="node">
<title>Node4</title>
<g id="a_node4"><a xlink:title=" ">
<polygon fill="none" stroke="#bfbfbf" points="13,-0.5 13,-19.5 72,-19.5 72,-0.5 13,-0.5"/>
<text text-anchor="middle" x="42.5" y="-7.5" font-family="Helvetica,sans-Serif" font-size="10.00">QtGlobal</text>
</a>
</g>
</g>
<!-- Node3&#45;&gt;Node4 -->
<g id="edge3" class="edge">
<title>Node3&#45;&gt;Node4</title>
<path fill="none" stroke="midnightblue" d="M42.5,-56.08C42.5,-49.01 42.5,-38.86 42.5,-29.99"/>
<polygon fill="midnightblue" stroke="midnightblue" points="46,-29.75 42.5,-19.75 39,-29.75 46,-29.75"/>
</g>
<!-- Node5&#45;&gt;Node3 -->
<g id="edge5" class="edge">
<title>Node5&#45;&gt;Node3</title>
<path fill="none" stroke="midnightblue" d="M65.88,-112.08C62.04,-104.69 56.48,-93.95 51.74,-84.81"/>
<polygon fill="midnightblue" stroke="midnightblue" points="54.75,-83.02 47.04,-75.75 48.53,-86.24 54.75,-83.02"/>
</g>
<!-- Node6&#45;&gt;Node5 -->
<g id="edge7" class="edge">
<title>Node6&#45;&gt;Node5</title>
<path fill="none" stroke="midnightblue" d="M113.08,-168.08C105.65,-160.22 94.65,-148.57 85.69,-139.08"/>
<polygon fill="midnightblue" stroke="midnightblue" points="88.18,-136.62 78.76,-131.75 83.09,-141.42 88.18,-136.62"/>
</g>
<!-- Node7 -->
<g id="node7" class="node">
<title>Node7</title>
<g id="a_node7"><a xlink:title=" ">
<polygon fill="none" stroke="#bfbfbf" points="115,-112.5 115,-131.5 156,-131.5 156,-112.5 115,-112.5"/>
<text text-anchor="middle" x="135.5" y="-119.5" font-family="Helvetica,sans-Serif" font-size="10.00">QList</text>
</a>
</g>
</g>
<!-- Node6&#45;&gt;Node7 -->
<g id="edge8" class="edge">
<title>Node6&#45;&gt;Node7</title>
<path fill="none" stroke="midnightblue" d="M123.81,-168.08C125.67,-160.93 128.34,-150.64 130.65,-141.69"/>
<polygon fill="midnightblue" stroke="midnightblue" points="134.11,-142.31 133.23,-131.75 127.33,-140.55 134.11,-142.31"/>
</g>
</g>
</svg>
