<?xml version="1.0" encoding="UTF-8" standalone="no"?>
<!DOCTYPE svg PUBLIC "-//W3C//DTD SVG 1.1//EN"
 "http://www.w3.org/Graphics/SVG/1.1/DTD/svg11.dtd">
<!-- Generated by graphviz version 2.43.0 (0)
 -->
<!-- Title: softwaremessage.h Pages: 1 -->
<svg width="120pt" height="252pt"
 viewBox="0.00 0.00 120.00 252.00" xmlns="http://www.w3.org/2000/svg" xmlns:xlink="http://www.w3.org/1999/xlink">
<g id="graph0" class="graph" transform="scale(1 1) rotate(0) translate(4 248)">
<title>softwaremessage.h</title>
<!-- Node1 -->
<g id="node1" class="node">
<title>Node1</title>
<g id="a_node1"><a xlink:title=" ">
<polygon fill="#bfbfbf" stroke="black" points="0,-224.5 0,-243.5 112,-243.5 112,-224.5 0,-224.5"/>
<text text-anchor="middle" x="56" y="-231.5" font-family="Helvetica,sans-Serif" font-size="10.00">softwaremessage.h</text>
</a>
</g>
</g>
<!-- Node2 -->
<g id="node2" class="node">
<title>Node2</title>
<g id="a_node2"><a xlink:href="fitdatamessage_8h.html" target="_top" xlink:title=" ">
<polygon fill="none" stroke="black" points="5.5,-168.5 5.5,-187.5 106.5,-187.5 106.5,-168.5 5.5,-168.5"/>
<text text-anchor="middle" x="56" y="-175.5" font-family="Helvetica,sans-Serif" font-size="10.00">fitdatamessage.h</text>
</a>
</g>
</g>
<!-- Node1&#45;&gt;Node2 -->
<g id="edge1" class="edge">
<title>Node1&#45;&gt;Node2</title>
<path fill="none" stroke="midnightblue" d="M56,-224.08C56,-217.01 56,-206.86 56,-197.99"/>
<polygon fill="midnightblue" stroke="midnightblue" points="59.5,-197.75 56,-187.75 52.5,-197.75 59.5,-197.75"/>
</g>
<!-- Node3 -->
<g id="node3" class="node">
<title>Node3</title>
<g id="a_node3"><a xlink:href="QtFit__global_8h.html" target="_top" xlink:title=" ">
<polygon fill="none" stroke="black" points="14,-56.5 14,-75.5 98,-75.5 98,-56.5 14,-56.5"/>
<text text-anchor="middle" x="56" y="-63.5" font-family="Helvetica,sans-Serif" font-size="10.00">QtFit_global.h</text>
</a>
</g>
</g>
<!-- Node2&#45;&gt;Node3 -->
<g id="edge2" class="edge">
<title>Node2&#45;&gt;Node3</title>
<path fill="none" stroke="midnightblue" d="M54.26,-168.42C52.53,-159.4 49.99,-144.77 49,-132 47.8,-116.42 49.91,-98.8 52.12,-85.84"/>
<polygon fill="midnightblue" stroke="midnightblue" points="55.6,-86.29 54.01,-75.82 48.72,-84.99 55.6,-86.29"/>
</g>
<!-- Node5 -->
<g id="node5" class="node">
<title>Node5</title>
<g id="a_node5"><a xlink:href="types_8h.html" target="_top" xlink:title="Types defined by the ANT+ FIT SDK.">
<polygon fill="none" stroke="black" points="57.5,-112.5 57.5,-131.5 110.5,-131.5 110.5,-112.5 57.5,-112.5"/>
<text text-anchor="middle" x="84" y="-119.5" font-family="Helvetica,sans-Serif" font-size="10.00">types.h</text>
</a>
</g>
</g>
<!-- Node2&#45;&gt;Node5 -->
<g id="edge4" class="edge">
<title>Node2&#45;&gt;Node5</title>
<path fill="none" stroke="midnightblue" d="M60.62,-168.08C64.46,-160.69 70.02,-149.95 74.76,-140.81"/>
<polygon fill="midnightblue" stroke="midnightblue" points="77.97,-142.24 79.46,-131.75 71.75,-139.02 77.97,-142.24"/>
</g>
<!-- Node4 -->
<g id="node4" class="node">
<title>Node4</title>
<g id="a_node4"><a xlink:title=" ">
<polygon fill="none" stroke="#bfbfbf" points="26.5,-0.5 26.5,-19.5 85.5,-19.5 85.5,-0.5 26.5,-0.5"/>
<text text-anchor="middle" x="56" y="-7.5" font-family="Helvetica,sans-Serif" font-size="10.00">QtGlobal</text>
</a>
</g>
</g>
<!-- Node3&#45;&gt;Node4 -->
<g id="edge3" class="edge">
<title>Node3&#45;&gt;Node4</title>
<path fill="none" stroke="midnightblue" d="M56,-56.08C56,-49.01 56,-38.86 56,-29.99"/>
<polygon fill="midnightblue" stroke="midnightblue" points="59.5,-29.75 56,-19.75 52.5,-29.75 59.5,-29.75"/>
</g>
<!-- Node5&#45;&gt;Node3 -->
<g id="edge5" class="edge">
<title>Node5&#45;&gt;Node3</title>
<path fill="none" stroke="midnightblue" d="M79.38,-112.08C75.54,-104.69 69.98,-93.95 65.24,-84.81"/>
<polygon fill="midnightblue" stroke="midnightblue" points="68.25,-83.02 60.54,-75.75 62.03,-86.24 68.25,-83.02"/>
</g>
</g>
</svg>
