<?xml version="1.0" encoding="UTF-8" standalone="no"?>
<!DOCTYPE svg PUBLIC "-//W3C//DTD SVG 1.1//EN"
 "http://www.w3.org/Graphics/SVG/1.1/DTD/svg11.dtd">
<!-- Generated by graphviz version 2.43.0 (0)
 -->
<!-- Title: speedzonemessage.cpp Pages: 1 -->
<svg width="401pt" height="364pt"
 viewBox="0.00 0.00 400.50 364.00" xmlns="http://www.w3.org/2000/svg" xmlns:xlink="http://www.w3.org/1999/xlink">
<g id="graph0" class="graph" transform="scale(1 1) rotate(0) translate(4 360)">
<title>speedzonemessage.cpp</title>
<!-- Node1 -->
<g id="node1" class="node">
<title>Node1</title>
<g id="a_node1"><a xlink:title=" ">
<polygon fill="#bfbfbf" stroke="black" points="188,-336.5 188,-355.5 322,-355.5 322,-336.5 188,-336.5"/>
<text text-anchor="middle" x="255" y="-343.5" font-family="Helvetica,sans-Serif" font-size="10.00">speedzonemessage.cpp</text>
</a>
</g>
</g>
<!-- Node2 -->
<g id="node2" class="node">
<title>Node2</title>
<g id="a_node2"><a xlink:href="speedzonemessage_8h.html" target="_top" xlink:title=" ">
<polygon fill="none" stroke="black" points="0,-280.5 0,-299.5 122,-299.5 122,-280.5 0,-280.5"/>
<text text-anchor="middle" x="61" y="-287.5" font-family="Helvetica,sans-Serif" font-size="10.00">speedzonemessage.h</text>
</a>
</g>
</g>
<!-- Node1&#45;&gt;Node2 -->
<g id="edge1" class="edge">
<title>Node1&#45;&gt;Node2</title>
<path fill="none" stroke="midnightblue" d="M224.26,-336.44C191.06,-327.2 138.01,-312.44 101.44,-302.26"/>
<polygon fill="midnightblue" stroke="midnightblue" points="102.17,-298.83 91.6,-299.52 100.29,-305.57 102.17,-298.83"/>
</g>
<!-- Node7 -->
<g id="node7" class="node">
<title>Node7</title>
<g id="a_node7"><a xlink:title=" ">
<polygon fill="none" stroke="#bfbfbf" points="234,-56.5 234,-75.5 290,-75.5 290,-56.5 234,-56.5"/>
<text text-anchor="middle" x="262" y="-63.5" font-family="Helvetica,sans-Serif" font-size="10.00">QDebug</text>
</a>
</g>
</g>
<!-- Node1&#45;&gt;Node7 -->
<g id="edge15" class="edge">
<title>Node1&#45;&gt;Node7</title>
<path fill="none" stroke="midnightblue" d="M261.67,-336.44C274.86,-318.62 303,-275.84 303,-235 303,-235 303,-235 303,-177 303,-142.52 285.09,-105.56 272.94,-84.47"/>
<polygon fill="midnightblue" stroke="midnightblue" points="275.84,-82.49 267.7,-75.71 269.84,-86.09 275.84,-82.49"/>
</g>
<!-- Node8 -->
<g id="node8" class="node">
<title>Node8</title>
<g id="a_node8"><a xlink:href="speedzonemessage__p_8h.html" target="_top" xlink:title=" ">
<polygon fill="none" stroke="black" points="141,-280.5 141,-299.5 275,-299.5 275,-280.5 141,-280.5"/>
<text text-anchor="middle" x="208" y="-287.5" font-family="Helvetica,sans-Serif" font-size="10.00">speedzonemessage_p.h</text>
</a>
</g>
</g>
<!-- Node1&#45;&gt;Node8 -->
<g id="edge8" class="edge">
<title>Node1&#45;&gt;Node8</title>
<path fill="none" stroke="midnightblue" d="M247.24,-336.08C240.46,-328.3 230.46,-316.8 222.24,-307.37"/>
<polygon fill="midnightblue" stroke="midnightblue" points="224.82,-305 215.62,-299.75 219.54,-309.59 224.82,-305"/>
</g>
<!-- Node12 -->
<g id="node12" class="node">
<title>Node12</title>
<g id="a_node12"><a xlink:title=" ">
<polygon fill="none" stroke="#bfbfbf" points="331.5,-280.5 331.5,-299.5 392.5,-299.5 392.5,-280.5 331.5,-280.5"/>
<text text-anchor="middle" x="362" y="-287.5" font-family="Helvetica,sans-Serif" font-size="10.00">QtEndian</text>
</a>
</g>
</g>
<!-- Node1&#45;&gt;Node12 -->
<g id="edge16" class="edge">
<title>Node1&#45;&gt;Node12</title>
<path fill="none" stroke="midnightblue" d="M272.19,-336.32C289.35,-327.66 315.95,-314.24 335.75,-304.25"/>
<polygon fill="midnightblue" stroke="midnightblue" points="337.5,-307.28 344.85,-299.65 334.35,-301.04 337.5,-307.28"/>
</g>
<!-- Node3 -->
<g id="node3" class="node">
<title>Node3</title>
<g id="a_node3"><a xlink:href="fitdatamessage_8h.html" target="_top" xlink:title=" ">
<polygon fill="none" stroke="black" points="5.5,-168.5 5.5,-187.5 106.5,-187.5 106.5,-168.5 5.5,-168.5"/>
<text text-anchor="middle" x="56" y="-175.5" font-family="Helvetica,sans-Serif" font-size="10.00">fitdatamessage.h</text>
</a>
</g>
</g>
<!-- Node2&#45;&gt;Node3 -->
<g id="edge2" class="edge">
<title>Node2&#45;&gt;Node3</title>
<path fill="none" stroke="midnightblue" d="M60.61,-280.37C59.8,-262.62 57.94,-221.67 56.85,-197.6"/>
<polygon fill="midnightblue" stroke="midnightblue" points="60.34,-197.42 56.39,-187.59 53.35,-197.74 60.34,-197.42"/>
</g>
<!-- Node4 -->
<g id="node4" class="node">
<title>Node4</title>
<g id="a_node4"><a xlink:href="QtFit__global_8h.html" target="_top" xlink:title=" ">
<polygon fill="none" stroke="black" points="92,-56.5 92,-75.5 176,-75.5 176,-56.5 92,-56.5"/>
<text text-anchor="middle" x="134" y="-63.5" font-family="Helvetica,sans-Serif" font-size="10.00">QtFit_global.h</text>
</a>
</g>
</g>
<!-- Node3&#45;&gt;Node4 -->
<g id="edge3" class="edge">
<title>Node3&#45;&gt;Node4</title>
<path fill="none" stroke="midnightblue" d="M62.12,-168.37C74.99,-150.22 105.07,-107.8 121.95,-83.99"/>
<polygon fill="midnightblue" stroke="midnightblue" points="124.98,-85.77 127.91,-75.59 119.27,-81.72 124.98,-85.77"/>
</g>
<!-- Node6 -->
<g id="node6" class="node">
<title>Node6</title>
<g id="a_node6"><a xlink:href="types_8h.html" target="_top" xlink:title="Types defined by the ANT+ FIT SDK.">
<polygon fill="none" stroke="black" points="162.5,-112.5 162.5,-131.5 215.5,-131.5 215.5,-112.5 162.5,-112.5"/>
<text text-anchor="middle" x="189" y="-119.5" font-family="Helvetica,sans-Serif" font-size="10.00">types.h</text>
</a>
</g>
</g>
<!-- Node3&#45;&gt;Node6 -->
<g id="edge5" class="edge">
<title>Node3&#45;&gt;Node6</title>
<path fill="none" stroke="midnightblue" d="M77.07,-168.44C99.06,-159.52 133.73,-145.44 158.66,-135.32"/>
<polygon fill="midnightblue" stroke="midnightblue" points="160.08,-138.52 168.02,-131.52 157.44,-132.04 160.08,-138.52"/>
</g>
<!-- Node5 -->
<g id="node5" class="node">
<title>Node5</title>
<g id="a_node5"><a xlink:title=" ">
<polygon fill="none" stroke="#bfbfbf" points="104.5,-0.5 104.5,-19.5 163.5,-19.5 163.5,-0.5 104.5,-0.5"/>
<text text-anchor="middle" x="134" y="-7.5" font-family="Helvetica,sans-Serif" font-size="10.00">QtGlobal</text>
</a>
</g>
</g>
<!-- Node4&#45;&gt;Node5 -->
<g id="edge4" class="edge">
<title>Node4&#45;&gt;Node5</title>
<path fill="none" stroke="midnightblue" d="M134,-56.08C134,-49.01 134,-38.86 134,-29.99"/>
<polygon fill="midnightblue" stroke="midnightblue" points="137.5,-29.75 134,-19.75 130.5,-29.75 137.5,-29.75"/>
</g>
<!-- Node6&#45;&gt;Node4 -->
<g id="edge6" class="edge">
<title>Node6&#45;&gt;Node4</title>
<path fill="none" stroke="midnightblue" d="M179.92,-112.08C171.83,-104.14 159.8,-92.34 150.09,-82.8"/>
<polygon fill="midnightblue" stroke="midnightblue" points="152.5,-80.26 142.91,-75.75 147.6,-85.25 152.5,-80.26"/>
</g>
<!-- Node6&#45;&gt;Node7 -->
<g id="edge7" class="edge">
<title>Node6&#45;&gt;Node7</title>
<path fill="none" stroke="midnightblue" d="M200.73,-112.32C211.84,-104.11 228.74,-91.6 241.98,-81.81"/>
<polygon fill="midnightblue" stroke="midnightblue" points="244.1,-84.59 250.06,-75.83 239.94,-78.97 244.1,-84.59"/>
</g>
<!-- Node9 -->
<g id="node9" class="node">
<title>Node9</title>
<g id="a_node9"><a xlink:href="fitdatamessage__p_8h.html" target="_top" xlink:title=" ">
<polygon fill="none" stroke="black" points="138.5,-224.5 138.5,-243.5 251.5,-243.5 251.5,-224.5 138.5,-224.5"/>
<text text-anchor="middle" x="195" y="-231.5" font-family="Helvetica,sans-Serif" font-size="10.00">fitdatamessage_p.h</text>
</a>
</g>
</g>
<!-- Node8&#45;&gt;Node9 -->
<g id="edge9" class="edge">
<title>Node8&#45;&gt;Node9</title>
<path fill="none" stroke="midnightblue" d="M205.85,-280.08C204.13,-272.93 201.65,-262.64 199.5,-253.69"/>
<polygon fill="midnightblue" stroke="midnightblue" points="202.85,-252.65 197.11,-243.75 196.04,-254.29 202.85,-252.65"/>
</g>
<!-- Node9&#45;&gt;Node4 -->
<g id="edge10" class="edge">
<title>Node9&#45;&gt;Node4</title>
<path fill="none" stroke="midnightblue" d="M191.08,-224.48C183.24,-207.24 165.32,-166.92 153,-132 147.5,-116.41 142.31,-98.33 138.75,-85.21"/>
<polygon fill="midnightblue" stroke="midnightblue" points="142.12,-84.27 136.17,-75.51 135.36,-86.07 142.12,-84.27"/>
</g>
<!-- Node9&#45;&gt;Node6 -->
<g id="edge11" class="edge">
<title>Node9&#45;&gt;Node6</title>
<path fill="none" stroke="midnightblue" d="M194.53,-224.37C193.56,-206.62 191.33,-165.67 190.01,-141.6"/>
<polygon fill="midnightblue" stroke="midnightblue" points="193.51,-141.39 189.47,-131.59 186.52,-141.77 193.51,-141.39"/>
</g>
<!-- Node10 -->
<g id="node10" class="node">
<title>Node10</title>
<g id="a_node10"><a xlink:href="types__p_8h.html" target="_top" xlink:title=" ">
<polygon fill="none" stroke="black" points="211,-168.5 211,-187.5 275,-187.5 275,-168.5 211,-168.5"/>
<text text-anchor="middle" x="243" y="-175.5" font-family="Helvetica,sans-Serif" font-size="10.00">types_p.h</text>
</a>
</g>
</g>
<!-- Node9&#45;&gt;Node10 -->
<g id="edge12" class="edge">
<title>Node9&#45;&gt;Node10</title>
<path fill="none" stroke="midnightblue" d="M202.93,-224.08C209.85,-216.3 220.07,-204.8 228.45,-195.37"/>
<polygon fill="midnightblue" stroke="midnightblue" points="231.19,-197.55 235.22,-187.75 225.96,-192.9 231.19,-197.55"/>
</g>
<!-- Node10&#45;&gt;Node6 -->
<g id="edge13" class="edge">
<title>Node10&#45;&gt;Node6</title>
<path fill="none" stroke="midnightblue" d="M234.08,-168.08C226.22,-160.22 214.57,-148.57 205.08,-139.08"/>
<polygon fill="midnightblue" stroke="midnightblue" points="207.3,-136.35 197.75,-131.75 202.35,-141.3 207.3,-136.35"/>
</g>
<!-- Node11 -->
<g id="node11" class="node">
<title>Node11</title>
<g id="a_node11"><a xlink:title=" ">
<polygon fill="none" stroke="#bfbfbf" points="233.5,-112.5 233.5,-131.5 274.5,-131.5 274.5,-112.5 233.5,-112.5"/>
<text text-anchor="middle" x="254" y="-119.5" font-family="Helvetica,sans-Serif" font-size="10.00">QList</text>
</a>
</g>
</g>
<!-- Node10&#45;&gt;Node11 -->
<g id="edge14" class="edge">
<title>Node10&#45;&gt;Node11</title>
<path fill="none" stroke="midnightblue" d="M244.82,-168.08C246.27,-160.93 248.37,-150.64 250.19,-141.69"/>
<polygon fill="midnightblue" stroke="midnightblue" points="253.65,-142.25 252.22,-131.75 246.79,-140.85 253.65,-142.25"/>
</g>
</g>
</svg>
