<?xml version="1.0" encoding="UTF-8" standalone="no"?>
<!DOCTYPE svg PUBLIC "-//W3C//DTD SVG 1.1//EN"
 "http://www.w3.org/Graphics/SVG/1.1/DTD/svg11.dtd">
<!-- Generated by graphviz version 2.43.0 (0)
 -->
<!-- Title: stresslevelmessage.cpp Pages: 1 -->
<svg width="353pt" height="364pt"
 viewBox="0.00 0.00 353.00 364.00" xmlns="http://www.w3.org/2000/svg" xmlns:xlink="http://www.w3.org/1999/xlink">
<g id="graph0" class="graph" transform="scale(1 1) rotate(0) translate(4 360)">
<title>stresslevelmessage.cpp</title>
<!-- Node1 -->
<g id="node1" class="node">
<title>Node1</title>
<g id="a_node1"><a xlink:title=" ">
<polygon fill="#bfbfbf" stroke="black" points="142.5,-336.5 142.5,-355.5 276.5,-355.5 276.5,-336.5 142.5,-336.5"/>
<text text-anchor="middle" x="209.5" y="-343.5" font-family="Helvetica,sans-Serif" font-size="10.00">stresslevelmessage.cpp</text>
</a>
</g>
</g>
<!-- Node2 -->
<g id="node2" class="node">
<title>Node2</title>
<g id="a_node2"><a xlink:href="stresslevelmessage_8h.html" target="_top" xlink:title=" ">
<polygon fill="none" stroke="black" points="132,-224.5 132,-243.5 255,-243.5 255,-224.5 132,-224.5"/>
<text text-anchor="middle" x="193.5" y="-231.5" font-family="Helvetica,sans-Serif" font-size="10.00">stresslevelmessage.h</text>
</a>
</g>
</g>
<!-- Node1&#45;&gt;Node2 -->
<g id="edge1" class="edge">
<title>Node1&#45;&gt;Node2</title>
<path fill="none" stroke="midnightblue" d="M207.54,-336.41C205.54,-327.39 202.46,-312.76 200.5,-300 198.13,-284.56 196.28,-266.92 195.08,-253.92"/>
<polygon fill="midnightblue" stroke="midnightblue" points="198.56,-253.52 194.2,-243.86 191.59,-254.13 198.56,-253.52"/>
</g>
<!-- Node7 -->
<g id="node7" class="node">
<title>Node7</title>
<g id="a_node7"><a xlink:href="stresslevelmessage__p_8h.html" target="_top" xlink:title=" ">
<polygon fill="none" stroke="black" points="9.5,-280.5 9.5,-299.5 143.5,-299.5 143.5,-280.5 9.5,-280.5"/>
<text text-anchor="middle" x="76.5" y="-287.5" font-family="Helvetica,sans-Serif" font-size="10.00">stresslevelmessage_p.h</text>
</a>
</g>
</g>
<!-- Node1&#45;&gt;Node7 -->
<g id="edge7" class="edge">
<title>Node1&#45;&gt;Node7</title>
<path fill="none" stroke="midnightblue" d="M188.43,-336.44C166.44,-327.52 131.77,-313.44 106.84,-303.32"/>
<polygon fill="midnightblue" stroke="midnightblue" points="108.06,-300.04 97.48,-299.52 105.42,-306.52 108.06,-300.04"/>
</g>
<!-- Node11 -->
<g id="node11" class="node">
<title>Node11</title>
<g id="a_node11"><a xlink:title=" ">
<polygon fill="none" stroke="#bfbfbf" points="209.5,-280.5 209.5,-299.5 265.5,-299.5 265.5,-280.5 209.5,-280.5"/>
<text text-anchor="middle" x="237.5" y="-287.5" font-family="Helvetica,sans-Serif" font-size="10.00">QDebug</text>
</a>
</g>
</g>
<!-- Node1&#45;&gt;Node11 -->
<g id="edge14" class="edge">
<title>Node1&#45;&gt;Node11</title>
<path fill="none" stroke="midnightblue" d="M214.12,-336.08C217.96,-328.69 223.52,-317.95 228.26,-308.81"/>
<polygon fill="midnightblue" stroke="midnightblue" points="231.47,-310.24 232.96,-299.75 225.25,-307.02 231.47,-310.24"/>
</g>
<!-- Node12 -->
<g id="node12" class="node">
<title>Node12</title>
<g id="a_node12"><a xlink:title=" ">
<polygon fill="none" stroke="#bfbfbf" points="284,-280.5 284,-299.5 345,-299.5 345,-280.5 284,-280.5"/>
<text text-anchor="middle" x="314.5" y="-287.5" font-family="Helvetica,sans-Serif" font-size="10.00">QtEndian</text>
</a>
</g>
</g>
<!-- Node1&#45;&gt;Node12 -->
<g id="edge15" class="edge">
<title>Node1&#45;&gt;Node12</title>
<path fill="none" stroke="midnightblue" d="M226.37,-336.32C243.21,-327.66 269.31,-314.24 288.74,-304.25"/>
<polygon fill="midnightblue" stroke="midnightblue" points="290.38,-307.34 297.67,-299.65 287.18,-301.12 290.38,-307.34"/>
</g>
<!-- Node3 -->
<g id="node3" class="node">
<title>Node3</title>
<g id="a_node3"><a xlink:href="fitdatamessage_8h.html" target="_top" xlink:title=" ">
<polygon fill="none" stroke="black" points="144,-168.5 144,-187.5 245,-187.5 245,-168.5 144,-168.5"/>
<text text-anchor="middle" x="194.5" y="-175.5" font-family="Helvetica,sans-Serif" font-size="10.00">fitdatamessage.h</text>
</a>
</g>
</g>
<!-- Node2&#45;&gt;Node3 -->
<g id="edge2" class="edge">
<title>Node2&#45;&gt;Node3</title>
<path fill="none" stroke="midnightblue" d="M193.67,-224.08C193.8,-217.01 193.98,-206.86 194.15,-197.99"/>
<polygon fill="midnightblue" stroke="midnightblue" points="197.65,-197.81 194.34,-187.75 190.65,-197.68 197.65,-197.81"/>
</g>
<!-- Node4 -->
<g id="node4" class="node">
<title>Node4</title>
<g id="a_node4"><a xlink:href="QtFit__global_8h.html" target="_top" xlink:title=" ">
<polygon fill="none" stroke="black" points="75.5,-56.5 75.5,-75.5 159.5,-75.5 159.5,-56.5 75.5,-56.5"/>
<text text-anchor="middle" x="117.5" y="-63.5" font-family="Helvetica,sans-Serif" font-size="10.00">QtFit_global.h</text>
</a>
</g>
</g>
<!-- Node3&#45;&gt;Node4 -->
<g id="edge3" class="edge">
<title>Node3&#45;&gt;Node4</title>
<path fill="none" stroke="midnightblue" d="M189.49,-168.39C182.04,-155.75 167.43,-131.56 153.5,-112 146.61,-102.32 138.36,-91.94 131.51,-83.59"/>
<polygon fill="midnightblue" stroke="midnightblue" points="134.06,-81.19 124.97,-75.74 128.68,-85.66 134.06,-81.19"/>
</g>
<!-- Node6 -->
<g id="node6" class="node">
<title>Node6</title>
<g id="a_node6"><a xlink:href="types_8h.html" target="_top" xlink:title="Types defined by the ANT+ FIT SDK.">
<polygon fill="none" stroke="black" points="91,-112.5 91,-131.5 144,-131.5 144,-112.5 91,-112.5"/>
<text text-anchor="middle" x="117.5" y="-119.5" font-family="Helvetica,sans-Serif" font-size="10.00">types.h</text>
</a>
</g>
</g>
<!-- Node3&#45;&gt;Node6 -->
<g id="edge5" class="edge">
<title>Node3&#45;&gt;Node6</title>
<path fill="none" stroke="midnightblue" d="M182.13,-168.32C170.34,-160.06 152.37,-147.45 138.36,-137.63"/>
<polygon fill="midnightblue" stroke="midnightblue" points="140.04,-134.53 129.84,-131.65 136.02,-140.26 140.04,-134.53"/>
</g>
<!-- Node5 -->
<g id="node5" class="node">
<title>Node5</title>
<g id="a_node5"><a xlink:title=" ">
<polygon fill="none" stroke="#bfbfbf" points="88,-0.5 88,-19.5 147,-19.5 147,-0.5 88,-0.5"/>
<text text-anchor="middle" x="117.5" y="-7.5" font-family="Helvetica,sans-Serif" font-size="10.00">QtGlobal</text>
</a>
</g>
</g>
<!-- Node4&#45;&gt;Node5 -->
<g id="edge4" class="edge">
<title>Node4&#45;&gt;Node5</title>
<path fill="none" stroke="midnightblue" d="M117.5,-56.08C117.5,-49.01 117.5,-38.86 117.5,-29.99"/>
<polygon fill="midnightblue" stroke="midnightblue" points="121,-29.75 117.5,-19.75 114,-29.75 121,-29.75"/>
</g>
<!-- Node6&#45;&gt;Node4 -->
<g id="edge6" class="edge">
<title>Node6&#45;&gt;Node4</title>
<path fill="none" stroke="midnightblue" d="M117.5,-112.08C117.5,-105.01 117.5,-94.86 117.5,-85.99"/>
<polygon fill="midnightblue" stroke="midnightblue" points="121,-85.75 117.5,-75.75 114,-85.75 121,-85.75"/>
</g>
<!-- Node8 -->
<g id="node8" class="node">
<title>Node8</title>
<g id="a_node8"><a xlink:href="fitdatamessage__p_8h.html" target="_top" xlink:title=" ">
<polygon fill="none" stroke="black" points="0,-224.5 0,-243.5 113,-243.5 113,-224.5 0,-224.5"/>
<text text-anchor="middle" x="56.5" y="-231.5" font-family="Helvetica,sans-Serif" font-size="10.00">fitdatamessage_p.h</text>
</a>
</g>
</g>
<!-- Node7&#45;&gt;Node8 -->
<g id="edge8" class="edge">
<title>Node7&#45;&gt;Node8</title>
<path fill="none" stroke="midnightblue" d="M73.2,-280.08C70.52,-272.85 66.65,-262.41 63.31,-253.4"/>
<polygon fill="midnightblue" stroke="midnightblue" points="66.5,-251.91 59.74,-243.75 59.93,-254.34 66.5,-251.91"/>
</g>
<!-- Node8&#45;&gt;Node4 -->
<g id="edge9" class="edge">
<title>Node8&#45;&gt;Node4</title>
<path fill="none" stroke="midnightblue" d="M44.29,-224.24C34.15,-216.14 20.46,-203.11 14.5,-188 7.3,-169.74 14.07,-123.44 22.5,-112 34.1,-96.26 52.64,-85.81 70.27,-78.98"/>
<polygon fill="midnightblue" stroke="midnightblue" points="71.67,-82.2 79.92,-75.55 69.32,-75.6 71.67,-82.2"/>
</g>
<!-- Node8&#45;&gt;Node6 -->
<g id="edge10" class="edge">
<title>Node8&#45;&gt;Node6</title>
<path fill="none" stroke="midnightblue" d="M66.34,-224.24C75.32,-215.77 88.4,-202.15 96.5,-188 104.78,-173.52 110.3,-155.34 113.59,-141.89"/>
<polygon fill="midnightblue" stroke="midnightblue" points="117.06,-142.41 115.85,-131.89 110.23,-140.87 117.06,-142.41"/>
</g>
<!-- Node9 -->
<g id="node9" class="node">
<title>Node9</title>
<g id="a_node9"><a xlink:href="types__p_8h.html" target="_top" xlink:title=" ">
<polygon fill="none" stroke="black" points="23.5,-168.5 23.5,-187.5 87.5,-187.5 87.5,-168.5 23.5,-168.5"/>
<text text-anchor="middle" x="55.5" y="-175.5" font-family="Helvetica,sans-Serif" font-size="10.00">types_p.h</text>
</a>
</g>
</g>
<!-- Node8&#45;&gt;Node9 -->
<g id="edge11" class="edge">
<title>Node8&#45;&gt;Node9</title>
<path fill="none" stroke="midnightblue" d="M56.33,-224.08C56.2,-217.01 56.02,-206.86 55.85,-197.99"/>
<polygon fill="midnightblue" stroke="midnightblue" points="59.35,-197.68 55.66,-187.75 52.35,-197.81 59.35,-197.68"/>
</g>
<!-- Node9&#45;&gt;Node6 -->
<g id="edge12" class="edge">
<title>Node9&#45;&gt;Node6</title>
<path fill="none" stroke="midnightblue" d="M65.46,-168.32C74.63,-160.34 88.44,-148.31 99.53,-138.65"/>
<polygon fill="midnightblue" stroke="midnightblue" points="102.12,-141.04 107.36,-131.83 97.52,-135.76 102.12,-141.04"/>
</g>
<!-- Node10 -->
<g id="node10" class="node">
<title>Node10</title>
<g id="a_node10"><a xlink:title=" ">
<polygon fill="none" stroke="#bfbfbf" points="32,-112.5 32,-131.5 73,-131.5 73,-112.5 32,-112.5"/>
<text text-anchor="middle" x="52.5" y="-119.5" font-family="Helvetica,sans-Serif" font-size="10.00">QList</text>
</a>
</g>
</g>
<!-- Node9&#45;&gt;Node10 -->
<g id="edge13" class="edge">
<title>Node9&#45;&gt;Node10</title>
<path fill="none" stroke="midnightblue" d="M55,-168.08C54.61,-161.01 54.05,-150.86 53.55,-141.99"/>
<polygon fill="midnightblue" stroke="midnightblue" points="57.04,-141.54 52.99,-131.75 50.05,-141.93 57.04,-141.54"/>
</g>
</g>
</svg>
