<?xml version="1.0" encoding="UTF-8" standalone="no"?>
<!DOCTYPE svg PUBLIC "-//W3C//DTD SVG 1.1//EN"
 "http://www.w3.org/Graphics/SVG/1.1/DTD/svg11.dtd">
<!-- Generated by graphviz version 2.43.0 (0)
 -->
<!-- Title: stresslevelmessage.cpp Pages: 1 -->
<svg width="284pt" height="364pt"
 viewBox="0.00 0.00 283.50 364.00" xmlns="http://www.w3.org/2000/svg" xmlns:xlink="http://www.w3.org/1999/xlink">
<g id="graph0" class="graph" transform="scale(1 1) rotate(0) translate(4 360)">
<title>stresslevelmessage.cpp</title>
<!-- Node1 -->
<g id="node1" class="node">
<title>Node1</title>
<g id="a_node1"><a xlink:title=" ">
<polygon fill="#bfbfbf" stroke="black" points="73,-336.5 73,-355.5 207,-355.5 207,-336.5 73,-336.5"/>
<text text-anchor="middle" x="140" y="-343.5" font-family="Helvetica,sans-Serif" font-size="10.00">stresslevelmessage.cpp</text>
</a>
</g>
</g>
<!-- Node2 -->
<g id="node2" class="node">
<title>Node2</title>
<g id="a_node2"><a xlink:href="stresslevelmessage_8h.html" target="_top" xlink:title=" ">
<polygon fill="none" stroke="black" points="152.5,-280.5 152.5,-299.5 275.5,-299.5 275.5,-280.5 152.5,-280.5"/>
<text text-anchor="middle" x="214" y="-287.5" font-family="Helvetica,sans-Serif" font-size="10.00">stresslevelmessage.h</text>
</a>
</g>
</g>
<!-- Node1&#45;&gt;Node2 -->
<g id="edge1" class="edge">
<title>Node1&#45;&gt;Node2</title>
<path fill="none" stroke="midnightblue" d="M151.89,-336.32C163.15,-328.11 180.29,-315.6 193.71,-305.81"/>
<polygon fill="midnightblue" stroke="midnightblue" points="195.88,-308.56 201.89,-299.83 191.75,-302.9 195.88,-308.56"/>
</g>
<!-- Node7 -->
<g id="node7" class="node">
<title>Node7</title>
<g id="a_node7"><a xlink:href="stresslevelmessage__p_8h.html" target="_top" xlink:title=" ">
<polygon fill="none" stroke="black" points="0,-280.5 0,-299.5 134,-299.5 134,-280.5 0,-280.5"/>
<text text-anchor="middle" x="67" y="-287.5" font-family="Helvetica,sans-Serif" font-size="10.00">stresslevelmessage_p.h</text>
</a>
</g>
</g>
<!-- Node1&#45;&gt;Node7 -->
<g id="edge7" class="edge">
<title>Node1&#45;&gt;Node7</title>
<path fill="none" stroke="midnightblue" d="M128.27,-336.32C117.16,-328.11 100.26,-315.6 87.02,-305.81"/>
<polygon fill="midnightblue" stroke="midnightblue" points="89.06,-302.97 78.94,-299.83 84.9,-308.59 89.06,-302.97"/>
</g>
<!-- Node3 -->
<g id="node3" class="node">
<title>Node3</title>
<g id="a_node3"><a xlink:href="fitdatamessage_8h.html" target="_top" xlink:title=" ">
<polygon fill="none" stroke="black" points="161.5,-168.5 161.5,-187.5 262.5,-187.5 262.5,-168.5 161.5,-168.5"/>
<text text-anchor="middle" x="212" y="-175.5" font-family="Helvetica,sans-Serif" font-size="10.00">fitdatamessage.h</text>
</a>
</g>
</g>
<!-- Node2&#45;&gt;Node3 -->
<g id="edge2" class="edge">
<title>Node2&#45;&gt;Node3</title>
<path fill="none" stroke="midnightblue" d="M213.84,-280.37C213.52,-262.62 212.78,-221.67 212.34,-197.6"/>
<polygon fill="midnightblue" stroke="midnightblue" points="215.84,-197.53 212.16,-187.59 208.84,-197.65 215.84,-197.53"/>
</g>
<!-- Node4 -->
<g id="node4" class="node">
<title>Node4</title>
<g id="a_node4"><a xlink:href="QtFit__global_8h.html" target="_top" xlink:title=" ">
<polygon fill="none" stroke="black" points="93,-56.5 93,-75.5 177,-75.5 177,-56.5 93,-56.5"/>
<text text-anchor="middle" x="135" y="-63.5" font-family="Helvetica,sans-Serif" font-size="10.00">QtFit_global.h</text>
</a>
</g>
</g>
<!-- Node3&#45;&gt;Node4 -->
<g id="edge3" class="edge">
<title>Node3&#45;&gt;Node4</title>
<path fill="none" stroke="midnightblue" d="M206.99,-168.39C199.54,-155.75 184.93,-131.56 171,-112 164.11,-102.32 155.86,-91.94 149.01,-83.59"/>
<polygon fill="midnightblue" stroke="midnightblue" points="151.56,-81.19 142.47,-75.74 146.18,-85.66 151.56,-81.19"/>
</g>
<!-- Node6 -->
<g id="node6" class="node">
<title>Node6</title>
<g id="a_node6"><a xlink:href="types_8h.html" target="_top" xlink:title="Types defined by the ANT+ FIT SDK.">
<polygon fill="none" stroke="black" points="108.5,-112.5 108.5,-131.5 161.5,-131.5 161.5,-112.5 108.5,-112.5"/>
<text text-anchor="middle" x="135" y="-119.5" font-family="Helvetica,sans-Serif" font-size="10.00">types.h</text>
</a>
</g>
</g>
<!-- Node3&#45;&gt;Node6 -->
<g id="edge5" class="edge">
<title>Node3&#45;&gt;Node6</title>
<path fill="none" stroke="midnightblue" d="M199.63,-168.32C187.84,-160.06 169.87,-147.45 155.86,-137.63"/>
<polygon fill="midnightblue" stroke="midnightblue" points="157.54,-134.53 147.34,-131.65 153.52,-140.26 157.54,-134.53"/>
</g>
<!-- Node5 -->
<g id="node5" class="node">
<title>Node5</title>
<g id="a_node5"><a xlink:title=" ">
<polygon fill="none" stroke="#bfbfbf" points="105.5,-0.5 105.5,-19.5 164.5,-19.5 164.5,-0.5 105.5,-0.5"/>
<text text-anchor="middle" x="135" y="-7.5" font-family="Helvetica,sans-Serif" font-size="10.00">QtGlobal</text>
</a>
</g>
</g>
<!-- Node4&#45;&gt;Node5 -->
<g id="edge4" class="edge">
<title>Node4&#45;&gt;Node5</title>
<path fill="none" stroke="midnightblue" d="M135,-56.08C135,-49.01 135,-38.86 135,-29.99"/>
<polygon fill="midnightblue" stroke="midnightblue" points="138.5,-29.75 135,-19.75 131.5,-29.75 138.5,-29.75"/>
</g>
<!-- Node6&#45;&gt;Node4 -->
<g id="edge6" class="edge">
<title>Node6&#45;&gt;Node4</title>
<path fill="none" stroke="midnightblue" d="M135,-112.08C135,-105.01 135,-94.86 135,-85.99"/>
<polygon fill="midnightblue" stroke="midnightblue" points="138.5,-85.75 135,-75.75 131.5,-85.75 138.5,-85.75"/>
</g>
<!-- Node8 -->
<g id="node8" class="node">
<title>Node8</title>
<g id="a_node8"><a xlink:href="fitdatamessage__p_8h.html" target="_top" xlink:title=" ">
<polygon fill="none" stroke="black" points="14.5,-224.5 14.5,-243.5 127.5,-243.5 127.5,-224.5 14.5,-224.5"/>
<text text-anchor="middle" x="71" y="-231.5" font-family="Helvetica,sans-Serif" font-size="10.00">fitdatamessage_p.h</text>
</a>
</g>
</g>
<!-- Node7&#45;&gt;Node8 -->
<g id="edge8" class="edge">
<title>Node7&#45;&gt;Node8</title>
<path fill="none" stroke="midnightblue" d="M67.66,-280.08C68.18,-273.01 68.94,-262.86 69.59,-253.99"/>
<polygon fill="midnightblue" stroke="midnightblue" points="73.1,-253.98 70.35,-243.75 66.12,-253.47 73.1,-253.98"/>
</g>
<!-- Node8&#45;&gt;Node4 -->
<g id="edge9" class="edge">
<title>Node8&#45;&gt;Node4</title>
<path fill="none" stroke="midnightblue" d="M60.01,-224.37C50.55,-216.17 37.56,-202.92 32,-188 25.06,-169.4 32.3,-122.45 40,-112 51.6,-96.26 70.14,-85.81 87.77,-78.98"/>
<polygon fill="midnightblue" stroke="midnightblue" points="89.17,-82.2 97.42,-75.55 86.82,-75.6 89.17,-82.2"/>
</g>
<!-- Node8&#45;&gt;Node6 -->
<g id="edge10" class="edge">
<title>Node8&#45;&gt;Node6</title>
<path fill="none" stroke="midnightblue" d="M81.61,-224.39C91.29,-216.02 105.37,-202.48 114,-188 122.63,-173.52 128.16,-155.07 131.36,-141.53"/>
<polygon fill="midnightblue" stroke="midnightblue" points="134.83,-142.02 133.52,-131.51 127.99,-140.54 134.83,-142.02"/>
</g>
<!-- Node9 -->
<g id="node9" class="node">
<title>Node9</title>
<g id="a_node9"><a xlink:href="types__p_8h.html" target="_top" xlink:title=" ">
<polygon fill="none" stroke="black" points="41,-168.5 41,-187.5 105,-187.5 105,-168.5 41,-168.5"/>
<text text-anchor="middle" x="73" y="-175.5" font-family="Helvetica,sans-Serif" font-size="10.00">types_p.h</text>
</a>
</g>
</g>
<!-- Node8&#45;&gt;Node9 -->
<g id="edge11" class="edge">
<title>Node8&#45;&gt;Node9</title>
<path fill="none" stroke="midnightblue" d="M71.33,-224.08C71.59,-217.01 71.97,-206.86 72.3,-197.99"/>
<polygon fill="midnightblue" stroke="midnightblue" points="75.8,-197.87 72.68,-187.75 68.81,-197.61 75.8,-197.87"/>
</g>
<!-- Node9&#45;&gt;Node6 -->
<g id="edge12" class="edge">
<title>Node9&#45;&gt;Node6</title>
<path fill="none" stroke="midnightblue" d="M82.96,-168.32C92.13,-160.34 105.94,-148.31 117.03,-138.65"/>
<polygon fill="midnightblue" stroke="midnightblue" points="119.62,-141.04 124.86,-131.83 115.02,-135.76 119.62,-141.04"/>
</g>
<!-- Node10 -->
<g id="node10" class="node">
<title>Node10</title>
<g id="a_node10"><a xlink:title=" ">
<polygon fill="none" stroke="#bfbfbf" points="49.5,-112.5 49.5,-131.5 90.5,-131.5 90.5,-112.5 49.5,-112.5"/>
<text text-anchor="middle" x="70" y="-119.5" font-family="Helvetica,sans-Serif" font-size="10.00">QList</text>
</a>
</g>
</g>
<!-- Node9&#45;&gt;Node10 -->
<g id="edge13" class="edge">
<title>Node9&#45;&gt;Node10</title>
<path fill="none" stroke="midnightblue" d="M72.5,-168.08C72.11,-161.01 71.55,-150.86 71.05,-141.99"/>
<polygon fill="midnightblue" stroke="midnightblue" points="74.54,-141.54 70.49,-131.75 67.55,-141.93 74.54,-141.54"/>
</g>
</g>
</svg>
