<?xml version="1.0" encoding="UTF-8" standalone="no"?>
<!DOCTYPE svg PUBLIC "-//W3C//DTD SVG 1.1//EN"
 "http://www.w3.org/Graphics/SVG/1.1/DTD/svg11.dtd">
<!-- Generated by graphviz version 2.43.0 (0)
 -->
<!-- Title: threedsensorcalibrationmessage.cpp Pages: 1 -->
<svg width="408pt" height="364pt"
 viewBox="0.00 0.00 408.00 364.00" xmlns="http://www.w3.org/2000/svg" xmlns:xlink="http://www.w3.org/1999/xlink">
<g id="graph0" class="graph" transform="scale(1 1) rotate(0) translate(4 360)">
<title>threedsensorcalibrationmessage.cpp</title>
<!-- Node1 -->
<g id="node1" class="node">
<title>Node1</title>
<g id="a_node1"><a xlink:title=" ">
<polygon fill="#bfbfbf" stroke="black" points="104,-336.5 104,-355.5 301,-355.5 301,-336.5 104,-336.5"/>
<text text-anchor="middle" x="202.5" y="-343.5" font-family="Helvetica,sans-Serif" font-size="10.00">threedsensorcalibrationmessage.cpp</text>
</a>
</g>
</g>
<!-- Node2 -->
<g id="node2" class="node">
<title>Node2</title>
<g id="a_node2"><a xlink:href="threedsensorcalibrationmessage_8h.html" target="_top" xlink:title=" ">
<polygon fill="none" stroke="black" points="215,-280.5 215,-299.5 400,-299.5 400,-280.5 215,-280.5"/>
<text text-anchor="middle" x="307.5" y="-287.5" font-family="Helvetica,sans-Serif" font-size="10.00">threedsensorcalibrationmessage.h</text>
</a>
</g>
</g>
<!-- Node1&#45;&gt;Node2 -->
<g id="edge1" class="edge">
<title>Node1&#45;&gt;Node2</title>
<path fill="none" stroke="midnightblue" d="M219.37,-336.32C236.21,-327.66 262.31,-314.24 281.74,-304.25"/>
<polygon fill="midnightblue" stroke="midnightblue" points="283.38,-307.34 290.67,-299.65 280.18,-301.12 283.38,-307.34"/>
</g>
<!-- Node7 -->
<g id="node7" class="node">
<title>Node7</title>
<g id="a_node7"><a xlink:href="threedsensorcalibrationmessage__p_8h.html" target="_top" xlink:title=" ">
<polygon fill="none" stroke="black" points="0,-280.5 0,-299.5 197,-299.5 197,-280.5 0,-280.5"/>
<text text-anchor="middle" x="98.5" y="-287.5" font-family="Helvetica,sans-Serif" font-size="10.00">threedsensorcalibrationmessage_p.h</text>
</a>
</g>
</g>
<!-- Node1&#45;&gt;Node7 -->
<g id="edge7" class="edge">
<title>Node1&#45;&gt;Node7</title>
<path fill="none" stroke="midnightblue" d="M185.79,-336.32C169.19,-327.7 143.5,-314.36 124.28,-304.39"/>
<polygon fill="midnightblue" stroke="midnightblue" points="125.66,-301.16 115.17,-299.65 122.43,-307.37 125.66,-301.16"/>
</g>
<!-- Node3 -->
<g id="node3" class="node">
<title>Node3</title>
<g id="a_node3"><a xlink:href="fitdatamessage_8h.html" target="_top" xlink:title=" ">
<polygon fill="none" stroke="black" points="239,-168.5 239,-187.5 340,-187.5 340,-168.5 239,-168.5"/>
<text text-anchor="middle" x="289.5" y="-175.5" font-family="Helvetica,sans-Serif" font-size="10.00">fitdatamessage.h</text>
</a>
</g>
</g>
<!-- Node2&#45;&gt;Node3 -->
<g id="edge2" class="edge">
<title>Node2&#45;&gt;Node3</title>
<path fill="none" stroke="midnightblue" d="M306.09,-280.37C303.18,-262.62 296.48,-221.67 292.54,-197.6"/>
<polygon fill="midnightblue" stroke="midnightblue" points="295.97,-196.89 290.91,-187.59 289.07,-198.03 295.97,-196.89"/>
</g>
<!-- Node4 -->
<g id="node4" class="node">
<title>Node4</title>
<g id="a_node4"><a xlink:href="QtFit__global_8h.html" target="_top" xlink:title=" ">
<polygon fill="none" stroke="black" points="170.5,-56.5 170.5,-75.5 254.5,-75.5 254.5,-56.5 170.5,-56.5"/>
<text text-anchor="middle" x="212.5" y="-63.5" font-family="Helvetica,sans-Serif" font-size="10.00">QtFit_global.h</text>
</a>
</g>
</g>
<!-- Node3&#45;&gt;Node4 -->
<g id="edge3" class="edge">
<title>Node3&#45;&gt;Node4</title>
<path fill="none" stroke="midnightblue" d="M284.49,-168.39C277.04,-155.75 262.43,-131.56 248.5,-112 241.61,-102.32 233.36,-91.94 226.51,-83.59"/>
<polygon fill="midnightblue" stroke="midnightblue" points="229.06,-81.19 219.97,-75.74 223.68,-85.66 229.06,-81.19"/>
</g>
<!-- Node6 -->
<g id="node6" class="node">
<title>Node6</title>
<g id="a_node6"><a xlink:href="types_8h.html" target="_top" xlink:title="Types defined by the ANT+ FIT SDK.">
<polygon fill="none" stroke="black" points="186,-112.5 186,-131.5 239,-131.5 239,-112.5 186,-112.5"/>
<text text-anchor="middle" x="212.5" y="-119.5" font-family="Helvetica,sans-Serif" font-size="10.00">types.h</text>
</a>
</g>
</g>
<!-- Node3&#45;&gt;Node6 -->
<g id="edge5" class="edge">
<title>Node3&#45;&gt;Node6</title>
<path fill="none" stroke="midnightblue" d="M277.13,-168.32C265.34,-160.06 247.37,-147.45 233.36,-137.63"/>
<polygon fill="midnightblue" stroke="midnightblue" points="235.04,-134.53 224.84,-131.65 231.02,-140.26 235.04,-134.53"/>
</g>
<!-- Node5 -->
<g id="node5" class="node">
<title>Node5</title>
<g id="a_node5"><a xlink:title=" ">
<polygon fill="none" stroke="#bfbfbf" points="183,-0.5 183,-19.5 242,-19.5 242,-0.5 183,-0.5"/>
<text text-anchor="middle" x="212.5" y="-7.5" font-family="Helvetica,sans-Serif" font-size="10.00">QtGlobal</text>
</a>
</g>
</g>
<!-- Node4&#45;&gt;Node5 -->
<g id="edge4" class="edge">
<title>Node4&#45;&gt;Node5</title>
<path fill="none" stroke="midnightblue" d="M212.5,-56.08C212.5,-49.01 212.5,-38.86 212.5,-29.99"/>
<polygon fill="midnightblue" stroke="midnightblue" points="216,-29.75 212.5,-19.75 209,-29.75 216,-29.75"/>
</g>
<!-- Node6&#45;&gt;Node4 -->
<g id="edge6" class="edge">
<title>Node6&#45;&gt;Node4</title>
<path fill="none" stroke="midnightblue" d="M212.5,-112.08C212.5,-105.01 212.5,-94.86 212.5,-85.99"/>
<polygon fill="midnightblue" stroke="midnightblue" points="216,-85.75 212.5,-75.75 209,-85.75 216,-85.75"/>
</g>
<!-- Node8 -->
<g id="node8" class="node">
<title>Node8</title>
<g id="a_node8"><a xlink:href="fitdatamessage__p_8h.html" target="_top" xlink:title=" ">
<polygon fill="none" stroke="black" points="77,-224.5 77,-243.5 190,-243.5 190,-224.5 77,-224.5"/>
<text text-anchor="middle" x="133.5" y="-231.5" font-family="Helvetica,sans-Serif" font-size="10.00">fitdatamessage_p.h</text>
</a>
</g>
</g>
<!-- Node7&#45;&gt;Node8 -->
<g id="edge8" class="edge">
<title>Node7&#45;&gt;Node8</title>
<path fill="none" stroke="midnightblue" d="M104.28,-280.08C109.17,-272.53 116.33,-261.49 122.33,-252.23"/>
<polygon fill="midnightblue" stroke="midnightblue" points="125.33,-254.05 127.83,-243.75 119.45,-250.24 125.33,-254.05"/>
</g>
<!-- Node8&#45;&gt;Node4 -->
<g id="edge9" class="edge">
<title>Node8&#45;&gt;Node4</title>
<path fill="none" stroke="midnightblue" d="M127.13,-224.23C121.24,-215.53 112.89,-201.57 109.5,-188 104.27,-167.08 114.63,-115.89 117.5,-112 129.1,-96.26 147.64,-85.81 165.27,-78.98"/>
<polygon fill="midnightblue" stroke="midnightblue" points="166.67,-82.2 174.92,-75.55 164.32,-75.6 166.67,-82.2"/>
</g>
<!-- Node8&#45;&gt;Node6 -->
<g id="edge10" class="edge">
<title>Node8&#45;&gt;Node6</title>
<path fill="none" stroke="midnightblue" d="M149.19,-224.45C162.26,-216.58 180.45,-203.75 191.5,-188 201.18,-174.2 206.59,-155.67 209.48,-141.93"/>
<polygon fill="midnightblue" stroke="midnightblue" points="212.99,-142.19 211.36,-131.72 206.11,-140.93 212.99,-142.19"/>
</g>
<!-- Node9 -->
<g id="node9" class="node">
<title>Node9</title>
<g id="a_node9"><a xlink:href="types__p_8h.html" target="_top" xlink:title=" ">
<polygon fill="none" stroke="black" points="118.5,-168.5 118.5,-187.5 182.5,-187.5 182.5,-168.5 118.5,-168.5"/>
<text text-anchor="middle" x="150.5" y="-175.5" font-family="Helvetica,sans-Serif" font-size="10.00">types_p.h</text>
</a>
</g>
</g>
<!-- Node8&#45;&gt;Node9 -->
<g id="edge11" class="edge">
<title>Node8&#45;&gt;Node9</title>
<path fill="none" stroke="midnightblue" d="M136.31,-224.08C138.58,-216.85 141.87,-206.41 144.71,-197.4"/>
<polygon fill="midnightblue" stroke="midnightblue" points="148.08,-198.34 147.75,-187.75 141.4,-196.24 148.08,-198.34"/>
</g>
<!-- Node9&#45;&gt;Node6 -->
<g id="edge12" class="edge">
<title>Node9&#45;&gt;Node6</title>
<path fill="none" stroke="midnightblue" d="M160.46,-168.32C169.63,-160.34 183.44,-148.31 194.53,-138.65"/>
<polygon fill="midnightblue" stroke="midnightblue" points="197.12,-141.04 202.36,-131.83 192.52,-135.76 197.12,-141.04"/>
</g>
<!-- Node10 -->
<g id="node10" class="node">
<title>Node10</title>
<g id="a_node10"><a xlink:title=" ">
<polygon fill="none" stroke="#bfbfbf" points="127,-112.5 127,-131.5 168,-131.5 168,-112.5 127,-112.5"/>
<text text-anchor="middle" x="147.5" y="-119.5" font-family="Helvetica,sans-Serif" font-size="10.00">QList</text>
</a>
</g>
</g>
<!-- Node9&#45;&gt;Node10 -->
<g id="edge13" class="edge">
<title>Node9&#45;&gt;Node10</title>
<path fill="none" stroke="midnightblue" d="M150,-168.08C149.61,-161.01 149.05,-150.86 148.55,-141.99"/>
<polygon fill="midnightblue" stroke="midnightblue" points="152.04,-141.54 147.99,-131.75 145.05,-141.93 152.04,-141.54"/>
</g>
</g>
</svg>
