<?xml version="1.0" encoding="UTF-8" standalone="no"?>
<!DOCTYPE svg PUBLIC "-//W3C//DTD SVG 1.1//EN"
 "http://www.w3.org/Graphics/SVG/1.1/DTD/svg11.dtd">
<!-- Generated by graphviz version 2.43.0 (0)
 -->
<!-- Title: threedsensorcalibrationmessage.cpp Pages: 1 -->
<svg width="526pt" height="364pt"
 viewBox="0.00 0.00 526.00 364.00" xmlns="http://www.w3.org/2000/svg" xmlns:xlink="http://www.w3.org/1999/xlink">
<g id="graph0" class="graph" transform="scale(1 1) rotate(0) translate(4 360)">
<title>threedsensorcalibrationmessage.cpp</title>
<!-- Node1 -->
<g id="node1" class="node">
<title>Node1</title>
<g id="a_node1"><a xlink:title=" ">
<polygon fill="#bfbfbf" stroke="black" points="266,-336.5 266,-355.5 463,-355.5 463,-336.5 266,-336.5"/>
<text text-anchor="middle" x="364.5" y="-343.5" font-family="Helvetica,sans-Serif" font-size="10.00">threedsensorcalibrationmessage.cpp</text>
</a>
</g>
</g>
<!-- Node2 -->
<g id="node2" class="node">
<title>Node2</title>
<g id="a_node2"><a xlink:href="threedsensorcalibrationmessage_8h.html" target="_top" xlink:title=" ">
<polygon fill="none" stroke="black" points="0,-280.5 0,-299.5 185,-299.5 185,-280.5 0,-280.5"/>
<text text-anchor="middle" x="92.5" y="-287.5" font-family="Helvetica,sans-Serif" font-size="10.00">threedsensorcalibrationmessage.h</text>
</a>
</g>
</g>
<!-- Node1&#45;&gt;Node2 -->
<g id="edge1" class="edge">
<title>Node1&#45;&gt;Node2</title>
<path fill="none" stroke="midnightblue" d="M321.4,-336.44C273.65,-326.96 196.64,-311.67 145.31,-301.48"/>
<polygon fill="midnightblue" stroke="midnightblue" points="145.89,-298.03 135.4,-299.52 144.52,-304.9 145.89,-298.03"/>
</g>
<!-- Node7 -->
<g id="node7" class="node">
<title>Node7</title>
<g id="a_node7"><a xlink:title=" ">
<polygon fill="none" stroke="#bfbfbf" points="359.5,-56.5 359.5,-75.5 415.5,-75.5 415.5,-56.5 359.5,-56.5"/>
<text text-anchor="middle" x="387.5" y="-63.5" font-family="Helvetica,sans-Serif" font-size="10.00">QDebug</text>
</a>
</g>
</g>
<!-- Node1&#45;&gt;Node7 -->
<g id="edge15" class="edge">
<title>Node1&#45;&gt;Node7</title>
<path fill="none" stroke="midnightblue" d="M376.11,-336.23C386.3,-327.95 400.83,-314.64 409.5,-300 424.84,-274.11 428.5,-265.1 428.5,-235 428.5,-235 428.5,-235 428.5,-177 428.5,-142.52 410.59,-105.56 398.44,-84.47"/>
<polygon fill="midnightblue" stroke="midnightblue" points="401.34,-82.49 393.2,-75.71 395.34,-86.09 401.34,-82.49"/>
</g>
<!-- Node8 -->
<g id="node8" class="node">
<title>Node8</title>
<g id="a_node8"><a xlink:href="threedsensorcalibrationmessage__p_8h.html" target="_top" xlink:title=" ">
<polygon fill="none" stroke="black" points="203,-280.5 203,-299.5 400,-299.5 400,-280.5 203,-280.5"/>
<text text-anchor="middle" x="301.5" y="-287.5" font-family="Helvetica,sans-Serif" font-size="10.00">threedsensorcalibrationmessage_p.h</text>
</a>
</g>
</g>
<!-- Node1&#45;&gt;Node8 -->
<g id="edge8" class="edge">
<title>Node1&#45;&gt;Node8</title>
<path fill="none" stroke="midnightblue" d="M354.38,-336.32C344.97,-328.26 330.76,-316.08 319.43,-306.37"/>
<polygon fill="midnightblue" stroke="midnightblue" points="321.68,-303.68 311.81,-299.83 317.12,-309 321.68,-303.68"/>
</g>
<!-- Node12 -->
<g id="node12" class="node">
<title>Node12</title>
<g id="a_node12"><a xlink:title=" ">
<polygon fill="none" stroke="#bfbfbf" points="457,-280.5 457,-299.5 518,-299.5 518,-280.5 457,-280.5"/>
<text text-anchor="middle" x="487.5" y="-287.5" font-family="Helvetica,sans-Serif" font-size="10.00">QtEndian</text>
</a>
</g>
</g>
<!-- Node1&#45;&gt;Node12 -->
<g id="edge16" class="edge">
<title>Node1&#45;&gt;Node12</title>
<path fill="none" stroke="midnightblue" d="M383.99,-336.44C404.14,-327.6 435.82,-313.69 458.83,-303.59"/>
<polygon fill="midnightblue" stroke="midnightblue" points="460.35,-306.74 468.1,-299.52 457.54,-300.33 460.35,-306.74"/>
</g>
<!-- Node3 -->
<g id="node3" class="node">
<title>Node3</title>
<g id="a_node3"><a xlink:href="fitdatamessage_8h.html" target="_top" xlink:title=" ">
<polygon fill="none" stroke="black" points="123,-168.5 123,-187.5 224,-187.5 224,-168.5 123,-168.5"/>
<text text-anchor="middle" x="173.5" y="-175.5" font-family="Helvetica,sans-Serif" font-size="10.00">fitdatamessage.h</text>
</a>
</g>
</g>
<!-- Node2&#45;&gt;Node3 -->
<g id="edge2" class="edge">
<title>Node2&#45;&gt;Node3</title>
<path fill="none" stroke="midnightblue" d="M98.86,-280.37C112.28,-262.14 143.73,-219.43 161.22,-195.68"/>
<polygon fill="midnightblue" stroke="midnightblue" points="164.06,-197.72 167.17,-187.59 158.43,-193.57 164.06,-197.72"/>
</g>
<!-- Node4 -->
<g id="node4" class="node">
<title>Node4</title>
<g id="a_node4"><a xlink:href="QtFit__global_8h.html" target="_top" xlink:title=" ">
<polygon fill="none" stroke="black" points="210.5,-56.5 210.5,-75.5 294.5,-75.5 294.5,-56.5 210.5,-56.5"/>
<text text-anchor="middle" x="252.5" y="-63.5" font-family="Helvetica,sans-Serif" font-size="10.00">QtFit_global.h</text>
</a>
</g>
</g>
<!-- Node3&#45;&gt;Node4 -->
<g id="edge3" class="edge">
<title>Node3&#45;&gt;Node4</title>
<path fill="none" stroke="midnightblue" d="M179.7,-168.37C192.74,-150.22 223.2,-107.8 240.3,-83.99"/>
<polygon fill="midnightblue" stroke="midnightblue" points="243.34,-85.76 246.33,-75.59 237.65,-81.67 243.34,-85.76"/>
</g>
<!-- Node6 -->
<g id="node6" class="node">
<title>Node6</title>
<g id="a_node6"><a xlink:href="types_8h.html" target="_top" xlink:title="Types defined by the ANT+ FIT SDK.">
<polygon fill="none" stroke="black" points="281,-112.5 281,-131.5 334,-131.5 334,-112.5 281,-112.5"/>
<text text-anchor="middle" x="307.5" y="-119.5" font-family="Helvetica,sans-Serif" font-size="10.00">types.h</text>
</a>
</g>
</g>
<!-- Node3&#45;&gt;Node6 -->
<g id="edge5" class="edge">
<title>Node3&#45;&gt;Node6</title>
<path fill="none" stroke="midnightblue" d="M194.73,-168.44C216.88,-159.52 251.82,-145.44 276.94,-135.32"/>
<polygon fill="midnightblue" stroke="midnightblue" points="278.4,-138.5 286.37,-131.52 275.78,-132.01 278.4,-138.5"/>
</g>
<!-- Node5 -->
<g id="node5" class="node">
<title>Node5</title>
<g id="a_node5"><a xlink:title=" ">
<polygon fill="none" stroke="#bfbfbf" points="223,-0.5 223,-19.5 282,-19.5 282,-0.5 223,-0.5"/>
<text text-anchor="middle" x="252.5" y="-7.5" font-family="Helvetica,sans-Serif" font-size="10.00">QtGlobal</text>
</a>
</g>
</g>
<!-- Node4&#45;&gt;Node5 -->
<g id="edge4" class="edge">
<title>Node4&#45;&gt;Node5</title>
<path fill="none" stroke="midnightblue" d="M252.5,-56.08C252.5,-49.01 252.5,-38.86 252.5,-29.99"/>
<polygon fill="midnightblue" stroke="midnightblue" points="256,-29.75 252.5,-19.75 249,-29.75 256,-29.75"/>
</g>
<!-- Node6&#45;&gt;Node4 -->
<g id="edge6" class="edge">
<title>Node6&#45;&gt;Node4</title>
<path fill="none" stroke="midnightblue" d="M298.42,-112.08C290.33,-104.14 278.3,-92.34 268.59,-82.8"/>
<polygon fill="midnightblue" stroke="midnightblue" points="271,-80.26 261.41,-75.75 266.1,-85.25 271,-80.26"/>
</g>
<!-- Node6&#45;&gt;Node7 -->
<g id="edge7" class="edge">
<title>Node6&#45;&gt;Node7</title>
<path fill="none" stroke="midnightblue" d="M320.35,-112.32C332.72,-103.98 351.63,-91.21 366.24,-81.35"/>
<polygon fill="midnightblue" stroke="midnightblue" points="368.35,-84.15 374.68,-75.65 364.43,-78.35 368.35,-84.15"/>
</g>
<!-- Node9 -->
<g id="node9" class="node">
<title>Node9</title>
<g id="a_node9"><a xlink:href="fitdatamessage__p_8h.html" target="_top" xlink:title=" ">
<polygon fill="none" stroke="black" points="245,-224.5 245,-243.5 358,-243.5 358,-224.5 245,-224.5"/>
<text text-anchor="middle" x="301.5" y="-231.5" font-family="Helvetica,sans-Serif" font-size="10.00">fitdatamessage_p.h</text>
</a>
</g>
</g>
<!-- Node8&#45;&gt;Node9 -->
<g id="edge9" class="edge">
<title>Node8&#45;&gt;Node9</title>
<path fill="none" stroke="midnightblue" d="M301.5,-280.08C301.5,-273.01 301.5,-262.86 301.5,-253.99"/>
<polygon fill="midnightblue" stroke="midnightblue" points="305,-253.75 301.5,-243.75 298,-253.75 305,-253.75"/>
</g>
<!-- Node9&#45;&gt;Node4 -->
<g id="edge10" class="edge">
<title>Node9&#45;&gt;Node4</title>
<path fill="none" stroke="midnightblue" d="M298.92,-224.36C293.71,-206.91 281.58,-166.21 271.5,-132 266.88,-116.32 261.67,-98.49 257.88,-85.48"/>
<polygon fill="midnightblue" stroke="midnightblue" points="261.23,-84.46 255.07,-75.83 254.51,-86.41 261.23,-84.46"/>
</g>
<!-- Node9&#45;&gt;Node6 -->
<g id="edge11" class="edge">
<title>Node9&#45;&gt;Node6</title>
<path fill="none" stroke="midnightblue" d="M301.97,-224.37C302.94,-206.62 305.17,-165.67 306.49,-141.6"/>
<polygon fill="midnightblue" stroke="midnightblue" points="309.98,-141.77 307.03,-131.59 302.99,-141.39 309.98,-141.77"/>
</g>
<!-- Node10 -->
<g id="node10" class="node">
<title>Node10</title>
<g id="a_node10"><a xlink:href="types__p_8h.html" target="_top" xlink:title=" ">
<polygon fill="none" stroke="black" points="329.5,-168.5 329.5,-187.5 393.5,-187.5 393.5,-168.5 329.5,-168.5"/>
<text text-anchor="middle" x="361.5" y="-175.5" font-family="Helvetica,sans-Serif" font-size="10.00">types_p.h</text>
</a>
</g>
</g>
<!-- Node9&#45;&gt;Node10 -->
<g id="edge12" class="edge">
<title>Node9&#45;&gt;Node10</title>
<path fill="none" stroke="midnightblue" d="M311.14,-224.32C320.01,-216.34 333.37,-204.31 344.11,-194.65"/>
<polygon fill="midnightblue" stroke="midnightblue" points="346.59,-197.13 351.68,-187.83 341.91,-191.92 346.59,-197.13"/>
</g>
<!-- Node10&#45;&gt;Node6 -->
<g id="edge13" class="edge">
<title>Node10&#45;&gt;Node6</title>
<path fill="none" stroke="midnightblue" d="M352.58,-168.08C344.72,-160.22 333.07,-148.57 323.58,-139.08"/>
<polygon fill="midnightblue" stroke="midnightblue" points="325.8,-136.35 316.25,-131.75 320.85,-141.3 325.8,-136.35"/>
</g>
<!-- Node11 -->
<g id="node11" class="node">
<title>Node11</title>
<g id="a_node11"><a xlink:title=" ">
<polygon fill="none" stroke="#bfbfbf" points="352,-112.5 352,-131.5 393,-131.5 393,-112.5 352,-112.5"/>
<text text-anchor="middle" x="372.5" y="-119.5" font-family="Helvetica,sans-Serif" font-size="10.00">QList</text>
</a>
</g>
</g>
<!-- Node10&#45;&gt;Node11 -->
<g id="edge14" class="edge">
<title>Node10&#45;&gt;Node11</title>
<path fill="none" stroke="midnightblue" d="M363.32,-168.08C364.77,-160.93 366.87,-150.64 368.69,-141.69"/>
<polygon fill="midnightblue" stroke="midnightblue" points="372.15,-142.25 370.72,-131.75 365.29,-140.85 372.15,-142.25"/>
</g>
</g>
</svg>
