<?xml version="1.0" encoding="UTF-8" standalone="no"?>
<!DOCTYPE svg PUBLIC "-//W3C//DTD SVG 1.1//EN"
 "http://www.w3.org/Graphics/SVG/1.1/DTD/svg11.dtd">
<!-- Generated by graphviz version 2.43.0 (0)
 -->
<!-- Title: threedsensorcalibrationmessage.cpp Pages: 1 -->
<svg width="407pt" height="364pt"
 viewBox="0.00 0.00 407.00 364.00" xmlns="http://www.w3.org/2000/svg" xmlns:xlink="http://www.w3.org/1999/xlink">
<g id="graph0" class="graph" transform="scale(1 1) rotate(0) translate(4 360)">
<title>threedsensorcalibrationmessage.cpp</title>
<!-- Node1 -->
<g id="node1" class="node">
<title>Node1</title>
<g id="a_node1"><a xlink:title=" ">
<polygon fill="#bfbfbf" stroke="black" points="165,-336.5 165,-355.5 362,-355.5 362,-336.5 165,-336.5"/>
<text text-anchor="middle" x="263.5" y="-343.5" font-family="Helvetica,sans-Serif" font-size="10.00">threedsensorcalibrationmessage.cpp</text>
</a>
</g>
</g>
<!-- Node2 -->
<g id="node2" class="node">
<title>Node2</title>
<g id="a_node2"><a xlink:href="threedsensorcalibrationmessage_8h.html" target="_top" xlink:title=" ">
<polygon fill="none" stroke="black" points="153,-224.5 153,-243.5 338,-243.5 338,-224.5 153,-224.5"/>
<text text-anchor="middle" x="245.5" y="-231.5" font-family="Helvetica,sans-Serif" font-size="10.00">threedsensorcalibrationmessage.h</text>
</a>
</g>
</g>
<!-- Node1&#45;&gt;Node2 -->
<g id="edge1" class="edge">
<title>Node1&#45;&gt;Node2</title>
<path fill="none" stroke="midnightblue" d="M261.62,-336.4C259.68,-327.37 256.65,-312.73 254.5,-300 251.89,-284.54 249.48,-266.91 247.82,-253.91"/>
<polygon fill="midnightblue" stroke="midnightblue" points="251.27,-253.34 246.56,-243.86 244.33,-254.21 251.27,-253.34"/>
</g>
<!-- Node7 -->
<g id="node7" class="node">
<title>Node7</title>
<g id="a_node7"><a xlink:href="threedsensorcalibrationmessage__p_8h.html" target="_top" xlink:title=" ">
<polygon fill="none" stroke="black" points="0,-280.5 0,-299.5 197,-299.5 197,-280.5 0,-280.5"/>
<text text-anchor="middle" x="98.5" y="-287.5" font-family="Helvetica,sans-Serif" font-size="10.00">threedsensorcalibrationmessage_p.h</text>
</a>
</g>
</g>
<!-- Node1&#45;&gt;Node7 -->
<g id="edge7" class="edge">
<title>Node1&#45;&gt;Node7</title>
<path fill="none" stroke="midnightblue" d="M237.36,-336.44C209.48,-327.32 165.15,-312.81 134.1,-302.65"/>
<polygon fill="midnightblue" stroke="midnightblue" points="135.12,-299.3 124.52,-299.52 132.94,-305.95 135.12,-299.3"/>
</g>
<!-- Node11 -->
<g id="node11" class="node">
<title>Node11</title>
<g id="a_node11"><a xlink:title=" ">
<polygon fill="none" stroke="#bfbfbf" points="263.5,-280.5 263.5,-299.5 319.5,-299.5 319.5,-280.5 263.5,-280.5"/>
<text text-anchor="middle" x="291.5" y="-287.5" font-family="Helvetica,sans-Serif" font-size="10.00">QDebug</text>
</a>
</g>
</g>
<!-- Node1&#45;&gt;Node11 -->
<g id="edge14" class="edge">
<title>Node1&#45;&gt;Node11</title>
<path fill="none" stroke="midnightblue" d="M268.12,-336.08C271.96,-328.69 277.52,-317.95 282.26,-308.81"/>
<polygon fill="midnightblue" stroke="midnightblue" points="285.47,-310.24 286.96,-299.75 279.25,-307.02 285.47,-310.24"/>
</g>
<!-- Node12 -->
<g id="node12" class="node">
<title>Node12</title>
<g id="a_node12"><a xlink:title=" ">
<polygon fill="none" stroke="#bfbfbf" points="338,-280.5 338,-299.5 399,-299.5 399,-280.5 338,-280.5"/>
<text text-anchor="middle" x="368.5" y="-287.5" font-family="Helvetica,sans-Serif" font-size="10.00">QtEndian</text>
</a>
</g>
</g>
<!-- Node1&#45;&gt;Node12 -->
<g id="edge15" class="edge">
<title>Node1&#45;&gt;Node12</title>
<path fill="none" stroke="midnightblue" d="M280.37,-336.32C297.21,-327.66 323.31,-314.24 342.74,-304.25"/>
<polygon fill="midnightblue" stroke="midnightblue" points="344.38,-307.34 351.67,-299.65 341.18,-301.12 344.38,-307.34"/>
</g>
<!-- Node3 -->
<g id="node3" class="node">
<title>Node3</title>
<g id="a_node3"><a xlink:href="fitdatamessage_8h.html" target="_top" xlink:title=" ">
<polygon fill="none" stroke="black" points="181,-168.5 181,-187.5 282,-187.5 282,-168.5 181,-168.5"/>
<text text-anchor="middle" x="231.5" y="-175.5" font-family="Helvetica,sans-Serif" font-size="10.00">fitdatamessage.h</text>
</a>
</g>
</g>
<!-- Node2&#45;&gt;Node3 -->
<g id="edge2" class="edge">
<title>Node2&#45;&gt;Node3</title>
<path fill="none" stroke="midnightblue" d="M243.19,-224.08C241.33,-216.93 238.66,-206.64 236.35,-197.69"/>
<polygon fill="midnightblue" stroke="midnightblue" points="239.67,-196.55 233.77,-187.75 232.89,-198.31 239.67,-196.55"/>
</g>
<!-- Node4 -->
<g id="node4" class="node">
<title>Node4</title>
<g id="a_node4"><a xlink:href="QtFit__global_8h.html" target="_top" xlink:title=" ">
<polygon fill="none" stroke="black" points="112.5,-56.5 112.5,-75.5 196.5,-75.5 196.5,-56.5 112.5,-56.5"/>
<text text-anchor="middle" x="154.5" y="-63.5" font-family="Helvetica,sans-Serif" font-size="10.00">QtFit_global.h</text>
</a>
</g>
</g>
<!-- Node3&#45;&gt;Node4 -->
<g id="edge3" class="edge">
<title>Node3&#45;&gt;Node4</title>
<path fill="none" stroke="midnightblue" d="M226.49,-168.39C219.04,-155.75 204.43,-131.56 190.5,-112 183.61,-102.32 175.36,-91.94 168.51,-83.59"/>
<polygon fill="midnightblue" stroke="midnightblue" points="171.06,-81.19 161.97,-75.74 165.68,-85.66 171.06,-81.19"/>
</g>
<!-- Node6 -->
<g id="node6" class="node">
<title>Node6</title>
<g id="a_node6"><a xlink:href="types_8h.html" target="_top" xlink:title="Types defined by the ANT+ FIT SDK.">
<polygon fill="none" stroke="black" points="128,-112.5 128,-131.5 181,-131.5 181,-112.5 128,-112.5"/>
<text text-anchor="middle" x="154.5" y="-119.5" font-family="Helvetica,sans-Serif" font-size="10.00">types.h</text>
</a>
</g>
</g>
<!-- Node3&#45;&gt;Node6 -->
<g id="edge5" class="edge">
<title>Node3&#45;&gt;Node6</title>
<path fill="none" stroke="midnightblue" d="M219.13,-168.32C207.34,-160.06 189.37,-147.45 175.36,-137.63"/>
<polygon fill="midnightblue" stroke="midnightblue" points="177.04,-134.53 166.84,-131.65 173.02,-140.26 177.04,-134.53"/>
</g>
<!-- Node5 -->
<g id="node5" class="node">
<title>Node5</title>
<g id="a_node5"><a xlink:title=" ">
<polygon fill="none" stroke="#bfbfbf" points="125,-0.5 125,-19.5 184,-19.5 184,-0.5 125,-0.5"/>
<text text-anchor="middle" x="154.5" y="-7.5" font-family="Helvetica,sans-Serif" font-size="10.00">QtGlobal</text>
</a>
</g>
</g>
<!-- Node4&#45;&gt;Node5 -->
<g id="edge4" class="edge">
<title>Node4&#45;&gt;Node5</title>
<path fill="none" stroke="midnightblue" d="M154.5,-56.08C154.5,-49.01 154.5,-38.86 154.5,-29.99"/>
<polygon fill="midnightblue" stroke="midnightblue" points="158,-29.75 154.5,-19.75 151,-29.75 158,-29.75"/>
</g>
<!-- Node6&#45;&gt;Node4 -->
<g id="edge6" class="edge">
<title>Node6&#45;&gt;Node4</title>
<path fill="none" stroke="midnightblue" d="M154.5,-112.08C154.5,-105.01 154.5,-94.86 154.5,-85.99"/>
<polygon fill="midnightblue" stroke="midnightblue" points="158,-85.75 154.5,-75.75 151,-85.75 158,-85.75"/>
</g>
<!-- Node8 -->
<g id="node8" class="node">
<title>Node8</title>
<g id="a_node8"><a xlink:href="fitdatamessage__p_8h.html" target="_top" xlink:title=" ">
<polygon fill="none" stroke="black" points="22,-224.5 22,-243.5 135,-243.5 135,-224.5 22,-224.5"/>
<text text-anchor="middle" x="78.5" y="-231.5" font-family="Helvetica,sans-Serif" font-size="10.00">fitdatamessage_p.h</text>
</a>
</g>
</g>
<!-- Node7&#45;&gt;Node8 -->
<g id="edge8" class="edge">
<title>Node7&#45;&gt;Node8</title>
<path fill="none" stroke="midnightblue" d="M95.2,-280.08C92.52,-272.85 88.65,-262.41 85.31,-253.4"/>
<polygon fill="midnightblue" stroke="midnightblue" points="88.5,-251.91 81.74,-243.75 81.93,-254.34 88.5,-251.91"/>
</g>
<!-- Node8&#45;&gt;Node4 -->
<g id="edge9" class="edge">
<title>Node8&#45;&gt;Node4</title>
<path fill="none" stroke="midnightblue" d="M71.35,-224.36C64.73,-215.76 55.34,-201.87 51.5,-188 45.86,-167.64 55.47,-117.47 59.5,-112 71.1,-96.26 89.64,-85.81 107.27,-78.98"/>
<polygon fill="midnightblue" stroke="midnightblue" points="108.67,-82.2 116.92,-75.55 106.32,-75.6 108.67,-82.2"/>
</g>
<!-- Node8&#45;&gt;Node6 -->
<g id="edge10" class="edge">
<title>Node8&#45;&gt;Node6</title>
<path fill="none" stroke="midnightblue" d="M93.12,-224.42C105.52,-216.45 122.93,-203.49 133.5,-188 143,-174.07 148.43,-155.56 151.37,-141.86"/>
<polygon fill="midnightblue" stroke="midnightblue" points="154.88,-142.16 153.3,-131.68 148,-140.86 154.88,-142.16"/>
</g>
<!-- Node9 -->
<g id="node9" class="node">
<title>Node9</title>
<g id="a_node9"><a xlink:href="types__p_8h.html" target="_top" xlink:title=" ">
<polygon fill="none" stroke="black" points="60.5,-168.5 60.5,-187.5 124.5,-187.5 124.5,-168.5 60.5,-168.5"/>
<text text-anchor="middle" x="92.5" y="-175.5" font-family="Helvetica,sans-Serif" font-size="10.00">types_p.h</text>
</a>
</g>
</g>
<!-- Node8&#45;&gt;Node9 -->
<g id="edge11" class="edge">
<title>Node8&#45;&gt;Node9</title>
<path fill="none" stroke="midnightblue" d="M80.81,-224.08C82.67,-216.93 85.34,-206.64 87.65,-197.69"/>
<polygon fill="midnightblue" stroke="midnightblue" points="91.11,-198.31 90.23,-187.75 84.33,-196.55 91.11,-198.31"/>
</g>
<!-- Node9&#45;&gt;Node6 -->
<g id="edge12" class="edge">
<title>Node9&#45;&gt;Node6</title>
<path fill="none" stroke="midnightblue" d="M102.46,-168.32C111.63,-160.34 125.44,-148.31 136.53,-138.65"/>
<polygon fill="midnightblue" stroke="midnightblue" points="139.12,-141.04 144.36,-131.83 134.52,-135.76 139.12,-141.04"/>
</g>
<!-- Node10 -->
<g id="node10" class="node">
<title>Node10</title>
<g id="a_node10"><a xlink:title=" ">
<polygon fill="none" stroke="#bfbfbf" points="69,-112.5 69,-131.5 110,-131.5 110,-112.5 69,-112.5"/>
<text text-anchor="middle" x="89.5" y="-119.5" font-family="Helvetica,sans-Serif" font-size="10.00">QList</text>
</a>
</g>
</g>
<!-- Node9&#45;&gt;Node10 -->
<g id="edge13" class="edge">
<title>Node9&#45;&gt;Node10</title>
<path fill="none" stroke="midnightblue" d="M92,-168.08C91.61,-161.01 91.05,-150.86 90.55,-141.99"/>
<polygon fill="midnightblue" stroke="midnightblue" points="94.04,-141.54 89.99,-131.75 87.05,-141.93 94.04,-141.54"/>
</g>
</g>
</svg>
