<?xml version="1.0" encoding="UTF-8" standalone="no"?>
<!DOCTYPE svg PUBLIC "-//W3C//DTD SVG 1.1//EN"
 "http://www.w3.org/Graphics/SVG/1.1/DTD/svg11.dtd">
<!-- Generated by graphviz version 2.43.0 (0)
 -->
<!-- Title: timestampcorrelationmessage.cpp Pages: 1 -->
<svg width="389pt" height="364pt"
 viewBox="0.00 0.00 388.50 364.00" xmlns="http://www.w3.org/2000/svg" xmlns:xlink="http://www.w3.org/1999/xlink">
<g id="graph0" class="graph" transform="scale(1 1) rotate(0) translate(4 360)">
<title>timestampcorrelationmessage.cpp</title>
<!-- Node1 -->
<g id="node1" class="node">
<title>Node1</title>
<g id="a_node1"><a xlink:title=" ">
<polygon fill="#bfbfbf" stroke="black" points="99,-336.5 99,-355.5 286,-355.5 286,-336.5 99,-336.5"/>
<text text-anchor="middle" x="192.5" y="-343.5" font-family="Helvetica,sans-Serif" font-size="10.00">timestampcorrelationmessage.cpp</text>
</a>
</g>
</g>
<!-- Node2 -->
<g id="node2" class="node">
<title>Node2</title>
<g id="a_node2"><a xlink:href="timestampcorrelationmessage_8h.html" target="_top" xlink:title=" ">
<polygon fill="none" stroke="black" points="204.5,-280.5 204.5,-299.5 380.5,-299.5 380.5,-280.5 204.5,-280.5"/>
<text text-anchor="middle" x="292.5" y="-287.5" font-family="Helvetica,sans-Serif" font-size="10.00">timestampcorrelationmessage.h</text>
</a>
</g>
</g>
<!-- Node1&#45;&gt;Node2 -->
<g id="edge1" class="edge">
<title>Node1&#45;&gt;Node2</title>
<path fill="none" stroke="midnightblue" d="M208.57,-336.32C224.46,-327.74 249.01,-314.49 267.46,-304.52"/>
<polygon fill="midnightblue" stroke="midnightblue" points="269.34,-307.49 276.47,-299.65 266.01,-301.33 269.34,-307.49"/>
</g>
<!-- Node7 -->
<g id="node7" class="node">
<title>Node7</title>
<g id="a_node7"><a xlink:href="timestampcorrelationmessage__p_8h.html" target="_top" xlink:title=" ">
<polygon fill="none" stroke="black" points="0,-280.5 0,-299.5 187,-299.5 187,-280.5 0,-280.5"/>
<text text-anchor="middle" x="93.5" y="-287.5" font-family="Helvetica,sans-Serif" font-size="10.00">timestampcorrelationmessage_p.h</text>
</a>
</g>
</g>
<!-- Node1&#45;&gt;Node7 -->
<g id="edge7" class="edge">
<title>Node1&#45;&gt;Node7</title>
<path fill="none" stroke="midnightblue" d="M176.59,-336.32C160.86,-327.74 136.56,-314.49 118.29,-304.52"/>
<polygon fill="midnightblue" stroke="midnightblue" points="119.82,-301.37 109.37,-299.65 116.47,-307.52 119.82,-301.37"/>
</g>
<!-- Node3 -->
<g id="node3" class="node">
<title>Node3</title>
<g id="a_node3"><a xlink:href="fitdatamessage_8h.html" target="_top" xlink:title=" ">
<polygon fill="none" stroke="black" points="227,-168.5 227,-187.5 328,-187.5 328,-168.5 227,-168.5"/>
<text text-anchor="middle" x="277.5" y="-175.5" font-family="Helvetica,sans-Serif" font-size="10.00">fitdatamessage.h</text>
</a>
</g>
</g>
<!-- Node2&#45;&gt;Node3 -->
<g id="edge2" class="edge">
<title>Node2&#45;&gt;Node3</title>
<path fill="none" stroke="midnightblue" d="M291.32,-280.37C288.9,-262.62 283.32,-221.67 280.04,-197.6"/>
<polygon fill="midnightblue" stroke="midnightblue" points="283.49,-197.03 278.67,-187.59 276.55,-197.97 283.49,-197.03"/>
</g>
<!-- Node4 -->
<g id="node4" class="node">
<title>Node4</title>
<g id="a_node4"><a xlink:href="QtFit__global_8h.html" target="_top" xlink:title=" ">
<polygon fill="none" stroke="black" points="158.5,-56.5 158.5,-75.5 242.5,-75.5 242.5,-56.5 158.5,-56.5"/>
<text text-anchor="middle" x="200.5" y="-63.5" font-family="Helvetica,sans-Serif" font-size="10.00">QtFit_global.h</text>
</a>
</g>
</g>
<!-- Node3&#45;&gt;Node4 -->
<g id="edge3" class="edge">
<title>Node3&#45;&gt;Node4</title>
<path fill="none" stroke="midnightblue" d="M272.49,-168.39C265.04,-155.75 250.43,-131.56 236.5,-112 229.61,-102.32 221.36,-91.94 214.51,-83.59"/>
<polygon fill="midnightblue" stroke="midnightblue" points="217.06,-81.19 207.97,-75.74 211.68,-85.66 217.06,-81.19"/>
</g>
<!-- Node6 -->
<g id="node6" class="node">
<title>Node6</title>
<g id="a_node6"><a xlink:href="types_8h.html" target="_top" xlink:title="Types defined by the ANT+ FIT SDK.">
<polygon fill="none" stroke="black" points="174,-112.5 174,-131.5 227,-131.5 227,-112.5 174,-112.5"/>
<text text-anchor="middle" x="200.5" y="-119.5" font-family="Helvetica,sans-Serif" font-size="10.00">types.h</text>
</a>
</g>
</g>
<!-- Node3&#45;&gt;Node6 -->
<g id="edge5" class="edge">
<title>Node3&#45;&gt;Node6</title>
<path fill="none" stroke="midnightblue" d="M265.13,-168.32C253.34,-160.06 235.37,-147.45 221.36,-137.63"/>
<polygon fill="midnightblue" stroke="midnightblue" points="223.04,-134.53 212.84,-131.65 219.02,-140.26 223.04,-134.53"/>
</g>
<!-- Node5 -->
<g id="node5" class="node">
<title>Node5</title>
<g id="a_node5"><a xlink:title=" ">
<polygon fill="none" stroke="#bfbfbf" points="171,-0.5 171,-19.5 230,-19.5 230,-0.5 171,-0.5"/>
<text text-anchor="middle" x="200.5" y="-7.5" font-family="Helvetica,sans-Serif" font-size="10.00">QtGlobal</text>
</a>
</g>
</g>
<!-- Node4&#45;&gt;Node5 -->
<g id="edge4" class="edge">
<title>Node4&#45;&gt;Node5</title>
<path fill="none" stroke="midnightblue" d="M200.5,-56.08C200.5,-49.01 200.5,-38.86 200.5,-29.99"/>
<polygon fill="midnightblue" stroke="midnightblue" points="204,-29.75 200.5,-19.75 197,-29.75 204,-29.75"/>
</g>
<!-- Node6&#45;&gt;Node4 -->
<g id="edge6" class="edge">
<title>Node6&#45;&gt;Node4</title>
<path fill="none" stroke="midnightblue" d="M200.5,-112.08C200.5,-105.01 200.5,-94.86 200.5,-85.99"/>
<polygon fill="midnightblue" stroke="midnightblue" points="204,-85.75 200.5,-75.75 197,-85.75 204,-85.75"/>
</g>
<!-- Node8 -->
<g id="node8" class="node">
<title>Node8</title>
<g id="a_node8"><a xlink:href="fitdatamessage__p_8h.html" target="_top" xlink:title=" ">
<polygon fill="none" stroke="black" points="67,-224.5 67,-243.5 180,-243.5 180,-224.5 67,-224.5"/>
<text text-anchor="middle" x="123.5" y="-231.5" font-family="Helvetica,sans-Serif" font-size="10.00">fitdatamessage_p.h</text>
</a>
</g>
</g>
<!-- Node7&#45;&gt;Node8 -->
<g id="edge8" class="edge">
<title>Node7&#45;&gt;Node8</title>
<path fill="none" stroke="midnightblue" d="M98.45,-280.08C102.6,-272.61 108.65,-261.72 113.77,-252.52"/>
<polygon fill="midnightblue" stroke="midnightblue" points="116.84,-254.19 118.64,-243.75 110.72,-250.79 116.84,-254.19"/>
</g>
<!-- Node8&#45;&gt;Node4 -->
<g id="edge9" class="edge">
<title>Node8&#45;&gt;Node4</title>
<path fill="none" stroke="midnightblue" d="M116.61,-224.32C110.23,-215.68 101.19,-201.77 97.5,-188 91.99,-167.46 101.84,-116.96 105.5,-112 117.1,-96.26 135.64,-85.81 153.27,-78.98"/>
<polygon fill="midnightblue" stroke="midnightblue" points="154.67,-82.2 162.92,-75.55 152.32,-75.6 154.67,-82.2"/>
</g>
<!-- Node8&#45;&gt;Node6 -->
<g id="edge10" class="edge">
<title>Node8&#45;&gt;Node6</title>
<path fill="none" stroke="midnightblue" d="M138.39,-224.48C151.02,-216.55 168.75,-203.61 179.5,-188 189.07,-174.11 194.48,-155.6 197.41,-141.88"/>
<polygon fill="midnightblue" stroke="midnightblue" points="200.92,-142.17 199.32,-131.7 194.04,-140.88 200.92,-142.17"/>
</g>
<!-- Node9 -->
<g id="node9" class="node">
<title>Node9</title>
<g id="a_node9"><a xlink:href="types__p_8h.html" target="_top" xlink:title=" ">
<polygon fill="none" stroke="black" points="106.5,-168.5 106.5,-187.5 170.5,-187.5 170.5,-168.5 106.5,-168.5"/>
<text text-anchor="middle" x="138.5" y="-175.5" font-family="Helvetica,sans-Serif" font-size="10.00">types_p.h</text>
</a>
</g>
</g>
<!-- Node8&#45;&gt;Node9 -->
<g id="edge11" class="edge">
<title>Node8&#45;&gt;Node9</title>
<path fill="none" stroke="midnightblue" d="M125.98,-224.08C127.99,-216.85 130.89,-206.41 133.39,-197.4"/>
<polygon fill="midnightblue" stroke="midnightblue" points="136.76,-198.32 136.07,-187.75 130.02,-196.45 136.76,-198.32"/>
</g>
<!-- Node9&#45;&gt;Node6 -->
<g id="edge12" class="edge">
<title>Node9&#45;&gt;Node6</title>
<path fill="none" stroke="midnightblue" d="M148.46,-168.32C157.63,-160.34 171.44,-148.31 182.53,-138.65"/>
<polygon fill="midnightblue" stroke="midnightblue" points="185.12,-141.04 190.36,-131.83 180.52,-135.76 185.12,-141.04"/>
</g>
<!-- Node10 -->
<g id="node10" class="node">
<title>Node10</title>
<g id="a_node10"><a xlink:title=" ">
<polygon fill="none" stroke="#bfbfbf" points="115,-112.5 115,-131.5 156,-131.5 156,-112.5 115,-112.5"/>
<text text-anchor="middle" x="135.5" y="-119.5" font-family="Helvetica,sans-Serif" font-size="10.00">QList</text>
</a>
</g>
</g>
<!-- Node9&#45;&gt;Node10 -->
<g id="edge13" class="edge">
<title>Node9&#45;&gt;Node10</title>
<path fill="none" stroke="midnightblue" d="M138,-168.08C137.61,-161.01 137.05,-150.86 136.55,-141.99"/>
<polygon fill="midnightblue" stroke="midnightblue" points="140.04,-141.54 135.99,-131.75 133.05,-141.93 140.04,-141.54"/>
</g>
</g>
</svg>
