<?xml version="1.0" encoding="UTF-8" standalone="no"?>
<!DOCTYPE svg PUBLIC "-//W3C//DTD SVG 1.1//EN"
 "http://www.w3.org/Graphics/SVG/1.1/DTD/svg11.dtd">
<!-- Generated by graphviz version 2.43.0 (0)
 -->
<!-- Title: timestampcorrelationmessage_p.h Pages: 1 -->
<svg width="196pt" height="308pt"
 viewBox="0.00 0.00 196.00 308.00" xmlns="http://www.w3.org/2000/svg" xmlns:xlink="http://www.w3.org/1999/xlink">
<g id="graph0" class="graph" transform="scale(1 1) rotate(0) translate(4 304)">
<title>timestampcorrelationmessage_p.h</title>
<!-- Node1 -->
<g id="node1" class="node">
<title>Node1</title>
<g id="a_node1"><a xlink:title=" ">
<polygon fill="#bfbfbf" stroke="black" points="0,-280.5 0,-299.5 187,-299.5 187,-280.5 0,-280.5"/>
<text text-anchor="middle" x="93.5" y="-287.5" font-family="Helvetica,sans-Serif" font-size="10.00">timestampcorrelationmessage_p.h</text>
</a>
</g>
</g>
<!-- Node2 -->
<g id="node2" class="node">
<title>Node2</title>
<g id="a_node2"><a xlink:href="abstractdatamessage__p_8h_source.html" target="_top" xlink:title=" ">
<polygon fill="none" stroke="black" points="22,-224.5 22,-243.5 165,-243.5 165,-224.5 22,-224.5"/>
<text text-anchor="middle" x="93.5" y="-231.5" font-family="Helvetica,sans-Serif" font-size="10.00">abstractdatamessage_p.h</text>
</a>
</g>
</g>
<!-- Node1&#45;&gt;Node2 -->
<g id="edge1" class="edge">
<title>Node1&#45;&gt;Node2</title>
<path fill="none" stroke="midnightblue" d="M93.5,-280.08C93.5,-273.01 93.5,-262.86 93.5,-253.99"/>
<polygon fill="midnightblue" stroke="midnightblue" points="97,-253.75 93.5,-243.75 90,-253.75 97,-253.75"/>
</g>
<!-- Node3 -->
<g id="node3" class="node">
<title>Node3</title>
<g id="a_node3"><a xlink:href="QtFit__global_8h_source.html" target="_top" xlink:title=" ">
<polygon fill="none" stroke="black" points="5.5,-56.5 5.5,-75.5 89.5,-75.5 89.5,-56.5 5.5,-56.5"/>
<text text-anchor="middle" x="47.5" y="-63.5" font-family="Helvetica,sans-Serif" font-size="10.00">QtFit_global.h</text>
</a>
</g>
</g>
<!-- Node2&#45;&gt;Node3 -->
<g id="edge2" class="edge">
<title>Node2&#45;&gt;Node3</title>
<path fill="none" stroke="midnightblue" d="M91.03,-224.08C83.79,-197.95 62.52,-121.21 52.65,-85.58"/>
<polygon fill="midnightblue" stroke="midnightblue" points="55.92,-84.27 49.87,-75.57 49.17,-86.14 55.92,-84.27"/>
</g>
<!-- Node5 -->
<g id="node5" class="node">
<title>Node5</title>
<g id="a_node5"><a xlink:href="types_8h.html" target="_top" xlink:title="Types defined by the ANT+ FIT SDK.">
<polygon fill="none" stroke="black" points="76,-112.5 76,-131.5 129,-131.5 129,-112.5 76,-112.5"/>
<text text-anchor="middle" x="102.5" y="-119.5" font-family="Helvetica,sans-Serif" font-size="10.00">types.h</text>
</a>
</g>
</g>
<!-- Node2&#45;&gt;Node5 -->
<g id="edge4" class="edge">
<title>Node2&#45;&gt;Node5</title>
<path fill="none" stroke="midnightblue" d="M94.21,-224.37C95.66,-206.62 99.01,-165.67 100.98,-141.6"/>
<polygon fill="midnightblue" stroke="midnightblue" points="104.47,-141.84 101.8,-131.59 97.49,-141.27 104.47,-141.84"/>
</g>
<!-- Node7 -->
<g id="node7" class="node">
<title>Node7</title>
<g id="a_node7"><a xlink:href="types__p_8h_source.html" target="_top" xlink:title=" ">
<polygon fill="none" stroke="black" points="121.5,-168.5 121.5,-187.5 185.5,-187.5 185.5,-168.5 121.5,-168.5"/>
<text text-anchor="middle" x="153.5" y="-175.5" font-family="Helvetica,sans-Serif" font-size="10.00">types_p.h</text>
</a>
</g>
</g>
<!-- Node2&#45;&gt;Node7 -->
<g id="edge7" class="edge">
<title>Node2&#45;&gt;Node7</title>
<path fill="none" stroke="midnightblue" d="M103.14,-224.32C112.01,-216.34 125.37,-204.31 136.11,-194.65"/>
<polygon fill="midnightblue" stroke="midnightblue" points="138.59,-197.13 143.68,-187.83 133.91,-191.92 138.59,-197.13"/>
</g>
<!-- Node4 -->
<g id="node4" class="node">
<title>Node4</title>
<g id="a_node4"><a xlink:title=" ">
<polygon fill="none" stroke="#bfbfbf" points="18,-0.5 18,-19.5 77,-19.5 77,-0.5 18,-0.5"/>
<text text-anchor="middle" x="47.5" y="-7.5" font-family="Helvetica,sans-Serif" font-size="10.00">QtGlobal</text>
</a>
</g>
</g>
<!-- Node3&#45;&gt;Node4 -->
<g id="edge3" class="edge">
<title>Node3&#45;&gt;Node4</title>
<path fill="none" stroke="midnightblue" d="M47.5,-56.08C47.5,-49.01 47.5,-38.86 47.5,-29.99"/>
<polygon fill="midnightblue" stroke="midnightblue" points="51,-29.75 47.5,-19.75 44,-29.75 51,-29.75"/>
</g>
<!-- Node5&#45;&gt;Node3 -->
<g id="edge5" class="edge">
<title>Node5&#45;&gt;Node3</title>
<path fill="none" stroke="midnightblue" d="M93.42,-112.08C85.33,-104.14 73.3,-92.34 63.59,-82.8"/>
<polygon fill="midnightblue" stroke="midnightblue" points="66,-80.26 56.41,-75.75 61.1,-85.25 66,-80.26"/>
</g>
<!-- Node6 -->
<g id="node6" class="node">
<title>Node6</title>
<g id="a_node6"><a xlink:title=" ">
<polygon fill="none" stroke="#bfbfbf" points="107.5,-56.5 107.5,-75.5 163.5,-75.5 163.5,-56.5 107.5,-56.5"/>
<text text-anchor="middle" x="135.5" y="-63.5" font-family="Helvetica,sans-Serif" font-size="10.00">QDebug</text>
</a>
</g>
</g>
<!-- Node5&#45;&gt;Node6 -->
<g id="edge6" class="edge">
<title>Node5&#45;&gt;Node6</title>
<path fill="none" stroke="midnightblue" d="M107.95,-112.08C112.51,-104.61 119.17,-93.72 124.79,-84.52"/>
<polygon fill="midnightblue" stroke="midnightblue" points="127.92,-86.11 130.15,-75.75 121.95,-82.46 127.92,-86.11"/>
</g>
<!-- Node7&#45;&gt;Node5 -->
<g id="edge8" class="edge">
<title>Node7&#45;&gt;Node5</title>
<path fill="none" stroke="midnightblue" d="M145.08,-168.08C137.65,-160.22 126.65,-148.57 117.69,-139.08"/>
<polygon fill="midnightblue" stroke="midnightblue" points="120.18,-136.62 110.76,-131.75 115.09,-141.42 120.18,-136.62"/>
</g>
<!-- Node8 -->
<g id="node8" class="node">
<title>Node8</title>
<g id="a_node8"><a xlink:title=" ">
<polygon fill="none" stroke="#bfbfbf" points="147,-112.5 147,-131.5 188,-131.5 188,-112.5 147,-112.5"/>
<text text-anchor="middle" x="167.5" y="-119.5" font-family="Helvetica,sans-Serif" font-size="10.00">QList</text>
</a>
</g>
</g>
<!-- Node7&#45;&gt;Node8 -->
<g id="edge9" class="edge">
<title>Node7&#45;&gt;Node8</title>
<path fill="none" stroke="midnightblue" d="M155.81,-168.08C157.67,-160.93 160.34,-150.64 162.65,-141.69"/>
<polygon fill="midnightblue" stroke="midnightblue" points="166.11,-142.31 165.23,-131.75 159.33,-140.55 166.11,-142.31"/>
</g>
</g>
</svg>
