<?xml version="1.0" encoding="UTF-8" standalone="no"?>
<!DOCTYPE svg PUBLIC "-//W3C//DTD SVG 1.1//EN"
 "http://www.w3.org/Graphics/SVG/1.1/DTD/svg11.dtd">
<!-- Generated by graphviz version 2.43.0 (0)
 -->
<!-- Title: timestampcorrelationmessage.cpp Pages: 1 -->
<svg width="396pt" height="364pt"
 viewBox="0.00 0.00 396.00 364.00" xmlns="http://www.w3.org/2000/svg" xmlns:xlink="http://www.w3.org/1999/xlink">
<g id="graph0" class="graph" transform="scale(1 1) rotate(0) translate(4 360)">
<title>timestampcorrelationmessage.cpp</title>
<!-- Node1 -->
<g id="node1" class="node">
<title>Node1</title>
<g id="a_node1"><a xlink:title=" ">
<polygon fill="#bfbfbf" stroke="black" points="159,-336.5 159,-355.5 346,-355.5 346,-336.5 159,-336.5"/>
<text text-anchor="middle" x="252.5" y="-343.5" font-family="Helvetica,sans-Serif" font-size="10.00">timestampcorrelationmessage.cpp</text>
</a>
</g>
</g>
<!-- Node2 -->
<g id="node2" class="node">
<title>Node2</title>
<g id="a_node2"><a xlink:href="timestampcorrelationmessage_8h.html" target="_top" xlink:title=" ">
<polygon fill="none" stroke="black" points="147.5,-224.5 147.5,-243.5 323.5,-243.5 323.5,-224.5 147.5,-224.5"/>
<text text-anchor="middle" x="235.5" y="-231.5" font-family="Helvetica,sans-Serif" font-size="10.00">timestampcorrelationmessage.h</text>
</a>
</g>
</g>
<!-- Node1&#45;&gt;Node2 -->
<g id="edge1" class="edge">
<title>Node1&#45;&gt;Node2</title>
<path fill="none" stroke="midnightblue" d="M250.58,-336.41C248.61,-327.38 245.56,-312.74 243.5,-300 241.01,-284.55 238.88,-266.92 237.45,-253.92"/>
<polygon fill="midnightblue" stroke="midnightblue" points="240.92,-253.43 236.38,-243.86 233.96,-254.18 240.92,-253.43"/>
</g>
<!-- Node7 -->
<g id="node7" class="node">
<title>Node7</title>
<g id="a_node7"><a xlink:href="timestampcorrelationmessage__p_8h.html" target="_top" xlink:title=" ">
<polygon fill="none" stroke="black" points="0,-280.5 0,-299.5 187,-299.5 187,-280.5 0,-280.5"/>
<text text-anchor="middle" x="93.5" y="-287.5" font-family="Helvetica,sans-Serif" font-size="10.00">timestampcorrelationmessage_p.h</text>
</a>
</g>
</g>
<!-- Node1&#45;&gt;Node7 -->
<g id="edge7" class="edge">
<title>Node1&#45;&gt;Node7</title>
<path fill="none" stroke="midnightblue" d="M227.31,-336.44C200.56,-327.36 158.1,-312.94 128.19,-302.78"/>
<polygon fill="midnightblue" stroke="midnightblue" points="129.17,-299.42 118.58,-299.52 126.92,-306.05 129.17,-299.42"/>
</g>
<!-- Node11 -->
<g id="node11" class="node">
<title>Node11</title>
<g id="a_node11"><a xlink:title=" ">
<polygon fill="none" stroke="#bfbfbf" points="252.5,-280.5 252.5,-299.5 308.5,-299.5 308.5,-280.5 252.5,-280.5"/>
<text text-anchor="middle" x="280.5" y="-287.5" font-family="Helvetica,sans-Serif" font-size="10.00">QDebug</text>
</a>
</g>
</g>
<!-- Node1&#45;&gt;Node11 -->
<g id="edge14" class="edge">
<title>Node1&#45;&gt;Node11</title>
<path fill="none" stroke="midnightblue" d="M257.12,-336.08C260.96,-328.69 266.52,-317.95 271.26,-308.81"/>
<polygon fill="midnightblue" stroke="midnightblue" points="274.47,-310.24 275.96,-299.75 268.25,-307.02 274.47,-310.24"/>
</g>
<!-- Node12 -->
<g id="node12" class="node">
<title>Node12</title>
<g id="a_node12"><a xlink:title=" ">
<polygon fill="none" stroke="#bfbfbf" points="327,-280.5 327,-299.5 388,-299.5 388,-280.5 327,-280.5"/>
<text text-anchor="middle" x="357.5" y="-287.5" font-family="Helvetica,sans-Serif" font-size="10.00">QtEndian</text>
</a>
</g>
</g>
<!-- Node1&#45;&gt;Node12 -->
<g id="edge15" class="edge">
<title>Node1&#45;&gt;Node12</title>
<path fill="none" stroke="midnightblue" d="M269.37,-336.32C286.21,-327.66 312.31,-314.24 331.74,-304.25"/>
<polygon fill="midnightblue" stroke="midnightblue" points="333.38,-307.34 340.67,-299.65 330.18,-301.12 333.38,-307.34"/>
</g>
<!-- Node3 -->
<g id="node3" class="node">
<title>Node3</title>
<g id="a_node3"><a xlink:href="fitdatamessage_8h.html" target="_top" xlink:title=" ">
<polygon fill="none" stroke="black" points="173,-168.5 173,-187.5 274,-187.5 274,-168.5 173,-168.5"/>
<text text-anchor="middle" x="223.5" y="-175.5" font-family="Helvetica,sans-Serif" font-size="10.00">fitdatamessage.h</text>
</a>
</g>
</g>
<!-- Node2&#45;&gt;Node3 -->
<g id="edge2" class="edge">
<title>Node2&#45;&gt;Node3</title>
<path fill="none" stroke="midnightblue" d="M233.52,-224.08C231.93,-216.93 229.64,-206.64 227.65,-197.69"/>
<polygon fill="midnightblue" stroke="midnightblue" points="231.03,-196.75 225.44,-187.75 224.2,-198.27 231.03,-196.75"/>
</g>
<!-- Node4 -->
<g id="node4" class="node">
<title>Node4</title>
<g id="a_node4"><a xlink:href="QtFit__global_8h.html" target="_top" xlink:title=" ">
<polygon fill="none" stroke="black" points="104.5,-56.5 104.5,-75.5 188.5,-75.5 188.5,-56.5 104.5,-56.5"/>
<text text-anchor="middle" x="146.5" y="-63.5" font-family="Helvetica,sans-Serif" font-size="10.00">QtFit_global.h</text>
</a>
</g>
</g>
<!-- Node3&#45;&gt;Node4 -->
<g id="edge3" class="edge">
<title>Node3&#45;&gt;Node4</title>
<path fill="none" stroke="midnightblue" d="M218.49,-168.39C211.04,-155.75 196.43,-131.56 182.5,-112 175.61,-102.32 167.36,-91.94 160.51,-83.59"/>
<polygon fill="midnightblue" stroke="midnightblue" points="163.06,-81.19 153.97,-75.74 157.68,-85.66 163.06,-81.19"/>
</g>
<!-- Node6 -->
<g id="node6" class="node">
<title>Node6</title>
<g id="a_node6"><a xlink:href="types_8h.html" target="_top" xlink:title="Types defined by the ANT+ FIT SDK.">
<polygon fill="none" stroke="black" points="120,-112.5 120,-131.5 173,-131.5 173,-112.5 120,-112.5"/>
<text text-anchor="middle" x="146.5" y="-119.5" font-family="Helvetica,sans-Serif" font-size="10.00">types.h</text>
</a>
</g>
</g>
<!-- Node3&#45;&gt;Node6 -->
<g id="edge5" class="edge">
<title>Node3&#45;&gt;Node6</title>
<path fill="none" stroke="midnightblue" d="M211.13,-168.32C199.34,-160.06 181.37,-147.45 167.36,-137.63"/>
<polygon fill="midnightblue" stroke="midnightblue" points="169.04,-134.53 158.84,-131.65 165.02,-140.26 169.04,-134.53"/>
</g>
<!-- Node5 -->
<g id="node5" class="node">
<title>Node5</title>
<g id="a_node5"><a xlink:title=" ">
<polygon fill="none" stroke="#bfbfbf" points="117,-0.5 117,-19.5 176,-19.5 176,-0.5 117,-0.5"/>
<text text-anchor="middle" x="146.5" y="-7.5" font-family="Helvetica,sans-Serif" font-size="10.00">QtGlobal</text>
</a>
</g>
</g>
<!-- Node4&#45;&gt;Node5 -->
<g id="edge4" class="edge">
<title>Node4&#45;&gt;Node5</title>
<path fill="none" stroke="midnightblue" d="M146.5,-56.08C146.5,-49.01 146.5,-38.86 146.5,-29.99"/>
<polygon fill="midnightblue" stroke="midnightblue" points="150,-29.75 146.5,-19.75 143,-29.75 150,-29.75"/>
</g>
<!-- Node6&#45;&gt;Node4 -->
<g id="edge6" class="edge">
<title>Node6&#45;&gt;Node4</title>
<path fill="none" stroke="midnightblue" d="M146.5,-112.08C146.5,-105.01 146.5,-94.86 146.5,-85.99"/>
<polygon fill="midnightblue" stroke="midnightblue" points="150,-85.75 146.5,-75.75 143,-85.75 150,-85.75"/>
</g>
<!-- Node8 -->
<g id="node8" class="node">
<title>Node8</title>
<g id="a_node8"><a xlink:href="fitdatamessage__p_8h.html" target="_top" xlink:title=" ">
<polygon fill="none" stroke="black" points="16,-224.5 16,-243.5 129,-243.5 129,-224.5 16,-224.5"/>
<text text-anchor="middle" x="72.5" y="-231.5" font-family="Helvetica,sans-Serif" font-size="10.00">fitdatamessage_p.h</text>
</a>
</g>
</g>
<!-- Node7&#45;&gt;Node8 -->
<g id="edge8" class="edge">
<title>Node7&#45;&gt;Node8</title>
<path fill="none" stroke="midnightblue" d="M90.03,-280.08C87.19,-272.77 83.07,-262.18 79.54,-253.1"/>
<polygon fill="midnightblue" stroke="midnightblue" points="82.79,-251.8 75.9,-243.75 76.27,-254.34 82.79,-251.8"/>
</g>
<!-- Node8&#45;&gt;Node4 -->
<g id="edge9" class="edge">
<title>Node8&#45;&gt;Node4</title>
<path fill="none" stroke="midnightblue" d="M64.83,-224.46C57.72,-215.93 47.65,-202.09 43.5,-188 37.61,-167.98 46.76,-118.44 51.5,-112 63.1,-96.26 81.64,-85.81 99.27,-78.98"/>
<polygon fill="midnightblue" stroke="midnightblue" points="100.67,-82.2 108.92,-75.55 98.32,-75.6 100.67,-82.2"/>
</g>
<!-- Node8&#45;&gt;Node6 -->
<g id="edge10" class="edge">
<title>Node8&#45;&gt;Node6</title>
<path fill="none" stroke="midnightblue" d="M86.58,-224.3C98.53,-216.25 115.3,-203.25 125.5,-188 134.88,-173.99 140.32,-155.49 143.3,-141.81"/>
<polygon fill="midnightblue" stroke="midnightblue" points="146.8,-142.14 145.26,-131.66 139.93,-140.81 146.8,-142.14"/>
</g>
<!-- Node9 -->
<g id="node9" class="node">
<title>Node9</title>
<g id="a_node9"><a xlink:href="types__p_8h.html" target="_top" xlink:title=" ">
<polygon fill="none" stroke="black" points="52.5,-168.5 52.5,-187.5 116.5,-187.5 116.5,-168.5 52.5,-168.5"/>
<text text-anchor="middle" x="84.5" y="-175.5" font-family="Helvetica,sans-Serif" font-size="10.00">types_p.h</text>
</a>
</g>
</g>
<!-- Node8&#45;&gt;Node9 -->
<g id="edge11" class="edge">
<title>Node8&#45;&gt;Node9</title>
<path fill="none" stroke="midnightblue" d="M74.48,-224.08C76.07,-216.93 78.36,-206.64 80.35,-197.69"/>
<polygon fill="midnightblue" stroke="midnightblue" points="83.8,-198.27 82.56,-187.75 76.97,-196.75 83.8,-198.27"/>
</g>
<!-- Node9&#45;&gt;Node6 -->
<g id="edge12" class="edge">
<title>Node9&#45;&gt;Node6</title>
<path fill="none" stroke="midnightblue" d="M94.46,-168.32C103.63,-160.34 117.44,-148.31 128.53,-138.65"/>
<polygon fill="midnightblue" stroke="midnightblue" points="131.12,-141.04 136.36,-131.83 126.52,-135.76 131.12,-141.04"/>
</g>
<!-- Node10 -->
<g id="node10" class="node">
<title>Node10</title>
<g id="a_node10"><a xlink:title=" ">
<polygon fill="none" stroke="#bfbfbf" points="61,-112.5 61,-131.5 102,-131.5 102,-112.5 61,-112.5"/>
<text text-anchor="middle" x="81.5" y="-119.5" font-family="Helvetica,sans-Serif" font-size="10.00">QList</text>
</a>
</g>
</g>
<!-- Node9&#45;&gt;Node10 -->
<g id="edge13" class="edge">
<title>Node9&#45;&gt;Node10</title>
<path fill="none" stroke="midnightblue" d="M84,-168.08C83.61,-161.01 83.05,-150.86 82.55,-141.99"/>
<polygon fill="midnightblue" stroke="midnightblue" points="86.04,-141.54 81.99,-131.75 79.05,-141.93 86.04,-141.54"/>
</g>
</g>
</svg>
