<?xml version="1.0" encoding="UTF-8" standalone="no"?>
<!DOCTYPE svg PUBLIC "-//W3C//DTD SVG 1.1//EN"
 "http://www.w3.org/Graphics/SVG/1.1/DTD/svg11.dtd">
<!-- Generated by graphviz version 2.43.0 (0)
 -->
<!-- Title: timestampcorrelationmessage.cpp Pages: 1 -->
<svg width="506pt" height="364pt"
 viewBox="0.00 0.00 505.50 364.00" xmlns="http://www.w3.org/2000/svg" xmlns:xlink="http://www.w3.org/1999/xlink">
<g id="graph0" class="graph" transform="scale(1 1) rotate(0) translate(4 360)">
<title>timestampcorrelationmessage.cpp</title>
<!-- Node1 -->
<g id="node1" class="node">
<title>Node1</title>
<g id="a_node1"><a xlink:title="Defines the TimestampCorrelationMessage, and TimestampCorrelationMessagePrivate classes.">
<polygon fill="#bfbfbf" stroke="black" points="253.5,-336.5 253.5,-355.5 440.5,-355.5 440.5,-336.5 253.5,-336.5"/>
<text text-anchor="middle" x="347" y="-343.5" font-family="Helvetica,sans-Serif" font-size="10.00">timestampcorrelationmessage.cpp</text>
</a>
</g>
</g>
<!-- Node2 -->
<g id="node2" class="node">
<title>Node2</title>
<g id="a_node2"><a xlink:href="timestampcorrelationmessage_8h.html" target="_top" xlink:title="Declares the TimestampCorrelationMessage class.">
<polygon fill="none" stroke="black" points="0,-280.5 0,-299.5 176,-299.5 176,-280.5 0,-280.5"/>
<text text-anchor="middle" x="88" y="-287.5" font-family="Helvetica,sans-Serif" font-size="10.00">timestampcorrelationmessage.h</text>
</a>
</g>
</g>
<!-- Node1&#45;&gt;Node2 -->
<g id="edge1" class="edge">
<title>Node1&#45;&gt;Node2</title>
<path fill="none" stroke="midnightblue" d="M305.96,-336.44C260.68,-327 187.77,-311.8 138.89,-301.61"/>
<polygon fill="midnightblue" stroke="midnightblue" points="139.35,-298.13 128.85,-299.52 137.92,-304.98 139.35,-298.13"/>
</g>
<!-- Node7 -->
<g id="node7" class="node">
<title>Node7</title>
<g id="a_node7"><a xlink:title=" ">
<polygon fill="none" stroke="#bfbfbf" points="339,-56.5 339,-75.5 395,-75.5 395,-56.5 339,-56.5"/>
<text text-anchor="middle" x="367" y="-63.5" font-family="Helvetica,sans-Serif" font-size="10.00">QDebug</text>
</a>
</g>
</g>
<!-- Node1&#45;&gt;Node7 -->
<g id="edge15" class="edge">
<title>Node1&#45;&gt;Node7</title>
<path fill="none" stroke="midnightblue" d="M357.44,-336.4C366.96,-328.03 380.75,-314.49 389,-300 403.89,-273.85 408,-265.1 408,-235 408,-235 408,-235 408,-177 408,-142.52 390.09,-105.56 377.94,-84.47"/>
<polygon fill="midnightblue" stroke="midnightblue" points="380.84,-82.49 372.7,-75.71 374.84,-86.09 380.84,-82.49"/>
</g>
<!-- Node8 -->
<g id="node8" class="node">
<title>Node8</title>
<g id="a_node8"><a xlink:href="timestampcorrelationmessage__p_8h.html" target="_top" xlink:title="Declares the TimestampCorrelationMessagePrivate class.">
<polygon fill="none" stroke="black" points="193.5,-280.5 193.5,-299.5 380.5,-299.5 380.5,-280.5 193.5,-280.5"/>
<text text-anchor="middle" x="287" y="-287.5" font-family="Helvetica,sans-Serif" font-size="10.00">timestampcorrelationmessage_p.h</text>
</a>
</g>
</g>
<!-- Node1&#45;&gt;Node8 -->
<g id="edge8" class="edge">
<title>Node1&#45;&gt;Node8</title>
<path fill="none" stroke="midnightblue" d="M337.36,-336.32C328.49,-328.34 315.13,-316.31 304.39,-306.65"/>
<polygon fill="midnightblue" stroke="midnightblue" points="306.59,-303.92 296.82,-299.83 301.91,-309.13 306.59,-303.92"/>
</g>
<!-- Node12 -->
<g id="node12" class="node">
<title>Node12</title>
<g id="a_node12"><a xlink:title=" ">
<polygon fill="none" stroke="#bfbfbf" points="436.5,-280.5 436.5,-299.5 497.5,-299.5 497.5,-280.5 436.5,-280.5"/>
<text text-anchor="middle" x="467" y="-287.5" font-family="Helvetica,sans-Serif" font-size="10.00">QtEndian</text>
</a>
</g>
</g>
<!-- Node1&#45;&gt;Node12 -->
<g id="edge16" class="edge">
<title>Node1&#45;&gt;Node12</title>
<path fill="none" stroke="midnightblue" d="M366.01,-336.44C385.59,-327.64 416.31,-313.81 438.73,-303.72"/>
<polygon fill="midnightblue" stroke="midnightblue" points="440.39,-306.81 448.07,-299.52 437.52,-300.43 440.39,-306.81"/>
</g>
<!-- Node3 -->
<g id="node3" class="node">
<title>Node3</title>
<g id="a_node3"><a xlink:href="abstractdatamessage_8h.html" target="_top" xlink:title="Declares the AbstractDataMessage class.">
<polygon fill="none" stroke="black" points="75.5,-168.5 75.5,-187.5 206.5,-187.5 206.5,-168.5 75.5,-168.5"/>
<text text-anchor="middle" x="141" y="-175.5" font-family="Helvetica,sans-Serif" font-size="10.00">abstractdatamessage.h</text>
</a>
</g>
</g>
<!-- Node2&#45;&gt;Node3 -->
<g id="edge2" class="edge">
<title>Node2&#45;&gt;Node3</title>
<path fill="none" stroke="midnightblue" d="M92.16,-280.37C100.83,-262.38 120.98,-220.55 132.51,-196.63"/>
<polygon fill="midnightblue" stroke="midnightblue" points="135.67,-198.12 136.86,-187.59 129.37,-195.08 135.67,-198.12"/>
</g>
<!-- Node4 -->
<g id="node4" class="node">
<title>Node4</title>
<g id="a_node4"><a xlink:href="QtFit__global_8h.html" target="_top" xlink:title="Global QtFit library macros.">
<polygon fill="none" stroke="black" points="193,-56.5 193,-75.5 277,-75.5 277,-56.5 193,-56.5"/>
<text text-anchor="middle" x="235" y="-63.5" font-family="Helvetica,sans-Serif" font-size="10.00">QtFit_global.h</text>
</a>
</g>
</g>
<!-- Node3&#45;&gt;Node4 -->
<g id="edge3" class="edge">
<title>Node3&#45;&gt;Node4</title>
<path fill="none" stroke="midnightblue" d="M148.38,-168.37C164.03,-150.05 200.78,-107.05 221.02,-83.36"/>
<polygon fill="midnightblue" stroke="midnightblue" points="223.82,-85.47 227.66,-75.59 218.5,-80.92 223.82,-85.47"/>
</g>
<!-- Node6 -->
<g id="node6" class="node">
<title>Node6</title>
<g id="a_node6"><a xlink:href="types_8h.html" target="_top" xlink:title="Types defined by the ANT+ FIT SDK.">
<polygon fill="none" stroke="black" points="263.5,-112.5 263.5,-131.5 316.5,-131.5 316.5,-112.5 263.5,-112.5"/>
<text text-anchor="middle" x="290" y="-119.5" font-family="Helvetica,sans-Serif" font-size="10.00">types.h</text>
</a>
</g>
</g>
<!-- Node3&#45;&gt;Node6 -->
<g id="edge5" class="edge">
<title>Node3&#45;&gt;Node6</title>
<path fill="none" stroke="midnightblue" d="M164.61,-168.44C189.46,-159.44 228.77,-145.19 256.75,-135.05"/>
<polygon fill="midnightblue" stroke="midnightblue" points="258.29,-138.21 266.5,-131.52 255.91,-131.63 258.29,-138.21"/>
</g>
<!-- Node5 -->
<g id="node5" class="node">
<title>Node5</title>
<g id="a_node5"><a xlink:title=" ">
<polygon fill="none" stroke="#bfbfbf" points="205.5,-0.5 205.5,-19.5 264.5,-19.5 264.5,-0.5 205.5,-0.5"/>
<text text-anchor="middle" x="235" y="-7.5" font-family="Helvetica,sans-Serif" font-size="10.00">QtGlobal</text>
</a>
</g>
</g>
<!-- Node4&#45;&gt;Node5 -->
<g id="edge4" class="edge">
<title>Node4&#45;&gt;Node5</title>
<path fill="none" stroke="midnightblue" d="M235,-56.08C235,-49.01 235,-38.86 235,-29.99"/>
<polygon fill="midnightblue" stroke="midnightblue" points="238.5,-29.75 235,-19.75 231.5,-29.75 238.5,-29.75"/>
</g>
<!-- Node6&#45;&gt;Node4 -->
<g id="edge6" class="edge">
<title>Node6&#45;&gt;Node4</title>
<path fill="none" stroke="midnightblue" d="M280.92,-112.08C272.83,-104.14 260.8,-92.34 251.09,-82.8"/>
<polygon fill="midnightblue" stroke="midnightblue" points="253.5,-80.26 243.91,-75.75 248.6,-85.25 253.5,-80.26"/>
</g>
<!-- Node6&#45;&gt;Node7 -->
<g id="edge7" class="edge">
<title>Node6&#45;&gt;Node7</title>
<path fill="none" stroke="midnightblue" d="M302.37,-112.32C314.16,-104.06 332.13,-91.45 346.14,-81.63"/>
<polygon fill="midnightblue" stroke="midnightblue" points="348.48,-84.26 354.66,-75.65 344.46,-78.53 348.48,-84.26"/>
</g>
<!-- Node9 -->
<g id="node9" class="node">
<title>Node9</title>
<g id="a_node9"><a xlink:href="abstractdatamessage__p_8h.html" target="_top" xlink:title="Declares the AbstractDataMessagePrivate class.">
<polygon fill="none" stroke="black" points="215.5,-224.5 215.5,-243.5 358.5,-243.5 358.5,-224.5 215.5,-224.5"/>
<text text-anchor="middle" x="287" y="-231.5" font-family="Helvetica,sans-Serif" font-size="10.00">abstractdatamessage_p.h</text>
</a>
</g>
</g>
<!-- Node8&#45;&gt;Node9 -->
<g id="edge9" class="edge">
<title>Node8&#45;&gt;Node9</title>
<path fill="none" stroke="midnightblue" d="M287,-280.08C287,-273.01 287,-262.86 287,-253.99"/>
<polygon fill="midnightblue" stroke="midnightblue" points="290.5,-253.75 287,-243.75 283.5,-253.75 290.5,-253.75"/>
</g>
<!-- Node9&#45;&gt;Node4 -->
<g id="edge10" class="edge">
<title>Node9&#45;&gt;Node4</title>
<path fill="none" stroke="midnightblue" d="M284.08,-224.38C278.21,-206.98 264.63,-166.36 254,-132 249.17,-116.38 243.98,-98.55 240.25,-85.52"/>
<polygon fill="midnightblue" stroke="midnightblue" points="243.6,-84.52 237.49,-75.86 236.87,-86.43 243.6,-84.52"/>
</g>
<!-- Node9&#45;&gt;Node6 -->
<g id="edge11" class="edge">
<title>Node9&#45;&gt;Node6</title>
<path fill="none" stroke="midnightblue" d="M287.24,-224.37C287.72,-206.62 288.84,-165.67 289.49,-141.6"/>
<polygon fill="midnightblue" stroke="midnightblue" points="292.99,-141.68 289.77,-131.59 285.99,-141.49 292.99,-141.68"/>
</g>
<!-- Node10 -->
<g id="node10" class="node">
<title>Node10</title>
<g id="a_node10"><a xlink:href="types__p_8h.html" target="_top" xlink:title="Internal types used by QtFit classes.">
<polygon fill="none" stroke="black" points="315,-168.5 315,-187.5 379,-187.5 379,-168.5 315,-168.5"/>
<text text-anchor="middle" x="347" y="-175.5" font-family="Helvetica,sans-Serif" font-size="10.00">types_p.h</text>
</a>
</g>
</g>
<!-- Node9&#45;&gt;Node10 -->
<g id="edge12" class="edge">
<title>Node9&#45;&gt;Node10</title>
<path fill="none" stroke="midnightblue" d="M296.64,-224.32C305.51,-216.34 318.87,-204.31 329.61,-194.65"/>
<polygon fill="midnightblue" stroke="midnightblue" points="332.09,-197.13 337.18,-187.83 327.41,-191.92 332.09,-197.13"/>
</g>
<!-- Node10&#45;&gt;Node6 -->
<g id="edge13" class="edge">
<title>Node10&#45;&gt;Node6</title>
<path fill="none" stroke="midnightblue" d="M337.84,-168.32C329.5,-160.42 316.97,-148.55 306.82,-138.94"/>
<polygon fill="midnightblue" stroke="midnightblue" points="308.99,-136.17 299.32,-131.83 304.18,-141.25 308.99,-136.17"/>
</g>
<!-- Node11 -->
<g id="node11" class="node">
<title>Node11</title>
<g id="a_node11"><a xlink:title=" ">
<polygon fill="none" stroke="#bfbfbf" points="334.5,-112.5 334.5,-131.5 375.5,-131.5 375.5,-112.5 334.5,-112.5"/>
<text text-anchor="middle" x="355" y="-119.5" font-family="Helvetica,sans-Serif" font-size="10.00">QList</text>
</a>
</g>
</g>
<!-- Node10&#45;&gt;Node11 -->
<g id="edge14" class="edge">
<title>Node10&#45;&gt;Node11</title>
<path fill="none" stroke="midnightblue" d="M348.32,-168.08C349.38,-160.93 350.91,-150.64 352.23,-141.69"/>
<polygon fill="midnightblue" stroke="midnightblue" points="355.7,-142.16 353.7,-131.75 348.78,-141.13 355.7,-142.16"/>
</g>
</g>
</svg>
