<?xml version="1.0" encoding="UTF-8" standalone="no"?>
<!DOCTYPE svg PUBLIC "-//W3C//DTD SVG 1.1//EN"
 "http://www.w3.org/Graphics/SVG/1.1/DTD/svg11.dtd">
<!-- Generated by graphviz version 2.43.0 (0)
 -->
<!-- Title: trainingfilemessage_p.h Pages: 1 -->
<svg width="170pt" height="308pt"
 viewBox="0.00 0.00 169.50 308.00" xmlns="http://www.w3.org/2000/svg" xmlns:xlink="http://www.w3.org/1999/xlink">
<g id="graph0" class="graph" transform="scale(1 1) rotate(0) translate(4 304)">
<title>trainingfilemessage_p.h</title>
<!-- Node1 -->
<g id="node1" class="node">
<title>Node1</title>
<g id="a_node1"><a xlink:title=" ">
<polygon fill="#bfbfbf" stroke="black" points="0,-280.5 0,-299.5 134,-299.5 134,-280.5 0,-280.5"/>
<text text-anchor="middle" x="67" y="-287.5" font-family="Helvetica,sans-Serif" font-size="10.00">trainingfilemessage_p.h</text>
</a>
</g>
</g>
<!-- Node2 -->
<g id="node2" class="node">
<title>Node2</title>
<g id="a_node2"><a xlink:href="fitdatamessage__p_8h.html" target="_top" xlink:title=" ">
<polygon fill="none" stroke="black" points="10.5,-224.5 10.5,-243.5 123.5,-243.5 123.5,-224.5 10.5,-224.5"/>
<text text-anchor="middle" x="67" y="-231.5" font-family="Helvetica,sans-Serif" font-size="10.00">fitdatamessage_p.h</text>
</a>
</g>
</g>
<!-- Node1&#45;&gt;Node2 -->
<g id="edge1" class="edge">
<title>Node1&#45;&gt;Node2</title>
<path fill="none" stroke="midnightblue" d="M67,-280.08C67,-273.01 67,-262.86 67,-253.99"/>
<polygon fill="midnightblue" stroke="midnightblue" points="70.5,-253.75 67,-243.75 63.5,-253.75 70.5,-253.75"/>
</g>
<!-- Node3 -->
<g id="node3" class="node">
<title>Node3</title>
<g id="a_node3"><a xlink:href="QtFit__global_8h.html" target="_top" xlink:title=" ">
<polygon fill="none" stroke="black" points="6,-56.5 6,-75.5 90,-75.5 90,-56.5 6,-56.5"/>
<text text-anchor="middle" x="48" y="-63.5" font-family="Helvetica,sans-Serif" font-size="10.00">QtFit_global.h</text>
</a>
</g>
</g>
<!-- Node2&#45;&gt;Node3 -->
<g id="edge2" class="edge">
<title>Node2&#45;&gt;Node3</title>
<path fill="none" stroke="midnightblue" d="M63.15,-224.32C54.82,-204.61 36.22,-154.88 40,-112 40.78,-103.2 42.39,-93.54 43.97,-85.43"/>
<polygon fill="midnightblue" stroke="midnightblue" points="47.41,-86.07 46.01,-75.57 40.56,-84.65 47.41,-86.07"/>
</g>
<!-- Node5 -->
<g id="node5" class="node">
<title>Node5</title>
<g id="a_node5"><a xlink:href="types_8h.html" target="_top" xlink:title="Types defined by the ANT+ FIT SDK.">
<polygon fill="none" stroke="black" points="49.5,-112.5 49.5,-131.5 102.5,-131.5 102.5,-112.5 49.5,-112.5"/>
<text text-anchor="middle" x="76" y="-119.5" font-family="Helvetica,sans-Serif" font-size="10.00">types.h</text>
</a>
</g>
</g>
<!-- Node2&#45;&gt;Node5 -->
<g id="edge4" class="edge">
<title>Node2&#45;&gt;Node5</title>
<path fill="none" stroke="midnightblue" d="M67.71,-224.37C69.16,-206.62 72.51,-165.67 74.48,-141.6"/>
<polygon fill="midnightblue" stroke="midnightblue" points="77.97,-141.84 75.3,-131.59 70.99,-141.27 77.97,-141.84"/>
</g>
<!-- Node6 -->
<g id="node6" class="node">
<title>Node6</title>
<g id="a_node6"><a xlink:href="types__p_8h.html" target="_top" xlink:title=" ">
<polygon fill="none" stroke="black" points="95,-168.5 95,-187.5 159,-187.5 159,-168.5 95,-168.5"/>
<text text-anchor="middle" x="127" y="-175.5" font-family="Helvetica,sans-Serif" font-size="10.00">types_p.h</text>
</a>
</g>
</g>
<!-- Node2&#45;&gt;Node6 -->
<g id="edge6" class="edge">
<title>Node2&#45;&gt;Node6</title>
<path fill="none" stroke="midnightblue" d="M76.64,-224.32C85.51,-216.34 98.87,-204.31 109.61,-194.65"/>
<polygon fill="midnightblue" stroke="midnightblue" points="112.09,-197.13 117.18,-187.83 107.41,-191.92 112.09,-197.13"/>
</g>
<!-- Node4 -->
<g id="node4" class="node">
<title>Node4</title>
<g id="a_node4"><a xlink:title=" ">
<polygon fill="none" stroke="#bfbfbf" points="18.5,-0.5 18.5,-19.5 77.5,-19.5 77.5,-0.5 18.5,-0.5"/>
<text text-anchor="middle" x="48" y="-7.5" font-family="Helvetica,sans-Serif" font-size="10.00">QtGlobal</text>
</a>
</g>
</g>
<!-- Node3&#45;&gt;Node4 -->
<g id="edge3" class="edge">
<title>Node3&#45;&gt;Node4</title>
<path fill="none" stroke="midnightblue" d="M48,-56.08C48,-49.01 48,-38.86 48,-29.99"/>
<polygon fill="midnightblue" stroke="midnightblue" points="51.5,-29.75 48,-19.75 44.5,-29.75 51.5,-29.75"/>
</g>
<!-- Node5&#45;&gt;Node3 -->
<g id="edge5" class="edge">
<title>Node5&#45;&gt;Node3</title>
<path fill="none" stroke="midnightblue" d="M71.38,-112.08C67.54,-104.69 61.98,-93.95 57.24,-84.81"/>
<polygon fill="midnightblue" stroke="midnightblue" points="60.25,-83.02 52.54,-75.75 54.03,-86.24 60.25,-83.02"/>
</g>
<!-- Node6&#45;&gt;Node5 -->
<g id="edge7" class="edge">
<title>Node6&#45;&gt;Node5</title>
<path fill="none" stroke="midnightblue" d="M118.58,-168.08C111.15,-160.22 100.15,-148.57 91.19,-139.08"/>
<polygon fill="midnightblue" stroke="midnightblue" points="93.68,-136.62 84.26,-131.75 88.59,-141.42 93.68,-136.62"/>
</g>
<!-- Node7 -->
<g id="node7" class="node">
<title>Node7</title>
<g id="a_node7"><a xlink:title=" ">
<polygon fill="none" stroke="#bfbfbf" points="120.5,-112.5 120.5,-131.5 161.5,-131.5 161.5,-112.5 120.5,-112.5"/>
<text text-anchor="middle" x="141" y="-119.5" font-family="Helvetica,sans-Serif" font-size="10.00">QList</text>
</a>
</g>
</g>
<!-- Node6&#45;&gt;Node7 -->
<g id="edge8" class="edge">
<title>Node6&#45;&gt;Node7</title>
<path fill="none" stroke="midnightblue" d="M129.31,-168.08C131.17,-160.93 133.84,-150.64 136.15,-141.69"/>
<polygon fill="midnightblue" stroke="midnightblue" points="139.61,-142.31 138.73,-131.75 132.83,-140.55 139.61,-142.31"/>
</g>
</g>
</svg>
