<?xml version="1.0" encoding="UTF-8" standalone="no"?>
<!DOCTYPE svg PUBLIC "-//W3C//DTD SVG 1.1//EN"
 "http://www.w3.org/Graphics/SVG/1.1/DTD/svg11.dtd">
<!-- Generated by graphviz version 2.43.0 (0)
 -->
<!-- Title: types.h Pages: 1 -->
<svg width="697pt" height="252pt"
 viewBox="0.00 0.00 697.50 252.00" xmlns="http://www.w3.org/2000/svg" xmlns:xlink="http://www.w3.org/1999/xlink">
<g id="graph0" class="graph" transform="scale(1 1) rotate(0) translate(4 248)">
<title>types.h</title>
<!-- Node1 -->
<g id="node1" class="node">
<title>Node1</title>
<g id="a_node1"><a xlink:title="Types defined by the ANT+ FIT SDK.">
<polygon fill="#bfbfbf" stroke="black" points="240,-224.5 240,-243.5 293,-243.5 293,-224.5 240,-224.5"/>
<text text-anchor="middle" x="266.5" y="-231.5" font-family="Helvetica,sans-Serif" font-size="10.00">types.h</text>
</a>
</g>
</g>
<!-- Node2 -->
<g id="node2" class="node">
<title>Node2</title>
<g id="a_node2"><a xlink:href="fitdatamessage_8h.html" target="_top" xlink:title=" ">
<polygon fill="none" stroke="black" points="322,-168.5 322,-187.5 423,-187.5 423,-168.5 322,-168.5"/>
<text text-anchor="middle" x="372.5" y="-175.5" font-family="Helvetica,sans-Serif" font-size="10.00">fitdatamessage.h</text>
</a>
</g>
</g>
<!-- Node1&#45;&gt;Node2 -->
<g id="edge1" class="edge">
<title>Node1&#45;&gt;Node2</title>
<path fill="none" stroke="midnightblue" d="M292.56,-219.73C312.18,-209.73 338.53,-196.31 355.51,-187.65"/>
<polygon fill="midnightblue" stroke="midnightblue" points="290.85,-216.67 283.53,-224.32 294.03,-222.9 290.85,-216.67"/>
</g>
<!-- Node9 -->
<g id="node9" class="node">
<title>Node9</title>
<g id="a_node9"><a xlink:href="fitdatamessage__p_8h.html" target="_top" xlink:title=" ">
<polygon fill="none" stroke="black" points="123,-112.5 123,-131.5 236,-131.5 236,-112.5 123,-112.5"/>
<text text-anchor="middle" x="179.5" y="-119.5" font-family="Helvetica,sans-Serif" font-size="10.00">fitdatamessage_p.h</text>
</a>
</g>
</g>
<!-- Node1&#45;&gt;Node9 -->
<g id="edge10" class="edge">
<title>Node1&#45;&gt;Node9</title>
<path fill="none" stroke="midnightblue" d="M251.06,-217.02C243.15,-208.61 233.53,-197.99 225.5,-188 209.9,-168.61 193.5,-144.35 185.13,-131.66"/>
<polygon fill="midnightblue" stroke="midnightblue" points="248.57,-219.49 258,-224.32 253.64,-214.66 248.57,-219.49"/>
</g>
<!-- Node11 -->
<g id="node11" class="node">
<title>Node11</title>
<g id="a_node11"><a xlink:href="types__p_8h.html" target="_top" xlink:title=" ">
<polygon fill="none" stroke="black" points="234.5,-168.5 234.5,-187.5 298.5,-187.5 298.5,-168.5 234.5,-168.5"/>
<text text-anchor="middle" x="266.5" y="-175.5" font-family="Helvetica,sans-Serif" font-size="10.00">types_p.h</text>
</a>
</g>
</g>
<!-- Node1&#45;&gt;Node11 -->
<g id="edge15" class="edge">
<title>Node1&#45;&gt;Node11</title>
<path fill="none" stroke="midnightblue" d="M266.5,-213.8C266.5,-204.91 266.5,-194.78 266.5,-187.75"/>
<polygon fill="midnightblue" stroke="midnightblue" points="263,-214.08 266.5,-224.08 270,-214.08 263,-214.08"/>
</g>
<!-- Node3 -->
<g id="node3" class="node">
<title>Node3</title>
<g id="a_node3"><a xlink:href="fileidmessage_8h.html" target="_top" xlink:title=" ">
<polygon fill="none" stroke="black" points="330.5,-112.5 330.5,-131.5 424.5,-131.5 424.5,-112.5 330.5,-112.5"/>
<text text-anchor="middle" x="377.5" y="-119.5" font-family="Helvetica,sans-Serif" font-size="10.00">fileidmessage.h</text>
</a>
</g>
</g>
<!-- Node2&#45;&gt;Node3 -->
<g id="edge2" class="edge">
<title>Node2&#45;&gt;Node3</title>
<path fill="none" stroke="midnightblue" d="M374.25,-158.1C375.08,-149.14 376.03,-138.86 376.69,-131.75"/>
<polygon fill="midnightblue" stroke="midnightblue" points="370.76,-157.8 373.33,-168.08 377.73,-158.45 370.76,-157.8"/>
</g>
<!-- Node5 -->
<g id="node5" class="node">
<title>Node5</title>
<g id="a_node5"><a xlink:href="fitdatamessages_8cpp.html" target="_top" xlink:title=" ">
<polygon fill="none" stroke="black" points="254.5,-56.5 254.5,-75.5 372.5,-75.5 372.5,-56.5 254.5,-56.5"/>
<text text-anchor="middle" x="313.5" y="-63.5" font-family="Helvetica,sans-Serif" font-size="10.00">fitdatamessages.cpp</text>
</a>
</g>
</g>
<!-- Node2&#45;&gt;Node5 -->
<g id="edge6" class="edge">
<title>Node2&#45;&gt;Node5</title>
<path fill="none" stroke="midnightblue" d="M349.47,-162.45C339.18,-154.7 327.95,-144.24 321.5,-132 311.85,-113.69 311.88,-88.56 312.7,-75.57"/>
<polygon fill="midnightblue" stroke="midnightblue" points="347.57,-165.4 357.76,-168.3 351.61,-159.68 347.57,-165.4"/>
</g>
<!-- Node6 -->
<g id="node6" class="node">
<title>Node6</title>
<g id="a_node6"><a xlink:href="fitdatamessage_8cpp.html" target="_top" xlink:title=" ">
<polygon fill="none" stroke="black" points="123,-56.5 123,-75.5 236,-75.5 236,-56.5 123,-56.5"/>
<text text-anchor="middle" x="179.5" y="-63.5" font-family="Helvetica,sans-Serif" font-size="10.00">fitdatamessage.cpp</text>
</a>
</g>
</g>
<!-- Node2&#45;&gt;Node6 -->
<g id="edge5" class="edge">
<title>Node2&#45;&gt;Node6</title>
<path fill="none" stroke="midnightblue" d="M348.46,-163.3C308.12,-140.3 227.91,-94.59 194.57,-75.59"/>
<polygon fill="midnightblue" stroke="midnightblue" points="346.93,-166.46 357.36,-168.37 350.4,-160.38 346.93,-166.46"/>
</g>
<!-- Node7 -->
<g id="node7" class="node">
<title>Node7</title>
<g id="a_node7"><a xlink:href="fitstreamreader_8cpp.html" target="_top" xlink:title=" ">
<polygon fill="none" stroke="black" points="568.5,-56.5 568.5,-75.5 680.5,-75.5 680.5,-56.5 568.5,-56.5"/>
<text text-anchor="middle" x="624.5" y="-63.5" font-family="Helvetica,sans-Serif" font-size="10.00">fitstreamreader.cpp</text>
</a>
</g>
</g>
<!-- Node2&#45;&gt;Node7 -->
<g id="edge7" class="edge">
<title>Node2&#45;&gt;Node7</title>
<path fill="none" stroke="midnightblue" d="M433.34,-177.26C514.77,-176.16 652.67,-168.75 684.5,-132 702.4,-111.34 666.4,-87.98 642.8,-75.67"/>
<polygon fill="midnightblue" stroke="midnightblue" points="433.18,-173.76 423.21,-177.37 433.25,-180.76 433.18,-173.76"/>
</g>
<!-- Node8 -->
<g id="node8" class="node">
<title>Node8</title>
<g id="a_node8"><a xlink:href="fitstreamreader_8h.html" target="_top" xlink:title=" ">
<polygon fill="none" stroke="black" points="574,-112.5 574,-131.5 675,-131.5 675,-112.5 574,-112.5"/>
<text text-anchor="middle" x="624.5" y="-119.5" font-family="Helvetica,sans-Serif" font-size="10.00">fitstreamreader.h</text>
</a>
</g>
</g>
<!-- Node2&#45;&gt;Node8 -->
<g id="edge8" class="edge">
<title>Node2&#45;&gt;Node8</title>
<path fill="none" stroke="midnightblue" d="M422.22,-166.35C469.84,-156.14 540.78,-140.94 584.76,-131.52"/>
<polygon fill="midnightblue" stroke="midnightblue" points="421.47,-162.93 412.43,-168.44 422.94,-169.77 421.47,-162.93"/>
</g>
<!-- Node4 -->
<g id="node4" class="node">
<title>Node4</title>
<g id="a_node4"><a xlink:href="fileidmessage_8cpp.html" target="_top" xlink:title=" ">
<polygon fill="none" stroke="black" points="174,-0.5 174,-19.5 279,-19.5 279,-0.5 174,-0.5"/>
<text text-anchor="middle" x="226.5" y="-7.5" font-family="Helvetica,sans-Serif" font-size="10.00">fileidmessage.cpp</text>
</a>
</g>
</g>
<!-- Node3&#45;&gt;Node4 -->
<g id="edge3" class="edge">
<title>Node3&#45;&gt;Node4</title>
<path fill="none" stroke="midnightblue" d="M384.52,-102.8C388.69,-88.65 391.45,-69.26 381.5,-56 369.05,-39.42 319.19,-26.97 279.34,-19.42"/>
<polygon fill="midnightblue" stroke="midnightblue" points="381.15,-101.82 381.24,-112.41 387.78,-104.08 381.15,-101.82"/>
</g>
<!-- Node3&#45;&gt;Node5 -->
<g id="edge4" class="edge">
<title>Node3&#45;&gt;Node5</title>
<path fill="none" stroke="midnightblue" d="M359.51,-105.82C348.04,-96.15 333.59,-83.95 323.97,-75.83"/>
<polygon fill="midnightblue" stroke="midnightblue" points="357.32,-108.55 367.22,-112.32 361.83,-103.2 357.32,-108.55"/>
</g>
<!-- Node8&#45;&gt;Node7 -->
<g id="edge9" class="edge">
<title>Node8&#45;&gt;Node7</title>
<path fill="none" stroke="midnightblue" d="M624.5,-101.8C624.5,-92.91 624.5,-82.78 624.5,-75.75"/>
<polygon fill="midnightblue" stroke="midnightblue" points="621,-102.08 624.5,-112.08 628,-102.08 621,-102.08"/>
</g>
<!-- Node9&#45;&gt;Node5 -->
<g id="edge14" class="edge">
<title>Node9&#45;&gt;Node5</title>
<path fill="none" stroke="midnightblue" d="M210.18,-108.64C235.32,-98.5 270.25,-84.43 292.37,-75.52"/>
<polygon fill="midnightblue" stroke="midnightblue" points="208.7,-105.46 200.73,-112.44 211.32,-111.95 208.7,-105.46"/>
</g>
<!-- Node9&#45;&gt;Node6 -->
<g id="edge13" class="edge">
<title>Node9&#45;&gt;Node6</title>
<path fill="none" stroke="midnightblue" d="M179.5,-101.8C179.5,-92.91 179.5,-82.78 179.5,-75.75"/>
<polygon fill="midnightblue" stroke="midnightblue" points="176,-102.08 179.5,-112.08 183,-102.08 176,-102.08"/>
</g>
<!-- Node10 -->
<g id="node10" class="node">
<title>Node10</title>
<g id="a_node10"><a xlink:href="fileidmessage__p_8h.html" target="_top" xlink:title=" ">
<polygon fill="none" stroke="black" points="0,-56.5 0,-75.5 105,-75.5 105,-56.5 0,-56.5"/>
<text text-anchor="middle" x="52.5" y="-63.5" font-family="Helvetica,sans-Serif" font-size="10.00">fileidmessage_p.h</text>
</a>
</g>
</g>
<!-- Node9&#45;&gt;Node10 -->
<g id="edge11" class="edge">
<title>Node9&#45;&gt;Node10</title>
<path fill="none" stroke="midnightblue" d="M150.11,-108.5C126.3,-98.38 93.39,-84.39 72.53,-75.52"/>
<polygon fill="midnightblue" stroke="midnightblue" points="148.8,-111.75 159.38,-112.44 151.54,-105.31 148.8,-111.75"/>
</g>
<!-- Node10&#45;&gt;Node4 -->
<g id="edge12" class="edge">
<title>Node10&#45;&gt;Node4</title>
<path fill="none" stroke="midnightblue" d="M89.76,-53.44C122.57,-43.26 169.58,-28.66 199.06,-19.52"/>
<polygon fill="midnightblue" stroke="midnightblue" points="88.58,-50.14 80.07,-56.44 90.66,-56.82 88.58,-50.14"/>
</g>
<!-- Node11&#45;&gt;Node9 -->
<g id="edge16" class="edge">
<title>Node11&#45;&gt;Node9</title>
<path fill="none" stroke="midnightblue" d="M243.78,-162.9C227.83,-153 207,-140.07 193.44,-131.65"/>
<polygon fill="midnightblue" stroke="midnightblue" points="242.18,-166.02 252.52,-168.32 245.87,-160.08 242.18,-166.02"/>
</g>
<!-- Node12 -->
<g id="node12" class="node">
<title>Node12</title>
<g id="a_node12"><a xlink:href="fitstreamreader__p_8h.html" target="_top" xlink:title=" ">
<polygon fill="none" stroke="black" points="443,-112.5 443,-131.5 556,-131.5 556,-112.5 443,-112.5"/>
<text text-anchor="middle" x="499.5" y="-119.5" font-family="Helvetica,sans-Serif" font-size="10.00">fitstreamreader_p.h</text>
</a>
</g>
</g>
<!-- Node11&#45;&gt;Node12 -->
<g id="edge17" class="edge">
<title>Node11&#45;&gt;Node12</title>
<path fill="none" stroke="midnightblue" d="M308.71,-167.22C352.7,-157.02 420.94,-141.21 462.77,-131.51"/>
<polygon fill="midnightblue" stroke="midnightblue" points="307.85,-163.82 298.9,-169.49 309.43,-170.64 307.85,-163.82"/>
</g>
<!-- Node12&#45;&gt;Node7 -->
<g id="edge18" class="edge">
<title>Node12&#45;&gt;Node7</title>
<path fill="none" stroke="midnightblue" d="M528.74,-108.37C552.15,-98.26 584.34,-84.35 604.79,-75.52"/>
<polygon fill="midnightblue" stroke="midnightblue" points="527.1,-105.26 519.31,-112.44 529.87,-111.69 527.1,-105.26"/>
</g>
</g>
</svg>
