<?xml version="1.0" encoding="UTF-8" standalone="no"?>
<!DOCTYPE svg PUBLIC "-//W3C//DTD SVG 1.1//EN"
 "http://www.w3.org/Graphics/SVG/1.1/DTD/svg11.dtd">
<!-- Generated by graphviz version 2.43.0 (0)
 -->
<!-- Title: types_p.h Pages: 1 -->
<svg width="7284pt" height="140pt"
 viewBox="0.00 0.00 7283.50 140.00" xmlns="http://www.w3.org/2000/svg" xmlns:xlink="http://www.w3.org/1999/xlink">
<g id="graph0" class="graph" transform="scale(1 1) rotate(0) translate(4 136)">
<title>types_p.h</title>
<!-- Node1 -->
<g id="node1" class="node">
<title>Node1</title>
<g id="a_node1"><a xlink:title=" ">
<polygon fill="#bfbfbf" stroke="black" points="3680.5,-112.5 3680.5,-131.5 3744.5,-131.5 3744.5,-112.5 3680.5,-112.5"/>
<text text-anchor="middle" x="3712.5" y="-119.5" font-family="Helvetica,sans-Serif" font-size="10.00">types_p.h</text>
</a>
</g>
</g>
<!-- Node2 -->
<g id="node2" class="node">
<title>Node2</title>
<g id="a_node2"><a xlink:href="fitdatamessage__p_8h.html" target="_top" xlink:title=" ">
<polygon fill="none" stroke="red" points="3591,-56.5 3591,-75.5 3704,-75.5 3704,-56.5 3591,-56.5"/>
<text text-anchor="middle" x="3647.5" y="-63.5" font-family="Helvetica,sans-Serif" font-size="10.00">fitdatamessage_p.h</text>
</a>
</g>
</g>
<!-- Node1&#45;&gt;Node2 -->
<g id="edge1" class="edge">
<title>Node1&#45;&gt;Node2</title>
<path fill="none" stroke="midnightblue" d="M3694.23,-105.82C3682.58,-96.15 3667.9,-83.95 3658.13,-75.83"/>
<polygon fill="midnightblue" stroke="midnightblue" points="3692.13,-108.63 3702.06,-112.32 3696.6,-103.24 3692.13,-108.63"/>
</g>
<!-- Node181 -->
<g id="node50" class="node">
<title>Node181</title>
<g id="a_node50"><a xlink:href="fitstreamreader__p_8h.html" target="_top" xlink:title=" ">
<polygon fill="none" stroke="red" points="3722,-56.5 3722,-75.5 3835,-75.5 3835,-56.5 3722,-56.5"/>
<text text-anchor="middle" x="3778.5" y="-63.5" font-family="Helvetica,sans-Serif" font-size="10.00">fitstreamreader_p.h</text>
</a>
</g>
</g>
<!-- Node1&#45;&gt;Node181 -->
<g id="edge49" class="edge">
<title>Node1&#45;&gt;Node181</title>
<path fill="none" stroke="midnightblue" d="M3731.05,-105.82C3742.88,-96.15 3757.79,-83.95 3767.7,-75.83"/>
<polygon fill="midnightblue" stroke="midnightblue" points="3728.63,-103.28 3723.1,-112.32 3733.06,-108.7 3728.63,-103.28"/>
</g>
<!-- Node3 -->
<g id="node3" class="node">
<title>Node3</title>
<g id="a_node3"><a xlink:href="accelerometerdatamessage__p_8h.html" target="_top" xlink:title=" ">
<polygon fill="none" stroke="red" points="0,-0.5 0,-19.5 173,-19.5 173,-0.5 0,-0.5"/>
<text text-anchor="middle" x="86.5" y="-7.5" font-family="Helvetica,sans-Serif" font-size="10.00">accelerometerdatamessage_p.h</text>
</a>
</g>
</g>
<!-- Node2&#45;&gt;Node3 -->
<g id="edge2" class="edge">
<title>Node2&#45;&gt;Node3</title>
<path fill="none" stroke="midnightblue" d="M3580.54,-64.87C3160.06,-63.92 879.56,-57.14 182.5,-20 179.41,-19.84 176.26,-19.65 173.08,-19.44"/>
<polygon fill="midnightblue" stroke="midnightblue" points="3580.69,-68.37 3590.7,-64.89 3580.71,-61.37 3580.69,-68.37"/>
</g>
<!-- Node5 -->
<g id="node4" class="node">
<title>Node5</title>
<g id="a_node4"><a xlink:href="activitymessage__p_8h.html" target="_top" xlink:title=" ">
<polygon fill="none" stroke="red" points="191.5,-0.5 191.5,-19.5 309.5,-19.5 309.5,-0.5 191.5,-0.5"/>
<text text-anchor="middle" x="250.5" y="-7.5" font-family="Helvetica,sans-Serif" font-size="10.00">activitymessage_p.h</text>
</a>
</g>
</g>
<!-- Node2&#45;&gt;Node5 -->
<g id="edge3" class="edge">
<title>Node2&#45;&gt;Node5</title>
<path fill="none" stroke="midnightblue" d="M3580.55,-65.17C3169.78,-66.08 985.97,-68.51 318.5,-20 315.65,-19.79 312.74,-19.55 309.8,-19.27"/>
<polygon fill="midnightblue" stroke="midnightblue" points="3580.79,-68.67 3590.78,-65.15 3580.77,-61.67 3580.79,-68.67"/>
</g>
<!-- Node7 -->
<g id="node5" class="node">
<title>Node7</title>
<g id="a_node5"><a xlink:href="antchannelidmessage__p_8h.html" target="_top" xlink:title=" ">
<polygon fill="none" stroke="red" points="327.5,-0.5 327.5,-19.5 471.5,-19.5 471.5,-0.5 327.5,-0.5"/>
<text text-anchor="middle" x="399.5" y="-7.5" font-family="Helvetica,sans-Serif" font-size="10.00">antchannelidmessage_p.h</text>
</a>
</g>
</g>
<!-- Node2&#45;&gt;Node7 -->
<g id="edge4" class="edge">
<title>Node2&#45;&gt;Node7</title>
<path fill="none" stroke="midnightblue" d="M3580.68,-64.93C3182.1,-64.38 1114.24,-59.62 480.5,-20 477.68,-19.82 474.8,-19.62 471.89,-19.39"/>
<polygon fill="midnightblue" stroke="midnightblue" points="3580.88,-68.43 3590.89,-64.94 3580.89,-61.43 3580.88,-68.43"/>
</g>
<!-- Node9 -->
<g id="node6" class="node">
<title>Node9</title>
<g id="a_node6"><a xlink:href="antrxmessage__p_8h.html" target="_top" xlink:title=" ">
<polygon fill="none" stroke="red" points="490,-0.5 490,-19.5 597,-19.5 597,-0.5 490,-0.5"/>
<text text-anchor="middle" x="543.5" y="-7.5" font-family="Helvetica,sans-Serif" font-size="10.00">antrxmessage_p.h</text>
</a>
</g>
</g>
<!-- Node2&#45;&gt;Node9 -->
<g id="edge5" class="edge">
<title>Node2&#45;&gt;Node9</title>
<path fill="none" stroke="midnightblue" d="M3580.52,-65.19C3190.83,-66.11 1212.05,-68.31 605.5,-20 602.79,-19.78 600.02,-19.52 597.22,-19.23"/>
<polygon fill="midnightblue" stroke="midnightblue" points="3580.79,-68.69 3590.78,-65.16 3580.77,-61.69 3580.79,-68.69"/>
</g>
<!-- Node11 -->
<g id="node7" class="node">
<title>Node11</title>
<g id="a_node7"><a xlink:href="anttxmessage__p_8h.html" target="_top" xlink:title=" ">
<polygon fill="none" stroke="red" points="615,-0.5 615,-19.5 722,-19.5 722,-0.5 615,-0.5"/>
<text text-anchor="middle" x="668.5" y="-7.5" font-family="Helvetica,sans-Serif" font-size="10.00">anttxmessage_p.h</text>
</a>
</g>
</g>
<!-- Node2&#45;&gt;Node11 -->
<g id="edge6" class="edge">
<title>Node2&#45;&gt;Node11</title>
<path fill="none" stroke="midnightblue" d="M3580.56,-65.14C3200.5,-65.75 1310.72,-66.39 730.5,-20 727.79,-19.78 725.02,-19.52 722.22,-19.23"/>
<polygon fill="midnightblue" stroke="midnightblue" points="3580.84,-68.64 3590.84,-65.12 3580.83,-61.64 3580.84,-68.64"/>
</g>
<!-- Node13 -->
<g id="node8" class="node">
<title>Node13</title>
<g id="a_node8"><a xlink:href="aviationattitudemessage__p_8h.html" target="_top" xlink:title=" ">
<polygon fill="none" stroke="red" points="740,-0.5 740,-19.5 899,-19.5 899,-0.5 740,-0.5"/>
<text text-anchor="middle" x="819.5" y="-7.5" font-family="Helvetica,sans-Serif" font-size="10.00">aviationattitudemessage_p.h</text>
</a>
</g>
</g>
<!-- Node2&#45;&gt;Node13 -->
<g id="edge7" class="edge">
<title>Node2&#45;&gt;Node13</title>
<path fill="none" stroke="midnightblue" d="M3580.6,-64.67C3214.67,-62.73 1452.08,-51.89 908.5,-20 905.4,-19.82 902.24,-19.61 899.05,-19.38"/>
<polygon fill="midnightblue" stroke="midnightblue" points="3580.74,-68.17 3590.76,-64.72 3580.78,-61.17 3580.74,-68.17"/>
</g>
<!-- Node15 -->
<g id="node9" class="node">
<title>Node15</title>
<g id="a_node9"><a xlink:href="barometerdatamessage__p_8h.html" target="_top" xlink:title=" ">
<polygon fill="none" stroke="red" points="917.5,-0.5 917.5,-19.5 1071.5,-19.5 1071.5,-0.5 917.5,-0.5"/>
<text text-anchor="middle" x="994.5" y="-7.5" font-family="Helvetica,sans-Serif" font-size="10.00">barometerdatamessage_p.h</text>
</a>
</g>
</g>
<!-- Node2&#45;&gt;Node15 -->
<g id="edge8" class="edge">
<title>Node2&#45;&gt;Node15</title>
<path fill="none" stroke="midnightblue" d="M3580.87,-64.62C3229.43,-62.47 1587.97,-50.94 1080.5,-20 1077.65,-19.83 1074.75,-19.63 1071.83,-19.41"/>
<polygon fill="midnightblue" stroke="midnightblue" points="3580.87,-68.12 3590.89,-64.68 3580.91,-61.12 3580.87,-68.12"/>
</g>
<!-- Node17 -->
<g id="node10" class="node">
<title>Node17</title>
<g id="a_node10"><a xlink:href="bikeprofilemessage__p_8h.html" target="_top" xlink:title=" ">
<polygon fill="none" stroke="red" points="1089.5,-0.5 1089.5,-19.5 1221.5,-19.5 1221.5,-0.5 1089.5,-0.5"/>
<text text-anchor="middle" x="1155.5" y="-7.5" font-family="Helvetica,sans-Serif" font-size="10.00">bikeprofilemessage_p.h</text>
</a>
</g>
</g>
<!-- Node2&#45;&gt;Node17 -->
<g id="edge9" class="edge">
<title>Node2&#45;&gt;Node17</title>
<path fill="none" stroke="midnightblue" d="M3580.71,-64.67C3241.4,-62.84 1706.15,-52.88 1230.5,-20 1227.62,-19.8 1224.68,-19.57 1221.72,-19.31"/>
<polygon fill="midnightblue" stroke="midnightblue" points="3580.85,-68.17 3590.87,-64.72 3580.89,-61.17 3580.85,-68.17"/>
</g>
<!-- Node19 -->
<g id="node11" class="node">
<title>Node19</title>
<g id="a_node11"><a xlink:href="bloodpressuremessage__p_8h.html" target="_top" xlink:title=" ">
<polygon fill="none" stroke="red" points="1239.5,-0.5 1239.5,-19.5 1389.5,-19.5 1389.5,-0.5 1239.5,-0.5"/>
<text text-anchor="middle" x="1314.5" y="-7.5" font-family="Helvetica,sans-Serif" font-size="10.00">bloodpressuremessage_p.h</text>
</a>
</g>
</g>
<!-- Node2&#45;&gt;Node19 -->
<g id="edge10" class="edge">
<title>Node2&#45;&gt;Node19</title>
<path fill="none" stroke="midnightblue" d="M3580.42,-64.44C3255.07,-61.63 1839,-47.95 1398.5,-20 1395.57,-19.81 1392.59,-19.6 1389.58,-19.37"/>
<polygon fill="midnightblue" stroke="midnightblue" points="3580.6,-67.95 3590.63,-64.53 3580.66,-60.95 3580.6,-67.95"/>
</g>
<!-- Node21 -->
<g id="node12" class="node">
<title>Node21</title>
<g id="a_node12"><a xlink:href="cadencezonemessage__p_8h.html" target="_top" xlink:title=" ">
<polygon fill="none" stroke="red" points="1408,-0.5 1408,-19.5 1553,-19.5 1553,-0.5 1408,-0.5"/>
<text text-anchor="middle" x="1480.5" y="-7.5" font-family="Helvetica,sans-Serif" font-size="10.00">cadencezonemessage_p.h</text>
</a>
</g>
</g>
<!-- Node2&#45;&gt;Node21 -->
<g id="edge11" class="edge">
<title>Node2&#45;&gt;Node21</title>
<path fill="none" stroke="midnightblue" d="M3580.32,-64.34C3269.48,-61.19 1968.63,-46.62 1562.5,-20 1559.5,-19.8 1556.44,-19.58 1553.35,-19.33"/>
<polygon fill="midnightblue" stroke="midnightblue" points="3580.5,-67.85 3590.53,-64.45 3580.57,-60.85 3580.5,-67.85"/>
</g>
<!-- Node23 -->
<g id="node13" class="node">
<title>Node23</title>
<g id="a_node13"><a xlink:href="cameraeventmessage__p_8h.html" target="_top" xlink:title=" ">
<polygon fill="none" stroke="red" points="1571.5,-0.5 1571.5,-19.5 1717.5,-19.5 1717.5,-0.5 1571.5,-0.5"/>
<text text-anchor="middle" x="1644.5" y="-7.5" font-family="Helvetica,sans-Serif" font-size="10.00">cameraeventmessage_p.h</text>
</a>
</g>
</g>
<!-- Node2&#45;&gt;Node23 -->
<g id="edge12" class="edge">
<title>Node2&#45;&gt;Node23</title>
<path fill="none" stroke="midnightblue" d="M3580.61,-65.51C3333.91,-66.95 2451.71,-68.2 1726.5,-20 1723.64,-19.81 1720.73,-19.59 1717.79,-19.36"/>
<polygon fill="midnightblue" stroke="midnightblue" points="3580.87,-69.01 3590.85,-65.45 3580.83,-62.01 3580.87,-69.01"/>
</g>
<!-- Node25 -->
<g id="node14" class="node">
<title>Node25</title>
<g id="a_node14"><a xlink:href="capabilitiesmessage__p_8h.html" target="_top" xlink:title=" ">
<polygon fill="none" stroke="red" points="1736,-0.5 1736,-19.5 1873,-19.5 1873,-0.5 1736,-0.5"/>
<text text-anchor="middle" x="1804.5" y="-7.5" font-family="Helvetica,sans-Serif" font-size="10.00">capabilitiesmessage_p.h</text>
</a>
</g>
</g>
<!-- Node2&#45;&gt;Node25 -->
<g id="edge13" class="edge">
<title>Node2&#45;&gt;Node25</title>
<path fill="none" stroke="midnightblue" d="M3580.59,-65.45C3346.62,-66.55 2543.45,-66.46 1882.5,-20 1879.51,-19.79 1876.46,-19.55 1873.37,-19.28"/>
<polygon fill="midnightblue" stroke="midnightblue" points="3580.66,-68.95 3590.65,-65.4 3580.63,-61.95 3580.66,-68.95"/>
</g>
<!-- Node27 -->
<g id="node15" class="node">
<title>Node27</title>
<g id="a_node15"><a xlink:href="climbpromessage__p_8h.html" target="_top" xlink:title=" ">
<polygon fill="none" stroke="red" points="1891.5,-0.5 1891.5,-19.5 2015.5,-19.5 2015.5,-0.5 1891.5,-0.5"/>
<text text-anchor="middle" x="1953.5" y="-7.5" font-family="Helvetica,sans-Serif" font-size="10.00">climbpromessage_p.h</text>
</a>
</g>
</g>
<!-- Node2&#45;&gt;Node27 -->
<g id="edge14" class="edge">
<title>Node2&#45;&gt;Node27</title>
<path fill="none" stroke="midnightblue" d="M3580.81,-65.5C3359.2,-66.65 2627.26,-66.45 2024.5,-20 2021.65,-19.78 2018.74,-19.53 2015.8,-19.25"/>
<polygon fill="midnightblue" stroke="midnightblue" points="3580.99,-69 3590.97,-65.44 3580.96,-62 3580.99,-69"/>
</g>
<!-- Node29 -->
<g id="node16" class="node">
<title>Node29</title>
<g id="a_node16"><a xlink:href="connectivitymessage__p_8h.html" target="_top" xlink:title=" ">
<polygon fill="none" stroke="red" points="2034,-0.5 2034,-19.5 2175,-19.5 2175,-0.5 2034,-0.5"/>
<text text-anchor="middle" x="2104.5" y="-7.5" font-family="Helvetica,sans-Serif" font-size="10.00">connectivitymessage_p.h</text>
</a>
</g>
</g>
<!-- Node2&#45;&gt;Node29 -->
<g id="edge15" class="edge">
<title>Node2&#45;&gt;Node29</title>
<path fill="none" stroke="midnightblue" d="M3580.77,-64.91C3373.36,-64.22 2721.61,-58.86 2183.5,-20 2180.75,-19.8 2177.94,-19.58 2175.11,-19.34"/>
<polygon fill="midnightblue" stroke="midnightblue" points="3580.88,-68.41 3590.89,-64.94 3580.9,-61.41 3580.88,-68.41"/>
</g>
<!-- Node31 -->
<g id="node17" class="node">
<title>Node31</title>
<g id="a_node17"><a xlink:href="coursemessage__p_8h.html" target="_top" xlink:title=" ">
<polygon fill="none" stroke="red" points="2193,-0.5 2193,-19.5 2306,-19.5 2306,-0.5 2193,-0.5"/>
<text text-anchor="middle" x="2249.5" y="-7.5" font-family="Helvetica,sans-Serif" font-size="10.00">coursemessage_p.h</text>
</a>
</g>
</g>
<!-- Node2&#45;&gt;Node31 -->
<g id="edge16" class="edge">
<title>Node2&#45;&gt;Node31</title>
<path fill="none" stroke="midnightblue" d="M3580.81,-65.14C3385.77,-65.04 2799.65,-61.08 2315.5,-20 2312.5,-19.75 2309.44,-19.45 2306.34,-19.12"/>
<polygon fill="midnightblue" stroke="midnightblue" points="3580.9,-68.64 3590.9,-65.14 3580.9,-61.64 3580.9,-68.64"/>
</g>
<!-- Node33 -->
<g id="node18" class="node">
<title>Node33</title>
<g id="a_node18"><a xlink:href="coursepointmessage__p_8h.html" target="_top" xlink:title=" ">
<polygon fill="none" stroke="red" points="2324.5,-0.5 2324.5,-19.5 2462.5,-19.5 2462.5,-0.5 2324.5,-0.5"/>
<text text-anchor="middle" x="2393.5" y="-7.5" font-family="Helvetica,sans-Serif" font-size="10.00">coursepointmessage_p.h</text>
</a>
</g>
</g>
<!-- Node2&#45;&gt;Node33 -->
<g id="edge17" class="edge">
<title>Node2&#45;&gt;Node33</title>
<path fill="none" stroke="midnightblue" d="M3580.72,-64.24C3401.14,-61.79 2892.91,-52.33 2471.5,-20 2468.65,-19.78 2465.73,-19.54 2462.8,-19.27"/>
<polygon fill="midnightblue" stroke="midnightblue" points="3580.76,-67.74 3590.81,-64.37 3580.85,-60.74 3580.76,-67.74"/>
</g>
<!-- Node35 -->
<g id="node19" class="node">
<title>Node35</title>
<g id="a_node19"><a xlink:href="developerdataidmessage__p_8h.html" target="_top" xlink:title=" ">
<polygon fill="none" stroke="red" points="2481,-0.5 2481,-19.5 2642,-19.5 2642,-0.5 2481,-0.5"/>
<text text-anchor="middle" x="2561.5" y="-7.5" font-family="Helvetica,sans-Serif" font-size="10.00">developerdataidmessage_p.h</text>
</a>
</g>
</g>
<!-- Node2&#45;&gt;Node35 -->
<g id="edge18" class="edge">
<title>Node2&#45;&gt;Node35</title>
<path fill="none" stroke="midnightblue" d="M3580.53,-63.24C3420.03,-58.73 3000.76,-45.33 2651.5,-20 2648.52,-19.78 2645.49,-19.55 2642.44,-19.3"/>
<polygon fill="midnightblue" stroke="midnightblue" points="3580.63,-66.74 3590.73,-63.52 3580.83,-59.74 3580.63,-66.74"/>
</g>
<!-- Node37 -->
<g id="node20" class="node">
<title>Node37</title>
<g id="a_node20"><a xlink:href="deviceinfomessage__p_8h.html" target="_top" xlink:title=" ">
<polygon fill="none" stroke="red" points="2660.5,-0.5 2660.5,-19.5 2792.5,-19.5 2792.5,-0.5 2660.5,-0.5"/>
<text text-anchor="middle" x="2726.5" y="-7.5" font-family="Helvetica,sans-Serif" font-size="10.00">deviceinfomessage_p.h</text>
</a>
</g>
</g>
<!-- Node2&#45;&gt;Node37 -->
<g id="edge19" class="edge">
<title>Node2&#45;&gt;Node37</title>
<path fill="none" stroke="midnightblue" d="M3580.62,-62.95C3437.49,-58.23 3090.99,-45.04 2801.5,-20 2798.63,-19.75 2795.69,-19.48 2792.73,-19.19"/>
<polygon fill="midnightblue" stroke="midnightblue" points="3580.87,-66.46 3590.98,-63.29 3581.1,-59.46 3580.87,-66.46"/>
</g>
<!-- Node39 -->
<g id="node21" class="node">
<title>Node39</title>
<g id="a_node21"><a xlink:href="devicesettingsmessage__p_8h.html" target="_top" xlink:title=" ">
<polygon fill="none" stroke="red" points="2810.5,-0.5 2810.5,-19.5 2962.5,-19.5 2962.5,-0.5 2810.5,-0.5"/>
<text text-anchor="middle" x="2886.5" y="-7.5" font-family="Helvetica,sans-Serif" font-size="10.00">devicesettingsmessage_p.h</text>
</a>
</g>
</g>
<!-- Node2&#45;&gt;Node39 -->
<g id="edge20" class="edge">
<title>Node2&#45;&gt;Node39</title>
<path fill="none" stroke="midnightblue" d="M3580.67,-61.42C3459.25,-54.72 3194.4,-39.21 2971.5,-20 2968.69,-19.76 2965.83,-19.5 2962.94,-19.24"/>
<polygon fill="midnightblue" stroke="midnightblue" points="3580.73,-64.93 3590.91,-61.98 3581.12,-57.94 3580.73,-64.93"/>
</g>
<!-- Node41 -->
<g id="node22" class="node">
<title>Node41</title>
<g id="a_node22"><a xlink:href="divealarmmessage__p_8h.html" target="_top" xlink:title=" ">
<polygon fill="none" stroke="red" points="2981,-0.5 2981,-19.5 3112,-19.5 3112,-0.5 2981,-0.5"/>
<text text-anchor="middle" x="3046.5" y="-7.5" font-family="Helvetica,sans-Serif" font-size="10.00">divealarmmessage_p.h</text>
</a>
</g>
</g>
<!-- Node2&#45;&gt;Node41 -->
<g id="edge21" class="edge">
<title>Node2&#45;&gt;Node41</title>
<path fill="none" stroke="midnightblue" d="M3580.63,-60.06C3480.49,-52.49 3285.69,-37.09 3120.5,-20 3117.8,-19.72 3115.04,-19.43 3112.25,-19.12"/>
<polygon fill="midnightblue" stroke="midnightblue" points="3580.66,-63.57 3590.9,-60.84 3581.19,-56.59 3580.66,-63.57"/>
</g>
<!-- Node43 -->
<g id="node23" class="node">
<title>Node43</title>
<g id="a_node23"><a xlink:href="divegasmessage__p_8h.html" target="_top" xlink:title=" ">
<polygon fill="none" stroke="red" points="3130,-0.5 3130,-19.5 3249,-19.5 3249,-0.5 3130,-0.5"/>
<text text-anchor="middle" x="3189.5" y="-7.5" font-family="Helvetica,sans-Serif" font-size="10.00">divegasmessage_p.h</text>
</a>
</g>
</g>
<!-- Node2&#45;&gt;Node43 -->
<g id="edge22" class="edge">
<title>Node2&#45;&gt;Node43</title>
<path fill="none" stroke="midnightblue" d="M3580.83,-57.65C3503.14,-49.01 3370.95,-34.05 3257.5,-20 3254.78,-19.66 3252,-19.31 3249.2,-18.96"/>
<polygon fill="midnightblue" stroke="midnightblue" points="3580.63,-61.15 3590.95,-58.78 3581.4,-54.19 3580.63,-61.15"/>
</g>
<!-- Node45 -->
<g id="node24" class="node">
<title>Node45</title>
<g id="a_node24"><a xlink:href="divesettingsmessage__p_8h.html" target="_top" xlink:title=" ">
<polygon fill="none" stroke="red" points="3267,-0.5 3267,-19.5 3408,-19.5 3408,-0.5 3267,-0.5"/>
<text text-anchor="middle" x="3337.5" y="-7.5" font-family="Helvetica,sans-Serif" font-size="10.00">divesettingsmessage_p.h</text>
</a>
</g>
</g>
<!-- Node2&#45;&gt;Node45 -->
<g id="edge23" class="edge">
<title>Node2&#45;&gt;Node45</title>
<path fill="none" stroke="midnightblue" d="M3588.16,-54.66C3529.58,-44.46 3441.05,-29.04 3386.39,-19.52"/>
<polygon fill="midnightblue" stroke="midnightblue" points="3587.93,-58.18 3598.38,-56.44 3589.13,-51.28 3587.93,-58.18"/>
</g>
<!-- Node47 -->
<g id="node25" class="node">
<title>Node47</title>
<g id="a_node25"><a xlink:href="divesummarymessage__p_8h.html" target="_top" xlink:title=" ">
<polygon fill="none" stroke="red" points="3426,-0.5 3426,-19.5 3575,-19.5 3575,-0.5 3426,-0.5"/>
<text text-anchor="middle" x="3500.5" y="-7.5" font-family="Helvetica,sans-Serif" font-size="10.00">divesummarymessage_p.h</text>
</a>
</g>
</g>
<!-- Node2&#45;&gt;Node47 -->
<g id="edge24" class="edge">
<title>Node2&#45;&gt;Node47</title>
<path fill="none" stroke="midnightblue" d="M3614.58,-52.91C3586.94,-42.75 3548.16,-28.51 3523.68,-19.52"/>
<polygon fill="midnightblue" stroke="midnightblue" points="3613.61,-56.28 3624.21,-56.44 3616.03,-49.71 3613.61,-56.28"/>
</g>
<!-- Node49 -->
<g id="node26" class="node">
<title>Node49</title>
<g id="a_node26"><a xlink:href="eventmessage__p_8h.html" target="_top" xlink:title=" ">
<polygon fill="none" stroke="red" points="3593,-0.5 3593,-19.5 3702,-19.5 3702,-0.5 3593,-0.5"/>
<text text-anchor="middle" x="3647.5" y="-7.5" font-family="Helvetica,sans-Serif" font-size="10.00">eventmessage_p.h</text>
</a>
</g>
</g>
<!-- Node2&#45;&gt;Node49 -->
<g id="edge25" class="edge">
<title>Node2&#45;&gt;Node49</title>
<path fill="none" stroke="midnightblue" d="M3647.5,-45.8C3647.5,-36.91 3647.5,-26.78 3647.5,-19.75"/>
<polygon fill="midnightblue" stroke="midnightblue" points="3644,-46.08 3647.5,-56.08 3651,-46.08 3644,-46.08"/>
</g>
<!-- Node51 -->
<g id="node27" class="node">
<title>Node51</title>
<g id="a_node27"><a xlink:href="exddataconceptconfigurationmessage__p_8h.html" target="_top" xlink:title=" ">
<polygon fill="none" stroke="red" points="3720,-0.5 3720,-19.5 3943,-19.5 3943,-0.5 3720,-0.5"/>
<text text-anchor="middle" x="3831.5" y="-7.5" font-family="Helvetica,sans-Serif" font-size="10.00">exddataconceptconfigurationmessage_p.h</text>
</a>
</g>
</g>
<!-- Node2&#45;&gt;Node51 -->
<g id="edge26" class="edge">
<title>Node2&#45;&gt;Node51</title>
<path fill="none" stroke="midnightblue" d="M3686.45,-53.57C3721.16,-43.38 3771.18,-28.7 3802.48,-19.52"/>
<polygon fill="midnightblue" stroke="midnightblue" points="3685.27,-50.27 3676.66,-56.44 3687.24,-56.99 3685.27,-50.27"/>
</g>
<!-- Node53 -->
<g id="node28" class="node">
<title>Node53</title>
<g id="a_node28"><a xlink:href="exddatafieldconfigurationmessage__p_8h.html" target="_top" xlink:title=" ">
<polygon fill="none" stroke="red" points="3961.5,-0.5 3961.5,-19.5 4167.5,-19.5 4167.5,-0.5 3961.5,-0.5"/>
<text text-anchor="middle" x="4064.5" y="-7.5" font-family="Helvetica,sans-Serif" font-size="10.00">exddatafieldconfigurationmessage_p.h</text>
</a>
</g>
</g>
<!-- Node2&#45;&gt;Node53 -->
<g id="edge27" class="edge">
<title>Node2&#45;&gt;Node53</title>
<path fill="none" stroke="midnightblue" d="M3714.16,-55.92C3819.11,-42.07 3928.37,-28.16 3996.86,-19.51"/>
<polygon fill="midnightblue" stroke="midnightblue" points="3713.48,-52.48 3704.02,-57.26 3714.39,-59.42 3713.48,-52.48"/>
</g>
<!-- Node55 -->
<g id="node29" class="node">
<title>Node55</title>
<g id="a_node29"><a xlink:href="exdscreenconfigurationmessage__p_8h.html" target="_top" xlink:title=" ">
<polygon fill="none" stroke="red" points="4186,-0.5 4186,-19.5 4381,-19.5 4381,-0.5 4186,-0.5"/>
<text text-anchor="middle" x="4283.5" y="-7.5" font-family="Helvetica,sans-Serif" font-size="10.00">exdscreenconfigurationmessage_p.h</text>
</a>
</g>
</g>
<!-- Node2&#45;&gt;Node55 -->
<g id="edge28" class="edge">
<title>Node2&#45;&gt;Node55</title>
<path fill="none" stroke="midnightblue" d="M3714.59,-55.94C3920.45,-34.13 3974.09,-36.38 4176.5,-20 4179.57,-19.75 4182.68,-19.5 4185.83,-19.24"/>
<polygon fill="midnightblue" stroke="midnightblue" points="3713.93,-52.49 3704.36,-57.03 3714.67,-59.45 3713.93,-52.49"/>
</g>
<!-- Node57 -->
<g id="node30" class="node">
<title>Node57</title>
<g id="a_node30"><a xlink:href="exercisetitlemessage__p_8h.html" target="_top" xlink:title=" ">
<polygon fill="none" stroke="red" points="4399,-0.5 4399,-19.5 4540,-19.5 4540,-0.5 4399,-0.5"/>
<text text-anchor="middle" x="4469.5" y="-7.5" font-family="Helvetica,sans-Serif" font-size="10.00">exercisetitlemessage_p.h</text>
</a>
</g>
</g>
<!-- Node2&#45;&gt;Node57 -->
<g id="edge29" class="edge">
<title>Node2&#45;&gt;Node57</title>
<path fill="none" stroke="midnightblue" d="M3714.67,-55.97C4015.23,-28.01 4093.6,-44.78 4390.5,-20 4393.25,-19.77 4396.05,-19.52 4398.89,-19.26"/>
<polygon fill="midnightblue" stroke="midnightblue" points="3713.98,-52.53 3704.35,-56.95 3714.63,-59.49 3713.98,-52.53"/>
</g>
<!-- Node59 -->
<g id="node31" class="node">
<title>Node59</title>
<g id="a_node31"><a xlink:href="fieldcapabilitiesmessage__p_8h.html" target="_top" xlink:title=" ">
<polygon fill="none" stroke="red" points="4558.5,-0.5 4558.5,-19.5 4716.5,-19.5 4716.5,-0.5 4558.5,-0.5"/>
<text text-anchor="middle" x="4637.5" y="-7.5" font-family="Helvetica,sans-Serif" font-size="10.00">fieldcapabilitiesmessage_p.h</text>
</a>
</g>
</g>
<!-- Node2&#45;&gt;Node59 -->
<g id="edge30" class="edge">
<title>Node2&#45;&gt;Node59</title>
<path fill="none" stroke="midnightblue" d="M3714.56,-56C4085.65,-23.27 4181.93,-46.69 4549.5,-20 4552.41,-19.79 4555.37,-19.56 4558.37,-19.32"/>
<polygon fill="midnightblue" stroke="midnightblue" points="3713.99,-52.54 3704.34,-56.91 3714.61,-59.51 3713.99,-52.54"/>
</g>
<!-- Node61 -->
<g id="node32" class="node">
<title>Node61</title>
<g id="a_node32"><a xlink:href="fielddescriptionmessage__p_8h.html" target="_top" xlink:title=" ">
<polygon fill="none" stroke="red" points="4734.5,-0.5 4734.5,-19.5 4890.5,-19.5 4890.5,-0.5 4734.5,-0.5"/>
<text text-anchor="middle" x="4812.5" y="-7.5" font-family="Helvetica,sans-Serif" font-size="10.00">fielddescriptionmessage_p.h</text>
</a>
</g>
</g>
<!-- Node2&#45;&gt;Node61 -->
<g id="edge31" class="edge">
<title>Node2&#45;&gt;Node61</title>
<path fill="none" stroke="midnightblue" d="M3714.34,-56.03C4163.61,-18.04 4279.81,-50.94 4725.5,-20 4728.38,-19.8 4731.31,-19.58 4734.27,-19.34"/>
<polygon fill="midnightblue" stroke="midnightblue" points="3714.01,-52.54 3704.34,-56.88 3714.6,-59.52 3714.01,-52.54"/>
</g>
<!-- Node63 -->
<g id="node33" class="node">
<title>Node63</title>
<g id="a_node33"><a xlink:href="filecapabilitiesmessage__p_8h.html" target="_top" xlink:title=" ">
<polygon fill="none" stroke="red" points="4908.5,-0.5 4908.5,-19.5 5060.5,-19.5 5060.5,-0.5 4908.5,-0.5"/>
<text text-anchor="middle" x="4984.5" y="-7.5" font-family="Helvetica,sans-Serif" font-size="10.00">filecapabilitiesmessage_p.h</text>
</a>
</g>
</g>
<!-- Node2&#45;&gt;Node63 -->
<g id="edge32" class="edge">
<title>Node2&#45;&gt;Node63</title>
<path fill="none" stroke="midnightblue" d="M3714.47,-56.03C4240.76,-12.86 4376.7,-55.56 4899.5,-20 4902.31,-19.81 4905.18,-19.6 4908.07,-19.37"/>
<polygon fill="midnightblue" stroke="midnightblue" points="3714.02,-52.55 3704.34,-56.86 3714.59,-59.53 3714.02,-52.55"/>
</g>
<!-- Node65 -->
<g id="node34" class="node">
<title>Node65</title>
<g id="a_node34"><a xlink:href="filecreatormessage__p_8h.html" target="_top" xlink:title=" ">
<polygon fill="none" stroke="red" points="5079,-0.5 5079,-19.5 5210,-19.5 5210,-0.5 5079,-0.5"/>
<text text-anchor="middle" x="5144.5" y="-7.5" font-family="Helvetica,sans-Serif" font-size="10.00">filecreatormessage_p.h</text>
</a>
</g>
</g>
<!-- Node2&#45;&gt;Node65 -->
<g id="edge33" class="edge">
<title>Node2&#45;&gt;Node65</title>
<path fill="none" stroke="midnightblue" d="M3714.57,-56.02C4316.14,-7.83 4471.6,-63.72 5069.5,-20 5072.51,-19.78 5075.58,-19.53 5078.68,-19.25"/>
<polygon fill="midnightblue" stroke="midnightblue" points="3714.02,-52.56 3704.34,-56.85 3714.59,-59.53 3714.02,-52.56"/>
</g>
<!-- Node67 -->
<g id="node35" class="node">
<title>Node67</title>
<g id="a_node35"><a xlink:href="fileidmessage__p_8h.html" target="_top" xlink:title=" ">
<polygon fill="none" stroke="red" points="5228,-0.5 5228,-19.5 5333,-19.5 5333,-0.5 5228,-0.5"/>
<text text-anchor="middle" x="5280.5" y="-7.5" font-family="Helvetica,sans-Serif" font-size="10.00">fileidmessage_p.h</text>
</a>
</g>
</g>
<!-- Node2&#45;&gt;Node67 -->
<g id="edge34" class="edge">
<title>Node2&#45;&gt;Node67</title>
<path fill="none" stroke="midnightblue" d="M3714.7,-56.02C4382.67,-3.44 4555.82,-76.68 5219.5,-20 5222.27,-19.76 5225.11,-19.48 5227.98,-19.17"/>
<polygon fill="midnightblue" stroke="midnightblue" points="3714.03,-52.56 3704.34,-56.84 3714.58,-59.54 3714.03,-52.56"/>
</g>
<!-- Node69 -->
<g id="node36" class="node">
<title>Node69</title>
<g id="a_node36"><a xlink:href="fitdatamessage_8cpp.html" target="_top" xlink:title=" ">
<polygon fill="none" stroke="black" points="5351,-0.5 5351,-19.5 5464,-19.5 5464,-0.5 5351,-0.5"/>
<text text-anchor="middle" x="5407.5" y="-7.5" font-family="Helvetica,sans-Serif" font-size="10.00">fitdatamessage.cpp</text>
</a>
</g>
</g>
<!-- Node2&#45;&gt;Node69 -->
<g id="edge35" class="edge">
<title>Node2&#45;&gt;Node69</title>
<path fill="none" stroke="midnightblue" d="M3714.48,-56.04C4437.16,0.29 4623.98,-77.49 5342.5,-20 5345.23,-19.78 5348.01,-19.53 5350.82,-19.24"/>
<polygon fill="midnightblue" stroke="midnightblue" points="3714.03,-52.56 3704.34,-56.83 3714.58,-59.54 3714.03,-52.56"/>
</g>
<!-- Node70 -->
<g id="node37" class="node">
<title>Node70</title>
<g id="a_node37"><a xlink:href="fitdatamessages_8cpp.html" target="_top" xlink:title=" ">
<polygon fill="none" stroke="black" points="5482.5,-0.5 5482.5,-19.5 5600.5,-19.5 5600.5,-0.5 5482.5,-0.5"/>
<text text-anchor="middle" x="5541.5" y="-7.5" font-family="Helvetica,sans-Serif" font-size="10.00">fitdatamessages.cpp</text>
</a>
</g>
</g>
<!-- Node2&#45;&gt;Node70 -->
<g id="edge36" class="edge">
<title>Node2&#45;&gt;Node70</title>
<path fill="none" stroke="midnightblue" d="M3714.42,-56.04C4495.23,4.24 4696.71,-79.17 5473.5,-20 5476.35,-19.78 5479.26,-19.53 5482.2,-19.24"/>
<polygon fill="midnightblue" stroke="midnightblue" points="3714.04,-52.56 3704.34,-56.83 3714.58,-59.54 3714.04,-52.56"/>
</g>
<!-- Node71 -->
<g id="node38" class="node">
<title>Node71</title>
<g id="a_node38"><a xlink:href="goalmessage__p_8h.html" target="_top" xlink:title=" ">
<polygon fill="none" stroke="red" points="5618.5,-0.5 5618.5,-19.5 5720.5,-19.5 5720.5,-0.5 5618.5,-0.5"/>
<text text-anchor="middle" x="5669.5" y="-7.5" font-family="Helvetica,sans-Serif" font-size="10.00">goalmessage_p.h</text>
</a>
</g>
</g>
<!-- Node2&#45;&gt;Node71 -->
<g id="edge37" class="edge">
<title>Node2&#45;&gt;Node71</title>
<path fill="none" stroke="midnightblue" d="M3714.57,-56.03C4555.55,8.25 4773.03,-90.38 5609.5,-20 5612.44,-19.75 5615.45,-19.45 5618.49,-19.11"/>
<polygon fill="midnightblue" stroke="midnightblue" points="3714.04,-52.56 3704.34,-56.82 3714.58,-59.54 3714.04,-52.56"/>
</g>
<!-- Node73 -->
<g id="node39" class="node">
<title>Node73</title>
<g id="a_node39"><a xlink:href="gpsmetadatamessage__p_8h.html" target="_top" xlink:title=" ">
<polygon fill="none" stroke="red" points="5738.5,-0.5 5738.5,-19.5 5884.5,-19.5 5884.5,-0.5 5738.5,-0.5"/>
<text text-anchor="middle" x="5811.5" y="-7.5" font-family="Helvetica,sans-Serif" font-size="10.00">gpsmetadatamessage_p.h</text>
</a>
</g>
</g>
<!-- Node2&#45;&gt;Node73 -->
<g id="edge38" class="edge">
<title>Node2&#45;&gt;Node73</title>
<path fill="none" stroke="midnightblue" d="M3714.56,-56.04C4608.75,11.98 4838.55,-76.73 5729.5,-20 5732.36,-19.82 5735.27,-19.61 5738.21,-19.38"/>
<polygon fill="midnightblue" stroke="midnightblue" points="3714.04,-52.56 3704.34,-56.82 3714.57,-59.54 3714.04,-52.56"/>
</g>
<!-- Node75 -->
<g id="node40" class="node">
<title>Node75</title>
<g id="a_node40"><a xlink:href="gyroscopedatamessage__p_8h.html" target="_top" xlink:title=" ">
<polygon fill="none" stroke="red" points="5903,-0.5 5903,-19.5 6056,-19.5 6056,-0.5 5903,-0.5"/>
<text text-anchor="middle" x="5979.5" y="-7.5" font-family="Helvetica,sans-Serif" font-size="10.00">gyroscopedatamessage_p.h</text>
</a>
</g>
</g>
<!-- Node2&#45;&gt;Node75 -->
<g id="edge39" class="edge">
<title>Node2&#45;&gt;Node75</title>
<path fill="none" stroke="midnightblue" d="M3714.31,-56.06C4681.42,16.94 4929.55,-78.29 5893.5,-20 5896.5,-19.82 5899.55,-19.61 5902.63,-19.38"/>
<polygon fill="midnightblue" stroke="midnightblue" points="3714.04,-52.57 3704.34,-56.81 3714.57,-59.55 3714.04,-52.57"/>
</g>
<!-- Node77 -->
<g id="node41" class="node">
<title>Node77</title>
<g id="a_node41"><a xlink:href="hrmessage__p_8h.html" target="_top" xlink:title=" ">
<polygon fill="none" stroke="red" points="6074,-0.5 6074,-19.5 6165,-19.5 6165,-0.5 6074,-0.5"/>
<text text-anchor="middle" x="6119.5" y="-7.5" font-family="Helvetica,sans-Serif" font-size="10.00">hrmessage_p.h</text>
</a>
</g>
</g>
<!-- Node2&#45;&gt;Node77 -->
<g id="edge40" class="edge">
<title>Node2&#45;&gt;Node77</title>
<path fill="none" stroke="midnightblue" d="M3714.33,-56.06C4757.7,21.9 5027.6,-113.9 6065.5,-20 6068.25,-19.75 6071.06,-19.44 6073.9,-19.09"/>
<polygon fill="midnightblue" stroke="midnightblue" points="3714.04,-52.57 3704.34,-56.81 3714.57,-59.55 3714.04,-52.57"/>
</g>
<!-- Node79 -->
<g id="node42" class="node">
<title>Node79</title>
<g id="a_node42"><a xlink:href="hrmprofilemessage__p_8h.html" target="_top" xlink:title=" ">
<polygon fill="none" stroke="red" points="6183,-0.5 6183,-19.5 6314,-19.5 6314,-0.5 6183,-0.5"/>
<text text-anchor="middle" x="6248.5" y="-7.5" font-family="Helvetica,sans-Serif" font-size="10.00">hrmprofilemessage_p.h</text>
</a>
</g>
</g>
<!-- Node2&#45;&gt;Node79 -->
<g id="edge41" class="edge">
<title>Node2&#45;&gt;Node79</title>
<path fill="none" stroke="midnightblue" d="M3714.38,-56.05C4806.02,25.32 5086.45,-93.91 6174.5,-20 6177.21,-19.82 6179.98,-19.6 6182.77,-19.36"/>
<polygon fill="midnightblue" stroke="midnightblue" points="3714.05,-52.57 3704.34,-56.81 3714.57,-59.55 3714.05,-52.57"/>
</g>
<!-- Node81 -->
<g id="node43" class="node">
<title>Node81</title>
<g id="a_node43"><a xlink:href="hrvmessage__p_8h.html" target="_top" xlink:title=" ">
<polygon fill="none" stroke="red" points="6332,-0.5 6332,-19.5 6429,-19.5 6429,-0.5 6332,-0.5"/>
<text text-anchor="middle" x="6380.5" y="-7.5" font-family="Helvetica,sans-Serif" font-size="10.00">hrvmessage_p.h</text>
</a>
</g>
</g>
<!-- Node2&#45;&gt;Node81 -->
<g id="edge42" class="edge">
<title>Node2&#45;&gt;Node81</title>
<path fill="none" stroke="midnightblue" d="M3714.56,-56.04C4872.13,29.66 5170.98,-118.43 6323.5,-20 6326.2,-19.77 6328.96,-19.49 6331.74,-19.17"/>
<polygon fill="midnightblue" stroke="midnightblue" points="3714.05,-52.57 3704.34,-56.8 3714.57,-59.55 3714.05,-52.57"/>
</g>
<!-- Node83 -->
<g id="node44" class="node">
<title>Node83</title>
<g id="a_node44"><a xlink:href="hrzonemessage__p_8h.html" target="_top" xlink:title=" ">
<polygon fill="none" stroke="red" points="6447.5,-0.5 6447.5,-19.5 6561.5,-19.5 6561.5,-0.5 6447.5,-0.5"/>
<text text-anchor="middle" x="6504.5" y="-7.5" font-family="Helvetica,sans-Serif" font-size="10.00">hrzonemessage_p.h</text>
</a>
</g>
</g>
<!-- Node2&#45;&gt;Node83 -->
<g id="edge43" class="edge">
<title>Node2&#45;&gt;Node83</title>
<path fill="none" stroke="midnightblue" d="M3714.56,-56.04C4923.11,33.19 5234.02,-109.74 6438.5,-20 6441.38,-19.79 6444.33,-19.53 6447.31,-19.23"/>
<polygon fill="midnightblue" stroke="midnightblue" points="3714.05,-52.57 3704.34,-56.8 3714.57,-59.55 3714.05,-52.57"/>
</g>
<!-- Node85 -->
<g id="node45" class="node">
<title>Node85</title>
<g id="a_node45"><a xlink:href="jumpmessage__p_8h.html" target="_top" xlink:title=" ">
<polygon fill="none" stroke="red" points="6579.5,-0.5 6579.5,-19.5 6685.5,-19.5 6685.5,-0.5 6579.5,-0.5"/>
<text text-anchor="middle" x="6632.5" y="-7.5" font-family="Helvetica,sans-Serif" font-size="10.00">jumpmessage_p.h</text>
</a>
</g>
</g>
<!-- Node2&#45;&gt;Node85 -->
<g id="edge44" class="edge">
<title>Node2&#45;&gt;Node85</title>
<path fill="none" stroke="midnightblue" d="M3714.59,-56.04C4981.65,37.12 5307.92,-119.16 6570.5,-20 6573.43,-19.77 6576.43,-19.49 6579.45,-19.17"/>
<polygon fill="midnightblue" stroke="midnightblue" points="3714.05,-52.57 3704.33,-56.8 3714.57,-59.55 3714.05,-52.57"/>
</g>
<!-- Node87 -->
<g id="node46" class="node">
<title>Node87</title>
<g id="a_node46"><a xlink:href="lapmessage__p_8h.html" target="_top" xlink:title=" ">
<polygon fill="none" stroke="red" points="6703.5,-0.5 6703.5,-19.5 6799.5,-19.5 6799.5,-0.5 6703.5,-0.5"/>
<text text-anchor="middle" x="6751.5" y="-7.5" font-family="Helvetica,sans-Serif" font-size="10.00">lapmessage_p.h</text>
</a>
</g>
</g>
<!-- Node2&#45;&gt;Node87 -->
<g id="edge45" class="edge">
<title>Node2&#45;&gt;Node87</title>
<path fill="none" stroke="midnightblue" d="M3714.72,-56.04C4391.19,-7.85 6037.75,-75.52 6694.5,-20 6697.4,-19.76 6700.37,-19.45 6703.36,-19.1"/>
<polygon fill="midnightblue" stroke="midnightblue" points="3714.05,-52.58 3704.33,-56.8 3714.56,-59.56 3714.05,-52.58"/>
</g>
<!-- Node89 -->
<g id="node47" class="node">
<title>Node89</title>
<g id="a_node47"><a xlink:href="lengthmessage__p_8h.html" target="_top" xlink:title=" ">
<polygon fill="none" stroke="red" points="6817.5,-0.5 6817.5,-19.5 6929.5,-19.5 6929.5,-0.5 6817.5,-0.5"/>
<text text-anchor="middle" x="6873.5" y="-7.5" font-family="Helvetica,sans-Serif" font-size="10.00">lengthmessage_p.h</text>
</a>
</g>
</g>
<!-- Node2&#45;&gt;Node89 -->
<g id="edge46" class="edge">
<title>Node2&#45;&gt;Node89</title>
<path fill="none" stroke="midnightblue" d="M3714.43,-56.05C5087.15,44.31 5440.03,-122.29 6808.5,-20 6811.34,-19.79 6814.25,-19.53 6817.18,-19.24"/>
<polygon fill="midnightblue" stroke="midnightblue" points="3714.05,-52.57 3704.33,-56.79 3714.56,-59.55 3714.05,-52.57"/>
</g>
<!-- Node91 -->
<g id="node48" class="node">
<title>Node91</title>
<g id="a_node48"><a xlink:href="magnetometerdatamessage__p_8h.html" target="_top" xlink:title=" ">
<polygon fill="none" stroke="red" points="6947.5,-0.5 6947.5,-19.5 7123.5,-19.5 7123.5,-0.5 6947.5,-0.5"/>
<text text-anchor="middle" x="7035.5" y="-7.5" font-family="Helvetica,sans-Serif" font-size="10.00">magnetometerdatamessage_p.h</text>
</a>
</g>
</g>
<!-- Node2&#45;&gt;Node91 -->
<g id="edge47" class="edge">
<title>Node2&#45;&gt;Node91</title>
<path fill="none" stroke="midnightblue" d="M3714.48,-56.06C4444.91,-3.98 6226.07,-56.97 6938.5,-20 6941.46,-19.85 6944.46,-19.67 6947.49,-19.48"/>
<polygon fill="midnightblue" stroke="midnightblue" points="3714.06,-52.58 3704.33,-56.79 3714.56,-59.56 3714.06,-52.58"/>
</g>
<!-- Node93 -->
<g id="node49" class="node">
<title>Node93</title>
<g id="a_node49"><a xlink:href="memoglobmessage__p_8h.html" target="_top" xlink:title=" ">
<polygon fill="none" stroke="red" points="7141.5,-0.5 7141.5,-19.5 7275.5,-19.5 7275.5,-0.5 7141.5,-0.5"/>
<text text-anchor="middle" x="7208.5" y="-7.5" font-family="Helvetica,sans-Serif" font-size="10.00">memoglobmessage_p.h</text>
</a>
</g>
</g>
<!-- Node2&#45;&gt;Node93 -->
<g id="edge48" class="edge">
<title>Node2&#45;&gt;Node93</title>
<path fill="none" stroke="midnightblue" d="M3714.51,-56.06C4488,-1.16 6377.58,-68.53 7132.5,-20 7135.42,-19.81 7138.39,-19.59 7141.4,-19.34"/>
<polygon fill="midnightblue" stroke="midnightblue" points="3714.06,-52.58 3704.33,-56.79 3714.56,-59.56 3714.06,-52.58"/>
</g>
</g>
</svg>
