<?xml version="1.0" encoding="UTF-8" standalone="no"?>
<!DOCTYPE svg PUBLIC "-//W3C//DTD SVG 1.1//EN"
 "http://www.w3.org/Graphics/SVG/1.1/DTD/svg11.dtd">
<!-- Generated by graphviz version 2.43.0 (0)
 -->
<!-- Title: userprofilemessage.cpp Pages: 1 -->
<svg width="282pt" height="364pt"
 viewBox="0.00 0.00 281.50 364.00" xmlns="http://www.w3.org/2000/svg" xmlns:xlink="http://www.w3.org/1999/xlink">
<g id="graph0" class="graph" transform="scale(1 1) rotate(0) translate(4 360)">
<title>userprofilemessage.cpp</title>
<!-- Node1 -->
<g id="node1" class="node">
<title>Node1</title>
<g id="a_node1"><a xlink:title=" ">
<polygon fill="#bfbfbf" stroke="black" points="73,-336.5 73,-355.5 206,-355.5 206,-336.5 73,-336.5"/>
<text text-anchor="middle" x="139.5" y="-343.5" font-family="Helvetica,sans-Serif" font-size="10.00">userprofilemessage.cpp</text>
</a>
</g>
</g>
<!-- Node2 -->
<g id="node2" class="node">
<title>Node2</title>
<g id="a_node2"><a xlink:href="userprofilemessage_8h.html" target="_top" xlink:title=" ">
<polygon fill="none" stroke="black" points="151.5,-280.5 151.5,-299.5 273.5,-299.5 273.5,-280.5 151.5,-280.5"/>
<text text-anchor="middle" x="212.5" y="-287.5" font-family="Helvetica,sans-Serif" font-size="10.00">userprofilemessage.h</text>
</a>
</g>
</g>
<!-- Node1&#45;&gt;Node2 -->
<g id="edge1" class="edge">
<title>Node1&#45;&gt;Node2</title>
<path fill="none" stroke="midnightblue" d="M151.23,-336.32C162.34,-328.11 179.24,-315.6 192.48,-305.81"/>
<polygon fill="midnightblue" stroke="midnightblue" points="194.6,-308.59 200.56,-299.83 190.44,-302.97 194.6,-308.59"/>
</g>
<!-- Node7 -->
<g id="node7" class="node">
<title>Node7</title>
<g id="a_node7"><a xlink:href="userprofilemessage__p_8h.html" target="_top" xlink:title=" ">
<polygon fill="none" stroke="black" points="0,-280.5 0,-299.5 133,-299.5 133,-280.5 0,-280.5"/>
<text text-anchor="middle" x="66.5" y="-287.5" font-family="Helvetica,sans-Serif" font-size="10.00">userprofilemessage_p.h</text>
</a>
</g>
</g>
<!-- Node1&#45;&gt;Node7 -->
<g id="edge7" class="edge">
<title>Node1&#45;&gt;Node7</title>
<path fill="none" stroke="midnightblue" d="M127.77,-336.32C116.66,-328.11 99.76,-315.6 86.52,-305.81"/>
<polygon fill="midnightblue" stroke="midnightblue" points="88.56,-302.97 78.44,-299.83 84.4,-308.59 88.56,-302.97"/>
</g>
<!-- Node3 -->
<g id="node3" class="node">
<title>Node3</title>
<g id="a_node3"><a xlink:href="fitdatamessage_8h.html" target="_top" xlink:title=" ">
<polygon fill="none" stroke="black" points="160,-168.5 160,-187.5 261,-187.5 261,-168.5 160,-168.5"/>
<text text-anchor="middle" x="210.5" y="-175.5" font-family="Helvetica,sans-Serif" font-size="10.00">fitdatamessage.h</text>
</a>
</g>
</g>
<!-- Node2&#45;&gt;Node3 -->
<g id="edge2" class="edge">
<title>Node2&#45;&gt;Node3</title>
<path fill="none" stroke="midnightblue" d="M212.34,-280.37C212.02,-262.62 211.28,-221.67 210.84,-197.6"/>
<polygon fill="midnightblue" stroke="midnightblue" points="214.34,-197.53 210.66,-187.59 207.34,-197.65 214.34,-197.53"/>
</g>
<!-- Node4 -->
<g id="node4" class="node">
<title>Node4</title>
<g id="a_node4"><a xlink:href="QtFit__global_8h.html" target="_top" xlink:title=" ">
<polygon fill="none" stroke="black" points="91.5,-56.5 91.5,-75.5 175.5,-75.5 175.5,-56.5 91.5,-56.5"/>
<text text-anchor="middle" x="133.5" y="-63.5" font-family="Helvetica,sans-Serif" font-size="10.00">QtFit_global.h</text>
</a>
</g>
</g>
<!-- Node3&#45;&gt;Node4 -->
<g id="edge3" class="edge">
<title>Node3&#45;&gt;Node4</title>
<path fill="none" stroke="midnightblue" d="M205.49,-168.39C198.04,-155.75 183.43,-131.56 169.5,-112 162.61,-102.32 154.36,-91.94 147.51,-83.59"/>
<polygon fill="midnightblue" stroke="midnightblue" points="150.06,-81.19 140.97,-75.74 144.68,-85.66 150.06,-81.19"/>
</g>
<!-- Node6 -->
<g id="node6" class="node">
<title>Node6</title>
<g id="a_node6"><a xlink:href="types_8h.html" target="_top" xlink:title="Types defined by the ANT+ FIT SDK.">
<polygon fill="none" stroke="black" points="107,-112.5 107,-131.5 160,-131.5 160,-112.5 107,-112.5"/>
<text text-anchor="middle" x="133.5" y="-119.5" font-family="Helvetica,sans-Serif" font-size="10.00">types.h</text>
</a>
</g>
</g>
<!-- Node3&#45;&gt;Node6 -->
<g id="edge5" class="edge">
<title>Node3&#45;&gt;Node6</title>
<path fill="none" stroke="midnightblue" d="M198.13,-168.32C186.34,-160.06 168.37,-147.45 154.36,-137.63"/>
<polygon fill="midnightblue" stroke="midnightblue" points="156.04,-134.53 145.84,-131.65 152.02,-140.26 156.04,-134.53"/>
</g>
<!-- Node5 -->
<g id="node5" class="node">
<title>Node5</title>
<g id="a_node5"><a xlink:title=" ">
<polygon fill="none" stroke="#bfbfbf" points="104,-0.5 104,-19.5 163,-19.5 163,-0.5 104,-0.5"/>
<text text-anchor="middle" x="133.5" y="-7.5" font-family="Helvetica,sans-Serif" font-size="10.00">QtGlobal</text>
</a>
</g>
</g>
<!-- Node4&#45;&gt;Node5 -->
<g id="edge4" class="edge">
<title>Node4&#45;&gt;Node5</title>
<path fill="none" stroke="midnightblue" d="M133.5,-56.08C133.5,-49.01 133.5,-38.86 133.5,-29.99"/>
<polygon fill="midnightblue" stroke="midnightblue" points="137,-29.75 133.5,-19.75 130,-29.75 137,-29.75"/>
</g>
<!-- Node6&#45;&gt;Node4 -->
<g id="edge6" class="edge">
<title>Node6&#45;&gt;Node4</title>
<path fill="none" stroke="midnightblue" d="M133.5,-112.08C133.5,-105.01 133.5,-94.86 133.5,-85.99"/>
<polygon fill="midnightblue" stroke="midnightblue" points="137,-85.75 133.5,-75.75 130,-85.75 137,-85.75"/>
</g>
<!-- Node8 -->
<g id="node8" class="node">
<title>Node8</title>
<g id="a_node8"><a xlink:href="fitdatamessage__p_8h.html" target="_top" xlink:title=" ">
<polygon fill="none" stroke="black" points="13,-224.5 13,-243.5 126,-243.5 126,-224.5 13,-224.5"/>
<text text-anchor="middle" x="69.5" y="-231.5" font-family="Helvetica,sans-Serif" font-size="10.00">fitdatamessage_p.h</text>
</a>
</g>
</g>
<!-- Node7&#45;&gt;Node8 -->
<g id="edge8" class="edge">
<title>Node7&#45;&gt;Node8</title>
<path fill="none" stroke="midnightblue" d="M67,-280.08C67.39,-273.01 67.95,-262.86 68.45,-253.99"/>
<polygon fill="midnightblue" stroke="midnightblue" points="71.95,-253.93 69.01,-243.75 64.96,-253.54 71.95,-253.93"/>
</g>
<!-- Node8&#45;&gt;Node4 -->
<g id="edge9" class="edge">
<title>Node8&#45;&gt;Node4</title>
<path fill="none" stroke="midnightblue" d="M58.51,-224.37C49.05,-216.17 36.06,-202.92 30.5,-188 23.56,-169.4 30.8,-122.45 38.5,-112 50.1,-96.26 68.64,-85.81 86.27,-78.98"/>
<polygon fill="midnightblue" stroke="midnightblue" points="87.67,-82.2 95.92,-75.55 85.32,-75.6 87.67,-82.2"/>
</g>
<!-- Node8&#45;&gt;Node6 -->
<g id="edge10" class="edge">
<title>Node8&#45;&gt;Node6</title>
<path fill="none" stroke="midnightblue" d="M80.11,-224.39C89.79,-216.02 103.87,-202.48 112.5,-188 121.13,-173.52 126.66,-155.07 129.86,-141.53"/>
<polygon fill="midnightblue" stroke="midnightblue" points="133.33,-142.02 132.02,-131.51 126.49,-140.54 133.33,-142.02"/>
</g>
<!-- Node9 -->
<g id="node9" class="node">
<title>Node9</title>
<g id="a_node9"><a xlink:href="types__p_8h.html" target="_top" xlink:title=" ">
<polygon fill="none" stroke="black" points="39.5,-168.5 39.5,-187.5 103.5,-187.5 103.5,-168.5 39.5,-168.5"/>
<text text-anchor="middle" x="71.5" y="-175.5" font-family="Helvetica,sans-Serif" font-size="10.00">types_p.h</text>
</a>
</g>
</g>
<!-- Node8&#45;&gt;Node9 -->
<g id="edge11" class="edge">
<title>Node8&#45;&gt;Node9</title>
<path fill="none" stroke="midnightblue" d="M69.83,-224.08C70.09,-217.01 70.47,-206.86 70.8,-197.99"/>
<polygon fill="midnightblue" stroke="midnightblue" points="74.3,-197.87 71.18,-187.75 67.31,-197.61 74.3,-197.87"/>
</g>
<!-- Node9&#45;&gt;Node6 -->
<g id="edge12" class="edge">
<title>Node9&#45;&gt;Node6</title>
<path fill="none" stroke="midnightblue" d="M81.46,-168.32C90.63,-160.34 104.44,-148.31 115.53,-138.65"/>
<polygon fill="midnightblue" stroke="midnightblue" points="118.12,-141.04 123.36,-131.83 113.52,-135.76 118.12,-141.04"/>
</g>
<!-- Node10 -->
<g id="node10" class="node">
<title>Node10</title>
<g id="a_node10"><a xlink:title=" ">
<polygon fill="none" stroke="#bfbfbf" points="48,-112.5 48,-131.5 89,-131.5 89,-112.5 48,-112.5"/>
<text text-anchor="middle" x="68.5" y="-119.5" font-family="Helvetica,sans-Serif" font-size="10.00">QList</text>
</a>
</g>
</g>
<!-- Node9&#45;&gt;Node10 -->
<g id="edge13" class="edge">
<title>Node9&#45;&gt;Node10</title>
<path fill="none" stroke="midnightblue" d="M71,-168.08C70.61,-161.01 70.05,-150.86 69.55,-141.99"/>
<polygon fill="midnightblue" stroke="midnightblue" points="73.04,-141.54 68.99,-131.75 66.05,-141.93 73.04,-141.54"/>
</g>
</g>
</svg>
