<?xml version="1.0" encoding="UTF-8" standalone="no"?>
<!DOCTYPE svg PUBLIC "-//W3C//DTD SVG 1.1//EN"
 "http://www.w3.org/Graphics/SVG/1.1/DTD/svg11.dtd">
<!-- Generated by graphviz version 2.43.0 (0)
 -->
<!-- Title: userprofilemessage_p.h Pages: 1 -->
<svg width="169pt" height="308pt"
 viewBox="0.00 0.00 169.00 308.00" xmlns="http://www.w3.org/2000/svg" xmlns:xlink="http://www.w3.org/1999/xlink">
<g id="graph0" class="graph" transform="scale(1 1) rotate(0) translate(4 304)">
<title>userprofilemessage_p.h</title>
<!-- Node1 -->
<g id="node1" class="node">
<title>Node1</title>
<g id="a_node1"><a xlink:title=" ">
<polygon fill="#bfbfbf" stroke="black" points="0,-280.5 0,-299.5 133,-299.5 133,-280.5 0,-280.5"/>
<text text-anchor="middle" x="66.5" y="-287.5" font-family="Helvetica,sans-Serif" font-size="10.00">userprofilemessage_p.h</text>
</a>
</g>
</g>
<!-- Node2 -->
<g id="node2" class="node">
<title>Node2</title>
<g id="a_node2"><a xlink:href="fitdatamessage__p_8h.html" target="_top" xlink:title=" ">
<polygon fill="none" stroke="black" points="10,-224.5 10,-243.5 123,-243.5 123,-224.5 10,-224.5"/>
<text text-anchor="middle" x="66.5" y="-231.5" font-family="Helvetica,sans-Serif" font-size="10.00">fitdatamessage_p.h</text>
</a>
</g>
</g>
<!-- Node1&#45;&gt;Node2 -->
<g id="edge1" class="edge">
<title>Node1&#45;&gt;Node2</title>
<path fill="none" stroke="midnightblue" d="M66.5,-280.08C66.5,-273.01 66.5,-262.86 66.5,-253.99"/>
<polygon fill="midnightblue" stroke="midnightblue" points="70,-253.75 66.5,-243.75 63,-253.75 70,-253.75"/>
</g>
<!-- Node3 -->
<g id="node3" class="node">
<title>Node3</title>
<g id="a_node3"><a xlink:href="QtFit__global_8h.html" target="_top" xlink:title=" ">
<polygon fill="none" stroke="black" points="5.5,-56.5 5.5,-75.5 89.5,-75.5 89.5,-56.5 5.5,-56.5"/>
<text text-anchor="middle" x="47.5" y="-63.5" font-family="Helvetica,sans-Serif" font-size="10.00">QtFit_global.h</text>
</a>
</g>
</g>
<!-- Node2&#45;&gt;Node3 -->
<g id="edge2" class="edge">
<title>Node2&#45;&gt;Node3</title>
<path fill="none" stroke="midnightblue" d="M62.65,-224.32C54.32,-204.61 35.72,-154.88 39.5,-112 40.28,-103.2 41.89,-93.54 43.47,-85.43"/>
<polygon fill="midnightblue" stroke="midnightblue" points="46.91,-86.07 45.51,-75.57 40.06,-84.65 46.91,-86.07"/>
</g>
<!-- Node5 -->
<g id="node5" class="node">
<title>Node5</title>
<g id="a_node5"><a xlink:href="types_8h.html" target="_top" xlink:title="Types defined by the ANT+ FIT SDK.">
<polygon fill="none" stroke="black" points="49,-112.5 49,-131.5 102,-131.5 102,-112.5 49,-112.5"/>
<text text-anchor="middle" x="75.5" y="-119.5" font-family="Helvetica,sans-Serif" font-size="10.00">types.h</text>
</a>
</g>
</g>
<!-- Node2&#45;&gt;Node5 -->
<g id="edge4" class="edge">
<title>Node2&#45;&gt;Node5</title>
<path fill="none" stroke="midnightblue" d="M67.21,-224.37C68.66,-206.62 72.01,-165.67 73.98,-141.6"/>
<polygon fill="midnightblue" stroke="midnightblue" points="77.47,-141.84 74.8,-131.59 70.49,-141.27 77.47,-141.84"/>
</g>
<!-- Node6 -->
<g id="node6" class="node">
<title>Node6</title>
<g id="a_node6"><a xlink:href="types__p_8h.html" target="_top" xlink:title=" ">
<polygon fill="none" stroke="black" points="94.5,-168.5 94.5,-187.5 158.5,-187.5 158.5,-168.5 94.5,-168.5"/>
<text text-anchor="middle" x="126.5" y="-175.5" font-family="Helvetica,sans-Serif" font-size="10.00">types_p.h</text>
</a>
</g>
</g>
<!-- Node2&#45;&gt;Node6 -->
<g id="edge6" class="edge">
<title>Node2&#45;&gt;Node6</title>
<path fill="none" stroke="midnightblue" d="M76.14,-224.32C85.01,-216.34 98.37,-204.31 109.11,-194.65"/>
<polygon fill="midnightblue" stroke="midnightblue" points="111.59,-197.13 116.68,-187.83 106.91,-191.92 111.59,-197.13"/>
</g>
<!-- Node4 -->
<g id="node4" class="node">
<title>Node4</title>
<g id="a_node4"><a xlink:title=" ">
<polygon fill="none" stroke="#bfbfbf" points="18,-0.5 18,-19.5 77,-19.5 77,-0.5 18,-0.5"/>
<text text-anchor="middle" x="47.5" y="-7.5" font-family="Helvetica,sans-Serif" font-size="10.00">QtGlobal</text>
</a>
</g>
</g>
<!-- Node3&#45;&gt;Node4 -->
<g id="edge3" class="edge">
<title>Node3&#45;&gt;Node4</title>
<path fill="none" stroke="midnightblue" d="M47.5,-56.08C47.5,-49.01 47.5,-38.86 47.5,-29.99"/>
<polygon fill="midnightblue" stroke="midnightblue" points="51,-29.75 47.5,-19.75 44,-29.75 51,-29.75"/>
</g>
<!-- Node5&#45;&gt;Node3 -->
<g id="edge5" class="edge">
<title>Node5&#45;&gt;Node3</title>
<path fill="none" stroke="midnightblue" d="M70.88,-112.08C67.04,-104.69 61.48,-93.95 56.74,-84.81"/>
<polygon fill="midnightblue" stroke="midnightblue" points="59.75,-83.02 52.04,-75.75 53.53,-86.24 59.75,-83.02"/>
</g>
<!-- Node6&#45;&gt;Node5 -->
<g id="edge7" class="edge">
<title>Node6&#45;&gt;Node5</title>
<path fill="none" stroke="midnightblue" d="M118.08,-168.08C110.65,-160.22 99.65,-148.57 90.69,-139.08"/>
<polygon fill="midnightblue" stroke="midnightblue" points="93.18,-136.62 83.76,-131.75 88.09,-141.42 93.18,-136.62"/>
</g>
<!-- Node7 -->
<g id="node7" class="node">
<title>Node7</title>
<g id="a_node7"><a xlink:title=" ">
<polygon fill="none" stroke="#bfbfbf" points="120,-112.5 120,-131.5 161,-131.5 161,-112.5 120,-112.5"/>
<text text-anchor="middle" x="140.5" y="-119.5" font-family="Helvetica,sans-Serif" font-size="10.00">QList</text>
</a>
</g>
</g>
<!-- Node6&#45;&gt;Node7 -->
<g id="edge8" class="edge">
<title>Node6&#45;&gt;Node7</title>
<path fill="none" stroke="midnightblue" d="M128.81,-168.08C130.67,-160.93 133.34,-150.64 135.65,-141.69"/>
<polygon fill="midnightblue" stroke="midnightblue" points="139.11,-142.31 138.23,-131.75 132.33,-140.55 139.11,-142.31"/>
</g>
</g>
</svg>
