<?xml version="1.0" encoding="UTF-8" standalone="no"?>
<!DOCTYPE svg PUBLIC "-//W3C//DTD SVG 1.1//EN"
 "http://www.w3.org/Graphics/SVG/1.1/DTD/svg11.dtd">
<!-- Generated by graphviz version 2.43.0 (0)
 -->
<!-- Title: videotitlemessage.cpp Pages: 1 -->
<svg width="270pt" height="364pt"
 viewBox="0.00 0.00 270.00 364.00" xmlns="http://www.w3.org/2000/svg" xmlns:xlink="http://www.w3.org/1999/xlink">
<g id="graph0" class="graph" transform="scale(1 1) rotate(0) translate(4 360)">
<title>videotitlemessage.cpp</title>
<!-- Node1 -->
<g id="node1" class="node">
<title>Node1</title>
<g id="a_node1"><a xlink:title=" ">
<polygon fill="#bfbfbf" stroke="black" points="70,-336.5 70,-355.5 198,-355.5 198,-336.5 70,-336.5"/>
<text text-anchor="middle" x="134" y="-343.5" font-family="Helvetica,sans-Serif" font-size="10.00">videotitlemessage.cpp</text>
</a>
</g>
</g>
<!-- Node2 -->
<g id="node2" class="node">
<title>Node2</title>
<g id="a_node2"><a xlink:href="videotitlemessage_8h.html" target="_top" xlink:title=" ">
<polygon fill="none" stroke="black" points="146,-280.5 146,-299.5 262,-299.5 262,-280.5 146,-280.5"/>
<text text-anchor="middle" x="204" y="-287.5" font-family="Helvetica,sans-Serif" font-size="10.00">videotitlemessage.h</text>
</a>
</g>
</g>
<!-- Node1&#45;&gt;Node2 -->
<g id="edge1" class="edge">
<title>Node1&#45;&gt;Node2</title>
<path fill="none" stroke="midnightblue" d="M145.25,-336.32C155.8,-328.18 171.8,-315.84 184.44,-306.09"/>
<polygon fill="midnightblue" stroke="midnightblue" points="186.77,-308.71 192.55,-299.83 182.49,-303.17 186.77,-308.71"/>
</g>
<!-- Node7 -->
<g id="node7" class="node">
<title>Node7</title>
<g id="a_node7"><a xlink:href="videotitlemessage__p_8h.html" target="_top" xlink:title=" ">
<polygon fill="none" stroke="black" points="0,-280.5 0,-299.5 128,-299.5 128,-280.5 0,-280.5"/>
<text text-anchor="middle" x="64" y="-287.5" font-family="Helvetica,sans-Serif" font-size="10.00">videotitlemessage_p.h</text>
</a>
</g>
</g>
<!-- Node1&#45;&gt;Node7 -->
<g id="edge7" class="edge">
<title>Node1&#45;&gt;Node7</title>
<path fill="none" stroke="midnightblue" d="M122.75,-336.32C112.2,-328.18 96.2,-315.84 83.56,-306.09"/>
<polygon fill="midnightblue" stroke="midnightblue" points="85.51,-303.17 75.45,-299.83 81.23,-308.71 85.51,-303.17"/>
</g>
<!-- Node3 -->
<g id="node3" class="node">
<title>Node3</title>
<g id="a_node3"><a xlink:href="fitdatamessage_8h.html" target="_top" xlink:title=" ">
<polygon fill="none" stroke="black" points="152.5,-168.5 152.5,-187.5 253.5,-187.5 253.5,-168.5 152.5,-168.5"/>
<text text-anchor="middle" x="203" y="-175.5" font-family="Helvetica,sans-Serif" font-size="10.00">fitdatamessage.h</text>
</a>
</g>
</g>
<!-- Node2&#45;&gt;Node3 -->
<g id="edge2" class="edge">
<title>Node2&#45;&gt;Node3</title>
<path fill="none" stroke="midnightblue" d="M203.92,-280.37C203.76,-262.62 203.39,-221.67 203.17,-197.6"/>
<polygon fill="midnightblue" stroke="midnightblue" points="206.67,-197.56 203.08,-187.59 199.67,-197.62 206.67,-197.56"/>
</g>
<!-- Node4 -->
<g id="node4" class="node">
<title>Node4</title>
<g id="a_node4"><a xlink:href="QtFit__global_8h.html" target="_top" xlink:title=" ">
<polygon fill="none" stroke="black" points="84,-56.5 84,-75.5 168,-75.5 168,-56.5 84,-56.5"/>
<text text-anchor="middle" x="126" y="-63.5" font-family="Helvetica,sans-Serif" font-size="10.00">QtFit_global.h</text>
</a>
</g>
</g>
<!-- Node3&#45;&gt;Node4 -->
<g id="edge3" class="edge">
<title>Node3&#45;&gt;Node4</title>
<path fill="none" stroke="midnightblue" d="M197.99,-168.39C190.54,-155.75 175.93,-131.56 162,-112 155.11,-102.32 146.86,-91.94 140.01,-83.59"/>
<polygon fill="midnightblue" stroke="midnightblue" points="142.56,-81.19 133.47,-75.74 137.18,-85.66 142.56,-81.19"/>
</g>
<!-- Node6 -->
<g id="node6" class="node">
<title>Node6</title>
<g id="a_node6"><a xlink:href="types_8h.html" target="_top" xlink:title="Types defined by the ANT+ FIT SDK.">
<polygon fill="none" stroke="black" points="99.5,-112.5 99.5,-131.5 152.5,-131.5 152.5,-112.5 99.5,-112.5"/>
<text text-anchor="middle" x="126" y="-119.5" font-family="Helvetica,sans-Serif" font-size="10.00">types.h</text>
</a>
</g>
</g>
<!-- Node3&#45;&gt;Node6 -->
<g id="edge5" class="edge">
<title>Node3&#45;&gt;Node6</title>
<path fill="none" stroke="midnightblue" d="M190.63,-168.32C178.84,-160.06 160.87,-147.45 146.86,-137.63"/>
<polygon fill="midnightblue" stroke="midnightblue" points="148.54,-134.53 138.34,-131.65 144.52,-140.26 148.54,-134.53"/>
</g>
<!-- Node5 -->
<g id="node5" class="node">
<title>Node5</title>
<g id="a_node5"><a xlink:title=" ">
<polygon fill="none" stroke="#bfbfbf" points="96.5,-0.5 96.5,-19.5 155.5,-19.5 155.5,-0.5 96.5,-0.5"/>
<text text-anchor="middle" x="126" y="-7.5" font-family="Helvetica,sans-Serif" font-size="10.00">QtGlobal</text>
</a>
</g>
</g>
<!-- Node4&#45;&gt;Node5 -->
<g id="edge4" class="edge">
<title>Node4&#45;&gt;Node5</title>
<path fill="none" stroke="midnightblue" d="M126,-56.08C126,-49.01 126,-38.86 126,-29.99"/>
<polygon fill="midnightblue" stroke="midnightblue" points="129.5,-29.75 126,-19.75 122.5,-29.75 129.5,-29.75"/>
</g>
<!-- Node6&#45;&gt;Node4 -->
<g id="edge6" class="edge">
<title>Node6&#45;&gt;Node4</title>
<path fill="none" stroke="midnightblue" d="M126,-112.08C126,-105.01 126,-94.86 126,-85.99"/>
<polygon fill="midnightblue" stroke="midnightblue" points="129.5,-85.75 126,-75.75 122.5,-85.75 129.5,-85.75"/>
</g>
<!-- Node8 -->
<g id="node8" class="node">
<title>Node8</title>
<g id="a_node8"><a xlink:href="fitdatamessage__p_8h.html" target="_top" xlink:title=" ">
<polygon fill="none" stroke="black" points="7.5,-224.5 7.5,-243.5 120.5,-243.5 120.5,-224.5 7.5,-224.5"/>
<text text-anchor="middle" x="64" y="-231.5" font-family="Helvetica,sans-Serif" font-size="10.00">fitdatamessage_p.h</text>
</a>
</g>
</g>
<!-- Node7&#45;&gt;Node8 -->
<g id="edge8" class="edge">
<title>Node7&#45;&gt;Node8</title>
<path fill="none" stroke="midnightblue" d="M64,-280.08C64,-273.01 64,-262.86 64,-253.99"/>
<polygon fill="midnightblue" stroke="midnightblue" points="67.5,-253.75 64,-243.75 60.5,-253.75 67.5,-253.75"/>
</g>
<!-- Node8&#45;&gt;Node4 -->
<g id="edge9" class="edge">
<title>Node8&#45;&gt;Node4</title>
<path fill="none" stroke="midnightblue" d="M52.46,-224.49C42.52,-216.38 28.88,-203.18 23,-188 15.89,-169.63 22.81,-123.12 31,-112 42.6,-96.26 61.14,-85.81 78.77,-78.98"/>
<polygon fill="midnightblue" stroke="midnightblue" points="80.17,-82.2 88.42,-75.55 77.82,-75.6 80.17,-82.2"/>
</g>
<!-- Node8&#45;&gt;Node6 -->
<g id="edge10" class="edge">
<title>Node8&#45;&gt;Node6</title>
<path fill="none" stroke="midnightblue" d="M74.09,-224.29C83.31,-215.85 96.73,-202.26 105,-188 113.37,-173.58 118.88,-155.38 122.15,-141.92"/>
<polygon fill="midnightblue" stroke="midnightblue" points="125.62,-142.42 124.38,-131.9 118.79,-140.9 125.62,-142.42"/>
</g>
<!-- Node9 -->
<g id="node9" class="node">
<title>Node9</title>
<g id="a_node9"><a xlink:href="types__p_8h.html" target="_top" xlink:title=" ">
<polygon fill="none" stroke="black" points="32,-168.5 32,-187.5 96,-187.5 96,-168.5 32,-168.5"/>
<text text-anchor="middle" x="64" y="-175.5" font-family="Helvetica,sans-Serif" font-size="10.00">types_p.h</text>
</a>
</g>
</g>
<!-- Node8&#45;&gt;Node9 -->
<g id="edge11" class="edge">
<title>Node8&#45;&gt;Node9</title>
<path fill="none" stroke="midnightblue" d="M64,-224.08C64,-217.01 64,-206.86 64,-197.99"/>
<polygon fill="midnightblue" stroke="midnightblue" points="67.5,-197.75 64,-187.75 60.5,-197.75 67.5,-197.75"/>
</g>
<!-- Node9&#45;&gt;Node6 -->
<g id="edge12" class="edge">
<title>Node9&#45;&gt;Node6</title>
<path fill="none" stroke="midnightblue" d="M73.96,-168.32C83.13,-160.34 96.94,-148.31 108.03,-138.65"/>
<polygon fill="midnightblue" stroke="midnightblue" points="110.62,-141.04 115.86,-131.83 106.02,-135.76 110.62,-141.04"/>
</g>
<!-- Node10 -->
<g id="node10" class="node">
<title>Node10</title>
<g id="a_node10"><a xlink:title=" ">
<polygon fill="none" stroke="#bfbfbf" points="40.5,-112.5 40.5,-131.5 81.5,-131.5 81.5,-112.5 40.5,-112.5"/>
<text text-anchor="middle" x="61" y="-119.5" font-family="Helvetica,sans-Serif" font-size="10.00">QList</text>
</a>
</g>
</g>
<!-- Node9&#45;&gt;Node10 -->
<g id="edge13" class="edge">
<title>Node9&#45;&gt;Node10</title>
<path fill="none" stroke="midnightblue" d="M63.5,-168.08C63.11,-161.01 62.55,-150.86 62.05,-141.99"/>
<polygon fill="midnightblue" stroke="midnightblue" points="65.54,-141.54 61.49,-131.75 58.55,-141.93 65.54,-141.54"/>
</g>
</g>
</svg>
