<?xml version="1.0" encoding="UTF-8" standalone="no"?>
<!DOCTYPE svg PUBLIC "-//W3C//DTD SVG 1.1//EN"
 "http://www.w3.org/Graphics/SVG/1.1/DTD/svg11.dtd">
<!-- Generated by graphviz version 2.43.0 (0)
 -->
<!-- Title: videodescriptionmessage.cpp Pages: 1 -->
<svg width="340pt" height="364pt"
 viewBox="0.00 0.00 339.50 364.00" xmlns="http://www.w3.org/2000/svg" xmlns:xlink="http://www.w3.org/1999/xlink">
<g id="graph0" class="graph" transform="scale(1 1) rotate(0) translate(4 360)">
<title>videodescriptionmessage.cpp</title>
<!-- Node1 -->
<g id="node1" class="node">
<title>Node1</title>
<g id="a_node1"><a xlink:title=" ">
<polygon fill="#bfbfbf" stroke="black" points="87,-336.5 87,-355.5 249,-355.5 249,-336.5 87,-336.5"/>
<text text-anchor="middle" x="168" y="-343.5" font-family="Helvetica,sans-Serif" font-size="10.00">videodescriptionmessage.cpp</text>
</a>
</g>
</g>
<!-- Node2 -->
<g id="node2" class="node">
<title>Node2</title>
<g id="a_node2"><a xlink:href="videodescriptionmessage_8h.html" target="_top" xlink:title=" ">
<polygon fill="none" stroke="black" points="180.5,-280.5 180.5,-299.5 331.5,-299.5 331.5,-280.5 180.5,-280.5"/>
<text text-anchor="middle" x="256" y="-287.5" font-family="Helvetica,sans-Serif" font-size="10.00">videodescriptionmessage.h</text>
</a>
</g>
</g>
<!-- Node1&#45;&gt;Node2 -->
<g id="edge1" class="edge">
<title>Node1&#45;&gt;Node2</title>
<path fill="none" stroke="midnightblue" d="M182.14,-336.32C195.87,-327.9 216.94,-314.97 233.06,-305.07"/>
<polygon fill="midnightblue" stroke="midnightblue" points="235.2,-307.87 241.9,-299.65 231.54,-301.9 235.2,-307.87"/>
</g>
<!-- Node7 -->
<g id="node7" class="node">
<title>Node7</title>
<g id="a_node7"><a xlink:href="videodescriptionmessage__p_8h.html" target="_top" xlink:title=" ">
<polygon fill="none" stroke="black" points="0,-280.5 0,-299.5 162,-299.5 162,-280.5 0,-280.5"/>
<text text-anchor="middle" x="81" y="-287.5" font-family="Helvetica,sans-Serif" font-size="10.00">videodescriptionmessage_p.h</text>
</a>
</g>
</g>
<!-- Node1&#45;&gt;Node7 -->
<g id="edge7" class="edge">
<title>Node1&#45;&gt;Node7</title>
<path fill="none" stroke="midnightblue" d="M154.02,-336.32C140.45,-327.9 119.62,-314.97 103.68,-305.07"/>
<polygon fill="midnightblue" stroke="midnightblue" points="105.29,-301.95 94.94,-299.65 101.59,-307.9 105.29,-301.95"/>
</g>
<!-- Node3 -->
<g id="node3" class="node">
<title>Node3</title>
<g id="a_node3"><a xlink:href="fitdatamessage_8h.html" target="_top" xlink:title=" ">
<polygon fill="none" stroke="black" points="196.5,-168.5 196.5,-187.5 297.5,-187.5 297.5,-168.5 196.5,-168.5"/>
<text text-anchor="middle" x="247" y="-175.5" font-family="Helvetica,sans-Serif" font-size="10.00">fitdatamessage.h</text>
</a>
</g>
</g>
<!-- Node2&#45;&gt;Node3 -->
<g id="edge2" class="edge">
<title>Node2&#45;&gt;Node3</title>
<path fill="none" stroke="midnightblue" d="M255.29,-280.37C253.84,-262.62 250.49,-221.67 248.52,-197.6"/>
<polygon fill="midnightblue" stroke="midnightblue" points="252.01,-197.27 247.7,-187.59 245.03,-197.84 252.01,-197.27"/>
</g>
<!-- Node4 -->
<g id="node4" class="node">
<title>Node4</title>
<g id="a_node4"><a xlink:href="QtFit__global_8h.html" target="_top" xlink:title=" ">
<polygon fill="none" stroke="black" points="128,-56.5 128,-75.5 212,-75.5 212,-56.5 128,-56.5"/>
<text text-anchor="middle" x="170" y="-63.5" font-family="Helvetica,sans-Serif" font-size="10.00">QtFit_global.h</text>
</a>
</g>
</g>
<!-- Node3&#45;&gt;Node4 -->
<g id="edge3" class="edge">
<title>Node3&#45;&gt;Node4</title>
<path fill="none" stroke="midnightblue" d="M241.99,-168.39C234.54,-155.75 219.93,-131.56 206,-112 199.11,-102.32 190.86,-91.94 184.01,-83.59"/>
<polygon fill="midnightblue" stroke="midnightblue" points="186.56,-81.19 177.47,-75.74 181.18,-85.66 186.56,-81.19"/>
</g>
<!-- Node6 -->
<g id="node6" class="node">
<title>Node6</title>
<g id="a_node6"><a xlink:href="types_8h.html" target="_top" xlink:title="Types defined by the ANT+ FIT SDK.">
<polygon fill="none" stroke="black" points="143.5,-112.5 143.5,-131.5 196.5,-131.5 196.5,-112.5 143.5,-112.5"/>
<text text-anchor="middle" x="170" y="-119.5" font-family="Helvetica,sans-Serif" font-size="10.00">types.h</text>
</a>
</g>
</g>
<!-- Node3&#45;&gt;Node6 -->
<g id="edge5" class="edge">
<title>Node3&#45;&gt;Node6</title>
<path fill="none" stroke="midnightblue" d="M234.63,-168.32C222.84,-160.06 204.87,-147.45 190.86,-137.63"/>
<polygon fill="midnightblue" stroke="midnightblue" points="192.54,-134.53 182.34,-131.65 188.52,-140.26 192.54,-134.53"/>
</g>
<!-- Node5 -->
<g id="node5" class="node">
<title>Node5</title>
<g id="a_node5"><a xlink:title=" ">
<polygon fill="none" stroke="#bfbfbf" points="140.5,-0.5 140.5,-19.5 199.5,-19.5 199.5,-0.5 140.5,-0.5"/>
<text text-anchor="middle" x="170" y="-7.5" font-family="Helvetica,sans-Serif" font-size="10.00">QtGlobal</text>
</a>
</g>
</g>
<!-- Node4&#45;&gt;Node5 -->
<g id="edge4" class="edge">
<title>Node4&#45;&gt;Node5</title>
<path fill="none" stroke="midnightblue" d="M170,-56.08C170,-49.01 170,-38.86 170,-29.99"/>
<polygon fill="midnightblue" stroke="midnightblue" points="173.5,-29.75 170,-19.75 166.5,-29.75 173.5,-29.75"/>
</g>
<!-- Node6&#45;&gt;Node4 -->
<g id="edge6" class="edge">
<title>Node6&#45;&gt;Node4</title>
<path fill="none" stroke="midnightblue" d="M170,-112.08C170,-105.01 170,-94.86 170,-85.99"/>
<polygon fill="midnightblue" stroke="midnightblue" points="173.5,-85.75 170,-75.75 166.5,-85.75 173.5,-85.75"/>
</g>
<!-- Node8 -->
<g id="node8" class="node">
<title>Node8</title>
<g id="a_node8"><a xlink:href="fitdatamessage__p_8h.html" target="_top" xlink:title=" ">
<polygon fill="none" stroke="black" points="42.5,-224.5 42.5,-243.5 155.5,-243.5 155.5,-224.5 42.5,-224.5"/>
<text text-anchor="middle" x="99" y="-231.5" font-family="Helvetica,sans-Serif" font-size="10.00">fitdatamessage_p.h</text>
</a>
</g>
</g>
<!-- Node7&#45;&gt;Node8 -->
<g id="edge8" class="edge">
<title>Node7&#45;&gt;Node8</title>
<path fill="none" stroke="midnightblue" d="M83.97,-280.08C86.38,-272.85 89.86,-262.41 92.87,-253.4"/>
<polygon fill="midnightblue" stroke="midnightblue" points="96.24,-254.34 96.08,-243.75 89.6,-252.13 96.24,-254.34"/>
</g>
<!-- Node8&#45;&gt;Node4 -->
<g id="edge9" class="edge">
<title>Node8&#45;&gt;Node4</title>
<path fill="none" stroke="midnightblue" d="M90.25,-224.29C82.44,-215.84 71.55,-202.25 67,-188 60.76,-168.45 69.27,-119.78 75,-112 86.6,-96.26 105.14,-85.81 122.77,-78.98"/>
<polygon fill="midnightblue" stroke="midnightblue" points="124.17,-82.2 132.42,-75.55 121.82,-75.6 124.17,-82.2"/>
</g>
<!-- Node8&#45;&gt;Node6 -->
<g id="edge10" class="edge">
<title>Node8&#45;&gt;Node6</title>
<path fill="none" stroke="midnightblue" d="M111.83,-224.45C123.11,-216.31 139.22,-203.09 149,-188 158.17,-173.85 163.64,-155.37 166.68,-141.73"/>
<polygon fill="midnightblue" stroke="midnightblue" points="170.17,-142.11 168.69,-131.61 163.31,-140.74 170.17,-142.11"/>
</g>
<!-- Node9 -->
<g id="node9" class="node">
<title>Node9</title>
<g id="a_node9"><a xlink:href="types__p_8h.html" target="_top" xlink:title=" ">
<polygon fill="none" stroke="black" points="76,-168.5 76,-187.5 140,-187.5 140,-168.5 76,-168.5"/>
<text text-anchor="middle" x="108" y="-175.5" font-family="Helvetica,sans-Serif" font-size="10.00">types_p.h</text>
</a>
</g>
</g>
<!-- Node8&#45;&gt;Node9 -->
<g id="edge11" class="edge">
<title>Node8&#45;&gt;Node9</title>
<path fill="none" stroke="midnightblue" d="M100.49,-224.08C101.68,-216.93 103.39,-206.64 104.88,-197.69"/>
<polygon fill="midnightblue" stroke="midnightblue" points="108.35,-198.19 106.54,-187.75 101.45,-197.04 108.35,-198.19"/>
</g>
<!-- Node9&#45;&gt;Node6 -->
<g id="edge12" class="edge">
<title>Node9&#45;&gt;Node6</title>
<path fill="none" stroke="midnightblue" d="M117.96,-168.32C127.13,-160.34 140.94,-148.31 152.03,-138.65"/>
<polygon fill="midnightblue" stroke="midnightblue" points="154.62,-141.04 159.86,-131.83 150.02,-135.76 154.62,-141.04"/>
</g>
<!-- Node10 -->
<g id="node10" class="node">
<title>Node10</title>
<g id="a_node10"><a xlink:title=" ">
<polygon fill="none" stroke="#bfbfbf" points="84.5,-112.5 84.5,-131.5 125.5,-131.5 125.5,-112.5 84.5,-112.5"/>
<text text-anchor="middle" x="105" y="-119.5" font-family="Helvetica,sans-Serif" font-size="10.00">QList</text>
</a>
</g>
</g>
<!-- Node9&#45;&gt;Node10 -->
<g id="edge13" class="edge">
<title>Node9&#45;&gt;Node10</title>
<path fill="none" stroke="midnightblue" d="M107.5,-168.08C107.11,-161.01 106.55,-150.86 106.05,-141.99"/>
<polygon fill="midnightblue" stroke="midnightblue" points="109.54,-141.54 105.49,-131.75 102.55,-141.93 109.54,-141.54"/>
</g>
</g>
</svg>
