<?xml version="1.0" encoding="UTF-8" standalone="no"?>
<!DOCTYPE svg PUBLIC "-//W3C//DTD SVG 1.1//EN"
 "http://www.w3.org/Graphics/SVG/1.1/DTD/svg11.dtd">
<!-- Generated by graphviz version 2.43.0 (0)
 -->
<!-- Title: videotitlemessage_p.h Pages: 1 -->
<svg width="167pt" height="308pt"
 viewBox="0.00 0.00 166.50 308.00" xmlns="http://www.w3.org/2000/svg" xmlns:xlink="http://www.w3.org/1999/xlink">
<g id="graph0" class="graph" transform="scale(1 1) rotate(0) translate(4 304)">
<title>videotitlemessage_p.h</title>
<!-- Node1 -->
<g id="node1" class="node">
<title>Node1</title>
<g id="a_node1"><a xlink:title=" ">
<polygon fill="#bfbfbf" stroke="black" points="0,-280.5 0,-299.5 128,-299.5 128,-280.5 0,-280.5"/>
<text text-anchor="middle" x="64" y="-287.5" font-family="Helvetica,sans-Serif" font-size="10.00">videotitlemessage_p.h</text>
</a>
</g>
</g>
<!-- Node2 -->
<g id="node2" class="node">
<title>Node2</title>
<g id="a_node2"><a xlink:href="fitdatamessage__p_8h.html" target="_top" xlink:title=" ">
<polygon fill="none" stroke="black" points="7.5,-224.5 7.5,-243.5 120.5,-243.5 120.5,-224.5 7.5,-224.5"/>
<text text-anchor="middle" x="64" y="-231.5" font-family="Helvetica,sans-Serif" font-size="10.00">fitdatamessage_p.h</text>
</a>
</g>
</g>
<!-- Node1&#45;&gt;Node2 -->
<g id="edge1" class="edge">
<title>Node1&#45;&gt;Node2</title>
<path fill="none" stroke="midnightblue" d="M64,-280.08C64,-273.01 64,-262.86 64,-253.99"/>
<polygon fill="midnightblue" stroke="midnightblue" points="67.5,-253.75 64,-243.75 60.5,-253.75 67.5,-253.75"/>
</g>
<!-- Node3 -->
<g id="node3" class="node">
<title>Node3</title>
<g id="a_node3"><a xlink:href="QtFit__global_8h.html" target="_top" xlink:title=" ">
<polygon fill="none" stroke="black" points="3,-56.5 3,-75.5 87,-75.5 87,-56.5 3,-56.5"/>
<text text-anchor="middle" x="45" y="-63.5" font-family="Helvetica,sans-Serif" font-size="10.00">QtFit_global.h</text>
</a>
</g>
</g>
<!-- Node2&#45;&gt;Node3 -->
<g id="edge2" class="edge">
<title>Node2&#45;&gt;Node3</title>
<path fill="none" stroke="midnightblue" d="M60.15,-224.32C51.82,-204.61 33.22,-154.88 37,-112 37.78,-103.2 39.39,-93.54 40.97,-85.43"/>
<polygon fill="midnightblue" stroke="midnightblue" points="44.41,-86.07 43.01,-75.57 37.56,-84.65 44.41,-86.07"/>
</g>
<!-- Node5 -->
<g id="node5" class="node">
<title>Node5</title>
<g id="a_node5"><a xlink:href="types_8h.html" target="_top" xlink:title="Types defined by the ANT+ FIT SDK.">
<polygon fill="none" stroke="black" points="46.5,-112.5 46.5,-131.5 99.5,-131.5 99.5,-112.5 46.5,-112.5"/>
<text text-anchor="middle" x="73" y="-119.5" font-family="Helvetica,sans-Serif" font-size="10.00">types.h</text>
</a>
</g>
</g>
<!-- Node2&#45;&gt;Node5 -->
<g id="edge4" class="edge">
<title>Node2&#45;&gt;Node5</title>
<path fill="none" stroke="midnightblue" d="M64.71,-224.37C66.16,-206.62 69.51,-165.67 71.48,-141.6"/>
<polygon fill="midnightblue" stroke="midnightblue" points="74.97,-141.84 72.3,-131.59 67.99,-141.27 74.97,-141.84"/>
</g>
<!-- Node6 -->
<g id="node6" class="node">
<title>Node6</title>
<g id="a_node6"><a xlink:href="types__p_8h.html" target="_top" xlink:title=" ">
<polygon fill="none" stroke="black" points="92,-168.5 92,-187.5 156,-187.5 156,-168.5 92,-168.5"/>
<text text-anchor="middle" x="124" y="-175.5" font-family="Helvetica,sans-Serif" font-size="10.00">types_p.h</text>
</a>
</g>
</g>
<!-- Node2&#45;&gt;Node6 -->
<g id="edge6" class="edge">
<title>Node2&#45;&gt;Node6</title>
<path fill="none" stroke="midnightblue" d="M73.64,-224.32C82.51,-216.34 95.87,-204.31 106.61,-194.65"/>
<polygon fill="midnightblue" stroke="midnightblue" points="109.09,-197.13 114.18,-187.83 104.41,-191.92 109.09,-197.13"/>
</g>
<!-- Node4 -->
<g id="node4" class="node">
<title>Node4</title>
<g id="a_node4"><a xlink:title=" ">
<polygon fill="none" stroke="#bfbfbf" points="15.5,-0.5 15.5,-19.5 74.5,-19.5 74.5,-0.5 15.5,-0.5"/>
<text text-anchor="middle" x="45" y="-7.5" font-family="Helvetica,sans-Serif" font-size="10.00">QtGlobal</text>
</a>
</g>
</g>
<!-- Node3&#45;&gt;Node4 -->
<g id="edge3" class="edge">
<title>Node3&#45;&gt;Node4</title>
<path fill="none" stroke="midnightblue" d="M45,-56.08C45,-49.01 45,-38.86 45,-29.99"/>
<polygon fill="midnightblue" stroke="midnightblue" points="48.5,-29.75 45,-19.75 41.5,-29.75 48.5,-29.75"/>
</g>
<!-- Node5&#45;&gt;Node3 -->
<g id="edge5" class="edge">
<title>Node5&#45;&gt;Node3</title>
<path fill="none" stroke="midnightblue" d="M68.38,-112.08C64.54,-104.69 58.98,-93.95 54.24,-84.81"/>
<polygon fill="midnightblue" stroke="midnightblue" points="57.25,-83.02 49.54,-75.75 51.03,-86.24 57.25,-83.02"/>
</g>
<!-- Node6&#45;&gt;Node5 -->
<g id="edge7" class="edge">
<title>Node6&#45;&gt;Node5</title>
<path fill="none" stroke="midnightblue" d="M115.58,-168.08C108.15,-160.22 97.15,-148.57 88.19,-139.08"/>
<polygon fill="midnightblue" stroke="midnightblue" points="90.68,-136.62 81.26,-131.75 85.59,-141.42 90.68,-136.62"/>
</g>
<!-- Node7 -->
<g id="node7" class="node">
<title>Node7</title>
<g id="a_node7"><a xlink:title=" ">
<polygon fill="none" stroke="#bfbfbf" points="117.5,-112.5 117.5,-131.5 158.5,-131.5 158.5,-112.5 117.5,-112.5"/>
<text text-anchor="middle" x="138" y="-119.5" font-family="Helvetica,sans-Serif" font-size="10.00">QList</text>
</a>
</g>
</g>
<!-- Node6&#45;&gt;Node7 -->
<g id="edge8" class="edge">
<title>Node6&#45;&gt;Node7</title>
<path fill="none" stroke="midnightblue" d="M126.31,-168.08C128.17,-160.93 130.84,-150.64 133.15,-141.69"/>
<polygon fill="midnightblue" stroke="midnightblue" points="136.61,-142.31 135.73,-131.75 129.83,-140.55 136.61,-142.31"/>
</g>
</g>
</svg>
