<?xml version="1.0" encoding="UTF-8" standalone="no"?>
<!DOCTYPE svg PUBLIC "-//W3C//DTD SVG 1.1//EN"
 "http://www.w3.org/Graphics/SVG/1.1/DTD/svg11.dtd">
<!-- Generated by graphviz version 2.43.0 (0)
 -->
<!-- Title: videodescriptionmessage.cpp Pages: 1 -->
<svg width="457pt" height="364pt"
 viewBox="0.00 0.00 457.00 364.00" xmlns="http://www.w3.org/2000/svg" xmlns:xlink="http://www.w3.org/1999/xlink">
<g id="graph0" class="graph" transform="scale(1 1) rotate(0) translate(4 360)">
<title>videodescriptionmessage.cpp</title>
<!-- Node1 -->
<g id="node1" class="node">
<title>Node1</title>
<g id="a_node1"><a xlink:title=" ">
<polygon fill="#bfbfbf" stroke="black" points="223.5,-336.5 223.5,-355.5 385.5,-355.5 385.5,-336.5 223.5,-336.5"/>
<text text-anchor="middle" x="304.5" y="-343.5" font-family="Helvetica,sans-Serif" font-size="10.00">videodescriptionmessage.cpp</text>
</a>
</g>
</g>
<!-- Node2 -->
<g id="node2" class="node">
<title>Node2</title>
<g id="a_node2"><a xlink:href="videodescriptionmessage_8h.html" target="_top" xlink:title=" ">
<polygon fill="none" stroke="black" points="0,-280.5 0,-299.5 151,-299.5 151,-280.5 0,-280.5"/>
<text text-anchor="middle" x="75.5" y="-287.5" font-family="Helvetica,sans-Serif" font-size="10.00">videodescriptionmessage.h</text>
</a>
</g>
</g>
<!-- Node1&#45;&gt;Node2 -->
<g id="edge1" class="edge">
<title>Node1&#45;&gt;Node2</title>
<path fill="none" stroke="midnightblue" d="M268.21,-336.44C228.52,-327.08 164.79,-312.06 121.59,-301.87"/>
<polygon fill="midnightblue" stroke="midnightblue" points="122.15,-298.41 111.62,-299.52 120.55,-305.22 122.15,-298.41"/>
</g>
<!-- Node7 -->
<g id="node7" class="node">
<title>Node7</title>
<g id="a_node7"><a xlink:title=" ">
<polygon fill="none" stroke="#bfbfbf" points="290.5,-56.5 290.5,-75.5 346.5,-75.5 346.5,-56.5 290.5,-56.5"/>
<text text-anchor="middle" x="318.5" y="-63.5" font-family="Helvetica,sans-Serif" font-size="10.00">QDebug</text>
</a>
</g>
</g>
<!-- Node1&#45;&gt;Node7 -->
<g id="edge15" class="edge">
<title>Node1&#45;&gt;Node7</title>
<path fill="none" stroke="midnightblue" d="M313.08,-336.43C321.2,-327.88 333.21,-314.02 340.5,-300 354.39,-273.3 359.5,-265.1 359.5,-235 359.5,-235 359.5,-235 359.5,-177 359.5,-142.52 341.59,-105.56 329.44,-84.47"/>
<polygon fill="midnightblue" stroke="midnightblue" points="332.34,-82.49 324.2,-75.71 326.34,-86.09 332.34,-82.49"/>
</g>
<!-- Node8 -->
<g id="node8" class="node">
<title>Node8</title>
<g id="a_node8"><a xlink:href="videodescriptionmessage__p_8h.html" target="_top" xlink:title=" ">
<polygon fill="none" stroke="black" points="169.5,-280.5 169.5,-299.5 331.5,-299.5 331.5,-280.5 169.5,-280.5"/>
<text text-anchor="middle" x="250.5" y="-287.5" font-family="Helvetica,sans-Serif" font-size="10.00">videodescriptionmessage_p.h</text>
</a>
</g>
</g>
<!-- Node1&#45;&gt;Node8 -->
<g id="edge8" class="edge">
<title>Node1&#45;&gt;Node8</title>
<path fill="none" stroke="midnightblue" d="M295.58,-336.08C287.72,-328.22 276.07,-316.57 266.58,-307.08"/>
<polygon fill="midnightblue" stroke="midnightblue" points="268.8,-304.35 259.25,-299.75 263.85,-309.3 268.8,-304.35"/>
</g>
<!-- Node12 -->
<g id="node12" class="node">
<title>Node12</title>
<g id="a_node12"><a xlink:title=" ">
<polygon fill="none" stroke="#bfbfbf" points="388,-280.5 388,-299.5 449,-299.5 449,-280.5 388,-280.5"/>
<text text-anchor="middle" x="418.5" y="-287.5" font-family="Helvetica,sans-Serif" font-size="10.00">QtEndian</text>
</a>
</g>
</g>
<!-- Node1&#45;&gt;Node12 -->
<g id="edge16" class="edge">
<title>Node1&#45;&gt;Node12</title>
<path fill="none" stroke="midnightblue" d="M322.56,-336.44C341.07,-327.68 370.08,-313.94 391.36,-303.86"/>
<polygon fill="midnightblue" stroke="midnightblue" points="392.98,-306.96 400.52,-299.52 389.99,-300.63 392.98,-306.96"/>
</g>
<!-- Node3 -->
<g id="node3" class="node">
<title>Node3</title>
<g id="a_node3"><a xlink:href="fitdatamessage_8h.html" target="_top" xlink:title=" ">
<polygon fill="none" stroke="black" points="58,-168.5 58,-187.5 159,-187.5 159,-168.5 58,-168.5"/>
<text text-anchor="middle" x="108.5" y="-175.5" font-family="Helvetica,sans-Serif" font-size="10.00">fitdatamessage.h</text>
</a>
</g>
</g>
<!-- Node2&#45;&gt;Node3 -->
<g id="edge2" class="edge">
<title>Node2&#45;&gt;Node3</title>
<path fill="none" stroke="midnightblue" d="M78.09,-280.37C83.44,-262.54 95.81,-221.3 103.02,-197.27"/>
<polygon fill="midnightblue" stroke="midnightblue" points="106.4,-198.18 105.92,-187.59 99.7,-196.16 106.4,-198.18"/>
</g>
<!-- Node4 -->
<g id="node4" class="node">
<title>Node4</title>
<g id="a_node4"><a xlink:href="QtFit__global_8h.html" target="_top" xlink:title=" ">
<polygon fill="none" stroke="black" points="145.5,-56.5 145.5,-75.5 229.5,-75.5 229.5,-56.5 145.5,-56.5"/>
<text text-anchor="middle" x="187.5" y="-63.5" font-family="Helvetica,sans-Serif" font-size="10.00">QtFit_global.h</text>
</a>
</g>
</g>
<!-- Node3&#45;&gt;Node4 -->
<g id="edge3" class="edge">
<title>Node3&#45;&gt;Node4</title>
<path fill="none" stroke="midnightblue" d="M114.7,-168.37C127.74,-150.22 158.2,-107.8 175.3,-83.99"/>
<polygon fill="midnightblue" stroke="midnightblue" points="178.34,-85.76 181.33,-75.59 172.65,-81.67 178.34,-85.76"/>
</g>
<!-- Node6 -->
<g id="node6" class="node">
<title>Node6</title>
<g id="a_node6"><a xlink:href="types_8h.html" target="_top" xlink:title="Types defined by the ANT+ FIT SDK.">
<polygon fill="none" stroke="black" points="216,-112.5 216,-131.5 269,-131.5 269,-112.5 216,-112.5"/>
<text text-anchor="middle" x="242.5" y="-119.5" font-family="Helvetica,sans-Serif" font-size="10.00">types.h</text>
</a>
</g>
</g>
<!-- Node3&#45;&gt;Node6 -->
<g id="edge5" class="edge">
<title>Node3&#45;&gt;Node6</title>
<path fill="none" stroke="midnightblue" d="M129.73,-168.44C151.88,-159.52 186.82,-145.44 211.94,-135.32"/>
<polygon fill="midnightblue" stroke="midnightblue" points="213.4,-138.5 221.37,-131.52 210.78,-132.01 213.4,-138.5"/>
</g>
<!-- Node5 -->
<g id="node5" class="node">
<title>Node5</title>
<g id="a_node5"><a xlink:title=" ">
<polygon fill="none" stroke="#bfbfbf" points="158,-0.5 158,-19.5 217,-19.5 217,-0.5 158,-0.5"/>
<text text-anchor="middle" x="187.5" y="-7.5" font-family="Helvetica,sans-Serif" font-size="10.00">QtGlobal</text>
</a>
</g>
</g>
<!-- Node4&#45;&gt;Node5 -->
<g id="edge4" class="edge">
<title>Node4&#45;&gt;Node5</title>
<path fill="none" stroke="midnightblue" d="M187.5,-56.08C187.5,-49.01 187.5,-38.86 187.5,-29.99"/>
<polygon fill="midnightblue" stroke="midnightblue" points="191,-29.75 187.5,-19.75 184,-29.75 191,-29.75"/>
</g>
<!-- Node6&#45;&gt;Node4 -->
<g id="edge6" class="edge">
<title>Node6&#45;&gt;Node4</title>
<path fill="none" stroke="midnightblue" d="M233.42,-112.08C225.33,-104.14 213.3,-92.34 203.59,-82.8"/>
<polygon fill="midnightblue" stroke="midnightblue" points="206,-80.26 196.41,-75.75 201.1,-85.25 206,-80.26"/>
</g>
<!-- Node6&#45;&gt;Node7 -->
<g id="edge7" class="edge">
<title>Node6&#45;&gt;Node7</title>
<path fill="none" stroke="midnightblue" d="M254.71,-112.32C266.28,-104.11 283.88,-91.6 297.66,-81.81"/>
<polygon fill="midnightblue" stroke="midnightblue" points="299.94,-84.48 306.07,-75.83 295.89,-78.77 299.94,-84.48"/>
</g>
<!-- Node9 -->
<g id="node9" class="node">
<title>Node9</title>
<g id="a_node9"><a xlink:href="fitdatamessage__p_8h.html" target="_top" xlink:title=" ">
<polygon fill="none" stroke="black" points="188,-224.5 188,-243.5 301,-243.5 301,-224.5 188,-224.5"/>
<text text-anchor="middle" x="244.5" y="-231.5" font-family="Helvetica,sans-Serif" font-size="10.00">fitdatamessage_p.h</text>
</a>
</g>
</g>
<!-- Node8&#45;&gt;Node9 -->
<g id="edge9" class="edge">
<title>Node8&#45;&gt;Node9</title>
<path fill="none" stroke="midnightblue" d="M249.51,-280.08C248.71,-272.93 247.57,-262.64 246.58,-253.69"/>
<polygon fill="midnightblue" stroke="midnightblue" points="250.06,-253.3 245.47,-243.75 243.1,-254.08 250.06,-253.3"/>
</g>
<!-- Node9&#45;&gt;Node4 -->
<g id="edge10" class="edge">
<title>Node9&#45;&gt;Node4</title>
<path fill="none" stroke="midnightblue" d="M241.03,-224.43C234.06,-207.12 218.07,-166.65 206.5,-132 201.32,-116.49 196.16,-98.65 192.53,-85.59"/>
<polygon fill="midnightblue" stroke="midnightblue" points="195.89,-84.61 189.87,-75.9 189.14,-86.47 195.89,-84.61"/>
</g>
<!-- Node9&#45;&gt;Node6 -->
<g id="edge11" class="edge">
<title>Node9&#45;&gt;Node6</title>
<path fill="none" stroke="midnightblue" d="M244.34,-224.37C244.02,-206.62 243.28,-165.67 242.84,-141.6"/>
<polygon fill="midnightblue" stroke="midnightblue" points="246.34,-141.53 242.66,-131.59 239.34,-141.65 246.34,-141.53"/>
</g>
<!-- Node10 -->
<g id="node10" class="node">
<title>Node10</title>
<g id="a_node10"><a xlink:href="types__p_8h.html" target="_top" xlink:title=" ">
<polygon fill="none" stroke="black" points="267.5,-168.5 267.5,-187.5 331.5,-187.5 331.5,-168.5 267.5,-168.5"/>
<text text-anchor="middle" x="299.5" y="-175.5" font-family="Helvetica,sans-Serif" font-size="10.00">types_p.h</text>
</a>
</g>
</g>
<!-- Node9&#45;&gt;Node10 -->
<g id="edge12" class="edge">
<title>Node9&#45;&gt;Node10</title>
<path fill="none" stroke="midnightblue" d="M253.58,-224.08C261.67,-216.14 273.7,-204.34 283.41,-194.8"/>
<polygon fill="midnightblue" stroke="midnightblue" points="285.9,-197.25 290.59,-187.75 281,-192.26 285.9,-197.25"/>
</g>
<!-- Node10&#45;&gt;Node6 -->
<g id="edge13" class="edge">
<title>Node10&#45;&gt;Node6</title>
<path fill="none" stroke="midnightblue" d="M290.34,-168.32C282,-160.42 269.47,-148.55 259.32,-138.94"/>
<polygon fill="midnightblue" stroke="midnightblue" points="261.49,-136.17 251.82,-131.83 256.68,-141.25 261.49,-136.17"/>
</g>
<!-- Node11 -->
<g id="node11" class="node">
<title>Node11</title>
<g id="a_node11"><a xlink:title=" ">
<polygon fill="none" stroke="#bfbfbf" points="287,-112.5 287,-131.5 328,-131.5 328,-112.5 287,-112.5"/>
<text text-anchor="middle" x="307.5" y="-119.5" font-family="Helvetica,sans-Serif" font-size="10.00">QList</text>
</a>
</g>
</g>
<!-- Node10&#45;&gt;Node11 -->
<g id="edge14" class="edge">
<title>Node10&#45;&gt;Node11</title>
<path fill="none" stroke="midnightblue" d="M300.82,-168.08C301.88,-160.93 303.41,-150.64 304.73,-141.69"/>
<polygon fill="midnightblue" stroke="midnightblue" points="308.2,-142.16 306.2,-131.75 301.28,-141.13 308.2,-142.16"/>
</g>
</g>
</svg>
