<?xml version="1.0" encoding="UTF-8" standalone="no"?>
<!DOCTYPE svg PUBLIC "-//W3C//DTD SVG 1.1//EN"
 "http://www.w3.org/Graphics/SVG/1.1/DTD/svg11.dtd">
<!-- Generated by graphviz version 2.43.0 (0)
 -->
<!-- Title: videodescriptionmessage.cpp Pages: 1 -->
<svg width="372pt" height="364pt"
 viewBox="0.00 0.00 371.50 364.00" xmlns="http://www.w3.org/2000/svg" xmlns:xlink="http://www.w3.org/1999/xlink">
<g id="graph0" class="graph" transform="scale(1 1) rotate(0) translate(4 360)">
<title>videodescriptionmessage.cpp</title>
<!-- Node1 -->
<g id="node1" class="node">
<title>Node1</title>
<g id="a_node1"><a xlink:title=" ">
<polygon fill="#bfbfbf" stroke="black" points="147,-336.5 147,-355.5 309,-355.5 309,-336.5 147,-336.5"/>
<text text-anchor="middle" x="228" y="-343.5" font-family="Helvetica,sans-Serif" font-size="10.00">videodescriptionmessage.cpp</text>
</a>
</g>
</g>
<!-- Node2 -->
<g id="node2" class="node">
<title>Node2</title>
<g id="a_node2"><a xlink:href="videodescriptionmessage_8h.html" target="_top" xlink:title=" ">
<polygon fill="none" stroke="black" points="135.5,-224.5 135.5,-243.5 286.5,-243.5 286.5,-224.5 135.5,-224.5"/>
<text text-anchor="middle" x="211" y="-231.5" font-family="Helvetica,sans-Serif" font-size="10.00">videodescriptionmessage.h</text>
</a>
</g>
</g>
<!-- Node1&#45;&gt;Node2 -->
<g id="edge1" class="edge">
<title>Node1&#45;&gt;Node2</title>
<path fill="none" stroke="midnightblue" d="M226.08,-336.41C224.11,-327.38 221.06,-312.74 219,-300 216.51,-284.55 214.38,-266.92 212.95,-253.92"/>
<polygon fill="midnightblue" stroke="midnightblue" points="216.42,-253.43 211.88,-243.86 209.46,-254.18 216.42,-253.43"/>
</g>
<!-- Node7 -->
<g id="node7" class="node">
<title>Node7</title>
<g id="a_node7"><a xlink:href="videodescriptionmessage__p_8h.html" target="_top" xlink:title=" ">
<polygon fill="none" stroke="black" points="0,-280.5 0,-299.5 162,-299.5 162,-280.5 0,-280.5"/>
<text text-anchor="middle" x="81" y="-287.5" font-family="Helvetica,sans-Serif" font-size="10.00">videodescriptionmessage_p.h</text>
</a>
</g>
</g>
<!-- Node1&#45;&gt;Node7 -->
<g id="edge7" class="edge">
<title>Node1&#45;&gt;Node7</title>
<path fill="none" stroke="midnightblue" d="M204.71,-336.44C180.19,-327.44 141.4,-313.19 113.8,-303.05"/>
<polygon fill="midnightblue" stroke="midnightblue" points="114.78,-299.68 104.18,-299.52 112.36,-306.25 114.78,-299.68"/>
</g>
<!-- Node11 -->
<g id="node11" class="node">
<title>Node11</title>
<g id="a_node11"><a xlink:title=" ">
<polygon fill="none" stroke="#bfbfbf" points="228,-280.5 228,-299.5 284,-299.5 284,-280.5 228,-280.5"/>
<text text-anchor="middle" x="256" y="-287.5" font-family="Helvetica,sans-Serif" font-size="10.00">QDebug</text>
</a>
</g>
</g>
<!-- Node1&#45;&gt;Node11 -->
<g id="edge14" class="edge">
<title>Node1&#45;&gt;Node11</title>
<path fill="none" stroke="midnightblue" d="M232.62,-336.08C236.46,-328.69 242.02,-317.95 246.76,-308.81"/>
<polygon fill="midnightblue" stroke="midnightblue" points="249.97,-310.24 251.46,-299.75 243.75,-307.02 249.97,-310.24"/>
</g>
<!-- Node12 -->
<g id="node12" class="node">
<title>Node12</title>
<g id="a_node12"><a xlink:title=" ">
<polygon fill="none" stroke="#bfbfbf" points="302.5,-280.5 302.5,-299.5 363.5,-299.5 363.5,-280.5 302.5,-280.5"/>
<text text-anchor="middle" x="333" y="-287.5" font-family="Helvetica,sans-Serif" font-size="10.00">QtEndian</text>
</a>
</g>
</g>
<!-- Node1&#45;&gt;Node12 -->
<g id="edge15" class="edge">
<title>Node1&#45;&gt;Node12</title>
<path fill="none" stroke="midnightblue" d="M244.87,-336.32C261.71,-327.66 287.81,-314.24 307.24,-304.25"/>
<polygon fill="midnightblue" stroke="midnightblue" points="308.88,-307.34 316.17,-299.65 305.68,-301.12 308.88,-307.34"/>
</g>
<!-- Node3 -->
<g id="node3" class="node">
<title>Node3</title>
<g id="a_node3"><a xlink:href="fitdatamessage_8h.html" target="_top" xlink:title=" ">
<polygon fill="none" stroke="black" points="155.5,-168.5 155.5,-187.5 256.5,-187.5 256.5,-168.5 155.5,-168.5"/>
<text text-anchor="middle" x="206" y="-175.5" font-family="Helvetica,sans-Serif" font-size="10.00">fitdatamessage.h</text>
</a>
</g>
</g>
<!-- Node2&#45;&gt;Node3 -->
<g id="edge2" class="edge">
<title>Node2&#45;&gt;Node3</title>
<path fill="none" stroke="midnightblue" d="M210.17,-224.08C209.52,-217.01 208.58,-206.86 207.76,-197.99"/>
<polygon fill="midnightblue" stroke="midnightblue" points="211.22,-197.39 206.81,-187.75 204.25,-198.03 211.22,-197.39"/>
</g>
<!-- Node4 -->
<g id="node4" class="node">
<title>Node4</title>
<g id="a_node4"><a xlink:href="QtFit__global_8h.html" target="_top" xlink:title=" ">
<polygon fill="none" stroke="black" points="87,-56.5 87,-75.5 171,-75.5 171,-56.5 87,-56.5"/>
<text text-anchor="middle" x="129" y="-63.5" font-family="Helvetica,sans-Serif" font-size="10.00">QtFit_global.h</text>
</a>
</g>
</g>
<!-- Node3&#45;&gt;Node4 -->
<g id="edge3" class="edge">
<title>Node3&#45;&gt;Node4</title>
<path fill="none" stroke="midnightblue" d="M200.99,-168.39C193.54,-155.75 178.93,-131.56 165,-112 158.11,-102.32 149.86,-91.94 143.01,-83.59"/>
<polygon fill="midnightblue" stroke="midnightblue" points="145.56,-81.19 136.47,-75.74 140.18,-85.66 145.56,-81.19"/>
</g>
<!-- Node6 -->
<g id="node6" class="node">
<title>Node6</title>
<g id="a_node6"><a xlink:href="types_8h.html" target="_top" xlink:title="Types defined by the ANT+ FIT SDK.">
<polygon fill="none" stroke="black" points="102.5,-112.5 102.5,-131.5 155.5,-131.5 155.5,-112.5 102.5,-112.5"/>
<text text-anchor="middle" x="129" y="-119.5" font-family="Helvetica,sans-Serif" font-size="10.00">types.h</text>
</a>
</g>
</g>
<!-- Node3&#45;&gt;Node6 -->
<g id="edge5" class="edge">
<title>Node3&#45;&gt;Node6</title>
<path fill="none" stroke="midnightblue" d="M193.63,-168.32C181.84,-160.06 163.87,-147.45 149.86,-137.63"/>
<polygon fill="midnightblue" stroke="midnightblue" points="151.54,-134.53 141.34,-131.65 147.52,-140.26 151.54,-134.53"/>
</g>
<!-- Node5 -->
<g id="node5" class="node">
<title>Node5</title>
<g id="a_node5"><a xlink:title=" ">
<polygon fill="none" stroke="#bfbfbf" points="99.5,-0.5 99.5,-19.5 158.5,-19.5 158.5,-0.5 99.5,-0.5"/>
<text text-anchor="middle" x="129" y="-7.5" font-family="Helvetica,sans-Serif" font-size="10.00">QtGlobal</text>
</a>
</g>
</g>
<!-- Node4&#45;&gt;Node5 -->
<g id="edge4" class="edge">
<title>Node4&#45;&gt;Node5</title>
<path fill="none" stroke="midnightblue" d="M129,-56.08C129,-49.01 129,-38.86 129,-29.99"/>
<polygon fill="midnightblue" stroke="midnightblue" points="132.5,-29.75 129,-19.75 125.5,-29.75 132.5,-29.75"/>
</g>
<!-- Node6&#45;&gt;Node4 -->
<g id="edge6" class="edge">
<title>Node6&#45;&gt;Node4</title>
<path fill="none" stroke="midnightblue" d="M129,-112.08C129,-105.01 129,-94.86 129,-85.99"/>
<polygon fill="midnightblue" stroke="midnightblue" points="132.5,-85.75 129,-75.75 125.5,-85.75 132.5,-85.75"/>
</g>
<!-- Node8 -->
<g id="node8" class="node">
<title>Node8</title>
<g id="a_node8"><a xlink:href="fitdatamessage__p_8h.html" target="_top" xlink:title=" ">
<polygon fill="none" stroke="black" points="4.5,-224.5 4.5,-243.5 117.5,-243.5 117.5,-224.5 4.5,-224.5"/>
<text text-anchor="middle" x="61" y="-231.5" font-family="Helvetica,sans-Serif" font-size="10.00">fitdatamessage_p.h</text>
</a>
</g>
</g>
<!-- Node7&#45;&gt;Node8 -->
<g id="edge8" class="edge">
<title>Node7&#45;&gt;Node8</title>
<path fill="none" stroke="midnightblue" d="M77.7,-280.08C75.02,-272.85 71.15,-262.41 67.81,-253.4"/>
<polygon fill="midnightblue" stroke="midnightblue" points="71,-251.91 64.24,-243.75 64.43,-254.34 71,-251.91"/>
</g>
<!-- Node8&#45;&gt;Node4 -->
<g id="edge9" class="edge">
<title>Node8&#45;&gt;Node4</title>
<path fill="none" stroke="midnightblue" d="M51.44,-224.45C42.91,-216.12 31.01,-202.6 26,-188 19.44,-168.88 27.37,-120.99 34,-112 45.6,-96.26 64.14,-85.81 81.77,-78.98"/>
<polygon fill="midnightblue" stroke="midnightblue" points="83.17,-82.2 91.42,-75.55 80.82,-75.6 83.17,-82.2"/>
</g>
<!-- Node8&#45;&gt;Node6 -->
<g id="edge10" class="edge">
<title>Node8&#45;&gt;Node6</title>
<path fill="none" stroke="midnightblue" d="M73.04,-224.28C83.63,-216.03 98.76,-202.74 108,-188 116.95,-173.71 122.44,-155.24 125.55,-141.65"/>
<polygon fill="midnightblue" stroke="midnightblue" points="129.03,-142.07 127.62,-131.57 122.18,-140.66 129.03,-142.07"/>
</g>
<!-- Node9 -->
<g id="node9" class="node">
<title>Node9</title>
<g id="a_node9"><a xlink:href="types__p_8h.html" target="_top" xlink:title=" ">
<polygon fill="none" stroke="black" points="35,-168.5 35,-187.5 99,-187.5 99,-168.5 35,-168.5"/>
<text text-anchor="middle" x="67" y="-175.5" font-family="Helvetica,sans-Serif" font-size="10.00">types_p.h</text>
</a>
</g>
</g>
<!-- Node8&#45;&gt;Node9 -->
<g id="edge11" class="edge">
<title>Node8&#45;&gt;Node9</title>
<path fill="none" stroke="midnightblue" d="M61.99,-224.08C62.79,-216.93 63.93,-206.64 64.92,-197.69"/>
<polygon fill="midnightblue" stroke="midnightblue" points="68.4,-198.08 66.03,-187.75 61.44,-197.3 68.4,-198.08"/>
</g>
<!-- Node9&#45;&gt;Node6 -->
<g id="edge12" class="edge">
<title>Node9&#45;&gt;Node6</title>
<path fill="none" stroke="midnightblue" d="M76.96,-168.32C86.13,-160.34 99.94,-148.31 111.03,-138.65"/>
<polygon fill="midnightblue" stroke="midnightblue" points="113.62,-141.04 118.86,-131.83 109.02,-135.76 113.62,-141.04"/>
</g>
<!-- Node10 -->
<g id="node10" class="node">
<title>Node10</title>
<g id="a_node10"><a xlink:title=" ">
<polygon fill="none" stroke="#bfbfbf" points="43.5,-112.5 43.5,-131.5 84.5,-131.5 84.5,-112.5 43.5,-112.5"/>
<text text-anchor="middle" x="64" y="-119.5" font-family="Helvetica,sans-Serif" font-size="10.00">QList</text>
</a>
</g>
</g>
<!-- Node9&#45;&gt;Node10 -->
<g id="edge13" class="edge">
<title>Node9&#45;&gt;Node10</title>
<path fill="none" stroke="midnightblue" d="M66.5,-168.08C66.11,-161.01 65.55,-150.86 65.05,-141.99"/>
<polygon fill="midnightblue" stroke="midnightblue" points="68.54,-141.54 64.49,-131.75 61.55,-141.93 68.54,-141.54"/>
</g>
</g>
</svg>
