<?xml version="1.0" encoding="UTF-8" standalone="no"?>
<!DOCTYPE svg PUBLIC "-//W3C//DTD SVG 1.1//EN"
 "http://www.w3.org/Graphics/SVG/1.1/DTD/svg11.dtd">
<!-- Generated by graphviz version 2.43.0 (0)
 -->
<!-- Title: videoclipmessage.h Pages: 1 -->
<svg width="122pt" height="252pt"
 viewBox="0.00 0.00 122.00 252.00" xmlns="http://www.w3.org/2000/svg" xmlns:xlink="http://www.w3.org/1999/xlink">
<g id="graph0" class="graph" transform="scale(1 1) rotate(0) translate(4 248)">
<title>videoclipmessage.h</title>
<!-- Node1 -->
<g id="node1" class="node">
<title>Node1</title>
<g id="a_node1"><a xlink:title=" ">
<polygon fill="#bfbfbf" stroke="black" points="0,-224.5 0,-243.5 114,-243.5 114,-224.5 0,-224.5"/>
<text text-anchor="middle" x="57" y="-231.5" font-family="Helvetica,sans-Serif" font-size="10.00">videoclipmessage.h</text>
</a>
</g>
</g>
<!-- Node2 -->
<g id="node2" class="node">
<title>Node2</title>
<g id="a_node2"><a xlink:href="fitdatamessage_8h.html" target="_top" xlink:title=" ">
<polygon fill="none" stroke="black" points="6.5,-168.5 6.5,-187.5 107.5,-187.5 107.5,-168.5 6.5,-168.5"/>
<text text-anchor="middle" x="57" y="-175.5" font-family="Helvetica,sans-Serif" font-size="10.00">fitdatamessage.h</text>
</a>
</g>
</g>
<!-- Node1&#45;&gt;Node2 -->
<g id="edge1" class="edge">
<title>Node1&#45;&gt;Node2</title>
<path fill="none" stroke="midnightblue" d="M57,-224.08C57,-217.01 57,-206.86 57,-197.99"/>
<polygon fill="midnightblue" stroke="midnightblue" points="60.5,-197.75 57,-187.75 53.5,-197.75 60.5,-197.75"/>
</g>
<!-- Node3 -->
<g id="node3" class="node">
<title>Node3</title>
<g id="a_node3"><a xlink:href="QtFit__global_8h.html" target="_top" xlink:title=" ">
<polygon fill="none" stroke="black" points="15,-56.5 15,-75.5 99,-75.5 99,-56.5 15,-56.5"/>
<text text-anchor="middle" x="57" y="-63.5" font-family="Helvetica,sans-Serif" font-size="10.00">QtFit_global.h</text>
</a>
</g>
</g>
<!-- Node2&#45;&gt;Node3 -->
<g id="edge2" class="edge">
<title>Node2&#45;&gt;Node3</title>
<path fill="none" stroke="midnightblue" d="M55.26,-168.42C53.53,-159.4 50.99,-144.77 50,-132 48.8,-116.42 50.91,-98.8 53.12,-85.84"/>
<polygon fill="midnightblue" stroke="midnightblue" points="56.6,-86.29 55.01,-75.82 49.72,-84.99 56.6,-86.29"/>
</g>
<!-- Node5 -->
<g id="node5" class="node">
<title>Node5</title>
<g id="a_node5"><a xlink:href="types_8h.html" target="_top" xlink:title="Types defined by the ANT+ FIT SDK.">
<polygon fill="none" stroke="black" points="58.5,-112.5 58.5,-131.5 111.5,-131.5 111.5,-112.5 58.5,-112.5"/>
<text text-anchor="middle" x="85" y="-119.5" font-family="Helvetica,sans-Serif" font-size="10.00">types.h</text>
</a>
</g>
</g>
<!-- Node2&#45;&gt;Node5 -->
<g id="edge4" class="edge">
<title>Node2&#45;&gt;Node5</title>
<path fill="none" stroke="midnightblue" d="M61.62,-168.08C65.46,-160.69 71.02,-149.95 75.76,-140.81"/>
<polygon fill="midnightblue" stroke="midnightblue" points="78.97,-142.24 80.46,-131.75 72.75,-139.02 78.97,-142.24"/>
</g>
<!-- Node4 -->
<g id="node4" class="node">
<title>Node4</title>
<g id="a_node4"><a xlink:title=" ">
<polygon fill="none" stroke="#bfbfbf" points="27.5,-0.5 27.5,-19.5 86.5,-19.5 86.5,-0.5 27.5,-0.5"/>
<text text-anchor="middle" x="57" y="-7.5" font-family="Helvetica,sans-Serif" font-size="10.00">QtGlobal</text>
</a>
</g>
</g>
<!-- Node3&#45;&gt;Node4 -->
<g id="edge3" class="edge">
<title>Node3&#45;&gt;Node4</title>
<path fill="none" stroke="midnightblue" d="M57,-56.08C57,-49.01 57,-38.86 57,-29.99"/>
<polygon fill="midnightblue" stroke="midnightblue" points="60.5,-29.75 57,-19.75 53.5,-29.75 60.5,-29.75"/>
</g>
<!-- Node5&#45;&gt;Node3 -->
<g id="edge5" class="edge">
<title>Node5&#45;&gt;Node3</title>
<path fill="none" stroke="midnightblue" d="M80.38,-112.08C76.54,-104.69 70.98,-93.95 66.24,-84.81"/>
<polygon fill="midnightblue" stroke="midnightblue" points="69.25,-83.02 61.54,-75.75 63.03,-86.24 69.25,-83.02"/>
</g>
</g>
</svg>
