<?xml version="1.0" encoding="UTF-8" standalone="no"?>
<!DOCTYPE svg PUBLIC "-//W3C//DTD SVG 1.1//EN"
 "http://www.w3.org/Graphics/SVG/1.1/DTD/svg11.dtd">
<!-- Generated by graphviz version 2.43.0 (0)
 -->
<!-- Title: videoclipmessage.cpp Pages: 1 -->
<svg width="266pt" height="364pt"
 viewBox="0.00 0.00 265.50 364.00" xmlns="http://www.w3.org/2000/svg" xmlns:xlink="http://www.w3.org/1999/xlink">
<g id="graph0" class="graph" transform="scale(1 1) rotate(0) translate(4 360)">
<title>videoclipmessage.cpp</title>
<!-- Node1 -->
<g id="node1" class="node">
<title>Node1</title>
<g id="a_node1"><a xlink:title=" ">
<polygon fill="#bfbfbf" stroke="black" points="69,-336.5 69,-355.5 194,-355.5 194,-336.5 69,-336.5"/>
<text text-anchor="middle" x="131.5" y="-343.5" font-family="Helvetica,sans-Serif" font-size="10.00">videoclipmessage.cpp</text>
</a>
</g>
</g>
<!-- Node2 -->
<g id="node2" class="node">
<title>Node2</title>
<g id="a_node2"><a xlink:href="videoclipmessage_8h.html" target="_top" xlink:title=" ">
<polygon fill="none" stroke="black" points="143.5,-280.5 143.5,-299.5 257.5,-299.5 257.5,-280.5 143.5,-280.5"/>
<text text-anchor="middle" x="200.5" y="-287.5" font-family="Helvetica,sans-Serif" font-size="10.00">videoclipmessage.h</text>
</a>
</g>
</g>
<!-- Node1&#45;&gt;Node2 -->
<g id="edge1" class="edge">
<title>Node1&#45;&gt;Node2</title>
<path fill="none" stroke="midnightblue" d="M142.59,-336.32C152.99,-328.18 168.76,-315.84 181.22,-306.09"/>
<polygon fill="midnightblue" stroke="midnightblue" points="183.49,-308.75 189.21,-299.83 179.18,-303.24 183.49,-308.75"/>
</g>
<!-- Node7 -->
<g id="node7" class="node">
<title>Node7</title>
<g id="a_node7"><a xlink:href="videoclipmessage__p_8h.html" target="_top" xlink:title=" ">
<polygon fill="none" stroke="black" points="0,-280.5 0,-299.5 125,-299.5 125,-280.5 0,-280.5"/>
<text text-anchor="middle" x="62.5" y="-287.5" font-family="Helvetica,sans-Serif" font-size="10.00">videoclipmessage_p.h</text>
</a>
</g>
</g>
<!-- Node1&#45;&gt;Node7 -->
<g id="edge7" class="edge">
<title>Node1&#45;&gt;Node7</title>
<path fill="none" stroke="midnightblue" d="M120.41,-336.32C110.01,-328.18 94.24,-315.84 81.78,-306.09"/>
<polygon fill="midnightblue" stroke="midnightblue" points="83.82,-303.24 73.79,-299.83 79.51,-308.75 83.82,-303.24"/>
</g>
<!-- Node3 -->
<g id="node3" class="node">
<title>Node3</title>
<g id="a_node3"><a xlink:href="fitdatamessage_8h.html" target="_top" xlink:title=" ">
<polygon fill="none" stroke="black" points="151,-168.5 151,-187.5 252,-187.5 252,-168.5 151,-168.5"/>
<text text-anchor="middle" x="201.5" y="-175.5" font-family="Helvetica,sans-Serif" font-size="10.00">fitdatamessage.h</text>
</a>
</g>
</g>
<!-- Node2&#45;&gt;Node3 -->
<g id="edge2" class="edge">
<title>Node2&#45;&gt;Node3</title>
<path fill="none" stroke="midnightblue" d="M200.58,-280.37C200.74,-262.62 201.11,-221.67 201.33,-197.6"/>
<polygon fill="midnightblue" stroke="midnightblue" points="204.83,-197.62 201.42,-187.59 197.83,-197.56 204.83,-197.62"/>
</g>
<!-- Node4 -->
<g id="node4" class="node">
<title>Node4</title>
<g id="a_node4"><a xlink:href="QtFit__global_8h.html" target="_top" xlink:title=" ">
<polygon fill="none" stroke="black" points="82.5,-56.5 82.5,-75.5 166.5,-75.5 166.5,-56.5 82.5,-56.5"/>
<text text-anchor="middle" x="124.5" y="-63.5" font-family="Helvetica,sans-Serif" font-size="10.00">QtFit_global.h</text>
</a>
</g>
</g>
<!-- Node3&#45;&gt;Node4 -->
<g id="edge3" class="edge">
<title>Node3&#45;&gt;Node4</title>
<path fill="none" stroke="midnightblue" d="M196.49,-168.39C189.04,-155.75 174.43,-131.56 160.5,-112 153.61,-102.32 145.36,-91.94 138.51,-83.59"/>
<polygon fill="midnightblue" stroke="midnightblue" points="141.06,-81.19 131.97,-75.74 135.68,-85.66 141.06,-81.19"/>
</g>
<!-- Node6 -->
<g id="node6" class="node">
<title>Node6</title>
<g id="a_node6"><a xlink:href="types_8h.html" target="_top" xlink:title="Types defined by the ANT+ FIT SDK.">
<polygon fill="none" stroke="black" points="98,-112.5 98,-131.5 151,-131.5 151,-112.5 98,-112.5"/>
<text text-anchor="middle" x="124.5" y="-119.5" font-family="Helvetica,sans-Serif" font-size="10.00">types.h</text>
</a>
</g>
</g>
<!-- Node3&#45;&gt;Node6 -->
<g id="edge5" class="edge">
<title>Node3&#45;&gt;Node6</title>
<path fill="none" stroke="midnightblue" d="M189.13,-168.32C177.34,-160.06 159.37,-147.45 145.36,-137.63"/>
<polygon fill="midnightblue" stroke="midnightblue" points="147.04,-134.53 136.84,-131.65 143.02,-140.26 147.04,-134.53"/>
</g>
<!-- Node5 -->
<g id="node5" class="node">
<title>Node5</title>
<g id="a_node5"><a xlink:title=" ">
<polygon fill="none" stroke="#bfbfbf" points="95,-0.5 95,-19.5 154,-19.5 154,-0.5 95,-0.5"/>
<text text-anchor="middle" x="124.5" y="-7.5" font-family="Helvetica,sans-Serif" font-size="10.00">QtGlobal</text>
</a>
</g>
</g>
<!-- Node4&#45;&gt;Node5 -->
<g id="edge4" class="edge">
<title>Node4&#45;&gt;Node5</title>
<path fill="none" stroke="midnightblue" d="M124.5,-56.08C124.5,-49.01 124.5,-38.86 124.5,-29.99"/>
<polygon fill="midnightblue" stroke="midnightblue" points="128,-29.75 124.5,-19.75 121,-29.75 128,-29.75"/>
</g>
<!-- Node6&#45;&gt;Node4 -->
<g id="edge6" class="edge">
<title>Node6&#45;&gt;Node4</title>
<path fill="none" stroke="midnightblue" d="M124.5,-112.08C124.5,-105.01 124.5,-94.86 124.5,-85.99"/>
<polygon fill="midnightblue" stroke="midnightblue" points="128,-85.75 124.5,-75.75 121,-85.75 128,-85.75"/>
</g>
<!-- Node8 -->
<g id="node8" class="node">
<title>Node8</title>
<g id="a_node8"><a xlink:href="fitdatamessage__p_8h.html" target="_top" xlink:title=" ">
<polygon fill="none" stroke="black" points="6,-224.5 6,-243.5 119,-243.5 119,-224.5 6,-224.5"/>
<text text-anchor="middle" x="62.5" y="-231.5" font-family="Helvetica,sans-Serif" font-size="10.00">fitdatamessage_p.h</text>
</a>
</g>
</g>
<!-- Node7&#45;&gt;Node8 -->
<g id="edge8" class="edge">
<title>Node7&#45;&gt;Node8</title>
<path fill="none" stroke="midnightblue" d="M62.5,-280.08C62.5,-273.01 62.5,-262.86 62.5,-253.99"/>
<polygon fill="midnightblue" stroke="midnightblue" points="66,-253.75 62.5,-243.75 59,-253.75 66,-253.75"/>
</g>
<!-- Node8&#45;&gt;Node4 -->
<g id="edge9" class="edge">
<title>Node8&#45;&gt;Node4</title>
<path fill="none" stroke="midnightblue" d="M50.96,-224.49C41.02,-216.38 27.38,-203.18 21.5,-188 14.39,-169.63 21.31,-123.12 29.5,-112 41.1,-96.26 59.64,-85.81 77.27,-78.98"/>
<polygon fill="midnightblue" stroke="midnightblue" points="78.67,-82.2 86.92,-75.55 76.32,-75.6 78.67,-82.2"/>
</g>
<!-- Node8&#45;&gt;Node6 -->
<g id="edge10" class="edge">
<title>Node8&#45;&gt;Node6</title>
<path fill="none" stroke="midnightblue" d="M72.59,-224.29C81.81,-215.85 95.23,-202.26 103.5,-188 111.87,-173.58 117.38,-155.38 120.65,-141.92"/>
<polygon fill="midnightblue" stroke="midnightblue" points="124.12,-142.42 122.88,-131.9 117.29,-140.9 124.12,-142.42"/>
</g>
<!-- Node9 -->
<g id="node9" class="node">
<title>Node9</title>
<g id="a_node9"><a xlink:href="types__p_8h.html" target="_top" xlink:title=" ">
<polygon fill="none" stroke="black" points="30.5,-168.5 30.5,-187.5 94.5,-187.5 94.5,-168.5 30.5,-168.5"/>
<text text-anchor="middle" x="62.5" y="-175.5" font-family="Helvetica,sans-Serif" font-size="10.00">types_p.h</text>
</a>
</g>
</g>
<!-- Node8&#45;&gt;Node9 -->
<g id="edge11" class="edge">
<title>Node8&#45;&gt;Node9</title>
<path fill="none" stroke="midnightblue" d="M62.5,-224.08C62.5,-217.01 62.5,-206.86 62.5,-197.99"/>
<polygon fill="midnightblue" stroke="midnightblue" points="66,-197.75 62.5,-187.75 59,-197.75 66,-197.75"/>
</g>
<!-- Node9&#45;&gt;Node6 -->
<g id="edge12" class="edge">
<title>Node9&#45;&gt;Node6</title>
<path fill="none" stroke="midnightblue" d="M72.46,-168.32C81.63,-160.34 95.44,-148.31 106.53,-138.65"/>
<polygon fill="midnightblue" stroke="midnightblue" points="109.12,-141.04 114.36,-131.83 104.52,-135.76 109.12,-141.04"/>
</g>
<!-- Node10 -->
<g id="node10" class="node">
<title>Node10</title>
<g id="a_node10"><a xlink:title=" ">
<polygon fill="none" stroke="#bfbfbf" points="39,-112.5 39,-131.5 80,-131.5 80,-112.5 39,-112.5"/>
<text text-anchor="middle" x="59.5" y="-119.5" font-family="Helvetica,sans-Serif" font-size="10.00">QList</text>
</a>
</g>
</g>
<!-- Node9&#45;&gt;Node10 -->
<g id="edge13" class="edge">
<title>Node9&#45;&gt;Node10</title>
<path fill="none" stroke="midnightblue" d="M62,-168.08C61.61,-161.01 61.05,-150.86 60.55,-141.99"/>
<polygon fill="midnightblue" stroke="midnightblue" points="64.04,-141.54 59.99,-131.75 57.05,-141.93 64.04,-141.54"/>
</g>
</g>
</svg>
