<?xml version="1.0" encoding="UTF-8" standalone="no"?>
<!DOCTYPE svg PUBLIC "-//W3C//DTD SVG 1.1//EN"
 "http://www.w3.org/Graphics/SVG/1.1/DTD/svg11.dtd">
<!-- Generated by graphviz version 2.43.0 (0)
 -->
<!-- Title: videotitlemessage.cpp Pages: 1 -->
<svg width="350pt" height="364pt"
 viewBox="0.00 0.00 350.00 364.00" xmlns="http://www.w3.org/2000/svg" xmlns:xlink="http://www.w3.org/1999/xlink">
<g id="graph0" class="graph" transform="scale(1 1) rotate(0) translate(4 360)">
<title>videotitlemessage.cpp</title>
<!-- Node1 -->
<g id="node1" class="node">
<title>Node1</title>
<g id="a_node1"><a xlink:title=" ">
<polygon fill="#bfbfbf" stroke="black" points="142.5,-336.5 142.5,-355.5 270.5,-355.5 270.5,-336.5 142.5,-336.5"/>
<text text-anchor="middle" x="206.5" y="-343.5" font-family="Helvetica,sans-Serif" font-size="10.00">videotitlemessage.cpp</text>
</a>
</g>
</g>
<!-- Node2 -->
<g id="node2" class="node">
<title>Node2</title>
<g id="a_node2"><a xlink:href="videotitlemessage_8h.html" target="_top" xlink:title=" ">
<polygon fill="none" stroke="black" points="132.5,-224.5 132.5,-243.5 248.5,-243.5 248.5,-224.5 132.5,-224.5"/>
<text text-anchor="middle" x="190.5" y="-231.5" font-family="Helvetica,sans-Serif" font-size="10.00">videotitlemessage.h</text>
</a>
</g>
</g>
<!-- Node1&#45;&gt;Node2 -->
<g id="edge1" class="edge">
<title>Node1&#45;&gt;Node2</title>
<path fill="none" stroke="midnightblue" d="M204.54,-336.41C202.54,-327.39 199.46,-312.76 197.5,-300 195.13,-284.56 193.28,-266.92 192.08,-253.92"/>
<polygon fill="midnightblue" stroke="midnightblue" points="195.56,-253.52 191.2,-243.86 188.59,-254.13 195.56,-253.52"/>
</g>
<!-- Node7 -->
<g id="node7" class="node">
<title>Node7</title>
<g id="a_node7"><a xlink:href="videotitlemessage__p_8h.html" target="_top" xlink:title=" ">
<polygon fill="none" stroke="black" points="12.5,-280.5 12.5,-299.5 140.5,-299.5 140.5,-280.5 12.5,-280.5"/>
<text text-anchor="middle" x="76.5" y="-287.5" font-family="Helvetica,sans-Serif" font-size="10.00">videotitlemessage_p.h</text>
</a>
</g>
</g>
<!-- Node1&#45;&gt;Node7 -->
<g id="edge7" class="edge">
<title>Node1&#45;&gt;Node7</title>
<path fill="none" stroke="midnightblue" d="M185.9,-336.44C164.51,-327.56 130.82,-313.56 106.48,-303.45"/>
<polygon fill="midnightblue" stroke="midnightblue" points="107.58,-300.12 97,-299.52 104.89,-306.58 107.58,-300.12"/>
</g>
<!-- Node11 -->
<g id="node11" class="node">
<title>Node11</title>
<g id="a_node11"><a xlink:title=" ">
<polygon fill="none" stroke="#bfbfbf" points="206.5,-280.5 206.5,-299.5 262.5,-299.5 262.5,-280.5 206.5,-280.5"/>
<text text-anchor="middle" x="234.5" y="-287.5" font-family="Helvetica,sans-Serif" font-size="10.00">QDebug</text>
</a>
</g>
</g>
<!-- Node1&#45;&gt;Node11 -->
<g id="edge14" class="edge">
<title>Node1&#45;&gt;Node11</title>
<path fill="none" stroke="midnightblue" d="M211.12,-336.08C214.96,-328.69 220.52,-317.95 225.26,-308.81"/>
<polygon fill="midnightblue" stroke="midnightblue" points="228.47,-310.24 229.96,-299.75 222.25,-307.02 228.47,-310.24"/>
</g>
<!-- Node12 -->
<g id="node12" class="node">
<title>Node12</title>
<g id="a_node12"><a xlink:title=" ">
<polygon fill="none" stroke="#bfbfbf" points="281,-280.5 281,-299.5 342,-299.5 342,-280.5 281,-280.5"/>
<text text-anchor="middle" x="311.5" y="-287.5" font-family="Helvetica,sans-Serif" font-size="10.00">QtEndian</text>
</a>
</g>
</g>
<!-- Node1&#45;&gt;Node12 -->
<g id="edge15" class="edge">
<title>Node1&#45;&gt;Node12</title>
<path fill="none" stroke="midnightblue" d="M223.37,-336.32C240.21,-327.66 266.31,-314.24 285.74,-304.25"/>
<polygon fill="midnightblue" stroke="midnightblue" points="287.38,-307.34 294.67,-299.65 284.18,-301.12 287.38,-307.34"/>
</g>
<!-- Node3 -->
<g id="node3" class="node">
<title>Node3</title>
<g id="a_node3"><a xlink:href="fitdatamessage_8h.html" target="_top" xlink:title=" ">
<polygon fill="none" stroke="black" points="142,-168.5 142,-187.5 243,-187.5 243,-168.5 142,-168.5"/>
<text text-anchor="middle" x="192.5" y="-175.5" font-family="Helvetica,sans-Serif" font-size="10.00">fitdatamessage.h</text>
</a>
</g>
</g>
<!-- Node2&#45;&gt;Node3 -->
<g id="edge2" class="edge">
<title>Node2&#45;&gt;Node3</title>
<path fill="none" stroke="midnightblue" d="M190.83,-224.08C191.09,-217.01 191.47,-206.86 191.8,-197.99"/>
<polygon fill="midnightblue" stroke="midnightblue" points="195.3,-197.87 192.18,-187.75 188.31,-197.61 195.3,-197.87"/>
</g>
<!-- Node4 -->
<g id="node4" class="node">
<title>Node4</title>
<g id="a_node4"><a xlink:href="QtFit__global_8h.html" target="_top" xlink:title=" ">
<polygon fill="none" stroke="black" points="73.5,-56.5 73.5,-75.5 157.5,-75.5 157.5,-56.5 73.5,-56.5"/>
<text text-anchor="middle" x="115.5" y="-63.5" font-family="Helvetica,sans-Serif" font-size="10.00">QtFit_global.h</text>
</a>
</g>
</g>
<!-- Node3&#45;&gt;Node4 -->
<g id="edge3" class="edge">
<title>Node3&#45;&gt;Node4</title>
<path fill="none" stroke="midnightblue" d="M187.49,-168.39C180.04,-155.75 165.43,-131.56 151.5,-112 144.61,-102.32 136.36,-91.94 129.51,-83.59"/>
<polygon fill="midnightblue" stroke="midnightblue" points="132.06,-81.19 122.97,-75.74 126.68,-85.66 132.06,-81.19"/>
</g>
<!-- Node6 -->
<g id="node6" class="node">
<title>Node6</title>
<g id="a_node6"><a xlink:href="types_8h.html" target="_top" xlink:title="Types defined by the ANT+ FIT SDK.">
<polygon fill="none" stroke="black" points="89,-112.5 89,-131.5 142,-131.5 142,-112.5 89,-112.5"/>
<text text-anchor="middle" x="115.5" y="-119.5" font-family="Helvetica,sans-Serif" font-size="10.00">types.h</text>
</a>
</g>
</g>
<!-- Node3&#45;&gt;Node6 -->
<g id="edge5" class="edge">
<title>Node3&#45;&gt;Node6</title>
<path fill="none" stroke="midnightblue" d="M180.13,-168.32C168.34,-160.06 150.37,-147.45 136.36,-137.63"/>
<polygon fill="midnightblue" stroke="midnightblue" points="138.04,-134.53 127.84,-131.65 134.02,-140.26 138.04,-134.53"/>
</g>
<!-- Node5 -->
<g id="node5" class="node">
<title>Node5</title>
<g id="a_node5"><a xlink:title=" ">
<polygon fill="none" stroke="#bfbfbf" points="86,-0.5 86,-19.5 145,-19.5 145,-0.5 86,-0.5"/>
<text text-anchor="middle" x="115.5" y="-7.5" font-family="Helvetica,sans-Serif" font-size="10.00">QtGlobal</text>
</a>
</g>
</g>
<!-- Node4&#45;&gt;Node5 -->
<g id="edge4" class="edge">
<title>Node4&#45;&gt;Node5</title>
<path fill="none" stroke="midnightblue" d="M115.5,-56.08C115.5,-49.01 115.5,-38.86 115.5,-29.99"/>
<polygon fill="midnightblue" stroke="midnightblue" points="119,-29.75 115.5,-19.75 112,-29.75 119,-29.75"/>
</g>
<!-- Node6&#45;&gt;Node4 -->
<g id="edge6" class="edge">
<title>Node6&#45;&gt;Node4</title>
<path fill="none" stroke="midnightblue" d="M115.5,-112.08C115.5,-105.01 115.5,-94.86 115.5,-85.99"/>
<polygon fill="midnightblue" stroke="midnightblue" points="119,-85.75 115.5,-75.75 112,-85.75 119,-85.75"/>
</g>
<!-- Node8 -->
<g id="node8" class="node">
<title>Node8</title>
<g id="a_node8"><a xlink:href="fitdatamessage__p_8h.html" target="_top" xlink:title=" ">
<polygon fill="none" stroke="black" points="0,-224.5 0,-243.5 113,-243.5 113,-224.5 0,-224.5"/>
<text text-anchor="middle" x="56.5" y="-231.5" font-family="Helvetica,sans-Serif" font-size="10.00">fitdatamessage_p.h</text>
</a>
</g>
</g>
<!-- Node7&#45;&gt;Node8 -->
<g id="edge8" class="edge">
<title>Node7&#45;&gt;Node8</title>
<path fill="none" stroke="midnightblue" d="M73.2,-280.08C70.52,-272.85 66.65,-262.41 63.31,-253.4"/>
<polygon fill="midnightblue" stroke="midnightblue" points="66.5,-251.91 59.74,-243.75 59.93,-254.34 66.5,-251.91"/>
</g>
<!-- Node8&#45;&gt;Node4 -->
<g id="edge9" class="edge">
<title>Node8&#45;&gt;Node4</title>
<path fill="none" stroke="midnightblue" d="M43.72,-224.37C33.11,-216.36 18.77,-203.38 12.5,-188 5.15,-169.96 11.62,-124.04 20.5,-112 32.1,-96.26 50.64,-85.81 68.27,-78.98"/>
<polygon fill="midnightblue" stroke="midnightblue" points="69.67,-82.2 77.92,-75.55 67.32,-75.6 69.67,-82.2"/>
</g>
<!-- Node8&#45;&gt;Node6 -->
<g id="edge10" class="edge">
<title>Node8&#45;&gt;Node6</title>
<path fill="none" stroke="midnightblue" d="M65.49,-224.48C74.02,-215.96 86.66,-202.12 94.5,-188 102.6,-173.42 108.13,-155.24 111.48,-141.82"/>
<polygon fill="midnightblue" stroke="midnightblue" points="114.94,-142.38 113.79,-131.85 108.12,-140.81 114.94,-142.38"/>
</g>
<!-- Node9 -->
<g id="node9" class="node">
<title>Node9</title>
<g id="a_node9"><a xlink:href="types__p_8h.html" target="_top" xlink:title=" ">
<polygon fill="none" stroke="black" points="21.5,-168.5 21.5,-187.5 85.5,-187.5 85.5,-168.5 21.5,-168.5"/>
<text text-anchor="middle" x="53.5" y="-175.5" font-family="Helvetica,sans-Serif" font-size="10.00">types_p.h</text>
</a>
</g>
</g>
<!-- Node8&#45;&gt;Node9 -->
<g id="edge11" class="edge">
<title>Node8&#45;&gt;Node9</title>
<path fill="none" stroke="midnightblue" d="M56,-224.08C55.61,-217.01 55.05,-206.86 54.55,-197.99"/>
<polygon fill="midnightblue" stroke="midnightblue" points="58.04,-197.54 53.99,-187.75 51.05,-197.93 58.04,-197.54"/>
</g>
<!-- Node9&#45;&gt;Node6 -->
<g id="edge12" class="edge">
<title>Node9&#45;&gt;Node6</title>
<path fill="none" stroke="midnightblue" d="M63.46,-168.32C72.63,-160.34 86.44,-148.31 97.53,-138.65"/>
<polygon fill="midnightblue" stroke="midnightblue" points="100.12,-141.04 105.36,-131.83 95.52,-135.76 100.12,-141.04"/>
</g>
<!-- Node10 -->
<g id="node10" class="node">
<title>Node10</title>
<g id="a_node10"><a xlink:title=" ">
<polygon fill="none" stroke="#bfbfbf" points="30,-112.5 30,-131.5 71,-131.5 71,-112.5 30,-112.5"/>
<text text-anchor="middle" x="50.5" y="-119.5" font-family="Helvetica,sans-Serif" font-size="10.00">QList</text>
</a>
</g>
</g>
<!-- Node9&#45;&gt;Node10 -->
<g id="edge13" class="edge">
<title>Node9&#45;&gt;Node10</title>
<path fill="none" stroke="midnightblue" d="M53,-168.08C52.61,-161.01 52.05,-150.86 51.55,-141.99"/>
<polygon fill="midnightblue" stroke="midnightblue" points="55.04,-141.54 50.99,-131.75 48.05,-141.93 55.04,-141.54"/>
</g>
</g>
</svg>
