<?xml version="1.0" encoding="UTF-8" standalone="no"?>
<!DOCTYPE svg PUBLIC "-//W3C//DTD SVG 1.1//EN"
 "http://www.w3.org/Graphics/SVG/1.1/DTD/svg11.dtd">
<!-- Generated by graphviz version 2.43.0 (0)
 -->
<!-- Title: videodescriptionmessage_p.h Pages: 1 -->
<svg width="184pt" height="308pt"
 viewBox="0.00 0.00 183.50 308.00" xmlns="http://www.w3.org/2000/svg" xmlns:xlink="http://www.w3.org/1999/xlink">
<g id="graph0" class="graph" transform="scale(1 1) rotate(0) translate(4 304)">
<title>videodescriptionmessage_p.h</title>
<!-- Node1 -->
<g id="node1" class="node">
<title>Node1</title>
<g id="a_node1"><a xlink:title=" ">
<polygon fill="#bfbfbf" stroke="black" points="0,-280.5 0,-299.5 162,-299.5 162,-280.5 0,-280.5"/>
<text text-anchor="middle" x="81" y="-287.5" font-family="Helvetica,sans-Serif" font-size="10.00">videodescriptionmessage_p.h</text>
</a>
</g>
</g>
<!-- Node2 -->
<g id="node2" class="node">
<title>Node2</title>
<g id="a_node2"><a xlink:href="fitdatamessage__p_8h.html" target="_top" xlink:title=" ">
<polygon fill="none" stroke="black" points="24.5,-224.5 24.5,-243.5 137.5,-243.5 137.5,-224.5 24.5,-224.5"/>
<text text-anchor="middle" x="81" y="-231.5" font-family="Helvetica,sans-Serif" font-size="10.00">fitdatamessage_p.h</text>
</a>
</g>
</g>
<!-- Node1&#45;&gt;Node2 -->
<g id="edge1" class="edge">
<title>Node1&#45;&gt;Node2</title>
<path fill="none" stroke="midnightblue" d="M81,-280.08C81,-273.01 81,-262.86 81,-253.99"/>
<polygon fill="midnightblue" stroke="midnightblue" points="84.5,-253.75 81,-243.75 77.5,-253.75 84.5,-253.75"/>
</g>
<!-- Node3 -->
<g id="node3" class="node">
<title>Node3</title>
<g id="a_node3"><a xlink:href="QtFit__global_8h.html" target="_top" xlink:title=" ">
<polygon fill="none" stroke="black" points="20,-56.5 20,-75.5 104,-75.5 104,-56.5 20,-56.5"/>
<text text-anchor="middle" x="62" y="-63.5" font-family="Helvetica,sans-Serif" font-size="10.00">QtFit_global.h</text>
</a>
</g>
</g>
<!-- Node2&#45;&gt;Node3 -->
<g id="edge2" class="edge">
<title>Node2&#45;&gt;Node3</title>
<path fill="none" stroke="midnightblue" d="M77.15,-224.32C68.82,-204.61 50.22,-154.88 54,-112 54.78,-103.2 56.39,-93.54 57.97,-85.43"/>
<polygon fill="midnightblue" stroke="midnightblue" points="61.41,-86.07 60.01,-75.57 54.56,-84.65 61.41,-86.07"/>
</g>
<!-- Node5 -->
<g id="node5" class="node">
<title>Node5</title>
<g id="a_node5"><a xlink:href="types_8h.html" target="_top" xlink:title="Types defined by the ANT+ FIT SDK.">
<polygon fill="none" stroke="black" points="63.5,-112.5 63.5,-131.5 116.5,-131.5 116.5,-112.5 63.5,-112.5"/>
<text text-anchor="middle" x="90" y="-119.5" font-family="Helvetica,sans-Serif" font-size="10.00">types.h</text>
</a>
</g>
</g>
<!-- Node2&#45;&gt;Node5 -->
<g id="edge4" class="edge">
<title>Node2&#45;&gt;Node5</title>
<path fill="none" stroke="midnightblue" d="M81.71,-224.37C83.16,-206.62 86.51,-165.67 88.48,-141.6"/>
<polygon fill="midnightblue" stroke="midnightblue" points="91.97,-141.84 89.3,-131.59 84.99,-141.27 91.97,-141.84"/>
</g>
<!-- Node6 -->
<g id="node6" class="node">
<title>Node6</title>
<g id="a_node6"><a xlink:href="types__p_8h.html" target="_top" xlink:title=" ">
<polygon fill="none" stroke="black" points="109,-168.5 109,-187.5 173,-187.5 173,-168.5 109,-168.5"/>
<text text-anchor="middle" x="141" y="-175.5" font-family="Helvetica,sans-Serif" font-size="10.00">types_p.h</text>
</a>
</g>
</g>
<!-- Node2&#45;&gt;Node6 -->
<g id="edge6" class="edge">
<title>Node2&#45;&gt;Node6</title>
<path fill="none" stroke="midnightblue" d="M90.64,-224.32C99.51,-216.34 112.87,-204.31 123.61,-194.65"/>
<polygon fill="midnightblue" stroke="midnightblue" points="126.09,-197.13 131.18,-187.83 121.41,-191.92 126.09,-197.13"/>
</g>
<!-- Node4 -->
<g id="node4" class="node">
<title>Node4</title>
<g id="a_node4"><a xlink:title=" ">
<polygon fill="none" stroke="#bfbfbf" points="32.5,-0.5 32.5,-19.5 91.5,-19.5 91.5,-0.5 32.5,-0.5"/>
<text text-anchor="middle" x="62" y="-7.5" font-family="Helvetica,sans-Serif" font-size="10.00">QtGlobal</text>
</a>
</g>
</g>
<!-- Node3&#45;&gt;Node4 -->
<g id="edge3" class="edge">
<title>Node3&#45;&gt;Node4</title>
<path fill="none" stroke="midnightblue" d="M62,-56.08C62,-49.01 62,-38.86 62,-29.99"/>
<polygon fill="midnightblue" stroke="midnightblue" points="65.5,-29.75 62,-19.75 58.5,-29.75 65.5,-29.75"/>
</g>
<!-- Node5&#45;&gt;Node3 -->
<g id="edge5" class="edge">
<title>Node5&#45;&gt;Node3</title>
<path fill="none" stroke="midnightblue" d="M85.38,-112.08C81.54,-104.69 75.98,-93.95 71.24,-84.81"/>
<polygon fill="midnightblue" stroke="midnightblue" points="74.25,-83.02 66.54,-75.75 68.03,-86.24 74.25,-83.02"/>
</g>
<!-- Node6&#45;&gt;Node5 -->
<g id="edge7" class="edge">
<title>Node6&#45;&gt;Node5</title>
<path fill="none" stroke="midnightblue" d="M132.58,-168.08C125.15,-160.22 114.15,-148.57 105.19,-139.08"/>
<polygon fill="midnightblue" stroke="midnightblue" points="107.68,-136.62 98.26,-131.75 102.59,-141.42 107.68,-136.62"/>
</g>
<!-- Node7 -->
<g id="node7" class="node">
<title>Node7</title>
<g id="a_node7"><a xlink:title=" ">
<polygon fill="none" stroke="#bfbfbf" points="134.5,-112.5 134.5,-131.5 175.5,-131.5 175.5,-112.5 134.5,-112.5"/>
<text text-anchor="middle" x="155" y="-119.5" font-family="Helvetica,sans-Serif" font-size="10.00">QList</text>
</a>
</g>
</g>
<!-- Node6&#45;&gt;Node7 -->
<g id="edge8" class="edge">
<title>Node6&#45;&gt;Node7</title>
<path fill="none" stroke="midnightblue" d="M143.31,-168.08C145.17,-160.93 147.84,-150.64 150.15,-141.69"/>
<polygon fill="midnightblue" stroke="midnightblue" points="153.61,-142.31 152.73,-131.75 146.83,-140.55 153.61,-142.31"/>
</g>
</g>
</svg>
