<?xml version="1.0" encoding="UTF-8" standalone="no"?>
<!DOCTYPE svg PUBLIC "-//W3C//DTD SVG 1.1//EN"
 "http://www.w3.org/Graphics/SVG/1.1/DTD/svg11.dtd">
<!-- Generated by graphviz version 2.43.0 (0)
 -->
<!-- Title: videoframemessage.cpp Pages: 1 -->
<svg width="290pt" height="364pt"
 viewBox="0.00 0.00 289.50 364.00" xmlns="http://www.w3.org/2000/svg" xmlns:xlink="http://www.w3.org/1999/xlink">
<g id="graph0" class="graph" transform="scale(1 1) rotate(0) translate(4 360)">
<title>videoframemessage.cpp</title>
<!-- Node1 -->
<g id="node1" class="node">
<title>Node1</title>
<g id="a_node1"><a xlink:title=" ">
<polygon fill="#bfbfbf" stroke="black" points="75,-336.5 75,-355.5 212,-355.5 212,-336.5 75,-336.5"/>
<text text-anchor="middle" x="143.5" y="-343.5" font-family="Helvetica,sans-Serif" font-size="10.00">videoframemessage.cpp</text>
</a>
</g>
</g>
<!-- Node2 -->
<g id="node2" class="node">
<title>Node2</title>
<g id="a_node2"><a xlink:href="videoframemessage_8h.html" target="_top" xlink:title=" ">
<polygon fill="none" stroke="black" points="155.5,-280.5 155.5,-299.5 281.5,-299.5 281.5,-280.5 155.5,-280.5"/>
<text text-anchor="middle" x="218.5" y="-287.5" font-family="Helvetica,sans-Serif" font-size="10.00">videoframemessage.h</text>
</a>
</g>
</g>
<!-- Node1&#45;&gt;Node2 -->
<g id="edge1" class="edge">
<title>Node1&#45;&gt;Node2</title>
<path fill="none" stroke="midnightblue" d="M155.55,-336.32C166.96,-328.11 184.33,-315.6 197.93,-305.81"/>
<polygon fill="midnightblue" stroke="midnightblue" points="200.16,-308.52 206.23,-299.83 196.07,-302.84 200.16,-308.52"/>
</g>
<!-- Node7 -->
<g id="node7" class="node">
<title>Node7</title>
<g id="a_node7"><a xlink:href="videoframemessage__p_8h.html" target="_top" xlink:title=" ">
<polygon fill="none" stroke="black" points="0,-280.5 0,-299.5 137,-299.5 137,-280.5 0,-280.5"/>
<text text-anchor="middle" x="68.5" y="-287.5" font-family="Helvetica,sans-Serif" font-size="10.00">videoframemessage_p.h</text>
</a>
</g>
</g>
<!-- Node1&#45;&gt;Node7 -->
<g id="edge7" class="edge">
<title>Node1&#45;&gt;Node7</title>
<path fill="none" stroke="midnightblue" d="M131.45,-336.32C120.04,-328.11 102.67,-315.6 89.07,-305.81"/>
<polygon fill="midnightblue" stroke="midnightblue" points="90.93,-302.84 80.77,-299.83 86.84,-308.52 90.93,-302.84"/>
</g>
<!-- Node3 -->
<g id="node3" class="node">
<title>Node3</title>
<g id="a_node3"><a xlink:href="fitdatamessage_8h.html" target="_top" xlink:title=" ">
<polygon fill="none" stroke="black" points="165,-168.5 165,-187.5 266,-187.5 266,-168.5 165,-168.5"/>
<text text-anchor="middle" x="215.5" y="-175.5" font-family="Helvetica,sans-Serif" font-size="10.00">fitdatamessage.h</text>
</a>
</g>
</g>
<!-- Node2&#45;&gt;Node3 -->
<g id="edge2" class="edge">
<title>Node2&#45;&gt;Node3</title>
<path fill="none" stroke="midnightblue" d="M218.26,-280.37C217.78,-262.62 216.66,-221.67 216.01,-197.6"/>
<polygon fill="midnightblue" stroke="midnightblue" points="219.51,-197.49 215.73,-187.59 212.51,-197.68 219.51,-197.49"/>
</g>
<!-- Node4 -->
<g id="node4" class="node">
<title>Node4</title>
<g id="a_node4"><a xlink:href="QtFit__global_8h.html" target="_top" xlink:title=" ">
<polygon fill="none" stroke="black" points="96.5,-56.5 96.5,-75.5 180.5,-75.5 180.5,-56.5 96.5,-56.5"/>
<text text-anchor="middle" x="138.5" y="-63.5" font-family="Helvetica,sans-Serif" font-size="10.00">QtFit_global.h</text>
</a>
</g>
</g>
<!-- Node3&#45;&gt;Node4 -->
<g id="edge3" class="edge">
<title>Node3&#45;&gt;Node4</title>
<path fill="none" stroke="midnightblue" d="M210.49,-168.39C203.04,-155.75 188.43,-131.56 174.5,-112 167.61,-102.32 159.36,-91.94 152.51,-83.59"/>
<polygon fill="midnightblue" stroke="midnightblue" points="155.06,-81.19 145.97,-75.74 149.68,-85.66 155.06,-81.19"/>
</g>
<!-- Node6 -->
<g id="node6" class="node">
<title>Node6</title>
<g id="a_node6"><a xlink:href="types_8h.html" target="_top" xlink:title="Types defined by the ANT+ FIT SDK.">
<polygon fill="none" stroke="black" points="112,-112.5 112,-131.5 165,-131.5 165,-112.5 112,-112.5"/>
<text text-anchor="middle" x="138.5" y="-119.5" font-family="Helvetica,sans-Serif" font-size="10.00">types.h</text>
</a>
</g>
</g>
<!-- Node3&#45;&gt;Node6 -->
<g id="edge5" class="edge">
<title>Node3&#45;&gt;Node6</title>
<path fill="none" stroke="midnightblue" d="M203.13,-168.32C191.34,-160.06 173.37,-147.45 159.36,-137.63"/>
<polygon fill="midnightblue" stroke="midnightblue" points="161.04,-134.53 150.84,-131.65 157.02,-140.26 161.04,-134.53"/>
</g>
<!-- Node5 -->
<g id="node5" class="node">
<title>Node5</title>
<g id="a_node5"><a xlink:title=" ">
<polygon fill="none" stroke="#bfbfbf" points="109,-0.5 109,-19.5 168,-19.5 168,-0.5 109,-0.5"/>
<text text-anchor="middle" x="138.5" y="-7.5" font-family="Helvetica,sans-Serif" font-size="10.00">QtGlobal</text>
</a>
</g>
</g>
<!-- Node4&#45;&gt;Node5 -->
<g id="edge4" class="edge">
<title>Node4&#45;&gt;Node5</title>
<path fill="none" stroke="midnightblue" d="M138.5,-56.08C138.5,-49.01 138.5,-38.86 138.5,-29.99"/>
<polygon fill="midnightblue" stroke="midnightblue" points="142,-29.75 138.5,-19.75 135,-29.75 142,-29.75"/>
</g>
<!-- Node6&#45;&gt;Node4 -->
<g id="edge6" class="edge">
<title>Node6&#45;&gt;Node4</title>
<path fill="none" stroke="midnightblue" d="M138.5,-112.08C138.5,-105.01 138.5,-94.86 138.5,-85.99"/>
<polygon fill="midnightblue" stroke="midnightblue" points="142,-85.75 138.5,-75.75 135,-85.75 142,-85.75"/>
</g>
<!-- Node8 -->
<g id="node8" class="node">
<title>Node8</title>
<g id="a_node8"><a xlink:href="fitdatamessage__p_8h.html" target="_top" xlink:title=" ">
<polygon fill="none" stroke="black" points="17,-224.5 17,-243.5 130,-243.5 130,-224.5 17,-224.5"/>
<text text-anchor="middle" x="73.5" y="-231.5" font-family="Helvetica,sans-Serif" font-size="10.00">fitdatamessage_p.h</text>
</a>
</g>
</g>
<!-- Node7&#45;&gt;Node8 -->
<g id="edge8" class="edge">
<title>Node7&#45;&gt;Node8</title>
<path fill="none" stroke="midnightblue" d="M69.33,-280.08C69.98,-273.01 70.92,-262.86 71.74,-253.99"/>
<polygon fill="midnightblue" stroke="midnightblue" points="75.25,-254.03 72.69,-243.75 68.28,-253.39 75.25,-254.03"/>
</g>
<!-- Node8&#45;&gt;Node4 -->
<g id="edge9" class="edge">
<title>Node8&#45;&gt;Node4</title>
<path fill="none" stroke="midnightblue" d="M62.79,-224.3C53.56,-216.07 40.91,-202.79 35.5,-188 28.65,-169.27 36.05,-122.1 43.5,-112 55.1,-96.26 73.64,-85.81 91.27,-78.98"/>
<polygon fill="midnightblue" stroke="midnightblue" points="92.67,-82.2 100.92,-75.55 90.32,-75.6 92.67,-82.2"/>
</g>
<!-- Node8&#45;&gt;Node6 -->
<g id="edge10" class="edge">
<title>Node8&#45;&gt;Node6</title>
<path fill="none" stroke="midnightblue" d="M84.36,-224.44C94.28,-216.11 108.69,-202.59 117.5,-188 126.22,-173.57 131.73,-155.11 134.91,-141.56"/>
<polygon fill="midnightblue" stroke="midnightblue" points="138.39,-142.03 137.05,-131.52 131.54,-140.57 138.39,-142.03"/>
</g>
<!-- Node9 -->
<g id="node9" class="node">
<title>Node9</title>
<g id="a_node9"><a xlink:href="types__p_8h.html" target="_top" xlink:title=" ">
<polygon fill="none" stroke="black" points="44.5,-168.5 44.5,-187.5 108.5,-187.5 108.5,-168.5 44.5,-168.5"/>
<text text-anchor="middle" x="76.5" y="-175.5" font-family="Helvetica,sans-Serif" font-size="10.00">types_p.h</text>
</a>
</g>
</g>
<!-- Node8&#45;&gt;Node9 -->
<g id="edge11" class="edge">
<title>Node8&#45;&gt;Node9</title>
<path fill="none" stroke="midnightblue" d="M74,-224.08C74.39,-217.01 74.95,-206.86 75.45,-197.99"/>
<polygon fill="midnightblue" stroke="midnightblue" points="78.95,-197.93 76.01,-187.75 71.96,-197.54 78.95,-197.93"/>
</g>
<!-- Node9&#45;&gt;Node6 -->
<g id="edge12" class="edge">
<title>Node9&#45;&gt;Node6</title>
<path fill="none" stroke="midnightblue" d="M86.46,-168.32C95.63,-160.34 109.44,-148.31 120.53,-138.65"/>
<polygon fill="midnightblue" stroke="midnightblue" points="123.12,-141.04 128.36,-131.83 118.52,-135.76 123.12,-141.04"/>
</g>
<!-- Node10 -->
<g id="node10" class="node">
<title>Node10</title>
<g id="a_node10"><a xlink:title=" ">
<polygon fill="none" stroke="#bfbfbf" points="53,-112.5 53,-131.5 94,-131.5 94,-112.5 53,-112.5"/>
<text text-anchor="middle" x="73.5" y="-119.5" font-family="Helvetica,sans-Serif" font-size="10.00">QList</text>
</a>
</g>
</g>
<!-- Node9&#45;&gt;Node10 -->
<g id="edge13" class="edge">
<title>Node9&#45;&gt;Node10</title>
<path fill="none" stroke="midnightblue" d="M76,-168.08C75.61,-161.01 75.05,-150.86 74.55,-141.99"/>
<polygon fill="midnightblue" stroke="midnightblue" points="78.04,-141.54 73.99,-131.75 71.05,-141.93 78.04,-141.54"/>
</g>
</g>
</svg>
