<?xml version="1.0" encoding="UTF-8" standalone="no"?>
<!DOCTYPE svg PUBLIC "-//W3C//DTD SVG 1.1//EN"
 "http://www.w3.org/Graphics/SVG/1.1/DTD/svg11.dtd">
<!-- Generated by graphviz version 2.43.0 (0)
 -->
<!-- Title: watchfacesettingsmessage.cpp Pages: 1 -->
<svg width="380pt" height="364pt"
 viewBox="0.00 0.00 379.50 364.00" xmlns="http://www.w3.org/2000/svg" xmlns:xlink="http://www.w3.org/1999/xlink">
<g id="graph0" class="graph" transform="scale(1 1) rotate(0) translate(4 360)">
<title>watchfacesettingsmessage.cpp</title>
<!-- Node1 -->
<g id="node1" class="node">
<title>Node1</title>
<g id="a_node1"><a xlink:title=" ">
<polygon fill="#bfbfbf" stroke="black" points="151,-336.5 151,-355.5 321,-355.5 321,-336.5 151,-336.5"/>
<text text-anchor="middle" x="236" y="-343.5" font-family="Helvetica,sans-Serif" font-size="10.00">watchfacesettingsmessage.cpp</text>
</a>
</g>
</g>
<!-- Node2 -->
<g id="node2" class="node">
<title>Node2</title>
<g id="a_node2"><a xlink:href="watchfacesettingsmessage_8h.html" target="_top" xlink:title=" ">
<polygon fill="none" stroke="black" points="139.5,-224.5 139.5,-243.5 298.5,-243.5 298.5,-224.5 139.5,-224.5"/>
<text text-anchor="middle" x="219" y="-231.5" font-family="Helvetica,sans-Serif" font-size="10.00">watchfacesettingsmessage.h</text>
</a>
</g>
</g>
<!-- Node1&#45;&gt;Node2 -->
<g id="edge1" class="edge">
<title>Node1&#45;&gt;Node2</title>
<path fill="none" stroke="midnightblue" d="M234.08,-336.41C232.11,-327.38 229.06,-312.74 227,-300 224.51,-284.55 222.38,-266.92 220.95,-253.92"/>
<polygon fill="midnightblue" stroke="midnightblue" points="224.42,-253.43 219.88,-243.86 217.46,-254.18 224.42,-253.43"/>
</g>
<!-- Node7 -->
<g id="node7" class="node">
<title>Node7</title>
<g id="a_node7"><a xlink:href="watchfacesettingsmessage__p_8h.html" target="_top" xlink:title=" ">
<polygon fill="none" stroke="black" points="0,-280.5 0,-299.5 170,-299.5 170,-280.5 0,-280.5"/>
<text text-anchor="middle" x="85" y="-287.5" font-family="Helvetica,sans-Serif" font-size="10.00">watchfacesettingsmessage_p.h</text>
</a>
</g>
</g>
<!-- Node1&#45;&gt;Node7 -->
<g id="edge7" class="edge">
<title>Node1&#45;&gt;Node7</title>
<path fill="none" stroke="midnightblue" d="M212.07,-336.44C186.78,-327.4 146.7,-313.06 118.32,-302.92"/>
<polygon fill="midnightblue" stroke="midnightblue" points="119.41,-299.59 108.81,-299.52 117.05,-306.18 119.41,-299.59"/>
</g>
<!-- Node11 -->
<g id="node11" class="node">
<title>Node11</title>
<g id="a_node11"><a xlink:title=" ">
<polygon fill="none" stroke="#bfbfbf" points="236,-280.5 236,-299.5 292,-299.5 292,-280.5 236,-280.5"/>
<text text-anchor="middle" x="264" y="-287.5" font-family="Helvetica,sans-Serif" font-size="10.00">QDebug</text>
</a>
</g>
</g>
<!-- Node1&#45;&gt;Node11 -->
<g id="edge14" class="edge">
<title>Node1&#45;&gt;Node11</title>
<path fill="none" stroke="midnightblue" d="M240.62,-336.08C244.46,-328.69 250.02,-317.95 254.76,-308.81"/>
<polygon fill="midnightblue" stroke="midnightblue" points="257.97,-310.24 259.46,-299.75 251.75,-307.02 257.97,-310.24"/>
</g>
<!-- Node12 -->
<g id="node12" class="node">
<title>Node12</title>
<g id="a_node12"><a xlink:title=" ">
<polygon fill="none" stroke="#bfbfbf" points="310.5,-280.5 310.5,-299.5 371.5,-299.5 371.5,-280.5 310.5,-280.5"/>
<text text-anchor="middle" x="341" y="-287.5" font-family="Helvetica,sans-Serif" font-size="10.00">QtEndian</text>
</a>
</g>
</g>
<!-- Node1&#45;&gt;Node12 -->
<g id="edge15" class="edge">
<title>Node1&#45;&gt;Node12</title>
<path fill="none" stroke="midnightblue" d="M252.87,-336.32C269.71,-327.66 295.81,-314.24 315.24,-304.25"/>
<polygon fill="midnightblue" stroke="midnightblue" points="316.88,-307.34 324.17,-299.65 313.68,-301.12 316.88,-307.34"/>
</g>
<!-- Node3 -->
<g id="node3" class="node">
<title>Node3</title>
<g id="a_node3"><a xlink:href="fitdatamessage_8h.html" target="_top" xlink:title=" ">
<polygon fill="none" stroke="black" points="161.5,-168.5 161.5,-187.5 262.5,-187.5 262.5,-168.5 161.5,-168.5"/>
<text text-anchor="middle" x="212" y="-175.5" font-family="Helvetica,sans-Serif" font-size="10.00">fitdatamessage.h</text>
</a>
</g>
</g>
<!-- Node2&#45;&gt;Node3 -->
<g id="edge2" class="edge">
<title>Node2&#45;&gt;Node3</title>
<path fill="none" stroke="midnightblue" d="M217.84,-224.08C216.92,-216.93 215.58,-206.64 214.42,-197.69"/>
<polygon fill="midnightblue" stroke="midnightblue" points="217.89,-197.22 213.13,-187.75 210.95,-198.12 217.89,-197.22"/>
</g>
<!-- Node4 -->
<g id="node4" class="node">
<title>Node4</title>
<g id="a_node4"><a xlink:href="QtFit__global_8h.html" target="_top" xlink:title=" ">
<polygon fill="none" stroke="black" points="93,-56.5 93,-75.5 177,-75.5 177,-56.5 93,-56.5"/>
<text text-anchor="middle" x="135" y="-63.5" font-family="Helvetica,sans-Serif" font-size="10.00">QtFit_global.h</text>
</a>
</g>
</g>
<!-- Node3&#45;&gt;Node4 -->
<g id="edge3" class="edge">
<title>Node3&#45;&gt;Node4</title>
<path fill="none" stroke="midnightblue" d="M206.99,-168.39C199.54,-155.75 184.93,-131.56 171,-112 164.11,-102.32 155.86,-91.94 149.01,-83.59"/>
<polygon fill="midnightblue" stroke="midnightblue" points="151.56,-81.19 142.47,-75.74 146.18,-85.66 151.56,-81.19"/>
</g>
<!-- Node6 -->
<g id="node6" class="node">
<title>Node6</title>
<g id="a_node6"><a xlink:href="types_8h.html" target="_top" xlink:title="Types defined by the ANT+ FIT SDK.">
<polygon fill="none" stroke="black" points="108.5,-112.5 108.5,-131.5 161.5,-131.5 161.5,-112.5 108.5,-112.5"/>
<text text-anchor="middle" x="135" y="-119.5" font-family="Helvetica,sans-Serif" font-size="10.00">types.h</text>
</a>
</g>
</g>
<!-- Node3&#45;&gt;Node6 -->
<g id="edge5" class="edge">
<title>Node3&#45;&gt;Node6</title>
<path fill="none" stroke="midnightblue" d="M199.63,-168.32C187.84,-160.06 169.87,-147.45 155.86,-137.63"/>
<polygon fill="midnightblue" stroke="midnightblue" points="157.54,-134.53 147.34,-131.65 153.52,-140.26 157.54,-134.53"/>
</g>
<!-- Node5 -->
<g id="node5" class="node">
<title>Node5</title>
<g id="a_node5"><a xlink:title=" ">
<polygon fill="none" stroke="#bfbfbf" points="105.5,-0.5 105.5,-19.5 164.5,-19.5 164.5,-0.5 105.5,-0.5"/>
<text text-anchor="middle" x="135" y="-7.5" font-family="Helvetica,sans-Serif" font-size="10.00">QtGlobal</text>
</a>
</g>
</g>
<!-- Node4&#45;&gt;Node5 -->
<g id="edge4" class="edge">
<title>Node4&#45;&gt;Node5</title>
<path fill="none" stroke="midnightblue" d="M135,-56.08C135,-49.01 135,-38.86 135,-29.99"/>
<polygon fill="midnightblue" stroke="midnightblue" points="138.5,-29.75 135,-19.75 131.5,-29.75 138.5,-29.75"/>
</g>
<!-- Node6&#45;&gt;Node4 -->
<g id="edge6" class="edge">
<title>Node6&#45;&gt;Node4</title>
<path fill="none" stroke="midnightblue" d="M135,-112.08C135,-105.01 135,-94.86 135,-85.99"/>
<polygon fill="midnightblue" stroke="midnightblue" points="138.5,-85.75 135,-75.75 131.5,-85.75 138.5,-85.75"/>
</g>
<!-- Node8 -->
<g id="node8" class="node">
<title>Node8</title>
<g id="a_node8"><a xlink:href="fitdatamessage__p_8h.html" target="_top" xlink:title=" ">
<polygon fill="none" stroke="black" points="8.5,-224.5 8.5,-243.5 121.5,-243.5 121.5,-224.5 8.5,-224.5"/>
<text text-anchor="middle" x="65" y="-231.5" font-family="Helvetica,sans-Serif" font-size="10.00">fitdatamessage_p.h</text>
</a>
</g>
</g>
<!-- Node7&#45;&gt;Node8 -->
<g id="edge8" class="edge">
<title>Node7&#45;&gt;Node8</title>
<path fill="none" stroke="midnightblue" d="M81.7,-280.08C79.02,-272.85 75.15,-262.41 71.81,-253.4"/>
<polygon fill="midnightblue" stroke="midnightblue" points="75,-251.91 68.24,-243.75 68.43,-254.34 75,-251.91"/>
</g>
<!-- Node8&#45;&gt;Node4 -->
<g id="edge9" class="edge">
<title>Node8&#45;&gt;Node4</title>
<path fill="none" stroke="midnightblue" d="M55.98,-224.34C47.93,-215.93 36.7,-202.36 32,-188 25.65,-168.6 33.96,-120.2 40,-112 51.6,-96.26 70.14,-85.81 87.77,-78.98"/>
<polygon fill="midnightblue" stroke="midnightblue" points="89.17,-82.2 97.42,-75.55 86.82,-75.6 89.17,-82.2"/>
</g>
<!-- Node8&#45;&gt;Node6 -->
<g id="edge10" class="edge">
<title>Node8&#45;&gt;Node6</title>
<path fill="none" stroke="midnightblue" d="M77.56,-224.39C88.62,-216.22 104.4,-202.97 114,-188 123.1,-173.81 128.57,-155.33 131.64,-141.7"/>
<polygon fill="midnightblue" stroke="midnightblue" points="135.13,-142.09 133.67,-131.6 128.27,-140.71 135.13,-142.09"/>
</g>
<!-- Node9 -->
<g id="node9" class="node">
<title>Node9</title>
<g id="a_node9"><a xlink:href="types__p_8h.html" target="_top" xlink:title=" ">
<polygon fill="none" stroke="black" points="41,-168.5 41,-187.5 105,-187.5 105,-168.5 41,-168.5"/>
<text text-anchor="middle" x="73" y="-175.5" font-family="Helvetica,sans-Serif" font-size="10.00">types_p.h</text>
</a>
</g>
</g>
<!-- Node8&#45;&gt;Node9 -->
<g id="edge11" class="edge">
<title>Node8&#45;&gt;Node9</title>
<path fill="none" stroke="midnightblue" d="M66.32,-224.08C67.38,-216.93 68.91,-206.64 70.23,-197.69"/>
<polygon fill="midnightblue" stroke="midnightblue" points="73.7,-198.16 71.7,-187.75 66.78,-197.13 73.7,-198.16"/>
</g>
<!-- Node9&#45;&gt;Node6 -->
<g id="edge12" class="edge">
<title>Node9&#45;&gt;Node6</title>
<path fill="none" stroke="midnightblue" d="M82.96,-168.32C92.13,-160.34 105.94,-148.31 117.03,-138.65"/>
<polygon fill="midnightblue" stroke="midnightblue" points="119.62,-141.04 124.86,-131.83 115.02,-135.76 119.62,-141.04"/>
</g>
<!-- Node10 -->
<g id="node10" class="node">
<title>Node10</title>
<g id="a_node10"><a xlink:title=" ">
<polygon fill="none" stroke="#bfbfbf" points="49.5,-112.5 49.5,-131.5 90.5,-131.5 90.5,-112.5 49.5,-112.5"/>
<text text-anchor="middle" x="70" y="-119.5" font-family="Helvetica,sans-Serif" font-size="10.00">QList</text>
</a>
</g>
</g>
<!-- Node9&#45;&gt;Node10 -->
<g id="edge13" class="edge">
<title>Node9&#45;&gt;Node10</title>
<path fill="none" stroke="midnightblue" d="M72.5,-168.08C72.11,-161.01 71.55,-150.86 71.05,-141.99"/>
<polygon fill="midnightblue" stroke="midnightblue" points="74.54,-141.54 70.49,-131.75 67.55,-141.93 74.54,-141.54"/>
</g>
</g>
</svg>
