<?xml version="1.0" encoding="UTF-8" standalone="no"?>
<!DOCTYPE svg PUBLIC "-//W3C//DTD SVG 1.1//EN"
 "http://www.w3.org/Graphics/SVG/1.1/DTD/svg11.dtd">
<!-- Generated by graphviz version 2.43.0 (0)
 -->
<!-- Title: watchfacesettingsmessage.cpp Pages: 1 -->
<svg width="473pt" height="364pt"
 viewBox="0.00 0.00 473.00 364.00" xmlns="http://www.w3.org/2000/svg" xmlns:xlink="http://www.w3.org/1999/xlink">
<g id="graph0" class="graph" transform="scale(1 1) rotate(0) translate(4 360)">
<title>watchfacesettingsmessage.cpp</title>
<!-- Node1 -->
<g id="node1" class="node">
<title>Node1</title>
<g id="a_node1"><a xlink:title=" ">
<polygon fill="#bfbfbf" stroke="black" points="233.5,-336.5 233.5,-355.5 403.5,-355.5 403.5,-336.5 233.5,-336.5"/>
<text text-anchor="middle" x="318.5" y="-343.5" font-family="Helvetica,sans-Serif" font-size="10.00">watchfacesettingsmessage.cpp</text>
</a>
</g>
</g>
<!-- Node2 -->
<g id="node2" class="node">
<title>Node2</title>
<g id="a_node2"><a xlink:href="watchfacesettingsmessage_8h.html" target="_top" xlink:title=" ">
<polygon fill="none" stroke="black" points="0,-280.5 0,-299.5 159,-299.5 159,-280.5 0,-280.5"/>
<text text-anchor="middle" x="79.5" y="-287.5" font-family="Helvetica,sans-Serif" font-size="10.00">watchfacesettingsmessage.h</text>
</a>
</g>
</g>
<!-- Node1&#45;&gt;Node2 -->
<g id="edge1" class="edge">
<title>Node1&#45;&gt;Node2</title>
<path fill="none" stroke="midnightblue" d="M280.63,-336.44C239.02,-327.04 172.13,-311.93 127.03,-301.74"/>
<polygon fill="midnightblue" stroke="midnightblue" points="127.72,-298.31 117.19,-299.52 126.18,-305.13 127.72,-298.31"/>
</g>
<!-- Node7 -->
<g id="node7" class="node">
<title>Node7</title>
<g id="a_node7"><a xlink:title=" ">
<polygon fill="none" stroke="#bfbfbf" points="306.5,-56.5 306.5,-75.5 362.5,-75.5 362.5,-56.5 306.5,-56.5"/>
<text text-anchor="middle" x="334.5" y="-63.5" font-family="Helvetica,sans-Serif" font-size="10.00">QDebug</text>
</a>
</g>
</g>
<!-- Node1&#45;&gt;Node7 -->
<g id="edge15" class="edge">
<title>Node1&#45;&gt;Node7</title>
<path fill="none" stroke="midnightblue" d="M327.91,-336.2C336.49,-327.69 348.95,-314.05 356.5,-300 370.74,-273.48 375.5,-265.1 375.5,-235 375.5,-235 375.5,-235 375.5,-177 375.5,-142.52 357.59,-105.56 345.44,-84.47"/>
<polygon fill="midnightblue" stroke="midnightblue" points="348.34,-82.49 340.2,-75.71 342.34,-86.09 348.34,-82.49"/>
</g>
<!-- Node8 -->
<g id="node8" class="node">
<title>Node8</title>
<g id="a_node8"><a xlink:href="watchfacesettingsmessage__p_8h.html" target="_top" xlink:title=" ">
<polygon fill="none" stroke="black" points="177.5,-280.5 177.5,-299.5 347.5,-299.5 347.5,-280.5 177.5,-280.5"/>
<text text-anchor="middle" x="262.5" y="-287.5" font-family="Helvetica,sans-Serif" font-size="10.00">watchfacesettingsmessage_p.h</text>
</a>
</g>
</g>
<!-- Node1&#45;&gt;Node8 -->
<g id="edge8" class="edge">
<title>Node1&#45;&gt;Node8</title>
<path fill="none" stroke="midnightblue" d="M309.5,-336.32C301.31,-328.42 288.99,-316.55 279.03,-306.94"/>
<polygon fill="midnightblue" stroke="midnightblue" points="281.29,-304.26 271.66,-299.83 276.43,-309.29 281.29,-304.26"/>
</g>
<!-- Node12 -->
<g id="node12" class="node">
<title>Node12</title>
<g id="a_node12"><a xlink:title=" ">
<polygon fill="none" stroke="#bfbfbf" points="404,-280.5 404,-299.5 465,-299.5 465,-280.5 404,-280.5"/>
<text text-anchor="middle" x="434.5" y="-287.5" font-family="Helvetica,sans-Serif" font-size="10.00">QtEndian</text>
</a>
</g>
</g>
<!-- Node1&#45;&gt;Node12 -->
<g id="edge16" class="edge">
<title>Node1&#45;&gt;Node12</title>
<path fill="none" stroke="midnightblue" d="M336.88,-336.44C355.72,-327.68 385.23,-313.94 406.88,-303.86"/>
<polygon fill="midnightblue" stroke="midnightblue" points="408.62,-306.91 416.21,-299.52 405.66,-300.56 408.62,-306.91"/>
</g>
<!-- Node3 -->
<g id="node3" class="node">
<title>Node3</title>
<g id="a_node3"><a xlink:href="abstractdatamessage_8h_source.html" target="_top" xlink:title=" ">
<polygon fill="none" stroke="black" points="44,-168.5 44,-187.5 175,-187.5 175,-168.5 44,-168.5"/>
<text text-anchor="middle" x="109.5" y="-175.5" font-family="Helvetica,sans-Serif" font-size="10.00">abstractdatamessage.h</text>
</a>
</g>
</g>
<!-- Node2&#45;&gt;Node3 -->
<g id="edge2" class="edge">
<title>Node2&#45;&gt;Node3</title>
<path fill="none" stroke="midnightblue" d="M81.85,-280.37C86.72,-262.54 97.96,-221.3 104.52,-197.27"/>
<polygon fill="midnightblue" stroke="midnightblue" points="107.9,-198.16 107.16,-187.59 101.15,-196.32 107.9,-198.16"/>
</g>
<!-- Node4 -->
<g id="node4" class="node">
<title>Node4</title>
<g id="a_node4"><a xlink:href="QtFit__global_8h_source.html" target="_top" xlink:title=" ">
<polygon fill="none" stroke="black" points="161.5,-56.5 161.5,-75.5 245.5,-75.5 245.5,-56.5 161.5,-56.5"/>
<text text-anchor="middle" x="203.5" y="-63.5" font-family="Helvetica,sans-Serif" font-size="10.00">QtFit_global.h</text>
</a>
</g>
</g>
<!-- Node3&#45;&gt;Node4 -->
<g id="edge3" class="edge">
<title>Node3&#45;&gt;Node4</title>
<path fill="none" stroke="midnightblue" d="M116.88,-168.37C132.53,-150.05 169.28,-107.05 189.52,-83.36"/>
<polygon fill="midnightblue" stroke="midnightblue" points="192.32,-85.47 196.16,-75.59 187,-80.92 192.32,-85.47"/>
</g>
<!-- Node6 -->
<g id="node6" class="node">
<title>Node6</title>
<g id="a_node6"><a xlink:href="types_8h.html" target="_top" xlink:title="Types defined by the ANT+ FIT SDK.">
<polygon fill="none" stroke="black" points="232,-112.5 232,-131.5 285,-131.5 285,-112.5 232,-112.5"/>
<text text-anchor="middle" x="258.5" y="-119.5" font-family="Helvetica,sans-Serif" font-size="10.00">types.h</text>
</a>
</g>
</g>
<!-- Node3&#45;&gt;Node6 -->
<g id="edge5" class="edge">
<title>Node3&#45;&gt;Node6</title>
<path fill="none" stroke="midnightblue" d="M133.11,-168.44C157.96,-159.44 197.27,-145.19 225.25,-135.05"/>
<polygon fill="midnightblue" stroke="midnightblue" points="226.79,-138.21 235,-131.52 224.41,-131.63 226.79,-138.21"/>
</g>
<!-- Node5 -->
<g id="node5" class="node">
<title>Node5</title>
<g id="a_node5"><a xlink:title=" ">
<polygon fill="none" stroke="#bfbfbf" points="174,-0.5 174,-19.5 233,-19.5 233,-0.5 174,-0.5"/>
<text text-anchor="middle" x="203.5" y="-7.5" font-family="Helvetica,sans-Serif" font-size="10.00">QtGlobal</text>
</a>
</g>
</g>
<!-- Node4&#45;&gt;Node5 -->
<g id="edge4" class="edge">
<title>Node4&#45;&gt;Node5</title>
<path fill="none" stroke="midnightblue" d="M203.5,-56.08C203.5,-49.01 203.5,-38.86 203.5,-29.99"/>
<polygon fill="midnightblue" stroke="midnightblue" points="207,-29.75 203.5,-19.75 200,-29.75 207,-29.75"/>
</g>
<!-- Node6&#45;&gt;Node4 -->
<g id="edge6" class="edge">
<title>Node6&#45;&gt;Node4</title>
<path fill="none" stroke="midnightblue" d="M249.42,-112.08C241.33,-104.14 229.3,-92.34 219.59,-82.8"/>
<polygon fill="midnightblue" stroke="midnightblue" points="222,-80.26 212.41,-75.75 217.1,-85.25 222,-80.26"/>
</g>
<!-- Node6&#45;&gt;Node7 -->
<g id="edge7" class="edge">
<title>Node6&#45;&gt;Node7</title>
<path fill="none" stroke="midnightblue" d="M270.71,-112.32C282.28,-104.11 299.88,-91.6 313.66,-81.81"/>
<polygon fill="midnightblue" stroke="midnightblue" points="315.94,-84.48 322.07,-75.83 311.89,-78.77 315.94,-84.48"/>
</g>
<!-- Node9 -->
<g id="node9" class="node">
<title>Node9</title>
<g id="a_node9"><a xlink:href="abstractdatamessage__p_8h_source.html" target="_top" xlink:title=" ">
<polygon fill="none" stroke="black" points="187,-224.5 187,-243.5 330,-243.5 330,-224.5 187,-224.5"/>
<text text-anchor="middle" x="258.5" y="-231.5" font-family="Helvetica,sans-Serif" font-size="10.00">abstractdatamessage_p.h</text>
</a>
</g>
</g>
<!-- Node8&#45;&gt;Node9 -->
<g id="edge9" class="edge">
<title>Node8&#45;&gt;Node9</title>
<path fill="none" stroke="midnightblue" d="M261.84,-280.08C261.32,-273.01 260.56,-262.86 259.91,-253.99"/>
<polygon fill="midnightblue" stroke="midnightblue" points="263.38,-253.47 259.15,-243.75 256.4,-253.98 263.38,-253.47"/>
</g>
<!-- Node9&#45;&gt;Node4 -->
<g id="edge10" class="edge">
<title>Node9&#45;&gt;Node4</title>
<path fill="none" stroke="midnightblue" d="M255.25,-224.41C248.72,-207.06 233.69,-166.53 222.5,-132 217.46,-116.45 212.29,-98.61 208.62,-85.56"/>
<polygon fill="midnightblue" stroke="midnightblue" points="211.98,-84.58 205.92,-75.88 205.23,-86.45 211.98,-84.58"/>
</g>
<!-- Node9&#45;&gt;Node6 -->
<g id="edge11" class="edge">
<title>Node9&#45;&gt;Node6</title>
<path fill="none" stroke="midnightblue" d="M258.5,-224.37C258.5,-206.62 258.5,-165.67 258.5,-141.6"/>
<polygon fill="midnightblue" stroke="midnightblue" points="262,-141.59 258.5,-131.59 255,-141.59 262,-141.59"/>
</g>
<!-- Node10 -->
<g id="node10" class="node">
<title>Node10</title>
<g id="a_node10"><a xlink:href="types__p_8h_source.html" target="_top" xlink:title=" ">
<polygon fill="none" stroke="black" points="283.5,-168.5 283.5,-187.5 347.5,-187.5 347.5,-168.5 283.5,-168.5"/>
<text text-anchor="middle" x="315.5" y="-175.5" font-family="Helvetica,sans-Serif" font-size="10.00">types_p.h</text>
</a>
</g>
</g>
<!-- Node9&#45;&gt;Node10 -->
<g id="edge12" class="edge">
<title>Node9&#45;&gt;Node10</title>
<path fill="none" stroke="midnightblue" d="M267.66,-224.32C276,-216.42 288.53,-204.55 298.68,-194.94"/>
<polygon fill="midnightblue" stroke="midnightblue" points="301.32,-197.25 306.18,-187.83 296.51,-192.17 301.32,-197.25"/>
</g>
<!-- Node10&#45;&gt;Node6 -->
<g id="edge13" class="edge">
<title>Node10&#45;&gt;Node6</title>
<path fill="none" stroke="midnightblue" d="M306.34,-168.32C298,-160.42 285.47,-148.55 275.32,-138.94"/>
<polygon fill="midnightblue" stroke="midnightblue" points="277.49,-136.17 267.82,-131.83 272.68,-141.25 277.49,-136.17"/>
</g>
<!-- Node11 -->
<g id="node11" class="node">
<title>Node11</title>
<g id="a_node11"><a xlink:title=" ">
<polygon fill="none" stroke="#bfbfbf" points="303,-112.5 303,-131.5 344,-131.5 344,-112.5 303,-112.5"/>
<text text-anchor="middle" x="323.5" y="-119.5" font-family="Helvetica,sans-Serif" font-size="10.00">QList</text>
</a>
</g>
</g>
<!-- Node10&#45;&gt;Node11 -->
<g id="edge14" class="edge">
<title>Node10&#45;&gt;Node11</title>
<path fill="none" stroke="midnightblue" d="M316.82,-168.08C317.88,-160.93 319.41,-150.64 320.73,-141.69"/>
<polygon fill="midnightblue" stroke="midnightblue" points="324.2,-142.16 322.2,-131.75 317.28,-141.13 324.2,-142.16"/>
</g>
</g>
</svg>
