<?xml version="1.0" encoding="UTF-8" standalone="no"?>
<!DOCTYPE svg PUBLIC "-//W3C//DTD SVG 1.1//EN"
 "http://www.w3.org/Graphics/SVG/1.1/DTD/svg11.dtd">
<!-- Generated by graphviz version 2.43.0 (0)
 -->
<!-- Title: watchfacesettingsmessage.cpp Pages: 1 -->
<svg width="356pt" height="364pt"
 viewBox="0.00 0.00 355.50 364.00" xmlns="http://www.w3.org/2000/svg" xmlns:xlink="http://www.w3.org/1999/xlink">
<g id="graph0" class="graph" transform="scale(1 1) rotate(0) translate(4 360)">
<title>watchfacesettingsmessage.cpp</title>
<!-- Node1 -->
<g id="node1" class="node">
<title>Node1</title>
<g id="a_node1"><a xlink:title=" ">
<polygon fill="#bfbfbf" stroke="black" points="91,-336.5 91,-355.5 261,-355.5 261,-336.5 91,-336.5"/>
<text text-anchor="middle" x="176" y="-343.5" font-family="Helvetica,sans-Serif" font-size="10.00">watchfacesettingsmessage.cpp</text>
</a>
</g>
</g>
<!-- Node2 -->
<g id="node2" class="node">
<title>Node2</title>
<g id="a_node2"><a xlink:href="watchfacesettingsmessage_8h.html" target="_top" xlink:title=" ">
<polygon fill="none" stroke="black" points="188.5,-280.5 188.5,-299.5 347.5,-299.5 347.5,-280.5 188.5,-280.5"/>
<text text-anchor="middle" x="268" y="-287.5" font-family="Helvetica,sans-Serif" font-size="10.00">watchfacesettingsmessage.h</text>
</a>
</g>
</g>
<!-- Node1&#45;&gt;Node2 -->
<g id="edge1" class="edge">
<title>Node1&#45;&gt;Node2</title>
<path fill="none" stroke="midnightblue" d="M190.78,-336.32C205.27,-327.82 227.57,-314.73 244.49,-304.8"/>
<polygon fill="midnightblue" stroke="midnightblue" points="246.4,-307.74 253.26,-299.65 242.86,-301.7 246.4,-307.74"/>
</g>
<!-- Node7 -->
<g id="node7" class="node">
<title>Node7</title>
<g id="a_node7"><a xlink:href="watchfacesettingsmessage__p_8h.html" target="_top" xlink:title=" ">
<polygon fill="none" stroke="black" points="0,-280.5 0,-299.5 170,-299.5 170,-280.5 0,-280.5"/>
<text text-anchor="middle" x="85" y="-287.5" font-family="Helvetica,sans-Serif" font-size="10.00">watchfacesettingsmessage_p.h</text>
</a>
</g>
</g>
<!-- Node1&#45;&gt;Node7 -->
<g id="edge7" class="edge">
<title>Node1&#45;&gt;Node7</title>
<path fill="none" stroke="midnightblue" d="M161.38,-336.32C147.05,-327.82 124.99,-314.73 108.25,-304.8"/>
<polygon fill="midnightblue" stroke="midnightblue" points="109.97,-301.75 99.58,-299.65 106.4,-307.77 109.97,-301.75"/>
</g>
<!-- Node3 -->
<g id="node3" class="node">
<title>Node3</title>
<g id="a_node3"><a xlink:href="fitdatamessage_8h.html" target="_top" xlink:title=" ">
<polygon fill="none" stroke="black" points="206.5,-168.5 206.5,-187.5 307.5,-187.5 307.5,-168.5 206.5,-168.5"/>
<text text-anchor="middle" x="257" y="-175.5" font-family="Helvetica,sans-Serif" font-size="10.00">fitdatamessage.h</text>
</a>
</g>
</g>
<!-- Node2&#45;&gt;Node3 -->
<g id="edge2" class="edge">
<title>Node2&#45;&gt;Node3</title>
<path fill="none" stroke="midnightblue" d="M267.14,-280.37C265.36,-262.62 261.27,-221.67 258.86,-197.6"/>
<polygon fill="midnightblue" stroke="midnightblue" points="262.34,-197.19 257.86,-187.59 255.37,-197.89 262.34,-197.19"/>
</g>
<!-- Node4 -->
<g id="node4" class="node">
<title>Node4</title>
<g id="a_node4"><a xlink:href="QtFit__global_8h.html" target="_top" xlink:title=" ">
<polygon fill="none" stroke="black" points="138,-56.5 138,-75.5 222,-75.5 222,-56.5 138,-56.5"/>
<text text-anchor="middle" x="180" y="-63.5" font-family="Helvetica,sans-Serif" font-size="10.00">QtFit_global.h</text>
</a>
</g>
</g>
<!-- Node3&#45;&gt;Node4 -->
<g id="edge3" class="edge">
<title>Node3&#45;&gt;Node4</title>
<path fill="none" stroke="midnightblue" d="M251.99,-168.39C244.54,-155.75 229.93,-131.56 216,-112 209.11,-102.32 200.86,-91.94 194.01,-83.59"/>
<polygon fill="midnightblue" stroke="midnightblue" points="196.56,-81.19 187.47,-75.74 191.18,-85.66 196.56,-81.19"/>
</g>
<!-- Node6 -->
<g id="node6" class="node">
<title>Node6</title>
<g id="a_node6"><a xlink:href="types_8h.html" target="_top" xlink:title="Types defined by the ANT+ FIT SDK.">
<polygon fill="none" stroke="black" points="153.5,-112.5 153.5,-131.5 206.5,-131.5 206.5,-112.5 153.5,-112.5"/>
<text text-anchor="middle" x="180" y="-119.5" font-family="Helvetica,sans-Serif" font-size="10.00">types.h</text>
</a>
</g>
</g>
<!-- Node3&#45;&gt;Node6 -->
<g id="edge5" class="edge">
<title>Node3&#45;&gt;Node6</title>
<path fill="none" stroke="midnightblue" d="M244.63,-168.32C232.84,-160.06 214.87,-147.45 200.86,-137.63"/>
<polygon fill="midnightblue" stroke="midnightblue" points="202.54,-134.53 192.34,-131.65 198.52,-140.26 202.54,-134.53"/>
</g>
<!-- Node5 -->
<g id="node5" class="node">
<title>Node5</title>
<g id="a_node5"><a xlink:title=" ">
<polygon fill="none" stroke="#bfbfbf" points="150.5,-0.5 150.5,-19.5 209.5,-19.5 209.5,-0.5 150.5,-0.5"/>
<text text-anchor="middle" x="180" y="-7.5" font-family="Helvetica,sans-Serif" font-size="10.00">QtGlobal</text>
</a>
</g>
</g>
<!-- Node4&#45;&gt;Node5 -->
<g id="edge4" class="edge">
<title>Node4&#45;&gt;Node5</title>
<path fill="none" stroke="midnightblue" d="M180,-56.08C180,-49.01 180,-38.86 180,-29.99"/>
<polygon fill="midnightblue" stroke="midnightblue" points="183.5,-29.75 180,-19.75 176.5,-29.75 183.5,-29.75"/>
</g>
<!-- Node6&#45;&gt;Node4 -->
<g id="edge6" class="edge">
<title>Node6&#45;&gt;Node4</title>
<path fill="none" stroke="midnightblue" d="M180,-112.08C180,-105.01 180,-94.86 180,-85.99"/>
<polygon fill="midnightblue" stroke="midnightblue" points="183.5,-85.75 180,-75.75 176.5,-85.75 183.5,-85.75"/>
</g>
<!-- Node8 -->
<g id="node8" class="node">
<title>Node8</title>
<g id="a_node8"><a xlink:href="fitdatamessage__p_8h.html" target="_top" xlink:title=" ">
<polygon fill="none" stroke="black" points="50.5,-224.5 50.5,-243.5 163.5,-243.5 163.5,-224.5 50.5,-224.5"/>
<text text-anchor="middle" x="107" y="-231.5" font-family="Helvetica,sans-Serif" font-size="10.00">fitdatamessage_p.h</text>
</a>
</g>
</g>
<!-- Node7&#45;&gt;Node8 -->
<g id="edge8" class="edge">
<title>Node7&#45;&gt;Node8</title>
<path fill="none" stroke="midnightblue" d="M88.63,-280.08C91.61,-272.77 95.93,-262.18 99.62,-253.1"/>
<polygon fill="midnightblue" stroke="midnightblue" points="102.9,-254.33 103.43,-243.75 96.42,-251.69 102.9,-254.33"/>
</g>
<!-- Node8&#45;&gt;Node4 -->
<g id="edge9" class="edge">
<title>Node8&#45;&gt;Node4</title>
<path fill="none" stroke="midnightblue" d="M98.79,-224.18C91.46,-215.66 81.24,-202.02 77,-188 70.99,-168.14 79.92,-118.9 85,-112 96.6,-96.26 115.14,-85.81 132.77,-78.98"/>
<polygon fill="midnightblue" stroke="midnightblue" points="134.17,-82.2 142.42,-75.55 131.82,-75.6 134.17,-82.2"/>
</g>
<!-- Node8&#45;&gt;Node6 -->
<g id="edge10" class="edge">
<title>Node8&#45;&gt;Node6</title>
<path fill="none" stroke="midnightblue" d="M120.81,-224.24C132.53,-216.16 148.98,-203.13 159,-188 168.31,-173.94 173.76,-155.45 176.76,-141.78"/>
<polygon fill="midnightblue" stroke="midnightblue" points="180.26,-142.13 178.74,-131.64 173.39,-140.79 180.26,-142.13"/>
</g>
<!-- Node9 -->
<g id="node9" class="node">
<title>Node9</title>
<g id="a_node9"><a xlink:href="types__p_8h.html" target="_top" xlink:title=" ">
<polygon fill="none" stroke="black" points="86,-168.5 86,-187.5 150,-187.5 150,-168.5 86,-168.5"/>
<text text-anchor="middle" x="118" y="-175.5" font-family="Helvetica,sans-Serif" font-size="10.00">types_p.h</text>
</a>
</g>
</g>
<!-- Node8&#45;&gt;Node9 -->
<g id="edge11" class="edge">
<title>Node8&#45;&gt;Node9</title>
<path fill="none" stroke="midnightblue" d="M108.82,-224.08C110.27,-216.93 112.37,-206.64 114.19,-197.69"/>
<polygon fill="midnightblue" stroke="midnightblue" points="117.65,-198.25 116.22,-187.75 110.79,-196.85 117.65,-198.25"/>
</g>
<!-- Node9&#45;&gt;Node6 -->
<g id="edge12" class="edge">
<title>Node9&#45;&gt;Node6</title>
<path fill="none" stroke="midnightblue" d="M127.96,-168.32C137.13,-160.34 150.94,-148.31 162.03,-138.65"/>
<polygon fill="midnightblue" stroke="midnightblue" points="164.62,-141.04 169.86,-131.83 160.02,-135.76 164.62,-141.04"/>
</g>
<!-- Node10 -->
<g id="node10" class="node">
<title>Node10</title>
<g id="a_node10"><a xlink:title=" ">
<polygon fill="none" stroke="#bfbfbf" points="94.5,-112.5 94.5,-131.5 135.5,-131.5 135.5,-112.5 94.5,-112.5"/>
<text text-anchor="middle" x="115" y="-119.5" font-family="Helvetica,sans-Serif" font-size="10.00">QList</text>
</a>
</g>
</g>
<!-- Node9&#45;&gt;Node10 -->
<g id="edge13" class="edge">
<title>Node9&#45;&gt;Node10</title>
<path fill="none" stroke="midnightblue" d="M117.5,-168.08C117.11,-161.01 116.55,-150.86 116.05,-141.99"/>
<polygon fill="midnightblue" stroke="midnightblue" points="119.54,-141.54 115.49,-131.75 112.55,-141.93 119.54,-141.54"/>
</g>
</g>
</svg>
