<?xml version="1.0" encoding="UTF-8" standalone="no"?>
<!DOCTYPE svg PUBLIC "-//W3C//DTD SVG 1.1//EN"
 "http://www.w3.org/Graphics/SVG/1.1/DTD/svg11.dtd">
<!-- Generated by graphviz version 2.43.0 (0)
 -->
<!-- Title: weatherconditionsmessage.h Pages: 1 -->
<svg width="177pt" height="252pt"
 viewBox="0.00 0.00 177.00 252.00" xmlns="http://www.w3.org/2000/svg" xmlns:xlink="http://www.w3.org/1999/xlink">
<g id="graph0" class="graph" transform="scale(1 1) rotate(0) translate(4 248)">
<title>weatherconditionsmessage.h</title>
<!-- Node1 -->
<g id="node1" class="node">
<title>Node1</title>
<g id="a_node1"><a xlink:title="Declares the WeatherConditionsMessage class.">
<polygon fill="#bfbfbf" stroke="black" points="0,-224.5 0,-243.5 160,-243.5 160,-224.5 0,-224.5"/>
<text text-anchor="middle" x="80" y="-231.5" font-family="Helvetica,sans-Serif" font-size="10.00">weatherconditionsmessage.h</text>
</a>
</g>
</g>
<!-- Node2 -->
<g id="node2" class="node">
<title>Node2</title>
<g id="a_node2"><a xlink:href="abstractdatamessage_8h.html" target="_top" xlink:title="Declares the AbstractDataMessage class.">
<polygon fill="none" stroke="black" points="14.5,-168.5 14.5,-187.5 145.5,-187.5 145.5,-168.5 14.5,-168.5"/>
<text text-anchor="middle" x="80" y="-175.5" font-family="Helvetica,sans-Serif" font-size="10.00">abstractdatamessage.h</text>
</a>
</g>
</g>
<!-- Node1&#45;&gt;Node2 -->
<g id="edge1" class="edge">
<title>Node1&#45;&gt;Node2</title>
<path fill="none" stroke="midnightblue" d="M80,-224.08C80,-217.01 80,-206.86 80,-197.99"/>
<polygon fill="midnightblue" stroke="midnightblue" points="83.5,-197.75 80,-187.75 76.5,-197.75 83.5,-197.75"/>
</g>
<!-- Node3 -->
<g id="node3" class="node">
<title>Node3</title>
<g id="a_node3"><a xlink:href="QtFit__global_8h.html" target="_top" xlink:title="Global QtFit library macros.">
<polygon fill="none" stroke="black" points="11,-56.5 11,-75.5 95,-75.5 95,-56.5 11,-56.5"/>
<text text-anchor="middle" x="53" y="-63.5" font-family="Helvetica,sans-Serif" font-size="10.00">QtFit_global.h</text>
</a>
</g>
</g>
<!-- Node2&#45;&gt;Node3 -->
<g id="edge2" class="edge">
<title>Node2&#45;&gt;Node3</title>
<path fill="none" stroke="midnightblue" d="M77.88,-168.37C73.52,-150.62 63.47,-109.67 57.56,-85.6"/>
<polygon fill="midnightblue" stroke="midnightblue" points="60.89,-84.47 55.11,-75.59 54.09,-86.14 60.89,-84.47"/>
</g>
<!-- Node5 -->
<g id="node5" class="node">
<title>Node5</title>
<g id="a_node5"><a xlink:href="types_8h.html" target="_top" xlink:title="Types defined by the ANT+ FIT SDK.">
<polygon fill="none" stroke="black" points="81.5,-112.5 81.5,-131.5 134.5,-131.5 134.5,-112.5 81.5,-112.5"/>
<text text-anchor="middle" x="108" y="-119.5" font-family="Helvetica,sans-Serif" font-size="10.00">types.h</text>
</a>
</g>
</g>
<!-- Node2&#45;&gt;Node5 -->
<g id="edge4" class="edge">
<title>Node2&#45;&gt;Node5</title>
<path fill="none" stroke="midnightblue" d="M84.62,-168.08C88.46,-160.69 94.02,-149.95 98.76,-140.81"/>
<polygon fill="midnightblue" stroke="midnightblue" points="101.97,-142.24 103.46,-131.75 95.75,-139.02 101.97,-142.24"/>
</g>
<!-- Node4 -->
<g id="node4" class="node">
<title>Node4</title>
<g id="a_node4"><a xlink:title=" ">
<polygon fill="none" stroke="#bfbfbf" points="23.5,-0.5 23.5,-19.5 82.5,-19.5 82.5,-0.5 23.5,-0.5"/>
<text text-anchor="middle" x="53" y="-7.5" font-family="Helvetica,sans-Serif" font-size="10.00">QtGlobal</text>
</a>
</g>
</g>
<!-- Node3&#45;&gt;Node4 -->
<g id="edge3" class="edge">
<title>Node3&#45;&gt;Node4</title>
<path fill="none" stroke="midnightblue" d="M53,-56.08C53,-49.01 53,-38.86 53,-29.99"/>
<polygon fill="midnightblue" stroke="midnightblue" points="56.5,-29.75 53,-19.75 49.5,-29.75 56.5,-29.75"/>
</g>
<!-- Node5&#45;&gt;Node3 -->
<g id="edge5" class="edge">
<title>Node5&#45;&gt;Node3</title>
<path fill="none" stroke="midnightblue" d="M98.92,-112.08C90.83,-104.14 78.8,-92.34 69.09,-82.8"/>
<polygon fill="midnightblue" stroke="midnightblue" points="71.5,-80.26 61.91,-75.75 66.6,-85.25 71.5,-80.26"/>
</g>
<!-- Node6 -->
<g id="node6" class="node">
<title>Node6</title>
<g id="a_node6"><a xlink:title=" ">
<polygon fill="none" stroke="#bfbfbf" points="113,-56.5 113,-75.5 169,-75.5 169,-56.5 113,-56.5"/>
<text text-anchor="middle" x="141" y="-63.5" font-family="Helvetica,sans-Serif" font-size="10.00">QDebug</text>
</a>
</g>
</g>
<!-- Node5&#45;&gt;Node6 -->
<g id="edge6" class="edge">
<title>Node5&#45;&gt;Node6</title>
<path fill="none" stroke="midnightblue" d="M113.45,-112.08C118.01,-104.61 124.67,-93.72 130.29,-84.52"/>
<polygon fill="midnightblue" stroke="midnightblue" points="133.42,-86.11 135.65,-75.75 127.45,-82.46 133.42,-86.11"/>
</g>
</g>
</svg>
