<?xml version="1.0" encoding="UTF-8" standalone="no"?>
<!DOCTYPE svg PUBLIC "-//W3C//DTD SVG 1.1//EN"
 "http://www.w3.org/Graphics/SVG/1.1/DTD/svg11.dtd">
<!-- Generated by graphviz version 2.43.0 (0)
 -->
<!-- Title: weatheralertmessage.cpp Pages: 1 -->
<svg width="302pt" height="364pt"
 viewBox="0.00 0.00 301.50 364.00" xmlns="http://www.w3.org/2000/svg" xmlns:xlink="http://www.w3.org/1999/xlink">
<g id="graph0" class="graph" transform="scale(1 1) rotate(0) translate(4 360)">
<title>weatheralertmessage.cpp</title>
<!-- Node1 -->
<g id="node1" class="node">
<title>Node1</title>
<g id="a_node1"><a xlink:title=" ">
<polygon fill="#bfbfbf" stroke="black" points="78,-336.5 78,-355.5 221,-355.5 221,-336.5 78,-336.5"/>
<text text-anchor="middle" x="149.5" y="-343.5" font-family="Helvetica,sans-Serif" font-size="10.00">weatheralertmessage.cpp</text>
</a>
</g>
</g>
<!-- Node2 -->
<g id="node2" class="node">
<title>Node2</title>
<g id="a_node2"><a xlink:href="weatheralertmessage_8h.html" target="_top" xlink:title=" ">
<polygon fill="none" stroke="black" points="161.5,-280.5 161.5,-299.5 293.5,-299.5 293.5,-280.5 161.5,-280.5"/>
<text text-anchor="middle" x="227.5" y="-287.5" font-family="Helvetica,sans-Serif" font-size="10.00">weatheralertmessage.h</text>
</a>
</g>
</g>
<!-- Node1&#45;&gt;Node2 -->
<g id="edge1" class="edge">
<title>Node1&#45;&gt;Node2</title>
<path fill="none" stroke="midnightblue" d="M162.03,-336.32C174.09,-327.98 192.53,-315.21 206.77,-305.35"/>
<polygon fill="midnightblue" stroke="midnightblue" points="208.77,-308.22 215,-299.65 204.78,-302.47 208.77,-308.22"/>
</g>
<!-- Node7 -->
<g id="node7" class="node">
<title>Node7</title>
<g id="a_node7"><a xlink:href="weatheralertmessage__p_8h.html" target="_top" xlink:title=" ">
<polygon fill="none" stroke="black" points="0,-280.5 0,-299.5 143,-299.5 143,-280.5 0,-280.5"/>
<text text-anchor="middle" x="71.5" y="-287.5" font-family="Helvetica,sans-Serif" font-size="10.00">weatheralertmessage_p.h</text>
</a>
</g>
</g>
<!-- Node1&#45;&gt;Node7 -->
<g id="edge7" class="edge">
<title>Node1&#45;&gt;Node7</title>
<path fill="none" stroke="midnightblue" d="M136.97,-336.32C124.91,-327.98 106.47,-315.21 92.23,-305.35"/>
<polygon fill="midnightblue" stroke="midnightblue" points="94.22,-302.47 84,-299.65 90.23,-308.22 94.22,-302.47"/>
</g>
<!-- Node3 -->
<g id="node3" class="node">
<title>Node3</title>
<g id="a_node3"><a xlink:href="fitdatamessage_8h.html" target="_top" xlink:title=" ">
<polygon fill="none" stroke="black" points="172,-168.5 172,-187.5 273,-187.5 273,-168.5 172,-168.5"/>
<text text-anchor="middle" x="222.5" y="-175.5" font-family="Helvetica,sans-Serif" font-size="10.00">fitdatamessage.h</text>
</a>
</g>
</g>
<!-- Node2&#45;&gt;Node3 -->
<g id="edge2" class="edge">
<title>Node2&#45;&gt;Node3</title>
<path fill="none" stroke="midnightblue" d="M227.11,-280.37C226.3,-262.62 224.44,-221.67 223.35,-197.6"/>
<polygon fill="midnightblue" stroke="midnightblue" points="226.84,-197.42 222.89,-187.59 219.85,-197.74 226.84,-197.42"/>
</g>
<!-- Node4 -->
<g id="node4" class="node">
<title>Node4</title>
<g id="a_node4"><a xlink:href="QtFit__global_8h.html" target="_top" xlink:title=" ">
<polygon fill="none" stroke="black" points="103.5,-56.5 103.5,-75.5 187.5,-75.5 187.5,-56.5 103.5,-56.5"/>
<text text-anchor="middle" x="145.5" y="-63.5" font-family="Helvetica,sans-Serif" font-size="10.00">QtFit_global.h</text>
</a>
</g>
</g>
<!-- Node3&#45;&gt;Node4 -->
<g id="edge3" class="edge">
<title>Node3&#45;&gt;Node4</title>
<path fill="none" stroke="midnightblue" d="M217.49,-168.39C210.04,-155.75 195.43,-131.56 181.5,-112 174.61,-102.32 166.36,-91.94 159.51,-83.59"/>
<polygon fill="midnightblue" stroke="midnightblue" points="162.06,-81.19 152.97,-75.74 156.68,-85.66 162.06,-81.19"/>
</g>
<!-- Node6 -->
<g id="node6" class="node">
<title>Node6</title>
<g id="a_node6"><a xlink:href="types_8h.html" target="_top" xlink:title="Types defined by the ANT+ FIT SDK.">
<polygon fill="none" stroke="black" points="119,-112.5 119,-131.5 172,-131.5 172,-112.5 119,-112.5"/>
<text text-anchor="middle" x="145.5" y="-119.5" font-family="Helvetica,sans-Serif" font-size="10.00">types.h</text>
</a>
</g>
</g>
<!-- Node3&#45;&gt;Node6 -->
<g id="edge5" class="edge">
<title>Node3&#45;&gt;Node6</title>
<path fill="none" stroke="midnightblue" d="M210.13,-168.32C198.34,-160.06 180.37,-147.45 166.36,-137.63"/>
<polygon fill="midnightblue" stroke="midnightblue" points="168.04,-134.53 157.84,-131.65 164.02,-140.26 168.04,-134.53"/>
</g>
<!-- Node5 -->
<g id="node5" class="node">
<title>Node5</title>
<g id="a_node5"><a xlink:title=" ">
<polygon fill="none" stroke="#bfbfbf" points="116,-0.5 116,-19.5 175,-19.5 175,-0.5 116,-0.5"/>
<text text-anchor="middle" x="145.5" y="-7.5" font-family="Helvetica,sans-Serif" font-size="10.00">QtGlobal</text>
</a>
</g>
</g>
<!-- Node4&#45;&gt;Node5 -->
<g id="edge4" class="edge">
<title>Node4&#45;&gt;Node5</title>
<path fill="none" stroke="midnightblue" d="M145.5,-56.08C145.5,-49.01 145.5,-38.86 145.5,-29.99"/>
<polygon fill="midnightblue" stroke="midnightblue" points="149,-29.75 145.5,-19.75 142,-29.75 149,-29.75"/>
</g>
<!-- Node6&#45;&gt;Node4 -->
<g id="edge6" class="edge">
<title>Node6&#45;&gt;Node4</title>
<path fill="none" stroke="midnightblue" d="M145.5,-112.08C145.5,-105.01 145.5,-94.86 145.5,-85.99"/>
<polygon fill="midnightblue" stroke="midnightblue" points="149,-85.75 145.5,-75.75 142,-85.75 149,-85.75"/>
</g>
<!-- Node8 -->
<g id="node8" class="node">
<title>Node8</title>
<g id="a_node8"><a xlink:href="fitdatamessage__p_8h.html" target="_top" xlink:title=" ">
<polygon fill="none" stroke="black" points="23,-224.5 23,-243.5 136,-243.5 136,-224.5 23,-224.5"/>
<text text-anchor="middle" x="79.5" y="-231.5" font-family="Helvetica,sans-Serif" font-size="10.00">fitdatamessage_p.h</text>
</a>
</g>
</g>
<!-- Node7&#45;&gt;Node8 -->
<g id="edge8" class="edge">
<title>Node7&#45;&gt;Node8</title>
<path fill="none" stroke="midnightblue" d="M72.82,-280.08C73.88,-272.93 75.41,-262.64 76.73,-253.69"/>
<polygon fill="midnightblue" stroke="midnightblue" points="80.2,-254.16 78.2,-243.75 73.28,-253.13 80.2,-254.16"/>
</g>
<!-- Node8&#45;&gt;Node4 -->
<g id="edge9" class="edge">
<title>Node8&#45;&gt;Node4</title>
<path fill="none" stroke="midnightblue" d="M69.06,-224.24C60.08,-215.97 47.75,-202.66 42.5,-188 35.74,-169.15 43.32,-121.75 50.5,-112 62.1,-96.26 80.64,-85.81 98.27,-78.98"/>
<polygon fill="midnightblue" stroke="midnightblue" points="99.67,-82.2 107.92,-75.55 97.32,-75.6 99.67,-82.2"/>
</g>
<!-- Node8&#45;&gt;Node6 -->
<g id="edge10" class="edge">
<title>Node8&#45;&gt;Node6</title>
<path fill="none" stroke="midnightblue" d="M90.62,-224.5C100.76,-216.2 115.51,-202.7 124.5,-188 133.3,-173.62 138.8,-155.16 141.96,-141.59"/>
<polygon fill="midnightblue" stroke="midnightblue" points="145.44,-142.05 144.07,-131.54 138.59,-140.6 145.44,-142.05"/>
</g>
<!-- Node9 -->
<g id="node9" class="node">
<title>Node9</title>
<g id="a_node9"><a xlink:href="types__p_8h.html" target="_top" xlink:title=" ">
<polygon fill="none" stroke="black" points="51.5,-168.5 51.5,-187.5 115.5,-187.5 115.5,-168.5 51.5,-168.5"/>
<text text-anchor="middle" x="83.5" y="-175.5" font-family="Helvetica,sans-Serif" font-size="10.00">types_p.h</text>
</a>
</g>
</g>
<!-- Node8&#45;&gt;Node9 -->
<g id="edge11" class="edge">
<title>Node8&#45;&gt;Node9</title>
<path fill="none" stroke="midnightblue" d="M80.16,-224.08C80.68,-217.01 81.44,-206.86 82.09,-197.99"/>
<polygon fill="midnightblue" stroke="midnightblue" points="85.6,-197.98 82.85,-187.75 78.62,-197.47 85.6,-197.98"/>
</g>
<!-- Node9&#45;&gt;Node6 -->
<g id="edge12" class="edge">
<title>Node9&#45;&gt;Node6</title>
<path fill="none" stroke="midnightblue" d="M93.46,-168.32C102.63,-160.34 116.44,-148.31 127.53,-138.65"/>
<polygon fill="midnightblue" stroke="midnightblue" points="130.12,-141.04 135.36,-131.83 125.52,-135.76 130.12,-141.04"/>
</g>
<!-- Node10 -->
<g id="node10" class="node">
<title>Node10</title>
<g id="a_node10"><a xlink:title=" ">
<polygon fill="none" stroke="#bfbfbf" points="60,-112.5 60,-131.5 101,-131.5 101,-112.5 60,-112.5"/>
<text text-anchor="middle" x="80.5" y="-119.5" font-family="Helvetica,sans-Serif" font-size="10.00">QList</text>
</a>
</g>
</g>
<!-- Node9&#45;&gt;Node10 -->
<g id="edge13" class="edge">
<title>Node9&#45;&gt;Node10</title>
<path fill="none" stroke="midnightblue" d="M83,-168.08C82.61,-161.01 82.05,-150.86 81.55,-141.99"/>
<polygon fill="midnightblue" stroke="midnightblue" points="85.04,-141.54 80.99,-131.75 78.05,-141.93 85.04,-141.54"/>
</g>
</g>
</svg>
