<?xml version="1.0" encoding="UTF-8" standalone="no"?>
<!DOCTYPE svg PUBLIC "-//W3C//DTD SVG 1.1//EN"
 "http://www.w3.org/Graphics/SVG/1.1/DTD/svg11.dtd">
<!-- Generated by graphviz version 2.43.0 (0)
 -->
<!-- Title: weatherconditionsmessage.cpp Pages: 1 -->
<svg width="358pt" height="364pt"
 viewBox="0.00 0.00 357.50 364.00" xmlns="http://www.w3.org/2000/svg" xmlns:xlink="http://www.w3.org/1999/xlink">
<g id="graph0" class="graph" transform="scale(1 1) rotate(0) translate(4 360)">
<title>weatherconditionsmessage.cpp</title>
<!-- Node1 -->
<g id="node1" class="node">
<title>Node1</title>
<g id="a_node1"><a xlink:title=" ">
<polygon fill="#bfbfbf" stroke="black" points="92,-336.5 92,-355.5 263,-355.5 263,-336.5 92,-336.5"/>
<text text-anchor="middle" x="177.5" y="-343.5" font-family="Helvetica,sans-Serif" font-size="10.00">weatherconditionsmessage.cpp</text>
</a>
</g>
</g>
<!-- Node2 -->
<g id="node2" class="node">
<title>Node2</title>
<g id="a_node2"><a xlink:href="weatherconditionsmessage_8h.html" target="_top" xlink:title=" ">
<polygon fill="none" stroke="black" points="189.5,-280.5 189.5,-299.5 349.5,-299.5 349.5,-280.5 189.5,-280.5"/>
<text text-anchor="middle" x="269.5" y="-287.5" font-family="Helvetica,sans-Serif" font-size="10.00">weatherconditionsmessage.h</text>
</a>
</g>
</g>
<!-- Node1&#45;&gt;Node2 -->
<g id="edge1" class="edge">
<title>Node1&#45;&gt;Node2</title>
<path fill="none" stroke="midnightblue" d="M192.28,-336.32C206.77,-327.82 229.07,-314.73 245.99,-304.8"/>
<polygon fill="midnightblue" stroke="midnightblue" points="247.9,-307.74 254.76,-299.65 244.36,-301.7 247.9,-307.74"/>
</g>
<!-- Node7 -->
<g id="node7" class="node">
<title>Node7</title>
<g id="a_node7"><a xlink:href="weatherconditionsmessage__p_8h.html" target="_top" xlink:title=" ">
<polygon fill="none" stroke="black" points="0,-280.5 0,-299.5 171,-299.5 171,-280.5 0,-280.5"/>
<text text-anchor="middle" x="85.5" y="-287.5" font-family="Helvetica,sans-Serif" font-size="10.00">weatherconditionsmessage_p.h</text>
</a>
</g>
</g>
<!-- Node1&#45;&gt;Node7 -->
<g id="edge7" class="edge">
<title>Node1&#45;&gt;Node7</title>
<path fill="none" stroke="midnightblue" d="M162.72,-336.32C148.23,-327.82 125.93,-314.73 109.01,-304.8"/>
<polygon fill="midnightblue" stroke="midnightblue" points="110.64,-301.7 100.24,-299.65 107.1,-307.74 110.64,-301.7"/>
</g>
<!-- Node3 -->
<g id="node3" class="node">
<title>Node3</title>
<g id="a_node3"><a xlink:href="fitdatamessage_8h.html" target="_top" xlink:title=" ">
<polygon fill="none" stroke="black" points="207,-168.5 207,-187.5 308,-187.5 308,-168.5 207,-168.5"/>
<text text-anchor="middle" x="257.5" y="-175.5" font-family="Helvetica,sans-Serif" font-size="10.00">fitdatamessage.h</text>
</a>
</g>
</g>
<!-- Node2&#45;&gt;Node3 -->
<g id="edge2" class="edge">
<title>Node2&#45;&gt;Node3</title>
<path fill="none" stroke="midnightblue" d="M268.56,-280.37C266.62,-262.62 262.15,-221.67 259.53,-197.6"/>
<polygon fill="midnightblue" stroke="midnightblue" points="263,-197.15 258.44,-187.59 256.04,-197.91 263,-197.15"/>
</g>
<!-- Node4 -->
<g id="node4" class="node">
<title>Node4</title>
<g id="a_node4"><a xlink:href="QtFit__global_8h.html" target="_top" xlink:title=" ">
<polygon fill="none" stroke="black" points="138.5,-56.5 138.5,-75.5 222.5,-75.5 222.5,-56.5 138.5,-56.5"/>
<text text-anchor="middle" x="180.5" y="-63.5" font-family="Helvetica,sans-Serif" font-size="10.00">QtFit_global.h</text>
</a>
</g>
</g>
<!-- Node3&#45;&gt;Node4 -->
<g id="edge3" class="edge">
<title>Node3&#45;&gt;Node4</title>
<path fill="none" stroke="midnightblue" d="M252.49,-168.39C245.04,-155.75 230.43,-131.56 216.5,-112 209.61,-102.32 201.36,-91.94 194.51,-83.59"/>
<polygon fill="midnightblue" stroke="midnightblue" points="197.06,-81.19 187.97,-75.74 191.68,-85.66 197.06,-81.19"/>
</g>
<!-- Node6 -->
<g id="node6" class="node">
<title>Node6</title>
<g id="a_node6"><a xlink:href="types_8h.html" target="_top" xlink:title="Types defined by the ANT+ FIT SDK.">
<polygon fill="none" stroke="black" points="154,-112.5 154,-131.5 207,-131.5 207,-112.5 154,-112.5"/>
<text text-anchor="middle" x="180.5" y="-119.5" font-family="Helvetica,sans-Serif" font-size="10.00">types.h</text>
</a>
</g>
</g>
<!-- Node3&#45;&gt;Node6 -->
<g id="edge5" class="edge">
<title>Node3&#45;&gt;Node6</title>
<path fill="none" stroke="midnightblue" d="M245.13,-168.32C233.34,-160.06 215.37,-147.45 201.36,-137.63"/>
<polygon fill="midnightblue" stroke="midnightblue" points="203.04,-134.53 192.84,-131.65 199.02,-140.26 203.04,-134.53"/>
</g>
<!-- Node5 -->
<g id="node5" class="node">
<title>Node5</title>
<g id="a_node5"><a xlink:title=" ">
<polygon fill="none" stroke="#bfbfbf" points="151,-0.5 151,-19.5 210,-19.5 210,-0.5 151,-0.5"/>
<text text-anchor="middle" x="180.5" y="-7.5" font-family="Helvetica,sans-Serif" font-size="10.00">QtGlobal</text>
</a>
</g>
</g>
<!-- Node4&#45;&gt;Node5 -->
<g id="edge4" class="edge">
<title>Node4&#45;&gt;Node5</title>
<path fill="none" stroke="midnightblue" d="M180.5,-56.08C180.5,-49.01 180.5,-38.86 180.5,-29.99"/>
<polygon fill="midnightblue" stroke="midnightblue" points="184,-29.75 180.5,-19.75 177,-29.75 184,-29.75"/>
</g>
<!-- Node6&#45;&gt;Node4 -->
<g id="edge6" class="edge">
<title>Node6&#45;&gt;Node4</title>
<path fill="none" stroke="midnightblue" d="M180.5,-112.08C180.5,-105.01 180.5,-94.86 180.5,-85.99"/>
<polygon fill="midnightblue" stroke="midnightblue" points="184,-85.75 180.5,-75.75 177,-85.75 184,-85.75"/>
</g>
<!-- Node8 -->
<g id="node8" class="node">
<title>Node8</title>
<g id="a_node8"><a xlink:href="fitdatamessage__p_8h.html" target="_top" xlink:title=" ">
<polygon fill="none" stroke="black" points="51,-224.5 51,-243.5 164,-243.5 164,-224.5 51,-224.5"/>
<text text-anchor="middle" x="107.5" y="-231.5" font-family="Helvetica,sans-Serif" font-size="10.00">fitdatamessage_p.h</text>
</a>
</g>
</g>
<!-- Node7&#45;&gt;Node8 -->
<g id="edge8" class="edge">
<title>Node7&#45;&gt;Node8</title>
<path fill="none" stroke="midnightblue" d="M89.13,-280.08C92.11,-272.77 96.43,-262.18 100.12,-253.1"/>
<polygon fill="midnightblue" stroke="midnightblue" points="103.4,-254.33 103.93,-243.75 96.92,-251.69 103.4,-254.33"/>
</g>
<!-- Node8&#45;&gt;Node4 -->
<g id="edge9" class="edge">
<title>Node8&#45;&gt;Node4</title>
<path fill="none" stroke="midnightblue" d="M99.29,-224.18C91.96,-215.66 81.74,-202.02 77.5,-188 71.49,-168.14 80.42,-118.9 85.5,-112 97.1,-96.26 115.64,-85.81 133.27,-78.98"/>
<polygon fill="midnightblue" stroke="midnightblue" points="134.67,-82.2 142.92,-75.55 132.32,-75.6 134.67,-82.2"/>
</g>
<!-- Node8&#45;&gt;Node6 -->
<g id="edge10" class="edge">
<title>Node8&#45;&gt;Node6</title>
<path fill="none" stroke="midnightblue" d="M121.31,-224.24C133.03,-216.16 149.48,-203.13 159.5,-188 168.81,-173.94 174.26,-155.45 177.26,-141.78"/>
<polygon fill="midnightblue" stroke="midnightblue" points="180.76,-142.13 179.24,-131.64 173.89,-140.79 180.76,-142.13"/>
</g>
<!-- Node9 -->
<g id="node9" class="node">
<title>Node9</title>
<g id="a_node9"><a xlink:href="types__p_8h.html" target="_top" xlink:title=" ">
<polygon fill="none" stroke="black" points="86.5,-168.5 86.5,-187.5 150.5,-187.5 150.5,-168.5 86.5,-168.5"/>
<text text-anchor="middle" x="118.5" y="-175.5" font-family="Helvetica,sans-Serif" font-size="10.00">types_p.h</text>
</a>
</g>
</g>
<!-- Node8&#45;&gt;Node9 -->
<g id="edge11" class="edge">
<title>Node8&#45;&gt;Node9</title>
<path fill="none" stroke="midnightblue" d="M109.32,-224.08C110.77,-216.93 112.87,-206.64 114.69,-197.69"/>
<polygon fill="midnightblue" stroke="midnightblue" points="118.15,-198.25 116.72,-187.75 111.29,-196.85 118.15,-198.25"/>
</g>
<!-- Node9&#45;&gt;Node6 -->
<g id="edge12" class="edge">
<title>Node9&#45;&gt;Node6</title>
<path fill="none" stroke="midnightblue" d="M128.46,-168.32C137.63,-160.34 151.44,-148.31 162.53,-138.65"/>
<polygon fill="midnightblue" stroke="midnightblue" points="165.12,-141.04 170.36,-131.83 160.52,-135.76 165.12,-141.04"/>
</g>
<!-- Node10 -->
<g id="node10" class="node">
<title>Node10</title>
<g id="a_node10"><a xlink:title=" ">
<polygon fill="none" stroke="#bfbfbf" points="95,-112.5 95,-131.5 136,-131.5 136,-112.5 95,-112.5"/>
<text text-anchor="middle" x="115.5" y="-119.5" font-family="Helvetica,sans-Serif" font-size="10.00">QList</text>
</a>
</g>
</g>
<!-- Node9&#45;&gt;Node10 -->
<g id="edge13" class="edge">
<title>Node9&#45;&gt;Node10</title>
<path fill="none" stroke="midnightblue" d="M118,-168.08C117.61,-161.01 117.05,-150.86 116.55,-141.99"/>
<polygon fill="midnightblue" stroke="midnightblue" points="120.04,-141.54 115.99,-131.75 113.05,-141.93 120.04,-141.54"/>
</g>
</g>
</svg>
