<?xml version="1.0" encoding="UTF-8" standalone="no"?>
<!DOCTYPE svg PUBLIC "-//W3C//DTD SVG 1.1//EN"
 "http://www.w3.org/Graphics/SVG/1.1/DTD/svg11.dtd">
<!-- Generated by graphviz version 2.43.0 (0)
 -->
<!-- Title: weatheralertmessage.cpp Pages: 1 -->
<svg width="420pt" height="364pt"
 viewBox="0.00 0.00 419.50 364.00" xmlns="http://www.w3.org/2000/svg" xmlns:xlink="http://www.w3.org/1999/xlink">
<g id="graph0" class="graph" transform="scale(1 1) rotate(0) translate(4 360)">
<title>weatheralertmessage.cpp</title>
<!-- Node1 -->
<g id="node1" class="node">
<title>Node1</title>
<g id="a_node1"><a xlink:title=" ">
<polygon fill="#bfbfbf" stroke="black" points="200.5,-336.5 200.5,-355.5 343.5,-355.5 343.5,-336.5 200.5,-336.5"/>
<text text-anchor="middle" x="272" y="-343.5" font-family="Helvetica,sans-Serif" font-size="10.00">weatheralertmessage.cpp</text>
</a>
</g>
</g>
<!-- Node2 -->
<g id="node2" class="node">
<title>Node2</title>
<g id="a_node2"><a xlink:href="weatheralertmessage_8h.html" target="_top" xlink:title=" ">
<polygon fill="none" stroke="black" points="0,-280.5 0,-299.5 132,-299.5 132,-280.5 0,-280.5"/>
<text text-anchor="middle" x="66" y="-287.5" font-family="Helvetica,sans-Serif" font-size="10.00">weatheralertmessage.h</text>
</a>
</g>
</g>
<!-- Node1&#45;&gt;Node2 -->
<g id="edge1" class="edge">
<title>Node1&#45;&gt;Node2</title>
<path fill="none" stroke="midnightblue" d="M239.36,-336.44C203.95,-327.16 147.29,-312.31 108.45,-302.13"/>
<polygon fill="midnightblue" stroke="midnightblue" points="109.05,-298.67 98.49,-299.52 107.27,-305.44 109.05,-298.67"/>
</g>
<!-- Node7 -->
<g id="node7" class="node">
<title>Node7</title>
<g id="a_node7"><a xlink:title=" ">
<polygon fill="none" stroke="#bfbfbf" points="253,-56.5 253,-75.5 309,-75.5 309,-56.5 253,-56.5"/>
<text text-anchor="middle" x="281" y="-63.5" font-family="Helvetica,sans-Serif" font-size="10.00">QDebug</text>
</a>
</g>
</g>
<!-- Node1&#45;&gt;Node7 -->
<g id="edge15" class="edge">
<title>Node1&#45;&gt;Node7</title>
<path fill="none" stroke="midnightblue" d="M279.32,-336.22C286.26,-327.51 296.56,-313.54 303,-300 315.92,-272.82 322,-265.1 322,-235 322,-235 322,-235 322,-177 322,-142.52 304.09,-105.56 291.94,-84.47"/>
<polygon fill="midnightblue" stroke="midnightblue" points="294.84,-82.49 286.7,-75.71 288.84,-86.09 294.84,-82.49"/>
</g>
<!-- Node8 -->
<g id="node8" class="node">
<title>Node8</title>
<g id="a_node8"><a xlink:href="weatheralertmessage__p_8h.html" target="_top" xlink:title=" ">
<polygon fill="none" stroke="black" points="150.5,-280.5 150.5,-299.5 293.5,-299.5 293.5,-280.5 150.5,-280.5"/>
<text text-anchor="middle" x="222" y="-287.5" font-family="Helvetica,sans-Serif" font-size="10.00">weatheralertmessage_p.h</text>
</a>
</g>
</g>
<!-- Node1&#45;&gt;Node8 -->
<g id="edge8" class="edge">
<title>Node1&#45;&gt;Node8</title>
<path fill="none" stroke="midnightblue" d="M263.74,-336.08C256.54,-328.3 245.89,-316.8 237.15,-307.37"/>
<polygon fill="midnightblue" stroke="midnightblue" points="239.47,-304.71 230.1,-299.75 234.33,-309.47 239.47,-304.71"/>
</g>
<!-- Node12 -->
<g id="node12" class="node">
<title>Node12</title>
<g id="a_node12"><a xlink:title=" ">
<polygon fill="none" stroke="#bfbfbf" points="350.5,-280.5 350.5,-299.5 411.5,-299.5 411.5,-280.5 350.5,-280.5"/>
<text text-anchor="middle" x="381" y="-287.5" font-family="Helvetica,sans-Serif" font-size="10.00">QtEndian</text>
</a>
</g>
</g>
<!-- Node1&#45;&gt;Node12 -->
<g id="edge16" class="edge">
<title>Node1&#45;&gt;Node12</title>
<path fill="none" stroke="midnightblue" d="M289.51,-336.32C307.07,-327.62 334.33,-314.12 354.53,-304.11"/>
<polygon fill="midnightblue" stroke="midnightblue" points="356.12,-307.23 363.53,-299.65 353.02,-300.96 356.12,-307.23"/>
</g>
<!-- Node3 -->
<g id="node3" class="node">
<title>Node3</title>
<g id="a_node3"><a xlink:href="fitdatamessage_8h.html" target="_top" xlink:title=" ">
<polygon fill="none" stroke="black" points="20.5,-168.5 20.5,-187.5 121.5,-187.5 121.5,-168.5 20.5,-168.5"/>
<text text-anchor="middle" x="71" y="-175.5" font-family="Helvetica,sans-Serif" font-size="10.00">fitdatamessage.h</text>
</a>
</g>
</g>
<!-- Node2&#45;&gt;Node3 -->
<g id="edge2" class="edge">
<title>Node2&#45;&gt;Node3</title>
<path fill="none" stroke="midnightblue" d="M66.39,-280.37C67.2,-262.62 69.06,-221.67 70.15,-197.6"/>
<polygon fill="midnightblue" stroke="midnightblue" points="73.65,-197.74 70.61,-187.59 66.66,-197.42 73.65,-197.74"/>
</g>
<!-- Node4 -->
<g id="node4" class="node">
<title>Node4</title>
<g id="a_node4"><a xlink:href="QtFit__global_8h.html" target="_top" xlink:title=" ">
<polygon fill="none" stroke="black" points="108,-56.5 108,-75.5 192,-75.5 192,-56.5 108,-56.5"/>
<text text-anchor="middle" x="150" y="-63.5" font-family="Helvetica,sans-Serif" font-size="10.00">QtFit_global.h</text>
</a>
</g>
</g>
<!-- Node3&#45;&gt;Node4 -->
<g id="edge3" class="edge">
<title>Node3&#45;&gt;Node4</title>
<path fill="none" stroke="midnightblue" d="M77.2,-168.37C90.24,-150.22 120.7,-107.8 137.8,-83.99"/>
<polygon fill="midnightblue" stroke="midnightblue" points="140.84,-85.76 143.83,-75.59 135.15,-81.67 140.84,-85.76"/>
</g>
<!-- Node6 -->
<g id="node6" class="node">
<title>Node6</title>
<g id="a_node6"><a xlink:href="types_8h.html" target="_top" xlink:title="Types defined by the ANT+ FIT SDK.">
<polygon fill="none" stroke="black" points="178.5,-112.5 178.5,-131.5 231.5,-131.5 231.5,-112.5 178.5,-112.5"/>
<text text-anchor="middle" x="205" y="-119.5" font-family="Helvetica,sans-Serif" font-size="10.00">types.h</text>
</a>
</g>
</g>
<!-- Node3&#45;&gt;Node6 -->
<g id="edge5" class="edge">
<title>Node3&#45;&gt;Node6</title>
<path fill="none" stroke="midnightblue" d="M92.23,-168.44C114.38,-159.52 149.32,-145.44 174.44,-135.32"/>
<polygon fill="midnightblue" stroke="midnightblue" points="175.9,-138.5 183.87,-131.52 173.28,-132.01 175.9,-138.5"/>
</g>
<!-- Node5 -->
<g id="node5" class="node">
<title>Node5</title>
<g id="a_node5"><a xlink:title=" ">
<polygon fill="none" stroke="#bfbfbf" points="120.5,-0.5 120.5,-19.5 179.5,-19.5 179.5,-0.5 120.5,-0.5"/>
<text text-anchor="middle" x="150" y="-7.5" font-family="Helvetica,sans-Serif" font-size="10.00">QtGlobal</text>
</a>
</g>
</g>
<!-- Node4&#45;&gt;Node5 -->
<g id="edge4" class="edge">
<title>Node4&#45;&gt;Node5</title>
<path fill="none" stroke="midnightblue" d="M150,-56.08C150,-49.01 150,-38.86 150,-29.99"/>
<polygon fill="midnightblue" stroke="midnightblue" points="153.5,-29.75 150,-19.75 146.5,-29.75 153.5,-29.75"/>
</g>
<!-- Node6&#45;&gt;Node4 -->
<g id="edge6" class="edge">
<title>Node6&#45;&gt;Node4</title>
<path fill="none" stroke="midnightblue" d="M195.92,-112.08C187.83,-104.14 175.8,-92.34 166.09,-82.8"/>
<polygon fill="midnightblue" stroke="midnightblue" points="168.5,-80.26 158.91,-75.75 163.6,-85.25 168.5,-80.26"/>
</g>
<!-- Node6&#45;&gt;Node7 -->
<g id="edge7" class="edge">
<title>Node6&#45;&gt;Node7</title>
<path fill="none" stroke="midnightblue" d="M217.21,-112.32C228.78,-104.11 246.38,-91.6 260.16,-81.81"/>
<polygon fill="midnightblue" stroke="midnightblue" points="262.44,-84.48 268.57,-75.83 258.39,-78.77 262.44,-84.48"/>
</g>
<!-- Node9 -->
<g id="node9" class="node">
<title>Node9</title>
<g id="a_node9"><a xlink:href="fitdatamessage__p_8h.html" target="_top" xlink:title=" ">
<polygon fill="none" stroke="black" points="155.5,-224.5 155.5,-243.5 268.5,-243.5 268.5,-224.5 155.5,-224.5"/>
<text text-anchor="middle" x="212" y="-231.5" font-family="Helvetica,sans-Serif" font-size="10.00">fitdatamessage_p.h</text>
</a>
</g>
</g>
<!-- Node8&#45;&gt;Node9 -->
<g id="edge9" class="edge">
<title>Node8&#45;&gt;Node9</title>
<path fill="none" stroke="midnightblue" d="M220.35,-280.08C219.02,-272.93 217.12,-262.64 215.46,-253.69"/>
<polygon fill="midnightblue" stroke="midnightblue" points="218.88,-252.95 213.62,-243.75 212,-254.22 218.88,-252.95"/>
</g>
<!-- Node9&#45;&gt;Node4 -->
<g id="edge10" class="edge">
<title>Node9&#45;&gt;Node4</title>
<path fill="none" stroke="midnightblue" d="M207.97,-224.49C199.91,-207.28 181.51,-166.99 169,-132 163.43,-116.43 158.25,-98.35 154.71,-85.22"/>
<polygon fill="midnightblue" stroke="midnightblue" points="158.08,-84.29 152.15,-75.52 151.31,-86.08 158.08,-84.29"/>
</g>
<!-- Node9&#45;&gt;Node6 -->
<g id="edge11" class="edge">
<title>Node9&#45;&gt;Node6</title>
<path fill="none" stroke="midnightblue" d="M211.45,-224.37C210.32,-206.62 207.72,-165.67 206.18,-141.6"/>
<polygon fill="midnightblue" stroke="midnightblue" points="209.67,-141.35 205.55,-131.59 202.69,-141.79 209.67,-141.35"/>
</g>
<!-- Node10 -->
<g id="node10" class="node">
<title>Node10</title>
<g id="a_node10"><a xlink:href="types__p_8h.html" target="_top" xlink:title=" ">
<polygon fill="none" stroke="black" points="230,-168.5 230,-187.5 294,-187.5 294,-168.5 230,-168.5"/>
<text text-anchor="middle" x="262" y="-175.5" font-family="Helvetica,sans-Serif" font-size="10.00">types_p.h</text>
</a>
</g>
</g>
<!-- Node9&#45;&gt;Node10 -->
<g id="edge12" class="edge">
<title>Node9&#45;&gt;Node10</title>
<path fill="none" stroke="midnightblue" d="M220.26,-224.08C227.46,-216.3 238.11,-204.8 246.85,-195.37"/>
<polygon fill="midnightblue" stroke="midnightblue" points="249.67,-197.47 253.9,-187.75 244.53,-192.71 249.67,-197.47"/>
</g>
<!-- Node10&#45;&gt;Node6 -->
<g id="edge13" class="edge">
<title>Node10&#45;&gt;Node6</title>
<path fill="none" stroke="midnightblue" d="M252.84,-168.32C244.5,-160.42 231.97,-148.55 221.82,-138.94"/>
<polygon fill="midnightblue" stroke="midnightblue" points="223.99,-136.17 214.32,-131.83 219.18,-141.25 223.99,-136.17"/>
</g>
<!-- Node11 -->
<g id="node11" class="node">
<title>Node11</title>
<g id="a_node11"><a xlink:title=" ">
<polygon fill="none" stroke="#bfbfbf" points="249.5,-112.5 249.5,-131.5 290.5,-131.5 290.5,-112.5 249.5,-112.5"/>
<text text-anchor="middle" x="270" y="-119.5" font-family="Helvetica,sans-Serif" font-size="10.00">QList</text>
</a>
</g>
</g>
<!-- Node10&#45;&gt;Node11 -->
<g id="edge14" class="edge">
<title>Node10&#45;&gt;Node11</title>
<path fill="none" stroke="midnightblue" d="M263.32,-168.08C264.38,-160.93 265.91,-150.64 267.23,-141.69"/>
<polygon fill="midnightblue" stroke="midnightblue" points="270.7,-142.16 268.7,-131.75 263.78,-141.13 270.7,-142.16"/>
</g>
</g>
</svg>
