<?xml version="1.0" encoding="UTF-8" standalone="no"?>
<!DOCTYPE svg PUBLIC "-//W3C//DTD SVG 1.1//EN"
 "http://www.w3.org/Graphics/SVG/1.1/DTD/svg11.dtd">
<!-- Generated by graphviz version 2.43.0 (0)
 -->
<!-- Title: weatheralertmessage_p.h Pages: 1 -->
<svg width="174pt" height="308pt"
 viewBox="0.00 0.00 174.00 308.00" xmlns="http://www.w3.org/2000/svg" xmlns:xlink="http://www.w3.org/1999/xlink">
<g id="graph0" class="graph" transform="scale(1 1) rotate(0) translate(4 304)">
<title>weatheralertmessage_p.h</title>
<!-- Node1 -->
<g id="node1" class="node">
<title>Node1</title>
<g id="a_node1"><a xlink:title=" ">
<polygon fill="#bfbfbf" stroke="black" points="0,-280.5 0,-299.5 143,-299.5 143,-280.5 0,-280.5"/>
<text text-anchor="middle" x="71.5" y="-287.5" font-family="Helvetica,sans-Serif" font-size="10.00">weatheralertmessage_p.h</text>
</a>
</g>
</g>
<!-- Node2 -->
<g id="node2" class="node">
<title>Node2</title>
<g id="a_node2"><a xlink:href="fitdatamessage__p_8h.html" target="_top" xlink:title=" ">
<polygon fill="none" stroke="black" points="15,-224.5 15,-243.5 128,-243.5 128,-224.5 15,-224.5"/>
<text text-anchor="middle" x="71.5" y="-231.5" font-family="Helvetica,sans-Serif" font-size="10.00">fitdatamessage_p.h</text>
</a>
</g>
</g>
<!-- Node1&#45;&gt;Node2 -->
<g id="edge1" class="edge">
<title>Node1&#45;&gt;Node2</title>
<path fill="none" stroke="midnightblue" d="M71.5,-280.08C71.5,-273.01 71.5,-262.86 71.5,-253.99"/>
<polygon fill="midnightblue" stroke="midnightblue" points="75,-253.75 71.5,-243.75 68,-253.75 75,-253.75"/>
</g>
<!-- Node3 -->
<g id="node3" class="node">
<title>Node3</title>
<g id="a_node3"><a xlink:href="QtFit__global_8h.html" target="_top" xlink:title=" ">
<polygon fill="none" stroke="black" points="10.5,-56.5 10.5,-75.5 94.5,-75.5 94.5,-56.5 10.5,-56.5"/>
<text text-anchor="middle" x="52.5" y="-63.5" font-family="Helvetica,sans-Serif" font-size="10.00">QtFit_global.h</text>
</a>
</g>
</g>
<!-- Node2&#45;&gt;Node3 -->
<g id="edge2" class="edge">
<title>Node2&#45;&gt;Node3</title>
<path fill="none" stroke="midnightblue" d="M67.65,-224.32C59.32,-204.61 40.72,-154.88 44.5,-112 45.28,-103.2 46.89,-93.54 48.47,-85.43"/>
<polygon fill="midnightblue" stroke="midnightblue" points="51.91,-86.07 50.51,-75.57 45.06,-84.65 51.91,-86.07"/>
</g>
<!-- Node5 -->
<g id="node5" class="node">
<title>Node5</title>
<g id="a_node5"><a xlink:href="types_8h.html" target="_top" xlink:title="Types defined by the ANT+ FIT SDK.">
<polygon fill="none" stroke="black" points="54,-112.5 54,-131.5 107,-131.5 107,-112.5 54,-112.5"/>
<text text-anchor="middle" x="80.5" y="-119.5" font-family="Helvetica,sans-Serif" font-size="10.00">types.h</text>
</a>
</g>
</g>
<!-- Node2&#45;&gt;Node5 -->
<g id="edge4" class="edge">
<title>Node2&#45;&gt;Node5</title>
<path fill="none" stroke="midnightblue" d="M72.21,-224.37C73.66,-206.62 77.01,-165.67 78.98,-141.6"/>
<polygon fill="midnightblue" stroke="midnightblue" points="82.47,-141.84 79.8,-131.59 75.49,-141.27 82.47,-141.84"/>
</g>
<!-- Node6 -->
<g id="node6" class="node">
<title>Node6</title>
<g id="a_node6"><a xlink:href="types__p_8h.html" target="_top" xlink:title=" ">
<polygon fill="none" stroke="black" points="99.5,-168.5 99.5,-187.5 163.5,-187.5 163.5,-168.5 99.5,-168.5"/>
<text text-anchor="middle" x="131.5" y="-175.5" font-family="Helvetica,sans-Serif" font-size="10.00">types_p.h</text>
</a>
</g>
</g>
<!-- Node2&#45;&gt;Node6 -->
<g id="edge6" class="edge">
<title>Node2&#45;&gt;Node6</title>
<path fill="none" stroke="midnightblue" d="M81.14,-224.32C90.01,-216.34 103.37,-204.31 114.11,-194.65"/>
<polygon fill="midnightblue" stroke="midnightblue" points="116.59,-197.13 121.68,-187.83 111.91,-191.92 116.59,-197.13"/>
</g>
<!-- Node4 -->
<g id="node4" class="node">
<title>Node4</title>
<g id="a_node4"><a xlink:title=" ">
<polygon fill="none" stroke="#bfbfbf" points="23,-0.5 23,-19.5 82,-19.5 82,-0.5 23,-0.5"/>
<text text-anchor="middle" x="52.5" y="-7.5" font-family="Helvetica,sans-Serif" font-size="10.00">QtGlobal</text>
</a>
</g>
</g>
<!-- Node3&#45;&gt;Node4 -->
<g id="edge3" class="edge">
<title>Node3&#45;&gt;Node4</title>
<path fill="none" stroke="midnightblue" d="M52.5,-56.08C52.5,-49.01 52.5,-38.86 52.5,-29.99"/>
<polygon fill="midnightblue" stroke="midnightblue" points="56,-29.75 52.5,-19.75 49,-29.75 56,-29.75"/>
</g>
<!-- Node5&#45;&gt;Node3 -->
<g id="edge5" class="edge">
<title>Node5&#45;&gt;Node3</title>
<path fill="none" stroke="midnightblue" d="M75.88,-112.08C72.04,-104.69 66.48,-93.95 61.74,-84.81"/>
<polygon fill="midnightblue" stroke="midnightblue" points="64.75,-83.02 57.04,-75.75 58.53,-86.24 64.75,-83.02"/>
</g>
<!-- Node6&#45;&gt;Node5 -->
<g id="edge7" class="edge">
<title>Node6&#45;&gt;Node5</title>
<path fill="none" stroke="midnightblue" d="M123.08,-168.08C115.65,-160.22 104.65,-148.57 95.69,-139.08"/>
<polygon fill="midnightblue" stroke="midnightblue" points="98.18,-136.62 88.76,-131.75 93.09,-141.42 98.18,-136.62"/>
</g>
<!-- Node7 -->
<g id="node7" class="node">
<title>Node7</title>
<g id="a_node7"><a xlink:title=" ">
<polygon fill="none" stroke="#bfbfbf" points="125,-112.5 125,-131.5 166,-131.5 166,-112.5 125,-112.5"/>
<text text-anchor="middle" x="145.5" y="-119.5" font-family="Helvetica,sans-Serif" font-size="10.00">QList</text>
</a>
</g>
</g>
<!-- Node6&#45;&gt;Node7 -->
<g id="edge8" class="edge">
<title>Node6&#45;&gt;Node7</title>
<path fill="none" stroke="midnightblue" d="M133.81,-168.08C135.67,-160.93 138.34,-150.64 140.65,-141.69"/>
<polygon fill="midnightblue" stroke="midnightblue" points="144.11,-142.31 143.23,-131.75 137.33,-140.55 144.11,-142.31"/>
</g>
</g>
</svg>
