<?xml version="1.0" encoding="UTF-8" standalone="no"?>
<!DOCTYPE svg PUBLIC "-//W3C//DTD SVG 1.1//EN"
 "http://www.w3.org/Graphics/SVG/1.1/DTD/svg11.dtd">
<!-- Generated by graphviz version 2.43.0 (0)
 -->
<!-- Title: weatherconditionsmessage.cpp Pages: 1 -->
<svg width="381pt" height="364pt"
 viewBox="0.00 0.00 381.00 364.00" xmlns="http://www.w3.org/2000/svg" xmlns:xlink="http://www.w3.org/1999/xlink">
<g id="graph0" class="graph" transform="scale(1 1) rotate(0) translate(4 360)">
<title>weatherconditionsmessage.cpp</title>
<!-- Node1 -->
<g id="node1" class="node">
<title>Node1</title>
<g id="a_node1"><a xlink:title=" ">
<polygon fill="#bfbfbf" stroke="black" points="152,-336.5 152,-355.5 323,-355.5 323,-336.5 152,-336.5"/>
<text text-anchor="middle" x="237.5" y="-343.5" font-family="Helvetica,sans-Serif" font-size="10.00">weatherconditionsmessage.cpp</text>
</a>
</g>
</g>
<!-- Node2 -->
<g id="node2" class="node">
<title>Node2</title>
<g id="a_node2"><a xlink:href="weatherconditionsmessage_8h.html" target="_top" xlink:title=" ">
<polygon fill="none" stroke="black" points="140.5,-224.5 140.5,-243.5 300.5,-243.5 300.5,-224.5 140.5,-224.5"/>
<text text-anchor="middle" x="220.5" y="-231.5" font-family="Helvetica,sans-Serif" font-size="10.00">weatherconditionsmessage.h</text>
</a>
</g>
</g>
<!-- Node1&#45;&gt;Node2 -->
<g id="edge1" class="edge">
<title>Node1&#45;&gt;Node2</title>
<path fill="none" stroke="midnightblue" d="M235.58,-336.41C233.61,-327.38 230.56,-312.74 228.5,-300 226.01,-284.55 223.88,-266.92 222.45,-253.92"/>
<polygon fill="midnightblue" stroke="midnightblue" points="225.92,-253.43 221.38,-243.86 218.96,-254.18 225.92,-253.43"/>
</g>
<!-- Node7 -->
<g id="node7" class="node">
<title>Node7</title>
<g id="a_node7"><a xlink:href="weatherconditionsmessage__p_8h.html" target="_top" xlink:title=" ">
<polygon fill="none" stroke="black" points="0,-280.5 0,-299.5 171,-299.5 171,-280.5 0,-280.5"/>
<text text-anchor="middle" x="85.5" y="-287.5" font-family="Helvetica,sans-Serif" font-size="10.00">weatherconditionsmessage_p.h</text>
</a>
</g>
</g>
<!-- Node1&#45;&gt;Node7 -->
<g id="edge7" class="edge">
<title>Node1&#45;&gt;Node7</title>
<path fill="none" stroke="midnightblue" d="M213.42,-336.44C187.96,-327.4 147.61,-313.06 119.04,-302.92"/>
<polygon fill="midnightblue" stroke="midnightblue" points="120.07,-299.57 109.47,-299.52 117.72,-306.16 120.07,-299.57"/>
</g>
<!-- Node11 -->
<g id="node11" class="node">
<title>Node11</title>
<g id="a_node11"><a xlink:title=" ">
<polygon fill="none" stroke="#bfbfbf" points="237.5,-280.5 237.5,-299.5 293.5,-299.5 293.5,-280.5 237.5,-280.5"/>
<text text-anchor="middle" x="265.5" y="-287.5" font-family="Helvetica,sans-Serif" font-size="10.00">QDebug</text>
</a>
</g>
</g>
<!-- Node1&#45;&gt;Node11 -->
<g id="edge14" class="edge">
<title>Node1&#45;&gt;Node11</title>
<path fill="none" stroke="midnightblue" d="M242.12,-336.08C245.96,-328.69 251.52,-317.95 256.26,-308.81"/>
<polygon fill="midnightblue" stroke="midnightblue" points="259.47,-310.24 260.96,-299.75 253.25,-307.02 259.47,-310.24"/>
</g>
<!-- Node12 -->
<g id="node12" class="node">
<title>Node12</title>
<g id="a_node12"><a xlink:title=" ">
<polygon fill="none" stroke="#bfbfbf" points="312,-280.5 312,-299.5 373,-299.5 373,-280.5 312,-280.5"/>
<text text-anchor="middle" x="342.5" y="-287.5" font-family="Helvetica,sans-Serif" font-size="10.00">QtEndian</text>
</a>
</g>
</g>
<!-- Node1&#45;&gt;Node12 -->
<g id="edge15" class="edge">
<title>Node1&#45;&gt;Node12</title>
<path fill="none" stroke="midnightblue" d="M254.37,-336.32C271.21,-327.66 297.31,-314.24 316.74,-304.25"/>
<polygon fill="midnightblue" stroke="midnightblue" points="318.38,-307.34 325.67,-299.65 315.18,-301.12 318.38,-307.34"/>
</g>
<!-- Node3 -->
<g id="node3" class="node">
<title>Node3</title>
<g id="a_node3"><a xlink:href="fitdatamessage_8h.html" target="_top" xlink:title=" ">
<polygon fill="none" stroke="black" points="162,-168.5 162,-187.5 263,-187.5 263,-168.5 162,-168.5"/>
<text text-anchor="middle" x="212.5" y="-175.5" font-family="Helvetica,sans-Serif" font-size="10.00">fitdatamessage.h</text>
</a>
</g>
</g>
<!-- Node2&#45;&gt;Node3 -->
<g id="edge2" class="edge">
<title>Node2&#45;&gt;Node3</title>
<path fill="none" stroke="midnightblue" d="M219.18,-224.08C218.12,-216.93 216.59,-206.64 215.27,-197.69"/>
<polygon fill="midnightblue" stroke="midnightblue" points="218.72,-197.13 213.8,-187.75 211.8,-198.16 218.72,-197.13"/>
</g>
<!-- Node4 -->
<g id="node4" class="node">
<title>Node4</title>
<g id="a_node4"><a xlink:href="QtFit__global_8h.html" target="_top" xlink:title=" ">
<polygon fill="none" stroke="black" points="93.5,-56.5 93.5,-75.5 177.5,-75.5 177.5,-56.5 93.5,-56.5"/>
<text text-anchor="middle" x="135.5" y="-63.5" font-family="Helvetica,sans-Serif" font-size="10.00">QtFit_global.h</text>
</a>
</g>
</g>
<!-- Node3&#45;&gt;Node4 -->
<g id="edge3" class="edge">
<title>Node3&#45;&gt;Node4</title>
<path fill="none" stroke="midnightblue" d="M207.49,-168.39C200.04,-155.75 185.43,-131.56 171.5,-112 164.61,-102.32 156.36,-91.94 149.51,-83.59"/>
<polygon fill="midnightblue" stroke="midnightblue" points="152.06,-81.19 142.97,-75.74 146.68,-85.66 152.06,-81.19"/>
</g>
<!-- Node6 -->
<g id="node6" class="node">
<title>Node6</title>
<g id="a_node6"><a xlink:href="types_8h.html" target="_top" xlink:title="Types defined by the ANT+ FIT SDK.">
<polygon fill="none" stroke="black" points="109,-112.5 109,-131.5 162,-131.5 162,-112.5 109,-112.5"/>
<text text-anchor="middle" x="135.5" y="-119.5" font-family="Helvetica,sans-Serif" font-size="10.00">types.h</text>
</a>
</g>
</g>
<!-- Node3&#45;&gt;Node6 -->
<g id="edge5" class="edge">
<title>Node3&#45;&gt;Node6</title>
<path fill="none" stroke="midnightblue" d="M200.13,-168.32C188.34,-160.06 170.37,-147.45 156.36,-137.63"/>
<polygon fill="midnightblue" stroke="midnightblue" points="158.04,-134.53 147.84,-131.65 154.02,-140.26 158.04,-134.53"/>
</g>
<!-- Node5 -->
<g id="node5" class="node">
<title>Node5</title>
<g id="a_node5"><a xlink:title=" ">
<polygon fill="none" stroke="#bfbfbf" points="106,-0.5 106,-19.5 165,-19.5 165,-0.5 106,-0.5"/>
<text text-anchor="middle" x="135.5" y="-7.5" font-family="Helvetica,sans-Serif" font-size="10.00">QtGlobal</text>
</a>
</g>
</g>
<!-- Node4&#45;&gt;Node5 -->
<g id="edge4" class="edge">
<title>Node4&#45;&gt;Node5</title>
<path fill="none" stroke="midnightblue" d="M135.5,-56.08C135.5,-49.01 135.5,-38.86 135.5,-29.99"/>
<polygon fill="midnightblue" stroke="midnightblue" points="139,-29.75 135.5,-19.75 132,-29.75 139,-29.75"/>
</g>
<!-- Node6&#45;&gt;Node4 -->
<g id="edge6" class="edge">
<title>Node6&#45;&gt;Node4</title>
<path fill="none" stroke="midnightblue" d="M135.5,-112.08C135.5,-105.01 135.5,-94.86 135.5,-85.99"/>
<polygon fill="midnightblue" stroke="midnightblue" points="139,-85.75 135.5,-75.75 132,-85.75 139,-85.75"/>
</g>
<!-- Node8 -->
<g id="node8" class="node">
<title>Node8</title>
<g id="a_node8"><a xlink:href="fitdatamessage__p_8h.html" target="_top" xlink:title=" ">
<polygon fill="none" stroke="black" points="9,-224.5 9,-243.5 122,-243.5 122,-224.5 9,-224.5"/>
<text text-anchor="middle" x="65.5" y="-231.5" font-family="Helvetica,sans-Serif" font-size="10.00">fitdatamessage_p.h</text>
</a>
</g>
</g>
<!-- Node7&#45;&gt;Node8 -->
<g id="edge8" class="edge">
<title>Node7&#45;&gt;Node8</title>
<path fill="none" stroke="midnightblue" d="M82.2,-280.08C79.52,-272.85 75.65,-262.41 72.31,-253.4"/>
<polygon fill="midnightblue" stroke="midnightblue" points="75.5,-251.91 68.74,-243.75 68.93,-254.34 75.5,-251.91"/>
</g>
<!-- Node8&#45;&gt;Node4 -->
<g id="edge9" class="edge">
<title>Node8&#45;&gt;Node4</title>
<path fill="none" stroke="midnightblue" d="M56.48,-224.34C48.43,-215.93 37.2,-202.36 32.5,-188 26.15,-168.6 34.46,-120.2 40.5,-112 52.1,-96.26 70.64,-85.81 88.27,-78.98"/>
<polygon fill="midnightblue" stroke="midnightblue" points="89.67,-82.2 97.92,-75.55 87.32,-75.6 89.67,-82.2"/>
</g>
<!-- Node8&#45;&gt;Node6 -->
<g id="edge10" class="edge">
<title>Node8&#45;&gt;Node6</title>
<path fill="none" stroke="midnightblue" d="M78.06,-224.39C89.12,-216.22 104.9,-202.97 114.5,-188 123.6,-173.81 129.07,-155.33 132.14,-141.7"/>
<polygon fill="midnightblue" stroke="midnightblue" points="135.63,-142.09 134.17,-131.6 128.77,-140.71 135.63,-142.09"/>
</g>
<!-- Node9 -->
<g id="node9" class="node">
<title>Node9</title>
<g id="a_node9"><a xlink:href="types__p_8h.html" target="_top" xlink:title=" ">
<polygon fill="none" stroke="black" points="41.5,-168.5 41.5,-187.5 105.5,-187.5 105.5,-168.5 41.5,-168.5"/>
<text text-anchor="middle" x="73.5" y="-175.5" font-family="Helvetica,sans-Serif" font-size="10.00">types_p.h</text>
</a>
</g>
</g>
<!-- Node8&#45;&gt;Node9 -->
<g id="edge11" class="edge">
<title>Node8&#45;&gt;Node9</title>
<path fill="none" stroke="midnightblue" d="M66.82,-224.08C67.88,-216.93 69.41,-206.64 70.73,-197.69"/>
<polygon fill="midnightblue" stroke="midnightblue" points="74.2,-198.16 72.2,-187.75 67.28,-197.13 74.2,-198.16"/>
</g>
<!-- Node9&#45;&gt;Node6 -->
<g id="edge12" class="edge">
<title>Node9&#45;&gt;Node6</title>
<path fill="none" stroke="midnightblue" d="M83.46,-168.32C92.63,-160.34 106.44,-148.31 117.53,-138.65"/>
<polygon fill="midnightblue" stroke="midnightblue" points="120.12,-141.04 125.36,-131.83 115.52,-135.76 120.12,-141.04"/>
</g>
<!-- Node10 -->
<g id="node10" class="node">
<title>Node10</title>
<g id="a_node10"><a xlink:title=" ">
<polygon fill="none" stroke="#bfbfbf" points="50,-112.5 50,-131.5 91,-131.5 91,-112.5 50,-112.5"/>
<text text-anchor="middle" x="70.5" y="-119.5" font-family="Helvetica,sans-Serif" font-size="10.00">QList</text>
</a>
</g>
</g>
<!-- Node9&#45;&gt;Node10 -->
<g id="edge13" class="edge">
<title>Node9&#45;&gt;Node10</title>
<path fill="none" stroke="midnightblue" d="M73,-168.08C72.61,-161.01 72.05,-150.86 71.55,-141.99"/>
<polygon fill="midnightblue" stroke="midnightblue" points="75.04,-141.54 70.99,-131.75 68.05,-141.93 75.04,-141.54"/>
</g>
</g>
</svg>
