<?xml version="1.0" encoding="UTF-8" standalone="no"?>
<!DOCTYPE svg PUBLIC "-//W3C//DTD SVG 1.1//EN"
 "http://www.w3.org/Graphics/SVG/1.1/DTD/svg11.dtd">
<!-- Generated by graphviz version 2.43.0 (0)
 -->
<!-- Title: weatherconditionsmessage_p.h Pages: 1 -->
<svg width="188pt" height="308pt"
 viewBox="0.00 0.00 188.00 308.00" xmlns="http://www.w3.org/2000/svg" xmlns:xlink="http://www.w3.org/1999/xlink">
<g id="graph0" class="graph" transform="scale(1 1) rotate(0) translate(4 304)">
<title>weatherconditionsmessage_p.h</title>
<!-- Node1 -->
<g id="node1" class="node">
<title>Node1</title>
<g id="a_node1"><a xlink:title=" ">
<polygon fill="#bfbfbf" stroke="black" points="0,-280.5 0,-299.5 171,-299.5 171,-280.5 0,-280.5"/>
<text text-anchor="middle" x="85.5" y="-287.5" font-family="Helvetica,sans-Serif" font-size="10.00">weatherconditionsmessage_p.h</text>
</a>
</g>
</g>
<!-- Node2 -->
<g id="node2" class="node">
<title>Node2</title>
<g id="a_node2"><a xlink:href="fitdatamessage__p_8h.html" target="_top" xlink:title=" ">
<polygon fill="none" stroke="black" points="29,-224.5 29,-243.5 142,-243.5 142,-224.5 29,-224.5"/>
<text text-anchor="middle" x="85.5" y="-231.5" font-family="Helvetica,sans-Serif" font-size="10.00">fitdatamessage_p.h</text>
</a>
</g>
</g>
<!-- Node1&#45;&gt;Node2 -->
<g id="edge1" class="edge">
<title>Node1&#45;&gt;Node2</title>
<path fill="none" stroke="midnightblue" d="M85.5,-280.08C85.5,-273.01 85.5,-262.86 85.5,-253.99"/>
<polygon fill="midnightblue" stroke="midnightblue" points="89,-253.75 85.5,-243.75 82,-253.75 89,-253.75"/>
</g>
<!-- Node3 -->
<g id="node3" class="node">
<title>Node3</title>
<g id="a_node3"><a xlink:href="QtFit__global_8h.html" target="_top" xlink:title=" ">
<polygon fill="none" stroke="black" points="24.5,-56.5 24.5,-75.5 108.5,-75.5 108.5,-56.5 24.5,-56.5"/>
<text text-anchor="middle" x="66.5" y="-63.5" font-family="Helvetica,sans-Serif" font-size="10.00">QtFit_global.h</text>
</a>
</g>
</g>
<!-- Node2&#45;&gt;Node3 -->
<g id="edge2" class="edge">
<title>Node2&#45;&gt;Node3</title>
<path fill="none" stroke="midnightblue" d="M81.65,-224.32C73.32,-204.61 54.72,-154.88 58.5,-112 59.28,-103.2 60.89,-93.54 62.47,-85.43"/>
<polygon fill="midnightblue" stroke="midnightblue" points="65.91,-86.07 64.51,-75.57 59.06,-84.65 65.91,-86.07"/>
</g>
<!-- Node5 -->
<g id="node5" class="node">
<title>Node5</title>
<g id="a_node5"><a xlink:href="types_8h.html" target="_top" xlink:title="Types defined by the ANT+ FIT SDK.">
<polygon fill="none" stroke="black" points="68,-112.5 68,-131.5 121,-131.5 121,-112.5 68,-112.5"/>
<text text-anchor="middle" x="94.5" y="-119.5" font-family="Helvetica,sans-Serif" font-size="10.00">types.h</text>
</a>
</g>
</g>
<!-- Node2&#45;&gt;Node5 -->
<g id="edge4" class="edge">
<title>Node2&#45;&gt;Node5</title>
<path fill="none" stroke="midnightblue" d="M86.21,-224.37C87.66,-206.62 91.01,-165.67 92.98,-141.6"/>
<polygon fill="midnightblue" stroke="midnightblue" points="96.47,-141.84 93.8,-131.59 89.49,-141.27 96.47,-141.84"/>
</g>
<!-- Node6 -->
<g id="node6" class="node">
<title>Node6</title>
<g id="a_node6"><a xlink:href="types__p_8h.html" target="_top" xlink:title=" ">
<polygon fill="none" stroke="black" points="113.5,-168.5 113.5,-187.5 177.5,-187.5 177.5,-168.5 113.5,-168.5"/>
<text text-anchor="middle" x="145.5" y="-175.5" font-family="Helvetica,sans-Serif" font-size="10.00">types_p.h</text>
</a>
</g>
</g>
<!-- Node2&#45;&gt;Node6 -->
<g id="edge6" class="edge">
<title>Node2&#45;&gt;Node6</title>
<path fill="none" stroke="midnightblue" d="M95.14,-224.32C104.01,-216.34 117.37,-204.31 128.11,-194.65"/>
<polygon fill="midnightblue" stroke="midnightblue" points="130.59,-197.13 135.68,-187.83 125.91,-191.92 130.59,-197.13"/>
</g>
<!-- Node4 -->
<g id="node4" class="node">
<title>Node4</title>
<g id="a_node4"><a xlink:title=" ">
<polygon fill="none" stroke="#bfbfbf" points="37,-0.5 37,-19.5 96,-19.5 96,-0.5 37,-0.5"/>
<text text-anchor="middle" x="66.5" y="-7.5" font-family="Helvetica,sans-Serif" font-size="10.00">QtGlobal</text>
</a>
</g>
</g>
<!-- Node3&#45;&gt;Node4 -->
<g id="edge3" class="edge">
<title>Node3&#45;&gt;Node4</title>
<path fill="none" stroke="midnightblue" d="M66.5,-56.08C66.5,-49.01 66.5,-38.86 66.5,-29.99"/>
<polygon fill="midnightblue" stroke="midnightblue" points="70,-29.75 66.5,-19.75 63,-29.75 70,-29.75"/>
</g>
<!-- Node5&#45;&gt;Node3 -->
<g id="edge5" class="edge">
<title>Node5&#45;&gt;Node3</title>
<path fill="none" stroke="midnightblue" d="M89.88,-112.08C86.04,-104.69 80.48,-93.95 75.74,-84.81"/>
<polygon fill="midnightblue" stroke="midnightblue" points="78.75,-83.02 71.04,-75.75 72.53,-86.24 78.75,-83.02"/>
</g>
<!-- Node6&#45;&gt;Node5 -->
<g id="edge7" class="edge">
<title>Node6&#45;&gt;Node5</title>
<path fill="none" stroke="midnightblue" d="M137.08,-168.08C129.65,-160.22 118.65,-148.57 109.69,-139.08"/>
<polygon fill="midnightblue" stroke="midnightblue" points="112.18,-136.62 102.76,-131.75 107.09,-141.42 112.18,-136.62"/>
</g>
<!-- Node7 -->
<g id="node7" class="node">
<title>Node7</title>
<g id="a_node7"><a xlink:title=" ">
<polygon fill="none" stroke="#bfbfbf" points="139,-112.5 139,-131.5 180,-131.5 180,-112.5 139,-112.5"/>
<text text-anchor="middle" x="159.5" y="-119.5" font-family="Helvetica,sans-Serif" font-size="10.00">QList</text>
</a>
</g>
</g>
<!-- Node6&#45;&gt;Node7 -->
<g id="edge8" class="edge">
<title>Node6&#45;&gt;Node7</title>
<path fill="none" stroke="midnightblue" d="M147.81,-168.08C149.67,-160.93 152.34,-150.64 154.65,-141.69"/>
<polygon fill="midnightblue" stroke="midnightblue" points="158.11,-142.31 157.23,-131.75 151.33,-140.55 158.11,-142.31"/>
</g>
</g>
</svg>
