<?xml version="1.0" encoding="UTF-8" standalone="no"?>
<!DOCTYPE svg PUBLIC "-//W3C//DTD SVG 1.1//EN"
 "http://www.w3.org/Graphics/SVG/1.1/DTD/svg11.dtd">
<!-- Generated by graphviz version 2.43.0 (0)
 -->
<!-- Title: weatherconditionsmessage.cpp Pages: 1 -->
<svg width="476pt" height="364pt"
 viewBox="0.00 0.00 475.50 364.00" xmlns="http://www.w3.org/2000/svg" xmlns:xlink="http://www.w3.org/1999/xlink">
<g id="graph0" class="graph" transform="scale(1 1) rotate(0) translate(4 360)">
<title>weatherconditionsmessage.cpp</title>
<!-- Node1 -->
<g id="node1" class="node">
<title>Node1</title>
<g id="a_node1"><a xlink:title=" ">
<polygon fill="#bfbfbf" stroke="black" points="235.5,-336.5 235.5,-355.5 406.5,-355.5 406.5,-336.5 235.5,-336.5"/>
<text text-anchor="middle" x="321" y="-343.5" font-family="Helvetica,sans-Serif" font-size="10.00">weatherconditionsmessage.cpp</text>
</a>
</g>
</g>
<!-- Node2 -->
<g id="node2" class="node">
<title>Node2</title>
<g id="a_node2"><a xlink:href="weatherconditionsmessage_8h.html" target="_top" xlink:title=" ">
<polygon fill="none" stroke="black" points="0,-280.5 0,-299.5 160,-299.5 160,-280.5 0,-280.5"/>
<text text-anchor="middle" x="80" y="-287.5" font-family="Helvetica,sans-Serif" font-size="10.00">weatherconditionsmessage.h</text>
</a>
</g>
</g>
<!-- Node1&#45;&gt;Node2 -->
<g id="edge1" class="edge">
<title>Node1&#45;&gt;Node2</title>
<path fill="none" stroke="midnightblue" d="M282.81,-336.44C240.86,-327.04 173.41,-311.93 127.93,-301.74"/>
<polygon fill="midnightblue" stroke="midnightblue" points="128.53,-298.29 118.01,-299.52 127,-305.12 128.53,-298.29"/>
</g>
<!-- Node7 -->
<g id="node7" class="node">
<title>Node7</title>
<g id="a_node7"><a xlink:title=" ">
<polygon fill="none" stroke="#bfbfbf" points="309,-56.5 309,-75.5 365,-75.5 365,-56.5 309,-56.5"/>
<text text-anchor="middle" x="337" y="-63.5" font-family="Helvetica,sans-Serif" font-size="10.00">QDebug</text>
</a>
</g>
</g>
<!-- Node1&#45;&gt;Node7 -->
<g id="edge15" class="edge">
<title>Node1&#45;&gt;Node7</title>
<path fill="none" stroke="midnightblue" d="M330.41,-336.2C338.99,-327.69 351.45,-314.05 359,-300 373.24,-273.48 378,-265.1 378,-235 378,-235 378,-235 378,-177 378,-142.52 360.09,-105.56 347.94,-84.47"/>
<polygon fill="midnightblue" stroke="midnightblue" points="350.84,-82.49 342.7,-75.71 344.84,-86.09 350.84,-82.49"/>
</g>
<!-- Node8 -->
<g id="node8" class="node">
<title>Node8</title>
<g id="a_node8"><a xlink:href="weatherconditionsmessage__p_8h.html" target="_top" xlink:title=" ">
<polygon fill="none" stroke="black" points="178.5,-280.5 178.5,-299.5 349.5,-299.5 349.5,-280.5 178.5,-280.5"/>
<text text-anchor="middle" x="264" y="-287.5" font-family="Helvetica,sans-Serif" font-size="10.00">weatherconditionsmessage_p.h</text>
</a>
</g>
</g>
<!-- Node1&#45;&gt;Node8 -->
<g id="edge8" class="edge">
<title>Node1&#45;&gt;Node8</title>
<path fill="none" stroke="midnightblue" d="M311.84,-336.32C303.5,-328.42 290.97,-316.55 280.82,-306.94"/>
<polygon fill="midnightblue" stroke="midnightblue" points="282.99,-304.17 273.32,-299.83 278.18,-309.25 282.99,-304.17"/>
</g>
<!-- Node12 -->
<g id="node12" class="node">
<title>Node12</title>
<g id="a_node12"><a xlink:title=" ">
<polygon fill="none" stroke="#bfbfbf" points="406.5,-280.5 406.5,-299.5 467.5,-299.5 467.5,-280.5 406.5,-280.5"/>
<text text-anchor="middle" x="437" y="-287.5" font-family="Helvetica,sans-Serif" font-size="10.00">QtEndian</text>
</a>
</g>
</g>
<!-- Node1&#45;&gt;Node12 -->
<g id="edge16" class="edge">
<title>Node1&#45;&gt;Node12</title>
<path fill="none" stroke="midnightblue" d="M339.38,-336.44C358.22,-327.68 387.73,-313.94 409.38,-303.86"/>
<polygon fill="midnightblue" stroke="midnightblue" points="411.12,-306.91 418.71,-299.52 408.16,-300.56 411.12,-306.91"/>
</g>
<!-- Node3 -->
<g id="node3" class="node">
<title>Node3</title>
<g id="a_node3"><a xlink:href="fitdatamessage_8h.html" target="_top" xlink:title=" ">
<polygon fill="none" stroke="black" points="76.5,-168.5 76.5,-187.5 177.5,-187.5 177.5,-168.5 76.5,-168.5"/>
<text text-anchor="middle" x="127" y="-175.5" font-family="Helvetica,sans-Serif" font-size="10.00">fitdatamessage.h</text>
</a>
</g>
</g>
<!-- Node2&#45;&gt;Node3 -->
<g id="edge2" class="edge">
<title>Node2&#45;&gt;Node3</title>
<path fill="none" stroke="midnightblue" d="M83.69,-280.37C91.34,-262.46 109.09,-220.92 119.33,-196.95"/>
<polygon fill="midnightblue" stroke="midnightblue" points="122.62,-198.16 123.33,-187.59 116.18,-195.41 122.62,-198.16"/>
</g>
<!-- Node4 -->
<g id="node4" class="node">
<title>Node4</title>
<g id="a_node4"><a xlink:href="QtFit__global_8h.html" target="_top" xlink:title=" ">
<polygon fill="none" stroke="black" points="164,-56.5 164,-75.5 248,-75.5 248,-56.5 164,-56.5"/>
<text text-anchor="middle" x="206" y="-63.5" font-family="Helvetica,sans-Serif" font-size="10.00">QtFit_global.h</text>
</a>
</g>
</g>
<!-- Node3&#45;&gt;Node4 -->
<g id="edge3" class="edge">
<title>Node3&#45;&gt;Node4</title>
<path fill="none" stroke="midnightblue" d="M133.2,-168.37C146.24,-150.22 176.7,-107.8 193.8,-83.99"/>
<polygon fill="midnightblue" stroke="midnightblue" points="196.84,-85.76 199.83,-75.59 191.15,-81.67 196.84,-85.76"/>
</g>
<!-- Node6 -->
<g id="node6" class="node">
<title>Node6</title>
<g id="a_node6"><a xlink:href="types_8h.html" target="_top" xlink:title="Types defined by the ANT+ FIT SDK.">
<polygon fill="none" stroke="black" points="234.5,-112.5 234.5,-131.5 287.5,-131.5 287.5,-112.5 234.5,-112.5"/>
<text text-anchor="middle" x="261" y="-119.5" font-family="Helvetica,sans-Serif" font-size="10.00">types.h</text>
</a>
</g>
</g>
<!-- Node3&#45;&gt;Node6 -->
<g id="edge5" class="edge">
<title>Node3&#45;&gt;Node6</title>
<path fill="none" stroke="midnightblue" d="M148.23,-168.44C170.38,-159.52 205.32,-145.44 230.44,-135.32"/>
<polygon fill="midnightblue" stroke="midnightblue" points="231.9,-138.5 239.87,-131.52 229.28,-132.01 231.9,-138.5"/>
</g>
<!-- Node5 -->
<g id="node5" class="node">
<title>Node5</title>
<g id="a_node5"><a xlink:title=" ">
<polygon fill="none" stroke="#bfbfbf" points="176.5,-0.5 176.5,-19.5 235.5,-19.5 235.5,-0.5 176.5,-0.5"/>
<text text-anchor="middle" x="206" y="-7.5" font-family="Helvetica,sans-Serif" font-size="10.00">QtGlobal</text>
</a>
</g>
</g>
<!-- Node4&#45;&gt;Node5 -->
<g id="edge4" class="edge">
<title>Node4&#45;&gt;Node5</title>
<path fill="none" stroke="midnightblue" d="M206,-56.08C206,-49.01 206,-38.86 206,-29.99"/>
<polygon fill="midnightblue" stroke="midnightblue" points="209.5,-29.75 206,-19.75 202.5,-29.75 209.5,-29.75"/>
</g>
<!-- Node6&#45;&gt;Node4 -->
<g id="edge6" class="edge">
<title>Node6&#45;&gt;Node4</title>
<path fill="none" stroke="midnightblue" d="M251.92,-112.08C243.83,-104.14 231.8,-92.34 222.09,-82.8"/>
<polygon fill="midnightblue" stroke="midnightblue" points="224.5,-80.26 214.91,-75.75 219.6,-85.25 224.5,-80.26"/>
</g>
<!-- Node6&#45;&gt;Node7 -->
<g id="edge7" class="edge">
<title>Node6&#45;&gt;Node7</title>
<path fill="none" stroke="midnightblue" d="M273.21,-112.32C284.78,-104.11 302.38,-91.6 316.16,-81.81"/>
<polygon fill="midnightblue" stroke="midnightblue" points="318.44,-84.48 324.57,-75.83 314.39,-78.77 318.44,-84.48"/>
</g>
<!-- Node9 -->
<g id="node9" class="node">
<title>Node9</title>
<g id="a_node9"><a xlink:href="fitdatamessage__p_8h.html" target="_top" xlink:title=" ">
<polygon fill="none" stroke="black" points="204.5,-224.5 204.5,-243.5 317.5,-243.5 317.5,-224.5 204.5,-224.5"/>
<text text-anchor="middle" x="261" y="-231.5" font-family="Helvetica,sans-Serif" font-size="10.00">fitdatamessage_p.h</text>
</a>
</g>
</g>
<!-- Node8&#45;&gt;Node9 -->
<g id="edge9" class="edge">
<title>Node8&#45;&gt;Node9</title>
<path fill="none" stroke="midnightblue" d="M263.5,-280.08C263.11,-273.01 262.55,-262.86 262.05,-253.99"/>
<polygon fill="midnightblue" stroke="midnightblue" points="265.54,-253.54 261.49,-243.75 258.55,-253.93 265.54,-253.54"/>
</g>
<!-- Node9&#45;&gt;Node4 -->
<g id="edge10" class="edge">
<title>Node9&#45;&gt;Node4</title>
<path fill="none" stroke="midnightblue" d="M257.75,-224.41C251.22,-207.06 236.19,-166.53 225,-132 219.96,-116.45 214.79,-98.61 211.12,-85.56"/>
<polygon fill="midnightblue" stroke="midnightblue" points="214.48,-84.58 208.42,-75.88 207.73,-86.45 214.48,-84.58"/>
</g>
<!-- Node9&#45;&gt;Node6 -->
<g id="edge11" class="edge">
<title>Node9&#45;&gt;Node6</title>
<path fill="none" stroke="midnightblue" d="M261,-224.37C261,-206.62 261,-165.67 261,-141.6"/>
<polygon fill="midnightblue" stroke="midnightblue" points="264.5,-141.59 261,-131.59 257.5,-141.59 264.5,-141.59"/>
</g>
<!-- Node10 -->
<g id="node10" class="node">
<title>Node10</title>
<g id="a_node10"><a xlink:href="types__p_8h.html" target="_top" xlink:title=" ">
<polygon fill="none" stroke="black" points="286,-168.5 286,-187.5 350,-187.5 350,-168.5 286,-168.5"/>
<text text-anchor="middle" x="318" y="-175.5" font-family="Helvetica,sans-Serif" font-size="10.00">types_p.h</text>
</a>
</g>
</g>
<!-- Node9&#45;&gt;Node10 -->
<g id="edge12" class="edge">
<title>Node9&#45;&gt;Node10</title>
<path fill="none" stroke="midnightblue" d="M270.16,-224.32C278.5,-216.42 291.03,-204.55 301.18,-194.94"/>
<polygon fill="midnightblue" stroke="midnightblue" points="303.82,-197.25 308.68,-187.83 299.01,-192.17 303.82,-197.25"/>
</g>
<!-- Node10&#45;&gt;Node6 -->
<g id="edge13" class="edge">
<title>Node10&#45;&gt;Node6</title>
<path fill="none" stroke="midnightblue" d="M308.84,-168.32C300.5,-160.42 287.97,-148.55 277.82,-138.94"/>
<polygon fill="midnightblue" stroke="midnightblue" points="279.99,-136.17 270.32,-131.83 275.18,-141.25 279.99,-136.17"/>
</g>
<!-- Node11 -->
<g id="node11" class="node">
<title>Node11</title>
<g id="a_node11"><a xlink:title=" ">
<polygon fill="none" stroke="#bfbfbf" points="305.5,-112.5 305.5,-131.5 346.5,-131.5 346.5,-112.5 305.5,-112.5"/>
<text text-anchor="middle" x="326" y="-119.5" font-family="Helvetica,sans-Serif" font-size="10.00">QList</text>
</a>
</g>
</g>
<!-- Node10&#45;&gt;Node11 -->
<g id="edge14" class="edge">
<title>Node10&#45;&gt;Node11</title>
<path fill="none" stroke="midnightblue" d="M319.32,-168.08C320.38,-160.93 321.91,-150.64 323.23,-141.69"/>
<polygon fill="midnightblue" stroke="midnightblue" points="326.7,-142.16 324.7,-131.75 319.78,-141.13 326.7,-142.16"/>
</g>
</g>
</svg>
