<?xml version="1.0" encoding="UTF-8" standalone="no"?>
<!DOCTYPE svg PUBLIC "-//W3C//DTD SVG 1.1//EN"
 "http://www.w3.org/Graphics/SVG/1.1/DTD/svg11.dtd">
<!-- Generated by graphviz version 2.43.0 (0)
 -->
<!-- Title: weightscalemessage_p.h Pages: 1 -->
<svg width="173pt" height="308pt"
 viewBox="0.00 0.00 172.50 308.00" xmlns="http://www.w3.org/2000/svg" xmlns:xlink="http://www.w3.org/1999/xlink">
<g id="graph0" class="graph" transform="scale(1 1) rotate(0) translate(4 304)">
<title>weightscalemessage_p.h</title>
<!-- Node1 -->
<g id="node1" class="node">
<title>Node1</title>
<g id="a_node1"><a xlink:title=" ">
<polygon fill="#bfbfbf" stroke="black" points="0,-280.5 0,-299.5 140,-299.5 140,-280.5 0,-280.5"/>
<text text-anchor="middle" x="70" y="-287.5" font-family="Helvetica,sans-Serif" font-size="10.00">weightscalemessage_p.h</text>
</a>
</g>
</g>
<!-- Node2 -->
<g id="node2" class="node">
<title>Node2</title>
<g id="a_node2"><a xlink:href="fitdatamessage__p_8h.html" target="_top" xlink:title=" ">
<polygon fill="none" stroke="black" points="13.5,-224.5 13.5,-243.5 126.5,-243.5 126.5,-224.5 13.5,-224.5"/>
<text text-anchor="middle" x="70" y="-231.5" font-family="Helvetica,sans-Serif" font-size="10.00">fitdatamessage_p.h</text>
</a>
</g>
</g>
<!-- Node1&#45;&gt;Node2 -->
<g id="edge1" class="edge">
<title>Node1&#45;&gt;Node2</title>
<path fill="none" stroke="midnightblue" d="M70,-280.08C70,-273.01 70,-262.86 70,-253.99"/>
<polygon fill="midnightblue" stroke="midnightblue" points="73.5,-253.75 70,-243.75 66.5,-253.75 73.5,-253.75"/>
</g>
<!-- Node3 -->
<g id="node3" class="node">
<title>Node3</title>
<g id="a_node3"><a xlink:href="QtFit__global_8h.html" target="_top" xlink:title=" ">
<polygon fill="none" stroke="black" points="9,-56.5 9,-75.5 93,-75.5 93,-56.5 9,-56.5"/>
<text text-anchor="middle" x="51" y="-63.5" font-family="Helvetica,sans-Serif" font-size="10.00">QtFit_global.h</text>
</a>
</g>
</g>
<!-- Node2&#45;&gt;Node3 -->
<g id="edge2" class="edge">
<title>Node2&#45;&gt;Node3</title>
<path fill="none" stroke="midnightblue" d="M66.15,-224.32C57.82,-204.61 39.22,-154.88 43,-112 43.78,-103.2 45.39,-93.54 46.97,-85.43"/>
<polygon fill="midnightblue" stroke="midnightblue" points="50.41,-86.07 49.01,-75.57 43.56,-84.65 50.41,-86.07"/>
</g>
<!-- Node5 -->
<g id="node5" class="node">
<title>Node5</title>
<g id="a_node5"><a xlink:href="types_8h.html" target="_top" xlink:title="Types defined by the ANT+ FIT SDK.">
<polygon fill="none" stroke="black" points="52.5,-112.5 52.5,-131.5 105.5,-131.5 105.5,-112.5 52.5,-112.5"/>
<text text-anchor="middle" x="79" y="-119.5" font-family="Helvetica,sans-Serif" font-size="10.00">types.h</text>
</a>
</g>
</g>
<!-- Node2&#45;&gt;Node5 -->
<g id="edge4" class="edge">
<title>Node2&#45;&gt;Node5</title>
<path fill="none" stroke="midnightblue" d="M70.71,-224.37C72.16,-206.62 75.51,-165.67 77.48,-141.6"/>
<polygon fill="midnightblue" stroke="midnightblue" points="80.97,-141.84 78.3,-131.59 73.99,-141.27 80.97,-141.84"/>
</g>
<!-- Node6 -->
<g id="node6" class="node">
<title>Node6</title>
<g id="a_node6"><a xlink:href="types__p_8h.html" target="_top" xlink:title=" ">
<polygon fill="none" stroke="black" points="98,-168.5 98,-187.5 162,-187.5 162,-168.5 98,-168.5"/>
<text text-anchor="middle" x="130" y="-175.5" font-family="Helvetica,sans-Serif" font-size="10.00">types_p.h</text>
</a>
</g>
</g>
<!-- Node2&#45;&gt;Node6 -->
<g id="edge6" class="edge">
<title>Node2&#45;&gt;Node6</title>
<path fill="none" stroke="midnightblue" d="M79.64,-224.32C88.51,-216.34 101.87,-204.31 112.61,-194.65"/>
<polygon fill="midnightblue" stroke="midnightblue" points="115.09,-197.13 120.18,-187.83 110.41,-191.92 115.09,-197.13"/>
</g>
<!-- Node4 -->
<g id="node4" class="node">
<title>Node4</title>
<g id="a_node4"><a xlink:title=" ">
<polygon fill="none" stroke="#bfbfbf" points="21.5,-0.5 21.5,-19.5 80.5,-19.5 80.5,-0.5 21.5,-0.5"/>
<text text-anchor="middle" x="51" y="-7.5" font-family="Helvetica,sans-Serif" font-size="10.00">QtGlobal</text>
</a>
</g>
</g>
<!-- Node3&#45;&gt;Node4 -->
<g id="edge3" class="edge">
<title>Node3&#45;&gt;Node4</title>
<path fill="none" stroke="midnightblue" d="M51,-56.08C51,-49.01 51,-38.86 51,-29.99"/>
<polygon fill="midnightblue" stroke="midnightblue" points="54.5,-29.75 51,-19.75 47.5,-29.75 54.5,-29.75"/>
</g>
<!-- Node5&#45;&gt;Node3 -->
<g id="edge5" class="edge">
<title>Node5&#45;&gt;Node3</title>
<path fill="none" stroke="midnightblue" d="M74.38,-112.08C70.54,-104.69 64.98,-93.95 60.24,-84.81"/>
<polygon fill="midnightblue" stroke="midnightblue" points="63.25,-83.02 55.54,-75.75 57.03,-86.24 63.25,-83.02"/>
</g>
<!-- Node6&#45;&gt;Node5 -->
<g id="edge7" class="edge">
<title>Node6&#45;&gt;Node5</title>
<path fill="none" stroke="midnightblue" d="M121.58,-168.08C114.15,-160.22 103.15,-148.57 94.19,-139.08"/>
<polygon fill="midnightblue" stroke="midnightblue" points="96.68,-136.62 87.26,-131.75 91.59,-141.42 96.68,-136.62"/>
</g>
<!-- Node7 -->
<g id="node7" class="node">
<title>Node7</title>
<g id="a_node7"><a xlink:title=" ">
<polygon fill="none" stroke="#bfbfbf" points="123.5,-112.5 123.5,-131.5 164.5,-131.5 164.5,-112.5 123.5,-112.5"/>
<text text-anchor="middle" x="144" y="-119.5" font-family="Helvetica,sans-Serif" font-size="10.00">QList</text>
</a>
</g>
</g>
<!-- Node6&#45;&gt;Node7 -->
<g id="edge8" class="edge">
<title>Node6&#45;&gt;Node7</title>
<path fill="none" stroke="midnightblue" d="M132.31,-168.08C134.17,-160.93 136.84,-150.64 139.15,-141.69"/>
<polygon fill="midnightblue" stroke="midnightblue" points="142.61,-142.31 141.73,-131.75 135.83,-140.55 142.61,-142.31"/>
</g>
</g>
</svg>
