<?xml version="1.0" encoding="UTF-8" standalone="no"?>
<!DOCTYPE svg PUBLIC "-//W3C//DTD SVG 1.1//EN"
 "http://www.w3.org/Graphics/SVG/1.1/DTD/svg11.dtd">
<!-- Generated by graphviz version 2.43.0 (0)
 -->
<!-- Title: workoutsessionmessage.cpp Pages: 1 -->
<svg width="448pt" height="364pt"
 viewBox="0.00 0.00 447.50 364.00" xmlns="http://www.w3.org/2000/svg" xmlns:xlink="http://www.w3.org/1999/xlink">
<g id="graph0" class="graph" transform="scale(1 1) rotate(0) translate(4 360)">
<title>workoutsessionmessage.cpp</title>
<!-- Node1 -->
<g id="node1" class="node">
<title>Node1</title>
<g id="a_node1"><a xlink:title="Defines the WorkoutSessionMessage, and WorkoutSessionMessagePrivate classes.">
<polygon fill="#bfbfbf" stroke="black" points="217.5,-336.5 217.5,-355.5 374.5,-355.5 374.5,-336.5 217.5,-336.5"/>
<text text-anchor="middle" x="296" y="-343.5" font-family="Helvetica,sans-Serif" font-size="10.00">workoutsessionmessage.cpp</text>
</a>
</g>
</g>
<!-- Node2 -->
<g id="node2" class="node">
<title>Node2</title>
<g id="a_node2"><a xlink:href="workoutsessionmessage_8h.html" target="_top" xlink:title="Declares the WorkoutSessionMessage class.">
<polygon fill="none" stroke="black" points="0,-280.5 0,-299.5 146,-299.5 146,-280.5 0,-280.5"/>
<text text-anchor="middle" x="73" y="-287.5" font-family="Helvetica,sans-Serif" font-size="10.00">workoutsessionmessage.h</text>
</a>
</g>
</g>
<!-- Node1&#45;&gt;Node2 -->
<g id="edge1" class="edge">
<title>Node1&#45;&gt;Node2</title>
<path fill="none" stroke="midnightblue" d="M260.66,-336.44C222.09,-327.1 160.22,-312.12 118.15,-301.93"/>
<polygon fill="midnightblue" stroke="midnightblue" points="118.71,-298.47 108.17,-299.52 117.07,-305.27 118.71,-298.47"/>
</g>
<!-- Node7 -->
<g id="node7" class="node">
<title>Node7</title>
<g id="a_node7"><a xlink:title=" ">
<polygon fill="none" stroke="#bfbfbf" points="281,-56.5 281,-75.5 337,-75.5 337,-56.5 281,-56.5"/>
<text text-anchor="middle" x="309" y="-63.5" font-family="Helvetica,sans-Serif" font-size="10.00">QDebug</text>
</a>
</g>
</g>
<!-- Node1&#45;&gt;Node7 -->
<g id="edge15" class="edge">
<title>Node1&#45;&gt;Node7</title>
<path fill="none" stroke="midnightblue" d="M304.33,-336.39C312.22,-327.8 323.88,-313.92 331,-300 344.7,-273.2 350,-265.1 350,-235 350,-235 350,-235 350,-177 350,-142.52 332.09,-105.56 319.94,-84.47"/>
<polygon fill="midnightblue" stroke="midnightblue" points="322.84,-82.49 314.7,-75.71 316.84,-86.09 322.84,-82.49"/>
</g>
<!-- Node8 -->
<g id="node8" class="node">
<title>Node8</title>
<g id="a_node8"><a xlink:href="workoutsessionmessage__p_8h.html" target="_top" xlink:title="Declares the WorkoutSessionMessagePrivate class.">
<polygon fill="none" stroke="black" points="164.5,-280.5 164.5,-299.5 321.5,-299.5 321.5,-280.5 164.5,-280.5"/>
<text text-anchor="middle" x="243" y="-287.5" font-family="Helvetica,sans-Serif" font-size="10.00">workoutsessionmessage_p.h</text>
</a>
</g>
</g>
<!-- Node1&#45;&gt;Node8 -->
<g id="edge8" class="edge">
<title>Node1&#45;&gt;Node8</title>
<path fill="none" stroke="midnightblue" d="M287.25,-336.08C279.53,-328.22 268.1,-316.57 258.78,-307.08"/>
<polygon fill="midnightblue" stroke="midnightblue" points="261.09,-304.44 251.59,-299.75 256.1,-309.34 261.09,-304.44"/>
</g>
<!-- Node12 -->
<g id="node12" class="node">
<title>Node12</title>
<g id="a_node12"><a xlink:title=" ">
<polygon fill="none" stroke="#bfbfbf" points="378.5,-280.5 378.5,-299.5 439.5,-299.5 439.5,-280.5 378.5,-280.5"/>
<text text-anchor="middle" x="409" y="-287.5" font-family="Helvetica,sans-Serif" font-size="10.00">QtEndian</text>
</a>
</g>
</g>
<!-- Node1&#45;&gt;Node12 -->
<g id="edge16" class="edge">
<title>Node1&#45;&gt;Node12</title>
<path fill="none" stroke="midnightblue" d="M313.91,-336.44C332.25,-327.68 361.01,-313.94 382.09,-303.86"/>
<polygon fill="midnightblue" stroke="midnightblue" points="383.67,-306.99 391.18,-299.52 380.65,-300.67 383.67,-306.99"/>
</g>
<!-- Node3 -->
<g id="node3" class="node">
<title>Node3</title>
<g id="a_node3"><a xlink:href="abstractdatamessage_8h.html" target="_top" xlink:title="Declares the AbstractDataMessage class.">
<polygon fill="none" stroke="black" points="18.5,-168.5 18.5,-187.5 149.5,-187.5 149.5,-168.5 18.5,-168.5"/>
<text text-anchor="middle" x="84" y="-175.5" font-family="Helvetica,sans-Serif" font-size="10.00">abstractdatamessage.h</text>
</a>
</g>
</g>
<!-- Node2&#45;&gt;Node3 -->
<g id="edge2" class="edge">
<title>Node2&#45;&gt;Node3</title>
<path fill="none" stroke="midnightblue" d="M73.86,-280.37C75.64,-262.62 79.73,-221.67 82.14,-197.6"/>
<polygon fill="midnightblue" stroke="midnightblue" points="85.63,-197.89 83.14,-187.59 78.66,-197.19 85.63,-197.89"/>
</g>
<!-- Node4 -->
<g id="node4" class="node">
<title>Node4</title>
<g id="a_node4"><a xlink:href="QtFit__global_8h.html" target="_top" xlink:title="Global QtFit library macros.">
<polygon fill="none" stroke="black" points="136,-56.5 136,-75.5 220,-75.5 220,-56.5 136,-56.5"/>
<text text-anchor="middle" x="178" y="-63.5" font-family="Helvetica,sans-Serif" font-size="10.00">QtFit_global.h</text>
</a>
</g>
</g>
<!-- Node3&#45;&gt;Node4 -->
<g id="edge3" class="edge">
<title>Node3&#45;&gt;Node4</title>
<path fill="none" stroke="midnightblue" d="M91.38,-168.37C107.03,-150.05 143.78,-107.05 164.02,-83.36"/>
<polygon fill="midnightblue" stroke="midnightblue" points="166.82,-85.47 170.66,-75.59 161.5,-80.92 166.82,-85.47"/>
</g>
<!-- Node6 -->
<g id="node6" class="node">
<title>Node6</title>
<g id="a_node6"><a xlink:href="types_8h.html" target="_top" xlink:title="Types defined by the ANT+ FIT SDK.">
<polygon fill="none" stroke="black" points="206.5,-112.5 206.5,-131.5 259.5,-131.5 259.5,-112.5 206.5,-112.5"/>
<text text-anchor="middle" x="233" y="-119.5" font-family="Helvetica,sans-Serif" font-size="10.00">types.h</text>
</a>
</g>
</g>
<!-- Node3&#45;&gt;Node6 -->
<g id="edge5" class="edge">
<title>Node3&#45;&gt;Node6</title>
<path fill="none" stroke="midnightblue" d="M107.61,-168.44C132.46,-159.44 171.77,-145.19 199.75,-135.05"/>
<polygon fill="midnightblue" stroke="midnightblue" points="201.29,-138.21 209.5,-131.52 198.91,-131.63 201.29,-138.21"/>
</g>
<!-- Node5 -->
<g id="node5" class="node">
<title>Node5</title>
<g id="a_node5"><a xlink:title=" ">
<polygon fill="none" stroke="#bfbfbf" points="148.5,-0.5 148.5,-19.5 207.5,-19.5 207.5,-0.5 148.5,-0.5"/>
<text text-anchor="middle" x="178" y="-7.5" font-family="Helvetica,sans-Serif" font-size="10.00">QtGlobal</text>
</a>
</g>
</g>
<!-- Node4&#45;&gt;Node5 -->
<g id="edge4" class="edge">
<title>Node4&#45;&gt;Node5</title>
<path fill="none" stroke="midnightblue" d="M178,-56.08C178,-49.01 178,-38.86 178,-29.99"/>
<polygon fill="midnightblue" stroke="midnightblue" points="181.5,-29.75 178,-19.75 174.5,-29.75 181.5,-29.75"/>
</g>
<!-- Node6&#45;&gt;Node4 -->
<g id="edge6" class="edge">
<title>Node6&#45;&gt;Node4</title>
<path fill="none" stroke="midnightblue" d="M223.92,-112.08C215.83,-104.14 203.8,-92.34 194.09,-82.8"/>
<polygon fill="midnightblue" stroke="midnightblue" points="196.5,-80.26 186.91,-75.75 191.6,-85.25 196.5,-80.26"/>
</g>
<!-- Node6&#45;&gt;Node7 -->
<g id="edge7" class="edge">
<title>Node6&#45;&gt;Node7</title>
<path fill="none" stroke="midnightblue" d="M245.21,-112.32C256.78,-104.11 274.38,-91.6 288.16,-81.81"/>
<polygon fill="midnightblue" stroke="midnightblue" points="290.44,-84.48 296.57,-75.83 286.39,-78.77 290.44,-84.48"/>
</g>
<!-- Node9 -->
<g id="node9" class="node">
<title>Node9</title>
<g id="a_node9"><a xlink:href="abstractdatamessage__p_8h.html" target="_top" xlink:title="Declares the AbstractDataMessagePrivate class.">
<polygon fill="none" stroke="black" points="164.5,-224.5 164.5,-243.5 307.5,-243.5 307.5,-224.5 164.5,-224.5"/>
<text text-anchor="middle" x="236" y="-231.5" font-family="Helvetica,sans-Serif" font-size="10.00">abstractdatamessage_p.h</text>
</a>
</g>
</g>
<!-- Node8&#45;&gt;Node9 -->
<g id="edge9" class="edge">
<title>Node8&#45;&gt;Node9</title>
<path fill="none" stroke="midnightblue" d="M241.84,-280.08C240.92,-272.93 239.58,-262.64 238.42,-253.69"/>
<polygon fill="midnightblue" stroke="midnightblue" points="241.89,-253.22 237.13,-243.75 234.95,-254.12 241.89,-253.22"/>
</g>
<!-- Node9&#45;&gt;Node4 -->
<g id="edge10" class="edge">
<title>Node9&#45;&gt;Node4</title>
<path fill="none" stroke="midnightblue" d="M232.41,-224.44C225.23,-207.15 208.75,-166.72 197,-132 191.76,-116.51 186.6,-98.67 182.99,-85.6"/>
<polygon fill="midnightblue" stroke="midnightblue" points="186.35,-84.63 180.35,-75.91 179.6,-86.47 186.35,-84.63"/>
</g>
<!-- Node9&#45;&gt;Node6 -->
<g id="edge11" class="edge">
<title>Node9&#45;&gt;Node6</title>
<path fill="none" stroke="midnightblue" d="M235.76,-224.37C235.28,-206.62 234.16,-165.67 233.51,-141.6"/>
<polygon fill="midnightblue" stroke="midnightblue" points="237.01,-141.49 233.23,-131.59 230.01,-141.68 237.01,-141.49"/>
</g>
<!-- Node10 -->
<g id="node10" class="node">
<title>Node10</title>
<g id="a_node10"><a xlink:href="types__p_8h.html" target="_top" xlink:title="Internal types used by QtFit classes.">
<polygon fill="none" stroke="black" points="258,-168.5 258,-187.5 322,-187.5 322,-168.5 258,-168.5"/>
<text text-anchor="middle" x="290" y="-175.5" font-family="Helvetica,sans-Serif" font-size="10.00">types_p.h</text>
</a>
</g>
</g>
<!-- Node9&#45;&gt;Node10 -->
<g id="edge12" class="edge">
<title>Node9&#45;&gt;Node10</title>
<path fill="none" stroke="midnightblue" d="M244.92,-224.08C252.78,-216.22 264.43,-204.57 273.92,-195.08"/>
<polygon fill="midnightblue" stroke="midnightblue" points="276.65,-197.3 281.25,-187.75 271.7,-192.35 276.65,-197.3"/>
</g>
<!-- Node10&#45;&gt;Node6 -->
<g id="edge13" class="edge">
<title>Node10&#45;&gt;Node6</title>
<path fill="none" stroke="midnightblue" d="M280.84,-168.32C272.5,-160.42 259.97,-148.55 249.82,-138.94"/>
<polygon fill="midnightblue" stroke="midnightblue" points="251.99,-136.17 242.32,-131.83 247.18,-141.25 251.99,-136.17"/>
</g>
<!-- Node11 -->
<g id="node11" class="node">
<title>Node11</title>
<g id="a_node11"><a xlink:title=" ">
<polygon fill="none" stroke="#bfbfbf" points="277.5,-112.5 277.5,-131.5 318.5,-131.5 318.5,-112.5 277.5,-112.5"/>
<text text-anchor="middle" x="298" y="-119.5" font-family="Helvetica,sans-Serif" font-size="10.00">QList</text>
</a>
</g>
</g>
<!-- Node10&#45;&gt;Node11 -->
<g id="edge14" class="edge">
<title>Node10&#45;&gt;Node11</title>
<path fill="none" stroke="midnightblue" d="M291.32,-168.08C292.38,-160.93 293.91,-150.64 295.23,-141.69"/>
<polygon fill="midnightblue" stroke="midnightblue" points="298.7,-142.16 296.7,-131.75 291.78,-141.13 298.7,-142.16"/>
</g>
</g>
</svg>
