<?xml version="1.0" encoding="UTF-8" standalone="no"?>
<!DOCTYPE svg PUBLIC "-//W3C//DTD SVG 1.1//EN"
 "http://www.w3.org/Graphics/SVG/1.1/DTD/svg11.dtd">
<!-- Generated by graphviz version 2.43.0 (0)
 -->
<!-- Title: workoutsessionmessage_p.h Pages: 1 -->
<svg width="181pt" height="308pt"
 viewBox="0.00 0.00 181.00 308.00" xmlns="http://www.w3.org/2000/svg" xmlns:xlink="http://www.w3.org/1999/xlink">
<g id="graph0" class="graph" transform="scale(1 1) rotate(0) translate(4 304)">
<title>workoutsessionmessage_p.h</title>
<!-- Node1 -->
<g id="node1" class="node">
<title>Node1</title>
<g id="a_node1"><a xlink:title=" ">
<polygon fill="#bfbfbf" stroke="black" points="0,-280.5 0,-299.5 157,-299.5 157,-280.5 0,-280.5"/>
<text text-anchor="middle" x="78.5" y="-287.5" font-family="Helvetica,sans-Serif" font-size="10.00">workoutsessionmessage_p.h</text>
</a>
</g>
</g>
<!-- Node2 -->
<g id="node2" class="node">
<title>Node2</title>
<g id="a_node2"><a xlink:href="fitdatamessage__p_8h.html" target="_top" xlink:title=" ">
<polygon fill="none" stroke="black" points="22,-224.5 22,-243.5 135,-243.5 135,-224.5 22,-224.5"/>
<text text-anchor="middle" x="78.5" y="-231.5" font-family="Helvetica,sans-Serif" font-size="10.00">fitdatamessage_p.h</text>
</a>
</g>
</g>
<!-- Node1&#45;&gt;Node2 -->
<g id="edge1" class="edge">
<title>Node1&#45;&gt;Node2</title>
<path fill="none" stroke="midnightblue" d="M78.5,-280.08C78.5,-273.01 78.5,-262.86 78.5,-253.99"/>
<polygon fill="midnightblue" stroke="midnightblue" points="82,-253.75 78.5,-243.75 75,-253.75 82,-253.75"/>
</g>
<!-- Node3 -->
<g id="node3" class="node">
<title>Node3</title>
<g id="a_node3"><a xlink:href="QtFit__global_8h.html" target="_top" xlink:title=" ">
<polygon fill="none" stroke="black" points="17.5,-56.5 17.5,-75.5 101.5,-75.5 101.5,-56.5 17.5,-56.5"/>
<text text-anchor="middle" x="59.5" y="-63.5" font-family="Helvetica,sans-Serif" font-size="10.00">QtFit_global.h</text>
</a>
</g>
</g>
<!-- Node2&#45;&gt;Node3 -->
<g id="edge2" class="edge">
<title>Node2&#45;&gt;Node3</title>
<path fill="none" stroke="midnightblue" d="M74.65,-224.32C66.32,-204.61 47.72,-154.88 51.5,-112 52.28,-103.2 53.89,-93.54 55.47,-85.43"/>
<polygon fill="midnightblue" stroke="midnightblue" points="58.91,-86.07 57.51,-75.57 52.06,-84.65 58.91,-86.07"/>
</g>
<!-- Node5 -->
<g id="node5" class="node">
<title>Node5</title>
<g id="a_node5"><a xlink:href="types_8h.html" target="_top" xlink:title="Types defined by the ANT+ FIT SDK.">
<polygon fill="none" stroke="black" points="61,-112.5 61,-131.5 114,-131.5 114,-112.5 61,-112.5"/>
<text text-anchor="middle" x="87.5" y="-119.5" font-family="Helvetica,sans-Serif" font-size="10.00">types.h</text>
</a>
</g>
</g>
<!-- Node2&#45;&gt;Node5 -->
<g id="edge4" class="edge">
<title>Node2&#45;&gt;Node5</title>
<path fill="none" stroke="midnightblue" d="M79.21,-224.37C80.66,-206.62 84.01,-165.67 85.98,-141.6"/>
<polygon fill="midnightblue" stroke="midnightblue" points="89.47,-141.84 86.8,-131.59 82.49,-141.27 89.47,-141.84"/>
</g>
<!-- Node6 -->
<g id="node6" class="node">
<title>Node6</title>
<g id="a_node6"><a xlink:href="types__p_8h.html" target="_top" xlink:title=" ">
<polygon fill="none" stroke="black" points="106.5,-168.5 106.5,-187.5 170.5,-187.5 170.5,-168.5 106.5,-168.5"/>
<text text-anchor="middle" x="138.5" y="-175.5" font-family="Helvetica,sans-Serif" font-size="10.00">types_p.h</text>
</a>
</g>
</g>
<!-- Node2&#45;&gt;Node6 -->
<g id="edge6" class="edge">
<title>Node2&#45;&gt;Node6</title>
<path fill="none" stroke="midnightblue" d="M88.14,-224.32C97.01,-216.34 110.37,-204.31 121.11,-194.65"/>
<polygon fill="midnightblue" stroke="midnightblue" points="123.59,-197.13 128.68,-187.83 118.91,-191.92 123.59,-197.13"/>
</g>
<!-- Node4 -->
<g id="node4" class="node">
<title>Node4</title>
<g id="a_node4"><a xlink:title=" ">
<polygon fill="none" stroke="#bfbfbf" points="30,-0.5 30,-19.5 89,-19.5 89,-0.5 30,-0.5"/>
<text text-anchor="middle" x="59.5" y="-7.5" font-family="Helvetica,sans-Serif" font-size="10.00">QtGlobal</text>
</a>
</g>
</g>
<!-- Node3&#45;&gt;Node4 -->
<g id="edge3" class="edge">
<title>Node3&#45;&gt;Node4</title>
<path fill="none" stroke="midnightblue" d="M59.5,-56.08C59.5,-49.01 59.5,-38.86 59.5,-29.99"/>
<polygon fill="midnightblue" stroke="midnightblue" points="63,-29.75 59.5,-19.75 56,-29.75 63,-29.75"/>
</g>
<!-- Node5&#45;&gt;Node3 -->
<g id="edge5" class="edge">
<title>Node5&#45;&gt;Node3</title>
<path fill="none" stroke="midnightblue" d="M82.88,-112.08C79.04,-104.69 73.48,-93.95 68.74,-84.81"/>
<polygon fill="midnightblue" stroke="midnightblue" points="71.75,-83.02 64.04,-75.75 65.53,-86.24 71.75,-83.02"/>
</g>
<!-- Node6&#45;&gt;Node5 -->
<g id="edge7" class="edge">
<title>Node6&#45;&gt;Node5</title>
<path fill="none" stroke="midnightblue" d="M130.08,-168.08C122.65,-160.22 111.65,-148.57 102.69,-139.08"/>
<polygon fill="midnightblue" stroke="midnightblue" points="105.18,-136.62 95.76,-131.75 100.09,-141.42 105.18,-136.62"/>
</g>
<!-- Node7 -->
<g id="node7" class="node">
<title>Node7</title>
<g id="a_node7"><a xlink:title=" ">
<polygon fill="none" stroke="#bfbfbf" points="132,-112.5 132,-131.5 173,-131.5 173,-112.5 132,-112.5"/>
<text text-anchor="middle" x="152.5" y="-119.5" font-family="Helvetica,sans-Serif" font-size="10.00">QList</text>
</a>
</g>
</g>
<!-- Node6&#45;&gt;Node7 -->
<g id="edge8" class="edge">
<title>Node6&#45;&gt;Node7</title>
<path fill="none" stroke="midnightblue" d="M140.81,-168.08C142.67,-160.93 145.34,-150.64 147.65,-141.69"/>
<polygon fill="midnightblue" stroke="midnightblue" points="151.11,-142.31 150.23,-131.75 144.33,-140.55 151.11,-142.31"/>
</g>
</g>
</svg>
