<?xml version="1.0" encoding="UTF-8" standalone="no"?>
<!DOCTYPE svg PUBLIC "-//W3C//DTD SVG 1.1//EN"
 "http://www.w3.org/Graphics/SVG/1.1/DTD/svg11.dtd">
<!-- Generated by graphviz version 2.43.0 (0)
 -->
<!-- Title: workoutmessage.cpp Pages: 1 -->
<svg width="257pt" height="364pt"
 viewBox="0.00 0.00 256.50 364.00" xmlns="http://www.w3.org/2000/svg" xmlns:xlink="http://www.w3.org/1999/xlink">
<g id="graph0" class="graph" transform="scale(1 1) rotate(0) translate(4 360)">
<title>workoutmessage.cpp</title>
<!-- Node1 -->
<g id="node1" class="node">
<title>Node1</title>
<g id="a_node1"><a xlink:title=" ">
<polygon fill="#bfbfbf" stroke="black" points="66,-336.5 66,-355.5 186,-355.5 186,-336.5 66,-336.5"/>
<text text-anchor="middle" x="126" y="-343.5" font-family="Helvetica,sans-Serif" font-size="10.00">workoutmessage.cpp</text>
</a>
</g>
</g>
<!-- Node2 -->
<g id="node2" class="node">
<title>Node2</title>
<g id="a_node2"><a xlink:href="workoutmessage_8h.html" target="_top" xlink:title=" ">
<polygon fill="none" stroke="black" points="139.5,-280.5 139.5,-299.5 248.5,-299.5 248.5,-280.5 139.5,-280.5"/>
<text text-anchor="middle" x="194" y="-287.5" font-family="Helvetica,sans-Serif" font-size="10.00">workoutmessage.h</text>
</a>
</g>
</g>
<!-- Node1&#45;&gt;Node2 -->
<g id="edge1" class="edge">
<title>Node1&#45;&gt;Node2</title>
<path fill="none" stroke="midnightblue" d="M136.93,-336.32C147.17,-328.18 162.72,-315.84 175,-306.09"/>
<polygon fill="midnightblue" stroke="midnightblue" points="177.22,-308.79 182.88,-299.83 172.87,-303.31 177.22,-308.79"/>
</g>
<!-- Node7 -->
<g id="node7" class="node">
<title>Node7</title>
<g id="a_node7"><a xlink:href="workoutmessage__p_8h.html" target="_top" xlink:title=" ">
<polygon fill="none" stroke="black" points="0,-280.5 0,-299.5 120,-299.5 120,-280.5 0,-280.5"/>
<text text-anchor="middle" x="60" y="-287.5" font-family="Helvetica,sans-Serif" font-size="10.00">workoutmessage_p.h</text>
</a>
</g>
</g>
<!-- Node1&#45;&gt;Node7 -->
<g id="edge7" class="edge">
<title>Node1&#45;&gt;Node7</title>
<path fill="none" stroke="midnightblue" d="M115.4,-336.32C105.54,-328.26 90.65,-316.08 78.78,-306.37"/>
<polygon fill="midnightblue" stroke="midnightblue" points="80.75,-303.46 70.8,-299.83 76.32,-308.88 80.75,-303.46"/>
</g>
<!-- Node3 -->
<g id="node3" class="node">
<title>Node3</title>
<g id="a_node3"><a xlink:href="fitdatamessage_8h.html" target="_top" xlink:title=" ">
<polygon fill="none" stroke="black" points="144.5,-168.5 144.5,-187.5 245.5,-187.5 245.5,-168.5 144.5,-168.5"/>
<text text-anchor="middle" x="195" y="-175.5" font-family="Helvetica,sans-Serif" font-size="10.00">fitdatamessage.h</text>
</a>
</g>
</g>
<!-- Node2&#45;&gt;Node3 -->
<g id="edge2" class="edge">
<title>Node2&#45;&gt;Node3</title>
<path fill="none" stroke="midnightblue" d="M194.08,-280.37C194.24,-262.62 194.61,-221.67 194.83,-197.6"/>
<polygon fill="midnightblue" stroke="midnightblue" points="198.33,-197.62 194.92,-187.59 191.33,-197.56 198.33,-197.62"/>
</g>
<!-- Node4 -->
<g id="node4" class="node">
<title>Node4</title>
<g id="a_node4"><a xlink:href="QtFit__global_8h.html" target="_top" xlink:title=" ">
<polygon fill="none" stroke="black" points="76,-56.5 76,-75.5 160,-75.5 160,-56.5 76,-56.5"/>
<text text-anchor="middle" x="118" y="-63.5" font-family="Helvetica,sans-Serif" font-size="10.00">QtFit_global.h</text>
</a>
</g>
</g>
<!-- Node3&#45;&gt;Node4 -->
<g id="edge3" class="edge">
<title>Node3&#45;&gt;Node4</title>
<path fill="none" stroke="midnightblue" d="M189.99,-168.39C182.54,-155.75 167.93,-131.56 154,-112 147.11,-102.32 138.86,-91.94 132.01,-83.59"/>
<polygon fill="midnightblue" stroke="midnightblue" points="134.56,-81.19 125.47,-75.74 129.18,-85.66 134.56,-81.19"/>
</g>
<!-- Node6 -->
<g id="node6" class="node">
<title>Node6</title>
<g id="a_node6"><a xlink:href="types_8h.html" target="_top" xlink:title="Types defined by the ANT+ FIT SDK.">
<polygon fill="none" stroke="black" points="91.5,-112.5 91.5,-131.5 144.5,-131.5 144.5,-112.5 91.5,-112.5"/>
<text text-anchor="middle" x="118" y="-119.5" font-family="Helvetica,sans-Serif" font-size="10.00">types.h</text>
</a>
</g>
</g>
<!-- Node3&#45;&gt;Node6 -->
<g id="edge5" class="edge">
<title>Node3&#45;&gt;Node6</title>
<path fill="none" stroke="midnightblue" d="M182.63,-168.32C170.84,-160.06 152.87,-147.45 138.86,-137.63"/>
<polygon fill="midnightblue" stroke="midnightblue" points="140.54,-134.53 130.34,-131.65 136.52,-140.26 140.54,-134.53"/>
</g>
<!-- Node5 -->
<g id="node5" class="node">
<title>Node5</title>
<g id="a_node5"><a xlink:title=" ">
<polygon fill="none" stroke="#bfbfbf" points="88.5,-0.5 88.5,-19.5 147.5,-19.5 147.5,-0.5 88.5,-0.5"/>
<text text-anchor="middle" x="118" y="-7.5" font-family="Helvetica,sans-Serif" font-size="10.00">QtGlobal</text>
</a>
</g>
</g>
<!-- Node4&#45;&gt;Node5 -->
<g id="edge4" class="edge">
<title>Node4&#45;&gt;Node5</title>
<path fill="none" stroke="midnightblue" d="M118,-56.08C118,-49.01 118,-38.86 118,-29.99"/>
<polygon fill="midnightblue" stroke="midnightblue" points="121.5,-29.75 118,-19.75 114.5,-29.75 121.5,-29.75"/>
</g>
<!-- Node6&#45;&gt;Node4 -->
<g id="edge6" class="edge">
<title>Node6&#45;&gt;Node4</title>
<path fill="none" stroke="midnightblue" d="M118,-112.08C118,-105.01 118,-94.86 118,-85.99"/>
<polygon fill="midnightblue" stroke="midnightblue" points="121.5,-85.75 118,-75.75 114.5,-85.75 121.5,-85.75"/>
</g>
<!-- Node8 -->
<g id="node8" class="node">
<title>Node8</title>
<g id="a_node8"><a xlink:href="fitdatamessage__p_8h.html" target="_top" xlink:title=" ">
<polygon fill="none" stroke="black" points="0.5,-224.5 0.5,-243.5 113.5,-243.5 113.5,-224.5 0.5,-224.5"/>
<text text-anchor="middle" x="57" y="-231.5" font-family="Helvetica,sans-Serif" font-size="10.00">fitdatamessage_p.h</text>
</a>
</g>
</g>
<!-- Node7&#45;&gt;Node8 -->
<g id="edge8" class="edge">
<title>Node7&#45;&gt;Node8</title>
<path fill="none" stroke="midnightblue" d="M59.5,-280.08C59.11,-273.01 58.55,-262.86 58.05,-253.99"/>
<polygon fill="midnightblue" stroke="midnightblue" points="61.54,-253.54 57.49,-243.75 54.55,-253.93 61.54,-253.54"/>
</g>
<!-- Node8&#45;&gt;Node4 -->
<g id="edge9" class="edge">
<title>Node8&#45;&gt;Node4</title>
<path fill="none" stroke="midnightblue" d="M44.79,-224.24C34.65,-216.14 20.96,-203.11 15,-188 7.8,-169.74 14.57,-123.44 23,-112 34.6,-96.26 53.14,-85.81 70.77,-78.98"/>
<polygon fill="midnightblue" stroke="midnightblue" points="72.17,-82.2 80.42,-75.55 69.82,-75.6 72.17,-82.2"/>
</g>
<!-- Node8&#45;&gt;Node6 -->
<g id="edge10" class="edge">
<title>Node8&#45;&gt;Node6</title>
<path fill="none" stroke="midnightblue" d="M66.84,-224.24C75.82,-215.77 88.9,-202.15 97,-188 105.28,-173.52 110.8,-155.34 114.09,-141.89"/>
<polygon fill="midnightblue" stroke="midnightblue" points="117.56,-142.41 116.35,-131.89 110.73,-140.87 117.56,-142.41"/>
</g>
<!-- Node9 -->
<g id="node9" class="node">
<title>Node9</title>
<g id="a_node9"><a xlink:href="types__p_8h.html" target="_top" xlink:title=" ">
<polygon fill="none" stroke="black" points="24,-168.5 24,-187.5 88,-187.5 88,-168.5 24,-168.5"/>
<text text-anchor="middle" x="56" y="-175.5" font-family="Helvetica,sans-Serif" font-size="10.00">types_p.h</text>
</a>
</g>
</g>
<!-- Node8&#45;&gt;Node9 -->
<g id="edge11" class="edge">
<title>Node8&#45;&gt;Node9</title>
<path fill="none" stroke="midnightblue" d="M56.83,-224.08C56.7,-217.01 56.52,-206.86 56.35,-197.99"/>
<polygon fill="midnightblue" stroke="midnightblue" points="59.85,-197.68 56.16,-187.75 52.85,-197.81 59.85,-197.68"/>
</g>
<!-- Node9&#45;&gt;Node6 -->
<g id="edge12" class="edge">
<title>Node9&#45;&gt;Node6</title>
<path fill="none" stroke="midnightblue" d="M65.96,-168.32C75.13,-160.34 88.94,-148.31 100.03,-138.65"/>
<polygon fill="midnightblue" stroke="midnightblue" points="102.62,-141.04 107.86,-131.83 98.02,-135.76 102.62,-141.04"/>
</g>
<!-- Node10 -->
<g id="node10" class="node">
<title>Node10</title>
<g id="a_node10"><a xlink:title=" ">
<polygon fill="none" stroke="#bfbfbf" points="32.5,-112.5 32.5,-131.5 73.5,-131.5 73.5,-112.5 32.5,-112.5"/>
<text text-anchor="middle" x="53" y="-119.5" font-family="Helvetica,sans-Serif" font-size="10.00">QList</text>
</a>
</g>
</g>
<!-- Node9&#45;&gt;Node10 -->
<g id="edge13" class="edge">
<title>Node9&#45;&gt;Node10</title>
<path fill="none" stroke="midnightblue" d="M55.5,-168.08C55.11,-161.01 54.55,-150.86 54.05,-141.99"/>
<polygon fill="midnightblue" stroke="midnightblue" points="57.54,-141.54 53.49,-131.75 50.55,-141.93 57.54,-141.54"/>
</g>
</g>
</svg>
