<?xml version="1.0" encoding="UTF-8" standalone="no"?>
<!DOCTYPE svg PUBLIC "-//W3C//DTD SVG 1.1//EN"
 "http://www.w3.org/Graphics/SVG/1.1/DTD/svg11.dtd">
<!-- Generated by graphviz version 2.43.0 (0)
 -->
<!-- Title: workoutsessionmessage.cpp Pages: 1 -->
<svg width="330pt" height="364pt"
 viewBox="0.00 0.00 329.50 364.00" xmlns="http://www.w3.org/2000/svg" xmlns:xlink="http://www.w3.org/1999/xlink">
<g id="graph0" class="graph" transform="scale(1 1) rotate(0) translate(4 360)">
<title>workoutsessionmessage.cpp</title>
<!-- Node1 -->
<g id="node1" class="node">
<title>Node1</title>
<g id="a_node1"><a xlink:title=" ">
<polygon fill="#bfbfbf" stroke="black" points="85,-336.5 85,-355.5 242,-355.5 242,-336.5 85,-336.5"/>
<text text-anchor="middle" x="163.5" y="-343.5" font-family="Helvetica,sans-Serif" font-size="10.00">workoutsessionmessage.cpp</text>
</a>
</g>
</g>
<!-- Node2 -->
<g id="node2" class="node">
<title>Node2</title>
<g id="a_node2"><a xlink:href="workoutsessionmessage_8h.html" target="_top" xlink:title=" ">
<polygon fill="none" stroke="black" points="175.5,-280.5 175.5,-299.5 321.5,-299.5 321.5,-280.5 175.5,-280.5"/>
<text text-anchor="middle" x="248.5" y="-287.5" font-family="Helvetica,sans-Serif" font-size="10.00">workoutsessionmessage.h</text>
</a>
</g>
</g>
<!-- Node1&#45;&gt;Node2 -->
<g id="edge1" class="edge">
<title>Node1&#45;&gt;Node2</title>
<path fill="none" stroke="midnightblue" d="M177.16,-336.32C190.42,-327.9 210.77,-314.97 226.35,-305.07"/>
<polygon fill="midnightblue" stroke="midnightblue" points="228.31,-307.97 234.88,-299.65 224.56,-302.06 228.31,-307.97"/>
</g>
<!-- Node7 -->
<g id="node7" class="node">
<title>Node7</title>
<g id="a_node7"><a xlink:href="workoutsessionmessage__p_8h.html" target="_top" xlink:title=" ">
<polygon fill="none" stroke="black" points="0,-280.5 0,-299.5 157,-299.5 157,-280.5 0,-280.5"/>
<text text-anchor="middle" x="78.5" y="-287.5" font-family="Helvetica,sans-Serif" font-size="10.00">workoutsessionmessage_p.h</text>
</a>
</g>
</g>
<!-- Node1&#45;&gt;Node7 -->
<g id="edge7" class="edge">
<title>Node1&#45;&gt;Node7</title>
<path fill="none" stroke="midnightblue" d="M149.84,-336.32C136.58,-327.9 116.23,-314.97 100.65,-305.07"/>
<polygon fill="midnightblue" stroke="midnightblue" points="102.44,-302.06 92.12,-299.65 98.69,-307.97 102.44,-302.06"/>
</g>
<!-- Node3 -->
<g id="node3" class="node">
<title>Node3</title>
<g id="a_node3"><a xlink:href="fitdatamessage_8h.html" target="_top" xlink:title=" ">
<polygon fill="none" stroke="black" points="190,-168.5 190,-187.5 291,-187.5 291,-168.5 190,-168.5"/>
<text text-anchor="middle" x="240.5" y="-175.5" font-family="Helvetica,sans-Serif" font-size="10.00">fitdatamessage.h</text>
</a>
</g>
</g>
<!-- Node2&#45;&gt;Node3 -->
<g id="edge2" class="edge">
<title>Node2&#45;&gt;Node3</title>
<path fill="none" stroke="midnightblue" d="M247.87,-280.37C246.58,-262.62 243.6,-221.67 241.85,-197.6"/>
<polygon fill="midnightblue" stroke="midnightblue" points="245.34,-197.31 241.12,-187.59 238.36,-197.82 245.34,-197.31"/>
</g>
<!-- Node4 -->
<g id="node4" class="node">
<title>Node4</title>
<g id="a_node4"><a xlink:href="QtFit__global_8h.html" target="_top" xlink:title=" ">
<polygon fill="none" stroke="black" points="121.5,-56.5 121.5,-75.5 205.5,-75.5 205.5,-56.5 121.5,-56.5"/>
<text text-anchor="middle" x="163.5" y="-63.5" font-family="Helvetica,sans-Serif" font-size="10.00">QtFit_global.h</text>
</a>
</g>
</g>
<!-- Node3&#45;&gt;Node4 -->
<g id="edge3" class="edge">
<title>Node3&#45;&gt;Node4</title>
<path fill="none" stroke="midnightblue" d="M235.49,-168.39C228.04,-155.75 213.43,-131.56 199.5,-112 192.61,-102.32 184.36,-91.94 177.51,-83.59"/>
<polygon fill="midnightblue" stroke="midnightblue" points="180.06,-81.19 170.97,-75.74 174.68,-85.66 180.06,-81.19"/>
</g>
<!-- Node6 -->
<g id="node6" class="node">
<title>Node6</title>
<g id="a_node6"><a xlink:href="types_8h.html" target="_top" xlink:title="Types defined by the ANT+ FIT SDK.">
<polygon fill="none" stroke="black" points="137,-112.5 137,-131.5 190,-131.5 190,-112.5 137,-112.5"/>
<text text-anchor="middle" x="163.5" y="-119.5" font-family="Helvetica,sans-Serif" font-size="10.00">types.h</text>
</a>
</g>
</g>
<!-- Node3&#45;&gt;Node6 -->
<g id="edge5" class="edge">
<title>Node3&#45;&gt;Node6</title>
<path fill="none" stroke="midnightblue" d="M228.13,-168.32C216.34,-160.06 198.37,-147.45 184.36,-137.63"/>
<polygon fill="midnightblue" stroke="midnightblue" points="186.04,-134.53 175.84,-131.65 182.02,-140.26 186.04,-134.53"/>
</g>
<!-- Node5 -->
<g id="node5" class="node">
<title>Node5</title>
<g id="a_node5"><a xlink:title=" ">
<polygon fill="none" stroke="#bfbfbf" points="134,-0.5 134,-19.5 193,-19.5 193,-0.5 134,-0.5"/>
<text text-anchor="middle" x="163.5" y="-7.5" font-family="Helvetica,sans-Serif" font-size="10.00">QtGlobal</text>
</a>
</g>
</g>
<!-- Node4&#45;&gt;Node5 -->
<g id="edge4" class="edge">
<title>Node4&#45;&gt;Node5</title>
<path fill="none" stroke="midnightblue" d="M163.5,-56.08C163.5,-49.01 163.5,-38.86 163.5,-29.99"/>
<polygon fill="midnightblue" stroke="midnightblue" points="167,-29.75 163.5,-19.75 160,-29.75 167,-29.75"/>
</g>
<!-- Node6&#45;&gt;Node4 -->
<g id="edge6" class="edge">
<title>Node6&#45;&gt;Node4</title>
<path fill="none" stroke="midnightblue" d="M163.5,-112.08C163.5,-105.01 163.5,-94.86 163.5,-85.99"/>
<polygon fill="midnightblue" stroke="midnightblue" points="167,-85.75 163.5,-75.75 160,-85.75 167,-85.75"/>
</g>
<!-- Node8 -->
<g id="node8" class="node">
<title>Node8</title>
<g id="a_node8"><a xlink:href="fitdatamessage__p_8h.html" target="_top" xlink:title=" ">
<polygon fill="none" stroke="black" points="37,-224.5 37,-243.5 150,-243.5 150,-224.5 37,-224.5"/>
<text text-anchor="middle" x="93.5" y="-231.5" font-family="Helvetica,sans-Serif" font-size="10.00">fitdatamessage_p.h</text>
</a>
</g>
</g>
<!-- Node7&#45;&gt;Node8 -->
<g id="edge8" class="edge">
<title>Node7&#45;&gt;Node8</title>
<path fill="none" stroke="midnightblue" d="M80.98,-280.08C82.99,-272.85 85.89,-262.41 88.39,-253.4"/>
<polygon fill="midnightblue" stroke="midnightblue" points="91.76,-254.32 91.07,-243.75 85.02,-252.45 91.76,-254.32"/>
</g>
<!-- Node8&#45;&gt;Node4 -->
<g id="edge9" class="edge">
<title>Node8&#45;&gt;Node4</title>
<path fill="none" stroke="midnightblue" d="M84.48,-224.34C76.43,-215.93 65.2,-202.36 60.5,-188 54.15,-168.6 62.46,-120.2 68.5,-112 80.1,-96.26 98.64,-85.81 116.27,-78.98"/>
<polygon fill="midnightblue" stroke="midnightblue" points="117.67,-82.2 125.92,-75.55 115.32,-75.6 117.67,-82.2"/>
</g>
<!-- Node8&#45;&gt;Node6 -->
<g id="edge10" class="edge">
<title>Node8&#45;&gt;Node6</title>
<path fill="none" stroke="midnightblue" d="M106.06,-224.39C117.12,-216.22 132.9,-202.97 142.5,-188 151.6,-173.81 157.07,-155.33 160.14,-141.7"/>
<polygon fill="midnightblue" stroke="midnightblue" points="163.63,-142.09 162.17,-131.6 156.77,-140.71 163.63,-142.09"/>
</g>
<!-- Node9 -->
<g id="node9" class="node">
<title>Node9</title>
<g id="a_node9"><a xlink:href="types__p_8h.html" target="_top" xlink:title=" ">
<polygon fill="none" stroke="black" points="69.5,-168.5 69.5,-187.5 133.5,-187.5 133.5,-168.5 69.5,-168.5"/>
<text text-anchor="middle" x="101.5" y="-175.5" font-family="Helvetica,sans-Serif" font-size="10.00">types_p.h</text>
</a>
</g>
</g>
<!-- Node8&#45;&gt;Node9 -->
<g id="edge11" class="edge">
<title>Node8&#45;&gt;Node9</title>
<path fill="none" stroke="midnightblue" d="M94.82,-224.08C95.88,-216.93 97.41,-206.64 98.73,-197.69"/>
<polygon fill="midnightblue" stroke="midnightblue" points="102.2,-198.16 100.2,-187.75 95.28,-197.13 102.2,-198.16"/>
</g>
<!-- Node9&#45;&gt;Node6 -->
<g id="edge12" class="edge">
<title>Node9&#45;&gt;Node6</title>
<path fill="none" stroke="midnightblue" d="M111.46,-168.32C120.63,-160.34 134.44,-148.31 145.53,-138.65"/>
<polygon fill="midnightblue" stroke="midnightblue" points="148.12,-141.04 153.36,-131.83 143.52,-135.76 148.12,-141.04"/>
</g>
<!-- Node10 -->
<g id="node10" class="node">
<title>Node10</title>
<g id="a_node10"><a xlink:title=" ">
<polygon fill="none" stroke="#bfbfbf" points="78,-112.5 78,-131.5 119,-131.5 119,-112.5 78,-112.5"/>
<text text-anchor="middle" x="98.5" y="-119.5" font-family="Helvetica,sans-Serif" font-size="10.00">QList</text>
</a>
</g>
</g>
<!-- Node9&#45;&gt;Node10 -->
<g id="edge13" class="edge">
<title>Node9&#45;&gt;Node10</title>
<path fill="none" stroke="midnightblue" d="M101,-168.08C100.61,-161.01 100.05,-150.86 99.55,-141.99"/>
<polygon fill="midnightblue" stroke="midnightblue" points="103.04,-141.54 98.99,-131.75 96.05,-141.93 103.04,-141.54"/>
</g>
</g>
</svg>
