<?xml version="1.0" encoding="UTF-8" standalone="no"?>
<!DOCTYPE svg PUBLIC "-//W3C//DTD SVG 1.1//EN"
 "http://www.w3.org/Graphics/SVG/1.1/DTD/svg11.dtd">
<!-- Generated by graphviz version 2.43.0 (0)
 -->
<!-- Title: zonestargetmessage.cpp Pages: 1 -->
<svg width="356pt" height="364pt"
 viewBox="0.00 0.00 356.00 364.00" xmlns="http://www.w3.org/2000/svg" xmlns:xlink="http://www.w3.org/1999/xlink">
<g id="graph0" class="graph" transform="scale(1 1) rotate(0) translate(4 360)">
<title>zonestargetmessage.cpp</title>
<!-- Node1 -->
<g id="node1" class="node">
<title>Node1</title>
<g id="a_node1"><a xlink:title=" ">
<polygon fill="#bfbfbf" stroke="black" points="143,-336.5 143,-355.5 282,-355.5 282,-336.5 143,-336.5"/>
<text text-anchor="middle" x="212.5" y="-343.5" font-family="Helvetica,sans-Serif" font-size="10.00">zonestargetmessage.cpp</text>
</a>
</g>
</g>
<!-- Node2 -->
<g id="node2" class="node">
<title>Node2</title>
<g id="a_node2"><a xlink:href="zonestargetmessage_8h.html" target="_top" xlink:title=" ">
<polygon fill="none" stroke="black" points="131.5,-224.5 131.5,-243.5 259.5,-243.5 259.5,-224.5 131.5,-224.5"/>
<text text-anchor="middle" x="195.5" y="-231.5" font-family="Helvetica,sans-Serif" font-size="10.00">zonestargetmessage.h</text>
</a>
</g>
</g>
<!-- Node1&#45;&gt;Node2 -->
<g id="edge1" class="edge">
<title>Node1&#45;&gt;Node2</title>
<path fill="none" stroke="midnightblue" d="M210.58,-336.41C208.61,-327.38 205.56,-312.74 203.5,-300 201.01,-284.55 198.88,-266.92 197.45,-253.92"/>
<polygon fill="midnightblue" stroke="midnightblue" points="200.92,-253.43 196.38,-243.86 193.96,-254.18 200.92,-253.43"/>
</g>
<!-- Node7 -->
<g id="node7" class="node">
<title>Node7</title>
<g id="a_node7"><a xlink:href="zonestargetmessage__p_8h.html" target="_top" xlink:title=" ">
<polygon fill="none" stroke="black" points="7,-280.5 7,-299.5 146,-299.5 146,-280.5 7,-280.5"/>
<text text-anchor="middle" x="76.5" y="-287.5" font-family="Helvetica,sans-Serif" font-size="10.00">zonestargetmessage_p.h</text>
</a>
</g>
</g>
<!-- Node1&#45;&gt;Node7 -->
<g id="edge7" class="edge">
<title>Node1&#45;&gt;Node7</title>
<path fill="none" stroke="midnightblue" d="M190.95,-336.44C168.47,-327.52 133.01,-313.44 107.52,-303.32"/>
<polygon fill="midnightblue" stroke="midnightblue" points="108.53,-299.95 97.95,-299.52 105.95,-306.46 108.53,-299.95"/>
</g>
<!-- Node11 -->
<g id="node11" class="node">
<title>Node11</title>
<g id="a_node11"><a xlink:title=" ">
<polygon fill="none" stroke="#bfbfbf" points="212.5,-280.5 212.5,-299.5 268.5,-299.5 268.5,-280.5 212.5,-280.5"/>
<text text-anchor="middle" x="240.5" y="-287.5" font-family="Helvetica,sans-Serif" font-size="10.00">QDebug</text>
</a>
</g>
</g>
<!-- Node1&#45;&gt;Node11 -->
<g id="edge14" class="edge">
<title>Node1&#45;&gt;Node11</title>
<path fill="none" stroke="midnightblue" d="M217.12,-336.08C220.96,-328.69 226.52,-317.95 231.26,-308.81"/>
<polygon fill="midnightblue" stroke="midnightblue" points="234.47,-310.24 235.96,-299.75 228.25,-307.02 234.47,-310.24"/>
</g>
<!-- Node12 -->
<g id="node12" class="node">
<title>Node12</title>
<g id="a_node12"><a xlink:title=" ">
<polygon fill="none" stroke="#bfbfbf" points="287,-280.5 287,-299.5 348,-299.5 348,-280.5 287,-280.5"/>
<text text-anchor="middle" x="317.5" y="-287.5" font-family="Helvetica,sans-Serif" font-size="10.00">QtEndian</text>
</a>
</g>
</g>
<!-- Node1&#45;&gt;Node12 -->
<g id="edge15" class="edge">
<title>Node1&#45;&gt;Node12</title>
<path fill="none" stroke="midnightblue" d="M229.37,-336.32C246.21,-327.66 272.31,-314.24 291.74,-304.25"/>
<polygon fill="midnightblue" stroke="midnightblue" points="293.38,-307.34 300.67,-299.65 290.18,-301.12 293.38,-307.34"/>
</g>
<!-- Node3 -->
<g id="node3" class="node">
<title>Node3</title>
<g id="a_node3"><a xlink:href="fitdatamessage_8h.html" target="_top" xlink:title=" ">
<polygon fill="none" stroke="black" points="145,-168.5 145,-187.5 246,-187.5 246,-168.5 145,-168.5"/>
<text text-anchor="middle" x="195.5" y="-175.5" font-family="Helvetica,sans-Serif" font-size="10.00">fitdatamessage.h</text>
</a>
</g>
</g>
<!-- Node2&#45;&gt;Node3 -->
<g id="edge2" class="edge">
<title>Node2&#45;&gt;Node3</title>
<path fill="none" stroke="midnightblue" d="M195.5,-224.08C195.5,-217.01 195.5,-206.86 195.5,-197.99"/>
<polygon fill="midnightblue" stroke="midnightblue" points="199,-197.75 195.5,-187.75 192,-197.75 199,-197.75"/>
</g>
<!-- Node4 -->
<g id="node4" class="node">
<title>Node4</title>
<g id="a_node4"><a xlink:href="QtFit__global_8h.html" target="_top" xlink:title=" ">
<polygon fill="none" stroke="black" points="76.5,-56.5 76.5,-75.5 160.5,-75.5 160.5,-56.5 76.5,-56.5"/>
<text text-anchor="middle" x="118.5" y="-63.5" font-family="Helvetica,sans-Serif" font-size="10.00">QtFit_global.h</text>
</a>
</g>
</g>
<!-- Node3&#45;&gt;Node4 -->
<g id="edge3" class="edge">
<title>Node3&#45;&gt;Node4</title>
<path fill="none" stroke="midnightblue" d="M190.49,-168.39C183.04,-155.75 168.43,-131.56 154.5,-112 147.61,-102.32 139.36,-91.94 132.51,-83.59"/>
<polygon fill="midnightblue" stroke="midnightblue" points="135.06,-81.19 125.97,-75.74 129.68,-85.66 135.06,-81.19"/>
</g>
<!-- Node6 -->
<g id="node6" class="node">
<title>Node6</title>
<g id="a_node6"><a xlink:href="types_8h.html" target="_top" xlink:title="Types defined by the ANT+ FIT SDK.">
<polygon fill="none" stroke="black" points="92,-112.5 92,-131.5 145,-131.5 145,-112.5 92,-112.5"/>
<text text-anchor="middle" x="118.5" y="-119.5" font-family="Helvetica,sans-Serif" font-size="10.00">types.h</text>
</a>
</g>
</g>
<!-- Node3&#45;&gt;Node6 -->
<g id="edge5" class="edge">
<title>Node3&#45;&gt;Node6</title>
<path fill="none" stroke="midnightblue" d="M183.13,-168.32C171.34,-160.06 153.37,-147.45 139.36,-137.63"/>
<polygon fill="midnightblue" stroke="midnightblue" points="141.04,-134.53 130.84,-131.65 137.02,-140.26 141.04,-134.53"/>
</g>
<!-- Node5 -->
<g id="node5" class="node">
<title>Node5</title>
<g id="a_node5"><a xlink:title=" ">
<polygon fill="none" stroke="#bfbfbf" points="89,-0.5 89,-19.5 148,-19.5 148,-0.5 89,-0.5"/>
<text text-anchor="middle" x="118.5" y="-7.5" font-family="Helvetica,sans-Serif" font-size="10.00">QtGlobal</text>
</a>
</g>
</g>
<!-- Node4&#45;&gt;Node5 -->
<g id="edge4" class="edge">
<title>Node4&#45;&gt;Node5</title>
<path fill="none" stroke="midnightblue" d="M118.5,-56.08C118.5,-49.01 118.5,-38.86 118.5,-29.99"/>
<polygon fill="midnightblue" stroke="midnightblue" points="122,-29.75 118.5,-19.75 115,-29.75 122,-29.75"/>
</g>
<!-- Node6&#45;&gt;Node4 -->
<g id="edge6" class="edge">
<title>Node6&#45;&gt;Node4</title>
<path fill="none" stroke="midnightblue" d="M118.5,-112.08C118.5,-105.01 118.5,-94.86 118.5,-85.99"/>
<polygon fill="midnightblue" stroke="midnightblue" points="122,-85.75 118.5,-75.75 115,-85.75 122,-85.75"/>
</g>
<!-- Node8 -->
<g id="node8" class="node">
<title>Node8</title>
<g id="a_node8"><a xlink:href="fitdatamessage__p_8h.html" target="_top" xlink:title=" ">
<polygon fill="none" stroke="black" points="0,-224.5 0,-243.5 113,-243.5 113,-224.5 0,-224.5"/>
<text text-anchor="middle" x="56.5" y="-231.5" font-family="Helvetica,sans-Serif" font-size="10.00">fitdatamessage_p.h</text>
</a>
</g>
</g>
<!-- Node7&#45;&gt;Node8 -->
<g id="edge8" class="edge">
<title>Node7&#45;&gt;Node8</title>
<path fill="none" stroke="midnightblue" d="M73.2,-280.08C70.52,-272.85 66.65,-262.41 63.31,-253.4"/>
<polygon fill="midnightblue" stroke="midnightblue" points="66.5,-251.91 59.74,-243.75 59.93,-254.34 66.5,-251.91"/>
</g>
<!-- Node8&#45;&gt;Node4 -->
<g id="edge9" class="edge">
<title>Node8&#45;&gt;Node4</title>
<path fill="none" stroke="midnightblue" d="M44.96,-224.49C35.02,-216.38 21.38,-203.18 15.5,-188 8.39,-169.63 15.31,-123.12 23.5,-112 35.1,-96.26 53.64,-85.81 71.27,-78.98"/>
<polygon fill="midnightblue" stroke="midnightblue" points="72.67,-82.2 80.92,-75.55 70.32,-75.6 72.67,-82.2"/>
</g>
<!-- Node8&#45;&gt;Node6 -->
<g id="edge10" class="edge">
<title>Node8&#45;&gt;Node6</title>
<path fill="none" stroke="midnightblue" d="M66.59,-224.29C75.81,-215.85 89.23,-202.26 97.5,-188 105.87,-173.58 111.38,-155.38 114.65,-141.92"/>
<polygon fill="midnightblue" stroke="midnightblue" points="118.12,-142.42 116.88,-131.9 111.29,-140.9 118.12,-142.42"/>
</g>
<!-- Node9 -->
<g id="node9" class="node">
<title>Node9</title>
<g id="a_node9"><a xlink:href="types__p_8h.html" target="_top" xlink:title=" ">
<polygon fill="none" stroke="black" points="24.5,-168.5 24.5,-187.5 88.5,-187.5 88.5,-168.5 24.5,-168.5"/>
<text text-anchor="middle" x="56.5" y="-175.5" font-family="Helvetica,sans-Serif" font-size="10.00">types_p.h</text>
</a>
</g>
</g>
<!-- Node8&#45;&gt;Node9 -->
<g id="edge11" class="edge">
<title>Node8&#45;&gt;Node9</title>
<path fill="none" stroke="midnightblue" d="M56.5,-224.08C56.5,-217.01 56.5,-206.86 56.5,-197.99"/>
<polygon fill="midnightblue" stroke="midnightblue" points="60,-197.75 56.5,-187.75 53,-197.75 60,-197.75"/>
</g>
<!-- Node9&#45;&gt;Node6 -->
<g id="edge12" class="edge">
<title>Node9&#45;&gt;Node6</title>
<path fill="none" stroke="midnightblue" d="M66.46,-168.32C75.63,-160.34 89.44,-148.31 100.53,-138.65"/>
<polygon fill="midnightblue" stroke="midnightblue" points="103.12,-141.04 108.36,-131.83 98.52,-135.76 103.12,-141.04"/>
</g>
<!-- Node10 -->
<g id="node10" class="node">
<title>Node10</title>
<g id="a_node10"><a xlink:title=" ">
<polygon fill="none" stroke="#bfbfbf" points="33,-112.5 33,-131.5 74,-131.5 74,-112.5 33,-112.5"/>
<text text-anchor="middle" x="53.5" y="-119.5" font-family="Helvetica,sans-Serif" font-size="10.00">QList</text>
</a>
</g>
</g>
<!-- Node9&#45;&gt;Node10 -->
<g id="edge13" class="edge">
<title>Node9&#45;&gt;Node10</title>
<path fill="none" stroke="midnightblue" d="M56,-168.08C55.61,-161.01 55.05,-150.86 54.55,-141.99"/>
<polygon fill="midnightblue" stroke="midnightblue" points="58.04,-141.54 53.99,-131.75 51.05,-141.93 58.04,-141.54"/>
</g>
</g>
</svg>
