<?xml version="1.0" encoding="UTF-8" standalone="no"?>
<!DOCTYPE svg PUBLIC "-//W3C//DTD SVG 1.1//EN"
 "http://www.w3.org/Graphics/SVG/1.1/DTD/svg11.dtd">
<!-- Generated by graphviz version 2.43.0 (0)
 -->
<!-- Title: zonestargetmessage.cpp Pages: 1 -->
<svg width="294pt" height="364pt"
 viewBox="0.00 0.00 293.50 364.00" xmlns="http://www.w3.org/2000/svg" xmlns:xlink="http://www.w3.org/1999/xlink">
<g id="graph0" class="graph" transform="scale(1 1) rotate(0) translate(4 360)">
<title>zonestargetmessage.cpp</title>
<!-- Node1 -->
<g id="node1" class="node">
<title>Node1</title>
<g id="a_node1"><a xlink:title=" ">
<polygon fill="#bfbfbf" stroke="black" points="76,-336.5 76,-355.5 215,-355.5 215,-336.5 76,-336.5"/>
<text text-anchor="middle" x="145.5" y="-343.5" font-family="Helvetica,sans-Serif" font-size="10.00">zonestargetmessage.cpp</text>
</a>
</g>
</g>
<!-- Node2 -->
<g id="node2" class="node">
<title>Node2</title>
<g id="a_node2"><a xlink:href="zonestargetmessage_8h.html" target="_top" xlink:title=" ">
<polygon fill="none" stroke="black" points="157.5,-280.5 157.5,-299.5 285.5,-299.5 285.5,-280.5 157.5,-280.5"/>
<text text-anchor="middle" x="221.5" y="-287.5" font-family="Helvetica,sans-Serif" font-size="10.00">zonestargetmessage.h</text>
</a>
</g>
</g>
<!-- Node1&#45;&gt;Node2 -->
<g id="edge1" class="edge">
<title>Node1&#45;&gt;Node2</title>
<path fill="none" stroke="midnightblue" d="M157.71,-336.32C169.28,-328.11 186.88,-315.6 200.66,-305.81"/>
<polygon fill="midnightblue" stroke="midnightblue" points="202.94,-308.48 209.07,-299.83 198.89,-302.77 202.94,-308.48"/>
</g>
<!-- Node7 -->
<g id="node7" class="node">
<title>Node7</title>
<g id="a_node7"><a xlink:href="zonestargetmessage__p_8h.html" target="_top" xlink:title=" ">
<polygon fill="none" stroke="black" points="0,-280.5 0,-299.5 139,-299.5 139,-280.5 0,-280.5"/>
<text text-anchor="middle" x="69.5" y="-287.5" font-family="Helvetica,sans-Serif" font-size="10.00">zonestargetmessage_p.h</text>
</a>
</g>
</g>
<!-- Node1&#45;&gt;Node7 -->
<g id="edge7" class="edge">
<title>Node1&#45;&gt;Node7</title>
<path fill="none" stroke="midnightblue" d="M133.29,-336.32C121.72,-328.11 104.12,-315.6 90.34,-305.81"/>
<polygon fill="midnightblue" stroke="midnightblue" points="92.11,-302.77 81.93,-299.83 88.06,-308.48 92.11,-302.77"/>
</g>
<!-- Node3 -->
<g id="node3" class="node">
<title>Node3</title>
<g id="a_node3"><a xlink:href="fitdatamessage_8h.html" target="_top" xlink:title=" ">
<polygon fill="none" stroke="black" points="167,-168.5 167,-187.5 268,-187.5 268,-168.5 167,-168.5"/>
<text text-anchor="middle" x="217.5" y="-175.5" font-family="Helvetica,sans-Serif" font-size="10.00">fitdatamessage.h</text>
</a>
</g>
</g>
<!-- Node2&#45;&gt;Node3 -->
<g id="edge2" class="edge">
<title>Node2&#45;&gt;Node3</title>
<path fill="none" stroke="midnightblue" d="M221.19,-280.37C220.54,-262.62 219.05,-221.67 218.18,-197.6"/>
<polygon fill="midnightblue" stroke="midnightblue" points="221.67,-197.46 217.81,-187.59 214.68,-197.71 221.67,-197.46"/>
</g>
<!-- Node4 -->
<g id="node4" class="node">
<title>Node4</title>
<g id="a_node4"><a xlink:href="QtFit__global_8h.html" target="_top" xlink:title=" ">
<polygon fill="none" stroke="black" points="98.5,-56.5 98.5,-75.5 182.5,-75.5 182.5,-56.5 98.5,-56.5"/>
<text text-anchor="middle" x="140.5" y="-63.5" font-family="Helvetica,sans-Serif" font-size="10.00">QtFit_global.h</text>
</a>
</g>
</g>
<!-- Node3&#45;&gt;Node4 -->
<g id="edge3" class="edge">
<title>Node3&#45;&gt;Node4</title>
<path fill="none" stroke="midnightblue" d="M212.49,-168.39C205.04,-155.75 190.43,-131.56 176.5,-112 169.61,-102.32 161.36,-91.94 154.51,-83.59"/>
<polygon fill="midnightblue" stroke="midnightblue" points="157.06,-81.19 147.97,-75.74 151.68,-85.66 157.06,-81.19"/>
</g>
<!-- Node6 -->
<g id="node6" class="node">
<title>Node6</title>
<g id="a_node6"><a xlink:href="types_8h.html" target="_top" xlink:title="Types defined by the ANT+ FIT SDK.">
<polygon fill="none" stroke="black" points="114,-112.5 114,-131.5 167,-131.5 167,-112.5 114,-112.5"/>
<text text-anchor="middle" x="140.5" y="-119.5" font-family="Helvetica,sans-Serif" font-size="10.00">types.h</text>
</a>
</g>
</g>
<!-- Node3&#45;&gt;Node6 -->
<g id="edge5" class="edge">
<title>Node3&#45;&gt;Node6</title>
<path fill="none" stroke="midnightblue" d="M205.13,-168.32C193.34,-160.06 175.37,-147.45 161.36,-137.63"/>
<polygon fill="midnightblue" stroke="midnightblue" points="163.04,-134.53 152.84,-131.65 159.02,-140.26 163.04,-134.53"/>
</g>
<!-- Node5 -->
<g id="node5" class="node">
<title>Node5</title>
<g id="a_node5"><a xlink:title=" ">
<polygon fill="none" stroke="#bfbfbf" points="111,-0.5 111,-19.5 170,-19.5 170,-0.5 111,-0.5"/>
<text text-anchor="middle" x="140.5" y="-7.5" font-family="Helvetica,sans-Serif" font-size="10.00">QtGlobal</text>
</a>
</g>
</g>
<!-- Node4&#45;&gt;Node5 -->
<g id="edge4" class="edge">
<title>Node4&#45;&gt;Node5</title>
<path fill="none" stroke="midnightblue" d="M140.5,-56.08C140.5,-49.01 140.5,-38.86 140.5,-29.99"/>
<polygon fill="midnightblue" stroke="midnightblue" points="144,-29.75 140.5,-19.75 137,-29.75 144,-29.75"/>
</g>
<!-- Node6&#45;&gt;Node4 -->
<g id="edge6" class="edge">
<title>Node6&#45;&gt;Node4</title>
<path fill="none" stroke="midnightblue" d="M140.5,-112.08C140.5,-105.01 140.5,-94.86 140.5,-85.99"/>
<polygon fill="midnightblue" stroke="midnightblue" points="144,-85.75 140.5,-75.75 137,-85.75 144,-85.75"/>
</g>
<!-- Node8 -->
<g id="node8" class="node">
<title>Node8</title>
<g id="a_node8"><a xlink:href="fitdatamessage__p_8h.html" target="_top" xlink:title=" ">
<polygon fill="none" stroke="black" points="19,-224.5 19,-243.5 132,-243.5 132,-224.5 19,-224.5"/>
<text text-anchor="middle" x="75.5" y="-231.5" font-family="Helvetica,sans-Serif" font-size="10.00">fitdatamessage_p.h</text>
</a>
</g>
</g>
<!-- Node7&#45;&gt;Node8 -->
<g id="edge8" class="edge">
<title>Node7&#45;&gt;Node8</title>
<path fill="none" stroke="midnightblue" d="M70.49,-280.08C71.29,-272.93 72.43,-262.64 73.42,-253.69"/>
<polygon fill="midnightblue" stroke="midnightblue" points="76.9,-254.08 74.53,-243.75 69.94,-253.3 76.9,-254.08"/>
</g>
<!-- Node8&#45;&gt;Node4 -->
<g id="edge9" class="edge">
<title>Node8&#45;&gt;Node4</title>
<path fill="none" stroke="midnightblue" d="M64.79,-224.3C55.56,-216.07 42.91,-202.79 37.5,-188 30.65,-169.27 38.05,-122.1 45.5,-112 57.1,-96.26 75.64,-85.81 93.27,-78.98"/>
<polygon fill="midnightblue" stroke="midnightblue" points="94.67,-82.2 102.92,-75.55 92.32,-75.6 94.67,-82.2"/>
</g>
<!-- Node8&#45;&gt;Node6 -->
<g id="edge10" class="edge">
<title>Node8&#45;&gt;Node6</title>
<path fill="none" stroke="midnightblue" d="M86.36,-224.44C96.28,-216.11 110.69,-202.59 119.5,-188 128.22,-173.57 133.73,-155.11 136.91,-141.56"/>
<polygon fill="midnightblue" stroke="midnightblue" points="140.39,-142.03 139.05,-131.52 133.54,-140.57 140.39,-142.03"/>
</g>
<!-- Node9 -->
<g id="node9" class="node">
<title>Node9</title>
<g id="a_node9"><a xlink:href="types__p_8h.html" target="_top" xlink:title=" ">
<polygon fill="none" stroke="black" points="46.5,-168.5 46.5,-187.5 110.5,-187.5 110.5,-168.5 46.5,-168.5"/>
<text text-anchor="middle" x="78.5" y="-175.5" font-family="Helvetica,sans-Serif" font-size="10.00">types_p.h</text>
</a>
</g>
</g>
<!-- Node8&#45;&gt;Node9 -->
<g id="edge11" class="edge">
<title>Node8&#45;&gt;Node9</title>
<path fill="none" stroke="midnightblue" d="M76,-224.08C76.39,-217.01 76.95,-206.86 77.45,-197.99"/>
<polygon fill="midnightblue" stroke="midnightblue" points="80.95,-197.93 78.01,-187.75 73.96,-197.54 80.95,-197.93"/>
</g>
<!-- Node9&#45;&gt;Node6 -->
<g id="edge12" class="edge">
<title>Node9&#45;&gt;Node6</title>
<path fill="none" stroke="midnightblue" d="M88.46,-168.32C97.63,-160.34 111.44,-148.31 122.53,-138.65"/>
<polygon fill="midnightblue" stroke="midnightblue" points="125.12,-141.04 130.36,-131.83 120.52,-135.76 125.12,-141.04"/>
</g>
<!-- Node10 -->
<g id="node10" class="node">
<title>Node10</title>
<g id="a_node10"><a xlink:title=" ">
<polygon fill="none" stroke="#bfbfbf" points="55,-112.5 55,-131.5 96,-131.5 96,-112.5 55,-112.5"/>
<text text-anchor="middle" x="75.5" y="-119.5" font-family="Helvetica,sans-Serif" font-size="10.00">QList</text>
</a>
</g>
</g>
<!-- Node9&#45;&gt;Node10 -->
<g id="edge13" class="edge">
<title>Node9&#45;&gt;Node10</title>
<path fill="none" stroke="midnightblue" d="M78,-168.08C77.61,-161.01 77.05,-150.86 76.55,-141.99"/>
<polygon fill="midnightblue" stroke="midnightblue" points="80.04,-141.54 75.99,-131.75 73.05,-141.93 80.04,-141.54"/>
</g>
</g>
</svg>
