<?xml version="1.0" encoding="UTF-8" standalone="no"?>
<!DOCTYPE svg PUBLIC "-//W3C//DTD SVG 1.1//EN"
 "http://www.w3.org/Graphics/SVG/1.1/DTD/svg11.dtd">
<!-- Generated by graphviz version 2.43.0 (0)
 -->
<!-- Title: FitDataMessage::globalMessageNumber Pages: 1 -->
<svg width="399pt" height="66pt"
 viewBox="0.00 0.00 399.00 66.00" xmlns="http://www.w3.org/2000/svg" xmlns:xlink="http://www.w3.org/1999/xlink">
<g id="graph0" class="graph" transform="scale(1 1) rotate(0) translate(4 62)">
<title>FitDataMessage::globalMessageNumber</title>
<!-- Node1 -->
<g id="node1" class="node">
<title>Node1</title>
<g id="a_node1"><a xlink:title=" ">
<polygon fill="#bfbfbf" stroke="black" points="216,-14 216,-44 391,-44 391,-14 216,-14"/>
<text text-anchor="start" x="224" y="-32" font-family="Helvetica,sans-Serif" font-size="10.00">FitDataMessage::globalMessage</text>
<text text-anchor="middle" x="303.5" y="-21" font-family="Helvetica,sans-Serif" font-size="10.00">Number</text>
</a>
</g>
</g>
<!-- Node2 -->
<g id="node2" class="node">
<title>Node2</title>
<g id="a_node2"><a xlink:href="classFitDataMessage.html#a46dd90c4c2605fe62601279c92779d99" target="_top" xlink:title=" ">
<polygon fill="none" stroke="black" points="0,-38.5 0,-57.5 180,-57.5 180,-38.5 0,-38.5"/>
<text text-anchor="middle" x="90" y="-45.5" font-family="Helvetica,sans-Serif" font-size="10.00">FitDataMessage::FitDataMessage</text>
</a>
</g>
</g>
<!-- Node1&#45;&gt;Node2 -->
<g id="edge1" class="edge">
<title>Node1&#45;&gt;Node2</title>
<path fill="none" stroke="midnightblue" d="M205.89,-37.68C197.34,-38.45 188.72,-39.22 180.24,-39.98"/>
<polygon fill="midnightblue" stroke="midnightblue" points="206.22,-41.16 215.86,-36.78 205.59,-34.19 206.22,-41.16"/>
</g>
<!-- Node3 -->
<g id="node3" class="node">
<title>Node3</title>
<g id="a_node3"><a xlink:href="classFitDataMessage.html#a7546b9d7d9696f6095592380afd9c680" target="_top" xlink:title=" ">
<polygon fill="none" stroke="black" points="14.5,-0.5 14.5,-19.5 165.5,-19.5 165.5,-0.5 14.5,-0.5"/>
<text text-anchor="middle" x="90" y="-7.5" font-family="Helvetica,sans-Serif" font-size="10.00">FitDataMessage::operator=</text>
</a>
</g>
</g>
<!-- Node1&#45;&gt;Node3 -->
<g id="edge2" class="edge">
<title>Node1&#45;&gt;Node3</title>
<path fill="none" stroke="midnightblue" d="M205.65,-20.3C192.22,-19.09 178.6,-17.87 165.66,-16.71"/>
<polygon fill="midnightblue" stroke="midnightblue" points="205.59,-23.81 215.86,-21.22 206.22,-16.84 205.59,-23.81"/>
</g>
</g>
</svg>
