<?xml version="1.0" encoding="UTF-8" standalone="no"?>
<!DOCTYPE svg PUBLIC "-//W3C//DTD SVG 1.1//EN"
 "http://www.w3.org/Graphics/SVG/1.1/DTD/svg11.dtd">
<!-- Generated by graphviz version 2.43.0 (0)
 -->
<!-- Title: FitDataMessage::FitDataMessage Pages: 1 -->
<svg width="399pt" height="78pt"
 viewBox="0.00 0.00 399.00 77.50" xmlns="http://www.w3.org/2000/svg" xmlns:xlink="http://www.w3.org/1999/xlink">
<g id="graph0" class="graph" transform="scale(1 1) rotate(0) translate(4 73.5)">
<title>FitDataMessage::FitDataMessage</title>
<!-- Node1 -->
<g id="node1" class="node">
<title>Node1</title>
<g id="a_node1"><a xlink:title=" ">
<polygon fill="#bfbfbf" stroke="black" points="0,-22.5 0,-41.5 180,-41.5 180,-22.5 0,-22.5"/>
<text text-anchor="middle" x="90" y="-29.5" font-family="Helvetica,sans-Serif" font-size="10.00">FitDataMessage::FitDataMessage</text>
</a>
</g>
</g>
<!-- Node2 -->
<g id="node2" class="node">
<title>Node2</title>
<g id="a_node2"><a xlink:href="classFitDataMessage.html#aec43e441e41b6b1a4d05199844440515" target="_top" xlink:title=" ">
<polygon fill="none" stroke="black" points="216,-39 216,-69 391,-69 391,-39 216,-39"/>
<text text-anchor="start" x="224" y="-57" font-family="Helvetica,sans-Serif" font-size="10.00">FitDataMessage::globalMessage</text>
<text text-anchor="middle" x="303.5" y="-46" font-family="Helvetica,sans-Serif" font-size="10.00">Number</text>
</a>
</g>
</g>
<!-- Node1&#45;&gt;Node2 -->
<g id="edge1" class="edge">
<title>Node1&#45;&gt;Node2</title>
<path fill="none" stroke="midnightblue" d="M180.08,-41.27C188.6,-42.15 197.27,-43.05 205.86,-43.95"/>
<polygon fill="midnightblue" stroke="midnightblue" points="205.58,-47.44 215.89,-44.99 206.3,-40.47 205.58,-47.44"/>
</g>
<!-- Node3 -->
<g id="node3" class="node">
<title>Node3</title>
<g id="a_node3"><a xlink:href="classFitDataMessage.html#a2e5d9335c615e5d806546a02d68a6646" target="_top" xlink:title=" ">
<polygon fill="none" stroke="black" points="239,-0.5 239,-19.5 368,-19.5 368,-0.5 239,-0.5"/>
<text text-anchor="middle" x="303.5" y="-7.5" font-family="Helvetica,sans-Serif" font-size="10.00">FitDataMessage::isNull</text>
</a>
</g>
</g>
<!-- Node1&#45;&gt;Node3 -->
<g id="edge2" class="edge">
<title>Node1&#45;&gt;Node3</title>
<path fill="none" stroke="midnightblue" d="M180.08,-22.73C196.29,-21.05 213.03,-19.31 228.73,-17.67"/>
<polygon fill="midnightblue" stroke="midnightblue" points="229.3,-21.13 238.89,-16.62 228.58,-14.17 229.3,-21.13"/>
</g>
</g>
</svg>
