<?xml version="1.0" encoding="UTF-8" standalone="no"?>
<!DOCTYPE svg PUBLIC "-//W3C//DTD SVG 1.1//EN"
 "http://www.w3.org/Graphics/SVG/1.1/DTD/svg11.dtd">
<!-- Generated by graphviz version 2.43.0 (0)
 -->
<!-- Title: FitStreamReader::device Pages: 1 -->
<svg width="334pt" height="78pt"
 viewBox="0.00 0.00 334.00 77.50" xmlns="http://www.w3.org/2000/svg" xmlns:xlink="http://www.w3.org/1999/xlink">
<g id="graph0" class="graph" transform="scale(1 1) rotate(0) translate(4 73.5)">
<title>FitStreamReader::device</title>
<!-- Node1 -->
<g id="node1" class="node">
<title>Node1</title>
<g id="a_node1"><a xlink:title=" ">
<polygon fill="#bfbfbf" stroke="black" points="189,-22.5 189,-41.5 326,-41.5 326,-22.5 189,-22.5"/>
<text text-anchor="middle" x="257.5" y="-29.5" font-family="Helvetica,sans-Serif" font-size="10.00">FitStreamReader::device</text>
</a>
</g>
</g>
<!-- Node2 -->
<g id="node2" class="node">
<title>Node2</title>
<g id="a_node2"><a xlink:href="classFitStreamReader.html#a3eb791a8907403a4cb9cdc5b4b339878" target="_top" xlink:title=" ">
<polygon fill="none" stroke="black" points="0.5,-39 0.5,-69 152.5,-69 152.5,-39 0.5,-39"/>
<text text-anchor="start" x="8.5" y="-57" font-family="Helvetica,sans-Serif" font-size="10.00">FitStreamReader::FitStream</text>
<text text-anchor="middle" x="76.5" y="-46" font-family="Helvetica,sans-Serif" font-size="10.00">Reader</text>
</a>
</g>
</g>
<!-- Node1&#45;&gt;Node2 -->
<g id="edge1" class="edge">
<title>Node1&#45;&gt;Node2</title>
<path fill="none" stroke="midnightblue" d="M178.78,-41.55C170.14,-42.61 161.36,-43.69 152.76,-44.75"/>
<polygon fill="midnightblue" stroke="midnightblue" points="179.33,-45.01 188.83,-40.32 178.48,-38.06 179.33,-45.01"/>
</g>
<!-- Node3 -->
<g id="node3" class="node">
<title>Node3</title>
<g id="a_node3"><a xlink:href="classFitStreamReader.html#ac5922537088dfa514ee1013d08ee59be" target="_top" xlink:title=" ">
<polygon fill="none" stroke="black" points="0,-0.5 0,-19.5 153,-19.5 153,-0.5 0,-0.5"/>
<text text-anchor="middle" x="76.5" y="-7.5" font-family="Helvetica,sans-Serif" font-size="10.00">FitStreamReader::setDevice</text>
</a>
</g>
</g>
<!-- Node1&#45;&gt;Node3 -->
<g id="edge2" class="edge">
<title>Node1&#45;&gt;Node3</title>
<path fill="none" stroke="midnightblue" d="M178.86,-22.46C170.3,-21.41 161.59,-20.34 153.06,-19.29"/>
<polygon fill="midnightblue" stroke="midnightblue" points="178.48,-25.94 188.83,-23.68 179.33,-18.99 178.48,-25.94"/>
</g>
</g>
</svg>
