<?xml version="1.0" encoding="UTF-8" standalone="no"?>
<!DOCTYPE svg PUBLIC "-//W3C//DTD SVG 1.1//EN"
 "http://www.w3.org/Graphics/SVG/1.1/DTD/svg11.dtd">
<!-- Generated by graphviz version 2.43.0 (0)
 -->
<!-- Title: fitdatamessage.cpp Pages: 1 -->
<svg width="263pt" height="308pt"
 viewBox="0.00 0.00 262.86 308.00" xmlns="http://www.w3.org/2000/svg" xmlns:xlink="http://www.w3.org/1999/xlink">
<g id="graph0" class="graph" transform="scale(1 1) rotate(0) translate(4 304)">
<title>fitdatamessage.cpp</title>
<!-- Node1 -->
<g id="node1" class="node">
<title>Node1</title>
<g id="a_node1"><a xlink:title=" ">
<polygon fill="#bfbfbf" stroke="black" points="114.36,-280.5 114.36,-299.5 227.36,-299.5 227.36,-280.5 114.36,-280.5"/>
<text text-anchor="middle" x="170.86" y="-287.5" font-family="Helvetica,sans-Serif" font-size="10.00">fitdatamessage.cpp</text>
</a>
</g>
</g>
<!-- Node2 -->
<g id="node2" class="node">
<title>Node2</title>
<g id="a_node2"><a xlink:href="fitdatamessage_8h.html" target="_top" xlink:title=" ">
<polygon fill="none" stroke="black" points="134.36,-168.5 134.36,-187.5 235.36,-187.5 235.36,-168.5 134.36,-168.5"/>
<text text-anchor="middle" x="184.86" y="-175.5" font-family="Helvetica,sans-Serif" font-size="10.00">fitdatamessage.h</text>
</a>
</g>
</g>
<!-- Node1&#45;&gt;Node2 -->
<g id="edge1" class="edge">
<title>Node1&#45;&gt;Node2</title>
<path fill="none" stroke="midnightblue" d="M171.96,-280.37C174.22,-262.62 179.43,-221.67 182.49,-197.6"/>
<polygon fill="midnightblue" stroke="midnightblue" points="185.98,-197.95 183.77,-187.59 179.03,-197.07 185.98,-197.95"/>
</g>
<!-- Node6 -->
<g id="node6" class="node">
<title>Node6</title>
<g id="a_node6"><a xlink:href="fitdatamessage__p_8h.html" target="_top" xlink:title=" ">
<polygon fill="none" stroke="black" points="16.36,-224.5 16.36,-243.5 129.36,-243.5 129.36,-224.5 16.36,-224.5"/>
<text text-anchor="middle" x="72.86" y="-231.5" font-family="Helvetica,sans-Serif" font-size="10.00">fitdatamessage_p.h</text>
</a>
</g>
</g>
<!-- Node1&#45;&gt;Node6 -->
<g id="edge6" class="edge">
<title>Node1&#45;&gt;Node6</title>
<path fill="none" stroke="midnightblue" d="M155.12,-280.32C139.54,-271.74 115.48,-258.49 97.4,-248.52"/>
<polygon fill="midnightblue" stroke="midnightblue" points="99.01,-245.42 88.57,-243.65 95.64,-251.55 99.01,-245.42"/>
</g>
<!-- Node9 -->
<g id="node9" class="node">
<title>Node9</title>
<g id="a_node9"><a xlink:title=" ">
<polygon fill="none" stroke="#bfbfbf" points="198.86,-224.5 198.86,-243.5 254.86,-243.5 254.86,-224.5 198.86,-224.5"/>
<text text-anchor="middle" x="226.86" y="-231.5" font-family="Helvetica,sans-Serif" font-size="10.00">QDebug</text>
</a>
</g>
</g>
<!-- Node1&#45;&gt;Node9 -->
<g id="edge12" class="edge">
<title>Node1&#45;&gt;Node9</title>
<path fill="none" stroke="midnightblue" d="M179.86,-280.32C188.06,-272.42 200.37,-260.55 210.33,-250.94"/>
<polygon fill="midnightblue" stroke="midnightblue" points="212.93,-253.29 217.7,-243.83 208.07,-248.26 212.93,-253.29"/>
</g>
<!-- Node3 -->
<g id="node3" class="node">
<title>Node3</title>
<g id="a_node3"><a xlink:href="QtFit__global_8h.html" target="_top" xlink:title=" ">
<polygon fill="none" stroke="black" points="65.86,-56.5 65.86,-75.5 149.86,-75.5 149.86,-56.5 65.86,-56.5"/>
<text text-anchor="middle" x="107.86" y="-63.5" font-family="Helvetica,sans-Serif" font-size="10.00">QtFit_global.h</text>
</a>
</g>
</g>
<!-- Node2&#45;&gt;Node3 -->
<g id="edge2" class="edge">
<title>Node2&#45;&gt;Node3</title>
<path fill="none" stroke="midnightblue" d="M179.85,-168.39C172.4,-155.75 157.79,-131.56 143.86,-112 136.97,-102.32 128.73,-91.94 121.87,-83.59"/>
<polygon fill="midnightblue" stroke="midnightblue" points="124.42,-81.19 115.33,-75.74 119.04,-85.66 124.42,-81.19"/>
</g>
<!-- Node5 -->
<g id="node5" class="node">
<title>Node5</title>
<g id="a_node5"><a xlink:href="types_8h.html" target="_top" xlink:title=" ">
<polygon fill="none" stroke="black" points="81.36,-112.5 81.36,-131.5 134.36,-131.5 134.36,-112.5 81.36,-112.5"/>
<text text-anchor="middle" x="107.86" y="-119.5" font-family="Helvetica,sans-Serif" font-size="10.00">types.h</text>
</a>
</g>
</g>
<!-- Node2&#45;&gt;Node5 -->
<g id="edge4" class="edge">
<title>Node2&#45;&gt;Node5</title>
<path fill="none" stroke="midnightblue" d="M172.49,-168.32C160.7,-160.06 142.73,-147.45 128.73,-137.63"/>
<polygon fill="midnightblue" stroke="midnightblue" points="130.4,-134.53 120.2,-131.65 126.38,-140.26 130.4,-134.53"/>
</g>
<!-- Node4 -->
<g id="node4" class="node">
<title>Node4</title>
<g id="a_node4"><a xlink:title=" ">
<polygon fill="none" stroke="#bfbfbf" points="78.36,-0.5 78.36,-19.5 137.36,-19.5 137.36,-0.5 78.36,-0.5"/>
<text text-anchor="middle" x="107.86" y="-7.5" font-family="Helvetica,sans-Serif" font-size="10.00">QtGlobal</text>
</a>
</g>
</g>
<!-- Node3&#45;&gt;Node4 -->
<g id="edge3" class="edge">
<title>Node3&#45;&gt;Node4</title>
<path fill="none" stroke="midnightblue" d="M107.86,-56.08C107.86,-49.01 107.86,-38.86 107.86,-29.99"/>
<polygon fill="midnightblue" stroke="midnightblue" points="111.36,-29.75 107.86,-19.75 104.36,-29.75 111.36,-29.75"/>
</g>
<!-- Node5&#45;&gt;Node3 -->
<g id="edge5" class="edge">
<title>Node5&#45;&gt;Node3</title>
<path fill="none" stroke="midnightblue" d="M107.86,-112.08C107.86,-105.01 107.86,-94.86 107.86,-85.99"/>
<polygon fill="midnightblue" stroke="midnightblue" points="111.36,-85.75 107.86,-75.75 104.36,-85.75 111.36,-85.75"/>
</g>
<!-- Node6&#45;&gt;Node3 -->
<g id="edge7" class="edge">
<title>Node6&#45;&gt;Node3</title>
<path fill="none" stroke="midnightblue" d="M49.41,-224.41C33.7,-217.28 14.24,-205.46 4.86,-188 -3.85,-171.8 0.16,-129.24 12.86,-112 24.46,-96.26 43,-85.81 60.63,-78.98"/>
<polygon fill="midnightblue" stroke="midnightblue" points="62.03,-82.2 70.28,-75.55 59.68,-75.6 62.03,-82.2"/>
</g>
<!-- Node6&#45;&gt;Node5 -->
<g id="edge8" class="edge">
<title>Node6&#45;&gt;Node5</title>
<path fill="none" stroke="midnightblue" d="M75.61,-224.37C81.28,-206.54 94.4,-165.3 102.05,-141.27"/>
<polygon fill="midnightblue" stroke="midnightblue" points="105.43,-142.18 105.13,-131.59 98.76,-140.06 105.43,-142.18"/>
</g>
<!-- Node7 -->
<g id="node7" class="node">
<title>Node7</title>
<g id="a_node7"><a xlink:href="types__p_8h.html" target="_top" xlink:title=" ">
<polygon fill="none" stroke="black" points="13.86,-168.5 13.86,-187.5 77.86,-187.5 77.86,-168.5 13.86,-168.5"/>
<text text-anchor="middle" x="45.86" y="-175.5" font-family="Helvetica,sans-Serif" font-size="10.00">types_p.h</text>
</a>
</g>
</g>
<!-- Node6&#45;&gt;Node7 -->
<g id="edge9" class="edge">
<title>Node6&#45;&gt;Node7</title>
<path fill="none" stroke="midnightblue" d="M68.4,-224.08C64.71,-216.69 59.34,-205.95 54.77,-196.81"/>
<polygon fill="midnightblue" stroke="midnightblue" points="57.84,-195.13 50.24,-187.75 51.58,-198.26 57.84,-195.13"/>
</g>
<!-- Node7&#45;&gt;Node5 -->
<g id="edge10" class="edge">
<title>Node7&#45;&gt;Node5</title>
<path fill="none" stroke="midnightblue" d="M55.82,-168.32C64.99,-160.34 78.8,-148.31 89.89,-138.65"/>
<polygon fill="midnightblue" stroke="midnightblue" points="92.48,-141.04 97.72,-131.83 87.88,-135.76 92.48,-141.04"/>
</g>
<!-- Node8 -->
<g id="node8" class="node">
<title>Node8</title>
<g id="a_node8"><a xlink:title=" ">
<polygon fill="none" stroke="#bfbfbf" points="22.36,-112.5 22.36,-131.5 63.36,-131.5 63.36,-112.5 22.36,-112.5"/>
<text text-anchor="middle" x="42.86" y="-119.5" font-family="Helvetica,sans-Serif" font-size="10.00">QList</text>
</a>
</g>
</g>
<!-- Node7&#45;&gt;Node8 -->
<g id="edge11" class="edge">
<title>Node7&#45;&gt;Node8</title>
<path fill="none" stroke="midnightblue" d="M45.37,-168.08C44.97,-161.01 44.41,-150.86 43.92,-141.99"/>
<polygon fill="midnightblue" stroke="midnightblue" points="47.4,-141.54 43.35,-131.75 40.41,-141.93 47.4,-141.54"/>
</g>
</g>
</svg>
