<?xml version="1.0" encoding="UTF-8" standalone="no"?>
<!DOCTYPE svg PUBLIC "-//W3C//DTD SVG 1.1//EN"
 "http://www.w3.org/Graphics/SVG/1.1/DTD/svg11.dtd">
<!-- Generated by graphviz version 2.43.0 (0)
 -->
<!-- Title: types.h Pages: 1 -->
<svg width="489pt" height="252pt"
 viewBox="0.00 0.00 488.50 252.00" xmlns="http://www.w3.org/2000/svg" xmlns:xlink="http://www.w3.org/1999/xlink">
<g id="graph0" class="graph" transform="scale(1 1) rotate(0) translate(4 248)">
<title>types.h</title>
<!-- Node1 -->
<g id="node1" class="node">
<title>Node1</title>
<g id="a_node1"><a xlink:title=" ">
<polygon fill="#bfbfbf" stroke="black" points="131,-224.5 131,-243.5 184,-243.5 184,-224.5 131,-224.5"/>
<text text-anchor="middle" x="157.5" y="-231.5" font-family="Helvetica,sans-Serif" font-size="10.00">types.h</text>
</a>
</g>
</g>
<!-- Node2 -->
<g id="node2" class="node">
<title>Node2</title>
<g id="a_node2"><a xlink:href="fitdatamessage_8h.html" target="_top" xlink:title=" ">
<polygon fill="none" stroke="black" points="222,-168.5 222,-187.5 323,-187.5 323,-168.5 222,-168.5"/>
<text text-anchor="middle" x="272.5" y="-175.5" font-family="Helvetica,sans-Serif" font-size="10.00">fitdatamessage.h</text>
</a>
</g>
</g>
<!-- Node1&#45;&gt;Node2 -->
<g id="edge1" class="edge">
<title>Node1&#45;&gt;Node2</title>
<path fill="none" stroke="midnightblue" d="M184.98,-220.1C206.47,-210.01 235.72,-196.27 254.36,-187.52"/>
<polygon fill="midnightblue" stroke="midnightblue" points="183.29,-217.02 175.72,-224.44 186.26,-223.36 183.29,-217.02"/>
</g>
<!-- Node9 -->
<g id="node9" class="node">
<title>Node9</title>
<g id="a_node9"><a xlink:href="fitdatamessage__p_8h.html" target="_top" xlink:title=" ">
<polygon fill="none" stroke="black" points="0,-112.5 0,-131.5 113,-131.5 113,-112.5 0,-112.5"/>
<text text-anchor="middle" x="56.5" y="-119.5" font-family="Helvetica,sans-Serif" font-size="10.00">fitdatamessage_p.h</text>
</a>
</g>
</g>
<!-- Node1&#45;&gt;Node9 -->
<g id="edge9" class="edge">
<title>Node1&#45;&gt;Node9</title>
<path fill="none" stroke="midnightblue" d="M142.71,-216.9C121,-193.25 81.24,-149.95 64.39,-131.59"/>
<polygon fill="midnightblue" stroke="midnightblue" points="140.23,-219.37 149.57,-224.37 145.39,-214.64 140.23,-219.37"/>
</g>
<!-- Node11 -->
<g id="node11" class="node">
<title>Node11</title>
<g id="a_node11"><a xlink:href="types__p_8h.html" target="_top" xlink:title=" ">
<polygon fill="none" stroke="black" points="125.5,-168.5 125.5,-187.5 189.5,-187.5 189.5,-168.5 125.5,-168.5"/>
<text text-anchor="middle" x="157.5" y="-175.5" font-family="Helvetica,sans-Serif" font-size="10.00">types_p.h</text>
</a>
</g>
</g>
<!-- Node1&#45;&gt;Node11 -->
<g id="edge13" class="edge">
<title>Node1&#45;&gt;Node11</title>
<path fill="none" stroke="midnightblue" d="M157.5,-213.8C157.5,-204.91 157.5,-194.78 157.5,-187.75"/>
<polygon fill="midnightblue" stroke="midnightblue" points="154,-214.08 157.5,-224.08 161,-214.08 154,-214.08"/>
</g>
<!-- Node3 -->
<g id="node3" class="node">
<title>Node3</title>
<g id="a_node3"><a xlink:href="fileidmessage_8h.html" target="_top" xlink:title=" ">
<polygon fill="none" stroke="black" points="386.5,-56.5 386.5,-75.5 480.5,-75.5 480.5,-56.5 386.5,-56.5"/>
<text text-anchor="middle" x="433.5" y="-63.5" font-family="Helvetica,sans-Serif" font-size="10.00">fileidmessage.h</text>
</a>
</g>
</g>
<!-- Node2&#45;&gt;Node3 -->
<g id="edge2" class="edge">
<title>Node2&#45;&gt;Node3</title>
<path fill="none" stroke="midnightblue" d="M333.46,-169.77C360.44,-163.7 390.69,-152.54 411.5,-132 427.1,-116.6 431.64,-89.76 432.96,-75.88"/>
<polygon fill="midnightblue" stroke="midnightblue" points="332.4,-166.42 323.31,-171.86 333.81,-173.28 332.4,-166.42"/>
</g>
<!-- Node5 -->
<g id="node5" class="node">
<title>Node5</title>
<g id="a_node5"><a xlink:href="fitdatamessage_8cpp.html" target="_top" xlink:title=" ">
<polygon fill="none" stroke="black" points="125,-56.5 125,-75.5 238,-75.5 238,-56.5 125,-56.5"/>
<text text-anchor="middle" x="181.5" y="-63.5" font-family="Helvetica,sans-Serif" font-size="10.00">fitdatamessage.cpp</text>
</a>
</g>
</g>
<!-- Node2&#45;&gt;Node5 -->
<g id="edge4" class="edge">
<title>Node2&#45;&gt;Node5</title>
<path fill="none" stroke="midnightblue" d="M270.62,-158.2C268.43,-144.27 263.7,-125.46 253.5,-112 240.68,-95.08 219.5,-82.96 203.43,-75.59"/>
<polygon fill="midnightblue" stroke="midnightblue" points="267.15,-158.65 271.89,-168.12 274.1,-157.76 267.15,-158.65"/>
</g>
<!-- Node6 -->
<g id="node6" class="node">
<title>Node6</title>
<g id="a_node6"><a xlink:href="fitstreamreader_8h.html" target="_top" xlink:title=" ">
<polygon fill="none" stroke="black" points="301,-112.5 301,-131.5 402,-131.5 402,-112.5 301,-112.5"/>
<text text-anchor="middle" x="351.5" y="-119.5" font-family="Helvetica,sans-Serif" font-size="10.00">fitstreamreader.h</text>
</a>
</g>
</g>
<!-- Node2&#45;&gt;Node6 -->
<g id="edge5" class="edge">
<title>Node2&#45;&gt;Node6</title>
<path fill="none" stroke="midnightblue" d="M293.53,-162.62C307.97,-152.76 326.64,-139.99 338.84,-131.65"/>
<polygon fill="midnightblue" stroke="midnightblue" points="291.47,-159.79 285.19,-168.32 295.42,-165.57 291.47,-159.79"/>
</g>
<!-- Node8 -->
<g id="node8" class="node">
<title>Node8</title>
<g id="a_node8"><a xlink:href="fitstreamreader__p_8h.html" target="_top" xlink:title=" ">
<polygon fill="none" stroke="black" points="131,-112.5 131,-131.5 244,-131.5 244,-112.5 131,-112.5"/>
<text text-anchor="middle" x="187.5" y="-119.5" font-family="Helvetica,sans-Serif" font-size="10.00">fitstreamreader_p.h</text>
</a>
</g>
</g>
<!-- Node2&#45;&gt;Node8 -->
<g id="edge7" class="edge">
<title>Node2&#45;&gt;Node8</title>
<path fill="none" stroke="midnightblue" d="M250.31,-162.9C234.72,-153 214.37,-140.07 201.12,-131.65"/>
<polygon fill="midnightblue" stroke="midnightblue" points="248.53,-165.92 258.84,-168.32 252.28,-160.01 248.53,-165.92"/>
</g>
<!-- Node4 -->
<g id="node4" class="node">
<title>Node4</title>
<g id="a_node4"><a xlink:href="fileidmessage_8cpp.html" target="_top" xlink:title=" ">
<polygon fill="none" stroke="black" points="191,-0.5 191,-19.5 296,-19.5 296,-0.5 191,-0.5"/>
<text text-anchor="middle" x="243.5" y="-7.5" font-family="Helvetica,sans-Serif" font-size="10.00">fileidmessage.cpp</text>
</a>
</g>
</g>
<!-- Node3&#45;&gt;Node4 -->
<g id="edge3" class="edge">
<title>Node3&#45;&gt;Node4</title>
<path fill="none" stroke="midnightblue" d="M393.74,-53.7C357.88,-43.51 305.93,-28.74 273.47,-19.52"/>
<polygon fill="midnightblue" stroke="midnightblue" points="392.82,-57.08 403.39,-56.44 394.73,-50.34 392.82,-57.08"/>
</g>
<!-- Node7 -->
<g id="node7" class="node">
<title>Node7</title>
<g id="a_node7"><a xlink:href="fitstreamreader_8cpp.html" target="_top" xlink:title=" ">
<polygon fill="none" stroke="black" points="256.5,-56.5 256.5,-75.5 368.5,-75.5 368.5,-56.5 256.5,-56.5"/>
<text text-anchor="middle" x="312.5" y="-63.5" font-family="Helvetica,sans-Serif" font-size="10.00">fitstreamreader.cpp</text>
</a>
</g>
</g>
<!-- Node6&#45;&gt;Node7 -->
<g id="edge6" class="edge">
<title>Node6&#45;&gt;Node7</title>
<path fill="none" stroke="midnightblue" d="M339.12,-103.86C332.36,-94.5 324.29,-83.33 318.82,-75.75"/>
<polygon fill="midnightblue" stroke="midnightblue" points="336.37,-106.03 345.06,-112.08 342.04,-101.93 336.37,-106.03"/>
</g>
<!-- Node8&#45;&gt;Node7 -->
<g id="edge8" class="edge">
<title>Node8&#45;&gt;Node7</title>
<path fill="none" stroke="midnightblue" d="M216.74,-108.37C240.15,-98.26 272.34,-84.35 292.79,-75.52"/>
<polygon fill="midnightblue" stroke="midnightblue" points="215.1,-105.26 207.31,-112.44 217.87,-111.69 215.1,-105.26"/>
</g>
<!-- Node9&#45;&gt;Node5 -->
<g id="edge12" class="edge">
<title>Node9&#45;&gt;Node5</title>
<path fill="none" stroke="midnightblue" d="M85.74,-108.37C109.15,-98.26 141.34,-84.35 161.79,-75.52"/>
<polygon fill="midnightblue" stroke="midnightblue" points="84.1,-105.26 76.31,-112.44 86.87,-111.69 84.1,-105.26"/>
</g>
<!-- Node10 -->
<g id="node10" class="node">
<title>Node10</title>
<g id="a_node10"><a xlink:href="fileidmessage__p_8h.html" target="_top" xlink:title=" ">
<polygon fill="none" stroke="black" points="2,-56.5 2,-75.5 107,-75.5 107,-56.5 2,-56.5"/>
<text text-anchor="middle" x="54.5" y="-63.5" font-family="Helvetica,sans-Serif" font-size="10.00">fileidmessage_p.h</text>
</a>
</g>
</g>
<!-- Node9&#45;&gt;Node10 -->
<g id="edge10" class="edge">
<title>Node9&#45;&gt;Node10</title>
<path fill="none" stroke="midnightblue" d="M55.79,-101.8C55.46,-92.91 55.08,-82.78 54.82,-75.75"/>
<polygon fill="midnightblue" stroke="midnightblue" points="52.3,-102.22 56.17,-112.08 59.3,-101.96 52.3,-102.22"/>
</g>
<!-- Node10&#45;&gt;Node4 -->
<g id="edge11" class="edge">
<title>Node10&#45;&gt;Node4</title>
<path fill="none" stroke="midnightblue" d="M94.51,-53.57C130.17,-43.38 181.54,-28.7 213.69,-19.52"/>
<polygon fill="midnightblue" stroke="midnightblue" points="93.1,-50.33 84.45,-56.44 95.02,-57.06 93.1,-50.33"/>
</g>
<!-- Node11&#45;&gt;Node8 -->
<g id="edge15" class="edge">
<title>Node11&#45;&gt;Node8</title>
<path fill="none" stroke="midnightblue" d="M167.35,-159.27C172.47,-150.05 178.52,-139.17 182.64,-131.75"/>
<polygon fill="midnightblue" stroke="midnightblue" points="164.25,-157.64 162.45,-168.08 170.37,-161.04 164.25,-157.64"/>
</g>
<!-- Node11&#45;&gt;Node9 -->
<g id="edge14" class="edge">
<title>Node11&#45;&gt;Node9</title>
<path fill="none" stroke="midnightblue" d="M132.42,-163.59C113.74,-153.61 88.8,-140.27 72.69,-131.65"/>
<polygon fill="midnightblue" stroke="midnightblue" points="130.8,-166.7 141.27,-168.32 134.1,-160.52 130.8,-166.7"/>
</g>
</g>
</svg>
